%TF.GenerationSoftware,KiCad,Pcbnew,8.0.6+1*%
%TF.CreationDate,2025-01-07T07:54:15+00:00*%
%TF.ProjectId,gshps,67736870-732e-46b6-9963-61645f706362,B*%
%TF.SameCoordinates,Original*%
%TF.FileFunction,Soldermask,Bot*%
%TF.FilePolarity,Negative*%
%FSLAX45Y45*%
G04 Gerber Fmt 4.5, Leading zero omitted, Abs format (unit mm)*
G04 Created by KiCad (PCBNEW 8.0.6+1) date 2025-01-07 07:54:15*
%MOMM*%
%LPD*%
G01*
G04 APERTURE LIST*
G04 Aperture macros list*
%AMRoundRect*
0 Rectangle with rounded corners*
0 $1 Rounding radius*
0 $2 $3 $4 $5 $6 $7 $8 $9 X,Y pos of 4 corners*
0 Add a 4 corners polygon primitive as box body*
4,1,4,$2,$3,$4,$5,$6,$7,$8,$9,$2,$3,0*
0 Add four circle primitives for the rounded corners*
1,1,$1+$1,$2,$3*
1,1,$1+$1,$4,$5*
1,1,$1+$1,$6,$7*
1,1,$1+$1,$8,$9*
0 Add four rect primitives between the rounded corners*
20,1,$1+$1,$2,$3,$4,$5,0*
20,1,$1+$1,$4,$5,$6,$7,0*
20,1,$1+$1,$6,$7,$8,$9,0*
20,1,$1+$1,$8,$9,$2,$3,0*%
G04 Aperture macros list end*
%TA.AperFunction,Profile*%
%ADD10C,0.100000*%
%TD*%
%ADD11C,0.300000*%
%ADD12C,5.000000*%
%ADD13C,0.660000*%
%ADD14O,0.580000X1.000000*%
%ADD15C,1.100000*%
%ADD16RoundRect,0.050000X0.387500X0.050000X-0.387500X0.050000X-0.387500X-0.050000X0.387500X-0.050000X0*%
%ADD17RoundRect,0.050000X0.050000X0.387500X-0.050000X0.387500X-0.050000X-0.387500X0.050000X-0.387500X0*%
%ADD18R,3.200000X3.200000*%
%ADD19RoundRect,0.135000X-0.185000X0.135000X-0.185000X-0.135000X0.185000X-0.135000X0.185000X0.135000X0*%
%ADD20RoundRect,0.225000X-0.225000X-0.250000X0.225000X-0.250000X0.225000X0.250000X-0.225000X0.250000X0*%
%ADD21RoundRect,0.140000X-0.140000X-0.170000X0.140000X-0.170000X0.140000X0.170000X-0.140000X0.170000X0*%
%ADD22RoundRect,0.140000X-0.170000X0.140000X-0.170000X-0.140000X0.170000X-0.140000X0.170000X0.140000X0*%
%ADD23RoundRect,0.150000X0.150000X-0.587500X0.150000X0.587500X-0.150000X0.587500X-0.150000X-0.587500X0*%
%ADD24RoundRect,0.225000X0.250000X-0.225000X0.250000X0.225000X-0.250000X0.225000X-0.250000X-0.225000X0*%
%ADD25R,0.700000X1.750000*%
%ADD26R,1.450000X1.000000*%
%ADD27R,1.000000X1.550000*%
%ADD28R,0.800000X1.500000*%
%ADD29R,1.300000X1.500000*%
%ADD30R,1.500000X1.500000*%
%ADD31R,0.800000X1.400000*%
%ADD32RoundRect,0.250000X-0.300000X-0.300000X0.300000X-0.300000X0.300000X0.300000X-0.300000X0.300000X0*%
%ADD33RoundRect,0.135000X-0.135000X-0.185000X0.135000X-0.185000X0.135000X0.185000X-0.135000X0.185000X0*%
%ADD34RoundRect,0.140000X-0.219203X-0.021213X-0.021213X-0.219203X0.219203X0.021213X0.021213X0.219203X0*%
%ADD35RoundRect,0.250000X0.250000X0.475000X-0.250000X0.475000X-0.250000X-0.475000X0.250000X-0.475000X0*%
%ADD36RoundRect,0.150000X0.587500X0.150000X-0.587500X0.150000X-0.587500X-0.150000X0.587500X-0.150000X0*%
%ADD37R,1.700000X1.000000*%
%ADD38RoundRect,0.150000X0.650000X0.150000X-0.650000X0.150000X-0.650000X-0.150000X0.650000X-0.150000X0*%
%ADD39R,2.410000X3.100000*%
%ADD40RoundRect,0.140000X0.170000X-0.140000X0.170000X0.140000X-0.170000X0.140000X-0.170000X-0.140000X0*%
%ADD41RoundRect,0.150000X-0.587500X-0.150000X0.587500X-0.150000X0.587500X0.150000X-0.587500X0.150000X0*%
%ADD42RoundRect,0.140000X0.140000X0.170000X-0.140000X0.170000X-0.140000X-0.170000X0.140000X-0.170000X0*%
%ADD43RoundRect,0.135000X0.135000X0.185000X-0.135000X0.185000X-0.135000X-0.185000X0.135000X-0.185000X0*%
%ADD44RoundRect,0.135000X0.185000X-0.135000X0.185000X0.135000X-0.185000X0.135000X-0.185000X-0.135000X0*%
%ADD45RoundRect,0.150000X-0.150000X0.587500X-0.150000X-0.587500X0.150000X-0.587500X0.150000X0.587500X0*%
%ADD46RoundRect,0.225000X-0.250000X0.225000X-0.250000X-0.225000X0.250000X-0.225000X0.250000X0.225000X0*%
%ADD47R,2.400000X0.740000*%
%ADD48RoundRect,0.200000X0.600000X-0.200000X0.600000X0.200000X-0.600000X0.200000X-0.600000X-0.200000X0*%
%ADD49RoundRect,0.250001X1.249999X-0.799999X1.249999X0.799999X-1.249999X0.799999X-1.249999X-0.799999X0*%
%ADD50RoundRect,0.250000X-0.362500X-1.425000X0.362500X-1.425000X0.362500X1.425000X-0.362500X1.425000X0*%
%ADD51RoundRect,0.140000X-0.021213X0.219203X-0.219203X0.021213X0.021213X-0.219203X0.219203X-0.021213X0*%
%ADD52R,1.400000X1.200000*%
%ADD53RoundRect,0.250000X0.475000X-0.250000X0.475000X0.250000X-0.475000X0.250000X-0.475000X-0.250000X0*%
%ADD54RoundRect,0.250000X0.300000X0.300000X-0.300000X0.300000X-0.300000X-0.300000X0.300000X-0.300000X0*%
%ADD55RoundRect,0.250000X-0.475000X0.250000X-0.475000X-0.250000X0.475000X-0.250000X0.475000X0.250000X0*%
%ADD56RoundRect,0.150000X0.512500X0.150000X-0.512500X0.150000X-0.512500X-0.150000X0.512500X-0.150000X0*%
%ADD57RoundRect,0.225000X0.375000X-0.225000X0.375000X0.225000X-0.375000X0.225000X-0.375000X-0.225000X0*%
%ADD58RoundRect,0.250000X0.300000X-0.300000X0.300000X0.300000X-0.300000X0.300000X-0.300000X-0.300000X0*%
%ADD59RoundRect,0.140000X0.021213X-0.219203X0.219203X-0.021213X-0.021213X0.219203X-0.219203X0.021213X0*%
%ADD60RoundRect,0.250000X0.375000X0.850000X-0.375000X0.850000X-0.375000X-0.850000X0.375000X-0.850000X0*%
%ADD61RoundRect,0.250000X0.350000X0.625000X-0.350000X0.625000X-0.350000X-0.625000X0.350000X-0.625000X0*%
%ADD62O,1.200000X1.750000*%
G04 APERTURE END LIST*
D10*
X4300000Y-5900000D02*
X6350000Y-5900000D01*
X10750000Y-2350000D02*
G75*
G02*
X11850000Y-3450000I0J-1100000D01*
G01*
X11850000Y-6750000D02*
G75*
G02*
X10750000Y-7850000I-1100000J0D01*
G01*
X3950000Y-7850000D02*
G75*
G02*
X2850000Y-6750000I0J1100000D01*
G01*
X4100000Y-7850000D02*
X4100000Y-6100000D01*
X4100000Y-6100000D02*
G75*
G02*
X4300000Y-5900000I200000J0D01*
G01*
X10750000Y-7850000D02*
X6550000Y-7850000D01*
X3950000Y-2350000D02*
X10750000Y-2350000D01*
X4100000Y-7850000D02*
X3950000Y-7850000D01*
X2850000Y-6750000D02*
X2850000Y-3450000D01*
X6550000Y-7850000D02*
X6550000Y-6100000D01*
X2850000Y-3450000D02*
G75*
G02*
X3950000Y-2350000I1100000J0D01*
G01*
X6350000Y-5900000D02*
G75*
G02*
X6550000Y-6100000I0J-200000D01*
G01*
X11850000Y-3450000D02*
X11850000Y-6750000D01*
D11*
X11742833Y-5546165D02*
X11671404Y-5496165D01*
X11742833Y-5460451D02*
X11592833Y-5460451D01*
X11592833Y-5460451D02*
X11592833Y-5517594D01*
X11592833Y-5517594D02*
X11599976Y-5531880D01*
X11599976Y-5531880D02*
X11607118Y-5539023D01*
X11607118Y-5539023D02*
X11621404Y-5546165D01*
X11621404Y-5546165D02*
X11642833Y-5546165D01*
X11642833Y-5546165D02*
X11657118Y-5539023D01*
X11657118Y-5539023D02*
X11664261Y-5531880D01*
X11664261Y-5531880D02*
X11671404Y-5517594D01*
X11671404Y-5517594D02*
X11671404Y-5460451D01*
X11664261Y-5610451D02*
X11664261Y-5660451D01*
X11742833Y-5681880D02*
X11742833Y-5610451D01*
X11742833Y-5610451D02*
X11592833Y-5610451D01*
X11592833Y-5610451D02*
X11592833Y-5681880D01*
X11592833Y-5724737D02*
X11742833Y-5774737D01*
X11742833Y-5774737D02*
X11592833Y-5824737D01*
X11664261Y-6039022D02*
X11671404Y-6060451D01*
X11671404Y-6060451D02*
X11678547Y-6067594D01*
X11678547Y-6067594D02*
X11692833Y-6074737D01*
X11692833Y-6074737D02*
X11714261Y-6074737D01*
X11714261Y-6074737D02*
X11728547Y-6067594D01*
X11728547Y-6067594D02*
X11735690Y-6060451D01*
X11735690Y-6060451D02*
X11742833Y-6046165D01*
X11742833Y-6046165D02*
X11742833Y-5989022D01*
X11742833Y-5989022D02*
X11592833Y-5989022D01*
X11592833Y-5989022D02*
X11592833Y-6039022D01*
X11592833Y-6039022D02*
X11599976Y-6053308D01*
X11599976Y-6053308D02*
X11607118Y-6060451D01*
X11607118Y-6060451D02*
X11621404Y-6067594D01*
X11621404Y-6067594D02*
X11635690Y-6067594D01*
X11635690Y-6067594D02*
X11649976Y-6060451D01*
X11649976Y-6060451D02*
X11657118Y-6053308D01*
X11657118Y-6053308D02*
X11664261Y-6039022D01*
X11664261Y-6039022D02*
X11664261Y-5989022D01*
X11412833Y-5524737D02*
X11534261Y-5524737D01*
X11534261Y-5524737D02*
X11548547Y-5517594D01*
X11548547Y-5517594D02*
X11555690Y-5510451D01*
X11555690Y-5510451D02*
X11562833Y-5496165D01*
X11562833Y-5496165D02*
X11562833Y-5474737D01*
X11562833Y-5474737D02*
X11555690Y-5460451D01*
X11505690Y-5524737D02*
X11512833Y-5510451D01*
X11512833Y-5510451D02*
X11512833Y-5481880D01*
X11512833Y-5481880D02*
X11505690Y-5467594D01*
X11505690Y-5467594D02*
X11498547Y-5460451D01*
X11498547Y-5460451D02*
X11484261Y-5453308D01*
X11484261Y-5453308D02*
X11441404Y-5453308D01*
X11441404Y-5453308D02*
X11427118Y-5460451D01*
X11427118Y-5460451D02*
X11419976Y-5467594D01*
X11419976Y-5467594D02*
X11412833Y-5481880D01*
X11412833Y-5481880D02*
X11412833Y-5510451D01*
X11412833Y-5510451D02*
X11419976Y-5524737D01*
X11505690Y-5589023D02*
X11512833Y-5603308D01*
X11512833Y-5603308D02*
X11512833Y-5631880D01*
X11512833Y-5631880D02*
X11505690Y-5646165D01*
X11505690Y-5646165D02*
X11491404Y-5653308D01*
X11491404Y-5653308D02*
X11484261Y-5653308D01*
X11484261Y-5653308D02*
X11469976Y-5646165D01*
X11469976Y-5646165D02*
X11462833Y-5631880D01*
X11462833Y-5631880D02*
X11462833Y-5610451D01*
X11462833Y-5610451D02*
X11455690Y-5596165D01*
X11455690Y-5596165D02*
X11441404Y-5589023D01*
X11441404Y-5589023D02*
X11434261Y-5589023D01*
X11434261Y-5589023D02*
X11419976Y-5596165D01*
X11419976Y-5596165D02*
X11412833Y-5610451D01*
X11412833Y-5610451D02*
X11412833Y-5631880D01*
X11412833Y-5631880D02*
X11419976Y-5646165D01*
X11512833Y-5717594D02*
X11362833Y-5717594D01*
X11512833Y-5781880D02*
X11434261Y-5781880D01*
X11434261Y-5781880D02*
X11419976Y-5774737D01*
X11419976Y-5774737D02*
X11412833Y-5760451D01*
X11412833Y-5760451D02*
X11412833Y-5739022D01*
X11412833Y-5739022D02*
X11419976Y-5724737D01*
X11419976Y-5724737D02*
X11427118Y-5717594D01*
X11412833Y-5853308D02*
X11562833Y-5853308D01*
X11419976Y-5853308D02*
X11412833Y-5867594D01*
X11412833Y-5867594D02*
X11412833Y-5896165D01*
X11412833Y-5896165D02*
X11419976Y-5910451D01*
X11419976Y-5910451D02*
X11427118Y-5917594D01*
X11427118Y-5917594D02*
X11441404Y-5924737D01*
X11441404Y-5924737D02*
X11484261Y-5924737D01*
X11484261Y-5924737D02*
X11498547Y-5917594D01*
X11498547Y-5917594D02*
X11505690Y-5910451D01*
X11505690Y-5910451D02*
X11512833Y-5896165D01*
X11512833Y-5896165D02*
X11512833Y-5867594D01*
X11512833Y-5867594D02*
X11505690Y-5853308D01*
X11505690Y-5981880D02*
X11512833Y-5996165D01*
X11512833Y-5996165D02*
X11512833Y-6024737D01*
X11512833Y-6024737D02*
X11505690Y-6039022D01*
X11505690Y-6039022D02*
X11491404Y-6046165D01*
X11491404Y-6046165D02*
X11484261Y-6046165D01*
X11484261Y-6046165D02*
X11469976Y-6039022D01*
X11469976Y-6039022D02*
X11462833Y-6024737D01*
X11462833Y-6024737D02*
X11462833Y-6003308D01*
X11462833Y-6003308D02*
X11455690Y-5989022D01*
X11455690Y-5989022D02*
X11441404Y-5981880D01*
X11441404Y-5981880D02*
X11434261Y-5981880D01*
X11434261Y-5981880D02*
X11419976Y-5989022D01*
X11419976Y-5989022D02*
X11412833Y-6003308D01*
X11412833Y-6003308D02*
X11412833Y-6024737D01*
X11412833Y-6024737D02*
X11419976Y-6039022D01*
D12*
X11200000Y-7200000D03*
D13*
X3483500Y-6400000D03*
D14*
X3483500Y-5650000D03*
D15*
X3268500Y-6265000D03*
X3698500Y-6265000D03*
X3268500Y-5785000D03*
X3698500Y-5785000D03*
D12*
X3500000Y-7200000D03*
X3500000Y-3000000D03*
X11200000Y-3000000D03*
D16*
X8443750Y-4440000D03*
X8443750Y-4480000D03*
X8443750Y-4520000D03*
X8443750Y-4560000D03*
X8443750Y-4600000D03*
X8443750Y-4640000D03*
X8443750Y-4680000D03*
X8443750Y-4720000D03*
X8443750Y-4760000D03*
X8443750Y-4800000D03*
X8443750Y-4840000D03*
X8443750Y-4880000D03*
X8443750Y-4920000D03*
X8443750Y-4960000D03*
D17*
X8360000Y-5043750D03*
X8320000Y-5043750D03*
X8280000Y-5043750D03*
X8240000Y-5043750D03*
X8200000Y-5043750D03*
X8160000Y-5043750D03*
X8120000Y-5043750D03*
X8080000Y-5043750D03*
X8040000Y-5043750D03*
X8000000Y-5043750D03*
X7960000Y-5043750D03*
X7920000Y-5043750D03*
X7880000Y-5043750D03*
X7840000Y-5043750D03*
D16*
X7756250Y-4960000D03*
X7756250Y-4920000D03*
X7756250Y-4880000D03*
X7756250Y-4840000D03*
X7756250Y-4800000D03*
X7756250Y-4760000D03*
X7756250Y-4720000D03*
X7756250Y-4680000D03*
X7756250Y-4640000D03*
X7756250Y-4600000D03*
X7756250Y-4560000D03*
X7756250Y-4520000D03*
X7756250Y-4480000D03*
X7756250Y-4440000D03*
D17*
X7840000Y-4356250D03*
X7880000Y-4356250D03*
X7920000Y-4356250D03*
X7960000Y-4356250D03*
X8000000Y-4356250D03*
X8040000Y-4356250D03*
X8080000Y-4356250D03*
X8120000Y-4356250D03*
X8160000Y-4356250D03*
X8200000Y-4356250D03*
X8240000Y-4356250D03*
X8280000Y-4356250D03*
X8320000Y-4356250D03*
X8360000Y-4356250D03*
D18*
X8100000Y-4700000D03*
D19*
X10250000Y-3899000D03*
X10250000Y-4001000D03*
D20*
X10272500Y-4150000D03*
X10427500Y-4150000D03*
D19*
X9350000Y-4749000D03*
X9350000Y-4851000D03*
D21*
X7512000Y-4800000D03*
X7608000Y-4800000D03*
D20*
X4772500Y-4100000D03*
X4927500Y-4100000D03*
D19*
X3030000Y-6059000D03*
X3030000Y-6161000D03*
D22*
X8100000Y-4052000D03*
X8100000Y-4148000D03*
D23*
X9445000Y-4593750D03*
X9255000Y-4593750D03*
X9350000Y-4406250D03*
D19*
X7400000Y-4549000D03*
X7400000Y-4651000D03*
D20*
X4772500Y-3950000D03*
X4927500Y-3950000D03*
D24*
X4750000Y-4527500D03*
X4750000Y-4372500D03*
D25*
X5482500Y-5635000D03*
X5592500Y-5635000D03*
X5702500Y-5635000D03*
X5812500Y-5635000D03*
X5922500Y-5635000D03*
X6032500Y-5635000D03*
X6142500Y-5635000D03*
X6252500Y-5635000D03*
D26*
X6365000Y-4712500D03*
D27*
X5242500Y-4555000D03*
D28*
X6397500Y-4862500D03*
D29*
X6372500Y-5622500D03*
D30*
X5237500Y-5622500D03*
D31*
X5202500Y-4797500D03*
D32*
X5560000Y-4100000D03*
X5840000Y-4100000D03*
D33*
X9049000Y-3550000D03*
X9151000Y-3550000D03*
D19*
X10610000Y-3376500D03*
X10610000Y-3478500D03*
D34*
X7976059Y-3766059D03*
X8043941Y-3833941D03*
D35*
X9655000Y-3200000D03*
X9465000Y-3200000D03*
D36*
X6753750Y-3275000D03*
X6753750Y-3465000D03*
X6566250Y-3370000D03*
D37*
X9448964Y-6107000D03*
X10078964Y-6107000D03*
X9448964Y-5727000D03*
X10078964Y-5727000D03*
D19*
X9540000Y-3919000D03*
X9540000Y-4021000D03*
D20*
X4772500Y-3650000D03*
X4927500Y-3650000D03*
D22*
X8750000Y-5452000D03*
X8750000Y-5548000D03*
D38*
X10415000Y-3209500D03*
X10415000Y-3336500D03*
X10415000Y-3463500D03*
X10415000Y-3590500D03*
X9885000Y-3590500D03*
X9885000Y-3463500D03*
X9885000Y-3336500D03*
X9885000Y-3209500D03*
D39*
X10150000Y-3400000D03*
D19*
X10350000Y-3899000D03*
X10350000Y-4001000D03*
D40*
X8110000Y-5348000D03*
X8110000Y-5252000D03*
D19*
X10450000Y-4799000D03*
X10450000Y-4901000D03*
D21*
X8452000Y-3550000D03*
X8548000Y-3550000D03*
D19*
X7900000Y-4098000D03*
X7900000Y-4200000D03*
D41*
X7056250Y-5095000D03*
X7056250Y-4905000D03*
X7243750Y-5000000D03*
D38*
X9160000Y-3709500D03*
X9160000Y-3836500D03*
X9160000Y-3963500D03*
X9160000Y-4090500D03*
X8440000Y-4090500D03*
X8440000Y-3963500D03*
X8440000Y-3836500D03*
X8440000Y-3709500D03*
D42*
X8700000Y-4800000D03*
X8604000Y-4800000D03*
D43*
X8706000Y-6043750D03*
X8604000Y-6043750D03*
D44*
X5040000Y-4651000D03*
X5040000Y-4549000D03*
D45*
X8560000Y-6200000D03*
X8750000Y-6200000D03*
X8655000Y-6387500D03*
D22*
X8200000Y-4052000D03*
X8200000Y-4148000D03*
D46*
X8150000Y-3172500D03*
X8150000Y-3327500D03*
D40*
X6100000Y-3848000D03*
X6100000Y-3752000D03*
D42*
X8700000Y-4400000D03*
X8604000Y-4400000D03*
D19*
X10450000Y-5499000D03*
X10450000Y-5601000D03*
D47*
X6805000Y-7504000D03*
X7195000Y-7504000D03*
X6805000Y-7377000D03*
X7195000Y-7377000D03*
X6805000Y-7250000D03*
X7195000Y-7250000D03*
X6805000Y-7123000D03*
X7195000Y-7123000D03*
X6805000Y-6996000D03*
X7195000Y-6996000D03*
D48*
X8340000Y-6575000D03*
X8340000Y-6450000D03*
X8340000Y-6325000D03*
D49*
X8050000Y-6830000D03*
X8050000Y-6070000D03*
D24*
X5140000Y-3677500D03*
X5140000Y-3522500D03*
D40*
X3570000Y-6218000D03*
X3570000Y-6122000D03*
D37*
X7585000Y-7490000D03*
X8215000Y-7490000D03*
X7585000Y-7110000D03*
X8215000Y-7110000D03*
D46*
X7600000Y-4022500D03*
X7600000Y-4177500D03*
D41*
X9896250Y-4165000D03*
X9896250Y-3975000D03*
X10083750Y-4070000D03*
D50*
X9253750Y-2900000D03*
X9846250Y-2900000D03*
D43*
X9281000Y-5750000D03*
X9179000Y-5750000D03*
D44*
X6910000Y-3421000D03*
X6910000Y-3319000D03*
D40*
X7500000Y-4648000D03*
X7500000Y-4552000D03*
D24*
X6250000Y-3877500D03*
X6250000Y-3722500D03*
D36*
X10090000Y-4320000D03*
X10090000Y-4510000D03*
X9902500Y-4415000D03*
D46*
X7750000Y-4022500D03*
X7750000Y-4177500D03*
D51*
X6733941Y-3776059D03*
X6666059Y-3843941D03*
D52*
X8340000Y-5420000D03*
X8560000Y-5420000D03*
X8560000Y-5580000D03*
X8340000Y-5580000D03*
D46*
X7400000Y-3150000D03*
X7400000Y-3305000D03*
D53*
X5550000Y-3745000D03*
X5550000Y-3555000D03*
D21*
X7512000Y-4440000D03*
X7608000Y-4440000D03*
D44*
X9450000Y-4851000D03*
X9450000Y-4749000D03*
D54*
X5540000Y-3300000D03*
X5260000Y-3300000D03*
D33*
X3829000Y-5650000D03*
X3931000Y-5650000D03*
D20*
X4772500Y-3350000D03*
X4927500Y-3350000D03*
D55*
X9690000Y-3975000D03*
X9690000Y-4165000D03*
D43*
X8311000Y-5270000D03*
X8209000Y-5270000D03*
D19*
X10610000Y-2899000D03*
X10610000Y-3001000D03*
D36*
X8750000Y-3110000D03*
X8750000Y-3300000D03*
X8562500Y-3205000D03*
D56*
X7813750Y-3155000D03*
X7813750Y-3250000D03*
X7813750Y-3345000D03*
X7586250Y-3345000D03*
X7586250Y-3155000D03*
D50*
X5753750Y-3350000D03*
X6346250Y-3350000D03*
D19*
X8000000Y-3149000D03*
X8000000Y-3251000D03*
D35*
X9865000Y-3780000D03*
X9675000Y-3780000D03*
D19*
X10450000Y-6199000D03*
X10450000Y-6301000D03*
D44*
X9540000Y-4221000D03*
X9540000Y-4119000D03*
D57*
X9000000Y-3365000D03*
X9000000Y-3035000D03*
D58*
X5330000Y-3790000D03*
X5330000Y-3510000D03*
D59*
X6726059Y-5703941D03*
X6793941Y-5636059D03*
D41*
X7056250Y-4745000D03*
X7056250Y-4555000D03*
X7243750Y-4650000D03*
D44*
X6900000Y-5051000D03*
X6900000Y-4949000D03*
D40*
X8010000Y-5348000D03*
X8010000Y-5252000D03*
D60*
X6257500Y-4100000D03*
X6042500Y-4100000D03*
D43*
X8801000Y-2950000D03*
X8699000Y-2950000D03*
D40*
X8150000Y-5548000D03*
X8150000Y-5452000D03*
D41*
X5750000Y-3850000D03*
X5750000Y-3660000D03*
X5937500Y-3755000D03*
D43*
X7701000Y-6950000D03*
X7599000Y-6950000D03*
D19*
X6900000Y-4599000D03*
X6900000Y-4701000D03*
X8000000Y-4099000D03*
X8000000Y-4201000D03*
D57*
X9650000Y-4715000D03*
X9650000Y-4385000D03*
D33*
X3649000Y-5420000D03*
X3751000Y-5420000D03*
D24*
X5350000Y-4127500D03*
X5350000Y-3972500D03*
D33*
X3649000Y-5250000D03*
X3751000Y-5250000D03*
D61*
X11400000Y-3750000D03*
D62*
X11200000Y-3750000D03*
M02*
