%TF.GenerationSoftware,KiCad,Pcbnew,8.0.6+1*%
%TF.CreationDate,2025-02-16T06:00:45+00:00*%
%TF.ProjectId,gshps,67736870-732e-46b6-9963-61645f706362,C*%
%TF.SameCoordinates,Original*%
%TF.FileFunction,Soldermask,Bot*%
%TF.FilePolarity,Negative*%
%FSLAX45Y45*%
G04 Gerber Fmt 4.5, Leading zero omitted, Abs format (unit mm)*
G04 Created by KiCad (PCBNEW 8.0.6+1) date 2025-02-16 06:00:45*
%MOMM*%
%LPD*%
G01*
G04 APERTURE LIST*
G04 Aperture macros list*
%AMRoundRect*
0 Rectangle with rounded corners*
0 $1 Rounding radius*
0 $2 $3 $4 $5 $6 $7 $8 $9 X,Y pos of 4 corners*
0 Add a 4 corners polygon primitive as box body*
4,1,4,$2,$3,$4,$5,$6,$7,$8,$9,$2,$3,0*
0 Add four circle primitives for the rounded corners*
1,1,$1+$1,$2,$3*
1,1,$1+$1,$4,$5*
1,1,$1+$1,$6,$7*
1,1,$1+$1,$8,$9*
0 Add four rect primitives between the rounded corners*
20,1,$1+$1,$2,$3,$4,$5,0*
20,1,$1+$1,$4,$5,$6,$7,0*
20,1,$1+$1,$6,$7,$8,$9,0*
20,1,$1+$1,$8,$9,$2,$3,0*%
G04 Aperture macros list end*
%ADD10C,0.100000*%
%ADD11C,0.150000*%
%ADD12C,0.300000*%
%ADD13C,0.400000*%
%TA.AperFunction,Profile*%
%ADD14C,0.100000*%
%TD*%
%ADD15C,5.000000*%
%ADD16C,0.660000*%
%ADD17O,0.580000X1.000000*%
%ADD18C,1.100000*%
%ADD19RoundRect,0.050000X0.387500X0.050000X-0.387500X0.050000X-0.387500X-0.050000X0.387500X-0.050000X0*%
%ADD20RoundRect,0.050000X0.050000X0.387500X-0.050000X0.387500X-0.050000X-0.387500X0.050000X-0.387500X0*%
%ADD21R,3.200000X3.200000*%
%ADD22RoundRect,0.135000X-0.185000X0.135000X-0.185000X-0.135000X0.185000X-0.135000X0.185000X0.135000X0*%
%ADD23RoundRect,0.225000X-0.225000X-0.250000X0.225000X-0.250000X0.225000X0.250000X-0.225000X0.250000X0*%
%ADD24RoundRect,0.135000X0.135000X0.185000X-0.135000X0.185000X-0.135000X-0.185000X0.135000X-0.185000X0*%
%ADD25RoundRect,0.140000X-0.140000X-0.170000X0.140000X-0.170000X0.140000X0.170000X-0.140000X0.170000X0*%
%ADD26RoundRect,0.140000X-0.170000X0.140000X-0.170000X-0.140000X0.170000X-0.140000X0.170000X0.140000X0*%
%ADD27RoundRect,0.150000X0.150000X-0.587500X0.150000X0.587500X-0.150000X0.587500X-0.150000X-0.587500X0*%
%ADD28R,0.700000X1.750000*%
%ADD29R,1.450000X1.000000*%
%ADD30R,1.000000X1.550000*%
%ADD31R,0.800000X1.500000*%
%ADD32R,1.300000X1.500000*%
%ADD33R,1.500000X1.500000*%
%ADD34R,0.800000X1.400000*%
%ADD35RoundRect,0.250000X-0.300000X-0.300000X0.300000X-0.300000X0.300000X0.300000X-0.300000X0.300000X0*%
%ADD36RoundRect,0.135000X-0.135000X-0.185000X0.135000X-0.185000X0.135000X0.185000X-0.135000X0.185000X0*%
%ADD37RoundRect,0.140000X-0.219203X-0.021213X-0.021213X-0.219203X0.219203X0.021213X0.021213X0.219203X0*%
%ADD38RoundRect,0.250000X0.250000X0.475000X-0.250000X0.475000X-0.250000X-0.475000X0.250000X-0.475000X0*%
%ADD39RoundRect,0.150000X0.587500X0.150000X-0.587500X0.150000X-0.587500X-0.150000X0.587500X-0.150000X0*%
%ADD40R,0.800000X0.300000*%
%ADD41R,0.800000X0.400000*%
%ADD42R,1.700000X1.000000*%
%ADD43RoundRect,0.150000X0.650000X0.150000X-0.650000X0.150000X-0.650000X-0.150000X0.650000X-0.150000X0*%
%ADD44R,2.410000X3.100000*%
%ADD45RoundRect,0.140000X0.170000X-0.140000X0.170000X0.140000X-0.170000X0.140000X-0.170000X-0.140000X0*%
%ADD46RoundRect,0.150000X-0.587500X-0.150000X0.587500X-0.150000X0.587500X0.150000X-0.587500X0.150000X0*%
%ADD47RoundRect,0.140000X0.140000X0.170000X-0.140000X0.170000X-0.140000X-0.170000X0.140000X-0.170000X0*%
%ADD48RoundRect,0.150000X-0.150000X0.587500X-0.150000X-0.587500X0.150000X-0.587500X0.150000X0.587500X0*%
%ADD49RoundRect,0.225000X-0.250000X0.225000X-0.250000X-0.225000X0.250000X-0.225000X0.250000X0.225000X0*%
%ADD50R,2.400000X0.740000*%
%ADD51RoundRect,0.200000X0.600000X-0.200000X0.600000X0.200000X-0.600000X0.200000X-0.600000X-0.200000X0*%
%ADD52RoundRect,0.250001X1.249999X-0.799999X1.249999X0.799999X-1.249999X0.799999X-1.249999X-0.799999X0*%
%ADD53RoundRect,0.250000X-0.362500X-1.425000X0.362500X-1.425000X0.362500X1.425000X-0.362500X1.425000X0*%
%ADD54RoundRect,0.135000X0.185000X-0.135000X0.185000X0.135000X-0.185000X0.135000X-0.185000X-0.135000X0*%
%ADD55RoundRect,0.140000X-0.021213X0.219203X-0.219203X0.021213X0.021213X-0.219203X0.219203X-0.021213X0*%
%ADD56R,1.400000X1.200000*%
%ADD57RoundRect,0.250000X-0.475000X0.250000X-0.475000X-0.250000X0.475000X-0.250000X0.475000X0.250000X0*%
%ADD58RoundRect,0.250000X0.300000X0.300000X-0.300000X0.300000X-0.300000X-0.300000X0.300000X-0.300000X0*%
%ADD59RoundRect,0.150000X0.512500X0.150000X-0.512500X0.150000X-0.512500X-0.150000X0.512500X-0.150000X0*%
%ADD60RoundRect,0.250000X-1.425000X0.362500X-1.425000X-0.362500X1.425000X-0.362500X1.425000X0.362500X0*%
%ADD61RoundRect,0.250000X0.300000X-0.300000X0.300000X0.300000X-0.300000X0.300000X-0.300000X-0.300000X0*%
%ADD62RoundRect,0.140000X0.021213X-0.219203X0.219203X-0.021213X-0.021213X0.219203X-0.219203X0.021213X0*%
%ADD63RoundRect,0.250000X-0.850000X0.375000X-0.850000X-0.375000X0.850000X-0.375000X0.850000X0.375000X0*%
%ADD64RoundRect,0.225000X0.375000X-0.225000X0.375000X0.225000X-0.375000X0.225000X-0.375000X-0.225000X0*%
%ADD65RoundRect,0.250000X0.350000X0.625000X-0.350000X0.625000X-0.350000X-0.625000X0.350000X-0.625000X0*%
%ADD66O,1.200000X1.750000*%
G04 APERTURE END LIST*
D10*
X15905782Y-17215462D02*
X15905782Y-18774098D01*
X17464418Y-18774098D01*
X17464418Y-17215462D01*
X15905782Y-17215462D01*
D11*
X15940000Y-17190000D02*
X26740000Y-17190000D01*
X26740000Y-20390000D01*
X15940000Y-20390000D01*
X15940000Y-17190000D01*
D10*
D11*
X1000000Y-1000000D02*
X26940000Y-1000000D01*
X26940000Y-20590000D01*
X1000000Y-20590000D01*
X1000000Y-1000000D01*
D10*
D11*
X1200000Y-1200000D02*
X26740000Y-1200000D01*
X26740000Y-20390000D01*
X1200000Y-20390000D01*
X1200000Y-1200000D01*
D10*
D11*
X6000000Y-1200000D02*
X6000000Y-1000000D01*
D10*
D11*
X11000000Y-1200000D02*
X11000000Y-1000000D01*
D10*
D11*
X16000000Y-1200000D02*
X16000000Y-1000000D01*
D10*
D11*
X21000000Y-1200000D02*
X21000000Y-1000000D01*
D10*
D11*
X26000000Y-1200000D02*
X26000000Y-1000000D01*
D10*
D11*
X3608916Y-1159360D02*
X3534630Y-1159360D01*
X3571773Y-1159360D02*
X3571773Y-1029360D01*
X3571773Y-1029360D02*
X3559392Y-1047932D01*
X3559392Y-1047932D02*
X3547011Y-1060313D01*
X3547011Y-1060313D02*
X3534630Y-1066503D01*
D10*
D11*
X8534630Y-1041741D02*
X8540821Y-1035551D01*
X8540821Y-1035551D02*
X8553202Y-1029360D01*
X8553202Y-1029360D02*
X8584154Y-1029360D01*
X8584154Y-1029360D02*
X8596535Y-1035551D01*
X8596535Y-1035551D02*
X8602726Y-1041741D01*
X8602726Y-1041741D02*
X8608916Y-1054122D01*
X8608916Y-1054122D02*
X8608916Y-1066503D01*
X8608916Y-1066503D02*
X8602726Y-1085075D01*
X8602726Y-1085075D02*
X8528440Y-1159360D01*
X8528440Y-1159360D02*
X8608916Y-1159360D01*
D10*
D11*
X13528440Y-1029360D02*
X13608916Y-1029360D01*
X13608916Y-1029360D02*
X13565583Y-1078884D01*
X13565583Y-1078884D02*
X13584154Y-1078884D01*
X13584154Y-1078884D02*
X13596535Y-1085075D01*
X13596535Y-1085075D02*
X13602725Y-1091265D01*
X13602725Y-1091265D02*
X13608916Y-1103646D01*
X13608916Y-1103646D02*
X13608916Y-1134599D01*
X13608916Y-1134599D02*
X13602725Y-1146980D01*
X13602725Y-1146980D02*
X13596535Y-1153170D01*
X13596535Y-1153170D02*
X13584154Y-1159360D01*
X13584154Y-1159360D02*
X13547011Y-1159360D01*
X13547011Y-1159360D02*
X13534630Y-1153170D01*
X13534630Y-1153170D02*
X13528440Y-1146980D01*
D10*
D11*
X18596535Y-1072694D02*
X18596535Y-1159360D01*
X18565583Y-1023170D02*
X18534630Y-1116027D01*
X18534630Y-1116027D02*
X18615106Y-1116027D01*
D10*
D11*
X23602725Y-1029360D02*
X23540821Y-1029360D01*
X23540821Y-1029360D02*
X23534630Y-1091265D01*
X23534630Y-1091265D02*
X23540821Y-1085075D01*
X23540821Y-1085075D02*
X23553202Y-1078884D01*
X23553202Y-1078884D02*
X23584154Y-1078884D01*
X23584154Y-1078884D02*
X23596535Y-1085075D01*
X23596535Y-1085075D02*
X23602725Y-1091265D01*
X23602725Y-1091265D02*
X23608916Y-1103646D01*
X23608916Y-1103646D02*
X23608916Y-1134599D01*
X23608916Y-1134599D02*
X23602725Y-1146980D01*
X23602725Y-1146980D02*
X23596535Y-1153170D01*
X23596535Y-1153170D02*
X23584154Y-1159360D01*
X23584154Y-1159360D02*
X23553202Y-1159360D01*
X23553202Y-1159360D02*
X23540821Y-1153170D01*
X23540821Y-1153170D02*
X23534630Y-1146980D01*
D10*
D11*
X6000000Y-20390000D02*
X6000000Y-20590000D01*
D10*
D11*
X11000000Y-20390000D02*
X11000000Y-20590000D01*
D10*
D11*
X16000000Y-20390000D02*
X16000000Y-20590000D01*
D10*
D11*
X21000000Y-20390000D02*
X21000000Y-20590000D01*
D10*
D11*
X26000000Y-20390000D02*
X26000000Y-20590000D01*
D10*
D11*
X3608916Y-20549360D02*
X3534630Y-20549360D01*
X3571773Y-20549360D02*
X3571773Y-20419360D01*
X3571773Y-20419360D02*
X3559392Y-20437932D01*
X3559392Y-20437932D02*
X3547011Y-20450313D01*
X3547011Y-20450313D02*
X3534630Y-20456503D01*
D10*
D11*
X8534630Y-20431741D02*
X8540821Y-20425551D01*
X8540821Y-20425551D02*
X8553202Y-20419360D01*
X8553202Y-20419360D02*
X8584154Y-20419360D01*
X8584154Y-20419360D02*
X8596535Y-20425551D01*
X8596535Y-20425551D02*
X8602726Y-20431741D01*
X8602726Y-20431741D02*
X8608916Y-20444122D01*
X8608916Y-20444122D02*
X8608916Y-20456503D01*
X8608916Y-20456503D02*
X8602726Y-20475075D01*
X8602726Y-20475075D02*
X8528440Y-20549360D01*
X8528440Y-20549360D02*
X8608916Y-20549360D01*
D10*
D11*
X13528440Y-20419360D02*
X13608916Y-20419360D01*
X13608916Y-20419360D02*
X13565583Y-20468884D01*
X13565583Y-20468884D02*
X13584154Y-20468884D01*
X13584154Y-20468884D02*
X13596535Y-20475075D01*
X13596535Y-20475075D02*
X13602725Y-20481265D01*
X13602725Y-20481265D02*
X13608916Y-20493646D01*
X13608916Y-20493646D02*
X13608916Y-20524599D01*
X13608916Y-20524599D02*
X13602725Y-20536980D01*
X13602725Y-20536980D02*
X13596535Y-20543170D01*
X13596535Y-20543170D02*
X13584154Y-20549360D01*
X13584154Y-20549360D02*
X13547011Y-20549360D01*
X13547011Y-20549360D02*
X13534630Y-20543170D01*
X13534630Y-20543170D02*
X13528440Y-20536980D01*
D10*
D11*
X18596535Y-20462694D02*
X18596535Y-20549360D01*
X18565583Y-20413170D02*
X18534630Y-20506027D01*
X18534630Y-20506027D02*
X18615106Y-20506027D01*
D10*
D11*
X23602725Y-20419360D02*
X23540821Y-20419360D01*
X23540821Y-20419360D02*
X23534630Y-20481265D01*
X23534630Y-20481265D02*
X23540821Y-20475075D01*
X23540821Y-20475075D02*
X23553202Y-20468884D01*
X23553202Y-20468884D02*
X23584154Y-20468884D01*
X23584154Y-20468884D02*
X23596535Y-20475075D01*
X23596535Y-20475075D02*
X23602725Y-20481265D01*
X23602725Y-20481265D02*
X23608916Y-20493646D01*
X23608916Y-20493646D02*
X23608916Y-20524599D01*
X23608916Y-20524599D02*
X23602725Y-20536980D01*
X23602725Y-20536980D02*
X23596535Y-20543170D01*
X23596535Y-20543170D02*
X23584154Y-20549360D01*
X23584154Y-20549360D02*
X23553202Y-20549360D01*
X23553202Y-20549360D02*
X23540821Y-20543170D01*
X23540821Y-20543170D02*
X23534630Y-20536980D01*
D10*
D11*
X1000000Y-6000000D02*
X1200000Y-6000000D01*
D10*
D11*
X1000000Y-11000000D02*
X1200000Y-11000000D01*
D10*
D11*
X1000000Y-16000000D02*
X1200000Y-16000000D01*
D10*
D11*
X1069048Y-3522218D02*
X1130952Y-3522218D01*
X1056667Y-3559360D02*
X1100000Y-3429360D01*
X1100000Y-3429360D02*
X1143333Y-3559360D01*
D10*
D11*
X1109286Y-8491265D02*
X1127857Y-8497456D01*
X1127857Y-8497456D02*
X1134048Y-8503646D01*
X1134048Y-8503646D02*
X1140238Y-8516027D01*
X1140238Y-8516027D02*
X1140238Y-8534599D01*
X1140238Y-8534599D02*
X1134048Y-8546980D01*
X1134048Y-8546980D02*
X1127857Y-8553170D01*
X1127857Y-8553170D02*
X1115476Y-8559360D01*
X1115476Y-8559360D02*
X1065952Y-8559360D01*
X1065952Y-8559360D02*
X1065952Y-8429360D01*
X1065952Y-8429360D02*
X1109286Y-8429360D01*
X1109286Y-8429360D02*
X1121667Y-8435551D01*
X1121667Y-8435551D02*
X1127857Y-8441741D01*
X1127857Y-8441741D02*
X1134048Y-8454122D01*
X1134048Y-8454122D02*
X1134048Y-8466503D01*
X1134048Y-8466503D02*
X1127857Y-8478884D01*
X1127857Y-8478884D02*
X1121667Y-8485075D01*
X1121667Y-8485075D02*
X1109286Y-8491265D01*
X1109286Y-8491265D02*
X1065952Y-8491265D01*
D10*
D11*
X1140238Y-13546979D02*
X1134048Y-13553170D01*
X1134048Y-13553170D02*
X1115476Y-13559360D01*
X1115476Y-13559360D02*
X1103095Y-13559360D01*
X1103095Y-13559360D02*
X1084524Y-13553170D01*
X1084524Y-13553170D02*
X1072143Y-13540789D01*
X1072143Y-13540789D02*
X1065952Y-13528408D01*
X1065952Y-13528408D02*
X1059762Y-13503646D01*
X1059762Y-13503646D02*
X1059762Y-13485075D01*
X1059762Y-13485075D02*
X1065952Y-13460313D01*
X1065952Y-13460313D02*
X1072143Y-13447932D01*
X1072143Y-13447932D02*
X1084524Y-13435551D01*
X1084524Y-13435551D02*
X1103095Y-13429360D01*
X1103095Y-13429360D02*
X1115476Y-13429360D01*
X1115476Y-13429360D02*
X1134048Y-13435551D01*
X1134048Y-13435551D02*
X1140238Y-13441741D01*
D10*
D11*
X1065952Y-18559360D02*
X1065952Y-18429360D01*
X1065952Y-18429360D02*
X1096905Y-18429360D01*
X1096905Y-18429360D02*
X1115476Y-18435551D01*
X1115476Y-18435551D02*
X1127857Y-18447932D01*
X1127857Y-18447932D02*
X1134048Y-18460313D01*
X1134048Y-18460313D02*
X1140238Y-18485075D01*
X1140238Y-18485075D02*
X1140238Y-18503646D01*
X1140238Y-18503646D02*
X1134048Y-18528408D01*
X1134048Y-18528408D02*
X1127857Y-18540789D01*
X1127857Y-18540789D02*
X1115476Y-18553170D01*
X1115476Y-18553170D02*
X1096905Y-18559360D01*
X1096905Y-18559360D02*
X1065952Y-18559360D01*
D10*
D11*
X26940000Y-6000000D02*
X26740000Y-6000000D01*
D10*
D11*
X26940000Y-11000000D02*
X26740000Y-11000000D01*
D10*
D11*
X26940000Y-16000000D02*
X26740000Y-16000000D01*
D10*
D11*
X26809048Y-3522218D02*
X26870952Y-3522218D01*
X26796667Y-3559360D02*
X26840000Y-3429360D01*
X26840000Y-3429360D02*
X26883333Y-3559360D01*
D10*
D11*
X26849286Y-8491265D02*
X26867857Y-8497456D01*
X26867857Y-8497456D02*
X26874048Y-8503646D01*
X26874048Y-8503646D02*
X26880238Y-8516027D01*
X26880238Y-8516027D02*
X26880238Y-8534599D01*
X26880238Y-8534599D02*
X26874048Y-8546980D01*
X26874048Y-8546980D02*
X26867857Y-8553170D01*
X26867857Y-8553170D02*
X26855476Y-8559360D01*
X26855476Y-8559360D02*
X26805952Y-8559360D01*
X26805952Y-8559360D02*
X26805952Y-8429360D01*
X26805952Y-8429360D02*
X26849286Y-8429360D01*
X26849286Y-8429360D02*
X26861667Y-8435551D01*
X26861667Y-8435551D02*
X26867857Y-8441741D01*
X26867857Y-8441741D02*
X26874048Y-8454122D01*
X26874048Y-8454122D02*
X26874048Y-8466503D01*
X26874048Y-8466503D02*
X26867857Y-8478884D01*
X26867857Y-8478884D02*
X26861667Y-8485075D01*
X26861667Y-8485075D02*
X26849286Y-8491265D01*
X26849286Y-8491265D02*
X26805952Y-8491265D01*
D10*
D11*
X26880238Y-13546979D02*
X26874048Y-13553170D01*
X26874048Y-13553170D02*
X26855476Y-13559360D01*
X26855476Y-13559360D02*
X26843095Y-13559360D01*
X26843095Y-13559360D02*
X26824524Y-13553170D01*
X26824524Y-13553170D02*
X26812143Y-13540789D01*
X26812143Y-13540789D02*
X26805952Y-13528408D01*
X26805952Y-13528408D02*
X26799762Y-13503646D01*
X26799762Y-13503646D02*
X26799762Y-13485075D01*
X26799762Y-13485075D02*
X26805952Y-13460313D01*
X26805952Y-13460313D02*
X26812143Y-13447932D01*
X26812143Y-13447932D02*
X26824524Y-13435551D01*
X26824524Y-13435551D02*
X26843095Y-13429360D01*
X26843095Y-13429360D02*
X26855476Y-13429360D01*
X26855476Y-13429360D02*
X26874048Y-13435551D01*
X26874048Y-13435551D02*
X26880238Y-13441741D01*
D10*
D11*
X26805952Y-18559360D02*
X26805952Y-18429360D01*
X26805952Y-18429360D02*
X26836905Y-18429360D01*
X26836905Y-18429360D02*
X26855476Y-18435551D01*
X26855476Y-18435551D02*
X26867857Y-18447932D01*
X26867857Y-18447932D02*
X26874048Y-18460313D01*
X26874048Y-18460313D02*
X26880238Y-18485075D01*
X26880238Y-18485075D02*
X26880238Y-18503646D01*
X26880238Y-18503646D02*
X26874048Y-18528408D01*
X26874048Y-18528408D02*
X26867857Y-18540789D01*
X26867857Y-18540789D02*
X26855476Y-18553170D01*
X26855476Y-18553170D02*
X26836905Y-18559360D01*
X26836905Y-18559360D02*
X26805952Y-18559360D01*
D10*
D11*
X18285583Y-19968613D02*
X18285583Y-19818613D01*
X18285583Y-19818613D02*
X18321297Y-19818613D01*
X18321297Y-19818613D02*
X18342726Y-19825756D01*
X18342726Y-19825756D02*
X18357011Y-19840041D01*
X18357011Y-19840041D02*
X18364154Y-19854327D01*
X18364154Y-19854327D02*
X18371297Y-19882899D01*
X18371297Y-19882899D02*
X18371297Y-19904327D01*
X18371297Y-19904327D02*
X18364154Y-19932899D01*
X18364154Y-19932899D02*
X18357011Y-19947184D01*
X18357011Y-19947184D02*
X18342726Y-19961470D01*
X18342726Y-19961470D02*
X18321297Y-19968613D01*
X18321297Y-19968613D02*
X18285583Y-19968613D01*
X18499868Y-19968613D02*
X18499868Y-19890041D01*
X18499868Y-19890041D02*
X18492726Y-19875756D01*
X18492726Y-19875756D02*
X18478440Y-19868613D01*
X18478440Y-19868613D02*
X18449868Y-19868613D01*
X18449868Y-19868613D02*
X18435583Y-19875756D01*
X18499868Y-19961470D02*
X18485583Y-19968613D01*
X18485583Y-19968613D02*
X18449868Y-19968613D01*
X18449868Y-19968613D02*
X18435583Y-19961470D01*
X18435583Y-19961470D02*
X18428440Y-19947184D01*
X18428440Y-19947184D02*
X18428440Y-19932899D01*
X18428440Y-19932899D02*
X18435583Y-19918613D01*
X18435583Y-19918613D02*
X18449868Y-19911470D01*
X18449868Y-19911470D02*
X18485583Y-19911470D01*
X18485583Y-19911470D02*
X18499868Y-19904327D01*
X18549868Y-19868613D02*
X18607011Y-19868613D01*
X18571297Y-19818613D02*
X18571297Y-19947184D01*
X18571297Y-19947184D02*
X18578440Y-19961470D01*
X18578440Y-19961470D02*
X18592726Y-19968613D01*
X18592726Y-19968613D02*
X18607011Y-19968613D01*
X18714154Y-19961470D02*
X18699868Y-19968613D01*
X18699868Y-19968613D02*
X18671297Y-19968613D01*
X18671297Y-19968613D02*
X18657011Y-19961470D01*
X18657011Y-19961470D02*
X18649868Y-19947184D01*
X18649868Y-19947184D02*
X18649868Y-19890041D01*
X18649868Y-19890041D02*
X18657011Y-19875756D01*
X18657011Y-19875756D02*
X18671297Y-19868613D01*
X18671297Y-19868613D02*
X18699868Y-19868613D01*
X18699868Y-19868613D02*
X18714154Y-19875756D01*
X18714154Y-19875756D02*
X18721297Y-19890041D01*
X18721297Y-19890041D02*
X18721297Y-19904327D01*
X18721297Y-19904327D02*
X18649868Y-19918613D01*
X18785583Y-19954327D02*
X18792726Y-19961470D01*
X18792726Y-19961470D02*
X18785583Y-19968613D01*
X18785583Y-19968613D02*
X18778440Y-19961470D01*
X18778440Y-19961470D02*
X18785583Y-19954327D01*
X18785583Y-19954327D02*
X18785583Y-19968613D01*
X18785583Y-19875756D02*
X18792726Y-19882899D01*
X18792726Y-19882899D02*
X18785583Y-19890041D01*
X18785583Y-19890041D02*
X18778440Y-19882899D01*
X18778440Y-19882899D02*
X18785583Y-19875756D01*
X18785583Y-19875756D02*
X18785583Y-19890041D01*
X18964154Y-19832899D02*
X18971297Y-19825756D01*
X18971297Y-19825756D02*
X18985583Y-19818613D01*
X18985583Y-19818613D02*
X19021297Y-19818613D01*
X19021297Y-19818613D02*
X19035583Y-19825756D01*
X19035583Y-19825756D02*
X19042726Y-19832899D01*
X19042726Y-19832899D02*
X19049868Y-19847184D01*
X19049868Y-19847184D02*
X19049868Y-19861470D01*
X19049868Y-19861470D02*
X19042726Y-19882899D01*
X19042726Y-19882899D02*
X18957011Y-19968613D01*
X18957011Y-19968613D02*
X19049868Y-19968613D01*
X19142726Y-19818613D02*
X19157011Y-19818613D01*
X19157011Y-19818613D02*
X19171297Y-19825756D01*
X19171297Y-19825756D02*
X19178440Y-19832899D01*
X19178440Y-19832899D02*
X19185583Y-19847184D01*
X19185583Y-19847184D02*
X19192726Y-19875756D01*
X19192726Y-19875756D02*
X19192726Y-19911470D01*
X19192726Y-19911470D02*
X19185583Y-19940041D01*
X19185583Y-19940041D02*
X19178440Y-19954327D01*
X19178440Y-19954327D02*
X19171297Y-19961470D01*
X19171297Y-19961470D02*
X19157011Y-19968613D01*
X19157011Y-19968613D02*
X19142726Y-19968613D01*
X19142726Y-19968613D02*
X19128440Y-19961470D01*
X19128440Y-19961470D02*
X19121297Y-19954327D01*
X19121297Y-19954327D02*
X19114154Y-19940041D01*
X19114154Y-19940041D02*
X19107011Y-19911470D01*
X19107011Y-19911470D02*
X19107011Y-19875756D01*
X19107011Y-19875756D02*
X19114154Y-19847184D01*
X19114154Y-19847184D02*
X19121297Y-19832899D01*
X19121297Y-19832899D02*
X19128440Y-19825756D01*
X19128440Y-19825756D02*
X19142726Y-19818613D01*
X19249868Y-19832899D02*
X19257011Y-19825756D01*
X19257011Y-19825756D02*
X19271297Y-19818613D01*
X19271297Y-19818613D02*
X19307011Y-19818613D01*
X19307011Y-19818613D02*
X19321297Y-19825756D01*
X19321297Y-19825756D02*
X19328440Y-19832899D01*
X19328440Y-19832899D02*
X19335583Y-19847184D01*
X19335583Y-19847184D02*
X19335583Y-19861470D01*
X19335583Y-19861470D02*
X19328440Y-19882899D01*
X19328440Y-19882899D02*
X19242725Y-19968613D01*
X19242725Y-19968613D02*
X19335583Y-19968613D01*
X19471297Y-19818613D02*
X19399868Y-19818613D01*
X19399868Y-19818613D02*
X19392725Y-19890041D01*
X19392725Y-19890041D02*
X19399868Y-19882899D01*
X19399868Y-19882899D02*
X19414154Y-19875756D01*
X19414154Y-19875756D02*
X19449868Y-19875756D01*
X19449868Y-19875756D02*
X19464154Y-19882899D01*
X19464154Y-19882899D02*
X19471297Y-19890041D01*
X19471297Y-19890041D02*
X19478440Y-19904327D01*
X19478440Y-19904327D02*
X19478440Y-19940041D01*
X19478440Y-19940041D02*
X19471297Y-19954327D01*
X19471297Y-19954327D02*
X19464154Y-19961470D01*
X19464154Y-19961470D02*
X19449868Y-19968613D01*
X19449868Y-19968613D02*
X19414154Y-19968613D01*
X19414154Y-19968613D02*
X19399868Y-19961470D01*
X19399868Y-19961470D02*
X19392725Y-19954327D01*
X19542725Y-19911470D02*
X19657011Y-19911470D01*
X19757011Y-19818613D02*
X19771297Y-19818613D01*
X19771297Y-19818613D02*
X19785583Y-19825756D01*
X19785583Y-19825756D02*
X19792725Y-19832899D01*
X19792725Y-19832899D02*
X19799868Y-19847184D01*
X19799868Y-19847184D02*
X19807011Y-19875756D01*
X19807011Y-19875756D02*
X19807011Y-19911470D01*
X19807011Y-19911470D02*
X19799868Y-19940041D01*
X19799868Y-19940041D02*
X19792725Y-19954327D01*
X19792725Y-19954327D02*
X19785583Y-19961470D01*
X19785583Y-19961470D02*
X19771297Y-19968613D01*
X19771297Y-19968613D02*
X19757011Y-19968613D01*
X19757011Y-19968613D02*
X19742725Y-19961470D01*
X19742725Y-19961470D02*
X19735583Y-19954327D01*
X19735583Y-19954327D02*
X19728440Y-19940041D01*
X19728440Y-19940041D02*
X19721297Y-19911470D01*
X19721297Y-19911470D02*
X19721297Y-19875756D01*
X19721297Y-19875756D02*
X19728440Y-19847184D01*
X19728440Y-19847184D02*
X19735583Y-19832899D01*
X19735583Y-19832899D02*
X19742725Y-19825756D01*
X19742725Y-19825756D02*
X19757011Y-19818613D01*
X19864154Y-19832899D02*
X19871297Y-19825756D01*
X19871297Y-19825756D02*
X19885583Y-19818613D01*
X19885583Y-19818613D02*
X19921297Y-19818613D01*
X19921297Y-19818613D02*
X19935583Y-19825756D01*
X19935583Y-19825756D02*
X19942725Y-19832899D01*
X19942725Y-19832899D02*
X19949868Y-19847184D01*
X19949868Y-19847184D02*
X19949868Y-19861470D01*
X19949868Y-19861470D02*
X19942725Y-19882899D01*
X19942725Y-19882899D02*
X19857011Y-19968613D01*
X19857011Y-19968613D02*
X19949868Y-19968613D01*
X20014154Y-19911470D02*
X20128440Y-19911470D01*
X20278440Y-19968613D02*
X20192725Y-19968613D01*
X20235582Y-19968613D02*
X20235582Y-19818613D01*
X20235582Y-19818613D02*
X20221297Y-19840041D01*
X20221297Y-19840041D02*
X20207011Y-19854327D01*
X20207011Y-19854327D02*
X20192725Y-19861470D01*
X20414154Y-19818613D02*
X20342725Y-19818613D01*
X20342725Y-19818613D02*
X20335582Y-19890041D01*
X20335582Y-19890041D02*
X20342725Y-19882899D01*
X20342725Y-19882899D02*
X20357011Y-19875756D01*
X20357011Y-19875756D02*
X20392725Y-19875756D01*
X20392725Y-19875756D02*
X20407011Y-19882899D01*
X20407011Y-19882899D02*
X20414154Y-19890041D01*
X20414154Y-19890041D02*
X20421297Y-19904327D01*
X20421297Y-19904327D02*
X20421297Y-19940041D01*
X20421297Y-19940041D02*
X20414154Y-19954327D01*
X20414154Y-19954327D02*
X20407011Y-19961470D01*
X20407011Y-19961470D02*
X20392725Y-19968613D01*
X20392725Y-19968613D02*
X20357011Y-19968613D01*
X20357011Y-19968613D02*
X20342725Y-19961470D01*
X20342725Y-19961470D02*
X20335582Y-19954327D01*
D10*
D11*
X15940000Y-20040000D02*
X26740000Y-20040000D01*
D10*
D11*
X16078440Y-20241470D02*
X16099868Y-20248613D01*
X16099868Y-20248613D02*
X16135583Y-20248613D01*
X16135583Y-20248613D02*
X16149868Y-20241470D01*
X16149868Y-20241470D02*
X16157011Y-20234327D01*
X16157011Y-20234327D02*
X16164154Y-20220041D01*
X16164154Y-20220041D02*
X16164154Y-20205756D01*
X16164154Y-20205756D02*
X16157011Y-20191470D01*
X16157011Y-20191470D02*
X16149868Y-20184327D01*
X16149868Y-20184327D02*
X16135583Y-20177184D01*
X16135583Y-20177184D02*
X16107011Y-20170041D01*
X16107011Y-20170041D02*
X16092725Y-20162899D01*
X16092725Y-20162899D02*
X16085583Y-20155756D01*
X16085583Y-20155756D02*
X16078440Y-20141470D01*
X16078440Y-20141470D02*
X16078440Y-20127184D01*
X16078440Y-20127184D02*
X16085583Y-20112899D01*
X16085583Y-20112899D02*
X16092725Y-20105756D01*
X16092725Y-20105756D02*
X16107011Y-20098613D01*
X16107011Y-20098613D02*
X16142725Y-20098613D01*
X16142725Y-20098613D02*
X16164154Y-20105756D01*
X16121297Y-20077184D02*
X16121297Y-20270041D01*
X16271297Y-20305756D02*
X16264154Y-20305756D01*
X16264154Y-20305756D02*
X16249868Y-20298613D01*
X16249868Y-20298613D02*
X16242725Y-20284327D01*
X16242725Y-20284327D02*
X16242725Y-20212899D01*
X16242725Y-20212899D02*
X16235583Y-20198613D01*
X16235583Y-20198613D02*
X16221297Y-20191470D01*
X16221297Y-20191470D02*
X16235583Y-20184327D01*
X16235583Y-20184327D02*
X16242725Y-20170041D01*
X16242725Y-20170041D02*
X16242725Y-20098613D01*
X16242725Y-20098613D02*
X16249868Y-20084327D01*
X16249868Y-20084327D02*
X16264154Y-20077184D01*
X16264154Y-20077184D02*
X16271297Y-20077184D01*
X16328440Y-20248613D02*
X16328440Y-20098613D01*
X16414154Y-20248613D02*
X16349868Y-20162899D01*
X16414154Y-20098613D02*
X16328440Y-20184327D01*
X16478440Y-20248613D02*
X16478440Y-20098613D01*
X16635583Y-20234327D02*
X16628440Y-20241470D01*
X16628440Y-20241470D02*
X16607011Y-20248613D01*
X16607011Y-20248613D02*
X16592725Y-20248613D01*
X16592725Y-20248613D02*
X16571297Y-20241470D01*
X16571297Y-20241470D02*
X16557011Y-20227184D01*
X16557011Y-20227184D02*
X16549868Y-20212899D01*
X16549868Y-20212899D02*
X16542725Y-20184327D01*
X16542725Y-20184327D02*
X16542725Y-20162899D01*
X16542725Y-20162899D02*
X16549868Y-20134327D01*
X16549868Y-20134327D02*
X16557011Y-20120041D01*
X16557011Y-20120041D02*
X16571297Y-20105756D01*
X16571297Y-20105756D02*
X16592725Y-20098613D01*
X16592725Y-20098613D02*
X16607011Y-20098613D01*
X16607011Y-20098613D02*
X16628440Y-20105756D01*
X16628440Y-20105756D02*
X16635583Y-20112899D01*
X16692725Y-20205756D02*
X16764154Y-20205756D01*
X16678440Y-20248613D02*
X16728440Y-20098613D01*
X16728440Y-20098613D02*
X16778440Y-20248613D01*
X16828440Y-20248613D02*
X16828440Y-20098613D01*
X16828440Y-20098613D02*
X16864154Y-20098613D01*
X16864154Y-20098613D02*
X16885583Y-20105756D01*
X16885583Y-20105756D02*
X16899868Y-20120041D01*
X16899868Y-20120041D02*
X16907011Y-20134327D01*
X16907011Y-20134327D02*
X16914154Y-20162899D01*
X16914154Y-20162899D02*
X16914154Y-20184327D01*
X16914154Y-20184327D02*
X16907011Y-20212899D01*
X16907011Y-20212899D02*
X16899868Y-20227184D01*
X16899868Y-20227184D02*
X16885583Y-20241470D01*
X16885583Y-20241470D02*
X16864154Y-20248613D01*
X16864154Y-20248613D02*
X16828440Y-20248613D01*
X16942726Y-20262899D02*
X17057011Y-20262899D01*
X17071297Y-20098613D02*
X17121297Y-20248613D01*
X17121297Y-20248613D02*
X17171297Y-20098613D01*
X17221297Y-20170041D02*
X17271297Y-20170041D01*
X17292725Y-20248613D02*
X17221297Y-20248613D01*
X17221297Y-20248613D02*
X17221297Y-20098613D01*
X17221297Y-20098613D02*
X17292725Y-20098613D01*
X17442725Y-20248613D02*
X17392725Y-20177184D01*
X17357011Y-20248613D02*
X17357011Y-20098613D01*
X17357011Y-20098613D02*
X17414154Y-20098613D01*
X17414154Y-20098613D02*
X17428440Y-20105756D01*
X17428440Y-20105756D02*
X17435583Y-20112899D01*
X17435583Y-20112899D02*
X17442725Y-20127184D01*
X17442725Y-20127184D02*
X17442725Y-20148613D01*
X17442725Y-20148613D02*
X17435583Y-20162899D01*
X17435583Y-20162899D02*
X17428440Y-20170041D01*
X17428440Y-20170041D02*
X17414154Y-20177184D01*
X17414154Y-20177184D02*
X17357011Y-20177184D01*
X17499868Y-20241470D02*
X17521297Y-20248613D01*
X17521297Y-20248613D02*
X17557011Y-20248613D01*
X17557011Y-20248613D02*
X17571297Y-20241470D01*
X17571297Y-20241470D02*
X17578440Y-20234327D01*
X17578440Y-20234327D02*
X17585583Y-20220041D01*
X17585583Y-20220041D02*
X17585583Y-20205756D01*
X17585583Y-20205756D02*
X17578440Y-20191470D01*
X17578440Y-20191470D02*
X17571297Y-20184327D01*
X17571297Y-20184327D02*
X17557011Y-20177184D01*
X17557011Y-20177184D02*
X17528440Y-20170041D01*
X17528440Y-20170041D02*
X17514154Y-20162899D01*
X17514154Y-20162899D02*
X17507011Y-20155756D01*
X17507011Y-20155756D02*
X17499868Y-20141470D01*
X17499868Y-20141470D02*
X17499868Y-20127184D01*
X17499868Y-20127184D02*
X17507011Y-20112899D01*
X17507011Y-20112899D02*
X17514154Y-20105756D01*
X17514154Y-20105756D02*
X17528440Y-20098613D01*
X17528440Y-20098613D02*
X17564154Y-20098613D01*
X17564154Y-20098613D02*
X17585583Y-20105756D01*
X17649868Y-20248613D02*
X17649868Y-20098613D01*
X17749868Y-20098613D02*
X17778440Y-20098613D01*
X17778440Y-20098613D02*
X17792725Y-20105756D01*
X17792725Y-20105756D02*
X17807011Y-20120041D01*
X17807011Y-20120041D02*
X17814154Y-20148613D01*
X17814154Y-20148613D02*
X17814154Y-20198613D01*
X17814154Y-20198613D02*
X17807011Y-20227184D01*
X17807011Y-20227184D02*
X17792725Y-20241470D01*
X17792725Y-20241470D02*
X17778440Y-20248613D01*
X17778440Y-20248613D02*
X17749868Y-20248613D01*
X17749868Y-20248613D02*
X17735583Y-20241470D01*
X17735583Y-20241470D02*
X17721297Y-20227184D01*
X17721297Y-20227184D02*
X17714154Y-20198613D01*
X17714154Y-20198613D02*
X17714154Y-20148613D01*
X17714154Y-20148613D02*
X17721297Y-20120041D01*
X17721297Y-20120041D02*
X17735583Y-20105756D01*
X17735583Y-20105756D02*
X17749868Y-20098613D01*
X17878440Y-20248613D02*
X17878440Y-20098613D01*
X17878440Y-20098613D02*
X17964154Y-20248613D01*
X17964154Y-20248613D02*
X17964154Y-20098613D01*
X18021297Y-20305756D02*
X18028440Y-20305756D01*
X18028440Y-20305756D02*
X18042726Y-20298613D01*
X18042726Y-20298613D02*
X18049868Y-20284327D01*
X18049868Y-20284327D02*
X18049868Y-20212899D01*
X18049868Y-20212899D02*
X18057011Y-20198613D01*
X18057011Y-20198613D02*
X18071297Y-20191470D01*
X18071297Y-20191470D02*
X18057011Y-20184327D01*
X18057011Y-20184327D02*
X18049868Y-20170041D01*
X18049868Y-20170041D02*
X18049868Y-20098613D01*
X18049868Y-20098613D02*
X18042726Y-20084327D01*
X18042726Y-20084327D02*
X18028440Y-20077184D01*
X18028440Y-20077184D02*
X18021297Y-20077184D01*
D10*
D11*
X15940000Y-19740000D02*
X26740000Y-19740000D01*
D10*
D12*
X24681165Y-19967833D02*
X24631165Y-19896404D01*
X24595451Y-19967833D02*
X24595451Y-19817833D01*
X24595451Y-19817833D02*
X24652594Y-19817833D01*
X24652594Y-19817833D02*
X24666880Y-19824976D01*
X24666880Y-19824976D02*
X24674022Y-19832119D01*
X24674022Y-19832119D02*
X24681165Y-19846404D01*
X24681165Y-19846404D02*
X24681165Y-19867833D01*
X24681165Y-19867833D02*
X24674022Y-19882119D01*
X24674022Y-19882119D02*
X24666880Y-19889261D01*
X24666880Y-19889261D02*
X24652594Y-19896404D01*
X24652594Y-19896404D02*
X24595451Y-19896404D01*
X24802594Y-19960690D02*
X24788308Y-19967833D01*
X24788308Y-19967833D02*
X24759737Y-19967833D01*
X24759737Y-19967833D02*
X24745451Y-19960690D01*
X24745451Y-19960690D02*
X24738308Y-19946404D01*
X24738308Y-19946404D02*
X24738308Y-19889261D01*
X24738308Y-19889261D02*
X24745451Y-19874976D01*
X24745451Y-19874976D02*
X24759737Y-19867833D01*
X24759737Y-19867833D02*
X24788308Y-19867833D01*
X24788308Y-19867833D02*
X24802594Y-19874976D01*
X24802594Y-19874976D02*
X24809737Y-19889261D01*
X24809737Y-19889261D02*
X24809737Y-19903547D01*
X24809737Y-19903547D02*
X24738308Y-19917833D01*
X24859737Y-19867833D02*
X24895451Y-19967833D01*
X24895451Y-19967833D02*
X24931165Y-19867833D01*
X24988308Y-19953547D02*
X24995451Y-19960690D01*
X24995451Y-19960690D02*
X24988308Y-19967833D01*
X24988308Y-19967833D02*
X24981165Y-19960690D01*
X24981165Y-19960690D02*
X24988308Y-19953547D01*
X24988308Y-19953547D02*
X24988308Y-19967833D01*
X24988308Y-19874976D02*
X24995451Y-19882119D01*
X24995451Y-19882119D02*
X24988308Y-19889261D01*
X24988308Y-19889261D02*
X24981165Y-19882119D01*
X24981165Y-19882119D02*
X24988308Y-19874976D01*
X24988308Y-19874976D02*
X24988308Y-19889261D01*
X25259737Y-19953547D02*
X25252594Y-19960690D01*
X25252594Y-19960690D02*
X25231165Y-19967833D01*
X25231165Y-19967833D02*
X25216880Y-19967833D01*
X25216880Y-19967833D02*
X25195451Y-19960690D01*
X25195451Y-19960690D02*
X25181165Y-19946404D01*
X25181165Y-19946404D02*
X25174022Y-19932119D01*
X25174022Y-19932119D02*
X25166880Y-19903547D01*
X25166880Y-19903547D02*
X25166880Y-19882119D01*
X25166880Y-19882119D02*
X25174022Y-19853547D01*
X25174022Y-19853547D02*
X25181165Y-19839261D01*
X25181165Y-19839261D02*
X25195451Y-19824976D01*
X25195451Y-19824976D02*
X25216880Y-19817833D01*
X25216880Y-19817833D02*
X25231165Y-19817833D01*
X25231165Y-19817833D02*
X25252594Y-19824976D01*
X25252594Y-19824976D02*
X25259737Y-19832119D01*
D10*
D11*
X16078440Y-19961470D02*
X16099868Y-19968613D01*
X16099868Y-19968613D02*
X16135583Y-19968613D01*
X16135583Y-19968613D02*
X16149868Y-19961470D01*
X16149868Y-19961470D02*
X16157011Y-19954327D01*
X16157011Y-19954327D02*
X16164154Y-19940041D01*
X16164154Y-19940041D02*
X16164154Y-19925756D01*
X16164154Y-19925756D02*
X16157011Y-19911470D01*
X16157011Y-19911470D02*
X16149868Y-19904327D01*
X16149868Y-19904327D02*
X16135583Y-19897184D01*
X16135583Y-19897184D02*
X16107011Y-19890041D01*
X16107011Y-19890041D02*
X16092725Y-19882899D01*
X16092725Y-19882899D02*
X16085583Y-19875756D01*
X16085583Y-19875756D02*
X16078440Y-19861470D01*
X16078440Y-19861470D02*
X16078440Y-19847184D01*
X16078440Y-19847184D02*
X16085583Y-19832899D01*
X16085583Y-19832899D02*
X16092725Y-19825756D01*
X16092725Y-19825756D02*
X16107011Y-19818613D01*
X16107011Y-19818613D02*
X16142725Y-19818613D01*
X16142725Y-19818613D02*
X16164154Y-19825756D01*
X16228440Y-19968613D02*
X16228440Y-19868613D01*
X16228440Y-19818613D02*
X16221297Y-19825756D01*
X16221297Y-19825756D02*
X16228440Y-19832899D01*
X16228440Y-19832899D02*
X16235583Y-19825756D01*
X16235583Y-19825756D02*
X16228440Y-19818613D01*
X16228440Y-19818613D02*
X16228440Y-19832899D01*
X16285583Y-19868613D02*
X16364154Y-19868613D01*
X16364154Y-19868613D02*
X16285583Y-19968613D01*
X16285583Y-19968613D02*
X16364154Y-19968613D01*
X16478440Y-19961470D02*
X16464154Y-19968613D01*
X16464154Y-19968613D02*
X16435583Y-19968613D01*
X16435583Y-19968613D02*
X16421297Y-19961470D01*
X16421297Y-19961470D02*
X16414154Y-19947184D01*
X16414154Y-19947184D02*
X16414154Y-19890041D01*
X16414154Y-19890041D02*
X16421297Y-19875756D01*
X16421297Y-19875756D02*
X16435583Y-19868613D01*
X16435583Y-19868613D02*
X16464154Y-19868613D01*
X16464154Y-19868613D02*
X16478440Y-19875756D01*
X16478440Y-19875756D02*
X16485583Y-19890041D01*
X16485583Y-19890041D02*
X16485583Y-19904327D01*
X16485583Y-19904327D02*
X16414154Y-19918613D01*
X16549868Y-19954327D02*
X16557011Y-19961470D01*
X16557011Y-19961470D02*
X16549868Y-19968613D01*
X16549868Y-19968613D02*
X16542725Y-19961470D01*
X16542725Y-19961470D02*
X16549868Y-19954327D01*
X16549868Y-19954327D02*
X16549868Y-19968613D01*
X16549868Y-19875756D02*
X16557011Y-19882899D01*
X16557011Y-19882899D02*
X16549868Y-19890041D01*
X16549868Y-19890041D02*
X16542725Y-19882899D01*
X16542725Y-19882899D02*
X16549868Y-19875756D01*
X16549868Y-19875756D02*
X16549868Y-19890041D01*
X16728440Y-19925756D02*
X16799868Y-19925756D01*
X16714154Y-19968613D02*
X16764154Y-19818613D01*
X16764154Y-19818613D02*
X16814154Y-19968613D01*
D10*
D11*
X24585583Y-20248613D02*
X24585583Y-20098613D01*
X24721297Y-20248613D02*
X24721297Y-20098613D01*
X24721297Y-20241470D02*
X24707011Y-20248613D01*
X24707011Y-20248613D02*
X24678440Y-20248613D01*
X24678440Y-20248613D02*
X24664154Y-20241470D01*
X24664154Y-20241470D02*
X24657011Y-20234327D01*
X24657011Y-20234327D02*
X24649868Y-20220041D01*
X24649868Y-20220041D02*
X24649868Y-20177184D01*
X24649868Y-20177184D02*
X24657011Y-20162899D01*
X24657011Y-20162899D02*
X24664154Y-20155756D01*
X24664154Y-20155756D02*
X24678440Y-20148613D01*
X24678440Y-20148613D02*
X24707011Y-20148613D01*
X24707011Y-20148613D02*
X24721297Y-20155756D01*
X24792725Y-20234327D02*
X24799868Y-20241470D01*
X24799868Y-20241470D02*
X24792725Y-20248613D01*
X24792725Y-20248613D02*
X24785583Y-20241470D01*
X24785583Y-20241470D02*
X24792725Y-20234327D01*
X24792725Y-20234327D02*
X24792725Y-20248613D01*
X24792725Y-20155756D02*
X24799868Y-20162899D01*
X24799868Y-20162899D02*
X24792725Y-20170041D01*
X24792725Y-20170041D02*
X24785583Y-20162899D01*
X24785583Y-20162899D02*
X24792725Y-20155756D01*
X24792725Y-20155756D02*
X24792725Y-20170041D01*
X25057011Y-20248613D02*
X24971297Y-20248613D01*
X25014154Y-20248613D02*
X25014154Y-20098613D01*
X25014154Y-20098613D02*
X24999868Y-20120041D01*
X24999868Y-20120041D02*
X24985583Y-20134327D01*
X24985583Y-20134327D02*
X24971297Y-20141470D01*
X25228440Y-20091470D02*
X25099868Y-20284327D01*
X25357011Y-20248613D02*
X25271297Y-20248613D01*
X25314154Y-20248613D02*
X25314154Y-20098613D01*
X25314154Y-20098613D02*
X25299868Y-20120041D01*
X25299868Y-20120041D02*
X25285583Y-20134327D01*
X25285583Y-20134327D02*
X25271297Y-20141470D01*
D10*
D11*
X15940000Y-19340000D02*
X26740000Y-19340000D01*
D10*
D13*
X16109173Y-19410444D02*
X16223458Y-19410444D01*
X16141316Y-19610444D02*
X16166316Y-19410444D01*
X16265125Y-19610444D02*
X16281792Y-19477110D01*
X16290125Y-19410444D02*
X16279411Y-19419968D01*
X16279411Y-19419968D02*
X16287744Y-19429491D01*
X16287744Y-19429491D02*
X16298459Y-19419968D01*
X16298459Y-19419968D02*
X16290125Y-19410444D01*
X16290125Y-19410444D02*
X16287744Y-19429491D01*
X16348459Y-19477110D02*
X16424649Y-19477110D01*
X16385363Y-19410444D02*
X16363935Y-19581872D01*
X16363935Y-19581872D02*
X16371078Y-19600920D01*
X16371078Y-19600920D02*
X16388935Y-19610444D01*
X16388935Y-19610444D02*
X16407982Y-19610444D01*
X16503220Y-19610444D02*
X16485363Y-19600920D01*
X16485363Y-19600920D02*
X16478220Y-19581872D01*
X16478220Y-19581872D02*
X16499649Y-19410444D01*
X16656792Y-19600920D02*
X16636554Y-19610444D01*
X16636554Y-19610444D02*
X16598458Y-19610444D01*
X16598458Y-19610444D02*
X16580601Y-19600920D01*
X16580601Y-19600920D02*
X16573458Y-19581872D01*
X16573458Y-19581872D02*
X16582982Y-19505682D01*
X16582982Y-19505682D02*
X16594887Y-19486634D01*
X16594887Y-19486634D02*
X16615125Y-19477110D01*
X16615125Y-19477110D02*
X16653220Y-19477110D01*
X16653220Y-19477110D02*
X16671078Y-19486634D01*
X16671078Y-19486634D02*
X16678220Y-19505682D01*
X16678220Y-19505682D02*
X16675839Y-19524730D01*
X16675839Y-19524730D02*
X16578220Y-19543777D01*
X16753220Y-19591396D02*
X16761554Y-19600920D01*
X16761554Y-19600920D02*
X16750839Y-19610444D01*
X16750839Y-19610444D02*
X16742506Y-19600920D01*
X16742506Y-19600920D02*
X16753220Y-19591396D01*
X16753220Y-19591396D02*
X16750839Y-19610444D01*
X16766316Y-19486634D02*
X16774649Y-19496158D01*
X16774649Y-19496158D02*
X16763935Y-19505682D01*
X16763935Y-19505682D02*
X16755601Y-19496158D01*
X16755601Y-19496158D02*
X16766316Y-19486634D01*
X16766316Y-19486634D02*
X16763935Y-19505682D01*
X17127030Y-19419968D02*
X17109173Y-19410444D01*
X17109173Y-19410444D02*
X17080602Y-19410444D01*
X17080602Y-19410444D02*
X17050840Y-19419968D01*
X17050840Y-19419968D02*
X17029411Y-19439015D01*
X17029411Y-19439015D02*
X17017506Y-19458063D01*
X17017506Y-19458063D02*
X17003221Y-19496158D01*
X17003221Y-19496158D02*
X16999649Y-19524730D01*
X16999649Y-19524730D02*
X17004411Y-19562825D01*
X17004411Y-19562825D02*
X17011554Y-19581872D01*
X17011554Y-19581872D02*
X17028221Y-19600920D01*
X17028221Y-19600920D02*
X17055602Y-19610444D01*
X17055602Y-19610444D02*
X17074649Y-19610444D01*
X17074649Y-19610444D02*
X17104411Y-19600920D01*
X17104411Y-19600920D02*
X17115125Y-19591396D01*
X17115125Y-19591396D02*
X17123459Y-19524730D01*
X17123459Y-19524730D02*
X17085363Y-19524730D01*
X17227030Y-19610444D02*
X17209173Y-19600920D01*
X17209173Y-19600920D02*
X17202030Y-19581872D01*
X17202030Y-19581872D02*
X17223459Y-19410444D01*
X17331792Y-19610444D02*
X17313935Y-19600920D01*
X17313935Y-19600920D02*
X17305602Y-19591396D01*
X17305602Y-19591396D02*
X17298459Y-19572349D01*
X17298459Y-19572349D02*
X17305602Y-19515206D01*
X17305602Y-19515206D02*
X17317506Y-19496158D01*
X17317506Y-19496158D02*
X17328221Y-19486634D01*
X17328221Y-19486634D02*
X17348459Y-19477110D01*
X17348459Y-19477110D02*
X17377030Y-19477110D01*
X17377030Y-19477110D02*
X17394887Y-19486634D01*
X17394887Y-19486634D02*
X17403221Y-19496158D01*
X17403221Y-19496158D02*
X17410363Y-19515206D01*
X17410363Y-19515206D02*
X17403221Y-19572349D01*
X17403221Y-19572349D02*
X17391316Y-19591396D01*
X17391316Y-19591396D02*
X17380602Y-19600920D01*
X17380602Y-19600920D02*
X17360363Y-19610444D01*
X17360363Y-19610444D02*
X17331792Y-19610444D01*
X17484173Y-19610444D02*
X17509173Y-19410444D01*
X17499649Y-19486634D02*
X17519887Y-19477110D01*
X17519887Y-19477110D02*
X17557982Y-19477110D01*
X17557982Y-19477110D02*
X17575840Y-19486634D01*
X17575840Y-19486634D02*
X17584173Y-19496158D01*
X17584173Y-19496158D02*
X17591316Y-19515206D01*
X17591316Y-19515206D02*
X17584173Y-19572349D01*
X17584173Y-19572349D02*
X17572268Y-19591396D01*
X17572268Y-19591396D02*
X17561554Y-19600920D01*
X17561554Y-19600920D02*
X17541316Y-19610444D01*
X17541316Y-19610444D02*
X17503221Y-19610444D01*
X17503221Y-19610444D02*
X17485363Y-19600920D01*
X17750840Y-19610444D02*
X17763935Y-19505682D01*
X17763935Y-19505682D02*
X17756792Y-19486634D01*
X17756792Y-19486634D02*
X17738935Y-19477110D01*
X17738935Y-19477110D02*
X17700840Y-19477110D01*
X17700840Y-19477110D02*
X17680602Y-19486634D01*
X17752030Y-19600920D02*
X17731792Y-19610444D01*
X17731792Y-19610444D02*
X17684173Y-19610444D01*
X17684173Y-19610444D02*
X17666316Y-19600920D01*
X17666316Y-19600920D02*
X17659173Y-19581872D01*
X17659173Y-19581872D02*
X17661554Y-19562825D01*
X17661554Y-19562825D02*
X17673459Y-19543777D01*
X17673459Y-19543777D02*
X17693697Y-19534253D01*
X17693697Y-19534253D02*
X17741316Y-19534253D01*
X17741316Y-19534253D02*
X17761554Y-19524730D01*
X17874649Y-19610444D02*
X17856792Y-19600920D01*
X17856792Y-19600920D02*
X17849649Y-19581872D01*
X17849649Y-19581872D02*
X17871078Y-19410444D01*
X18094887Y-19600920D02*
X18122268Y-19610444D01*
X18122268Y-19610444D02*
X18169887Y-19610444D01*
X18169887Y-19610444D02*
X18190125Y-19600920D01*
X18190125Y-19600920D02*
X18200840Y-19591396D01*
X18200840Y-19591396D02*
X18212744Y-19572349D01*
X18212744Y-19572349D02*
X18215125Y-19553301D01*
X18215125Y-19553301D02*
X18207983Y-19534253D01*
X18207983Y-19534253D02*
X18199649Y-19524730D01*
X18199649Y-19524730D02*
X18181792Y-19515206D01*
X18181792Y-19515206D02*
X18144887Y-19505682D01*
X18144887Y-19505682D02*
X18127030Y-19496158D01*
X18127030Y-19496158D02*
X18118697Y-19486634D01*
X18118697Y-19486634D02*
X18111554Y-19467587D01*
X18111554Y-19467587D02*
X18113935Y-19448539D01*
X18113935Y-19448539D02*
X18125840Y-19429491D01*
X18125840Y-19429491D02*
X18136554Y-19419968D01*
X18136554Y-19419968D02*
X18156792Y-19410444D01*
X18156792Y-19410444D02*
X18204411Y-19410444D01*
X18204411Y-19410444D02*
X18231792Y-19419968D01*
X18380602Y-19600920D02*
X18360364Y-19610444D01*
X18360364Y-19610444D02*
X18322268Y-19610444D01*
X18322268Y-19610444D02*
X18304411Y-19600920D01*
X18304411Y-19600920D02*
X18296078Y-19591396D01*
X18296078Y-19591396D02*
X18288935Y-19572349D01*
X18288935Y-19572349D02*
X18296078Y-19515206D01*
X18296078Y-19515206D02*
X18307983Y-19496158D01*
X18307983Y-19496158D02*
X18318697Y-19486634D01*
X18318697Y-19486634D02*
X18338935Y-19477110D01*
X18338935Y-19477110D02*
X18377030Y-19477110D01*
X18377030Y-19477110D02*
X18394887Y-19486634D01*
X18550840Y-19610444D02*
X18563935Y-19505682D01*
X18563935Y-19505682D02*
X18556792Y-19486634D01*
X18556792Y-19486634D02*
X18538935Y-19477110D01*
X18538935Y-19477110D02*
X18500840Y-19477110D01*
X18500840Y-19477110D02*
X18480602Y-19486634D01*
X18552030Y-19600920D02*
X18531792Y-19610444D01*
X18531792Y-19610444D02*
X18484173Y-19610444D01*
X18484173Y-19610444D02*
X18466316Y-19600920D01*
X18466316Y-19600920D02*
X18459173Y-19581872D01*
X18459173Y-19581872D02*
X18461554Y-19562825D01*
X18461554Y-19562825D02*
X18473459Y-19543777D01*
X18473459Y-19543777D02*
X18493697Y-19534253D01*
X18493697Y-19534253D02*
X18541316Y-19534253D01*
X18541316Y-19534253D02*
X18561554Y-19524730D01*
X18643697Y-19477110D02*
X18674649Y-19610444D01*
X18674649Y-19610444D02*
X18738935Y-19477110D01*
X18875840Y-19600920D02*
X18855602Y-19610444D01*
X18855602Y-19610444D02*
X18817506Y-19610444D01*
X18817506Y-19610444D02*
X18799649Y-19600920D01*
X18799649Y-19600920D02*
X18792506Y-19581872D01*
X18792506Y-19581872D02*
X18802030Y-19505682D01*
X18802030Y-19505682D02*
X18813935Y-19486634D01*
X18813935Y-19486634D02*
X18834173Y-19477110D01*
X18834173Y-19477110D02*
X18872268Y-19477110D01*
X18872268Y-19477110D02*
X18890126Y-19486634D01*
X18890126Y-19486634D02*
X18897268Y-19505682D01*
X18897268Y-19505682D02*
X18894887Y-19524730D01*
X18894887Y-19524730D02*
X18797268Y-19543777D01*
X18986554Y-19477110D02*
X18969887Y-19610444D01*
X18984173Y-19496158D02*
X18994887Y-19486634D01*
X18994887Y-19486634D02*
X19015126Y-19477110D01*
X19015126Y-19477110D02*
X19043697Y-19477110D01*
X19043697Y-19477110D02*
X19061554Y-19486634D01*
X19061554Y-19486634D02*
X19068697Y-19505682D01*
X19068697Y-19505682D02*
X19055602Y-19610444D01*
X19253221Y-19477110D02*
X19232983Y-19639015D01*
X19232983Y-19639015D02*
X19221078Y-19658063D01*
X19221078Y-19658063D02*
X19210364Y-19667587D01*
X19210364Y-19667587D02*
X19190126Y-19677110D01*
X19190126Y-19677110D02*
X19161554Y-19677110D01*
X19161554Y-19677110D02*
X19143697Y-19667587D01*
X19237745Y-19600920D02*
X19217507Y-19610444D01*
X19217507Y-19610444D02*
X19179411Y-19610444D01*
X19179411Y-19610444D02*
X19161554Y-19600920D01*
X19161554Y-19600920D02*
X19153221Y-19591396D01*
X19153221Y-19591396D02*
X19146078Y-19572349D01*
X19146078Y-19572349D02*
X19153221Y-19515206D01*
X19153221Y-19515206D02*
X19165126Y-19496158D01*
X19165126Y-19496158D02*
X19175840Y-19486634D01*
X19175840Y-19486634D02*
X19196078Y-19477110D01*
X19196078Y-19477110D02*
X19234173Y-19477110D01*
X19234173Y-19477110D02*
X19252030Y-19486634D01*
X19409173Y-19600920D02*
X19388935Y-19610444D01*
X19388935Y-19610444D02*
X19350840Y-19610444D01*
X19350840Y-19610444D02*
X19332983Y-19600920D01*
X19332983Y-19600920D02*
X19325840Y-19581872D01*
X19325840Y-19581872D02*
X19335364Y-19505682D01*
X19335364Y-19505682D02*
X19347268Y-19486634D01*
X19347268Y-19486634D02*
X19367507Y-19477110D01*
X19367507Y-19477110D02*
X19405602Y-19477110D01*
X19405602Y-19477110D02*
X19423459Y-19486634D01*
X19423459Y-19486634D02*
X19430602Y-19505682D01*
X19430602Y-19505682D02*
X19428221Y-19524730D01*
X19428221Y-19524730D02*
X19330602Y-19543777D01*
X19503221Y-19610444D02*
X19519888Y-19477110D01*
X19515126Y-19515206D02*
X19527030Y-19496158D01*
X19527030Y-19496158D02*
X19537745Y-19486634D01*
X19537745Y-19486634D02*
X19557983Y-19477110D01*
X19557983Y-19477110D02*
X19577030Y-19477110D01*
X19779411Y-19610444D02*
X19804411Y-19410444D01*
X19792507Y-19505682D02*
X19906792Y-19505682D01*
X19893697Y-19610444D02*
X19918697Y-19410444D01*
X20091316Y-19477110D02*
X20074649Y-19610444D01*
X20005602Y-19477110D02*
X19992507Y-19581872D01*
X19992507Y-19581872D02*
X19999649Y-19600920D01*
X19999649Y-19600920D02*
X20017507Y-19610444D01*
X20017507Y-19610444D02*
X20046078Y-19610444D01*
X20046078Y-19610444D02*
X20066316Y-19600920D01*
X20066316Y-19600920D02*
X20077030Y-19591396D01*
X20186554Y-19477110D02*
X20169888Y-19610444D01*
X20184173Y-19496158D02*
X20194888Y-19486634D01*
X20194888Y-19486634D02*
X20215126Y-19477110D01*
X20215126Y-19477110D02*
X20243697Y-19477110D01*
X20243697Y-19477110D02*
X20261554Y-19486634D01*
X20261554Y-19486634D02*
X20268697Y-19505682D01*
X20268697Y-19505682D02*
X20255602Y-19610444D01*
X20338935Y-19477110D02*
X20415126Y-19477110D01*
X20375840Y-19410444D02*
X20354411Y-19581872D01*
X20354411Y-19581872D02*
X20361554Y-19600920D01*
X20361554Y-19600920D02*
X20379411Y-19610444D01*
X20379411Y-19610444D02*
X20398459Y-19610444D01*
X20617507Y-19610444D02*
X20642507Y-19410444D01*
X20642507Y-19410444D02*
X20718697Y-19410444D01*
X20718697Y-19410444D02*
X20736554Y-19419968D01*
X20736554Y-19419968D02*
X20744888Y-19429491D01*
X20744888Y-19429491D02*
X20752030Y-19448539D01*
X20752030Y-19448539D02*
X20748459Y-19477110D01*
X20748459Y-19477110D02*
X20736554Y-19496158D01*
X20736554Y-19496158D02*
X20725840Y-19505682D01*
X20725840Y-19505682D02*
X20705602Y-19515206D01*
X20705602Y-19515206D02*
X20629411Y-19515206D01*
X20846078Y-19610444D02*
X20828221Y-19600920D01*
X20828221Y-19600920D02*
X20819888Y-19591396D01*
X20819888Y-19591396D02*
X20812745Y-19572349D01*
X20812745Y-19572349D02*
X20819888Y-19515206D01*
X20819888Y-19515206D02*
X20831792Y-19496158D01*
X20831792Y-19496158D02*
X20842507Y-19486634D01*
X20842507Y-19486634D02*
X20862745Y-19477110D01*
X20862745Y-19477110D02*
X20891316Y-19477110D01*
X20891316Y-19477110D02*
X20909173Y-19486634D01*
X20909173Y-19486634D02*
X20917507Y-19496158D01*
X20917507Y-19496158D02*
X20924650Y-19515206D01*
X20924650Y-19515206D02*
X20917507Y-19572349D01*
X20917507Y-19572349D02*
X20905602Y-19591396D01*
X20905602Y-19591396D02*
X20894888Y-19600920D01*
X20894888Y-19600920D02*
X20874650Y-19610444D01*
X20874650Y-19610444D02*
X20846078Y-19610444D01*
X20990126Y-19600920D02*
X21007983Y-19610444D01*
X21007983Y-19610444D02*
X21046078Y-19610444D01*
X21046078Y-19610444D02*
X21066316Y-19600920D01*
X21066316Y-19600920D02*
X21078221Y-19581872D01*
X21078221Y-19581872D02*
X21079411Y-19572349D01*
X21079411Y-19572349D02*
X21072269Y-19553301D01*
X21072269Y-19553301D02*
X21054411Y-19543777D01*
X21054411Y-19543777D02*
X21025840Y-19543777D01*
X21025840Y-19543777D02*
X21007983Y-19534253D01*
X21007983Y-19534253D02*
X21000840Y-19515206D01*
X21000840Y-19515206D02*
X21002031Y-19505682D01*
X21002031Y-19505682D02*
X21013935Y-19486634D01*
X21013935Y-19486634D02*
X21034173Y-19477110D01*
X21034173Y-19477110D02*
X21062745Y-19477110D01*
X21062745Y-19477110D02*
X21080602Y-19486634D01*
X21160364Y-19610444D02*
X21177031Y-19477110D01*
X21185364Y-19410444D02*
X21174650Y-19419968D01*
X21174650Y-19419968D02*
X21182983Y-19429491D01*
X21182983Y-19429491D02*
X21193697Y-19419968D01*
X21193697Y-19419968D02*
X21185364Y-19410444D01*
X21185364Y-19410444D02*
X21182983Y-19429491D01*
X21243697Y-19477110D02*
X21319888Y-19477110D01*
X21280602Y-19410444D02*
X21259173Y-19581872D01*
X21259173Y-19581872D02*
X21266316Y-19600920D01*
X21266316Y-19600920D02*
X21284173Y-19610444D01*
X21284173Y-19610444D02*
X21303221Y-19610444D01*
X21369888Y-19610444D02*
X21386554Y-19477110D01*
X21394888Y-19410444D02*
X21384173Y-19419968D01*
X21384173Y-19419968D02*
X21392507Y-19429491D01*
X21392507Y-19429491D02*
X21403221Y-19419968D01*
X21403221Y-19419968D02*
X21394888Y-19410444D01*
X21394888Y-19410444D02*
X21392507Y-19429491D01*
X21493697Y-19610444D02*
X21475840Y-19600920D01*
X21475840Y-19600920D02*
X21467507Y-19591396D01*
X21467507Y-19591396D02*
X21460364Y-19572349D01*
X21460364Y-19572349D02*
X21467507Y-19515206D01*
X21467507Y-19515206D02*
X21479411Y-19496158D01*
X21479411Y-19496158D02*
X21490126Y-19486634D01*
X21490126Y-19486634D02*
X21510364Y-19477110D01*
X21510364Y-19477110D02*
X21538935Y-19477110D01*
X21538935Y-19477110D02*
X21556792Y-19486634D01*
X21556792Y-19486634D02*
X21565126Y-19496158D01*
X21565126Y-19496158D02*
X21572269Y-19515206D01*
X21572269Y-19515206D02*
X21565126Y-19572349D01*
X21565126Y-19572349D02*
X21553221Y-19591396D01*
X21553221Y-19591396D02*
X21542507Y-19600920D01*
X21542507Y-19600920D02*
X21522269Y-19610444D01*
X21522269Y-19610444D02*
X21493697Y-19610444D01*
X21662745Y-19477110D02*
X21646078Y-19610444D01*
X21660364Y-19496158D02*
X21671078Y-19486634D01*
X21671078Y-19486634D02*
X21691316Y-19477110D01*
X21691316Y-19477110D02*
X21719888Y-19477110D01*
X21719888Y-19477110D02*
X21737745Y-19486634D01*
X21737745Y-19486634D02*
X21744888Y-19505682D01*
X21744888Y-19505682D02*
X21731792Y-19610444D01*
X21827031Y-19610444D02*
X21843697Y-19477110D01*
X21852031Y-19410444D02*
X21841316Y-19419968D01*
X21841316Y-19419968D02*
X21849650Y-19429491D01*
X21849650Y-19429491D02*
X21860364Y-19419968D01*
X21860364Y-19419968D02*
X21852031Y-19410444D01*
X21852031Y-19410444D02*
X21849650Y-19429491D01*
X21938935Y-19477110D02*
X21922269Y-19610444D01*
X21936554Y-19496158D02*
X21947269Y-19486634D01*
X21947269Y-19486634D02*
X21967507Y-19477110D01*
X21967507Y-19477110D02*
X21996078Y-19477110D01*
X21996078Y-19477110D02*
X22013935Y-19486634D01*
X22013935Y-19486634D02*
X22021078Y-19505682D01*
X22021078Y-19505682D02*
X22007983Y-19610444D01*
X22205602Y-19477110D02*
X22185364Y-19639015D01*
X22185364Y-19639015D02*
X22173459Y-19658063D01*
X22173459Y-19658063D02*
X22162745Y-19667587D01*
X22162745Y-19667587D02*
X22142507Y-19677110D01*
X22142507Y-19677110D02*
X22113935Y-19677110D01*
X22113935Y-19677110D02*
X22096078Y-19667587D01*
X22190126Y-19600920D02*
X22169888Y-19610444D01*
X22169888Y-19610444D02*
X22131793Y-19610444D01*
X22131793Y-19610444D02*
X22113935Y-19600920D01*
X22113935Y-19600920D02*
X22105602Y-19591396D01*
X22105602Y-19591396D02*
X22098459Y-19572349D01*
X22098459Y-19572349D02*
X22105602Y-19515206D01*
X22105602Y-19515206D02*
X22117507Y-19496158D01*
X22117507Y-19496158D02*
X22128221Y-19486634D01*
X22128221Y-19486634D02*
X22148459Y-19477110D01*
X22148459Y-19477110D02*
X22186554Y-19477110D01*
X22186554Y-19477110D02*
X22204412Y-19486634D01*
X22428221Y-19600920D02*
X22455602Y-19610444D01*
X22455602Y-19610444D02*
X22503221Y-19610444D01*
X22503221Y-19610444D02*
X22523459Y-19600920D01*
X22523459Y-19600920D02*
X22534173Y-19591396D01*
X22534173Y-19591396D02*
X22546078Y-19572349D01*
X22546078Y-19572349D02*
X22548459Y-19553301D01*
X22548459Y-19553301D02*
X22541316Y-19534253D01*
X22541316Y-19534253D02*
X22532983Y-19524730D01*
X22532983Y-19524730D02*
X22515126Y-19515206D01*
X22515126Y-19515206D02*
X22478221Y-19505682D01*
X22478221Y-19505682D02*
X22460364Y-19496158D01*
X22460364Y-19496158D02*
X22452031Y-19486634D01*
X22452031Y-19486634D02*
X22444888Y-19467587D01*
X22444888Y-19467587D02*
X22447269Y-19448539D01*
X22447269Y-19448539D02*
X22459173Y-19429491D01*
X22459173Y-19429491D02*
X22469888Y-19419968D01*
X22469888Y-19419968D02*
X22490126Y-19410444D01*
X22490126Y-19410444D02*
X22537745Y-19410444D01*
X22537745Y-19410444D02*
X22565126Y-19419968D01*
X22624650Y-19477110D02*
X22655602Y-19610444D01*
X22719888Y-19477110D02*
X22655602Y-19610444D01*
X22655602Y-19610444D02*
X22630602Y-19658063D01*
X22630602Y-19658063D02*
X22619888Y-19667587D01*
X22619888Y-19667587D02*
X22599650Y-19677110D01*
X22771078Y-19600920D02*
X22788935Y-19610444D01*
X22788935Y-19610444D02*
X22827031Y-19610444D01*
X22827031Y-19610444D02*
X22847269Y-19600920D01*
X22847269Y-19600920D02*
X22859173Y-19581872D01*
X22859173Y-19581872D02*
X22860364Y-19572349D01*
X22860364Y-19572349D02*
X22853221Y-19553301D01*
X22853221Y-19553301D02*
X22835364Y-19543777D01*
X22835364Y-19543777D02*
X22806793Y-19543777D01*
X22806793Y-19543777D02*
X22788935Y-19534253D01*
X22788935Y-19534253D02*
X22781793Y-19515206D01*
X22781793Y-19515206D02*
X22782983Y-19505682D01*
X22782983Y-19505682D02*
X22794888Y-19486634D01*
X22794888Y-19486634D02*
X22815126Y-19477110D01*
X22815126Y-19477110D02*
X22843697Y-19477110D01*
X22843697Y-19477110D02*
X22861554Y-19486634D01*
X22929412Y-19477110D02*
X23005602Y-19477110D01*
X22966316Y-19410444D02*
X22944888Y-19581872D01*
X22944888Y-19581872D02*
X22952031Y-19600920D01*
X22952031Y-19600920D02*
X22969888Y-19610444D01*
X22969888Y-19610444D02*
X22988935Y-19610444D01*
X23132983Y-19600920D02*
X23112745Y-19610444D01*
X23112745Y-19610444D02*
X23074650Y-19610444D01*
X23074650Y-19610444D02*
X23056793Y-19600920D01*
X23056793Y-19600920D02*
X23049650Y-19581872D01*
X23049650Y-19581872D02*
X23059174Y-19505682D01*
X23059174Y-19505682D02*
X23071078Y-19486634D01*
X23071078Y-19486634D02*
X23091316Y-19477110D01*
X23091316Y-19477110D02*
X23129412Y-19477110D01*
X23129412Y-19477110D02*
X23147269Y-19486634D01*
X23147269Y-19486634D02*
X23154412Y-19505682D01*
X23154412Y-19505682D02*
X23152031Y-19524730D01*
X23152031Y-19524730D02*
X23054412Y-19543777D01*
X23227031Y-19610444D02*
X23243697Y-19477110D01*
X23241316Y-19496158D02*
X23252031Y-19486634D01*
X23252031Y-19486634D02*
X23272269Y-19477110D01*
X23272269Y-19477110D02*
X23300840Y-19477110D01*
X23300840Y-19477110D02*
X23318697Y-19486634D01*
X23318697Y-19486634D02*
X23325840Y-19505682D01*
X23325840Y-19505682D02*
X23312745Y-19610444D01*
X23325840Y-19505682D02*
X23337745Y-19486634D01*
X23337745Y-19486634D02*
X23357983Y-19477110D01*
X23357983Y-19477110D02*
X23386554Y-19477110D01*
X23386554Y-19477110D02*
X23404412Y-19486634D01*
X23404412Y-19486634D02*
X23411554Y-19505682D01*
X23411554Y-19505682D02*
X23398459Y-19610444D01*
D10*
D11*
X16135583Y-19150041D02*
X16085583Y-19150041D01*
X16085583Y-19228613D02*
X16085583Y-19078613D01*
X16085583Y-19078613D02*
X16157011Y-19078613D01*
X16214154Y-19228613D02*
X16214154Y-19128613D01*
X16214154Y-19078613D02*
X16207011Y-19085756D01*
X16207011Y-19085756D02*
X16214154Y-19092899D01*
X16214154Y-19092899D02*
X16221297Y-19085756D01*
X16221297Y-19085756D02*
X16214154Y-19078613D01*
X16214154Y-19078613D02*
X16214154Y-19092899D01*
X16307011Y-19228613D02*
X16292725Y-19221470D01*
X16292725Y-19221470D02*
X16285583Y-19207184D01*
X16285583Y-19207184D02*
X16285583Y-19078613D01*
X16421297Y-19221470D02*
X16407011Y-19228613D01*
X16407011Y-19228613D02*
X16378440Y-19228613D01*
X16378440Y-19228613D02*
X16364154Y-19221470D01*
X16364154Y-19221470D02*
X16357011Y-19207184D01*
X16357011Y-19207184D02*
X16357011Y-19150041D01*
X16357011Y-19150041D02*
X16364154Y-19135756D01*
X16364154Y-19135756D02*
X16378440Y-19128613D01*
X16378440Y-19128613D02*
X16407011Y-19128613D01*
X16407011Y-19128613D02*
X16421297Y-19135756D01*
X16421297Y-19135756D02*
X16428440Y-19150041D01*
X16428440Y-19150041D02*
X16428440Y-19164327D01*
X16428440Y-19164327D02*
X16357011Y-19178613D01*
X16492725Y-19214327D02*
X16499868Y-19221470D01*
X16499868Y-19221470D02*
X16492725Y-19228613D01*
X16492725Y-19228613D02*
X16485583Y-19221470D01*
X16485583Y-19221470D02*
X16492725Y-19214327D01*
X16492725Y-19214327D02*
X16492725Y-19228613D01*
X16492725Y-19135756D02*
X16499868Y-19142899D01*
X16499868Y-19142899D02*
X16492725Y-19150041D01*
X16492725Y-19150041D02*
X16485583Y-19142899D01*
X16485583Y-19142899D02*
X16492725Y-19135756D01*
X16492725Y-19135756D02*
X16492725Y-19150041D01*
X16742725Y-19128613D02*
X16742725Y-19250041D01*
X16742725Y-19250041D02*
X16735583Y-19264327D01*
X16735583Y-19264327D02*
X16728440Y-19271470D01*
X16728440Y-19271470D02*
X16714154Y-19278613D01*
X16714154Y-19278613D02*
X16692725Y-19278613D01*
X16692725Y-19278613D02*
X16678440Y-19271470D01*
X16742725Y-19221470D02*
X16728440Y-19228613D01*
X16728440Y-19228613D02*
X16699868Y-19228613D01*
X16699868Y-19228613D02*
X16685583Y-19221470D01*
X16685583Y-19221470D02*
X16678440Y-19214327D01*
X16678440Y-19214327D02*
X16671297Y-19200041D01*
X16671297Y-19200041D02*
X16671297Y-19157184D01*
X16671297Y-19157184D02*
X16678440Y-19142899D01*
X16678440Y-19142899D02*
X16685583Y-19135756D01*
X16685583Y-19135756D02*
X16699868Y-19128613D01*
X16699868Y-19128613D02*
X16728440Y-19128613D01*
X16728440Y-19128613D02*
X16742725Y-19135756D01*
X16807011Y-19221470D02*
X16821297Y-19228613D01*
X16821297Y-19228613D02*
X16849868Y-19228613D01*
X16849868Y-19228613D02*
X16864154Y-19221470D01*
X16864154Y-19221470D02*
X16871297Y-19207184D01*
X16871297Y-19207184D02*
X16871297Y-19200041D01*
X16871297Y-19200041D02*
X16864154Y-19185756D01*
X16864154Y-19185756D02*
X16849868Y-19178613D01*
X16849868Y-19178613D02*
X16828440Y-19178613D01*
X16828440Y-19178613D02*
X16814154Y-19171470D01*
X16814154Y-19171470D02*
X16807011Y-19157184D01*
X16807011Y-19157184D02*
X16807011Y-19150041D01*
X16807011Y-19150041D02*
X16814154Y-19135756D01*
X16814154Y-19135756D02*
X16828440Y-19128613D01*
X16828440Y-19128613D02*
X16849868Y-19128613D01*
X16849868Y-19128613D02*
X16864154Y-19135756D01*
X16935583Y-19228613D02*
X16935583Y-19078613D01*
X16999868Y-19228613D02*
X16999868Y-19150041D01*
X16999868Y-19150041D02*
X16992726Y-19135756D01*
X16992726Y-19135756D02*
X16978440Y-19128613D01*
X16978440Y-19128613D02*
X16957011Y-19128613D01*
X16957011Y-19128613D02*
X16942726Y-19135756D01*
X16942726Y-19135756D02*
X16935583Y-19142899D01*
X17071297Y-19128613D02*
X17071297Y-19278613D01*
X17071297Y-19135756D02*
X17085583Y-19128613D01*
X17085583Y-19128613D02*
X17114154Y-19128613D01*
X17114154Y-19128613D02*
X17128440Y-19135756D01*
X17128440Y-19135756D02*
X17135583Y-19142899D01*
X17135583Y-19142899D02*
X17142726Y-19157184D01*
X17142726Y-19157184D02*
X17142726Y-19200041D01*
X17142726Y-19200041D02*
X17135583Y-19214327D01*
X17135583Y-19214327D02*
X17128440Y-19221470D01*
X17128440Y-19221470D02*
X17114154Y-19228613D01*
X17114154Y-19228613D02*
X17085583Y-19228613D01*
X17085583Y-19228613D02*
X17071297Y-19221470D01*
X17199868Y-19221470D02*
X17214154Y-19228613D01*
X17214154Y-19228613D02*
X17242726Y-19228613D01*
X17242726Y-19228613D02*
X17257011Y-19221470D01*
X17257011Y-19221470D02*
X17264154Y-19207184D01*
X17264154Y-19207184D02*
X17264154Y-19200041D01*
X17264154Y-19200041D02*
X17257011Y-19185756D01*
X17257011Y-19185756D02*
X17242726Y-19178613D01*
X17242726Y-19178613D02*
X17221297Y-19178613D01*
X17221297Y-19178613D02*
X17207011Y-19171470D01*
X17207011Y-19171470D02*
X17199868Y-19157184D01*
X17199868Y-19157184D02*
X17199868Y-19150041D01*
X17199868Y-19150041D02*
X17207011Y-19135756D01*
X17207011Y-19135756D02*
X17221297Y-19128613D01*
X17221297Y-19128613D02*
X17242726Y-19128613D01*
X17242726Y-19128613D02*
X17257011Y-19135756D01*
X17328440Y-19214327D02*
X17335583Y-19221470D01*
X17335583Y-19221470D02*
X17328440Y-19228613D01*
X17328440Y-19228613D02*
X17321297Y-19221470D01*
X17321297Y-19221470D02*
X17328440Y-19214327D01*
X17328440Y-19214327D02*
X17328440Y-19228613D01*
X17399868Y-19228613D02*
X17399868Y-19078613D01*
X17414154Y-19171470D02*
X17457011Y-19228613D01*
X17457011Y-19128613D02*
X17399868Y-19185756D01*
X17521297Y-19228613D02*
X17521297Y-19128613D01*
X17521297Y-19078613D02*
X17514154Y-19085756D01*
X17514154Y-19085756D02*
X17521297Y-19092899D01*
X17521297Y-19092899D02*
X17528440Y-19085756D01*
X17528440Y-19085756D02*
X17521297Y-19078613D01*
X17521297Y-19078613D02*
X17521297Y-19092899D01*
X17657011Y-19221470D02*
X17642726Y-19228613D01*
X17642726Y-19228613D02*
X17614154Y-19228613D01*
X17614154Y-19228613D02*
X17599869Y-19221470D01*
X17599869Y-19221470D02*
X17592726Y-19214327D01*
X17592726Y-19214327D02*
X17585583Y-19200041D01*
X17585583Y-19200041D02*
X17585583Y-19157184D01*
X17585583Y-19157184D02*
X17592726Y-19142899D01*
X17592726Y-19142899D02*
X17599869Y-19135756D01*
X17599869Y-19135756D02*
X17614154Y-19128613D01*
X17614154Y-19128613D02*
X17642726Y-19128613D01*
X17642726Y-19128613D02*
X17657011Y-19135756D01*
X17785583Y-19228613D02*
X17785583Y-19150041D01*
X17785583Y-19150041D02*
X17778440Y-19135756D01*
X17778440Y-19135756D02*
X17764154Y-19128613D01*
X17764154Y-19128613D02*
X17735583Y-19128613D01*
X17735583Y-19128613D02*
X17721297Y-19135756D01*
X17785583Y-19221470D02*
X17771297Y-19228613D01*
X17771297Y-19228613D02*
X17735583Y-19228613D01*
X17735583Y-19228613D02*
X17721297Y-19221470D01*
X17721297Y-19221470D02*
X17714154Y-19207184D01*
X17714154Y-19207184D02*
X17714154Y-19192899D01*
X17714154Y-19192899D02*
X17721297Y-19178613D01*
X17721297Y-19178613D02*
X17735583Y-19171470D01*
X17735583Y-19171470D02*
X17771297Y-19171470D01*
X17771297Y-19171470D02*
X17785583Y-19164327D01*
X17921297Y-19228613D02*
X17921297Y-19078613D01*
X17921297Y-19221470D02*
X17907011Y-19228613D01*
X17907011Y-19228613D02*
X17878440Y-19228613D01*
X17878440Y-19228613D02*
X17864154Y-19221470D01*
X17864154Y-19221470D02*
X17857011Y-19214327D01*
X17857011Y-19214327D02*
X17849869Y-19200041D01*
X17849869Y-19200041D02*
X17849869Y-19157184D01*
X17849869Y-19157184D02*
X17857011Y-19142899D01*
X17857011Y-19142899D02*
X17864154Y-19135756D01*
X17864154Y-19135756D02*
X17878440Y-19128613D01*
X17878440Y-19128613D02*
X17907011Y-19128613D01*
X17907011Y-19128613D02*
X17921297Y-19135756D01*
X17957011Y-19242899D02*
X18071297Y-19242899D01*
X18107011Y-19128613D02*
X18107011Y-19278613D01*
X18107011Y-19135756D02*
X18121297Y-19128613D01*
X18121297Y-19128613D02*
X18149869Y-19128613D01*
X18149869Y-19128613D02*
X18164154Y-19135756D01*
X18164154Y-19135756D02*
X18171297Y-19142899D01*
X18171297Y-19142899D02*
X18178440Y-19157184D01*
X18178440Y-19157184D02*
X18178440Y-19200041D01*
X18178440Y-19200041D02*
X18171297Y-19214327D01*
X18171297Y-19214327D02*
X18164154Y-19221470D01*
X18164154Y-19221470D02*
X18149869Y-19228613D01*
X18149869Y-19228613D02*
X18121297Y-19228613D01*
X18121297Y-19228613D02*
X18107011Y-19221470D01*
X18307011Y-19221470D02*
X18292726Y-19228613D01*
X18292726Y-19228613D02*
X18264154Y-19228613D01*
X18264154Y-19228613D02*
X18249869Y-19221470D01*
X18249869Y-19221470D02*
X18242726Y-19214327D01*
X18242726Y-19214327D02*
X18235583Y-19200041D01*
X18235583Y-19200041D02*
X18235583Y-19157184D01*
X18235583Y-19157184D02*
X18242726Y-19142899D01*
X18242726Y-19142899D02*
X18249869Y-19135756D01*
X18249869Y-19135756D02*
X18264154Y-19128613D01*
X18264154Y-19128613D02*
X18292726Y-19128613D01*
X18292726Y-19128613D02*
X18307011Y-19135756D01*
X18371297Y-19228613D02*
X18371297Y-19078613D01*
X18371297Y-19135756D02*
X18385583Y-19128613D01*
X18385583Y-19128613D02*
X18414154Y-19128613D01*
X18414154Y-19128613D02*
X18428440Y-19135756D01*
X18428440Y-19135756D02*
X18435583Y-19142899D01*
X18435583Y-19142899D02*
X18442726Y-19157184D01*
X18442726Y-19157184D02*
X18442726Y-19200041D01*
X18442726Y-19200041D02*
X18435583Y-19214327D01*
X18435583Y-19214327D02*
X18428440Y-19221470D01*
X18428440Y-19221470D02*
X18414154Y-19228613D01*
X18414154Y-19228613D02*
X18385583Y-19228613D01*
X18385583Y-19228613D02*
X18371297Y-19221470D01*
D10*
D11*
X15940000Y-18740000D02*
X26740000Y-18740000D01*
D10*
D11*
X16078440Y-18951470D02*
X16099868Y-18958613D01*
X16099868Y-18958613D02*
X16135583Y-18958613D01*
X16135583Y-18958613D02*
X16149868Y-18951470D01*
X16149868Y-18951470D02*
X16157011Y-18944327D01*
X16157011Y-18944327D02*
X16164154Y-18930041D01*
X16164154Y-18930041D02*
X16164154Y-18915756D01*
X16164154Y-18915756D02*
X16157011Y-18901470D01*
X16157011Y-18901470D02*
X16149868Y-18894327D01*
X16149868Y-18894327D02*
X16135583Y-18887184D01*
X16135583Y-18887184D02*
X16107011Y-18880041D01*
X16107011Y-18880041D02*
X16092725Y-18872899D01*
X16092725Y-18872899D02*
X16085583Y-18865756D01*
X16085583Y-18865756D02*
X16078440Y-18851470D01*
X16078440Y-18851470D02*
X16078440Y-18837184D01*
X16078440Y-18837184D02*
X16085583Y-18822899D01*
X16085583Y-18822899D02*
X16092725Y-18815756D01*
X16092725Y-18815756D02*
X16107011Y-18808613D01*
X16107011Y-18808613D02*
X16142725Y-18808613D01*
X16142725Y-18808613D02*
X16164154Y-18815756D01*
X16228440Y-18958613D02*
X16228440Y-18808613D01*
X16292725Y-18958613D02*
X16292725Y-18880041D01*
X16292725Y-18880041D02*
X16285583Y-18865756D01*
X16285583Y-18865756D02*
X16271297Y-18858613D01*
X16271297Y-18858613D02*
X16249868Y-18858613D01*
X16249868Y-18858613D02*
X16235583Y-18865756D01*
X16235583Y-18865756D02*
X16228440Y-18872899D01*
X16421297Y-18951470D02*
X16407011Y-18958613D01*
X16407011Y-18958613D02*
X16378440Y-18958613D01*
X16378440Y-18958613D02*
X16364154Y-18951470D01*
X16364154Y-18951470D02*
X16357011Y-18937184D01*
X16357011Y-18937184D02*
X16357011Y-18880041D01*
X16357011Y-18880041D02*
X16364154Y-18865756D01*
X16364154Y-18865756D02*
X16378440Y-18858613D01*
X16378440Y-18858613D02*
X16407011Y-18858613D01*
X16407011Y-18858613D02*
X16421297Y-18865756D01*
X16421297Y-18865756D02*
X16428440Y-18880041D01*
X16428440Y-18880041D02*
X16428440Y-18894327D01*
X16428440Y-18894327D02*
X16357011Y-18908613D01*
X16549868Y-18951470D02*
X16535583Y-18958613D01*
X16535583Y-18958613D02*
X16507011Y-18958613D01*
X16507011Y-18958613D02*
X16492725Y-18951470D01*
X16492725Y-18951470D02*
X16485583Y-18937184D01*
X16485583Y-18937184D02*
X16485583Y-18880041D01*
X16485583Y-18880041D02*
X16492725Y-18865756D01*
X16492725Y-18865756D02*
X16507011Y-18858613D01*
X16507011Y-18858613D02*
X16535583Y-18858613D01*
X16535583Y-18858613D02*
X16549868Y-18865756D01*
X16549868Y-18865756D02*
X16557011Y-18880041D01*
X16557011Y-18880041D02*
X16557011Y-18894327D01*
X16557011Y-18894327D02*
X16485583Y-18908613D01*
X16599868Y-18858613D02*
X16657011Y-18858613D01*
X16621297Y-18808613D02*
X16621297Y-18937184D01*
X16621297Y-18937184D02*
X16628440Y-18951470D01*
X16628440Y-18951470D02*
X16642725Y-18958613D01*
X16642725Y-18958613D02*
X16657011Y-18958613D01*
X16707011Y-18944327D02*
X16714154Y-18951470D01*
X16714154Y-18951470D02*
X16707011Y-18958613D01*
X16707011Y-18958613D02*
X16699868Y-18951470D01*
X16699868Y-18951470D02*
X16707011Y-18944327D01*
X16707011Y-18944327D02*
X16707011Y-18958613D01*
X16707011Y-18865756D02*
X16714154Y-18872899D01*
X16714154Y-18872899D02*
X16707011Y-18880041D01*
X16707011Y-18880041D02*
X16699868Y-18872899D01*
X16699868Y-18872899D02*
X16707011Y-18865756D01*
X16707011Y-18865756D02*
X16707011Y-18880041D01*
D10*
D12*
X17619451Y-18657813D02*
X17619451Y-18507813D01*
X17619451Y-18507813D02*
X17676594Y-18507813D01*
X17676594Y-18507813D02*
X17690880Y-18514956D01*
X17690880Y-18514956D02*
X17698023Y-18522099D01*
X17698023Y-18522099D02*
X17705165Y-18536384D01*
X17705165Y-18536384D02*
X17705165Y-18557813D01*
X17705165Y-18557813D02*
X17698023Y-18572099D01*
X17698023Y-18572099D02*
X17690880Y-18579241D01*
X17690880Y-18579241D02*
X17676594Y-18586384D01*
X17676594Y-18586384D02*
X17619451Y-18586384D01*
X17833737Y-18657813D02*
X17833737Y-18579241D01*
X17833737Y-18579241D02*
X17826594Y-18564956D01*
X17826594Y-18564956D02*
X17812308Y-18557813D01*
X17812308Y-18557813D02*
X17783737Y-18557813D01*
X17783737Y-18557813D02*
X17769451Y-18564956D01*
X17833737Y-18650670D02*
X17819451Y-18657813D01*
X17819451Y-18657813D02*
X17783737Y-18657813D01*
X17783737Y-18657813D02*
X17769451Y-18650670D01*
X17769451Y-18650670D02*
X17762308Y-18636384D01*
X17762308Y-18636384D02*
X17762308Y-18622099D01*
X17762308Y-18622099D02*
X17769451Y-18607813D01*
X17769451Y-18607813D02*
X17783737Y-18600670D01*
X17783737Y-18600670D02*
X17819451Y-18600670D01*
X17819451Y-18600670D02*
X17833737Y-18593527D01*
X17905165Y-18557813D02*
X17905165Y-18657813D01*
X17905165Y-18572099D02*
X17912308Y-18564956D01*
X17912308Y-18564956D02*
X17926594Y-18557813D01*
X17926594Y-18557813D02*
X17948023Y-18557813D01*
X17948023Y-18557813D02*
X17962308Y-18564956D01*
X17962308Y-18564956D02*
X17969451Y-18579241D01*
X17969451Y-18579241D02*
X17969451Y-18657813D01*
X18019451Y-18557813D02*
X18076594Y-18557813D01*
X18040880Y-18507813D02*
X18040880Y-18636384D01*
X18040880Y-18636384D02*
X18048023Y-18650670D01*
X18048023Y-18650670D02*
X18062308Y-18657813D01*
X18062308Y-18657813D02*
X18076594Y-18657813D01*
X18119451Y-18650670D02*
X18133737Y-18657813D01*
X18133737Y-18657813D02*
X18162308Y-18657813D01*
X18162308Y-18657813D02*
X18176594Y-18650670D01*
X18176594Y-18650670D02*
X18183737Y-18636384D01*
X18183737Y-18636384D02*
X18183737Y-18629241D01*
X18183737Y-18629241D02*
X18176594Y-18614956D01*
X18176594Y-18614956D02*
X18162308Y-18607813D01*
X18162308Y-18607813D02*
X18140880Y-18607813D01*
X18140880Y-18607813D02*
X18126594Y-18600670D01*
X18126594Y-18600670D02*
X18119451Y-18586384D01*
X18119451Y-18586384D02*
X18119451Y-18579241D01*
X18119451Y-18579241D02*
X18126594Y-18564956D01*
X18126594Y-18564956D02*
X18140880Y-18557813D01*
X18140880Y-18557813D02*
X18162308Y-18557813D01*
X18162308Y-18557813D02*
X18176594Y-18564956D01*
X18340880Y-18557813D02*
X18398023Y-18557813D01*
X18362308Y-18657813D02*
X18362308Y-18529241D01*
X18362308Y-18529241D02*
X18369451Y-18514956D01*
X18369451Y-18514956D02*
X18383737Y-18507813D01*
X18383737Y-18507813D02*
X18398023Y-18507813D01*
X18469451Y-18657813D02*
X18455165Y-18650670D01*
X18455165Y-18650670D02*
X18448023Y-18643527D01*
X18448023Y-18643527D02*
X18440880Y-18629241D01*
X18440880Y-18629241D02*
X18440880Y-18586384D01*
X18440880Y-18586384D02*
X18448023Y-18572099D01*
X18448023Y-18572099D02*
X18455165Y-18564956D01*
X18455165Y-18564956D02*
X18469451Y-18557813D01*
X18469451Y-18557813D02*
X18490880Y-18557813D01*
X18490880Y-18557813D02*
X18505165Y-18564956D01*
X18505165Y-18564956D02*
X18512308Y-18572099D01*
X18512308Y-18572099D02*
X18519451Y-18586384D01*
X18519451Y-18586384D02*
X18519451Y-18629241D01*
X18519451Y-18629241D02*
X18512308Y-18643527D01*
X18512308Y-18643527D02*
X18505165Y-18650670D01*
X18505165Y-18650670D02*
X18490880Y-18657813D01*
X18490880Y-18657813D02*
X18469451Y-18657813D01*
X18583737Y-18657813D02*
X18583737Y-18557813D01*
X18583737Y-18586384D02*
X18590880Y-18572099D01*
X18590880Y-18572099D02*
X18598023Y-18564956D01*
X18598023Y-18564956D02*
X18612308Y-18557813D01*
X18612308Y-18557813D02*
X18626594Y-18557813D01*
X18840880Y-18579241D02*
X18862308Y-18586384D01*
X18862308Y-18586384D02*
X18869451Y-18593527D01*
X18869451Y-18593527D02*
X18876594Y-18607813D01*
X18876594Y-18607813D02*
X18876594Y-18629241D01*
X18876594Y-18629241D02*
X18869451Y-18643527D01*
X18869451Y-18643527D02*
X18862308Y-18650670D01*
X18862308Y-18650670D02*
X18848023Y-18657813D01*
X18848023Y-18657813D02*
X18790880Y-18657813D01*
X18790880Y-18657813D02*
X18790880Y-18507813D01*
X18790880Y-18507813D02*
X18840880Y-18507813D01*
X18840880Y-18507813D02*
X18855165Y-18514956D01*
X18855165Y-18514956D02*
X18862308Y-18522099D01*
X18862308Y-18522099D02*
X18869451Y-18536384D01*
X18869451Y-18536384D02*
X18869451Y-18550670D01*
X18869451Y-18550670D02*
X18862308Y-18564956D01*
X18862308Y-18564956D02*
X18855165Y-18572099D01*
X18855165Y-18572099D02*
X18840880Y-18579241D01*
X18840880Y-18579241D02*
X18790880Y-18579241D01*
X18940880Y-18657813D02*
X18940880Y-18557813D01*
X18940880Y-18507813D02*
X18933737Y-18514956D01*
X18933737Y-18514956D02*
X18940880Y-18522099D01*
X18940880Y-18522099D02*
X18948023Y-18514956D01*
X18948023Y-18514956D02*
X18940880Y-18507813D01*
X18940880Y-18507813D02*
X18940880Y-18522099D01*
X19012308Y-18657813D02*
X19012308Y-18557813D01*
X19012308Y-18586384D02*
X19019451Y-18572099D01*
X19019451Y-18572099D02*
X19026594Y-18564956D01*
X19026594Y-18564956D02*
X19040880Y-18557813D01*
X19040880Y-18557813D02*
X19055165Y-18557813D01*
X19169451Y-18657813D02*
X19169451Y-18507813D01*
X19169451Y-18650670D02*
X19155165Y-18657813D01*
X19155165Y-18657813D02*
X19126594Y-18657813D01*
X19126594Y-18657813D02*
X19112308Y-18650670D01*
X19112308Y-18650670D02*
X19105165Y-18643527D01*
X19105165Y-18643527D02*
X19098023Y-18629241D01*
X19098023Y-18629241D02*
X19098023Y-18586384D01*
X19098023Y-18586384D02*
X19105165Y-18572099D01*
X19105165Y-18572099D02*
X19112308Y-18564956D01*
X19112308Y-18564956D02*
X19126594Y-18557813D01*
X19126594Y-18557813D02*
X19155165Y-18557813D01*
X19155165Y-18557813D02*
X19169451Y-18564956D01*
X19233737Y-18650670D02*
X19248023Y-18657813D01*
X19248023Y-18657813D02*
X19276594Y-18657813D01*
X19276594Y-18657813D02*
X19290880Y-18650670D01*
X19290880Y-18650670D02*
X19298023Y-18636384D01*
X19298023Y-18636384D02*
X19298023Y-18629241D01*
X19298023Y-18629241D02*
X19290880Y-18614956D01*
X19290880Y-18614956D02*
X19276594Y-18607813D01*
X19276594Y-18607813D02*
X19255165Y-18607813D01*
X19255165Y-18607813D02*
X19240880Y-18600670D01*
X19240880Y-18600670D02*
X19233737Y-18586384D01*
X19233737Y-18586384D02*
X19233737Y-18579241D01*
X19233737Y-18579241D02*
X19240880Y-18564956D01*
X19240880Y-18564956D02*
X19255165Y-18557813D01*
X19255165Y-18557813D02*
X19276594Y-18557813D01*
X19276594Y-18557813D02*
X19290880Y-18564956D01*
D10*
D11*
X17940000Y-19740000D02*
X17940000Y-20040000D01*
D10*
D11*
X24340000Y-19740000D02*
X24340000Y-20390000D01*
D10*
D11*
X17441100Y-17199780D02*
X17441100Y-18739780D01*
D14*
X4300000Y-5900000D02*
X6350000Y-5900000D01*
X10750000Y-2350000D02*
G75*
G02*
X11850000Y-3450000I0J-1100000D01*
G01*
X11850000Y-6750000D02*
G75*
G02*
X10750000Y-7850000I-1100000J0D01*
G01*
X3700000Y-5100000D02*
X3700000Y-3450000D01*
X3450000Y-3400000D02*
X3650000Y-3400000D01*
X3950000Y-7850000D02*
G75*
G02*
X2850000Y-6750000I0J1100000D01*
G01*
X4100000Y-7850000D02*
X4100000Y-6100000D01*
X3400000Y-3450000D02*
X3400000Y-5100000D01*
X3450000Y-5150000D02*
X3650000Y-5150000D01*
X3650000Y-3400000D02*
G75*
G02*
X3700000Y-3450000I0J-50000D01*
G01*
X3700000Y-5100000D02*
G75*
G02*
X3650000Y-5150000I-50000J0D01*
G01*
X4100000Y-6100000D02*
G75*
G02*
X4300000Y-5900000I200000J0D01*
G01*
X10750000Y-7850000D02*
X6550000Y-7850000D01*
X3950000Y-2350000D02*
X10750000Y-2350000D01*
X3400000Y-3450000D02*
G75*
G02*
X3450000Y-3400000I50000J0D01*
G01*
X4100000Y-7850000D02*
X3950000Y-7850000D01*
X3450000Y-5150000D02*
G75*
G02*
X3400000Y-5100000I0J50000D01*
G01*
X2850000Y-6750000D02*
X2850000Y-3450000D01*
X6550000Y-7850000D02*
X6550000Y-6100000D01*
X2850000Y-3450000D02*
G75*
G02*
X3950000Y-2350000I1100000J0D01*
G01*
X6350000Y-5900000D02*
G75*
G02*
X6550000Y-6100000I0J-200000D01*
G01*
X11850000Y-3450000D02*
X11850000Y-6750000D01*
D12*
X11412833Y-5524737D02*
X11534261Y-5524737D01*
X11534261Y-5524737D02*
X11548547Y-5517594D01*
X11548547Y-5517594D02*
X11555690Y-5510451D01*
X11555690Y-5510451D02*
X11562833Y-5496165D01*
X11562833Y-5496165D02*
X11562833Y-5474737D01*
X11562833Y-5474737D02*
X11555690Y-5460451D01*
X11505690Y-5524737D02*
X11512833Y-5510451D01*
X11512833Y-5510451D02*
X11512833Y-5481880D01*
X11512833Y-5481880D02*
X11505690Y-5467594D01*
X11505690Y-5467594D02*
X11498547Y-5460451D01*
X11498547Y-5460451D02*
X11484261Y-5453308D01*
X11484261Y-5453308D02*
X11441404Y-5453308D01*
X11441404Y-5453308D02*
X11427118Y-5460451D01*
X11427118Y-5460451D02*
X11419976Y-5467594D01*
X11419976Y-5467594D02*
X11412833Y-5481880D01*
X11412833Y-5481880D02*
X11412833Y-5510451D01*
X11412833Y-5510451D02*
X11419976Y-5524737D01*
X11505690Y-5589023D02*
X11512833Y-5603308D01*
X11512833Y-5603308D02*
X11512833Y-5631880D01*
X11512833Y-5631880D02*
X11505690Y-5646165D01*
X11505690Y-5646165D02*
X11491404Y-5653308D01*
X11491404Y-5653308D02*
X11484261Y-5653308D01*
X11484261Y-5653308D02*
X11469976Y-5646165D01*
X11469976Y-5646165D02*
X11462833Y-5631880D01*
X11462833Y-5631880D02*
X11462833Y-5610451D01*
X11462833Y-5610451D02*
X11455690Y-5596165D01*
X11455690Y-5596165D02*
X11441404Y-5589023D01*
X11441404Y-5589023D02*
X11434261Y-5589023D01*
X11434261Y-5589023D02*
X11419976Y-5596165D01*
X11419976Y-5596165D02*
X11412833Y-5610451D01*
X11412833Y-5610451D02*
X11412833Y-5631880D01*
X11412833Y-5631880D02*
X11419976Y-5646165D01*
X11512833Y-5717594D02*
X11362833Y-5717594D01*
X11512833Y-5781880D02*
X11434261Y-5781880D01*
X11434261Y-5781880D02*
X11419976Y-5774737D01*
X11419976Y-5774737D02*
X11412833Y-5760451D01*
X11412833Y-5760451D02*
X11412833Y-5739022D01*
X11412833Y-5739022D02*
X11419976Y-5724737D01*
X11419976Y-5724737D02*
X11427118Y-5717594D01*
X11412833Y-5853308D02*
X11562833Y-5853308D01*
X11419976Y-5853308D02*
X11412833Y-5867594D01*
X11412833Y-5867594D02*
X11412833Y-5896165D01*
X11412833Y-5896165D02*
X11419976Y-5910451D01*
X11419976Y-5910451D02*
X11427118Y-5917594D01*
X11427118Y-5917594D02*
X11441404Y-5924737D01*
X11441404Y-5924737D02*
X11484261Y-5924737D01*
X11484261Y-5924737D02*
X11498547Y-5917594D01*
X11498547Y-5917594D02*
X11505690Y-5910451D01*
X11505690Y-5910451D02*
X11512833Y-5896165D01*
X11512833Y-5896165D02*
X11512833Y-5867594D01*
X11512833Y-5867594D02*
X11505690Y-5853308D01*
X11505690Y-5981880D02*
X11512833Y-5996165D01*
X11512833Y-5996165D02*
X11512833Y-6024737D01*
X11512833Y-6024737D02*
X11505690Y-6039022D01*
X11505690Y-6039022D02*
X11491404Y-6046165D01*
X11491404Y-6046165D02*
X11484261Y-6046165D01*
X11484261Y-6046165D02*
X11469976Y-6039022D01*
X11469976Y-6039022D02*
X11462833Y-6024737D01*
X11462833Y-6024737D02*
X11462833Y-6003308D01*
X11462833Y-6003308D02*
X11455690Y-5989022D01*
X11455690Y-5989022D02*
X11441404Y-5981880D01*
X11441404Y-5981880D02*
X11434261Y-5981880D01*
X11434261Y-5981880D02*
X11419976Y-5989022D01*
X11419976Y-5989022D02*
X11412833Y-6003308D01*
X11412833Y-6003308D02*
X11412833Y-6024737D01*
X11412833Y-6024737D02*
X11419976Y-6039022D01*
X11742833Y-5546165D02*
X11671404Y-5496165D01*
X11742833Y-5460451D02*
X11592833Y-5460451D01*
X11592833Y-5460451D02*
X11592833Y-5517594D01*
X11592833Y-5517594D02*
X11599976Y-5531880D01*
X11599976Y-5531880D02*
X11607118Y-5539023D01*
X11607118Y-5539023D02*
X11621404Y-5546165D01*
X11621404Y-5546165D02*
X11642833Y-5546165D01*
X11642833Y-5546165D02*
X11657118Y-5539023D01*
X11657118Y-5539023D02*
X11664261Y-5531880D01*
X11664261Y-5531880D02*
X11671404Y-5517594D01*
X11671404Y-5517594D02*
X11671404Y-5460451D01*
X11664261Y-5610451D02*
X11664261Y-5660451D01*
X11742833Y-5681880D02*
X11742833Y-5610451D01*
X11742833Y-5610451D02*
X11592833Y-5610451D01*
X11592833Y-5610451D02*
X11592833Y-5681880D01*
X11592833Y-5724737D02*
X11742833Y-5774737D01*
X11742833Y-5774737D02*
X11592833Y-5824737D01*
X11728547Y-6074737D02*
X11735690Y-6067594D01*
X11735690Y-6067594D02*
X11742833Y-6046165D01*
X11742833Y-6046165D02*
X11742833Y-6031880D01*
X11742833Y-6031880D02*
X11735690Y-6010451D01*
X11735690Y-6010451D02*
X11721404Y-5996165D01*
X11721404Y-5996165D02*
X11707118Y-5989022D01*
X11707118Y-5989022D02*
X11678547Y-5981880D01*
X11678547Y-5981880D02*
X11657118Y-5981880D01*
X11657118Y-5981880D02*
X11628547Y-5989022D01*
X11628547Y-5989022D02*
X11614261Y-5996165D01*
X11614261Y-5996165D02*
X11599976Y-6010451D01*
X11599976Y-6010451D02*
X11592833Y-6031880D01*
X11592833Y-6031880D02*
X11592833Y-6046165D01*
X11592833Y-6046165D02*
X11599976Y-6067594D01*
X11599976Y-6067594D02*
X11607118Y-6074737D01*
D15*
X11200000Y-7200000D03*
D16*
X3483500Y-6400000D03*
D17*
X3483500Y-5650000D03*
D18*
X3268500Y-6265000D03*
X3698500Y-6265000D03*
X3268500Y-5785000D03*
X3698500Y-5785000D03*
D15*
X3500000Y-7200000D03*
X3500000Y-3000000D03*
X11200000Y-3000000D03*
D19*
X8443750Y-4440000D03*
X8443750Y-4480000D03*
X8443750Y-4520000D03*
X8443750Y-4560000D03*
X8443750Y-4600000D03*
X8443750Y-4640000D03*
X8443750Y-4680000D03*
X8443750Y-4720000D03*
X8443750Y-4760000D03*
X8443750Y-4800000D03*
X8443750Y-4840000D03*
X8443750Y-4880000D03*
X8443750Y-4920000D03*
X8443750Y-4960000D03*
D20*
X8360000Y-5043750D03*
X8320000Y-5043750D03*
X8280000Y-5043750D03*
X8240000Y-5043750D03*
X8200000Y-5043750D03*
X8160000Y-5043750D03*
X8120000Y-5043750D03*
X8080000Y-5043750D03*
X8040000Y-5043750D03*
X8000000Y-5043750D03*
X7960000Y-5043750D03*
X7920000Y-5043750D03*
X7880000Y-5043750D03*
X7840000Y-5043750D03*
D19*
X7756250Y-4960000D03*
X7756250Y-4920000D03*
X7756250Y-4880000D03*
X7756250Y-4840000D03*
X7756250Y-4800000D03*
X7756250Y-4760000D03*
X7756250Y-4720000D03*
X7756250Y-4680000D03*
X7756250Y-4640000D03*
X7756250Y-4600000D03*
X7756250Y-4560000D03*
X7756250Y-4520000D03*
X7756250Y-4480000D03*
X7756250Y-4440000D03*
D20*
X7840000Y-4356250D03*
X7880000Y-4356250D03*
X7920000Y-4356250D03*
X7960000Y-4356250D03*
X8000000Y-4356250D03*
X8040000Y-4356250D03*
X8080000Y-4356250D03*
X8120000Y-4356250D03*
X8160000Y-4356250D03*
X8200000Y-4356250D03*
X8240000Y-4356250D03*
X8280000Y-4356250D03*
X8320000Y-4356250D03*
X8360000Y-4356250D03*
D21*
X8100000Y-4700000D03*
D22*
X10250000Y-3899000D03*
X10250000Y-4001000D03*
D23*
X10272500Y-4150000D03*
X10427500Y-4150000D03*
D24*
X9451000Y-4750000D03*
X9349000Y-4750000D03*
D25*
X7512000Y-4800000D03*
X7608000Y-4800000D03*
D23*
X4802500Y-4300000D03*
X4957500Y-4300000D03*
D22*
X3030000Y-6059000D03*
X3030000Y-6161000D03*
D26*
X8100000Y-4052000D03*
X8100000Y-4148000D03*
D27*
X9445000Y-4593750D03*
X9255000Y-4593750D03*
X9350000Y-4406250D03*
D23*
X4802500Y-4450000D03*
X4957500Y-4450000D03*
X4822500Y-3830000D03*
X4977500Y-3830000D03*
D28*
X5482500Y-5635000D03*
X5592500Y-5635000D03*
X5702500Y-5635000D03*
X5812500Y-5635000D03*
X5922500Y-5635000D03*
X6032500Y-5635000D03*
X6142500Y-5635000D03*
X6252500Y-5635000D03*
D29*
X6365000Y-4712500D03*
D30*
X5242500Y-4555000D03*
D31*
X6397500Y-4862500D03*
D32*
X6372500Y-5622500D03*
D33*
X5237500Y-5622500D03*
D34*
X5202500Y-4797500D03*
D35*
X5760000Y-3750000D03*
X6040000Y-3750000D03*
D36*
X9049000Y-3550000D03*
X9151000Y-3550000D03*
D37*
X7976059Y-3766059D03*
X8043941Y-3833941D03*
D38*
X9655000Y-3200000D03*
X9465000Y-3200000D03*
D36*
X10569000Y-3440000D03*
X10671000Y-3440000D03*
D39*
X6633750Y-3215000D03*
X6633750Y-3405000D03*
X6446250Y-3310000D03*
D40*
X4560000Y-3630000D03*
X4560000Y-3680000D03*
X4560000Y-3730000D03*
X4560000Y-3780000D03*
X4560000Y-3830000D03*
X4560000Y-3880000D03*
X4560000Y-3930000D03*
X4560000Y-3980000D03*
X4560000Y-4030000D03*
X4560000Y-4080000D03*
X4560000Y-4130000D03*
X4560000Y-4180000D03*
X4560000Y-4230000D03*
X4560000Y-4280000D03*
X4560000Y-4330000D03*
X4560000Y-4380000D03*
X4560000Y-4430000D03*
X4560000Y-4480000D03*
X4560000Y-4530000D03*
X4560000Y-4580000D03*
X4560000Y-4630000D03*
X4560000Y-4680000D03*
X4560000Y-4730000D03*
X4560000Y-4780000D03*
D41*
X4295000Y-4880000D03*
X4295000Y-3530000D03*
D42*
X9448964Y-6107000D03*
X10078964Y-6107000D03*
X9448964Y-5727000D03*
X10078964Y-5727000D03*
D22*
X9540000Y-3919000D03*
X9540000Y-4021000D03*
D23*
X4802500Y-4700000D03*
X4957500Y-4700000D03*
D26*
X8750000Y-5452000D03*
X8750000Y-5548000D03*
D43*
X10415000Y-3209500D03*
X10415000Y-3336500D03*
X10415000Y-3463500D03*
X10415000Y-3590500D03*
X9885000Y-3590500D03*
X9885000Y-3463500D03*
X9885000Y-3336500D03*
X9885000Y-3209500D03*
D44*
X10150000Y-3400000D03*
D22*
X10350000Y-3899000D03*
X10350000Y-4001000D03*
D45*
X8110000Y-5348000D03*
X8110000Y-5252000D03*
D22*
X10450000Y-4799000D03*
X10450000Y-4901000D03*
D25*
X8452000Y-3550000D03*
X8548000Y-3550000D03*
D22*
X7900000Y-4098000D03*
X7900000Y-4200000D03*
D46*
X7056250Y-5095000D03*
X7056250Y-4905000D03*
X7243750Y-5000000D03*
D43*
X9160000Y-3709500D03*
X9160000Y-3836500D03*
X9160000Y-3963500D03*
X9160000Y-4090500D03*
X8440000Y-4090500D03*
X8440000Y-3963500D03*
X8440000Y-3836500D03*
X8440000Y-3709500D03*
D47*
X8700000Y-4800000D03*
X8604000Y-4800000D03*
D24*
X8706000Y-6043750D03*
X8604000Y-6043750D03*
X5341000Y-4370000D03*
X5239000Y-4370000D03*
D36*
X10569000Y-3340000D03*
X10671000Y-3340000D03*
D48*
X8560000Y-6200000D03*
X8750000Y-6200000D03*
X8655000Y-6387500D03*
D26*
X8200000Y-4052000D03*
X8200000Y-4148000D03*
D49*
X8150000Y-3172500D03*
X8150000Y-3327500D03*
D45*
X6270000Y-3198000D03*
X6270000Y-3102000D03*
D47*
X8700000Y-4400000D03*
X8604000Y-4400000D03*
D22*
X10450000Y-5499000D03*
X10450000Y-5601000D03*
D50*
X6805000Y-7504000D03*
X7195000Y-7504000D03*
X6805000Y-7377000D03*
X7195000Y-7377000D03*
X6805000Y-7250000D03*
X7195000Y-7250000D03*
X6805000Y-7123000D03*
X7195000Y-7123000D03*
X6805000Y-6996000D03*
X7195000Y-6996000D03*
D51*
X8340000Y-6575000D03*
X8340000Y-6450000D03*
X8340000Y-6325000D03*
D52*
X8050000Y-6830000D03*
X8050000Y-6070000D03*
D49*
X5600000Y-4122500D03*
X5600000Y-4277500D03*
D45*
X3570000Y-6218000D03*
X3570000Y-6122000D03*
D42*
X7585000Y-7490000D03*
X8215000Y-7490000D03*
X7585000Y-7110000D03*
X8215000Y-7110000D03*
D49*
X7600000Y-4022500D03*
X7600000Y-4177500D03*
D46*
X9896250Y-4165000D03*
X9896250Y-3975000D03*
X10083750Y-4070000D03*
D53*
X9253750Y-2900000D03*
X9846250Y-2900000D03*
D24*
X9281000Y-5750000D03*
X9179000Y-5750000D03*
D54*
X6790000Y-3321000D03*
X6790000Y-3219000D03*
D49*
X6263750Y-3322500D03*
X6263750Y-3477500D03*
D39*
X10090000Y-4320000D03*
X10090000Y-4510000D03*
X9902500Y-4415000D03*
D49*
X7750000Y-4022500D03*
X7750000Y-4177500D03*
D55*
X6733941Y-3776059D03*
X6666059Y-3843941D03*
D56*
X8340000Y-5420000D03*
X8560000Y-5420000D03*
X8560000Y-5580000D03*
X8340000Y-5580000D03*
D49*
X7400000Y-3150000D03*
X7400000Y-3305000D03*
D57*
X6250000Y-3755000D03*
X6250000Y-3945000D03*
D54*
X7410000Y-4651000D03*
X7410000Y-4549000D03*
D25*
X7512000Y-4440000D03*
X7608000Y-4440000D03*
D58*
X6040000Y-4250000D03*
X5760000Y-4250000D03*
D36*
X3829000Y-5650000D03*
X3931000Y-5650000D03*
D23*
X4802500Y-4950000D03*
X4957500Y-4950000D03*
D22*
X7410000Y-4739000D03*
X7410000Y-4841000D03*
D57*
X9690000Y-3975000D03*
X9690000Y-4165000D03*
D24*
X8311000Y-5270000D03*
X8209000Y-5270000D03*
D22*
X10610000Y-2899000D03*
X10610000Y-3001000D03*
D39*
X8750000Y-3110000D03*
X8750000Y-3300000D03*
X8562500Y-3205000D03*
D59*
X7813750Y-3155000D03*
X7813750Y-3250000D03*
X7813750Y-3345000D03*
X7586250Y-3345000D03*
X7586250Y-3155000D03*
D60*
X5300000Y-3403750D03*
X5300000Y-3996250D03*
D22*
X8000000Y-3149000D03*
X8000000Y-3251000D03*
D38*
X9865000Y-3780000D03*
X9675000Y-3780000D03*
D22*
X10450000Y-6199000D03*
X10450000Y-6301000D03*
D54*
X9540000Y-4221000D03*
X9540000Y-4119000D03*
D61*
X9000000Y-3340000D03*
X9000000Y-3060000D03*
D35*
X5760000Y-4000000D03*
X6040000Y-4000000D03*
D62*
X6726059Y-5703941D03*
X6793941Y-5636059D03*
D46*
X7056250Y-4745000D03*
X7056250Y-4555000D03*
X7243750Y-4650000D03*
D54*
X6900000Y-5051000D03*
X6900000Y-4949000D03*
D45*
X8010000Y-5348000D03*
X8010000Y-5252000D03*
D63*
X6040000Y-3312500D03*
X6040000Y-3527500D03*
D24*
X8801000Y-2950000D03*
X8699000Y-2950000D03*
D45*
X8150000Y-5548000D03*
X8150000Y-5452000D03*
D46*
X5606250Y-3545000D03*
X5606250Y-3355000D03*
X5793750Y-3450000D03*
D24*
X7701000Y-6950000D03*
X7599000Y-6950000D03*
D22*
X6900000Y-4599000D03*
X6900000Y-4701000D03*
X8000000Y-4099000D03*
X8000000Y-4201000D03*
D64*
X9650000Y-4715000D03*
X9650000Y-4385000D03*
D36*
X3649000Y-5420000D03*
X3751000Y-5420000D03*
D49*
X5600000Y-3722500D03*
X5600000Y-3877500D03*
D36*
X3649000Y-5250000D03*
X3751000Y-5250000D03*
D65*
X11400000Y-3750000D03*
D66*
X11200000Y-3750000D03*
M02*
