%TF.GenerationSoftware,KiCad,Pcbnew,8.0.6+1*%
%TF.CreationDate,2025-03-13T00:18:43+00:00*%
%TF.ProjectId,gshps,67736870-732e-46b6-9963-61645f706362,D*%
%TF.SameCoordinates,Original*%
%TF.FileFunction,Other,Comment*%
%FSLAX45Y45*%
G04 Gerber Fmt 4.5, Leading zero omitted, Abs format (unit mm)*
G04 Created by KiCad (PCBNEW 8.0.6+1) date 2025-03-13 00:18:43*
%MOMM*%
%LPD*%
G01*
G04 APERTURE LIST*
%ADD10C,0.100000*%
%ADD11C,0.150000*%
%ADD12C,0.300000*%
%ADD13C,0.400000*%
%TA.AperFunction,Profile*%
%ADD14C,0.100000*%
%TD*%
%ADD15C,0.060000*%
G04 APERTURE END LIST*
D10*
X15905782Y-17215462D02*
X15905782Y-18774098D01*
X17464418Y-18774098D01*
X17464418Y-17215462D01*
X15905782Y-17215462D01*
D11*
X15940000Y-17190000D02*
X26740000Y-17190000D01*
X26740000Y-20390000D01*
X15940000Y-20390000D01*
X15940000Y-17190000D01*
D10*
D11*
X1000000Y-1000000D02*
X26940000Y-1000000D01*
X26940000Y-20590000D01*
X1000000Y-20590000D01*
X1000000Y-1000000D01*
D10*
D11*
X1200000Y-1200000D02*
X26740000Y-1200000D01*
X26740000Y-20390000D01*
X1200000Y-20390000D01*
X1200000Y-1200000D01*
D10*
D11*
X6000000Y-1200000D02*
X6000000Y-1000000D01*
D10*
D11*
X11000000Y-1200000D02*
X11000000Y-1000000D01*
D10*
D11*
X16000000Y-1200000D02*
X16000000Y-1000000D01*
D10*
D11*
X21000000Y-1200000D02*
X21000000Y-1000000D01*
D10*
D11*
X26000000Y-1200000D02*
X26000000Y-1000000D01*
D10*
D11*
X3608916Y-1159360D02*
X3534630Y-1159360D01*
X3571773Y-1159360D02*
X3571773Y-1029360D01*
X3571773Y-1029360D02*
X3559392Y-1047932D01*
X3559392Y-1047932D02*
X3547011Y-1060313D01*
X3547011Y-1060313D02*
X3534630Y-1066503D01*
D10*
D11*
X8534630Y-1041741D02*
X8540821Y-1035551D01*
X8540821Y-1035551D02*
X8553202Y-1029360D01*
X8553202Y-1029360D02*
X8584154Y-1029360D01*
X8584154Y-1029360D02*
X8596535Y-1035551D01*
X8596535Y-1035551D02*
X8602726Y-1041741D01*
X8602726Y-1041741D02*
X8608916Y-1054122D01*
X8608916Y-1054122D02*
X8608916Y-1066503D01*
X8608916Y-1066503D02*
X8602726Y-1085075D01*
X8602726Y-1085075D02*
X8528440Y-1159360D01*
X8528440Y-1159360D02*
X8608916Y-1159360D01*
D10*
D11*
X13528440Y-1029360D02*
X13608916Y-1029360D01*
X13608916Y-1029360D02*
X13565583Y-1078884D01*
X13565583Y-1078884D02*
X13584154Y-1078884D01*
X13584154Y-1078884D02*
X13596535Y-1085075D01*
X13596535Y-1085075D02*
X13602725Y-1091265D01*
X13602725Y-1091265D02*
X13608916Y-1103646D01*
X13608916Y-1103646D02*
X13608916Y-1134599D01*
X13608916Y-1134599D02*
X13602725Y-1146980D01*
X13602725Y-1146980D02*
X13596535Y-1153170D01*
X13596535Y-1153170D02*
X13584154Y-1159360D01*
X13584154Y-1159360D02*
X13547011Y-1159360D01*
X13547011Y-1159360D02*
X13534630Y-1153170D01*
X13534630Y-1153170D02*
X13528440Y-1146980D01*
D10*
D11*
X18596535Y-1072694D02*
X18596535Y-1159360D01*
X18565583Y-1023170D02*
X18534630Y-1116027D01*
X18534630Y-1116027D02*
X18615106Y-1116027D01*
D10*
D11*
X23602725Y-1029360D02*
X23540821Y-1029360D01*
X23540821Y-1029360D02*
X23534630Y-1091265D01*
X23534630Y-1091265D02*
X23540821Y-1085075D01*
X23540821Y-1085075D02*
X23553202Y-1078884D01*
X23553202Y-1078884D02*
X23584154Y-1078884D01*
X23584154Y-1078884D02*
X23596535Y-1085075D01*
X23596535Y-1085075D02*
X23602725Y-1091265D01*
X23602725Y-1091265D02*
X23608916Y-1103646D01*
X23608916Y-1103646D02*
X23608916Y-1134599D01*
X23608916Y-1134599D02*
X23602725Y-1146980D01*
X23602725Y-1146980D02*
X23596535Y-1153170D01*
X23596535Y-1153170D02*
X23584154Y-1159360D01*
X23584154Y-1159360D02*
X23553202Y-1159360D01*
X23553202Y-1159360D02*
X23540821Y-1153170D01*
X23540821Y-1153170D02*
X23534630Y-1146980D01*
D10*
D11*
X6000000Y-20390000D02*
X6000000Y-20590000D01*
D10*
D11*
X11000000Y-20390000D02*
X11000000Y-20590000D01*
D10*
D11*
X16000000Y-20390000D02*
X16000000Y-20590000D01*
D10*
D11*
X21000000Y-20390000D02*
X21000000Y-20590000D01*
D10*
D11*
X26000000Y-20390000D02*
X26000000Y-20590000D01*
D10*
D11*
X3608916Y-20549360D02*
X3534630Y-20549360D01*
X3571773Y-20549360D02*
X3571773Y-20419360D01*
X3571773Y-20419360D02*
X3559392Y-20437932D01*
X3559392Y-20437932D02*
X3547011Y-20450313D01*
X3547011Y-20450313D02*
X3534630Y-20456503D01*
D10*
D11*
X8534630Y-20431741D02*
X8540821Y-20425551D01*
X8540821Y-20425551D02*
X8553202Y-20419360D01*
X8553202Y-20419360D02*
X8584154Y-20419360D01*
X8584154Y-20419360D02*
X8596535Y-20425551D01*
X8596535Y-20425551D02*
X8602726Y-20431741D01*
X8602726Y-20431741D02*
X8608916Y-20444122D01*
X8608916Y-20444122D02*
X8608916Y-20456503D01*
X8608916Y-20456503D02*
X8602726Y-20475075D01*
X8602726Y-20475075D02*
X8528440Y-20549360D01*
X8528440Y-20549360D02*
X8608916Y-20549360D01*
D10*
D11*
X13528440Y-20419360D02*
X13608916Y-20419360D01*
X13608916Y-20419360D02*
X13565583Y-20468884D01*
X13565583Y-20468884D02*
X13584154Y-20468884D01*
X13584154Y-20468884D02*
X13596535Y-20475075D01*
X13596535Y-20475075D02*
X13602725Y-20481265D01*
X13602725Y-20481265D02*
X13608916Y-20493646D01*
X13608916Y-20493646D02*
X13608916Y-20524599D01*
X13608916Y-20524599D02*
X13602725Y-20536980D01*
X13602725Y-20536980D02*
X13596535Y-20543170D01*
X13596535Y-20543170D02*
X13584154Y-20549360D01*
X13584154Y-20549360D02*
X13547011Y-20549360D01*
X13547011Y-20549360D02*
X13534630Y-20543170D01*
X13534630Y-20543170D02*
X13528440Y-20536980D01*
D10*
D11*
X18596535Y-20462694D02*
X18596535Y-20549360D01*
X18565583Y-20413170D02*
X18534630Y-20506027D01*
X18534630Y-20506027D02*
X18615106Y-20506027D01*
D10*
D11*
X23602725Y-20419360D02*
X23540821Y-20419360D01*
X23540821Y-20419360D02*
X23534630Y-20481265D01*
X23534630Y-20481265D02*
X23540821Y-20475075D01*
X23540821Y-20475075D02*
X23553202Y-20468884D01*
X23553202Y-20468884D02*
X23584154Y-20468884D01*
X23584154Y-20468884D02*
X23596535Y-20475075D01*
X23596535Y-20475075D02*
X23602725Y-20481265D01*
X23602725Y-20481265D02*
X23608916Y-20493646D01*
X23608916Y-20493646D02*
X23608916Y-20524599D01*
X23608916Y-20524599D02*
X23602725Y-20536980D01*
X23602725Y-20536980D02*
X23596535Y-20543170D01*
X23596535Y-20543170D02*
X23584154Y-20549360D01*
X23584154Y-20549360D02*
X23553202Y-20549360D01*
X23553202Y-20549360D02*
X23540821Y-20543170D01*
X23540821Y-20543170D02*
X23534630Y-20536980D01*
D10*
D11*
X1000000Y-6000000D02*
X1200000Y-6000000D01*
D10*
D11*
X1000000Y-11000000D02*
X1200000Y-11000000D01*
D10*
D11*
X1000000Y-16000000D02*
X1200000Y-16000000D01*
D10*
D11*
X1069048Y-3522218D02*
X1130952Y-3522218D01*
X1056667Y-3559360D02*
X1100000Y-3429360D01*
X1100000Y-3429360D02*
X1143333Y-3559360D01*
D10*
D11*
X1109286Y-8491265D02*
X1127857Y-8497456D01*
X1127857Y-8497456D02*
X1134048Y-8503646D01*
X1134048Y-8503646D02*
X1140238Y-8516027D01*
X1140238Y-8516027D02*
X1140238Y-8534599D01*
X1140238Y-8534599D02*
X1134048Y-8546980D01*
X1134048Y-8546980D02*
X1127857Y-8553170D01*
X1127857Y-8553170D02*
X1115476Y-8559360D01*
X1115476Y-8559360D02*
X1065952Y-8559360D01*
X1065952Y-8559360D02*
X1065952Y-8429360D01*
X1065952Y-8429360D02*
X1109286Y-8429360D01*
X1109286Y-8429360D02*
X1121667Y-8435551D01*
X1121667Y-8435551D02*
X1127857Y-8441741D01*
X1127857Y-8441741D02*
X1134048Y-8454122D01*
X1134048Y-8454122D02*
X1134048Y-8466503D01*
X1134048Y-8466503D02*
X1127857Y-8478884D01*
X1127857Y-8478884D02*
X1121667Y-8485075D01*
X1121667Y-8485075D02*
X1109286Y-8491265D01*
X1109286Y-8491265D02*
X1065952Y-8491265D01*
D10*
D11*
X1140238Y-13546979D02*
X1134048Y-13553170D01*
X1134048Y-13553170D02*
X1115476Y-13559360D01*
X1115476Y-13559360D02*
X1103095Y-13559360D01*
X1103095Y-13559360D02*
X1084524Y-13553170D01*
X1084524Y-13553170D02*
X1072143Y-13540789D01*
X1072143Y-13540789D02*
X1065952Y-13528408D01*
X1065952Y-13528408D02*
X1059762Y-13503646D01*
X1059762Y-13503646D02*
X1059762Y-13485075D01*
X1059762Y-13485075D02*
X1065952Y-13460313D01*
X1065952Y-13460313D02*
X1072143Y-13447932D01*
X1072143Y-13447932D02*
X1084524Y-13435551D01*
X1084524Y-13435551D02*
X1103095Y-13429360D01*
X1103095Y-13429360D02*
X1115476Y-13429360D01*
X1115476Y-13429360D02*
X1134048Y-13435551D01*
X1134048Y-13435551D02*
X1140238Y-13441741D01*
D10*
D11*
X1065952Y-18559360D02*
X1065952Y-18429360D01*
X1065952Y-18429360D02*
X1096905Y-18429360D01*
X1096905Y-18429360D02*
X1115476Y-18435551D01*
X1115476Y-18435551D02*
X1127857Y-18447932D01*
X1127857Y-18447932D02*
X1134048Y-18460313D01*
X1134048Y-18460313D02*
X1140238Y-18485075D01*
X1140238Y-18485075D02*
X1140238Y-18503646D01*
X1140238Y-18503646D02*
X1134048Y-18528408D01*
X1134048Y-18528408D02*
X1127857Y-18540789D01*
X1127857Y-18540789D02*
X1115476Y-18553170D01*
X1115476Y-18553170D02*
X1096905Y-18559360D01*
X1096905Y-18559360D02*
X1065952Y-18559360D01*
D10*
D11*
X26940000Y-6000000D02*
X26740000Y-6000000D01*
D10*
D11*
X26940000Y-11000000D02*
X26740000Y-11000000D01*
D10*
D11*
X26940000Y-16000000D02*
X26740000Y-16000000D01*
D10*
D11*
X26809048Y-3522218D02*
X26870952Y-3522218D01*
X26796667Y-3559360D02*
X26840000Y-3429360D01*
X26840000Y-3429360D02*
X26883333Y-3559360D01*
D10*
D11*
X26849286Y-8491265D02*
X26867857Y-8497456D01*
X26867857Y-8497456D02*
X26874048Y-8503646D01*
X26874048Y-8503646D02*
X26880238Y-8516027D01*
X26880238Y-8516027D02*
X26880238Y-8534599D01*
X26880238Y-8534599D02*
X26874048Y-8546980D01*
X26874048Y-8546980D02*
X26867857Y-8553170D01*
X26867857Y-8553170D02*
X26855476Y-8559360D01*
X26855476Y-8559360D02*
X26805952Y-8559360D01*
X26805952Y-8559360D02*
X26805952Y-8429360D01*
X26805952Y-8429360D02*
X26849286Y-8429360D01*
X26849286Y-8429360D02*
X26861667Y-8435551D01*
X26861667Y-8435551D02*
X26867857Y-8441741D01*
X26867857Y-8441741D02*
X26874048Y-8454122D01*
X26874048Y-8454122D02*
X26874048Y-8466503D01*
X26874048Y-8466503D02*
X26867857Y-8478884D01*
X26867857Y-8478884D02*
X26861667Y-8485075D01*
X26861667Y-8485075D02*
X26849286Y-8491265D01*
X26849286Y-8491265D02*
X26805952Y-8491265D01*
D10*
D11*
X26880238Y-13546979D02*
X26874048Y-13553170D01*
X26874048Y-13553170D02*
X26855476Y-13559360D01*
X26855476Y-13559360D02*
X26843095Y-13559360D01*
X26843095Y-13559360D02*
X26824524Y-13553170D01*
X26824524Y-13553170D02*
X26812143Y-13540789D01*
X26812143Y-13540789D02*
X26805952Y-13528408D01*
X26805952Y-13528408D02*
X26799762Y-13503646D01*
X26799762Y-13503646D02*
X26799762Y-13485075D01*
X26799762Y-13485075D02*
X26805952Y-13460313D01*
X26805952Y-13460313D02*
X26812143Y-13447932D01*
X26812143Y-13447932D02*
X26824524Y-13435551D01*
X26824524Y-13435551D02*
X26843095Y-13429360D01*
X26843095Y-13429360D02*
X26855476Y-13429360D01*
X26855476Y-13429360D02*
X26874048Y-13435551D01*
X26874048Y-13435551D02*
X26880238Y-13441741D01*
D10*
D11*
X26805952Y-18559360D02*
X26805952Y-18429360D01*
X26805952Y-18429360D02*
X26836905Y-18429360D01*
X26836905Y-18429360D02*
X26855476Y-18435551D01*
X26855476Y-18435551D02*
X26867857Y-18447932D01*
X26867857Y-18447932D02*
X26874048Y-18460313D01*
X26874048Y-18460313D02*
X26880238Y-18485075D01*
X26880238Y-18485075D02*
X26880238Y-18503646D01*
X26880238Y-18503646D02*
X26874048Y-18528408D01*
X26874048Y-18528408D02*
X26867857Y-18540789D01*
X26867857Y-18540789D02*
X26855476Y-18553170D01*
X26855476Y-18553170D02*
X26836905Y-18559360D01*
X26836905Y-18559360D02*
X26805952Y-18559360D01*
D10*
D11*
X18285583Y-19968613D02*
X18285583Y-19818613D01*
X18285583Y-19818613D02*
X18321297Y-19818613D01*
X18321297Y-19818613D02*
X18342726Y-19825756D01*
X18342726Y-19825756D02*
X18357011Y-19840041D01*
X18357011Y-19840041D02*
X18364154Y-19854327D01*
X18364154Y-19854327D02*
X18371297Y-19882899D01*
X18371297Y-19882899D02*
X18371297Y-19904327D01*
X18371297Y-19904327D02*
X18364154Y-19932899D01*
X18364154Y-19932899D02*
X18357011Y-19947184D01*
X18357011Y-19947184D02*
X18342726Y-19961470D01*
X18342726Y-19961470D02*
X18321297Y-19968613D01*
X18321297Y-19968613D02*
X18285583Y-19968613D01*
X18499868Y-19968613D02*
X18499868Y-19890041D01*
X18499868Y-19890041D02*
X18492726Y-19875756D01*
X18492726Y-19875756D02*
X18478440Y-19868613D01*
X18478440Y-19868613D02*
X18449868Y-19868613D01*
X18449868Y-19868613D02*
X18435583Y-19875756D01*
X18499868Y-19961470D02*
X18485583Y-19968613D01*
X18485583Y-19968613D02*
X18449868Y-19968613D01*
X18449868Y-19968613D02*
X18435583Y-19961470D01*
X18435583Y-19961470D02*
X18428440Y-19947184D01*
X18428440Y-19947184D02*
X18428440Y-19932899D01*
X18428440Y-19932899D02*
X18435583Y-19918613D01*
X18435583Y-19918613D02*
X18449868Y-19911470D01*
X18449868Y-19911470D02*
X18485583Y-19911470D01*
X18485583Y-19911470D02*
X18499868Y-19904327D01*
X18549868Y-19868613D02*
X18607011Y-19868613D01*
X18571297Y-19818613D02*
X18571297Y-19947184D01*
X18571297Y-19947184D02*
X18578440Y-19961470D01*
X18578440Y-19961470D02*
X18592726Y-19968613D01*
X18592726Y-19968613D02*
X18607011Y-19968613D01*
X18714154Y-19961470D02*
X18699868Y-19968613D01*
X18699868Y-19968613D02*
X18671297Y-19968613D01*
X18671297Y-19968613D02*
X18657011Y-19961470D01*
X18657011Y-19961470D02*
X18649868Y-19947184D01*
X18649868Y-19947184D02*
X18649868Y-19890041D01*
X18649868Y-19890041D02*
X18657011Y-19875756D01*
X18657011Y-19875756D02*
X18671297Y-19868613D01*
X18671297Y-19868613D02*
X18699868Y-19868613D01*
X18699868Y-19868613D02*
X18714154Y-19875756D01*
X18714154Y-19875756D02*
X18721297Y-19890041D01*
X18721297Y-19890041D02*
X18721297Y-19904327D01*
X18721297Y-19904327D02*
X18649868Y-19918613D01*
X18785583Y-19954327D02*
X18792726Y-19961470D01*
X18792726Y-19961470D02*
X18785583Y-19968613D01*
X18785583Y-19968613D02*
X18778440Y-19961470D01*
X18778440Y-19961470D02*
X18785583Y-19954327D01*
X18785583Y-19954327D02*
X18785583Y-19968613D01*
X18785583Y-19875756D02*
X18792726Y-19882899D01*
X18792726Y-19882899D02*
X18785583Y-19890041D01*
X18785583Y-19890041D02*
X18778440Y-19882899D01*
X18778440Y-19882899D02*
X18785583Y-19875756D01*
X18785583Y-19875756D02*
X18785583Y-19890041D01*
X18964154Y-19832899D02*
X18971297Y-19825756D01*
X18971297Y-19825756D02*
X18985583Y-19818613D01*
X18985583Y-19818613D02*
X19021297Y-19818613D01*
X19021297Y-19818613D02*
X19035583Y-19825756D01*
X19035583Y-19825756D02*
X19042726Y-19832899D01*
X19042726Y-19832899D02*
X19049868Y-19847184D01*
X19049868Y-19847184D02*
X19049868Y-19861470D01*
X19049868Y-19861470D02*
X19042726Y-19882899D01*
X19042726Y-19882899D02*
X18957011Y-19968613D01*
X18957011Y-19968613D02*
X19049868Y-19968613D01*
X19142726Y-19818613D02*
X19157011Y-19818613D01*
X19157011Y-19818613D02*
X19171297Y-19825756D01*
X19171297Y-19825756D02*
X19178440Y-19832899D01*
X19178440Y-19832899D02*
X19185583Y-19847184D01*
X19185583Y-19847184D02*
X19192726Y-19875756D01*
X19192726Y-19875756D02*
X19192726Y-19911470D01*
X19192726Y-19911470D02*
X19185583Y-19940041D01*
X19185583Y-19940041D02*
X19178440Y-19954327D01*
X19178440Y-19954327D02*
X19171297Y-19961470D01*
X19171297Y-19961470D02*
X19157011Y-19968613D01*
X19157011Y-19968613D02*
X19142726Y-19968613D01*
X19142726Y-19968613D02*
X19128440Y-19961470D01*
X19128440Y-19961470D02*
X19121297Y-19954327D01*
X19121297Y-19954327D02*
X19114154Y-19940041D01*
X19114154Y-19940041D02*
X19107011Y-19911470D01*
X19107011Y-19911470D02*
X19107011Y-19875756D01*
X19107011Y-19875756D02*
X19114154Y-19847184D01*
X19114154Y-19847184D02*
X19121297Y-19832899D01*
X19121297Y-19832899D02*
X19128440Y-19825756D01*
X19128440Y-19825756D02*
X19142726Y-19818613D01*
X19249868Y-19832899D02*
X19257011Y-19825756D01*
X19257011Y-19825756D02*
X19271297Y-19818613D01*
X19271297Y-19818613D02*
X19307011Y-19818613D01*
X19307011Y-19818613D02*
X19321297Y-19825756D01*
X19321297Y-19825756D02*
X19328440Y-19832899D01*
X19328440Y-19832899D02*
X19335583Y-19847184D01*
X19335583Y-19847184D02*
X19335583Y-19861470D01*
X19335583Y-19861470D02*
X19328440Y-19882899D01*
X19328440Y-19882899D02*
X19242725Y-19968613D01*
X19242725Y-19968613D02*
X19335583Y-19968613D01*
X19471297Y-19818613D02*
X19399868Y-19818613D01*
X19399868Y-19818613D02*
X19392725Y-19890041D01*
X19392725Y-19890041D02*
X19399868Y-19882899D01*
X19399868Y-19882899D02*
X19414154Y-19875756D01*
X19414154Y-19875756D02*
X19449868Y-19875756D01*
X19449868Y-19875756D02*
X19464154Y-19882899D01*
X19464154Y-19882899D02*
X19471297Y-19890041D01*
X19471297Y-19890041D02*
X19478440Y-19904327D01*
X19478440Y-19904327D02*
X19478440Y-19940041D01*
X19478440Y-19940041D02*
X19471297Y-19954327D01*
X19471297Y-19954327D02*
X19464154Y-19961470D01*
X19464154Y-19961470D02*
X19449868Y-19968613D01*
X19449868Y-19968613D02*
X19414154Y-19968613D01*
X19414154Y-19968613D02*
X19399868Y-19961470D01*
X19399868Y-19961470D02*
X19392725Y-19954327D01*
X19542725Y-19911470D02*
X19657011Y-19911470D01*
X19757011Y-19818613D02*
X19771297Y-19818613D01*
X19771297Y-19818613D02*
X19785583Y-19825756D01*
X19785583Y-19825756D02*
X19792725Y-19832899D01*
X19792725Y-19832899D02*
X19799868Y-19847184D01*
X19799868Y-19847184D02*
X19807011Y-19875756D01*
X19807011Y-19875756D02*
X19807011Y-19911470D01*
X19807011Y-19911470D02*
X19799868Y-19940041D01*
X19799868Y-19940041D02*
X19792725Y-19954327D01*
X19792725Y-19954327D02*
X19785583Y-19961470D01*
X19785583Y-19961470D02*
X19771297Y-19968613D01*
X19771297Y-19968613D02*
X19757011Y-19968613D01*
X19757011Y-19968613D02*
X19742725Y-19961470D01*
X19742725Y-19961470D02*
X19735583Y-19954327D01*
X19735583Y-19954327D02*
X19728440Y-19940041D01*
X19728440Y-19940041D02*
X19721297Y-19911470D01*
X19721297Y-19911470D02*
X19721297Y-19875756D01*
X19721297Y-19875756D02*
X19728440Y-19847184D01*
X19728440Y-19847184D02*
X19735583Y-19832899D01*
X19735583Y-19832899D02*
X19742725Y-19825756D01*
X19742725Y-19825756D02*
X19757011Y-19818613D01*
X19857011Y-19818613D02*
X19949868Y-19818613D01*
X19949868Y-19818613D02*
X19899868Y-19875756D01*
X19899868Y-19875756D02*
X19921297Y-19875756D01*
X19921297Y-19875756D02*
X19935583Y-19882899D01*
X19935583Y-19882899D02*
X19942725Y-19890041D01*
X19942725Y-19890041D02*
X19949868Y-19904327D01*
X19949868Y-19904327D02*
X19949868Y-19940041D01*
X19949868Y-19940041D02*
X19942725Y-19954327D01*
X19942725Y-19954327D02*
X19935583Y-19961470D01*
X19935583Y-19961470D02*
X19921297Y-19968613D01*
X19921297Y-19968613D02*
X19878440Y-19968613D01*
X19878440Y-19968613D02*
X19864154Y-19961470D01*
X19864154Y-19961470D02*
X19857011Y-19954327D01*
X20014154Y-19911470D02*
X20128440Y-19911470D01*
X20278440Y-19968613D02*
X20192725Y-19968613D01*
X20235582Y-19968613D02*
X20235582Y-19818613D01*
X20235582Y-19818613D02*
X20221297Y-19840041D01*
X20221297Y-19840041D02*
X20207011Y-19854327D01*
X20207011Y-19854327D02*
X20192725Y-19861470D01*
X20335582Y-19832899D02*
X20342725Y-19825756D01*
X20342725Y-19825756D02*
X20357011Y-19818613D01*
X20357011Y-19818613D02*
X20392725Y-19818613D01*
X20392725Y-19818613D02*
X20407011Y-19825756D01*
X20407011Y-19825756D02*
X20414154Y-19832899D01*
X20414154Y-19832899D02*
X20421297Y-19847184D01*
X20421297Y-19847184D02*
X20421297Y-19861470D01*
X20421297Y-19861470D02*
X20414154Y-19882899D01*
X20414154Y-19882899D02*
X20328440Y-19968613D01*
X20328440Y-19968613D02*
X20421297Y-19968613D01*
D10*
D11*
X15940000Y-20040000D02*
X26740000Y-20040000D01*
D10*
D11*
X16078440Y-20241470D02*
X16099868Y-20248613D01*
X16099868Y-20248613D02*
X16135583Y-20248613D01*
X16135583Y-20248613D02*
X16149868Y-20241470D01*
X16149868Y-20241470D02*
X16157011Y-20234327D01*
X16157011Y-20234327D02*
X16164154Y-20220041D01*
X16164154Y-20220041D02*
X16164154Y-20205756D01*
X16164154Y-20205756D02*
X16157011Y-20191470D01*
X16157011Y-20191470D02*
X16149868Y-20184327D01*
X16149868Y-20184327D02*
X16135583Y-20177184D01*
X16135583Y-20177184D02*
X16107011Y-20170041D01*
X16107011Y-20170041D02*
X16092725Y-20162899D01*
X16092725Y-20162899D02*
X16085583Y-20155756D01*
X16085583Y-20155756D02*
X16078440Y-20141470D01*
X16078440Y-20141470D02*
X16078440Y-20127184D01*
X16078440Y-20127184D02*
X16085583Y-20112899D01*
X16085583Y-20112899D02*
X16092725Y-20105756D01*
X16092725Y-20105756D02*
X16107011Y-20098613D01*
X16107011Y-20098613D02*
X16142725Y-20098613D01*
X16142725Y-20098613D02*
X16164154Y-20105756D01*
X16121297Y-20077184D02*
X16121297Y-20270041D01*
X16271297Y-20305756D02*
X16264154Y-20305756D01*
X16264154Y-20305756D02*
X16249868Y-20298613D01*
X16249868Y-20298613D02*
X16242725Y-20284327D01*
X16242725Y-20284327D02*
X16242725Y-20212899D01*
X16242725Y-20212899D02*
X16235583Y-20198613D01*
X16235583Y-20198613D02*
X16221297Y-20191470D01*
X16221297Y-20191470D02*
X16235583Y-20184327D01*
X16235583Y-20184327D02*
X16242725Y-20170041D01*
X16242725Y-20170041D02*
X16242725Y-20098613D01*
X16242725Y-20098613D02*
X16249868Y-20084327D01*
X16249868Y-20084327D02*
X16264154Y-20077184D01*
X16264154Y-20077184D02*
X16271297Y-20077184D01*
X16328440Y-20248613D02*
X16328440Y-20098613D01*
X16414154Y-20248613D02*
X16349868Y-20162899D01*
X16414154Y-20098613D02*
X16328440Y-20184327D01*
X16478440Y-20248613D02*
X16478440Y-20098613D01*
X16635583Y-20234327D02*
X16628440Y-20241470D01*
X16628440Y-20241470D02*
X16607011Y-20248613D01*
X16607011Y-20248613D02*
X16592725Y-20248613D01*
X16592725Y-20248613D02*
X16571297Y-20241470D01*
X16571297Y-20241470D02*
X16557011Y-20227184D01*
X16557011Y-20227184D02*
X16549868Y-20212899D01*
X16549868Y-20212899D02*
X16542725Y-20184327D01*
X16542725Y-20184327D02*
X16542725Y-20162899D01*
X16542725Y-20162899D02*
X16549868Y-20134327D01*
X16549868Y-20134327D02*
X16557011Y-20120041D01*
X16557011Y-20120041D02*
X16571297Y-20105756D01*
X16571297Y-20105756D02*
X16592725Y-20098613D01*
X16592725Y-20098613D02*
X16607011Y-20098613D01*
X16607011Y-20098613D02*
X16628440Y-20105756D01*
X16628440Y-20105756D02*
X16635583Y-20112899D01*
X16692725Y-20205756D02*
X16764154Y-20205756D01*
X16678440Y-20248613D02*
X16728440Y-20098613D01*
X16728440Y-20098613D02*
X16778440Y-20248613D01*
X16828440Y-20248613D02*
X16828440Y-20098613D01*
X16828440Y-20098613D02*
X16864154Y-20098613D01*
X16864154Y-20098613D02*
X16885583Y-20105756D01*
X16885583Y-20105756D02*
X16899868Y-20120041D01*
X16899868Y-20120041D02*
X16907011Y-20134327D01*
X16907011Y-20134327D02*
X16914154Y-20162899D01*
X16914154Y-20162899D02*
X16914154Y-20184327D01*
X16914154Y-20184327D02*
X16907011Y-20212899D01*
X16907011Y-20212899D02*
X16899868Y-20227184D01*
X16899868Y-20227184D02*
X16885583Y-20241470D01*
X16885583Y-20241470D02*
X16864154Y-20248613D01*
X16864154Y-20248613D02*
X16828440Y-20248613D01*
X16942726Y-20262899D02*
X17057011Y-20262899D01*
X17071297Y-20098613D02*
X17121297Y-20248613D01*
X17121297Y-20248613D02*
X17171297Y-20098613D01*
X17221297Y-20170041D02*
X17271297Y-20170041D01*
X17292725Y-20248613D02*
X17221297Y-20248613D01*
X17221297Y-20248613D02*
X17221297Y-20098613D01*
X17221297Y-20098613D02*
X17292725Y-20098613D01*
X17442725Y-20248613D02*
X17392725Y-20177184D01*
X17357011Y-20248613D02*
X17357011Y-20098613D01*
X17357011Y-20098613D02*
X17414154Y-20098613D01*
X17414154Y-20098613D02*
X17428440Y-20105756D01*
X17428440Y-20105756D02*
X17435583Y-20112899D01*
X17435583Y-20112899D02*
X17442725Y-20127184D01*
X17442725Y-20127184D02*
X17442725Y-20148613D01*
X17442725Y-20148613D02*
X17435583Y-20162899D01*
X17435583Y-20162899D02*
X17428440Y-20170041D01*
X17428440Y-20170041D02*
X17414154Y-20177184D01*
X17414154Y-20177184D02*
X17357011Y-20177184D01*
X17499868Y-20241470D02*
X17521297Y-20248613D01*
X17521297Y-20248613D02*
X17557011Y-20248613D01*
X17557011Y-20248613D02*
X17571297Y-20241470D01*
X17571297Y-20241470D02*
X17578440Y-20234327D01*
X17578440Y-20234327D02*
X17585583Y-20220041D01*
X17585583Y-20220041D02*
X17585583Y-20205756D01*
X17585583Y-20205756D02*
X17578440Y-20191470D01*
X17578440Y-20191470D02*
X17571297Y-20184327D01*
X17571297Y-20184327D02*
X17557011Y-20177184D01*
X17557011Y-20177184D02*
X17528440Y-20170041D01*
X17528440Y-20170041D02*
X17514154Y-20162899D01*
X17514154Y-20162899D02*
X17507011Y-20155756D01*
X17507011Y-20155756D02*
X17499868Y-20141470D01*
X17499868Y-20141470D02*
X17499868Y-20127184D01*
X17499868Y-20127184D02*
X17507011Y-20112899D01*
X17507011Y-20112899D02*
X17514154Y-20105756D01*
X17514154Y-20105756D02*
X17528440Y-20098613D01*
X17528440Y-20098613D02*
X17564154Y-20098613D01*
X17564154Y-20098613D02*
X17585583Y-20105756D01*
X17649868Y-20248613D02*
X17649868Y-20098613D01*
X17749868Y-20098613D02*
X17778440Y-20098613D01*
X17778440Y-20098613D02*
X17792725Y-20105756D01*
X17792725Y-20105756D02*
X17807011Y-20120041D01*
X17807011Y-20120041D02*
X17814154Y-20148613D01*
X17814154Y-20148613D02*
X17814154Y-20198613D01*
X17814154Y-20198613D02*
X17807011Y-20227184D01*
X17807011Y-20227184D02*
X17792725Y-20241470D01*
X17792725Y-20241470D02*
X17778440Y-20248613D01*
X17778440Y-20248613D02*
X17749868Y-20248613D01*
X17749868Y-20248613D02*
X17735583Y-20241470D01*
X17735583Y-20241470D02*
X17721297Y-20227184D01*
X17721297Y-20227184D02*
X17714154Y-20198613D01*
X17714154Y-20198613D02*
X17714154Y-20148613D01*
X17714154Y-20148613D02*
X17721297Y-20120041D01*
X17721297Y-20120041D02*
X17735583Y-20105756D01*
X17735583Y-20105756D02*
X17749868Y-20098613D01*
X17878440Y-20248613D02*
X17878440Y-20098613D01*
X17878440Y-20098613D02*
X17964154Y-20248613D01*
X17964154Y-20248613D02*
X17964154Y-20098613D01*
X18021297Y-20305756D02*
X18028440Y-20305756D01*
X18028440Y-20305756D02*
X18042726Y-20298613D01*
X18042726Y-20298613D02*
X18049868Y-20284327D01*
X18049868Y-20284327D02*
X18049868Y-20212899D01*
X18049868Y-20212899D02*
X18057011Y-20198613D01*
X18057011Y-20198613D02*
X18071297Y-20191470D01*
X18071297Y-20191470D02*
X18057011Y-20184327D01*
X18057011Y-20184327D02*
X18049868Y-20170041D01*
X18049868Y-20170041D02*
X18049868Y-20098613D01*
X18049868Y-20098613D02*
X18042726Y-20084327D01*
X18042726Y-20084327D02*
X18028440Y-20077184D01*
X18028440Y-20077184D02*
X18021297Y-20077184D01*
D10*
D11*
X15940000Y-19740000D02*
X26740000Y-19740000D01*
D10*
D12*
X24681165Y-19967833D02*
X24631165Y-19896404D01*
X24595451Y-19967833D02*
X24595451Y-19817833D01*
X24595451Y-19817833D02*
X24652594Y-19817833D01*
X24652594Y-19817833D02*
X24666880Y-19824976D01*
X24666880Y-19824976D02*
X24674022Y-19832119D01*
X24674022Y-19832119D02*
X24681165Y-19846404D01*
X24681165Y-19846404D02*
X24681165Y-19867833D01*
X24681165Y-19867833D02*
X24674022Y-19882119D01*
X24674022Y-19882119D02*
X24666880Y-19889261D01*
X24666880Y-19889261D02*
X24652594Y-19896404D01*
X24652594Y-19896404D02*
X24595451Y-19896404D01*
X24802594Y-19960690D02*
X24788308Y-19967833D01*
X24788308Y-19967833D02*
X24759737Y-19967833D01*
X24759737Y-19967833D02*
X24745451Y-19960690D01*
X24745451Y-19960690D02*
X24738308Y-19946404D01*
X24738308Y-19946404D02*
X24738308Y-19889261D01*
X24738308Y-19889261D02*
X24745451Y-19874976D01*
X24745451Y-19874976D02*
X24759737Y-19867833D01*
X24759737Y-19867833D02*
X24788308Y-19867833D01*
X24788308Y-19867833D02*
X24802594Y-19874976D01*
X24802594Y-19874976D02*
X24809737Y-19889261D01*
X24809737Y-19889261D02*
X24809737Y-19903547D01*
X24809737Y-19903547D02*
X24738308Y-19917833D01*
X24859737Y-19867833D02*
X24895451Y-19967833D01*
X24895451Y-19967833D02*
X24931165Y-19867833D01*
X24988308Y-19953547D02*
X24995451Y-19960690D01*
X24995451Y-19960690D02*
X24988308Y-19967833D01*
X24988308Y-19967833D02*
X24981165Y-19960690D01*
X24981165Y-19960690D02*
X24988308Y-19953547D01*
X24988308Y-19953547D02*
X24988308Y-19967833D01*
X24988308Y-19874976D02*
X24995451Y-19882119D01*
X24995451Y-19882119D02*
X24988308Y-19889261D01*
X24988308Y-19889261D02*
X24981165Y-19882119D01*
X24981165Y-19882119D02*
X24988308Y-19874976D01*
X24988308Y-19874976D02*
X24988308Y-19889261D01*
X25174022Y-19967833D02*
X25174022Y-19817833D01*
X25174022Y-19817833D02*
X25209737Y-19817833D01*
X25209737Y-19817833D02*
X25231165Y-19824976D01*
X25231165Y-19824976D02*
X25245451Y-19839261D01*
X25245451Y-19839261D02*
X25252594Y-19853547D01*
X25252594Y-19853547D02*
X25259737Y-19882119D01*
X25259737Y-19882119D02*
X25259737Y-19903547D01*
X25259737Y-19903547D02*
X25252594Y-19932119D01*
X25252594Y-19932119D02*
X25245451Y-19946404D01*
X25245451Y-19946404D02*
X25231165Y-19960690D01*
X25231165Y-19960690D02*
X25209737Y-19967833D01*
X25209737Y-19967833D02*
X25174022Y-19967833D01*
D10*
D11*
X16078440Y-19961470D02*
X16099868Y-19968613D01*
X16099868Y-19968613D02*
X16135583Y-19968613D01*
X16135583Y-19968613D02*
X16149868Y-19961470D01*
X16149868Y-19961470D02*
X16157011Y-19954327D01*
X16157011Y-19954327D02*
X16164154Y-19940041D01*
X16164154Y-19940041D02*
X16164154Y-19925756D01*
X16164154Y-19925756D02*
X16157011Y-19911470D01*
X16157011Y-19911470D02*
X16149868Y-19904327D01*
X16149868Y-19904327D02*
X16135583Y-19897184D01*
X16135583Y-19897184D02*
X16107011Y-19890041D01*
X16107011Y-19890041D02*
X16092725Y-19882899D01*
X16092725Y-19882899D02*
X16085583Y-19875756D01*
X16085583Y-19875756D02*
X16078440Y-19861470D01*
X16078440Y-19861470D02*
X16078440Y-19847184D01*
X16078440Y-19847184D02*
X16085583Y-19832899D01*
X16085583Y-19832899D02*
X16092725Y-19825756D01*
X16092725Y-19825756D02*
X16107011Y-19818613D01*
X16107011Y-19818613D02*
X16142725Y-19818613D01*
X16142725Y-19818613D02*
X16164154Y-19825756D01*
X16228440Y-19968613D02*
X16228440Y-19868613D01*
X16228440Y-19818613D02*
X16221297Y-19825756D01*
X16221297Y-19825756D02*
X16228440Y-19832899D01*
X16228440Y-19832899D02*
X16235583Y-19825756D01*
X16235583Y-19825756D02*
X16228440Y-19818613D01*
X16228440Y-19818613D02*
X16228440Y-19832899D01*
X16285583Y-19868613D02*
X16364154Y-19868613D01*
X16364154Y-19868613D02*
X16285583Y-19968613D01*
X16285583Y-19968613D02*
X16364154Y-19968613D01*
X16478440Y-19961470D02*
X16464154Y-19968613D01*
X16464154Y-19968613D02*
X16435583Y-19968613D01*
X16435583Y-19968613D02*
X16421297Y-19961470D01*
X16421297Y-19961470D02*
X16414154Y-19947184D01*
X16414154Y-19947184D02*
X16414154Y-19890041D01*
X16414154Y-19890041D02*
X16421297Y-19875756D01*
X16421297Y-19875756D02*
X16435583Y-19868613D01*
X16435583Y-19868613D02*
X16464154Y-19868613D01*
X16464154Y-19868613D02*
X16478440Y-19875756D01*
X16478440Y-19875756D02*
X16485583Y-19890041D01*
X16485583Y-19890041D02*
X16485583Y-19904327D01*
X16485583Y-19904327D02*
X16414154Y-19918613D01*
X16549868Y-19954327D02*
X16557011Y-19961470D01*
X16557011Y-19961470D02*
X16549868Y-19968613D01*
X16549868Y-19968613D02*
X16542725Y-19961470D01*
X16542725Y-19961470D02*
X16549868Y-19954327D01*
X16549868Y-19954327D02*
X16549868Y-19968613D01*
X16549868Y-19875756D02*
X16557011Y-19882899D01*
X16557011Y-19882899D02*
X16549868Y-19890041D01*
X16549868Y-19890041D02*
X16542725Y-19882899D01*
X16542725Y-19882899D02*
X16549868Y-19875756D01*
X16549868Y-19875756D02*
X16549868Y-19890041D01*
X16728440Y-19925756D02*
X16799868Y-19925756D01*
X16714154Y-19968613D02*
X16764154Y-19818613D01*
X16764154Y-19818613D02*
X16814154Y-19968613D01*
D10*
D11*
X24585583Y-20248613D02*
X24585583Y-20098613D01*
X24721297Y-20248613D02*
X24721297Y-20098613D01*
X24721297Y-20241470D02*
X24707011Y-20248613D01*
X24707011Y-20248613D02*
X24678440Y-20248613D01*
X24678440Y-20248613D02*
X24664154Y-20241470D01*
X24664154Y-20241470D02*
X24657011Y-20234327D01*
X24657011Y-20234327D02*
X24649868Y-20220041D01*
X24649868Y-20220041D02*
X24649868Y-20177184D01*
X24649868Y-20177184D02*
X24657011Y-20162899D01*
X24657011Y-20162899D02*
X24664154Y-20155756D01*
X24664154Y-20155756D02*
X24678440Y-20148613D01*
X24678440Y-20148613D02*
X24707011Y-20148613D01*
X24707011Y-20148613D02*
X24721297Y-20155756D01*
X24792725Y-20234327D02*
X24799868Y-20241470D01*
X24799868Y-20241470D02*
X24792725Y-20248613D01*
X24792725Y-20248613D02*
X24785583Y-20241470D01*
X24785583Y-20241470D02*
X24792725Y-20234327D01*
X24792725Y-20234327D02*
X24792725Y-20248613D01*
X24792725Y-20155756D02*
X24799868Y-20162899D01*
X24799868Y-20162899D02*
X24792725Y-20170041D01*
X24792725Y-20170041D02*
X24785583Y-20162899D01*
X24785583Y-20162899D02*
X24792725Y-20155756D01*
X24792725Y-20155756D02*
X24792725Y-20170041D01*
X25057011Y-20248613D02*
X24971297Y-20248613D01*
X25014154Y-20248613D02*
X25014154Y-20098613D01*
X25014154Y-20098613D02*
X24999868Y-20120041D01*
X24999868Y-20120041D02*
X24985583Y-20134327D01*
X24985583Y-20134327D02*
X24971297Y-20141470D01*
X25228440Y-20091470D02*
X25099868Y-20284327D01*
X25357011Y-20248613D02*
X25271297Y-20248613D01*
X25314154Y-20248613D02*
X25314154Y-20098613D01*
X25314154Y-20098613D02*
X25299868Y-20120041D01*
X25299868Y-20120041D02*
X25285583Y-20134327D01*
X25285583Y-20134327D02*
X25271297Y-20141470D01*
D10*
D11*
X15940000Y-19340000D02*
X26740000Y-19340000D01*
D10*
D13*
X16109173Y-19410444D02*
X16223458Y-19410444D01*
X16141316Y-19610444D02*
X16166316Y-19410444D01*
X16265125Y-19610444D02*
X16281792Y-19477110D01*
X16290125Y-19410444D02*
X16279411Y-19419968D01*
X16279411Y-19419968D02*
X16287744Y-19429491D01*
X16287744Y-19429491D02*
X16298459Y-19419968D01*
X16298459Y-19419968D02*
X16290125Y-19410444D01*
X16290125Y-19410444D02*
X16287744Y-19429491D01*
X16348459Y-19477110D02*
X16424649Y-19477110D01*
X16385363Y-19410444D02*
X16363935Y-19581872D01*
X16363935Y-19581872D02*
X16371078Y-19600920D01*
X16371078Y-19600920D02*
X16388935Y-19610444D01*
X16388935Y-19610444D02*
X16407982Y-19610444D01*
X16503220Y-19610444D02*
X16485363Y-19600920D01*
X16485363Y-19600920D02*
X16478220Y-19581872D01*
X16478220Y-19581872D02*
X16499649Y-19410444D01*
X16656792Y-19600920D02*
X16636554Y-19610444D01*
X16636554Y-19610444D02*
X16598458Y-19610444D01*
X16598458Y-19610444D02*
X16580601Y-19600920D01*
X16580601Y-19600920D02*
X16573458Y-19581872D01*
X16573458Y-19581872D02*
X16582982Y-19505682D01*
X16582982Y-19505682D02*
X16594887Y-19486634D01*
X16594887Y-19486634D02*
X16615125Y-19477110D01*
X16615125Y-19477110D02*
X16653220Y-19477110D01*
X16653220Y-19477110D02*
X16671078Y-19486634D01*
X16671078Y-19486634D02*
X16678220Y-19505682D01*
X16678220Y-19505682D02*
X16675839Y-19524730D01*
X16675839Y-19524730D02*
X16578220Y-19543777D01*
X16753220Y-19591396D02*
X16761554Y-19600920D01*
X16761554Y-19600920D02*
X16750839Y-19610444D01*
X16750839Y-19610444D02*
X16742506Y-19600920D01*
X16742506Y-19600920D02*
X16753220Y-19591396D01*
X16753220Y-19591396D02*
X16750839Y-19610444D01*
X16766316Y-19486634D02*
X16774649Y-19496158D01*
X16774649Y-19496158D02*
X16763935Y-19505682D01*
X16763935Y-19505682D02*
X16755601Y-19496158D01*
X16755601Y-19496158D02*
X16766316Y-19486634D01*
X16766316Y-19486634D02*
X16763935Y-19505682D01*
X17127030Y-19419968D02*
X17109173Y-19410444D01*
X17109173Y-19410444D02*
X17080602Y-19410444D01*
X17080602Y-19410444D02*
X17050840Y-19419968D01*
X17050840Y-19419968D02*
X17029411Y-19439015D01*
X17029411Y-19439015D02*
X17017506Y-19458063D01*
X17017506Y-19458063D02*
X17003221Y-19496158D01*
X17003221Y-19496158D02*
X16999649Y-19524730D01*
X16999649Y-19524730D02*
X17004411Y-19562825D01*
X17004411Y-19562825D02*
X17011554Y-19581872D01*
X17011554Y-19581872D02*
X17028221Y-19600920D01*
X17028221Y-19600920D02*
X17055602Y-19610444D01*
X17055602Y-19610444D02*
X17074649Y-19610444D01*
X17074649Y-19610444D02*
X17104411Y-19600920D01*
X17104411Y-19600920D02*
X17115125Y-19591396D01*
X17115125Y-19591396D02*
X17123459Y-19524730D01*
X17123459Y-19524730D02*
X17085363Y-19524730D01*
X17227030Y-19610444D02*
X17209173Y-19600920D01*
X17209173Y-19600920D02*
X17202030Y-19581872D01*
X17202030Y-19581872D02*
X17223459Y-19410444D01*
X17331792Y-19610444D02*
X17313935Y-19600920D01*
X17313935Y-19600920D02*
X17305602Y-19591396D01*
X17305602Y-19591396D02*
X17298459Y-19572349D01*
X17298459Y-19572349D02*
X17305602Y-19515206D01*
X17305602Y-19515206D02*
X17317506Y-19496158D01*
X17317506Y-19496158D02*
X17328221Y-19486634D01*
X17328221Y-19486634D02*
X17348459Y-19477110D01*
X17348459Y-19477110D02*
X17377030Y-19477110D01*
X17377030Y-19477110D02*
X17394887Y-19486634D01*
X17394887Y-19486634D02*
X17403221Y-19496158D01*
X17403221Y-19496158D02*
X17410363Y-19515206D01*
X17410363Y-19515206D02*
X17403221Y-19572349D01*
X17403221Y-19572349D02*
X17391316Y-19591396D01*
X17391316Y-19591396D02*
X17380602Y-19600920D01*
X17380602Y-19600920D02*
X17360363Y-19610444D01*
X17360363Y-19610444D02*
X17331792Y-19610444D01*
X17484173Y-19610444D02*
X17509173Y-19410444D01*
X17499649Y-19486634D02*
X17519887Y-19477110D01*
X17519887Y-19477110D02*
X17557982Y-19477110D01*
X17557982Y-19477110D02*
X17575840Y-19486634D01*
X17575840Y-19486634D02*
X17584173Y-19496158D01*
X17584173Y-19496158D02*
X17591316Y-19515206D01*
X17591316Y-19515206D02*
X17584173Y-19572349D01*
X17584173Y-19572349D02*
X17572268Y-19591396D01*
X17572268Y-19591396D02*
X17561554Y-19600920D01*
X17561554Y-19600920D02*
X17541316Y-19610444D01*
X17541316Y-19610444D02*
X17503221Y-19610444D01*
X17503221Y-19610444D02*
X17485363Y-19600920D01*
X17750840Y-19610444D02*
X17763935Y-19505682D01*
X17763935Y-19505682D02*
X17756792Y-19486634D01*
X17756792Y-19486634D02*
X17738935Y-19477110D01*
X17738935Y-19477110D02*
X17700840Y-19477110D01*
X17700840Y-19477110D02*
X17680602Y-19486634D01*
X17752030Y-19600920D02*
X17731792Y-19610444D01*
X17731792Y-19610444D02*
X17684173Y-19610444D01*
X17684173Y-19610444D02*
X17666316Y-19600920D01*
X17666316Y-19600920D02*
X17659173Y-19581872D01*
X17659173Y-19581872D02*
X17661554Y-19562825D01*
X17661554Y-19562825D02*
X17673459Y-19543777D01*
X17673459Y-19543777D02*
X17693697Y-19534253D01*
X17693697Y-19534253D02*
X17741316Y-19534253D01*
X17741316Y-19534253D02*
X17761554Y-19524730D01*
X17874649Y-19610444D02*
X17856792Y-19600920D01*
X17856792Y-19600920D02*
X17849649Y-19581872D01*
X17849649Y-19581872D02*
X17871078Y-19410444D01*
X18094887Y-19600920D02*
X18122268Y-19610444D01*
X18122268Y-19610444D02*
X18169887Y-19610444D01*
X18169887Y-19610444D02*
X18190125Y-19600920D01*
X18190125Y-19600920D02*
X18200840Y-19591396D01*
X18200840Y-19591396D02*
X18212744Y-19572349D01*
X18212744Y-19572349D02*
X18215125Y-19553301D01*
X18215125Y-19553301D02*
X18207983Y-19534253D01*
X18207983Y-19534253D02*
X18199649Y-19524730D01*
X18199649Y-19524730D02*
X18181792Y-19515206D01*
X18181792Y-19515206D02*
X18144887Y-19505682D01*
X18144887Y-19505682D02*
X18127030Y-19496158D01*
X18127030Y-19496158D02*
X18118697Y-19486634D01*
X18118697Y-19486634D02*
X18111554Y-19467587D01*
X18111554Y-19467587D02*
X18113935Y-19448539D01*
X18113935Y-19448539D02*
X18125840Y-19429491D01*
X18125840Y-19429491D02*
X18136554Y-19419968D01*
X18136554Y-19419968D02*
X18156792Y-19410444D01*
X18156792Y-19410444D02*
X18204411Y-19410444D01*
X18204411Y-19410444D02*
X18231792Y-19419968D01*
X18380602Y-19600920D02*
X18360364Y-19610444D01*
X18360364Y-19610444D02*
X18322268Y-19610444D01*
X18322268Y-19610444D02*
X18304411Y-19600920D01*
X18304411Y-19600920D02*
X18296078Y-19591396D01*
X18296078Y-19591396D02*
X18288935Y-19572349D01*
X18288935Y-19572349D02*
X18296078Y-19515206D01*
X18296078Y-19515206D02*
X18307983Y-19496158D01*
X18307983Y-19496158D02*
X18318697Y-19486634D01*
X18318697Y-19486634D02*
X18338935Y-19477110D01*
X18338935Y-19477110D02*
X18377030Y-19477110D01*
X18377030Y-19477110D02*
X18394887Y-19486634D01*
X18550840Y-19610444D02*
X18563935Y-19505682D01*
X18563935Y-19505682D02*
X18556792Y-19486634D01*
X18556792Y-19486634D02*
X18538935Y-19477110D01*
X18538935Y-19477110D02*
X18500840Y-19477110D01*
X18500840Y-19477110D02*
X18480602Y-19486634D01*
X18552030Y-19600920D02*
X18531792Y-19610444D01*
X18531792Y-19610444D02*
X18484173Y-19610444D01*
X18484173Y-19610444D02*
X18466316Y-19600920D01*
X18466316Y-19600920D02*
X18459173Y-19581872D01*
X18459173Y-19581872D02*
X18461554Y-19562825D01*
X18461554Y-19562825D02*
X18473459Y-19543777D01*
X18473459Y-19543777D02*
X18493697Y-19534253D01*
X18493697Y-19534253D02*
X18541316Y-19534253D01*
X18541316Y-19534253D02*
X18561554Y-19524730D01*
X18643697Y-19477110D02*
X18674649Y-19610444D01*
X18674649Y-19610444D02*
X18738935Y-19477110D01*
X18875840Y-19600920D02*
X18855602Y-19610444D01*
X18855602Y-19610444D02*
X18817506Y-19610444D01*
X18817506Y-19610444D02*
X18799649Y-19600920D01*
X18799649Y-19600920D02*
X18792506Y-19581872D01*
X18792506Y-19581872D02*
X18802030Y-19505682D01*
X18802030Y-19505682D02*
X18813935Y-19486634D01*
X18813935Y-19486634D02*
X18834173Y-19477110D01*
X18834173Y-19477110D02*
X18872268Y-19477110D01*
X18872268Y-19477110D02*
X18890126Y-19486634D01*
X18890126Y-19486634D02*
X18897268Y-19505682D01*
X18897268Y-19505682D02*
X18894887Y-19524730D01*
X18894887Y-19524730D02*
X18797268Y-19543777D01*
X18986554Y-19477110D02*
X18969887Y-19610444D01*
X18984173Y-19496158D02*
X18994887Y-19486634D01*
X18994887Y-19486634D02*
X19015126Y-19477110D01*
X19015126Y-19477110D02*
X19043697Y-19477110D01*
X19043697Y-19477110D02*
X19061554Y-19486634D01*
X19061554Y-19486634D02*
X19068697Y-19505682D01*
X19068697Y-19505682D02*
X19055602Y-19610444D01*
X19253221Y-19477110D02*
X19232983Y-19639015D01*
X19232983Y-19639015D02*
X19221078Y-19658063D01*
X19221078Y-19658063D02*
X19210364Y-19667587D01*
X19210364Y-19667587D02*
X19190126Y-19677110D01*
X19190126Y-19677110D02*
X19161554Y-19677110D01*
X19161554Y-19677110D02*
X19143697Y-19667587D01*
X19237745Y-19600920D02*
X19217507Y-19610444D01*
X19217507Y-19610444D02*
X19179411Y-19610444D01*
X19179411Y-19610444D02*
X19161554Y-19600920D01*
X19161554Y-19600920D02*
X19153221Y-19591396D01*
X19153221Y-19591396D02*
X19146078Y-19572349D01*
X19146078Y-19572349D02*
X19153221Y-19515206D01*
X19153221Y-19515206D02*
X19165126Y-19496158D01*
X19165126Y-19496158D02*
X19175840Y-19486634D01*
X19175840Y-19486634D02*
X19196078Y-19477110D01*
X19196078Y-19477110D02*
X19234173Y-19477110D01*
X19234173Y-19477110D02*
X19252030Y-19486634D01*
X19409173Y-19600920D02*
X19388935Y-19610444D01*
X19388935Y-19610444D02*
X19350840Y-19610444D01*
X19350840Y-19610444D02*
X19332983Y-19600920D01*
X19332983Y-19600920D02*
X19325840Y-19581872D01*
X19325840Y-19581872D02*
X19335364Y-19505682D01*
X19335364Y-19505682D02*
X19347268Y-19486634D01*
X19347268Y-19486634D02*
X19367507Y-19477110D01*
X19367507Y-19477110D02*
X19405602Y-19477110D01*
X19405602Y-19477110D02*
X19423459Y-19486634D01*
X19423459Y-19486634D02*
X19430602Y-19505682D01*
X19430602Y-19505682D02*
X19428221Y-19524730D01*
X19428221Y-19524730D02*
X19330602Y-19543777D01*
X19503221Y-19610444D02*
X19519888Y-19477110D01*
X19515126Y-19515206D02*
X19527030Y-19496158D01*
X19527030Y-19496158D02*
X19537745Y-19486634D01*
X19537745Y-19486634D02*
X19557983Y-19477110D01*
X19557983Y-19477110D02*
X19577030Y-19477110D01*
X19779411Y-19610444D02*
X19804411Y-19410444D01*
X19792507Y-19505682D02*
X19906792Y-19505682D01*
X19893697Y-19610444D02*
X19918697Y-19410444D01*
X20091316Y-19477110D02*
X20074649Y-19610444D01*
X20005602Y-19477110D02*
X19992507Y-19581872D01*
X19992507Y-19581872D02*
X19999649Y-19600920D01*
X19999649Y-19600920D02*
X20017507Y-19610444D01*
X20017507Y-19610444D02*
X20046078Y-19610444D01*
X20046078Y-19610444D02*
X20066316Y-19600920D01*
X20066316Y-19600920D02*
X20077030Y-19591396D01*
X20186554Y-19477110D02*
X20169888Y-19610444D01*
X20184173Y-19496158D02*
X20194888Y-19486634D01*
X20194888Y-19486634D02*
X20215126Y-19477110D01*
X20215126Y-19477110D02*
X20243697Y-19477110D01*
X20243697Y-19477110D02*
X20261554Y-19486634D01*
X20261554Y-19486634D02*
X20268697Y-19505682D01*
X20268697Y-19505682D02*
X20255602Y-19610444D01*
X20338935Y-19477110D02*
X20415126Y-19477110D01*
X20375840Y-19410444D02*
X20354411Y-19581872D01*
X20354411Y-19581872D02*
X20361554Y-19600920D01*
X20361554Y-19600920D02*
X20379411Y-19610444D01*
X20379411Y-19610444D02*
X20398459Y-19610444D01*
X20617507Y-19610444D02*
X20642507Y-19410444D01*
X20642507Y-19410444D02*
X20718697Y-19410444D01*
X20718697Y-19410444D02*
X20736554Y-19419968D01*
X20736554Y-19419968D02*
X20744888Y-19429491D01*
X20744888Y-19429491D02*
X20752030Y-19448539D01*
X20752030Y-19448539D02*
X20748459Y-19477110D01*
X20748459Y-19477110D02*
X20736554Y-19496158D01*
X20736554Y-19496158D02*
X20725840Y-19505682D01*
X20725840Y-19505682D02*
X20705602Y-19515206D01*
X20705602Y-19515206D02*
X20629411Y-19515206D01*
X20846078Y-19610444D02*
X20828221Y-19600920D01*
X20828221Y-19600920D02*
X20819888Y-19591396D01*
X20819888Y-19591396D02*
X20812745Y-19572349D01*
X20812745Y-19572349D02*
X20819888Y-19515206D01*
X20819888Y-19515206D02*
X20831792Y-19496158D01*
X20831792Y-19496158D02*
X20842507Y-19486634D01*
X20842507Y-19486634D02*
X20862745Y-19477110D01*
X20862745Y-19477110D02*
X20891316Y-19477110D01*
X20891316Y-19477110D02*
X20909173Y-19486634D01*
X20909173Y-19486634D02*
X20917507Y-19496158D01*
X20917507Y-19496158D02*
X20924650Y-19515206D01*
X20924650Y-19515206D02*
X20917507Y-19572349D01*
X20917507Y-19572349D02*
X20905602Y-19591396D01*
X20905602Y-19591396D02*
X20894888Y-19600920D01*
X20894888Y-19600920D02*
X20874650Y-19610444D01*
X20874650Y-19610444D02*
X20846078Y-19610444D01*
X20990126Y-19600920D02*
X21007983Y-19610444D01*
X21007983Y-19610444D02*
X21046078Y-19610444D01*
X21046078Y-19610444D02*
X21066316Y-19600920D01*
X21066316Y-19600920D02*
X21078221Y-19581872D01*
X21078221Y-19581872D02*
X21079411Y-19572349D01*
X21079411Y-19572349D02*
X21072269Y-19553301D01*
X21072269Y-19553301D02*
X21054411Y-19543777D01*
X21054411Y-19543777D02*
X21025840Y-19543777D01*
X21025840Y-19543777D02*
X21007983Y-19534253D01*
X21007983Y-19534253D02*
X21000840Y-19515206D01*
X21000840Y-19515206D02*
X21002031Y-19505682D01*
X21002031Y-19505682D02*
X21013935Y-19486634D01*
X21013935Y-19486634D02*
X21034173Y-19477110D01*
X21034173Y-19477110D02*
X21062745Y-19477110D01*
X21062745Y-19477110D02*
X21080602Y-19486634D01*
X21160364Y-19610444D02*
X21177031Y-19477110D01*
X21185364Y-19410444D02*
X21174650Y-19419968D01*
X21174650Y-19419968D02*
X21182983Y-19429491D01*
X21182983Y-19429491D02*
X21193697Y-19419968D01*
X21193697Y-19419968D02*
X21185364Y-19410444D01*
X21185364Y-19410444D02*
X21182983Y-19429491D01*
X21243697Y-19477110D02*
X21319888Y-19477110D01*
X21280602Y-19410444D02*
X21259173Y-19581872D01*
X21259173Y-19581872D02*
X21266316Y-19600920D01*
X21266316Y-19600920D02*
X21284173Y-19610444D01*
X21284173Y-19610444D02*
X21303221Y-19610444D01*
X21369888Y-19610444D02*
X21386554Y-19477110D01*
X21394888Y-19410444D02*
X21384173Y-19419968D01*
X21384173Y-19419968D02*
X21392507Y-19429491D01*
X21392507Y-19429491D02*
X21403221Y-19419968D01*
X21403221Y-19419968D02*
X21394888Y-19410444D01*
X21394888Y-19410444D02*
X21392507Y-19429491D01*
X21493697Y-19610444D02*
X21475840Y-19600920D01*
X21475840Y-19600920D02*
X21467507Y-19591396D01*
X21467507Y-19591396D02*
X21460364Y-19572349D01*
X21460364Y-19572349D02*
X21467507Y-19515206D01*
X21467507Y-19515206D02*
X21479411Y-19496158D01*
X21479411Y-19496158D02*
X21490126Y-19486634D01*
X21490126Y-19486634D02*
X21510364Y-19477110D01*
X21510364Y-19477110D02*
X21538935Y-19477110D01*
X21538935Y-19477110D02*
X21556792Y-19486634D01*
X21556792Y-19486634D02*
X21565126Y-19496158D01*
X21565126Y-19496158D02*
X21572269Y-19515206D01*
X21572269Y-19515206D02*
X21565126Y-19572349D01*
X21565126Y-19572349D02*
X21553221Y-19591396D01*
X21553221Y-19591396D02*
X21542507Y-19600920D01*
X21542507Y-19600920D02*
X21522269Y-19610444D01*
X21522269Y-19610444D02*
X21493697Y-19610444D01*
X21662745Y-19477110D02*
X21646078Y-19610444D01*
X21660364Y-19496158D02*
X21671078Y-19486634D01*
X21671078Y-19486634D02*
X21691316Y-19477110D01*
X21691316Y-19477110D02*
X21719888Y-19477110D01*
X21719888Y-19477110D02*
X21737745Y-19486634D01*
X21737745Y-19486634D02*
X21744888Y-19505682D01*
X21744888Y-19505682D02*
X21731792Y-19610444D01*
X21827031Y-19610444D02*
X21843697Y-19477110D01*
X21852031Y-19410444D02*
X21841316Y-19419968D01*
X21841316Y-19419968D02*
X21849650Y-19429491D01*
X21849650Y-19429491D02*
X21860364Y-19419968D01*
X21860364Y-19419968D02*
X21852031Y-19410444D01*
X21852031Y-19410444D02*
X21849650Y-19429491D01*
X21938935Y-19477110D02*
X21922269Y-19610444D01*
X21936554Y-19496158D02*
X21947269Y-19486634D01*
X21947269Y-19486634D02*
X21967507Y-19477110D01*
X21967507Y-19477110D02*
X21996078Y-19477110D01*
X21996078Y-19477110D02*
X22013935Y-19486634D01*
X22013935Y-19486634D02*
X22021078Y-19505682D01*
X22021078Y-19505682D02*
X22007983Y-19610444D01*
X22205602Y-19477110D02*
X22185364Y-19639015D01*
X22185364Y-19639015D02*
X22173459Y-19658063D01*
X22173459Y-19658063D02*
X22162745Y-19667587D01*
X22162745Y-19667587D02*
X22142507Y-19677110D01*
X22142507Y-19677110D02*
X22113935Y-19677110D01*
X22113935Y-19677110D02*
X22096078Y-19667587D01*
X22190126Y-19600920D02*
X22169888Y-19610444D01*
X22169888Y-19610444D02*
X22131793Y-19610444D01*
X22131793Y-19610444D02*
X22113935Y-19600920D01*
X22113935Y-19600920D02*
X22105602Y-19591396D01*
X22105602Y-19591396D02*
X22098459Y-19572349D01*
X22098459Y-19572349D02*
X22105602Y-19515206D01*
X22105602Y-19515206D02*
X22117507Y-19496158D01*
X22117507Y-19496158D02*
X22128221Y-19486634D01*
X22128221Y-19486634D02*
X22148459Y-19477110D01*
X22148459Y-19477110D02*
X22186554Y-19477110D01*
X22186554Y-19477110D02*
X22204412Y-19486634D01*
X22428221Y-19600920D02*
X22455602Y-19610444D01*
X22455602Y-19610444D02*
X22503221Y-19610444D01*
X22503221Y-19610444D02*
X22523459Y-19600920D01*
X22523459Y-19600920D02*
X22534173Y-19591396D01*
X22534173Y-19591396D02*
X22546078Y-19572349D01*
X22546078Y-19572349D02*
X22548459Y-19553301D01*
X22548459Y-19553301D02*
X22541316Y-19534253D01*
X22541316Y-19534253D02*
X22532983Y-19524730D01*
X22532983Y-19524730D02*
X22515126Y-19515206D01*
X22515126Y-19515206D02*
X22478221Y-19505682D01*
X22478221Y-19505682D02*
X22460364Y-19496158D01*
X22460364Y-19496158D02*
X22452031Y-19486634D01*
X22452031Y-19486634D02*
X22444888Y-19467587D01*
X22444888Y-19467587D02*
X22447269Y-19448539D01*
X22447269Y-19448539D02*
X22459173Y-19429491D01*
X22459173Y-19429491D02*
X22469888Y-19419968D01*
X22469888Y-19419968D02*
X22490126Y-19410444D01*
X22490126Y-19410444D02*
X22537745Y-19410444D01*
X22537745Y-19410444D02*
X22565126Y-19419968D01*
X22624650Y-19477110D02*
X22655602Y-19610444D01*
X22719888Y-19477110D02*
X22655602Y-19610444D01*
X22655602Y-19610444D02*
X22630602Y-19658063D01*
X22630602Y-19658063D02*
X22619888Y-19667587D01*
X22619888Y-19667587D02*
X22599650Y-19677110D01*
X22771078Y-19600920D02*
X22788935Y-19610444D01*
X22788935Y-19610444D02*
X22827031Y-19610444D01*
X22827031Y-19610444D02*
X22847269Y-19600920D01*
X22847269Y-19600920D02*
X22859173Y-19581872D01*
X22859173Y-19581872D02*
X22860364Y-19572349D01*
X22860364Y-19572349D02*
X22853221Y-19553301D01*
X22853221Y-19553301D02*
X22835364Y-19543777D01*
X22835364Y-19543777D02*
X22806793Y-19543777D01*
X22806793Y-19543777D02*
X22788935Y-19534253D01*
X22788935Y-19534253D02*
X22781793Y-19515206D01*
X22781793Y-19515206D02*
X22782983Y-19505682D01*
X22782983Y-19505682D02*
X22794888Y-19486634D01*
X22794888Y-19486634D02*
X22815126Y-19477110D01*
X22815126Y-19477110D02*
X22843697Y-19477110D01*
X22843697Y-19477110D02*
X22861554Y-19486634D01*
X22929412Y-19477110D02*
X23005602Y-19477110D01*
X22966316Y-19410444D02*
X22944888Y-19581872D01*
X22944888Y-19581872D02*
X22952031Y-19600920D01*
X22952031Y-19600920D02*
X22969888Y-19610444D01*
X22969888Y-19610444D02*
X22988935Y-19610444D01*
X23132983Y-19600920D02*
X23112745Y-19610444D01*
X23112745Y-19610444D02*
X23074650Y-19610444D01*
X23074650Y-19610444D02*
X23056793Y-19600920D01*
X23056793Y-19600920D02*
X23049650Y-19581872D01*
X23049650Y-19581872D02*
X23059174Y-19505682D01*
X23059174Y-19505682D02*
X23071078Y-19486634D01*
X23071078Y-19486634D02*
X23091316Y-19477110D01*
X23091316Y-19477110D02*
X23129412Y-19477110D01*
X23129412Y-19477110D02*
X23147269Y-19486634D01*
X23147269Y-19486634D02*
X23154412Y-19505682D01*
X23154412Y-19505682D02*
X23152031Y-19524730D01*
X23152031Y-19524730D02*
X23054412Y-19543777D01*
X23227031Y-19610444D02*
X23243697Y-19477110D01*
X23241316Y-19496158D02*
X23252031Y-19486634D01*
X23252031Y-19486634D02*
X23272269Y-19477110D01*
X23272269Y-19477110D02*
X23300840Y-19477110D01*
X23300840Y-19477110D02*
X23318697Y-19486634D01*
X23318697Y-19486634D02*
X23325840Y-19505682D01*
X23325840Y-19505682D02*
X23312745Y-19610444D01*
X23325840Y-19505682D02*
X23337745Y-19486634D01*
X23337745Y-19486634D02*
X23357983Y-19477110D01*
X23357983Y-19477110D02*
X23386554Y-19477110D01*
X23386554Y-19477110D02*
X23404412Y-19486634D01*
X23404412Y-19486634D02*
X23411554Y-19505682D01*
X23411554Y-19505682D02*
X23398459Y-19610444D01*
D10*
D11*
X16135583Y-19150041D02*
X16085583Y-19150041D01*
X16085583Y-19228613D02*
X16085583Y-19078613D01*
X16085583Y-19078613D02*
X16157011Y-19078613D01*
X16214154Y-19228613D02*
X16214154Y-19128613D01*
X16214154Y-19078613D02*
X16207011Y-19085756D01*
X16207011Y-19085756D02*
X16214154Y-19092899D01*
X16214154Y-19092899D02*
X16221297Y-19085756D01*
X16221297Y-19085756D02*
X16214154Y-19078613D01*
X16214154Y-19078613D02*
X16214154Y-19092899D01*
X16307011Y-19228613D02*
X16292725Y-19221470D01*
X16292725Y-19221470D02*
X16285583Y-19207184D01*
X16285583Y-19207184D02*
X16285583Y-19078613D01*
X16421297Y-19221470D02*
X16407011Y-19228613D01*
X16407011Y-19228613D02*
X16378440Y-19228613D01*
X16378440Y-19228613D02*
X16364154Y-19221470D01*
X16364154Y-19221470D02*
X16357011Y-19207184D01*
X16357011Y-19207184D02*
X16357011Y-19150041D01*
X16357011Y-19150041D02*
X16364154Y-19135756D01*
X16364154Y-19135756D02*
X16378440Y-19128613D01*
X16378440Y-19128613D02*
X16407011Y-19128613D01*
X16407011Y-19128613D02*
X16421297Y-19135756D01*
X16421297Y-19135756D02*
X16428440Y-19150041D01*
X16428440Y-19150041D02*
X16428440Y-19164327D01*
X16428440Y-19164327D02*
X16357011Y-19178613D01*
X16492725Y-19214327D02*
X16499868Y-19221470D01*
X16499868Y-19221470D02*
X16492725Y-19228613D01*
X16492725Y-19228613D02*
X16485583Y-19221470D01*
X16485583Y-19221470D02*
X16492725Y-19214327D01*
X16492725Y-19214327D02*
X16492725Y-19228613D01*
X16492725Y-19135756D02*
X16499868Y-19142899D01*
X16499868Y-19142899D02*
X16492725Y-19150041D01*
X16492725Y-19150041D02*
X16485583Y-19142899D01*
X16485583Y-19142899D02*
X16492725Y-19135756D01*
X16492725Y-19135756D02*
X16492725Y-19150041D01*
X16742725Y-19128613D02*
X16742725Y-19250041D01*
X16742725Y-19250041D02*
X16735583Y-19264327D01*
X16735583Y-19264327D02*
X16728440Y-19271470D01*
X16728440Y-19271470D02*
X16714154Y-19278613D01*
X16714154Y-19278613D02*
X16692725Y-19278613D01*
X16692725Y-19278613D02*
X16678440Y-19271470D01*
X16742725Y-19221470D02*
X16728440Y-19228613D01*
X16728440Y-19228613D02*
X16699868Y-19228613D01*
X16699868Y-19228613D02*
X16685583Y-19221470D01*
X16685583Y-19221470D02*
X16678440Y-19214327D01*
X16678440Y-19214327D02*
X16671297Y-19200041D01*
X16671297Y-19200041D02*
X16671297Y-19157184D01*
X16671297Y-19157184D02*
X16678440Y-19142899D01*
X16678440Y-19142899D02*
X16685583Y-19135756D01*
X16685583Y-19135756D02*
X16699868Y-19128613D01*
X16699868Y-19128613D02*
X16728440Y-19128613D01*
X16728440Y-19128613D02*
X16742725Y-19135756D01*
X16807011Y-19221470D02*
X16821297Y-19228613D01*
X16821297Y-19228613D02*
X16849868Y-19228613D01*
X16849868Y-19228613D02*
X16864154Y-19221470D01*
X16864154Y-19221470D02*
X16871297Y-19207184D01*
X16871297Y-19207184D02*
X16871297Y-19200041D01*
X16871297Y-19200041D02*
X16864154Y-19185756D01*
X16864154Y-19185756D02*
X16849868Y-19178613D01*
X16849868Y-19178613D02*
X16828440Y-19178613D01*
X16828440Y-19178613D02*
X16814154Y-19171470D01*
X16814154Y-19171470D02*
X16807011Y-19157184D01*
X16807011Y-19157184D02*
X16807011Y-19150041D01*
X16807011Y-19150041D02*
X16814154Y-19135756D01*
X16814154Y-19135756D02*
X16828440Y-19128613D01*
X16828440Y-19128613D02*
X16849868Y-19128613D01*
X16849868Y-19128613D02*
X16864154Y-19135756D01*
X16935583Y-19228613D02*
X16935583Y-19078613D01*
X16999868Y-19228613D02*
X16999868Y-19150041D01*
X16999868Y-19150041D02*
X16992726Y-19135756D01*
X16992726Y-19135756D02*
X16978440Y-19128613D01*
X16978440Y-19128613D02*
X16957011Y-19128613D01*
X16957011Y-19128613D02*
X16942726Y-19135756D01*
X16942726Y-19135756D02*
X16935583Y-19142899D01*
X17071297Y-19128613D02*
X17071297Y-19278613D01*
X17071297Y-19135756D02*
X17085583Y-19128613D01*
X17085583Y-19128613D02*
X17114154Y-19128613D01*
X17114154Y-19128613D02*
X17128440Y-19135756D01*
X17128440Y-19135756D02*
X17135583Y-19142899D01*
X17135583Y-19142899D02*
X17142726Y-19157184D01*
X17142726Y-19157184D02*
X17142726Y-19200041D01*
X17142726Y-19200041D02*
X17135583Y-19214327D01*
X17135583Y-19214327D02*
X17128440Y-19221470D01*
X17128440Y-19221470D02*
X17114154Y-19228613D01*
X17114154Y-19228613D02*
X17085583Y-19228613D01*
X17085583Y-19228613D02*
X17071297Y-19221470D01*
X17199868Y-19221470D02*
X17214154Y-19228613D01*
X17214154Y-19228613D02*
X17242726Y-19228613D01*
X17242726Y-19228613D02*
X17257011Y-19221470D01*
X17257011Y-19221470D02*
X17264154Y-19207184D01*
X17264154Y-19207184D02*
X17264154Y-19200041D01*
X17264154Y-19200041D02*
X17257011Y-19185756D01*
X17257011Y-19185756D02*
X17242726Y-19178613D01*
X17242726Y-19178613D02*
X17221297Y-19178613D01*
X17221297Y-19178613D02*
X17207011Y-19171470D01*
X17207011Y-19171470D02*
X17199868Y-19157184D01*
X17199868Y-19157184D02*
X17199868Y-19150041D01*
X17199868Y-19150041D02*
X17207011Y-19135756D01*
X17207011Y-19135756D02*
X17221297Y-19128613D01*
X17221297Y-19128613D02*
X17242726Y-19128613D01*
X17242726Y-19128613D02*
X17257011Y-19135756D01*
X17328440Y-19214327D02*
X17335583Y-19221470D01*
X17335583Y-19221470D02*
X17328440Y-19228613D01*
X17328440Y-19228613D02*
X17321297Y-19221470D01*
X17321297Y-19221470D02*
X17328440Y-19214327D01*
X17328440Y-19214327D02*
X17328440Y-19228613D01*
X17399868Y-19228613D02*
X17399868Y-19078613D01*
X17414154Y-19171470D02*
X17457011Y-19228613D01*
X17457011Y-19128613D02*
X17399868Y-19185756D01*
X17521297Y-19228613D02*
X17521297Y-19128613D01*
X17521297Y-19078613D02*
X17514154Y-19085756D01*
X17514154Y-19085756D02*
X17521297Y-19092899D01*
X17521297Y-19092899D02*
X17528440Y-19085756D01*
X17528440Y-19085756D02*
X17521297Y-19078613D01*
X17521297Y-19078613D02*
X17521297Y-19092899D01*
X17657011Y-19221470D02*
X17642726Y-19228613D01*
X17642726Y-19228613D02*
X17614154Y-19228613D01*
X17614154Y-19228613D02*
X17599869Y-19221470D01*
X17599869Y-19221470D02*
X17592726Y-19214327D01*
X17592726Y-19214327D02*
X17585583Y-19200041D01*
X17585583Y-19200041D02*
X17585583Y-19157184D01*
X17585583Y-19157184D02*
X17592726Y-19142899D01*
X17592726Y-19142899D02*
X17599869Y-19135756D01*
X17599869Y-19135756D02*
X17614154Y-19128613D01*
X17614154Y-19128613D02*
X17642726Y-19128613D01*
X17642726Y-19128613D02*
X17657011Y-19135756D01*
X17785583Y-19228613D02*
X17785583Y-19150041D01*
X17785583Y-19150041D02*
X17778440Y-19135756D01*
X17778440Y-19135756D02*
X17764154Y-19128613D01*
X17764154Y-19128613D02*
X17735583Y-19128613D01*
X17735583Y-19128613D02*
X17721297Y-19135756D01*
X17785583Y-19221470D02*
X17771297Y-19228613D01*
X17771297Y-19228613D02*
X17735583Y-19228613D01*
X17735583Y-19228613D02*
X17721297Y-19221470D01*
X17721297Y-19221470D02*
X17714154Y-19207184D01*
X17714154Y-19207184D02*
X17714154Y-19192899D01*
X17714154Y-19192899D02*
X17721297Y-19178613D01*
X17721297Y-19178613D02*
X17735583Y-19171470D01*
X17735583Y-19171470D02*
X17771297Y-19171470D01*
X17771297Y-19171470D02*
X17785583Y-19164327D01*
X17921297Y-19228613D02*
X17921297Y-19078613D01*
X17921297Y-19221470D02*
X17907011Y-19228613D01*
X17907011Y-19228613D02*
X17878440Y-19228613D01*
X17878440Y-19228613D02*
X17864154Y-19221470D01*
X17864154Y-19221470D02*
X17857011Y-19214327D01*
X17857011Y-19214327D02*
X17849869Y-19200041D01*
X17849869Y-19200041D02*
X17849869Y-19157184D01*
X17849869Y-19157184D02*
X17857011Y-19142899D01*
X17857011Y-19142899D02*
X17864154Y-19135756D01*
X17864154Y-19135756D02*
X17878440Y-19128613D01*
X17878440Y-19128613D02*
X17907011Y-19128613D01*
X17907011Y-19128613D02*
X17921297Y-19135756D01*
X17957011Y-19242899D02*
X18071297Y-19242899D01*
X18107011Y-19128613D02*
X18107011Y-19278613D01*
X18107011Y-19135756D02*
X18121297Y-19128613D01*
X18121297Y-19128613D02*
X18149869Y-19128613D01*
X18149869Y-19128613D02*
X18164154Y-19135756D01*
X18164154Y-19135756D02*
X18171297Y-19142899D01*
X18171297Y-19142899D02*
X18178440Y-19157184D01*
X18178440Y-19157184D02*
X18178440Y-19200041D01*
X18178440Y-19200041D02*
X18171297Y-19214327D01*
X18171297Y-19214327D02*
X18164154Y-19221470D01*
X18164154Y-19221470D02*
X18149869Y-19228613D01*
X18149869Y-19228613D02*
X18121297Y-19228613D01*
X18121297Y-19228613D02*
X18107011Y-19221470D01*
X18307011Y-19221470D02*
X18292726Y-19228613D01*
X18292726Y-19228613D02*
X18264154Y-19228613D01*
X18264154Y-19228613D02*
X18249869Y-19221470D01*
X18249869Y-19221470D02*
X18242726Y-19214327D01*
X18242726Y-19214327D02*
X18235583Y-19200041D01*
X18235583Y-19200041D02*
X18235583Y-19157184D01*
X18235583Y-19157184D02*
X18242726Y-19142899D01*
X18242726Y-19142899D02*
X18249869Y-19135756D01*
X18249869Y-19135756D02*
X18264154Y-19128613D01*
X18264154Y-19128613D02*
X18292726Y-19128613D01*
X18292726Y-19128613D02*
X18307011Y-19135756D01*
X18371297Y-19228613D02*
X18371297Y-19078613D01*
X18371297Y-19135756D02*
X18385583Y-19128613D01*
X18385583Y-19128613D02*
X18414154Y-19128613D01*
X18414154Y-19128613D02*
X18428440Y-19135756D01*
X18428440Y-19135756D02*
X18435583Y-19142899D01*
X18435583Y-19142899D02*
X18442726Y-19157184D01*
X18442726Y-19157184D02*
X18442726Y-19200041D01*
X18442726Y-19200041D02*
X18435583Y-19214327D01*
X18435583Y-19214327D02*
X18428440Y-19221470D01*
X18428440Y-19221470D02*
X18414154Y-19228613D01*
X18414154Y-19228613D02*
X18385583Y-19228613D01*
X18385583Y-19228613D02*
X18371297Y-19221470D01*
D10*
D11*
X15940000Y-18740000D02*
X26740000Y-18740000D01*
D10*
D11*
X16078440Y-18951470D02*
X16099868Y-18958613D01*
X16099868Y-18958613D02*
X16135583Y-18958613D01*
X16135583Y-18958613D02*
X16149868Y-18951470D01*
X16149868Y-18951470D02*
X16157011Y-18944327D01*
X16157011Y-18944327D02*
X16164154Y-18930041D01*
X16164154Y-18930041D02*
X16164154Y-18915756D01*
X16164154Y-18915756D02*
X16157011Y-18901470D01*
X16157011Y-18901470D02*
X16149868Y-18894327D01*
X16149868Y-18894327D02*
X16135583Y-18887184D01*
X16135583Y-18887184D02*
X16107011Y-18880041D01*
X16107011Y-18880041D02*
X16092725Y-18872899D01*
X16092725Y-18872899D02*
X16085583Y-18865756D01*
X16085583Y-18865756D02*
X16078440Y-18851470D01*
X16078440Y-18851470D02*
X16078440Y-18837184D01*
X16078440Y-18837184D02*
X16085583Y-18822899D01*
X16085583Y-18822899D02*
X16092725Y-18815756D01*
X16092725Y-18815756D02*
X16107011Y-18808613D01*
X16107011Y-18808613D02*
X16142725Y-18808613D01*
X16142725Y-18808613D02*
X16164154Y-18815756D01*
X16228440Y-18958613D02*
X16228440Y-18808613D01*
X16292725Y-18958613D02*
X16292725Y-18880041D01*
X16292725Y-18880041D02*
X16285583Y-18865756D01*
X16285583Y-18865756D02*
X16271297Y-18858613D01*
X16271297Y-18858613D02*
X16249868Y-18858613D01*
X16249868Y-18858613D02*
X16235583Y-18865756D01*
X16235583Y-18865756D02*
X16228440Y-18872899D01*
X16421297Y-18951470D02*
X16407011Y-18958613D01*
X16407011Y-18958613D02*
X16378440Y-18958613D01*
X16378440Y-18958613D02*
X16364154Y-18951470D01*
X16364154Y-18951470D02*
X16357011Y-18937184D01*
X16357011Y-18937184D02*
X16357011Y-18880041D01*
X16357011Y-18880041D02*
X16364154Y-18865756D01*
X16364154Y-18865756D02*
X16378440Y-18858613D01*
X16378440Y-18858613D02*
X16407011Y-18858613D01*
X16407011Y-18858613D02*
X16421297Y-18865756D01*
X16421297Y-18865756D02*
X16428440Y-18880041D01*
X16428440Y-18880041D02*
X16428440Y-18894327D01*
X16428440Y-18894327D02*
X16357011Y-18908613D01*
X16549868Y-18951470D02*
X16535583Y-18958613D01*
X16535583Y-18958613D02*
X16507011Y-18958613D01*
X16507011Y-18958613D02*
X16492725Y-18951470D01*
X16492725Y-18951470D02*
X16485583Y-18937184D01*
X16485583Y-18937184D02*
X16485583Y-18880041D01*
X16485583Y-18880041D02*
X16492725Y-18865756D01*
X16492725Y-18865756D02*
X16507011Y-18858613D01*
X16507011Y-18858613D02*
X16535583Y-18858613D01*
X16535583Y-18858613D02*
X16549868Y-18865756D01*
X16549868Y-18865756D02*
X16557011Y-18880041D01*
X16557011Y-18880041D02*
X16557011Y-18894327D01*
X16557011Y-18894327D02*
X16485583Y-18908613D01*
X16599868Y-18858613D02*
X16657011Y-18858613D01*
X16621297Y-18808613D02*
X16621297Y-18937184D01*
X16621297Y-18937184D02*
X16628440Y-18951470D01*
X16628440Y-18951470D02*
X16642725Y-18958613D01*
X16642725Y-18958613D02*
X16657011Y-18958613D01*
X16707011Y-18944327D02*
X16714154Y-18951470D01*
X16714154Y-18951470D02*
X16707011Y-18958613D01*
X16707011Y-18958613D02*
X16699868Y-18951470D01*
X16699868Y-18951470D02*
X16707011Y-18944327D01*
X16707011Y-18944327D02*
X16707011Y-18958613D01*
X16707011Y-18865756D02*
X16714154Y-18872899D01*
X16714154Y-18872899D02*
X16707011Y-18880041D01*
X16707011Y-18880041D02*
X16699868Y-18872899D01*
X16699868Y-18872899D02*
X16707011Y-18865756D01*
X16707011Y-18865756D02*
X16707011Y-18880041D01*
D10*
D12*
X17619451Y-18657813D02*
X17619451Y-18507813D01*
X17619451Y-18507813D02*
X17676594Y-18507813D01*
X17676594Y-18507813D02*
X17690880Y-18514956D01*
X17690880Y-18514956D02*
X17698023Y-18522099D01*
X17698023Y-18522099D02*
X17705165Y-18536384D01*
X17705165Y-18536384D02*
X17705165Y-18557813D01*
X17705165Y-18557813D02*
X17698023Y-18572099D01*
X17698023Y-18572099D02*
X17690880Y-18579241D01*
X17690880Y-18579241D02*
X17676594Y-18586384D01*
X17676594Y-18586384D02*
X17619451Y-18586384D01*
X17833737Y-18657813D02*
X17833737Y-18579241D01*
X17833737Y-18579241D02*
X17826594Y-18564956D01*
X17826594Y-18564956D02*
X17812308Y-18557813D01*
X17812308Y-18557813D02*
X17783737Y-18557813D01*
X17783737Y-18557813D02*
X17769451Y-18564956D01*
X17833737Y-18650670D02*
X17819451Y-18657813D01*
X17819451Y-18657813D02*
X17783737Y-18657813D01*
X17783737Y-18657813D02*
X17769451Y-18650670D01*
X17769451Y-18650670D02*
X17762308Y-18636384D01*
X17762308Y-18636384D02*
X17762308Y-18622099D01*
X17762308Y-18622099D02*
X17769451Y-18607813D01*
X17769451Y-18607813D02*
X17783737Y-18600670D01*
X17783737Y-18600670D02*
X17819451Y-18600670D01*
X17819451Y-18600670D02*
X17833737Y-18593527D01*
X17905165Y-18557813D02*
X17905165Y-18657813D01*
X17905165Y-18572099D02*
X17912308Y-18564956D01*
X17912308Y-18564956D02*
X17926594Y-18557813D01*
X17926594Y-18557813D02*
X17948023Y-18557813D01*
X17948023Y-18557813D02*
X17962308Y-18564956D01*
X17962308Y-18564956D02*
X17969451Y-18579241D01*
X17969451Y-18579241D02*
X17969451Y-18657813D01*
X18019451Y-18557813D02*
X18076594Y-18557813D01*
X18040880Y-18507813D02*
X18040880Y-18636384D01*
X18040880Y-18636384D02*
X18048023Y-18650670D01*
X18048023Y-18650670D02*
X18062308Y-18657813D01*
X18062308Y-18657813D02*
X18076594Y-18657813D01*
X18119451Y-18650670D02*
X18133737Y-18657813D01*
X18133737Y-18657813D02*
X18162308Y-18657813D01*
X18162308Y-18657813D02*
X18176594Y-18650670D01*
X18176594Y-18650670D02*
X18183737Y-18636384D01*
X18183737Y-18636384D02*
X18183737Y-18629241D01*
X18183737Y-18629241D02*
X18176594Y-18614956D01*
X18176594Y-18614956D02*
X18162308Y-18607813D01*
X18162308Y-18607813D02*
X18140880Y-18607813D01*
X18140880Y-18607813D02*
X18126594Y-18600670D01*
X18126594Y-18600670D02*
X18119451Y-18586384D01*
X18119451Y-18586384D02*
X18119451Y-18579241D01*
X18119451Y-18579241D02*
X18126594Y-18564956D01*
X18126594Y-18564956D02*
X18140880Y-18557813D01*
X18140880Y-18557813D02*
X18162308Y-18557813D01*
X18162308Y-18557813D02*
X18176594Y-18564956D01*
X18340880Y-18557813D02*
X18398023Y-18557813D01*
X18362308Y-18657813D02*
X18362308Y-18529241D01*
X18362308Y-18529241D02*
X18369451Y-18514956D01*
X18369451Y-18514956D02*
X18383737Y-18507813D01*
X18383737Y-18507813D02*
X18398023Y-18507813D01*
X18469451Y-18657813D02*
X18455165Y-18650670D01*
X18455165Y-18650670D02*
X18448023Y-18643527D01*
X18448023Y-18643527D02*
X18440880Y-18629241D01*
X18440880Y-18629241D02*
X18440880Y-18586384D01*
X18440880Y-18586384D02*
X18448023Y-18572099D01*
X18448023Y-18572099D02*
X18455165Y-18564956D01*
X18455165Y-18564956D02*
X18469451Y-18557813D01*
X18469451Y-18557813D02*
X18490880Y-18557813D01*
X18490880Y-18557813D02*
X18505165Y-18564956D01*
X18505165Y-18564956D02*
X18512308Y-18572099D01*
X18512308Y-18572099D02*
X18519451Y-18586384D01*
X18519451Y-18586384D02*
X18519451Y-18629241D01*
X18519451Y-18629241D02*
X18512308Y-18643527D01*
X18512308Y-18643527D02*
X18505165Y-18650670D01*
X18505165Y-18650670D02*
X18490880Y-18657813D01*
X18490880Y-18657813D02*
X18469451Y-18657813D01*
X18583737Y-18657813D02*
X18583737Y-18557813D01*
X18583737Y-18586384D02*
X18590880Y-18572099D01*
X18590880Y-18572099D02*
X18598023Y-18564956D01*
X18598023Y-18564956D02*
X18612308Y-18557813D01*
X18612308Y-18557813D02*
X18626594Y-18557813D01*
X18840880Y-18579241D02*
X18862308Y-18586384D01*
X18862308Y-18586384D02*
X18869451Y-18593527D01*
X18869451Y-18593527D02*
X18876594Y-18607813D01*
X18876594Y-18607813D02*
X18876594Y-18629241D01*
X18876594Y-18629241D02*
X18869451Y-18643527D01*
X18869451Y-18643527D02*
X18862308Y-18650670D01*
X18862308Y-18650670D02*
X18848023Y-18657813D01*
X18848023Y-18657813D02*
X18790880Y-18657813D01*
X18790880Y-18657813D02*
X18790880Y-18507813D01*
X18790880Y-18507813D02*
X18840880Y-18507813D01*
X18840880Y-18507813D02*
X18855165Y-18514956D01*
X18855165Y-18514956D02*
X18862308Y-18522099D01*
X18862308Y-18522099D02*
X18869451Y-18536384D01*
X18869451Y-18536384D02*
X18869451Y-18550670D01*
X18869451Y-18550670D02*
X18862308Y-18564956D01*
X18862308Y-18564956D02*
X18855165Y-18572099D01*
X18855165Y-18572099D02*
X18840880Y-18579241D01*
X18840880Y-18579241D02*
X18790880Y-18579241D01*
X18940880Y-18657813D02*
X18940880Y-18557813D01*
X18940880Y-18507813D02*
X18933737Y-18514956D01*
X18933737Y-18514956D02*
X18940880Y-18522099D01*
X18940880Y-18522099D02*
X18948023Y-18514956D01*
X18948023Y-18514956D02*
X18940880Y-18507813D01*
X18940880Y-18507813D02*
X18940880Y-18522099D01*
X19012308Y-18657813D02*
X19012308Y-18557813D01*
X19012308Y-18586384D02*
X19019451Y-18572099D01*
X19019451Y-18572099D02*
X19026594Y-18564956D01*
X19026594Y-18564956D02*
X19040880Y-18557813D01*
X19040880Y-18557813D02*
X19055165Y-18557813D01*
X19169451Y-18657813D02*
X19169451Y-18507813D01*
X19169451Y-18650670D02*
X19155165Y-18657813D01*
X19155165Y-18657813D02*
X19126594Y-18657813D01*
X19126594Y-18657813D02*
X19112308Y-18650670D01*
X19112308Y-18650670D02*
X19105165Y-18643527D01*
X19105165Y-18643527D02*
X19098023Y-18629241D01*
X19098023Y-18629241D02*
X19098023Y-18586384D01*
X19098023Y-18586384D02*
X19105165Y-18572099D01*
X19105165Y-18572099D02*
X19112308Y-18564956D01*
X19112308Y-18564956D02*
X19126594Y-18557813D01*
X19126594Y-18557813D02*
X19155165Y-18557813D01*
X19155165Y-18557813D02*
X19169451Y-18564956D01*
X19233737Y-18650670D02*
X19248023Y-18657813D01*
X19248023Y-18657813D02*
X19276594Y-18657813D01*
X19276594Y-18657813D02*
X19290880Y-18650670D01*
X19290880Y-18650670D02*
X19298023Y-18636384D01*
X19298023Y-18636384D02*
X19298023Y-18629241D01*
X19298023Y-18629241D02*
X19290880Y-18614956D01*
X19290880Y-18614956D02*
X19276594Y-18607813D01*
X19276594Y-18607813D02*
X19255165Y-18607813D01*
X19255165Y-18607813D02*
X19240880Y-18600670D01*
X19240880Y-18600670D02*
X19233737Y-18586384D01*
X19233737Y-18586384D02*
X19233737Y-18579241D01*
X19233737Y-18579241D02*
X19240880Y-18564956D01*
X19240880Y-18564956D02*
X19255165Y-18557813D01*
X19255165Y-18557813D02*
X19276594Y-18557813D01*
X19276594Y-18557813D02*
X19290880Y-18564956D01*
D10*
D11*
X17940000Y-19740000D02*
X17940000Y-20040000D01*
D10*
D11*
X24340000Y-19740000D02*
X24340000Y-20390000D01*
D10*
D11*
X17441100Y-17199780D02*
X17441100Y-18739780D01*
D14*
X4300000Y-5900000D02*
X6350000Y-5900000D01*
X10750000Y-2350000D02*
G75*
G02*
X11850000Y-3450000I0J-1100000D01*
G01*
X11850000Y-6750000D02*
G75*
G02*
X10750000Y-7850000I-1100000J0D01*
G01*
X3700000Y-5100000D02*
X3700000Y-3450000D01*
X3450000Y-3400000D02*
X3650000Y-3400000D01*
X3950000Y-7850000D02*
G75*
G02*
X2850000Y-6750000I0J1100000D01*
G01*
X4100000Y-7850000D02*
X4100000Y-6100000D01*
X3400000Y-3450000D02*
X3400000Y-5100000D01*
X3450000Y-5150000D02*
X3650000Y-5150000D01*
X3650000Y-3400000D02*
G75*
G02*
X3700000Y-3450000I0J-50000D01*
G01*
X3700000Y-5100000D02*
G75*
G02*
X3650000Y-5150000I-50000J0D01*
G01*
X4100000Y-6100000D02*
G75*
G02*
X4300000Y-5900000I200000J0D01*
G01*
X10750000Y-7850000D02*
X6550000Y-7850000D01*
X3950000Y-2350000D02*
X10750000Y-2350000D01*
X3400000Y-3450000D02*
G75*
G02*
X3450000Y-3400000I50000J0D01*
G01*
X4100000Y-7850000D02*
X3950000Y-7850000D01*
X3450000Y-5150000D02*
G75*
G02*
X3400000Y-5100000I0J50000D01*
G01*
X2850000Y-6750000D02*
X2850000Y-3450000D01*
X6550000Y-7850000D02*
X6550000Y-6100000D01*
X2850000Y-3450000D02*
G75*
G02*
X3950000Y-2350000I1100000J0D01*
G01*
X6350000Y-5900000D02*
G75*
G02*
X6550000Y-6100000I0J-200000D01*
G01*
X11850000Y-3450000D02*
X11850000Y-6750000D01*
D11*
X12908678Y-5953982D02*
X12908678Y-6034934D01*
X12908678Y-6034934D02*
X12913440Y-6044458D01*
X12913440Y-6044458D02*
X12918202Y-6049220D01*
X12918202Y-6049220D02*
X12927725Y-6053982D01*
X12927725Y-6053982D02*
X12946773Y-6053982D01*
X12946773Y-6053982D02*
X12956297Y-6049220D01*
X12956297Y-6049220D02*
X12961059Y-6044458D01*
X12961059Y-6044458D02*
X12965821Y-6034934D01*
X12965821Y-6034934D02*
X12965821Y-5953982D01*
X13008678Y-6049220D02*
X13022964Y-6053982D01*
X13022964Y-6053982D02*
X13046773Y-6053982D01*
X13046773Y-6053982D02*
X13056297Y-6049220D01*
X13056297Y-6049220D02*
X13061059Y-6044458D01*
X13061059Y-6044458D02*
X13065821Y-6034934D01*
X13065821Y-6034934D02*
X13065821Y-6025410D01*
X13065821Y-6025410D02*
X13061059Y-6015887D01*
X13061059Y-6015887D02*
X13056297Y-6011125D01*
X13056297Y-6011125D02*
X13046773Y-6006363D01*
X13046773Y-6006363D02*
X13027725Y-6001601D01*
X13027725Y-6001601D02*
X13018202Y-5996839D01*
X13018202Y-5996839D02*
X13013440Y-5992077D01*
X13013440Y-5992077D02*
X13008678Y-5982553D01*
X13008678Y-5982553D02*
X13008678Y-5973029D01*
X13008678Y-5973029D02*
X13013440Y-5963506D01*
X13013440Y-5963506D02*
X13018202Y-5958744D01*
X13018202Y-5958744D02*
X13027725Y-5953982D01*
X13027725Y-5953982D02*
X13051535Y-5953982D01*
X13051535Y-5953982D02*
X13065821Y-5958744D01*
X13142011Y-6001601D02*
X13156297Y-6006363D01*
X13156297Y-6006363D02*
X13161059Y-6011125D01*
X13161059Y-6011125D02*
X13165821Y-6020648D01*
X13165821Y-6020648D02*
X13165821Y-6034934D01*
X13165821Y-6034934D02*
X13161059Y-6044458D01*
X13161059Y-6044458D02*
X13156297Y-6049220D01*
X13156297Y-6049220D02*
X13146773Y-6053982D01*
X13146773Y-6053982D02*
X13108678Y-6053982D01*
X13108678Y-6053982D02*
X13108678Y-5953982D01*
X13108678Y-5953982D02*
X13142011Y-5953982D01*
X13142011Y-5953982D02*
X13151535Y-5958744D01*
X13151535Y-5958744D02*
X13156297Y-5963506D01*
X13156297Y-5963506D02*
X13161059Y-5973029D01*
X13161059Y-5973029D02*
X13161059Y-5982553D01*
X13161059Y-5982553D02*
X13156297Y-5992077D01*
X13156297Y-5992077D02*
X13151535Y-5996839D01*
X13151535Y-5996839D02*
X13142011Y-6001601D01*
X13142011Y-6001601D02*
X13108678Y-6001601D01*
X13270583Y-5953982D02*
X13327725Y-5953982D01*
X13299154Y-6053982D02*
X13299154Y-5953982D01*
X13361059Y-6053982D02*
X13361059Y-5987315D01*
X13361059Y-6006363D02*
X13365821Y-5996839D01*
X13365821Y-5996839D02*
X13370583Y-5992077D01*
X13370583Y-5992077D02*
X13380106Y-5987315D01*
X13380106Y-5987315D02*
X13389630Y-5987315D01*
X13465821Y-6053982D02*
X13465821Y-6001601D01*
X13465821Y-6001601D02*
X13461059Y-5992077D01*
X13461059Y-5992077D02*
X13451535Y-5987315D01*
X13451535Y-5987315D02*
X13432487Y-5987315D01*
X13432487Y-5987315D02*
X13422964Y-5992077D01*
X13465821Y-6049220D02*
X13456297Y-6053982D01*
X13456297Y-6053982D02*
X13432487Y-6053982D01*
X13432487Y-6053982D02*
X13422964Y-6049220D01*
X13422964Y-6049220D02*
X13418202Y-6039696D01*
X13418202Y-6039696D02*
X13418202Y-6030172D01*
X13418202Y-6030172D02*
X13422964Y-6020648D01*
X13422964Y-6020648D02*
X13432487Y-6015887D01*
X13432487Y-6015887D02*
X13456297Y-6015887D01*
X13456297Y-6015887D02*
X13465821Y-6011125D01*
X13556297Y-6049220D02*
X13546773Y-6053982D01*
X13546773Y-6053982D02*
X13527726Y-6053982D01*
X13527726Y-6053982D02*
X13518202Y-6049220D01*
X13518202Y-6049220D02*
X13513440Y-6044458D01*
X13513440Y-6044458D02*
X13508678Y-6034934D01*
X13508678Y-6034934D02*
X13508678Y-6006363D01*
X13508678Y-6006363D02*
X13513440Y-5996839D01*
X13513440Y-5996839D02*
X13518202Y-5992077D01*
X13518202Y-5992077D02*
X13527726Y-5987315D01*
X13527726Y-5987315D02*
X13546773Y-5987315D01*
X13546773Y-5987315D02*
X13556297Y-5992077D01*
X13637249Y-6049220D02*
X13627726Y-6053982D01*
X13627726Y-6053982D02*
X13608678Y-6053982D01*
X13608678Y-6053982D02*
X13599154Y-6049220D01*
X13599154Y-6049220D02*
X13594392Y-6039696D01*
X13594392Y-6039696D02*
X13594392Y-6001601D01*
X13594392Y-6001601D02*
X13599154Y-5992077D01*
X13599154Y-5992077D02*
X13608678Y-5987315D01*
X13608678Y-5987315D02*
X13627726Y-5987315D01*
X13627726Y-5987315D02*
X13637249Y-5992077D01*
X13637249Y-5992077D02*
X13642011Y-6001601D01*
X13642011Y-6001601D02*
X13642011Y-6011125D01*
X13642011Y-6011125D02*
X13594392Y-6020648D01*
X13680107Y-6049220D02*
X13689630Y-6053982D01*
X13689630Y-6053982D02*
X13708678Y-6053982D01*
X13708678Y-6053982D02*
X13718202Y-6049220D01*
X13718202Y-6049220D02*
X13722964Y-6039696D01*
X13722964Y-6039696D02*
X13722964Y-6034934D01*
X13722964Y-6034934D02*
X13718202Y-6025410D01*
X13718202Y-6025410D02*
X13708678Y-6020648D01*
X13708678Y-6020648D02*
X13694392Y-6020648D01*
X13694392Y-6020648D02*
X13684868Y-6015887D01*
X13684868Y-6015887D02*
X13680107Y-6006363D01*
X13680107Y-6006363D02*
X13680107Y-6001601D01*
X13680107Y-6001601D02*
X13684868Y-5992077D01*
X13684868Y-5992077D02*
X13694392Y-5987315D01*
X13694392Y-5987315D02*
X13708678Y-5987315D01*
X13708678Y-5987315D02*
X13718202Y-5992077D01*
X13842011Y-6053982D02*
X13842011Y-5987315D01*
X13842011Y-5996839D02*
X13846773Y-5992077D01*
X13846773Y-5992077D02*
X13856297Y-5987315D01*
X13856297Y-5987315D02*
X13870583Y-5987315D01*
X13870583Y-5987315D02*
X13880107Y-5992077D01*
X13880107Y-5992077D02*
X13884868Y-6001601D01*
X13884868Y-6001601D02*
X13884868Y-6053982D01*
X13884868Y-6001601D02*
X13889630Y-5992077D01*
X13889630Y-5992077D02*
X13899154Y-5987315D01*
X13899154Y-5987315D02*
X13913440Y-5987315D01*
X13913440Y-5987315D02*
X13922964Y-5992077D01*
X13922964Y-5992077D02*
X13927726Y-6001601D01*
X13927726Y-6001601D02*
X13927726Y-6053982D01*
X14018202Y-5987315D02*
X14018202Y-6053982D01*
X13975345Y-5987315D02*
X13975345Y-6039696D01*
X13975345Y-6039696D02*
X13980107Y-6049220D01*
X13980107Y-6049220D02*
X13989630Y-6053982D01*
X13989630Y-6053982D02*
X14003916Y-6053982D01*
X14003916Y-6053982D02*
X14013440Y-6049220D01*
X14013440Y-6049220D02*
X14018202Y-6044458D01*
X14061059Y-6049220D02*
X14070583Y-6053982D01*
X14070583Y-6053982D02*
X14089630Y-6053982D01*
X14089630Y-6053982D02*
X14099154Y-6049220D01*
X14099154Y-6049220D02*
X14103916Y-6039696D01*
X14103916Y-6039696D02*
X14103916Y-6034934D01*
X14103916Y-6034934D02*
X14099154Y-6025410D01*
X14099154Y-6025410D02*
X14089630Y-6020648D01*
X14089630Y-6020648D02*
X14075345Y-6020648D01*
X14075345Y-6020648D02*
X14065821Y-6015887D01*
X14065821Y-6015887D02*
X14061059Y-6006363D01*
X14061059Y-6006363D02*
X14061059Y-6001601D01*
X14061059Y-6001601D02*
X14065821Y-5992077D01*
X14065821Y-5992077D02*
X14075345Y-5987315D01*
X14075345Y-5987315D02*
X14089630Y-5987315D01*
X14089630Y-5987315D02*
X14099154Y-5992077D01*
X14132488Y-5987315D02*
X14170583Y-5987315D01*
X14146773Y-5953982D02*
X14146773Y-6039696D01*
X14146773Y-6039696D02*
X14151535Y-6049220D01*
X14151535Y-6049220D02*
X14161059Y-6053982D01*
X14161059Y-6053982D02*
X14170583Y-6053982D01*
X14280107Y-6053982D02*
X14280107Y-5953982D01*
X14280107Y-5992077D02*
X14289630Y-5987315D01*
X14289630Y-5987315D02*
X14308678Y-5987315D01*
X14308678Y-5987315D02*
X14318202Y-5992077D01*
X14318202Y-5992077D02*
X14322964Y-5996839D01*
X14322964Y-5996839D02*
X14327726Y-6006363D01*
X14327726Y-6006363D02*
X14327726Y-6034934D01*
X14327726Y-6034934D02*
X14322964Y-6044458D01*
X14322964Y-6044458D02*
X14318202Y-6049220D01*
X14318202Y-6049220D02*
X14308678Y-6053982D01*
X14308678Y-6053982D02*
X14289630Y-6053982D01*
X14289630Y-6053982D02*
X14280107Y-6049220D01*
X14408678Y-6049220D02*
X14399154Y-6053982D01*
X14399154Y-6053982D02*
X14380107Y-6053982D01*
X14380107Y-6053982D02*
X14370583Y-6049220D01*
X14370583Y-6049220D02*
X14365821Y-6039696D01*
X14365821Y-6039696D02*
X14365821Y-6001601D01*
X14365821Y-6001601D02*
X14370583Y-5992077D01*
X14370583Y-5992077D02*
X14380107Y-5987315D01*
X14380107Y-5987315D02*
X14399154Y-5987315D01*
X14399154Y-5987315D02*
X14408678Y-5992077D01*
X14408678Y-5992077D02*
X14413440Y-6001601D01*
X14413440Y-6001601D02*
X14413440Y-6011125D01*
X14413440Y-6011125D02*
X14365821Y-6020648D01*
X14537250Y-6053982D02*
X14556297Y-6053982D01*
X14556297Y-6053982D02*
X14565821Y-6049220D01*
X14565821Y-6049220D02*
X14570583Y-6044458D01*
X14570583Y-6044458D02*
X14580107Y-6030172D01*
X14580107Y-6030172D02*
X14584869Y-6011125D01*
X14584869Y-6011125D02*
X14584869Y-5973029D01*
X14584869Y-5973029D02*
X14580107Y-5963506D01*
X14580107Y-5963506D02*
X14575345Y-5958744D01*
X14575345Y-5958744D02*
X14565821Y-5953982D01*
X14565821Y-5953982D02*
X14546773Y-5953982D01*
X14546773Y-5953982D02*
X14537250Y-5958744D01*
X14537250Y-5958744D02*
X14532488Y-5963506D01*
X14532488Y-5963506D02*
X14527726Y-5973029D01*
X14527726Y-5973029D02*
X14527726Y-5996839D01*
X14527726Y-5996839D02*
X14532488Y-6006363D01*
X14532488Y-6006363D02*
X14537250Y-6011125D01*
X14537250Y-6011125D02*
X14546773Y-6015887D01*
X14546773Y-6015887D02*
X14565821Y-6015887D01*
X14565821Y-6015887D02*
X14575345Y-6011125D01*
X14575345Y-6011125D02*
X14580107Y-6006363D01*
X14580107Y-6006363D02*
X14584869Y-5996839D01*
X14646773Y-5953982D02*
X14656297Y-5953982D01*
X14656297Y-5953982D02*
X14665821Y-5958744D01*
X14665821Y-5958744D02*
X14670583Y-5963506D01*
X14670583Y-5963506D02*
X14675345Y-5973029D01*
X14675345Y-5973029D02*
X14680107Y-5992077D01*
X14680107Y-5992077D02*
X14680107Y-6015887D01*
X14680107Y-6015887D02*
X14675345Y-6034934D01*
X14675345Y-6034934D02*
X14670583Y-6044458D01*
X14670583Y-6044458D02*
X14665821Y-6049220D01*
X14665821Y-6049220D02*
X14656297Y-6053982D01*
X14656297Y-6053982D02*
X14646773Y-6053982D01*
X14646773Y-6053982D02*
X14637250Y-6049220D01*
X14637250Y-6049220D02*
X14632488Y-6044458D01*
X14632488Y-6044458D02*
X14627726Y-6034934D01*
X14627726Y-6034934D02*
X14622964Y-6015887D01*
X14622964Y-6015887D02*
X14622964Y-5992077D01*
X14622964Y-5992077D02*
X14627726Y-5973029D01*
X14627726Y-5973029D02*
X14632488Y-5963506D01*
X14632488Y-5963506D02*
X14637250Y-5958744D01*
X14637250Y-5958744D02*
X14646773Y-5953982D01*
X14818202Y-5953982D02*
X14837250Y-5953982D01*
X14837250Y-5953982D02*
X14846773Y-5958744D01*
X14846773Y-5958744D02*
X14856297Y-5968268D01*
X14856297Y-5968268D02*
X14861059Y-5987315D01*
X14861059Y-5987315D02*
X14861059Y-6020648D01*
X14861059Y-6020648D02*
X14856297Y-6039696D01*
X14856297Y-6039696D02*
X14846773Y-6049220D01*
X14846773Y-6049220D02*
X14837250Y-6053982D01*
X14837250Y-6053982D02*
X14818202Y-6053982D01*
X14818202Y-6053982D02*
X14808678Y-6049220D01*
X14808678Y-6049220D02*
X14799154Y-6039696D01*
X14799154Y-6039696D02*
X14794392Y-6020648D01*
X14794392Y-6020648D02*
X14794392Y-5987315D01*
X14794392Y-5987315D02*
X14799154Y-5968268D01*
X14799154Y-5968268D02*
X14808678Y-5958744D01*
X14808678Y-5958744D02*
X14818202Y-5953982D01*
X14903916Y-6053982D02*
X14903916Y-5953982D01*
X14946773Y-6053982D02*
X14946773Y-6001601D01*
X14946773Y-6001601D02*
X14942011Y-5992077D01*
X14942011Y-5992077D02*
X14932488Y-5987315D01*
X14932488Y-5987315D02*
X14918202Y-5987315D01*
X14918202Y-5987315D02*
X14908678Y-5992077D01*
X14908678Y-5992077D02*
X14903916Y-5996839D01*
X14994392Y-6053982D02*
X14994392Y-5987315D01*
X14994392Y-5996839D02*
X14999154Y-5992077D01*
X14999154Y-5992077D02*
X15008678Y-5987315D01*
X15008678Y-5987315D02*
X15022964Y-5987315D01*
X15022964Y-5987315D02*
X15032488Y-5992077D01*
X15032488Y-5992077D02*
X15037250Y-6001601D01*
X15037250Y-6001601D02*
X15037250Y-6053982D01*
X15037250Y-6001601D02*
X15042011Y-5992077D01*
X15042011Y-5992077D02*
X15051535Y-5987315D01*
X15051535Y-5987315D02*
X15065821Y-5987315D01*
X15065821Y-5987315D02*
X15075345Y-5992077D01*
X15075345Y-5992077D02*
X15080107Y-6001601D01*
X15080107Y-6001601D02*
X15080107Y-6053982D01*
X15122964Y-6049220D02*
X15132488Y-6053982D01*
X15132488Y-6053982D02*
X15151535Y-6053982D01*
X15151535Y-6053982D02*
X15161059Y-6049220D01*
X15161059Y-6049220D02*
X15165821Y-6039696D01*
X15165821Y-6039696D02*
X15165821Y-6034934D01*
X15165821Y-6034934D02*
X15161059Y-6025410D01*
X15161059Y-6025410D02*
X15151535Y-6020648D01*
X15151535Y-6020648D02*
X15137250Y-6020648D01*
X15137250Y-6020648D02*
X15127726Y-6015887D01*
X15127726Y-6015887D02*
X15122964Y-6006363D01*
X15122964Y-6006363D02*
X15122964Y-6001601D01*
X15122964Y-6001601D02*
X15127726Y-5992077D01*
X15127726Y-5992077D02*
X15137250Y-5987315D01*
X15137250Y-5987315D02*
X15151535Y-5987315D01*
X15151535Y-5987315D02*
X15161059Y-5992077D01*
X12908678Y-6214976D02*
X12908678Y-6114976D01*
X12908678Y-6114976D02*
X12932487Y-6114976D01*
X12932487Y-6114976D02*
X12946773Y-6119738D01*
X12946773Y-6119738D02*
X12956297Y-6129262D01*
X12956297Y-6129262D02*
X12961059Y-6138786D01*
X12961059Y-6138786D02*
X12965821Y-6157833D01*
X12965821Y-6157833D02*
X12965821Y-6172119D01*
X12965821Y-6172119D02*
X12961059Y-6191167D01*
X12961059Y-6191167D02*
X12956297Y-6200690D01*
X12956297Y-6200690D02*
X12946773Y-6210214D01*
X12946773Y-6210214D02*
X12932487Y-6214976D01*
X12932487Y-6214976D02*
X12908678Y-6214976D01*
X13008678Y-6214976D02*
X13008678Y-6148310D01*
X13008678Y-6114976D02*
X13003916Y-6119738D01*
X13003916Y-6119738D02*
X13008678Y-6124500D01*
X13008678Y-6124500D02*
X13013440Y-6119738D01*
X13013440Y-6119738D02*
X13008678Y-6114976D01*
X13008678Y-6114976D02*
X13008678Y-6124500D01*
X13042011Y-6148310D02*
X13080106Y-6148310D01*
X13056297Y-6214976D02*
X13056297Y-6129262D01*
X13056297Y-6129262D02*
X13061059Y-6119738D01*
X13061059Y-6119738D02*
X13070583Y-6114976D01*
X13070583Y-6114976D02*
X13080106Y-6114976D01*
X13099154Y-6148310D02*
X13137249Y-6148310D01*
X13113440Y-6214976D02*
X13113440Y-6129262D01*
X13113440Y-6129262D02*
X13118202Y-6119738D01*
X13118202Y-6119738D02*
X13127725Y-6114976D01*
X13127725Y-6114976D02*
X13137249Y-6114976D01*
X13208678Y-6210214D02*
X13199154Y-6214976D01*
X13199154Y-6214976D02*
X13180106Y-6214976D01*
X13180106Y-6214976D02*
X13170583Y-6210214D01*
X13170583Y-6210214D02*
X13165821Y-6200690D01*
X13165821Y-6200690D02*
X13165821Y-6162595D01*
X13165821Y-6162595D02*
X13170583Y-6153071D01*
X13170583Y-6153071D02*
X13180106Y-6148310D01*
X13180106Y-6148310D02*
X13199154Y-6148310D01*
X13199154Y-6148310D02*
X13208678Y-6153071D01*
X13208678Y-6153071D02*
X13213440Y-6162595D01*
X13213440Y-6162595D02*
X13213440Y-6172119D01*
X13213440Y-6172119D02*
X13165821Y-6181643D01*
X13256297Y-6214976D02*
X13256297Y-6148310D01*
X13256297Y-6167357D02*
X13261059Y-6157833D01*
X13261059Y-6157833D02*
X13265821Y-6153071D01*
X13265821Y-6153071D02*
X13275345Y-6148310D01*
X13275345Y-6148310D02*
X13284868Y-6148310D01*
X13356297Y-6210214D02*
X13346773Y-6214976D01*
X13346773Y-6214976D02*
X13327726Y-6214976D01*
X13327726Y-6214976D02*
X13318202Y-6210214D01*
X13318202Y-6210214D02*
X13313440Y-6200690D01*
X13313440Y-6200690D02*
X13313440Y-6162595D01*
X13313440Y-6162595D02*
X13318202Y-6153071D01*
X13318202Y-6153071D02*
X13327726Y-6148310D01*
X13327726Y-6148310D02*
X13346773Y-6148310D01*
X13346773Y-6148310D02*
X13356297Y-6153071D01*
X13356297Y-6153071D02*
X13361059Y-6162595D01*
X13361059Y-6162595D02*
X13361059Y-6172119D01*
X13361059Y-6172119D02*
X13313440Y-6181643D01*
X13403916Y-6148310D02*
X13403916Y-6214976D01*
X13403916Y-6157833D02*
X13408678Y-6153071D01*
X13408678Y-6153071D02*
X13418202Y-6148310D01*
X13418202Y-6148310D02*
X13432487Y-6148310D01*
X13432487Y-6148310D02*
X13442011Y-6153071D01*
X13442011Y-6153071D02*
X13446773Y-6162595D01*
X13446773Y-6162595D02*
X13446773Y-6214976D01*
X13480107Y-6148310D02*
X13518202Y-6148310D01*
X13494392Y-6114976D02*
X13494392Y-6200690D01*
X13494392Y-6200690D02*
X13499154Y-6210214D01*
X13499154Y-6210214D02*
X13508678Y-6214976D01*
X13508678Y-6214976D02*
X13518202Y-6214976D01*
X13551535Y-6214976D02*
X13551535Y-6148310D01*
X13551535Y-6114976D02*
X13546773Y-6119738D01*
X13546773Y-6119738D02*
X13551535Y-6124500D01*
X13551535Y-6124500D02*
X13556297Y-6119738D01*
X13556297Y-6119738D02*
X13551535Y-6114976D01*
X13551535Y-6114976D02*
X13551535Y-6124500D01*
X13642011Y-6214976D02*
X13642011Y-6162595D01*
X13642011Y-6162595D02*
X13637249Y-6153071D01*
X13637249Y-6153071D02*
X13627726Y-6148310D01*
X13627726Y-6148310D02*
X13608678Y-6148310D01*
X13608678Y-6148310D02*
X13599154Y-6153071D01*
X13642011Y-6210214D02*
X13632487Y-6214976D01*
X13632487Y-6214976D02*
X13608678Y-6214976D01*
X13608678Y-6214976D02*
X13599154Y-6210214D01*
X13599154Y-6210214D02*
X13594392Y-6200690D01*
X13594392Y-6200690D02*
X13594392Y-6191167D01*
X13594392Y-6191167D02*
X13599154Y-6181643D01*
X13599154Y-6181643D02*
X13608678Y-6176881D01*
X13608678Y-6176881D02*
X13632487Y-6176881D01*
X13632487Y-6176881D02*
X13642011Y-6172119D01*
X13703916Y-6214976D02*
X13694392Y-6210214D01*
X13694392Y-6210214D02*
X13689630Y-6200690D01*
X13689630Y-6200690D02*
X13689630Y-6114976D01*
X13846773Y-6253071D02*
X13842011Y-6248310D01*
X13842011Y-6248310D02*
X13832488Y-6234024D01*
X13832488Y-6234024D02*
X13827726Y-6224500D01*
X13827726Y-6224500D02*
X13822964Y-6210214D01*
X13822964Y-6210214D02*
X13818202Y-6186405D01*
X13818202Y-6186405D02*
X13818202Y-6167357D01*
X13818202Y-6167357D02*
X13822964Y-6143548D01*
X13822964Y-6143548D02*
X13827726Y-6129262D01*
X13827726Y-6129262D02*
X13832488Y-6119738D01*
X13832488Y-6119738D02*
X13842011Y-6105452D01*
X13842011Y-6105452D02*
X13846773Y-6100690D01*
X13875345Y-6114976D02*
X13942011Y-6114976D01*
X13942011Y-6114976D02*
X13875345Y-6214976D01*
X13875345Y-6214976D02*
X13942011Y-6214976D01*
X13994392Y-6214976D02*
X13984869Y-6210214D01*
X13984869Y-6210214D02*
X13980107Y-6205452D01*
X13980107Y-6205452D02*
X13975345Y-6195929D01*
X13975345Y-6195929D02*
X13975345Y-6167357D01*
X13975345Y-6167357D02*
X13980107Y-6157833D01*
X13980107Y-6157833D02*
X13984869Y-6153071D01*
X13984869Y-6153071D02*
X13994392Y-6148310D01*
X13994392Y-6148310D02*
X14008678Y-6148310D01*
X14008678Y-6148310D02*
X14018202Y-6153071D01*
X14018202Y-6153071D02*
X14022964Y-6157833D01*
X14022964Y-6157833D02*
X14027726Y-6167357D01*
X14027726Y-6167357D02*
X14027726Y-6195929D01*
X14027726Y-6195929D02*
X14022964Y-6205452D01*
X14022964Y-6205452D02*
X14018202Y-6210214D01*
X14018202Y-6210214D02*
X14008678Y-6214976D01*
X14008678Y-6214976D02*
X13994392Y-6214976D01*
X14113440Y-6214976D02*
X14113440Y-6114976D01*
X14113440Y-6210214D02*
X14103916Y-6214976D01*
X14103916Y-6214976D02*
X14084869Y-6214976D01*
X14084869Y-6214976D02*
X14075345Y-6210214D01*
X14075345Y-6210214D02*
X14070583Y-6205452D01*
X14070583Y-6205452D02*
X14065821Y-6195929D01*
X14065821Y-6195929D02*
X14065821Y-6167357D01*
X14065821Y-6167357D02*
X14070583Y-6157833D01*
X14070583Y-6157833D02*
X14075345Y-6153071D01*
X14075345Y-6153071D02*
X14084869Y-6148310D01*
X14084869Y-6148310D02*
X14103916Y-6148310D01*
X14103916Y-6148310D02*
X14113440Y-6153071D01*
X14203916Y-6214976D02*
X14203916Y-6114976D01*
X14203916Y-6210214D02*
X14194392Y-6214976D01*
X14194392Y-6214976D02*
X14175345Y-6214976D01*
X14175345Y-6214976D02*
X14165821Y-6210214D01*
X14165821Y-6210214D02*
X14161059Y-6205452D01*
X14161059Y-6205452D02*
X14156297Y-6195929D01*
X14156297Y-6195929D02*
X14156297Y-6167357D01*
X14156297Y-6167357D02*
X14161059Y-6157833D01*
X14161059Y-6157833D02*
X14165821Y-6153071D01*
X14165821Y-6153071D02*
X14175345Y-6148310D01*
X14175345Y-6148310D02*
X14194392Y-6148310D01*
X14194392Y-6148310D02*
X14203916Y-6153071D01*
X14251535Y-6162595D02*
X14327726Y-6162595D01*
X14327726Y-6191167D02*
X14251535Y-6191167D01*
X14418202Y-6148310D02*
X14418202Y-6214976D01*
X14394392Y-6110214D02*
X14370583Y-6181643D01*
X14370583Y-6181643D02*
X14432488Y-6181643D01*
X14518202Y-6114976D02*
X14470583Y-6114976D01*
X14470583Y-6114976D02*
X14465821Y-6162595D01*
X14465821Y-6162595D02*
X14470583Y-6157833D01*
X14470583Y-6157833D02*
X14480107Y-6153071D01*
X14480107Y-6153071D02*
X14503916Y-6153071D01*
X14503916Y-6153071D02*
X14513440Y-6157833D01*
X14513440Y-6157833D02*
X14518202Y-6162595D01*
X14518202Y-6162595D02*
X14522964Y-6172119D01*
X14522964Y-6172119D02*
X14522964Y-6195929D01*
X14522964Y-6195929D02*
X14518202Y-6205452D01*
X14518202Y-6205452D02*
X14513440Y-6210214D01*
X14513440Y-6210214D02*
X14503916Y-6214976D01*
X14503916Y-6214976D02*
X14480107Y-6214976D01*
X14480107Y-6214976D02*
X14470583Y-6210214D01*
X14470583Y-6210214D02*
X14465821Y-6205452D01*
X14661059Y-6114976D02*
X14680107Y-6114976D01*
X14680107Y-6114976D02*
X14689630Y-6119738D01*
X14689630Y-6119738D02*
X14699154Y-6129262D01*
X14699154Y-6129262D02*
X14703916Y-6148310D01*
X14703916Y-6148310D02*
X14703916Y-6181643D01*
X14703916Y-6181643D02*
X14699154Y-6200690D01*
X14699154Y-6200690D02*
X14689630Y-6210214D01*
X14689630Y-6210214D02*
X14680107Y-6214976D01*
X14680107Y-6214976D02*
X14661059Y-6214976D01*
X14661059Y-6214976D02*
X14651535Y-6210214D01*
X14651535Y-6210214D02*
X14642011Y-6200690D01*
X14642011Y-6200690D02*
X14637250Y-6181643D01*
X14637250Y-6181643D02*
X14637250Y-6148310D01*
X14637250Y-6148310D02*
X14642011Y-6129262D01*
X14642011Y-6129262D02*
X14651535Y-6119738D01*
X14651535Y-6119738D02*
X14661059Y-6114976D01*
X14746773Y-6214976D02*
X14746773Y-6114976D01*
X14789630Y-6214976D02*
X14789630Y-6162595D01*
X14789630Y-6162595D02*
X14784869Y-6153071D01*
X14784869Y-6153071D02*
X14775345Y-6148310D01*
X14775345Y-6148310D02*
X14761059Y-6148310D01*
X14761059Y-6148310D02*
X14751535Y-6153071D01*
X14751535Y-6153071D02*
X14746773Y-6157833D01*
X14837250Y-6214976D02*
X14837250Y-6148310D01*
X14837250Y-6157833D02*
X14842011Y-6153071D01*
X14842011Y-6153071D02*
X14851535Y-6148310D01*
X14851535Y-6148310D02*
X14865821Y-6148310D01*
X14865821Y-6148310D02*
X14875345Y-6153071D01*
X14875345Y-6153071D02*
X14880107Y-6162595D01*
X14880107Y-6162595D02*
X14880107Y-6214976D01*
X14880107Y-6162595D02*
X14884869Y-6153071D01*
X14884869Y-6153071D02*
X14894392Y-6148310D01*
X14894392Y-6148310D02*
X14908678Y-6148310D01*
X14908678Y-6148310D02*
X14918202Y-6153071D01*
X14918202Y-6153071D02*
X14922964Y-6162595D01*
X14922964Y-6162595D02*
X14922964Y-6214976D01*
X14965821Y-6210214D02*
X14975345Y-6214976D01*
X14975345Y-6214976D02*
X14994392Y-6214976D01*
X14994392Y-6214976D02*
X15003916Y-6210214D01*
X15003916Y-6210214D02*
X15008678Y-6200690D01*
X15008678Y-6200690D02*
X15008678Y-6195929D01*
X15008678Y-6195929D02*
X15003916Y-6186405D01*
X15003916Y-6186405D02*
X14994392Y-6181643D01*
X14994392Y-6181643D02*
X14980107Y-6181643D01*
X14980107Y-6181643D02*
X14970583Y-6176881D01*
X14970583Y-6176881D02*
X14965821Y-6167357D01*
X14965821Y-6167357D02*
X14965821Y-6162595D01*
X14965821Y-6162595D02*
X14970583Y-6153071D01*
X14970583Y-6153071D02*
X14980107Y-6148310D01*
X14980107Y-6148310D02*
X14994392Y-6148310D01*
X14994392Y-6148310D02*
X15003916Y-6153071D01*
X15042011Y-6253071D02*
X15046773Y-6248310D01*
X15046773Y-6248310D02*
X15056297Y-6234024D01*
X15056297Y-6234024D02*
X15061059Y-6224500D01*
X15061059Y-6224500D02*
X15065821Y-6210214D01*
X15065821Y-6210214D02*
X15070583Y-6186405D01*
X15070583Y-6186405D02*
X15070583Y-6167357D01*
X15070583Y-6167357D02*
X15065821Y-6143548D01*
X15065821Y-6143548D02*
X15061059Y-6129262D01*
X15061059Y-6129262D02*
X15056297Y-6119738D01*
X15056297Y-6119738D02*
X15046773Y-6105452D01*
X15046773Y-6105452D02*
X15042011Y-6100690D01*
X15122964Y-6210214D02*
X15122964Y-6214976D01*
X15122964Y-6214976D02*
X15118202Y-6224500D01*
X15118202Y-6224500D02*
X15113440Y-6229262D01*
X15232488Y-6114976D02*
X15294392Y-6114976D01*
X15294392Y-6114976D02*
X15261059Y-6153071D01*
X15261059Y-6153071D02*
X15275345Y-6153071D01*
X15275345Y-6153071D02*
X15284869Y-6157833D01*
X15284869Y-6157833D02*
X15289630Y-6162595D01*
X15289630Y-6162595D02*
X15294392Y-6172119D01*
X15294392Y-6172119D02*
X15294392Y-6195929D01*
X15294392Y-6195929D02*
X15289630Y-6205452D01*
X15289630Y-6205452D02*
X15284869Y-6210214D01*
X15284869Y-6210214D02*
X15275345Y-6214976D01*
X15275345Y-6214976D02*
X15246773Y-6214976D01*
X15246773Y-6214976D02*
X15237250Y-6210214D01*
X15237250Y-6210214D02*
X15232488Y-6205452D01*
X15356297Y-6114976D02*
X15365821Y-6114976D01*
X15365821Y-6114976D02*
X15375345Y-6119738D01*
X15375345Y-6119738D02*
X15380107Y-6124500D01*
X15380107Y-6124500D02*
X15384869Y-6134024D01*
X15384869Y-6134024D02*
X15389630Y-6153071D01*
X15389630Y-6153071D02*
X15389630Y-6176881D01*
X15389630Y-6176881D02*
X15384869Y-6195929D01*
X15384869Y-6195929D02*
X15380107Y-6205452D01*
X15380107Y-6205452D02*
X15375345Y-6210214D01*
X15375345Y-6210214D02*
X15365821Y-6214976D01*
X15365821Y-6214976D02*
X15356297Y-6214976D01*
X15356297Y-6214976D02*
X15346773Y-6210214D01*
X15346773Y-6210214D02*
X15342011Y-6205452D01*
X15342011Y-6205452D02*
X15337250Y-6195929D01*
X15337250Y-6195929D02*
X15332488Y-6176881D01*
X15332488Y-6176881D02*
X15332488Y-6153071D01*
X15332488Y-6153071D02*
X15337250Y-6134024D01*
X15337250Y-6134024D02*
X15342011Y-6124500D01*
X15342011Y-6124500D02*
X15346773Y-6119738D01*
X15346773Y-6119738D02*
X15356297Y-6114976D01*
X12927725Y-6275971D02*
X12946773Y-6275971D01*
X12946773Y-6275971D02*
X12956297Y-6280733D01*
X12956297Y-6280733D02*
X12965821Y-6290256D01*
X12965821Y-6290256D02*
X12970583Y-6309304D01*
X12970583Y-6309304D02*
X12970583Y-6342637D01*
X12970583Y-6342637D02*
X12965821Y-6361685D01*
X12965821Y-6361685D02*
X12956297Y-6371209D01*
X12956297Y-6371209D02*
X12946773Y-6375971D01*
X12946773Y-6375971D02*
X12927725Y-6375971D01*
X12927725Y-6375971D02*
X12918202Y-6371209D01*
X12918202Y-6371209D02*
X12908678Y-6361685D01*
X12908678Y-6361685D02*
X12903916Y-6342637D01*
X12903916Y-6342637D02*
X12903916Y-6309304D01*
X12903916Y-6309304D02*
X12908678Y-6290256D01*
X12908678Y-6290256D02*
X12918202Y-6280733D01*
X12918202Y-6280733D02*
X12927725Y-6275971D01*
X13013440Y-6375971D02*
X13013440Y-6275971D01*
X13056297Y-6375971D02*
X13056297Y-6323590D01*
X13056297Y-6323590D02*
X13051535Y-6314066D01*
X13051535Y-6314066D02*
X13042011Y-6309304D01*
X13042011Y-6309304D02*
X13027725Y-6309304D01*
X13027725Y-6309304D02*
X13018202Y-6314066D01*
X13018202Y-6314066D02*
X13013440Y-6318828D01*
X13103916Y-6375971D02*
X13103916Y-6309304D01*
X13103916Y-6318828D02*
X13108678Y-6314066D01*
X13108678Y-6314066D02*
X13118202Y-6309304D01*
X13118202Y-6309304D02*
X13132487Y-6309304D01*
X13132487Y-6309304D02*
X13142011Y-6314066D01*
X13142011Y-6314066D02*
X13146773Y-6323590D01*
X13146773Y-6323590D02*
X13146773Y-6375971D01*
X13146773Y-6323590D02*
X13151535Y-6314066D01*
X13151535Y-6314066D02*
X13161059Y-6309304D01*
X13161059Y-6309304D02*
X13175344Y-6309304D01*
X13175344Y-6309304D02*
X13184868Y-6314066D01*
X13184868Y-6314066D02*
X13189630Y-6323590D01*
X13189630Y-6323590D02*
X13189630Y-6375971D01*
X13232487Y-6371209D02*
X13242011Y-6375971D01*
X13242011Y-6375971D02*
X13261059Y-6375971D01*
X13261059Y-6375971D02*
X13270583Y-6371209D01*
X13270583Y-6371209D02*
X13275344Y-6361685D01*
X13275344Y-6361685D02*
X13275344Y-6356923D01*
X13275344Y-6356923D02*
X13270583Y-6347399D01*
X13270583Y-6347399D02*
X13261059Y-6342637D01*
X13261059Y-6342637D02*
X13246773Y-6342637D01*
X13246773Y-6342637D02*
X13237249Y-6337875D01*
X13237249Y-6337875D02*
X13232487Y-6328352D01*
X13232487Y-6328352D02*
X13232487Y-6323590D01*
X13232487Y-6323590D02*
X13237249Y-6314066D01*
X13237249Y-6314066D02*
X13246773Y-6309304D01*
X13246773Y-6309304D02*
X13261059Y-6309304D01*
X13261059Y-6309304D02*
X13270583Y-6314066D01*
X13451535Y-6366447D02*
X13446773Y-6371209D01*
X13446773Y-6371209D02*
X13432487Y-6375971D01*
X13432487Y-6375971D02*
X13422964Y-6375971D01*
X13422964Y-6375971D02*
X13408678Y-6371209D01*
X13408678Y-6371209D02*
X13399154Y-6361685D01*
X13399154Y-6361685D02*
X13394392Y-6352161D01*
X13394392Y-6352161D02*
X13389630Y-6333113D01*
X13389630Y-6333113D02*
X13389630Y-6318828D01*
X13389630Y-6318828D02*
X13394392Y-6299780D01*
X13394392Y-6299780D02*
X13399154Y-6290256D01*
X13399154Y-6290256D02*
X13408678Y-6280733D01*
X13408678Y-6280733D02*
X13422964Y-6275971D01*
X13422964Y-6275971D02*
X13432487Y-6275971D01*
X13432487Y-6275971D02*
X13446773Y-6280733D01*
X13446773Y-6280733D02*
X13451535Y-6285494D01*
X13508678Y-6375971D02*
X13499154Y-6371209D01*
X13499154Y-6371209D02*
X13494392Y-6366447D01*
X13494392Y-6366447D02*
X13489630Y-6356923D01*
X13489630Y-6356923D02*
X13489630Y-6328352D01*
X13489630Y-6328352D02*
X13494392Y-6318828D01*
X13494392Y-6318828D02*
X13499154Y-6314066D01*
X13499154Y-6314066D02*
X13508678Y-6309304D01*
X13508678Y-6309304D02*
X13522964Y-6309304D01*
X13522964Y-6309304D02*
X13532487Y-6314066D01*
X13532487Y-6314066D02*
X13537249Y-6318828D01*
X13537249Y-6318828D02*
X13542011Y-6328352D01*
X13542011Y-6328352D02*
X13542011Y-6356923D01*
X13542011Y-6356923D02*
X13537249Y-6366447D01*
X13537249Y-6366447D02*
X13532487Y-6371209D01*
X13532487Y-6371209D02*
X13522964Y-6375971D01*
X13522964Y-6375971D02*
X13508678Y-6375971D01*
X13584868Y-6375971D02*
X13584868Y-6309304D01*
X13584868Y-6318828D02*
X13589630Y-6314066D01*
X13589630Y-6314066D02*
X13599154Y-6309304D01*
X13599154Y-6309304D02*
X13613440Y-6309304D01*
X13613440Y-6309304D02*
X13622964Y-6314066D01*
X13622964Y-6314066D02*
X13627725Y-6323590D01*
X13627725Y-6323590D02*
X13627725Y-6375971D01*
X13627725Y-6323590D02*
X13632487Y-6314066D01*
X13632487Y-6314066D02*
X13642011Y-6309304D01*
X13642011Y-6309304D02*
X13656297Y-6309304D01*
X13656297Y-6309304D02*
X13665821Y-6314066D01*
X13665821Y-6314066D02*
X13670583Y-6323590D01*
X13670583Y-6323590D02*
X13670583Y-6375971D01*
X13718202Y-6375971D02*
X13718202Y-6309304D01*
X13718202Y-6318828D02*
X13722964Y-6314066D01*
X13722964Y-6314066D02*
X13732487Y-6309304D01*
X13732487Y-6309304D02*
X13746773Y-6309304D01*
X13746773Y-6309304D02*
X13756297Y-6314066D01*
X13756297Y-6314066D02*
X13761059Y-6323590D01*
X13761059Y-6323590D02*
X13761059Y-6375971D01*
X13761059Y-6323590D02*
X13765821Y-6314066D01*
X13765821Y-6314066D02*
X13775344Y-6309304D01*
X13775344Y-6309304D02*
X13789630Y-6309304D01*
X13789630Y-6309304D02*
X13799154Y-6314066D01*
X13799154Y-6314066D02*
X13803916Y-6323590D01*
X13803916Y-6323590D02*
X13803916Y-6375971D01*
X13865821Y-6375971D02*
X13856297Y-6371209D01*
X13856297Y-6371209D02*
X13851535Y-6366447D01*
X13851535Y-6366447D02*
X13846773Y-6356923D01*
X13846773Y-6356923D02*
X13846773Y-6328352D01*
X13846773Y-6328352D02*
X13851535Y-6318828D01*
X13851535Y-6318828D02*
X13856297Y-6314066D01*
X13856297Y-6314066D02*
X13865821Y-6309304D01*
X13865821Y-6309304D02*
X13880106Y-6309304D01*
X13880106Y-6309304D02*
X13889630Y-6314066D01*
X13889630Y-6314066D02*
X13894392Y-6318828D01*
X13894392Y-6318828D02*
X13899154Y-6328352D01*
X13899154Y-6328352D02*
X13899154Y-6356923D01*
X13899154Y-6356923D02*
X13894392Y-6366447D01*
X13894392Y-6366447D02*
X13889630Y-6371209D01*
X13889630Y-6371209D02*
X13880106Y-6375971D01*
X13880106Y-6375971D02*
X13865821Y-6375971D01*
X13942011Y-6309304D02*
X13942011Y-6375971D01*
X13942011Y-6318828D02*
X13946773Y-6314066D01*
X13946773Y-6314066D02*
X13956297Y-6309304D01*
X13956297Y-6309304D02*
X13970583Y-6309304D01*
X13970583Y-6309304D02*
X13980106Y-6314066D01*
X13980106Y-6314066D02*
X13984868Y-6323590D01*
X13984868Y-6323590D02*
X13984868Y-6375971D01*
X14137249Y-6414066D02*
X14132487Y-6409304D01*
X14132487Y-6409304D02*
X14122964Y-6395018D01*
X14122964Y-6395018D02*
X14118202Y-6385494D01*
X14118202Y-6385494D02*
X14113440Y-6371209D01*
X14113440Y-6371209D02*
X14108678Y-6347399D01*
X14108678Y-6347399D02*
X14108678Y-6328352D01*
X14108678Y-6328352D02*
X14113440Y-6304542D01*
X14113440Y-6304542D02*
X14118202Y-6290256D01*
X14118202Y-6290256D02*
X14122964Y-6280733D01*
X14122964Y-6280733D02*
X14132487Y-6266447D01*
X14132487Y-6266447D02*
X14137249Y-6261685D01*
X14165821Y-6275971D02*
X14232487Y-6275971D01*
X14232487Y-6275971D02*
X14165821Y-6375971D01*
X14165821Y-6375971D02*
X14232487Y-6375971D01*
X14308678Y-6371209D02*
X14299154Y-6375971D01*
X14299154Y-6375971D02*
X14280106Y-6375971D01*
X14280106Y-6375971D02*
X14270583Y-6371209D01*
X14270583Y-6371209D02*
X14265821Y-6361685D01*
X14265821Y-6361685D02*
X14265821Y-6323590D01*
X14265821Y-6323590D02*
X14270583Y-6314066D01*
X14270583Y-6314066D02*
X14280106Y-6309304D01*
X14280106Y-6309304D02*
X14299154Y-6309304D01*
X14299154Y-6309304D02*
X14308678Y-6314066D01*
X14308678Y-6314066D02*
X14313440Y-6323590D01*
X14313440Y-6323590D02*
X14313440Y-6333113D01*
X14313440Y-6333113D02*
X14265821Y-6342637D01*
X14346773Y-6309304D02*
X14370583Y-6375971D01*
X14370583Y-6375971D02*
X14394392Y-6309304D01*
X14470583Y-6371209D02*
X14461059Y-6375971D01*
X14461059Y-6375971D02*
X14442011Y-6375971D01*
X14442011Y-6375971D02*
X14432487Y-6371209D01*
X14432487Y-6371209D02*
X14427726Y-6361685D01*
X14427726Y-6361685D02*
X14427726Y-6323590D01*
X14427726Y-6323590D02*
X14432487Y-6314066D01*
X14432487Y-6314066D02*
X14442011Y-6309304D01*
X14442011Y-6309304D02*
X14461059Y-6309304D01*
X14461059Y-6309304D02*
X14470583Y-6314066D01*
X14470583Y-6314066D02*
X14475345Y-6323590D01*
X14475345Y-6323590D02*
X14475345Y-6333113D01*
X14475345Y-6333113D02*
X14427726Y-6342637D01*
X14518202Y-6309304D02*
X14518202Y-6375971D01*
X14518202Y-6318828D02*
X14522964Y-6314066D01*
X14522964Y-6314066D02*
X14532487Y-6309304D01*
X14532487Y-6309304D02*
X14546773Y-6309304D01*
X14546773Y-6309304D02*
X14556297Y-6314066D01*
X14556297Y-6314066D02*
X14561059Y-6323590D01*
X14561059Y-6323590D02*
X14561059Y-6375971D01*
X14608678Y-6323590D02*
X14684868Y-6323590D01*
X14684868Y-6352161D02*
X14608678Y-6352161D01*
X14775345Y-6275971D02*
X14756297Y-6275971D01*
X14756297Y-6275971D02*
X14746773Y-6280733D01*
X14746773Y-6280733D02*
X14742011Y-6285494D01*
X14742011Y-6285494D02*
X14732487Y-6299780D01*
X14732487Y-6299780D02*
X14727726Y-6318828D01*
X14727726Y-6318828D02*
X14727726Y-6356923D01*
X14727726Y-6356923D02*
X14732487Y-6366447D01*
X14732487Y-6366447D02*
X14737249Y-6371209D01*
X14737249Y-6371209D02*
X14746773Y-6375971D01*
X14746773Y-6375971D02*
X14765821Y-6375971D01*
X14765821Y-6375971D02*
X14775345Y-6371209D01*
X14775345Y-6371209D02*
X14780106Y-6366447D01*
X14780106Y-6366447D02*
X14784868Y-6356923D01*
X14784868Y-6356923D02*
X14784868Y-6333113D01*
X14784868Y-6333113D02*
X14780106Y-6323590D01*
X14780106Y-6323590D02*
X14775345Y-6318828D01*
X14775345Y-6318828D02*
X14765821Y-6314066D01*
X14765821Y-6314066D02*
X14746773Y-6314066D01*
X14746773Y-6314066D02*
X14737249Y-6318828D01*
X14737249Y-6318828D02*
X14732487Y-6323590D01*
X14732487Y-6323590D02*
X14727726Y-6333113D01*
X14846773Y-6275971D02*
X14856297Y-6275971D01*
X14856297Y-6275971D02*
X14865821Y-6280733D01*
X14865821Y-6280733D02*
X14870583Y-6285494D01*
X14870583Y-6285494D02*
X14875345Y-6295018D01*
X14875345Y-6295018D02*
X14880106Y-6314066D01*
X14880106Y-6314066D02*
X14880106Y-6337875D01*
X14880106Y-6337875D02*
X14875345Y-6356923D01*
X14875345Y-6356923D02*
X14870583Y-6366447D01*
X14870583Y-6366447D02*
X14865821Y-6371209D01*
X14865821Y-6371209D02*
X14856297Y-6375971D01*
X14856297Y-6375971D02*
X14846773Y-6375971D01*
X14846773Y-6375971D02*
X14837249Y-6371209D01*
X14837249Y-6371209D02*
X14832487Y-6366447D01*
X14832487Y-6366447D02*
X14827726Y-6356923D01*
X14827726Y-6356923D02*
X14822964Y-6337875D01*
X14822964Y-6337875D02*
X14822964Y-6314066D01*
X14822964Y-6314066D02*
X14827726Y-6295018D01*
X14827726Y-6295018D02*
X14832487Y-6285494D01*
X14832487Y-6285494D02*
X14837249Y-6280733D01*
X14837249Y-6280733D02*
X14846773Y-6275971D01*
X15018202Y-6275971D02*
X15037249Y-6275971D01*
X15037249Y-6275971D02*
X15046773Y-6280733D01*
X15046773Y-6280733D02*
X15056297Y-6290256D01*
X15056297Y-6290256D02*
X15061059Y-6309304D01*
X15061059Y-6309304D02*
X15061059Y-6342637D01*
X15061059Y-6342637D02*
X15056297Y-6361685D01*
X15056297Y-6361685D02*
X15046773Y-6371209D01*
X15046773Y-6371209D02*
X15037249Y-6375971D01*
X15037249Y-6375971D02*
X15018202Y-6375971D01*
X15018202Y-6375971D02*
X15008678Y-6371209D01*
X15008678Y-6371209D02*
X14999154Y-6361685D01*
X14999154Y-6361685D02*
X14994392Y-6342637D01*
X14994392Y-6342637D02*
X14994392Y-6309304D01*
X14994392Y-6309304D02*
X14999154Y-6290256D01*
X14999154Y-6290256D02*
X15008678Y-6280733D01*
X15008678Y-6280733D02*
X15018202Y-6275971D01*
X15103916Y-6375971D02*
X15103916Y-6275971D01*
X15146773Y-6375971D02*
X15146773Y-6323590D01*
X15146773Y-6323590D02*
X15142011Y-6314066D01*
X15142011Y-6314066D02*
X15132487Y-6309304D01*
X15132487Y-6309304D02*
X15118202Y-6309304D01*
X15118202Y-6309304D02*
X15108678Y-6314066D01*
X15108678Y-6314066D02*
X15103916Y-6318828D01*
X15194392Y-6375971D02*
X15194392Y-6309304D01*
X15194392Y-6318828D02*
X15199154Y-6314066D01*
X15199154Y-6314066D02*
X15208678Y-6309304D01*
X15208678Y-6309304D02*
X15222964Y-6309304D01*
X15222964Y-6309304D02*
X15232487Y-6314066D01*
X15232487Y-6314066D02*
X15237249Y-6323590D01*
X15237249Y-6323590D02*
X15237249Y-6375971D01*
X15237249Y-6323590D02*
X15242011Y-6314066D01*
X15242011Y-6314066D02*
X15251535Y-6309304D01*
X15251535Y-6309304D02*
X15265821Y-6309304D01*
X15265821Y-6309304D02*
X15275345Y-6314066D01*
X15275345Y-6314066D02*
X15280107Y-6323590D01*
X15280107Y-6323590D02*
X15280107Y-6375971D01*
X15322964Y-6371209D02*
X15332487Y-6375971D01*
X15332487Y-6375971D02*
X15351535Y-6375971D01*
X15351535Y-6375971D02*
X15361059Y-6371209D01*
X15361059Y-6371209D02*
X15365821Y-6361685D01*
X15365821Y-6361685D02*
X15365821Y-6356923D01*
X15365821Y-6356923D02*
X15361059Y-6347399D01*
X15361059Y-6347399D02*
X15351535Y-6342637D01*
X15351535Y-6342637D02*
X15337249Y-6342637D01*
X15337249Y-6342637D02*
X15327726Y-6337875D01*
X15327726Y-6337875D02*
X15322964Y-6328352D01*
X15322964Y-6328352D02*
X15322964Y-6323590D01*
X15322964Y-6323590D02*
X15327726Y-6314066D01*
X15327726Y-6314066D02*
X15337249Y-6309304D01*
X15337249Y-6309304D02*
X15351535Y-6309304D01*
X15351535Y-6309304D02*
X15361059Y-6314066D01*
X15399154Y-6414066D02*
X15403916Y-6409304D01*
X15403916Y-6409304D02*
X15413440Y-6395018D01*
X15413440Y-6395018D02*
X15418202Y-6385494D01*
X15418202Y-6385494D02*
X15422964Y-6371209D01*
X15422964Y-6371209D02*
X15427726Y-6347399D01*
X15427726Y-6347399D02*
X15427726Y-6328352D01*
X15427726Y-6328352D02*
X15422964Y-6304542D01*
X15422964Y-6304542D02*
X15418202Y-6290256D01*
X15418202Y-6290256D02*
X15413440Y-6280733D01*
X15413440Y-6280733D02*
X15403916Y-6266447D01*
X15403916Y-6266447D02*
X15399154Y-6261685D01*
X15475345Y-6366447D02*
X15480107Y-6371209D01*
X15480107Y-6371209D02*
X15475345Y-6375971D01*
X15475345Y-6375971D02*
X15470583Y-6371209D01*
X15470583Y-6371209D02*
X15475345Y-6366447D01*
X15475345Y-6366447D02*
X15475345Y-6375971D01*
X12937249Y-6597959D02*
X12937249Y-6669388D01*
X12937249Y-6669388D02*
X12932487Y-6683674D01*
X12932487Y-6683674D02*
X12922964Y-6693198D01*
X12922964Y-6693198D02*
X12908678Y-6697959D01*
X12908678Y-6697959D02*
X12899154Y-6697959D01*
X13032487Y-6697959D02*
X12984868Y-6697959D01*
X12984868Y-6697959D02*
X12984868Y-6597959D01*
X13122964Y-6688436D02*
X13118202Y-6693198D01*
X13118202Y-6693198D02*
X13103916Y-6697959D01*
X13103916Y-6697959D02*
X13094392Y-6697959D01*
X13094392Y-6697959D02*
X13080106Y-6693198D01*
X13080106Y-6693198D02*
X13070583Y-6683674D01*
X13070583Y-6683674D02*
X13065821Y-6674150D01*
X13065821Y-6674150D02*
X13061059Y-6655102D01*
X13061059Y-6655102D02*
X13061059Y-6640817D01*
X13061059Y-6640817D02*
X13065821Y-6621769D01*
X13065821Y-6621769D02*
X13070583Y-6612245D01*
X13070583Y-6612245D02*
X13080106Y-6602721D01*
X13080106Y-6602721D02*
X13094392Y-6597959D01*
X13094392Y-6597959D02*
X13103916Y-6597959D01*
X13103916Y-6597959D02*
X13118202Y-6602721D01*
X13118202Y-6602721D02*
X13122964Y-6607483D01*
X13165821Y-6697959D02*
X13165821Y-6597959D01*
X13165821Y-6597959D02*
X13203916Y-6597959D01*
X13203916Y-6597959D02*
X13213440Y-6602721D01*
X13213440Y-6602721D02*
X13218202Y-6607483D01*
X13218202Y-6607483D02*
X13222964Y-6617007D01*
X13222964Y-6617007D02*
X13222964Y-6631293D01*
X13222964Y-6631293D02*
X13218202Y-6640817D01*
X13218202Y-6640817D02*
X13213440Y-6645578D01*
X13213440Y-6645578D02*
X13203916Y-6650340D01*
X13203916Y-6650340D02*
X13165821Y-6650340D01*
X13322964Y-6688436D02*
X13318202Y-6693198D01*
X13318202Y-6693198D02*
X13303916Y-6697959D01*
X13303916Y-6697959D02*
X13294392Y-6697959D01*
X13294392Y-6697959D02*
X13280106Y-6693198D01*
X13280106Y-6693198D02*
X13270583Y-6683674D01*
X13270583Y-6683674D02*
X13265821Y-6674150D01*
X13265821Y-6674150D02*
X13261059Y-6655102D01*
X13261059Y-6655102D02*
X13261059Y-6640817D01*
X13261059Y-6640817D02*
X13265821Y-6621769D01*
X13265821Y-6621769D02*
X13270583Y-6612245D01*
X13270583Y-6612245D02*
X13280106Y-6602721D01*
X13280106Y-6602721D02*
X13294392Y-6597959D01*
X13294392Y-6597959D02*
X13303916Y-6597959D01*
X13303916Y-6597959D02*
X13318202Y-6602721D01*
X13318202Y-6602721D02*
X13322964Y-6607483D01*
X13399154Y-6645578D02*
X13413440Y-6650340D01*
X13413440Y-6650340D02*
X13418202Y-6655102D01*
X13418202Y-6655102D02*
X13422964Y-6664626D01*
X13422964Y-6664626D02*
X13422964Y-6678912D01*
X13422964Y-6678912D02*
X13418202Y-6688436D01*
X13418202Y-6688436D02*
X13413440Y-6693198D01*
X13413440Y-6693198D02*
X13403916Y-6697959D01*
X13403916Y-6697959D02*
X13365821Y-6697959D01*
X13365821Y-6697959D02*
X13365821Y-6597959D01*
X13365821Y-6597959D02*
X13399154Y-6597959D01*
X13399154Y-6597959D02*
X13408678Y-6602721D01*
X13408678Y-6602721D02*
X13413440Y-6607483D01*
X13413440Y-6607483D02*
X13418202Y-6617007D01*
X13418202Y-6617007D02*
X13418202Y-6626531D01*
X13418202Y-6626531D02*
X13413440Y-6636055D01*
X13413440Y-6636055D02*
X13408678Y-6640817D01*
X13408678Y-6640817D02*
X13399154Y-6645578D01*
X13399154Y-6645578D02*
X13365821Y-6645578D01*
X13537249Y-6693198D02*
X13551535Y-6697959D01*
X13551535Y-6697959D02*
X13575345Y-6697959D01*
X13575345Y-6697959D02*
X13584868Y-6693198D01*
X13584868Y-6693198D02*
X13589630Y-6688436D01*
X13589630Y-6688436D02*
X13594392Y-6678912D01*
X13594392Y-6678912D02*
X13594392Y-6669388D01*
X13594392Y-6669388D02*
X13589630Y-6659864D01*
X13589630Y-6659864D02*
X13584868Y-6655102D01*
X13584868Y-6655102D02*
X13575345Y-6650340D01*
X13575345Y-6650340D02*
X13556297Y-6645578D01*
X13556297Y-6645578D02*
X13546773Y-6640817D01*
X13546773Y-6640817D02*
X13542011Y-6636055D01*
X13542011Y-6636055D02*
X13537249Y-6626531D01*
X13537249Y-6626531D02*
X13537249Y-6617007D01*
X13537249Y-6617007D02*
X13542011Y-6607483D01*
X13542011Y-6607483D02*
X13546773Y-6602721D01*
X13546773Y-6602721D02*
X13556297Y-6597959D01*
X13556297Y-6597959D02*
X13580106Y-6597959D01*
X13580106Y-6597959D02*
X13594392Y-6602721D01*
X13622964Y-6631293D02*
X13661059Y-6631293D01*
X13637249Y-6597959D02*
X13637249Y-6683674D01*
X13637249Y-6683674D02*
X13642011Y-6693198D01*
X13642011Y-6693198D02*
X13651535Y-6697959D01*
X13651535Y-6697959D02*
X13661059Y-6697959D01*
X13737249Y-6697959D02*
X13737249Y-6645578D01*
X13737249Y-6645578D02*
X13732487Y-6636055D01*
X13732487Y-6636055D02*
X13722964Y-6631293D01*
X13722964Y-6631293D02*
X13703916Y-6631293D01*
X13703916Y-6631293D02*
X13694392Y-6636055D01*
X13737249Y-6693198D02*
X13727726Y-6697959D01*
X13727726Y-6697959D02*
X13703916Y-6697959D01*
X13703916Y-6697959D02*
X13694392Y-6693198D01*
X13694392Y-6693198D02*
X13689630Y-6683674D01*
X13689630Y-6683674D02*
X13689630Y-6674150D01*
X13689630Y-6674150D02*
X13694392Y-6664626D01*
X13694392Y-6664626D02*
X13703916Y-6659864D01*
X13703916Y-6659864D02*
X13727726Y-6659864D01*
X13727726Y-6659864D02*
X13737249Y-6655102D01*
X13827726Y-6693198D02*
X13818202Y-6697959D01*
X13818202Y-6697959D02*
X13799154Y-6697959D01*
X13799154Y-6697959D02*
X13789630Y-6693198D01*
X13789630Y-6693198D02*
X13784868Y-6688436D01*
X13784868Y-6688436D02*
X13780107Y-6678912D01*
X13780107Y-6678912D02*
X13780107Y-6650340D01*
X13780107Y-6650340D02*
X13784868Y-6640817D01*
X13784868Y-6640817D02*
X13789630Y-6636055D01*
X13789630Y-6636055D02*
X13799154Y-6631293D01*
X13799154Y-6631293D02*
X13818202Y-6631293D01*
X13818202Y-6631293D02*
X13827726Y-6636055D01*
X13870583Y-6697959D02*
X13870583Y-6597959D01*
X13880107Y-6659864D02*
X13908678Y-6697959D01*
X13908678Y-6631293D02*
X13870583Y-6669388D01*
X13994392Y-6631293D02*
X13994392Y-6697959D01*
X13951535Y-6631293D02*
X13951535Y-6683674D01*
X13951535Y-6683674D02*
X13956297Y-6693198D01*
X13956297Y-6693198D02*
X13965821Y-6697959D01*
X13965821Y-6697959D02*
X13980107Y-6697959D01*
X13980107Y-6697959D02*
X13989630Y-6693198D01*
X13989630Y-6693198D02*
X13994392Y-6688436D01*
X14042011Y-6631293D02*
X14042011Y-6731293D01*
X14042011Y-6636055D02*
X14051535Y-6631293D01*
X14051535Y-6631293D02*
X14070583Y-6631293D01*
X14070583Y-6631293D02*
X14080107Y-6636055D01*
X14080107Y-6636055D02*
X14084868Y-6640817D01*
X14084868Y-6640817D02*
X14089630Y-6650340D01*
X14089630Y-6650340D02*
X14089630Y-6678912D01*
X14089630Y-6678912D02*
X14084868Y-6688436D01*
X14084868Y-6688436D02*
X14080107Y-6693198D01*
X14080107Y-6693198D02*
X14070583Y-6697959D01*
X14070583Y-6697959D02*
X14051535Y-6697959D01*
X14051535Y-6697959D02*
X14042011Y-6693198D01*
X14265821Y-6688436D02*
X14261059Y-6693198D01*
X14261059Y-6693198D02*
X14246773Y-6697959D01*
X14246773Y-6697959D02*
X14237249Y-6697959D01*
X14237249Y-6697959D02*
X14222964Y-6693198D01*
X14222964Y-6693198D02*
X14213440Y-6683674D01*
X14213440Y-6683674D02*
X14208678Y-6674150D01*
X14208678Y-6674150D02*
X14203916Y-6655102D01*
X14203916Y-6655102D02*
X14203916Y-6640817D01*
X14203916Y-6640817D02*
X14208678Y-6621769D01*
X14208678Y-6621769D02*
X14213440Y-6612245D01*
X14213440Y-6612245D02*
X14222964Y-6602721D01*
X14222964Y-6602721D02*
X14237249Y-6597959D01*
X14237249Y-6597959D02*
X14246773Y-6597959D01*
X14246773Y-6597959D02*
X14261059Y-6602721D01*
X14261059Y-6602721D02*
X14265821Y-6607483D01*
X14308678Y-6697959D02*
X14308678Y-6597959D01*
X14351535Y-6697959D02*
X14351535Y-6645578D01*
X14351535Y-6645578D02*
X14346773Y-6636055D01*
X14346773Y-6636055D02*
X14337249Y-6631293D01*
X14337249Y-6631293D02*
X14322964Y-6631293D01*
X14322964Y-6631293D02*
X14313440Y-6636055D01*
X14313440Y-6636055D02*
X14308678Y-6640817D01*
X14442011Y-6697959D02*
X14442011Y-6645578D01*
X14442011Y-6645578D02*
X14437249Y-6636055D01*
X14437249Y-6636055D02*
X14427726Y-6631293D01*
X14427726Y-6631293D02*
X14408678Y-6631293D01*
X14408678Y-6631293D02*
X14399154Y-6636055D01*
X14442011Y-6693198D02*
X14432488Y-6697959D01*
X14432488Y-6697959D02*
X14408678Y-6697959D01*
X14408678Y-6697959D02*
X14399154Y-6693198D01*
X14399154Y-6693198D02*
X14394392Y-6683674D01*
X14394392Y-6683674D02*
X14394392Y-6674150D01*
X14394392Y-6674150D02*
X14399154Y-6664626D01*
X14399154Y-6664626D02*
X14408678Y-6659864D01*
X14408678Y-6659864D02*
X14432488Y-6659864D01*
X14432488Y-6659864D02*
X14442011Y-6655102D01*
X14489630Y-6697959D02*
X14489630Y-6631293D01*
X14489630Y-6650340D02*
X14494392Y-6640817D01*
X14494392Y-6640817D02*
X14499154Y-6636055D01*
X14499154Y-6636055D02*
X14508678Y-6631293D01*
X14508678Y-6631293D02*
X14518202Y-6631293D01*
X14537250Y-6631293D02*
X14575345Y-6631293D01*
X14551535Y-6597959D02*
X14551535Y-6683674D01*
X14551535Y-6683674D02*
X14556297Y-6693198D01*
X14556297Y-6693198D02*
X14565821Y-6697959D01*
X14565821Y-6697959D02*
X14575345Y-6697959D01*
X14608678Y-6688436D02*
X14613440Y-6693198D01*
X14613440Y-6693198D02*
X14608678Y-6697959D01*
X14608678Y-6697959D02*
X14603916Y-6693198D01*
X14603916Y-6693198D02*
X14608678Y-6688436D01*
X14608678Y-6688436D02*
X14608678Y-6697959D01*
X14608678Y-6636055D02*
X14613440Y-6640817D01*
X14613440Y-6640817D02*
X14608678Y-6645578D01*
X14608678Y-6645578D02*
X14603916Y-6640817D01*
X14603916Y-6640817D02*
X14608678Y-6636055D01*
X14608678Y-6636055D02*
X14608678Y-6645578D01*
X12908678Y-6858954D02*
X12908678Y-6758954D01*
X12951535Y-6858954D02*
X12951535Y-6806573D01*
X12951535Y-6806573D02*
X12946773Y-6797049D01*
X12946773Y-6797049D02*
X12937249Y-6792287D01*
X12937249Y-6792287D02*
X12922964Y-6792287D01*
X12922964Y-6792287D02*
X12913440Y-6797049D01*
X12913440Y-6797049D02*
X12908678Y-6801811D01*
X12984868Y-6792287D02*
X13022964Y-6792287D01*
X12999154Y-6758954D02*
X12999154Y-6844668D01*
X12999154Y-6844668D02*
X13003916Y-6854192D01*
X13003916Y-6854192D02*
X13013440Y-6858954D01*
X13013440Y-6858954D02*
X13022964Y-6858954D01*
X13042011Y-6792287D02*
X13080106Y-6792287D01*
X13056297Y-6758954D02*
X13056297Y-6844668D01*
X13056297Y-6844668D02*
X13061059Y-6854192D01*
X13061059Y-6854192D02*
X13070583Y-6858954D01*
X13070583Y-6858954D02*
X13080106Y-6858954D01*
X13113440Y-6792287D02*
X13113440Y-6892287D01*
X13113440Y-6797049D02*
X13122964Y-6792287D01*
X13122964Y-6792287D02*
X13142011Y-6792287D01*
X13142011Y-6792287D02*
X13151535Y-6797049D01*
X13151535Y-6797049D02*
X13156297Y-6801811D01*
X13156297Y-6801811D02*
X13161059Y-6811335D01*
X13161059Y-6811335D02*
X13161059Y-6839906D01*
X13161059Y-6839906D02*
X13156297Y-6849430D01*
X13156297Y-6849430D02*
X13151535Y-6854192D01*
X13151535Y-6854192D02*
X13142011Y-6858954D01*
X13142011Y-6858954D02*
X13122964Y-6858954D01*
X13122964Y-6858954D02*
X13113440Y-6854192D01*
X13199154Y-6854192D02*
X13208678Y-6858954D01*
X13208678Y-6858954D02*
X13227726Y-6858954D01*
X13227726Y-6858954D02*
X13237249Y-6854192D01*
X13237249Y-6854192D02*
X13242011Y-6844668D01*
X13242011Y-6844668D02*
X13242011Y-6839906D01*
X13242011Y-6839906D02*
X13237249Y-6830382D01*
X13237249Y-6830382D02*
X13227726Y-6825620D01*
X13227726Y-6825620D02*
X13213440Y-6825620D01*
X13213440Y-6825620D02*
X13203916Y-6820859D01*
X13203916Y-6820859D02*
X13199154Y-6811335D01*
X13199154Y-6811335D02*
X13199154Y-6806573D01*
X13199154Y-6806573D02*
X13203916Y-6797049D01*
X13203916Y-6797049D02*
X13213440Y-6792287D01*
X13213440Y-6792287D02*
X13227726Y-6792287D01*
X13227726Y-6792287D02*
X13237249Y-6797049D01*
X13284868Y-6849430D02*
X13289630Y-6854192D01*
X13289630Y-6854192D02*
X13284868Y-6858954D01*
X13284868Y-6858954D02*
X13280107Y-6854192D01*
X13280107Y-6854192D02*
X13284868Y-6849430D01*
X13284868Y-6849430D02*
X13284868Y-6858954D01*
X13284868Y-6797049D02*
X13289630Y-6801811D01*
X13289630Y-6801811D02*
X13284868Y-6806573D01*
X13284868Y-6806573D02*
X13280107Y-6801811D01*
X13280107Y-6801811D02*
X13284868Y-6797049D01*
X13284868Y-6797049D02*
X13284868Y-6806573D01*
X13403916Y-6754192D02*
X13318202Y-6882763D01*
X13508678Y-6754192D02*
X13422964Y-6882763D01*
X13542011Y-6792287D02*
X13542011Y-6878001D01*
X13542011Y-6878001D02*
X13537249Y-6887525D01*
X13537249Y-6887525D02*
X13527726Y-6892287D01*
X13527726Y-6892287D02*
X13522964Y-6892287D01*
X13542011Y-6758954D02*
X13537249Y-6763716D01*
X13537249Y-6763716D02*
X13542011Y-6768478D01*
X13542011Y-6768478D02*
X13546773Y-6763716D01*
X13546773Y-6763716D02*
X13542011Y-6758954D01*
X13542011Y-6758954D02*
X13542011Y-6768478D01*
X13603916Y-6858954D02*
X13594392Y-6854192D01*
X13594392Y-6854192D02*
X13589630Y-6844668D01*
X13589630Y-6844668D02*
X13589630Y-6758954D01*
X13684868Y-6854192D02*
X13675345Y-6858954D01*
X13675345Y-6858954D02*
X13656297Y-6858954D01*
X13656297Y-6858954D02*
X13646773Y-6854192D01*
X13646773Y-6854192D02*
X13642011Y-6849430D01*
X13642011Y-6849430D02*
X13637249Y-6839906D01*
X13637249Y-6839906D02*
X13637249Y-6811335D01*
X13637249Y-6811335D02*
X13642011Y-6801811D01*
X13642011Y-6801811D02*
X13646773Y-6797049D01*
X13646773Y-6797049D02*
X13656297Y-6792287D01*
X13656297Y-6792287D02*
X13675345Y-6792287D01*
X13675345Y-6792287D02*
X13684868Y-6797049D01*
X13727726Y-6792287D02*
X13727726Y-6892287D01*
X13727726Y-6797049D02*
X13737249Y-6792287D01*
X13737249Y-6792287D02*
X13756297Y-6792287D01*
X13756297Y-6792287D02*
X13765821Y-6797049D01*
X13765821Y-6797049D02*
X13770583Y-6801811D01*
X13770583Y-6801811D02*
X13775345Y-6811335D01*
X13775345Y-6811335D02*
X13775345Y-6839906D01*
X13775345Y-6839906D02*
X13770583Y-6849430D01*
X13770583Y-6849430D02*
X13765821Y-6854192D01*
X13765821Y-6854192D02*
X13756297Y-6858954D01*
X13756297Y-6858954D02*
X13737249Y-6858954D01*
X13737249Y-6858954D02*
X13727726Y-6854192D01*
X13861059Y-6854192D02*
X13851535Y-6858954D01*
X13851535Y-6858954D02*
X13832487Y-6858954D01*
X13832487Y-6858954D02*
X13822964Y-6854192D01*
X13822964Y-6854192D02*
X13818202Y-6849430D01*
X13818202Y-6849430D02*
X13813440Y-6839906D01*
X13813440Y-6839906D02*
X13813440Y-6811335D01*
X13813440Y-6811335D02*
X13818202Y-6801811D01*
X13818202Y-6801811D02*
X13822964Y-6797049D01*
X13822964Y-6797049D02*
X13832487Y-6792287D01*
X13832487Y-6792287D02*
X13851535Y-6792287D01*
X13851535Y-6792287D02*
X13861059Y-6797049D01*
X13903916Y-6858954D02*
X13903916Y-6758954D01*
X13903916Y-6797049D02*
X13913440Y-6792287D01*
X13913440Y-6792287D02*
X13932487Y-6792287D01*
X13932487Y-6792287D02*
X13942011Y-6797049D01*
X13942011Y-6797049D02*
X13946773Y-6801811D01*
X13946773Y-6801811D02*
X13951535Y-6811335D01*
X13951535Y-6811335D02*
X13951535Y-6839906D01*
X13951535Y-6839906D02*
X13946773Y-6849430D01*
X13946773Y-6849430D02*
X13942011Y-6854192D01*
X13942011Y-6854192D02*
X13932487Y-6858954D01*
X13932487Y-6858954D02*
X13913440Y-6858954D01*
X13913440Y-6858954D02*
X13903916Y-6854192D01*
X13994392Y-6849430D02*
X13999154Y-6854192D01*
X13999154Y-6854192D02*
X13994392Y-6858954D01*
X13994392Y-6858954D02*
X13989630Y-6854192D01*
X13989630Y-6854192D02*
X13994392Y-6849430D01*
X13994392Y-6849430D02*
X13994392Y-6858954D01*
X14084868Y-6854192D02*
X14075345Y-6858954D01*
X14075345Y-6858954D02*
X14056297Y-6858954D01*
X14056297Y-6858954D02*
X14046773Y-6854192D01*
X14046773Y-6854192D02*
X14042011Y-6849430D01*
X14042011Y-6849430D02*
X14037249Y-6839906D01*
X14037249Y-6839906D02*
X14037249Y-6811335D01*
X14037249Y-6811335D02*
X14042011Y-6801811D01*
X14042011Y-6801811D02*
X14046773Y-6797049D01*
X14046773Y-6797049D02*
X14056297Y-6792287D01*
X14056297Y-6792287D02*
X14075345Y-6792287D01*
X14075345Y-6792287D02*
X14084868Y-6797049D01*
X14142011Y-6858954D02*
X14132487Y-6854192D01*
X14132487Y-6854192D02*
X14127726Y-6849430D01*
X14127726Y-6849430D02*
X14122964Y-6839906D01*
X14122964Y-6839906D02*
X14122964Y-6811335D01*
X14122964Y-6811335D02*
X14127726Y-6801811D01*
X14127726Y-6801811D02*
X14132487Y-6797049D01*
X14132487Y-6797049D02*
X14142011Y-6792287D01*
X14142011Y-6792287D02*
X14156297Y-6792287D01*
X14156297Y-6792287D02*
X14165821Y-6797049D01*
X14165821Y-6797049D02*
X14170583Y-6801811D01*
X14170583Y-6801811D02*
X14175345Y-6811335D01*
X14175345Y-6811335D02*
X14175345Y-6839906D01*
X14175345Y-6839906D02*
X14170583Y-6849430D01*
X14170583Y-6849430D02*
X14165821Y-6854192D01*
X14165821Y-6854192D02*
X14156297Y-6858954D01*
X14156297Y-6858954D02*
X14142011Y-6858954D01*
X14218202Y-6858954D02*
X14218202Y-6792287D01*
X14218202Y-6801811D02*
X14222964Y-6797049D01*
X14222964Y-6797049D02*
X14232487Y-6792287D01*
X14232487Y-6792287D02*
X14246773Y-6792287D01*
X14246773Y-6792287D02*
X14256297Y-6797049D01*
X14256297Y-6797049D02*
X14261059Y-6806573D01*
X14261059Y-6806573D02*
X14261059Y-6858954D01*
X14261059Y-6806573D02*
X14265821Y-6797049D01*
X14265821Y-6797049D02*
X14275345Y-6792287D01*
X14275345Y-6792287D02*
X14289630Y-6792287D01*
X14289630Y-6792287D02*
X14299154Y-6797049D01*
X14299154Y-6797049D02*
X14303916Y-6806573D01*
X14303916Y-6806573D02*
X14303916Y-6858954D01*
X14422964Y-6754192D02*
X14337249Y-6882763D01*
X14456297Y-6858954D02*
X14456297Y-6792287D01*
X14456297Y-6758954D02*
X14451535Y-6763716D01*
X14451535Y-6763716D02*
X14456297Y-6768478D01*
X14456297Y-6768478D02*
X14461059Y-6763716D01*
X14461059Y-6763716D02*
X14456297Y-6758954D01*
X14456297Y-6758954D02*
X14456297Y-6768478D01*
X14503916Y-6858954D02*
X14503916Y-6792287D01*
X14503916Y-6801811D02*
X14508678Y-6797049D01*
X14508678Y-6797049D02*
X14518202Y-6792287D01*
X14518202Y-6792287D02*
X14532487Y-6792287D01*
X14532487Y-6792287D02*
X14542011Y-6797049D01*
X14542011Y-6797049D02*
X14546773Y-6806573D01*
X14546773Y-6806573D02*
X14546773Y-6858954D01*
X14546773Y-6806573D02*
X14551535Y-6797049D01*
X14551535Y-6797049D02*
X14561059Y-6792287D01*
X14561059Y-6792287D02*
X14575344Y-6792287D01*
X14575344Y-6792287D02*
X14584868Y-6797049D01*
X14584868Y-6797049D02*
X14589630Y-6806573D01*
X14589630Y-6806573D02*
X14589630Y-6858954D01*
X14637249Y-6792287D02*
X14637249Y-6892287D01*
X14637249Y-6797049D02*
X14646773Y-6792287D01*
X14646773Y-6792287D02*
X14665821Y-6792287D01*
X14665821Y-6792287D02*
X14675344Y-6797049D01*
X14675344Y-6797049D02*
X14680106Y-6801811D01*
X14680106Y-6801811D02*
X14684868Y-6811335D01*
X14684868Y-6811335D02*
X14684868Y-6839906D01*
X14684868Y-6839906D02*
X14680106Y-6849430D01*
X14680106Y-6849430D02*
X14675344Y-6854192D01*
X14675344Y-6854192D02*
X14665821Y-6858954D01*
X14665821Y-6858954D02*
X14646773Y-6858954D01*
X14646773Y-6858954D02*
X14637249Y-6854192D01*
X14765821Y-6854192D02*
X14756297Y-6858954D01*
X14756297Y-6858954D02*
X14737249Y-6858954D01*
X14737249Y-6858954D02*
X14727725Y-6854192D01*
X14727725Y-6854192D02*
X14722964Y-6844668D01*
X14722964Y-6844668D02*
X14722964Y-6806573D01*
X14722964Y-6806573D02*
X14727725Y-6797049D01*
X14727725Y-6797049D02*
X14737249Y-6792287D01*
X14737249Y-6792287D02*
X14756297Y-6792287D01*
X14756297Y-6792287D02*
X14765821Y-6797049D01*
X14765821Y-6797049D02*
X14770583Y-6806573D01*
X14770583Y-6806573D02*
X14770583Y-6816097D01*
X14770583Y-6816097D02*
X14722964Y-6825620D01*
X14856297Y-6858954D02*
X14856297Y-6758954D01*
X14856297Y-6854192D02*
X14846773Y-6858954D01*
X14846773Y-6858954D02*
X14827725Y-6858954D01*
X14827725Y-6858954D02*
X14818202Y-6854192D01*
X14818202Y-6854192D02*
X14813440Y-6849430D01*
X14813440Y-6849430D02*
X14808678Y-6839906D01*
X14808678Y-6839906D02*
X14808678Y-6811335D01*
X14808678Y-6811335D02*
X14813440Y-6801811D01*
X14813440Y-6801811D02*
X14818202Y-6797049D01*
X14818202Y-6797049D02*
X14827725Y-6792287D01*
X14827725Y-6792287D02*
X14846773Y-6792287D01*
X14846773Y-6792287D02*
X14856297Y-6797049D01*
X14946773Y-6858954D02*
X14946773Y-6806573D01*
X14946773Y-6806573D02*
X14942011Y-6797049D01*
X14942011Y-6797049D02*
X14932487Y-6792287D01*
X14932487Y-6792287D02*
X14913440Y-6792287D01*
X14913440Y-6792287D02*
X14903916Y-6797049D01*
X14946773Y-6854192D02*
X14937249Y-6858954D01*
X14937249Y-6858954D02*
X14913440Y-6858954D01*
X14913440Y-6858954D02*
X14903916Y-6854192D01*
X14903916Y-6854192D02*
X14899154Y-6844668D01*
X14899154Y-6844668D02*
X14899154Y-6835144D01*
X14899154Y-6835144D02*
X14903916Y-6825620D01*
X14903916Y-6825620D02*
X14913440Y-6820859D01*
X14913440Y-6820859D02*
X14937249Y-6820859D01*
X14937249Y-6820859D02*
X14946773Y-6816097D01*
X14994392Y-6792287D02*
X14994392Y-6858954D01*
X14994392Y-6801811D02*
X14999154Y-6797049D01*
X14999154Y-6797049D02*
X15008678Y-6792287D01*
X15008678Y-6792287D02*
X15022964Y-6792287D01*
X15022964Y-6792287D02*
X15032487Y-6797049D01*
X15032487Y-6797049D02*
X15037249Y-6806573D01*
X15037249Y-6806573D02*
X15037249Y-6858954D01*
X15127725Y-6854192D02*
X15118202Y-6858954D01*
X15118202Y-6858954D02*
X15099154Y-6858954D01*
X15099154Y-6858954D02*
X15089630Y-6854192D01*
X15089630Y-6854192D02*
X15084868Y-6849430D01*
X15084868Y-6849430D02*
X15080106Y-6839906D01*
X15080106Y-6839906D02*
X15080106Y-6811335D01*
X15080106Y-6811335D02*
X15084868Y-6801811D01*
X15084868Y-6801811D02*
X15089630Y-6797049D01*
X15089630Y-6797049D02*
X15099154Y-6792287D01*
X15099154Y-6792287D02*
X15118202Y-6792287D01*
X15118202Y-6792287D02*
X15127725Y-6797049D01*
X15208678Y-6854192D02*
X15199154Y-6858954D01*
X15199154Y-6858954D02*
X15180106Y-6858954D01*
X15180106Y-6858954D02*
X15170583Y-6854192D01*
X15170583Y-6854192D02*
X15165821Y-6844668D01*
X15165821Y-6844668D02*
X15165821Y-6806573D01*
X15165821Y-6806573D02*
X15170583Y-6797049D01*
X15170583Y-6797049D02*
X15180106Y-6792287D01*
X15180106Y-6792287D02*
X15199154Y-6792287D01*
X15199154Y-6792287D02*
X15208678Y-6797049D01*
X15208678Y-6797049D02*
X15213440Y-6806573D01*
X15213440Y-6806573D02*
X15213440Y-6816097D01*
X15213440Y-6816097D02*
X15165821Y-6825620D01*
X12927725Y-7080943D02*
X12946773Y-7080943D01*
X12946773Y-7080943D02*
X12956297Y-7085705D01*
X12956297Y-7085705D02*
X12965821Y-7095228D01*
X12965821Y-7095228D02*
X12970583Y-7114276D01*
X12970583Y-7114276D02*
X12970583Y-7147609D01*
X12970583Y-7147609D02*
X12965821Y-7166657D01*
X12965821Y-7166657D02*
X12956297Y-7176181D01*
X12956297Y-7176181D02*
X12946773Y-7180943D01*
X12946773Y-7180943D02*
X12927725Y-7180943D01*
X12927725Y-7180943D02*
X12918202Y-7176181D01*
X12918202Y-7176181D02*
X12908678Y-7166657D01*
X12908678Y-7166657D02*
X12903916Y-7147609D01*
X12903916Y-7147609D02*
X12903916Y-7114276D01*
X12903916Y-7114276D02*
X12908678Y-7095228D01*
X12908678Y-7095228D02*
X12918202Y-7085705D01*
X12918202Y-7085705D02*
X12927725Y-7080943D01*
X13013440Y-7114276D02*
X13013440Y-7214276D01*
X13013440Y-7119038D02*
X13022964Y-7114276D01*
X13022964Y-7114276D02*
X13042011Y-7114276D01*
X13042011Y-7114276D02*
X13051535Y-7119038D01*
X13051535Y-7119038D02*
X13056297Y-7123800D01*
X13056297Y-7123800D02*
X13061059Y-7133324D01*
X13061059Y-7133324D02*
X13061059Y-7161895D01*
X13061059Y-7161895D02*
X13056297Y-7171419D01*
X13056297Y-7171419D02*
X13051535Y-7176181D01*
X13051535Y-7176181D02*
X13042011Y-7180943D01*
X13042011Y-7180943D02*
X13022964Y-7180943D01*
X13022964Y-7180943D02*
X13013440Y-7176181D01*
X13089630Y-7114276D02*
X13127725Y-7114276D01*
X13103916Y-7080943D02*
X13103916Y-7166657D01*
X13103916Y-7166657D02*
X13108678Y-7176181D01*
X13108678Y-7176181D02*
X13118202Y-7180943D01*
X13118202Y-7180943D02*
X13127725Y-7180943D01*
X13161059Y-7180943D02*
X13161059Y-7114276D01*
X13161059Y-7080943D02*
X13156297Y-7085705D01*
X13156297Y-7085705D02*
X13161059Y-7090466D01*
X13161059Y-7090466D02*
X13165821Y-7085705D01*
X13165821Y-7085705D02*
X13161059Y-7080943D01*
X13161059Y-7080943D02*
X13161059Y-7090466D01*
X13208678Y-7180943D02*
X13208678Y-7114276D01*
X13208678Y-7123800D02*
X13213440Y-7119038D01*
X13213440Y-7119038D02*
X13222964Y-7114276D01*
X13222964Y-7114276D02*
X13237249Y-7114276D01*
X13237249Y-7114276D02*
X13246773Y-7119038D01*
X13246773Y-7119038D02*
X13251535Y-7128562D01*
X13251535Y-7128562D02*
X13251535Y-7180943D01*
X13251535Y-7128562D02*
X13256297Y-7119038D01*
X13256297Y-7119038D02*
X13265821Y-7114276D01*
X13265821Y-7114276D02*
X13280106Y-7114276D01*
X13280106Y-7114276D02*
X13289630Y-7119038D01*
X13289630Y-7119038D02*
X13294392Y-7128562D01*
X13294392Y-7128562D02*
X13294392Y-7180943D01*
X13342011Y-7180943D02*
X13342011Y-7114276D01*
X13342011Y-7080943D02*
X13337249Y-7085705D01*
X13337249Y-7085705D02*
X13342011Y-7090466D01*
X13342011Y-7090466D02*
X13346773Y-7085705D01*
X13346773Y-7085705D02*
X13342011Y-7080943D01*
X13342011Y-7080943D02*
X13342011Y-7090466D01*
X13380106Y-7114276D02*
X13432487Y-7114276D01*
X13432487Y-7114276D02*
X13380106Y-7180943D01*
X13380106Y-7180943D02*
X13432487Y-7180943D01*
X13508678Y-7176181D02*
X13499154Y-7180943D01*
X13499154Y-7180943D02*
X13480106Y-7180943D01*
X13480106Y-7180943D02*
X13470583Y-7176181D01*
X13470583Y-7176181D02*
X13465821Y-7166657D01*
X13465821Y-7166657D02*
X13465821Y-7128562D01*
X13465821Y-7128562D02*
X13470583Y-7119038D01*
X13470583Y-7119038D02*
X13480106Y-7114276D01*
X13480106Y-7114276D02*
X13499154Y-7114276D01*
X13499154Y-7114276D02*
X13508678Y-7119038D01*
X13508678Y-7119038D02*
X13513440Y-7128562D01*
X13513440Y-7128562D02*
X13513440Y-7138085D01*
X13513440Y-7138085D02*
X13465821Y-7147609D01*
X13599154Y-7180943D02*
X13599154Y-7080943D01*
X13599154Y-7176181D02*
X13589630Y-7180943D01*
X13589630Y-7180943D02*
X13570583Y-7180943D01*
X13570583Y-7180943D02*
X13561059Y-7176181D01*
X13561059Y-7176181D02*
X13556297Y-7171419D01*
X13556297Y-7171419D02*
X13551535Y-7161895D01*
X13551535Y-7161895D02*
X13551535Y-7133324D01*
X13551535Y-7133324D02*
X13556297Y-7123800D01*
X13556297Y-7123800D02*
X13561059Y-7119038D01*
X13561059Y-7119038D02*
X13570583Y-7114276D01*
X13570583Y-7114276D02*
X13589630Y-7114276D01*
X13589630Y-7114276D02*
X13599154Y-7119038D01*
X13708678Y-7114276D02*
X13746773Y-7114276D01*
X13722964Y-7180943D02*
X13722964Y-7095228D01*
X13722964Y-7095228D02*
X13727725Y-7085705D01*
X13727725Y-7085705D02*
X13737249Y-7080943D01*
X13737249Y-7080943D02*
X13746773Y-7080943D01*
X13794392Y-7180943D02*
X13784868Y-7176181D01*
X13784868Y-7176181D02*
X13780106Y-7171419D01*
X13780106Y-7171419D02*
X13775345Y-7161895D01*
X13775345Y-7161895D02*
X13775345Y-7133324D01*
X13775345Y-7133324D02*
X13780106Y-7123800D01*
X13780106Y-7123800D02*
X13784868Y-7119038D01*
X13784868Y-7119038D02*
X13794392Y-7114276D01*
X13794392Y-7114276D02*
X13808678Y-7114276D01*
X13808678Y-7114276D02*
X13818202Y-7119038D01*
X13818202Y-7119038D02*
X13822964Y-7123800D01*
X13822964Y-7123800D02*
X13827725Y-7133324D01*
X13827725Y-7133324D02*
X13827725Y-7161895D01*
X13827725Y-7161895D02*
X13822964Y-7171419D01*
X13822964Y-7171419D02*
X13818202Y-7176181D01*
X13818202Y-7176181D02*
X13808678Y-7180943D01*
X13808678Y-7180943D02*
X13794392Y-7180943D01*
X13870583Y-7180943D02*
X13870583Y-7114276D01*
X13870583Y-7133324D02*
X13875345Y-7123800D01*
X13875345Y-7123800D02*
X13880106Y-7119038D01*
X13880106Y-7119038D02*
X13889630Y-7114276D01*
X13889630Y-7114276D02*
X13899154Y-7114276D01*
X14037249Y-7080943D02*
X14037249Y-7152371D01*
X14037249Y-7152371D02*
X14032487Y-7166657D01*
X14032487Y-7166657D02*
X14022964Y-7176181D01*
X14022964Y-7176181D02*
X14008678Y-7180943D01*
X14008678Y-7180943D02*
X13999154Y-7180943D01*
X14132487Y-7180943D02*
X14084868Y-7180943D01*
X14084868Y-7180943D02*
X14084868Y-7080943D01*
X14222964Y-7171419D02*
X14218202Y-7176181D01*
X14218202Y-7176181D02*
X14203916Y-7180943D01*
X14203916Y-7180943D02*
X14194392Y-7180943D01*
X14194392Y-7180943D02*
X14180107Y-7176181D01*
X14180107Y-7176181D02*
X14170583Y-7166657D01*
X14170583Y-7166657D02*
X14165821Y-7157133D01*
X14165821Y-7157133D02*
X14161059Y-7138085D01*
X14161059Y-7138085D02*
X14161059Y-7123800D01*
X14161059Y-7123800D02*
X14165821Y-7104752D01*
X14165821Y-7104752D02*
X14170583Y-7095228D01*
X14170583Y-7095228D02*
X14180107Y-7085705D01*
X14180107Y-7085705D02*
X14194392Y-7080943D01*
X14194392Y-7080943D02*
X14203916Y-7080943D01*
X14203916Y-7080943D02*
X14218202Y-7085705D01*
X14218202Y-7085705D02*
X14222964Y-7090466D01*
X14265821Y-7180943D02*
X14265821Y-7080943D01*
X14265821Y-7080943D02*
X14303916Y-7080943D01*
X14303916Y-7080943D02*
X14313440Y-7085705D01*
X14313440Y-7085705D02*
X14318202Y-7090466D01*
X14318202Y-7090466D02*
X14322964Y-7099990D01*
X14322964Y-7099990D02*
X14322964Y-7114276D01*
X14322964Y-7114276D02*
X14318202Y-7123800D01*
X14318202Y-7123800D02*
X14313440Y-7128562D01*
X14313440Y-7128562D02*
X14303916Y-7133324D01*
X14303916Y-7133324D02*
X14265821Y-7133324D01*
X14422964Y-7171419D02*
X14418202Y-7176181D01*
X14418202Y-7176181D02*
X14403916Y-7180943D01*
X14403916Y-7180943D02*
X14394392Y-7180943D01*
X14394392Y-7180943D02*
X14380107Y-7176181D01*
X14380107Y-7176181D02*
X14370583Y-7166657D01*
X14370583Y-7166657D02*
X14365821Y-7157133D01*
X14365821Y-7157133D02*
X14361059Y-7138085D01*
X14361059Y-7138085D02*
X14361059Y-7123800D01*
X14361059Y-7123800D02*
X14365821Y-7104752D01*
X14365821Y-7104752D02*
X14370583Y-7095228D01*
X14370583Y-7095228D02*
X14380107Y-7085705D01*
X14380107Y-7085705D02*
X14394392Y-7080943D01*
X14394392Y-7080943D02*
X14403916Y-7080943D01*
X14403916Y-7080943D02*
X14418202Y-7085705D01*
X14418202Y-7085705D02*
X14422964Y-7090466D01*
X14499154Y-7128562D02*
X14513440Y-7133324D01*
X14513440Y-7133324D02*
X14518202Y-7138085D01*
X14518202Y-7138085D02*
X14522964Y-7147609D01*
X14522964Y-7147609D02*
X14522964Y-7161895D01*
X14522964Y-7161895D02*
X14518202Y-7171419D01*
X14518202Y-7171419D02*
X14513440Y-7176181D01*
X14513440Y-7176181D02*
X14503916Y-7180943D01*
X14503916Y-7180943D02*
X14465821Y-7180943D01*
X14465821Y-7180943D02*
X14465821Y-7080943D01*
X14465821Y-7080943D02*
X14499154Y-7080943D01*
X14499154Y-7080943D02*
X14508678Y-7085705D01*
X14508678Y-7085705D02*
X14513440Y-7090466D01*
X14513440Y-7090466D02*
X14518202Y-7099990D01*
X14518202Y-7099990D02*
X14518202Y-7109514D01*
X14518202Y-7109514D02*
X14513440Y-7119038D01*
X14513440Y-7119038D02*
X14508678Y-7123800D01*
X14508678Y-7123800D02*
X14499154Y-7128562D01*
X14499154Y-7128562D02*
X14465821Y-7128562D01*
X14661059Y-7080943D02*
X14670583Y-7080943D01*
X14670583Y-7080943D02*
X14680107Y-7085705D01*
X14680107Y-7085705D02*
X14684868Y-7090466D01*
X14684868Y-7090466D02*
X14689630Y-7099990D01*
X14689630Y-7099990D02*
X14694392Y-7119038D01*
X14694392Y-7119038D02*
X14694392Y-7142847D01*
X14694392Y-7142847D02*
X14689630Y-7161895D01*
X14689630Y-7161895D02*
X14684868Y-7171419D01*
X14684868Y-7171419D02*
X14680107Y-7176181D01*
X14680107Y-7176181D02*
X14670583Y-7180943D01*
X14670583Y-7180943D02*
X14661059Y-7180943D01*
X14661059Y-7180943D02*
X14651535Y-7176181D01*
X14651535Y-7176181D02*
X14646773Y-7171419D01*
X14646773Y-7171419D02*
X14642011Y-7161895D01*
X14642011Y-7161895D02*
X14637249Y-7142847D01*
X14637249Y-7142847D02*
X14637249Y-7119038D01*
X14637249Y-7119038D02*
X14642011Y-7099990D01*
X14642011Y-7099990D02*
X14646773Y-7090466D01*
X14646773Y-7090466D02*
X14651535Y-7085705D01*
X14651535Y-7085705D02*
X14661059Y-7080943D01*
X14737249Y-7171419D02*
X14742011Y-7176181D01*
X14742011Y-7176181D02*
X14737249Y-7180943D01*
X14737249Y-7180943D02*
X14732488Y-7176181D01*
X14732488Y-7176181D02*
X14737249Y-7171419D01*
X14737249Y-7171419D02*
X14737249Y-7180943D01*
X14799154Y-7123800D02*
X14789630Y-7119038D01*
X14789630Y-7119038D02*
X14784868Y-7114276D01*
X14784868Y-7114276D02*
X14780107Y-7104752D01*
X14780107Y-7104752D02*
X14780107Y-7099990D01*
X14780107Y-7099990D02*
X14784868Y-7090466D01*
X14784868Y-7090466D02*
X14789630Y-7085705D01*
X14789630Y-7085705D02*
X14799154Y-7080943D01*
X14799154Y-7080943D02*
X14818202Y-7080943D01*
X14818202Y-7080943D02*
X14827726Y-7085705D01*
X14827726Y-7085705D02*
X14832487Y-7090466D01*
X14832487Y-7090466D02*
X14837249Y-7099990D01*
X14837249Y-7099990D02*
X14837249Y-7104752D01*
X14837249Y-7104752D02*
X14832487Y-7114276D01*
X14832487Y-7114276D02*
X14827726Y-7119038D01*
X14827726Y-7119038D02*
X14818202Y-7123800D01*
X14818202Y-7123800D02*
X14799154Y-7123800D01*
X14799154Y-7123800D02*
X14789630Y-7128562D01*
X14789630Y-7128562D02*
X14784868Y-7133324D01*
X14784868Y-7133324D02*
X14780107Y-7142847D01*
X14780107Y-7142847D02*
X14780107Y-7161895D01*
X14780107Y-7161895D02*
X14784868Y-7171419D01*
X14784868Y-7171419D02*
X14789630Y-7176181D01*
X14789630Y-7176181D02*
X14799154Y-7180943D01*
X14799154Y-7180943D02*
X14818202Y-7180943D01*
X14818202Y-7180943D02*
X14827726Y-7176181D01*
X14827726Y-7176181D02*
X14832487Y-7171419D01*
X14832487Y-7171419D02*
X14837249Y-7161895D01*
X14837249Y-7161895D02*
X14837249Y-7142847D01*
X14837249Y-7142847D02*
X14832487Y-7133324D01*
X14832487Y-7133324D02*
X14827726Y-7128562D01*
X14827726Y-7128562D02*
X14818202Y-7123800D01*
X14880107Y-7180943D02*
X14880107Y-7114276D01*
X14880107Y-7123800D02*
X14884868Y-7119038D01*
X14884868Y-7119038D02*
X14894392Y-7114276D01*
X14894392Y-7114276D02*
X14908678Y-7114276D01*
X14908678Y-7114276D02*
X14918202Y-7119038D01*
X14918202Y-7119038D02*
X14922964Y-7128562D01*
X14922964Y-7128562D02*
X14922964Y-7180943D01*
X14922964Y-7128562D02*
X14927726Y-7119038D01*
X14927726Y-7119038D02*
X14937249Y-7114276D01*
X14937249Y-7114276D02*
X14951535Y-7114276D01*
X14951535Y-7114276D02*
X14961059Y-7119038D01*
X14961059Y-7119038D02*
X14965821Y-7128562D01*
X14965821Y-7128562D02*
X14965821Y-7180943D01*
X15013440Y-7180943D02*
X15013440Y-7114276D01*
X15013440Y-7123800D02*
X15018202Y-7119038D01*
X15018202Y-7119038D02*
X15027726Y-7114276D01*
X15027726Y-7114276D02*
X15042011Y-7114276D01*
X15042011Y-7114276D02*
X15051535Y-7119038D01*
X15051535Y-7119038D02*
X15056297Y-7128562D01*
X15056297Y-7128562D02*
X15056297Y-7180943D01*
X15056297Y-7128562D02*
X15061059Y-7119038D01*
X15061059Y-7119038D02*
X15070583Y-7114276D01*
X15070583Y-7114276D02*
X15084868Y-7114276D01*
X15084868Y-7114276D02*
X15094392Y-7119038D01*
X15094392Y-7119038D02*
X15099154Y-7128562D01*
X15099154Y-7128562D02*
X15099154Y-7180943D01*
X15208678Y-7114276D02*
X15246773Y-7114276D01*
X15222964Y-7080943D02*
X15222964Y-7166657D01*
X15222964Y-7166657D02*
X15227726Y-7176181D01*
X15227726Y-7176181D02*
X15237249Y-7180943D01*
X15237249Y-7180943D02*
X15246773Y-7180943D01*
X15280107Y-7180943D02*
X15280107Y-7080943D01*
X15322964Y-7180943D02*
X15322964Y-7128562D01*
X15322964Y-7128562D02*
X15318202Y-7119038D01*
X15318202Y-7119038D02*
X15308678Y-7114276D01*
X15308678Y-7114276D02*
X15294392Y-7114276D01*
X15294392Y-7114276D02*
X15284868Y-7119038D01*
X15284868Y-7119038D02*
X15280107Y-7123800D01*
X15370583Y-7180943D02*
X15370583Y-7114276D01*
X15370583Y-7080943D02*
X15365821Y-7085705D01*
X15365821Y-7085705D02*
X15370583Y-7090466D01*
X15370583Y-7090466D02*
X15375345Y-7085705D01*
X15375345Y-7085705D02*
X15370583Y-7080943D01*
X15370583Y-7080943D02*
X15370583Y-7090466D01*
X15461059Y-7176181D02*
X15451535Y-7180943D01*
X15451535Y-7180943D02*
X15432487Y-7180943D01*
X15432487Y-7180943D02*
X15422964Y-7176181D01*
X15422964Y-7176181D02*
X15418202Y-7171419D01*
X15418202Y-7171419D02*
X15413440Y-7161895D01*
X15413440Y-7161895D02*
X15413440Y-7133324D01*
X15413440Y-7133324D02*
X15418202Y-7123800D01*
X15418202Y-7123800D02*
X15422964Y-7119038D01*
X15422964Y-7119038D02*
X15432487Y-7114276D01*
X15432487Y-7114276D02*
X15451535Y-7114276D01*
X15451535Y-7114276D02*
X15461059Y-7119038D01*
X15503916Y-7180943D02*
X15503916Y-7080943D01*
X15513440Y-7142847D02*
X15542011Y-7180943D01*
X15542011Y-7114276D02*
X15503916Y-7152371D01*
X12961059Y-7341937D02*
X12903916Y-7341937D01*
X12932487Y-7341937D02*
X12932487Y-7241937D01*
X12932487Y-7241937D02*
X12922964Y-7256223D01*
X12922964Y-7256223D02*
X12913440Y-7265747D01*
X12913440Y-7265747D02*
X12903916Y-7270508D01*
X13018202Y-7341937D02*
X13008678Y-7337175D01*
X13008678Y-7337175D02*
X13003916Y-7332413D01*
X13003916Y-7332413D02*
X12999154Y-7322889D01*
X12999154Y-7322889D02*
X12999154Y-7294318D01*
X12999154Y-7294318D02*
X13003916Y-7284794D01*
X13003916Y-7284794D02*
X13008678Y-7280032D01*
X13008678Y-7280032D02*
X13018202Y-7275270D01*
X13018202Y-7275270D02*
X13032487Y-7275270D01*
X13032487Y-7275270D02*
X13042011Y-7280032D01*
X13042011Y-7280032D02*
X13046773Y-7284794D01*
X13046773Y-7284794D02*
X13051535Y-7294318D01*
X13051535Y-7294318D02*
X13051535Y-7322889D01*
X13051535Y-7322889D02*
X13046773Y-7332413D01*
X13046773Y-7332413D02*
X13042011Y-7337175D01*
X13042011Y-7337175D02*
X13032487Y-7341937D01*
X13032487Y-7341937D02*
X13018202Y-7341937D01*
X13084868Y-7275270D02*
X13137249Y-7275270D01*
X13137249Y-7275270D02*
X13084868Y-7341937D01*
X13084868Y-7341937D02*
X13137249Y-7341937D01*
X13265821Y-7341937D02*
X13256297Y-7337175D01*
X13256297Y-7337175D02*
X13251535Y-7332413D01*
X13251535Y-7332413D02*
X13246773Y-7322889D01*
X13246773Y-7322889D02*
X13246773Y-7294318D01*
X13246773Y-7294318D02*
X13251535Y-7284794D01*
X13251535Y-7284794D02*
X13256297Y-7280032D01*
X13256297Y-7280032D02*
X13265821Y-7275270D01*
X13265821Y-7275270D02*
X13280106Y-7275270D01*
X13280106Y-7275270D02*
X13289630Y-7280032D01*
X13289630Y-7280032D02*
X13294392Y-7284794D01*
X13294392Y-7284794D02*
X13299154Y-7294318D01*
X13299154Y-7294318D02*
X13299154Y-7322889D01*
X13299154Y-7322889D02*
X13294392Y-7332413D01*
X13294392Y-7332413D02*
X13289630Y-7337175D01*
X13289630Y-7337175D02*
X13280106Y-7341937D01*
X13280106Y-7341937D02*
X13265821Y-7341937D01*
X13384868Y-7275270D02*
X13384868Y-7341937D01*
X13342011Y-7275270D02*
X13342011Y-7327651D01*
X13342011Y-7327651D02*
X13346773Y-7337175D01*
X13346773Y-7337175D02*
X13356297Y-7341937D01*
X13356297Y-7341937D02*
X13370583Y-7341937D01*
X13370583Y-7341937D02*
X13380106Y-7337175D01*
X13380106Y-7337175D02*
X13384868Y-7332413D01*
X13418202Y-7275270D02*
X13456297Y-7275270D01*
X13432487Y-7241937D02*
X13432487Y-7327651D01*
X13432487Y-7327651D02*
X13437249Y-7337175D01*
X13437249Y-7337175D02*
X13446773Y-7341937D01*
X13446773Y-7341937D02*
X13456297Y-7341937D01*
X13527726Y-7337175D02*
X13518202Y-7341937D01*
X13518202Y-7341937D02*
X13499154Y-7341937D01*
X13499154Y-7341937D02*
X13489630Y-7337175D01*
X13489630Y-7337175D02*
X13484868Y-7327651D01*
X13484868Y-7327651D02*
X13484868Y-7289556D01*
X13484868Y-7289556D02*
X13489630Y-7280032D01*
X13489630Y-7280032D02*
X13499154Y-7275270D01*
X13499154Y-7275270D02*
X13518202Y-7275270D01*
X13518202Y-7275270D02*
X13527726Y-7280032D01*
X13527726Y-7280032D02*
X13532487Y-7289556D01*
X13532487Y-7289556D02*
X13532487Y-7299080D01*
X13532487Y-7299080D02*
X13484868Y-7308604D01*
X13575345Y-7341937D02*
X13575345Y-7275270D01*
X13575345Y-7294318D02*
X13580107Y-7284794D01*
X13580107Y-7284794D02*
X13584868Y-7280032D01*
X13584868Y-7280032D02*
X13594392Y-7275270D01*
X13594392Y-7275270D02*
X13603916Y-7275270D01*
X13784868Y-7237175D02*
X13699154Y-7365747D01*
X13913440Y-7241937D02*
X13922964Y-7241937D01*
X13922964Y-7241937D02*
X13932488Y-7246699D01*
X13932488Y-7246699D02*
X13937249Y-7251461D01*
X13937249Y-7251461D02*
X13942011Y-7260985D01*
X13942011Y-7260985D02*
X13946773Y-7280032D01*
X13946773Y-7280032D02*
X13946773Y-7303842D01*
X13946773Y-7303842D02*
X13942011Y-7322889D01*
X13942011Y-7322889D02*
X13937249Y-7332413D01*
X13937249Y-7332413D02*
X13932488Y-7337175D01*
X13932488Y-7337175D02*
X13922964Y-7341937D01*
X13922964Y-7341937D02*
X13913440Y-7341937D01*
X13913440Y-7341937D02*
X13903916Y-7337175D01*
X13903916Y-7337175D02*
X13899154Y-7332413D01*
X13899154Y-7332413D02*
X13894392Y-7322889D01*
X13894392Y-7322889D02*
X13889630Y-7303842D01*
X13889630Y-7303842D02*
X13889630Y-7280032D01*
X13889630Y-7280032D02*
X13894392Y-7260985D01*
X13894392Y-7260985D02*
X13899154Y-7251461D01*
X13899154Y-7251461D02*
X13903916Y-7246699D01*
X13903916Y-7246699D02*
X13913440Y-7241937D01*
X13989630Y-7332413D02*
X13994392Y-7337175D01*
X13994392Y-7337175D02*
X13989630Y-7341937D01*
X13989630Y-7341937D02*
X13984869Y-7337175D01*
X13984869Y-7337175D02*
X13989630Y-7332413D01*
X13989630Y-7332413D02*
X13989630Y-7341937D01*
X14084868Y-7241937D02*
X14037249Y-7241937D01*
X14037249Y-7241937D02*
X14032488Y-7289556D01*
X14032488Y-7289556D02*
X14037249Y-7284794D01*
X14037249Y-7284794D02*
X14046773Y-7280032D01*
X14046773Y-7280032D02*
X14070583Y-7280032D01*
X14070583Y-7280032D02*
X14080107Y-7284794D01*
X14080107Y-7284794D02*
X14084868Y-7289556D01*
X14084868Y-7289556D02*
X14089630Y-7299080D01*
X14089630Y-7299080D02*
X14089630Y-7322889D01*
X14089630Y-7322889D02*
X14084868Y-7332413D01*
X14084868Y-7332413D02*
X14080107Y-7337175D01*
X14080107Y-7337175D02*
X14070583Y-7341937D01*
X14070583Y-7341937D02*
X14046773Y-7341937D01*
X14046773Y-7341937D02*
X14037249Y-7337175D01*
X14037249Y-7337175D02*
X14032488Y-7332413D01*
X14146773Y-7341937D02*
X14137249Y-7337175D01*
X14137249Y-7337175D02*
X14132488Y-7332413D01*
X14132488Y-7332413D02*
X14127726Y-7322889D01*
X14127726Y-7322889D02*
X14127726Y-7294318D01*
X14127726Y-7294318D02*
X14132488Y-7284794D01*
X14132488Y-7284794D02*
X14137249Y-7280032D01*
X14137249Y-7280032D02*
X14146773Y-7275270D01*
X14146773Y-7275270D02*
X14161059Y-7275270D01*
X14161059Y-7275270D02*
X14170583Y-7280032D01*
X14170583Y-7280032D02*
X14175345Y-7284794D01*
X14175345Y-7284794D02*
X14180107Y-7294318D01*
X14180107Y-7294318D02*
X14180107Y-7322889D01*
X14180107Y-7322889D02*
X14175345Y-7332413D01*
X14175345Y-7332413D02*
X14170583Y-7337175D01*
X14170583Y-7337175D02*
X14161059Y-7341937D01*
X14161059Y-7341937D02*
X14146773Y-7341937D01*
X14213440Y-7275270D02*
X14265821Y-7275270D01*
X14265821Y-7275270D02*
X14213440Y-7341937D01*
X14213440Y-7341937D02*
X14265821Y-7341937D01*
X14380107Y-7341937D02*
X14380107Y-7275270D01*
X14380107Y-7241937D02*
X14375345Y-7246699D01*
X14375345Y-7246699D02*
X14380107Y-7251461D01*
X14380107Y-7251461D02*
X14384869Y-7246699D01*
X14384869Y-7246699D02*
X14380107Y-7241937D01*
X14380107Y-7241937D02*
X14380107Y-7251461D01*
X14427726Y-7275270D02*
X14427726Y-7341937D01*
X14427726Y-7284794D02*
X14432488Y-7280032D01*
X14432488Y-7280032D02*
X14442011Y-7275270D01*
X14442011Y-7275270D02*
X14456297Y-7275270D01*
X14456297Y-7275270D02*
X14465821Y-7280032D01*
X14465821Y-7280032D02*
X14470583Y-7289556D01*
X14470583Y-7289556D02*
X14470583Y-7341937D01*
X14518202Y-7275270D02*
X14518202Y-7341937D01*
X14518202Y-7284794D02*
X14522964Y-7280032D01*
X14522964Y-7280032D02*
X14532488Y-7275270D01*
X14532488Y-7275270D02*
X14546773Y-7275270D01*
X14546773Y-7275270D02*
X14556297Y-7280032D01*
X14556297Y-7280032D02*
X14561059Y-7289556D01*
X14561059Y-7289556D02*
X14561059Y-7341937D01*
X14646773Y-7337175D02*
X14637249Y-7341937D01*
X14637249Y-7341937D02*
X14618202Y-7341937D01*
X14618202Y-7341937D02*
X14608678Y-7337175D01*
X14608678Y-7337175D02*
X14603916Y-7327651D01*
X14603916Y-7327651D02*
X14603916Y-7289556D01*
X14603916Y-7289556D02*
X14608678Y-7280032D01*
X14608678Y-7280032D02*
X14618202Y-7275270D01*
X14618202Y-7275270D02*
X14637249Y-7275270D01*
X14637249Y-7275270D02*
X14646773Y-7280032D01*
X14646773Y-7280032D02*
X14651535Y-7289556D01*
X14651535Y-7289556D02*
X14651535Y-7299080D01*
X14651535Y-7299080D02*
X14603916Y-7308604D01*
X14694392Y-7341937D02*
X14694392Y-7275270D01*
X14694392Y-7294318D02*
X14699154Y-7284794D01*
X14699154Y-7284794D02*
X14703916Y-7280032D01*
X14703916Y-7280032D02*
X14713440Y-7275270D01*
X14713440Y-7275270D02*
X14722964Y-7275270D01*
X12937249Y-7402931D02*
X12937249Y-7474360D01*
X12937249Y-7474360D02*
X12932487Y-7488646D01*
X12932487Y-7488646D02*
X12922964Y-7498170D01*
X12922964Y-7498170D02*
X12908678Y-7502931D01*
X12908678Y-7502931D02*
X12899154Y-7502931D01*
X13032487Y-7502931D02*
X12984868Y-7502931D01*
X12984868Y-7502931D02*
X12984868Y-7402931D01*
X13122964Y-7493408D02*
X13118202Y-7498170D01*
X13118202Y-7498170D02*
X13103916Y-7502931D01*
X13103916Y-7502931D02*
X13094392Y-7502931D01*
X13094392Y-7502931D02*
X13080106Y-7498170D01*
X13080106Y-7498170D02*
X13070583Y-7488646D01*
X13070583Y-7488646D02*
X13065821Y-7479122D01*
X13065821Y-7479122D02*
X13061059Y-7460074D01*
X13061059Y-7460074D02*
X13061059Y-7445789D01*
X13061059Y-7445789D02*
X13065821Y-7426741D01*
X13065821Y-7426741D02*
X13070583Y-7417217D01*
X13070583Y-7417217D02*
X13080106Y-7407693D01*
X13080106Y-7407693D02*
X13094392Y-7402931D01*
X13094392Y-7402931D02*
X13103916Y-7402931D01*
X13103916Y-7402931D02*
X13118202Y-7407693D01*
X13118202Y-7407693D02*
X13122964Y-7412455D01*
X13184868Y-7402931D02*
X13194392Y-7402931D01*
X13194392Y-7402931D02*
X13203916Y-7407693D01*
X13203916Y-7407693D02*
X13208678Y-7412455D01*
X13208678Y-7412455D02*
X13213440Y-7421979D01*
X13213440Y-7421979D02*
X13218202Y-7441027D01*
X13218202Y-7441027D02*
X13218202Y-7464836D01*
X13218202Y-7464836D02*
X13213440Y-7483884D01*
X13213440Y-7483884D02*
X13208678Y-7493408D01*
X13208678Y-7493408D02*
X13203916Y-7498170D01*
X13203916Y-7498170D02*
X13194392Y-7502931D01*
X13194392Y-7502931D02*
X13184868Y-7502931D01*
X13184868Y-7502931D02*
X13175345Y-7498170D01*
X13175345Y-7498170D02*
X13170583Y-7493408D01*
X13170583Y-7493408D02*
X13165821Y-7483884D01*
X13165821Y-7483884D02*
X13161059Y-7464836D01*
X13161059Y-7464836D02*
X13161059Y-7441027D01*
X13161059Y-7441027D02*
X13165821Y-7421979D01*
X13165821Y-7421979D02*
X13170583Y-7412455D01*
X13170583Y-7412455D02*
X13175345Y-7407693D01*
X13175345Y-7407693D02*
X13184868Y-7402931D01*
X13303916Y-7436265D02*
X13303916Y-7502931D01*
X13280106Y-7398170D02*
X13256297Y-7469598D01*
X13256297Y-7469598D02*
X13318202Y-7469598D01*
X13375345Y-7402931D02*
X13384868Y-7402931D01*
X13384868Y-7402931D02*
X13394392Y-7407693D01*
X13394392Y-7407693D02*
X13399154Y-7412455D01*
X13399154Y-7412455D02*
X13403916Y-7421979D01*
X13403916Y-7421979D02*
X13408678Y-7441027D01*
X13408678Y-7441027D02*
X13408678Y-7464836D01*
X13408678Y-7464836D02*
X13403916Y-7483884D01*
X13403916Y-7483884D02*
X13399154Y-7493408D01*
X13399154Y-7493408D02*
X13394392Y-7498170D01*
X13394392Y-7498170D02*
X13384868Y-7502931D01*
X13384868Y-7502931D02*
X13375345Y-7502931D01*
X13375345Y-7502931D02*
X13365821Y-7498170D01*
X13365821Y-7498170D02*
X13361059Y-7493408D01*
X13361059Y-7493408D02*
X13356297Y-7483884D01*
X13356297Y-7483884D02*
X13351535Y-7464836D01*
X13351535Y-7464836D02*
X13351535Y-7441027D01*
X13351535Y-7441027D02*
X13356297Y-7421979D01*
X13356297Y-7421979D02*
X13361059Y-7412455D01*
X13361059Y-7412455D02*
X13365821Y-7407693D01*
X13365821Y-7407693D02*
X13375345Y-7402931D01*
X13465821Y-7445789D02*
X13456297Y-7441027D01*
X13456297Y-7441027D02*
X13451535Y-7436265D01*
X13451535Y-7436265D02*
X13446773Y-7426741D01*
X13446773Y-7426741D02*
X13446773Y-7421979D01*
X13446773Y-7421979D02*
X13451535Y-7412455D01*
X13451535Y-7412455D02*
X13456297Y-7407693D01*
X13456297Y-7407693D02*
X13465821Y-7402931D01*
X13465821Y-7402931D02*
X13484868Y-7402931D01*
X13484868Y-7402931D02*
X13494392Y-7407693D01*
X13494392Y-7407693D02*
X13499154Y-7412455D01*
X13499154Y-7412455D02*
X13503916Y-7421979D01*
X13503916Y-7421979D02*
X13503916Y-7426741D01*
X13503916Y-7426741D02*
X13499154Y-7436265D01*
X13499154Y-7436265D02*
X13494392Y-7441027D01*
X13494392Y-7441027D02*
X13484868Y-7445789D01*
X13484868Y-7445789D02*
X13465821Y-7445789D01*
X13465821Y-7445789D02*
X13456297Y-7450550D01*
X13456297Y-7450550D02*
X13451535Y-7455312D01*
X13451535Y-7455312D02*
X13446773Y-7464836D01*
X13446773Y-7464836D02*
X13446773Y-7483884D01*
X13446773Y-7483884D02*
X13451535Y-7493408D01*
X13451535Y-7493408D02*
X13456297Y-7498170D01*
X13456297Y-7498170D02*
X13465821Y-7502931D01*
X13465821Y-7502931D02*
X13484868Y-7502931D01*
X13484868Y-7502931D02*
X13494392Y-7498170D01*
X13494392Y-7498170D02*
X13499154Y-7493408D01*
X13499154Y-7493408D02*
X13503916Y-7483884D01*
X13503916Y-7483884D02*
X13503916Y-7464836D01*
X13503916Y-7464836D02*
X13499154Y-7455312D01*
X13499154Y-7455312D02*
X13494392Y-7450550D01*
X13494392Y-7450550D02*
X13484868Y-7445789D01*
X13599154Y-7502931D02*
X13542011Y-7502931D01*
X13570583Y-7502931D02*
X13570583Y-7402931D01*
X13570583Y-7402931D02*
X13561059Y-7417217D01*
X13561059Y-7417217D02*
X13551535Y-7426741D01*
X13551535Y-7426741D02*
X13542011Y-7431503D01*
X13642011Y-7502931D02*
X13642011Y-7402931D01*
X13642011Y-7450550D02*
X13699154Y-7450550D01*
X13699154Y-7502931D02*
X13699154Y-7402931D01*
X13746773Y-7464836D02*
X13822964Y-7464836D01*
X13861059Y-7402931D02*
X13922964Y-7402931D01*
X13922964Y-7402931D02*
X13889630Y-7441027D01*
X13889630Y-7441027D02*
X13903916Y-7441027D01*
X13903916Y-7441027D02*
X13913440Y-7445789D01*
X13913440Y-7445789D02*
X13918202Y-7450550D01*
X13918202Y-7450550D02*
X13922964Y-7460074D01*
X13922964Y-7460074D02*
X13922964Y-7483884D01*
X13922964Y-7483884D02*
X13918202Y-7493408D01*
X13918202Y-7493408D02*
X13913440Y-7498170D01*
X13913440Y-7498170D02*
X13903916Y-7502931D01*
X13903916Y-7502931D02*
X13875345Y-7502931D01*
X13875345Y-7502931D02*
X13865821Y-7498170D01*
X13865821Y-7498170D02*
X13861059Y-7493408D01*
X13956297Y-7402931D02*
X14018202Y-7402931D01*
X14018202Y-7402931D02*
X13984868Y-7441027D01*
X13984868Y-7441027D02*
X13999154Y-7441027D01*
X13999154Y-7441027D02*
X14008678Y-7445789D01*
X14008678Y-7445789D02*
X14013440Y-7450550D01*
X14013440Y-7450550D02*
X14018202Y-7460074D01*
X14018202Y-7460074D02*
X14018202Y-7483884D01*
X14018202Y-7483884D02*
X14013440Y-7493408D01*
X14013440Y-7493408D02*
X14008678Y-7498170D01*
X14008678Y-7498170D02*
X13999154Y-7502931D01*
X13999154Y-7502931D02*
X13970583Y-7502931D01*
X13970583Y-7502931D02*
X13961059Y-7498170D01*
X13961059Y-7498170D02*
X13956297Y-7493408D01*
X14113440Y-7502931D02*
X14056297Y-7502931D01*
X14084868Y-7502931D02*
X14084868Y-7402931D01*
X14084868Y-7402931D02*
X14075345Y-7417217D01*
X14075345Y-7417217D02*
X14065821Y-7426741D01*
X14065821Y-7426741D02*
X14056297Y-7431503D01*
X14146773Y-7402931D02*
X14208678Y-7402931D01*
X14208678Y-7402931D02*
X14175345Y-7441027D01*
X14175345Y-7441027D02*
X14189630Y-7441027D01*
X14189630Y-7441027D02*
X14199154Y-7445789D01*
X14199154Y-7445789D02*
X14203916Y-7450550D01*
X14203916Y-7450550D02*
X14208678Y-7460074D01*
X14208678Y-7460074D02*
X14208678Y-7483884D01*
X14208678Y-7483884D02*
X14203916Y-7493408D01*
X14203916Y-7493408D02*
X14199154Y-7498170D01*
X14199154Y-7498170D02*
X14189630Y-7502931D01*
X14189630Y-7502931D02*
X14161059Y-7502931D01*
X14161059Y-7502931D02*
X14151535Y-7498170D01*
X14151535Y-7498170D02*
X14146773Y-7493408D01*
X14322964Y-7498170D02*
X14337249Y-7502931D01*
X14337249Y-7502931D02*
X14361059Y-7502931D01*
X14361059Y-7502931D02*
X14370583Y-7498170D01*
X14370583Y-7498170D02*
X14375345Y-7493408D01*
X14375345Y-7493408D02*
X14380106Y-7483884D01*
X14380106Y-7483884D02*
X14380106Y-7474360D01*
X14380106Y-7474360D02*
X14375345Y-7464836D01*
X14375345Y-7464836D02*
X14370583Y-7460074D01*
X14370583Y-7460074D02*
X14361059Y-7455312D01*
X14361059Y-7455312D02*
X14342011Y-7450550D01*
X14342011Y-7450550D02*
X14332487Y-7445789D01*
X14332487Y-7445789D02*
X14327726Y-7441027D01*
X14327726Y-7441027D02*
X14322964Y-7431503D01*
X14322964Y-7431503D02*
X14322964Y-7421979D01*
X14322964Y-7421979D02*
X14327726Y-7412455D01*
X14327726Y-7412455D02*
X14332487Y-7407693D01*
X14332487Y-7407693D02*
X14342011Y-7402931D01*
X14342011Y-7402931D02*
X14365821Y-7402931D01*
X14365821Y-7402931D02*
X14380106Y-7407693D01*
X14408678Y-7436265D02*
X14446773Y-7436265D01*
X14422964Y-7402931D02*
X14422964Y-7488646D01*
X14422964Y-7488646D02*
X14427726Y-7498170D01*
X14427726Y-7498170D02*
X14437249Y-7502931D01*
X14437249Y-7502931D02*
X14446773Y-7502931D01*
X14522964Y-7502931D02*
X14522964Y-7450550D01*
X14522964Y-7450550D02*
X14518202Y-7441027D01*
X14518202Y-7441027D02*
X14508678Y-7436265D01*
X14508678Y-7436265D02*
X14489630Y-7436265D01*
X14489630Y-7436265D02*
X14480107Y-7441027D01*
X14522964Y-7498170D02*
X14513440Y-7502931D01*
X14513440Y-7502931D02*
X14489630Y-7502931D01*
X14489630Y-7502931D02*
X14480107Y-7498170D01*
X14480107Y-7498170D02*
X14475345Y-7488646D01*
X14475345Y-7488646D02*
X14475345Y-7479122D01*
X14475345Y-7479122D02*
X14480107Y-7469598D01*
X14480107Y-7469598D02*
X14489630Y-7464836D01*
X14489630Y-7464836D02*
X14513440Y-7464836D01*
X14513440Y-7464836D02*
X14522964Y-7460074D01*
X14613440Y-7498170D02*
X14603916Y-7502931D01*
X14603916Y-7502931D02*
X14584868Y-7502931D01*
X14584868Y-7502931D02*
X14575345Y-7498170D01*
X14575345Y-7498170D02*
X14570583Y-7493408D01*
X14570583Y-7493408D02*
X14565821Y-7483884D01*
X14565821Y-7483884D02*
X14565821Y-7455312D01*
X14565821Y-7455312D02*
X14570583Y-7445789D01*
X14570583Y-7445789D02*
X14575345Y-7441027D01*
X14575345Y-7441027D02*
X14584868Y-7436265D01*
X14584868Y-7436265D02*
X14603916Y-7436265D01*
X14603916Y-7436265D02*
X14613440Y-7441027D01*
X14656297Y-7502931D02*
X14656297Y-7402931D01*
X14665821Y-7464836D02*
X14694392Y-7502931D01*
X14694392Y-7436265D02*
X14656297Y-7474360D01*
X14780107Y-7436265D02*
X14780107Y-7502931D01*
X14737249Y-7436265D02*
X14737249Y-7488646D01*
X14737249Y-7488646D02*
X14742011Y-7498170D01*
X14742011Y-7498170D02*
X14751535Y-7502931D01*
X14751535Y-7502931D02*
X14765821Y-7502931D01*
X14765821Y-7502931D02*
X14775345Y-7498170D01*
X14775345Y-7498170D02*
X14780107Y-7493408D01*
X14827726Y-7436265D02*
X14827726Y-7536265D01*
X14827726Y-7441027D02*
X14837249Y-7436265D01*
X14837249Y-7436265D02*
X14856297Y-7436265D01*
X14856297Y-7436265D02*
X14865821Y-7441027D01*
X14865821Y-7441027D02*
X14870583Y-7445789D01*
X14870583Y-7445789D02*
X14875345Y-7455312D01*
X14875345Y-7455312D02*
X14875345Y-7483884D01*
X14875345Y-7483884D02*
X14870583Y-7493408D01*
X14870583Y-7493408D02*
X14865821Y-7498170D01*
X14865821Y-7498170D02*
X14856297Y-7502931D01*
X14856297Y-7502931D02*
X14837249Y-7502931D01*
X14837249Y-7502931D02*
X14827726Y-7498170D01*
X14918202Y-7493408D02*
X14922964Y-7498170D01*
X14922964Y-7498170D02*
X14918202Y-7502931D01*
X14918202Y-7502931D02*
X14913440Y-7498170D01*
X14913440Y-7498170D02*
X14918202Y-7493408D01*
X14918202Y-7493408D02*
X14918202Y-7502931D01*
X15042011Y-7502931D02*
X15042011Y-7402931D01*
X15042011Y-7402931D02*
X15099154Y-7502931D01*
X15099154Y-7502931D02*
X15099154Y-7402931D01*
X15161059Y-7502931D02*
X15151535Y-7498170D01*
X15151535Y-7498170D02*
X15146773Y-7493408D01*
X15146773Y-7493408D02*
X15142011Y-7483884D01*
X15142011Y-7483884D02*
X15142011Y-7455312D01*
X15142011Y-7455312D02*
X15146773Y-7445789D01*
X15146773Y-7445789D02*
X15151535Y-7441027D01*
X15151535Y-7441027D02*
X15161059Y-7436265D01*
X15161059Y-7436265D02*
X15175345Y-7436265D01*
X15175345Y-7436265D02*
X15184868Y-7441027D01*
X15184868Y-7441027D02*
X15189630Y-7445789D01*
X15189630Y-7445789D02*
X15194392Y-7455312D01*
X15194392Y-7455312D02*
X15194392Y-7483884D01*
X15194392Y-7483884D02*
X15189630Y-7493408D01*
X15189630Y-7493408D02*
X15184868Y-7498170D01*
X15184868Y-7498170D02*
X15175345Y-7502931D01*
X15175345Y-7502931D02*
X15161059Y-7502931D01*
X15222964Y-7436265D02*
X15261059Y-7436265D01*
X15237249Y-7402931D02*
X15237249Y-7488646D01*
X15237249Y-7488646D02*
X15242011Y-7498170D01*
X15242011Y-7498170D02*
X15251535Y-7502931D01*
X15251535Y-7502931D02*
X15261059Y-7502931D01*
X12951535Y-7597259D02*
X12951535Y-7697259D01*
X12951535Y-7659164D02*
X12942011Y-7663926D01*
X12942011Y-7663926D02*
X12922964Y-7663926D01*
X12922964Y-7663926D02*
X12913440Y-7659164D01*
X12913440Y-7659164D02*
X12908678Y-7654402D01*
X12908678Y-7654402D02*
X12903916Y-7644878D01*
X12903916Y-7644878D02*
X12903916Y-7616307D01*
X12903916Y-7616307D02*
X12908678Y-7606783D01*
X12908678Y-7606783D02*
X12913440Y-7602021D01*
X12913440Y-7602021D02*
X12922964Y-7597259D01*
X12922964Y-7597259D02*
X12942011Y-7597259D01*
X12942011Y-7597259D02*
X12951535Y-7602021D01*
X13042011Y-7597259D02*
X13042011Y-7663926D01*
X12999154Y-7597259D02*
X12999154Y-7649640D01*
X12999154Y-7649640D02*
X13003916Y-7659164D01*
X13003916Y-7659164D02*
X13013440Y-7663926D01*
X13013440Y-7663926D02*
X13027725Y-7663926D01*
X13027725Y-7663926D02*
X13037249Y-7659164D01*
X13037249Y-7659164D02*
X13042011Y-7654402D01*
X13089630Y-7663926D02*
X13089630Y-7597259D01*
X13089630Y-7563926D02*
X13084868Y-7568688D01*
X13084868Y-7568688D02*
X13089630Y-7573450D01*
X13089630Y-7573450D02*
X13094392Y-7568688D01*
X13094392Y-7568688D02*
X13089630Y-7563926D01*
X13089630Y-7563926D02*
X13089630Y-7573450D01*
X13122964Y-7597259D02*
X13161059Y-7597259D01*
X13137249Y-7563926D02*
X13137249Y-7649640D01*
X13137249Y-7649640D02*
X13142011Y-7659164D01*
X13142011Y-7659164D02*
X13151535Y-7663926D01*
X13151535Y-7663926D02*
X13161059Y-7663926D01*
X13232487Y-7659164D02*
X13222964Y-7663926D01*
X13222964Y-7663926D02*
X13203916Y-7663926D01*
X13203916Y-7663926D02*
X13194392Y-7659164D01*
X13194392Y-7659164D02*
X13189630Y-7649640D01*
X13189630Y-7649640D02*
X13189630Y-7611545D01*
X13189630Y-7611545D02*
X13194392Y-7602021D01*
X13194392Y-7602021D02*
X13203916Y-7597259D01*
X13203916Y-7597259D02*
X13222964Y-7597259D01*
X13222964Y-7597259D02*
X13232487Y-7602021D01*
X13232487Y-7602021D02*
X13237249Y-7611545D01*
X13237249Y-7611545D02*
X13237249Y-7621069D01*
X13237249Y-7621069D02*
X13189630Y-7630592D01*
X13399154Y-7663926D02*
X13399154Y-7611545D01*
X13399154Y-7611545D02*
X13394392Y-7602021D01*
X13394392Y-7602021D02*
X13384868Y-7597259D01*
X13384868Y-7597259D02*
X13365821Y-7597259D01*
X13365821Y-7597259D02*
X13356297Y-7602021D01*
X13399154Y-7659164D02*
X13389630Y-7663926D01*
X13389630Y-7663926D02*
X13365821Y-7663926D01*
X13365821Y-7663926D02*
X13356297Y-7659164D01*
X13356297Y-7659164D02*
X13351535Y-7649640D01*
X13351535Y-7649640D02*
X13351535Y-7640116D01*
X13351535Y-7640116D02*
X13356297Y-7630592D01*
X13356297Y-7630592D02*
X13365821Y-7625831D01*
X13365821Y-7625831D02*
X13389630Y-7625831D01*
X13389630Y-7625831D02*
X13399154Y-7621069D01*
X13446773Y-7597259D02*
X13446773Y-7663926D01*
X13446773Y-7606783D02*
X13451535Y-7602021D01*
X13451535Y-7602021D02*
X13461059Y-7597259D01*
X13461059Y-7597259D02*
X13475345Y-7597259D01*
X13475345Y-7597259D02*
X13484868Y-7602021D01*
X13484868Y-7602021D02*
X13489630Y-7611545D01*
X13489630Y-7611545D02*
X13489630Y-7663926D01*
X13651535Y-7659164D02*
X13642011Y-7663926D01*
X13642011Y-7663926D02*
X13622964Y-7663926D01*
X13622964Y-7663926D02*
X13613440Y-7659164D01*
X13613440Y-7659164D02*
X13608678Y-7649640D01*
X13608678Y-7649640D02*
X13608678Y-7611545D01*
X13608678Y-7611545D02*
X13613440Y-7602021D01*
X13613440Y-7602021D02*
X13622964Y-7597259D01*
X13622964Y-7597259D02*
X13642011Y-7597259D01*
X13642011Y-7597259D02*
X13651535Y-7602021D01*
X13651535Y-7602021D02*
X13656297Y-7611545D01*
X13656297Y-7611545D02*
X13656297Y-7621069D01*
X13656297Y-7621069D02*
X13608678Y-7630592D01*
X13689630Y-7663926D02*
X13742011Y-7597259D01*
X13689630Y-7597259D02*
X13742011Y-7663926D01*
X13822964Y-7663926D02*
X13822964Y-7611545D01*
X13822964Y-7611545D02*
X13818202Y-7602021D01*
X13818202Y-7602021D02*
X13808678Y-7597259D01*
X13808678Y-7597259D02*
X13789630Y-7597259D01*
X13789630Y-7597259D02*
X13780107Y-7602021D01*
X13822964Y-7659164D02*
X13813440Y-7663926D01*
X13813440Y-7663926D02*
X13789630Y-7663926D01*
X13789630Y-7663926D02*
X13780107Y-7659164D01*
X13780107Y-7659164D02*
X13775345Y-7649640D01*
X13775345Y-7649640D02*
X13775345Y-7640116D01*
X13775345Y-7640116D02*
X13780107Y-7630592D01*
X13780107Y-7630592D02*
X13789630Y-7625831D01*
X13789630Y-7625831D02*
X13813440Y-7625831D01*
X13813440Y-7625831D02*
X13822964Y-7621069D01*
X13913440Y-7659164D02*
X13903916Y-7663926D01*
X13903916Y-7663926D02*
X13884868Y-7663926D01*
X13884868Y-7663926D02*
X13875345Y-7659164D01*
X13875345Y-7659164D02*
X13870583Y-7654402D01*
X13870583Y-7654402D02*
X13865821Y-7644878D01*
X13865821Y-7644878D02*
X13865821Y-7616307D01*
X13865821Y-7616307D02*
X13870583Y-7606783D01*
X13870583Y-7606783D02*
X13875345Y-7602021D01*
X13875345Y-7602021D02*
X13884868Y-7597259D01*
X13884868Y-7597259D02*
X13903916Y-7597259D01*
X13903916Y-7597259D02*
X13913440Y-7602021D01*
X13942011Y-7597259D02*
X13980107Y-7597259D01*
X13956297Y-7563926D02*
X13956297Y-7649640D01*
X13956297Y-7649640D02*
X13961059Y-7659164D01*
X13961059Y-7659164D02*
X13970583Y-7663926D01*
X13970583Y-7663926D02*
X13980107Y-7663926D01*
X14089630Y-7663926D02*
X14089630Y-7597259D01*
X14089630Y-7606783D02*
X14094392Y-7602021D01*
X14094392Y-7602021D02*
X14103916Y-7597259D01*
X14103916Y-7597259D02*
X14118202Y-7597259D01*
X14118202Y-7597259D02*
X14127726Y-7602021D01*
X14127726Y-7602021D02*
X14132488Y-7611545D01*
X14132488Y-7611545D02*
X14132488Y-7663926D01*
X14132488Y-7611545D02*
X14137249Y-7602021D01*
X14137249Y-7602021D02*
X14146773Y-7597259D01*
X14146773Y-7597259D02*
X14161059Y-7597259D01*
X14161059Y-7597259D02*
X14170583Y-7602021D01*
X14170583Y-7602021D02*
X14175345Y-7611545D01*
X14175345Y-7611545D02*
X14175345Y-7663926D01*
X14265821Y-7663926D02*
X14265821Y-7611545D01*
X14265821Y-7611545D02*
X14261059Y-7602021D01*
X14261059Y-7602021D02*
X14251535Y-7597259D01*
X14251535Y-7597259D02*
X14232488Y-7597259D01*
X14232488Y-7597259D02*
X14222964Y-7602021D01*
X14265821Y-7659164D02*
X14256297Y-7663926D01*
X14256297Y-7663926D02*
X14232488Y-7663926D01*
X14232488Y-7663926D02*
X14222964Y-7659164D01*
X14222964Y-7659164D02*
X14218202Y-7649640D01*
X14218202Y-7649640D02*
X14218202Y-7640116D01*
X14218202Y-7640116D02*
X14222964Y-7630592D01*
X14222964Y-7630592D02*
X14232488Y-7625831D01*
X14232488Y-7625831D02*
X14256297Y-7625831D01*
X14256297Y-7625831D02*
X14265821Y-7621069D01*
X14299154Y-7597259D02*
X14337249Y-7597259D01*
X14313440Y-7563926D02*
X14313440Y-7649640D01*
X14313440Y-7649640D02*
X14318202Y-7659164D01*
X14318202Y-7659164D02*
X14327726Y-7663926D01*
X14327726Y-7663926D02*
X14337249Y-7663926D01*
X14413440Y-7659164D02*
X14403916Y-7663926D01*
X14403916Y-7663926D02*
X14384869Y-7663926D01*
X14384869Y-7663926D02*
X14375345Y-7659164D01*
X14375345Y-7659164D02*
X14370583Y-7654402D01*
X14370583Y-7654402D02*
X14365821Y-7644878D01*
X14365821Y-7644878D02*
X14365821Y-7616307D01*
X14365821Y-7616307D02*
X14370583Y-7606783D01*
X14370583Y-7606783D02*
X14375345Y-7602021D01*
X14375345Y-7602021D02*
X14384869Y-7597259D01*
X14384869Y-7597259D02*
X14403916Y-7597259D01*
X14403916Y-7597259D02*
X14413440Y-7602021D01*
X14456297Y-7663926D02*
X14456297Y-7563926D01*
X14499154Y-7663926D02*
X14499154Y-7611545D01*
X14499154Y-7611545D02*
X14494392Y-7602021D01*
X14494392Y-7602021D02*
X14484869Y-7597259D01*
X14484869Y-7597259D02*
X14470583Y-7597259D01*
X14470583Y-7597259D02*
X14461059Y-7602021D01*
X14461059Y-7602021D02*
X14456297Y-7606783D01*
X14551535Y-7659164D02*
X14551535Y-7663926D01*
X14551535Y-7663926D02*
X14546773Y-7673450D01*
X14546773Y-7673450D02*
X14542011Y-7678212D01*
X14670583Y-7663926D02*
X14670583Y-7563926D01*
X14670583Y-7602021D02*
X14680107Y-7597259D01*
X14680107Y-7597259D02*
X14699154Y-7597259D01*
X14699154Y-7597259D02*
X14708678Y-7602021D01*
X14708678Y-7602021D02*
X14713440Y-7606783D01*
X14713440Y-7606783D02*
X14718202Y-7616307D01*
X14718202Y-7616307D02*
X14718202Y-7644878D01*
X14718202Y-7644878D02*
X14713440Y-7654402D01*
X14713440Y-7654402D02*
X14708678Y-7659164D01*
X14708678Y-7659164D02*
X14699154Y-7663926D01*
X14699154Y-7663926D02*
X14680107Y-7663926D01*
X14680107Y-7663926D02*
X14670583Y-7659164D01*
X14803916Y-7597259D02*
X14803916Y-7663926D01*
X14761059Y-7597259D02*
X14761059Y-7649640D01*
X14761059Y-7649640D02*
X14765821Y-7659164D01*
X14765821Y-7659164D02*
X14775345Y-7663926D01*
X14775345Y-7663926D02*
X14789630Y-7663926D01*
X14789630Y-7663926D02*
X14799154Y-7659164D01*
X14799154Y-7659164D02*
X14803916Y-7654402D01*
X14837250Y-7597259D02*
X14875345Y-7597259D01*
X14851535Y-7563926D02*
X14851535Y-7649640D01*
X14851535Y-7649640D02*
X14856297Y-7659164D01*
X14856297Y-7659164D02*
X14865821Y-7663926D01*
X14865821Y-7663926D02*
X14875345Y-7663926D01*
X14975345Y-7597259D02*
X14994392Y-7663926D01*
X14994392Y-7663926D02*
X15013440Y-7616307D01*
X15013440Y-7616307D02*
X15032488Y-7663926D01*
X15032488Y-7663926D02*
X15051535Y-7597259D01*
X15089631Y-7663926D02*
X15089631Y-7597259D01*
X15089631Y-7563926D02*
X15084869Y-7568688D01*
X15084869Y-7568688D02*
X15089631Y-7573450D01*
X15089631Y-7573450D02*
X15094392Y-7568688D01*
X15094392Y-7568688D02*
X15089631Y-7563926D01*
X15089631Y-7563926D02*
X15089631Y-7573450D01*
X15122964Y-7597259D02*
X15161059Y-7597259D01*
X15137250Y-7563926D02*
X15137250Y-7649640D01*
X15137250Y-7649640D02*
X15142011Y-7659164D01*
X15142011Y-7659164D02*
X15151535Y-7663926D01*
X15151535Y-7663926D02*
X15161059Y-7663926D01*
X15194392Y-7663926D02*
X15194392Y-7563926D01*
X15237250Y-7663926D02*
X15237250Y-7611545D01*
X15237250Y-7611545D02*
X15232488Y-7602021D01*
X15232488Y-7602021D02*
X15222964Y-7597259D01*
X15222964Y-7597259D02*
X15208678Y-7597259D01*
X15208678Y-7597259D02*
X15199154Y-7602021D01*
X15199154Y-7602021D02*
X15194392Y-7606783D01*
X15284869Y-7663926D02*
X15284869Y-7597259D01*
X15284869Y-7563926D02*
X15280107Y-7568688D01*
X15280107Y-7568688D02*
X15284869Y-7573450D01*
X15284869Y-7573450D02*
X15289631Y-7568688D01*
X15289631Y-7568688D02*
X15284869Y-7563926D01*
X15284869Y-7563926D02*
X15284869Y-7573450D01*
X15332488Y-7597259D02*
X15332488Y-7663926D01*
X15332488Y-7606783D02*
X15337250Y-7602021D01*
X15337250Y-7602021D02*
X15346773Y-7597259D01*
X15346773Y-7597259D02*
X15361059Y-7597259D01*
X15361059Y-7597259D02*
X15370583Y-7602021D01*
X15370583Y-7602021D02*
X15375345Y-7611545D01*
X15375345Y-7611545D02*
X15375345Y-7663926D01*
X12961059Y-7824920D02*
X12903916Y-7824920D01*
X12932487Y-7824920D02*
X12932487Y-7724920D01*
X12932487Y-7724920D02*
X12922964Y-7739206D01*
X12922964Y-7739206D02*
X12913440Y-7748730D01*
X12913440Y-7748730D02*
X12903916Y-7753492D01*
X13022964Y-7724920D02*
X13032487Y-7724920D01*
X13032487Y-7724920D02*
X13042011Y-7729682D01*
X13042011Y-7729682D02*
X13046773Y-7734444D01*
X13046773Y-7734444D02*
X13051535Y-7743968D01*
X13051535Y-7743968D02*
X13056297Y-7763015D01*
X13056297Y-7763015D02*
X13056297Y-7786825D01*
X13056297Y-7786825D02*
X13051535Y-7805873D01*
X13051535Y-7805873D02*
X13046773Y-7815396D01*
X13046773Y-7815396D02*
X13042011Y-7820158D01*
X13042011Y-7820158D02*
X13032487Y-7824920D01*
X13032487Y-7824920D02*
X13022964Y-7824920D01*
X13022964Y-7824920D02*
X13013440Y-7820158D01*
X13013440Y-7820158D02*
X13008678Y-7815396D01*
X13008678Y-7815396D02*
X13003916Y-7805873D01*
X13003916Y-7805873D02*
X12999154Y-7786825D01*
X12999154Y-7786825D02*
X12999154Y-7763015D01*
X12999154Y-7763015D02*
X13003916Y-7743968D01*
X13003916Y-7743968D02*
X13008678Y-7734444D01*
X13008678Y-7734444D02*
X13013440Y-7729682D01*
X13013440Y-7729682D02*
X13022964Y-7724920D01*
X13094392Y-7824920D02*
X13170583Y-7724920D01*
X13108678Y-7724920D02*
X13118202Y-7729682D01*
X13118202Y-7729682D02*
X13122964Y-7739206D01*
X13122964Y-7739206D02*
X13118202Y-7748730D01*
X13118202Y-7748730D02*
X13108678Y-7753492D01*
X13108678Y-7753492D02*
X13099154Y-7748730D01*
X13099154Y-7748730D02*
X13094392Y-7739206D01*
X13094392Y-7739206D02*
X13099154Y-7729682D01*
X13099154Y-7729682D02*
X13108678Y-7724920D01*
X13165821Y-7820158D02*
X13170583Y-7810634D01*
X13170583Y-7810634D02*
X13165821Y-7801111D01*
X13165821Y-7801111D02*
X13156297Y-7796349D01*
X13156297Y-7796349D02*
X13146773Y-7801111D01*
X13146773Y-7801111D02*
X13142011Y-7810634D01*
X13142011Y-7810634D02*
X13146773Y-7820158D01*
X13146773Y-7820158D02*
X13156297Y-7824920D01*
X13156297Y-7824920D02*
X13165821Y-7820158D01*
X13213440Y-7815396D02*
X13218202Y-7820158D01*
X13218202Y-7820158D02*
X13213440Y-7824920D01*
X13213440Y-7824920D02*
X13208678Y-7820158D01*
X13208678Y-7820158D02*
X13213440Y-7815396D01*
X13213440Y-7815396D02*
X13213440Y-7824920D01*
D15*
X5748690Y-4638193D02*
X5748690Y-4598193D01*
X5771547Y-4638193D02*
X5754405Y-4615336D01*
X5771547Y-4598193D02*
X5748690Y-4621050D01*
X5788690Y-4617240D02*
X5802024Y-4617240D01*
X5807738Y-4638193D02*
X5788690Y-4638193D01*
X5788690Y-4638193D02*
X5788690Y-4598193D01*
X5788690Y-4598193D02*
X5807738Y-4598193D01*
X5824881Y-4617240D02*
X5838214Y-4617240D01*
X5843928Y-4638193D02*
X5824881Y-4638193D01*
X5824881Y-4638193D02*
X5824881Y-4598193D01*
X5824881Y-4598193D02*
X5843928Y-4598193D01*
X5861071Y-4638193D02*
X5861071Y-4598193D01*
X5861071Y-4598193D02*
X5876309Y-4598193D01*
X5876309Y-4598193D02*
X5880119Y-4600098D01*
X5880119Y-4600098D02*
X5882024Y-4602002D01*
X5882024Y-4602002D02*
X5883928Y-4605812D01*
X5883928Y-4605812D02*
X5883928Y-4611526D01*
X5883928Y-4611526D02*
X5882024Y-4615336D01*
X5882024Y-4615336D02*
X5880119Y-4617240D01*
X5880119Y-4617240D02*
X5876309Y-4619145D01*
X5876309Y-4619145D02*
X5861071Y-4619145D01*
X5908690Y-4598193D02*
X5916309Y-4598193D01*
X5916309Y-4598193D02*
X5920119Y-4600098D01*
X5920119Y-4600098D02*
X5923928Y-4603907D01*
X5923928Y-4603907D02*
X5925833Y-4611526D01*
X5925833Y-4611526D02*
X5925833Y-4624859D01*
X5925833Y-4624859D02*
X5923928Y-4632478D01*
X5923928Y-4632478D02*
X5920119Y-4636288D01*
X5920119Y-4636288D02*
X5916309Y-4638193D01*
X5916309Y-4638193D02*
X5908690Y-4638193D01*
X5908690Y-4638193D02*
X5904881Y-4636288D01*
X5904881Y-4636288D02*
X5901071Y-4632478D01*
X5901071Y-4632478D02*
X5899167Y-4624859D01*
X5899167Y-4624859D02*
X5899167Y-4611526D01*
X5899167Y-4611526D02*
X5901071Y-4603907D01*
X5901071Y-4603907D02*
X5904881Y-4600098D01*
X5904881Y-4600098D02*
X5908690Y-4598193D01*
X5942976Y-4598193D02*
X5942976Y-4630574D01*
X5942976Y-4630574D02*
X5944881Y-4634383D01*
X5944881Y-4634383D02*
X5946786Y-4636288D01*
X5946786Y-4636288D02*
X5950595Y-4638193D01*
X5950595Y-4638193D02*
X5958214Y-4638193D01*
X5958214Y-4638193D02*
X5962024Y-4636288D01*
X5962024Y-4636288D02*
X5963928Y-4634383D01*
X5963928Y-4634383D02*
X5965833Y-4630574D01*
X5965833Y-4630574D02*
X5965833Y-4598193D01*
X5979167Y-4598193D02*
X6002024Y-4598193D01*
X5990595Y-4638193D02*
X5990595Y-4598193D01*
D10*
X5517976Y-5093242D02*
X5517976Y-4993242D01*
X5575119Y-5093242D02*
X5532262Y-5036099D01*
X5575119Y-4993242D02*
X5517976Y-5050385D01*
X5617976Y-5040861D02*
X5651309Y-5040861D01*
X5665595Y-5093242D02*
X5617976Y-5093242D01*
X5617976Y-5093242D02*
X5617976Y-4993242D01*
X5617976Y-4993242D02*
X5665595Y-4993242D01*
X5708452Y-5040861D02*
X5741786Y-5040861D01*
X5756071Y-5093242D02*
X5708452Y-5093242D01*
X5708452Y-5093242D02*
X5708452Y-4993242D01*
X5708452Y-4993242D02*
X5756071Y-4993242D01*
X5798929Y-5093242D02*
X5798929Y-4993242D01*
X5798929Y-4993242D02*
X5837024Y-4993242D01*
X5837024Y-4993242D02*
X5846548Y-4998004D01*
X5846548Y-4998004D02*
X5851309Y-5002766D01*
X5851309Y-5002766D02*
X5856071Y-5012290D01*
X5856071Y-5012290D02*
X5856071Y-5026575D01*
X5856071Y-5026575D02*
X5851309Y-5036099D01*
X5851309Y-5036099D02*
X5846548Y-5040861D01*
X5846548Y-5040861D02*
X5837024Y-5045623D01*
X5837024Y-5045623D02*
X5798929Y-5045623D01*
X5917976Y-4993242D02*
X5937024Y-4993242D01*
X5937024Y-4993242D02*
X5946548Y-4998004D01*
X5946548Y-4998004D02*
X5956071Y-5007528D01*
X5956071Y-5007528D02*
X5960833Y-5026575D01*
X5960833Y-5026575D02*
X5960833Y-5059909D01*
X5960833Y-5059909D02*
X5956071Y-5078956D01*
X5956071Y-5078956D02*
X5946548Y-5088480D01*
X5946548Y-5088480D02*
X5937024Y-5093242D01*
X5937024Y-5093242D02*
X5917976Y-5093242D01*
X5917976Y-5093242D02*
X5908452Y-5088480D01*
X5908452Y-5088480D02*
X5898929Y-5078956D01*
X5898929Y-5078956D02*
X5894167Y-5059909D01*
X5894167Y-5059909D02*
X5894167Y-5026575D01*
X5894167Y-5026575D02*
X5898929Y-5007528D01*
X5898929Y-5007528D02*
X5908452Y-4998004D01*
X5908452Y-4998004D02*
X5917976Y-4993242D01*
X6003690Y-4993242D02*
X6003690Y-5074194D01*
X6003690Y-5074194D02*
X6008452Y-5083718D01*
X6008452Y-5083718D02*
X6013214Y-5088480D01*
X6013214Y-5088480D02*
X6022738Y-5093242D01*
X6022738Y-5093242D02*
X6041786Y-5093242D01*
X6041786Y-5093242D02*
X6051309Y-5088480D01*
X6051309Y-5088480D02*
X6056071Y-5083718D01*
X6056071Y-5083718D02*
X6060833Y-5074194D01*
X6060833Y-5074194D02*
X6060833Y-4993242D01*
X6094167Y-4993242D02*
X6151309Y-4993242D01*
X6122738Y-5093242D02*
X6122738Y-4993242D01*
D11*
X11470000Y-7200000D02*
G75*
G02*
X10930000Y-7200000I-270000J0D01*
G01*
X10930000Y-7200000D02*
G75*
G02*
X11470000Y-7200000I270000J0D01*
G01*
X3770000Y-7200000D02*
G75*
G02*
X3230000Y-7200000I-270000J0D01*
G01*
X3230000Y-7200000D02*
G75*
G02*
X3770000Y-7200000I270000J0D01*
G01*
X3770000Y-3000000D02*
G75*
G02*
X3230000Y-3000000I-270000J0D01*
G01*
X3230000Y-3000000D02*
G75*
G02*
X3770000Y-3000000I270000J0D01*
G01*
X11470000Y-3000000D02*
G75*
G02*
X10930000Y-3000000I-270000J0D01*
G01*
X10930000Y-3000000D02*
G75*
G02*
X11470000Y-3000000I270000J0D01*
G01*
M02*
