%TF.GenerationSoftware,KiCad,Pcbnew,8.0.6+1*%
%TF.CreationDate,2025-01-07T07:54:15+00:00*%
%TF.ProjectId,gshps,67736870-732e-46b6-9963-61645f706362,B*%
%TF.SameCoordinates,Original*%
%TF.FileFunction,Other,Comment*%
%FSLAX45Y45*%
G04 Gerber Fmt 4.5, Leading zero omitted, Abs format (unit mm)*
G04 Created by KiCad (PCBNEW 8.0.6+1) date 2025-01-07 07:54:15*
%MOMM*%
%LPD*%
G01*
G04 APERTURE LIST*
%TA.AperFunction,Profile*%
%ADD10C,0.100000*%
%TD*%
%ADD11C,0.150000*%
%ADD12C,0.100000*%
%ADD13C,0.060000*%
G04 APERTURE END LIST*
D10*
X4300000Y-5900000D02*
X6350000Y-5900000D01*
X10750000Y-2350000D02*
G75*
G02*
X11850000Y-3450000I0J-1100000D01*
G01*
X11850000Y-6750000D02*
G75*
G02*
X10750000Y-7850000I-1100000J0D01*
G01*
X3950000Y-7850000D02*
G75*
G02*
X2850000Y-6750000I0J1100000D01*
G01*
X4100000Y-7850000D02*
X4100000Y-6100000D01*
X4100000Y-6100000D02*
G75*
G02*
X4300000Y-5900000I200000J0D01*
G01*
X10750000Y-7850000D02*
X6550000Y-7850000D01*
X3950000Y-2350000D02*
X10750000Y-2350000D01*
X4100000Y-7850000D02*
X3950000Y-7850000D01*
X2850000Y-6750000D02*
X2850000Y-3450000D01*
X6550000Y-7850000D02*
X6550000Y-6100000D01*
X2850000Y-3450000D02*
G75*
G02*
X3950000Y-2350000I1100000J0D01*
G01*
X6350000Y-5900000D02*
G75*
G02*
X6550000Y-6100000I0J-200000D01*
G01*
X11850000Y-3450000D02*
X11850000Y-6750000D01*
D11*
X12908678Y-5953982D02*
X12908678Y-6034934D01*
X12908678Y-6034934D02*
X12913440Y-6044458D01*
X12913440Y-6044458D02*
X12918202Y-6049220D01*
X12918202Y-6049220D02*
X12927725Y-6053982D01*
X12927725Y-6053982D02*
X12946773Y-6053982D01*
X12946773Y-6053982D02*
X12956297Y-6049220D01*
X12956297Y-6049220D02*
X12961059Y-6044458D01*
X12961059Y-6044458D02*
X12965821Y-6034934D01*
X12965821Y-6034934D02*
X12965821Y-5953982D01*
X13008678Y-6049220D02*
X13022963Y-6053982D01*
X13022963Y-6053982D02*
X13046773Y-6053982D01*
X13046773Y-6053982D02*
X13056297Y-6049220D01*
X13056297Y-6049220D02*
X13061059Y-6044458D01*
X13061059Y-6044458D02*
X13065821Y-6034934D01*
X13065821Y-6034934D02*
X13065821Y-6025410D01*
X13065821Y-6025410D02*
X13061059Y-6015886D01*
X13061059Y-6015886D02*
X13056297Y-6011125D01*
X13056297Y-6011125D02*
X13046773Y-6006363D01*
X13046773Y-6006363D02*
X13027725Y-6001601D01*
X13027725Y-6001601D02*
X13018202Y-5996839D01*
X13018202Y-5996839D02*
X13013440Y-5992077D01*
X13013440Y-5992077D02*
X13008678Y-5982553D01*
X13008678Y-5982553D02*
X13008678Y-5973029D01*
X13008678Y-5973029D02*
X13013440Y-5963506D01*
X13013440Y-5963506D02*
X13018202Y-5958744D01*
X13018202Y-5958744D02*
X13027725Y-5953982D01*
X13027725Y-5953982D02*
X13051535Y-5953982D01*
X13051535Y-5953982D02*
X13065821Y-5958744D01*
X13142011Y-6001601D02*
X13156297Y-6006363D01*
X13156297Y-6006363D02*
X13161059Y-6011125D01*
X13161059Y-6011125D02*
X13165821Y-6020648D01*
X13165821Y-6020648D02*
X13165821Y-6034934D01*
X13165821Y-6034934D02*
X13161059Y-6044458D01*
X13161059Y-6044458D02*
X13156297Y-6049220D01*
X13156297Y-6049220D02*
X13146773Y-6053982D01*
X13146773Y-6053982D02*
X13108678Y-6053982D01*
X13108678Y-6053982D02*
X13108678Y-5953982D01*
X13108678Y-5953982D02*
X13142011Y-5953982D01*
X13142011Y-5953982D02*
X13151535Y-5958744D01*
X13151535Y-5958744D02*
X13156297Y-5963506D01*
X13156297Y-5963506D02*
X13161059Y-5973029D01*
X13161059Y-5973029D02*
X13161059Y-5982553D01*
X13161059Y-5982553D02*
X13156297Y-5992077D01*
X13156297Y-5992077D02*
X13151535Y-5996839D01*
X13151535Y-5996839D02*
X13142011Y-6001601D01*
X13142011Y-6001601D02*
X13108678Y-6001601D01*
X13270583Y-5953982D02*
X13327725Y-5953982D01*
X13299154Y-6053982D02*
X13299154Y-5953982D01*
X13361059Y-6053982D02*
X13361059Y-5987315D01*
X13361059Y-6006363D02*
X13365821Y-5996839D01*
X13365821Y-5996839D02*
X13370583Y-5992077D01*
X13370583Y-5992077D02*
X13380106Y-5987315D01*
X13380106Y-5987315D02*
X13389630Y-5987315D01*
X13465821Y-6053982D02*
X13465821Y-6001601D01*
X13465821Y-6001601D02*
X13461059Y-5992077D01*
X13461059Y-5992077D02*
X13451535Y-5987315D01*
X13451535Y-5987315D02*
X13432487Y-5987315D01*
X13432487Y-5987315D02*
X13422964Y-5992077D01*
X13465821Y-6049220D02*
X13456297Y-6053982D01*
X13456297Y-6053982D02*
X13432487Y-6053982D01*
X13432487Y-6053982D02*
X13422964Y-6049220D01*
X13422964Y-6049220D02*
X13418202Y-6039696D01*
X13418202Y-6039696D02*
X13418202Y-6030172D01*
X13418202Y-6030172D02*
X13422964Y-6020648D01*
X13422964Y-6020648D02*
X13432487Y-6015886D01*
X13432487Y-6015886D02*
X13456297Y-6015886D01*
X13456297Y-6015886D02*
X13465821Y-6011125D01*
X13556297Y-6049220D02*
X13546773Y-6053982D01*
X13546773Y-6053982D02*
X13527725Y-6053982D01*
X13527725Y-6053982D02*
X13518202Y-6049220D01*
X13518202Y-6049220D02*
X13513440Y-6044458D01*
X13513440Y-6044458D02*
X13508678Y-6034934D01*
X13508678Y-6034934D02*
X13508678Y-6006363D01*
X13508678Y-6006363D02*
X13513440Y-5996839D01*
X13513440Y-5996839D02*
X13518202Y-5992077D01*
X13518202Y-5992077D02*
X13527725Y-5987315D01*
X13527725Y-5987315D02*
X13546773Y-5987315D01*
X13546773Y-5987315D02*
X13556297Y-5992077D01*
X13637249Y-6049220D02*
X13627725Y-6053982D01*
X13627725Y-6053982D02*
X13608678Y-6053982D01*
X13608678Y-6053982D02*
X13599154Y-6049220D01*
X13599154Y-6049220D02*
X13594392Y-6039696D01*
X13594392Y-6039696D02*
X13594392Y-6001601D01*
X13594392Y-6001601D02*
X13599154Y-5992077D01*
X13599154Y-5992077D02*
X13608678Y-5987315D01*
X13608678Y-5987315D02*
X13627725Y-5987315D01*
X13627725Y-5987315D02*
X13637249Y-5992077D01*
X13637249Y-5992077D02*
X13642011Y-6001601D01*
X13642011Y-6001601D02*
X13642011Y-6011125D01*
X13642011Y-6011125D02*
X13594392Y-6020648D01*
X13680106Y-6049220D02*
X13689630Y-6053982D01*
X13689630Y-6053982D02*
X13708678Y-6053982D01*
X13708678Y-6053982D02*
X13718202Y-6049220D01*
X13718202Y-6049220D02*
X13722964Y-6039696D01*
X13722964Y-6039696D02*
X13722964Y-6034934D01*
X13722964Y-6034934D02*
X13718202Y-6025410D01*
X13718202Y-6025410D02*
X13708678Y-6020648D01*
X13708678Y-6020648D02*
X13694392Y-6020648D01*
X13694392Y-6020648D02*
X13684868Y-6015886D01*
X13684868Y-6015886D02*
X13680106Y-6006363D01*
X13680106Y-6006363D02*
X13680106Y-6001601D01*
X13680106Y-6001601D02*
X13684868Y-5992077D01*
X13684868Y-5992077D02*
X13694392Y-5987315D01*
X13694392Y-5987315D02*
X13708678Y-5987315D01*
X13708678Y-5987315D02*
X13718202Y-5992077D01*
X13842011Y-6053982D02*
X13842011Y-5987315D01*
X13842011Y-5996839D02*
X13846773Y-5992077D01*
X13846773Y-5992077D02*
X13856297Y-5987315D01*
X13856297Y-5987315D02*
X13870583Y-5987315D01*
X13870583Y-5987315D02*
X13880106Y-5992077D01*
X13880106Y-5992077D02*
X13884868Y-6001601D01*
X13884868Y-6001601D02*
X13884868Y-6053982D01*
X13884868Y-6001601D02*
X13889630Y-5992077D01*
X13889630Y-5992077D02*
X13899154Y-5987315D01*
X13899154Y-5987315D02*
X13913440Y-5987315D01*
X13913440Y-5987315D02*
X13922964Y-5992077D01*
X13922964Y-5992077D02*
X13927726Y-6001601D01*
X13927726Y-6001601D02*
X13927726Y-6053982D01*
X14018202Y-5987315D02*
X14018202Y-6053982D01*
X13975345Y-5987315D02*
X13975345Y-6039696D01*
X13975345Y-6039696D02*
X13980106Y-6049220D01*
X13980106Y-6049220D02*
X13989630Y-6053982D01*
X13989630Y-6053982D02*
X14003916Y-6053982D01*
X14003916Y-6053982D02*
X14013440Y-6049220D01*
X14013440Y-6049220D02*
X14018202Y-6044458D01*
X14061059Y-6049220D02*
X14070583Y-6053982D01*
X14070583Y-6053982D02*
X14089630Y-6053982D01*
X14089630Y-6053982D02*
X14099154Y-6049220D01*
X14099154Y-6049220D02*
X14103916Y-6039696D01*
X14103916Y-6039696D02*
X14103916Y-6034934D01*
X14103916Y-6034934D02*
X14099154Y-6025410D01*
X14099154Y-6025410D02*
X14089630Y-6020648D01*
X14089630Y-6020648D02*
X14075345Y-6020648D01*
X14075345Y-6020648D02*
X14065821Y-6015886D01*
X14065821Y-6015886D02*
X14061059Y-6006363D01*
X14061059Y-6006363D02*
X14061059Y-6001601D01*
X14061059Y-6001601D02*
X14065821Y-5992077D01*
X14065821Y-5992077D02*
X14075345Y-5987315D01*
X14075345Y-5987315D02*
X14089630Y-5987315D01*
X14089630Y-5987315D02*
X14099154Y-5992077D01*
X14132487Y-5987315D02*
X14170583Y-5987315D01*
X14146773Y-5953982D02*
X14146773Y-6039696D01*
X14146773Y-6039696D02*
X14151535Y-6049220D01*
X14151535Y-6049220D02*
X14161059Y-6053982D01*
X14161059Y-6053982D02*
X14170583Y-6053982D01*
X14280107Y-6053982D02*
X14280107Y-5953982D01*
X14280107Y-5992077D02*
X14289630Y-5987315D01*
X14289630Y-5987315D02*
X14308678Y-5987315D01*
X14308678Y-5987315D02*
X14318202Y-5992077D01*
X14318202Y-5992077D02*
X14322964Y-5996839D01*
X14322964Y-5996839D02*
X14327726Y-6006363D01*
X14327726Y-6006363D02*
X14327726Y-6034934D01*
X14327726Y-6034934D02*
X14322964Y-6044458D01*
X14322964Y-6044458D02*
X14318202Y-6049220D01*
X14318202Y-6049220D02*
X14308678Y-6053982D01*
X14308678Y-6053982D02*
X14289630Y-6053982D01*
X14289630Y-6053982D02*
X14280107Y-6049220D01*
X14408678Y-6049220D02*
X14399154Y-6053982D01*
X14399154Y-6053982D02*
X14380107Y-6053982D01*
X14380107Y-6053982D02*
X14370583Y-6049220D01*
X14370583Y-6049220D02*
X14365821Y-6039696D01*
X14365821Y-6039696D02*
X14365821Y-6001601D01*
X14365821Y-6001601D02*
X14370583Y-5992077D01*
X14370583Y-5992077D02*
X14380107Y-5987315D01*
X14380107Y-5987315D02*
X14399154Y-5987315D01*
X14399154Y-5987315D02*
X14408678Y-5992077D01*
X14408678Y-5992077D02*
X14413440Y-6001601D01*
X14413440Y-6001601D02*
X14413440Y-6011125D01*
X14413440Y-6011125D02*
X14365821Y-6020648D01*
X14537249Y-6053982D02*
X14556297Y-6053982D01*
X14556297Y-6053982D02*
X14565821Y-6049220D01*
X14565821Y-6049220D02*
X14570583Y-6044458D01*
X14570583Y-6044458D02*
X14580107Y-6030172D01*
X14580107Y-6030172D02*
X14584868Y-6011125D01*
X14584868Y-6011125D02*
X14584868Y-5973029D01*
X14584868Y-5973029D02*
X14580107Y-5963506D01*
X14580107Y-5963506D02*
X14575345Y-5958744D01*
X14575345Y-5958744D02*
X14565821Y-5953982D01*
X14565821Y-5953982D02*
X14546773Y-5953982D01*
X14546773Y-5953982D02*
X14537249Y-5958744D01*
X14537249Y-5958744D02*
X14532488Y-5963506D01*
X14532488Y-5963506D02*
X14527726Y-5973029D01*
X14527726Y-5973029D02*
X14527726Y-5996839D01*
X14527726Y-5996839D02*
X14532488Y-6006363D01*
X14532488Y-6006363D02*
X14537249Y-6011125D01*
X14537249Y-6011125D02*
X14546773Y-6015886D01*
X14546773Y-6015886D02*
X14565821Y-6015886D01*
X14565821Y-6015886D02*
X14575345Y-6011125D01*
X14575345Y-6011125D02*
X14580107Y-6006363D01*
X14580107Y-6006363D02*
X14584868Y-5996839D01*
X14646773Y-5953982D02*
X14656297Y-5953982D01*
X14656297Y-5953982D02*
X14665821Y-5958744D01*
X14665821Y-5958744D02*
X14670583Y-5963506D01*
X14670583Y-5963506D02*
X14675345Y-5973029D01*
X14675345Y-5973029D02*
X14680107Y-5992077D01*
X14680107Y-5992077D02*
X14680107Y-6015886D01*
X14680107Y-6015886D02*
X14675345Y-6034934D01*
X14675345Y-6034934D02*
X14670583Y-6044458D01*
X14670583Y-6044458D02*
X14665821Y-6049220D01*
X14665821Y-6049220D02*
X14656297Y-6053982D01*
X14656297Y-6053982D02*
X14646773Y-6053982D01*
X14646773Y-6053982D02*
X14637249Y-6049220D01*
X14637249Y-6049220D02*
X14632488Y-6044458D01*
X14632488Y-6044458D02*
X14627726Y-6034934D01*
X14627726Y-6034934D02*
X14622964Y-6015886D01*
X14622964Y-6015886D02*
X14622964Y-5992077D01*
X14622964Y-5992077D02*
X14627726Y-5973029D01*
X14627726Y-5973029D02*
X14632488Y-5963506D01*
X14632488Y-5963506D02*
X14637249Y-5958744D01*
X14637249Y-5958744D02*
X14646773Y-5953982D01*
X14818202Y-5953982D02*
X14837249Y-5953982D01*
X14837249Y-5953982D02*
X14846773Y-5958744D01*
X14846773Y-5958744D02*
X14856297Y-5968267D01*
X14856297Y-5968267D02*
X14861059Y-5987315D01*
X14861059Y-5987315D02*
X14861059Y-6020648D01*
X14861059Y-6020648D02*
X14856297Y-6039696D01*
X14856297Y-6039696D02*
X14846773Y-6049220D01*
X14846773Y-6049220D02*
X14837249Y-6053982D01*
X14837249Y-6053982D02*
X14818202Y-6053982D01*
X14818202Y-6053982D02*
X14808678Y-6049220D01*
X14808678Y-6049220D02*
X14799154Y-6039696D01*
X14799154Y-6039696D02*
X14794392Y-6020648D01*
X14794392Y-6020648D02*
X14794392Y-5987315D01*
X14794392Y-5987315D02*
X14799154Y-5968267D01*
X14799154Y-5968267D02*
X14808678Y-5958744D01*
X14808678Y-5958744D02*
X14818202Y-5953982D01*
X14903916Y-6053982D02*
X14903916Y-5953982D01*
X14946773Y-6053982D02*
X14946773Y-6001601D01*
X14946773Y-6001601D02*
X14942011Y-5992077D01*
X14942011Y-5992077D02*
X14932488Y-5987315D01*
X14932488Y-5987315D02*
X14918202Y-5987315D01*
X14918202Y-5987315D02*
X14908678Y-5992077D01*
X14908678Y-5992077D02*
X14903916Y-5996839D01*
X14994392Y-6053982D02*
X14994392Y-5987315D01*
X14994392Y-5996839D02*
X14999154Y-5992077D01*
X14999154Y-5992077D02*
X15008678Y-5987315D01*
X15008678Y-5987315D02*
X15022964Y-5987315D01*
X15022964Y-5987315D02*
X15032488Y-5992077D01*
X15032488Y-5992077D02*
X15037249Y-6001601D01*
X15037249Y-6001601D02*
X15037249Y-6053982D01*
X15037249Y-6001601D02*
X15042011Y-5992077D01*
X15042011Y-5992077D02*
X15051535Y-5987315D01*
X15051535Y-5987315D02*
X15065821Y-5987315D01*
X15065821Y-5987315D02*
X15075345Y-5992077D01*
X15075345Y-5992077D02*
X15080107Y-6001601D01*
X15080107Y-6001601D02*
X15080107Y-6053982D01*
X15122964Y-6049220D02*
X15132488Y-6053982D01*
X15132488Y-6053982D02*
X15151535Y-6053982D01*
X15151535Y-6053982D02*
X15161059Y-6049220D01*
X15161059Y-6049220D02*
X15165821Y-6039696D01*
X15165821Y-6039696D02*
X15165821Y-6034934D01*
X15165821Y-6034934D02*
X15161059Y-6025410D01*
X15161059Y-6025410D02*
X15151535Y-6020648D01*
X15151535Y-6020648D02*
X15137249Y-6020648D01*
X15137249Y-6020648D02*
X15127726Y-6015886D01*
X15127726Y-6015886D02*
X15122964Y-6006363D01*
X15122964Y-6006363D02*
X15122964Y-6001601D01*
X15122964Y-6001601D02*
X15127726Y-5992077D01*
X15127726Y-5992077D02*
X15137249Y-5987315D01*
X15137249Y-5987315D02*
X15151535Y-5987315D01*
X15151535Y-5987315D02*
X15161059Y-5992077D01*
X12908678Y-6214976D02*
X12908678Y-6114976D01*
X12908678Y-6114976D02*
X12932487Y-6114976D01*
X12932487Y-6114976D02*
X12946773Y-6119738D01*
X12946773Y-6119738D02*
X12956297Y-6129262D01*
X12956297Y-6129262D02*
X12961059Y-6138786D01*
X12961059Y-6138786D02*
X12965821Y-6157833D01*
X12965821Y-6157833D02*
X12965821Y-6172119D01*
X12965821Y-6172119D02*
X12961059Y-6191167D01*
X12961059Y-6191167D02*
X12956297Y-6200690D01*
X12956297Y-6200690D02*
X12946773Y-6210214D01*
X12946773Y-6210214D02*
X12932487Y-6214976D01*
X12932487Y-6214976D02*
X12908678Y-6214976D01*
X13008678Y-6214976D02*
X13008678Y-6148309D01*
X13008678Y-6114976D02*
X13003916Y-6119738D01*
X13003916Y-6119738D02*
X13008678Y-6124500D01*
X13008678Y-6124500D02*
X13013440Y-6119738D01*
X13013440Y-6119738D02*
X13008678Y-6114976D01*
X13008678Y-6114976D02*
X13008678Y-6124500D01*
X13042011Y-6148309D02*
X13080106Y-6148309D01*
X13056297Y-6214976D02*
X13056297Y-6129262D01*
X13056297Y-6129262D02*
X13061059Y-6119738D01*
X13061059Y-6119738D02*
X13070582Y-6114976D01*
X13070582Y-6114976D02*
X13080106Y-6114976D01*
X13099154Y-6148309D02*
X13137249Y-6148309D01*
X13113440Y-6214976D02*
X13113440Y-6129262D01*
X13113440Y-6129262D02*
X13118202Y-6119738D01*
X13118202Y-6119738D02*
X13127725Y-6114976D01*
X13127725Y-6114976D02*
X13137249Y-6114976D01*
X13208678Y-6210214D02*
X13199154Y-6214976D01*
X13199154Y-6214976D02*
X13180106Y-6214976D01*
X13180106Y-6214976D02*
X13170583Y-6210214D01*
X13170583Y-6210214D02*
X13165821Y-6200690D01*
X13165821Y-6200690D02*
X13165821Y-6162595D01*
X13165821Y-6162595D02*
X13170583Y-6153071D01*
X13170583Y-6153071D02*
X13180106Y-6148309D01*
X13180106Y-6148309D02*
X13199154Y-6148309D01*
X13199154Y-6148309D02*
X13208678Y-6153071D01*
X13208678Y-6153071D02*
X13213440Y-6162595D01*
X13213440Y-6162595D02*
X13213440Y-6172119D01*
X13213440Y-6172119D02*
X13165821Y-6181643D01*
X13256297Y-6214976D02*
X13256297Y-6148309D01*
X13256297Y-6167357D02*
X13261059Y-6157833D01*
X13261059Y-6157833D02*
X13265821Y-6153071D01*
X13265821Y-6153071D02*
X13275344Y-6148309D01*
X13275344Y-6148309D02*
X13284868Y-6148309D01*
X13356297Y-6210214D02*
X13346773Y-6214976D01*
X13346773Y-6214976D02*
X13327725Y-6214976D01*
X13327725Y-6214976D02*
X13318202Y-6210214D01*
X13318202Y-6210214D02*
X13313440Y-6200690D01*
X13313440Y-6200690D02*
X13313440Y-6162595D01*
X13313440Y-6162595D02*
X13318202Y-6153071D01*
X13318202Y-6153071D02*
X13327725Y-6148309D01*
X13327725Y-6148309D02*
X13346773Y-6148309D01*
X13346773Y-6148309D02*
X13356297Y-6153071D01*
X13356297Y-6153071D02*
X13361059Y-6162595D01*
X13361059Y-6162595D02*
X13361059Y-6172119D01*
X13361059Y-6172119D02*
X13313440Y-6181643D01*
X13403916Y-6148309D02*
X13403916Y-6214976D01*
X13403916Y-6157833D02*
X13408678Y-6153071D01*
X13408678Y-6153071D02*
X13418202Y-6148309D01*
X13418202Y-6148309D02*
X13432487Y-6148309D01*
X13432487Y-6148309D02*
X13442011Y-6153071D01*
X13442011Y-6153071D02*
X13446773Y-6162595D01*
X13446773Y-6162595D02*
X13446773Y-6214976D01*
X13480106Y-6148309D02*
X13518202Y-6148309D01*
X13494392Y-6114976D02*
X13494392Y-6200690D01*
X13494392Y-6200690D02*
X13499154Y-6210214D01*
X13499154Y-6210214D02*
X13508678Y-6214976D01*
X13508678Y-6214976D02*
X13518202Y-6214976D01*
X13551535Y-6214976D02*
X13551535Y-6148309D01*
X13551535Y-6114976D02*
X13546773Y-6119738D01*
X13546773Y-6119738D02*
X13551535Y-6124500D01*
X13551535Y-6124500D02*
X13556297Y-6119738D01*
X13556297Y-6119738D02*
X13551535Y-6114976D01*
X13551535Y-6114976D02*
X13551535Y-6124500D01*
X13642011Y-6214976D02*
X13642011Y-6162595D01*
X13642011Y-6162595D02*
X13637249Y-6153071D01*
X13637249Y-6153071D02*
X13627725Y-6148309D01*
X13627725Y-6148309D02*
X13608678Y-6148309D01*
X13608678Y-6148309D02*
X13599154Y-6153071D01*
X13642011Y-6210214D02*
X13632487Y-6214976D01*
X13632487Y-6214976D02*
X13608678Y-6214976D01*
X13608678Y-6214976D02*
X13599154Y-6210214D01*
X13599154Y-6210214D02*
X13594392Y-6200690D01*
X13594392Y-6200690D02*
X13594392Y-6191167D01*
X13594392Y-6191167D02*
X13599154Y-6181643D01*
X13599154Y-6181643D02*
X13608678Y-6176881D01*
X13608678Y-6176881D02*
X13632487Y-6176881D01*
X13632487Y-6176881D02*
X13642011Y-6172119D01*
X13703916Y-6214976D02*
X13694392Y-6210214D01*
X13694392Y-6210214D02*
X13689630Y-6200690D01*
X13689630Y-6200690D02*
X13689630Y-6114976D01*
X13846773Y-6253071D02*
X13842011Y-6248309D01*
X13842011Y-6248309D02*
X13832487Y-6234024D01*
X13832487Y-6234024D02*
X13827726Y-6224500D01*
X13827726Y-6224500D02*
X13822964Y-6210214D01*
X13822964Y-6210214D02*
X13818202Y-6186405D01*
X13818202Y-6186405D02*
X13818202Y-6167357D01*
X13818202Y-6167357D02*
X13822964Y-6143548D01*
X13822964Y-6143548D02*
X13827726Y-6129262D01*
X13827726Y-6129262D02*
X13832487Y-6119738D01*
X13832487Y-6119738D02*
X13842011Y-6105452D01*
X13842011Y-6105452D02*
X13846773Y-6100690D01*
X13875345Y-6114976D02*
X13942011Y-6114976D01*
X13942011Y-6114976D02*
X13875345Y-6214976D01*
X13875345Y-6214976D02*
X13942011Y-6214976D01*
X13994392Y-6214976D02*
X13984868Y-6210214D01*
X13984868Y-6210214D02*
X13980107Y-6205452D01*
X13980107Y-6205452D02*
X13975345Y-6195928D01*
X13975345Y-6195928D02*
X13975345Y-6167357D01*
X13975345Y-6167357D02*
X13980107Y-6157833D01*
X13980107Y-6157833D02*
X13984868Y-6153071D01*
X13984868Y-6153071D02*
X13994392Y-6148309D01*
X13994392Y-6148309D02*
X14008678Y-6148309D01*
X14008678Y-6148309D02*
X14018202Y-6153071D01*
X14018202Y-6153071D02*
X14022964Y-6157833D01*
X14022964Y-6157833D02*
X14027726Y-6167357D01*
X14027726Y-6167357D02*
X14027726Y-6195928D01*
X14027726Y-6195928D02*
X14022964Y-6205452D01*
X14022964Y-6205452D02*
X14018202Y-6210214D01*
X14018202Y-6210214D02*
X14008678Y-6214976D01*
X14008678Y-6214976D02*
X13994392Y-6214976D01*
X14113440Y-6214976D02*
X14113440Y-6114976D01*
X14113440Y-6210214D02*
X14103916Y-6214976D01*
X14103916Y-6214976D02*
X14084868Y-6214976D01*
X14084868Y-6214976D02*
X14075345Y-6210214D01*
X14075345Y-6210214D02*
X14070583Y-6205452D01*
X14070583Y-6205452D02*
X14065821Y-6195928D01*
X14065821Y-6195928D02*
X14065821Y-6167357D01*
X14065821Y-6167357D02*
X14070583Y-6157833D01*
X14070583Y-6157833D02*
X14075345Y-6153071D01*
X14075345Y-6153071D02*
X14084868Y-6148309D01*
X14084868Y-6148309D02*
X14103916Y-6148309D01*
X14103916Y-6148309D02*
X14113440Y-6153071D01*
X14203916Y-6214976D02*
X14203916Y-6114976D01*
X14203916Y-6210214D02*
X14194392Y-6214976D01*
X14194392Y-6214976D02*
X14175345Y-6214976D01*
X14175345Y-6214976D02*
X14165821Y-6210214D01*
X14165821Y-6210214D02*
X14161059Y-6205452D01*
X14161059Y-6205452D02*
X14156297Y-6195928D01*
X14156297Y-6195928D02*
X14156297Y-6167357D01*
X14156297Y-6167357D02*
X14161059Y-6157833D01*
X14161059Y-6157833D02*
X14165821Y-6153071D01*
X14165821Y-6153071D02*
X14175345Y-6148309D01*
X14175345Y-6148309D02*
X14194392Y-6148309D01*
X14194392Y-6148309D02*
X14203916Y-6153071D01*
X14251535Y-6162595D02*
X14327726Y-6162595D01*
X14327726Y-6191167D02*
X14251535Y-6191167D01*
X14418202Y-6148309D02*
X14418202Y-6214976D01*
X14394392Y-6110214D02*
X14370583Y-6181643D01*
X14370583Y-6181643D02*
X14432487Y-6181643D01*
X14518202Y-6114976D02*
X14470583Y-6114976D01*
X14470583Y-6114976D02*
X14465821Y-6162595D01*
X14465821Y-6162595D02*
X14470583Y-6157833D01*
X14470583Y-6157833D02*
X14480107Y-6153071D01*
X14480107Y-6153071D02*
X14503916Y-6153071D01*
X14503916Y-6153071D02*
X14513440Y-6157833D01*
X14513440Y-6157833D02*
X14518202Y-6162595D01*
X14518202Y-6162595D02*
X14522964Y-6172119D01*
X14522964Y-6172119D02*
X14522964Y-6195928D01*
X14522964Y-6195928D02*
X14518202Y-6205452D01*
X14518202Y-6205452D02*
X14513440Y-6210214D01*
X14513440Y-6210214D02*
X14503916Y-6214976D01*
X14503916Y-6214976D02*
X14480107Y-6214976D01*
X14480107Y-6214976D02*
X14470583Y-6210214D01*
X14470583Y-6210214D02*
X14465821Y-6205452D01*
X14661059Y-6114976D02*
X14680107Y-6114976D01*
X14680107Y-6114976D02*
X14689630Y-6119738D01*
X14689630Y-6119738D02*
X14699154Y-6129262D01*
X14699154Y-6129262D02*
X14703916Y-6148309D01*
X14703916Y-6148309D02*
X14703916Y-6181643D01*
X14703916Y-6181643D02*
X14699154Y-6200690D01*
X14699154Y-6200690D02*
X14689630Y-6210214D01*
X14689630Y-6210214D02*
X14680107Y-6214976D01*
X14680107Y-6214976D02*
X14661059Y-6214976D01*
X14661059Y-6214976D02*
X14651535Y-6210214D01*
X14651535Y-6210214D02*
X14642011Y-6200690D01*
X14642011Y-6200690D02*
X14637249Y-6181643D01*
X14637249Y-6181643D02*
X14637249Y-6148309D01*
X14637249Y-6148309D02*
X14642011Y-6129262D01*
X14642011Y-6129262D02*
X14651535Y-6119738D01*
X14651535Y-6119738D02*
X14661059Y-6114976D01*
X14746773Y-6214976D02*
X14746773Y-6114976D01*
X14789630Y-6214976D02*
X14789630Y-6162595D01*
X14789630Y-6162595D02*
X14784868Y-6153071D01*
X14784868Y-6153071D02*
X14775345Y-6148309D01*
X14775345Y-6148309D02*
X14761059Y-6148309D01*
X14761059Y-6148309D02*
X14751535Y-6153071D01*
X14751535Y-6153071D02*
X14746773Y-6157833D01*
X14837249Y-6214976D02*
X14837249Y-6148309D01*
X14837249Y-6157833D02*
X14842011Y-6153071D01*
X14842011Y-6153071D02*
X14851535Y-6148309D01*
X14851535Y-6148309D02*
X14865821Y-6148309D01*
X14865821Y-6148309D02*
X14875345Y-6153071D01*
X14875345Y-6153071D02*
X14880107Y-6162595D01*
X14880107Y-6162595D02*
X14880107Y-6214976D01*
X14880107Y-6162595D02*
X14884868Y-6153071D01*
X14884868Y-6153071D02*
X14894392Y-6148309D01*
X14894392Y-6148309D02*
X14908678Y-6148309D01*
X14908678Y-6148309D02*
X14918202Y-6153071D01*
X14918202Y-6153071D02*
X14922964Y-6162595D01*
X14922964Y-6162595D02*
X14922964Y-6214976D01*
X14965821Y-6210214D02*
X14975345Y-6214976D01*
X14975345Y-6214976D02*
X14994392Y-6214976D01*
X14994392Y-6214976D02*
X15003916Y-6210214D01*
X15003916Y-6210214D02*
X15008678Y-6200690D01*
X15008678Y-6200690D02*
X15008678Y-6195928D01*
X15008678Y-6195928D02*
X15003916Y-6186405D01*
X15003916Y-6186405D02*
X14994392Y-6181643D01*
X14994392Y-6181643D02*
X14980107Y-6181643D01*
X14980107Y-6181643D02*
X14970583Y-6176881D01*
X14970583Y-6176881D02*
X14965821Y-6167357D01*
X14965821Y-6167357D02*
X14965821Y-6162595D01*
X14965821Y-6162595D02*
X14970583Y-6153071D01*
X14970583Y-6153071D02*
X14980107Y-6148309D01*
X14980107Y-6148309D02*
X14994392Y-6148309D01*
X14994392Y-6148309D02*
X15003916Y-6153071D01*
X15042011Y-6253071D02*
X15046773Y-6248309D01*
X15046773Y-6248309D02*
X15056297Y-6234024D01*
X15056297Y-6234024D02*
X15061059Y-6224500D01*
X15061059Y-6224500D02*
X15065821Y-6210214D01*
X15065821Y-6210214D02*
X15070583Y-6186405D01*
X15070583Y-6186405D02*
X15070583Y-6167357D01*
X15070583Y-6167357D02*
X15065821Y-6143548D01*
X15065821Y-6143548D02*
X15061059Y-6129262D01*
X15061059Y-6129262D02*
X15056297Y-6119738D01*
X15056297Y-6119738D02*
X15046773Y-6105452D01*
X15046773Y-6105452D02*
X15042011Y-6100690D01*
X15122964Y-6210214D02*
X15122964Y-6214976D01*
X15122964Y-6214976D02*
X15118202Y-6224500D01*
X15118202Y-6224500D02*
X15113440Y-6229262D01*
X15232488Y-6114976D02*
X15294392Y-6114976D01*
X15294392Y-6114976D02*
X15261059Y-6153071D01*
X15261059Y-6153071D02*
X15275345Y-6153071D01*
X15275345Y-6153071D02*
X15284868Y-6157833D01*
X15284868Y-6157833D02*
X15289630Y-6162595D01*
X15289630Y-6162595D02*
X15294392Y-6172119D01*
X15294392Y-6172119D02*
X15294392Y-6195928D01*
X15294392Y-6195928D02*
X15289630Y-6205452D01*
X15289630Y-6205452D02*
X15284868Y-6210214D01*
X15284868Y-6210214D02*
X15275345Y-6214976D01*
X15275345Y-6214976D02*
X15246773Y-6214976D01*
X15246773Y-6214976D02*
X15237249Y-6210214D01*
X15237249Y-6210214D02*
X15232488Y-6205452D01*
X15356297Y-6114976D02*
X15365821Y-6114976D01*
X15365821Y-6114976D02*
X15375345Y-6119738D01*
X15375345Y-6119738D02*
X15380107Y-6124500D01*
X15380107Y-6124500D02*
X15384868Y-6134024D01*
X15384868Y-6134024D02*
X15389630Y-6153071D01*
X15389630Y-6153071D02*
X15389630Y-6176881D01*
X15389630Y-6176881D02*
X15384868Y-6195928D01*
X15384868Y-6195928D02*
X15380107Y-6205452D01*
X15380107Y-6205452D02*
X15375345Y-6210214D01*
X15375345Y-6210214D02*
X15365821Y-6214976D01*
X15365821Y-6214976D02*
X15356297Y-6214976D01*
X15356297Y-6214976D02*
X15346773Y-6210214D01*
X15346773Y-6210214D02*
X15342011Y-6205452D01*
X15342011Y-6205452D02*
X15337249Y-6195928D01*
X15337249Y-6195928D02*
X15332488Y-6176881D01*
X15332488Y-6176881D02*
X15332488Y-6153071D01*
X15332488Y-6153071D02*
X15337249Y-6134024D01*
X15337249Y-6134024D02*
X15342011Y-6124500D01*
X15342011Y-6124500D02*
X15346773Y-6119738D01*
X15346773Y-6119738D02*
X15356297Y-6114976D01*
X12927725Y-6275971D02*
X12946773Y-6275971D01*
X12946773Y-6275971D02*
X12956297Y-6280732D01*
X12956297Y-6280732D02*
X12965821Y-6290256D01*
X12965821Y-6290256D02*
X12970582Y-6309304D01*
X12970582Y-6309304D02*
X12970582Y-6342637D01*
X12970582Y-6342637D02*
X12965821Y-6361685D01*
X12965821Y-6361685D02*
X12956297Y-6371209D01*
X12956297Y-6371209D02*
X12946773Y-6375971D01*
X12946773Y-6375971D02*
X12927725Y-6375971D01*
X12927725Y-6375971D02*
X12918202Y-6371209D01*
X12918202Y-6371209D02*
X12908678Y-6361685D01*
X12908678Y-6361685D02*
X12903916Y-6342637D01*
X12903916Y-6342637D02*
X12903916Y-6309304D01*
X12903916Y-6309304D02*
X12908678Y-6290256D01*
X12908678Y-6290256D02*
X12918202Y-6280732D01*
X12918202Y-6280732D02*
X12927725Y-6275971D01*
X13013440Y-6375971D02*
X13013440Y-6275971D01*
X13056297Y-6375971D02*
X13056297Y-6323590D01*
X13056297Y-6323590D02*
X13051535Y-6314066D01*
X13051535Y-6314066D02*
X13042011Y-6309304D01*
X13042011Y-6309304D02*
X13027725Y-6309304D01*
X13027725Y-6309304D02*
X13018202Y-6314066D01*
X13018202Y-6314066D02*
X13013440Y-6318828D01*
X13103916Y-6375971D02*
X13103916Y-6309304D01*
X13103916Y-6318828D02*
X13108678Y-6314066D01*
X13108678Y-6314066D02*
X13118202Y-6309304D01*
X13118202Y-6309304D02*
X13132487Y-6309304D01*
X13132487Y-6309304D02*
X13142011Y-6314066D01*
X13142011Y-6314066D02*
X13146773Y-6323590D01*
X13146773Y-6323590D02*
X13146773Y-6375971D01*
X13146773Y-6323590D02*
X13151535Y-6314066D01*
X13151535Y-6314066D02*
X13161059Y-6309304D01*
X13161059Y-6309304D02*
X13175344Y-6309304D01*
X13175344Y-6309304D02*
X13184868Y-6314066D01*
X13184868Y-6314066D02*
X13189630Y-6323590D01*
X13189630Y-6323590D02*
X13189630Y-6375971D01*
X13232487Y-6371209D02*
X13242011Y-6375971D01*
X13242011Y-6375971D02*
X13261059Y-6375971D01*
X13261059Y-6375971D02*
X13270582Y-6371209D01*
X13270582Y-6371209D02*
X13275344Y-6361685D01*
X13275344Y-6361685D02*
X13275344Y-6356923D01*
X13275344Y-6356923D02*
X13270582Y-6347399D01*
X13270582Y-6347399D02*
X13261059Y-6342637D01*
X13261059Y-6342637D02*
X13246773Y-6342637D01*
X13246773Y-6342637D02*
X13237249Y-6337875D01*
X13237249Y-6337875D02*
X13232487Y-6328351D01*
X13232487Y-6328351D02*
X13232487Y-6323590D01*
X13232487Y-6323590D02*
X13237249Y-6314066D01*
X13237249Y-6314066D02*
X13246773Y-6309304D01*
X13246773Y-6309304D02*
X13261059Y-6309304D01*
X13261059Y-6309304D02*
X13270582Y-6314066D01*
X13451535Y-6366447D02*
X13446773Y-6371209D01*
X13446773Y-6371209D02*
X13432487Y-6375971D01*
X13432487Y-6375971D02*
X13422963Y-6375971D01*
X13422963Y-6375971D02*
X13408678Y-6371209D01*
X13408678Y-6371209D02*
X13399154Y-6361685D01*
X13399154Y-6361685D02*
X13394392Y-6352161D01*
X13394392Y-6352161D02*
X13389630Y-6333113D01*
X13389630Y-6333113D02*
X13389630Y-6318828D01*
X13389630Y-6318828D02*
X13394392Y-6299780D01*
X13394392Y-6299780D02*
X13399154Y-6290256D01*
X13399154Y-6290256D02*
X13408678Y-6280732D01*
X13408678Y-6280732D02*
X13422963Y-6275971D01*
X13422963Y-6275971D02*
X13432487Y-6275971D01*
X13432487Y-6275971D02*
X13446773Y-6280732D01*
X13446773Y-6280732D02*
X13451535Y-6285494D01*
X13508678Y-6375971D02*
X13499154Y-6371209D01*
X13499154Y-6371209D02*
X13494392Y-6366447D01*
X13494392Y-6366447D02*
X13489630Y-6356923D01*
X13489630Y-6356923D02*
X13489630Y-6328351D01*
X13489630Y-6328351D02*
X13494392Y-6318828D01*
X13494392Y-6318828D02*
X13499154Y-6314066D01*
X13499154Y-6314066D02*
X13508678Y-6309304D01*
X13508678Y-6309304D02*
X13522963Y-6309304D01*
X13522963Y-6309304D02*
X13532487Y-6314066D01*
X13532487Y-6314066D02*
X13537249Y-6318828D01*
X13537249Y-6318828D02*
X13542011Y-6328351D01*
X13542011Y-6328351D02*
X13542011Y-6356923D01*
X13542011Y-6356923D02*
X13537249Y-6366447D01*
X13537249Y-6366447D02*
X13532487Y-6371209D01*
X13532487Y-6371209D02*
X13522963Y-6375971D01*
X13522963Y-6375971D02*
X13508678Y-6375971D01*
X13584868Y-6375971D02*
X13584868Y-6309304D01*
X13584868Y-6318828D02*
X13589630Y-6314066D01*
X13589630Y-6314066D02*
X13599154Y-6309304D01*
X13599154Y-6309304D02*
X13613440Y-6309304D01*
X13613440Y-6309304D02*
X13622963Y-6314066D01*
X13622963Y-6314066D02*
X13627725Y-6323590D01*
X13627725Y-6323590D02*
X13627725Y-6375971D01*
X13627725Y-6323590D02*
X13632487Y-6314066D01*
X13632487Y-6314066D02*
X13642011Y-6309304D01*
X13642011Y-6309304D02*
X13656297Y-6309304D01*
X13656297Y-6309304D02*
X13665821Y-6314066D01*
X13665821Y-6314066D02*
X13670583Y-6323590D01*
X13670583Y-6323590D02*
X13670583Y-6375971D01*
X13718202Y-6375971D02*
X13718202Y-6309304D01*
X13718202Y-6318828D02*
X13722963Y-6314066D01*
X13722963Y-6314066D02*
X13732487Y-6309304D01*
X13732487Y-6309304D02*
X13746773Y-6309304D01*
X13746773Y-6309304D02*
X13756297Y-6314066D01*
X13756297Y-6314066D02*
X13761059Y-6323590D01*
X13761059Y-6323590D02*
X13761059Y-6375971D01*
X13761059Y-6323590D02*
X13765821Y-6314066D01*
X13765821Y-6314066D02*
X13775344Y-6309304D01*
X13775344Y-6309304D02*
X13789630Y-6309304D01*
X13789630Y-6309304D02*
X13799154Y-6314066D01*
X13799154Y-6314066D02*
X13803916Y-6323590D01*
X13803916Y-6323590D02*
X13803916Y-6375971D01*
X13865821Y-6375971D02*
X13856297Y-6371209D01*
X13856297Y-6371209D02*
X13851535Y-6366447D01*
X13851535Y-6366447D02*
X13846773Y-6356923D01*
X13846773Y-6356923D02*
X13846773Y-6328351D01*
X13846773Y-6328351D02*
X13851535Y-6318828D01*
X13851535Y-6318828D02*
X13856297Y-6314066D01*
X13856297Y-6314066D02*
X13865821Y-6309304D01*
X13865821Y-6309304D02*
X13880106Y-6309304D01*
X13880106Y-6309304D02*
X13889630Y-6314066D01*
X13889630Y-6314066D02*
X13894392Y-6318828D01*
X13894392Y-6318828D02*
X13899154Y-6328351D01*
X13899154Y-6328351D02*
X13899154Y-6356923D01*
X13899154Y-6356923D02*
X13894392Y-6366447D01*
X13894392Y-6366447D02*
X13889630Y-6371209D01*
X13889630Y-6371209D02*
X13880106Y-6375971D01*
X13880106Y-6375971D02*
X13865821Y-6375971D01*
X13942011Y-6309304D02*
X13942011Y-6375971D01*
X13942011Y-6318828D02*
X13946773Y-6314066D01*
X13946773Y-6314066D02*
X13956297Y-6309304D01*
X13956297Y-6309304D02*
X13970582Y-6309304D01*
X13970582Y-6309304D02*
X13980106Y-6314066D01*
X13980106Y-6314066D02*
X13984868Y-6323590D01*
X13984868Y-6323590D02*
X13984868Y-6375971D01*
X14137249Y-6414066D02*
X14132487Y-6409304D01*
X14132487Y-6409304D02*
X14122963Y-6395018D01*
X14122963Y-6395018D02*
X14118202Y-6385494D01*
X14118202Y-6385494D02*
X14113440Y-6371209D01*
X14113440Y-6371209D02*
X14108678Y-6347399D01*
X14108678Y-6347399D02*
X14108678Y-6328351D01*
X14108678Y-6328351D02*
X14113440Y-6304542D01*
X14113440Y-6304542D02*
X14118202Y-6290256D01*
X14118202Y-6290256D02*
X14122963Y-6280732D01*
X14122963Y-6280732D02*
X14132487Y-6266447D01*
X14132487Y-6266447D02*
X14137249Y-6261685D01*
X14165821Y-6275971D02*
X14232487Y-6275971D01*
X14232487Y-6275971D02*
X14165821Y-6375971D01*
X14165821Y-6375971D02*
X14232487Y-6375971D01*
X14308678Y-6371209D02*
X14299154Y-6375971D01*
X14299154Y-6375971D02*
X14280106Y-6375971D01*
X14280106Y-6375971D02*
X14270583Y-6371209D01*
X14270583Y-6371209D02*
X14265821Y-6361685D01*
X14265821Y-6361685D02*
X14265821Y-6323590D01*
X14265821Y-6323590D02*
X14270583Y-6314066D01*
X14270583Y-6314066D02*
X14280106Y-6309304D01*
X14280106Y-6309304D02*
X14299154Y-6309304D01*
X14299154Y-6309304D02*
X14308678Y-6314066D01*
X14308678Y-6314066D02*
X14313440Y-6323590D01*
X14313440Y-6323590D02*
X14313440Y-6333113D01*
X14313440Y-6333113D02*
X14265821Y-6342637D01*
X14346773Y-6309304D02*
X14370583Y-6375971D01*
X14370583Y-6375971D02*
X14394392Y-6309304D01*
X14470583Y-6371209D02*
X14461059Y-6375971D01*
X14461059Y-6375971D02*
X14442011Y-6375971D01*
X14442011Y-6375971D02*
X14432487Y-6371209D01*
X14432487Y-6371209D02*
X14427725Y-6361685D01*
X14427725Y-6361685D02*
X14427725Y-6323590D01*
X14427725Y-6323590D02*
X14432487Y-6314066D01*
X14432487Y-6314066D02*
X14442011Y-6309304D01*
X14442011Y-6309304D02*
X14461059Y-6309304D01*
X14461059Y-6309304D02*
X14470583Y-6314066D01*
X14470583Y-6314066D02*
X14475344Y-6323590D01*
X14475344Y-6323590D02*
X14475344Y-6333113D01*
X14475344Y-6333113D02*
X14427725Y-6342637D01*
X14518202Y-6309304D02*
X14518202Y-6375971D01*
X14518202Y-6318828D02*
X14522964Y-6314066D01*
X14522964Y-6314066D02*
X14532487Y-6309304D01*
X14532487Y-6309304D02*
X14546773Y-6309304D01*
X14546773Y-6309304D02*
X14556297Y-6314066D01*
X14556297Y-6314066D02*
X14561059Y-6323590D01*
X14561059Y-6323590D02*
X14561059Y-6375971D01*
X14608678Y-6323590D02*
X14684868Y-6323590D01*
X14684868Y-6352161D02*
X14608678Y-6352161D01*
X14775344Y-6275971D02*
X14756297Y-6275971D01*
X14756297Y-6275971D02*
X14746773Y-6280732D01*
X14746773Y-6280732D02*
X14742011Y-6285494D01*
X14742011Y-6285494D02*
X14732487Y-6299780D01*
X14732487Y-6299780D02*
X14727725Y-6318828D01*
X14727725Y-6318828D02*
X14727725Y-6356923D01*
X14727725Y-6356923D02*
X14732487Y-6366447D01*
X14732487Y-6366447D02*
X14737249Y-6371209D01*
X14737249Y-6371209D02*
X14746773Y-6375971D01*
X14746773Y-6375971D02*
X14765821Y-6375971D01*
X14765821Y-6375971D02*
X14775344Y-6371209D01*
X14775344Y-6371209D02*
X14780106Y-6366447D01*
X14780106Y-6366447D02*
X14784868Y-6356923D01*
X14784868Y-6356923D02*
X14784868Y-6333113D01*
X14784868Y-6333113D02*
X14780106Y-6323590D01*
X14780106Y-6323590D02*
X14775344Y-6318828D01*
X14775344Y-6318828D02*
X14765821Y-6314066D01*
X14765821Y-6314066D02*
X14746773Y-6314066D01*
X14746773Y-6314066D02*
X14737249Y-6318828D01*
X14737249Y-6318828D02*
X14732487Y-6323590D01*
X14732487Y-6323590D02*
X14727725Y-6333113D01*
X14846773Y-6275971D02*
X14856297Y-6275971D01*
X14856297Y-6275971D02*
X14865821Y-6280732D01*
X14865821Y-6280732D02*
X14870583Y-6285494D01*
X14870583Y-6285494D02*
X14875344Y-6295018D01*
X14875344Y-6295018D02*
X14880106Y-6314066D01*
X14880106Y-6314066D02*
X14880106Y-6337875D01*
X14880106Y-6337875D02*
X14875344Y-6356923D01*
X14875344Y-6356923D02*
X14870583Y-6366447D01*
X14870583Y-6366447D02*
X14865821Y-6371209D01*
X14865821Y-6371209D02*
X14856297Y-6375971D01*
X14856297Y-6375971D02*
X14846773Y-6375971D01*
X14846773Y-6375971D02*
X14837249Y-6371209D01*
X14837249Y-6371209D02*
X14832487Y-6366447D01*
X14832487Y-6366447D02*
X14827725Y-6356923D01*
X14827725Y-6356923D02*
X14822964Y-6337875D01*
X14822964Y-6337875D02*
X14822964Y-6314066D01*
X14822964Y-6314066D02*
X14827725Y-6295018D01*
X14827725Y-6295018D02*
X14832487Y-6285494D01*
X14832487Y-6285494D02*
X14837249Y-6280732D01*
X14837249Y-6280732D02*
X14846773Y-6275971D01*
X15018202Y-6275971D02*
X15037249Y-6275971D01*
X15037249Y-6275971D02*
X15046773Y-6280732D01*
X15046773Y-6280732D02*
X15056297Y-6290256D01*
X15056297Y-6290256D02*
X15061059Y-6309304D01*
X15061059Y-6309304D02*
X15061059Y-6342637D01*
X15061059Y-6342637D02*
X15056297Y-6361685D01*
X15056297Y-6361685D02*
X15046773Y-6371209D01*
X15046773Y-6371209D02*
X15037249Y-6375971D01*
X15037249Y-6375971D02*
X15018202Y-6375971D01*
X15018202Y-6375971D02*
X15008678Y-6371209D01*
X15008678Y-6371209D02*
X14999154Y-6361685D01*
X14999154Y-6361685D02*
X14994392Y-6342637D01*
X14994392Y-6342637D02*
X14994392Y-6309304D01*
X14994392Y-6309304D02*
X14999154Y-6290256D01*
X14999154Y-6290256D02*
X15008678Y-6280732D01*
X15008678Y-6280732D02*
X15018202Y-6275971D01*
X15103916Y-6375971D02*
X15103916Y-6275971D01*
X15146773Y-6375971D02*
X15146773Y-6323590D01*
X15146773Y-6323590D02*
X15142011Y-6314066D01*
X15142011Y-6314066D02*
X15132487Y-6309304D01*
X15132487Y-6309304D02*
X15118202Y-6309304D01*
X15118202Y-6309304D02*
X15108678Y-6314066D01*
X15108678Y-6314066D02*
X15103916Y-6318828D01*
X15194392Y-6375971D02*
X15194392Y-6309304D01*
X15194392Y-6318828D02*
X15199154Y-6314066D01*
X15199154Y-6314066D02*
X15208678Y-6309304D01*
X15208678Y-6309304D02*
X15222964Y-6309304D01*
X15222964Y-6309304D02*
X15232487Y-6314066D01*
X15232487Y-6314066D02*
X15237249Y-6323590D01*
X15237249Y-6323590D02*
X15237249Y-6375971D01*
X15237249Y-6323590D02*
X15242011Y-6314066D01*
X15242011Y-6314066D02*
X15251535Y-6309304D01*
X15251535Y-6309304D02*
X15265821Y-6309304D01*
X15265821Y-6309304D02*
X15275345Y-6314066D01*
X15275345Y-6314066D02*
X15280106Y-6323590D01*
X15280106Y-6323590D02*
X15280106Y-6375971D01*
X15322964Y-6371209D02*
X15332487Y-6375971D01*
X15332487Y-6375971D02*
X15351535Y-6375971D01*
X15351535Y-6375971D02*
X15361059Y-6371209D01*
X15361059Y-6371209D02*
X15365821Y-6361685D01*
X15365821Y-6361685D02*
X15365821Y-6356923D01*
X15365821Y-6356923D02*
X15361059Y-6347399D01*
X15361059Y-6347399D02*
X15351535Y-6342637D01*
X15351535Y-6342637D02*
X15337249Y-6342637D01*
X15337249Y-6342637D02*
X15327725Y-6337875D01*
X15327725Y-6337875D02*
X15322964Y-6328351D01*
X15322964Y-6328351D02*
X15322964Y-6323590D01*
X15322964Y-6323590D02*
X15327725Y-6314066D01*
X15327725Y-6314066D02*
X15337249Y-6309304D01*
X15337249Y-6309304D02*
X15351535Y-6309304D01*
X15351535Y-6309304D02*
X15361059Y-6314066D01*
X15399154Y-6414066D02*
X15403916Y-6409304D01*
X15403916Y-6409304D02*
X15413440Y-6395018D01*
X15413440Y-6395018D02*
X15418202Y-6385494D01*
X15418202Y-6385494D02*
X15422964Y-6371209D01*
X15422964Y-6371209D02*
X15427725Y-6347399D01*
X15427725Y-6347399D02*
X15427725Y-6328351D01*
X15427725Y-6328351D02*
X15422964Y-6304542D01*
X15422964Y-6304542D02*
X15418202Y-6290256D01*
X15418202Y-6290256D02*
X15413440Y-6280732D01*
X15413440Y-6280732D02*
X15403916Y-6266447D01*
X15403916Y-6266447D02*
X15399154Y-6261685D01*
X15475345Y-6366447D02*
X15480106Y-6371209D01*
X15480106Y-6371209D02*
X15475345Y-6375971D01*
X15475345Y-6375971D02*
X15470583Y-6371209D01*
X15470583Y-6371209D02*
X15475345Y-6366447D01*
X15475345Y-6366447D02*
X15475345Y-6375971D01*
X12937249Y-6597959D02*
X12937249Y-6669388D01*
X12937249Y-6669388D02*
X12932487Y-6683674D01*
X12932487Y-6683674D02*
X12922963Y-6693197D01*
X12922963Y-6693197D02*
X12908678Y-6697959D01*
X12908678Y-6697959D02*
X12899154Y-6697959D01*
X13032487Y-6697959D02*
X12984868Y-6697959D01*
X12984868Y-6697959D02*
X12984868Y-6597959D01*
X13122963Y-6688435D02*
X13118202Y-6693197D01*
X13118202Y-6693197D02*
X13103916Y-6697959D01*
X13103916Y-6697959D02*
X13094392Y-6697959D01*
X13094392Y-6697959D02*
X13080106Y-6693197D01*
X13080106Y-6693197D02*
X13070583Y-6683674D01*
X13070583Y-6683674D02*
X13065821Y-6674150D01*
X13065821Y-6674150D02*
X13061059Y-6655102D01*
X13061059Y-6655102D02*
X13061059Y-6640816D01*
X13061059Y-6640816D02*
X13065821Y-6621769D01*
X13065821Y-6621769D02*
X13070583Y-6612245D01*
X13070583Y-6612245D02*
X13080106Y-6602721D01*
X13080106Y-6602721D02*
X13094392Y-6597959D01*
X13094392Y-6597959D02*
X13103916Y-6597959D01*
X13103916Y-6597959D02*
X13118202Y-6602721D01*
X13118202Y-6602721D02*
X13122963Y-6607483D01*
X13165821Y-6697959D02*
X13165821Y-6597959D01*
X13165821Y-6597959D02*
X13203916Y-6597959D01*
X13203916Y-6597959D02*
X13213440Y-6602721D01*
X13213440Y-6602721D02*
X13218202Y-6607483D01*
X13218202Y-6607483D02*
X13222963Y-6617007D01*
X13222963Y-6617007D02*
X13222963Y-6631293D01*
X13222963Y-6631293D02*
X13218202Y-6640816D01*
X13218202Y-6640816D02*
X13213440Y-6645578D01*
X13213440Y-6645578D02*
X13203916Y-6650340D01*
X13203916Y-6650340D02*
X13165821Y-6650340D01*
X13322963Y-6688435D02*
X13318202Y-6693197D01*
X13318202Y-6693197D02*
X13303916Y-6697959D01*
X13303916Y-6697959D02*
X13294392Y-6697959D01*
X13294392Y-6697959D02*
X13280106Y-6693197D01*
X13280106Y-6693197D02*
X13270583Y-6683674D01*
X13270583Y-6683674D02*
X13265821Y-6674150D01*
X13265821Y-6674150D02*
X13261059Y-6655102D01*
X13261059Y-6655102D02*
X13261059Y-6640816D01*
X13261059Y-6640816D02*
X13265821Y-6621769D01*
X13265821Y-6621769D02*
X13270583Y-6612245D01*
X13270583Y-6612245D02*
X13280106Y-6602721D01*
X13280106Y-6602721D02*
X13294392Y-6597959D01*
X13294392Y-6597959D02*
X13303916Y-6597959D01*
X13303916Y-6597959D02*
X13318202Y-6602721D01*
X13318202Y-6602721D02*
X13322963Y-6607483D01*
X13399154Y-6645578D02*
X13413440Y-6650340D01*
X13413440Y-6650340D02*
X13418202Y-6655102D01*
X13418202Y-6655102D02*
X13422963Y-6664626D01*
X13422963Y-6664626D02*
X13422963Y-6678912D01*
X13422963Y-6678912D02*
X13418202Y-6688435D01*
X13418202Y-6688435D02*
X13413440Y-6693197D01*
X13413440Y-6693197D02*
X13403916Y-6697959D01*
X13403916Y-6697959D02*
X13365821Y-6697959D01*
X13365821Y-6697959D02*
X13365821Y-6597959D01*
X13365821Y-6597959D02*
X13399154Y-6597959D01*
X13399154Y-6597959D02*
X13408678Y-6602721D01*
X13408678Y-6602721D02*
X13413440Y-6607483D01*
X13413440Y-6607483D02*
X13418202Y-6617007D01*
X13418202Y-6617007D02*
X13418202Y-6626531D01*
X13418202Y-6626531D02*
X13413440Y-6636055D01*
X13413440Y-6636055D02*
X13408678Y-6640816D01*
X13408678Y-6640816D02*
X13399154Y-6645578D01*
X13399154Y-6645578D02*
X13365821Y-6645578D01*
X13537249Y-6693197D02*
X13551535Y-6697959D01*
X13551535Y-6697959D02*
X13575344Y-6697959D01*
X13575344Y-6697959D02*
X13584868Y-6693197D01*
X13584868Y-6693197D02*
X13589630Y-6688435D01*
X13589630Y-6688435D02*
X13594392Y-6678912D01*
X13594392Y-6678912D02*
X13594392Y-6669388D01*
X13594392Y-6669388D02*
X13589630Y-6659864D01*
X13589630Y-6659864D02*
X13584868Y-6655102D01*
X13584868Y-6655102D02*
X13575344Y-6650340D01*
X13575344Y-6650340D02*
X13556297Y-6645578D01*
X13556297Y-6645578D02*
X13546773Y-6640816D01*
X13546773Y-6640816D02*
X13542011Y-6636055D01*
X13542011Y-6636055D02*
X13537249Y-6626531D01*
X13537249Y-6626531D02*
X13537249Y-6617007D01*
X13537249Y-6617007D02*
X13542011Y-6607483D01*
X13542011Y-6607483D02*
X13546773Y-6602721D01*
X13546773Y-6602721D02*
X13556297Y-6597959D01*
X13556297Y-6597959D02*
X13580106Y-6597959D01*
X13580106Y-6597959D02*
X13594392Y-6602721D01*
X13622964Y-6631293D02*
X13661059Y-6631293D01*
X13637249Y-6597959D02*
X13637249Y-6683674D01*
X13637249Y-6683674D02*
X13642011Y-6693197D01*
X13642011Y-6693197D02*
X13651535Y-6697959D01*
X13651535Y-6697959D02*
X13661059Y-6697959D01*
X13737249Y-6697959D02*
X13737249Y-6645578D01*
X13737249Y-6645578D02*
X13732487Y-6636055D01*
X13732487Y-6636055D02*
X13722964Y-6631293D01*
X13722964Y-6631293D02*
X13703916Y-6631293D01*
X13703916Y-6631293D02*
X13694392Y-6636055D01*
X13737249Y-6693197D02*
X13727725Y-6697959D01*
X13727725Y-6697959D02*
X13703916Y-6697959D01*
X13703916Y-6697959D02*
X13694392Y-6693197D01*
X13694392Y-6693197D02*
X13689630Y-6683674D01*
X13689630Y-6683674D02*
X13689630Y-6674150D01*
X13689630Y-6674150D02*
X13694392Y-6664626D01*
X13694392Y-6664626D02*
X13703916Y-6659864D01*
X13703916Y-6659864D02*
X13727725Y-6659864D01*
X13727725Y-6659864D02*
X13737249Y-6655102D01*
X13827725Y-6693197D02*
X13818202Y-6697959D01*
X13818202Y-6697959D02*
X13799154Y-6697959D01*
X13799154Y-6697959D02*
X13789630Y-6693197D01*
X13789630Y-6693197D02*
X13784868Y-6688435D01*
X13784868Y-6688435D02*
X13780106Y-6678912D01*
X13780106Y-6678912D02*
X13780106Y-6650340D01*
X13780106Y-6650340D02*
X13784868Y-6640816D01*
X13784868Y-6640816D02*
X13789630Y-6636055D01*
X13789630Y-6636055D02*
X13799154Y-6631293D01*
X13799154Y-6631293D02*
X13818202Y-6631293D01*
X13818202Y-6631293D02*
X13827725Y-6636055D01*
X13870583Y-6697959D02*
X13870583Y-6597959D01*
X13880106Y-6659864D02*
X13908678Y-6697959D01*
X13908678Y-6631293D02*
X13870583Y-6669388D01*
X13994392Y-6631293D02*
X13994392Y-6697959D01*
X13951535Y-6631293D02*
X13951535Y-6683674D01*
X13951535Y-6683674D02*
X13956297Y-6693197D01*
X13956297Y-6693197D02*
X13965821Y-6697959D01*
X13965821Y-6697959D02*
X13980106Y-6697959D01*
X13980106Y-6697959D02*
X13989630Y-6693197D01*
X13989630Y-6693197D02*
X13994392Y-6688435D01*
X14042011Y-6631293D02*
X14042011Y-6731293D01*
X14042011Y-6636055D02*
X14051535Y-6631293D01*
X14051535Y-6631293D02*
X14070583Y-6631293D01*
X14070583Y-6631293D02*
X14080106Y-6636055D01*
X14080106Y-6636055D02*
X14084868Y-6640816D01*
X14084868Y-6640816D02*
X14089630Y-6650340D01*
X14089630Y-6650340D02*
X14089630Y-6678912D01*
X14089630Y-6678912D02*
X14084868Y-6688435D01*
X14084868Y-6688435D02*
X14080106Y-6693197D01*
X14080106Y-6693197D02*
X14070583Y-6697959D01*
X14070583Y-6697959D02*
X14051535Y-6697959D01*
X14051535Y-6697959D02*
X14042011Y-6693197D01*
X14265821Y-6688435D02*
X14261059Y-6693197D01*
X14261059Y-6693197D02*
X14246773Y-6697959D01*
X14246773Y-6697959D02*
X14237249Y-6697959D01*
X14237249Y-6697959D02*
X14222964Y-6693197D01*
X14222964Y-6693197D02*
X14213440Y-6683674D01*
X14213440Y-6683674D02*
X14208678Y-6674150D01*
X14208678Y-6674150D02*
X14203916Y-6655102D01*
X14203916Y-6655102D02*
X14203916Y-6640816D01*
X14203916Y-6640816D02*
X14208678Y-6621769D01*
X14208678Y-6621769D02*
X14213440Y-6612245D01*
X14213440Y-6612245D02*
X14222964Y-6602721D01*
X14222964Y-6602721D02*
X14237249Y-6597959D01*
X14237249Y-6597959D02*
X14246773Y-6597959D01*
X14246773Y-6597959D02*
X14261059Y-6602721D01*
X14261059Y-6602721D02*
X14265821Y-6607483D01*
X14308678Y-6697959D02*
X14308678Y-6597959D01*
X14351535Y-6697959D02*
X14351535Y-6645578D01*
X14351535Y-6645578D02*
X14346773Y-6636055D01*
X14346773Y-6636055D02*
X14337249Y-6631293D01*
X14337249Y-6631293D02*
X14322964Y-6631293D01*
X14322964Y-6631293D02*
X14313440Y-6636055D01*
X14313440Y-6636055D02*
X14308678Y-6640816D01*
X14442011Y-6697959D02*
X14442011Y-6645578D01*
X14442011Y-6645578D02*
X14437249Y-6636055D01*
X14437249Y-6636055D02*
X14427726Y-6631293D01*
X14427726Y-6631293D02*
X14408678Y-6631293D01*
X14408678Y-6631293D02*
X14399154Y-6636055D01*
X14442011Y-6693197D02*
X14432487Y-6697959D01*
X14432487Y-6697959D02*
X14408678Y-6697959D01*
X14408678Y-6697959D02*
X14399154Y-6693197D01*
X14399154Y-6693197D02*
X14394392Y-6683674D01*
X14394392Y-6683674D02*
X14394392Y-6674150D01*
X14394392Y-6674150D02*
X14399154Y-6664626D01*
X14399154Y-6664626D02*
X14408678Y-6659864D01*
X14408678Y-6659864D02*
X14432487Y-6659864D01*
X14432487Y-6659864D02*
X14442011Y-6655102D01*
X14489630Y-6697959D02*
X14489630Y-6631293D01*
X14489630Y-6650340D02*
X14494392Y-6640816D01*
X14494392Y-6640816D02*
X14499154Y-6636055D01*
X14499154Y-6636055D02*
X14508678Y-6631293D01*
X14508678Y-6631293D02*
X14518202Y-6631293D01*
X14537249Y-6631293D02*
X14575345Y-6631293D01*
X14551535Y-6597959D02*
X14551535Y-6683674D01*
X14551535Y-6683674D02*
X14556297Y-6693197D01*
X14556297Y-6693197D02*
X14565821Y-6697959D01*
X14565821Y-6697959D02*
X14575345Y-6697959D01*
X14608678Y-6688435D02*
X14613440Y-6693197D01*
X14613440Y-6693197D02*
X14608678Y-6697959D01*
X14608678Y-6697959D02*
X14603916Y-6693197D01*
X14603916Y-6693197D02*
X14608678Y-6688435D01*
X14608678Y-6688435D02*
X14608678Y-6697959D01*
X14608678Y-6636055D02*
X14613440Y-6640816D01*
X14613440Y-6640816D02*
X14608678Y-6645578D01*
X14608678Y-6645578D02*
X14603916Y-6640816D01*
X14603916Y-6640816D02*
X14608678Y-6636055D01*
X14608678Y-6636055D02*
X14608678Y-6645578D01*
X12908678Y-6858954D02*
X12908678Y-6758954D01*
X12951535Y-6858954D02*
X12951535Y-6806573D01*
X12951535Y-6806573D02*
X12946773Y-6797049D01*
X12946773Y-6797049D02*
X12937249Y-6792287D01*
X12937249Y-6792287D02*
X12922963Y-6792287D01*
X12922963Y-6792287D02*
X12913440Y-6797049D01*
X12913440Y-6797049D02*
X12908678Y-6801811D01*
X12984868Y-6792287D02*
X13022963Y-6792287D01*
X12999154Y-6758954D02*
X12999154Y-6844668D01*
X12999154Y-6844668D02*
X13003916Y-6854192D01*
X13003916Y-6854192D02*
X13013440Y-6858954D01*
X13013440Y-6858954D02*
X13022963Y-6858954D01*
X13042011Y-6792287D02*
X13080106Y-6792287D01*
X13056297Y-6758954D02*
X13056297Y-6844668D01*
X13056297Y-6844668D02*
X13061059Y-6854192D01*
X13061059Y-6854192D02*
X13070583Y-6858954D01*
X13070583Y-6858954D02*
X13080106Y-6858954D01*
X13113440Y-6792287D02*
X13113440Y-6892287D01*
X13113440Y-6797049D02*
X13122964Y-6792287D01*
X13122964Y-6792287D02*
X13142011Y-6792287D01*
X13142011Y-6792287D02*
X13151535Y-6797049D01*
X13151535Y-6797049D02*
X13156297Y-6801811D01*
X13156297Y-6801811D02*
X13161059Y-6811335D01*
X13161059Y-6811335D02*
X13161059Y-6839906D01*
X13161059Y-6839906D02*
X13156297Y-6849430D01*
X13156297Y-6849430D02*
X13151535Y-6854192D01*
X13151535Y-6854192D02*
X13142011Y-6858954D01*
X13142011Y-6858954D02*
X13122964Y-6858954D01*
X13122964Y-6858954D02*
X13113440Y-6854192D01*
X13199154Y-6854192D02*
X13208678Y-6858954D01*
X13208678Y-6858954D02*
X13227725Y-6858954D01*
X13227725Y-6858954D02*
X13237249Y-6854192D01*
X13237249Y-6854192D02*
X13242011Y-6844668D01*
X13242011Y-6844668D02*
X13242011Y-6839906D01*
X13242011Y-6839906D02*
X13237249Y-6830382D01*
X13237249Y-6830382D02*
X13227725Y-6825620D01*
X13227725Y-6825620D02*
X13213440Y-6825620D01*
X13213440Y-6825620D02*
X13203916Y-6820858D01*
X13203916Y-6820858D02*
X13199154Y-6811335D01*
X13199154Y-6811335D02*
X13199154Y-6806573D01*
X13199154Y-6806573D02*
X13203916Y-6797049D01*
X13203916Y-6797049D02*
X13213440Y-6792287D01*
X13213440Y-6792287D02*
X13227725Y-6792287D01*
X13227725Y-6792287D02*
X13237249Y-6797049D01*
X13284868Y-6849430D02*
X13289630Y-6854192D01*
X13289630Y-6854192D02*
X13284868Y-6858954D01*
X13284868Y-6858954D02*
X13280106Y-6854192D01*
X13280106Y-6854192D02*
X13284868Y-6849430D01*
X13284868Y-6849430D02*
X13284868Y-6858954D01*
X13284868Y-6797049D02*
X13289630Y-6801811D01*
X13289630Y-6801811D02*
X13284868Y-6806573D01*
X13284868Y-6806573D02*
X13280106Y-6801811D01*
X13280106Y-6801811D02*
X13284868Y-6797049D01*
X13284868Y-6797049D02*
X13284868Y-6806573D01*
X13403916Y-6754192D02*
X13318202Y-6882763D01*
X13508678Y-6754192D02*
X13422964Y-6882763D01*
X13542011Y-6792287D02*
X13542011Y-6878001D01*
X13542011Y-6878001D02*
X13537249Y-6887525D01*
X13537249Y-6887525D02*
X13527725Y-6892287D01*
X13527725Y-6892287D02*
X13522964Y-6892287D01*
X13542011Y-6758954D02*
X13537249Y-6763716D01*
X13537249Y-6763716D02*
X13542011Y-6768478D01*
X13542011Y-6768478D02*
X13546773Y-6763716D01*
X13546773Y-6763716D02*
X13542011Y-6758954D01*
X13542011Y-6758954D02*
X13542011Y-6768478D01*
X13603916Y-6858954D02*
X13594392Y-6854192D01*
X13594392Y-6854192D02*
X13589630Y-6844668D01*
X13589630Y-6844668D02*
X13589630Y-6758954D01*
X13684868Y-6854192D02*
X13675344Y-6858954D01*
X13675344Y-6858954D02*
X13656297Y-6858954D01*
X13656297Y-6858954D02*
X13646773Y-6854192D01*
X13646773Y-6854192D02*
X13642011Y-6849430D01*
X13642011Y-6849430D02*
X13637249Y-6839906D01*
X13637249Y-6839906D02*
X13637249Y-6811335D01*
X13637249Y-6811335D02*
X13642011Y-6801811D01*
X13642011Y-6801811D02*
X13646773Y-6797049D01*
X13646773Y-6797049D02*
X13656297Y-6792287D01*
X13656297Y-6792287D02*
X13675344Y-6792287D01*
X13675344Y-6792287D02*
X13684868Y-6797049D01*
X13727725Y-6792287D02*
X13727725Y-6892287D01*
X13727725Y-6797049D02*
X13737249Y-6792287D01*
X13737249Y-6792287D02*
X13756297Y-6792287D01*
X13756297Y-6792287D02*
X13765821Y-6797049D01*
X13765821Y-6797049D02*
X13770583Y-6801811D01*
X13770583Y-6801811D02*
X13775344Y-6811335D01*
X13775344Y-6811335D02*
X13775344Y-6839906D01*
X13775344Y-6839906D02*
X13770583Y-6849430D01*
X13770583Y-6849430D02*
X13765821Y-6854192D01*
X13765821Y-6854192D02*
X13756297Y-6858954D01*
X13756297Y-6858954D02*
X13737249Y-6858954D01*
X13737249Y-6858954D02*
X13727725Y-6854192D01*
X13861059Y-6854192D02*
X13851535Y-6858954D01*
X13851535Y-6858954D02*
X13832487Y-6858954D01*
X13832487Y-6858954D02*
X13822964Y-6854192D01*
X13822964Y-6854192D02*
X13818202Y-6849430D01*
X13818202Y-6849430D02*
X13813440Y-6839906D01*
X13813440Y-6839906D02*
X13813440Y-6811335D01*
X13813440Y-6811335D02*
X13818202Y-6801811D01*
X13818202Y-6801811D02*
X13822964Y-6797049D01*
X13822964Y-6797049D02*
X13832487Y-6792287D01*
X13832487Y-6792287D02*
X13851535Y-6792287D01*
X13851535Y-6792287D02*
X13861059Y-6797049D01*
X13903916Y-6858954D02*
X13903916Y-6758954D01*
X13903916Y-6797049D02*
X13913440Y-6792287D01*
X13913440Y-6792287D02*
X13932487Y-6792287D01*
X13932487Y-6792287D02*
X13942011Y-6797049D01*
X13942011Y-6797049D02*
X13946773Y-6801811D01*
X13946773Y-6801811D02*
X13951535Y-6811335D01*
X13951535Y-6811335D02*
X13951535Y-6839906D01*
X13951535Y-6839906D02*
X13946773Y-6849430D01*
X13946773Y-6849430D02*
X13942011Y-6854192D01*
X13942011Y-6854192D02*
X13932487Y-6858954D01*
X13932487Y-6858954D02*
X13913440Y-6858954D01*
X13913440Y-6858954D02*
X13903916Y-6854192D01*
X13994392Y-6849430D02*
X13999154Y-6854192D01*
X13999154Y-6854192D02*
X13994392Y-6858954D01*
X13994392Y-6858954D02*
X13989630Y-6854192D01*
X13989630Y-6854192D02*
X13994392Y-6849430D01*
X13994392Y-6849430D02*
X13994392Y-6858954D01*
X14084868Y-6854192D02*
X14075344Y-6858954D01*
X14075344Y-6858954D02*
X14056297Y-6858954D01*
X14056297Y-6858954D02*
X14046773Y-6854192D01*
X14046773Y-6854192D02*
X14042011Y-6849430D01*
X14042011Y-6849430D02*
X14037249Y-6839906D01*
X14037249Y-6839906D02*
X14037249Y-6811335D01*
X14037249Y-6811335D02*
X14042011Y-6801811D01*
X14042011Y-6801811D02*
X14046773Y-6797049D01*
X14046773Y-6797049D02*
X14056297Y-6792287D01*
X14056297Y-6792287D02*
X14075344Y-6792287D01*
X14075344Y-6792287D02*
X14084868Y-6797049D01*
X14142011Y-6858954D02*
X14132487Y-6854192D01*
X14132487Y-6854192D02*
X14127725Y-6849430D01*
X14127725Y-6849430D02*
X14122964Y-6839906D01*
X14122964Y-6839906D02*
X14122964Y-6811335D01*
X14122964Y-6811335D02*
X14127725Y-6801811D01*
X14127725Y-6801811D02*
X14132487Y-6797049D01*
X14132487Y-6797049D02*
X14142011Y-6792287D01*
X14142011Y-6792287D02*
X14156297Y-6792287D01*
X14156297Y-6792287D02*
X14165821Y-6797049D01*
X14165821Y-6797049D02*
X14170583Y-6801811D01*
X14170583Y-6801811D02*
X14175344Y-6811335D01*
X14175344Y-6811335D02*
X14175344Y-6839906D01*
X14175344Y-6839906D02*
X14170583Y-6849430D01*
X14170583Y-6849430D02*
X14165821Y-6854192D01*
X14165821Y-6854192D02*
X14156297Y-6858954D01*
X14156297Y-6858954D02*
X14142011Y-6858954D01*
X14218202Y-6858954D02*
X14218202Y-6792287D01*
X14218202Y-6801811D02*
X14222964Y-6797049D01*
X14222964Y-6797049D02*
X14232487Y-6792287D01*
X14232487Y-6792287D02*
X14246773Y-6792287D01*
X14246773Y-6792287D02*
X14256297Y-6797049D01*
X14256297Y-6797049D02*
X14261059Y-6806573D01*
X14261059Y-6806573D02*
X14261059Y-6858954D01*
X14261059Y-6806573D02*
X14265821Y-6797049D01*
X14265821Y-6797049D02*
X14275344Y-6792287D01*
X14275344Y-6792287D02*
X14289630Y-6792287D01*
X14289630Y-6792287D02*
X14299154Y-6797049D01*
X14299154Y-6797049D02*
X14303916Y-6806573D01*
X14303916Y-6806573D02*
X14303916Y-6858954D01*
X14422963Y-6754192D02*
X14337249Y-6882763D01*
X14456297Y-6858954D02*
X14456297Y-6792287D01*
X14456297Y-6758954D02*
X14451535Y-6763716D01*
X14451535Y-6763716D02*
X14456297Y-6768478D01*
X14456297Y-6768478D02*
X14461059Y-6763716D01*
X14461059Y-6763716D02*
X14456297Y-6758954D01*
X14456297Y-6758954D02*
X14456297Y-6768478D01*
X14503916Y-6858954D02*
X14503916Y-6792287D01*
X14503916Y-6801811D02*
X14508678Y-6797049D01*
X14508678Y-6797049D02*
X14518202Y-6792287D01*
X14518202Y-6792287D02*
X14532487Y-6792287D01*
X14532487Y-6792287D02*
X14542011Y-6797049D01*
X14542011Y-6797049D02*
X14546773Y-6806573D01*
X14546773Y-6806573D02*
X14546773Y-6858954D01*
X14546773Y-6806573D02*
X14551535Y-6797049D01*
X14551535Y-6797049D02*
X14561059Y-6792287D01*
X14561059Y-6792287D02*
X14575344Y-6792287D01*
X14575344Y-6792287D02*
X14584868Y-6797049D01*
X14584868Y-6797049D02*
X14589630Y-6806573D01*
X14589630Y-6806573D02*
X14589630Y-6858954D01*
X14637249Y-6792287D02*
X14637249Y-6892287D01*
X14637249Y-6797049D02*
X14646773Y-6792287D01*
X14646773Y-6792287D02*
X14665821Y-6792287D01*
X14665821Y-6792287D02*
X14675344Y-6797049D01*
X14675344Y-6797049D02*
X14680106Y-6801811D01*
X14680106Y-6801811D02*
X14684868Y-6811335D01*
X14684868Y-6811335D02*
X14684868Y-6839906D01*
X14684868Y-6839906D02*
X14680106Y-6849430D01*
X14680106Y-6849430D02*
X14675344Y-6854192D01*
X14675344Y-6854192D02*
X14665821Y-6858954D01*
X14665821Y-6858954D02*
X14646773Y-6858954D01*
X14646773Y-6858954D02*
X14637249Y-6854192D01*
X14765821Y-6854192D02*
X14756297Y-6858954D01*
X14756297Y-6858954D02*
X14737249Y-6858954D01*
X14737249Y-6858954D02*
X14727725Y-6854192D01*
X14727725Y-6854192D02*
X14722963Y-6844668D01*
X14722963Y-6844668D02*
X14722963Y-6806573D01*
X14722963Y-6806573D02*
X14727725Y-6797049D01*
X14727725Y-6797049D02*
X14737249Y-6792287D01*
X14737249Y-6792287D02*
X14756297Y-6792287D01*
X14756297Y-6792287D02*
X14765821Y-6797049D01*
X14765821Y-6797049D02*
X14770582Y-6806573D01*
X14770582Y-6806573D02*
X14770582Y-6816097D01*
X14770582Y-6816097D02*
X14722963Y-6825620D01*
X14856297Y-6858954D02*
X14856297Y-6758954D01*
X14856297Y-6854192D02*
X14846773Y-6858954D01*
X14846773Y-6858954D02*
X14827725Y-6858954D01*
X14827725Y-6858954D02*
X14818202Y-6854192D01*
X14818202Y-6854192D02*
X14813440Y-6849430D01*
X14813440Y-6849430D02*
X14808678Y-6839906D01*
X14808678Y-6839906D02*
X14808678Y-6811335D01*
X14808678Y-6811335D02*
X14813440Y-6801811D01*
X14813440Y-6801811D02*
X14818202Y-6797049D01*
X14818202Y-6797049D02*
X14827725Y-6792287D01*
X14827725Y-6792287D02*
X14846773Y-6792287D01*
X14846773Y-6792287D02*
X14856297Y-6797049D01*
X14946773Y-6858954D02*
X14946773Y-6806573D01*
X14946773Y-6806573D02*
X14942011Y-6797049D01*
X14942011Y-6797049D02*
X14932487Y-6792287D01*
X14932487Y-6792287D02*
X14913440Y-6792287D01*
X14913440Y-6792287D02*
X14903916Y-6797049D01*
X14946773Y-6854192D02*
X14937249Y-6858954D01*
X14937249Y-6858954D02*
X14913440Y-6858954D01*
X14913440Y-6858954D02*
X14903916Y-6854192D01*
X14903916Y-6854192D02*
X14899154Y-6844668D01*
X14899154Y-6844668D02*
X14899154Y-6835144D01*
X14899154Y-6835144D02*
X14903916Y-6825620D01*
X14903916Y-6825620D02*
X14913440Y-6820858D01*
X14913440Y-6820858D02*
X14937249Y-6820858D01*
X14937249Y-6820858D02*
X14946773Y-6816097D01*
X14994392Y-6792287D02*
X14994392Y-6858954D01*
X14994392Y-6801811D02*
X14999154Y-6797049D01*
X14999154Y-6797049D02*
X15008678Y-6792287D01*
X15008678Y-6792287D02*
X15022963Y-6792287D01*
X15022963Y-6792287D02*
X15032487Y-6797049D01*
X15032487Y-6797049D02*
X15037249Y-6806573D01*
X15037249Y-6806573D02*
X15037249Y-6858954D01*
X15127725Y-6854192D02*
X15118202Y-6858954D01*
X15118202Y-6858954D02*
X15099154Y-6858954D01*
X15099154Y-6858954D02*
X15089630Y-6854192D01*
X15089630Y-6854192D02*
X15084868Y-6849430D01*
X15084868Y-6849430D02*
X15080106Y-6839906D01*
X15080106Y-6839906D02*
X15080106Y-6811335D01*
X15080106Y-6811335D02*
X15084868Y-6801811D01*
X15084868Y-6801811D02*
X15089630Y-6797049D01*
X15089630Y-6797049D02*
X15099154Y-6792287D01*
X15099154Y-6792287D02*
X15118202Y-6792287D01*
X15118202Y-6792287D02*
X15127725Y-6797049D01*
X15208678Y-6854192D02*
X15199154Y-6858954D01*
X15199154Y-6858954D02*
X15180106Y-6858954D01*
X15180106Y-6858954D02*
X15170583Y-6854192D01*
X15170583Y-6854192D02*
X15165821Y-6844668D01*
X15165821Y-6844668D02*
X15165821Y-6806573D01*
X15165821Y-6806573D02*
X15170583Y-6797049D01*
X15170583Y-6797049D02*
X15180106Y-6792287D01*
X15180106Y-6792287D02*
X15199154Y-6792287D01*
X15199154Y-6792287D02*
X15208678Y-6797049D01*
X15208678Y-6797049D02*
X15213440Y-6806573D01*
X15213440Y-6806573D02*
X15213440Y-6816097D01*
X15213440Y-6816097D02*
X15165821Y-6825620D01*
X12927725Y-7080943D02*
X12946773Y-7080943D01*
X12946773Y-7080943D02*
X12956297Y-7085704D01*
X12956297Y-7085704D02*
X12965821Y-7095228D01*
X12965821Y-7095228D02*
X12970582Y-7114276D01*
X12970582Y-7114276D02*
X12970582Y-7147609D01*
X12970582Y-7147609D02*
X12965821Y-7166657D01*
X12965821Y-7166657D02*
X12956297Y-7176181D01*
X12956297Y-7176181D02*
X12946773Y-7180943D01*
X12946773Y-7180943D02*
X12927725Y-7180943D01*
X12927725Y-7180943D02*
X12918202Y-7176181D01*
X12918202Y-7176181D02*
X12908678Y-7166657D01*
X12908678Y-7166657D02*
X12903916Y-7147609D01*
X12903916Y-7147609D02*
X12903916Y-7114276D01*
X12903916Y-7114276D02*
X12908678Y-7095228D01*
X12908678Y-7095228D02*
X12918202Y-7085704D01*
X12918202Y-7085704D02*
X12927725Y-7080943D01*
X13013440Y-7114276D02*
X13013440Y-7214276D01*
X13013440Y-7119038D02*
X13022963Y-7114276D01*
X13022963Y-7114276D02*
X13042011Y-7114276D01*
X13042011Y-7114276D02*
X13051535Y-7119038D01*
X13051535Y-7119038D02*
X13056297Y-7123800D01*
X13056297Y-7123800D02*
X13061059Y-7133323D01*
X13061059Y-7133323D02*
X13061059Y-7161895D01*
X13061059Y-7161895D02*
X13056297Y-7171419D01*
X13056297Y-7171419D02*
X13051535Y-7176181D01*
X13051535Y-7176181D02*
X13042011Y-7180943D01*
X13042011Y-7180943D02*
X13022963Y-7180943D01*
X13022963Y-7180943D02*
X13013440Y-7176181D01*
X13089630Y-7114276D02*
X13127725Y-7114276D01*
X13103916Y-7080943D02*
X13103916Y-7166657D01*
X13103916Y-7166657D02*
X13108678Y-7176181D01*
X13108678Y-7176181D02*
X13118202Y-7180943D01*
X13118202Y-7180943D02*
X13127725Y-7180943D01*
X13161059Y-7180943D02*
X13161059Y-7114276D01*
X13161059Y-7080943D02*
X13156297Y-7085704D01*
X13156297Y-7085704D02*
X13161059Y-7090466D01*
X13161059Y-7090466D02*
X13165821Y-7085704D01*
X13165821Y-7085704D02*
X13161059Y-7080943D01*
X13161059Y-7080943D02*
X13161059Y-7090466D01*
X13208678Y-7180943D02*
X13208678Y-7114276D01*
X13208678Y-7123800D02*
X13213440Y-7119038D01*
X13213440Y-7119038D02*
X13222963Y-7114276D01*
X13222963Y-7114276D02*
X13237249Y-7114276D01*
X13237249Y-7114276D02*
X13246773Y-7119038D01*
X13246773Y-7119038D02*
X13251535Y-7128562D01*
X13251535Y-7128562D02*
X13251535Y-7180943D01*
X13251535Y-7128562D02*
X13256297Y-7119038D01*
X13256297Y-7119038D02*
X13265821Y-7114276D01*
X13265821Y-7114276D02*
X13280106Y-7114276D01*
X13280106Y-7114276D02*
X13289630Y-7119038D01*
X13289630Y-7119038D02*
X13294392Y-7128562D01*
X13294392Y-7128562D02*
X13294392Y-7180943D01*
X13342011Y-7180943D02*
X13342011Y-7114276D01*
X13342011Y-7080943D02*
X13337249Y-7085704D01*
X13337249Y-7085704D02*
X13342011Y-7090466D01*
X13342011Y-7090466D02*
X13346773Y-7085704D01*
X13346773Y-7085704D02*
X13342011Y-7080943D01*
X13342011Y-7080943D02*
X13342011Y-7090466D01*
X13380106Y-7114276D02*
X13432487Y-7114276D01*
X13432487Y-7114276D02*
X13380106Y-7180943D01*
X13380106Y-7180943D02*
X13432487Y-7180943D01*
X13508678Y-7176181D02*
X13499154Y-7180943D01*
X13499154Y-7180943D02*
X13480106Y-7180943D01*
X13480106Y-7180943D02*
X13470582Y-7176181D01*
X13470582Y-7176181D02*
X13465821Y-7166657D01*
X13465821Y-7166657D02*
X13465821Y-7128562D01*
X13465821Y-7128562D02*
X13470582Y-7119038D01*
X13470582Y-7119038D02*
X13480106Y-7114276D01*
X13480106Y-7114276D02*
X13499154Y-7114276D01*
X13499154Y-7114276D02*
X13508678Y-7119038D01*
X13508678Y-7119038D02*
X13513440Y-7128562D01*
X13513440Y-7128562D02*
X13513440Y-7138085D01*
X13513440Y-7138085D02*
X13465821Y-7147609D01*
X13599154Y-7180943D02*
X13599154Y-7080943D01*
X13599154Y-7176181D02*
X13589630Y-7180943D01*
X13589630Y-7180943D02*
X13570582Y-7180943D01*
X13570582Y-7180943D02*
X13561059Y-7176181D01*
X13561059Y-7176181D02*
X13556297Y-7171419D01*
X13556297Y-7171419D02*
X13551535Y-7161895D01*
X13551535Y-7161895D02*
X13551535Y-7133323D01*
X13551535Y-7133323D02*
X13556297Y-7123800D01*
X13556297Y-7123800D02*
X13561059Y-7119038D01*
X13561059Y-7119038D02*
X13570582Y-7114276D01*
X13570582Y-7114276D02*
X13589630Y-7114276D01*
X13589630Y-7114276D02*
X13599154Y-7119038D01*
X13708678Y-7114276D02*
X13746773Y-7114276D01*
X13722963Y-7180943D02*
X13722963Y-7095228D01*
X13722963Y-7095228D02*
X13727725Y-7085704D01*
X13727725Y-7085704D02*
X13737249Y-7080943D01*
X13737249Y-7080943D02*
X13746773Y-7080943D01*
X13794392Y-7180943D02*
X13784868Y-7176181D01*
X13784868Y-7176181D02*
X13780106Y-7171419D01*
X13780106Y-7171419D02*
X13775344Y-7161895D01*
X13775344Y-7161895D02*
X13775344Y-7133323D01*
X13775344Y-7133323D02*
X13780106Y-7123800D01*
X13780106Y-7123800D02*
X13784868Y-7119038D01*
X13784868Y-7119038D02*
X13794392Y-7114276D01*
X13794392Y-7114276D02*
X13808678Y-7114276D01*
X13808678Y-7114276D02*
X13818202Y-7119038D01*
X13818202Y-7119038D02*
X13822963Y-7123800D01*
X13822963Y-7123800D02*
X13827725Y-7133323D01*
X13827725Y-7133323D02*
X13827725Y-7161895D01*
X13827725Y-7161895D02*
X13822963Y-7171419D01*
X13822963Y-7171419D02*
X13818202Y-7176181D01*
X13818202Y-7176181D02*
X13808678Y-7180943D01*
X13808678Y-7180943D02*
X13794392Y-7180943D01*
X13870583Y-7180943D02*
X13870583Y-7114276D01*
X13870583Y-7133323D02*
X13875344Y-7123800D01*
X13875344Y-7123800D02*
X13880106Y-7119038D01*
X13880106Y-7119038D02*
X13889630Y-7114276D01*
X13889630Y-7114276D02*
X13899154Y-7114276D01*
X14037249Y-7080943D02*
X14037249Y-7152371D01*
X14037249Y-7152371D02*
X14032487Y-7166657D01*
X14032487Y-7166657D02*
X14022964Y-7176181D01*
X14022964Y-7176181D02*
X14008678Y-7180943D01*
X14008678Y-7180943D02*
X13999154Y-7180943D01*
X14132487Y-7180943D02*
X14084868Y-7180943D01*
X14084868Y-7180943D02*
X14084868Y-7080943D01*
X14222964Y-7171419D02*
X14218202Y-7176181D01*
X14218202Y-7176181D02*
X14203916Y-7180943D01*
X14203916Y-7180943D02*
X14194392Y-7180943D01*
X14194392Y-7180943D02*
X14180106Y-7176181D01*
X14180106Y-7176181D02*
X14170583Y-7166657D01*
X14170583Y-7166657D02*
X14165821Y-7157133D01*
X14165821Y-7157133D02*
X14161059Y-7138085D01*
X14161059Y-7138085D02*
X14161059Y-7123800D01*
X14161059Y-7123800D02*
X14165821Y-7104752D01*
X14165821Y-7104752D02*
X14170583Y-7095228D01*
X14170583Y-7095228D02*
X14180106Y-7085704D01*
X14180106Y-7085704D02*
X14194392Y-7080943D01*
X14194392Y-7080943D02*
X14203916Y-7080943D01*
X14203916Y-7080943D02*
X14218202Y-7085704D01*
X14218202Y-7085704D02*
X14222964Y-7090466D01*
X14265821Y-7180943D02*
X14265821Y-7080943D01*
X14265821Y-7080943D02*
X14303916Y-7080943D01*
X14303916Y-7080943D02*
X14313440Y-7085704D01*
X14313440Y-7085704D02*
X14318202Y-7090466D01*
X14318202Y-7090466D02*
X14322964Y-7099990D01*
X14322964Y-7099990D02*
X14322964Y-7114276D01*
X14322964Y-7114276D02*
X14318202Y-7123800D01*
X14318202Y-7123800D02*
X14313440Y-7128562D01*
X14313440Y-7128562D02*
X14303916Y-7133323D01*
X14303916Y-7133323D02*
X14265821Y-7133323D01*
X14422964Y-7171419D02*
X14418202Y-7176181D01*
X14418202Y-7176181D02*
X14403916Y-7180943D01*
X14403916Y-7180943D02*
X14394392Y-7180943D01*
X14394392Y-7180943D02*
X14380106Y-7176181D01*
X14380106Y-7176181D02*
X14370583Y-7166657D01*
X14370583Y-7166657D02*
X14365821Y-7157133D01*
X14365821Y-7157133D02*
X14361059Y-7138085D01*
X14361059Y-7138085D02*
X14361059Y-7123800D01*
X14361059Y-7123800D02*
X14365821Y-7104752D01*
X14365821Y-7104752D02*
X14370583Y-7095228D01*
X14370583Y-7095228D02*
X14380106Y-7085704D01*
X14380106Y-7085704D02*
X14394392Y-7080943D01*
X14394392Y-7080943D02*
X14403916Y-7080943D01*
X14403916Y-7080943D02*
X14418202Y-7085704D01*
X14418202Y-7085704D02*
X14422964Y-7090466D01*
X14499154Y-7128562D02*
X14513440Y-7133323D01*
X14513440Y-7133323D02*
X14518202Y-7138085D01*
X14518202Y-7138085D02*
X14522964Y-7147609D01*
X14522964Y-7147609D02*
X14522964Y-7161895D01*
X14522964Y-7161895D02*
X14518202Y-7171419D01*
X14518202Y-7171419D02*
X14513440Y-7176181D01*
X14513440Y-7176181D02*
X14503916Y-7180943D01*
X14503916Y-7180943D02*
X14465821Y-7180943D01*
X14465821Y-7180943D02*
X14465821Y-7080943D01*
X14465821Y-7080943D02*
X14499154Y-7080943D01*
X14499154Y-7080943D02*
X14508678Y-7085704D01*
X14508678Y-7085704D02*
X14513440Y-7090466D01*
X14513440Y-7090466D02*
X14518202Y-7099990D01*
X14518202Y-7099990D02*
X14518202Y-7109514D01*
X14518202Y-7109514D02*
X14513440Y-7119038D01*
X14513440Y-7119038D02*
X14508678Y-7123800D01*
X14508678Y-7123800D02*
X14499154Y-7128562D01*
X14499154Y-7128562D02*
X14465821Y-7128562D01*
X14661059Y-7080943D02*
X14670583Y-7080943D01*
X14670583Y-7080943D02*
X14680106Y-7085704D01*
X14680106Y-7085704D02*
X14684868Y-7090466D01*
X14684868Y-7090466D02*
X14689630Y-7099990D01*
X14689630Y-7099990D02*
X14694392Y-7119038D01*
X14694392Y-7119038D02*
X14694392Y-7142847D01*
X14694392Y-7142847D02*
X14689630Y-7161895D01*
X14689630Y-7161895D02*
X14684868Y-7171419D01*
X14684868Y-7171419D02*
X14680106Y-7176181D01*
X14680106Y-7176181D02*
X14670583Y-7180943D01*
X14670583Y-7180943D02*
X14661059Y-7180943D01*
X14661059Y-7180943D02*
X14651535Y-7176181D01*
X14651535Y-7176181D02*
X14646773Y-7171419D01*
X14646773Y-7171419D02*
X14642011Y-7161895D01*
X14642011Y-7161895D02*
X14637249Y-7142847D01*
X14637249Y-7142847D02*
X14637249Y-7119038D01*
X14637249Y-7119038D02*
X14642011Y-7099990D01*
X14642011Y-7099990D02*
X14646773Y-7090466D01*
X14646773Y-7090466D02*
X14651535Y-7085704D01*
X14651535Y-7085704D02*
X14661059Y-7080943D01*
X14737249Y-7171419D02*
X14742011Y-7176181D01*
X14742011Y-7176181D02*
X14737249Y-7180943D01*
X14737249Y-7180943D02*
X14732487Y-7176181D01*
X14732487Y-7176181D02*
X14737249Y-7171419D01*
X14737249Y-7171419D02*
X14737249Y-7180943D01*
X14799154Y-7123800D02*
X14789630Y-7119038D01*
X14789630Y-7119038D02*
X14784868Y-7114276D01*
X14784868Y-7114276D02*
X14780106Y-7104752D01*
X14780106Y-7104752D02*
X14780106Y-7099990D01*
X14780106Y-7099990D02*
X14784868Y-7090466D01*
X14784868Y-7090466D02*
X14789630Y-7085704D01*
X14789630Y-7085704D02*
X14799154Y-7080943D01*
X14799154Y-7080943D02*
X14818202Y-7080943D01*
X14818202Y-7080943D02*
X14827725Y-7085704D01*
X14827725Y-7085704D02*
X14832487Y-7090466D01*
X14832487Y-7090466D02*
X14837249Y-7099990D01*
X14837249Y-7099990D02*
X14837249Y-7104752D01*
X14837249Y-7104752D02*
X14832487Y-7114276D01*
X14832487Y-7114276D02*
X14827725Y-7119038D01*
X14827725Y-7119038D02*
X14818202Y-7123800D01*
X14818202Y-7123800D02*
X14799154Y-7123800D01*
X14799154Y-7123800D02*
X14789630Y-7128562D01*
X14789630Y-7128562D02*
X14784868Y-7133323D01*
X14784868Y-7133323D02*
X14780106Y-7142847D01*
X14780106Y-7142847D02*
X14780106Y-7161895D01*
X14780106Y-7161895D02*
X14784868Y-7171419D01*
X14784868Y-7171419D02*
X14789630Y-7176181D01*
X14789630Y-7176181D02*
X14799154Y-7180943D01*
X14799154Y-7180943D02*
X14818202Y-7180943D01*
X14818202Y-7180943D02*
X14827725Y-7176181D01*
X14827725Y-7176181D02*
X14832487Y-7171419D01*
X14832487Y-7171419D02*
X14837249Y-7161895D01*
X14837249Y-7161895D02*
X14837249Y-7142847D01*
X14837249Y-7142847D02*
X14832487Y-7133323D01*
X14832487Y-7133323D02*
X14827725Y-7128562D01*
X14827725Y-7128562D02*
X14818202Y-7123800D01*
X14880106Y-7180943D02*
X14880106Y-7114276D01*
X14880106Y-7123800D02*
X14884868Y-7119038D01*
X14884868Y-7119038D02*
X14894392Y-7114276D01*
X14894392Y-7114276D02*
X14908678Y-7114276D01*
X14908678Y-7114276D02*
X14918202Y-7119038D01*
X14918202Y-7119038D02*
X14922964Y-7128562D01*
X14922964Y-7128562D02*
X14922964Y-7180943D01*
X14922964Y-7128562D02*
X14927725Y-7119038D01*
X14927725Y-7119038D02*
X14937249Y-7114276D01*
X14937249Y-7114276D02*
X14951535Y-7114276D01*
X14951535Y-7114276D02*
X14961059Y-7119038D01*
X14961059Y-7119038D02*
X14965821Y-7128562D01*
X14965821Y-7128562D02*
X14965821Y-7180943D01*
X15013440Y-7180943D02*
X15013440Y-7114276D01*
X15013440Y-7123800D02*
X15018202Y-7119038D01*
X15018202Y-7119038D02*
X15027725Y-7114276D01*
X15027725Y-7114276D02*
X15042011Y-7114276D01*
X15042011Y-7114276D02*
X15051535Y-7119038D01*
X15051535Y-7119038D02*
X15056297Y-7128562D01*
X15056297Y-7128562D02*
X15056297Y-7180943D01*
X15056297Y-7128562D02*
X15061059Y-7119038D01*
X15061059Y-7119038D02*
X15070583Y-7114276D01*
X15070583Y-7114276D02*
X15084868Y-7114276D01*
X15084868Y-7114276D02*
X15094392Y-7119038D01*
X15094392Y-7119038D02*
X15099154Y-7128562D01*
X15099154Y-7128562D02*
X15099154Y-7180943D01*
X15208678Y-7114276D02*
X15246773Y-7114276D01*
X15222964Y-7080943D02*
X15222964Y-7166657D01*
X15222964Y-7166657D02*
X15227725Y-7176181D01*
X15227725Y-7176181D02*
X15237249Y-7180943D01*
X15237249Y-7180943D02*
X15246773Y-7180943D01*
X15280106Y-7180943D02*
X15280106Y-7080943D01*
X15322964Y-7180943D02*
X15322964Y-7128562D01*
X15322964Y-7128562D02*
X15318202Y-7119038D01*
X15318202Y-7119038D02*
X15308678Y-7114276D01*
X15308678Y-7114276D02*
X15294392Y-7114276D01*
X15294392Y-7114276D02*
X15284868Y-7119038D01*
X15284868Y-7119038D02*
X15280106Y-7123800D01*
X15370583Y-7180943D02*
X15370583Y-7114276D01*
X15370583Y-7080943D02*
X15365821Y-7085704D01*
X15365821Y-7085704D02*
X15370583Y-7090466D01*
X15370583Y-7090466D02*
X15375345Y-7085704D01*
X15375345Y-7085704D02*
X15370583Y-7080943D01*
X15370583Y-7080943D02*
X15370583Y-7090466D01*
X15461059Y-7176181D02*
X15451535Y-7180943D01*
X15451535Y-7180943D02*
X15432487Y-7180943D01*
X15432487Y-7180943D02*
X15422964Y-7176181D01*
X15422964Y-7176181D02*
X15418202Y-7171419D01*
X15418202Y-7171419D02*
X15413440Y-7161895D01*
X15413440Y-7161895D02*
X15413440Y-7133323D01*
X15413440Y-7133323D02*
X15418202Y-7123800D01*
X15418202Y-7123800D02*
X15422964Y-7119038D01*
X15422964Y-7119038D02*
X15432487Y-7114276D01*
X15432487Y-7114276D02*
X15451535Y-7114276D01*
X15451535Y-7114276D02*
X15461059Y-7119038D01*
X15503916Y-7180943D02*
X15503916Y-7080943D01*
X15513440Y-7142847D02*
X15542011Y-7180943D01*
X15542011Y-7114276D02*
X15503916Y-7152371D01*
X12961059Y-7341937D02*
X12903916Y-7341937D01*
X12932487Y-7341937D02*
X12932487Y-7241937D01*
X12932487Y-7241937D02*
X12922963Y-7256223D01*
X12922963Y-7256223D02*
X12913440Y-7265746D01*
X12913440Y-7265746D02*
X12903916Y-7270508D01*
X13018202Y-7341937D02*
X13008678Y-7337175D01*
X13008678Y-7337175D02*
X13003916Y-7332413D01*
X13003916Y-7332413D02*
X12999154Y-7322889D01*
X12999154Y-7322889D02*
X12999154Y-7294318D01*
X12999154Y-7294318D02*
X13003916Y-7284794D01*
X13003916Y-7284794D02*
X13008678Y-7280032D01*
X13008678Y-7280032D02*
X13018202Y-7275270D01*
X13018202Y-7275270D02*
X13032487Y-7275270D01*
X13032487Y-7275270D02*
X13042011Y-7280032D01*
X13042011Y-7280032D02*
X13046773Y-7284794D01*
X13046773Y-7284794D02*
X13051535Y-7294318D01*
X13051535Y-7294318D02*
X13051535Y-7322889D01*
X13051535Y-7322889D02*
X13046773Y-7332413D01*
X13046773Y-7332413D02*
X13042011Y-7337175D01*
X13042011Y-7337175D02*
X13032487Y-7341937D01*
X13032487Y-7341937D02*
X13018202Y-7341937D01*
X13084868Y-7275270D02*
X13137249Y-7275270D01*
X13137249Y-7275270D02*
X13084868Y-7341937D01*
X13084868Y-7341937D02*
X13137249Y-7341937D01*
X13265821Y-7341937D02*
X13256297Y-7337175D01*
X13256297Y-7337175D02*
X13251535Y-7332413D01*
X13251535Y-7332413D02*
X13246773Y-7322889D01*
X13246773Y-7322889D02*
X13246773Y-7294318D01*
X13246773Y-7294318D02*
X13251535Y-7284794D01*
X13251535Y-7284794D02*
X13256297Y-7280032D01*
X13256297Y-7280032D02*
X13265821Y-7275270D01*
X13265821Y-7275270D02*
X13280106Y-7275270D01*
X13280106Y-7275270D02*
X13289630Y-7280032D01*
X13289630Y-7280032D02*
X13294392Y-7284794D01*
X13294392Y-7284794D02*
X13299154Y-7294318D01*
X13299154Y-7294318D02*
X13299154Y-7322889D01*
X13299154Y-7322889D02*
X13294392Y-7332413D01*
X13294392Y-7332413D02*
X13289630Y-7337175D01*
X13289630Y-7337175D02*
X13280106Y-7341937D01*
X13280106Y-7341937D02*
X13265821Y-7341937D01*
X13384868Y-7275270D02*
X13384868Y-7341937D01*
X13342011Y-7275270D02*
X13342011Y-7327651D01*
X13342011Y-7327651D02*
X13346773Y-7337175D01*
X13346773Y-7337175D02*
X13356297Y-7341937D01*
X13356297Y-7341937D02*
X13370583Y-7341937D01*
X13370583Y-7341937D02*
X13380106Y-7337175D01*
X13380106Y-7337175D02*
X13384868Y-7332413D01*
X13418202Y-7275270D02*
X13456297Y-7275270D01*
X13432487Y-7241937D02*
X13432487Y-7327651D01*
X13432487Y-7327651D02*
X13437249Y-7337175D01*
X13437249Y-7337175D02*
X13446773Y-7341937D01*
X13446773Y-7341937D02*
X13456297Y-7341937D01*
X13527725Y-7337175D02*
X13518202Y-7341937D01*
X13518202Y-7341937D02*
X13499154Y-7341937D01*
X13499154Y-7341937D02*
X13489630Y-7337175D01*
X13489630Y-7337175D02*
X13484868Y-7327651D01*
X13484868Y-7327651D02*
X13484868Y-7289556D01*
X13484868Y-7289556D02*
X13489630Y-7280032D01*
X13489630Y-7280032D02*
X13499154Y-7275270D01*
X13499154Y-7275270D02*
X13518202Y-7275270D01*
X13518202Y-7275270D02*
X13527725Y-7280032D01*
X13527725Y-7280032D02*
X13532487Y-7289556D01*
X13532487Y-7289556D02*
X13532487Y-7299080D01*
X13532487Y-7299080D02*
X13484868Y-7308604D01*
X13575345Y-7341937D02*
X13575345Y-7275270D01*
X13575345Y-7294318D02*
X13580106Y-7284794D01*
X13580106Y-7284794D02*
X13584868Y-7280032D01*
X13584868Y-7280032D02*
X13594392Y-7275270D01*
X13594392Y-7275270D02*
X13603916Y-7275270D01*
X13784868Y-7237175D02*
X13699154Y-7365746D01*
X13946773Y-7341937D02*
X13889630Y-7341937D01*
X13918202Y-7341937D02*
X13918202Y-7241937D01*
X13918202Y-7241937D02*
X13908678Y-7256223D01*
X13908678Y-7256223D02*
X13899154Y-7265746D01*
X13899154Y-7265746D02*
X13889630Y-7270508D01*
X14003916Y-7341937D02*
X13994392Y-7337175D01*
X13994392Y-7337175D02*
X13989630Y-7332413D01*
X13989630Y-7332413D02*
X13984868Y-7322889D01*
X13984868Y-7322889D02*
X13984868Y-7294318D01*
X13984868Y-7294318D02*
X13989630Y-7284794D01*
X13989630Y-7284794D02*
X13994392Y-7280032D01*
X13994392Y-7280032D02*
X14003916Y-7275270D01*
X14003916Y-7275270D02*
X14018202Y-7275270D01*
X14018202Y-7275270D02*
X14027726Y-7280032D01*
X14027726Y-7280032D02*
X14032487Y-7284794D01*
X14032487Y-7284794D02*
X14037249Y-7294318D01*
X14037249Y-7294318D02*
X14037249Y-7322889D01*
X14037249Y-7322889D02*
X14032487Y-7332413D01*
X14032487Y-7332413D02*
X14027726Y-7337175D01*
X14027726Y-7337175D02*
X14018202Y-7341937D01*
X14018202Y-7341937D02*
X14003916Y-7341937D01*
X14070583Y-7275270D02*
X14122964Y-7275270D01*
X14122964Y-7275270D02*
X14070583Y-7341937D01*
X14070583Y-7341937D02*
X14122964Y-7341937D01*
X14237249Y-7341937D02*
X14237249Y-7275270D01*
X14237249Y-7241937D02*
X14232488Y-7246699D01*
X14232488Y-7246699D02*
X14237249Y-7251461D01*
X14237249Y-7251461D02*
X14242011Y-7246699D01*
X14242011Y-7246699D02*
X14237249Y-7241937D01*
X14237249Y-7241937D02*
X14237249Y-7251461D01*
X14284868Y-7275270D02*
X14284868Y-7341937D01*
X14284868Y-7284794D02*
X14289630Y-7280032D01*
X14289630Y-7280032D02*
X14299154Y-7275270D01*
X14299154Y-7275270D02*
X14313440Y-7275270D01*
X14313440Y-7275270D02*
X14322964Y-7280032D01*
X14322964Y-7280032D02*
X14327726Y-7289556D01*
X14327726Y-7289556D02*
X14327726Y-7341937D01*
X14375345Y-7275270D02*
X14375345Y-7341937D01*
X14375345Y-7284794D02*
X14380107Y-7280032D01*
X14380107Y-7280032D02*
X14389630Y-7275270D01*
X14389630Y-7275270D02*
X14403916Y-7275270D01*
X14403916Y-7275270D02*
X14413440Y-7280032D01*
X14413440Y-7280032D02*
X14418202Y-7289556D01*
X14418202Y-7289556D02*
X14418202Y-7341937D01*
X14503916Y-7337175D02*
X14494392Y-7341937D01*
X14494392Y-7341937D02*
X14475345Y-7341937D01*
X14475345Y-7341937D02*
X14465821Y-7337175D01*
X14465821Y-7337175D02*
X14461059Y-7327651D01*
X14461059Y-7327651D02*
X14461059Y-7289556D01*
X14461059Y-7289556D02*
X14465821Y-7280032D01*
X14465821Y-7280032D02*
X14475345Y-7275270D01*
X14475345Y-7275270D02*
X14494392Y-7275270D01*
X14494392Y-7275270D02*
X14503916Y-7280032D01*
X14503916Y-7280032D02*
X14508678Y-7289556D01*
X14508678Y-7289556D02*
X14508678Y-7299080D01*
X14508678Y-7299080D02*
X14461059Y-7308604D01*
X14551535Y-7341937D02*
X14551535Y-7275270D01*
X14551535Y-7294318D02*
X14556297Y-7284794D01*
X14556297Y-7284794D02*
X14561059Y-7280032D01*
X14561059Y-7280032D02*
X14570583Y-7275270D01*
X14570583Y-7275270D02*
X14580107Y-7275270D01*
X12937249Y-7402931D02*
X12937249Y-7474360D01*
X12937249Y-7474360D02*
X12932487Y-7488646D01*
X12932487Y-7488646D02*
X12922963Y-7498169D01*
X12922963Y-7498169D02*
X12908678Y-7502931D01*
X12908678Y-7502931D02*
X12899154Y-7502931D01*
X13032487Y-7502931D02*
X12984868Y-7502931D01*
X12984868Y-7502931D02*
X12984868Y-7402931D01*
X13122963Y-7493407D02*
X13118202Y-7498169D01*
X13118202Y-7498169D02*
X13103916Y-7502931D01*
X13103916Y-7502931D02*
X13094392Y-7502931D01*
X13094392Y-7502931D02*
X13080106Y-7498169D01*
X13080106Y-7498169D02*
X13070583Y-7488646D01*
X13070583Y-7488646D02*
X13065821Y-7479122D01*
X13065821Y-7479122D02*
X13061059Y-7460074D01*
X13061059Y-7460074D02*
X13061059Y-7445788D01*
X13061059Y-7445788D02*
X13065821Y-7426741D01*
X13065821Y-7426741D02*
X13070583Y-7417217D01*
X13070583Y-7417217D02*
X13080106Y-7407693D01*
X13080106Y-7407693D02*
X13094392Y-7402931D01*
X13094392Y-7402931D02*
X13103916Y-7402931D01*
X13103916Y-7402931D02*
X13118202Y-7407693D01*
X13118202Y-7407693D02*
X13122963Y-7412455D01*
X13184868Y-7402931D02*
X13194392Y-7402931D01*
X13194392Y-7402931D02*
X13203916Y-7407693D01*
X13203916Y-7407693D02*
X13208678Y-7412455D01*
X13208678Y-7412455D02*
X13213440Y-7421979D01*
X13213440Y-7421979D02*
X13218202Y-7441027D01*
X13218202Y-7441027D02*
X13218202Y-7464836D01*
X13218202Y-7464836D02*
X13213440Y-7483884D01*
X13213440Y-7483884D02*
X13208678Y-7493407D01*
X13208678Y-7493407D02*
X13203916Y-7498169D01*
X13203916Y-7498169D02*
X13194392Y-7502931D01*
X13194392Y-7502931D02*
X13184868Y-7502931D01*
X13184868Y-7502931D02*
X13175344Y-7498169D01*
X13175344Y-7498169D02*
X13170583Y-7493407D01*
X13170583Y-7493407D02*
X13165821Y-7483884D01*
X13165821Y-7483884D02*
X13161059Y-7464836D01*
X13161059Y-7464836D02*
X13161059Y-7441027D01*
X13161059Y-7441027D02*
X13165821Y-7421979D01*
X13165821Y-7421979D02*
X13170583Y-7412455D01*
X13170583Y-7412455D02*
X13175344Y-7407693D01*
X13175344Y-7407693D02*
X13184868Y-7402931D01*
X13303916Y-7436265D02*
X13303916Y-7502931D01*
X13280106Y-7398169D02*
X13256297Y-7469598D01*
X13256297Y-7469598D02*
X13318202Y-7469598D01*
X13375344Y-7402931D02*
X13384868Y-7402931D01*
X13384868Y-7402931D02*
X13394392Y-7407693D01*
X13394392Y-7407693D02*
X13399154Y-7412455D01*
X13399154Y-7412455D02*
X13403916Y-7421979D01*
X13403916Y-7421979D02*
X13408678Y-7441027D01*
X13408678Y-7441027D02*
X13408678Y-7464836D01*
X13408678Y-7464836D02*
X13403916Y-7483884D01*
X13403916Y-7483884D02*
X13399154Y-7493407D01*
X13399154Y-7493407D02*
X13394392Y-7498169D01*
X13394392Y-7498169D02*
X13384868Y-7502931D01*
X13384868Y-7502931D02*
X13375344Y-7502931D01*
X13375344Y-7502931D02*
X13365821Y-7498169D01*
X13365821Y-7498169D02*
X13361059Y-7493407D01*
X13361059Y-7493407D02*
X13356297Y-7483884D01*
X13356297Y-7483884D02*
X13351535Y-7464836D01*
X13351535Y-7464836D02*
X13351535Y-7441027D01*
X13351535Y-7441027D02*
X13356297Y-7421979D01*
X13356297Y-7421979D02*
X13361059Y-7412455D01*
X13361059Y-7412455D02*
X13365821Y-7407693D01*
X13365821Y-7407693D02*
X13375344Y-7402931D01*
X13465821Y-7445788D02*
X13456297Y-7441027D01*
X13456297Y-7441027D02*
X13451535Y-7436265D01*
X13451535Y-7436265D02*
X13446773Y-7426741D01*
X13446773Y-7426741D02*
X13446773Y-7421979D01*
X13446773Y-7421979D02*
X13451535Y-7412455D01*
X13451535Y-7412455D02*
X13456297Y-7407693D01*
X13456297Y-7407693D02*
X13465821Y-7402931D01*
X13465821Y-7402931D02*
X13484868Y-7402931D01*
X13484868Y-7402931D02*
X13494392Y-7407693D01*
X13494392Y-7407693D02*
X13499154Y-7412455D01*
X13499154Y-7412455D02*
X13503916Y-7421979D01*
X13503916Y-7421979D02*
X13503916Y-7426741D01*
X13503916Y-7426741D02*
X13499154Y-7436265D01*
X13499154Y-7436265D02*
X13494392Y-7441027D01*
X13494392Y-7441027D02*
X13484868Y-7445788D01*
X13484868Y-7445788D02*
X13465821Y-7445788D01*
X13465821Y-7445788D02*
X13456297Y-7450550D01*
X13456297Y-7450550D02*
X13451535Y-7455312D01*
X13451535Y-7455312D02*
X13446773Y-7464836D01*
X13446773Y-7464836D02*
X13446773Y-7483884D01*
X13446773Y-7483884D02*
X13451535Y-7493407D01*
X13451535Y-7493407D02*
X13456297Y-7498169D01*
X13456297Y-7498169D02*
X13465821Y-7502931D01*
X13465821Y-7502931D02*
X13484868Y-7502931D01*
X13484868Y-7502931D02*
X13494392Y-7498169D01*
X13494392Y-7498169D02*
X13499154Y-7493407D01*
X13499154Y-7493407D02*
X13503916Y-7483884D01*
X13503916Y-7483884D02*
X13503916Y-7464836D01*
X13503916Y-7464836D02*
X13499154Y-7455312D01*
X13499154Y-7455312D02*
X13494392Y-7450550D01*
X13494392Y-7450550D02*
X13484868Y-7445788D01*
X13599154Y-7502931D02*
X13542011Y-7502931D01*
X13570583Y-7502931D02*
X13570583Y-7402931D01*
X13570583Y-7402931D02*
X13561059Y-7417217D01*
X13561059Y-7417217D02*
X13551535Y-7426741D01*
X13551535Y-7426741D02*
X13542011Y-7431503D01*
X13694392Y-7502931D02*
X13637249Y-7502931D01*
X13665821Y-7502931D02*
X13665821Y-7402931D01*
X13665821Y-7402931D02*
X13656297Y-7417217D01*
X13656297Y-7417217D02*
X13646773Y-7426741D01*
X13646773Y-7426741D02*
X13637249Y-7431503D01*
X13737249Y-7464836D02*
X13813440Y-7464836D01*
X13851535Y-7402931D02*
X13913440Y-7402931D01*
X13913440Y-7402931D02*
X13880106Y-7441027D01*
X13880106Y-7441027D02*
X13894392Y-7441027D01*
X13894392Y-7441027D02*
X13903916Y-7445788D01*
X13903916Y-7445788D02*
X13908678Y-7450550D01*
X13908678Y-7450550D02*
X13913440Y-7460074D01*
X13913440Y-7460074D02*
X13913440Y-7483884D01*
X13913440Y-7483884D02*
X13908678Y-7493407D01*
X13908678Y-7493407D02*
X13903916Y-7498169D01*
X13903916Y-7498169D02*
X13894392Y-7502931D01*
X13894392Y-7502931D02*
X13865821Y-7502931D01*
X13865821Y-7502931D02*
X13856297Y-7498169D01*
X13856297Y-7498169D02*
X13851535Y-7493407D01*
X13946773Y-7402931D02*
X14008678Y-7402931D01*
X14008678Y-7402931D02*
X13975344Y-7441027D01*
X13975344Y-7441027D02*
X13989630Y-7441027D01*
X13989630Y-7441027D02*
X13999154Y-7445788D01*
X13999154Y-7445788D02*
X14003916Y-7450550D01*
X14003916Y-7450550D02*
X14008678Y-7460074D01*
X14008678Y-7460074D02*
X14008678Y-7483884D01*
X14008678Y-7483884D02*
X14003916Y-7493407D01*
X14003916Y-7493407D02*
X13999154Y-7498169D01*
X13999154Y-7498169D02*
X13989630Y-7502931D01*
X13989630Y-7502931D02*
X13961059Y-7502931D01*
X13961059Y-7502931D02*
X13951535Y-7498169D01*
X13951535Y-7498169D02*
X13946773Y-7493407D01*
X14103916Y-7502931D02*
X14046773Y-7502931D01*
X14075344Y-7502931D02*
X14075344Y-7402931D01*
X14075344Y-7402931D02*
X14065821Y-7417217D01*
X14065821Y-7417217D02*
X14056297Y-7426741D01*
X14056297Y-7426741D02*
X14046773Y-7431503D01*
X14137249Y-7402931D02*
X14199154Y-7402931D01*
X14199154Y-7402931D02*
X14165821Y-7441027D01*
X14165821Y-7441027D02*
X14180106Y-7441027D01*
X14180106Y-7441027D02*
X14189630Y-7445788D01*
X14189630Y-7445788D02*
X14194392Y-7450550D01*
X14194392Y-7450550D02*
X14199154Y-7460074D01*
X14199154Y-7460074D02*
X14199154Y-7483884D01*
X14199154Y-7483884D02*
X14194392Y-7493407D01*
X14194392Y-7493407D02*
X14189630Y-7498169D01*
X14189630Y-7498169D02*
X14180106Y-7502931D01*
X14180106Y-7502931D02*
X14151535Y-7502931D01*
X14151535Y-7502931D02*
X14142011Y-7498169D01*
X14142011Y-7498169D02*
X14137249Y-7493407D01*
X14313440Y-7498169D02*
X14327725Y-7502931D01*
X14327725Y-7502931D02*
X14351535Y-7502931D01*
X14351535Y-7502931D02*
X14361059Y-7498169D01*
X14361059Y-7498169D02*
X14365821Y-7493407D01*
X14365821Y-7493407D02*
X14370583Y-7483884D01*
X14370583Y-7483884D02*
X14370583Y-7474360D01*
X14370583Y-7474360D02*
X14365821Y-7464836D01*
X14365821Y-7464836D02*
X14361059Y-7460074D01*
X14361059Y-7460074D02*
X14351535Y-7455312D01*
X14351535Y-7455312D02*
X14332487Y-7450550D01*
X14332487Y-7450550D02*
X14322964Y-7445788D01*
X14322964Y-7445788D02*
X14318202Y-7441027D01*
X14318202Y-7441027D02*
X14313440Y-7431503D01*
X14313440Y-7431503D02*
X14313440Y-7421979D01*
X14313440Y-7421979D02*
X14318202Y-7412455D01*
X14318202Y-7412455D02*
X14322964Y-7407693D01*
X14322964Y-7407693D02*
X14332487Y-7402931D01*
X14332487Y-7402931D02*
X14356297Y-7402931D01*
X14356297Y-7402931D02*
X14370583Y-7407693D01*
X14399154Y-7436265D02*
X14437249Y-7436265D01*
X14413440Y-7402931D02*
X14413440Y-7488646D01*
X14413440Y-7488646D02*
X14418202Y-7498169D01*
X14418202Y-7498169D02*
X14427725Y-7502931D01*
X14427725Y-7502931D02*
X14437249Y-7502931D01*
X14513440Y-7502931D02*
X14513440Y-7450550D01*
X14513440Y-7450550D02*
X14508678Y-7441027D01*
X14508678Y-7441027D02*
X14499154Y-7436265D01*
X14499154Y-7436265D02*
X14480106Y-7436265D01*
X14480106Y-7436265D02*
X14470583Y-7441027D01*
X14513440Y-7498169D02*
X14503916Y-7502931D01*
X14503916Y-7502931D02*
X14480106Y-7502931D01*
X14480106Y-7502931D02*
X14470583Y-7498169D01*
X14470583Y-7498169D02*
X14465821Y-7488646D01*
X14465821Y-7488646D02*
X14465821Y-7479122D01*
X14465821Y-7479122D02*
X14470583Y-7469598D01*
X14470583Y-7469598D02*
X14480106Y-7464836D01*
X14480106Y-7464836D02*
X14503916Y-7464836D01*
X14503916Y-7464836D02*
X14513440Y-7460074D01*
X14603916Y-7498169D02*
X14594392Y-7502931D01*
X14594392Y-7502931D02*
X14575345Y-7502931D01*
X14575345Y-7502931D02*
X14565821Y-7498169D01*
X14565821Y-7498169D02*
X14561059Y-7493407D01*
X14561059Y-7493407D02*
X14556297Y-7483884D01*
X14556297Y-7483884D02*
X14556297Y-7455312D01*
X14556297Y-7455312D02*
X14561059Y-7445788D01*
X14561059Y-7445788D02*
X14565821Y-7441027D01*
X14565821Y-7441027D02*
X14575345Y-7436265D01*
X14575345Y-7436265D02*
X14594392Y-7436265D01*
X14594392Y-7436265D02*
X14603916Y-7441027D01*
X14646773Y-7502931D02*
X14646773Y-7402931D01*
X14656297Y-7464836D02*
X14684868Y-7502931D01*
X14684868Y-7436265D02*
X14646773Y-7474360D01*
X14770583Y-7436265D02*
X14770583Y-7502931D01*
X14727726Y-7436265D02*
X14727726Y-7488646D01*
X14727726Y-7488646D02*
X14732487Y-7498169D01*
X14732487Y-7498169D02*
X14742011Y-7502931D01*
X14742011Y-7502931D02*
X14756297Y-7502931D01*
X14756297Y-7502931D02*
X14765821Y-7498169D01*
X14765821Y-7498169D02*
X14770583Y-7493407D01*
X14818202Y-7436265D02*
X14818202Y-7536265D01*
X14818202Y-7441027D02*
X14827726Y-7436265D01*
X14827726Y-7436265D02*
X14846773Y-7436265D01*
X14846773Y-7436265D02*
X14856297Y-7441027D01*
X14856297Y-7441027D02*
X14861059Y-7445788D01*
X14861059Y-7445788D02*
X14865821Y-7455312D01*
X14865821Y-7455312D02*
X14865821Y-7483884D01*
X14865821Y-7483884D02*
X14861059Y-7493407D01*
X14861059Y-7493407D02*
X14856297Y-7498169D01*
X14856297Y-7498169D02*
X14846773Y-7502931D01*
X14846773Y-7502931D02*
X14827726Y-7502931D01*
X14827726Y-7502931D02*
X14818202Y-7498169D01*
X14908678Y-7493407D02*
X14913440Y-7498169D01*
X14913440Y-7498169D02*
X14908678Y-7502931D01*
X14908678Y-7502931D02*
X14903916Y-7498169D01*
X14903916Y-7498169D02*
X14908678Y-7493407D01*
X14908678Y-7493407D02*
X14908678Y-7502931D01*
X15032487Y-7502931D02*
X15032487Y-7402931D01*
X15032487Y-7402931D02*
X15089630Y-7502931D01*
X15089630Y-7502931D02*
X15089630Y-7402931D01*
X15151535Y-7502931D02*
X15142011Y-7498169D01*
X15142011Y-7498169D02*
X15137249Y-7493407D01*
X15137249Y-7493407D02*
X15132487Y-7483884D01*
X15132487Y-7483884D02*
X15132487Y-7455312D01*
X15132487Y-7455312D02*
X15137249Y-7445788D01*
X15137249Y-7445788D02*
X15142011Y-7441027D01*
X15142011Y-7441027D02*
X15151535Y-7436265D01*
X15151535Y-7436265D02*
X15165821Y-7436265D01*
X15165821Y-7436265D02*
X15175345Y-7441027D01*
X15175345Y-7441027D02*
X15180106Y-7445788D01*
X15180106Y-7445788D02*
X15184868Y-7455312D01*
X15184868Y-7455312D02*
X15184868Y-7483884D01*
X15184868Y-7483884D02*
X15180106Y-7493407D01*
X15180106Y-7493407D02*
X15175345Y-7498169D01*
X15175345Y-7498169D02*
X15165821Y-7502931D01*
X15165821Y-7502931D02*
X15151535Y-7502931D01*
X15213440Y-7436265D02*
X15251535Y-7436265D01*
X15227726Y-7402931D02*
X15227726Y-7488646D01*
X15227726Y-7488646D02*
X15232487Y-7498169D01*
X15232487Y-7498169D02*
X15242011Y-7502931D01*
X15242011Y-7502931D02*
X15251535Y-7502931D01*
X12951535Y-7597259D02*
X12951535Y-7697259D01*
X12951535Y-7659164D02*
X12942011Y-7663926D01*
X12942011Y-7663926D02*
X12922963Y-7663926D01*
X12922963Y-7663926D02*
X12913440Y-7659164D01*
X12913440Y-7659164D02*
X12908678Y-7654402D01*
X12908678Y-7654402D02*
X12903916Y-7644878D01*
X12903916Y-7644878D02*
X12903916Y-7616307D01*
X12903916Y-7616307D02*
X12908678Y-7606783D01*
X12908678Y-7606783D02*
X12913440Y-7602021D01*
X12913440Y-7602021D02*
X12922963Y-7597259D01*
X12922963Y-7597259D02*
X12942011Y-7597259D01*
X12942011Y-7597259D02*
X12951535Y-7602021D01*
X13042011Y-7597259D02*
X13042011Y-7663926D01*
X12999154Y-7597259D02*
X12999154Y-7649640D01*
X12999154Y-7649640D02*
X13003916Y-7659164D01*
X13003916Y-7659164D02*
X13013440Y-7663926D01*
X13013440Y-7663926D02*
X13027725Y-7663926D01*
X13027725Y-7663926D02*
X13037249Y-7659164D01*
X13037249Y-7659164D02*
X13042011Y-7654402D01*
X13089630Y-7663926D02*
X13089630Y-7597259D01*
X13089630Y-7563926D02*
X13084868Y-7568688D01*
X13084868Y-7568688D02*
X13089630Y-7573450D01*
X13089630Y-7573450D02*
X13094392Y-7568688D01*
X13094392Y-7568688D02*
X13089630Y-7563926D01*
X13089630Y-7563926D02*
X13089630Y-7573450D01*
X13122963Y-7597259D02*
X13161059Y-7597259D01*
X13137249Y-7563926D02*
X13137249Y-7649640D01*
X13137249Y-7649640D02*
X13142011Y-7659164D01*
X13142011Y-7659164D02*
X13151535Y-7663926D01*
X13151535Y-7663926D02*
X13161059Y-7663926D01*
X13232487Y-7659164D02*
X13222963Y-7663926D01*
X13222963Y-7663926D02*
X13203916Y-7663926D01*
X13203916Y-7663926D02*
X13194392Y-7659164D01*
X13194392Y-7659164D02*
X13189630Y-7649640D01*
X13189630Y-7649640D02*
X13189630Y-7611545D01*
X13189630Y-7611545D02*
X13194392Y-7602021D01*
X13194392Y-7602021D02*
X13203916Y-7597259D01*
X13203916Y-7597259D02*
X13222963Y-7597259D01*
X13222963Y-7597259D02*
X13232487Y-7602021D01*
X13232487Y-7602021D02*
X13237249Y-7611545D01*
X13237249Y-7611545D02*
X13237249Y-7621069D01*
X13237249Y-7621069D02*
X13189630Y-7630592D01*
X13399154Y-7663926D02*
X13399154Y-7611545D01*
X13399154Y-7611545D02*
X13394392Y-7602021D01*
X13394392Y-7602021D02*
X13384868Y-7597259D01*
X13384868Y-7597259D02*
X13365821Y-7597259D01*
X13365821Y-7597259D02*
X13356297Y-7602021D01*
X13399154Y-7659164D02*
X13389630Y-7663926D01*
X13389630Y-7663926D02*
X13365821Y-7663926D01*
X13365821Y-7663926D02*
X13356297Y-7659164D01*
X13356297Y-7659164D02*
X13351535Y-7649640D01*
X13351535Y-7649640D02*
X13351535Y-7640116D01*
X13351535Y-7640116D02*
X13356297Y-7630592D01*
X13356297Y-7630592D02*
X13365821Y-7625830D01*
X13365821Y-7625830D02*
X13389630Y-7625830D01*
X13389630Y-7625830D02*
X13399154Y-7621069D01*
X13446773Y-7597259D02*
X13446773Y-7663926D01*
X13446773Y-7606783D02*
X13451535Y-7602021D01*
X13451535Y-7602021D02*
X13461059Y-7597259D01*
X13461059Y-7597259D02*
X13475344Y-7597259D01*
X13475344Y-7597259D02*
X13484868Y-7602021D01*
X13484868Y-7602021D02*
X13489630Y-7611545D01*
X13489630Y-7611545D02*
X13489630Y-7663926D01*
X13651535Y-7659164D02*
X13642011Y-7663926D01*
X13642011Y-7663926D02*
X13622964Y-7663926D01*
X13622964Y-7663926D02*
X13613440Y-7659164D01*
X13613440Y-7659164D02*
X13608678Y-7649640D01*
X13608678Y-7649640D02*
X13608678Y-7611545D01*
X13608678Y-7611545D02*
X13613440Y-7602021D01*
X13613440Y-7602021D02*
X13622964Y-7597259D01*
X13622964Y-7597259D02*
X13642011Y-7597259D01*
X13642011Y-7597259D02*
X13651535Y-7602021D01*
X13651535Y-7602021D02*
X13656297Y-7611545D01*
X13656297Y-7611545D02*
X13656297Y-7621069D01*
X13656297Y-7621069D02*
X13608678Y-7630592D01*
X13689630Y-7663926D02*
X13742011Y-7597259D01*
X13689630Y-7597259D02*
X13742011Y-7663926D01*
X13822964Y-7663926D02*
X13822964Y-7611545D01*
X13822964Y-7611545D02*
X13818202Y-7602021D01*
X13818202Y-7602021D02*
X13808678Y-7597259D01*
X13808678Y-7597259D02*
X13789630Y-7597259D01*
X13789630Y-7597259D02*
X13780106Y-7602021D01*
X13822964Y-7659164D02*
X13813440Y-7663926D01*
X13813440Y-7663926D02*
X13789630Y-7663926D01*
X13789630Y-7663926D02*
X13780106Y-7659164D01*
X13780106Y-7659164D02*
X13775345Y-7649640D01*
X13775345Y-7649640D02*
X13775345Y-7640116D01*
X13775345Y-7640116D02*
X13780106Y-7630592D01*
X13780106Y-7630592D02*
X13789630Y-7625830D01*
X13789630Y-7625830D02*
X13813440Y-7625830D01*
X13813440Y-7625830D02*
X13822964Y-7621069D01*
X13913440Y-7659164D02*
X13903916Y-7663926D01*
X13903916Y-7663926D02*
X13884868Y-7663926D01*
X13884868Y-7663926D02*
X13875345Y-7659164D01*
X13875345Y-7659164D02*
X13870583Y-7654402D01*
X13870583Y-7654402D02*
X13865821Y-7644878D01*
X13865821Y-7644878D02*
X13865821Y-7616307D01*
X13865821Y-7616307D02*
X13870583Y-7606783D01*
X13870583Y-7606783D02*
X13875345Y-7602021D01*
X13875345Y-7602021D02*
X13884868Y-7597259D01*
X13884868Y-7597259D02*
X13903916Y-7597259D01*
X13903916Y-7597259D02*
X13913440Y-7602021D01*
X13942011Y-7597259D02*
X13980106Y-7597259D01*
X13956297Y-7563926D02*
X13956297Y-7649640D01*
X13956297Y-7649640D02*
X13961059Y-7659164D01*
X13961059Y-7659164D02*
X13970583Y-7663926D01*
X13970583Y-7663926D02*
X13980106Y-7663926D01*
X14089630Y-7663926D02*
X14089630Y-7597259D01*
X14089630Y-7606783D02*
X14094392Y-7602021D01*
X14094392Y-7602021D02*
X14103916Y-7597259D01*
X14103916Y-7597259D02*
X14118202Y-7597259D01*
X14118202Y-7597259D02*
X14127726Y-7602021D01*
X14127726Y-7602021D02*
X14132487Y-7611545D01*
X14132487Y-7611545D02*
X14132487Y-7663926D01*
X14132487Y-7611545D02*
X14137249Y-7602021D01*
X14137249Y-7602021D02*
X14146773Y-7597259D01*
X14146773Y-7597259D02*
X14161059Y-7597259D01*
X14161059Y-7597259D02*
X14170583Y-7602021D01*
X14170583Y-7602021D02*
X14175345Y-7611545D01*
X14175345Y-7611545D02*
X14175345Y-7663926D01*
X14265821Y-7663926D02*
X14265821Y-7611545D01*
X14265821Y-7611545D02*
X14261059Y-7602021D01*
X14261059Y-7602021D02*
X14251535Y-7597259D01*
X14251535Y-7597259D02*
X14232487Y-7597259D01*
X14232487Y-7597259D02*
X14222964Y-7602021D01*
X14265821Y-7659164D02*
X14256297Y-7663926D01*
X14256297Y-7663926D02*
X14232487Y-7663926D01*
X14232487Y-7663926D02*
X14222964Y-7659164D01*
X14222964Y-7659164D02*
X14218202Y-7649640D01*
X14218202Y-7649640D02*
X14218202Y-7640116D01*
X14218202Y-7640116D02*
X14222964Y-7630592D01*
X14222964Y-7630592D02*
X14232487Y-7625830D01*
X14232487Y-7625830D02*
X14256297Y-7625830D01*
X14256297Y-7625830D02*
X14265821Y-7621069D01*
X14299154Y-7597259D02*
X14337249Y-7597259D01*
X14313440Y-7563926D02*
X14313440Y-7649640D01*
X14313440Y-7649640D02*
X14318202Y-7659164D01*
X14318202Y-7659164D02*
X14327726Y-7663926D01*
X14327726Y-7663926D02*
X14337249Y-7663926D01*
X14413440Y-7659164D02*
X14403916Y-7663926D01*
X14403916Y-7663926D02*
X14384868Y-7663926D01*
X14384868Y-7663926D02*
X14375345Y-7659164D01*
X14375345Y-7659164D02*
X14370583Y-7654402D01*
X14370583Y-7654402D02*
X14365821Y-7644878D01*
X14365821Y-7644878D02*
X14365821Y-7616307D01*
X14365821Y-7616307D02*
X14370583Y-7606783D01*
X14370583Y-7606783D02*
X14375345Y-7602021D01*
X14375345Y-7602021D02*
X14384868Y-7597259D01*
X14384868Y-7597259D02*
X14403916Y-7597259D01*
X14403916Y-7597259D02*
X14413440Y-7602021D01*
X14456297Y-7663926D02*
X14456297Y-7563926D01*
X14499154Y-7663926D02*
X14499154Y-7611545D01*
X14499154Y-7611545D02*
X14494392Y-7602021D01*
X14494392Y-7602021D02*
X14484868Y-7597259D01*
X14484868Y-7597259D02*
X14470583Y-7597259D01*
X14470583Y-7597259D02*
X14461059Y-7602021D01*
X14461059Y-7602021D02*
X14456297Y-7606783D01*
X14551535Y-7659164D02*
X14551535Y-7663926D01*
X14551535Y-7663926D02*
X14546773Y-7673450D01*
X14546773Y-7673450D02*
X14542011Y-7678211D01*
X14670583Y-7663926D02*
X14670583Y-7563926D01*
X14670583Y-7602021D02*
X14680107Y-7597259D01*
X14680107Y-7597259D02*
X14699154Y-7597259D01*
X14699154Y-7597259D02*
X14708678Y-7602021D01*
X14708678Y-7602021D02*
X14713440Y-7606783D01*
X14713440Y-7606783D02*
X14718202Y-7616307D01*
X14718202Y-7616307D02*
X14718202Y-7644878D01*
X14718202Y-7644878D02*
X14713440Y-7654402D01*
X14713440Y-7654402D02*
X14708678Y-7659164D01*
X14708678Y-7659164D02*
X14699154Y-7663926D01*
X14699154Y-7663926D02*
X14680107Y-7663926D01*
X14680107Y-7663926D02*
X14670583Y-7659164D01*
X14803916Y-7597259D02*
X14803916Y-7663926D01*
X14761059Y-7597259D02*
X14761059Y-7649640D01*
X14761059Y-7649640D02*
X14765821Y-7659164D01*
X14765821Y-7659164D02*
X14775345Y-7663926D01*
X14775345Y-7663926D02*
X14789630Y-7663926D01*
X14789630Y-7663926D02*
X14799154Y-7659164D01*
X14799154Y-7659164D02*
X14803916Y-7654402D01*
X14837249Y-7597259D02*
X14875345Y-7597259D01*
X14851535Y-7563926D02*
X14851535Y-7649640D01*
X14851535Y-7649640D02*
X14856297Y-7659164D01*
X14856297Y-7659164D02*
X14865821Y-7663926D01*
X14865821Y-7663926D02*
X14875345Y-7663926D01*
X14975345Y-7597259D02*
X14994392Y-7663926D01*
X14994392Y-7663926D02*
X15013440Y-7616307D01*
X15013440Y-7616307D02*
X15032488Y-7663926D01*
X15032488Y-7663926D02*
X15051535Y-7597259D01*
X15089630Y-7663926D02*
X15089630Y-7597259D01*
X15089630Y-7563926D02*
X15084869Y-7568688D01*
X15084869Y-7568688D02*
X15089630Y-7573450D01*
X15089630Y-7573450D02*
X15094392Y-7568688D01*
X15094392Y-7568688D02*
X15089630Y-7563926D01*
X15089630Y-7563926D02*
X15089630Y-7573450D01*
X15122964Y-7597259D02*
X15161059Y-7597259D01*
X15137249Y-7563926D02*
X15137249Y-7649640D01*
X15137249Y-7649640D02*
X15142011Y-7659164D01*
X15142011Y-7659164D02*
X15151535Y-7663926D01*
X15151535Y-7663926D02*
X15161059Y-7663926D01*
X15194392Y-7663926D02*
X15194392Y-7563926D01*
X15237249Y-7663926D02*
X15237249Y-7611545D01*
X15237249Y-7611545D02*
X15232488Y-7602021D01*
X15232488Y-7602021D02*
X15222964Y-7597259D01*
X15222964Y-7597259D02*
X15208678Y-7597259D01*
X15208678Y-7597259D02*
X15199154Y-7602021D01*
X15199154Y-7602021D02*
X15194392Y-7606783D01*
X15284869Y-7663926D02*
X15284869Y-7597259D01*
X15284869Y-7563926D02*
X15280107Y-7568688D01*
X15280107Y-7568688D02*
X15284869Y-7573450D01*
X15284869Y-7573450D02*
X15289630Y-7568688D01*
X15289630Y-7568688D02*
X15284869Y-7563926D01*
X15284869Y-7563926D02*
X15284869Y-7573450D01*
X15332488Y-7597259D02*
X15332488Y-7663926D01*
X15332488Y-7606783D02*
X15337249Y-7602021D01*
X15337249Y-7602021D02*
X15346773Y-7597259D01*
X15346773Y-7597259D02*
X15361059Y-7597259D01*
X15361059Y-7597259D02*
X15370583Y-7602021D01*
X15370583Y-7602021D02*
X15375345Y-7611545D01*
X15375345Y-7611545D02*
X15375345Y-7663926D01*
X12961059Y-7824920D02*
X12903916Y-7824920D01*
X12932487Y-7824920D02*
X12932487Y-7724920D01*
X12932487Y-7724920D02*
X12922963Y-7739206D01*
X12922963Y-7739206D02*
X12913440Y-7748730D01*
X12913440Y-7748730D02*
X12903916Y-7753492D01*
X13022963Y-7724920D02*
X13032487Y-7724920D01*
X13032487Y-7724920D02*
X13042011Y-7729682D01*
X13042011Y-7729682D02*
X13046773Y-7734444D01*
X13046773Y-7734444D02*
X13051535Y-7743968D01*
X13051535Y-7743968D02*
X13056297Y-7763015D01*
X13056297Y-7763015D02*
X13056297Y-7786825D01*
X13056297Y-7786825D02*
X13051535Y-7805872D01*
X13051535Y-7805872D02*
X13046773Y-7815396D01*
X13046773Y-7815396D02*
X13042011Y-7820158D01*
X13042011Y-7820158D02*
X13032487Y-7824920D01*
X13032487Y-7824920D02*
X13022963Y-7824920D01*
X13022963Y-7824920D02*
X13013440Y-7820158D01*
X13013440Y-7820158D02*
X13008678Y-7815396D01*
X13008678Y-7815396D02*
X13003916Y-7805872D01*
X13003916Y-7805872D02*
X12999154Y-7786825D01*
X12999154Y-7786825D02*
X12999154Y-7763015D01*
X12999154Y-7763015D02*
X13003916Y-7743968D01*
X13003916Y-7743968D02*
X13008678Y-7734444D01*
X13008678Y-7734444D02*
X13013440Y-7729682D01*
X13013440Y-7729682D02*
X13022963Y-7724920D01*
X13094392Y-7824920D02*
X13170582Y-7724920D01*
X13108678Y-7724920D02*
X13118202Y-7729682D01*
X13118202Y-7729682D02*
X13122963Y-7739206D01*
X13122963Y-7739206D02*
X13118202Y-7748730D01*
X13118202Y-7748730D02*
X13108678Y-7753492D01*
X13108678Y-7753492D02*
X13099154Y-7748730D01*
X13099154Y-7748730D02*
X13094392Y-7739206D01*
X13094392Y-7739206D02*
X13099154Y-7729682D01*
X13099154Y-7729682D02*
X13108678Y-7724920D01*
X13165821Y-7820158D02*
X13170582Y-7810634D01*
X13170582Y-7810634D02*
X13165821Y-7801111D01*
X13165821Y-7801111D02*
X13156297Y-7796349D01*
X13156297Y-7796349D02*
X13146773Y-7801111D01*
X13146773Y-7801111D02*
X13142011Y-7810634D01*
X13142011Y-7810634D02*
X13146773Y-7820158D01*
X13146773Y-7820158D02*
X13156297Y-7824920D01*
X13156297Y-7824920D02*
X13165821Y-7820158D01*
X13213440Y-7815396D02*
X13218202Y-7820158D01*
X13218202Y-7820158D02*
X13213440Y-7824920D01*
X13213440Y-7824920D02*
X13208678Y-7820158D01*
X13208678Y-7820158D02*
X13213440Y-7815396D01*
X13213440Y-7815396D02*
X13213440Y-7824920D01*
D12*
X5517976Y-5093242D02*
X5517976Y-4993242D01*
X5575119Y-5093242D02*
X5532262Y-5036099D01*
X5575119Y-4993242D02*
X5517976Y-5050385D01*
X5617976Y-5040861D02*
X5651309Y-5040861D01*
X5665595Y-5093242D02*
X5617976Y-5093242D01*
X5617976Y-5093242D02*
X5617976Y-4993242D01*
X5617976Y-4993242D02*
X5665595Y-4993242D01*
X5708452Y-5040861D02*
X5741786Y-5040861D01*
X5756071Y-5093242D02*
X5708452Y-5093242D01*
X5708452Y-5093242D02*
X5708452Y-4993242D01*
X5708452Y-4993242D02*
X5756071Y-4993242D01*
X5798929Y-5093242D02*
X5798929Y-4993242D01*
X5798929Y-4993242D02*
X5837024Y-4993242D01*
X5837024Y-4993242D02*
X5846548Y-4998004D01*
X5846548Y-4998004D02*
X5851309Y-5002766D01*
X5851309Y-5002766D02*
X5856071Y-5012290D01*
X5856071Y-5012290D02*
X5856071Y-5026575D01*
X5856071Y-5026575D02*
X5851309Y-5036099D01*
X5851309Y-5036099D02*
X5846548Y-5040861D01*
X5846548Y-5040861D02*
X5837024Y-5045623D01*
X5837024Y-5045623D02*
X5798929Y-5045623D01*
X5917976Y-4993242D02*
X5937024Y-4993242D01*
X5937024Y-4993242D02*
X5946548Y-4998004D01*
X5946548Y-4998004D02*
X5956071Y-5007528D01*
X5956071Y-5007528D02*
X5960833Y-5026575D01*
X5960833Y-5026575D02*
X5960833Y-5059909D01*
X5960833Y-5059909D02*
X5956071Y-5078956D01*
X5956071Y-5078956D02*
X5946548Y-5088480D01*
X5946548Y-5088480D02*
X5937024Y-5093242D01*
X5937024Y-5093242D02*
X5917976Y-5093242D01*
X5917976Y-5093242D02*
X5908452Y-5088480D01*
X5908452Y-5088480D02*
X5898929Y-5078956D01*
X5898929Y-5078956D02*
X5894167Y-5059909D01*
X5894167Y-5059909D02*
X5894167Y-5026575D01*
X5894167Y-5026575D02*
X5898929Y-5007528D01*
X5898929Y-5007528D02*
X5908452Y-4998004D01*
X5908452Y-4998004D02*
X5917976Y-4993242D01*
X6003690Y-4993242D02*
X6003690Y-5074194D01*
X6003690Y-5074194D02*
X6008452Y-5083718D01*
X6008452Y-5083718D02*
X6013214Y-5088480D01*
X6013214Y-5088480D02*
X6022738Y-5093242D01*
X6022738Y-5093242D02*
X6041786Y-5093242D01*
X6041786Y-5093242D02*
X6051309Y-5088480D01*
X6051309Y-5088480D02*
X6056071Y-5083718D01*
X6056071Y-5083718D02*
X6060833Y-5074194D01*
X6060833Y-5074194D02*
X6060833Y-4993242D01*
X6094167Y-4993242D02*
X6151309Y-4993242D01*
X6122738Y-5093242D02*
X6122738Y-4993242D01*
D13*
X5748690Y-4638193D02*
X5748690Y-4598193D01*
X5771547Y-4638193D02*
X5754405Y-4615336D01*
X5771547Y-4598193D02*
X5748690Y-4621050D01*
X5788690Y-4617240D02*
X5802024Y-4617240D01*
X5807738Y-4638193D02*
X5788690Y-4638193D01*
X5788690Y-4638193D02*
X5788690Y-4598193D01*
X5788690Y-4598193D02*
X5807738Y-4598193D01*
X5824881Y-4617240D02*
X5838214Y-4617240D01*
X5843928Y-4638193D02*
X5824881Y-4638193D01*
X5824881Y-4638193D02*
X5824881Y-4598193D01*
X5824881Y-4598193D02*
X5843928Y-4598193D01*
X5861071Y-4638193D02*
X5861071Y-4598193D01*
X5861071Y-4598193D02*
X5876309Y-4598193D01*
X5876309Y-4598193D02*
X5880119Y-4600098D01*
X5880119Y-4600098D02*
X5882024Y-4602002D01*
X5882024Y-4602002D02*
X5883928Y-4605812D01*
X5883928Y-4605812D02*
X5883928Y-4611526D01*
X5883928Y-4611526D02*
X5882024Y-4615336D01*
X5882024Y-4615336D02*
X5880119Y-4617240D01*
X5880119Y-4617240D02*
X5876309Y-4619145D01*
X5876309Y-4619145D02*
X5861071Y-4619145D01*
X5908690Y-4598193D02*
X5916309Y-4598193D01*
X5916309Y-4598193D02*
X5920119Y-4600098D01*
X5920119Y-4600098D02*
X5923928Y-4603907D01*
X5923928Y-4603907D02*
X5925833Y-4611526D01*
X5925833Y-4611526D02*
X5925833Y-4624859D01*
X5925833Y-4624859D02*
X5923928Y-4632478D01*
X5923928Y-4632478D02*
X5920119Y-4636288D01*
X5920119Y-4636288D02*
X5916309Y-4638193D01*
X5916309Y-4638193D02*
X5908690Y-4638193D01*
X5908690Y-4638193D02*
X5904881Y-4636288D01*
X5904881Y-4636288D02*
X5901071Y-4632478D01*
X5901071Y-4632478D02*
X5899167Y-4624859D01*
X5899167Y-4624859D02*
X5899167Y-4611526D01*
X5899167Y-4611526D02*
X5901071Y-4603907D01*
X5901071Y-4603907D02*
X5904881Y-4600098D01*
X5904881Y-4600098D02*
X5908690Y-4598193D01*
X5942976Y-4598193D02*
X5942976Y-4630574D01*
X5942976Y-4630574D02*
X5944881Y-4634383D01*
X5944881Y-4634383D02*
X5946786Y-4636288D01*
X5946786Y-4636288D02*
X5950595Y-4638193D01*
X5950595Y-4638193D02*
X5958214Y-4638193D01*
X5958214Y-4638193D02*
X5962024Y-4636288D01*
X5962024Y-4636288D02*
X5963928Y-4634383D01*
X5963928Y-4634383D02*
X5965833Y-4630574D01*
X5965833Y-4630574D02*
X5965833Y-4598193D01*
X5979167Y-4598193D02*
X6002024Y-4598193D01*
X5990595Y-4638193D02*
X5990595Y-4598193D01*
D11*
X11470000Y-7200000D02*
G75*
G02*
X10930000Y-7200000I-270000J0D01*
G01*
X10930000Y-7200000D02*
G75*
G02*
X11470000Y-7200000I270000J0D01*
G01*
X3770000Y-7200000D02*
G75*
G02*
X3230000Y-7200000I-270000J0D01*
G01*
X3230000Y-7200000D02*
G75*
G02*
X3770000Y-7200000I270000J0D01*
G01*
X3770000Y-3000000D02*
G75*
G02*
X3230000Y-3000000I-270000J0D01*
G01*
X3230000Y-3000000D02*
G75*
G02*
X3770000Y-3000000I270000J0D01*
G01*
X11470000Y-3000000D02*
G75*
G02*
X10930000Y-3000000I-270000J0D01*
G01*
X10930000Y-3000000D02*
G75*
G02*
X11470000Y-3000000I270000J0D01*
G01*
M02*
