%TF.GenerationSoftware,KiCad,Pcbnew,8.0.6+1*%
%TF.CreationDate,2025-02-24T18:19:18+00:00*%
%TF.ProjectId,gshps,67736870-732e-46b6-9963-61645f706362,C*%
%TF.SameCoordinates,Original*%
%TF.FileFunction,Legend,Top*%
%TF.FilePolarity,Positive*%
%FSLAX45Y45*%
G04 Gerber Fmt 4.5, Leading zero omitted, Abs format (unit mm)*
G04 Created by KiCad (PCBNEW 8.0.6+1) date 2025-02-24 18:19:18*
%MOMM*%
%LPD*%
G01*
G04 APERTURE LIST*
G04 Aperture macros list*
%AMRoundRect*
0 Rectangle with rounded corners*
0 $1 Rounding radius*
0 $2 $3 $4 $5 $6 $7 $8 $9 X,Y pos of 4 corners*
0 Add a 4 corners polygon primitive as box body*
4,1,4,$2,$3,$4,$5,$6,$7,$8,$9,$2,$3,0*
0 Add four circle primitives for the rounded corners*
1,1,$1+$1,$2,$3*
1,1,$1+$1,$4,$5*
1,1,$1+$1,$6,$7*
1,1,$1+$1,$8,$9*
0 Add four rect primitives between the rounded corners*
20,1,$1+$1,$2,$3,$4,$5,0*
20,1,$1+$1,$4,$5,$6,$7,0*
20,1,$1+$1,$6,$7,$8,$9,0*
20,1,$1+$1,$8,$9,$2,$3,0*%
G04 Aperture macros list end*
%ADD10C,0.100000*%
%ADD11C,0.150000*%
%ADD12C,0.300000*%
%ADD13C,0.400000*%
%TA.AperFunction,Profile*%
%ADD14C,0.100000*%
%TD*%
%ADD15C,0.200000*%
%ADD16C,0.120000*%
%ADD17RoundRect,0.140000X-0.140000X-0.170000X0.140000X-0.170000X0.140000X0.170000X-0.140000X0.170000X0*%
%ADD18R,1.700000X1.000000*%
%ADD19C,5.000000*%
%ADD20C,0.660000*%
%ADD21O,0.580000X1.000000*%
%ADD22R,0.850000X0.300000*%
%ADD23C,1.100000*%
%ADD24RoundRect,0.218750X0.218750X0.256250X-0.218750X0.256250X-0.218750X-0.256250X0.218750X-0.256250X0*%
%ADD25RoundRect,0.175000X-0.325000X0.175000X-0.325000X-0.175000X0.325000X-0.175000X0.325000X0.175000X0*%
%ADD26RoundRect,0.150000X-0.150000X0.200000X-0.150000X-0.200000X0.150000X-0.200000X0.150000X0.200000X0*%
%ADD27RoundRect,0.218750X0.256250X-0.218750X0.256250X0.218750X-0.256250X0.218750X-0.256250X-0.218750X0*%
%ADD28R,1.000000X1.700000*%
%ADD29R,2.000000X1.000000*%
%ADD30RoundRect,0.250000X0.350000X0.625000X-0.350000X0.625000X-0.350000X-0.625000X0.350000X-0.625000X0*%
%ADD31O,1.200000X1.750000*%
G04 APERTURE END LIST*
D10*
X15905782Y-17215462D02*
X15905782Y-18774098D01*
X17464418Y-18774098D01*
X17464418Y-17215462D01*
X15905782Y-17215462D01*
D11*
X15940000Y-17190000D02*
X26740000Y-17190000D01*
X26740000Y-20390000D01*
X15940000Y-20390000D01*
X15940000Y-17190000D01*
D10*
D11*
X1000000Y-1000000D02*
X26940000Y-1000000D01*
X26940000Y-20590000D01*
X1000000Y-20590000D01*
X1000000Y-1000000D01*
D10*
D11*
X1200000Y-1200000D02*
X26740000Y-1200000D01*
X26740000Y-20390000D01*
X1200000Y-20390000D01*
X1200000Y-1200000D01*
D10*
D11*
X6000000Y-1200000D02*
X6000000Y-1000000D01*
D10*
D11*
X11000000Y-1200000D02*
X11000000Y-1000000D01*
D10*
D11*
X16000000Y-1200000D02*
X16000000Y-1000000D01*
D10*
D11*
X21000000Y-1200000D02*
X21000000Y-1000000D01*
D10*
D11*
X26000000Y-1200000D02*
X26000000Y-1000000D01*
D10*
D11*
X3608916Y-1159360D02*
X3534630Y-1159360D01*
X3571773Y-1159360D02*
X3571773Y-1029360D01*
X3571773Y-1029360D02*
X3559392Y-1047932D01*
X3559392Y-1047932D02*
X3547011Y-1060313D01*
X3547011Y-1060313D02*
X3534630Y-1066503D01*
D10*
D11*
X8534630Y-1041741D02*
X8540821Y-1035551D01*
X8540821Y-1035551D02*
X8553202Y-1029360D01*
X8553202Y-1029360D02*
X8584154Y-1029360D01*
X8584154Y-1029360D02*
X8596535Y-1035551D01*
X8596535Y-1035551D02*
X8602726Y-1041741D01*
X8602726Y-1041741D02*
X8608916Y-1054122D01*
X8608916Y-1054122D02*
X8608916Y-1066503D01*
X8608916Y-1066503D02*
X8602726Y-1085075D01*
X8602726Y-1085075D02*
X8528440Y-1159360D01*
X8528440Y-1159360D02*
X8608916Y-1159360D01*
D10*
D11*
X13528440Y-1029360D02*
X13608916Y-1029360D01*
X13608916Y-1029360D02*
X13565583Y-1078884D01*
X13565583Y-1078884D02*
X13584154Y-1078884D01*
X13584154Y-1078884D02*
X13596535Y-1085075D01*
X13596535Y-1085075D02*
X13602725Y-1091265D01*
X13602725Y-1091265D02*
X13608916Y-1103646D01*
X13608916Y-1103646D02*
X13608916Y-1134599D01*
X13608916Y-1134599D02*
X13602725Y-1146980D01*
X13602725Y-1146980D02*
X13596535Y-1153170D01*
X13596535Y-1153170D02*
X13584154Y-1159360D01*
X13584154Y-1159360D02*
X13547011Y-1159360D01*
X13547011Y-1159360D02*
X13534630Y-1153170D01*
X13534630Y-1153170D02*
X13528440Y-1146980D01*
D10*
D11*
X18596535Y-1072694D02*
X18596535Y-1159360D01*
X18565583Y-1023170D02*
X18534630Y-1116027D01*
X18534630Y-1116027D02*
X18615106Y-1116027D01*
D10*
D11*
X23602725Y-1029360D02*
X23540821Y-1029360D01*
X23540821Y-1029360D02*
X23534630Y-1091265D01*
X23534630Y-1091265D02*
X23540821Y-1085075D01*
X23540821Y-1085075D02*
X23553202Y-1078884D01*
X23553202Y-1078884D02*
X23584154Y-1078884D01*
X23584154Y-1078884D02*
X23596535Y-1085075D01*
X23596535Y-1085075D02*
X23602725Y-1091265D01*
X23602725Y-1091265D02*
X23608916Y-1103646D01*
X23608916Y-1103646D02*
X23608916Y-1134599D01*
X23608916Y-1134599D02*
X23602725Y-1146980D01*
X23602725Y-1146980D02*
X23596535Y-1153170D01*
X23596535Y-1153170D02*
X23584154Y-1159360D01*
X23584154Y-1159360D02*
X23553202Y-1159360D01*
X23553202Y-1159360D02*
X23540821Y-1153170D01*
X23540821Y-1153170D02*
X23534630Y-1146980D01*
D10*
D11*
X6000000Y-20390000D02*
X6000000Y-20590000D01*
D10*
D11*
X11000000Y-20390000D02*
X11000000Y-20590000D01*
D10*
D11*
X16000000Y-20390000D02*
X16000000Y-20590000D01*
D10*
D11*
X21000000Y-20390000D02*
X21000000Y-20590000D01*
D10*
D11*
X26000000Y-20390000D02*
X26000000Y-20590000D01*
D10*
D11*
X3608916Y-20549360D02*
X3534630Y-20549360D01*
X3571773Y-20549360D02*
X3571773Y-20419360D01*
X3571773Y-20419360D02*
X3559392Y-20437932D01*
X3559392Y-20437932D02*
X3547011Y-20450313D01*
X3547011Y-20450313D02*
X3534630Y-20456503D01*
D10*
D11*
X8534630Y-20431741D02*
X8540821Y-20425551D01*
X8540821Y-20425551D02*
X8553202Y-20419360D01*
X8553202Y-20419360D02*
X8584154Y-20419360D01*
X8584154Y-20419360D02*
X8596535Y-20425551D01*
X8596535Y-20425551D02*
X8602726Y-20431741D01*
X8602726Y-20431741D02*
X8608916Y-20444122D01*
X8608916Y-20444122D02*
X8608916Y-20456503D01*
X8608916Y-20456503D02*
X8602726Y-20475075D01*
X8602726Y-20475075D02*
X8528440Y-20549360D01*
X8528440Y-20549360D02*
X8608916Y-20549360D01*
D10*
D11*
X13528440Y-20419360D02*
X13608916Y-20419360D01*
X13608916Y-20419360D02*
X13565583Y-20468884D01*
X13565583Y-20468884D02*
X13584154Y-20468884D01*
X13584154Y-20468884D02*
X13596535Y-20475075D01*
X13596535Y-20475075D02*
X13602725Y-20481265D01*
X13602725Y-20481265D02*
X13608916Y-20493646D01*
X13608916Y-20493646D02*
X13608916Y-20524599D01*
X13608916Y-20524599D02*
X13602725Y-20536980D01*
X13602725Y-20536980D02*
X13596535Y-20543170D01*
X13596535Y-20543170D02*
X13584154Y-20549360D01*
X13584154Y-20549360D02*
X13547011Y-20549360D01*
X13547011Y-20549360D02*
X13534630Y-20543170D01*
X13534630Y-20543170D02*
X13528440Y-20536980D01*
D10*
D11*
X18596535Y-20462694D02*
X18596535Y-20549360D01*
X18565583Y-20413170D02*
X18534630Y-20506027D01*
X18534630Y-20506027D02*
X18615106Y-20506027D01*
D10*
D11*
X23602725Y-20419360D02*
X23540821Y-20419360D01*
X23540821Y-20419360D02*
X23534630Y-20481265D01*
X23534630Y-20481265D02*
X23540821Y-20475075D01*
X23540821Y-20475075D02*
X23553202Y-20468884D01*
X23553202Y-20468884D02*
X23584154Y-20468884D01*
X23584154Y-20468884D02*
X23596535Y-20475075D01*
X23596535Y-20475075D02*
X23602725Y-20481265D01*
X23602725Y-20481265D02*
X23608916Y-20493646D01*
X23608916Y-20493646D02*
X23608916Y-20524599D01*
X23608916Y-20524599D02*
X23602725Y-20536980D01*
X23602725Y-20536980D02*
X23596535Y-20543170D01*
X23596535Y-20543170D02*
X23584154Y-20549360D01*
X23584154Y-20549360D02*
X23553202Y-20549360D01*
X23553202Y-20549360D02*
X23540821Y-20543170D01*
X23540821Y-20543170D02*
X23534630Y-20536980D01*
D10*
D11*
X1000000Y-6000000D02*
X1200000Y-6000000D01*
D10*
D11*
X1000000Y-11000000D02*
X1200000Y-11000000D01*
D10*
D11*
X1000000Y-16000000D02*
X1200000Y-16000000D01*
D10*
D11*
X1069048Y-3522218D02*
X1130952Y-3522218D01*
X1056667Y-3559360D02*
X1100000Y-3429360D01*
X1100000Y-3429360D02*
X1143333Y-3559360D01*
D10*
D11*
X1109286Y-8491265D02*
X1127857Y-8497456D01*
X1127857Y-8497456D02*
X1134048Y-8503646D01*
X1134048Y-8503646D02*
X1140238Y-8516027D01*
X1140238Y-8516027D02*
X1140238Y-8534599D01*
X1140238Y-8534599D02*
X1134048Y-8546980D01*
X1134048Y-8546980D02*
X1127857Y-8553170D01*
X1127857Y-8553170D02*
X1115476Y-8559360D01*
X1115476Y-8559360D02*
X1065952Y-8559360D01*
X1065952Y-8559360D02*
X1065952Y-8429360D01*
X1065952Y-8429360D02*
X1109286Y-8429360D01*
X1109286Y-8429360D02*
X1121667Y-8435551D01*
X1121667Y-8435551D02*
X1127857Y-8441741D01*
X1127857Y-8441741D02*
X1134048Y-8454122D01*
X1134048Y-8454122D02*
X1134048Y-8466503D01*
X1134048Y-8466503D02*
X1127857Y-8478884D01*
X1127857Y-8478884D02*
X1121667Y-8485075D01*
X1121667Y-8485075D02*
X1109286Y-8491265D01*
X1109286Y-8491265D02*
X1065952Y-8491265D01*
D10*
D11*
X1140238Y-13546979D02*
X1134048Y-13553170D01*
X1134048Y-13553170D02*
X1115476Y-13559360D01*
X1115476Y-13559360D02*
X1103095Y-13559360D01*
X1103095Y-13559360D02*
X1084524Y-13553170D01*
X1084524Y-13553170D02*
X1072143Y-13540789D01*
X1072143Y-13540789D02*
X1065952Y-13528408D01*
X1065952Y-13528408D02*
X1059762Y-13503646D01*
X1059762Y-13503646D02*
X1059762Y-13485075D01*
X1059762Y-13485075D02*
X1065952Y-13460313D01*
X1065952Y-13460313D02*
X1072143Y-13447932D01*
X1072143Y-13447932D02*
X1084524Y-13435551D01*
X1084524Y-13435551D02*
X1103095Y-13429360D01*
X1103095Y-13429360D02*
X1115476Y-13429360D01*
X1115476Y-13429360D02*
X1134048Y-13435551D01*
X1134048Y-13435551D02*
X1140238Y-13441741D01*
D10*
D11*
X1065952Y-18559360D02*
X1065952Y-18429360D01*
X1065952Y-18429360D02*
X1096905Y-18429360D01*
X1096905Y-18429360D02*
X1115476Y-18435551D01*
X1115476Y-18435551D02*
X1127857Y-18447932D01*
X1127857Y-18447932D02*
X1134048Y-18460313D01*
X1134048Y-18460313D02*
X1140238Y-18485075D01*
X1140238Y-18485075D02*
X1140238Y-18503646D01*
X1140238Y-18503646D02*
X1134048Y-18528408D01*
X1134048Y-18528408D02*
X1127857Y-18540789D01*
X1127857Y-18540789D02*
X1115476Y-18553170D01*
X1115476Y-18553170D02*
X1096905Y-18559360D01*
X1096905Y-18559360D02*
X1065952Y-18559360D01*
D10*
D11*
X26940000Y-6000000D02*
X26740000Y-6000000D01*
D10*
D11*
X26940000Y-11000000D02*
X26740000Y-11000000D01*
D10*
D11*
X26940000Y-16000000D02*
X26740000Y-16000000D01*
D10*
D11*
X26809048Y-3522218D02*
X26870952Y-3522218D01*
X26796667Y-3559360D02*
X26840000Y-3429360D01*
X26840000Y-3429360D02*
X26883333Y-3559360D01*
D10*
D11*
X26849286Y-8491265D02*
X26867857Y-8497456D01*
X26867857Y-8497456D02*
X26874048Y-8503646D01*
X26874048Y-8503646D02*
X26880238Y-8516027D01*
X26880238Y-8516027D02*
X26880238Y-8534599D01*
X26880238Y-8534599D02*
X26874048Y-8546980D01*
X26874048Y-8546980D02*
X26867857Y-8553170D01*
X26867857Y-8553170D02*
X26855476Y-8559360D01*
X26855476Y-8559360D02*
X26805952Y-8559360D01*
X26805952Y-8559360D02*
X26805952Y-8429360D01*
X26805952Y-8429360D02*
X26849286Y-8429360D01*
X26849286Y-8429360D02*
X26861667Y-8435551D01*
X26861667Y-8435551D02*
X26867857Y-8441741D01*
X26867857Y-8441741D02*
X26874048Y-8454122D01*
X26874048Y-8454122D02*
X26874048Y-8466503D01*
X26874048Y-8466503D02*
X26867857Y-8478884D01*
X26867857Y-8478884D02*
X26861667Y-8485075D01*
X26861667Y-8485075D02*
X26849286Y-8491265D01*
X26849286Y-8491265D02*
X26805952Y-8491265D01*
D10*
D11*
X26880238Y-13546979D02*
X26874048Y-13553170D01*
X26874048Y-13553170D02*
X26855476Y-13559360D01*
X26855476Y-13559360D02*
X26843095Y-13559360D01*
X26843095Y-13559360D02*
X26824524Y-13553170D01*
X26824524Y-13553170D02*
X26812143Y-13540789D01*
X26812143Y-13540789D02*
X26805952Y-13528408D01*
X26805952Y-13528408D02*
X26799762Y-13503646D01*
X26799762Y-13503646D02*
X26799762Y-13485075D01*
X26799762Y-13485075D02*
X26805952Y-13460313D01*
X26805952Y-13460313D02*
X26812143Y-13447932D01*
X26812143Y-13447932D02*
X26824524Y-13435551D01*
X26824524Y-13435551D02*
X26843095Y-13429360D01*
X26843095Y-13429360D02*
X26855476Y-13429360D01*
X26855476Y-13429360D02*
X26874048Y-13435551D01*
X26874048Y-13435551D02*
X26880238Y-13441741D01*
D10*
D11*
X26805952Y-18559360D02*
X26805952Y-18429360D01*
X26805952Y-18429360D02*
X26836905Y-18429360D01*
X26836905Y-18429360D02*
X26855476Y-18435551D01*
X26855476Y-18435551D02*
X26867857Y-18447932D01*
X26867857Y-18447932D02*
X26874048Y-18460313D01*
X26874048Y-18460313D02*
X26880238Y-18485075D01*
X26880238Y-18485075D02*
X26880238Y-18503646D01*
X26880238Y-18503646D02*
X26874048Y-18528408D01*
X26874048Y-18528408D02*
X26867857Y-18540789D01*
X26867857Y-18540789D02*
X26855476Y-18553170D01*
X26855476Y-18553170D02*
X26836905Y-18559360D01*
X26836905Y-18559360D02*
X26805952Y-18559360D01*
D10*
D11*
X18285583Y-19968613D02*
X18285583Y-19818613D01*
X18285583Y-19818613D02*
X18321297Y-19818613D01*
X18321297Y-19818613D02*
X18342726Y-19825756D01*
X18342726Y-19825756D02*
X18357011Y-19840041D01*
X18357011Y-19840041D02*
X18364154Y-19854327D01*
X18364154Y-19854327D02*
X18371297Y-19882899D01*
X18371297Y-19882899D02*
X18371297Y-19904327D01*
X18371297Y-19904327D02*
X18364154Y-19932899D01*
X18364154Y-19932899D02*
X18357011Y-19947184D01*
X18357011Y-19947184D02*
X18342726Y-19961470D01*
X18342726Y-19961470D02*
X18321297Y-19968613D01*
X18321297Y-19968613D02*
X18285583Y-19968613D01*
X18499868Y-19968613D02*
X18499868Y-19890041D01*
X18499868Y-19890041D02*
X18492726Y-19875756D01*
X18492726Y-19875756D02*
X18478440Y-19868613D01*
X18478440Y-19868613D02*
X18449868Y-19868613D01*
X18449868Y-19868613D02*
X18435583Y-19875756D01*
X18499868Y-19961470D02*
X18485583Y-19968613D01*
X18485583Y-19968613D02*
X18449868Y-19968613D01*
X18449868Y-19968613D02*
X18435583Y-19961470D01*
X18435583Y-19961470D02*
X18428440Y-19947184D01*
X18428440Y-19947184D02*
X18428440Y-19932899D01*
X18428440Y-19932899D02*
X18435583Y-19918613D01*
X18435583Y-19918613D02*
X18449868Y-19911470D01*
X18449868Y-19911470D02*
X18485583Y-19911470D01*
X18485583Y-19911470D02*
X18499868Y-19904327D01*
X18549868Y-19868613D02*
X18607011Y-19868613D01*
X18571297Y-19818613D02*
X18571297Y-19947184D01*
X18571297Y-19947184D02*
X18578440Y-19961470D01*
X18578440Y-19961470D02*
X18592726Y-19968613D01*
X18592726Y-19968613D02*
X18607011Y-19968613D01*
X18714154Y-19961470D02*
X18699868Y-19968613D01*
X18699868Y-19968613D02*
X18671297Y-19968613D01*
X18671297Y-19968613D02*
X18657011Y-19961470D01*
X18657011Y-19961470D02*
X18649868Y-19947184D01*
X18649868Y-19947184D02*
X18649868Y-19890041D01*
X18649868Y-19890041D02*
X18657011Y-19875756D01*
X18657011Y-19875756D02*
X18671297Y-19868613D01*
X18671297Y-19868613D02*
X18699868Y-19868613D01*
X18699868Y-19868613D02*
X18714154Y-19875756D01*
X18714154Y-19875756D02*
X18721297Y-19890041D01*
X18721297Y-19890041D02*
X18721297Y-19904327D01*
X18721297Y-19904327D02*
X18649868Y-19918613D01*
X18785583Y-19954327D02*
X18792726Y-19961470D01*
X18792726Y-19961470D02*
X18785583Y-19968613D01*
X18785583Y-19968613D02*
X18778440Y-19961470D01*
X18778440Y-19961470D02*
X18785583Y-19954327D01*
X18785583Y-19954327D02*
X18785583Y-19968613D01*
X18785583Y-19875756D02*
X18792726Y-19882899D01*
X18792726Y-19882899D02*
X18785583Y-19890041D01*
X18785583Y-19890041D02*
X18778440Y-19882899D01*
X18778440Y-19882899D02*
X18785583Y-19875756D01*
X18785583Y-19875756D02*
X18785583Y-19890041D01*
X18964154Y-19832899D02*
X18971297Y-19825756D01*
X18971297Y-19825756D02*
X18985583Y-19818613D01*
X18985583Y-19818613D02*
X19021297Y-19818613D01*
X19021297Y-19818613D02*
X19035583Y-19825756D01*
X19035583Y-19825756D02*
X19042726Y-19832899D01*
X19042726Y-19832899D02*
X19049868Y-19847184D01*
X19049868Y-19847184D02*
X19049868Y-19861470D01*
X19049868Y-19861470D02*
X19042726Y-19882899D01*
X19042726Y-19882899D02*
X18957011Y-19968613D01*
X18957011Y-19968613D02*
X19049868Y-19968613D01*
X19142726Y-19818613D02*
X19157011Y-19818613D01*
X19157011Y-19818613D02*
X19171297Y-19825756D01*
X19171297Y-19825756D02*
X19178440Y-19832899D01*
X19178440Y-19832899D02*
X19185583Y-19847184D01*
X19185583Y-19847184D02*
X19192726Y-19875756D01*
X19192726Y-19875756D02*
X19192726Y-19911470D01*
X19192726Y-19911470D02*
X19185583Y-19940041D01*
X19185583Y-19940041D02*
X19178440Y-19954327D01*
X19178440Y-19954327D02*
X19171297Y-19961470D01*
X19171297Y-19961470D02*
X19157011Y-19968613D01*
X19157011Y-19968613D02*
X19142726Y-19968613D01*
X19142726Y-19968613D02*
X19128440Y-19961470D01*
X19128440Y-19961470D02*
X19121297Y-19954327D01*
X19121297Y-19954327D02*
X19114154Y-19940041D01*
X19114154Y-19940041D02*
X19107011Y-19911470D01*
X19107011Y-19911470D02*
X19107011Y-19875756D01*
X19107011Y-19875756D02*
X19114154Y-19847184D01*
X19114154Y-19847184D02*
X19121297Y-19832899D01*
X19121297Y-19832899D02*
X19128440Y-19825756D01*
X19128440Y-19825756D02*
X19142726Y-19818613D01*
X19249868Y-19832899D02*
X19257011Y-19825756D01*
X19257011Y-19825756D02*
X19271297Y-19818613D01*
X19271297Y-19818613D02*
X19307011Y-19818613D01*
X19307011Y-19818613D02*
X19321297Y-19825756D01*
X19321297Y-19825756D02*
X19328440Y-19832899D01*
X19328440Y-19832899D02*
X19335583Y-19847184D01*
X19335583Y-19847184D02*
X19335583Y-19861470D01*
X19335583Y-19861470D02*
X19328440Y-19882899D01*
X19328440Y-19882899D02*
X19242725Y-19968613D01*
X19242725Y-19968613D02*
X19335583Y-19968613D01*
X19471297Y-19818613D02*
X19399868Y-19818613D01*
X19399868Y-19818613D02*
X19392725Y-19890041D01*
X19392725Y-19890041D02*
X19399868Y-19882899D01*
X19399868Y-19882899D02*
X19414154Y-19875756D01*
X19414154Y-19875756D02*
X19449868Y-19875756D01*
X19449868Y-19875756D02*
X19464154Y-19882899D01*
X19464154Y-19882899D02*
X19471297Y-19890041D01*
X19471297Y-19890041D02*
X19478440Y-19904327D01*
X19478440Y-19904327D02*
X19478440Y-19940041D01*
X19478440Y-19940041D02*
X19471297Y-19954327D01*
X19471297Y-19954327D02*
X19464154Y-19961470D01*
X19464154Y-19961470D02*
X19449868Y-19968613D01*
X19449868Y-19968613D02*
X19414154Y-19968613D01*
X19414154Y-19968613D02*
X19399868Y-19961470D01*
X19399868Y-19961470D02*
X19392725Y-19954327D01*
X19542725Y-19911470D02*
X19657011Y-19911470D01*
X19757011Y-19818613D02*
X19771297Y-19818613D01*
X19771297Y-19818613D02*
X19785583Y-19825756D01*
X19785583Y-19825756D02*
X19792725Y-19832899D01*
X19792725Y-19832899D02*
X19799868Y-19847184D01*
X19799868Y-19847184D02*
X19807011Y-19875756D01*
X19807011Y-19875756D02*
X19807011Y-19911470D01*
X19807011Y-19911470D02*
X19799868Y-19940041D01*
X19799868Y-19940041D02*
X19792725Y-19954327D01*
X19792725Y-19954327D02*
X19785583Y-19961470D01*
X19785583Y-19961470D02*
X19771297Y-19968613D01*
X19771297Y-19968613D02*
X19757011Y-19968613D01*
X19757011Y-19968613D02*
X19742725Y-19961470D01*
X19742725Y-19961470D02*
X19735583Y-19954327D01*
X19735583Y-19954327D02*
X19728440Y-19940041D01*
X19728440Y-19940041D02*
X19721297Y-19911470D01*
X19721297Y-19911470D02*
X19721297Y-19875756D01*
X19721297Y-19875756D02*
X19728440Y-19847184D01*
X19728440Y-19847184D02*
X19735583Y-19832899D01*
X19735583Y-19832899D02*
X19742725Y-19825756D01*
X19742725Y-19825756D02*
X19757011Y-19818613D01*
X19864154Y-19832899D02*
X19871297Y-19825756D01*
X19871297Y-19825756D02*
X19885583Y-19818613D01*
X19885583Y-19818613D02*
X19921297Y-19818613D01*
X19921297Y-19818613D02*
X19935583Y-19825756D01*
X19935583Y-19825756D02*
X19942725Y-19832899D01*
X19942725Y-19832899D02*
X19949868Y-19847184D01*
X19949868Y-19847184D02*
X19949868Y-19861470D01*
X19949868Y-19861470D02*
X19942725Y-19882899D01*
X19942725Y-19882899D02*
X19857011Y-19968613D01*
X19857011Y-19968613D02*
X19949868Y-19968613D01*
X20014154Y-19911470D02*
X20128440Y-19911470D01*
X20278440Y-19968613D02*
X20192725Y-19968613D01*
X20235582Y-19968613D02*
X20235582Y-19818613D01*
X20235582Y-19818613D02*
X20221297Y-19840041D01*
X20221297Y-19840041D02*
X20207011Y-19854327D01*
X20207011Y-19854327D02*
X20192725Y-19861470D01*
X20414154Y-19818613D02*
X20342725Y-19818613D01*
X20342725Y-19818613D02*
X20335582Y-19890041D01*
X20335582Y-19890041D02*
X20342725Y-19882899D01*
X20342725Y-19882899D02*
X20357011Y-19875756D01*
X20357011Y-19875756D02*
X20392725Y-19875756D01*
X20392725Y-19875756D02*
X20407011Y-19882899D01*
X20407011Y-19882899D02*
X20414154Y-19890041D01*
X20414154Y-19890041D02*
X20421297Y-19904327D01*
X20421297Y-19904327D02*
X20421297Y-19940041D01*
X20421297Y-19940041D02*
X20414154Y-19954327D01*
X20414154Y-19954327D02*
X20407011Y-19961470D01*
X20407011Y-19961470D02*
X20392725Y-19968613D01*
X20392725Y-19968613D02*
X20357011Y-19968613D01*
X20357011Y-19968613D02*
X20342725Y-19961470D01*
X20342725Y-19961470D02*
X20335582Y-19954327D01*
D10*
D11*
X15940000Y-20040000D02*
X26740000Y-20040000D01*
D10*
D11*
X16078440Y-20241470D02*
X16099868Y-20248613D01*
X16099868Y-20248613D02*
X16135583Y-20248613D01*
X16135583Y-20248613D02*
X16149868Y-20241470D01*
X16149868Y-20241470D02*
X16157011Y-20234327D01*
X16157011Y-20234327D02*
X16164154Y-20220041D01*
X16164154Y-20220041D02*
X16164154Y-20205756D01*
X16164154Y-20205756D02*
X16157011Y-20191470D01*
X16157011Y-20191470D02*
X16149868Y-20184327D01*
X16149868Y-20184327D02*
X16135583Y-20177184D01*
X16135583Y-20177184D02*
X16107011Y-20170041D01*
X16107011Y-20170041D02*
X16092725Y-20162899D01*
X16092725Y-20162899D02*
X16085583Y-20155756D01*
X16085583Y-20155756D02*
X16078440Y-20141470D01*
X16078440Y-20141470D02*
X16078440Y-20127184D01*
X16078440Y-20127184D02*
X16085583Y-20112899D01*
X16085583Y-20112899D02*
X16092725Y-20105756D01*
X16092725Y-20105756D02*
X16107011Y-20098613D01*
X16107011Y-20098613D02*
X16142725Y-20098613D01*
X16142725Y-20098613D02*
X16164154Y-20105756D01*
X16121297Y-20077184D02*
X16121297Y-20270041D01*
X16271297Y-20305756D02*
X16264154Y-20305756D01*
X16264154Y-20305756D02*
X16249868Y-20298613D01*
X16249868Y-20298613D02*
X16242725Y-20284327D01*
X16242725Y-20284327D02*
X16242725Y-20212899D01*
X16242725Y-20212899D02*
X16235583Y-20198613D01*
X16235583Y-20198613D02*
X16221297Y-20191470D01*
X16221297Y-20191470D02*
X16235583Y-20184327D01*
X16235583Y-20184327D02*
X16242725Y-20170041D01*
X16242725Y-20170041D02*
X16242725Y-20098613D01*
X16242725Y-20098613D02*
X16249868Y-20084327D01*
X16249868Y-20084327D02*
X16264154Y-20077184D01*
X16264154Y-20077184D02*
X16271297Y-20077184D01*
X16328440Y-20248613D02*
X16328440Y-20098613D01*
X16414154Y-20248613D02*
X16349868Y-20162899D01*
X16414154Y-20098613D02*
X16328440Y-20184327D01*
X16478440Y-20248613D02*
X16478440Y-20098613D01*
X16635583Y-20234327D02*
X16628440Y-20241470D01*
X16628440Y-20241470D02*
X16607011Y-20248613D01*
X16607011Y-20248613D02*
X16592725Y-20248613D01*
X16592725Y-20248613D02*
X16571297Y-20241470D01*
X16571297Y-20241470D02*
X16557011Y-20227184D01*
X16557011Y-20227184D02*
X16549868Y-20212899D01*
X16549868Y-20212899D02*
X16542725Y-20184327D01*
X16542725Y-20184327D02*
X16542725Y-20162899D01*
X16542725Y-20162899D02*
X16549868Y-20134327D01*
X16549868Y-20134327D02*
X16557011Y-20120041D01*
X16557011Y-20120041D02*
X16571297Y-20105756D01*
X16571297Y-20105756D02*
X16592725Y-20098613D01*
X16592725Y-20098613D02*
X16607011Y-20098613D01*
X16607011Y-20098613D02*
X16628440Y-20105756D01*
X16628440Y-20105756D02*
X16635583Y-20112899D01*
X16692725Y-20205756D02*
X16764154Y-20205756D01*
X16678440Y-20248613D02*
X16728440Y-20098613D01*
X16728440Y-20098613D02*
X16778440Y-20248613D01*
X16828440Y-20248613D02*
X16828440Y-20098613D01*
X16828440Y-20098613D02*
X16864154Y-20098613D01*
X16864154Y-20098613D02*
X16885583Y-20105756D01*
X16885583Y-20105756D02*
X16899868Y-20120041D01*
X16899868Y-20120041D02*
X16907011Y-20134327D01*
X16907011Y-20134327D02*
X16914154Y-20162899D01*
X16914154Y-20162899D02*
X16914154Y-20184327D01*
X16914154Y-20184327D02*
X16907011Y-20212899D01*
X16907011Y-20212899D02*
X16899868Y-20227184D01*
X16899868Y-20227184D02*
X16885583Y-20241470D01*
X16885583Y-20241470D02*
X16864154Y-20248613D01*
X16864154Y-20248613D02*
X16828440Y-20248613D01*
X16942726Y-20262899D02*
X17057011Y-20262899D01*
X17071297Y-20098613D02*
X17121297Y-20248613D01*
X17121297Y-20248613D02*
X17171297Y-20098613D01*
X17221297Y-20170041D02*
X17271297Y-20170041D01*
X17292725Y-20248613D02*
X17221297Y-20248613D01*
X17221297Y-20248613D02*
X17221297Y-20098613D01*
X17221297Y-20098613D02*
X17292725Y-20098613D01*
X17442725Y-20248613D02*
X17392725Y-20177184D01*
X17357011Y-20248613D02*
X17357011Y-20098613D01*
X17357011Y-20098613D02*
X17414154Y-20098613D01*
X17414154Y-20098613D02*
X17428440Y-20105756D01*
X17428440Y-20105756D02*
X17435583Y-20112899D01*
X17435583Y-20112899D02*
X17442725Y-20127184D01*
X17442725Y-20127184D02*
X17442725Y-20148613D01*
X17442725Y-20148613D02*
X17435583Y-20162899D01*
X17435583Y-20162899D02*
X17428440Y-20170041D01*
X17428440Y-20170041D02*
X17414154Y-20177184D01*
X17414154Y-20177184D02*
X17357011Y-20177184D01*
X17499868Y-20241470D02*
X17521297Y-20248613D01*
X17521297Y-20248613D02*
X17557011Y-20248613D01*
X17557011Y-20248613D02*
X17571297Y-20241470D01*
X17571297Y-20241470D02*
X17578440Y-20234327D01*
X17578440Y-20234327D02*
X17585583Y-20220041D01*
X17585583Y-20220041D02*
X17585583Y-20205756D01*
X17585583Y-20205756D02*
X17578440Y-20191470D01*
X17578440Y-20191470D02*
X17571297Y-20184327D01*
X17571297Y-20184327D02*
X17557011Y-20177184D01*
X17557011Y-20177184D02*
X17528440Y-20170041D01*
X17528440Y-20170041D02*
X17514154Y-20162899D01*
X17514154Y-20162899D02*
X17507011Y-20155756D01*
X17507011Y-20155756D02*
X17499868Y-20141470D01*
X17499868Y-20141470D02*
X17499868Y-20127184D01*
X17499868Y-20127184D02*
X17507011Y-20112899D01*
X17507011Y-20112899D02*
X17514154Y-20105756D01*
X17514154Y-20105756D02*
X17528440Y-20098613D01*
X17528440Y-20098613D02*
X17564154Y-20098613D01*
X17564154Y-20098613D02*
X17585583Y-20105756D01*
X17649868Y-20248613D02*
X17649868Y-20098613D01*
X17749868Y-20098613D02*
X17778440Y-20098613D01*
X17778440Y-20098613D02*
X17792725Y-20105756D01*
X17792725Y-20105756D02*
X17807011Y-20120041D01*
X17807011Y-20120041D02*
X17814154Y-20148613D01*
X17814154Y-20148613D02*
X17814154Y-20198613D01*
X17814154Y-20198613D02*
X17807011Y-20227184D01*
X17807011Y-20227184D02*
X17792725Y-20241470D01*
X17792725Y-20241470D02*
X17778440Y-20248613D01*
X17778440Y-20248613D02*
X17749868Y-20248613D01*
X17749868Y-20248613D02*
X17735583Y-20241470D01*
X17735583Y-20241470D02*
X17721297Y-20227184D01*
X17721297Y-20227184D02*
X17714154Y-20198613D01*
X17714154Y-20198613D02*
X17714154Y-20148613D01*
X17714154Y-20148613D02*
X17721297Y-20120041D01*
X17721297Y-20120041D02*
X17735583Y-20105756D01*
X17735583Y-20105756D02*
X17749868Y-20098613D01*
X17878440Y-20248613D02*
X17878440Y-20098613D01*
X17878440Y-20098613D02*
X17964154Y-20248613D01*
X17964154Y-20248613D02*
X17964154Y-20098613D01*
X18021297Y-20305756D02*
X18028440Y-20305756D01*
X18028440Y-20305756D02*
X18042726Y-20298613D01*
X18042726Y-20298613D02*
X18049868Y-20284327D01*
X18049868Y-20284327D02*
X18049868Y-20212899D01*
X18049868Y-20212899D02*
X18057011Y-20198613D01*
X18057011Y-20198613D02*
X18071297Y-20191470D01*
X18071297Y-20191470D02*
X18057011Y-20184327D01*
X18057011Y-20184327D02*
X18049868Y-20170041D01*
X18049868Y-20170041D02*
X18049868Y-20098613D01*
X18049868Y-20098613D02*
X18042726Y-20084327D01*
X18042726Y-20084327D02*
X18028440Y-20077184D01*
X18028440Y-20077184D02*
X18021297Y-20077184D01*
D10*
D11*
X15940000Y-19740000D02*
X26740000Y-19740000D01*
D10*
D12*
X24681165Y-19967833D02*
X24631165Y-19896404D01*
X24595451Y-19967833D02*
X24595451Y-19817833D01*
X24595451Y-19817833D02*
X24652594Y-19817833D01*
X24652594Y-19817833D02*
X24666880Y-19824976D01*
X24666880Y-19824976D02*
X24674022Y-19832119D01*
X24674022Y-19832119D02*
X24681165Y-19846404D01*
X24681165Y-19846404D02*
X24681165Y-19867833D01*
X24681165Y-19867833D02*
X24674022Y-19882119D01*
X24674022Y-19882119D02*
X24666880Y-19889261D01*
X24666880Y-19889261D02*
X24652594Y-19896404D01*
X24652594Y-19896404D02*
X24595451Y-19896404D01*
X24802594Y-19960690D02*
X24788308Y-19967833D01*
X24788308Y-19967833D02*
X24759737Y-19967833D01*
X24759737Y-19967833D02*
X24745451Y-19960690D01*
X24745451Y-19960690D02*
X24738308Y-19946404D01*
X24738308Y-19946404D02*
X24738308Y-19889261D01*
X24738308Y-19889261D02*
X24745451Y-19874976D01*
X24745451Y-19874976D02*
X24759737Y-19867833D01*
X24759737Y-19867833D02*
X24788308Y-19867833D01*
X24788308Y-19867833D02*
X24802594Y-19874976D01*
X24802594Y-19874976D02*
X24809737Y-19889261D01*
X24809737Y-19889261D02*
X24809737Y-19903547D01*
X24809737Y-19903547D02*
X24738308Y-19917833D01*
X24859737Y-19867833D02*
X24895451Y-19967833D01*
X24895451Y-19967833D02*
X24931165Y-19867833D01*
X24988308Y-19953547D02*
X24995451Y-19960690D01*
X24995451Y-19960690D02*
X24988308Y-19967833D01*
X24988308Y-19967833D02*
X24981165Y-19960690D01*
X24981165Y-19960690D02*
X24988308Y-19953547D01*
X24988308Y-19953547D02*
X24988308Y-19967833D01*
X24988308Y-19874976D02*
X24995451Y-19882119D01*
X24995451Y-19882119D02*
X24988308Y-19889261D01*
X24988308Y-19889261D02*
X24981165Y-19882119D01*
X24981165Y-19882119D02*
X24988308Y-19874976D01*
X24988308Y-19874976D02*
X24988308Y-19889261D01*
X25259737Y-19953547D02*
X25252594Y-19960690D01*
X25252594Y-19960690D02*
X25231165Y-19967833D01*
X25231165Y-19967833D02*
X25216880Y-19967833D01*
X25216880Y-19967833D02*
X25195451Y-19960690D01*
X25195451Y-19960690D02*
X25181165Y-19946404D01*
X25181165Y-19946404D02*
X25174022Y-19932119D01*
X25174022Y-19932119D02*
X25166880Y-19903547D01*
X25166880Y-19903547D02*
X25166880Y-19882119D01*
X25166880Y-19882119D02*
X25174022Y-19853547D01*
X25174022Y-19853547D02*
X25181165Y-19839261D01*
X25181165Y-19839261D02*
X25195451Y-19824976D01*
X25195451Y-19824976D02*
X25216880Y-19817833D01*
X25216880Y-19817833D02*
X25231165Y-19817833D01*
X25231165Y-19817833D02*
X25252594Y-19824976D01*
X25252594Y-19824976D02*
X25259737Y-19832119D01*
D10*
D11*
X16078440Y-19961470D02*
X16099868Y-19968613D01*
X16099868Y-19968613D02*
X16135583Y-19968613D01*
X16135583Y-19968613D02*
X16149868Y-19961470D01*
X16149868Y-19961470D02*
X16157011Y-19954327D01*
X16157011Y-19954327D02*
X16164154Y-19940041D01*
X16164154Y-19940041D02*
X16164154Y-19925756D01*
X16164154Y-19925756D02*
X16157011Y-19911470D01*
X16157011Y-19911470D02*
X16149868Y-19904327D01*
X16149868Y-19904327D02*
X16135583Y-19897184D01*
X16135583Y-19897184D02*
X16107011Y-19890041D01*
X16107011Y-19890041D02*
X16092725Y-19882899D01*
X16092725Y-19882899D02*
X16085583Y-19875756D01*
X16085583Y-19875756D02*
X16078440Y-19861470D01*
X16078440Y-19861470D02*
X16078440Y-19847184D01*
X16078440Y-19847184D02*
X16085583Y-19832899D01*
X16085583Y-19832899D02*
X16092725Y-19825756D01*
X16092725Y-19825756D02*
X16107011Y-19818613D01*
X16107011Y-19818613D02*
X16142725Y-19818613D01*
X16142725Y-19818613D02*
X16164154Y-19825756D01*
X16228440Y-19968613D02*
X16228440Y-19868613D01*
X16228440Y-19818613D02*
X16221297Y-19825756D01*
X16221297Y-19825756D02*
X16228440Y-19832899D01*
X16228440Y-19832899D02*
X16235583Y-19825756D01*
X16235583Y-19825756D02*
X16228440Y-19818613D01*
X16228440Y-19818613D02*
X16228440Y-19832899D01*
X16285583Y-19868613D02*
X16364154Y-19868613D01*
X16364154Y-19868613D02*
X16285583Y-19968613D01*
X16285583Y-19968613D02*
X16364154Y-19968613D01*
X16478440Y-19961470D02*
X16464154Y-19968613D01*
X16464154Y-19968613D02*
X16435583Y-19968613D01*
X16435583Y-19968613D02*
X16421297Y-19961470D01*
X16421297Y-19961470D02*
X16414154Y-19947184D01*
X16414154Y-19947184D02*
X16414154Y-19890041D01*
X16414154Y-19890041D02*
X16421297Y-19875756D01*
X16421297Y-19875756D02*
X16435583Y-19868613D01*
X16435583Y-19868613D02*
X16464154Y-19868613D01*
X16464154Y-19868613D02*
X16478440Y-19875756D01*
X16478440Y-19875756D02*
X16485583Y-19890041D01*
X16485583Y-19890041D02*
X16485583Y-19904327D01*
X16485583Y-19904327D02*
X16414154Y-19918613D01*
X16549868Y-19954327D02*
X16557011Y-19961470D01*
X16557011Y-19961470D02*
X16549868Y-19968613D01*
X16549868Y-19968613D02*
X16542725Y-19961470D01*
X16542725Y-19961470D02*
X16549868Y-19954327D01*
X16549868Y-19954327D02*
X16549868Y-19968613D01*
X16549868Y-19875756D02*
X16557011Y-19882899D01*
X16557011Y-19882899D02*
X16549868Y-19890041D01*
X16549868Y-19890041D02*
X16542725Y-19882899D01*
X16542725Y-19882899D02*
X16549868Y-19875756D01*
X16549868Y-19875756D02*
X16549868Y-19890041D01*
X16728440Y-19925756D02*
X16799868Y-19925756D01*
X16714154Y-19968613D02*
X16764154Y-19818613D01*
X16764154Y-19818613D02*
X16814154Y-19968613D01*
D10*
D11*
X24585583Y-20248613D02*
X24585583Y-20098613D01*
X24721297Y-20248613D02*
X24721297Y-20098613D01*
X24721297Y-20241470D02*
X24707011Y-20248613D01*
X24707011Y-20248613D02*
X24678440Y-20248613D01*
X24678440Y-20248613D02*
X24664154Y-20241470D01*
X24664154Y-20241470D02*
X24657011Y-20234327D01*
X24657011Y-20234327D02*
X24649868Y-20220041D01*
X24649868Y-20220041D02*
X24649868Y-20177184D01*
X24649868Y-20177184D02*
X24657011Y-20162899D01*
X24657011Y-20162899D02*
X24664154Y-20155756D01*
X24664154Y-20155756D02*
X24678440Y-20148613D01*
X24678440Y-20148613D02*
X24707011Y-20148613D01*
X24707011Y-20148613D02*
X24721297Y-20155756D01*
X24792725Y-20234327D02*
X24799868Y-20241470D01*
X24799868Y-20241470D02*
X24792725Y-20248613D01*
X24792725Y-20248613D02*
X24785583Y-20241470D01*
X24785583Y-20241470D02*
X24792725Y-20234327D01*
X24792725Y-20234327D02*
X24792725Y-20248613D01*
X24792725Y-20155756D02*
X24799868Y-20162899D01*
X24799868Y-20162899D02*
X24792725Y-20170041D01*
X24792725Y-20170041D02*
X24785583Y-20162899D01*
X24785583Y-20162899D02*
X24792725Y-20155756D01*
X24792725Y-20155756D02*
X24792725Y-20170041D01*
X25057011Y-20248613D02*
X24971297Y-20248613D01*
X25014154Y-20248613D02*
X25014154Y-20098613D01*
X25014154Y-20098613D02*
X24999868Y-20120041D01*
X24999868Y-20120041D02*
X24985583Y-20134327D01*
X24985583Y-20134327D02*
X24971297Y-20141470D01*
X25228440Y-20091470D02*
X25099868Y-20284327D01*
X25357011Y-20248613D02*
X25271297Y-20248613D01*
X25314154Y-20248613D02*
X25314154Y-20098613D01*
X25314154Y-20098613D02*
X25299868Y-20120041D01*
X25299868Y-20120041D02*
X25285583Y-20134327D01*
X25285583Y-20134327D02*
X25271297Y-20141470D01*
D10*
D11*
X15940000Y-19340000D02*
X26740000Y-19340000D01*
D10*
D13*
X16109173Y-19410444D02*
X16223458Y-19410444D01*
X16141316Y-19610444D02*
X16166316Y-19410444D01*
X16265125Y-19610444D02*
X16281792Y-19477110D01*
X16290125Y-19410444D02*
X16279411Y-19419968D01*
X16279411Y-19419968D02*
X16287744Y-19429491D01*
X16287744Y-19429491D02*
X16298459Y-19419968D01*
X16298459Y-19419968D02*
X16290125Y-19410444D01*
X16290125Y-19410444D02*
X16287744Y-19429491D01*
X16348459Y-19477110D02*
X16424649Y-19477110D01*
X16385363Y-19410444D02*
X16363935Y-19581872D01*
X16363935Y-19581872D02*
X16371078Y-19600920D01*
X16371078Y-19600920D02*
X16388935Y-19610444D01*
X16388935Y-19610444D02*
X16407982Y-19610444D01*
X16503220Y-19610444D02*
X16485363Y-19600920D01*
X16485363Y-19600920D02*
X16478220Y-19581872D01*
X16478220Y-19581872D02*
X16499649Y-19410444D01*
X16656792Y-19600920D02*
X16636554Y-19610444D01*
X16636554Y-19610444D02*
X16598458Y-19610444D01*
X16598458Y-19610444D02*
X16580601Y-19600920D01*
X16580601Y-19600920D02*
X16573458Y-19581872D01*
X16573458Y-19581872D02*
X16582982Y-19505682D01*
X16582982Y-19505682D02*
X16594887Y-19486634D01*
X16594887Y-19486634D02*
X16615125Y-19477110D01*
X16615125Y-19477110D02*
X16653220Y-19477110D01*
X16653220Y-19477110D02*
X16671078Y-19486634D01*
X16671078Y-19486634D02*
X16678220Y-19505682D01*
X16678220Y-19505682D02*
X16675839Y-19524730D01*
X16675839Y-19524730D02*
X16578220Y-19543777D01*
X16753220Y-19591396D02*
X16761554Y-19600920D01*
X16761554Y-19600920D02*
X16750839Y-19610444D01*
X16750839Y-19610444D02*
X16742506Y-19600920D01*
X16742506Y-19600920D02*
X16753220Y-19591396D01*
X16753220Y-19591396D02*
X16750839Y-19610444D01*
X16766316Y-19486634D02*
X16774649Y-19496158D01*
X16774649Y-19496158D02*
X16763935Y-19505682D01*
X16763935Y-19505682D02*
X16755601Y-19496158D01*
X16755601Y-19496158D02*
X16766316Y-19486634D01*
X16766316Y-19486634D02*
X16763935Y-19505682D01*
X17127030Y-19419968D02*
X17109173Y-19410444D01*
X17109173Y-19410444D02*
X17080602Y-19410444D01*
X17080602Y-19410444D02*
X17050840Y-19419968D01*
X17050840Y-19419968D02*
X17029411Y-19439015D01*
X17029411Y-19439015D02*
X17017506Y-19458063D01*
X17017506Y-19458063D02*
X17003221Y-19496158D01*
X17003221Y-19496158D02*
X16999649Y-19524730D01*
X16999649Y-19524730D02*
X17004411Y-19562825D01*
X17004411Y-19562825D02*
X17011554Y-19581872D01*
X17011554Y-19581872D02*
X17028221Y-19600920D01*
X17028221Y-19600920D02*
X17055602Y-19610444D01*
X17055602Y-19610444D02*
X17074649Y-19610444D01*
X17074649Y-19610444D02*
X17104411Y-19600920D01*
X17104411Y-19600920D02*
X17115125Y-19591396D01*
X17115125Y-19591396D02*
X17123459Y-19524730D01*
X17123459Y-19524730D02*
X17085363Y-19524730D01*
X17227030Y-19610444D02*
X17209173Y-19600920D01*
X17209173Y-19600920D02*
X17202030Y-19581872D01*
X17202030Y-19581872D02*
X17223459Y-19410444D01*
X17331792Y-19610444D02*
X17313935Y-19600920D01*
X17313935Y-19600920D02*
X17305602Y-19591396D01*
X17305602Y-19591396D02*
X17298459Y-19572349D01*
X17298459Y-19572349D02*
X17305602Y-19515206D01*
X17305602Y-19515206D02*
X17317506Y-19496158D01*
X17317506Y-19496158D02*
X17328221Y-19486634D01*
X17328221Y-19486634D02*
X17348459Y-19477110D01*
X17348459Y-19477110D02*
X17377030Y-19477110D01*
X17377030Y-19477110D02*
X17394887Y-19486634D01*
X17394887Y-19486634D02*
X17403221Y-19496158D01*
X17403221Y-19496158D02*
X17410363Y-19515206D01*
X17410363Y-19515206D02*
X17403221Y-19572349D01*
X17403221Y-19572349D02*
X17391316Y-19591396D01*
X17391316Y-19591396D02*
X17380602Y-19600920D01*
X17380602Y-19600920D02*
X17360363Y-19610444D01*
X17360363Y-19610444D02*
X17331792Y-19610444D01*
X17484173Y-19610444D02*
X17509173Y-19410444D01*
X17499649Y-19486634D02*
X17519887Y-19477110D01*
X17519887Y-19477110D02*
X17557982Y-19477110D01*
X17557982Y-19477110D02*
X17575840Y-19486634D01*
X17575840Y-19486634D02*
X17584173Y-19496158D01*
X17584173Y-19496158D02*
X17591316Y-19515206D01*
X17591316Y-19515206D02*
X17584173Y-19572349D01*
X17584173Y-19572349D02*
X17572268Y-19591396D01*
X17572268Y-19591396D02*
X17561554Y-19600920D01*
X17561554Y-19600920D02*
X17541316Y-19610444D01*
X17541316Y-19610444D02*
X17503221Y-19610444D01*
X17503221Y-19610444D02*
X17485363Y-19600920D01*
X17750840Y-19610444D02*
X17763935Y-19505682D01*
X17763935Y-19505682D02*
X17756792Y-19486634D01*
X17756792Y-19486634D02*
X17738935Y-19477110D01*
X17738935Y-19477110D02*
X17700840Y-19477110D01*
X17700840Y-19477110D02*
X17680602Y-19486634D01*
X17752030Y-19600920D02*
X17731792Y-19610444D01*
X17731792Y-19610444D02*
X17684173Y-19610444D01*
X17684173Y-19610444D02*
X17666316Y-19600920D01*
X17666316Y-19600920D02*
X17659173Y-19581872D01*
X17659173Y-19581872D02*
X17661554Y-19562825D01*
X17661554Y-19562825D02*
X17673459Y-19543777D01*
X17673459Y-19543777D02*
X17693697Y-19534253D01*
X17693697Y-19534253D02*
X17741316Y-19534253D01*
X17741316Y-19534253D02*
X17761554Y-19524730D01*
X17874649Y-19610444D02*
X17856792Y-19600920D01*
X17856792Y-19600920D02*
X17849649Y-19581872D01*
X17849649Y-19581872D02*
X17871078Y-19410444D01*
X18094887Y-19600920D02*
X18122268Y-19610444D01*
X18122268Y-19610444D02*
X18169887Y-19610444D01*
X18169887Y-19610444D02*
X18190125Y-19600920D01*
X18190125Y-19600920D02*
X18200840Y-19591396D01*
X18200840Y-19591396D02*
X18212744Y-19572349D01*
X18212744Y-19572349D02*
X18215125Y-19553301D01*
X18215125Y-19553301D02*
X18207983Y-19534253D01*
X18207983Y-19534253D02*
X18199649Y-19524730D01*
X18199649Y-19524730D02*
X18181792Y-19515206D01*
X18181792Y-19515206D02*
X18144887Y-19505682D01*
X18144887Y-19505682D02*
X18127030Y-19496158D01*
X18127030Y-19496158D02*
X18118697Y-19486634D01*
X18118697Y-19486634D02*
X18111554Y-19467587D01*
X18111554Y-19467587D02*
X18113935Y-19448539D01*
X18113935Y-19448539D02*
X18125840Y-19429491D01*
X18125840Y-19429491D02*
X18136554Y-19419968D01*
X18136554Y-19419968D02*
X18156792Y-19410444D01*
X18156792Y-19410444D02*
X18204411Y-19410444D01*
X18204411Y-19410444D02*
X18231792Y-19419968D01*
X18380602Y-19600920D02*
X18360364Y-19610444D01*
X18360364Y-19610444D02*
X18322268Y-19610444D01*
X18322268Y-19610444D02*
X18304411Y-19600920D01*
X18304411Y-19600920D02*
X18296078Y-19591396D01*
X18296078Y-19591396D02*
X18288935Y-19572349D01*
X18288935Y-19572349D02*
X18296078Y-19515206D01*
X18296078Y-19515206D02*
X18307983Y-19496158D01*
X18307983Y-19496158D02*
X18318697Y-19486634D01*
X18318697Y-19486634D02*
X18338935Y-19477110D01*
X18338935Y-19477110D02*
X18377030Y-19477110D01*
X18377030Y-19477110D02*
X18394887Y-19486634D01*
X18550840Y-19610444D02*
X18563935Y-19505682D01*
X18563935Y-19505682D02*
X18556792Y-19486634D01*
X18556792Y-19486634D02*
X18538935Y-19477110D01*
X18538935Y-19477110D02*
X18500840Y-19477110D01*
X18500840Y-19477110D02*
X18480602Y-19486634D01*
X18552030Y-19600920D02*
X18531792Y-19610444D01*
X18531792Y-19610444D02*
X18484173Y-19610444D01*
X18484173Y-19610444D02*
X18466316Y-19600920D01*
X18466316Y-19600920D02*
X18459173Y-19581872D01*
X18459173Y-19581872D02*
X18461554Y-19562825D01*
X18461554Y-19562825D02*
X18473459Y-19543777D01*
X18473459Y-19543777D02*
X18493697Y-19534253D01*
X18493697Y-19534253D02*
X18541316Y-19534253D01*
X18541316Y-19534253D02*
X18561554Y-19524730D01*
X18643697Y-19477110D02*
X18674649Y-19610444D01*
X18674649Y-19610444D02*
X18738935Y-19477110D01*
X18875840Y-19600920D02*
X18855602Y-19610444D01*
X18855602Y-19610444D02*
X18817506Y-19610444D01*
X18817506Y-19610444D02*
X18799649Y-19600920D01*
X18799649Y-19600920D02*
X18792506Y-19581872D01*
X18792506Y-19581872D02*
X18802030Y-19505682D01*
X18802030Y-19505682D02*
X18813935Y-19486634D01*
X18813935Y-19486634D02*
X18834173Y-19477110D01*
X18834173Y-19477110D02*
X18872268Y-19477110D01*
X18872268Y-19477110D02*
X18890126Y-19486634D01*
X18890126Y-19486634D02*
X18897268Y-19505682D01*
X18897268Y-19505682D02*
X18894887Y-19524730D01*
X18894887Y-19524730D02*
X18797268Y-19543777D01*
X18986554Y-19477110D02*
X18969887Y-19610444D01*
X18984173Y-19496158D02*
X18994887Y-19486634D01*
X18994887Y-19486634D02*
X19015126Y-19477110D01*
X19015126Y-19477110D02*
X19043697Y-19477110D01*
X19043697Y-19477110D02*
X19061554Y-19486634D01*
X19061554Y-19486634D02*
X19068697Y-19505682D01*
X19068697Y-19505682D02*
X19055602Y-19610444D01*
X19253221Y-19477110D02*
X19232983Y-19639015D01*
X19232983Y-19639015D02*
X19221078Y-19658063D01*
X19221078Y-19658063D02*
X19210364Y-19667587D01*
X19210364Y-19667587D02*
X19190126Y-19677110D01*
X19190126Y-19677110D02*
X19161554Y-19677110D01*
X19161554Y-19677110D02*
X19143697Y-19667587D01*
X19237745Y-19600920D02*
X19217507Y-19610444D01*
X19217507Y-19610444D02*
X19179411Y-19610444D01*
X19179411Y-19610444D02*
X19161554Y-19600920D01*
X19161554Y-19600920D02*
X19153221Y-19591396D01*
X19153221Y-19591396D02*
X19146078Y-19572349D01*
X19146078Y-19572349D02*
X19153221Y-19515206D01*
X19153221Y-19515206D02*
X19165126Y-19496158D01*
X19165126Y-19496158D02*
X19175840Y-19486634D01*
X19175840Y-19486634D02*
X19196078Y-19477110D01*
X19196078Y-19477110D02*
X19234173Y-19477110D01*
X19234173Y-19477110D02*
X19252030Y-19486634D01*
X19409173Y-19600920D02*
X19388935Y-19610444D01*
X19388935Y-19610444D02*
X19350840Y-19610444D01*
X19350840Y-19610444D02*
X19332983Y-19600920D01*
X19332983Y-19600920D02*
X19325840Y-19581872D01*
X19325840Y-19581872D02*
X19335364Y-19505682D01*
X19335364Y-19505682D02*
X19347268Y-19486634D01*
X19347268Y-19486634D02*
X19367507Y-19477110D01*
X19367507Y-19477110D02*
X19405602Y-19477110D01*
X19405602Y-19477110D02*
X19423459Y-19486634D01*
X19423459Y-19486634D02*
X19430602Y-19505682D01*
X19430602Y-19505682D02*
X19428221Y-19524730D01*
X19428221Y-19524730D02*
X19330602Y-19543777D01*
X19503221Y-19610444D02*
X19519888Y-19477110D01*
X19515126Y-19515206D02*
X19527030Y-19496158D01*
X19527030Y-19496158D02*
X19537745Y-19486634D01*
X19537745Y-19486634D02*
X19557983Y-19477110D01*
X19557983Y-19477110D02*
X19577030Y-19477110D01*
X19779411Y-19610444D02*
X19804411Y-19410444D01*
X19792507Y-19505682D02*
X19906792Y-19505682D01*
X19893697Y-19610444D02*
X19918697Y-19410444D01*
X20091316Y-19477110D02*
X20074649Y-19610444D01*
X20005602Y-19477110D02*
X19992507Y-19581872D01*
X19992507Y-19581872D02*
X19999649Y-19600920D01*
X19999649Y-19600920D02*
X20017507Y-19610444D01*
X20017507Y-19610444D02*
X20046078Y-19610444D01*
X20046078Y-19610444D02*
X20066316Y-19600920D01*
X20066316Y-19600920D02*
X20077030Y-19591396D01*
X20186554Y-19477110D02*
X20169888Y-19610444D01*
X20184173Y-19496158D02*
X20194888Y-19486634D01*
X20194888Y-19486634D02*
X20215126Y-19477110D01*
X20215126Y-19477110D02*
X20243697Y-19477110D01*
X20243697Y-19477110D02*
X20261554Y-19486634D01*
X20261554Y-19486634D02*
X20268697Y-19505682D01*
X20268697Y-19505682D02*
X20255602Y-19610444D01*
X20338935Y-19477110D02*
X20415126Y-19477110D01*
X20375840Y-19410444D02*
X20354411Y-19581872D01*
X20354411Y-19581872D02*
X20361554Y-19600920D01*
X20361554Y-19600920D02*
X20379411Y-19610444D01*
X20379411Y-19610444D02*
X20398459Y-19610444D01*
X20617507Y-19610444D02*
X20642507Y-19410444D01*
X20642507Y-19410444D02*
X20718697Y-19410444D01*
X20718697Y-19410444D02*
X20736554Y-19419968D01*
X20736554Y-19419968D02*
X20744888Y-19429491D01*
X20744888Y-19429491D02*
X20752030Y-19448539D01*
X20752030Y-19448539D02*
X20748459Y-19477110D01*
X20748459Y-19477110D02*
X20736554Y-19496158D01*
X20736554Y-19496158D02*
X20725840Y-19505682D01*
X20725840Y-19505682D02*
X20705602Y-19515206D01*
X20705602Y-19515206D02*
X20629411Y-19515206D01*
X20846078Y-19610444D02*
X20828221Y-19600920D01*
X20828221Y-19600920D02*
X20819888Y-19591396D01*
X20819888Y-19591396D02*
X20812745Y-19572349D01*
X20812745Y-19572349D02*
X20819888Y-19515206D01*
X20819888Y-19515206D02*
X20831792Y-19496158D01*
X20831792Y-19496158D02*
X20842507Y-19486634D01*
X20842507Y-19486634D02*
X20862745Y-19477110D01*
X20862745Y-19477110D02*
X20891316Y-19477110D01*
X20891316Y-19477110D02*
X20909173Y-19486634D01*
X20909173Y-19486634D02*
X20917507Y-19496158D01*
X20917507Y-19496158D02*
X20924650Y-19515206D01*
X20924650Y-19515206D02*
X20917507Y-19572349D01*
X20917507Y-19572349D02*
X20905602Y-19591396D01*
X20905602Y-19591396D02*
X20894888Y-19600920D01*
X20894888Y-19600920D02*
X20874650Y-19610444D01*
X20874650Y-19610444D02*
X20846078Y-19610444D01*
X20990126Y-19600920D02*
X21007983Y-19610444D01*
X21007983Y-19610444D02*
X21046078Y-19610444D01*
X21046078Y-19610444D02*
X21066316Y-19600920D01*
X21066316Y-19600920D02*
X21078221Y-19581872D01*
X21078221Y-19581872D02*
X21079411Y-19572349D01*
X21079411Y-19572349D02*
X21072269Y-19553301D01*
X21072269Y-19553301D02*
X21054411Y-19543777D01*
X21054411Y-19543777D02*
X21025840Y-19543777D01*
X21025840Y-19543777D02*
X21007983Y-19534253D01*
X21007983Y-19534253D02*
X21000840Y-19515206D01*
X21000840Y-19515206D02*
X21002031Y-19505682D01*
X21002031Y-19505682D02*
X21013935Y-19486634D01*
X21013935Y-19486634D02*
X21034173Y-19477110D01*
X21034173Y-19477110D02*
X21062745Y-19477110D01*
X21062745Y-19477110D02*
X21080602Y-19486634D01*
X21160364Y-19610444D02*
X21177031Y-19477110D01*
X21185364Y-19410444D02*
X21174650Y-19419968D01*
X21174650Y-19419968D02*
X21182983Y-19429491D01*
X21182983Y-19429491D02*
X21193697Y-19419968D01*
X21193697Y-19419968D02*
X21185364Y-19410444D01*
X21185364Y-19410444D02*
X21182983Y-19429491D01*
X21243697Y-19477110D02*
X21319888Y-19477110D01*
X21280602Y-19410444D02*
X21259173Y-19581872D01*
X21259173Y-19581872D02*
X21266316Y-19600920D01*
X21266316Y-19600920D02*
X21284173Y-19610444D01*
X21284173Y-19610444D02*
X21303221Y-19610444D01*
X21369888Y-19610444D02*
X21386554Y-19477110D01*
X21394888Y-19410444D02*
X21384173Y-19419968D01*
X21384173Y-19419968D02*
X21392507Y-19429491D01*
X21392507Y-19429491D02*
X21403221Y-19419968D01*
X21403221Y-19419968D02*
X21394888Y-19410444D01*
X21394888Y-19410444D02*
X21392507Y-19429491D01*
X21493697Y-19610444D02*
X21475840Y-19600920D01*
X21475840Y-19600920D02*
X21467507Y-19591396D01*
X21467507Y-19591396D02*
X21460364Y-19572349D01*
X21460364Y-19572349D02*
X21467507Y-19515206D01*
X21467507Y-19515206D02*
X21479411Y-19496158D01*
X21479411Y-19496158D02*
X21490126Y-19486634D01*
X21490126Y-19486634D02*
X21510364Y-19477110D01*
X21510364Y-19477110D02*
X21538935Y-19477110D01*
X21538935Y-19477110D02*
X21556792Y-19486634D01*
X21556792Y-19486634D02*
X21565126Y-19496158D01*
X21565126Y-19496158D02*
X21572269Y-19515206D01*
X21572269Y-19515206D02*
X21565126Y-19572349D01*
X21565126Y-19572349D02*
X21553221Y-19591396D01*
X21553221Y-19591396D02*
X21542507Y-19600920D01*
X21542507Y-19600920D02*
X21522269Y-19610444D01*
X21522269Y-19610444D02*
X21493697Y-19610444D01*
X21662745Y-19477110D02*
X21646078Y-19610444D01*
X21660364Y-19496158D02*
X21671078Y-19486634D01*
X21671078Y-19486634D02*
X21691316Y-19477110D01*
X21691316Y-19477110D02*
X21719888Y-19477110D01*
X21719888Y-19477110D02*
X21737745Y-19486634D01*
X21737745Y-19486634D02*
X21744888Y-19505682D01*
X21744888Y-19505682D02*
X21731792Y-19610444D01*
X21827031Y-19610444D02*
X21843697Y-19477110D01*
X21852031Y-19410444D02*
X21841316Y-19419968D01*
X21841316Y-19419968D02*
X21849650Y-19429491D01*
X21849650Y-19429491D02*
X21860364Y-19419968D01*
X21860364Y-19419968D02*
X21852031Y-19410444D01*
X21852031Y-19410444D02*
X21849650Y-19429491D01*
X21938935Y-19477110D02*
X21922269Y-19610444D01*
X21936554Y-19496158D02*
X21947269Y-19486634D01*
X21947269Y-19486634D02*
X21967507Y-19477110D01*
X21967507Y-19477110D02*
X21996078Y-19477110D01*
X21996078Y-19477110D02*
X22013935Y-19486634D01*
X22013935Y-19486634D02*
X22021078Y-19505682D01*
X22021078Y-19505682D02*
X22007983Y-19610444D01*
X22205602Y-19477110D02*
X22185364Y-19639015D01*
X22185364Y-19639015D02*
X22173459Y-19658063D01*
X22173459Y-19658063D02*
X22162745Y-19667587D01*
X22162745Y-19667587D02*
X22142507Y-19677110D01*
X22142507Y-19677110D02*
X22113935Y-19677110D01*
X22113935Y-19677110D02*
X22096078Y-19667587D01*
X22190126Y-19600920D02*
X22169888Y-19610444D01*
X22169888Y-19610444D02*
X22131793Y-19610444D01*
X22131793Y-19610444D02*
X22113935Y-19600920D01*
X22113935Y-19600920D02*
X22105602Y-19591396D01*
X22105602Y-19591396D02*
X22098459Y-19572349D01*
X22098459Y-19572349D02*
X22105602Y-19515206D01*
X22105602Y-19515206D02*
X22117507Y-19496158D01*
X22117507Y-19496158D02*
X22128221Y-19486634D01*
X22128221Y-19486634D02*
X22148459Y-19477110D01*
X22148459Y-19477110D02*
X22186554Y-19477110D01*
X22186554Y-19477110D02*
X22204412Y-19486634D01*
X22428221Y-19600920D02*
X22455602Y-19610444D01*
X22455602Y-19610444D02*
X22503221Y-19610444D01*
X22503221Y-19610444D02*
X22523459Y-19600920D01*
X22523459Y-19600920D02*
X22534173Y-19591396D01*
X22534173Y-19591396D02*
X22546078Y-19572349D01*
X22546078Y-19572349D02*
X22548459Y-19553301D01*
X22548459Y-19553301D02*
X22541316Y-19534253D01*
X22541316Y-19534253D02*
X22532983Y-19524730D01*
X22532983Y-19524730D02*
X22515126Y-19515206D01*
X22515126Y-19515206D02*
X22478221Y-19505682D01*
X22478221Y-19505682D02*
X22460364Y-19496158D01*
X22460364Y-19496158D02*
X22452031Y-19486634D01*
X22452031Y-19486634D02*
X22444888Y-19467587D01*
X22444888Y-19467587D02*
X22447269Y-19448539D01*
X22447269Y-19448539D02*
X22459173Y-19429491D01*
X22459173Y-19429491D02*
X22469888Y-19419968D01*
X22469888Y-19419968D02*
X22490126Y-19410444D01*
X22490126Y-19410444D02*
X22537745Y-19410444D01*
X22537745Y-19410444D02*
X22565126Y-19419968D01*
X22624650Y-19477110D02*
X22655602Y-19610444D01*
X22719888Y-19477110D02*
X22655602Y-19610444D01*
X22655602Y-19610444D02*
X22630602Y-19658063D01*
X22630602Y-19658063D02*
X22619888Y-19667587D01*
X22619888Y-19667587D02*
X22599650Y-19677110D01*
X22771078Y-19600920D02*
X22788935Y-19610444D01*
X22788935Y-19610444D02*
X22827031Y-19610444D01*
X22827031Y-19610444D02*
X22847269Y-19600920D01*
X22847269Y-19600920D02*
X22859173Y-19581872D01*
X22859173Y-19581872D02*
X22860364Y-19572349D01*
X22860364Y-19572349D02*
X22853221Y-19553301D01*
X22853221Y-19553301D02*
X22835364Y-19543777D01*
X22835364Y-19543777D02*
X22806793Y-19543777D01*
X22806793Y-19543777D02*
X22788935Y-19534253D01*
X22788935Y-19534253D02*
X22781793Y-19515206D01*
X22781793Y-19515206D02*
X22782983Y-19505682D01*
X22782983Y-19505682D02*
X22794888Y-19486634D01*
X22794888Y-19486634D02*
X22815126Y-19477110D01*
X22815126Y-19477110D02*
X22843697Y-19477110D01*
X22843697Y-19477110D02*
X22861554Y-19486634D01*
X22929412Y-19477110D02*
X23005602Y-19477110D01*
X22966316Y-19410444D02*
X22944888Y-19581872D01*
X22944888Y-19581872D02*
X22952031Y-19600920D01*
X22952031Y-19600920D02*
X22969888Y-19610444D01*
X22969888Y-19610444D02*
X22988935Y-19610444D01*
X23132983Y-19600920D02*
X23112745Y-19610444D01*
X23112745Y-19610444D02*
X23074650Y-19610444D01*
X23074650Y-19610444D02*
X23056793Y-19600920D01*
X23056793Y-19600920D02*
X23049650Y-19581872D01*
X23049650Y-19581872D02*
X23059174Y-19505682D01*
X23059174Y-19505682D02*
X23071078Y-19486634D01*
X23071078Y-19486634D02*
X23091316Y-19477110D01*
X23091316Y-19477110D02*
X23129412Y-19477110D01*
X23129412Y-19477110D02*
X23147269Y-19486634D01*
X23147269Y-19486634D02*
X23154412Y-19505682D01*
X23154412Y-19505682D02*
X23152031Y-19524730D01*
X23152031Y-19524730D02*
X23054412Y-19543777D01*
X23227031Y-19610444D02*
X23243697Y-19477110D01*
X23241316Y-19496158D02*
X23252031Y-19486634D01*
X23252031Y-19486634D02*
X23272269Y-19477110D01*
X23272269Y-19477110D02*
X23300840Y-19477110D01*
X23300840Y-19477110D02*
X23318697Y-19486634D01*
X23318697Y-19486634D02*
X23325840Y-19505682D01*
X23325840Y-19505682D02*
X23312745Y-19610444D01*
X23325840Y-19505682D02*
X23337745Y-19486634D01*
X23337745Y-19486634D02*
X23357983Y-19477110D01*
X23357983Y-19477110D02*
X23386554Y-19477110D01*
X23386554Y-19477110D02*
X23404412Y-19486634D01*
X23404412Y-19486634D02*
X23411554Y-19505682D01*
X23411554Y-19505682D02*
X23398459Y-19610444D01*
D10*
D11*
X16135583Y-19150041D02*
X16085583Y-19150041D01*
X16085583Y-19228613D02*
X16085583Y-19078613D01*
X16085583Y-19078613D02*
X16157011Y-19078613D01*
X16214154Y-19228613D02*
X16214154Y-19128613D01*
X16214154Y-19078613D02*
X16207011Y-19085756D01*
X16207011Y-19085756D02*
X16214154Y-19092899D01*
X16214154Y-19092899D02*
X16221297Y-19085756D01*
X16221297Y-19085756D02*
X16214154Y-19078613D01*
X16214154Y-19078613D02*
X16214154Y-19092899D01*
X16307011Y-19228613D02*
X16292725Y-19221470D01*
X16292725Y-19221470D02*
X16285583Y-19207184D01*
X16285583Y-19207184D02*
X16285583Y-19078613D01*
X16421297Y-19221470D02*
X16407011Y-19228613D01*
X16407011Y-19228613D02*
X16378440Y-19228613D01*
X16378440Y-19228613D02*
X16364154Y-19221470D01*
X16364154Y-19221470D02*
X16357011Y-19207184D01*
X16357011Y-19207184D02*
X16357011Y-19150041D01*
X16357011Y-19150041D02*
X16364154Y-19135756D01*
X16364154Y-19135756D02*
X16378440Y-19128613D01*
X16378440Y-19128613D02*
X16407011Y-19128613D01*
X16407011Y-19128613D02*
X16421297Y-19135756D01*
X16421297Y-19135756D02*
X16428440Y-19150041D01*
X16428440Y-19150041D02*
X16428440Y-19164327D01*
X16428440Y-19164327D02*
X16357011Y-19178613D01*
X16492725Y-19214327D02*
X16499868Y-19221470D01*
X16499868Y-19221470D02*
X16492725Y-19228613D01*
X16492725Y-19228613D02*
X16485583Y-19221470D01*
X16485583Y-19221470D02*
X16492725Y-19214327D01*
X16492725Y-19214327D02*
X16492725Y-19228613D01*
X16492725Y-19135756D02*
X16499868Y-19142899D01*
X16499868Y-19142899D02*
X16492725Y-19150041D01*
X16492725Y-19150041D02*
X16485583Y-19142899D01*
X16485583Y-19142899D02*
X16492725Y-19135756D01*
X16492725Y-19135756D02*
X16492725Y-19150041D01*
X16742725Y-19128613D02*
X16742725Y-19250041D01*
X16742725Y-19250041D02*
X16735583Y-19264327D01*
X16735583Y-19264327D02*
X16728440Y-19271470D01*
X16728440Y-19271470D02*
X16714154Y-19278613D01*
X16714154Y-19278613D02*
X16692725Y-19278613D01*
X16692725Y-19278613D02*
X16678440Y-19271470D01*
X16742725Y-19221470D02*
X16728440Y-19228613D01*
X16728440Y-19228613D02*
X16699868Y-19228613D01*
X16699868Y-19228613D02*
X16685583Y-19221470D01*
X16685583Y-19221470D02*
X16678440Y-19214327D01*
X16678440Y-19214327D02*
X16671297Y-19200041D01*
X16671297Y-19200041D02*
X16671297Y-19157184D01*
X16671297Y-19157184D02*
X16678440Y-19142899D01*
X16678440Y-19142899D02*
X16685583Y-19135756D01*
X16685583Y-19135756D02*
X16699868Y-19128613D01*
X16699868Y-19128613D02*
X16728440Y-19128613D01*
X16728440Y-19128613D02*
X16742725Y-19135756D01*
X16807011Y-19221470D02*
X16821297Y-19228613D01*
X16821297Y-19228613D02*
X16849868Y-19228613D01*
X16849868Y-19228613D02*
X16864154Y-19221470D01*
X16864154Y-19221470D02*
X16871297Y-19207184D01*
X16871297Y-19207184D02*
X16871297Y-19200041D01*
X16871297Y-19200041D02*
X16864154Y-19185756D01*
X16864154Y-19185756D02*
X16849868Y-19178613D01*
X16849868Y-19178613D02*
X16828440Y-19178613D01*
X16828440Y-19178613D02*
X16814154Y-19171470D01*
X16814154Y-19171470D02*
X16807011Y-19157184D01*
X16807011Y-19157184D02*
X16807011Y-19150041D01*
X16807011Y-19150041D02*
X16814154Y-19135756D01*
X16814154Y-19135756D02*
X16828440Y-19128613D01*
X16828440Y-19128613D02*
X16849868Y-19128613D01*
X16849868Y-19128613D02*
X16864154Y-19135756D01*
X16935583Y-19228613D02*
X16935583Y-19078613D01*
X16999868Y-19228613D02*
X16999868Y-19150041D01*
X16999868Y-19150041D02*
X16992726Y-19135756D01*
X16992726Y-19135756D02*
X16978440Y-19128613D01*
X16978440Y-19128613D02*
X16957011Y-19128613D01*
X16957011Y-19128613D02*
X16942726Y-19135756D01*
X16942726Y-19135756D02*
X16935583Y-19142899D01*
X17071297Y-19128613D02*
X17071297Y-19278613D01*
X17071297Y-19135756D02*
X17085583Y-19128613D01*
X17085583Y-19128613D02*
X17114154Y-19128613D01*
X17114154Y-19128613D02*
X17128440Y-19135756D01*
X17128440Y-19135756D02*
X17135583Y-19142899D01*
X17135583Y-19142899D02*
X17142726Y-19157184D01*
X17142726Y-19157184D02*
X17142726Y-19200041D01*
X17142726Y-19200041D02*
X17135583Y-19214327D01*
X17135583Y-19214327D02*
X17128440Y-19221470D01*
X17128440Y-19221470D02*
X17114154Y-19228613D01*
X17114154Y-19228613D02*
X17085583Y-19228613D01*
X17085583Y-19228613D02*
X17071297Y-19221470D01*
X17199868Y-19221470D02*
X17214154Y-19228613D01*
X17214154Y-19228613D02*
X17242726Y-19228613D01*
X17242726Y-19228613D02*
X17257011Y-19221470D01*
X17257011Y-19221470D02*
X17264154Y-19207184D01*
X17264154Y-19207184D02*
X17264154Y-19200041D01*
X17264154Y-19200041D02*
X17257011Y-19185756D01*
X17257011Y-19185756D02*
X17242726Y-19178613D01*
X17242726Y-19178613D02*
X17221297Y-19178613D01*
X17221297Y-19178613D02*
X17207011Y-19171470D01*
X17207011Y-19171470D02*
X17199868Y-19157184D01*
X17199868Y-19157184D02*
X17199868Y-19150041D01*
X17199868Y-19150041D02*
X17207011Y-19135756D01*
X17207011Y-19135756D02*
X17221297Y-19128613D01*
X17221297Y-19128613D02*
X17242726Y-19128613D01*
X17242726Y-19128613D02*
X17257011Y-19135756D01*
X17328440Y-19214327D02*
X17335583Y-19221470D01*
X17335583Y-19221470D02*
X17328440Y-19228613D01*
X17328440Y-19228613D02*
X17321297Y-19221470D01*
X17321297Y-19221470D02*
X17328440Y-19214327D01*
X17328440Y-19214327D02*
X17328440Y-19228613D01*
X17399868Y-19228613D02*
X17399868Y-19078613D01*
X17414154Y-19171470D02*
X17457011Y-19228613D01*
X17457011Y-19128613D02*
X17399868Y-19185756D01*
X17521297Y-19228613D02*
X17521297Y-19128613D01*
X17521297Y-19078613D02*
X17514154Y-19085756D01*
X17514154Y-19085756D02*
X17521297Y-19092899D01*
X17521297Y-19092899D02*
X17528440Y-19085756D01*
X17528440Y-19085756D02*
X17521297Y-19078613D01*
X17521297Y-19078613D02*
X17521297Y-19092899D01*
X17657011Y-19221470D02*
X17642726Y-19228613D01*
X17642726Y-19228613D02*
X17614154Y-19228613D01*
X17614154Y-19228613D02*
X17599869Y-19221470D01*
X17599869Y-19221470D02*
X17592726Y-19214327D01*
X17592726Y-19214327D02*
X17585583Y-19200041D01*
X17585583Y-19200041D02*
X17585583Y-19157184D01*
X17585583Y-19157184D02*
X17592726Y-19142899D01*
X17592726Y-19142899D02*
X17599869Y-19135756D01*
X17599869Y-19135756D02*
X17614154Y-19128613D01*
X17614154Y-19128613D02*
X17642726Y-19128613D01*
X17642726Y-19128613D02*
X17657011Y-19135756D01*
X17785583Y-19228613D02*
X17785583Y-19150041D01*
X17785583Y-19150041D02*
X17778440Y-19135756D01*
X17778440Y-19135756D02*
X17764154Y-19128613D01*
X17764154Y-19128613D02*
X17735583Y-19128613D01*
X17735583Y-19128613D02*
X17721297Y-19135756D01*
X17785583Y-19221470D02*
X17771297Y-19228613D01*
X17771297Y-19228613D02*
X17735583Y-19228613D01*
X17735583Y-19228613D02*
X17721297Y-19221470D01*
X17721297Y-19221470D02*
X17714154Y-19207184D01*
X17714154Y-19207184D02*
X17714154Y-19192899D01*
X17714154Y-19192899D02*
X17721297Y-19178613D01*
X17721297Y-19178613D02*
X17735583Y-19171470D01*
X17735583Y-19171470D02*
X17771297Y-19171470D01*
X17771297Y-19171470D02*
X17785583Y-19164327D01*
X17921297Y-19228613D02*
X17921297Y-19078613D01*
X17921297Y-19221470D02*
X17907011Y-19228613D01*
X17907011Y-19228613D02*
X17878440Y-19228613D01*
X17878440Y-19228613D02*
X17864154Y-19221470D01*
X17864154Y-19221470D02*
X17857011Y-19214327D01*
X17857011Y-19214327D02*
X17849869Y-19200041D01*
X17849869Y-19200041D02*
X17849869Y-19157184D01*
X17849869Y-19157184D02*
X17857011Y-19142899D01*
X17857011Y-19142899D02*
X17864154Y-19135756D01*
X17864154Y-19135756D02*
X17878440Y-19128613D01*
X17878440Y-19128613D02*
X17907011Y-19128613D01*
X17907011Y-19128613D02*
X17921297Y-19135756D01*
X17957011Y-19242899D02*
X18071297Y-19242899D01*
X18107011Y-19128613D02*
X18107011Y-19278613D01*
X18107011Y-19135756D02*
X18121297Y-19128613D01*
X18121297Y-19128613D02*
X18149869Y-19128613D01*
X18149869Y-19128613D02*
X18164154Y-19135756D01*
X18164154Y-19135756D02*
X18171297Y-19142899D01*
X18171297Y-19142899D02*
X18178440Y-19157184D01*
X18178440Y-19157184D02*
X18178440Y-19200041D01*
X18178440Y-19200041D02*
X18171297Y-19214327D01*
X18171297Y-19214327D02*
X18164154Y-19221470D01*
X18164154Y-19221470D02*
X18149869Y-19228613D01*
X18149869Y-19228613D02*
X18121297Y-19228613D01*
X18121297Y-19228613D02*
X18107011Y-19221470D01*
X18307011Y-19221470D02*
X18292726Y-19228613D01*
X18292726Y-19228613D02*
X18264154Y-19228613D01*
X18264154Y-19228613D02*
X18249869Y-19221470D01*
X18249869Y-19221470D02*
X18242726Y-19214327D01*
X18242726Y-19214327D02*
X18235583Y-19200041D01*
X18235583Y-19200041D02*
X18235583Y-19157184D01*
X18235583Y-19157184D02*
X18242726Y-19142899D01*
X18242726Y-19142899D02*
X18249869Y-19135756D01*
X18249869Y-19135756D02*
X18264154Y-19128613D01*
X18264154Y-19128613D02*
X18292726Y-19128613D01*
X18292726Y-19128613D02*
X18307011Y-19135756D01*
X18371297Y-19228613D02*
X18371297Y-19078613D01*
X18371297Y-19135756D02*
X18385583Y-19128613D01*
X18385583Y-19128613D02*
X18414154Y-19128613D01*
X18414154Y-19128613D02*
X18428440Y-19135756D01*
X18428440Y-19135756D02*
X18435583Y-19142899D01*
X18435583Y-19142899D02*
X18442726Y-19157184D01*
X18442726Y-19157184D02*
X18442726Y-19200041D01*
X18442726Y-19200041D02*
X18435583Y-19214327D01*
X18435583Y-19214327D02*
X18428440Y-19221470D01*
X18428440Y-19221470D02*
X18414154Y-19228613D01*
X18414154Y-19228613D02*
X18385583Y-19228613D01*
X18385583Y-19228613D02*
X18371297Y-19221470D01*
D10*
D11*
X15940000Y-18740000D02*
X26740000Y-18740000D01*
D10*
D11*
X16078440Y-18951470D02*
X16099868Y-18958613D01*
X16099868Y-18958613D02*
X16135583Y-18958613D01*
X16135583Y-18958613D02*
X16149868Y-18951470D01*
X16149868Y-18951470D02*
X16157011Y-18944327D01*
X16157011Y-18944327D02*
X16164154Y-18930041D01*
X16164154Y-18930041D02*
X16164154Y-18915756D01*
X16164154Y-18915756D02*
X16157011Y-18901470D01*
X16157011Y-18901470D02*
X16149868Y-18894327D01*
X16149868Y-18894327D02*
X16135583Y-18887184D01*
X16135583Y-18887184D02*
X16107011Y-18880041D01*
X16107011Y-18880041D02*
X16092725Y-18872899D01*
X16092725Y-18872899D02*
X16085583Y-18865756D01*
X16085583Y-18865756D02*
X16078440Y-18851470D01*
X16078440Y-18851470D02*
X16078440Y-18837184D01*
X16078440Y-18837184D02*
X16085583Y-18822899D01*
X16085583Y-18822899D02*
X16092725Y-18815756D01*
X16092725Y-18815756D02*
X16107011Y-18808613D01*
X16107011Y-18808613D02*
X16142725Y-18808613D01*
X16142725Y-18808613D02*
X16164154Y-18815756D01*
X16228440Y-18958613D02*
X16228440Y-18808613D01*
X16292725Y-18958613D02*
X16292725Y-18880041D01*
X16292725Y-18880041D02*
X16285583Y-18865756D01*
X16285583Y-18865756D02*
X16271297Y-18858613D01*
X16271297Y-18858613D02*
X16249868Y-18858613D01*
X16249868Y-18858613D02*
X16235583Y-18865756D01*
X16235583Y-18865756D02*
X16228440Y-18872899D01*
X16421297Y-18951470D02*
X16407011Y-18958613D01*
X16407011Y-18958613D02*
X16378440Y-18958613D01*
X16378440Y-18958613D02*
X16364154Y-18951470D01*
X16364154Y-18951470D02*
X16357011Y-18937184D01*
X16357011Y-18937184D02*
X16357011Y-18880041D01*
X16357011Y-18880041D02*
X16364154Y-18865756D01*
X16364154Y-18865756D02*
X16378440Y-18858613D01*
X16378440Y-18858613D02*
X16407011Y-18858613D01*
X16407011Y-18858613D02*
X16421297Y-18865756D01*
X16421297Y-18865756D02*
X16428440Y-18880041D01*
X16428440Y-18880041D02*
X16428440Y-18894327D01*
X16428440Y-18894327D02*
X16357011Y-18908613D01*
X16549868Y-18951470D02*
X16535583Y-18958613D01*
X16535583Y-18958613D02*
X16507011Y-18958613D01*
X16507011Y-18958613D02*
X16492725Y-18951470D01*
X16492725Y-18951470D02*
X16485583Y-18937184D01*
X16485583Y-18937184D02*
X16485583Y-18880041D01*
X16485583Y-18880041D02*
X16492725Y-18865756D01*
X16492725Y-18865756D02*
X16507011Y-18858613D01*
X16507011Y-18858613D02*
X16535583Y-18858613D01*
X16535583Y-18858613D02*
X16549868Y-18865756D01*
X16549868Y-18865756D02*
X16557011Y-18880041D01*
X16557011Y-18880041D02*
X16557011Y-18894327D01*
X16557011Y-18894327D02*
X16485583Y-18908613D01*
X16599868Y-18858613D02*
X16657011Y-18858613D01*
X16621297Y-18808613D02*
X16621297Y-18937184D01*
X16621297Y-18937184D02*
X16628440Y-18951470D01*
X16628440Y-18951470D02*
X16642725Y-18958613D01*
X16642725Y-18958613D02*
X16657011Y-18958613D01*
X16707011Y-18944327D02*
X16714154Y-18951470D01*
X16714154Y-18951470D02*
X16707011Y-18958613D01*
X16707011Y-18958613D02*
X16699868Y-18951470D01*
X16699868Y-18951470D02*
X16707011Y-18944327D01*
X16707011Y-18944327D02*
X16707011Y-18958613D01*
X16707011Y-18865756D02*
X16714154Y-18872899D01*
X16714154Y-18872899D02*
X16707011Y-18880041D01*
X16707011Y-18880041D02*
X16699868Y-18872899D01*
X16699868Y-18872899D02*
X16707011Y-18865756D01*
X16707011Y-18865756D02*
X16707011Y-18880041D01*
D10*
D12*
X17619451Y-18657813D02*
X17619451Y-18507813D01*
X17619451Y-18507813D02*
X17676594Y-18507813D01*
X17676594Y-18507813D02*
X17690880Y-18514956D01*
X17690880Y-18514956D02*
X17698023Y-18522099D01*
X17698023Y-18522099D02*
X17705165Y-18536384D01*
X17705165Y-18536384D02*
X17705165Y-18557813D01*
X17705165Y-18557813D02*
X17698023Y-18572099D01*
X17698023Y-18572099D02*
X17690880Y-18579241D01*
X17690880Y-18579241D02*
X17676594Y-18586384D01*
X17676594Y-18586384D02*
X17619451Y-18586384D01*
X17833737Y-18657813D02*
X17833737Y-18579241D01*
X17833737Y-18579241D02*
X17826594Y-18564956D01*
X17826594Y-18564956D02*
X17812308Y-18557813D01*
X17812308Y-18557813D02*
X17783737Y-18557813D01*
X17783737Y-18557813D02*
X17769451Y-18564956D01*
X17833737Y-18650670D02*
X17819451Y-18657813D01*
X17819451Y-18657813D02*
X17783737Y-18657813D01*
X17783737Y-18657813D02*
X17769451Y-18650670D01*
X17769451Y-18650670D02*
X17762308Y-18636384D01*
X17762308Y-18636384D02*
X17762308Y-18622099D01*
X17762308Y-18622099D02*
X17769451Y-18607813D01*
X17769451Y-18607813D02*
X17783737Y-18600670D01*
X17783737Y-18600670D02*
X17819451Y-18600670D01*
X17819451Y-18600670D02*
X17833737Y-18593527D01*
X17905165Y-18557813D02*
X17905165Y-18657813D01*
X17905165Y-18572099D02*
X17912308Y-18564956D01*
X17912308Y-18564956D02*
X17926594Y-18557813D01*
X17926594Y-18557813D02*
X17948023Y-18557813D01*
X17948023Y-18557813D02*
X17962308Y-18564956D01*
X17962308Y-18564956D02*
X17969451Y-18579241D01*
X17969451Y-18579241D02*
X17969451Y-18657813D01*
X18019451Y-18557813D02*
X18076594Y-18557813D01*
X18040880Y-18507813D02*
X18040880Y-18636384D01*
X18040880Y-18636384D02*
X18048023Y-18650670D01*
X18048023Y-18650670D02*
X18062308Y-18657813D01*
X18062308Y-18657813D02*
X18076594Y-18657813D01*
X18119451Y-18650670D02*
X18133737Y-18657813D01*
X18133737Y-18657813D02*
X18162308Y-18657813D01*
X18162308Y-18657813D02*
X18176594Y-18650670D01*
X18176594Y-18650670D02*
X18183737Y-18636384D01*
X18183737Y-18636384D02*
X18183737Y-18629241D01*
X18183737Y-18629241D02*
X18176594Y-18614956D01*
X18176594Y-18614956D02*
X18162308Y-18607813D01*
X18162308Y-18607813D02*
X18140880Y-18607813D01*
X18140880Y-18607813D02*
X18126594Y-18600670D01*
X18126594Y-18600670D02*
X18119451Y-18586384D01*
X18119451Y-18586384D02*
X18119451Y-18579241D01*
X18119451Y-18579241D02*
X18126594Y-18564956D01*
X18126594Y-18564956D02*
X18140880Y-18557813D01*
X18140880Y-18557813D02*
X18162308Y-18557813D01*
X18162308Y-18557813D02*
X18176594Y-18564956D01*
X18340880Y-18557813D02*
X18398023Y-18557813D01*
X18362308Y-18657813D02*
X18362308Y-18529241D01*
X18362308Y-18529241D02*
X18369451Y-18514956D01*
X18369451Y-18514956D02*
X18383737Y-18507813D01*
X18383737Y-18507813D02*
X18398023Y-18507813D01*
X18469451Y-18657813D02*
X18455165Y-18650670D01*
X18455165Y-18650670D02*
X18448023Y-18643527D01*
X18448023Y-18643527D02*
X18440880Y-18629241D01*
X18440880Y-18629241D02*
X18440880Y-18586384D01*
X18440880Y-18586384D02*
X18448023Y-18572099D01*
X18448023Y-18572099D02*
X18455165Y-18564956D01*
X18455165Y-18564956D02*
X18469451Y-18557813D01*
X18469451Y-18557813D02*
X18490880Y-18557813D01*
X18490880Y-18557813D02*
X18505165Y-18564956D01*
X18505165Y-18564956D02*
X18512308Y-18572099D01*
X18512308Y-18572099D02*
X18519451Y-18586384D01*
X18519451Y-18586384D02*
X18519451Y-18629241D01*
X18519451Y-18629241D02*
X18512308Y-18643527D01*
X18512308Y-18643527D02*
X18505165Y-18650670D01*
X18505165Y-18650670D02*
X18490880Y-18657813D01*
X18490880Y-18657813D02*
X18469451Y-18657813D01*
X18583737Y-18657813D02*
X18583737Y-18557813D01*
X18583737Y-18586384D02*
X18590880Y-18572099D01*
X18590880Y-18572099D02*
X18598023Y-18564956D01*
X18598023Y-18564956D02*
X18612308Y-18557813D01*
X18612308Y-18557813D02*
X18626594Y-18557813D01*
X18840880Y-18579241D02*
X18862308Y-18586384D01*
X18862308Y-18586384D02*
X18869451Y-18593527D01*
X18869451Y-18593527D02*
X18876594Y-18607813D01*
X18876594Y-18607813D02*
X18876594Y-18629241D01*
X18876594Y-18629241D02*
X18869451Y-18643527D01*
X18869451Y-18643527D02*
X18862308Y-18650670D01*
X18862308Y-18650670D02*
X18848023Y-18657813D01*
X18848023Y-18657813D02*
X18790880Y-18657813D01*
X18790880Y-18657813D02*
X18790880Y-18507813D01*
X18790880Y-18507813D02*
X18840880Y-18507813D01*
X18840880Y-18507813D02*
X18855165Y-18514956D01*
X18855165Y-18514956D02*
X18862308Y-18522099D01*
X18862308Y-18522099D02*
X18869451Y-18536384D01*
X18869451Y-18536384D02*
X18869451Y-18550670D01*
X18869451Y-18550670D02*
X18862308Y-18564956D01*
X18862308Y-18564956D02*
X18855165Y-18572099D01*
X18855165Y-18572099D02*
X18840880Y-18579241D01*
X18840880Y-18579241D02*
X18790880Y-18579241D01*
X18940880Y-18657813D02*
X18940880Y-18557813D01*
X18940880Y-18507813D02*
X18933737Y-18514956D01*
X18933737Y-18514956D02*
X18940880Y-18522099D01*
X18940880Y-18522099D02*
X18948023Y-18514956D01*
X18948023Y-18514956D02*
X18940880Y-18507813D01*
X18940880Y-18507813D02*
X18940880Y-18522099D01*
X19012308Y-18657813D02*
X19012308Y-18557813D01*
X19012308Y-18586384D02*
X19019451Y-18572099D01*
X19019451Y-18572099D02*
X19026594Y-18564956D01*
X19026594Y-18564956D02*
X19040880Y-18557813D01*
X19040880Y-18557813D02*
X19055165Y-18557813D01*
X19169451Y-18657813D02*
X19169451Y-18507813D01*
X19169451Y-18650670D02*
X19155165Y-18657813D01*
X19155165Y-18657813D02*
X19126594Y-18657813D01*
X19126594Y-18657813D02*
X19112308Y-18650670D01*
X19112308Y-18650670D02*
X19105165Y-18643527D01*
X19105165Y-18643527D02*
X19098023Y-18629241D01*
X19098023Y-18629241D02*
X19098023Y-18586384D01*
X19098023Y-18586384D02*
X19105165Y-18572099D01*
X19105165Y-18572099D02*
X19112308Y-18564956D01*
X19112308Y-18564956D02*
X19126594Y-18557813D01*
X19126594Y-18557813D02*
X19155165Y-18557813D01*
X19155165Y-18557813D02*
X19169451Y-18564956D01*
X19233737Y-18650670D02*
X19248023Y-18657813D01*
X19248023Y-18657813D02*
X19276594Y-18657813D01*
X19276594Y-18657813D02*
X19290880Y-18650670D01*
X19290880Y-18650670D02*
X19298023Y-18636384D01*
X19298023Y-18636384D02*
X19298023Y-18629241D01*
X19298023Y-18629241D02*
X19290880Y-18614956D01*
X19290880Y-18614956D02*
X19276594Y-18607813D01*
X19276594Y-18607813D02*
X19255165Y-18607813D01*
X19255165Y-18607813D02*
X19240880Y-18600670D01*
X19240880Y-18600670D02*
X19233737Y-18586384D01*
X19233737Y-18586384D02*
X19233737Y-18579241D01*
X19233737Y-18579241D02*
X19240880Y-18564956D01*
X19240880Y-18564956D02*
X19255165Y-18557813D01*
X19255165Y-18557813D02*
X19276594Y-18557813D01*
X19276594Y-18557813D02*
X19290880Y-18564956D01*
D10*
D11*
X17940000Y-19740000D02*
X17940000Y-20040000D01*
D10*
D11*
X24340000Y-19740000D02*
X24340000Y-20390000D01*
D10*
D11*
X17441100Y-17199780D02*
X17441100Y-18739780D01*
D14*
X4300000Y-5900000D02*
X6350000Y-5900000D01*
X10750000Y-2350000D02*
G75*
G02*
X11850000Y-3450000I0J-1100000D01*
G01*
X11850000Y-6750000D02*
G75*
G02*
X10750000Y-7850000I-1100000J0D01*
G01*
X3700000Y-5100000D02*
X3700000Y-3450000D01*
X3450000Y-3400000D02*
X3650000Y-3400000D01*
X3950000Y-7850000D02*
G75*
G02*
X2850000Y-6750000I0J1100000D01*
G01*
X4100000Y-7850000D02*
X4100000Y-6100000D01*
X3400000Y-3450000D02*
X3400000Y-5100000D01*
X3450000Y-5150000D02*
X3650000Y-5150000D01*
X3650000Y-3400000D02*
G75*
G02*
X3700000Y-3450000I0J-50000D01*
G01*
X3700000Y-5100000D02*
G75*
G02*
X3650000Y-5150000I-50000J0D01*
G01*
X4100000Y-6100000D02*
G75*
G02*
X4300000Y-5900000I200000J0D01*
G01*
X10750000Y-7850000D02*
X6550000Y-7850000D01*
X3950000Y-2350000D02*
X10750000Y-2350000D01*
X3400000Y-3450000D02*
G75*
G02*
X3450000Y-3400000I50000J0D01*
G01*
X4100000Y-7850000D02*
X3950000Y-7850000D01*
X3450000Y-5150000D02*
G75*
G02*
X3400000Y-5100000I0J50000D01*
G01*
X2850000Y-6750000D02*
X2850000Y-3450000D01*
X6550000Y-7850000D02*
X6550000Y-6100000D01*
X2850000Y-3450000D02*
G75*
G02*
X3950000Y-2350000I1100000J0D01*
G01*
X6350000Y-5900000D02*
G75*
G02*
X6550000Y-6100000I0J-200000D01*
G01*
X11850000Y-3450000D02*
X11850000Y-6750000D01*
D11*
X3670000Y-5935000D02*
X3760000Y-5935000D01*
X3760000Y-6125000D01*
X3670000Y-6125000D01*
X3670000Y-5935000D01*
G36*
X3670000Y-5935000D02*
G01*
X3760000Y-5935000D01*
X3760000Y-6125000D01*
X3670000Y-6125000D01*
X3670000Y-5935000D01*
G37*
X3230000Y-5930000D02*
X3320000Y-5930000D01*
X3320000Y-6120000D01*
X3230000Y-6120000D01*
X3230000Y-5930000D01*
G36*
X3230000Y-5930000D02*
G01*
X3320000Y-5930000D01*
X3320000Y-6120000D01*
X3230000Y-6120000D01*
X3230000Y-5930000D01*
G37*
D10*
X4350000Y-2450000D02*
X4362700Y-2437300D01*
X4388100Y-2437300D01*
X4400800Y-2450000D01*
X4400800Y-2475400D01*
X4350000Y-2551600D01*
X4299200Y-2475400D01*
X4299200Y-2450000D01*
X4311900Y-2437300D01*
X4324600Y-2437300D01*
X4337300Y-2437300D01*
X4350000Y-2450000D01*
G36*
X4350000Y-2450000D02*
G01*
X4362700Y-2437300D01*
X4388100Y-2437300D01*
X4400800Y-2450000D01*
X4400800Y-2475400D01*
X4350000Y-2551600D01*
X4299200Y-2475400D01*
X4299200Y-2450000D01*
X4311900Y-2437300D01*
X4324600Y-2437300D01*
X4337300Y-2437300D01*
X4350000Y-2450000D01*
G37*
D15*
G36*
X3658914Y-5394845D02*
G01*
X3663942Y-5395524D01*
X3668350Y-5397944D01*
X3670699Y-5401351D01*
X3671622Y-5406419D01*
X3670996Y-5410903D01*
X3668350Y-5415212D01*
X3668142Y-5415401D01*
X3663624Y-5417701D01*
X3658507Y-5418290D01*
X3643730Y-5418290D01*
X3643730Y-5394842D01*
X3658507Y-5394842D01*
X3658914Y-5394845D01*
G37*
G36*
X3840663Y-5437047D02*
G01*
X3816434Y-5437047D01*
X3828475Y-5400558D01*
X3840663Y-5437047D01*
G37*
G36*
X3926784Y-5394872D02*
G01*
X3932232Y-5395443D01*
X3937108Y-5396741D01*
X3941979Y-5399115D01*
X3946102Y-5402438D01*
X3947860Y-5404426D01*
X3950672Y-5408969D01*
X3952363Y-5413565D01*
X3953337Y-5418741D01*
X3953601Y-5423639D01*
X3953571Y-5425318D01*
X3953008Y-5430816D01*
X3951726Y-5435722D01*
X3949383Y-5440606D01*
X3946102Y-5444717D01*
X3945142Y-5445616D01*
X3940832Y-5448632D01*
X3935774Y-5450720D01*
X3930734Y-5451786D01*
X3925122Y-5452142D01*
X3913862Y-5452142D01*
X3913862Y-5394842D01*
X3925122Y-5394842D01*
X3926784Y-5394872D01*
G37*
G36*
X4085710Y-5484111D02*
G01*
X3608268Y-5484111D01*
X3608268Y-5418290D01*
X3619379Y-5418290D01*
X3619379Y-5473000D01*
X3643730Y-5473000D01*
X3643730Y-5435484D01*
X3649445Y-5435484D01*
X3669815Y-5473000D01*
X3696828Y-5473000D01*
X3710628Y-5473000D01*
X3770809Y-5473000D01*
X3779211Y-5473000D01*
X3804271Y-5473000D01*
X3810132Y-5455805D01*
X3846818Y-5455805D01*
X3852704Y-5473000D01*
X3878056Y-5473000D01*
X3870584Y-5452142D01*
X3889511Y-5452142D01*
X3889511Y-5473000D01*
X3926392Y-5473000D01*
X3928301Y-5472976D01*
X3933855Y-5472612D01*
X3939150Y-5471813D01*
X3944186Y-5470577D01*
X3948962Y-5468905D01*
X3953479Y-5466796D01*
X3956326Y-5465161D01*
X3960907Y-5461920D01*
X3964975Y-5458198D01*
X3968532Y-5453994D01*
X3971577Y-5449308D01*
X3971969Y-5448600D01*
X3974366Y-5443463D01*
X3975935Y-5438813D01*
X3977055Y-5433935D01*
X3977728Y-5428827D01*
X3977952Y-5423492D01*
X3977946Y-5422579D01*
X3977647Y-5417245D01*
X3976900Y-5412154D01*
X3975704Y-5407304D01*
X3974061Y-5402696D01*
X3971577Y-5397627D01*
X3969901Y-5394902D01*
X3966571Y-5390511D01*
X3962736Y-5386599D01*
X3958396Y-5383166D01*
X3953552Y-5380212D01*
X3952083Y-5379458D01*
X3947495Y-5377487D01*
X3942631Y-5375955D01*
X3937493Y-5374860D01*
X3932080Y-5374203D01*
X3926392Y-5373984D01*
X3889511Y-5373984D01*
X3889511Y-5452142D01*
X3870584Y-5452142D01*
X3842495Y-5373740D01*
X3982202Y-5373740D01*
X4016225Y-5440198D01*
X4016225Y-5473000D01*
X4040576Y-5473000D01*
X4040576Y-5440198D01*
X4074599Y-5373740D01*
X4047732Y-5373740D01*
X4028608Y-5415310D01*
X4009361Y-5373740D01*
X3982202Y-5373740D01*
X3842495Y-5373740D01*
X3814773Y-5373740D01*
X3792092Y-5437047D01*
X3779211Y-5473000D01*
X3770809Y-5473000D01*
X3770809Y-5454242D01*
X3734979Y-5454242D01*
X3734979Y-5432358D01*
X3766902Y-5432358D01*
X3766902Y-5413600D01*
X3734979Y-5413600D01*
X3734979Y-5393279D01*
X3770809Y-5393279D01*
X3770809Y-5374521D01*
X3710628Y-5374521D01*
X3710628Y-5473000D01*
X3696828Y-5473000D01*
X3674138Y-5433628D01*
X3677993Y-5432253D01*
X3682558Y-5429930D01*
X3686909Y-5426649D01*
X3690429Y-5422662D01*
X3692026Y-5420191D01*
X3694219Y-5415485D01*
X3695535Y-5410447D01*
X3695973Y-5405076D01*
X3695957Y-5403990D01*
X3695400Y-5398752D01*
X3694045Y-5393838D01*
X3691895Y-5389249D01*
X3691098Y-5387943D01*
X3687911Y-5383974D01*
X3683909Y-5380597D01*
X3679609Y-5378063D01*
X3674707Y-5376091D01*
X3669892Y-5374880D01*
X3664646Y-5374179D01*
X3659703Y-5373984D01*
X3619379Y-5373984D01*
X3619379Y-5418290D01*
X3608268Y-5418290D01*
X3608268Y-5362629D01*
X4085710Y-5362629D01*
X4085710Y-5484111D01*
G37*
G36*
X3892673Y-5267047D02*
G01*
X3868444Y-5267047D01*
X3880485Y-5230558D01*
X3892673Y-5267047D01*
G37*
G36*
X3981056Y-5224845D02*
G01*
X3986084Y-5225524D01*
X3990492Y-5227944D01*
X3992841Y-5231351D01*
X3993765Y-5236419D01*
X3993138Y-5240903D01*
X3990492Y-5245212D01*
X3990284Y-5245401D01*
X3985767Y-5247701D01*
X3980649Y-5248290D01*
X3965872Y-5248290D01*
X3965872Y-5224842D01*
X3980649Y-5224842D01*
X3981056Y-5224845D01*
G37*
G36*
X4389241Y-5314893D02*
G01*
X3613578Y-5314893D01*
X3613578Y-5253443D01*
X3624689Y-5253443D01*
X3624714Y-5255265D01*
X3625083Y-5260578D01*
X3625896Y-5265661D01*
X3627151Y-5270513D01*
X3628849Y-5275136D01*
X3630991Y-5279528D01*
X3632644Y-5282302D01*
X3635909Y-5286781D01*
X3639649Y-5290784D01*
X3643863Y-5294309D01*
X3648552Y-5297358D01*
X3653631Y-5299861D01*
X3658996Y-5301749D01*
X3663821Y-5302878D01*
X3668856Y-5303556D01*
X3674100Y-5303782D01*
X3678393Y-5303637D01*
X3683539Y-5303049D01*
X3683771Y-5303000D01*
X3736064Y-5303000D01*
X3760415Y-5303000D01*
X3760415Y-5262358D01*
X3797027Y-5262358D01*
X3797027Y-5303000D01*
X3821378Y-5303000D01*
X3831221Y-5303000D01*
X3856280Y-5303000D01*
X3862142Y-5285805D01*
X3898828Y-5285805D01*
X3904714Y-5303000D01*
X3930066Y-5303000D01*
X3910465Y-5248290D01*
X3941521Y-5248290D01*
X3941521Y-5303000D01*
X3965872Y-5303000D01*
X3965872Y-5265484D01*
X3971587Y-5265484D01*
X3991957Y-5303000D01*
X4018971Y-5303000D01*
X3996280Y-5263628D01*
X4000135Y-5262253D01*
X4004700Y-5259930D01*
X4009051Y-5256649D01*
X4011881Y-5253443D01*
X4028081Y-5253443D01*
X4028106Y-5255265D01*
X4028476Y-5260578D01*
X4029292Y-5265661D01*
X4030552Y-5270513D01*
X4032257Y-5275136D01*
X4034407Y-5279528D01*
X4036072Y-5282302D01*
X4039361Y-5286781D01*
X4043127Y-5290784D01*
X4047370Y-5294309D01*
X4052090Y-5297358D01*
X4053522Y-5298136D01*
X4057964Y-5300168D01*
X4062626Y-5301749D01*
X4067508Y-5302878D01*
X4072609Y-5303556D01*
X4077931Y-5303782D01*
X4079454Y-5303763D01*
X4084627Y-5303409D01*
X4087128Y-5303000D01*
X4139456Y-5303000D01*
X4163807Y-5303000D01*
X4180684Y-5303000D01*
X4205035Y-5303000D01*
X4205035Y-5242257D01*
X4244773Y-5303000D01*
X4269124Y-5303000D01*
X4269124Y-5253443D01*
X4281214Y-5253443D01*
X4281239Y-5255265D01*
X4281610Y-5260578D01*
X4282425Y-5265661D01*
X4283685Y-5270513D01*
X4285390Y-5275136D01*
X4287540Y-5279528D01*
X4289206Y-5282302D01*
X4292495Y-5286781D01*
X4296261Y-5290784D01*
X4300504Y-5294309D01*
X4305223Y-5297358D01*
X4306655Y-5298136D01*
X4311097Y-5300168D01*
X4315759Y-5301749D01*
X4320641Y-5302878D01*
X4325743Y-5303556D01*
X4331064Y-5303782D01*
X4332587Y-5303763D01*
X4337760Y-5303409D01*
X4342690Y-5302603D01*
X4348027Y-5301130D01*
X4353046Y-5299068D01*
X4357707Y-5296517D01*
X4361943Y-5293603D01*
X4365754Y-5290325D01*
X4369142Y-5286685D01*
X4371035Y-5284258D01*
X4373988Y-5279740D01*
X4376352Y-5275029D01*
X4378130Y-5270125D01*
X4378130Y-5248290D01*
X4326546Y-5248290D01*
X4326546Y-5265484D01*
X4356636Y-5265484D01*
X4356461Y-5266009D01*
X4354346Y-5270827D01*
X4351583Y-5274872D01*
X4347795Y-5278429D01*
X4343313Y-5280988D01*
X4338196Y-5282484D01*
X4332994Y-5282923D01*
X4332198Y-5282916D01*
X4326927Y-5282436D01*
X4321551Y-5280975D01*
X4316865Y-5278541D01*
X4312868Y-5275132D01*
X4311157Y-5273084D01*
X4308418Y-5268422D01*
X4306771Y-5263724D01*
X4305822Y-5258449D01*
X4305565Y-5253468D01*
X4305592Y-5251861D01*
X4306116Y-5246558D01*
X4307305Y-5241756D01*
X4309481Y-5236880D01*
X4312526Y-5232658D01*
X4316294Y-5229239D01*
X4320635Y-5226796D01*
X4325550Y-5225331D01*
X4331040Y-5224842D01*
X4333095Y-5224910D01*
X4338032Y-5225723D01*
X4342690Y-5227627D01*
X4343599Y-5228171D01*
X4347526Y-5231547D01*
X4350262Y-5235687D01*
X4376469Y-5235687D01*
X4375949Y-5233792D01*
X4374007Y-5228423D01*
X4371493Y-5223525D01*
X4368407Y-5219097D01*
X4364749Y-5215140D01*
X4360520Y-5211653D01*
X4356622Y-5209148D01*
X4351589Y-5206703D01*
X4346168Y-5204869D01*
X4341354Y-5203807D01*
X4336271Y-5203170D01*
X4330918Y-5202958D01*
X4330016Y-5202964D01*
X4324734Y-5203266D01*
X4319678Y-5204018D01*
X4314846Y-5205223D01*
X4310240Y-5206879D01*
X4305150Y-5209382D01*
X4302412Y-5211061D01*
X4297989Y-5214384D01*
X4294036Y-5218196D01*
X4290553Y-5222496D01*
X4287540Y-5227285D01*
X4286774Y-5228732D01*
X4284773Y-5233224D01*
X4283216Y-5237942D01*
X4282104Y-5242884D01*
X4281437Y-5248051D01*
X4281214Y-5253443D01*
X4269124Y-5253443D01*
X4269124Y-5204521D01*
X4244773Y-5204521D01*
X4244773Y-5265533D01*
X4205035Y-5204521D01*
X4180684Y-5204521D01*
X4180684Y-5303000D01*
X4163807Y-5303000D01*
X4163807Y-5204521D01*
X4139456Y-5204521D01*
X4139456Y-5303000D01*
X4087128Y-5303000D01*
X4089557Y-5302603D01*
X4094893Y-5301130D01*
X4099913Y-5299068D01*
X4104573Y-5296517D01*
X4108809Y-5293603D01*
X4112621Y-5290325D01*
X4116008Y-5286685D01*
X4117902Y-5284258D01*
X4120854Y-5279740D01*
X4123219Y-5275029D01*
X4124996Y-5270125D01*
X4124996Y-5248290D01*
X4073412Y-5248290D01*
X4073412Y-5265484D01*
X4103503Y-5265484D01*
X4103327Y-5266009D01*
X4101213Y-5270827D01*
X4098450Y-5274872D01*
X4094661Y-5278429D01*
X4090180Y-5280988D01*
X4085063Y-5282484D01*
X4079860Y-5282923D01*
X4079064Y-5282916D01*
X4073794Y-5282436D01*
X4068418Y-5280975D01*
X4063731Y-5278541D01*
X4059735Y-5275132D01*
X4058023Y-5273084D01*
X4055285Y-5268422D01*
X4053637Y-5263724D01*
X4052689Y-5258449D01*
X4052432Y-5253468D01*
X4052459Y-5251861D01*
X4052982Y-5246558D01*
X4054172Y-5241756D01*
X4056347Y-5236880D01*
X4059393Y-5232658D01*
X4063160Y-5229239D01*
X4067502Y-5226796D01*
X4072417Y-5225331D01*
X4077906Y-5224842D01*
X4079962Y-5224910D01*
X4084899Y-5225723D01*
X4089557Y-5227627D01*
X4090466Y-5228171D01*
X4094393Y-5231547D01*
X4097128Y-5235687D01*
X4123336Y-5235687D01*
X4122815Y-5233792D01*
X4120873Y-5228423D01*
X4118359Y-5223525D01*
X4115274Y-5219097D01*
X4111616Y-5215140D01*
X4107387Y-5211653D01*
X4103489Y-5209148D01*
X4098456Y-5206703D01*
X4093035Y-5204869D01*
X4088221Y-5203807D01*
X4083137Y-5203170D01*
X4077784Y-5202958D01*
X4076882Y-5202964D01*
X4071601Y-5203266D01*
X4066544Y-5204018D01*
X4061713Y-5205223D01*
X4057107Y-5206879D01*
X4052017Y-5209382D01*
X4049278Y-5211061D01*
X4044856Y-5214384D01*
X4040903Y-5218196D01*
X4037420Y-5222496D01*
X4034407Y-5227285D01*
X4033641Y-5228732D01*
X4031639Y-5233224D01*
X4030082Y-5237942D01*
X4028970Y-5242884D01*
X4028303Y-5248051D01*
X4028081Y-5253443D01*
X4011881Y-5253443D01*
X4012571Y-5252662D01*
X4014169Y-5250191D01*
X4016361Y-5245485D01*
X4017677Y-5240447D01*
X4018116Y-5235076D01*
X4018100Y-5233990D01*
X4017542Y-5228752D01*
X4016188Y-5223838D01*
X4014037Y-5219249D01*
X4013240Y-5217943D01*
X4010053Y-5213974D01*
X4006051Y-5210597D01*
X4001751Y-5208063D01*
X3996849Y-5206091D01*
X3992034Y-5204880D01*
X3986789Y-5204179D01*
X3981846Y-5203984D01*
X3941521Y-5203984D01*
X3941521Y-5248290D01*
X3910465Y-5248290D01*
X3894504Y-5203740D01*
X3866783Y-5203740D01*
X3844102Y-5267047D01*
X3831221Y-5303000D01*
X3821378Y-5303000D01*
X3821378Y-5204521D01*
X3797027Y-5204521D01*
X3797027Y-5243600D01*
X3760415Y-5243600D01*
X3760415Y-5204521D01*
X3736064Y-5204521D01*
X3736064Y-5303000D01*
X3683771Y-5303000D01*
X3688438Y-5302010D01*
X3693994Y-5300166D01*
X3699196Y-5297671D01*
X3704044Y-5294525D01*
X3707029Y-5292104D01*
X3711023Y-5288074D01*
X3714436Y-5283564D01*
X3717269Y-5278576D01*
X3719187Y-5274053D01*
X3720701Y-5269197D01*
X3694396Y-5269197D01*
X3693202Y-5271419D01*
X3690026Y-5275522D01*
X3686043Y-5278649D01*
X3683621Y-5279915D01*
X3678745Y-5281441D01*
X3673807Y-5281897D01*
X3669167Y-5281526D01*
X3664357Y-5280191D01*
X3659573Y-5277529D01*
X3655879Y-5274130D01*
X3655051Y-5273136D01*
X3652273Y-5268755D01*
X3650349Y-5263727D01*
X3649368Y-5258796D01*
X3649040Y-5253370D01*
X3649067Y-5251766D01*
X3649581Y-5246474D01*
X3650750Y-5241683D01*
X3652887Y-5236819D01*
X3655879Y-5232609D01*
X3659083Y-5229583D01*
X3663793Y-5226784D01*
X3668537Y-5225328D01*
X3673807Y-5224842D01*
X3676328Y-5224956D01*
X3681431Y-5225987D01*
X3686043Y-5228091D01*
X3688288Y-5229653D01*
X3691836Y-5233306D01*
X3694396Y-5237543D01*
X3720701Y-5237543D01*
X3719841Y-5234594D01*
X3718085Y-5229944D01*
X3715445Y-5224802D01*
X3712225Y-5220137D01*
X3708425Y-5215949D01*
X3704044Y-5212239D01*
X3700028Y-5209566D01*
X3694886Y-5206955D01*
X3689389Y-5204997D01*
X3684538Y-5203864D01*
X3679442Y-5203185D01*
X3674100Y-5202958D01*
X3668856Y-5203184D01*
X3663821Y-5203861D01*
X3658996Y-5204991D01*
X3653631Y-5206879D01*
X3648552Y-5209382D01*
X3645814Y-5211061D01*
X3641397Y-5214384D01*
X3637454Y-5218196D01*
X3633985Y-5222496D01*
X3630991Y-5227285D01*
X3630228Y-5228732D01*
X3628234Y-5233224D01*
X3626683Y-5237942D01*
X3625576Y-5242884D01*
X3624911Y-5248051D01*
X3624689Y-5253443D01*
X3613578Y-5253443D01*
X3613578Y-5191847D01*
X4389241Y-5191847D01*
X4389241Y-5314893D01*
G37*
G36*
X9923300Y-6724850D02*
G01*
X9928191Y-6725328D01*
X9933226Y-6726784D01*
X9937668Y-6729211D01*
X9941518Y-6732609D01*
X9942378Y-6733597D01*
X9945266Y-6737961D01*
X9947265Y-6742981D01*
X9948285Y-6747912D01*
X9948625Y-6753345D01*
X9948597Y-6754938D01*
X9948063Y-6760199D01*
X9946848Y-6764977D01*
X9944627Y-6769845D01*
X9941518Y-6774082D01*
X9941069Y-6774562D01*
X9937145Y-6777860D01*
X9932629Y-6780180D01*
X9927520Y-6781523D01*
X9922565Y-6781897D01*
X9921821Y-6781890D01*
X9916884Y-6781412D01*
X9911812Y-6779956D01*
X9907347Y-6777528D01*
X9903489Y-6774130D01*
X9902629Y-6773139D01*
X9899741Y-6768763D01*
X9897742Y-6763731D01*
X9896722Y-6758789D01*
X9896382Y-6753345D01*
X9896409Y-6751724D01*
X9896944Y-6746387D01*
X9898159Y-6741573D01*
X9900380Y-6736712D01*
X9903489Y-6732536D01*
X9903938Y-6732062D01*
X9907872Y-6728817D01*
X9912413Y-6726533D01*
X9917561Y-6725210D01*
X9922565Y-6724842D01*
X9923300Y-6724850D01*
G37*
G36*
X9827045Y-6723282D02*
G01*
X9832212Y-6723998D01*
X9836713Y-6726552D01*
X9839324Y-6730794D01*
X9840059Y-6735809D01*
X9839324Y-6740805D01*
X9836713Y-6745041D01*
X9836060Y-6745622D01*
X9831555Y-6747753D01*
X9826626Y-6748290D01*
X9813730Y-6748290D01*
X9813730Y-6723279D01*
X9826626Y-6723279D01*
X9827045Y-6723282D01*
G37*
G36*
X10249207Y-6724845D02*
G01*
X10254235Y-6725524D01*
X10258643Y-6727944D01*
X10260992Y-6731351D01*
X10261916Y-6736419D01*
X10261289Y-6740903D01*
X10258643Y-6745212D01*
X10258435Y-6745401D01*
X10253917Y-6747700D01*
X10248800Y-6748290D01*
X10234023Y-6748290D01*
X10234023Y-6724842D01*
X10248800Y-6724842D01*
X10249207Y-6724845D01*
G37*
G36*
X10298233Y-6814893D02*
G01*
X9778268Y-6814893D01*
X9778268Y-6748290D01*
X9789379Y-6748290D01*
X9789379Y-6803000D01*
X9813730Y-6803000D01*
X9813730Y-6767047D01*
X9828482Y-6767047D01*
X9833532Y-6766842D01*
X9838849Y-6766103D01*
X9843680Y-6764827D01*
X9848535Y-6762749D01*
X9849529Y-6762198D01*
X9854007Y-6759129D01*
X9857665Y-6755535D01*
X9859207Y-6753296D01*
X9872031Y-6753296D01*
X9872031Y-6753345D01*
X9872057Y-6755090D01*
X9872455Y-6760335D01*
X9873330Y-6765380D01*
X9874683Y-6770224D01*
X9876513Y-6774866D01*
X9878821Y-6779308D01*
X9881066Y-6782801D01*
X9884598Y-6787270D01*
X9888583Y-6791248D01*
X9893022Y-6794735D01*
X9897188Y-6797333D01*
X9898644Y-6798114D01*
X9903120Y-6800154D01*
X9907757Y-6801741D01*
X9912556Y-6802875D01*
X9917516Y-6803555D01*
X9922638Y-6803781D01*
X9923504Y-6803775D01*
X9928602Y-6803473D01*
X9933530Y-6802717D01*
X9938289Y-6801508D01*
X9943625Y-6799525D01*
X9948015Y-6797333D01*
X9951493Y-6795193D01*
X9955969Y-6791776D01*
X9959988Y-6787868D01*
X9963548Y-6783469D01*
X9966235Y-6779308D01*
X9967051Y-6777850D01*
X9969184Y-6773341D01*
X9970843Y-6768631D01*
X9972028Y-6763721D01*
X9972739Y-6758609D01*
X9972976Y-6753296D01*
X9972950Y-6751504D01*
X9972560Y-6746262D01*
X9971700Y-6741227D01*
X9970372Y-6736398D01*
X9968574Y-6731775D01*
X9966308Y-6727358D01*
X9964112Y-6723886D01*
X9960632Y-6719441D01*
X9956680Y-6715479D01*
X9952256Y-6712002D01*
X9948088Y-6709406D01*
X9946635Y-6708625D01*
X9942165Y-6706585D01*
X9937531Y-6704998D01*
X9935510Y-6704521D01*
X9980841Y-6704521D01*
X10005778Y-6803000D01*
X10034745Y-6803000D01*
X10050987Y-6738178D01*
X10066668Y-6803000D01*
X10095659Y-6803000D01*
X10133957Y-6803000D01*
X10194138Y-6803000D01*
X10194138Y-6784242D01*
X10158308Y-6784242D01*
X10158308Y-6762358D01*
X10190230Y-6762358D01*
X10190230Y-6748290D01*
X10209672Y-6748290D01*
X10209672Y-6803000D01*
X10234023Y-6803000D01*
X10234023Y-6765484D01*
X10239738Y-6765484D01*
X10260108Y-6803000D01*
X10287121Y-6803000D01*
X10264431Y-6763628D01*
X10268286Y-6762253D01*
X10272851Y-6759930D01*
X10277202Y-6756649D01*
X10280722Y-6752661D01*
X10282319Y-6750191D01*
X10284512Y-6745485D01*
X10285828Y-6740446D01*
X10286267Y-6735076D01*
X10286251Y-6733989D01*
X10285693Y-6728752D01*
X10284339Y-6723838D01*
X10282188Y-6719249D01*
X10281391Y-6717943D01*
X10278204Y-6713974D01*
X10274202Y-6710597D01*
X10269902Y-6708063D01*
X10265000Y-6706091D01*
X10260185Y-6704880D01*
X10254939Y-6704179D01*
X10249997Y-6703984D01*
X10209672Y-6703984D01*
X10209672Y-6748290D01*
X10190230Y-6748290D01*
X10190230Y-6743600D01*
X10158308Y-6743600D01*
X10158308Y-6723279D01*
X10194138Y-6723279D01*
X10194138Y-6704521D01*
X10133957Y-6704521D01*
X10133957Y-6803000D01*
X10095659Y-6803000D01*
X10121256Y-6704521D01*
X10095513Y-6704521D01*
X10081225Y-6776206D01*
X10064421Y-6704521D01*
X10038116Y-6704521D01*
X10020604Y-6776206D01*
X10006462Y-6704521D01*
X9980841Y-6704521D01*
X9935510Y-6704521D01*
X9932731Y-6703865D01*
X9927767Y-6703185D01*
X9922638Y-6702958D01*
X9920913Y-6702983D01*
X9915845Y-6703361D01*
X9910938Y-6704192D01*
X9906193Y-6705477D01*
X9901610Y-6707215D01*
X9897188Y-6709406D01*
X9893693Y-6711544D01*
X9889190Y-6714953D01*
X9885139Y-6718845D01*
X9881543Y-6723222D01*
X9878821Y-6727358D01*
X9877998Y-6728807D01*
X9875850Y-6733293D01*
X9874179Y-6737985D01*
X9872986Y-6742883D01*
X9872269Y-6747986D01*
X9872031Y-6753296D01*
X9859207Y-6753296D01*
X9860502Y-6751416D01*
X9860976Y-6750534D01*
X9862884Y-6745952D01*
X9864029Y-6741085D01*
X9864410Y-6735931D01*
X9864374Y-6734227D01*
X9863837Y-6729339D01*
X9862482Y-6724296D01*
X9860331Y-6719664D01*
X9859535Y-6718363D01*
X9856364Y-6714413D01*
X9852396Y-6711060D01*
X9848144Y-6708551D01*
X9843281Y-6706603D01*
X9838475Y-6705407D01*
X9833214Y-6704714D01*
X9828238Y-6704521D01*
X9789379Y-6704521D01*
X9789379Y-6748290D01*
X9778268Y-6748290D01*
X9778268Y-6691847D01*
X10298233Y-6691847D01*
X10298233Y-6814893D01*
G37*
G36*
X4923737Y-2597687D02*
G01*
X4921001Y-2593547D01*
X4917074Y-2590171D01*
X4916165Y-2589627D01*
X4911507Y-2587723D01*
X4906570Y-2586910D01*
X4904515Y-2586842D01*
X4899026Y-2587331D01*
X4894110Y-2588796D01*
X4889769Y-2591239D01*
X4886001Y-2594658D01*
X4882956Y-2598880D01*
X4880781Y-2603756D01*
X4879591Y-2608558D01*
X4879068Y-2613861D01*
X4879040Y-2615468D01*
X4879297Y-2620449D01*
X4880246Y-2625724D01*
X4881893Y-2630422D01*
X4884632Y-2635084D01*
X4886343Y-2637132D01*
X4890340Y-2640541D01*
X4895026Y-2642975D01*
X4900403Y-2644436D01*
X4905673Y-2644916D01*
X4906469Y-2644923D01*
X4911672Y-2644484D01*
X4916788Y-2642988D01*
X4921270Y-2640429D01*
X4925059Y-2636872D01*
X4927822Y-2632827D01*
X4929936Y-2628009D01*
X4930112Y-2627484D01*
X4900021Y-2627484D01*
X4900021Y-2610290D01*
X4951605Y-2610290D01*
X4951605Y-2632125D01*
X4949828Y-2637029D01*
X4947463Y-2641740D01*
X4944511Y-2646258D01*
X4942617Y-2648685D01*
X4939230Y-2652325D01*
X4935418Y-2655603D01*
X4931182Y-2658517D01*
X4926521Y-2661068D01*
X4921502Y-2663130D01*
X4916165Y-2664603D01*
X4911235Y-2665409D01*
X4906062Y-2665763D01*
X4904539Y-2665782D01*
X4899218Y-2665556D01*
X4894116Y-2664878D01*
X4889235Y-2663749D01*
X4884573Y-2662168D01*
X4880130Y-2660136D01*
X4878699Y-2659358D01*
X4873979Y-2656309D01*
X4869736Y-2652784D01*
X4865970Y-2648781D01*
X4862681Y-2644302D01*
X4861015Y-2641528D01*
X4858866Y-2637136D01*
X4857161Y-2632513D01*
X4855900Y-2627661D01*
X4855085Y-2622578D01*
X4854714Y-2617265D01*
X4854689Y-2615443D01*
X4854912Y-2610051D01*
X4855579Y-2604884D01*
X4856691Y-2599942D01*
X4858248Y-2595224D01*
X4860249Y-2590732D01*
X4861015Y-2589285D01*
X4864029Y-2584496D01*
X4867512Y-2580196D01*
X4871464Y-2576384D01*
X4875887Y-2573061D01*
X4878625Y-2571382D01*
X4883715Y-2568879D01*
X4888322Y-2567223D01*
X4893153Y-2566018D01*
X4898209Y-2565266D01*
X4903491Y-2564964D01*
X4904393Y-2564958D01*
X4909746Y-2565170D01*
X4914829Y-2565807D01*
X4919644Y-2566869D01*
X4925065Y-2568703D01*
X4930097Y-2571148D01*
X4933995Y-2573653D01*
X4938225Y-2577140D01*
X4941882Y-2581097D01*
X4944968Y-2585525D01*
X4947482Y-2590423D01*
X4949424Y-2595792D01*
X4949944Y-2597687D01*
X4923737Y-2597687D01*
G37*
G36*
X4990415Y-2560269D02*
G01*
X4990415Y-2665000D01*
X4966064Y-2665000D01*
X4966064Y-2560269D01*
X4990415Y-2560269D01*
G37*
G36*
X5046606Y-2586293D02*
G01*
X5051968Y-2587129D01*
X5057045Y-2588572D01*
X5061839Y-2590622D01*
X5062418Y-2590921D01*
X5066801Y-2593606D01*
X5070692Y-2596826D01*
X5074091Y-2600579D01*
X5076999Y-2604867D01*
X5079329Y-2609600D01*
X5080993Y-2614686D01*
X5081991Y-2620126D01*
X5082319Y-2625177D01*
X5082324Y-2625921D01*
X5082066Y-2631011D01*
X5081138Y-2636496D01*
X5079535Y-2641626D01*
X5077258Y-2646403D01*
X5076926Y-2646975D01*
X5073992Y-2651254D01*
X5070564Y-2655004D01*
X5066640Y-2658227D01*
X5062223Y-2660921D01*
X5057422Y-2663048D01*
X5052349Y-2664566D01*
X5047005Y-2665478D01*
X5042106Y-2665777D01*
X5041389Y-2665782D01*
X5036476Y-2665549D01*
X5031131Y-2664714D01*
X5026073Y-2663271D01*
X5021302Y-2661220D01*
X5020726Y-2660921D01*
X5016380Y-2658231D01*
X5012525Y-2655023D01*
X5009162Y-2651295D01*
X5006291Y-2647048D01*
X5003994Y-2642339D01*
X5002353Y-2637248D01*
X5001368Y-2631775D01*
X5001045Y-2626674D01*
X5001040Y-2625921D01*
X5025391Y-2625921D01*
X5025834Y-2631220D01*
X5027347Y-2636101D01*
X5029934Y-2639990D01*
X5034028Y-2643184D01*
X5038887Y-2644750D01*
X5041389Y-2644923D01*
X5046266Y-2644229D01*
X5050898Y-2641912D01*
X5053112Y-2639990D01*
X5056074Y-2635698D01*
X5057588Y-2630727D01*
X5057973Y-2625921D01*
X5057512Y-2620622D01*
X5055943Y-2615741D01*
X5053259Y-2611853D01*
X5049086Y-2608658D01*
X5044187Y-2607093D01*
X5041682Y-2606919D01*
X5036743Y-2607603D01*
X5032152Y-2609886D01*
X5030007Y-2611779D01*
X5027194Y-2616046D01*
X5025756Y-2621050D01*
X5025391Y-2625921D01*
X5001040Y-2625921D01*
X5001295Y-2620831D01*
X5002210Y-2615347D01*
X5003790Y-2610216D01*
X5006037Y-2605440D01*
X5006364Y-2604867D01*
X5009272Y-2600579D01*
X5012672Y-2596826D01*
X5016563Y-2593606D01*
X5020946Y-2590921D01*
X5025713Y-2588795D01*
X5030758Y-2587276D01*
X5036081Y-2586364D01*
X5040966Y-2586065D01*
X5041682Y-2586061D01*
X5046606Y-2586293D01*
G37*
G36*
X5120743Y-2598248D02*
G01*
X5123906Y-2594166D01*
X5127684Y-2591005D01*
X5130269Y-2589431D01*
X5134761Y-2587512D01*
X5139675Y-2586390D01*
X5144508Y-2586061D01*
X5149749Y-2586445D01*
X5154700Y-2587599D01*
X5159361Y-2589521D01*
X5161825Y-2590921D01*
X5165923Y-2593974D01*
X5169507Y-2597691D01*
X5172578Y-2602073D01*
X5174061Y-2604794D01*
X5176038Y-2609494D01*
X5177450Y-2614558D01*
X5178297Y-2619985D01*
X5178575Y-2625031D01*
X5178580Y-2625775D01*
X5178364Y-2630864D01*
X5177587Y-2636349D01*
X5176246Y-2641480D01*
X5174339Y-2646256D01*
X5174061Y-2646828D01*
X5171611Y-2651122D01*
X5168370Y-2655329D01*
X5164614Y-2658875D01*
X5161825Y-2660872D01*
X5157325Y-2663245D01*
X5152535Y-2664842D01*
X5147455Y-2665662D01*
X5144508Y-2665782D01*
X5139612Y-2665464D01*
X5134695Y-2664383D01*
X5130269Y-2662533D01*
X5126078Y-2659795D01*
X5122376Y-2656146D01*
X5120743Y-2653887D01*
X5120743Y-2665000D01*
X5096392Y-2665000D01*
X5096392Y-2625921D01*
X5120743Y-2625921D01*
X5121215Y-2631069D01*
X5122826Y-2635895D01*
X5125579Y-2639843D01*
X5129523Y-2642939D01*
X5134471Y-2644680D01*
X5137425Y-2644923D01*
X5142357Y-2644199D01*
X5147049Y-2641778D01*
X5149295Y-2639770D01*
X5152302Y-2635374D01*
X5153839Y-2630446D01*
X5154229Y-2625775D01*
X5153754Y-2620636D01*
X5152136Y-2615843D01*
X5149368Y-2611950D01*
X5145422Y-2608884D01*
X5140426Y-2607160D01*
X5137425Y-2606919D01*
X5132485Y-2607637D01*
X5127807Y-2610035D01*
X5125579Y-2612024D01*
X5122632Y-2616359D01*
X5121126Y-2621257D01*
X5120743Y-2625921D01*
X5096392Y-2625921D01*
X5096392Y-2560269D01*
X5120743Y-2560269D01*
X5120743Y-2598248D01*
G37*
G36*
X5224599Y-2586387D02*
G01*
X5229599Y-2587502D01*
X5234121Y-2589407D01*
X5238387Y-2592187D01*
X5242093Y-2595849D01*
X5243695Y-2598102D01*
X5243695Y-2586842D01*
X5268046Y-2586842D01*
X5268046Y-2665000D01*
X5243695Y-2665000D01*
X5243695Y-2653740D01*
X5240406Y-2657783D01*
X5236568Y-2660907D01*
X5233974Y-2662460D01*
X5229453Y-2664351D01*
X5224452Y-2665457D01*
X5219491Y-2665782D01*
X5214278Y-2665393D01*
X5209327Y-2664228D01*
X5204640Y-2662287D01*
X5202149Y-2660872D01*
X5197998Y-2657767D01*
X5194365Y-2654000D01*
X5191249Y-2649573D01*
X5189742Y-2646828D01*
X5187754Y-2642096D01*
X5186335Y-2637010D01*
X5185483Y-2631569D01*
X5185203Y-2626518D01*
X5185199Y-2625775D01*
X5209550Y-2625775D01*
X5210034Y-2630930D01*
X5211685Y-2635780D01*
X5214508Y-2639770D01*
X5218547Y-2642910D01*
X5223191Y-2644601D01*
X5226622Y-2644923D01*
X5231666Y-2644209D01*
X5236098Y-2642066D01*
X5238712Y-2639843D01*
X5241749Y-2635492D01*
X5243301Y-2630587D01*
X5243695Y-2625921D01*
X5243208Y-2620775D01*
X5241549Y-2615958D01*
X5238712Y-2612024D01*
X5234688Y-2608913D01*
X5230053Y-2607238D01*
X5226622Y-2606919D01*
X5221576Y-2607627D01*
X5217134Y-2609749D01*
X5214508Y-2611950D01*
X5211487Y-2616241D01*
X5209942Y-2621116D01*
X5209550Y-2625775D01*
X5185199Y-2625775D01*
X5185416Y-2620688D01*
X5186197Y-2615216D01*
X5187546Y-2610107D01*
X5189462Y-2605362D01*
X5189742Y-2604794D01*
X5192230Y-2600538D01*
X5195518Y-2596378D01*
X5199324Y-2592882D01*
X5202149Y-2590921D01*
X5206702Y-2588572D01*
X5211541Y-2586991D01*
X5216666Y-2586179D01*
X5219637Y-2586061D01*
X5224599Y-2586387D01*
G37*
G36*
X5310862Y-2560269D02*
G01*
X5310862Y-2665000D01*
X5286511Y-2665000D01*
X5286511Y-2560269D01*
X5310862Y-2560269D01*
G37*
G36*
X5392048Y-2665782D02*
G01*
X5386837Y-2665565D01*
X5381900Y-2664915D01*
X5376674Y-2663665D01*
X5372851Y-2662313D01*
X5368352Y-2660100D01*
X5363983Y-2657024D01*
X5360278Y-2653299D01*
X5359295Y-2652055D01*
X5356616Y-2647524D01*
X5354929Y-2642450D01*
X5354260Y-2637417D01*
X5354215Y-2635642D01*
X5379079Y-2635642D01*
X5380343Y-2640533D01*
X5382962Y-2644117D01*
X5387305Y-2646467D01*
X5391560Y-2647024D01*
X5396432Y-2646407D01*
X5400157Y-2644557D01*
X5402957Y-2640509D01*
X5403332Y-2637742D01*
X5401945Y-2632939D01*
X5400865Y-2631661D01*
X5396739Y-2628662D01*
X5394808Y-2627729D01*
X5390151Y-2625951D01*
X5385417Y-2624433D01*
X5384599Y-2624187D01*
X5379503Y-2622525D01*
X5374490Y-2620678D01*
X5369762Y-2618646D01*
X5368992Y-2618276D01*
X5364701Y-2615650D01*
X5360877Y-2612240D01*
X5358587Y-2609532D01*
X5356098Y-2605134D01*
X5354732Y-2600410D01*
X5354219Y-2594993D01*
X5354215Y-2594414D01*
X5354564Y-2589449D01*
X5355852Y-2584189D01*
X5358088Y-2579502D01*
X5361274Y-2575387D01*
X5364131Y-2572798D01*
X5368769Y-2569743D01*
X5373984Y-2567439D01*
X5378914Y-2566061D01*
X5384267Y-2565234D01*
X5390045Y-2564958D01*
X5394967Y-2565146D01*
X5400464Y-2565867D01*
X5405517Y-2567129D01*
X5410125Y-2568933D01*
X5414940Y-2571720D01*
X5416204Y-2572652D01*
X5420068Y-2576308D01*
X5422982Y-2580543D01*
X5424948Y-2585358D01*
X5425965Y-2590753D01*
X5426120Y-2594096D01*
X5401110Y-2594096D01*
X5400059Y-2589313D01*
X5397788Y-2586500D01*
X5393440Y-2584249D01*
X5389215Y-2583716D01*
X5384296Y-2584622D01*
X5381985Y-2586036D01*
X5379444Y-2590432D01*
X5379225Y-2592729D01*
X5380640Y-2597469D01*
X5383695Y-2600227D01*
X5388153Y-2602462D01*
X5392707Y-2604281D01*
X5397641Y-2605991D01*
X5402704Y-2607797D01*
X5407667Y-2609754D01*
X5412322Y-2611846D01*
X5413077Y-2612219D01*
X5417302Y-2614813D01*
X5421073Y-2618163D01*
X5423336Y-2620816D01*
X5425811Y-2625068D01*
X5427259Y-2630099D01*
X5427683Y-2635349D01*
X5427268Y-2640480D01*
X5426023Y-2645311D01*
X5423948Y-2649842D01*
X5423433Y-2650712D01*
X5420403Y-2654755D01*
X5416623Y-2658245D01*
X5412095Y-2661182D01*
X5411099Y-2661703D01*
X5406333Y-2663674D01*
X5401104Y-2665001D01*
X5396067Y-2665638D01*
X5392048Y-2665782D01*
G37*
G36*
X5437160Y-2625921D02*
G01*
X5437397Y-2620778D01*
X5438109Y-2615927D01*
X5439503Y-2610740D01*
X5441518Y-2605936D01*
X5442118Y-2604794D01*
X5444853Y-2600538D01*
X5448077Y-2596807D01*
X5451790Y-2593602D01*
X5455991Y-2590921D01*
X5460596Y-2588795D01*
X5465523Y-2587276D01*
X5470769Y-2586364D01*
X5476336Y-2586061D01*
X5481680Y-2586332D01*
X5486684Y-2587146D01*
X5492092Y-2588782D01*
X5497037Y-2591156D01*
X5500907Y-2593779D01*
X5504909Y-2597458D01*
X5508258Y-2601743D01*
X5510956Y-2606633D01*
X5512748Y-2611307D01*
X5513876Y-2615541D01*
X5488378Y-2615541D01*
X5485786Y-2610994D01*
X5481569Y-2607938D01*
X5476494Y-2606927D01*
X5475921Y-2606919D01*
X5471018Y-2607733D01*
X5466712Y-2610431D01*
X5465419Y-2611853D01*
X5463037Y-2616132D01*
X5461820Y-2621105D01*
X5461511Y-2625921D01*
X5461892Y-2631233D01*
X5463194Y-2636123D01*
X5465419Y-2640014D01*
X5469364Y-2643370D01*
X5474320Y-2644847D01*
X5475921Y-2644923D01*
X5481115Y-2644081D01*
X5485462Y-2641210D01*
X5488172Y-2636832D01*
X5488378Y-2636301D01*
X5513876Y-2636301D01*
X5512481Y-2641251D01*
X5510603Y-2645787D01*
X5507802Y-2650555D01*
X5504345Y-2654761D01*
X5500858Y-2657917D01*
X5496287Y-2660981D01*
X5491272Y-2663293D01*
X5485813Y-2664852D01*
X5480780Y-2665590D01*
X5476336Y-2665782D01*
X5471448Y-2665549D01*
X5466161Y-2664714D01*
X5461195Y-2663271D01*
X5456549Y-2661220D01*
X5455991Y-2660921D01*
X5451790Y-2658231D01*
X5448077Y-2655023D01*
X5444853Y-2651295D01*
X5442118Y-2647048D01*
X5439949Y-2642339D01*
X5438399Y-2637248D01*
X5437470Y-2631775D01*
X5437165Y-2626674D01*
X5437160Y-2625921D01*
G37*
G36*
X5561263Y-2586387D02*
G01*
X5566264Y-2587502D01*
X5570785Y-2589407D01*
X5575051Y-2592187D01*
X5578758Y-2595849D01*
X5580359Y-2598102D01*
X5580359Y-2586842D01*
X5604710Y-2586842D01*
X5604710Y-2665000D01*
X5580359Y-2665000D01*
X5580359Y-2653740D01*
X5577070Y-2657783D01*
X5573232Y-2660907D01*
X5570639Y-2662460D01*
X5566117Y-2664351D01*
X5561117Y-2665457D01*
X5556155Y-2665782D01*
X5550942Y-2665393D01*
X5545992Y-2664228D01*
X5541304Y-2662287D01*
X5538814Y-2660872D01*
X5534662Y-2657767D01*
X5531029Y-2654000D01*
X5527913Y-2649573D01*
X5526406Y-2646828D01*
X5524419Y-2642096D01*
X5522999Y-2637010D01*
X5522147Y-2631569D01*
X5521868Y-2626518D01*
X5521863Y-2625775D01*
X5546214Y-2625775D01*
X5546698Y-2630930D01*
X5548350Y-2635780D01*
X5551172Y-2639770D01*
X5555212Y-2642910D01*
X5559855Y-2644601D01*
X5563287Y-2644923D01*
X5568330Y-2644209D01*
X5572762Y-2642066D01*
X5575377Y-2639843D01*
X5578413Y-2635492D01*
X5579965Y-2630587D01*
X5580359Y-2625921D01*
X5579873Y-2620775D01*
X5578214Y-2615958D01*
X5575377Y-2612024D01*
X5571353Y-2608913D01*
X5566717Y-2607238D01*
X5563287Y-2606919D01*
X5558240Y-2607627D01*
X5553798Y-2609749D01*
X5551172Y-2611950D01*
X5548151Y-2616241D01*
X5546606Y-2621116D01*
X5546214Y-2625775D01*
X5521863Y-2625775D01*
X5522081Y-2620688D01*
X5522861Y-2615216D01*
X5524210Y-2610107D01*
X5526127Y-2605362D01*
X5526406Y-2604794D01*
X5528894Y-2600538D01*
X5532183Y-2596378D01*
X5535989Y-2592882D01*
X5538814Y-2590921D01*
X5543367Y-2588572D01*
X5548206Y-2586991D01*
X5553331Y-2586179D01*
X5556301Y-2586061D01*
X5561263Y-2586387D01*
G37*
G36*
X5657613Y-2642896D02*
G01*
X5674564Y-2586842D01*
X5700038Y-2586842D01*
X5672317Y-2665000D01*
X5642788Y-2665000D01*
X5615066Y-2586842D01*
X5640687Y-2586842D01*
X5657613Y-2642896D01*
G37*
G36*
X5750267Y-2586360D02*
G01*
X5755457Y-2587258D01*
X5760330Y-2588753D01*
X5764885Y-2590848D01*
X5769052Y-2593486D01*
X5773164Y-2597066D01*
X5776665Y-2601296D01*
X5778660Y-2604477D01*
X5780829Y-2609093D01*
X5782379Y-2614075D01*
X5783308Y-2619424D01*
X5783613Y-2624405D01*
X5783618Y-2625140D01*
X5783404Y-2630136D01*
X5783203Y-2632174D01*
X5729152Y-2632174D01*
X5730326Y-2637253D01*
X5733099Y-2641398D01*
X5733841Y-2642066D01*
X5738130Y-2644502D01*
X5743255Y-2645447D01*
X5744002Y-2645461D01*
X5749060Y-2644807D01*
X5753731Y-2642297D01*
X5756458Y-2638768D01*
X5781811Y-2638768D01*
X5780282Y-2643429D01*
X5777889Y-2648214D01*
X5775068Y-2652254D01*
X5774752Y-2652641D01*
X5771309Y-2656228D01*
X5767360Y-2659295D01*
X5762905Y-2661842D01*
X5761954Y-2662289D01*
X5756979Y-2664131D01*
X5752192Y-2665205D01*
X5747112Y-2665727D01*
X5744759Y-2665782D01*
X5739867Y-2665549D01*
X5734567Y-2664714D01*
X5729580Y-2663271D01*
X5724903Y-2661220D01*
X5724340Y-2660921D01*
X5720115Y-2658231D01*
X5716378Y-2655023D01*
X5713130Y-2651295D01*
X5710370Y-2647048D01*
X5708169Y-2642339D01*
X5706596Y-2637248D01*
X5705653Y-2631775D01*
X5705343Y-2626674D01*
X5705338Y-2625921D01*
X5705576Y-2620778D01*
X5705968Y-2618105D01*
X5729299Y-2618105D01*
X5759267Y-2618105D01*
X5758463Y-2613261D01*
X5755817Y-2609128D01*
X5755066Y-2608433D01*
X5750666Y-2605839D01*
X5745727Y-2604850D01*
X5744564Y-2604819D01*
X5739650Y-2605482D01*
X5735194Y-2607667D01*
X5734403Y-2608287D01*
X5731226Y-2612159D01*
X5729509Y-2616936D01*
X5729299Y-2618105D01*
X5705968Y-2618105D01*
X5706287Y-2615927D01*
X5707682Y-2610740D01*
X5709696Y-2605936D01*
X5710296Y-2604794D01*
X5713024Y-2600538D01*
X5716250Y-2596807D01*
X5719973Y-2593602D01*
X5724194Y-2590921D01*
X5728841Y-2588795D01*
X5733817Y-2587276D01*
X5739123Y-2586364D01*
X5744037Y-2586065D01*
X5744759Y-2586061D01*
X5750267Y-2586360D01*
G37*
G36*
X5844996Y-2586061D02*
G01*
X5849950Y-2586373D01*
X5855238Y-2587528D01*
X5859998Y-2589534D01*
X5864230Y-2592390D01*
X5866929Y-2594951D01*
X5870127Y-2599159D01*
X5872539Y-2604002D01*
X5874166Y-2609481D01*
X5874936Y-2614683D01*
X5875136Y-2619375D01*
X5875136Y-2665000D01*
X5850785Y-2665000D01*
X5850785Y-2623186D01*
X5850312Y-2618300D01*
X5848532Y-2613569D01*
X5846779Y-2611218D01*
X5842768Y-2608279D01*
X5837699Y-2606986D01*
X5836057Y-2606919D01*
X5831031Y-2607629D01*
X5826629Y-2609979D01*
X5825310Y-2611218D01*
X5822589Y-2615612D01*
X5821469Y-2620421D01*
X5821329Y-2623186D01*
X5821329Y-2665000D01*
X5796978Y-2665000D01*
X5796978Y-2586842D01*
X5821329Y-2586842D01*
X5821329Y-2597687D01*
X5824701Y-2593692D01*
X5828551Y-2590662D01*
X5831123Y-2589187D01*
X5835971Y-2587282D01*
X5840789Y-2586308D01*
X5844996Y-2586061D01*
G37*
G36*
X5924403Y-2586387D02*
G01*
X5929404Y-2587502D01*
X5933925Y-2589407D01*
X5938191Y-2592187D01*
X5941898Y-2595849D01*
X5943500Y-2598102D01*
X5943500Y-2586842D01*
X5967851Y-2586842D01*
X5967851Y-2664536D01*
X5967582Y-2669783D01*
X5966776Y-2674776D01*
X5965433Y-2679516D01*
X5963552Y-2684002D01*
X5960778Y-2688625D01*
X5957294Y-2692683D01*
X5953098Y-2696178D01*
X5950460Y-2697875D01*
X5945795Y-2700140D01*
X5940593Y-2701759D01*
X5935600Y-2702643D01*
X5930196Y-2703033D01*
X5928576Y-2703053D01*
X5923295Y-2702853D01*
X5918334Y-2702252D01*
X5912804Y-2701001D01*
X5907737Y-2699174D01*
X5903131Y-2696770D01*
X5900317Y-2694846D01*
X5896578Y-2691575D01*
X5893042Y-2687243D01*
X5890397Y-2682358D01*
X5888642Y-2676918D01*
X5887934Y-2672694D01*
X5911601Y-2672694D01*
X5913819Y-2677052D01*
X5916902Y-2679630D01*
X5921597Y-2681554D01*
X5926517Y-2682185D01*
X5927282Y-2682195D01*
X5932410Y-2681600D01*
X5937012Y-2679616D01*
X5939079Y-2677969D01*
X5941941Y-2673698D01*
X5943223Y-2668774D01*
X5943500Y-2664438D01*
X5943500Y-2653472D01*
X5940222Y-2657578D01*
X5936417Y-2660768D01*
X5933852Y-2662362D01*
X5928940Y-2664446D01*
X5923919Y-2665511D01*
X5919442Y-2665782D01*
X5914158Y-2665393D01*
X5909160Y-2664228D01*
X5904448Y-2662287D01*
X5901954Y-2660872D01*
X5897803Y-2657767D01*
X5894169Y-2654000D01*
X5891054Y-2649573D01*
X5889546Y-2646828D01*
X5887559Y-2642096D01*
X5886139Y-2637010D01*
X5885287Y-2631569D01*
X5885008Y-2626518D01*
X5885003Y-2625775D01*
X5909354Y-2625775D01*
X5909839Y-2630930D01*
X5911490Y-2635780D01*
X5914313Y-2639770D01*
X5918352Y-2642910D01*
X5922995Y-2644601D01*
X5926427Y-2644923D01*
X5931470Y-2644209D01*
X5935902Y-2642066D01*
X5938517Y-2639843D01*
X5941553Y-2635492D01*
X5943105Y-2630587D01*
X5943500Y-2625921D01*
X5943013Y-2620775D01*
X5941354Y-2615958D01*
X5938517Y-2612024D01*
X5934493Y-2608913D01*
X5929857Y-2607238D01*
X5926427Y-2606919D01*
X5921380Y-2607627D01*
X5916938Y-2609749D01*
X5914313Y-2611950D01*
X5911291Y-2616241D01*
X5909747Y-2621116D01*
X5909354Y-2625775D01*
X5885003Y-2625775D01*
X5885221Y-2620688D01*
X5886002Y-2615216D01*
X5887350Y-2610107D01*
X5889267Y-2605362D01*
X5889546Y-2604794D01*
X5892035Y-2600538D01*
X5895323Y-2596378D01*
X5899129Y-2592882D01*
X5901954Y-2590921D01*
X5906507Y-2588572D01*
X5911346Y-2586991D01*
X5916471Y-2586179D01*
X5919442Y-2586061D01*
X5924403Y-2586387D01*
G37*
G36*
X6025773Y-2586360D02*
G01*
X6030963Y-2587258D01*
X6035836Y-2588753D01*
X6040391Y-2590848D01*
X6044558Y-2593486D01*
X6048670Y-2597066D01*
X6052171Y-2601296D01*
X6054166Y-2604477D01*
X6056335Y-2609093D01*
X6057885Y-2614075D01*
X6058814Y-2619424D01*
X6059119Y-2624405D01*
X6059124Y-2625140D01*
X6058910Y-2630136D01*
X6058709Y-2632174D01*
X6004658Y-2632174D01*
X6005832Y-2637253D01*
X6008605Y-2641398D01*
X6009347Y-2642066D01*
X6013636Y-2644502D01*
X6018761Y-2645447D01*
X6019508Y-2645461D01*
X6024565Y-2644807D01*
X6029237Y-2642297D01*
X6031964Y-2638768D01*
X6057317Y-2638768D01*
X6055788Y-2643429D01*
X6053395Y-2648214D01*
X6050574Y-2652254D01*
X6050258Y-2652641D01*
X6046815Y-2656228D01*
X6042866Y-2659295D01*
X6038411Y-2661842D01*
X6037460Y-2662289D01*
X6032485Y-2664131D01*
X6027698Y-2665205D01*
X6022617Y-2665727D01*
X6020265Y-2665782D01*
X6015373Y-2665549D01*
X6010073Y-2664714D01*
X6005086Y-2663271D01*
X6000409Y-2661220D01*
X5999846Y-2660921D01*
X5995621Y-2658231D01*
X5991884Y-2655023D01*
X5988636Y-2651295D01*
X5985876Y-2647048D01*
X5983674Y-2642339D01*
X5982102Y-2637248D01*
X5981159Y-2631775D01*
X5980849Y-2626674D01*
X5980844Y-2625921D01*
X5981082Y-2620778D01*
X5981474Y-2618105D01*
X6004805Y-2618105D01*
X6034773Y-2618105D01*
X6033969Y-2613261D01*
X6031323Y-2609128D01*
X6030572Y-2608433D01*
X6026172Y-2605839D01*
X6021233Y-2604850D01*
X6020070Y-2604819D01*
X6015156Y-2605482D01*
X6010700Y-2607667D01*
X6009909Y-2608287D01*
X6006732Y-2612159D01*
X6005015Y-2616936D01*
X6004805Y-2618105D01*
X5981474Y-2618105D01*
X5981793Y-2615927D01*
X5983188Y-2610740D01*
X5985202Y-2605936D01*
X5985802Y-2604794D01*
X5988530Y-2600538D01*
X5991756Y-2596807D01*
X5995479Y-2593602D01*
X5999700Y-2590921D01*
X6004347Y-2588795D01*
X6009323Y-2587276D01*
X6014629Y-2586364D01*
X6019543Y-2586065D01*
X6020265Y-2586061D01*
X6025773Y-2586360D01*
G37*
G36*
X6096835Y-2599714D02*
G01*
X6099915Y-2595679D01*
X6103481Y-2592274D01*
X6107142Y-2589724D01*
X6111572Y-2587639D01*
X6116330Y-2586418D01*
X6120942Y-2586061D01*
X6120942Y-2611071D01*
X6114445Y-2611071D01*
X6109366Y-2611450D01*
X6104411Y-2612907D01*
X6101232Y-2614955D01*
X6098385Y-2619058D01*
X6097110Y-2624040D01*
X6096835Y-2628535D01*
X6096835Y-2665000D01*
X6072484Y-2665000D01*
X6072484Y-2586842D01*
X6096835Y-2586842D01*
X6096835Y-2599714D01*
G37*
G36*
X6247289Y-2566521D02*
G01*
X6247289Y-2665000D01*
X6222938Y-2665000D01*
X6222938Y-2624358D01*
X6186326Y-2624358D01*
X6186326Y-2665000D01*
X6161975Y-2665000D01*
X6161975Y-2566521D01*
X6186326Y-2566521D01*
X6186326Y-2605600D01*
X6222938Y-2605600D01*
X6222938Y-2566521D01*
X6247289Y-2566521D01*
G37*
G36*
X6340858Y-2586842D02*
G01*
X6340858Y-2665000D01*
X6316507Y-2665000D01*
X6316507Y-2653863D01*
X6313123Y-2657882D01*
X6309241Y-2660976D01*
X6306640Y-2662509D01*
X6301787Y-2664503D01*
X6296569Y-2665577D01*
X6292889Y-2665782D01*
X6288013Y-2665467D01*
X6282985Y-2664378D01*
X6278367Y-2662512D01*
X6277062Y-2661800D01*
X6273088Y-2658951D01*
X6269716Y-2655410D01*
X6266944Y-2651177D01*
X6266462Y-2650248D01*
X6264478Y-2645258D01*
X6263321Y-2640327D01*
X6262759Y-2634978D01*
X6262701Y-2632467D01*
X6262701Y-2586842D01*
X6287052Y-2586842D01*
X6287052Y-2628632D01*
X6287522Y-2633534D01*
X6289291Y-2638286D01*
X6291033Y-2640649D01*
X6295035Y-2643571D01*
X6300075Y-2644856D01*
X6301706Y-2644923D01*
X6306791Y-2644218D01*
X6311212Y-2641880D01*
X6312526Y-2640649D01*
X6315248Y-2636233D01*
X6316367Y-2631406D01*
X6316507Y-2628632D01*
X6316507Y-2586842D01*
X6340858Y-2586842D01*
G37*
G36*
X6406560Y-2586061D02*
G01*
X6411513Y-2586373D01*
X6416801Y-2587528D01*
X6421561Y-2589534D01*
X6425793Y-2592390D01*
X6428493Y-2594951D01*
X6431690Y-2599159D01*
X6434103Y-2604002D01*
X6435729Y-2609481D01*
X6436499Y-2614683D01*
X6436699Y-2619375D01*
X6436699Y-2665000D01*
X6412348Y-2665000D01*
X6412348Y-2623186D01*
X6411875Y-2618300D01*
X6410095Y-2613569D01*
X6408343Y-2611218D01*
X6404331Y-2608279D01*
X6399262Y-2606986D01*
X6397620Y-2606919D01*
X6392595Y-2607629D01*
X6388192Y-2609979D01*
X6386874Y-2611218D01*
X6384152Y-2615612D01*
X6383032Y-2620421D01*
X6382892Y-2623186D01*
X6382892Y-2665000D01*
X6358541Y-2665000D01*
X6358541Y-2586842D01*
X6382892Y-2586842D01*
X6382892Y-2597687D01*
X6386264Y-2593692D01*
X6390114Y-2590662D01*
X6392687Y-2589187D01*
X6397534Y-2587282D01*
X6402352Y-2586308D01*
X6406560Y-2586061D01*
G37*
G36*
X6496587Y-2644142D02*
G01*
X6496587Y-2665000D01*
X6484131Y-2665000D01*
X6478588Y-2664701D01*
X6473606Y-2663803D01*
X6468599Y-2662045D01*
X6464325Y-2659505D01*
X6463370Y-2658747D01*
X6459781Y-2654591D01*
X6457577Y-2649845D01*
X6456410Y-2644880D01*
X6455953Y-2639159D01*
X6455945Y-2638280D01*
X6455945Y-2607701D01*
X6446567Y-2607701D01*
X6446567Y-2586842D01*
X6455945Y-2586842D01*
X6455945Y-2567303D01*
X6480296Y-2567303D01*
X6480296Y-2586842D01*
X6496587Y-2586842D01*
X6496587Y-2607701D01*
X6480296Y-2607701D01*
X6480296Y-2637816D01*
X6481821Y-2642483D01*
X6482031Y-2642676D01*
X6486823Y-2644119D01*
X6487795Y-2644142D01*
X6496587Y-2644142D01*
G37*
G36*
X6583019Y-2566714D02*
G01*
X6588280Y-2567407D01*
X6593085Y-2568603D01*
X6597948Y-2570551D01*
X6602201Y-2573060D01*
X6606169Y-2576413D01*
X6609340Y-2580363D01*
X6610136Y-2581664D01*
X6612287Y-2586296D01*
X6613641Y-2591339D01*
X6614179Y-2596227D01*
X6614215Y-2597931D01*
X6613833Y-2603085D01*
X6612688Y-2607953D01*
X6610780Y-2612534D01*
X6610307Y-2613416D01*
X6607470Y-2617535D01*
X6603812Y-2621129D01*
X6599333Y-2624198D01*
X6598339Y-2624749D01*
X6593484Y-2626827D01*
X6588653Y-2628103D01*
X6583337Y-2628842D01*
X6578287Y-2629047D01*
X6563534Y-2629047D01*
X6563534Y-2665000D01*
X6539183Y-2665000D01*
X6539183Y-2610290D01*
X6563534Y-2610290D01*
X6576430Y-2610290D01*
X6581359Y-2609753D01*
X6585865Y-2607622D01*
X6586518Y-2607041D01*
X6589129Y-2602806D01*
X6589864Y-2597809D01*
X6589129Y-2592795D01*
X6586518Y-2588552D01*
X6582016Y-2585998D01*
X6576850Y-2585282D01*
X6576430Y-2585279D01*
X6563534Y-2585279D01*
X6563534Y-2610290D01*
X6539183Y-2610290D01*
X6539183Y-2566521D01*
X6578042Y-2566521D01*
X6583019Y-2566714D01*
G37*
G36*
X6665838Y-2586293D02*
G01*
X6671200Y-2587129D01*
X6676277Y-2588572D01*
X6681071Y-2590622D01*
X6681650Y-2590921D01*
X6686033Y-2593606D01*
X6689924Y-2596826D01*
X6693324Y-2600579D01*
X6696232Y-2604867D01*
X6698561Y-2609600D01*
X6700225Y-2614686D01*
X6701223Y-2620126D01*
X6701551Y-2625177D01*
X6701556Y-2625921D01*
X6701298Y-2631011D01*
X6700370Y-2636496D01*
X6698768Y-2641626D01*
X6696490Y-2646403D01*
X6696158Y-2646975D01*
X6693224Y-2651254D01*
X6689796Y-2655004D01*
X6685873Y-2658227D01*
X6681455Y-2660921D01*
X6676654Y-2663048D01*
X6671581Y-2664566D01*
X6666237Y-2665478D01*
X6661338Y-2665777D01*
X6660621Y-2665782D01*
X6655709Y-2665549D01*
X6650363Y-2664714D01*
X6645305Y-2663271D01*
X6640534Y-2661220D01*
X6639958Y-2660921D01*
X6635612Y-2658231D01*
X6631758Y-2655023D01*
X6628395Y-2651295D01*
X6625523Y-2647048D01*
X6623226Y-2642339D01*
X6621585Y-2637248D01*
X6620600Y-2631775D01*
X6620277Y-2626674D01*
X6620272Y-2625921D01*
X6644623Y-2625921D01*
X6645067Y-2631220D01*
X6646580Y-2636101D01*
X6649166Y-2639990D01*
X6653260Y-2643184D01*
X6658120Y-2644750D01*
X6660621Y-2644923D01*
X6665498Y-2644229D01*
X6670131Y-2641912D01*
X6672345Y-2639990D01*
X6675306Y-2635698D01*
X6676821Y-2630727D01*
X6677205Y-2625921D01*
X6676745Y-2620622D01*
X6675175Y-2615741D01*
X6672491Y-2611853D01*
X6668318Y-2608658D01*
X6663420Y-2607093D01*
X6660914Y-2606919D01*
X6655975Y-2607603D01*
X6651384Y-2609886D01*
X6649239Y-2611779D01*
X6646426Y-2616046D01*
X6644988Y-2621050D01*
X6644623Y-2625921D01*
X6620272Y-2625921D01*
X6620527Y-2620831D01*
X6621442Y-2615347D01*
X6623023Y-2610216D01*
X6625269Y-2605440D01*
X6625597Y-2604867D01*
X6628505Y-2600579D01*
X6631904Y-2596826D01*
X6635795Y-2593606D01*
X6640178Y-2590921D01*
X6644945Y-2588795D01*
X6649990Y-2587276D01*
X6655313Y-2586364D01*
X6660199Y-2586065D01*
X6660914Y-2586061D01*
X6665838Y-2586293D01*
G37*
G36*
X6745422Y-2665782D02*
G01*
X6740517Y-2665566D01*
X6735332Y-2664810D01*
X6730498Y-2663508D01*
X6727470Y-2662338D01*
X6722890Y-2659935D01*
X6718948Y-2657031D01*
X6715351Y-2653259D01*
X6715063Y-2652886D01*
X6712410Y-2648585D01*
X6710698Y-2643943D01*
X6709958Y-2639428D01*
X6733161Y-2639428D01*
X6734979Y-2644119D01*
X6736947Y-2646047D01*
X6741521Y-2648168D01*
X6745276Y-2648587D01*
X6750312Y-2647840D01*
X6752236Y-2646853D01*
X6754701Y-2642483D01*
X6754703Y-2642310D01*
X6752234Y-2637922D01*
X6751235Y-2637376D01*
X6746337Y-2635560D01*
X6741418Y-2634153D01*
X6740000Y-2633786D01*
X6735064Y-2632545D01*
X6730257Y-2631137D01*
X6726102Y-2629682D01*
X6721524Y-2627316D01*
X6717535Y-2623976D01*
X6716504Y-2622844D01*
X6713910Y-2618493D01*
X6712690Y-2613519D01*
X6712498Y-2610192D01*
X6713099Y-2604964D01*
X6714901Y-2600115D01*
X6716137Y-2598004D01*
X6719369Y-2594191D01*
X6723570Y-2591030D01*
X6726908Y-2589285D01*
X6731628Y-2587585D01*
X6736873Y-2586514D01*
X6742042Y-2586089D01*
X6743859Y-2586061D01*
X6749083Y-2586311D01*
X6754631Y-2587238D01*
X6759590Y-2588847D01*
X6763959Y-2591138D01*
X6766720Y-2593193D01*
X6770452Y-2597052D01*
X6773296Y-2601497D01*
X6775252Y-2606528D01*
X6776234Y-2611412D01*
X6776319Y-2612146D01*
X6754703Y-2612146D01*
X6752904Y-2607518D01*
X6751113Y-2605673D01*
X6746573Y-2603595D01*
X6743126Y-2603255D01*
X6738240Y-2604017D01*
X6736629Y-2604867D01*
X6734382Y-2609264D01*
X6736720Y-2613628D01*
X6737924Y-2614320D01*
X6742803Y-2616091D01*
X6747592Y-2617350D01*
X6748964Y-2617666D01*
X6754027Y-2619050D01*
X6758880Y-2620562D01*
X6762983Y-2622062D01*
X6767470Y-2624474D01*
X6771443Y-2627904D01*
X6772484Y-2629072D01*
X6775141Y-2633529D01*
X6776391Y-2638617D01*
X6776587Y-2642017D01*
X6776055Y-2646943D01*
X6774277Y-2651823D01*
X6772802Y-2654253D01*
X6769492Y-2657960D01*
X6765241Y-2661022D01*
X6761884Y-2662704D01*
X6757222Y-2664327D01*
X6752122Y-2665349D01*
X6747156Y-2665755D01*
X6745422Y-2665782D01*
G37*
G36*
X6804675Y-2579027D02*
G01*
X6799661Y-2578302D01*
X6795252Y-2575917D01*
X6794490Y-2575241D01*
X6791541Y-2570985D01*
X6790562Y-2566185D01*
X6790558Y-2565837D01*
X6791422Y-2560863D01*
X6794249Y-2556503D01*
X6794490Y-2556263D01*
X6798699Y-2553528D01*
X6803528Y-2552486D01*
X6804675Y-2552453D01*
X6809619Y-2553182D01*
X6813982Y-2555582D01*
X6814738Y-2556263D01*
X6817578Y-2560264D01*
X6818679Y-2565125D01*
X6818695Y-2565837D01*
X6817826Y-2570689D01*
X6814982Y-2575001D01*
X6814738Y-2575241D01*
X6810569Y-2577958D01*
X6805433Y-2579012D01*
X6804675Y-2579027D01*
G37*
G36*
X6817132Y-2586842D02*
G01*
X6817132Y-2665000D01*
X6792781Y-2665000D01*
X6792781Y-2586842D01*
X6817132Y-2586842D01*
G37*
G36*
X6878681Y-2644142D02*
G01*
X6878681Y-2665000D01*
X6866225Y-2665000D01*
X6860681Y-2664701D01*
X6855699Y-2663803D01*
X6850692Y-2662045D01*
X6846418Y-2659505D01*
X6845464Y-2658747D01*
X6841875Y-2654591D01*
X6839670Y-2649845D01*
X6838503Y-2644880D01*
X6838046Y-2639159D01*
X6838039Y-2638280D01*
X6838039Y-2607701D01*
X6828660Y-2607701D01*
X6828660Y-2586842D01*
X6838039Y-2586842D01*
X6838039Y-2567303D01*
X6862390Y-2567303D01*
X6862390Y-2586842D01*
X6878681Y-2586842D01*
X6878681Y-2607701D01*
X6862390Y-2607701D01*
X6862390Y-2637816D01*
X6863914Y-2642483D01*
X6864124Y-2642676D01*
X6868917Y-2644119D01*
X6869888Y-2644142D01*
X6878681Y-2644142D01*
G37*
G36*
X6902666Y-2579027D02*
G01*
X6897651Y-2578302D01*
X6893243Y-2575917D01*
X6892481Y-2575241D01*
X6889531Y-2570985D01*
X6888552Y-2566185D01*
X6888548Y-2565837D01*
X6889412Y-2560863D01*
X6892239Y-2556503D01*
X6892481Y-2556263D01*
X6896689Y-2553528D01*
X6901518Y-2552486D01*
X6902666Y-2552453D01*
X6907609Y-2553182D01*
X6911972Y-2555582D01*
X6912728Y-2556263D01*
X6915568Y-2560264D01*
X6916670Y-2565125D01*
X6916685Y-2565837D01*
X6915816Y-2570689D01*
X6912972Y-2575001D01*
X6912728Y-2575241D01*
X6908559Y-2577958D01*
X6903423Y-2579012D01*
X6902666Y-2579027D01*
G37*
G36*
X6915122Y-2586842D02*
G01*
X6915122Y-2665000D01*
X6890771Y-2665000D01*
X6890771Y-2586842D01*
X6915122Y-2586842D01*
G37*
G36*
X6972217Y-2586293D02*
G01*
X6977578Y-2587129D01*
X6982656Y-2588572D01*
X6987449Y-2590622D01*
X6988029Y-2590921D01*
X6992411Y-2593606D01*
X6996302Y-2596826D01*
X6999702Y-2600579D01*
X7002610Y-2604867D01*
X7004939Y-2609600D01*
X7006603Y-2614686D01*
X7007602Y-2620126D01*
X7007929Y-2625177D01*
X7007934Y-2625921D01*
X7007676Y-2631011D01*
X7006748Y-2636496D01*
X7005146Y-2641626D01*
X7002869Y-2646403D01*
X7002537Y-2646975D01*
X6999603Y-2651254D01*
X6996174Y-2655004D01*
X6992251Y-2658227D01*
X6987833Y-2660921D01*
X6983032Y-2663048D01*
X6977960Y-2664566D01*
X6972615Y-2665478D01*
X6967716Y-2665777D01*
X6966999Y-2665782D01*
X6962087Y-2665549D01*
X6956742Y-2664714D01*
X6951684Y-2663271D01*
X6946912Y-2661220D01*
X6946336Y-2660921D01*
X6941990Y-2658231D01*
X6938136Y-2655023D01*
X6934773Y-2651295D01*
X6931902Y-2647048D01*
X6929604Y-2642339D01*
X6927963Y-2637248D01*
X6926978Y-2631775D01*
X6926655Y-2626674D01*
X6926650Y-2625921D01*
X6951001Y-2625921D01*
X6951445Y-2631220D01*
X6952958Y-2636101D01*
X6955544Y-2639990D01*
X6959638Y-2643184D01*
X6964498Y-2644750D01*
X6966999Y-2644923D01*
X6971876Y-2644229D01*
X6976509Y-2641912D01*
X6978723Y-2639990D01*
X6981685Y-2635698D01*
X6983199Y-2630727D01*
X6983583Y-2625921D01*
X6983123Y-2620622D01*
X6981553Y-2615741D01*
X6978869Y-2611853D01*
X6974696Y-2608658D01*
X6969798Y-2607093D01*
X6967292Y-2606919D01*
X6962353Y-2607603D01*
X6957762Y-2609886D01*
X6955617Y-2611779D01*
X6952804Y-2616046D01*
X6951366Y-2621050D01*
X6951001Y-2625921D01*
X6926650Y-2625921D01*
X6926905Y-2620831D01*
X6927820Y-2615347D01*
X6929401Y-2610216D01*
X6931647Y-2605440D01*
X6931975Y-2604867D01*
X6934883Y-2600579D01*
X6938282Y-2596826D01*
X6942173Y-2593606D01*
X6946556Y-2590921D01*
X6951323Y-2588795D01*
X6956369Y-2587276D01*
X6961691Y-2586364D01*
X6966577Y-2586065D01*
X6967292Y-2586061D01*
X6972217Y-2586293D01*
G37*
G36*
X7070021Y-2586061D02*
G01*
X7074974Y-2586373D01*
X7080263Y-2587528D01*
X7085023Y-2589534D01*
X7089255Y-2592390D01*
X7091954Y-2594951D01*
X7095152Y-2599159D01*
X7097564Y-2604002D01*
X7099191Y-2609481D01*
X7099960Y-2614683D01*
X7100160Y-2619375D01*
X7100160Y-2665000D01*
X7075809Y-2665000D01*
X7075809Y-2623186D01*
X7075336Y-2618300D01*
X7073556Y-2613569D01*
X7071804Y-2611218D01*
X7067792Y-2608279D01*
X7062724Y-2606986D01*
X7061082Y-2606919D01*
X7056056Y-2607629D01*
X7051653Y-2609979D01*
X7050335Y-2611218D01*
X7047613Y-2615612D01*
X7046494Y-2620421D01*
X7046354Y-2623186D01*
X7046354Y-2665000D01*
X7022003Y-2665000D01*
X7022003Y-2586842D01*
X7046354Y-2586842D01*
X7046354Y-2597687D01*
X7049726Y-2593692D01*
X7053575Y-2590662D01*
X7056148Y-2589187D01*
X7060995Y-2587282D01*
X7065813Y-2586308D01*
X7070021Y-2586061D01*
G37*
G36*
X7127271Y-2579027D02*
G01*
X7122256Y-2578302D01*
X7117848Y-2575917D01*
X7117086Y-2575241D01*
X7114137Y-2570985D01*
X7113158Y-2566185D01*
X7113154Y-2565837D01*
X7114018Y-2560863D01*
X7116845Y-2556503D01*
X7117086Y-2556263D01*
X7121295Y-2553528D01*
X7126124Y-2552486D01*
X7127271Y-2552453D01*
X7132215Y-2553182D01*
X7136578Y-2555582D01*
X7137334Y-2556263D01*
X7140174Y-2560264D01*
X7141275Y-2565125D01*
X7141291Y-2565837D01*
X7140421Y-2570689D01*
X7137578Y-2575001D01*
X7137334Y-2575241D01*
X7133165Y-2577958D01*
X7128029Y-2579012D01*
X7127271Y-2579027D01*
G37*
G36*
X7139728Y-2586842D02*
G01*
X7139728Y-2665000D01*
X7115377Y-2665000D01*
X7115377Y-2586842D01*
X7139728Y-2586842D01*
G37*
G36*
X7205527Y-2586061D02*
G01*
X7210480Y-2586373D01*
X7215769Y-2587528D01*
X7220529Y-2589534D01*
X7224760Y-2592390D01*
X7227460Y-2594951D01*
X7230657Y-2599159D01*
X7233070Y-2604002D01*
X7234697Y-2609481D01*
X7235466Y-2614683D01*
X7235666Y-2619375D01*
X7235666Y-2665000D01*
X7211315Y-2665000D01*
X7211315Y-2623186D01*
X7210842Y-2618300D01*
X7209062Y-2613569D01*
X7207310Y-2611218D01*
X7203298Y-2608279D01*
X7198230Y-2606986D01*
X7196587Y-2606919D01*
X7191562Y-2607629D01*
X7187159Y-2609979D01*
X7185841Y-2611218D01*
X7183119Y-2615612D01*
X7182000Y-2620421D01*
X7181860Y-2623186D01*
X7181860Y-2665000D01*
X7157509Y-2665000D01*
X7157509Y-2586842D01*
X7181860Y-2586842D01*
X7181860Y-2597687D01*
X7185232Y-2593692D01*
X7189081Y-2590662D01*
X7191654Y-2589187D01*
X7196501Y-2587282D01*
X7201319Y-2586308D01*
X7205527Y-2586061D01*
G37*
G36*
X7284934Y-2586387D02*
G01*
X7289934Y-2587502D01*
X7294456Y-2589407D01*
X7298721Y-2592187D01*
X7302428Y-2595849D01*
X7304030Y-2598102D01*
X7304030Y-2586842D01*
X7328381Y-2586842D01*
X7328381Y-2664536D01*
X7328112Y-2669783D01*
X7327306Y-2674776D01*
X7325963Y-2679516D01*
X7324082Y-2684002D01*
X7321309Y-2688625D01*
X7317824Y-2692683D01*
X7313629Y-2696178D01*
X7310991Y-2697875D01*
X7306326Y-2700140D01*
X7301123Y-2701759D01*
X7296131Y-2702643D01*
X7290726Y-2703033D01*
X7289107Y-2703053D01*
X7283825Y-2702853D01*
X7278864Y-2702252D01*
X7273335Y-2701001D01*
X7268267Y-2699174D01*
X7263662Y-2696770D01*
X7260848Y-2694846D01*
X7257108Y-2691575D01*
X7253573Y-2687243D01*
X7250927Y-2682358D01*
X7249173Y-2676918D01*
X7248465Y-2672694D01*
X7272132Y-2672694D01*
X7274350Y-2677052D01*
X7277432Y-2679630D01*
X7282127Y-2681554D01*
X7287047Y-2682185D01*
X7287812Y-2682195D01*
X7292940Y-2681600D01*
X7297542Y-2679616D01*
X7299609Y-2677969D01*
X7302471Y-2673698D01*
X7303754Y-2668774D01*
X7304030Y-2664438D01*
X7304030Y-2653472D01*
X7300753Y-2657578D01*
X7296948Y-2660768D01*
X7294382Y-2662362D01*
X7289471Y-2664446D01*
X7284450Y-2665511D01*
X7279972Y-2665782D01*
X7274688Y-2665393D01*
X7269690Y-2664228D01*
X7264978Y-2662287D01*
X7262484Y-2660872D01*
X7258333Y-2657767D01*
X7254700Y-2654000D01*
X7251584Y-2649573D01*
X7250077Y-2646828D01*
X7248089Y-2642096D01*
X7246669Y-2637010D01*
X7245818Y-2631569D01*
X7245538Y-2626518D01*
X7245534Y-2625775D01*
X7269885Y-2625775D01*
X7270369Y-2630930D01*
X7272020Y-2635780D01*
X7274843Y-2639770D01*
X7278882Y-2642910D01*
X7283526Y-2644601D01*
X7286957Y-2644923D01*
X7292001Y-2644209D01*
X7296432Y-2642066D01*
X7299047Y-2639843D01*
X7302084Y-2635492D01*
X7303636Y-2630587D01*
X7304030Y-2625921D01*
X7303543Y-2620775D01*
X7301884Y-2615958D01*
X7299047Y-2612024D01*
X7295023Y-2608913D01*
X7290387Y-2607238D01*
X7286957Y-2606919D01*
X7281911Y-2607627D01*
X7277468Y-2609749D01*
X7274843Y-2611950D01*
X7271822Y-2616241D01*
X7270277Y-2621116D01*
X7269885Y-2625775D01*
X7245534Y-2625775D01*
X7245751Y-2620688D01*
X7246532Y-2615216D01*
X7247881Y-2610107D01*
X7249797Y-2605362D01*
X7250077Y-2604794D01*
X7252565Y-2600538D01*
X7255853Y-2596378D01*
X7259659Y-2592882D01*
X7262484Y-2590921D01*
X7267037Y-2588572D01*
X7271876Y-2586991D01*
X7277001Y-2586179D01*
X7279972Y-2586061D01*
X7284934Y-2586387D01*
G37*
G36*
X7411155Y-2665782D02*
G01*
X7405943Y-2665565D01*
X7401007Y-2664915D01*
X7395781Y-2663665D01*
X7391957Y-2662313D01*
X7387459Y-2660100D01*
X7383090Y-2657024D01*
X7379384Y-2653299D01*
X7378402Y-2652055D01*
X7375723Y-2647524D01*
X7374036Y-2642450D01*
X7373366Y-2637417D01*
X7373322Y-2635642D01*
X7398186Y-2635642D01*
X7399449Y-2640533D01*
X7402069Y-2644117D01*
X7406412Y-2646467D01*
X7410666Y-2647024D01*
X7415539Y-2646407D01*
X7419264Y-2644557D01*
X7422064Y-2640509D01*
X7422439Y-2637742D01*
X7421051Y-2632939D01*
X7419972Y-2631661D01*
X7415845Y-2628662D01*
X7413915Y-2627729D01*
X7409257Y-2625951D01*
X7404524Y-2624433D01*
X7403705Y-2624187D01*
X7398610Y-2622525D01*
X7393596Y-2620678D01*
X7388869Y-2618646D01*
X7388098Y-2618276D01*
X7383807Y-2615650D01*
X7379983Y-2612240D01*
X7377694Y-2609532D01*
X7375204Y-2605134D01*
X7373838Y-2600410D01*
X7373326Y-2594993D01*
X7373322Y-2594414D01*
X7373670Y-2589449D01*
X7374958Y-2584189D01*
X7377195Y-2579502D01*
X7380381Y-2575387D01*
X7383238Y-2572798D01*
X7387876Y-2569743D01*
X7393091Y-2567439D01*
X7398020Y-2566061D01*
X7403374Y-2565234D01*
X7409152Y-2564958D01*
X7414073Y-2565146D01*
X7419571Y-2565867D01*
X7424624Y-2567129D01*
X7429232Y-2568933D01*
X7434046Y-2571720D01*
X7435310Y-2572652D01*
X7439174Y-2576308D01*
X7442089Y-2580543D01*
X7444055Y-2585358D01*
X7445072Y-2590753D01*
X7445227Y-2594096D01*
X7420216Y-2594096D01*
X7419165Y-2589313D01*
X7416895Y-2586500D01*
X7412547Y-2584249D01*
X7408322Y-2583716D01*
X7403402Y-2584622D01*
X7401092Y-2586036D01*
X7398550Y-2590432D01*
X7398332Y-2592729D01*
X7399746Y-2597469D01*
X7402802Y-2600227D01*
X7407260Y-2602462D01*
X7411813Y-2604281D01*
X7416748Y-2605991D01*
X7421810Y-2607797D01*
X7426773Y-2609754D01*
X7431428Y-2611846D01*
X7432184Y-2612219D01*
X7436409Y-2614813D01*
X7440180Y-2618163D01*
X7442442Y-2620816D01*
X7444918Y-2625068D01*
X7446365Y-2630099D01*
X7446790Y-2635349D01*
X7446375Y-2640480D01*
X7445130Y-2645311D01*
X7443055Y-2649842D01*
X7442540Y-2650712D01*
X7439509Y-2654755D01*
X7435730Y-2658245D01*
X7431201Y-2661182D01*
X7430206Y-2661703D01*
X7425440Y-2663674D01*
X7420211Y-2665001D01*
X7415173Y-2665638D01*
X7411155Y-2665782D01*
G37*
G36*
X7541629Y-2586842D02*
G01*
X7492610Y-2702516D01*
X7466867Y-2702516D01*
X7484770Y-2662606D01*
X7452994Y-2586842D01*
X7479738Y-2586842D01*
X7497812Y-2635886D01*
X7515715Y-2586842D01*
X7541629Y-2586842D01*
G37*
G36*
X7580733Y-2665782D02*
G01*
X7575828Y-2665566D01*
X7570642Y-2664810D01*
X7565808Y-2663508D01*
X7562781Y-2662338D01*
X7558200Y-2659935D01*
X7554259Y-2657031D01*
X7550662Y-2653259D01*
X7550373Y-2652886D01*
X7547720Y-2648585D01*
X7546008Y-2643943D01*
X7545269Y-2639428D01*
X7568472Y-2639428D01*
X7570289Y-2644119D01*
X7572257Y-2646047D01*
X7576831Y-2648168D01*
X7580586Y-2648587D01*
X7585623Y-2647840D01*
X7587547Y-2646853D01*
X7590011Y-2642483D01*
X7590014Y-2642310D01*
X7587545Y-2637922D01*
X7586546Y-2637376D01*
X7581647Y-2635560D01*
X7576729Y-2634153D01*
X7575310Y-2633786D01*
X7570375Y-2632545D01*
X7565568Y-2631137D01*
X7561413Y-2629682D01*
X7556835Y-2627316D01*
X7552846Y-2623976D01*
X7551814Y-2622844D01*
X7549221Y-2618493D01*
X7548000Y-2613519D01*
X7547809Y-2610192D01*
X7548409Y-2604964D01*
X7550211Y-2600115D01*
X7551448Y-2598004D01*
X7554680Y-2594191D01*
X7558881Y-2591030D01*
X7562219Y-2589285D01*
X7566939Y-2587585D01*
X7572183Y-2586514D01*
X7577352Y-2586089D01*
X7579169Y-2586061D01*
X7584394Y-2586311D01*
X7589941Y-2587238D01*
X7594900Y-2588847D01*
X7599270Y-2591138D01*
X7602031Y-2593193D01*
X7605763Y-2597052D01*
X7608607Y-2601497D01*
X7610562Y-2606528D01*
X7611545Y-2611412D01*
X7611629Y-2612146D01*
X7590014Y-2612146D01*
X7588214Y-2607518D01*
X7586423Y-2605673D01*
X7581884Y-2603595D01*
X7578437Y-2603255D01*
X7573550Y-2604017D01*
X7571940Y-2604867D01*
X7569693Y-2609264D01*
X7572031Y-2613628D01*
X7573234Y-2614320D01*
X7578114Y-2616091D01*
X7582903Y-2617350D01*
X7584274Y-2617666D01*
X7589337Y-2619050D01*
X7594191Y-2620562D01*
X7598294Y-2622062D01*
X7602781Y-2624474D01*
X7606754Y-2627904D01*
X7607795Y-2629072D01*
X7610451Y-2633529D01*
X7611702Y-2638617D01*
X7611898Y-2642017D01*
X7611366Y-2646943D01*
X7609587Y-2651823D01*
X7608112Y-2654253D01*
X7604802Y-2657960D01*
X7600551Y-2661022D01*
X7597195Y-2662704D01*
X7592533Y-2664327D01*
X7587433Y-2665349D01*
X7582467Y-2665755D01*
X7580733Y-2665782D01*
G37*
G36*
X7672763Y-2644142D02*
G01*
X7672763Y-2665000D01*
X7660307Y-2665000D01*
X7654764Y-2664701D01*
X7649782Y-2663803D01*
X7644775Y-2662045D01*
X7640500Y-2659505D01*
X7639546Y-2658747D01*
X7635957Y-2654591D01*
X7633753Y-2649845D01*
X7632585Y-2644880D01*
X7632129Y-2639159D01*
X7632121Y-2638280D01*
X7632121Y-2607701D01*
X7622742Y-2607701D01*
X7622742Y-2586842D01*
X7632121Y-2586842D01*
X7632121Y-2567303D01*
X7656472Y-2567303D01*
X7656472Y-2586842D01*
X7672763Y-2586842D01*
X7672763Y-2607701D01*
X7656472Y-2607701D01*
X7656472Y-2637816D01*
X7657996Y-2642483D01*
X7658206Y-2642676D01*
X7662999Y-2644119D01*
X7663971Y-2644142D01*
X7672763Y-2644142D01*
G37*
G36*
X7725214Y-2586360D02*
G01*
X7730405Y-2587258D01*
X7735277Y-2588753D01*
X7739832Y-2590848D01*
X7744000Y-2593486D01*
X7748112Y-2597066D01*
X7751613Y-2601296D01*
X7753608Y-2604477D01*
X7755777Y-2609093D01*
X7757326Y-2614075D01*
X7758256Y-2619424D01*
X7758561Y-2624405D01*
X7758566Y-2625140D01*
X7758351Y-2630136D01*
X7758151Y-2632174D01*
X7704100Y-2632174D01*
X7705274Y-2637253D01*
X7708047Y-2641398D01*
X7708789Y-2642066D01*
X7713077Y-2644502D01*
X7718203Y-2645447D01*
X7718950Y-2645461D01*
X7724007Y-2644807D01*
X7728678Y-2642297D01*
X7731406Y-2638768D01*
X7756758Y-2638768D01*
X7755230Y-2643429D01*
X7752837Y-2648214D01*
X7750016Y-2652254D01*
X7749700Y-2652641D01*
X7746257Y-2656228D01*
X7742308Y-2659295D01*
X7737853Y-2661842D01*
X7736902Y-2662289D01*
X7731927Y-2664131D01*
X7727140Y-2665205D01*
X7722059Y-2665727D01*
X7719707Y-2665782D01*
X7714814Y-2665549D01*
X7709515Y-2664714D01*
X7704527Y-2663271D01*
X7699851Y-2661220D01*
X7699288Y-2660921D01*
X7695063Y-2658231D01*
X7691326Y-2655023D01*
X7688077Y-2651295D01*
X7685317Y-2647048D01*
X7683116Y-2642339D01*
X7681544Y-2637248D01*
X7680600Y-2631775D01*
X7680291Y-2626674D01*
X7680286Y-2625921D01*
X7680523Y-2620778D01*
X7680915Y-2618105D01*
X7704246Y-2618105D01*
X7734215Y-2618105D01*
X7733411Y-2613261D01*
X7730765Y-2609128D01*
X7730014Y-2608433D01*
X7725614Y-2605839D01*
X7720674Y-2604850D01*
X7719511Y-2604819D01*
X7714597Y-2605482D01*
X7710142Y-2607667D01*
X7709351Y-2608287D01*
X7706173Y-2612159D01*
X7704457Y-2616936D01*
X7704246Y-2618105D01*
X7680915Y-2618105D01*
X7681235Y-2615927D01*
X7682630Y-2610740D01*
X7684644Y-2605936D01*
X7685244Y-2604794D01*
X7687972Y-2600538D01*
X7691198Y-2596807D01*
X7694921Y-2593602D01*
X7699142Y-2590921D01*
X7703788Y-2588795D01*
X7708765Y-2587276D01*
X7714071Y-2586364D01*
X7718984Y-2586065D01*
X7719707Y-2586061D01*
X7725214Y-2586360D01*
G37*
G36*
X7872041Y-2586061D02*
G01*
X7877300Y-2586371D01*
X7882139Y-2587301D01*
X7887255Y-2589169D01*
X7891801Y-2591881D01*
X7895244Y-2594878D01*
X7898613Y-2599064D01*
X7901155Y-2603907D01*
X7902674Y-2608580D01*
X7903586Y-2613737D01*
X7903890Y-2619375D01*
X7903890Y-2665000D01*
X7879539Y-2665000D01*
X7879539Y-2622673D01*
X7878986Y-2617512D01*
X7876943Y-2612706D01*
X7875607Y-2611047D01*
X7871617Y-2608225D01*
X7866487Y-2606984D01*
X7864811Y-2606919D01*
X7859703Y-2607600D01*
X7855293Y-2609858D01*
X7853992Y-2611047D01*
X7851320Y-2615292D01*
X7850179Y-2620405D01*
X7850084Y-2622673D01*
X7850084Y-2665000D01*
X7825733Y-2665000D01*
X7825733Y-2622673D01*
X7825180Y-2617512D01*
X7823137Y-2612706D01*
X7821800Y-2611047D01*
X7817799Y-2608225D01*
X7812675Y-2606984D01*
X7811005Y-2606919D01*
X7805896Y-2607600D01*
X7801486Y-2609858D01*
X7800185Y-2611047D01*
X7797513Y-2615292D01*
X7796372Y-2620405D01*
X7796277Y-2622673D01*
X7796277Y-2665000D01*
X7771926Y-2665000D01*
X7771926Y-2586842D01*
X7796277Y-2586842D01*
X7796277Y-2596734D01*
X7799601Y-2593080D01*
X7803658Y-2590095D01*
X7805778Y-2588943D01*
X7810394Y-2587187D01*
X7815450Y-2586241D01*
X7819065Y-2586061D01*
X7824389Y-2586433D01*
X7829342Y-2587549D01*
X7833923Y-2589410D01*
X7834794Y-2589871D01*
X7839194Y-2592857D01*
X7842890Y-2596612D01*
X7845638Y-2600691D01*
X7848775Y-2596524D01*
X7852610Y-2592923D01*
X7856703Y-2590140D01*
X7861223Y-2587989D01*
X7865991Y-2586634D01*
X7871008Y-2586077D01*
X7872041Y-2586061D01*
G37*
G36*
X4912735Y-2754445D02*
G01*
X4917686Y-2755599D01*
X4922347Y-2757521D01*
X4924812Y-2758921D01*
X4928910Y-2761974D01*
X4932494Y-2765691D01*
X4935564Y-2770073D01*
X4937048Y-2772794D01*
X4939025Y-2777494D01*
X4940437Y-2782558D01*
X4941284Y-2787985D01*
X4941562Y-2793031D01*
X4941567Y-2793775D01*
X4941350Y-2798864D01*
X4940574Y-2804349D01*
X4939232Y-2809480D01*
X4937326Y-2814256D01*
X4937048Y-2814828D01*
X4934598Y-2819122D01*
X4931356Y-2823329D01*
X4927601Y-2826875D01*
X4924812Y-2828872D01*
X4920312Y-2831245D01*
X4915522Y-2832842D01*
X4910442Y-2833662D01*
X4907495Y-2833781D01*
X4902206Y-2833386D01*
X4897357Y-2832200D01*
X4893329Y-2830435D01*
X4889094Y-2827633D01*
X4885366Y-2823976D01*
X4883730Y-2821740D01*
X4883730Y-2870516D01*
X4859379Y-2870516D01*
X4859379Y-2793921D01*
X4883730Y-2793921D01*
X4884202Y-2799069D01*
X4885813Y-2803895D01*
X4888566Y-2807843D01*
X4892510Y-2810939D01*
X4897457Y-2812680D01*
X4900412Y-2812923D01*
X4905344Y-2812198D01*
X4910036Y-2809778D01*
X4912282Y-2807770D01*
X4915288Y-2803374D01*
X4916825Y-2798446D01*
X4917216Y-2793775D01*
X4916741Y-2788636D01*
X4915122Y-2783843D01*
X4912355Y-2779950D01*
X4908409Y-2776884D01*
X4903413Y-2775160D01*
X4900412Y-2774919D01*
X4895472Y-2775637D01*
X4890794Y-2778035D01*
X4888566Y-2780024D01*
X4885619Y-2784359D01*
X4884112Y-2789257D01*
X4883730Y-2793921D01*
X4859379Y-2793921D01*
X4859379Y-2754842D01*
X4883730Y-2754842D01*
X4883730Y-2766102D01*
X4886963Y-2762075D01*
X4891068Y-2758725D01*
X4893255Y-2757407D01*
X4898109Y-2755368D01*
X4903070Y-2754325D01*
X4907495Y-2754061D01*
X4912735Y-2754445D01*
G37*
G36*
X4987586Y-2754387D02*
G01*
X4992586Y-2755502D01*
X4997107Y-2757407D01*
X5001373Y-2760187D01*
X5005080Y-2763849D01*
X5006682Y-2766102D01*
X5006682Y-2754842D01*
X5031033Y-2754842D01*
X5031033Y-2833000D01*
X5006682Y-2833000D01*
X5006682Y-2821740D01*
X5003393Y-2825783D01*
X4999555Y-2828907D01*
X4996961Y-2830460D01*
X4992439Y-2832351D01*
X4987439Y-2833457D01*
X4982477Y-2833781D01*
X4977264Y-2833393D01*
X4972314Y-2832228D01*
X4967627Y-2830286D01*
X4965136Y-2828872D01*
X4960985Y-2825767D01*
X4957351Y-2822000D01*
X4954236Y-2817573D01*
X4952729Y-2814828D01*
X4950741Y-2810096D01*
X4949321Y-2805010D01*
X4948470Y-2799569D01*
X4948190Y-2794518D01*
X4948186Y-2793775D01*
X4972537Y-2793775D01*
X4973021Y-2798930D01*
X4974672Y-2803780D01*
X4977495Y-2807770D01*
X4981534Y-2810910D01*
X4986178Y-2812601D01*
X4989609Y-2812923D01*
X4994652Y-2812209D01*
X4999084Y-2810065D01*
X5001699Y-2807843D01*
X5004735Y-2803492D01*
X5006288Y-2798587D01*
X5006682Y-2793921D01*
X5006195Y-2788775D01*
X5004536Y-2783958D01*
X5001699Y-2780024D01*
X4997675Y-2776913D01*
X4993039Y-2775238D01*
X4989609Y-2774919D01*
X4984563Y-2775627D01*
X4980120Y-2777749D01*
X4977495Y-2779950D01*
X4974473Y-2784241D01*
X4972929Y-2789116D01*
X4972537Y-2793775D01*
X4948186Y-2793775D01*
X4948403Y-2788688D01*
X4949184Y-2783216D01*
X4950533Y-2778107D01*
X4952449Y-2773362D01*
X4952729Y-2772794D01*
X4955217Y-2768538D01*
X4958505Y-2764378D01*
X4962311Y-2760882D01*
X4965136Y-2758921D01*
X4969689Y-2756572D01*
X4974528Y-2754991D01*
X4979653Y-2754179D01*
X4982624Y-2754061D01*
X4987586Y-2754387D01*
G37*
G36*
X5097516Y-2754061D02*
G01*
X5102469Y-2754373D01*
X5107757Y-2755528D01*
X5112518Y-2757534D01*
X5116749Y-2760390D01*
X5119449Y-2762951D01*
X5122646Y-2767159D01*
X5125059Y-2772002D01*
X5126686Y-2777481D01*
X5127455Y-2782683D01*
X5127655Y-2787375D01*
X5127655Y-2833000D01*
X5103304Y-2833000D01*
X5103304Y-2791186D01*
X5102831Y-2786300D01*
X5101051Y-2781569D01*
X5099299Y-2779218D01*
X5095287Y-2776279D01*
X5090219Y-2774986D01*
X5088576Y-2774919D01*
X5083551Y-2775629D01*
X5079148Y-2777979D01*
X5077830Y-2779218D01*
X5075108Y-2783612D01*
X5073989Y-2788421D01*
X5073849Y-2791186D01*
X5073849Y-2833000D01*
X5049498Y-2833000D01*
X5049498Y-2754842D01*
X5073849Y-2754842D01*
X5073849Y-2765687D01*
X5077221Y-2761692D01*
X5081070Y-2758662D01*
X5083643Y-2757187D01*
X5088490Y-2755282D01*
X5093308Y-2754308D01*
X5097516Y-2754061D01*
G37*
G36*
X5187544Y-2812142D02*
G01*
X5187544Y-2833000D01*
X5175087Y-2833000D01*
X5169544Y-2832701D01*
X5164562Y-2831803D01*
X5159555Y-2830045D01*
X5155281Y-2827504D01*
X5154327Y-2826747D01*
X5150737Y-2822590D01*
X5148533Y-2817845D01*
X5147366Y-2812880D01*
X5146909Y-2807159D01*
X5146902Y-2806280D01*
X5146902Y-2775701D01*
X5137523Y-2775701D01*
X5137523Y-2754842D01*
X5146902Y-2754842D01*
X5146902Y-2735303D01*
X5171253Y-2735303D01*
X5171253Y-2754842D01*
X5187544Y-2754842D01*
X5187544Y-2775701D01*
X5171253Y-2775701D01*
X5171253Y-2805816D01*
X5172777Y-2810483D01*
X5172987Y-2810676D01*
X5177779Y-2812119D01*
X5178751Y-2812142D01*
X5187544Y-2812142D01*
G37*
G36*
X5230335Y-2833781D02*
G01*
X5225430Y-2833566D01*
X5220245Y-2832810D01*
X5215410Y-2831508D01*
X5212383Y-2830338D01*
X5207803Y-2827935D01*
X5203861Y-2825031D01*
X5200264Y-2821258D01*
X5199976Y-2820885D01*
X5197323Y-2816584D01*
X5195611Y-2811943D01*
X5194871Y-2807428D01*
X5218074Y-2807428D01*
X5219892Y-2812118D01*
X5221860Y-2814047D01*
X5226434Y-2816168D01*
X5230188Y-2816587D01*
X5235225Y-2815840D01*
X5237149Y-2814853D01*
X5239614Y-2810483D01*
X5239616Y-2810310D01*
X5237147Y-2805922D01*
X5236148Y-2805376D01*
X5231250Y-2803560D01*
X5226331Y-2802153D01*
X5224913Y-2801786D01*
X5219977Y-2800545D01*
X5215170Y-2799137D01*
X5211015Y-2797682D01*
X5206437Y-2795316D01*
X5202448Y-2791976D01*
X5201417Y-2790844D01*
X5198823Y-2786493D01*
X5197603Y-2781519D01*
X5197411Y-2778192D01*
X5198012Y-2772964D01*
X5199813Y-2768115D01*
X5201050Y-2766004D01*
X5204282Y-2762191D01*
X5208483Y-2759030D01*
X5211821Y-2757285D01*
X5216541Y-2755585D01*
X5221786Y-2754514D01*
X5226954Y-2754089D01*
X5228772Y-2754061D01*
X5233996Y-2754311D01*
X5239544Y-2755238D01*
X5244503Y-2756847D01*
X5248872Y-2759138D01*
X5251633Y-2761193D01*
X5255365Y-2765052D01*
X5258209Y-2769497D01*
X5260165Y-2774528D01*
X5261147Y-2779412D01*
X5261232Y-2780146D01*
X5239616Y-2780146D01*
X5237816Y-2775518D01*
X5236026Y-2773673D01*
X5231486Y-2771595D01*
X5228039Y-2771255D01*
X5223153Y-2772017D01*
X5221542Y-2772867D01*
X5219295Y-2777264D01*
X5221633Y-2781628D01*
X5222837Y-2782320D01*
X5227716Y-2784091D01*
X5232505Y-2785350D01*
X5233876Y-2785666D01*
X5238940Y-2787050D01*
X5243793Y-2788562D01*
X5247896Y-2790062D01*
X5252383Y-2792474D01*
X5256356Y-2795904D01*
X5257397Y-2797072D01*
X5260054Y-2801529D01*
X5261304Y-2806617D01*
X5261500Y-2810017D01*
X5260968Y-2814943D01*
X5259190Y-2819823D01*
X5257715Y-2822253D01*
X5254405Y-2825960D01*
X5250154Y-2829022D01*
X5246797Y-2830704D01*
X5242135Y-2832327D01*
X5237035Y-2833349D01*
X5232069Y-2833754D01*
X5230335Y-2833781D01*
G37*
G36*
X5317676Y-2775701D02*
G01*
X5305171Y-2775701D01*
X5305171Y-2833000D01*
X5280820Y-2833000D01*
X5280820Y-2775701D01*
X5272345Y-2775701D01*
X5272345Y-2754842D01*
X5280820Y-2754842D01*
X5280820Y-2752522D01*
X5281110Y-2747169D01*
X5281981Y-2742321D01*
X5283730Y-2737303D01*
X5286270Y-2732972D01*
X5289075Y-2729807D01*
X5293067Y-2726772D01*
X5297798Y-2724481D01*
X5303267Y-2722937D01*
X5308542Y-2722206D01*
X5313353Y-2722016D01*
X5317261Y-2722163D01*
X5317261Y-2742874D01*
X5312184Y-2743375D01*
X5307882Y-2745488D01*
X5305618Y-2750035D01*
X5305171Y-2754842D01*
X5317676Y-2754842D01*
X5317676Y-2775701D01*
G37*
G36*
X5368323Y-2754293D02*
G01*
X5373684Y-2755129D01*
X5378762Y-2756572D01*
X5383555Y-2758622D01*
X5384135Y-2758921D01*
X5388517Y-2761606D01*
X5392408Y-2764826D01*
X5395808Y-2768579D01*
X5398716Y-2772867D01*
X5401045Y-2777600D01*
X5402709Y-2782686D01*
X5403708Y-2788126D01*
X5404035Y-2793177D01*
X5404040Y-2793921D01*
X5403782Y-2799011D01*
X5402854Y-2804496D01*
X5401252Y-2809626D01*
X5398975Y-2814403D01*
X5398643Y-2814975D01*
X5395709Y-2819254D01*
X5392280Y-2823004D01*
X5388357Y-2826227D01*
X5383939Y-2828921D01*
X5379138Y-2831047D01*
X5374066Y-2832566D01*
X5368721Y-2833478D01*
X5363822Y-2833777D01*
X5363105Y-2833781D01*
X5358193Y-2833549D01*
X5352848Y-2832714D01*
X5347790Y-2831271D01*
X5343019Y-2829220D01*
X5342442Y-2828921D01*
X5338096Y-2826231D01*
X5334242Y-2823023D01*
X5330879Y-2819295D01*
X5328008Y-2815048D01*
X5325710Y-2810339D01*
X5324069Y-2805248D01*
X5323085Y-2799775D01*
X5322762Y-2794674D01*
X5322756Y-2793921D01*
X5347107Y-2793921D01*
X5347551Y-2799220D01*
X5349064Y-2804101D01*
X5351650Y-2807989D01*
X5355744Y-2811184D01*
X5360604Y-2812750D01*
X5363105Y-2812923D01*
X5367983Y-2812229D01*
X5372615Y-2809912D01*
X5374829Y-2807989D01*
X5377791Y-2803698D01*
X5379305Y-2798727D01*
X5379689Y-2793921D01*
X5379229Y-2788622D01*
X5377659Y-2783741D01*
X5374976Y-2779853D01*
X5370803Y-2776658D01*
X5365904Y-2775093D01*
X5363398Y-2774919D01*
X5358459Y-2775603D01*
X5353868Y-2777886D01*
X5351724Y-2779779D01*
X5348911Y-2784046D01*
X5347473Y-2789050D01*
X5347107Y-2793921D01*
X5322756Y-2793921D01*
X5323011Y-2788831D01*
X5323926Y-2783347D01*
X5325507Y-2778216D01*
X5327753Y-2773440D01*
X5328081Y-2772867D01*
X5330989Y-2768579D01*
X5334389Y-2764826D01*
X5338280Y-2761606D01*
X5342662Y-2758921D01*
X5347430Y-2756795D01*
X5352475Y-2755276D01*
X5357798Y-2754364D01*
X5362683Y-2754065D01*
X5363398Y-2754061D01*
X5368323Y-2754293D01*
G37*
G36*
X5442460Y-2767714D02*
G01*
X5445540Y-2763679D01*
X5449105Y-2760274D01*
X5452767Y-2757724D01*
X5457197Y-2755639D01*
X5461955Y-2754418D01*
X5466567Y-2754061D01*
X5466567Y-2779071D01*
X5460070Y-2779071D01*
X5454991Y-2779450D01*
X5450036Y-2780907D01*
X5446856Y-2782955D01*
X5444010Y-2787058D01*
X5442735Y-2792040D01*
X5442460Y-2796534D01*
X5442460Y-2833000D01*
X5418109Y-2833000D01*
X5418109Y-2754842D01*
X5442460Y-2754842D01*
X5442460Y-2767714D01*
G37*
G36*
X5502348Y-2766248D02*
G01*
X5505511Y-2762166D01*
X5509289Y-2759005D01*
X5511874Y-2757431D01*
X5516366Y-2755512D01*
X5521280Y-2754390D01*
X5526113Y-2754061D01*
X5531354Y-2754445D01*
X5536305Y-2755599D01*
X5540966Y-2757521D01*
X5543430Y-2758921D01*
X5547528Y-2761974D01*
X5551112Y-2765691D01*
X5554183Y-2770073D01*
X5555666Y-2772794D01*
X5557643Y-2777494D01*
X5559055Y-2782558D01*
X5559903Y-2787985D01*
X5560181Y-2793031D01*
X5560185Y-2793775D01*
X5559969Y-2798864D01*
X5559192Y-2804349D01*
X5557851Y-2809480D01*
X5555944Y-2814256D01*
X5555666Y-2814828D01*
X5553216Y-2819122D01*
X5549975Y-2823329D01*
X5546219Y-2826875D01*
X5543430Y-2828872D01*
X5538930Y-2831245D01*
X5534140Y-2832842D01*
X5529060Y-2833662D01*
X5526113Y-2833781D01*
X5521217Y-2833464D01*
X5516300Y-2832382D01*
X5511874Y-2830533D01*
X5507683Y-2827794D01*
X5503981Y-2824146D01*
X5502348Y-2821887D01*
X5502348Y-2833000D01*
X5477997Y-2833000D01*
X5477997Y-2793921D01*
X5502348Y-2793921D01*
X5502820Y-2799069D01*
X5504431Y-2803895D01*
X5507184Y-2807843D01*
X5511128Y-2810939D01*
X5516076Y-2812680D01*
X5519030Y-2812923D01*
X5523962Y-2812198D01*
X5528654Y-2809778D01*
X5530900Y-2807770D01*
X5533907Y-2803374D01*
X5535444Y-2798446D01*
X5535834Y-2793775D01*
X5535359Y-2788636D01*
X5533741Y-2783843D01*
X5530973Y-2779950D01*
X5527027Y-2776884D01*
X5522031Y-2775160D01*
X5519030Y-2774919D01*
X5514090Y-2775637D01*
X5509412Y-2778035D01*
X5507184Y-2780024D01*
X5504237Y-2784359D01*
X5502731Y-2789257D01*
X5502348Y-2793921D01*
X5477997Y-2793921D01*
X5477997Y-2728269D01*
X5502348Y-2728269D01*
X5502348Y-2766248D01*
G37*
G36*
X5584047Y-2747027D02*
G01*
X5579033Y-2746302D01*
X5574624Y-2743917D01*
X5573863Y-2743241D01*
X5570913Y-2738985D01*
X5569934Y-2734185D01*
X5569930Y-2733837D01*
X5570794Y-2728863D01*
X5573621Y-2724503D01*
X5573863Y-2724263D01*
X5578071Y-2721528D01*
X5582900Y-2720486D01*
X5584047Y-2720453D01*
X5588991Y-2721182D01*
X5593354Y-2723582D01*
X5594110Y-2724263D01*
X5596950Y-2728264D01*
X5598051Y-2733125D01*
X5598067Y-2733837D01*
X5597197Y-2738689D01*
X5594354Y-2743001D01*
X5594110Y-2743241D01*
X5589941Y-2745958D01*
X5584805Y-2747012D01*
X5584047Y-2747027D01*
G37*
G36*
X5596504Y-2754842D02*
G01*
X5596504Y-2833000D01*
X5572153Y-2833000D01*
X5572153Y-2754842D01*
X5596504Y-2754842D01*
G37*
G36*
X5638636Y-2767714D02*
G01*
X5641716Y-2763679D01*
X5645281Y-2760274D01*
X5648943Y-2757724D01*
X5653372Y-2755639D01*
X5658131Y-2754418D01*
X5662742Y-2754061D01*
X5662742Y-2779071D01*
X5656246Y-2779071D01*
X5651167Y-2779450D01*
X5646211Y-2780907D01*
X5643032Y-2782955D01*
X5640186Y-2787058D01*
X5638910Y-2792040D01*
X5638636Y-2796534D01*
X5638636Y-2833000D01*
X5614285Y-2833000D01*
X5614285Y-2754842D01*
X5638636Y-2754842D01*
X5638636Y-2767714D01*
G37*
G36*
X5750768Y-2833000D02*
G01*
X5726417Y-2833000D01*
X5726417Y-2821618D01*
X5723222Y-2825740D01*
X5719429Y-2828901D01*
X5716842Y-2830460D01*
X5712321Y-2832351D01*
X5707320Y-2833457D01*
X5702359Y-2833781D01*
X5697075Y-2833393D01*
X5692077Y-2832228D01*
X5687365Y-2830286D01*
X5684871Y-2828872D01*
X5680720Y-2825767D01*
X5677086Y-2822000D01*
X5673970Y-2817573D01*
X5672463Y-2814828D01*
X5670476Y-2810096D01*
X5669056Y-2805010D01*
X5668204Y-2799569D01*
X5667925Y-2794518D01*
X5667920Y-2793775D01*
X5692271Y-2793775D01*
X5692756Y-2798930D01*
X5694407Y-2803780D01*
X5697229Y-2807770D01*
X5701269Y-2810910D01*
X5705912Y-2812601D01*
X5709344Y-2812923D01*
X5714387Y-2812209D01*
X5718819Y-2810065D01*
X5721434Y-2807843D01*
X5724470Y-2803492D01*
X5726022Y-2798587D01*
X5726417Y-2793921D01*
X5725930Y-2788775D01*
X5724271Y-2783958D01*
X5721434Y-2780024D01*
X5717410Y-2776913D01*
X5712774Y-2775238D01*
X5709344Y-2774919D01*
X5704297Y-2775627D01*
X5699855Y-2777749D01*
X5697229Y-2779950D01*
X5694208Y-2784241D01*
X5692664Y-2789116D01*
X5692271Y-2793775D01*
X5667920Y-2793775D01*
X5668138Y-2788688D01*
X5668919Y-2783216D01*
X5670267Y-2778107D01*
X5672184Y-2773362D01*
X5672463Y-2772794D01*
X5674951Y-2768538D01*
X5678240Y-2764378D01*
X5682046Y-2760882D01*
X5684871Y-2758921D01*
X5689424Y-2756572D01*
X5694263Y-2754991D01*
X5699388Y-2754179D01*
X5702359Y-2754061D01*
X5707489Y-2754442D01*
X5712302Y-2755585D01*
X5716403Y-2757285D01*
X5720799Y-2760004D01*
X5724426Y-2763362D01*
X5726417Y-2765955D01*
X5726417Y-2728269D01*
X5750768Y-2728269D01*
X5750768Y-2833000D01*
G37*
G36*
X5799030Y-2833781D02*
G01*
X5794125Y-2833566D01*
X5788940Y-2832810D01*
X5784105Y-2831508D01*
X5781078Y-2830338D01*
X5776498Y-2827935D01*
X5772556Y-2825031D01*
X5768959Y-2821258D01*
X5768671Y-2820885D01*
X5766018Y-2816584D01*
X5764306Y-2811943D01*
X5763566Y-2807428D01*
X5786769Y-2807428D01*
X5788587Y-2812118D01*
X5790555Y-2814047D01*
X5795129Y-2816168D01*
X5798883Y-2816587D01*
X5803920Y-2815840D01*
X5805844Y-2814853D01*
X5808309Y-2810483D01*
X5808311Y-2810310D01*
X5805842Y-2805922D01*
X5804843Y-2805376D01*
X5799945Y-2803560D01*
X5795026Y-2802153D01*
X5793608Y-2801786D01*
X5788672Y-2800545D01*
X5783865Y-2799137D01*
X5779710Y-2797682D01*
X5775132Y-2795316D01*
X5771143Y-2791976D01*
X5770112Y-2790844D01*
X5767518Y-2786493D01*
X5766298Y-2781519D01*
X5766106Y-2778192D01*
X5766707Y-2772964D01*
X5768508Y-2768115D01*
X5769745Y-2766004D01*
X5772977Y-2762191D01*
X5777178Y-2759030D01*
X5780516Y-2757285D01*
X5785236Y-2755585D01*
X5790481Y-2754514D01*
X5795649Y-2754089D01*
X5797467Y-2754061D01*
X5802691Y-2754311D01*
X5808239Y-2755238D01*
X5813198Y-2756847D01*
X5817567Y-2759138D01*
X5820328Y-2761193D01*
X5824060Y-2765052D01*
X5826904Y-2769497D01*
X5828860Y-2774528D01*
X5829842Y-2779412D01*
X5829927Y-2780146D01*
X5808311Y-2780146D01*
X5806511Y-2775518D01*
X5804721Y-2773673D01*
X5800181Y-2771595D01*
X5796734Y-2771255D01*
X5791848Y-2772017D01*
X5790237Y-2772867D01*
X5787990Y-2777264D01*
X5790328Y-2781628D01*
X5791532Y-2782320D01*
X5796411Y-2784091D01*
X5801200Y-2785350D01*
X5802571Y-2785666D01*
X5807635Y-2787050D01*
X5812488Y-2788562D01*
X5816591Y-2790062D01*
X5821078Y-2792474D01*
X5825051Y-2795904D01*
X5826092Y-2797072D01*
X5828749Y-2801529D01*
X5829999Y-2806617D01*
X5830195Y-2810017D01*
X5829663Y-2814943D01*
X5827885Y-2819823D01*
X5826410Y-2822253D01*
X5823100Y-2825960D01*
X5818849Y-2829022D01*
X5815492Y-2830704D01*
X5810830Y-2832327D01*
X5805730Y-2833349D01*
X5800764Y-2833754D01*
X5799030Y-2833781D01*
G37*
G36*
X5858308Y-2833781D02*
G01*
X5853293Y-2833057D01*
X5848885Y-2830672D01*
X5848123Y-2829996D01*
X5845155Y-2825770D01*
X5844166Y-2820666D01*
X5845035Y-2815698D01*
X5847644Y-2811557D01*
X5848123Y-2811067D01*
X5852331Y-2808297D01*
X5857160Y-2807242D01*
X5858308Y-2807208D01*
X5863222Y-2807946D01*
X5867585Y-2810377D01*
X5868346Y-2811067D01*
X5871186Y-2815098D01*
X5872287Y-2819956D01*
X5872303Y-2820666D01*
X5871433Y-2825477D01*
X5868589Y-2829757D01*
X5868346Y-2829996D01*
X5864170Y-2832713D01*
X5859060Y-2833767D01*
X5858308Y-2833781D01*
G37*
G36*
X5880509Y-2793921D02*
G01*
X5880747Y-2788778D01*
X5881458Y-2783927D01*
X5882853Y-2778740D01*
X5884867Y-2773936D01*
X5885467Y-2772794D01*
X5888203Y-2768538D01*
X5891427Y-2764807D01*
X5895139Y-2761602D01*
X5899340Y-2758921D01*
X5903946Y-2756795D01*
X5908872Y-2755276D01*
X5914119Y-2754364D01*
X5919686Y-2754061D01*
X5925030Y-2754332D01*
X5930033Y-2755146D01*
X5935441Y-2756782D01*
X5940386Y-2759156D01*
X5944257Y-2761779D01*
X5948258Y-2765458D01*
X5951608Y-2769743D01*
X5954305Y-2774633D01*
X5956098Y-2779307D01*
X5957226Y-2783541D01*
X5931727Y-2783541D01*
X5929136Y-2778994D01*
X5924919Y-2775938D01*
X5919843Y-2774927D01*
X5919271Y-2774919D01*
X5914368Y-2775733D01*
X5910061Y-2778431D01*
X5908768Y-2779853D01*
X5906387Y-2784132D01*
X5905169Y-2789105D01*
X5904860Y-2793921D01*
X5905242Y-2799233D01*
X5906543Y-2804123D01*
X5908768Y-2808014D01*
X5912714Y-2811370D01*
X5917669Y-2812846D01*
X5919271Y-2812923D01*
X5924465Y-2812081D01*
X5928812Y-2809210D01*
X5931521Y-2804832D01*
X5931727Y-2804301D01*
X5957226Y-2804301D01*
X5955831Y-2809251D01*
X5953953Y-2813787D01*
X5951152Y-2818555D01*
X5947694Y-2822761D01*
X5944208Y-2825917D01*
X5939637Y-2828981D01*
X5934622Y-2831293D01*
X5929162Y-2832852D01*
X5924129Y-2833589D01*
X5919686Y-2833781D01*
X5914797Y-2833549D01*
X5909510Y-2832714D01*
X5904544Y-2831271D01*
X5899899Y-2829220D01*
X5899340Y-2828921D01*
X5895139Y-2826231D01*
X5891427Y-2823023D01*
X5888203Y-2819295D01*
X5885467Y-2815048D01*
X5883298Y-2810339D01*
X5881749Y-2805248D01*
X5880819Y-2799775D01*
X5880514Y-2794674D01*
X5880509Y-2793921D01*
G37*
G36*
X6010779Y-2754293D02*
G01*
X6016140Y-2755129D01*
X6021218Y-2756572D01*
X6026012Y-2758622D01*
X6026591Y-2758921D01*
X6030974Y-2761606D01*
X6034865Y-2764826D01*
X6038264Y-2768579D01*
X6041172Y-2772867D01*
X6043502Y-2777600D01*
X6045166Y-2782686D01*
X6046164Y-2788126D01*
X6046492Y-2793177D01*
X6046497Y-2793921D01*
X6046238Y-2799011D01*
X6045311Y-2804496D01*
X6043708Y-2809626D01*
X6041431Y-2814403D01*
X6041099Y-2814975D01*
X6038165Y-2819254D01*
X6034736Y-2823004D01*
X6030813Y-2826227D01*
X6026396Y-2828921D01*
X6021595Y-2831047D01*
X6016522Y-2832566D01*
X6011178Y-2833478D01*
X6006279Y-2833777D01*
X6005562Y-2833781D01*
X6000649Y-2833549D01*
X5995304Y-2832714D01*
X5990246Y-2831271D01*
X5985475Y-2829220D01*
X5984899Y-2828921D01*
X5980553Y-2826231D01*
X5976698Y-2823023D01*
X5973335Y-2819295D01*
X5970464Y-2815048D01*
X5968167Y-2810339D01*
X5966526Y-2805248D01*
X5965541Y-2799775D01*
X5965218Y-2794674D01*
X5965213Y-2793921D01*
X5989564Y-2793921D01*
X5990007Y-2799220D01*
X5991520Y-2804101D01*
X5994107Y-2807989D01*
X5998201Y-2811184D01*
X6003060Y-2812750D01*
X6005562Y-2812923D01*
X6010439Y-2812229D01*
X6015071Y-2809912D01*
X6017285Y-2807989D01*
X6020247Y-2803698D01*
X6021761Y-2798727D01*
X6022146Y-2793921D01*
X6021685Y-2788622D01*
X6020116Y-2783741D01*
X6017432Y-2779853D01*
X6013259Y-2776658D01*
X6008360Y-2775093D01*
X6005855Y-2774919D01*
X6000916Y-2775603D01*
X5996325Y-2777886D01*
X5994180Y-2779779D01*
X5991367Y-2784046D01*
X5989929Y-2789050D01*
X5989564Y-2793921D01*
X5965213Y-2793921D01*
X5965468Y-2788831D01*
X5966383Y-2783347D01*
X5967963Y-2778216D01*
X5970210Y-2773440D01*
X5970537Y-2772867D01*
X5973445Y-2768579D01*
X5976845Y-2764826D01*
X5980736Y-2761606D01*
X5985119Y-2758921D01*
X5989886Y-2756795D01*
X5994931Y-2755276D01*
X6000254Y-2754364D01*
X6005139Y-2754065D01*
X6005855Y-2754061D01*
X6010779Y-2754293D01*
G37*
G36*
X6160680Y-2754061D02*
G01*
X6165939Y-2754371D01*
X6170778Y-2755301D01*
X6175895Y-2757169D01*
X6180441Y-2759881D01*
X6183883Y-2762878D01*
X6187252Y-2767064D01*
X6189794Y-2771907D01*
X6191314Y-2776580D01*
X6192226Y-2781737D01*
X6192530Y-2787375D01*
X6192530Y-2833000D01*
X6168179Y-2833000D01*
X6168179Y-2790673D01*
X6167626Y-2785512D01*
X6165583Y-2780706D01*
X6164246Y-2779047D01*
X6160256Y-2776225D01*
X6155126Y-2774984D01*
X6153451Y-2774919D01*
X6148342Y-2775600D01*
X6143932Y-2777858D01*
X6142631Y-2779047D01*
X6139959Y-2783292D01*
X6138818Y-2788405D01*
X6138723Y-2790673D01*
X6138723Y-2833000D01*
X6114372Y-2833000D01*
X6114372Y-2790673D01*
X6113819Y-2785512D01*
X6111776Y-2780706D01*
X6110440Y-2779047D01*
X6106438Y-2776225D01*
X6101314Y-2774984D01*
X6099644Y-2774919D01*
X6094536Y-2775600D01*
X6090125Y-2777858D01*
X6088824Y-2779047D01*
X6086153Y-2783292D01*
X6085012Y-2788405D01*
X6084916Y-2790673D01*
X6084916Y-2833000D01*
X6060565Y-2833000D01*
X6060565Y-2754842D01*
X6084916Y-2754842D01*
X6084916Y-2764734D01*
X6088240Y-2761080D01*
X6092297Y-2758095D01*
X6094417Y-2756943D01*
X6099033Y-2755187D01*
X6104089Y-2754241D01*
X6107704Y-2754061D01*
X6113029Y-2754433D01*
X6117981Y-2755549D01*
X6122562Y-2757410D01*
X6123433Y-2757871D01*
X6127833Y-2760857D01*
X6131529Y-2764612D01*
X6134278Y-2768691D01*
X6137414Y-2764524D01*
X6141249Y-2760923D01*
X6145342Y-2758140D01*
X6149862Y-2755989D01*
X6154631Y-2754634D01*
X6159647Y-2754077D01*
X6160680Y-2754061D01*
G37*
G36*
X10032519Y-3047047D02*
G01*
X10008290Y-3047047D01*
X10020331Y-3010557D01*
X10032519Y-3047047D01*
G37*
G36*
X10344244Y-3094893D02*
G01*
X9795142Y-3094893D01*
X9795142Y-3012414D01*
X9806253Y-3012414D01*
X9806257Y-3012993D01*
X9806769Y-3018410D01*
X9808135Y-3023134D01*
X9810625Y-3027532D01*
X9812914Y-3030240D01*
X9816738Y-3033650D01*
X9821029Y-3036276D01*
X9821800Y-3036646D01*
X9826527Y-3038677D01*
X9831541Y-3040525D01*
X9836636Y-3042187D01*
X9837455Y-3042433D01*
X9842188Y-3043950D01*
X9846846Y-3045728D01*
X9848776Y-3046662D01*
X9852903Y-3049661D01*
X9853982Y-3050938D01*
X9855370Y-3055742D01*
X9854995Y-3058509D01*
X9852195Y-3062557D01*
X9848470Y-3064407D01*
X9843597Y-3065024D01*
X9839343Y-3064467D01*
X9835000Y-3062117D01*
X9832380Y-3058533D01*
X9831117Y-3053642D01*
X9806253Y-3053642D01*
X9806297Y-3055417D01*
X9806967Y-3060449D01*
X9808654Y-3065524D01*
X9811333Y-3070055D01*
X9812315Y-3071299D01*
X9816021Y-3075024D01*
X9820390Y-3078100D01*
X9824888Y-3080313D01*
X9828712Y-3081665D01*
X9833938Y-3082914D01*
X9838874Y-3083565D01*
X9844086Y-3083781D01*
X9848104Y-3083638D01*
X9853142Y-3083001D01*
X9858371Y-3081674D01*
X9863137Y-3079703D01*
X9864132Y-3079182D01*
X9868661Y-3076245D01*
X9872440Y-3072755D01*
X9875471Y-3068712D01*
X9875986Y-3067842D01*
X9878061Y-3063311D01*
X9879306Y-3058480D01*
X9879721Y-3053349D01*
X9879296Y-3048099D01*
X9877849Y-3043068D01*
X9875373Y-3038816D01*
X9873111Y-3036163D01*
X9869340Y-3032813D01*
X9865115Y-3030219D01*
X9864359Y-3029846D01*
X9859704Y-3027754D01*
X9854741Y-3025797D01*
X9849679Y-3023991D01*
X9844744Y-3022281D01*
X9840191Y-3020462D01*
X9835733Y-3018227D01*
X9832677Y-3015469D01*
X9831263Y-3010728D01*
X9831481Y-3008432D01*
X9834023Y-3004036D01*
X9836333Y-3002622D01*
X9841253Y-3001716D01*
X9845478Y-3002249D01*
X9849826Y-3004500D01*
X9852096Y-3007313D01*
X9853147Y-3012096D01*
X9878158Y-3012096D01*
X9878003Y-3008753D01*
X9876986Y-3003358D01*
X9876954Y-3003279D01*
X9889197Y-3003279D01*
X9914867Y-3003279D01*
X9914867Y-3083000D01*
X9939218Y-3083000D01*
X9971068Y-3083000D01*
X9996127Y-3083000D01*
X10001989Y-3065805D01*
X10038674Y-3065805D01*
X10044560Y-3083000D01*
X10069913Y-3083000D01*
X10041351Y-3003279D01*
X10075115Y-3003279D01*
X10100785Y-3003279D01*
X10100785Y-3083000D01*
X10125136Y-3083000D01*
X10125136Y-3042871D01*
X10162554Y-3042871D01*
X10162601Y-3045322D01*
X10163076Y-3050766D01*
X10164064Y-3055825D01*
X10165563Y-3060498D01*
X10167903Y-3065366D01*
X10170829Y-3069692D01*
X10174235Y-3073438D01*
X10178120Y-3076604D01*
X10182484Y-3079190D01*
X10183064Y-3079472D01*
X10187871Y-3081409D01*
X10192983Y-3082773D01*
X10198401Y-3083562D01*
X10203391Y-3083781D01*
X10204121Y-3083777D01*
X10209104Y-3083491D01*
X10214541Y-3082621D01*
X10219704Y-3081171D01*
X10224592Y-3079141D01*
X10229112Y-3076527D01*
X10233146Y-3073352D01*
X10236696Y-3069615D01*
X10239759Y-3065317D01*
X10240768Y-3063559D01*
X10242971Y-3058521D01*
X10244321Y-3053695D01*
X10245131Y-3048478D01*
X10245401Y-3042871D01*
X10245401Y-3012414D01*
X10259665Y-3012414D01*
X10259669Y-3012993D01*
X10260182Y-3018410D01*
X10261548Y-3023134D01*
X10264037Y-3027532D01*
X10266327Y-3030240D01*
X10270151Y-3033650D01*
X10274442Y-3036276D01*
X10275213Y-3036646D01*
X10279940Y-3038677D01*
X10284953Y-3040525D01*
X10290049Y-3042187D01*
X10290867Y-3042433D01*
X10295601Y-3043950D01*
X10300258Y-3045728D01*
X10302189Y-3046662D01*
X10306315Y-3049661D01*
X10307395Y-3050938D01*
X10308782Y-3055742D01*
X10308407Y-3058509D01*
X10305607Y-3062557D01*
X10301882Y-3064407D01*
X10297010Y-3065024D01*
X10292756Y-3064467D01*
X10288412Y-3062117D01*
X10285793Y-3058533D01*
X10284529Y-3053642D01*
X10259665Y-3053642D01*
X10259710Y-3055417D01*
X10260379Y-3060449D01*
X10262066Y-3065524D01*
X10264745Y-3070055D01*
X10265728Y-3071299D01*
X10269433Y-3075024D01*
X10273802Y-3078100D01*
X10278301Y-3080313D01*
X10282125Y-3081665D01*
X10287350Y-3082914D01*
X10292287Y-3083565D01*
X10297498Y-3083781D01*
X10301517Y-3083638D01*
X10306554Y-3083001D01*
X10311784Y-3081674D01*
X10316549Y-3079703D01*
X10317545Y-3079182D01*
X10322073Y-3076245D01*
X10325853Y-3072755D01*
X10328883Y-3068712D01*
X10329398Y-3067842D01*
X10331473Y-3063311D01*
X10332718Y-3058480D01*
X10333133Y-3053349D01*
X10332709Y-3048099D01*
X10331261Y-3043068D01*
X10328786Y-3038816D01*
X10326523Y-3036163D01*
X10322752Y-3032813D01*
X10318528Y-3030219D01*
X10317772Y-3029846D01*
X10313117Y-3027754D01*
X10308154Y-3025797D01*
X10303091Y-3023991D01*
X10298157Y-3022281D01*
X10293603Y-3020462D01*
X10289145Y-3018227D01*
X10286090Y-3015469D01*
X10284676Y-3010728D01*
X10284894Y-3008432D01*
X10287435Y-3004036D01*
X10289746Y-3002622D01*
X10294665Y-3001716D01*
X10298891Y-3002249D01*
X10303238Y-3004500D01*
X10305509Y-3007313D01*
X10306560Y-3012096D01*
X10331570Y-3012096D01*
X10331415Y-3008753D01*
X10330398Y-3003358D01*
X10328433Y-2998543D01*
X10325518Y-2994307D01*
X10321654Y-2990652D01*
X10320390Y-2989720D01*
X10315576Y-2986933D01*
X10310967Y-2985129D01*
X10305914Y-2983867D01*
X10300417Y-2983146D01*
X10295495Y-2982958D01*
X10289717Y-2983234D01*
X10284364Y-2984061D01*
X10279434Y-2985439D01*
X10274219Y-2987743D01*
X10269581Y-2990798D01*
X10266725Y-2993387D01*
X10263539Y-2997502D01*
X10261302Y-3002189D01*
X10260014Y-3007449D01*
X10259665Y-3012414D01*
X10245401Y-3012414D01*
X10245401Y-2983740D01*
X10221050Y-2983740D01*
X10221050Y-3043335D01*
X10220699Y-3048027D01*
X10219314Y-3052885D01*
X10216605Y-3057086D01*
X10213809Y-3059412D01*
X10209120Y-3061329D01*
X10203856Y-3061897D01*
X10200403Y-3061667D01*
X10195377Y-3060201D01*
X10191204Y-3057086D01*
X10188756Y-3053279D01*
X10187325Y-3048508D01*
X10186905Y-3043335D01*
X10186905Y-2983740D01*
X10162554Y-2983740D01*
X10162554Y-3042871D01*
X10125136Y-3042871D01*
X10125136Y-3003279D01*
X10151710Y-3003279D01*
X10151710Y-2984521D01*
X10075115Y-2984521D01*
X10075115Y-3003279D01*
X10041351Y-3003279D01*
X10034351Y-2983740D01*
X10006629Y-2983740D01*
X9983948Y-3047047D01*
X9971068Y-3083000D01*
X9939218Y-3083000D01*
X9939218Y-3003279D01*
X9965792Y-3003279D01*
X9965792Y-2984521D01*
X9889197Y-2984521D01*
X9889197Y-3003279D01*
X9876954Y-3003279D01*
X9875020Y-2998543D01*
X9872105Y-2994307D01*
X9868241Y-2990652D01*
X9866977Y-2989720D01*
X9862163Y-2986933D01*
X9857555Y-2985129D01*
X9852502Y-2983867D01*
X9847004Y-2983146D01*
X9842083Y-2982958D01*
X9836305Y-2983234D01*
X9830951Y-2984061D01*
X9826022Y-2985439D01*
X9820807Y-2987743D01*
X9816169Y-2990798D01*
X9813312Y-2993387D01*
X9810126Y-2997502D01*
X9807889Y-3002189D01*
X9806601Y-3007449D01*
X9806253Y-3012414D01*
X9795142Y-3012414D01*
X9795142Y-2971847D01*
X10344244Y-2971847D01*
X10344244Y-3094893D01*
G37*
D16*
X5909216Y-5444000D02*
X5930784Y-5444000D01*
X5909216Y-5516000D02*
X5930784Y-5516000D01*
X10675000Y-6050000D02*
X10675000Y-6250000D01*
X10780000Y-5920000D02*
X10825000Y-5875000D01*
X10780000Y-6380000D02*
X10825000Y-6425000D01*
X10825000Y-5875000D02*
X11075000Y-5875000D01*
X10825000Y-6425000D02*
X11075000Y-6425000D01*
X11120000Y-5920000D02*
X11075000Y-5875000D01*
X11120000Y-6380000D02*
X11075000Y-6425000D01*
X11225000Y-6050000D02*
X11225000Y-6250000D01*
X3266500Y-6467000D02*
X3266500Y-6417000D01*
X3266500Y-6467000D02*
X3316500Y-6467000D01*
X3281500Y-5598000D02*
X3281500Y-5678000D01*
X3281500Y-5598000D02*
X3371500Y-5598000D01*
X3281500Y-6452000D02*
X3281500Y-6372000D01*
X3281500Y-6452000D02*
X3371500Y-6452000D01*
X3685500Y-5598000D02*
X3595500Y-5598000D01*
X3685500Y-5598000D02*
X3685500Y-5678000D01*
X3685500Y-6452000D02*
X3595500Y-6452000D01*
X3685500Y-6452000D02*
X3685500Y-6372000D01*
X10675000Y-5350000D02*
X10675000Y-5550000D01*
X10780000Y-5220000D02*
X10825000Y-5175000D01*
X10780000Y-5680000D02*
X10825000Y-5725000D01*
X10825000Y-5175000D02*
X11075000Y-5175000D01*
X10825000Y-5725000D02*
X11075000Y-5725000D01*
X11120000Y-5220000D02*
X11075000Y-5175000D01*
X11120000Y-5680000D02*
X11075000Y-5725000D01*
X11225000Y-5350000D02*
X11225000Y-5550000D01*
X10675000Y-4650000D02*
X10675000Y-4850000D01*
X10780000Y-4520000D02*
X10825000Y-4475000D01*
X10780000Y-4980000D02*
X10825000Y-5025000D01*
X10825000Y-4475000D02*
X11075000Y-4475000D01*
X10825000Y-5025000D02*
X11075000Y-5025000D01*
X11120000Y-4520000D02*
X11075000Y-4475000D01*
X11120000Y-4980000D02*
X11075000Y-5025000D01*
X11225000Y-4650000D02*
X11225000Y-4850000D01*
D10*
X4710020Y-2858750D02*
X4511900Y-2858750D01*
X4500470Y-2782550D01*
X4682080Y-2782550D01*
X4710020Y-2858750D01*
G36*
X4710020Y-2858750D02*
G01*
X4511900Y-2858750D01*
X4500470Y-2782550D01*
X4682080Y-2782550D01*
X4710020Y-2858750D01*
G37*
X4671920Y-2757150D02*
X4496660Y-2757150D01*
X4471260Y-2585700D01*
X4435700Y-2547600D01*
X4594450Y-2547600D01*
X4671920Y-2757150D01*
G36*
X4671920Y-2757150D02*
G01*
X4496660Y-2757150D01*
X4471260Y-2585700D01*
X4435700Y-2547600D01*
X4594450Y-2547600D01*
X4671920Y-2757150D01*
G37*
D16*
X3370000Y-5323500D02*
X3598500Y-5323500D01*
X3598500Y-5176500D02*
X3370000Y-5176500D01*
X3598500Y-5323500D02*
X3598500Y-5176500D01*
X4189000Y-5535000D02*
X4189000Y-5665000D01*
X4501000Y-5665000D02*
X4501000Y-5538000D01*
X4529000Y-5524000D02*
X4496000Y-5500000D01*
X4529000Y-5476000D01*
X4529000Y-5524000D01*
G36*
X4529000Y-5524000D02*
G01*
X4496000Y-5500000D01*
X4529000Y-5476000D01*
X4529000Y-5524000D01*
G37*
X10126500Y-2720000D02*
X10126500Y-2948500D01*
X10126500Y-2948500D02*
X10273500Y-2948500D01*
X10273500Y-2948500D02*
X10273500Y-2720000D01*
X3370000Y-5493500D02*
X3598500Y-5493500D01*
X3598500Y-5346500D02*
X3370000Y-5346500D01*
X3598500Y-5493500D02*
X3598500Y-5346500D01*
D10*
X4188100Y-2858750D02*
X3989980Y-2858750D01*
X4017920Y-2782550D01*
X4199530Y-2782550D01*
X4188100Y-2858750D01*
G36*
X4188100Y-2858750D02*
G01*
X3989980Y-2858750D01*
X4017920Y-2782550D01*
X4199530Y-2782550D01*
X4188100Y-2858750D01*
G37*
X4228740Y-2585700D02*
X4203340Y-2757150D01*
X4028080Y-2757150D01*
X4105550Y-2547600D01*
X4264300Y-2547600D01*
X4228740Y-2585700D01*
G36*
X4228740Y-2585700D02*
G01*
X4203340Y-2757150D01*
X4028080Y-2757150D01*
X4105550Y-2547600D01*
X4264300Y-2547600D01*
X4228740Y-2585700D01*
G37*
D16*
X9875000Y-7125000D02*
X9875000Y-7375000D01*
X9920000Y-7080000D02*
X9875000Y-7125000D01*
X9920000Y-7420000D02*
X9875000Y-7375000D01*
X10250000Y-6975000D02*
X10050000Y-6975000D01*
X10250000Y-7525000D02*
X10050000Y-7525000D01*
X10380000Y-7080000D02*
X10425000Y-7125000D01*
X10380000Y-7420000D02*
X10425000Y-7375000D01*
X10425000Y-7125000D02*
X10425000Y-7375000D01*
X7850000Y-5950000D02*
X7950000Y-5950000D01*
X7850000Y-6050000D02*
X7800000Y-6050000D01*
X7850000Y-6050000D02*
X7850000Y-5950000D01*
X7850000Y-7550000D02*
X7850000Y-7650000D01*
X7850000Y-7650000D02*
X7950000Y-7650000D01*
X9450000Y-5950000D02*
X9550000Y-5950000D01*
X9550000Y-6050000D02*
X9550000Y-5950000D01*
X9550000Y-7550000D02*
X9550000Y-7650000D01*
X9550000Y-7650000D02*
X9450000Y-7650000D01*
%LPC*%
D17*
X5872000Y-5480000D03*
X5968000Y-5480000D03*
D18*
X10635000Y-5960000D03*
X11265000Y-5960000D03*
X10635000Y-6340000D03*
X11265000Y-6340000D03*
D19*
X11200000Y-7200000D03*
D20*
X3483500Y-6400000D03*
D21*
X3483500Y-5650000D03*
D22*
X3400000Y-6300000D03*
X3400000Y-6250000D03*
X3400000Y-6200000D03*
X3400000Y-6150000D03*
X3400000Y-6100000D03*
X3400000Y-6050000D03*
X3400000Y-6000000D03*
X3400000Y-5950000D03*
X3400000Y-5900000D03*
X3400000Y-5850000D03*
X3400000Y-5800000D03*
X3400000Y-5750000D03*
X3567000Y-5750000D03*
X3567000Y-5800000D03*
X3567000Y-5850000D03*
X3567000Y-5900000D03*
X3567000Y-5950000D03*
X3567000Y-6000000D03*
X3567000Y-6050000D03*
X3567000Y-6100000D03*
X3567000Y-6150000D03*
X3567000Y-6200000D03*
X3567000Y-6250000D03*
X3567000Y-6300000D03*
D23*
X3268500Y-6265000D03*
X3698500Y-6265000D03*
X3268500Y-5785000D03*
X3698500Y-5785000D03*
D18*
X10635000Y-5260000D03*
X11265000Y-5260000D03*
X10635000Y-5640000D03*
X11265000Y-5640000D03*
X10635000Y-4560000D03*
X11265000Y-4560000D03*
X10635000Y-4940000D03*
X11265000Y-4940000D03*
D19*
X3500000Y-7200000D03*
X3500000Y-3000000D03*
D24*
X3528750Y-5250000D03*
X3371250Y-5250000D03*
D25*
X4420000Y-5500000D03*
D26*
X4250000Y-5500000D03*
X4250000Y-5700000D03*
X4440000Y-5700000D03*
D19*
X11200000Y-3000000D03*
D27*
X10200000Y-2878750D03*
X10200000Y-2721250D03*
D24*
X3528750Y-5420000D03*
X3371250Y-5420000D03*
D28*
X10340000Y-6935000D03*
X10340000Y-7565000D03*
X9960000Y-6935000D03*
X9960000Y-7565000D03*
D29*
X7920000Y-6125000D03*
X7920000Y-6275000D03*
X7920000Y-6425000D03*
X7920000Y-6575000D03*
X7920000Y-6725000D03*
X7920000Y-6875000D03*
X7920000Y-7025000D03*
X7920000Y-7175000D03*
X7920000Y-7325000D03*
X7920000Y-7475000D03*
X9480000Y-7475000D03*
X9480000Y-7325000D03*
X9480000Y-7175000D03*
X9480000Y-7025000D03*
X9480000Y-6875000D03*
X9480000Y-6725000D03*
X9480000Y-6575000D03*
X9480000Y-6425000D03*
X9480000Y-6275000D03*
X9480000Y-6125000D03*
D30*
X11400000Y-3750000D03*
D31*
X11200000Y-3750000D03*
%LPD*%
M02*
