%TF.GenerationSoftware,KiCad,Pcbnew,8.0.6+1*%
%TF.CreationDate,2025-01-07T07:54:14+00:00*%
%TF.ProjectId,gshps,67736870-732e-46b6-9963-61645f706362,B*%
%TF.SameCoordinates,Original*%
%TF.FileFunction,Copper,L2,Inr*%
%TF.FilePolarity,Positive*%
%FSLAX45Y45*%
G04 Gerber Fmt 4.5, Leading zero omitted, Abs format (unit mm)*
G04 Created by KiCad (PCBNEW 8.0.6+1) date 2025-01-07 07:54:14*
%MOMM*%
%LPD*%
G01*
G04 APERTURE LIST*
G04 Aperture macros list*
%AMRoundRect*
0 Rectangle with rounded corners*
0 $1 Rounding radius*
0 $2 $3 $4 $5 $6 $7 $8 $9 X,Y pos of 4 corners*
0 Add a 4 corners polygon primitive as box body*
4,1,4,$2,$3,$4,$5,$6,$7,$8,$9,$2,$3,0*
0 Add four circle primitives for the rounded corners*
1,1,$1+$1,$2,$3*
1,1,$1+$1,$4,$5*
1,1,$1+$1,$6,$7*
1,1,$1+$1,$8,$9*
0 Add four rect primitives between the rounded corners*
20,1,$1+$1,$2,$3,$4,$5,0*
20,1,$1+$1,$4,$5,$6,$7,0*
20,1,$1+$1,$6,$7,$8,$9,0*
20,1,$1+$1,$8,$9,$2,$3,0*%
G04 Aperture macros list end*
%TA.AperFunction,Profile*%
%ADD10C,0.100000*%
%TD*%
%TA.AperFunction,ComponentPad*%
%ADD11C,1.100000*%
%TD*%
%TA.AperFunction,HeatsinkPad*%
%ADD12C,0.500000*%
%TD*%
%TA.AperFunction,ComponentPad*%
%ADD13RoundRect,0.250000X0.350000X0.625000X-0.350000X0.625000X-0.350000X-0.625000X0.350000X-0.625000X0*%
%TD*%
%TA.AperFunction,ComponentPad*%
%ADD14O,1.200000X1.750000*%
%TD*%
%TA.AperFunction,ViaPad*%
%ADD15C,0.500000*%
%TD*%
%TA.AperFunction,ViaPad*%
%ADD16C,0.800000*%
%TD*%
%TA.AperFunction,Conductor*%
%ADD17C,0.250000*%
%TD*%
G04 APERTURE END LIST*
D10*
X4300000Y-5900000D02*
X6350000Y-5900000D01*
X10750000Y-2350000D02*
G75*
G02*
X11850000Y-3450000I0J-1100000D01*
G01*
X11850000Y-6750000D02*
G75*
G02*
X10750000Y-7850000I-1100000J0D01*
G01*
X3950000Y-7850000D02*
G75*
G02*
X2850000Y-6750000I0J1100000D01*
G01*
X4100000Y-7850000D02*
X4100000Y-6100000D01*
X4100000Y-6100000D02*
G75*
G02*
X4300000Y-5900000I200000J0D01*
G01*
X10750000Y-7850000D02*
X6550000Y-7850000D01*
X3950000Y-2350000D02*
X10750000Y-2350000D01*
X4100000Y-7850000D02*
X3950000Y-7850000D01*
X2850000Y-6750000D02*
X2850000Y-3450000D01*
X6550000Y-7850000D02*
X6550000Y-6100000D01*
X2850000Y-3450000D02*
G75*
G02*
X3950000Y-2350000I1100000J0D01*
G01*
X6350000Y-5900000D02*
G75*
G02*
X6550000Y-6100000I0J-200000D01*
G01*
X11850000Y-3450000D02*
X11850000Y-6750000D01*
D11*
X3268500Y-6265000D03*
X3698500Y-6265000D03*
X3268500Y-5785000D03*
X3698500Y-5785000D03*
D12*
X10245500Y-3530000D03*
X10245500Y-3400000D03*
X10245500Y-3270000D03*
X10054500Y-3530000D03*
X10054500Y-3400000D03*
X10054500Y-3270000D03*
D13*
X11400000Y-3750000D03*
D14*
X11200000Y-3750000D03*
D15*
X4720000Y-3775000D03*
X8300000Y-4800000D03*
D16*
X7480000Y-4020000D03*
X10500000Y-4550000D03*
D15*
X8300000Y-4600000D03*
X7900000Y-4900000D03*
D16*
X7720000Y-6430000D03*
D15*
X8300000Y-4500000D03*
D16*
X10340000Y-6790000D03*
X7620000Y-6430000D03*
D15*
X7640000Y-5020000D03*
D16*
X11400000Y-5250000D03*
D15*
X7900000Y-4600000D03*
D16*
X9310000Y-4100000D03*
X10340000Y-7700000D03*
X9320000Y-7320000D03*
X9670000Y-3640000D03*
X6190000Y-3350000D03*
X3930000Y-5560000D03*
X10050000Y-6000000D03*
X10500000Y-5250000D03*
X8150000Y-3430000D03*
X7690000Y-3250000D03*
X8750000Y-5360000D03*
D15*
X7640000Y-5100000D03*
X8100000Y-3980000D03*
X7900000Y-4500000D03*
X7940000Y-3730000D03*
D16*
X9360000Y-3200000D03*
X8610000Y-2950000D03*
X6630000Y-7250000D03*
D15*
X7440000Y-4440000D03*
X8770000Y-4800000D03*
D16*
X8390000Y-6680000D03*
D15*
X8010000Y-5390000D03*
D16*
X5480000Y-3930000D03*
X7280000Y-3310000D03*
X8640000Y-3550000D03*
X9450000Y-6000000D03*
X10500000Y-5950000D03*
D15*
X8100000Y-4900000D03*
D16*
X8170000Y-6430000D03*
X4470000Y-5400000D03*
X3030000Y-6240000D03*
D15*
X7900000Y-4800000D03*
D16*
X9640000Y-6270000D03*
X6190000Y-3240000D03*
D15*
X8770000Y-4400000D03*
D16*
X4442986Y-4451651D03*
X5350000Y-3670000D03*
X5050000Y-4100000D03*
D15*
X8100000Y-4500000D03*
X6770000Y-3740000D03*
X7650000Y-4550000D03*
X8300000Y-4900000D03*
X7440000Y-4800000D03*
X7640000Y-5180000D03*
X6690000Y-5740000D03*
D16*
X6630000Y-7380000D03*
X6900000Y-4870000D03*
D15*
X7910000Y-5300000D03*
D16*
X10340000Y-7430000D03*
D15*
X8200000Y-4900000D03*
X7900000Y-4700000D03*
D16*
X6240000Y-3610000D03*
X5050000Y-3350000D03*
D15*
X8000000Y-4900000D03*
D16*
X8220000Y-7590000D03*
X7030000Y-5000000D03*
D15*
X8200000Y-3980000D03*
D16*
X6100000Y-3650000D03*
X9650000Y-7320000D03*
D15*
X8200000Y-4500000D03*
X7580000Y-4550000D03*
D16*
X9010000Y-4100000D03*
X9320000Y-6270000D03*
X5040000Y-3650000D03*
X6050000Y-5480000D03*
X5160000Y-3800000D03*
X9490000Y-3290000D03*
D15*
X8300000Y-4700000D03*
D16*
X11400000Y-4550000D03*
X8150000Y-5640000D03*
X8080000Y-6430000D03*
X7400000Y-3410000D03*
D15*
X8000000Y-4500000D03*
D16*
X4870000Y-4390000D03*
X7590000Y-7590000D03*
X10610000Y-3570000D03*
X6190000Y-3460000D03*
X10340000Y-7070000D03*
X4420000Y-3970000D03*
X11120000Y-5960000D03*
X8300000Y-6680000D03*
X4370000Y-5400000D03*
X10430000Y-3710000D03*
X10420000Y-3050000D03*
X9960000Y-7070000D03*
X10290000Y-4300000D03*
X9960000Y-7430000D03*
X9490000Y-4410000D03*
D15*
X4650000Y-3650000D03*
D16*
X4420000Y-4080000D03*
X6630000Y-7510000D03*
X7290000Y-3150000D03*
D15*
X8533603Y-4805459D03*
X8530000Y-4400000D03*
D16*
X8370000Y-3550000D03*
D15*
X6830000Y-5600000D03*
D16*
X8660000Y-6200000D03*
X8850000Y-6200000D03*
D15*
X7666412Y-4806412D03*
X10450000Y-4730000D03*
X8101757Y-5178243D03*
X7600000Y-4300000D03*
D16*
X8260000Y-6140000D03*
D15*
X3290000Y-5250000D03*
D16*
X5800000Y-5480000D03*
D15*
X6630000Y-3880000D03*
X10450000Y-6130000D03*
X7670000Y-4440000D03*
X10450000Y-5430000D03*
X6990000Y-3420000D03*
X8080000Y-3870000D03*
D16*
X8260000Y-6230000D03*
X10200000Y-2620000D03*
D15*
X3290000Y-5420000D03*
X8080000Y-4232550D03*
X5040000Y-4730000D03*
D16*
X7710000Y-6120000D03*
X7620000Y-6120000D03*
X7700000Y-6860000D03*
D15*
X8980000Y-3550000D03*
X3678490Y-6124814D03*
X4660000Y-4570000D03*
X4640000Y-3940000D03*
D16*
X11510000Y-3920000D03*
X11510000Y-5330000D03*
X8806321Y-4321147D03*
X7060000Y-4390000D03*
X9062704Y-5310000D03*
X8820000Y-3900000D03*
X9030000Y-6570000D03*
D15*
X4640000Y-3830000D03*
X8148259Y-4230809D03*
X8036833Y-5180090D03*
X7730000Y-4299950D03*
D16*
X9646250Y-4265000D03*
X10086250Y-4225000D03*
D15*
X4670000Y-3722500D03*
X4630000Y-3570000D03*
X3600000Y-5250000D03*
D16*
X8850000Y-2650000D03*
X8700000Y-2650000D03*
X4350000Y-5780000D03*
X4440000Y-5780000D03*
X8700000Y-2750000D03*
X3770000Y-6150000D03*
X8850000Y-2750000D03*
X3860000Y-5790000D03*
D15*
X3600000Y-5420000D03*
X4960000Y-4380000D03*
X5750000Y-4380000D03*
X4935000Y-4725000D03*
X5750000Y-3090000D03*
D16*
X4340000Y-3080000D03*
D15*
X4425000Y-4675000D03*
X10530000Y-2900000D03*
X3120000Y-6060000D03*
X6570000Y-4804950D03*
X6522550Y-4355694D03*
X8630000Y-4954900D03*
X8700000Y-4907450D03*
X6560000Y-4300000D03*
X6570000Y-4740000D03*
X8882648Y-4297352D03*
X8961080Y-4739011D03*
X8802550Y-4743795D03*
X8990000Y-5127450D03*
X8559908Y-5129866D03*
X8950789Y-4298388D03*
X8587450Y-5005050D03*
X9021030Y-5018040D03*
X9015732Y-4299387D03*
X9060000Y-5070000D03*
X8562369Y-5064962D03*
X9080000Y-4290000D03*
X3790000Y-5900000D03*
X6751716Y-3871716D03*
X3270000Y-6065000D03*
X6631716Y-5541716D03*
X3710000Y-5985000D03*
X7958284Y-3851716D03*
X7901716Y-3908284D03*
X6688284Y-5598284D03*
X6808284Y-3928284D03*
X3710000Y-6065000D03*
X3270000Y-5985000D03*
X7815050Y-5560000D03*
X7015958Y-5593972D03*
X7110000Y-5670000D03*
X7840000Y-5660000D03*
X7775000Y-5445000D03*
X7190000Y-5480000D03*
X7360000Y-5210000D03*
X5590000Y-5230000D03*
X7489900Y-5209842D03*
X5700500Y-5300000D03*
X5910000Y-5340000D03*
X7553500Y-5196664D03*
X6148552Y-5227450D03*
X7424950Y-5210000D03*
X10450000Y-4970000D03*
X8872550Y-4400000D03*
X10390000Y-4500000D03*
X10450000Y-5670000D03*
X10342550Y-4554042D03*
X8872550Y-4470459D03*
X10450000Y-6370000D03*
X10308043Y-4609067D03*
X8861274Y-4534423D03*
X8590000Y-3710000D03*
X9300000Y-3710000D03*
X8940000Y-3710000D03*
X9440000Y-5630000D03*
X10080000Y-5630000D03*
X9115980Y-4680000D03*
X8620000Y-4690000D03*
X9119950Y-6270000D03*
X8920000Y-6725000D03*
X7460000Y-5900000D03*
X8820000Y-5897450D03*
X7457450Y-6950000D03*
X7410000Y-6900000D03*
X8870000Y-5850000D03*
X7410000Y-5850000D03*
D16*
X9740000Y-3460000D03*
X4357523Y-2874853D03*
X9740000Y-3340000D03*
X4380000Y-2782550D03*
D15*
X9290000Y-3830000D03*
X8590000Y-3830000D03*
X9290000Y-4010000D03*
X8570000Y-4010000D03*
X5240000Y-4427450D03*
X6475100Y-4430000D03*
X6480000Y-5370000D03*
X7680000Y-5350000D03*
X7580000Y-4720000D03*
X9540000Y-4860000D03*
X8939269Y-5224816D03*
X8457917Y-5162083D03*
X9000050Y-6050000D03*
X8340000Y-6080000D03*
X9000254Y-5191586D03*
X8610000Y-5960000D03*
X8457069Y-5094131D03*
X9000000Y-5970000D03*
X7571000Y-4653993D03*
X6810000Y-4650000D03*
X9230000Y-5870000D03*
X7740000Y-5802500D03*
X9230000Y-7170000D03*
X9230000Y-5230000D03*
X10760000Y-3570000D03*
X8458572Y-5229843D03*
X9420000Y-3760000D03*
X7670000Y-4710000D03*
X7170000Y-4580000D03*
D17*
X8148259Y-4238537D02*
X8086846Y-4299950D01*
X8148259Y-4230809D02*
X8148259Y-4238537D01*
X8086846Y-4299950D02*
X7730000Y-4299950D01*
%TA.AperFunction,Conductor*%
G36*
X10750040Y-2350000D02*
G01*
X10782970Y-2350249D01*
X10783492Y-2350267D01*
X10849273Y-2354246D01*
X10849868Y-2354300D01*
X10915254Y-2362239D01*
X10915841Y-2362328D01*
X10980628Y-2374201D01*
X10981211Y-2374326D01*
X11040944Y-2389049D01*
X11045162Y-2390089D01*
X11045738Y-2390249D01*
X11108620Y-2409844D01*
X11109182Y-2410038D01*
X11170770Y-2433395D01*
X11171320Y-2433623D01*
X11231384Y-2460656D01*
X11231917Y-2460915D01*
X11290240Y-2491526D01*
X11290759Y-2491818D01*
X11347125Y-2525893D01*
X11347625Y-2526216D01*
X11383495Y-2550975D01*
X11401830Y-2563631D01*
X11402312Y-2563985D01*
X11419144Y-2577172D01*
X11454159Y-2604605D01*
X11454617Y-2604987D01*
X11489259Y-2635677D01*
X11503918Y-2648663D01*
X11504353Y-2649073D01*
X11550927Y-2695647D01*
X11551337Y-2696082D01*
X11595012Y-2745382D01*
X11595395Y-2745841D01*
X11636014Y-2797688D01*
X11636369Y-2798169D01*
X11673783Y-2852373D01*
X11674108Y-2852876D01*
X11708181Y-2909240D01*
X11708475Y-2909760D01*
X11733819Y-2958049D01*
X11739084Y-2968081D01*
X11739345Y-2968618D01*
X11766376Y-3028679D01*
X11766605Y-3029231D01*
X11789961Y-3090816D01*
X11790156Y-3091382D01*
X11809751Y-3154262D01*
X11809911Y-3154838D01*
X11825673Y-3218788D01*
X11825799Y-3219372D01*
X11837671Y-3284157D01*
X11837761Y-3284748D01*
X11845700Y-3350132D01*
X11845754Y-3350727D01*
X11849733Y-3416507D01*
X11849751Y-3417030D01*
X11850000Y-3449960D01*
X11850000Y-3450035D01*
X11850000Y-6749965D01*
X11850000Y-6750040D01*
X11849751Y-6782969D01*
X11849733Y-6783492D01*
X11845754Y-6849273D01*
X11845700Y-6849868D01*
X11837761Y-6915252D01*
X11837671Y-6915843D01*
X11825799Y-6980627D01*
X11825673Y-6981212D01*
X11809911Y-7045162D01*
X11809751Y-7045738D01*
X11790156Y-7108618D01*
X11789961Y-7109184D01*
X11766605Y-7170769D01*
X11766376Y-7171321D01*
X11739345Y-7231381D01*
X11739084Y-7231919D01*
X11708475Y-7290239D01*
X11708181Y-7290760D01*
X11674108Y-7347124D01*
X11673783Y-7347626D01*
X11636369Y-7401830D01*
X11636014Y-7402312D01*
X11595395Y-7454159D01*
X11595012Y-7454618D01*
X11551337Y-7503918D01*
X11550927Y-7504353D01*
X11504353Y-7550927D01*
X11503918Y-7551337D01*
X11454618Y-7595012D01*
X11454159Y-7595395D01*
X11402312Y-7636014D01*
X11401830Y-7636369D01*
X11347626Y-7673783D01*
X11347124Y-7674108D01*
X11290760Y-7708181D01*
X11290239Y-7708475D01*
X11231919Y-7739084D01*
X11231381Y-7739345D01*
X11171321Y-7766376D01*
X11170769Y-7766605D01*
X11109184Y-7789961D01*
X11108618Y-7790156D01*
X11045738Y-7809751D01*
X11045162Y-7809911D01*
X10981212Y-7825673D01*
X10980627Y-7825799D01*
X10915843Y-7837671D01*
X10915252Y-7837761D01*
X10849868Y-7845700D01*
X10849273Y-7845754D01*
X10783493Y-7849733D01*
X10782970Y-7849751D01*
X10750261Y-7849998D01*
X10750040Y-7850000D01*
X10749965Y-7850000D01*
X6559900Y-7850000D01*
X6554081Y-7848109D01*
X6550484Y-7843159D01*
X6550000Y-7840100D01*
X6550000Y-7513446D01*
X6550982Y-7510422D01*
X6550826Y-7509808D01*
X6568780Y-7509808D01*
X6569715Y-7512153D01*
X6571495Y-7525676D01*
X6571496Y-7525677D01*
X6577546Y-7540284D01*
X6577546Y-7540284D01*
X6587171Y-7552828D01*
X6587172Y-7552828D01*
X6599716Y-7562454D01*
X6614324Y-7568504D01*
X6626081Y-7570052D01*
X6630000Y-7570568D01*
X6630000Y-7570568D01*
X6630000Y-7570568D01*
X6633135Y-7570155D01*
X6645676Y-7568504D01*
X6660284Y-7562454D01*
X6672828Y-7552828D01*
X6682454Y-7540284D01*
X6688504Y-7525676D01*
X6690568Y-7510000D01*
X6688504Y-7494324D01*
X6686094Y-7488504D01*
X6682454Y-7479716D01*
X6682454Y-7479716D01*
X6672829Y-7467172D01*
X6672828Y-7467172D01*
X6672828Y-7467172D01*
X6672828Y-7467171D01*
X6672828Y-7467171D01*
X6663852Y-7460284D01*
X6660284Y-7457546D01*
X6660284Y-7457546D01*
X6660284Y-7457546D01*
X6645677Y-7451496D01*
X6645676Y-7451495D01*
X6630000Y-7449432D01*
X6630000Y-7449432D01*
X6614324Y-7451495D01*
X6614323Y-7451496D01*
X6599716Y-7457546D01*
X6599716Y-7457546D01*
X6587172Y-7467171D01*
X6587171Y-7467172D01*
X6577546Y-7479716D01*
X6577546Y-7479716D01*
X6571496Y-7494323D01*
X6571495Y-7494324D01*
X6569715Y-7507846D01*
X6568780Y-7509808D01*
X6550826Y-7509808D01*
X6550000Y-7506554D01*
X6550000Y-7430000D01*
X9899432Y-7430000D01*
X9899432Y-7430000D01*
X9901496Y-7445676D01*
X9901496Y-7445677D01*
X9907546Y-7460284D01*
X9907546Y-7460284D01*
X9917171Y-7472828D01*
X9917172Y-7472828D01*
X9929716Y-7482454D01*
X9944324Y-7488504D01*
X9956081Y-7490052D01*
X9960000Y-7490568D01*
X9960000Y-7490568D01*
X9960000Y-7490568D01*
X9963135Y-7490155D01*
X9975676Y-7488504D01*
X9990284Y-7482454D01*
X10002828Y-7472828D01*
X10012454Y-7460284D01*
X10018504Y-7445676D01*
X10020568Y-7430000D01*
X10018504Y-7414324D01*
X10018504Y-7414323D01*
X10012454Y-7399716D01*
X10012454Y-7399716D01*
X10002829Y-7387172D01*
X10002829Y-7387172D01*
X10002828Y-7387172D01*
X10002828Y-7387171D01*
X10002828Y-7387171D01*
X9990284Y-7377546D01*
X9975677Y-7371496D01*
X9975676Y-7371495D01*
X9960000Y-7369432D01*
X9960000Y-7369432D01*
X9944324Y-7371495D01*
X9944323Y-7371496D01*
X9929716Y-7377546D01*
X9929716Y-7377546D01*
X9917172Y-7387171D01*
X9917171Y-7387172D01*
X9907546Y-7399716D01*
X9907546Y-7399716D01*
X9901496Y-7414323D01*
X9901496Y-7414324D01*
X9899432Y-7430000D01*
X6550000Y-7430000D01*
X6550000Y-7170000D01*
X9184487Y-7170000D01*
X9184487Y-7170000D01*
X9186330Y-7182822D01*
X9191712Y-7194606D01*
X9191712Y-7194606D01*
X9200195Y-7204397D01*
X9200195Y-7204397D01*
X9211093Y-7211400D01*
X9211093Y-7211400D01*
X9223523Y-7215050D01*
X9223523Y-7215050D01*
X9236477Y-7215050D01*
X9236477Y-7215050D01*
X9248907Y-7211400D01*
X9259805Y-7204397D01*
X9268288Y-7194606D01*
X9272238Y-7185957D01*
X10949950Y-7185957D01*
X10949950Y-7214043D01*
X10953094Y-7241951D01*
X10959344Y-7269332D01*
X10968620Y-7295841D01*
X10968620Y-7295841D01*
X10980805Y-7321143D01*
X10980805Y-7321144D01*
X10980806Y-7321144D01*
X10995748Y-7344925D01*
X11013258Y-7366882D01*
X11033118Y-7386742D01*
X11055075Y-7404252D01*
X11078856Y-7419194D01*
X11078857Y-7419195D01*
X11078857Y-7419195D01*
X11100996Y-7429857D01*
X11104159Y-7431380D01*
X11130668Y-7440656D01*
X11158049Y-7446905D01*
X11185957Y-7450050D01*
X11185958Y-7450050D01*
X11214042Y-7450050D01*
X11214042Y-7450050D01*
X11241951Y-7446905D01*
X11269332Y-7440656D01*
X11295841Y-7431380D01*
X11321144Y-7419194D01*
X11344925Y-7404252D01*
X11366882Y-7386742D01*
X11386742Y-7366882D01*
X11404252Y-7344925D01*
X11419194Y-7321144D01*
X11431380Y-7295841D01*
X11440656Y-7269332D01*
X11446905Y-7241951D01*
X11450050Y-7214042D01*
X11450050Y-7185957D01*
X11446905Y-7158049D01*
X11440656Y-7130668D01*
X11431380Y-7104159D01*
X11419194Y-7078855D01*
X11404252Y-7055075D01*
X11386742Y-7033117D01*
X11366882Y-7013258D01*
X11344925Y-6995748D01*
X11321144Y-6980805D01*
X11321144Y-6980805D01*
X11321143Y-6980805D01*
X11295841Y-6968620D01*
X11295841Y-6968620D01*
X11269332Y-6959344D01*
X11241951Y-6953094D01*
X11214043Y-6949950D01*
X11214042Y-6949950D01*
X11185957Y-6949950D01*
X11185957Y-6949950D01*
X11158049Y-6953094D01*
X11130668Y-6959344D01*
X11104159Y-6968620D01*
X11104159Y-6968620D01*
X11078857Y-6980805D01*
X11078856Y-6980805D01*
X11078856Y-6980805D01*
X11078208Y-6981212D01*
X11055075Y-6995748D01*
X11033118Y-7013258D01*
X11013258Y-7033118D01*
X10995748Y-7055075D01*
X10980805Y-7078856D01*
X10980805Y-7078857D01*
X10968620Y-7104159D01*
X10968620Y-7104159D01*
X10959344Y-7130668D01*
X10953094Y-7158049D01*
X10949950Y-7185957D01*
X9272238Y-7185957D01*
X9273670Y-7182823D01*
X9274284Y-7178548D01*
X9275513Y-7170000D01*
X9275513Y-7170000D01*
X9273670Y-7157177D01*
X9268288Y-7145394D01*
X9268288Y-7145394D01*
X9259805Y-7135603D01*
X9259805Y-7135603D01*
X9259805Y-7135603D01*
X9248907Y-7128600D01*
X9248907Y-7128600D01*
X9248907Y-7128600D01*
X9248582Y-7128504D01*
X9236477Y-7124950D01*
X9236477Y-7124950D01*
X9223523Y-7124950D01*
X9223523Y-7124950D01*
X9211093Y-7128599D01*
X9211093Y-7128600D01*
X9200195Y-7135603D01*
X9191712Y-7145394D01*
X9186330Y-7157177D01*
X9184487Y-7170000D01*
X6550000Y-7170000D01*
X6550000Y-7070000D01*
X9899432Y-7070000D01*
X9899432Y-7070000D01*
X9901496Y-7085676D01*
X9901496Y-7085677D01*
X9907546Y-7100284D01*
X9907546Y-7100284D01*
X9910520Y-7104159D01*
X9917172Y-7112828D01*
X9929716Y-7122454D01*
X9944324Y-7128504D01*
X9956081Y-7130052D01*
X9960000Y-7130568D01*
X9960000Y-7130568D01*
X9960000Y-7130568D01*
X9963135Y-7130155D01*
X9975676Y-7128504D01*
X9990284Y-7122454D01*
X10002828Y-7112828D01*
X10012454Y-7100284D01*
X10018504Y-7085676D01*
X10020568Y-7070000D01*
X10018504Y-7054324D01*
X10012454Y-7039716D01*
X10012454Y-7039716D01*
X10002829Y-7027172D01*
X10002829Y-7027172D01*
X10002828Y-7027172D01*
X10002828Y-7027171D01*
X10002828Y-7027171D01*
X9990284Y-7017546D01*
X9975677Y-7011496D01*
X9975676Y-7011495D01*
X9960000Y-7009432D01*
X9960000Y-7009432D01*
X9944324Y-7011495D01*
X9944323Y-7011496D01*
X9929716Y-7017546D01*
X9929716Y-7017546D01*
X9917172Y-7027171D01*
X9917171Y-7027172D01*
X9907546Y-7039716D01*
X9907546Y-7039716D01*
X9901496Y-7054323D01*
X9901496Y-7054324D01*
X9899432Y-7070000D01*
X6550000Y-7070000D01*
X6550000Y-6900000D01*
X7364487Y-6900000D01*
X7364487Y-6900000D01*
X7366330Y-6912822D01*
X7368925Y-6918504D01*
X7371712Y-6924606D01*
X7372394Y-6925394D01*
X7380195Y-6934397D01*
X7391093Y-6941400D01*
X7391093Y-6941400D01*
X7403523Y-6945050D01*
X7403523Y-6945050D01*
X7404052Y-6945126D01*
X7409542Y-6947825D01*
X7412398Y-6953237D01*
X7412442Y-6953516D01*
X7413780Y-6962822D01*
X7419162Y-6974606D01*
X7419162Y-6974606D01*
X7424533Y-6980805D01*
X7427645Y-6984397D01*
X7438543Y-6991400D01*
X7438543Y-6991400D01*
X7450973Y-6995050D01*
X7450973Y-6995050D01*
X7463927Y-6995050D01*
X7463927Y-6995050D01*
X7476357Y-6991400D01*
X7487255Y-6984397D01*
X7495738Y-6974606D01*
X7501120Y-6962823D01*
X7502963Y-6950000D01*
X7502956Y-6949950D01*
X7501120Y-6937177D01*
X7495738Y-6925394D01*
X7495738Y-6925394D01*
X7487255Y-6915603D01*
X7487255Y-6915603D01*
X7487255Y-6915603D01*
X7476357Y-6908600D01*
X7476357Y-6908600D01*
X7476357Y-6908600D01*
X7476357Y-6908599D01*
X7463927Y-6904950D01*
X7463398Y-6904874D01*
X7457907Y-6902174D01*
X7455052Y-6896762D01*
X7455008Y-6896483D01*
X7453670Y-6887177D01*
X7448288Y-6875394D01*
X7448288Y-6875394D01*
X7439805Y-6865603D01*
X7439805Y-6865603D01*
X7439805Y-6865603D01*
X7431086Y-6860000D01*
X7639432Y-6860000D01*
X7639432Y-6860000D01*
X7641495Y-6875676D01*
X7641496Y-6875677D01*
X7647546Y-6890284D01*
X7647546Y-6890284D01*
X7655002Y-6900000D01*
X7657172Y-6902828D01*
X7669716Y-6912454D01*
X7669716Y-6912454D01*
X7669716Y-6912454D01*
X7677899Y-6915843D01*
X7684324Y-6918504D01*
X7696081Y-6920052D01*
X7700000Y-6920568D01*
X7700000Y-6920568D01*
X7700000Y-6920568D01*
X7703135Y-6920155D01*
X7715676Y-6918504D01*
X7730284Y-6912454D01*
X7742828Y-6902828D01*
X7752454Y-6890284D01*
X7758504Y-6875676D01*
X7760568Y-6860000D01*
X7758504Y-6844324D01*
X7752454Y-6829716D01*
X7752454Y-6829716D01*
X7742829Y-6817172D01*
X7742828Y-6817172D01*
X7742828Y-6817172D01*
X7742828Y-6817171D01*
X7742828Y-6817171D01*
X7730284Y-6807546D01*
X7715677Y-6801496D01*
X7715676Y-6801495D01*
X7700000Y-6799432D01*
X7700000Y-6799432D01*
X7684324Y-6801495D01*
X7684323Y-6801496D01*
X7669716Y-6807546D01*
X7669716Y-6807546D01*
X7657172Y-6817171D01*
X7657171Y-6817172D01*
X7647546Y-6829716D01*
X7647546Y-6829716D01*
X7641496Y-6844323D01*
X7641495Y-6844324D01*
X7639432Y-6860000D01*
X7431086Y-6860000D01*
X7428907Y-6858600D01*
X7428907Y-6858600D01*
X7428907Y-6858600D01*
X7428907Y-6858599D01*
X7416477Y-6854950D01*
X7416477Y-6854950D01*
X7403523Y-6854950D01*
X7403522Y-6854950D01*
X7391093Y-6858599D01*
X7391093Y-6858600D01*
X7380195Y-6865603D01*
X7371712Y-6875394D01*
X7366330Y-6887177D01*
X7364487Y-6900000D01*
X6550000Y-6900000D01*
X6550000Y-6725000D01*
X8874487Y-6725000D01*
X8874487Y-6725000D01*
X8876330Y-6737822D01*
X8881712Y-6749606D01*
X8881712Y-6749606D01*
X8890195Y-6759397D01*
X8890195Y-6759397D01*
X8901093Y-6766400D01*
X8901093Y-6766400D01*
X8913523Y-6770050D01*
X8913523Y-6770050D01*
X8926477Y-6770050D01*
X8926477Y-6770050D01*
X8938907Y-6766400D01*
X8949805Y-6759397D01*
X8958288Y-6749606D01*
X8963670Y-6737823D01*
X8965513Y-6725000D01*
X8963670Y-6712177D01*
X8958288Y-6700394D01*
X8949805Y-6690603D01*
X8949805Y-6690603D01*
X8949805Y-6690603D01*
X8938907Y-6683600D01*
X8938907Y-6683600D01*
X8938907Y-6683600D01*
X8938907Y-6683599D01*
X8926477Y-6679950D01*
X8926477Y-6679950D01*
X8913523Y-6679950D01*
X8913523Y-6679950D01*
X8901093Y-6683599D01*
X8901093Y-6683600D01*
X8890195Y-6690603D01*
X8881712Y-6700394D01*
X8876330Y-6712177D01*
X8874487Y-6725000D01*
X6550000Y-6725000D01*
X6550000Y-6570000D01*
X8969432Y-6570000D01*
X8969432Y-6570000D01*
X8971496Y-6585676D01*
X8971496Y-6585677D01*
X8977546Y-6600284D01*
X8977546Y-6600284D01*
X8977546Y-6600284D01*
X8987172Y-6612828D01*
X8999716Y-6622454D01*
X9014324Y-6628504D01*
X9026081Y-6630052D01*
X9030000Y-6630568D01*
X9030000Y-6630568D01*
X9030000Y-6630568D01*
X9033135Y-6630155D01*
X9045676Y-6628504D01*
X9060284Y-6622454D01*
X9072828Y-6612828D01*
X9082454Y-6600284D01*
X9088504Y-6585676D01*
X9090568Y-6570000D01*
X9088504Y-6554324D01*
X9082454Y-6539716D01*
X9082454Y-6539716D01*
X9072829Y-6527172D01*
X9072829Y-6527172D01*
X9072828Y-6527172D01*
X9072828Y-6527171D01*
X9072828Y-6527171D01*
X9060284Y-6517546D01*
X9045677Y-6511496D01*
X9045676Y-6511495D01*
X9030000Y-6509432D01*
X9030000Y-6509432D01*
X9014324Y-6511495D01*
X9014323Y-6511496D01*
X8999716Y-6517546D01*
X8999716Y-6517546D01*
X8987172Y-6527171D01*
X8987171Y-6527172D01*
X8977546Y-6539716D01*
X8977546Y-6539716D01*
X8971496Y-6554323D01*
X8971496Y-6554324D01*
X8969432Y-6570000D01*
X6550000Y-6570000D01*
X6550000Y-6370000D01*
X10404487Y-6370000D01*
X10404487Y-6370000D01*
X10406330Y-6382822D01*
X10410685Y-6392358D01*
X10411712Y-6394606D01*
X10420195Y-6404397D01*
X10420195Y-6404397D01*
X10425245Y-6407642D01*
X10431093Y-6411400D01*
X10443523Y-6415050D01*
X10443523Y-6415050D01*
X10456477Y-6415050D01*
X10456477Y-6415050D01*
X10468907Y-6411400D01*
X10479805Y-6404397D01*
X10488288Y-6394606D01*
X10493670Y-6382823D01*
X10495513Y-6370000D01*
X10494702Y-6364357D01*
X10493670Y-6357177D01*
X10488522Y-6345906D01*
X10488288Y-6345394D01*
X10479805Y-6335603D01*
X10479805Y-6335603D01*
X10479805Y-6335603D01*
X10468907Y-6328600D01*
X10468907Y-6328600D01*
X10468907Y-6328600D01*
X10468907Y-6328599D01*
X10456477Y-6324950D01*
X10456477Y-6324950D01*
X10443523Y-6324950D01*
X10443523Y-6324950D01*
X10431093Y-6328599D01*
X10431093Y-6328600D01*
X10420195Y-6335603D01*
X10411712Y-6345394D01*
X10406330Y-6357177D01*
X10404487Y-6370000D01*
X6550000Y-6370000D01*
X6550000Y-6120000D01*
X7559432Y-6120000D01*
X7559432Y-6120000D01*
X7561495Y-6135676D01*
X7561496Y-6135677D01*
X7567546Y-6150284D01*
X7567546Y-6150284D01*
X7577171Y-6162828D01*
X7577172Y-6162828D01*
X7589716Y-6172454D01*
X7589716Y-6172454D01*
X7589716Y-6172454D01*
X7600024Y-6176723D01*
X7604324Y-6178504D01*
X7616081Y-6180052D01*
X7620000Y-6180568D01*
X7620000Y-6180568D01*
X7620000Y-6180568D01*
X7623135Y-6180155D01*
X7635676Y-6178504D01*
X7650284Y-6172454D01*
X7658973Y-6165786D01*
X7664741Y-6163744D01*
X7670607Y-6165481D01*
X7671023Y-6165784D01*
X7679716Y-6172454D01*
X7679716Y-6172454D01*
X7679716Y-6172454D01*
X7690024Y-6176723D01*
X7694324Y-6178504D01*
X7706081Y-6180052D01*
X7710000Y-6180568D01*
X7710000Y-6180568D01*
X7710000Y-6180568D01*
X7713135Y-6180155D01*
X7725676Y-6178504D01*
X7740284Y-6172454D01*
X7752828Y-6162828D01*
X7762454Y-6150284D01*
X7766713Y-6140000D01*
X8199432Y-6140000D01*
X8199432Y-6140000D01*
X8201495Y-6155676D01*
X8201496Y-6155677D01*
X8207546Y-6170284D01*
X8207546Y-6170284D01*
X8214214Y-6178973D01*
X8216256Y-6184741D01*
X8214518Y-6190607D01*
X8214214Y-6191027D01*
X8207546Y-6199716D01*
X8207546Y-6199716D01*
X8201496Y-6214323D01*
X8201495Y-6214324D01*
X8199432Y-6230000D01*
X8199432Y-6230000D01*
X8201495Y-6245676D01*
X8201496Y-6245677D01*
X8207546Y-6260284D01*
X8207546Y-6260284D01*
X8215002Y-6270000D01*
X8217172Y-6272828D01*
X8229716Y-6282454D01*
X8244324Y-6288504D01*
X8256081Y-6290052D01*
X8260000Y-6290568D01*
X8260000Y-6290568D01*
X8260000Y-6290568D01*
X8263135Y-6290155D01*
X8275676Y-6288504D01*
X8290284Y-6282454D01*
X8302828Y-6272828D01*
X8304999Y-6270000D01*
X9074437Y-6270000D01*
X9074437Y-6270000D01*
X9076280Y-6282822D01*
X9081662Y-6294606D01*
X9081662Y-6294606D01*
X9086335Y-6300000D01*
X9090145Y-6304397D01*
X9101043Y-6311400D01*
X9101043Y-6311400D01*
X9113473Y-6315050D01*
X9113473Y-6315050D01*
X9126427Y-6315050D01*
X9126427Y-6315050D01*
X9138857Y-6311400D01*
X9149755Y-6304397D01*
X9158238Y-6294606D01*
X9163620Y-6282823D01*
X9165463Y-6270000D01*
X9165407Y-6269608D01*
X9163620Y-6257177D01*
X9158238Y-6245394D01*
X9158238Y-6245394D01*
X9149755Y-6235603D01*
X9149755Y-6235603D01*
X9149755Y-6235603D01*
X9138857Y-6228600D01*
X9138857Y-6228600D01*
X9138857Y-6228600D01*
X9138857Y-6228599D01*
X9126427Y-6224950D01*
X9126427Y-6224950D01*
X9113473Y-6224950D01*
X9113473Y-6224950D01*
X9101043Y-6228599D01*
X9101043Y-6228600D01*
X9090145Y-6235603D01*
X9081662Y-6245394D01*
X9076280Y-6257177D01*
X9074437Y-6270000D01*
X8304999Y-6270000D01*
X8312454Y-6260284D01*
X8318504Y-6245676D01*
X8320568Y-6230000D01*
X8318504Y-6214324D01*
X8316094Y-6208504D01*
X8312571Y-6200000D01*
X8599432Y-6200000D01*
X8599432Y-6200000D01*
X8601496Y-6215676D01*
X8601496Y-6215677D01*
X8607546Y-6230284D01*
X8607546Y-6230284D01*
X8612481Y-6236716D01*
X8617172Y-6242828D01*
X8629716Y-6252454D01*
X8644324Y-6258504D01*
X8656081Y-6260052D01*
X8660000Y-6260568D01*
X8660000Y-6260568D01*
X8660000Y-6260568D01*
X8663135Y-6260155D01*
X8675676Y-6258504D01*
X8690284Y-6252454D01*
X8702828Y-6242828D01*
X8712454Y-6230284D01*
X8718504Y-6215676D01*
X8720568Y-6200000D01*
X8720568Y-6200000D01*
X8789432Y-6200000D01*
X8789432Y-6200000D01*
X8791496Y-6215676D01*
X8791496Y-6215677D01*
X8797546Y-6230284D01*
X8797546Y-6230284D01*
X8802481Y-6236716D01*
X8807172Y-6242828D01*
X8819716Y-6252454D01*
X8834324Y-6258504D01*
X8846081Y-6260052D01*
X8850000Y-6260568D01*
X8850000Y-6260568D01*
X8850000Y-6260568D01*
X8853135Y-6260155D01*
X8865676Y-6258504D01*
X8880284Y-6252454D01*
X8892828Y-6242828D01*
X8902454Y-6230284D01*
X8908504Y-6215676D01*
X8910568Y-6200000D01*
X8908504Y-6184324D01*
X8906462Y-6179393D01*
X8902454Y-6169716D01*
X8902454Y-6169716D01*
X8892829Y-6157172D01*
X8892829Y-6157172D01*
X8892828Y-6157172D01*
X8892828Y-6157171D01*
X8892828Y-6157171D01*
X8883852Y-6150284D01*
X8880284Y-6147546D01*
X8880284Y-6147546D01*
X8880284Y-6147546D01*
X8865677Y-6141496D01*
X8865676Y-6141495D01*
X8850000Y-6139432D01*
X8850000Y-6139432D01*
X8834324Y-6141495D01*
X8834323Y-6141496D01*
X8819716Y-6147546D01*
X8819716Y-6147546D01*
X8807172Y-6157171D01*
X8807171Y-6157172D01*
X8797546Y-6169716D01*
X8797546Y-6169716D01*
X8791496Y-6184323D01*
X8791496Y-6184324D01*
X8789432Y-6200000D01*
X8720568Y-6200000D01*
X8718504Y-6184324D01*
X8716462Y-6179393D01*
X8712454Y-6169716D01*
X8712454Y-6169716D01*
X8702829Y-6157172D01*
X8702829Y-6157172D01*
X8702828Y-6157172D01*
X8702828Y-6157171D01*
X8702828Y-6157171D01*
X8693852Y-6150284D01*
X8690284Y-6147546D01*
X8690284Y-6147546D01*
X8690284Y-6147546D01*
X8675677Y-6141496D01*
X8675676Y-6141495D01*
X8660000Y-6139432D01*
X8660000Y-6139432D01*
X8644324Y-6141495D01*
X8644323Y-6141496D01*
X8629716Y-6147546D01*
X8629716Y-6147546D01*
X8617172Y-6157171D01*
X8617171Y-6157172D01*
X8607546Y-6169716D01*
X8607546Y-6169716D01*
X8601496Y-6184323D01*
X8601496Y-6184324D01*
X8599432Y-6200000D01*
X8312571Y-6200000D01*
X8312454Y-6199716D01*
X8312454Y-6199716D01*
X8312454Y-6199716D01*
X8305786Y-6191026D01*
X8303744Y-6185259D01*
X8305481Y-6179393D01*
X8305784Y-6178976D01*
X8312454Y-6170284D01*
X8318504Y-6155676D01*
X8320568Y-6140000D01*
X8319984Y-6135567D01*
X8321016Y-6130000D01*
X10404487Y-6130000D01*
X10404487Y-6130000D01*
X10406330Y-6142822D01*
X10409738Y-6150284D01*
X10411712Y-6154606D01*
X10416384Y-6159998D01*
X10420195Y-6164397D01*
X10429355Y-6170284D01*
X10431093Y-6171400D01*
X10443523Y-6175050D01*
X10443523Y-6175050D01*
X10456477Y-6175050D01*
X10456477Y-6175050D01*
X10468907Y-6171400D01*
X10479805Y-6164397D01*
X10488288Y-6154606D01*
X10493670Y-6142823D01*
X10494697Y-6135676D01*
X10495513Y-6130000D01*
X10495513Y-6130000D01*
X10493670Y-6117177D01*
X10492400Y-6114397D01*
X10488288Y-6105394D01*
X10479805Y-6095603D01*
X10479805Y-6095603D01*
X10479805Y-6095603D01*
X10468907Y-6088600D01*
X10468907Y-6088600D01*
X10468907Y-6088600D01*
X10468907Y-6088599D01*
X10456477Y-6084950D01*
X10456477Y-6084950D01*
X10443523Y-6084950D01*
X10443523Y-6084950D01*
X10431093Y-6088599D01*
X10431093Y-6088600D01*
X10420195Y-6095603D01*
X10411712Y-6105394D01*
X10406330Y-6117177D01*
X10404487Y-6130000D01*
X8321016Y-6130000D01*
X8321099Y-6129551D01*
X8325538Y-6125339D01*
X8331604Y-6124540D01*
X8332589Y-6124776D01*
X8333523Y-6125050D01*
X8333523Y-6125050D01*
X8346477Y-6125050D01*
X8346477Y-6125050D01*
X8358907Y-6121400D01*
X8369805Y-6114397D01*
X8378288Y-6104606D01*
X8383670Y-6092823D01*
X8384428Y-6087546D01*
X8385513Y-6080000D01*
X8385513Y-6080000D01*
X8383670Y-6067177D01*
X8381681Y-6062823D01*
X8378288Y-6055394D01*
X8369805Y-6045603D01*
X8369805Y-6045603D01*
X8369805Y-6045603D01*
X8358907Y-6038600D01*
X8358907Y-6038600D01*
X8358907Y-6038600D01*
X8358907Y-6038599D01*
X8346477Y-6034950D01*
X8346477Y-6034950D01*
X8333523Y-6034950D01*
X8333522Y-6034950D01*
X8321093Y-6038599D01*
X8321093Y-6038600D01*
X8310195Y-6045603D01*
X8301712Y-6055394D01*
X8296330Y-6067177D01*
X8295040Y-6076151D01*
X8292340Y-6081641D01*
X8286929Y-6084497D01*
X8281452Y-6083888D01*
X8275677Y-6081496D01*
X8275676Y-6081495D01*
X8260000Y-6079432D01*
X8260000Y-6079432D01*
X8244324Y-6081495D01*
X8244323Y-6081496D01*
X8229716Y-6087546D01*
X8229716Y-6087546D01*
X8217172Y-6097171D01*
X8217171Y-6097172D01*
X8207546Y-6109716D01*
X8207546Y-6109716D01*
X8201496Y-6124323D01*
X8201495Y-6124324D01*
X8199432Y-6140000D01*
X7766713Y-6140000D01*
X7768504Y-6135676D01*
X7770568Y-6120000D01*
X7768504Y-6104324D01*
X7765697Y-6097546D01*
X7762454Y-6089716D01*
X7762454Y-6089716D01*
X7752829Y-6077172D01*
X7752828Y-6077172D01*
X7752828Y-6077172D01*
X7752828Y-6077171D01*
X7752828Y-6077171D01*
X7740284Y-6067546D01*
X7725677Y-6061496D01*
X7725676Y-6061495D01*
X7710000Y-6059432D01*
X7710000Y-6059432D01*
X7694324Y-6061495D01*
X7694323Y-6061496D01*
X7679716Y-6067546D01*
X7679716Y-6067546D01*
X7671027Y-6074214D01*
X7665259Y-6076256D01*
X7659392Y-6074518D01*
X7658973Y-6074214D01*
X7650284Y-6067546D01*
X7635677Y-6061496D01*
X7635676Y-6061495D01*
X7620000Y-6059432D01*
X7620000Y-6059432D01*
X7604324Y-6061495D01*
X7604323Y-6061496D01*
X7589716Y-6067546D01*
X7589716Y-6067546D01*
X7577172Y-6077171D01*
X7577171Y-6077172D01*
X7567546Y-6089716D01*
X7567546Y-6089716D01*
X7561496Y-6104323D01*
X7561495Y-6104324D01*
X7559432Y-6120000D01*
X6550000Y-6120000D01*
X6550000Y-6099998D01*
X6549745Y-6085713D01*
X6546263Y-6061496D01*
X6545679Y-6057433D01*
X6542162Y-6045454D01*
X6537629Y-6030018D01*
X6532415Y-6018600D01*
X6525760Y-6004028D01*
X6510313Y-5979991D01*
X6504101Y-5972822D01*
X6492990Y-5960000D01*
X8564487Y-5960000D01*
X8564487Y-5960000D01*
X8566330Y-5972822D01*
X8570897Y-5982823D01*
X8571712Y-5984606D01*
X8580195Y-5994397D01*
X8580195Y-5994397D01*
X8585526Y-5997823D01*
X8591093Y-6001400D01*
X8603523Y-6005050D01*
X8603523Y-6005050D01*
X8616477Y-6005050D01*
X8616477Y-6005050D01*
X8628907Y-6001400D01*
X8639805Y-5994397D01*
X8648288Y-5984606D01*
X8653670Y-5972823D01*
X8654076Y-5970000D01*
X8954487Y-5970000D01*
X8954487Y-5970000D01*
X8956330Y-5982822D01*
X8961616Y-5994397D01*
X8961712Y-5994606D01*
X8969458Y-6003546D01*
X8971840Y-6009182D01*
X8970454Y-6015141D01*
X8969458Y-6016512D01*
X8961762Y-6025394D01*
X8956380Y-6037177D01*
X8954537Y-6050000D01*
X8954537Y-6050000D01*
X8956380Y-6062822D01*
X8961762Y-6074606D01*
X8961762Y-6074606D01*
X8969393Y-6083414D01*
X8970245Y-6084397D01*
X8981143Y-6091400D01*
X8981143Y-6091400D01*
X8993573Y-6095050D01*
X8993573Y-6095050D01*
X9006527Y-6095050D01*
X9006527Y-6095050D01*
X9018957Y-6091400D01*
X9029855Y-6084397D01*
X9038338Y-6074606D01*
X9043720Y-6062823D01*
X9044788Y-6055394D01*
X9045563Y-6050000D01*
X9045563Y-6050000D01*
X9043720Y-6037177D01*
X9042703Y-6034950D01*
X9038338Y-6025394D01*
X9030592Y-6016454D01*
X9028210Y-6010818D01*
X9029596Y-6004859D01*
X9030592Y-6003488D01*
X9038288Y-5994606D01*
X9043670Y-5982823D01*
X9045108Y-5972822D01*
X9045513Y-5970000D01*
X9045513Y-5970000D01*
X9043670Y-5957177D01*
X9038288Y-5945394D01*
X9029805Y-5935603D01*
X9029805Y-5935603D01*
X9029805Y-5935603D01*
X9018907Y-5928600D01*
X9018907Y-5928600D01*
X9018907Y-5928600D01*
X9018907Y-5928599D01*
X9006477Y-5924950D01*
X9006477Y-5924950D01*
X8993523Y-5924950D01*
X8993523Y-5924950D01*
X8981093Y-5928599D01*
X8981093Y-5928600D01*
X8970195Y-5935603D01*
X8961712Y-5945394D01*
X8956330Y-5957177D01*
X8954487Y-5970000D01*
X8654076Y-5970000D01*
X8655513Y-5960000D01*
X8655283Y-5958397D01*
X8653670Y-5947177D01*
X8652036Y-5943600D01*
X8648288Y-5935394D01*
X8639805Y-5925603D01*
X8639805Y-5925603D01*
X8639805Y-5925603D01*
X8628907Y-5918600D01*
X8628907Y-5918600D01*
X8628907Y-5918600D01*
X8628907Y-5918599D01*
X8616477Y-5914950D01*
X8616477Y-5914950D01*
X8603523Y-5914950D01*
X8603523Y-5914950D01*
X8591093Y-5918599D01*
X8591093Y-5918600D01*
X8580195Y-5925603D01*
X8571712Y-5935394D01*
X8566330Y-5947177D01*
X8564487Y-5960000D01*
X6492990Y-5960000D01*
X6491603Y-5958399D01*
X6491603Y-5958399D01*
X6491602Y-5958398D01*
X6491601Y-5958397D01*
X6470010Y-5939688D01*
X6470009Y-5939688D01*
X6470009Y-5939687D01*
X6445972Y-5924240D01*
X6433622Y-5918600D01*
X6419981Y-5912370D01*
X6392567Y-5904321D01*
X6392567Y-5904321D01*
X6364286Y-5900255D01*
X6364287Y-5900255D01*
X6350001Y-5900000D01*
X6350000Y-5900000D01*
X4300000Y-5900000D01*
X4299999Y-5900000D01*
X4285713Y-5900255D01*
X4257433Y-5904321D01*
X4257432Y-5904321D01*
X4230018Y-5912370D01*
X4208810Y-5922056D01*
X4204028Y-5924240D01*
X4204028Y-5924240D01*
X4204028Y-5924240D01*
X4186674Y-5935393D01*
X4179991Y-5939687D01*
X4179991Y-5939687D01*
X4179990Y-5939688D01*
X4158399Y-5958397D01*
X4158397Y-5958399D01*
X4139688Y-5979990D01*
X4139687Y-5979991D01*
X4124240Y-6004027D01*
X4124240Y-6004028D01*
X4112370Y-6030018D01*
X4104321Y-6057432D01*
X4104321Y-6057433D01*
X4100255Y-6085713D01*
X4100000Y-6099998D01*
X4100000Y-7840100D01*
X4098109Y-7845919D01*
X4093159Y-7849515D01*
X4090100Y-7850000D01*
X3950035Y-7850000D01*
X3949960Y-7850000D01*
X3949737Y-7849998D01*
X3917030Y-7849751D01*
X3916507Y-7849733D01*
X3850727Y-7845754D01*
X3850132Y-7845700D01*
X3784748Y-7837761D01*
X3784157Y-7837671D01*
X3719372Y-7825799D01*
X3718788Y-7825673D01*
X3654838Y-7809911D01*
X3654262Y-7809751D01*
X3591382Y-7790156D01*
X3590816Y-7789961D01*
X3529231Y-7766605D01*
X3528679Y-7766376D01*
X3513472Y-7759532D01*
X3468618Y-7739345D01*
X3468081Y-7739084D01*
X3409760Y-7708475D01*
X3409240Y-7708181D01*
X3352876Y-7674108D01*
X3352373Y-7673783D01*
X3298169Y-7636369D01*
X3297688Y-7636014D01*
X3245841Y-7595395D01*
X3245382Y-7595012D01*
X3196082Y-7551337D01*
X3195647Y-7550927D01*
X3149073Y-7504353D01*
X3148663Y-7503918D01*
X3127222Y-7479716D01*
X3104987Y-7454617D01*
X3104605Y-7454159D01*
X3101386Y-7450050D01*
X3063985Y-7402312D01*
X3063631Y-7401830D01*
X3026216Y-7347625D01*
X3025892Y-7347124D01*
X3024562Y-7344925D01*
X2991818Y-7290759D01*
X2991525Y-7290239D01*
X2960915Y-7231917D01*
X2960655Y-7231384D01*
X2940211Y-7185957D01*
X3249950Y-7185957D01*
X3249950Y-7214043D01*
X3253094Y-7241951D01*
X3259344Y-7269332D01*
X3268620Y-7295841D01*
X3268620Y-7295841D01*
X3280805Y-7321143D01*
X3280805Y-7321144D01*
X3280805Y-7321144D01*
X3295748Y-7344925D01*
X3313258Y-7366882D01*
X3333117Y-7386742D01*
X3355075Y-7404252D01*
X3378855Y-7419194D01*
X3378857Y-7419195D01*
X3378857Y-7419195D01*
X3400996Y-7429857D01*
X3404159Y-7431380D01*
X3430668Y-7440656D01*
X3458049Y-7446905D01*
X3485957Y-7450050D01*
X3485958Y-7450050D01*
X3514042Y-7450050D01*
X3514042Y-7450050D01*
X3541951Y-7446905D01*
X3569332Y-7440656D01*
X3595841Y-7431380D01*
X3621144Y-7419194D01*
X3644925Y-7404252D01*
X3666882Y-7386742D01*
X3686742Y-7366882D01*
X3704252Y-7344925D01*
X3719194Y-7321144D01*
X3731380Y-7295841D01*
X3740656Y-7269332D01*
X3746905Y-7241951D01*
X3750050Y-7214042D01*
X3750050Y-7185957D01*
X3746905Y-7158049D01*
X3740656Y-7130668D01*
X3731380Y-7104159D01*
X3719194Y-7078855D01*
X3704252Y-7055075D01*
X3686742Y-7033117D01*
X3666882Y-7013258D01*
X3644925Y-6995748D01*
X3621144Y-6980805D01*
X3621144Y-6980805D01*
X3621143Y-6980805D01*
X3595841Y-6968620D01*
X3595841Y-6968620D01*
X3569332Y-6959344D01*
X3541951Y-6953094D01*
X3514043Y-6949950D01*
X3514042Y-6949950D01*
X3485957Y-6949950D01*
X3485957Y-6949950D01*
X3458049Y-6953094D01*
X3430668Y-6959344D01*
X3404159Y-6968620D01*
X3404159Y-6968620D01*
X3378857Y-6980805D01*
X3378856Y-6980805D01*
X3378855Y-6980805D01*
X3378208Y-6981212D01*
X3355075Y-6995748D01*
X3333118Y-7013258D01*
X3313258Y-7033118D01*
X3295748Y-7055075D01*
X3280805Y-7078856D01*
X3280805Y-7078857D01*
X3268620Y-7104159D01*
X3268620Y-7104159D01*
X3259344Y-7130668D01*
X3253094Y-7158049D01*
X3249950Y-7185957D01*
X2940211Y-7185957D01*
X2933623Y-7171320D01*
X2933395Y-7170770D01*
X2910038Y-7109182D01*
X2909844Y-7108620D01*
X2890249Y-7045738D01*
X2890089Y-7045162D01*
X2876838Y-6991400D01*
X2874326Y-6981211D01*
X2874201Y-6980627D01*
X2872000Y-6968620D01*
X2862328Y-6915841D01*
X2862239Y-6915254D01*
X2854300Y-6849868D01*
X2854246Y-6849273D01*
X2853946Y-6844323D01*
X2850267Y-6783491D01*
X2850249Y-6782969D01*
X2850000Y-6750040D01*
X2850000Y-6749965D01*
X2850000Y-6392358D01*
X3425450Y-6392358D01*
X3425450Y-6407642D01*
X3428939Y-6420663D01*
X3429406Y-6422407D01*
X3437048Y-6435643D01*
X3437048Y-6435643D01*
X3437048Y-6435643D01*
X3447856Y-6446452D01*
X3447857Y-6446452D01*
X3447857Y-6446452D01*
X3461093Y-6454094D01*
X3461093Y-6454094D01*
X3461093Y-6454094D01*
X3461093Y-6454094D01*
X3475858Y-6458050D01*
X3475858Y-6458050D01*
X3491142Y-6458050D01*
X3491142Y-6458050D01*
X3505906Y-6454094D01*
X3505907Y-6454094D01*
X3505907Y-6454094D01*
X3519143Y-6446452D01*
X3519143Y-6446452D01*
X3519143Y-6446452D01*
X3529952Y-6435643D01*
X3537594Y-6422406D01*
X3541550Y-6407642D01*
X3541550Y-6392358D01*
X3537594Y-6377593D01*
X3537594Y-6377593D01*
X3537594Y-6377593D01*
X3529952Y-6364357D01*
X3529952Y-6364357D01*
X3529952Y-6364356D01*
X3519143Y-6353548D01*
X3519143Y-6353548D01*
X3519143Y-6353548D01*
X3505907Y-6345906D01*
X3505907Y-6345906D01*
X3500178Y-6344371D01*
X3491142Y-6341950D01*
X3475858Y-6341950D01*
X3466821Y-6344371D01*
X3461093Y-6345906D01*
X3447857Y-6353548D01*
X3437048Y-6364357D01*
X3429406Y-6377593D01*
X3429406Y-6377593D01*
X3425450Y-6392358D01*
X2850000Y-6392358D01*
X2850000Y-6265000D01*
X3193025Y-6265000D01*
X3194918Y-6281795D01*
X3194918Y-6281795D01*
X3200499Y-6297747D01*
X3200500Y-6297747D01*
X3203189Y-6302027D01*
X3233945Y-6271270D01*
X3235885Y-6278509D01*
X3240493Y-6286490D01*
X3247009Y-6293007D01*
X3254990Y-6297615D01*
X3262230Y-6299554D01*
X3231473Y-6330311D01*
X3235753Y-6333000D01*
X3235753Y-6333000D01*
X3251705Y-6338582D01*
X3251705Y-6338582D01*
X3268500Y-6340474D01*
X3285295Y-6338582D01*
X3285295Y-6338582D01*
X3301247Y-6333000D01*
X3301248Y-6333000D01*
X3305527Y-6330311D01*
X3305527Y-6330311D01*
X3274770Y-6299554D01*
X3282009Y-6297615D01*
X3289990Y-6293007D01*
X3296507Y-6286490D01*
X3301115Y-6278509D01*
X3303054Y-6271270D01*
X3333811Y-6302027D01*
X3333811Y-6302027D01*
X3336500Y-6297748D01*
X3336500Y-6297747D01*
X3342082Y-6281795D01*
X3342082Y-6281795D01*
X3343974Y-6265000D01*
X3623025Y-6265000D01*
X3624918Y-6281795D01*
X3624918Y-6281795D01*
X3630499Y-6297747D01*
X3630500Y-6297747D01*
X3633189Y-6302027D01*
X3663945Y-6271270D01*
X3665885Y-6278509D01*
X3670493Y-6286490D01*
X3677009Y-6293007D01*
X3684990Y-6297615D01*
X3692230Y-6299554D01*
X3661473Y-6330311D01*
X3665753Y-6333000D01*
X3665753Y-6333000D01*
X3681705Y-6338582D01*
X3681705Y-6338582D01*
X3698500Y-6340474D01*
X3715295Y-6338582D01*
X3715295Y-6338582D01*
X3731247Y-6333000D01*
X3731248Y-6333000D01*
X3735527Y-6330311D01*
X3735527Y-6330311D01*
X3704770Y-6299554D01*
X3712009Y-6297615D01*
X3719990Y-6293007D01*
X3726507Y-6286490D01*
X3731115Y-6278509D01*
X3733054Y-6271270D01*
X3763811Y-6302027D01*
X3763811Y-6302027D01*
X3766500Y-6297748D01*
X3766500Y-6297747D01*
X3772082Y-6281795D01*
X3772082Y-6281795D01*
X3773974Y-6265000D01*
X3772082Y-6248205D01*
X3772082Y-6248205D01*
X3766500Y-6232253D01*
X3766500Y-6232252D01*
X3762394Y-6225718D01*
X3760899Y-6219785D01*
X3763177Y-6214107D01*
X3768358Y-6210851D01*
X3769485Y-6210636D01*
X3770000Y-6210568D01*
X3770000Y-6210568D01*
X3785676Y-6208504D01*
X3800284Y-6202454D01*
X3812828Y-6192828D01*
X3822454Y-6180284D01*
X3828504Y-6165676D01*
X3830568Y-6150000D01*
X3828504Y-6134324D01*
X3824565Y-6124814D01*
X3822454Y-6119716D01*
X3822454Y-6119716D01*
X3812829Y-6107172D01*
X3812828Y-6107172D01*
X3812828Y-6107172D01*
X3812828Y-6107171D01*
X3812828Y-6107171D01*
X3802696Y-6099397D01*
X3800284Y-6097546D01*
X3800284Y-6097546D01*
X3800284Y-6097546D01*
X3785677Y-6091496D01*
X3785676Y-6091495D01*
X3770000Y-6089432D01*
X3770000Y-6089432D01*
X3764542Y-6090150D01*
X3758526Y-6089035D01*
X3754314Y-6084597D01*
X3753516Y-6078531D01*
X3753647Y-6077982D01*
X3755513Y-6065000D01*
X3755513Y-6065000D01*
X3753670Y-6052177D01*
X3751386Y-6047177D01*
X3748288Y-6040394D01*
X3740567Y-6031483D01*
X3738185Y-6025847D01*
X3739571Y-6019888D01*
X3740567Y-6018517D01*
X3742305Y-6016512D01*
X3748288Y-6009606D01*
X3753670Y-5997823D01*
X3755513Y-5985000D01*
X3755200Y-5982823D01*
X3753670Y-5972177D01*
X3748288Y-5960394D01*
X3748288Y-5960394D01*
X3739805Y-5950603D01*
X3739805Y-5950603D01*
X3739805Y-5950603D01*
X3728907Y-5943600D01*
X3728907Y-5943600D01*
X3728907Y-5943600D01*
X3728907Y-5943599D01*
X3716477Y-5939950D01*
X3716477Y-5939950D01*
X3703523Y-5939950D01*
X3703522Y-5939950D01*
X3691093Y-5943599D01*
X3691093Y-5943600D01*
X3680195Y-5950603D01*
X3671712Y-5960394D01*
X3666330Y-5972177D01*
X3664487Y-5985000D01*
X3664487Y-5985000D01*
X3666330Y-5997822D01*
X3669333Y-6004397D01*
X3671712Y-6009606D01*
X3677695Y-6016512D01*
X3679433Y-6018517D01*
X3681814Y-6024153D01*
X3680429Y-6030112D01*
X3679433Y-6031483D01*
X3671712Y-6040394D01*
X3666330Y-6052177D01*
X3664487Y-6065000D01*
X3664487Y-6065000D01*
X3665614Y-6072842D01*
X3664571Y-6078871D01*
X3660183Y-6083136D01*
X3659928Y-6083256D01*
X3659583Y-6083414D01*
X3648685Y-6090417D01*
X3640202Y-6100208D01*
X3634820Y-6111992D01*
X3632977Y-6124814D01*
X3632977Y-6124815D01*
X3634820Y-6137637D01*
X3637189Y-6142823D01*
X3640202Y-6149421D01*
X3646918Y-6157172D01*
X3648685Y-6159211D01*
X3656754Y-6164397D01*
X3659583Y-6166215D01*
X3672013Y-6169864D01*
X3672013Y-6169864D01*
X3684967Y-6169864D01*
X3684967Y-6169864D01*
X3697397Y-6166215D01*
X3698742Y-6165350D01*
X3704660Y-6163795D01*
X3710361Y-6166014D01*
X3713241Y-6169890D01*
X3716071Y-6176723D01*
X3716552Y-6182823D01*
X3713355Y-6188040D01*
X3707702Y-6190381D01*
X3705817Y-6190350D01*
X3698500Y-6189525D01*
X3681705Y-6191418D01*
X3681705Y-6191418D01*
X3665753Y-6197000D01*
X3661473Y-6199689D01*
X3692230Y-6230445D01*
X3684990Y-6232385D01*
X3677009Y-6236993D01*
X3670493Y-6243509D01*
X3665885Y-6251490D01*
X3663945Y-6258730D01*
X3633189Y-6227973D01*
X3630500Y-6232253D01*
X3624918Y-6248205D01*
X3624918Y-6248205D01*
X3623025Y-6265000D01*
X3343974Y-6265000D01*
X3342082Y-6248205D01*
X3342082Y-6248205D01*
X3336500Y-6232253D01*
X3336500Y-6232253D01*
X3333811Y-6227973D01*
X3303054Y-6258730D01*
X3301115Y-6251490D01*
X3296507Y-6243509D01*
X3289990Y-6236993D01*
X3282009Y-6232385D01*
X3274770Y-6230445D01*
X3305527Y-6199689D01*
X3301247Y-6197000D01*
X3301247Y-6196999D01*
X3285295Y-6191418D01*
X3285295Y-6191418D01*
X3268500Y-6189525D01*
X3251705Y-6191418D01*
X3251705Y-6191418D01*
X3235753Y-6197000D01*
X3231473Y-6199689D01*
X3262230Y-6230445D01*
X3254990Y-6232385D01*
X3247009Y-6236993D01*
X3240493Y-6243509D01*
X3235885Y-6251490D01*
X3233945Y-6258730D01*
X3203189Y-6227973D01*
X3200500Y-6232253D01*
X3194918Y-6248205D01*
X3194918Y-6248205D01*
X3193025Y-6265000D01*
X2850000Y-6265000D01*
X2850000Y-6060000D01*
X3074487Y-6060000D01*
X3074487Y-6060000D01*
X3076330Y-6072822D01*
X3081712Y-6084606D01*
X3081712Y-6084606D01*
X3087681Y-6091496D01*
X3090195Y-6094397D01*
X3097975Y-6099397D01*
X3101093Y-6101400D01*
X3113523Y-6105050D01*
X3113523Y-6105050D01*
X3126477Y-6105050D01*
X3126477Y-6105050D01*
X3138907Y-6101400D01*
X3149805Y-6094397D01*
X3158288Y-6084606D01*
X3163670Y-6072823D01*
X3165513Y-6060000D01*
X3165144Y-6057432D01*
X3163670Y-6047177D01*
X3160572Y-6040394D01*
X3158288Y-6035394D01*
X3149805Y-6025603D01*
X3149805Y-6025603D01*
X3149805Y-6025603D01*
X3138907Y-6018600D01*
X3138907Y-6018600D01*
X3138907Y-6018600D01*
X3138907Y-6018599D01*
X3126477Y-6014950D01*
X3126477Y-6014950D01*
X3113523Y-6014950D01*
X3113522Y-6014950D01*
X3101093Y-6018599D01*
X3101093Y-6018600D01*
X3090195Y-6025603D01*
X3081712Y-6035394D01*
X3076330Y-6047177D01*
X3074487Y-6060000D01*
X2850000Y-6060000D01*
X2850000Y-5985000D01*
X3224487Y-5985000D01*
X3224487Y-5985000D01*
X3226330Y-5997822D01*
X3229333Y-6004397D01*
X3231712Y-6009606D01*
X3237695Y-6016512D01*
X3239433Y-6018517D01*
X3241814Y-6024153D01*
X3240429Y-6030112D01*
X3239433Y-6031483D01*
X3231712Y-6040394D01*
X3226330Y-6052177D01*
X3224487Y-6065000D01*
X3224487Y-6065000D01*
X3226330Y-6077822D01*
X3231252Y-6088600D01*
X3231712Y-6089606D01*
X3240195Y-6099397D01*
X3240195Y-6099397D01*
X3248992Y-6105050D01*
X3251093Y-6106400D01*
X3263523Y-6110050D01*
X3263523Y-6110050D01*
X3276477Y-6110050D01*
X3276477Y-6110050D01*
X3288907Y-6106400D01*
X3299805Y-6099397D01*
X3308288Y-6089606D01*
X3313670Y-6077823D01*
X3315147Y-6067546D01*
X3315513Y-6065000D01*
X3315513Y-6065000D01*
X3313670Y-6052177D01*
X3311386Y-6047177D01*
X3308288Y-6040394D01*
X3300567Y-6031483D01*
X3298185Y-6025847D01*
X3299571Y-6019888D01*
X3300567Y-6018517D01*
X3302305Y-6016512D01*
X3308288Y-6009606D01*
X3313670Y-5997823D01*
X3315513Y-5985000D01*
X3315200Y-5982823D01*
X3313670Y-5972177D01*
X3308288Y-5960394D01*
X3308288Y-5960394D01*
X3299805Y-5950603D01*
X3299805Y-5950603D01*
X3299805Y-5950603D01*
X3288907Y-5943600D01*
X3288907Y-5943600D01*
X3288907Y-5943600D01*
X3288907Y-5943599D01*
X3276477Y-5939950D01*
X3276477Y-5939950D01*
X3263523Y-5939950D01*
X3263522Y-5939950D01*
X3251093Y-5943599D01*
X3251093Y-5943600D01*
X3240195Y-5950603D01*
X3231712Y-5960394D01*
X3226330Y-5972177D01*
X3224487Y-5985000D01*
X2850000Y-5985000D01*
X2850000Y-5900000D01*
X3744487Y-5900000D01*
X3744487Y-5900000D01*
X3746330Y-5912822D01*
X3751712Y-5924606D01*
X3751712Y-5924606D01*
X3760195Y-5934397D01*
X3760195Y-5934397D01*
X3768836Y-5939950D01*
X3771093Y-5941400D01*
X3783523Y-5945050D01*
X3783523Y-5945050D01*
X3796477Y-5945050D01*
X3796477Y-5945050D01*
X3808907Y-5941400D01*
X3819805Y-5934397D01*
X3828288Y-5924606D01*
X3833670Y-5912823D01*
X3835513Y-5900000D01*
X3835147Y-5897450D01*
X3833670Y-5887177D01*
X3831681Y-5882823D01*
X3828288Y-5875394D01*
X3819805Y-5865603D01*
X3819805Y-5865603D01*
X3819805Y-5865603D01*
X3808907Y-5858600D01*
X3808907Y-5858600D01*
X3808907Y-5858600D01*
X3808907Y-5858599D01*
X3796477Y-5854950D01*
X3796477Y-5854950D01*
X3783523Y-5854950D01*
X3783522Y-5854950D01*
X3771093Y-5858599D01*
X3771093Y-5858600D01*
X3760195Y-5865603D01*
X3751712Y-5875394D01*
X3746330Y-5887177D01*
X3744487Y-5900000D01*
X2850000Y-5900000D01*
X2850000Y-5785000D01*
X3193025Y-5785000D01*
X3194918Y-5801795D01*
X3194918Y-5801795D01*
X3200499Y-5817747D01*
X3200500Y-5817747D01*
X3203189Y-5822027D01*
X3233945Y-5791270D01*
X3235885Y-5798509D01*
X3240493Y-5806490D01*
X3247009Y-5813007D01*
X3254990Y-5817615D01*
X3262230Y-5819554D01*
X3231473Y-5850311D01*
X3235753Y-5853000D01*
X3235753Y-5853000D01*
X3251705Y-5858582D01*
X3251705Y-5858582D01*
X3268500Y-5860474D01*
X3285295Y-5858582D01*
X3285295Y-5858582D01*
X3301247Y-5853000D01*
X3301248Y-5853000D01*
X3305527Y-5850311D01*
X3305527Y-5850311D01*
X3274770Y-5819554D01*
X3282009Y-5817615D01*
X3289990Y-5813007D01*
X3296507Y-5806490D01*
X3301115Y-5798509D01*
X3303054Y-5791270D01*
X3333811Y-5822027D01*
X3333811Y-5822027D01*
X3336500Y-5817748D01*
X3336500Y-5817747D01*
X3342082Y-5801795D01*
X3342082Y-5801795D01*
X3343974Y-5785000D01*
X3623025Y-5785000D01*
X3624918Y-5801795D01*
X3624918Y-5801795D01*
X3630499Y-5817747D01*
X3630500Y-5817747D01*
X3633189Y-5822027D01*
X3663945Y-5791270D01*
X3665885Y-5798509D01*
X3670493Y-5806490D01*
X3677009Y-5813007D01*
X3684990Y-5817615D01*
X3692230Y-5819554D01*
X3661473Y-5850311D01*
X3665753Y-5853000D01*
X3665753Y-5853000D01*
X3681705Y-5858582D01*
X3681705Y-5858582D01*
X3698500Y-5860474D01*
X3715295Y-5858582D01*
X3715295Y-5858582D01*
X3731247Y-5853000D01*
X3731248Y-5853000D01*
X3735527Y-5850311D01*
X3735527Y-5850311D01*
X3704770Y-5819554D01*
X3712009Y-5817615D01*
X3719990Y-5813007D01*
X3726507Y-5806490D01*
X3731115Y-5798509D01*
X3733054Y-5791270D01*
X3763811Y-5822027D01*
X3763811Y-5822027D01*
X3766500Y-5817748D01*
X3766500Y-5817747D01*
X3772082Y-5801795D01*
X3772082Y-5801795D01*
X3773411Y-5790000D01*
X3799432Y-5790000D01*
X3799432Y-5790000D01*
X3801495Y-5805676D01*
X3801496Y-5805677D01*
X3807546Y-5820284D01*
X3807546Y-5820284D01*
X3813927Y-5828600D01*
X3817172Y-5832828D01*
X3829716Y-5842454D01*
X3829716Y-5842454D01*
X3829716Y-5842454D01*
X3839385Y-5846459D01*
X3844324Y-5848504D01*
X3855682Y-5850000D01*
X3860000Y-5850568D01*
X3860000Y-5850568D01*
X3860000Y-5850568D01*
X3864318Y-5850000D01*
X3875676Y-5848504D01*
X3890284Y-5842454D01*
X3902828Y-5832828D01*
X3912454Y-5820284D01*
X3918504Y-5805676D01*
X3919735Y-5796331D01*
X3922369Y-5790809D01*
X3923948Y-5789951D01*
X3935143Y-5789951D01*
X3938250Y-5792899D01*
X3939450Y-5797623D01*
X3939450Y-5807600D01*
X3939557Y-5808599D01*
X3940377Y-5816220D01*
X3940377Y-5816221D01*
X3941261Y-5820284D01*
X3941497Y-5821371D01*
X3943316Y-5827106D01*
X3943769Y-5828536D01*
X3943769Y-5828536D01*
X3949159Y-5837192D01*
X3950475Y-5839306D01*
X3955050Y-5844586D01*
X3962808Y-5851504D01*
X3966088Y-5853059D01*
X3974271Y-5856939D01*
X3974271Y-5856939D01*
X3974271Y-5856939D01*
X3980975Y-5858907D01*
X3987322Y-5859820D01*
X3992400Y-5860550D01*
X3992400Y-5860550D01*
X4467600Y-5860550D01*
X4467600Y-5860550D01*
X4476220Y-5859623D01*
X4481371Y-5858503D01*
X4488536Y-5856231D01*
X4498543Y-5850000D01*
X7364487Y-5850000D01*
X7364487Y-5850000D01*
X7366330Y-5862822D01*
X7367600Y-5865603D01*
X7371712Y-5874606D01*
X7372394Y-5875394D01*
X7380195Y-5884397D01*
X7391093Y-5891400D01*
X7391093Y-5891400D01*
X7403523Y-5895050D01*
X7405197Y-5895050D01*
X7411016Y-5896941D01*
X7414612Y-5901891D01*
X7414996Y-5903541D01*
X7416330Y-5912822D01*
X7421712Y-5924606D01*
X7421712Y-5924606D01*
X7430195Y-5934397D01*
X7430195Y-5934397D01*
X7438836Y-5939950D01*
X7441093Y-5941400D01*
X7453523Y-5945050D01*
X7453523Y-5945050D01*
X7466477Y-5945050D01*
X7466477Y-5945050D01*
X7478907Y-5941400D01*
X7489805Y-5934397D01*
X7498288Y-5924606D01*
X7503670Y-5912823D01*
X7505513Y-5900000D01*
X7505147Y-5897450D01*
X8774487Y-5897450D01*
X8774487Y-5897450D01*
X8776330Y-5910272D01*
X8781712Y-5922056D01*
X8781712Y-5922056D01*
X8787382Y-5928600D01*
X8790195Y-5931847D01*
X8796041Y-5935603D01*
X8801093Y-5938850D01*
X8813523Y-5942500D01*
X8813523Y-5942500D01*
X8826477Y-5942500D01*
X8826477Y-5942500D01*
X8838907Y-5938850D01*
X8849805Y-5931847D01*
X8858288Y-5922056D01*
X8863670Y-5910273D01*
X8863851Y-5909013D01*
X8864638Y-5903541D01*
X8867337Y-5898050D01*
X8872749Y-5895195D01*
X8874437Y-5895050D01*
X8876477Y-5895050D01*
X8876477Y-5895050D01*
X8888907Y-5891400D01*
X8899805Y-5884397D01*
X8908288Y-5874606D01*
X8910392Y-5870000D01*
X9184487Y-5870000D01*
X9184487Y-5870000D01*
X9186330Y-5882822D01*
X9190248Y-5891400D01*
X9191712Y-5894606D01*
X9196385Y-5900000D01*
X9200195Y-5904397D01*
X9209338Y-5910272D01*
X9211093Y-5911400D01*
X9223523Y-5915050D01*
X9223523Y-5915050D01*
X9236477Y-5915050D01*
X9236477Y-5915050D01*
X9248907Y-5911400D01*
X9259805Y-5904397D01*
X9268288Y-5894606D01*
X9273670Y-5882823D01*
X9274851Y-5874606D01*
X9275513Y-5870000D01*
X9275513Y-5870000D01*
X9273670Y-5857177D01*
X9271762Y-5853000D01*
X9268288Y-5845394D01*
X9259805Y-5835603D01*
X9259805Y-5835603D01*
X9259805Y-5835603D01*
X9248907Y-5828600D01*
X9248907Y-5828600D01*
X9248907Y-5828600D01*
X9248690Y-5828536D01*
X9236477Y-5824950D01*
X9236477Y-5824950D01*
X9223523Y-5824950D01*
X9223523Y-5824950D01*
X9211093Y-5828599D01*
X9211093Y-5828600D01*
X9200195Y-5835603D01*
X9191712Y-5845394D01*
X9186330Y-5857177D01*
X9184487Y-5870000D01*
X8910392Y-5870000D01*
X8913670Y-5862823D01*
X8914802Y-5854950D01*
X8915513Y-5850000D01*
X8915513Y-5850000D01*
X8913670Y-5837177D01*
X8911684Y-5832829D01*
X8908288Y-5825394D01*
X8899805Y-5815603D01*
X8899805Y-5815603D01*
X8899805Y-5815603D01*
X8888907Y-5808600D01*
X8888907Y-5808600D01*
X8888907Y-5808600D01*
X8885504Y-5807600D01*
X8876477Y-5804950D01*
X8876477Y-5804950D01*
X8863523Y-5804950D01*
X8863523Y-5804950D01*
X8851093Y-5808599D01*
X8851093Y-5808600D01*
X8840195Y-5815603D01*
X8831712Y-5825394D01*
X8826330Y-5837177D01*
X8825362Y-5843909D01*
X8822663Y-5849400D01*
X8817251Y-5852255D01*
X8815563Y-5852400D01*
X8813523Y-5852400D01*
X8801093Y-5856049D01*
X8801093Y-5856050D01*
X8790195Y-5863053D01*
X8781712Y-5872844D01*
X8776330Y-5884627D01*
X8774487Y-5897450D01*
X7505147Y-5897450D01*
X7503670Y-5887177D01*
X7501681Y-5882823D01*
X7498288Y-5875394D01*
X7489805Y-5865603D01*
X7489805Y-5865603D01*
X7489805Y-5865603D01*
X7478907Y-5858600D01*
X7478907Y-5858600D01*
X7478907Y-5858600D01*
X7478907Y-5858599D01*
X7466477Y-5854950D01*
X7466477Y-5854950D01*
X7464803Y-5854950D01*
X7458984Y-5853059D01*
X7455388Y-5848109D01*
X7455004Y-5846459D01*
X7453670Y-5837177D01*
X7451684Y-5832829D01*
X7448288Y-5825394D01*
X7439805Y-5815603D01*
X7439805Y-5815603D01*
X7439805Y-5815603D01*
X7428907Y-5808600D01*
X7428907Y-5808600D01*
X7428907Y-5808600D01*
X7425504Y-5807600D01*
X7416477Y-5804950D01*
X7416477Y-5804950D01*
X7403523Y-5804950D01*
X7403522Y-5804950D01*
X7391093Y-5808599D01*
X7391093Y-5808600D01*
X7380195Y-5815603D01*
X7371712Y-5825394D01*
X7366330Y-5837177D01*
X7364487Y-5850000D01*
X4498543Y-5850000D01*
X4499306Y-5849525D01*
X4504586Y-5844949D01*
X4511504Y-5837192D01*
X4516939Y-5825728D01*
X4518907Y-5819025D01*
X4520406Y-5808599D01*
X4520550Y-5807600D01*
X4520550Y-5802500D01*
X7694487Y-5802500D01*
X7694487Y-5802500D01*
X7696330Y-5815322D01*
X7701712Y-5827106D01*
X7701712Y-5827106D01*
X7709074Y-5835603D01*
X7710195Y-5836897D01*
X7721093Y-5843900D01*
X7721093Y-5843900D01*
X7733523Y-5847550D01*
X7733523Y-5847550D01*
X7746477Y-5847550D01*
X7746477Y-5847550D01*
X7758907Y-5843900D01*
X7769805Y-5836897D01*
X7778288Y-5827106D01*
X7783670Y-5815323D01*
X7785057Y-5805677D01*
X7785513Y-5802500D01*
X7785513Y-5802500D01*
X7783670Y-5789677D01*
X7778288Y-5777894D01*
X7778288Y-5777894D01*
X7769805Y-5768103D01*
X7769805Y-5768103D01*
X7769805Y-5768103D01*
X7758907Y-5761100D01*
X7758907Y-5761100D01*
X7758907Y-5761100D01*
X7758907Y-5761099D01*
X7746477Y-5757450D01*
X7746477Y-5757450D01*
X7733523Y-5757450D01*
X7733522Y-5757450D01*
X7721093Y-5761099D01*
X7721093Y-5761100D01*
X7710195Y-5768103D01*
X7701712Y-5777894D01*
X7696330Y-5789677D01*
X7694487Y-5802500D01*
X4520550Y-5802500D01*
X4520550Y-5732400D01*
X4520550Y-5732400D01*
X4519623Y-5723780D01*
X4518503Y-5718629D01*
X4516231Y-5711464D01*
X4509525Y-5700694D01*
X4504950Y-5695414D01*
X4497192Y-5688496D01*
X4497192Y-5688496D01*
X4485729Y-5683061D01*
X4479025Y-5681093D01*
X4479025Y-5681093D01*
X4479025Y-5681093D01*
X4479024Y-5681092D01*
X4479024Y-5681092D01*
X4467600Y-5679450D01*
X4467600Y-5679450D01*
X4280450Y-5679450D01*
X4274631Y-5677559D01*
X4271035Y-5672609D01*
X4270621Y-5670000D01*
X7064487Y-5670000D01*
X7064487Y-5670000D01*
X7066330Y-5682822D01*
X7066439Y-5683061D01*
X7071712Y-5694606D01*
X7080014Y-5704187D01*
X7080195Y-5704397D01*
X7088175Y-5709525D01*
X7091093Y-5711400D01*
X7103523Y-5715050D01*
X7103523Y-5715050D01*
X7116477Y-5715050D01*
X7116477Y-5715050D01*
X7128907Y-5711400D01*
X7139805Y-5704397D01*
X7148288Y-5694606D01*
X7153670Y-5682823D01*
X7154787Y-5675050D01*
X7155513Y-5670000D01*
X7155513Y-5670000D01*
X7153670Y-5657177D01*
X7148288Y-5645394D01*
X7148288Y-5645394D01*
X7139805Y-5635603D01*
X7139805Y-5635603D01*
X7139805Y-5635603D01*
X7128907Y-5628600D01*
X7128907Y-5628600D01*
X7128907Y-5628600D01*
X7128121Y-5628369D01*
X7116477Y-5624950D01*
X7116477Y-5624950D01*
X7103523Y-5624950D01*
X7103522Y-5624950D01*
X7091093Y-5628599D01*
X7091093Y-5628600D01*
X7080195Y-5635603D01*
X7071712Y-5645394D01*
X7066330Y-5657177D01*
X7064487Y-5670000D01*
X4270621Y-5670000D01*
X4270550Y-5669550D01*
X4270550Y-5541715D01*
X6586202Y-5541715D01*
X6586202Y-5541716D01*
X6588046Y-5554538D01*
X6590540Y-5560000D01*
X6593427Y-5566322D01*
X6601911Y-5576112D01*
X6601911Y-5576113D01*
X6609749Y-5581150D01*
X6612809Y-5583116D01*
X6625238Y-5586766D01*
X6625239Y-5586766D01*
X6633002Y-5586766D01*
X6638821Y-5588656D01*
X6642417Y-5593606D01*
X6642758Y-5597576D01*
X6642771Y-5597576D01*
X6642771Y-5597724D01*
X6642801Y-5598074D01*
X6642771Y-5598284D01*
X6642771Y-5598284D01*
X6644614Y-5611107D01*
X6648036Y-5618599D01*
X6649996Y-5622891D01*
X6656156Y-5630000D01*
X6658479Y-5632681D01*
X6669377Y-5639684D01*
X6669377Y-5639685D01*
X6681807Y-5643334D01*
X6681807Y-5643334D01*
X6694761Y-5643334D01*
X6694761Y-5643334D01*
X6707191Y-5639685D01*
X6718089Y-5632681D01*
X6726572Y-5622891D01*
X6731954Y-5611107D01*
X6732810Y-5605151D01*
X6733551Y-5600000D01*
X6784487Y-5600000D01*
X6784487Y-5600000D01*
X6786330Y-5612822D01*
X6791712Y-5624606D01*
X6791712Y-5624606D01*
X6800195Y-5634397D01*
X6800195Y-5634397D01*
X6808423Y-5639684D01*
X6811093Y-5641400D01*
X6823523Y-5645050D01*
X6823523Y-5645050D01*
X6836477Y-5645050D01*
X6836477Y-5645050D01*
X6848907Y-5641400D01*
X6859805Y-5634397D01*
X6868288Y-5624606D01*
X6873670Y-5612823D01*
X6874750Y-5605307D01*
X6875513Y-5600000D01*
X6875513Y-5600000D01*
X6874647Y-5593972D01*
X6970445Y-5593972D01*
X6970445Y-5593972D01*
X6972288Y-5606795D01*
X6976912Y-5616920D01*
X6977670Y-5618578D01*
X6983757Y-5625603D01*
X6986153Y-5628369D01*
X6997051Y-5635372D01*
X6997051Y-5635372D01*
X7009481Y-5639022D01*
X7009481Y-5639022D01*
X7022435Y-5639022D01*
X7022435Y-5639022D01*
X7034865Y-5635372D01*
X7045763Y-5628369D01*
X7054246Y-5618578D01*
X7059628Y-5606795D01*
X7060605Y-5600000D01*
X7061471Y-5593972D01*
X7061471Y-5593972D01*
X7059628Y-5581150D01*
X7057365Y-5576194D01*
X7054246Y-5569366D01*
X7046131Y-5560000D01*
X7769537Y-5560000D01*
X7769537Y-5560000D01*
X7771380Y-5572823D01*
X7774034Y-5578633D01*
X7776762Y-5584606D01*
X7785245Y-5594397D01*
X7785245Y-5594397D01*
X7793964Y-5600000D01*
X7796143Y-5601400D01*
X7808573Y-5605050D01*
X7808573Y-5605050D01*
X7809273Y-5605151D01*
X7809251Y-5605307D01*
X7814279Y-5606941D01*
X7817876Y-5611891D01*
X7817876Y-5618009D01*
X7814279Y-5622959D01*
X7813813Y-5623278D01*
X7810195Y-5625603D01*
X7801712Y-5635394D01*
X7796330Y-5647177D01*
X7794487Y-5660000D01*
X7794487Y-5660000D01*
X7796330Y-5672822D01*
X7800897Y-5682823D01*
X7801712Y-5684606D01*
X7810195Y-5694397D01*
X7810195Y-5694397D01*
X7819995Y-5700694D01*
X7821093Y-5701400D01*
X7833523Y-5705050D01*
X7833523Y-5705050D01*
X7846477Y-5705050D01*
X7846477Y-5705050D01*
X7858907Y-5701400D01*
X7869805Y-5694397D01*
X7878288Y-5684606D01*
X7883670Y-5672823D01*
X7884284Y-5668548D01*
X7885513Y-5660000D01*
X7885513Y-5660000D01*
X7883670Y-5647177D01*
X7881681Y-5642823D01*
X7878288Y-5635394D01*
X7873614Y-5630000D01*
X9394487Y-5630000D01*
X9394487Y-5630000D01*
X9396330Y-5642822D01*
X9397348Y-5645050D01*
X9401712Y-5654606D01*
X9406385Y-5660000D01*
X9410195Y-5664397D01*
X9418914Y-5670000D01*
X9421093Y-5671400D01*
X9433523Y-5675050D01*
X9433523Y-5675050D01*
X9446477Y-5675050D01*
X9446477Y-5675050D01*
X9458907Y-5671400D01*
X9469805Y-5664397D01*
X9478288Y-5654606D01*
X9483670Y-5642823D01*
X9484741Y-5635372D01*
X9485513Y-5630000D01*
X9485513Y-5630000D01*
X10034487Y-5630000D01*
X10034487Y-5630000D01*
X10036330Y-5642822D01*
X10037348Y-5645050D01*
X10041712Y-5654606D01*
X10046385Y-5660000D01*
X10050195Y-5664397D01*
X10058914Y-5670000D01*
X10061093Y-5671400D01*
X10073523Y-5675050D01*
X10073523Y-5675050D01*
X10086477Y-5675050D01*
X10086477Y-5675050D01*
X10098907Y-5671400D01*
X10101086Y-5670000D01*
X10404487Y-5670000D01*
X10404487Y-5670000D01*
X10406330Y-5682822D01*
X10406439Y-5683061D01*
X10411712Y-5694606D01*
X10420014Y-5704187D01*
X10420195Y-5704397D01*
X10428176Y-5709525D01*
X10431093Y-5711400D01*
X10443523Y-5715050D01*
X10443523Y-5715050D01*
X10456477Y-5715050D01*
X10456477Y-5715050D01*
X10468907Y-5711400D01*
X10479805Y-5704397D01*
X10488288Y-5694606D01*
X10493670Y-5682823D01*
X10494787Y-5675050D01*
X10495513Y-5670000D01*
X10495513Y-5670000D01*
X10493670Y-5657177D01*
X10488288Y-5645394D01*
X10488288Y-5645394D01*
X10479805Y-5635603D01*
X10479805Y-5635603D01*
X10479805Y-5635603D01*
X10468907Y-5628600D01*
X10468907Y-5628600D01*
X10468907Y-5628600D01*
X10468121Y-5628369D01*
X10456477Y-5624950D01*
X10456477Y-5624950D01*
X10443523Y-5624950D01*
X10443523Y-5624950D01*
X10431093Y-5628599D01*
X10431093Y-5628600D01*
X10420195Y-5635603D01*
X10411712Y-5645394D01*
X10406330Y-5657177D01*
X10404487Y-5670000D01*
X10101086Y-5670000D01*
X10109805Y-5664397D01*
X10118288Y-5654606D01*
X10123670Y-5642823D01*
X10124741Y-5635372D01*
X10125513Y-5630000D01*
X10125513Y-5630000D01*
X10123670Y-5617177D01*
X10121681Y-5612823D01*
X10118288Y-5605394D01*
X10109805Y-5595603D01*
X10109805Y-5595603D01*
X10109805Y-5595603D01*
X10098907Y-5588600D01*
X10098907Y-5588600D01*
X10098907Y-5588600D01*
X10098907Y-5588600D01*
X10086477Y-5584950D01*
X10086477Y-5584950D01*
X10073523Y-5584950D01*
X10073523Y-5584950D01*
X10061093Y-5588600D01*
X10061093Y-5588600D01*
X10050195Y-5595603D01*
X10041712Y-5605394D01*
X10036330Y-5617177D01*
X10034487Y-5630000D01*
X9485513Y-5630000D01*
X9483670Y-5617177D01*
X9481681Y-5612823D01*
X9478288Y-5605394D01*
X9469805Y-5595603D01*
X9469805Y-5595603D01*
X9469805Y-5595603D01*
X9458907Y-5588600D01*
X9458907Y-5588600D01*
X9458907Y-5588600D01*
X9458907Y-5588600D01*
X9446477Y-5584950D01*
X9446477Y-5584950D01*
X9433523Y-5584950D01*
X9433523Y-5584950D01*
X9421093Y-5588600D01*
X9421093Y-5588600D01*
X9410195Y-5595603D01*
X9401712Y-5605394D01*
X9396330Y-5617177D01*
X9394487Y-5630000D01*
X7873614Y-5630000D01*
X7869805Y-5625603D01*
X7869805Y-5625603D01*
X7869805Y-5625603D01*
X7858907Y-5618600D01*
X7858907Y-5618600D01*
X7858907Y-5618600D01*
X7858835Y-5618578D01*
X7846477Y-5614950D01*
X7845776Y-5614849D01*
X7845799Y-5614693D01*
X7840770Y-5613059D01*
X7837174Y-5608109D01*
X7837174Y-5601991D01*
X7840770Y-5597041D01*
X7841237Y-5596722D01*
X7844855Y-5594397D01*
X7844855Y-5594397D01*
X7844855Y-5594397D01*
X7853338Y-5584606D01*
X7858720Y-5572823D01*
X7859450Y-5567740D01*
X7860563Y-5560000D01*
X7860563Y-5560000D01*
X7858720Y-5547177D01*
X7857180Y-5543806D01*
X7853338Y-5535394D01*
X7844855Y-5525603D01*
X7844855Y-5525603D01*
X7844855Y-5525603D01*
X7833957Y-5518600D01*
X7833957Y-5518600D01*
X7833957Y-5518600D01*
X7833957Y-5518600D01*
X7821527Y-5514950D01*
X7821527Y-5514950D01*
X7808573Y-5514950D01*
X7808572Y-5514950D01*
X7796143Y-5518600D01*
X7796143Y-5518600D01*
X7785245Y-5525603D01*
X7776762Y-5535394D01*
X7771380Y-5547177D01*
X7769537Y-5560000D01*
X7046131Y-5560000D01*
X7045763Y-5559575D01*
X7045763Y-5559575D01*
X7045763Y-5559575D01*
X7034865Y-5552572D01*
X7034865Y-5552572D01*
X7034865Y-5552572D01*
X7034865Y-5552572D01*
X7022435Y-5548922D01*
X7022435Y-5548922D01*
X7009481Y-5548922D01*
X7009481Y-5548922D01*
X6997051Y-5552572D01*
X6997051Y-5552572D01*
X6986153Y-5559575D01*
X6977670Y-5569366D01*
X6972288Y-5581150D01*
X6970445Y-5593972D01*
X6874647Y-5593972D01*
X6873670Y-5587177D01*
X6873482Y-5586766D01*
X6868288Y-5575394D01*
X6859805Y-5565603D01*
X6859805Y-5565603D01*
X6859805Y-5565603D01*
X6848907Y-5558600D01*
X6848907Y-5558600D01*
X6848907Y-5558600D01*
X6848907Y-5558600D01*
X6836477Y-5554950D01*
X6836477Y-5554950D01*
X6823523Y-5554950D01*
X6823522Y-5554950D01*
X6811093Y-5558600D01*
X6811093Y-5558600D01*
X6800195Y-5565603D01*
X6791712Y-5575394D01*
X6786330Y-5587177D01*
X6784487Y-5600000D01*
X6733551Y-5600000D01*
X6733798Y-5598284D01*
X6733798Y-5598284D01*
X6731954Y-5585462D01*
X6730883Y-5583116D01*
X6726572Y-5573678D01*
X6718089Y-5563888D01*
X6718089Y-5563888D01*
X6718089Y-5563887D01*
X6707192Y-5556884D01*
X6707191Y-5556884D01*
X6707191Y-5556884D01*
X6707191Y-5556884D01*
X6694762Y-5553234D01*
X6694761Y-5553234D01*
X6686998Y-5553234D01*
X6681179Y-5551344D01*
X6677583Y-5546394D01*
X6677242Y-5542424D01*
X6677229Y-5542424D01*
X6677229Y-5542276D01*
X6677199Y-5541926D01*
X6677229Y-5541716D01*
X6677229Y-5541715D01*
X6675385Y-5528893D01*
X6672615Y-5522828D01*
X6670004Y-5517109D01*
X6661521Y-5507319D01*
X6661520Y-5507319D01*
X6661520Y-5507319D01*
X6650623Y-5500316D01*
X6650623Y-5500315D01*
X6650623Y-5500315D01*
X6650622Y-5500315D01*
X6638193Y-5496666D01*
X6638193Y-5496666D01*
X6625238Y-5496666D01*
X6625238Y-5496666D01*
X6612809Y-5500315D01*
X6612808Y-5500316D01*
X6601911Y-5507319D01*
X6593427Y-5517110D01*
X6588046Y-5528893D01*
X6586202Y-5541715D01*
X4270550Y-5541715D01*
X4270550Y-5480000D01*
X5739432Y-5480000D01*
X5739432Y-5480000D01*
X5741495Y-5495676D01*
X5741496Y-5495677D01*
X5747546Y-5510284D01*
X5747546Y-5510284D01*
X5756076Y-5521400D01*
X5757172Y-5522828D01*
X5769716Y-5532454D01*
X5769716Y-5532454D01*
X5769716Y-5532454D01*
X5784323Y-5538504D01*
X5784324Y-5538504D01*
X5796081Y-5540052D01*
X5800000Y-5540568D01*
X5800000Y-5540568D01*
X5800000Y-5540568D01*
X5803135Y-5540155D01*
X5815676Y-5538504D01*
X5830284Y-5532454D01*
X5842828Y-5522828D01*
X5852454Y-5510284D01*
X5858504Y-5495676D01*
X5860568Y-5480000D01*
X5860568Y-5480000D01*
X7144487Y-5480000D01*
X7144487Y-5480000D01*
X7146330Y-5492823D01*
X7149752Y-5500315D01*
X7151712Y-5504606D01*
X7156631Y-5510284D01*
X7160195Y-5514397D01*
X7168691Y-5519857D01*
X7171093Y-5521400D01*
X7183523Y-5525050D01*
X7183523Y-5525050D01*
X7196477Y-5525050D01*
X7196477Y-5525050D01*
X7208907Y-5521400D01*
X7219805Y-5514397D01*
X7228288Y-5504606D01*
X7233670Y-5492823D01*
X7235513Y-5480000D01*
X7233670Y-5467177D01*
X7228288Y-5455394D01*
X7219805Y-5445603D01*
X7219805Y-5445603D01*
X7219805Y-5445603D01*
X7218866Y-5445000D01*
X7729487Y-5445000D01*
X7729487Y-5445000D01*
X7731330Y-5457823D01*
X7734631Y-5465050D01*
X7736712Y-5469606D01*
X7745195Y-5479397D01*
X7745195Y-5479397D01*
X7756093Y-5486400D01*
X7756093Y-5486400D01*
X7768523Y-5490050D01*
X7768523Y-5490050D01*
X7781477Y-5490050D01*
X7781477Y-5490050D01*
X7793907Y-5486400D01*
X7804805Y-5479397D01*
X7813288Y-5469606D01*
X7818670Y-5457823D01*
X7819835Y-5449716D01*
X7820513Y-5445000D01*
X7820513Y-5445000D01*
X7818670Y-5432177D01*
X7817675Y-5430000D01*
X10404487Y-5430000D01*
X10404487Y-5430000D01*
X10406330Y-5442823D01*
X10407600Y-5445603D01*
X10411712Y-5454606D01*
X10420132Y-5464323D01*
X10420195Y-5464397D01*
X10428301Y-5469606D01*
X10431093Y-5471400D01*
X10443523Y-5475050D01*
X10443523Y-5475050D01*
X10456477Y-5475050D01*
X10456477Y-5475050D01*
X10468907Y-5471400D01*
X10479805Y-5464397D01*
X10488288Y-5454606D01*
X10493670Y-5442823D01*
X10495108Y-5432823D01*
X10495513Y-5430000D01*
X10495513Y-5430000D01*
X10493670Y-5417177D01*
X10491031Y-5411400D01*
X10488288Y-5405394D01*
X10479805Y-5395603D01*
X10479805Y-5395603D01*
X10479805Y-5395603D01*
X10468907Y-5388600D01*
X10468907Y-5388600D01*
X10468907Y-5388600D01*
X10468582Y-5388504D01*
X10456477Y-5384950D01*
X10456477Y-5384950D01*
X10443523Y-5384950D01*
X10443523Y-5384950D01*
X10431093Y-5388600D01*
X10431093Y-5388600D01*
X10420195Y-5395603D01*
X10411712Y-5405394D01*
X10406330Y-5417177D01*
X10404487Y-5430000D01*
X7817675Y-5430000D01*
X7813288Y-5420394D01*
X7804805Y-5410603D01*
X7804805Y-5410603D01*
X7804805Y-5410603D01*
X7793907Y-5403600D01*
X7793907Y-5403600D01*
X7793907Y-5403600D01*
X7793907Y-5403600D01*
X7781477Y-5399950D01*
X7781477Y-5399950D01*
X7768523Y-5399950D01*
X7768522Y-5399950D01*
X7756093Y-5403600D01*
X7756093Y-5403600D01*
X7745195Y-5410603D01*
X7736712Y-5420394D01*
X7731330Y-5432177D01*
X7729487Y-5445000D01*
X7218866Y-5445000D01*
X7208907Y-5438600D01*
X7208907Y-5438600D01*
X7208907Y-5438600D01*
X7208907Y-5438600D01*
X7196477Y-5434950D01*
X7196477Y-5434950D01*
X7183523Y-5434950D01*
X7183522Y-5434950D01*
X7171093Y-5438600D01*
X7171093Y-5438600D01*
X7160195Y-5445603D01*
X7151712Y-5455394D01*
X7146330Y-5467177D01*
X7144487Y-5480000D01*
X5860568Y-5480000D01*
X5858504Y-5464324D01*
X5852454Y-5449716D01*
X5852454Y-5449716D01*
X5842829Y-5437172D01*
X5842828Y-5437172D01*
X5842828Y-5437172D01*
X5842828Y-5437171D01*
X5842828Y-5437171D01*
X5835710Y-5431710D01*
X5830284Y-5427546D01*
X5830284Y-5427546D01*
X5830284Y-5427546D01*
X5815677Y-5421496D01*
X5815676Y-5421496D01*
X5800000Y-5419432D01*
X5800000Y-5419432D01*
X5784324Y-5421496D01*
X5784323Y-5421496D01*
X5769716Y-5427546D01*
X5769716Y-5427546D01*
X5757172Y-5437171D01*
X5757171Y-5437172D01*
X5747546Y-5449716D01*
X5747546Y-5449716D01*
X5741496Y-5464323D01*
X5741495Y-5464324D01*
X5739432Y-5480000D01*
X4270550Y-5480000D01*
X4270550Y-5300000D01*
X5654987Y-5300000D01*
X5654987Y-5300000D01*
X5656830Y-5312823D01*
X5657516Y-5314324D01*
X5662212Y-5324606D01*
X5666885Y-5330000D01*
X5670695Y-5334397D01*
X5679414Y-5340000D01*
X5681593Y-5341400D01*
X5694023Y-5345050D01*
X5694023Y-5345050D01*
X5706977Y-5345050D01*
X5706977Y-5345050D01*
X5719407Y-5341400D01*
X5721586Y-5340000D01*
X5864487Y-5340000D01*
X5864487Y-5340000D01*
X5866330Y-5352823D01*
X5870897Y-5362823D01*
X5871712Y-5364606D01*
X5878835Y-5372828D01*
X5880195Y-5374397D01*
X5891093Y-5381400D01*
X5891093Y-5381400D01*
X5903523Y-5385050D01*
X5903523Y-5385050D01*
X5916477Y-5385050D01*
X5916477Y-5385050D01*
X5928907Y-5381400D01*
X5939805Y-5374397D01*
X5943615Y-5370000D01*
X6434487Y-5370000D01*
X6434487Y-5370000D01*
X6436330Y-5382823D01*
X6440248Y-5391400D01*
X6441712Y-5394606D01*
X6449504Y-5403600D01*
X6450195Y-5404397D01*
X6461093Y-5411400D01*
X6461093Y-5411400D01*
X6473523Y-5415050D01*
X6473523Y-5415050D01*
X6486477Y-5415050D01*
X6486477Y-5415050D01*
X6498907Y-5411400D01*
X6509805Y-5404397D01*
X6518288Y-5394606D01*
X6523670Y-5382823D01*
X6524851Y-5374606D01*
X6525513Y-5370000D01*
X6525513Y-5370000D01*
X6523670Y-5357177D01*
X6521684Y-5352829D01*
X6520392Y-5350000D01*
X7634487Y-5350000D01*
X7634487Y-5350000D01*
X7636330Y-5362823D01*
X7640900Y-5372829D01*
X7641712Y-5374606D01*
X7648511Y-5382454D01*
X7650195Y-5384397D01*
X7661093Y-5391400D01*
X7661093Y-5391400D01*
X7673523Y-5395050D01*
X7673523Y-5395050D01*
X7686477Y-5395050D01*
X7686477Y-5395050D01*
X7698907Y-5391400D01*
X7709805Y-5384397D01*
X7718288Y-5374606D01*
X7723670Y-5362823D01*
X7725513Y-5350000D01*
X7724892Y-5345676D01*
X7723670Y-5337177D01*
X7722400Y-5334397D01*
X7718288Y-5325394D01*
X7709805Y-5315603D01*
X7709805Y-5315603D01*
X7709805Y-5315603D01*
X7701086Y-5310000D01*
X9002135Y-5310000D01*
X9002135Y-5310000D01*
X9004199Y-5325676D01*
X9004199Y-5325677D01*
X9010250Y-5340284D01*
X9010250Y-5340284D01*
X9017705Y-5350000D01*
X9019875Y-5352828D01*
X9032419Y-5362454D01*
X9032420Y-5362454D01*
X9032420Y-5362454D01*
X9047027Y-5368504D01*
X9047027Y-5368504D01*
X9058385Y-5370000D01*
X9062703Y-5370568D01*
X9062704Y-5370568D01*
X9062704Y-5370568D01*
X9067022Y-5370000D01*
X9078380Y-5368504D01*
X9092988Y-5362454D01*
X9105532Y-5352828D01*
X9115157Y-5340284D01*
X9119417Y-5330000D01*
X11449432Y-5330000D01*
X11449432Y-5330000D01*
X11451495Y-5345676D01*
X11451496Y-5345677D01*
X11457546Y-5360284D01*
X11457546Y-5360284D01*
X11465002Y-5370000D01*
X11467172Y-5372828D01*
X11479716Y-5382454D01*
X11479716Y-5382454D01*
X11479716Y-5382454D01*
X11487320Y-5385603D01*
X11494324Y-5388504D01*
X11506081Y-5390052D01*
X11510000Y-5390568D01*
X11510000Y-5390568D01*
X11510000Y-5390568D01*
X11513135Y-5390155D01*
X11525676Y-5388504D01*
X11540284Y-5382454D01*
X11552828Y-5372828D01*
X11562454Y-5360284D01*
X11568504Y-5345676D01*
X11570568Y-5330000D01*
X11568504Y-5314324D01*
X11566133Y-5308600D01*
X11562454Y-5299716D01*
X11562454Y-5299716D01*
X11552829Y-5287172D01*
X11552828Y-5287172D01*
X11552828Y-5287172D01*
X11552828Y-5287171D01*
X11552828Y-5287171D01*
X11543112Y-5279716D01*
X11540284Y-5277546D01*
X11540284Y-5277546D01*
X11540284Y-5277546D01*
X11525677Y-5271496D01*
X11525676Y-5271496D01*
X11510000Y-5269432D01*
X11510000Y-5269432D01*
X11494324Y-5271496D01*
X11494323Y-5271496D01*
X11479716Y-5277546D01*
X11479716Y-5277546D01*
X11467172Y-5287171D01*
X11467171Y-5287172D01*
X11457546Y-5299716D01*
X11457546Y-5299716D01*
X11451496Y-5314323D01*
X11451495Y-5314324D01*
X11449432Y-5330000D01*
X9119417Y-5330000D01*
X9121208Y-5325676D01*
X9123272Y-5310000D01*
X9121208Y-5294324D01*
X9118248Y-5287177D01*
X9115157Y-5279716D01*
X9115157Y-5279716D01*
X9105532Y-5267172D01*
X9105532Y-5267172D01*
X9105532Y-5267172D01*
X9105531Y-5267171D01*
X9105531Y-5267171D01*
X9094360Y-5258600D01*
X9092988Y-5257546D01*
X9092988Y-5257546D01*
X9092987Y-5257546D01*
X9078380Y-5251496D01*
X9078379Y-5251496D01*
X9062704Y-5249432D01*
X9062703Y-5249432D01*
X9047028Y-5251496D01*
X9047027Y-5251496D01*
X9032420Y-5257546D01*
X9032420Y-5257546D01*
X9019876Y-5267171D01*
X9019875Y-5267172D01*
X9010250Y-5279716D01*
X9010250Y-5279716D01*
X9004199Y-5294323D01*
X9004199Y-5294324D01*
X9002135Y-5310000D01*
X7701086Y-5310000D01*
X7698907Y-5308600D01*
X7698907Y-5308600D01*
X7698907Y-5308600D01*
X7698907Y-5308600D01*
X7686477Y-5304950D01*
X7686477Y-5304950D01*
X7673523Y-5304950D01*
X7673522Y-5304950D01*
X7661093Y-5308600D01*
X7661093Y-5308600D01*
X7650195Y-5315603D01*
X7641712Y-5325394D01*
X7636330Y-5337177D01*
X7634487Y-5350000D01*
X6520392Y-5350000D01*
X6518288Y-5345394D01*
X6509805Y-5335603D01*
X6509805Y-5335603D01*
X6509805Y-5335603D01*
X6498907Y-5328600D01*
X6498907Y-5328600D01*
X6498907Y-5328600D01*
X6498907Y-5328600D01*
X6486477Y-5324950D01*
X6486477Y-5324950D01*
X6473523Y-5324950D01*
X6473522Y-5324950D01*
X6461093Y-5328600D01*
X6461093Y-5328600D01*
X6450195Y-5335603D01*
X6441712Y-5345394D01*
X6436330Y-5357177D01*
X6434487Y-5370000D01*
X5943615Y-5370000D01*
X5948288Y-5364606D01*
X5953670Y-5352823D01*
X5954697Y-5345676D01*
X5955513Y-5340000D01*
X5955513Y-5340000D01*
X5953670Y-5327177D01*
X5948288Y-5315394D01*
X5948288Y-5315394D01*
X5939805Y-5305603D01*
X5939805Y-5305603D01*
X5939805Y-5305603D01*
X5928907Y-5298600D01*
X5928907Y-5298600D01*
X5928907Y-5298600D01*
X5928907Y-5298600D01*
X5916477Y-5294950D01*
X5916477Y-5294950D01*
X5903523Y-5294950D01*
X5903522Y-5294950D01*
X5891093Y-5298600D01*
X5891093Y-5298600D01*
X5880195Y-5305603D01*
X5871712Y-5315394D01*
X5866330Y-5327177D01*
X5864487Y-5340000D01*
X5721586Y-5340000D01*
X5730305Y-5334397D01*
X5738788Y-5324606D01*
X5744170Y-5312823D01*
X5746013Y-5300000D01*
X5745812Y-5298600D01*
X5744170Y-5287177D01*
X5740762Y-5279716D01*
X5738788Y-5275394D01*
X5730305Y-5265603D01*
X5730305Y-5265603D01*
X5730305Y-5265603D01*
X5719407Y-5258600D01*
X5719407Y-5258600D01*
X5719407Y-5258600D01*
X5719407Y-5258600D01*
X5706977Y-5254950D01*
X5706977Y-5254950D01*
X5694023Y-5254950D01*
X5694022Y-5254950D01*
X5681593Y-5258600D01*
X5681593Y-5258600D01*
X5670695Y-5265603D01*
X5662212Y-5275394D01*
X5656830Y-5287177D01*
X5654987Y-5300000D01*
X4270550Y-5300000D01*
X4270550Y-5230000D01*
X5544487Y-5230000D01*
X5544487Y-5230000D01*
X5546330Y-5242823D01*
X5550248Y-5251400D01*
X5551712Y-5254606D01*
X5558831Y-5262823D01*
X5560195Y-5264397D01*
X5571093Y-5271400D01*
X5571093Y-5271400D01*
X5583523Y-5275050D01*
X5583523Y-5275050D01*
X5596477Y-5275050D01*
X5596477Y-5275050D01*
X5608907Y-5271400D01*
X5619805Y-5264397D01*
X5628288Y-5254606D01*
X5633670Y-5242823D01*
X5634851Y-5234606D01*
X5635513Y-5230000D01*
X5635513Y-5230000D01*
X5635147Y-5227450D01*
X6103039Y-5227450D01*
X6103039Y-5227450D01*
X6104882Y-5240273D01*
X6110008Y-5251496D01*
X6110264Y-5252056D01*
X6115934Y-5258600D01*
X6118747Y-5261847D01*
X6127033Y-5267172D01*
X6129645Y-5268850D01*
X6142075Y-5272500D01*
X6142075Y-5272500D01*
X6155029Y-5272500D01*
X6155029Y-5272500D01*
X6167459Y-5268850D01*
X6178357Y-5261847D01*
X6186840Y-5252056D01*
X6192222Y-5240273D01*
X6193546Y-5231061D01*
X6194066Y-5227450D01*
X6194066Y-5227450D01*
X6192222Y-5214627D01*
X6190109Y-5210000D01*
X7314487Y-5210000D01*
X7314487Y-5210000D01*
X7316330Y-5222823D01*
X7319608Y-5230000D01*
X7321712Y-5234606D01*
X7327871Y-5241714D01*
X7330195Y-5244397D01*
X7341093Y-5251400D01*
X7341093Y-5251400D01*
X7353523Y-5255050D01*
X7353523Y-5255050D01*
X7366477Y-5255050D01*
X7366477Y-5255050D01*
X7378907Y-5251400D01*
X7387123Y-5246120D01*
X7393040Y-5244565D01*
X7397827Y-5246120D01*
X7406043Y-5251400D01*
X7418473Y-5255050D01*
X7418473Y-5255050D01*
X7431427Y-5255050D01*
X7431427Y-5255050D01*
X7443857Y-5251400D01*
X7452196Y-5246041D01*
X7458114Y-5244486D01*
X7462901Y-5246041D01*
X7469061Y-5250000D01*
X7470993Y-5251242D01*
X7483423Y-5254892D01*
X7483423Y-5254892D01*
X7496377Y-5254892D01*
X7496377Y-5254892D01*
X7508807Y-5251242D01*
X7519705Y-5244238D01*
X7522906Y-5240545D01*
X7528145Y-5237385D01*
X7533909Y-5237880D01*
X7533913Y-5237865D01*
X7533986Y-5237887D01*
X7534241Y-5237909D01*
X7534501Y-5238023D01*
X7534593Y-5238065D01*
X7534593Y-5238065D01*
X7547023Y-5241714D01*
X7547023Y-5241714D01*
X7559977Y-5241714D01*
X7559977Y-5241714D01*
X7572407Y-5238065D01*
X7583305Y-5231061D01*
X7591788Y-5221271D01*
X7597169Y-5209487D01*
X7598503Y-5200209D01*
X7599013Y-5196665D01*
X7599013Y-5196664D01*
X7597169Y-5183842D01*
X7595456Y-5180090D01*
X7991320Y-5180090D01*
X7991320Y-5180090D01*
X7993163Y-5192913D01*
X7995111Y-5197177D01*
X7998545Y-5204696D01*
X8005428Y-5212640D01*
X8007028Y-5214487D01*
X8017926Y-5221490D01*
X8017926Y-5221491D01*
X8030356Y-5225140D01*
X8030356Y-5225140D01*
X8043310Y-5225140D01*
X8043310Y-5225140D01*
X8055740Y-5221491D01*
X8065380Y-5215295D01*
X8071297Y-5213740D01*
X8076084Y-5215295D01*
X8082850Y-5219643D01*
X8082850Y-5219643D01*
X8095280Y-5223293D01*
X8095280Y-5223293D01*
X8108234Y-5223293D01*
X8108234Y-5223293D01*
X8120664Y-5219643D01*
X8131562Y-5212640D01*
X8140045Y-5202849D01*
X8145427Y-5191066D01*
X8146527Y-5183415D01*
X8147270Y-5178243D01*
X8147270Y-5178243D01*
X8145427Y-5165420D01*
X8144898Y-5164262D01*
X8140045Y-5153637D01*
X8131562Y-5143846D01*
X8131562Y-5143846D01*
X8131562Y-5143846D01*
X8120664Y-5136843D01*
X8120664Y-5136843D01*
X8120664Y-5136843D01*
X8120664Y-5136842D01*
X8108234Y-5133193D01*
X8108234Y-5133193D01*
X8095280Y-5133193D01*
X8095280Y-5133193D01*
X8082850Y-5136842D01*
X8082850Y-5136843D01*
X8073210Y-5143038D01*
X8067293Y-5144593D01*
X8062506Y-5143038D01*
X8055740Y-5138690D01*
X8055740Y-5138690D01*
X8055740Y-5138690D01*
X8055740Y-5138690D01*
X8043310Y-5135040D01*
X8043310Y-5135040D01*
X8030356Y-5135040D01*
X8030356Y-5135040D01*
X8017926Y-5138690D01*
X8017926Y-5138690D01*
X8007028Y-5145693D01*
X7998545Y-5155484D01*
X7993163Y-5167268D01*
X7991320Y-5180090D01*
X7595456Y-5180090D01*
X7595030Y-5179158D01*
X7591788Y-5172058D01*
X7583305Y-5162268D01*
X7583305Y-5162268D01*
X7583304Y-5162268D01*
X7572407Y-5155264D01*
X7572407Y-5155264D01*
X7572407Y-5155264D01*
X7570222Y-5154622D01*
X7559977Y-5151614D01*
X7559977Y-5151614D01*
X7547023Y-5151614D01*
X7547022Y-5151614D01*
X7534593Y-5155264D01*
X7534592Y-5155264D01*
X7523695Y-5162268D01*
X7523695Y-5162268D01*
X7520494Y-5165961D01*
X7515255Y-5169121D01*
X7509491Y-5168626D01*
X7509487Y-5168641D01*
X7509413Y-5168619D01*
X7509159Y-5168597D01*
X7508900Y-5168483D01*
X7508807Y-5168441D01*
X7508807Y-5168441D01*
X7508807Y-5168441D01*
X7496378Y-5164792D01*
X7496377Y-5164792D01*
X7483423Y-5164792D01*
X7483423Y-5164792D01*
X7470994Y-5168441D01*
X7470993Y-5168441D01*
X7462654Y-5173800D01*
X7456737Y-5175356D01*
X7451950Y-5173800D01*
X7443858Y-5168600D01*
X7443857Y-5168600D01*
X7443857Y-5168600D01*
X7443857Y-5168600D01*
X7431428Y-5164950D01*
X7431427Y-5164950D01*
X7418473Y-5164950D01*
X7418473Y-5164950D01*
X7406044Y-5168600D01*
X7406043Y-5168600D01*
X7397827Y-5173880D01*
X7391910Y-5175435D01*
X7387123Y-5173880D01*
X7378907Y-5168600D01*
X7378907Y-5168600D01*
X7378907Y-5168600D01*
X7378907Y-5168600D01*
X7366477Y-5164950D01*
X7366477Y-5164950D01*
X7353523Y-5164950D01*
X7353522Y-5164950D01*
X7341093Y-5168600D01*
X7341093Y-5168600D01*
X7330195Y-5175603D01*
X7321712Y-5185394D01*
X7316330Y-5197177D01*
X7314487Y-5210000D01*
X6190109Y-5210000D01*
X6189874Y-5209487D01*
X6186840Y-5202844D01*
X6178357Y-5193053D01*
X6178357Y-5193053D01*
X6178357Y-5193053D01*
X6167460Y-5186050D01*
X6167459Y-5186050D01*
X6167459Y-5186050D01*
X6167459Y-5186050D01*
X6155030Y-5182400D01*
X6155029Y-5182400D01*
X6142075Y-5182400D01*
X6142075Y-5182400D01*
X6129646Y-5186050D01*
X6129645Y-5186050D01*
X6118747Y-5193053D01*
X6110264Y-5202844D01*
X6104882Y-5214627D01*
X6103039Y-5227450D01*
X5635147Y-5227450D01*
X5633670Y-5217177D01*
X5630392Y-5210000D01*
X5628288Y-5205394D01*
X5619805Y-5195603D01*
X5619805Y-5195603D01*
X5619805Y-5195603D01*
X5608907Y-5188600D01*
X5608907Y-5188600D01*
X5608907Y-5188600D01*
X5608907Y-5188600D01*
X5596477Y-5184950D01*
X5596477Y-5184950D01*
X5583523Y-5184950D01*
X5583523Y-5184950D01*
X5571093Y-5188600D01*
X5571093Y-5188600D01*
X5560195Y-5195603D01*
X5551712Y-5205394D01*
X5546330Y-5217177D01*
X5544487Y-5230000D01*
X4270550Y-5230000D01*
X4270550Y-5094131D01*
X8411556Y-5094131D01*
X8411556Y-5094131D01*
X8413399Y-5106953D01*
X8418781Y-5118737D01*
X8421706Y-5122113D01*
X8424088Y-5127749D01*
X8422702Y-5133709D01*
X8421706Y-5135079D01*
X8419629Y-5137477D01*
X8419629Y-5137477D01*
X8414247Y-5149261D01*
X8412404Y-5162083D01*
X8412404Y-5162083D01*
X8414247Y-5174906D01*
X8419629Y-5186689D01*
X8419629Y-5186690D01*
X8422374Y-5189858D01*
X8424756Y-5195494D01*
X8423370Y-5201454D01*
X8422375Y-5202824D01*
X8420284Y-5205237D01*
X8420284Y-5205237D01*
X8414903Y-5217021D01*
X8413059Y-5229843D01*
X8413059Y-5229844D01*
X8414903Y-5242666D01*
X8418935Y-5251496D01*
X8420284Y-5254450D01*
X8428767Y-5264240D01*
X8428768Y-5264240D01*
X8437521Y-5269866D01*
X8439665Y-5271244D01*
X8452095Y-5274893D01*
X8452095Y-5274893D01*
X8465049Y-5274893D01*
X8465050Y-5274893D01*
X8477479Y-5271244D01*
X8488377Y-5264240D01*
X8496861Y-5254450D01*
X8502242Y-5242666D01*
X8503911Y-5231061D01*
X8504086Y-5229844D01*
X8504086Y-5229843D01*
X8503363Y-5224815D01*
X8893755Y-5224815D01*
X8893755Y-5224816D01*
X8895599Y-5237638D01*
X8899473Y-5246120D01*
X8900980Y-5249422D01*
X8908020Y-5257546D01*
X8909464Y-5259212D01*
X8919408Y-5265603D01*
X8920362Y-5266216D01*
X8932791Y-5269866D01*
X8932792Y-5269866D01*
X8945746Y-5269866D01*
X8945746Y-5269866D01*
X8958175Y-5266216D01*
X8969073Y-5259212D01*
X8977557Y-5249422D01*
X8981060Y-5241751D01*
X8985197Y-5237244D01*
X8991194Y-5236029D01*
X8992854Y-5236365D01*
X8993776Y-5236636D01*
X8993776Y-5236636D01*
X8993776Y-5236636D01*
X8993777Y-5236636D01*
X9006731Y-5236636D01*
X9006731Y-5236636D01*
X9019160Y-5232986D01*
X9023808Y-5230000D01*
X9184487Y-5230000D01*
X9184487Y-5230000D01*
X9186330Y-5242823D01*
X9190248Y-5251400D01*
X9191712Y-5254606D01*
X9198831Y-5262823D01*
X9200195Y-5264397D01*
X9211093Y-5271400D01*
X9211093Y-5271400D01*
X9223523Y-5275050D01*
X9223523Y-5275050D01*
X9236477Y-5275050D01*
X9236477Y-5275050D01*
X9248907Y-5271400D01*
X9259805Y-5264397D01*
X9268288Y-5254606D01*
X9273670Y-5242823D01*
X9274851Y-5234606D01*
X9275513Y-5230000D01*
X9275513Y-5230000D01*
X9273670Y-5217177D01*
X9270392Y-5210000D01*
X9268288Y-5205394D01*
X9259805Y-5195603D01*
X9259805Y-5195603D01*
X9259805Y-5195603D01*
X9248907Y-5188600D01*
X9248907Y-5188600D01*
X9248907Y-5188600D01*
X9248907Y-5188600D01*
X9236477Y-5184950D01*
X9236477Y-5184950D01*
X9223523Y-5184950D01*
X9223523Y-5184950D01*
X9211093Y-5188600D01*
X9211093Y-5188600D01*
X9200195Y-5195603D01*
X9191712Y-5205394D01*
X9186330Y-5217177D01*
X9184487Y-5230000D01*
X9023808Y-5230000D01*
X9030058Y-5225983D01*
X9038542Y-5216192D01*
X9043923Y-5204408D01*
X9045037Y-5196664D01*
X9045767Y-5191586D01*
X9045767Y-5191586D01*
X9043923Y-5178763D01*
X9042166Y-5174916D01*
X9038542Y-5166980D01*
X9037659Y-5165961D01*
X9031531Y-5158888D01*
X9029149Y-5153252D01*
X9030007Y-5148292D01*
X9030215Y-5147836D01*
X9033670Y-5140273D01*
X9035166Y-5129866D01*
X9035513Y-5127450D01*
X9035513Y-5127450D01*
X9035050Y-5124230D01*
X9036094Y-5118201D01*
X9040482Y-5113937D01*
X9046538Y-5113066D01*
X9047638Y-5113322D01*
X9053523Y-5115050D01*
X9053523Y-5115050D01*
X9066477Y-5115050D01*
X9066477Y-5115050D01*
X9078907Y-5111400D01*
X9089805Y-5104397D01*
X9098288Y-5094606D01*
X9103670Y-5082823D01*
X9105513Y-5070000D01*
X9105445Y-5069525D01*
X9103670Y-5057177D01*
X9099972Y-5049081D01*
X9098288Y-5045394D01*
X9089805Y-5035603D01*
X9089805Y-5035603D01*
X9089805Y-5035603D01*
X9078907Y-5028600D01*
X9078907Y-5028600D01*
X9078907Y-5028600D01*
X9075632Y-5027638D01*
X9073654Y-5027057D01*
X9068603Y-5023604D01*
X9066857Y-5018710D01*
X9066644Y-5018741D01*
X9064700Y-5005217D01*
X9064325Y-5004397D01*
X9059318Y-4993434D01*
X9050835Y-4983643D01*
X9050835Y-4983643D01*
X9050835Y-4983643D01*
X9039937Y-4976640D01*
X9039937Y-4976639D01*
X9039937Y-4976639D01*
X9039936Y-4976639D01*
X9027507Y-4972990D01*
X9027507Y-4972990D01*
X9014553Y-4972990D01*
X9014552Y-4972990D01*
X9002123Y-4976639D01*
X9002122Y-4976640D01*
X8991225Y-4983643D01*
X8982742Y-4993434D01*
X8977360Y-5005217D01*
X8975517Y-5018040D01*
X8975517Y-5018040D01*
X8977360Y-5030862D01*
X8981696Y-5040356D01*
X8982742Y-5042646D01*
X8988317Y-5049081D01*
X8991225Y-5052437D01*
X8992749Y-5053416D01*
X9002123Y-5059440D01*
X9007376Y-5060983D01*
X9012427Y-5064436D01*
X9014173Y-5069330D01*
X9014386Y-5069299D01*
X9014950Y-5073220D01*
X9013906Y-5079249D01*
X9009518Y-5083513D01*
X9003462Y-5084384D01*
X9002361Y-5084128D01*
X8996478Y-5082400D01*
X8996477Y-5082400D01*
X8996477Y-5082400D01*
X8983523Y-5082400D01*
X8983523Y-5082400D01*
X8971093Y-5086050D01*
X8971093Y-5086050D01*
X8960195Y-5093053D01*
X8951712Y-5102844D01*
X8946330Y-5114627D01*
X8944487Y-5127450D01*
X8944487Y-5127450D01*
X8946330Y-5140273D01*
X8951712Y-5152056D01*
X8958723Y-5160148D01*
X8961105Y-5165784D01*
X8960246Y-5170743D01*
X8958462Y-5174650D01*
X8954325Y-5179158D01*
X8948329Y-5180373D01*
X8946668Y-5180036D01*
X8945746Y-5179766D01*
X8945746Y-5179766D01*
X8945746Y-5179766D01*
X8932791Y-5179766D01*
X8932791Y-5179766D01*
X8920362Y-5183415D01*
X8920361Y-5183415D01*
X8909464Y-5190419D01*
X8900980Y-5200209D01*
X8895599Y-5211993D01*
X8893755Y-5224815D01*
X8503363Y-5224815D01*
X8502242Y-5217021D01*
X8499036Y-5210000D01*
X8496861Y-5205237D01*
X8496143Y-5204408D01*
X8494115Y-5202068D01*
X8491733Y-5196432D01*
X8493119Y-5190472D01*
X8494115Y-5189102D01*
X8494550Y-5188600D01*
X8496205Y-5186690D01*
X8501587Y-5174906D01*
X8503430Y-5162083D01*
X8503430Y-5162083D01*
X8503430Y-5162083D01*
X8503255Y-5160863D01*
X8504298Y-5154834D01*
X8508686Y-5150570D01*
X8514742Y-5149699D01*
X8520154Y-5152554D01*
X8521383Y-5154102D01*
X8521620Y-5154472D01*
X8521620Y-5154472D01*
X8527158Y-5160863D01*
X8530104Y-5164262D01*
X8541001Y-5171266D01*
X8541002Y-5171266D01*
X8553431Y-5174916D01*
X8553431Y-5174916D01*
X8566385Y-5174916D01*
X8566386Y-5174916D01*
X8578815Y-5171266D01*
X8589713Y-5164262D01*
X8598197Y-5154472D01*
X8603578Y-5142688D01*
X8605422Y-5129866D01*
X8605229Y-5128528D01*
X8603578Y-5117043D01*
X8598197Y-5105259D01*
X8597814Y-5104664D01*
X8597937Y-5104584D01*
X8595865Y-5099680D01*
X8597251Y-5093721D01*
X8598246Y-5092351D01*
X8600657Y-5089568D01*
X8606039Y-5077785D01*
X8607882Y-5064962D01*
X8607613Y-5063090D01*
X8606222Y-5053416D01*
X8607266Y-5047387D01*
X8610669Y-5043679D01*
X8611398Y-5043210D01*
X8617255Y-5039446D01*
X8625738Y-5029656D01*
X8631120Y-5017872D01*
X8631120Y-5017872D01*
X8631120Y-5017872D01*
X8632669Y-5007100D01*
X8635368Y-5001609D01*
X8639679Y-4999010D01*
X8648907Y-4996300D01*
X8659805Y-4989297D01*
X8668288Y-4979506D01*
X8672630Y-4970000D01*
X10404487Y-4970000D01*
X10404487Y-4970000D01*
X10406330Y-4982823D01*
X10409287Y-4989297D01*
X10411712Y-4994606D01*
X10420195Y-5004397D01*
X10420195Y-5004397D01*
X10421212Y-5005050D01*
X10431093Y-5011400D01*
X10443523Y-5015050D01*
X10443523Y-5015050D01*
X10456477Y-5015050D01*
X10456477Y-5015050D01*
X10468907Y-5011400D01*
X10479805Y-5004397D01*
X10488288Y-4994606D01*
X10493670Y-4982823D01*
X10494559Y-4976639D01*
X10495513Y-4970000D01*
X10495513Y-4970000D01*
X10493670Y-4957177D01*
X10488288Y-4945394D01*
X10488288Y-4945394D01*
X10479805Y-4935603D01*
X10479805Y-4935603D01*
X10479805Y-4935603D01*
X10468907Y-4928600D01*
X10468907Y-4928600D01*
X10468907Y-4928600D01*
X10468907Y-4928600D01*
X10456477Y-4924950D01*
X10456477Y-4924950D01*
X10443523Y-4924950D01*
X10443523Y-4924950D01*
X10431093Y-4928600D01*
X10431093Y-4928600D01*
X10420195Y-4935603D01*
X10411712Y-4945394D01*
X10406330Y-4957177D01*
X10404487Y-4970000D01*
X8672630Y-4970000D01*
X8673670Y-4967723D01*
X8674948Y-4958832D01*
X8677647Y-4953342D01*
X8683059Y-4950486D01*
X8687536Y-4950742D01*
X8693523Y-4952500D01*
X8693523Y-4952500D01*
X8706477Y-4952500D01*
X8706477Y-4952500D01*
X8718907Y-4948850D01*
X8729805Y-4941847D01*
X8738288Y-4932056D01*
X8743670Y-4920273D01*
X8745168Y-4909850D01*
X8745513Y-4907450D01*
X8745513Y-4907450D01*
X8743670Y-4894627D01*
X8743564Y-4894397D01*
X8738288Y-4882844D01*
X8729805Y-4873053D01*
X8729805Y-4873053D01*
X8729805Y-4873053D01*
X8718907Y-4866050D01*
X8718907Y-4866050D01*
X8718907Y-4866050D01*
X8718907Y-4866050D01*
X8706477Y-4862400D01*
X8706477Y-4862400D01*
X8693523Y-4862400D01*
X8693523Y-4862400D01*
X8681093Y-4866050D01*
X8681093Y-4866050D01*
X8670195Y-4873053D01*
X8661712Y-4882844D01*
X8656330Y-4894627D01*
X8655052Y-4903518D01*
X8652352Y-4909008D01*
X8646941Y-4911864D01*
X8642464Y-4911608D01*
X8636478Y-4909850D01*
X8636477Y-4909850D01*
X8636477Y-4909850D01*
X8623523Y-4909850D01*
X8623523Y-4909850D01*
X8611093Y-4913500D01*
X8611093Y-4913500D01*
X8600195Y-4920503D01*
X8591712Y-4930294D01*
X8586330Y-4942078D01*
X8584781Y-4952850D01*
X8582082Y-4958340D01*
X8577771Y-4960940D01*
X8568543Y-4963649D01*
X8568543Y-4963650D01*
X8557645Y-4970653D01*
X8549162Y-4980444D01*
X8543780Y-4992227D01*
X8541937Y-5005049D01*
X8541937Y-5005050D01*
X8543597Y-5016596D01*
X8542553Y-5022625D01*
X8539150Y-5026333D01*
X8532564Y-5030565D01*
X8524081Y-5040356D01*
X8518699Y-5052139D01*
X8516856Y-5064962D01*
X8516856Y-5064962D01*
X8517892Y-5072172D01*
X8516849Y-5078201D01*
X8512461Y-5082465D01*
X8506405Y-5083335D01*
X8500994Y-5080480D01*
X8499088Y-5077693D01*
X8495574Y-5070000D01*
X8495357Y-5069525D01*
X8486874Y-5059734D01*
X8486874Y-5059734D01*
X8486874Y-5059734D01*
X8475976Y-5052731D01*
X8475976Y-5052731D01*
X8475976Y-5052731D01*
X8475976Y-5052730D01*
X8463547Y-5049081D01*
X8463546Y-5049081D01*
X8450592Y-5049081D01*
X8450592Y-5049081D01*
X8438162Y-5052730D01*
X8438162Y-5052731D01*
X8427264Y-5059734D01*
X8418781Y-5069525D01*
X8413399Y-5081308D01*
X8411556Y-5094131D01*
X4270550Y-5094131D01*
X4270550Y-4860000D01*
X9494487Y-4860000D01*
X9494487Y-4860000D01*
X9496330Y-4872823D01*
X9500907Y-4882844D01*
X9501712Y-4884606D01*
X9510195Y-4894397D01*
X9510195Y-4894397D01*
X9521093Y-4901400D01*
X9521093Y-4901400D01*
X9533523Y-4905050D01*
X9533523Y-4905050D01*
X9546477Y-4905050D01*
X9546477Y-4905050D01*
X9558907Y-4901400D01*
X9569805Y-4894397D01*
X9578288Y-4884606D01*
X9583670Y-4872823D01*
X9584644Y-4866050D01*
X9585513Y-4860000D01*
X9585513Y-4860000D01*
X9583670Y-4847177D01*
X9580761Y-4840809D01*
X9578288Y-4835394D01*
X9569805Y-4825603D01*
X9569805Y-4825603D01*
X9569805Y-4825603D01*
X9558907Y-4818600D01*
X9558907Y-4818600D01*
X9558907Y-4818600D01*
X9557822Y-4818281D01*
X9546477Y-4814950D01*
X9546477Y-4814950D01*
X9533523Y-4814950D01*
X9533523Y-4814950D01*
X9521093Y-4818600D01*
X9521093Y-4818600D01*
X9510195Y-4825603D01*
X9501712Y-4835394D01*
X9496330Y-4847177D01*
X9494487Y-4860000D01*
X4270550Y-4860000D01*
X4270550Y-4725000D01*
X4889487Y-4725000D01*
X4889487Y-4725000D01*
X4891330Y-4737823D01*
X4894428Y-4744606D01*
X4896712Y-4749606D01*
X4905195Y-4759397D01*
X4905195Y-4759397D01*
X4915457Y-4765992D01*
X4916093Y-4766400D01*
X4928523Y-4770050D01*
X4928523Y-4770050D01*
X4941477Y-4770050D01*
X4941477Y-4770050D01*
X4953907Y-4766400D01*
X4964805Y-4759397D01*
X4973288Y-4749606D01*
X4976052Y-4743555D01*
X4977549Y-4740278D01*
X4981686Y-4735770D01*
X4987682Y-4734555D01*
X4993248Y-4737097D01*
X4996102Y-4742151D01*
X4996131Y-4742143D01*
X4996166Y-4742264D01*
X4996257Y-4742424D01*
X4996319Y-4742784D01*
X4996330Y-4742822D01*
X5000897Y-4752823D01*
X5001712Y-4754606D01*
X5009902Y-4764058D01*
X5010195Y-4764397D01*
X5018992Y-4770050D01*
X5021093Y-4771400D01*
X5033523Y-4775050D01*
X5033523Y-4775050D01*
X5046477Y-4775050D01*
X5046477Y-4775050D01*
X5058907Y-4771400D01*
X5069805Y-4764397D01*
X5078288Y-4754606D01*
X5083670Y-4742823D01*
X5084076Y-4740000D01*
X6524487Y-4740000D01*
X6524487Y-4740000D01*
X6526330Y-4752823D01*
X6530248Y-4761400D01*
X6531712Y-4764606D01*
X6532913Y-4765992D01*
X6535294Y-4771628D01*
X6533908Y-4777587D01*
X6532913Y-4778958D01*
X6531712Y-4780344D01*
X6531712Y-4780344D01*
X6526330Y-4792128D01*
X6524487Y-4804950D01*
X6524487Y-4804951D01*
X6526330Y-4817773D01*
X6531712Y-4829556D01*
X6531712Y-4829557D01*
X6536770Y-4835394D01*
X6540195Y-4839347D01*
X6542470Y-4840809D01*
X6551093Y-4846351D01*
X6563523Y-4850000D01*
X6563523Y-4850000D01*
X6576477Y-4850000D01*
X6576477Y-4850000D01*
X6588907Y-4846351D01*
X6599805Y-4839347D01*
X6608288Y-4829557D01*
X6613670Y-4817773D01*
X6615303Y-4806412D01*
X6615513Y-4804951D01*
X6615513Y-4804950D01*
X6613670Y-4792128D01*
X6610504Y-4785195D01*
X6608288Y-4780344D01*
X6607087Y-4778958D01*
X6604706Y-4773322D01*
X6606091Y-4767363D01*
X6607087Y-4765993D01*
X6608288Y-4764606D01*
X6613670Y-4752823D01*
X6614851Y-4744606D01*
X6615513Y-4740000D01*
X6615513Y-4740000D01*
X6613670Y-4727177D01*
X6611681Y-4722823D01*
X6608288Y-4715394D01*
X6599805Y-4705603D01*
X6599805Y-4705603D01*
X6599805Y-4705603D01*
X6588907Y-4698600D01*
X6588907Y-4698600D01*
X6588907Y-4698600D01*
X6588907Y-4698600D01*
X6576477Y-4694950D01*
X6576477Y-4694950D01*
X6563523Y-4694950D01*
X6563522Y-4694950D01*
X6551093Y-4698600D01*
X6551093Y-4698600D01*
X6540195Y-4705603D01*
X6531712Y-4715394D01*
X6526330Y-4727177D01*
X6524487Y-4740000D01*
X5084076Y-4740000D01*
X5084787Y-4735050D01*
X5085513Y-4730000D01*
X5085513Y-4730000D01*
X5083670Y-4717177D01*
X5078288Y-4705394D01*
X5069805Y-4695603D01*
X5069805Y-4695603D01*
X5069805Y-4695603D01*
X5058907Y-4688600D01*
X5058907Y-4688600D01*
X5058907Y-4688600D01*
X5058193Y-4688390D01*
X5046477Y-4684950D01*
X5046477Y-4684950D01*
X5033523Y-4684950D01*
X5033523Y-4684950D01*
X5021093Y-4688600D01*
X5021093Y-4688600D01*
X5010195Y-4695603D01*
X5001712Y-4705394D01*
X4997451Y-4714722D01*
X4993314Y-4719230D01*
X4987317Y-4720445D01*
X4981752Y-4717903D01*
X4978898Y-4712849D01*
X4978869Y-4712857D01*
X4978834Y-4712735D01*
X4978743Y-4712576D01*
X4978681Y-4712216D01*
X4978670Y-4712178D01*
X4975572Y-4705394D01*
X4973288Y-4700394D01*
X4964805Y-4690603D01*
X4964805Y-4690603D01*
X4964805Y-4690603D01*
X4953907Y-4683600D01*
X4953907Y-4683600D01*
X4953907Y-4683600D01*
X4953907Y-4683600D01*
X4941477Y-4679950D01*
X4941477Y-4679950D01*
X4928523Y-4679950D01*
X4928523Y-4679950D01*
X4916093Y-4683600D01*
X4916093Y-4683600D01*
X4905195Y-4690603D01*
X4896712Y-4700394D01*
X4891330Y-4712177D01*
X4889487Y-4725000D01*
X4270550Y-4725000D01*
X4270550Y-4675000D01*
X4379487Y-4675000D01*
X4379487Y-4675000D01*
X4381330Y-4687823D01*
X4386252Y-4698600D01*
X4386712Y-4699606D01*
X4391908Y-4705603D01*
X4395195Y-4709397D01*
X4402988Y-4714405D01*
X4406093Y-4716400D01*
X4418523Y-4720050D01*
X4418523Y-4720050D01*
X4431477Y-4720050D01*
X4431477Y-4720050D01*
X4443907Y-4716400D01*
X4454805Y-4709397D01*
X4463288Y-4699606D01*
X4468670Y-4687823D01*
X4469380Y-4682885D01*
X4470513Y-4675000D01*
X4470513Y-4675000D01*
X4468670Y-4662177D01*
X4463288Y-4650394D01*
X4462947Y-4650000D01*
X6764487Y-4650000D01*
X6764487Y-4650000D01*
X6766330Y-4662823D01*
X6768969Y-4668600D01*
X6771712Y-4674606D01*
X6779504Y-4683600D01*
X6780195Y-4684397D01*
X6790639Y-4691108D01*
X6791093Y-4691400D01*
X6803523Y-4695050D01*
X6803523Y-4695050D01*
X6816477Y-4695050D01*
X6816477Y-4695050D01*
X6828907Y-4691400D01*
X6839805Y-4684397D01*
X6848288Y-4674606D01*
X6853670Y-4662823D01*
X6854939Y-4653994D01*
X6854939Y-4653993D01*
X7525487Y-4653993D01*
X7525487Y-4653994D01*
X7527330Y-4666816D01*
X7531068Y-4675000D01*
X7532712Y-4678600D01*
X7539462Y-4686390D01*
X7541843Y-4692025D01*
X7540985Y-4696985D01*
X7536330Y-4707177D01*
X7536330Y-4707177D01*
X7534487Y-4720000D01*
X7534487Y-4720000D01*
X7536330Y-4732823D01*
X7540897Y-4742823D01*
X7541712Y-4744606D01*
X7547854Y-4751695D01*
X7550195Y-4754397D01*
X7561093Y-4761400D01*
X7561093Y-4761400D01*
X7573523Y-4765050D01*
X7573523Y-4765050D01*
X7586477Y-4765050D01*
X7586477Y-4765050D01*
X7598907Y-4761400D01*
X7609805Y-4754397D01*
X7618288Y-4744606D01*
X7619512Y-4741925D01*
X7623650Y-4737418D01*
X7629646Y-4736203D01*
X7635212Y-4738744D01*
X7636000Y-4739555D01*
X7639674Y-4743795D01*
X7640195Y-4744397D01*
X7646930Y-4748725D01*
X7650803Y-4753461D01*
X7651152Y-4759570D01*
X7647845Y-4764717D01*
X7646930Y-4765382D01*
X7636607Y-4772016D01*
X7628124Y-4781806D01*
X7622743Y-4793590D01*
X7620899Y-4806412D01*
X7620899Y-4806413D01*
X7622743Y-4819235D01*
X7625651Y-4825603D01*
X7628124Y-4831019D01*
X7636607Y-4840809D01*
X7636608Y-4840809D01*
X7645230Y-4846351D01*
X7647505Y-4847813D01*
X7659935Y-4851462D01*
X7659935Y-4851462D01*
X7672889Y-4851462D01*
X7672890Y-4851462D01*
X7685319Y-4847813D01*
X7696217Y-4840809D01*
X7704701Y-4831019D01*
X7710082Y-4819235D01*
X7711926Y-4806412D01*
X7711788Y-4805458D01*
X8488089Y-4805458D01*
X8488089Y-4805459D01*
X8489933Y-4818281D01*
X8490369Y-4819235D01*
X8495315Y-4830065D01*
X8503798Y-4839855D01*
X8503798Y-4839855D01*
X8513905Y-4846351D01*
X8514696Y-4846859D01*
X8527126Y-4850509D01*
X8527126Y-4850509D01*
X8540080Y-4850509D01*
X8540080Y-4850509D01*
X8552510Y-4846859D01*
X8563408Y-4839855D01*
X8571891Y-4830065D01*
X8577272Y-4818281D01*
X8579116Y-4805459D01*
X8579043Y-4804950D01*
X8577272Y-4792636D01*
X8575541Y-4788845D01*
X8571891Y-4780852D01*
X8563408Y-4771062D01*
X8563408Y-4771062D01*
X8563407Y-4771062D01*
X8552510Y-4764058D01*
X8552510Y-4764058D01*
X8552510Y-4764058D01*
X8551009Y-4763617D01*
X8540080Y-4760409D01*
X8540080Y-4760409D01*
X8527126Y-4760409D01*
X8527125Y-4760409D01*
X8514696Y-4764058D01*
X8514695Y-4764058D01*
X8503798Y-4771062D01*
X8495314Y-4780852D01*
X8489933Y-4792636D01*
X8488089Y-4805458D01*
X7711788Y-4805458D01*
X7711715Y-4804951D01*
X7710082Y-4793590D01*
X7709414Y-4792128D01*
X7704701Y-4781806D01*
X7696217Y-4772016D01*
X7696217Y-4772016D01*
X7696217Y-4772016D01*
X7689482Y-4767687D01*
X7685609Y-4762951D01*
X7685260Y-4756842D01*
X7688568Y-4751695D01*
X7689482Y-4751031D01*
X7693070Y-4748725D01*
X7699805Y-4744397D01*
X7700327Y-4743795D01*
X8757037Y-4743795D01*
X8757037Y-4743795D01*
X8758880Y-4756617D01*
X8763788Y-4767363D01*
X8764262Y-4768401D01*
X8772222Y-4777587D01*
X8772745Y-4778192D01*
X8778370Y-4781806D01*
X8783643Y-4785195D01*
X8796073Y-4788845D01*
X8796073Y-4788845D01*
X8809027Y-4788845D01*
X8809027Y-4788845D01*
X8821457Y-4785195D01*
X8832355Y-4778192D01*
X8840838Y-4768401D01*
X8846220Y-4756618D01*
X8847355Y-4748725D01*
X8848063Y-4743795D01*
X8848063Y-4743795D01*
X8847376Y-4739011D01*
X8915567Y-4739011D01*
X8915567Y-4739011D01*
X8917410Y-4751834D01*
X8921779Y-4761400D01*
X8922792Y-4763617D01*
X8930069Y-4772016D01*
X8931275Y-4773408D01*
X8942068Y-4780344D01*
X8942173Y-4780412D01*
X8954603Y-4784061D01*
X8954603Y-4784061D01*
X8967557Y-4784061D01*
X8967557Y-4784061D01*
X8979987Y-4780412D01*
X8990885Y-4773408D01*
X8999368Y-4763617D01*
X9004750Y-4751834D01*
X9005905Y-4743795D01*
X9006593Y-4739011D01*
X9006593Y-4739011D01*
X9005298Y-4730000D01*
X10404487Y-4730000D01*
X10404487Y-4730000D01*
X10406330Y-4742823D01*
X10410897Y-4752823D01*
X10411712Y-4754606D01*
X10419902Y-4764058D01*
X10420195Y-4764397D01*
X10428992Y-4770050D01*
X10431093Y-4771400D01*
X10443523Y-4775050D01*
X10443523Y-4775050D01*
X10456477Y-4775050D01*
X10456477Y-4775050D01*
X10468907Y-4771400D01*
X10479805Y-4764397D01*
X10488288Y-4754606D01*
X10493670Y-4742823D01*
X10494787Y-4735050D01*
X10495513Y-4730000D01*
X10495513Y-4730000D01*
X10493670Y-4717177D01*
X10488288Y-4705394D01*
X10479805Y-4695603D01*
X10479805Y-4695603D01*
X10479805Y-4695603D01*
X10468907Y-4688600D01*
X10468907Y-4688600D01*
X10468907Y-4688600D01*
X10468193Y-4688390D01*
X10456477Y-4684950D01*
X10456477Y-4684950D01*
X10443523Y-4684950D01*
X10443523Y-4684950D01*
X10431093Y-4688600D01*
X10431093Y-4688600D01*
X10420195Y-4695603D01*
X10411712Y-4705394D01*
X10406330Y-4717177D01*
X10404487Y-4730000D01*
X9005298Y-4730000D01*
X9004750Y-4726189D01*
X9001946Y-4720050D01*
X8999368Y-4714405D01*
X8990885Y-4704614D01*
X8990885Y-4704614D01*
X8990885Y-4704614D01*
X8979987Y-4697611D01*
X8979987Y-4697611D01*
X8979987Y-4697611D01*
X8978511Y-4697177D01*
X8967557Y-4693961D01*
X8967557Y-4693961D01*
X8954603Y-4693961D01*
X8954602Y-4693961D01*
X8942173Y-4697611D01*
X8942172Y-4697611D01*
X8931275Y-4704614D01*
X8922792Y-4714405D01*
X8917410Y-4726189D01*
X8915567Y-4739011D01*
X8847376Y-4739011D01*
X8846220Y-4730972D01*
X8840838Y-4719189D01*
X8832355Y-4709398D01*
X8832355Y-4709398D01*
X8832355Y-4709398D01*
X8821457Y-4702395D01*
X8821457Y-4702395D01*
X8821457Y-4702395D01*
X8821457Y-4702394D01*
X8809027Y-4698745D01*
X8809027Y-4698745D01*
X8796073Y-4698745D01*
X8796073Y-4698745D01*
X8783643Y-4702394D01*
X8783643Y-4702395D01*
X8772745Y-4709398D01*
X8764262Y-4719189D01*
X8758880Y-4730972D01*
X8757037Y-4743795D01*
X7700327Y-4743795D01*
X7708288Y-4734606D01*
X7713670Y-4722823D01*
X7714738Y-4715394D01*
X7715513Y-4710000D01*
X7715513Y-4710000D01*
X7713670Y-4697177D01*
X7711681Y-4692823D01*
X7710392Y-4690000D01*
X8574487Y-4690000D01*
X8574487Y-4690000D01*
X8576330Y-4702823D01*
X8580857Y-4712735D01*
X8581712Y-4714606D01*
X8588831Y-4722823D01*
X8590195Y-4724397D01*
X8601093Y-4731400D01*
X8601093Y-4731400D01*
X8613523Y-4735050D01*
X8613523Y-4735050D01*
X8626477Y-4735050D01*
X8626477Y-4735050D01*
X8638907Y-4731400D01*
X8649805Y-4724397D01*
X8658288Y-4714606D01*
X8663670Y-4702823D01*
X8664787Y-4695050D01*
X8665513Y-4690000D01*
X8665513Y-4690000D01*
X8664076Y-4680000D01*
X9070467Y-4680000D01*
X9070467Y-4680000D01*
X9072310Y-4692823D01*
X9076877Y-4702823D01*
X9077692Y-4704606D01*
X9084735Y-4712735D01*
X9086175Y-4714397D01*
X9094972Y-4720050D01*
X9097073Y-4721400D01*
X9109503Y-4725050D01*
X9109503Y-4725050D01*
X9122457Y-4725050D01*
X9122457Y-4725050D01*
X9134887Y-4721400D01*
X9145785Y-4714397D01*
X9154268Y-4704606D01*
X9159650Y-4692823D01*
X9160400Y-4687604D01*
X9161493Y-4680000D01*
X9161493Y-4680000D01*
X9159650Y-4667177D01*
X9157661Y-4662823D01*
X9154268Y-4655394D01*
X9145785Y-4645603D01*
X9145785Y-4645603D01*
X9145785Y-4645603D01*
X9134887Y-4638600D01*
X9134887Y-4638600D01*
X9134887Y-4638600D01*
X9134886Y-4638600D01*
X9122457Y-4634950D01*
X9122457Y-4634950D01*
X9109503Y-4634950D01*
X9109502Y-4634950D01*
X9097073Y-4638600D01*
X9097072Y-4638600D01*
X9086175Y-4645603D01*
X9077692Y-4655394D01*
X9072310Y-4667177D01*
X9070467Y-4680000D01*
X8664076Y-4680000D01*
X8663670Y-4677177D01*
X8659752Y-4668600D01*
X8658288Y-4665394D01*
X8649805Y-4655603D01*
X8649805Y-4655603D01*
X8649805Y-4655603D01*
X8638907Y-4648600D01*
X8638907Y-4648600D01*
X8638907Y-4648600D01*
X8638907Y-4648600D01*
X8626477Y-4644950D01*
X8626477Y-4644950D01*
X8613523Y-4644950D01*
X8613523Y-4644950D01*
X8601093Y-4648600D01*
X8601093Y-4648600D01*
X8590195Y-4655603D01*
X8581712Y-4665394D01*
X8576330Y-4677177D01*
X8574487Y-4690000D01*
X7710392Y-4690000D01*
X7708288Y-4685394D01*
X7699805Y-4675603D01*
X7699805Y-4675603D01*
X7699805Y-4675603D01*
X7688907Y-4668600D01*
X7688907Y-4668600D01*
X7688907Y-4668600D01*
X7688907Y-4668600D01*
X7676477Y-4664950D01*
X7676477Y-4664950D01*
X7663523Y-4664950D01*
X7663522Y-4664950D01*
X7651093Y-4668600D01*
X7651093Y-4668600D01*
X7640195Y-4675603D01*
X7631712Y-4685394D01*
X7630487Y-4688075D01*
X7626350Y-4692582D01*
X7620353Y-4693797D01*
X7614788Y-4691255D01*
X7614000Y-4690445D01*
X7611538Y-4687604D01*
X7609157Y-4681968D01*
X7610015Y-4677008D01*
X7614670Y-4666816D01*
X7615591Y-4660405D01*
X7616513Y-4653994D01*
X7616513Y-4653993D01*
X7614670Y-4641171D01*
X7613495Y-4638600D01*
X7609288Y-4629387D01*
X7600805Y-4619597D01*
X7600805Y-4619597D01*
X7600805Y-4619597D01*
X7589907Y-4612593D01*
X7589907Y-4612593D01*
X7589907Y-4612593D01*
X7589907Y-4612593D01*
X7577898Y-4609067D01*
X10262529Y-4609067D01*
X10262529Y-4609067D01*
X10264373Y-4621890D01*
X10269721Y-4633600D01*
X10269754Y-4633673D01*
X10278238Y-4643464D01*
X10278238Y-4643464D01*
X10289021Y-4650394D01*
X10289136Y-4650468D01*
X10301565Y-4654117D01*
X10301566Y-4654117D01*
X10314520Y-4654117D01*
X10314520Y-4654117D01*
X10326950Y-4650468D01*
X10337848Y-4643464D01*
X10346331Y-4633673D01*
X10351712Y-4621890D01*
X10353556Y-4609067D01*
X10353217Y-4606711D01*
X10354260Y-4600683D01*
X10358648Y-4596418D01*
X10360226Y-4595804D01*
X10361457Y-4595442D01*
X10372355Y-4588439D01*
X10380838Y-4578648D01*
X10386220Y-4566865D01*
X10386220Y-4566865D01*
X10386220Y-4566864D01*
X10388151Y-4553431D01*
X10390851Y-4547940D01*
X10395818Y-4545319D01*
X10395798Y-4545250D01*
X10396142Y-4545149D01*
X10396262Y-4545085D01*
X10396470Y-4545052D01*
X10396477Y-4545050D01*
X10408907Y-4541400D01*
X10419805Y-4534397D01*
X10428288Y-4524606D01*
X10433670Y-4512823D01*
X10434394Y-4507783D01*
X10435513Y-4500000D01*
X10435513Y-4500000D01*
X10433670Y-4487177D01*
X10431031Y-4481400D01*
X10428288Y-4475394D01*
X10419805Y-4465603D01*
X10419805Y-4465603D01*
X10419805Y-4465603D01*
X10408907Y-4458600D01*
X10408907Y-4458600D01*
X10408907Y-4458600D01*
X10408907Y-4458600D01*
X10396477Y-4454950D01*
X10396477Y-4454950D01*
X10383523Y-4454950D01*
X10383523Y-4454950D01*
X10371093Y-4458600D01*
X10371093Y-4458600D01*
X10360195Y-4465603D01*
X10351712Y-4475394D01*
X10346330Y-4487177D01*
X10344399Y-4500611D01*
X10341699Y-4506102D01*
X10336732Y-4508723D01*
X10336752Y-4508792D01*
X10336408Y-4508894D01*
X10336288Y-4508957D01*
X10336081Y-4508990D01*
X10323643Y-4512641D01*
X10323643Y-4512642D01*
X10312745Y-4519645D01*
X10304262Y-4529436D01*
X10298880Y-4541219D01*
X10297037Y-4554042D01*
X10297037Y-4554042D01*
X10297375Y-4556398D01*
X10296332Y-4562427D01*
X10291944Y-4566691D01*
X10290366Y-4567306D01*
X10289136Y-4567667D01*
X10278238Y-4574670D01*
X10269754Y-4584461D01*
X10264373Y-4596245D01*
X10262529Y-4609067D01*
X7577898Y-4609067D01*
X7577477Y-4608943D01*
X7577477Y-4608943D01*
X7564523Y-4608943D01*
X7564522Y-4608943D01*
X7552093Y-4612593D01*
X7552093Y-4612593D01*
X7541195Y-4619597D01*
X7532712Y-4629387D01*
X7527330Y-4641171D01*
X7525487Y-4653993D01*
X6854939Y-4653993D01*
X6855513Y-4650000D01*
X6855513Y-4650000D01*
X6853670Y-4637177D01*
X6852652Y-4634950D01*
X6848288Y-4625394D01*
X6839805Y-4615603D01*
X6839805Y-4615603D01*
X6839805Y-4615603D01*
X6828907Y-4608600D01*
X6828907Y-4608600D01*
X6828907Y-4608600D01*
X6828907Y-4608600D01*
X6816477Y-4604950D01*
X6816477Y-4604950D01*
X6803523Y-4604950D01*
X6803522Y-4604950D01*
X6791093Y-4608600D01*
X6791093Y-4608600D01*
X6780195Y-4615603D01*
X6771712Y-4625394D01*
X6766330Y-4637177D01*
X6764487Y-4650000D01*
X4462947Y-4650000D01*
X4454805Y-4640603D01*
X4454805Y-4640603D01*
X4454805Y-4640603D01*
X4443907Y-4633600D01*
X4443907Y-4633600D01*
X4443907Y-4633600D01*
X4443907Y-4633600D01*
X4431477Y-4629950D01*
X4431477Y-4629950D01*
X4418523Y-4629950D01*
X4418523Y-4629950D01*
X4406093Y-4633600D01*
X4406093Y-4633600D01*
X4395195Y-4640603D01*
X4386712Y-4650394D01*
X4381330Y-4662177D01*
X4379487Y-4675000D01*
X4270550Y-4675000D01*
X4270550Y-4570000D01*
X4614487Y-4570000D01*
X4614487Y-4570000D01*
X4616330Y-4582823D01*
X4620897Y-4592823D01*
X4621712Y-4594606D01*
X4626977Y-4600683D01*
X4630195Y-4604397D01*
X4637270Y-4608943D01*
X4641093Y-4611400D01*
X4653523Y-4615050D01*
X4653523Y-4615050D01*
X4666477Y-4615050D01*
X4666477Y-4615050D01*
X4678907Y-4611400D01*
X4689805Y-4604397D01*
X4698288Y-4594606D01*
X4703670Y-4582823D01*
X4704076Y-4580000D01*
X7124487Y-4580000D01*
X7124487Y-4580000D01*
X7126330Y-4592823D01*
X7128795Y-4598220D01*
X7131712Y-4604606D01*
X7138632Y-4612593D01*
X7140195Y-4614397D01*
X7151093Y-4621400D01*
X7151093Y-4621400D01*
X7163523Y-4625050D01*
X7163523Y-4625050D01*
X7176477Y-4625050D01*
X7176477Y-4625050D01*
X7188907Y-4621400D01*
X7199805Y-4614397D01*
X7208288Y-4604606D01*
X7213670Y-4592823D01*
X7214872Y-4584461D01*
X7215513Y-4580000D01*
X7215513Y-4580000D01*
X7213670Y-4567177D01*
X7211500Y-4562427D01*
X7208288Y-4555394D01*
X7199805Y-4545603D01*
X7199805Y-4545603D01*
X7199805Y-4545603D01*
X7188907Y-4538600D01*
X7188907Y-4538600D01*
X7188907Y-4538600D01*
X7188907Y-4538600D01*
X7176477Y-4534950D01*
X7176477Y-4534950D01*
X7163523Y-4534950D01*
X7163522Y-4534950D01*
X7151093Y-4538600D01*
X7151093Y-4538600D01*
X7140195Y-4545603D01*
X7131712Y-4555394D01*
X7126330Y-4567177D01*
X7124487Y-4580000D01*
X4704076Y-4580000D01*
X4705513Y-4570000D01*
X4705178Y-4567667D01*
X4703670Y-4557177D01*
X4701959Y-4553431D01*
X4698288Y-4545394D01*
X4689805Y-4535603D01*
X4689805Y-4535603D01*
X4689805Y-4535603D01*
X4678907Y-4528600D01*
X4678907Y-4528600D01*
X4678907Y-4528600D01*
X4678907Y-4528600D01*
X4666477Y-4524950D01*
X4666477Y-4524950D01*
X4653523Y-4524950D01*
X4653523Y-4524950D01*
X4641093Y-4528600D01*
X4641093Y-4528600D01*
X4630195Y-4535603D01*
X4621712Y-4545394D01*
X4616330Y-4557177D01*
X4614487Y-4570000D01*
X4270550Y-4570000D01*
X4270550Y-4427450D01*
X5194487Y-4427450D01*
X5194487Y-4427450D01*
X5196330Y-4440273D01*
X5198512Y-4445050D01*
X5201712Y-4452056D01*
X5207382Y-4458600D01*
X5210195Y-4461847D01*
X5216041Y-4465603D01*
X5221093Y-4468850D01*
X5233523Y-4472500D01*
X5233523Y-4472500D01*
X5246477Y-4472500D01*
X5246477Y-4472500D01*
X5258907Y-4468850D01*
X5269805Y-4461847D01*
X5278288Y-4452056D01*
X5283670Y-4440273D01*
X5284740Y-4432828D01*
X5285147Y-4430000D01*
X6429587Y-4430000D01*
X6429587Y-4430000D01*
X6431430Y-4442823D01*
X6436000Y-4452829D01*
X6436812Y-4454606D01*
X6443611Y-4462454D01*
X6445295Y-4464397D01*
X6456193Y-4471400D01*
X6456193Y-4471400D01*
X6468623Y-4475050D01*
X6468623Y-4475050D01*
X6481577Y-4475050D01*
X6481577Y-4475050D01*
X6494007Y-4471400D01*
X6504905Y-4464397D01*
X6513388Y-4454606D01*
X6518770Y-4442823D01*
X6519861Y-4435229D01*
X6520613Y-4430000D01*
X6520613Y-4430000D01*
X6518770Y-4417177D01*
X6517664Y-4414757D01*
X6516967Y-4408678D01*
X6519975Y-4403351D01*
X6525541Y-4400809D01*
X6526670Y-4400744D01*
X6529027Y-4400744D01*
X6529027Y-4400744D01*
X6541457Y-4397095D01*
X6552355Y-4390091D01*
X6552434Y-4390000D01*
X6999432Y-4390000D01*
X6999432Y-4390000D01*
X7001495Y-4405676D01*
X7001496Y-4405677D01*
X7007546Y-4420284D01*
X7007546Y-4420284D01*
X7015002Y-4430000D01*
X7017172Y-4432828D01*
X7029716Y-4442454D01*
X7029716Y-4442454D01*
X7029716Y-4442454D01*
X7044323Y-4448504D01*
X7044324Y-4448504D01*
X7056081Y-4450052D01*
X7060000Y-4450568D01*
X7060000Y-4450568D01*
X7060000Y-4450568D01*
X7063135Y-4450155D01*
X7075676Y-4448504D01*
X7090284Y-4442454D01*
X7093482Y-4440000D01*
X7624487Y-4440000D01*
X7624487Y-4440000D01*
X7626330Y-4452823D01*
X7630729Y-4462454D01*
X7631712Y-4464606D01*
X7640195Y-4474397D01*
X7640195Y-4474397D01*
X7641747Y-4475394D01*
X7651093Y-4481400D01*
X7663523Y-4485050D01*
X7663523Y-4485050D01*
X7676477Y-4485050D01*
X7676477Y-4485050D01*
X7688907Y-4481400D01*
X7699805Y-4474397D01*
X7708288Y-4464606D01*
X7713670Y-4452823D01*
X7714291Y-4448504D01*
X7715513Y-4440000D01*
X7715513Y-4440000D01*
X7713670Y-4427177D01*
X7711031Y-4421400D01*
X7708288Y-4415394D01*
X7699805Y-4405603D01*
X7699805Y-4405603D01*
X7699805Y-4405603D01*
X7691086Y-4400000D01*
X8484487Y-4400000D01*
X8484487Y-4400000D01*
X8486330Y-4412823D01*
X8490248Y-4421400D01*
X8491712Y-4424606D01*
X8496385Y-4430000D01*
X8500195Y-4434397D01*
X8511093Y-4441400D01*
X8511093Y-4441400D01*
X8523523Y-4445050D01*
X8523523Y-4445050D01*
X8536477Y-4445050D01*
X8536477Y-4445050D01*
X8548907Y-4441400D01*
X8559805Y-4434397D01*
X8568288Y-4424606D01*
X8573670Y-4412823D01*
X8574697Y-4405676D01*
X8575513Y-4400000D01*
X8575513Y-4400000D01*
X8573670Y-4387177D01*
X8571462Y-4382344D01*
X8568288Y-4375394D01*
X8559805Y-4365603D01*
X8559805Y-4365603D01*
X8559805Y-4365603D01*
X8548907Y-4358600D01*
X8548907Y-4358600D01*
X8548907Y-4358600D01*
X8548582Y-4358504D01*
X8536477Y-4354950D01*
X8536477Y-4354950D01*
X8523523Y-4354950D01*
X8523523Y-4354950D01*
X8511093Y-4358600D01*
X8511093Y-4358600D01*
X8500195Y-4365603D01*
X8491712Y-4375394D01*
X8486330Y-4387177D01*
X8484487Y-4400000D01*
X7691086Y-4400000D01*
X7688907Y-4398600D01*
X7688907Y-4398600D01*
X7688907Y-4398600D01*
X7688907Y-4398600D01*
X7676477Y-4394950D01*
X7676477Y-4394950D01*
X7663523Y-4394950D01*
X7663522Y-4394950D01*
X7651093Y-4398600D01*
X7651093Y-4398600D01*
X7640195Y-4405603D01*
X7631712Y-4415394D01*
X7626330Y-4427177D01*
X7624487Y-4440000D01*
X7093482Y-4440000D01*
X7102828Y-4432828D01*
X7112454Y-4420284D01*
X7118504Y-4405676D01*
X7120568Y-4390000D01*
X7118504Y-4374324D01*
X7117102Y-4370937D01*
X7112454Y-4359716D01*
X7112454Y-4359716D01*
X7102829Y-4347172D01*
X7102828Y-4347172D01*
X7102828Y-4347172D01*
X7102828Y-4347171D01*
X7102828Y-4347171D01*
X7094508Y-4340787D01*
X7090284Y-4337546D01*
X7090284Y-4337546D01*
X7090284Y-4337546D01*
X7075677Y-4331496D01*
X7075676Y-4331496D01*
X7060000Y-4329432D01*
X7060000Y-4329432D01*
X7044324Y-4331496D01*
X7044323Y-4331496D01*
X7029716Y-4337546D01*
X7029716Y-4337546D01*
X7017172Y-4347171D01*
X7017171Y-4347172D01*
X7007546Y-4359716D01*
X7007546Y-4359716D01*
X7001496Y-4374323D01*
X7001495Y-4374324D01*
X6999432Y-4390000D01*
X6552434Y-4390000D01*
X6560838Y-4380301D01*
X6566220Y-4368517D01*
X6568063Y-4355694D01*
X6567751Y-4353525D01*
X6568795Y-4347497D01*
X6573182Y-4343232D01*
X6574761Y-4342618D01*
X6578907Y-4341400D01*
X6589805Y-4334397D01*
X6598288Y-4324606D01*
X6603670Y-4312823D01*
X6605513Y-4300000D01*
X6605513Y-4300000D01*
X7554487Y-4300000D01*
X7554487Y-4300000D01*
X7556330Y-4312823D01*
X7560201Y-4321298D01*
X7561712Y-4324606D01*
X7568799Y-4332785D01*
X7570195Y-4334397D01*
X7581015Y-4341350D01*
X7581093Y-4341400D01*
X7593523Y-4345050D01*
X7593523Y-4345050D01*
X7606477Y-4345050D01*
X7606477Y-4345050D01*
X7618907Y-4341400D01*
X7629805Y-4334397D01*
X7638288Y-4324606D01*
X7643670Y-4312823D01*
X7645513Y-4300000D01*
X7645506Y-4299950D01*
X7645506Y-4299950D01*
X7684487Y-4299950D01*
X7684487Y-4299950D01*
X7686330Y-4312773D01*
X7691712Y-4324556D01*
X7691712Y-4324556D01*
X7699707Y-4333784D01*
X7700195Y-4334347D01*
X7711093Y-4341350D01*
X7711093Y-4341350D01*
X7723523Y-4345000D01*
X7723523Y-4345000D01*
X7736477Y-4345000D01*
X7736477Y-4345000D01*
X7748907Y-4341350D01*
X7756349Y-4336567D01*
X7760233Y-4334072D01*
X7765585Y-4332500D01*
X8091131Y-4332500D01*
X8091132Y-4332500D01*
X8099410Y-4330282D01*
X8099410Y-4330282D01*
X8099411Y-4330282D01*
X8106832Y-4325997D01*
X8106832Y-4325997D01*
X8106832Y-4325997D01*
X8111682Y-4321147D01*
X8745753Y-4321147D01*
X8745753Y-4321147D01*
X8747816Y-4336823D01*
X8747817Y-4336824D01*
X8753867Y-4351431D01*
X8753867Y-4351431D01*
X8760878Y-4360568D01*
X8763493Y-4363975D01*
X8776037Y-4373601D01*
X8776037Y-4373601D01*
X8776037Y-4373601D01*
X8784282Y-4377016D01*
X8790645Y-4379651D01*
X8806321Y-4381715D01*
X8817166Y-4380287D01*
X8823182Y-4381402D01*
X8827393Y-4385841D01*
X8828257Y-4391512D01*
X8827037Y-4400000D01*
X8827037Y-4400000D01*
X8828880Y-4412823D01*
X8834262Y-4424606D01*
X8837849Y-4428746D01*
X8840231Y-4434382D01*
X8838845Y-4440342D01*
X8837849Y-4441712D01*
X8834262Y-4445852D01*
X8828880Y-4457636D01*
X8827037Y-4470459D01*
X8827037Y-4470459D01*
X8828880Y-4483281D01*
X8832139Y-4490416D01*
X8832836Y-4496495D01*
X8830615Y-4501012D01*
X8822986Y-4509816D01*
X8817604Y-4521600D01*
X8815761Y-4534423D01*
X8815761Y-4534423D01*
X8817604Y-4547245D01*
X8820708Y-4554042D01*
X8822986Y-4559029D01*
X8830470Y-4567667D01*
X8831469Y-4568820D01*
X8833306Y-4570000D01*
X8842367Y-4575823D01*
X8854797Y-4579473D01*
X8854797Y-4579473D01*
X8867751Y-4579473D01*
X8867751Y-4579473D01*
X8880181Y-4575823D01*
X8891079Y-4568820D01*
X8899562Y-4559029D01*
X8904944Y-4547245D01*
X8905810Y-4541219D01*
X8906787Y-4534423D01*
X8906787Y-4534423D01*
X8904944Y-4521600D01*
X8904051Y-4519645D01*
X8901685Y-4514466D01*
X8900988Y-4508387D01*
X8903209Y-4503870D01*
X8905686Y-4501012D01*
X8910838Y-4495065D01*
X8916220Y-4483281D01*
X8917770Y-4472500D01*
X8918063Y-4470459D01*
X8918063Y-4470459D01*
X8916220Y-4457636D01*
X8914024Y-4452828D01*
X8910838Y-4445853D01*
X8907251Y-4441712D01*
X8904869Y-4436077D01*
X8906255Y-4430117D01*
X8907251Y-4428746D01*
X8910838Y-4424606D01*
X8916220Y-4412823D01*
X8916626Y-4410000D01*
X9429432Y-4410000D01*
X9429432Y-4410000D01*
X9431496Y-4425676D01*
X9431496Y-4425677D01*
X9437546Y-4440284D01*
X9437546Y-4440284D01*
X9443854Y-4448504D01*
X9447172Y-4452828D01*
X9459716Y-4462454D01*
X9459716Y-4462454D01*
X9459716Y-4462454D01*
X9467320Y-4465603D01*
X9474324Y-4468504D01*
X9486081Y-4470052D01*
X9490000Y-4470568D01*
X9490000Y-4470568D01*
X9490000Y-4470568D01*
X9493135Y-4470155D01*
X9505676Y-4468504D01*
X9520284Y-4462454D01*
X9532828Y-4452828D01*
X9542454Y-4440284D01*
X9548504Y-4425676D01*
X9550568Y-4410000D01*
X9548504Y-4394324D01*
X9545077Y-4386050D01*
X9542454Y-4379716D01*
X9542454Y-4379716D01*
X9532829Y-4367172D01*
X9532829Y-4367172D01*
X9532828Y-4367172D01*
X9532828Y-4367171D01*
X9532828Y-4367171D01*
X9523112Y-4359716D01*
X9520284Y-4357546D01*
X9520284Y-4357546D01*
X9520284Y-4357546D01*
X9505677Y-4351496D01*
X9505676Y-4351496D01*
X9490000Y-4349432D01*
X9490000Y-4349432D01*
X9474324Y-4351496D01*
X9474323Y-4351496D01*
X9459716Y-4357546D01*
X9459716Y-4357546D01*
X9447172Y-4367171D01*
X9447171Y-4367172D01*
X9437546Y-4379716D01*
X9437546Y-4379716D01*
X9431496Y-4394323D01*
X9431496Y-4394324D01*
X9429432Y-4410000D01*
X8916626Y-4410000D01*
X8917247Y-4405676D01*
X8918063Y-4400000D01*
X8918063Y-4400000D01*
X8916220Y-4387177D01*
X8914012Y-4382344D01*
X8910838Y-4375394D01*
X8902355Y-4365603D01*
X8902355Y-4365603D01*
X8902355Y-4365603D01*
X8891663Y-4358732D01*
X8887789Y-4353995D01*
X8887440Y-4347887D01*
X8890748Y-4342739D01*
X8894226Y-4340904D01*
X8901555Y-4338752D01*
X8910560Y-4332965D01*
X8916477Y-4331410D01*
X8921265Y-4332965D01*
X8931882Y-4339789D01*
X8931882Y-4339789D01*
X8944312Y-4343438D01*
X8944312Y-4343438D01*
X8957266Y-4343438D01*
X8957266Y-4343438D01*
X8969696Y-4339789D01*
X8977131Y-4335010D01*
X8983048Y-4333455D01*
X8987835Y-4335011D01*
X8996825Y-4340788D01*
X9009255Y-4344437D01*
X9009255Y-4344437D01*
X9022209Y-4344437D01*
X9022209Y-4344437D01*
X9034639Y-4340788D01*
X9045537Y-4333784D01*
X9046810Y-4332315D01*
X9052049Y-4329155D01*
X9058145Y-4329678D01*
X9059644Y-4330469D01*
X9061093Y-4331400D01*
X9073523Y-4335050D01*
X9073523Y-4335050D01*
X9086477Y-4335050D01*
X9086477Y-4335050D01*
X9098907Y-4331400D01*
X9109805Y-4324397D01*
X9118288Y-4314606D01*
X9123670Y-4302823D01*
X9125389Y-4290863D01*
X9125513Y-4290000D01*
X9125513Y-4290000D01*
X9123670Y-4277177D01*
X9121401Y-4272210D01*
X9118288Y-4265394D01*
X9117947Y-4265000D01*
X9585682Y-4265000D01*
X9585682Y-4265000D01*
X9587746Y-4280676D01*
X9587746Y-4280677D01*
X9593796Y-4295284D01*
X9593796Y-4295284D01*
X9601613Y-4305470D01*
X9603422Y-4307828D01*
X9615966Y-4317454D01*
X9615966Y-4317454D01*
X9615966Y-4317454D01*
X9630573Y-4323504D01*
X9630574Y-4323504D01*
X9642331Y-4325052D01*
X9646250Y-4325568D01*
X9646250Y-4325568D01*
X9646250Y-4325568D01*
X9649385Y-4325155D01*
X9661926Y-4323504D01*
X9676534Y-4317454D01*
X9689078Y-4307828D01*
X9695085Y-4300000D01*
X10229432Y-4300000D01*
X10229432Y-4300000D01*
X10231496Y-4315676D01*
X10231496Y-4315677D01*
X10237546Y-4330284D01*
X10237546Y-4330284D01*
X10247171Y-4342828D01*
X10247172Y-4342828D01*
X10247172Y-4342829D01*
X10247172Y-4342829D01*
X10247967Y-4343438D01*
X10259716Y-4352454D01*
X10259716Y-4352454D01*
X10259716Y-4352454D01*
X10272011Y-4357546D01*
X10274324Y-4358504D01*
X10286081Y-4360052D01*
X10290000Y-4360568D01*
X10290000Y-4360568D01*
X10290000Y-4360568D01*
X10293135Y-4360155D01*
X10305676Y-4358504D01*
X10320284Y-4352454D01*
X10332828Y-4342828D01*
X10342454Y-4330284D01*
X10348504Y-4315676D01*
X10350568Y-4300000D01*
X10350562Y-4299950D01*
X10348504Y-4284324D01*
X10348504Y-4284324D01*
X10346994Y-4280676D01*
X10342454Y-4269716D01*
X10342454Y-4269716D01*
X10332829Y-4257172D01*
X10332829Y-4257172D01*
X10332828Y-4257172D01*
X10332828Y-4257171D01*
X10332828Y-4257171D01*
X10325710Y-4251710D01*
X10320284Y-4247546D01*
X10320284Y-4247546D01*
X10320284Y-4247546D01*
X10305677Y-4241496D01*
X10305676Y-4241496D01*
X10290000Y-4239432D01*
X10290000Y-4239432D01*
X10274324Y-4241496D01*
X10274323Y-4241496D01*
X10259716Y-4247546D01*
X10259716Y-4247546D01*
X10247172Y-4257171D01*
X10247171Y-4257172D01*
X10237546Y-4269716D01*
X10237546Y-4269716D01*
X10231496Y-4284323D01*
X10231496Y-4284324D01*
X10229432Y-4300000D01*
X9695085Y-4300000D01*
X9698704Y-4295284D01*
X9704754Y-4280676D01*
X9706818Y-4265000D01*
X9706817Y-4264991D01*
X9705788Y-4257171D01*
X9704754Y-4249324D01*
X9701512Y-4241496D01*
X9698704Y-4234716D01*
X9698704Y-4234716D01*
X9691248Y-4225000D01*
X10025682Y-4225000D01*
X10025682Y-4225000D01*
X10027746Y-4240676D01*
X10027746Y-4240677D01*
X10033796Y-4255284D01*
X10033796Y-4255284D01*
X10042745Y-4266947D01*
X10043422Y-4267828D01*
X10043422Y-4267829D01*
X10043422Y-4267829D01*
X10045584Y-4269487D01*
X10055966Y-4277454D01*
X10055966Y-4277454D01*
X10055966Y-4277454D01*
X10063746Y-4280676D01*
X10070574Y-4283504D01*
X10082331Y-4285052D01*
X10086250Y-4285568D01*
X10086250Y-4285568D01*
X10086250Y-4285568D01*
X10089385Y-4285155D01*
X10101926Y-4283504D01*
X10116534Y-4277454D01*
X10129078Y-4267828D01*
X10138704Y-4255284D01*
X10144754Y-4240676D01*
X10146818Y-4225000D01*
X10144754Y-4209324D01*
X10144183Y-4207944D01*
X10138704Y-4194716D01*
X10138704Y-4194716D01*
X10129079Y-4182172D01*
X10129079Y-4182172D01*
X10129078Y-4182172D01*
X10129078Y-4182171D01*
X10129078Y-4182171D01*
X10116534Y-4172546D01*
X10101927Y-4166496D01*
X10101926Y-4166495D01*
X10086250Y-4164432D01*
X10086250Y-4164432D01*
X10070574Y-4166495D01*
X10070573Y-4166496D01*
X10055966Y-4172546D01*
X10055966Y-4172546D01*
X10043422Y-4182171D01*
X10043421Y-4182172D01*
X10033796Y-4194716D01*
X10033796Y-4194716D01*
X10027746Y-4209323D01*
X10027746Y-4209324D01*
X10025682Y-4225000D01*
X9691248Y-4225000D01*
X9689079Y-4222172D01*
X9689079Y-4222172D01*
X9689078Y-4222172D01*
X9689078Y-4222171D01*
X9689078Y-4222171D01*
X9676534Y-4212546D01*
X9661927Y-4206496D01*
X9661926Y-4206496D01*
X9646250Y-4204432D01*
X9646250Y-4204432D01*
X9630574Y-4206496D01*
X9630573Y-4206496D01*
X9615966Y-4212546D01*
X9615966Y-4212546D01*
X9603422Y-4222171D01*
X9603421Y-4222172D01*
X9593796Y-4234716D01*
X9593796Y-4234716D01*
X9587746Y-4249323D01*
X9587746Y-4249324D01*
X9585682Y-4265000D01*
X9117947Y-4265000D01*
X9109805Y-4255603D01*
X9109805Y-4255603D01*
X9109805Y-4255603D01*
X9098907Y-4248600D01*
X9098907Y-4248600D01*
X9098907Y-4248600D01*
X9098907Y-4248600D01*
X9086477Y-4244950D01*
X9086477Y-4244950D01*
X9073523Y-4244950D01*
X9073523Y-4244950D01*
X9061093Y-4248600D01*
X9061093Y-4248600D01*
X9050196Y-4255603D01*
X9050195Y-4255603D01*
X9050195Y-4255603D01*
X9050195Y-4255603D01*
X9048995Y-4256988D01*
X9048922Y-4257073D01*
X9043682Y-4260232D01*
X9037586Y-4259709D01*
X9036088Y-4258918D01*
X9034639Y-4257987D01*
X9034639Y-4257987D01*
X9034638Y-4257987D01*
X9022209Y-4254337D01*
X9022209Y-4254337D01*
X9009255Y-4254337D01*
X9009254Y-4254337D01*
X8996825Y-4257987D01*
X8996824Y-4257987D01*
X8989390Y-4262765D01*
X8983472Y-4264320D01*
X8978685Y-4262765D01*
X8969697Y-4256988D01*
X8969696Y-4256988D01*
X8969696Y-4256988D01*
X8969696Y-4256988D01*
X8957267Y-4253338D01*
X8957266Y-4253338D01*
X8944312Y-4253338D01*
X8944312Y-4253338D01*
X8931883Y-4256988D01*
X8931882Y-4256988D01*
X8922877Y-4262775D01*
X8916960Y-4264330D01*
X8912173Y-4262775D01*
X8901555Y-4255952D01*
X8901555Y-4255952D01*
X8901555Y-4255952D01*
X8901555Y-4255951D01*
X8889126Y-4252302D01*
X8889125Y-4252302D01*
X8876171Y-4252302D01*
X8876171Y-4252302D01*
X8863741Y-4255951D01*
X8863741Y-4255952D01*
X8852843Y-4262955D01*
X8849467Y-4266851D01*
X8844228Y-4270011D01*
X8838131Y-4269487D01*
X8837035Y-4268941D01*
X8836605Y-4268693D01*
X8821998Y-4262643D01*
X8821997Y-4262643D01*
X8806321Y-4260579D01*
X8806321Y-4260579D01*
X8790645Y-4262643D01*
X8790644Y-4262643D01*
X8776037Y-4268693D01*
X8776037Y-4268693D01*
X8763493Y-4278318D01*
X8763492Y-4278319D01*
X8753867Y-4290863D01*
X8753867Y-4290863D01*
X8747817Y-4305470D01*
X8747816Y-4305471D01*
X8745753Y-4321147D01*
X8111682Y-4321147D01*
X8156111Y-4276717D01*
X8160322Y-4274219D01*
X8167166Y-4272210D01*
X8178064Y-4265206D01*
X8186547Y-4255416D01*
X8191929Y-4243632D01*
X8193772Y-4230809D01*
X8192531Y-4222172D01*
X8191929Y-4217987D01*
X8187973Y-4209324D01*
X8186547Y-4206203D01*
X8178064Y-4196413D01*
X8178064Y-4196412D01*
X8178064Y-4196412D01*
X8167166Y-4189409D01*
X8167166Y-4189409D01*
X8167166Y-4189409D01*
X8167166Y-4189409D01*
X8154737Y-4185759D01*
X8154736Y-4185759D01*
X8141782Y-4185759D01*
X8141782Y-4185759D01*
X8129352Y-4189409D01*
X8129352Y-4189409D01*
X8118127Y-4196622D01*
X8112210Y-4198178D01*
X8107423Y-4196622D01*
X8098907Y-4191150D01*
X8098907Y-4191150D01*
X8098907Y-4191150D01*
X8098907Y-4191149D01*
X8086477Y-4187500D01*
X8086477Y-4187500D01*
X8073523Y-4187500D01*
X8073522Y-4187500D01*
X8061093Y-4191149D01*
X8061093Y-4191150D01*
X8050195Y-4198153D01*
X8041712Y-4207944D01*
X8036330Y-4219727D01*
X8034487Y-4232550D01*
X8034487Y-4232550D01*
X8036330Y-4245373D01*
X8039990Y-4253387D01*
X8040688Y-4259466D01*
X8037679Y-4264794D01*
X8032114Y-4267336D01*
X8030985Y-4267400D01*
X7765585Y-4267400D01*
X7760233Y-4265828D01*
X7748907Y-4258550D01*
X7748907Y-4258550D01*
X7748907Y-4258550D01*
X7748907Y-4258550D01*
X7736477Y-4254900D01*
X7736477Y-4254900D01*
X7723523Y-4254900D01*
X7723522Y-4254900D01*
X7711093Y-4258550D01*
X7711093Y-4258550D01*
X7700195Y-4265553D01*
X7691712Y-4275344D01*
X7686330Y-4287127D01*
X7684487Y-4299950D01*
X7645506Y-4299950D01*
X7643670Y-4287177D01*
X7642366Y-4284324D01*
X7638288Y-4275394D01*
X7629805Y-4265603D01*
X7629805Y-4265603D01*
X7629805Y-4265603D01*
X7618907Y-4258600D01*
X7618907Y-4258600D01*
X7618907Y-4258600D01*
X7618737Y-4258550D01*
X7606477Y-4254950D01*
X7606477Y-4254950D01*
X7593523Y-4254950D01*
X7593522Y-4254950D01*
X7581093Y-4258600D01*
X7581093Y-4258600D01*
X7570195Y-4265603D01*
X7561712Y-4275394D01*
X7556330Y-4287177D01*
X7554487Y-4300000D01*
X6605513Y-4300000D01*
X6605506Y-4299950D01*
X6603670Y-4287177D01*
X6602366Y-4284324D01*
X6598288Y-4275394D01*
X6589805Y-4265603D01*
X6589805Y-4265603D01*
X6589805Y-4265603D01*
X6578907Y-4258600D01*
X6578907Y-4258600D01*
X6578907Y-4258600D01*
X6578737Y-4258550D01*
X6566477Y-4254950D01*
X6566477Y-4254950D01*
X6553523Y-4254950D01*
X6553522Y-4254950D01*
X6541093Y-4258600D01*
X6541093Y-4258600D01*
X6530195Y-4265603D01*
X6521712Y-4275394D01*
X6516330Y-4287177D01*
X6514487Y-4300000D01*
X6514487Y-4300000D01*
X6514798Y-4302169D01*
X6513755Y-4308198D01*
X6509367Y-4312462D01*
X6507788Y-4313077D01*
X6503643Y-4314294D01*
X6503643Y-4314294D01*
X6492745Y-4321298D01*
X6484262Y-4331088D01*
X6478880Y-4342872D01*
X6477037Y-4355694D01*
X6477037Y-4355695D01*
X6478880Y-4368517D01*
X6479986Y-4370937D01*
X6480683Y-4377016D01*
X6477674Y-4382344D01*
X6472109Y-4384886D01*
X6470980Y-4384950D01*
X6468622Y-4384950D01*
X6456193Y-4388600D01*
X6456193Y-4388600D01*
X6445295Y-4395603D01*
X6436812Y-4405394D01*
X6431430Y-4417177D01*
X6429587Y-4430000D01*
X5285147Y-4430000D01*
X5285513Y-4427450D01*
X5285513Y-4427450D01*
X5283670Y-4414627D01*
X5281556Y-4410000D01*
X5278288Y-4402844D01*
X5269805Y-4393053D01*
X5269805Y-4393053D01*
X5269805Y-4393053D01*
X5258907Y-4386050D01*
X5258907Y-4386050D01*
X5258907Y-4386050D01*
X5258195Y-4385841D01*
X5246477Y-4382400D01*
X5246477Y-4382400D01*
X5233523Y-4382400D01*
X5233523Y-4382400D01*
X5221093Y-4386050D01*
X5221093Y-4386050D01*
X5210195Y-4393053D01*
X5201712Y-4402844D01*
X5196330Y-4414627D01*
X5194487Y-4427450D01*
X4270550Y-4427450D01*
X4270550Y-4380000D01*
X4914487Y-4380000D01*
X4914487Y-4380000D01*
X4916330Y-4392823D01*
X4920907Y-4402844D01*
X4921712Y-4404606D01*
X4926385Y-4410000D01*
X4930195Y-4414397D01*
X4939356Y-4420284D01*
X4941093Y-4421400D01*
X4953523Y-4425050D01*
X4953523Y-4425050D01*
X4966477Y-4425050D01*
X4966477Y-4425050D01*
X4978907Y-4421400D01*
X4989805Y-4414397D01*
X4998288Y-4404606D01*
X5003670Y-4392823D01*
X5004811Y-4384886D01*
X5005513Y-4380000D01*
X5005513Y-4380000D01*
X5704487Y-4380000D01*
X5704487Y-4380000D01*
X5706330Y-4392823D01*
X5710907Y-4402844D01*
X5711712Y-4404606D01*
X5716385Y-4410000D01*
X5720195Y-4414397D01*
X5729356Y-4420284D01*
X5731093Y-4421400D01*
X5743523Y-4425050D01*
X5743523Y-4425050D01*
X5756477Y-4425050D01*
X5756477Y-4425050D01*
X5768907Y-4421400D01*
X5779805Y-4414397D01*
X5788288Y-4404606D01*
X5793670Y-4392823D01*
X5794811Y-4384886D01*
X5795513Y-4380000D01*
X5795513Y-4380000D01*
X5793670Y-4367177D01*
X5790262Y-4359716D01*
X5788288Y-4355394D01*
X5779805Y-4345603D01*
X5779805Y-4345603D01*
X5779805Y-4345603D01*
X5768907Y-4338600D01*
X5768907Y-4338600D01*
X5768907Y-4338600D01*
X5768907Y-4338600D01*
X5756477Y-4334950D01*
X5756477Y-4334950D01*
X5743523Y-4334950D01*
X5743522Y-4334950D01*
X5731093Y-4338600D01*
X5731093Y-4338600D01*
X5720195Y-4345603D01*
X5711712Y-4355394D01*
X5706330Y-4367177D01*
X5704487Y-4380000D01*
X5005513Y-4380000D01*
X5003670Y-4367177D01*
X5000262Y-4359716D01*
X4998288Y-4355394D01*
X4989805Y-4345603D01*
X4989805Y-4345603D01*
X4989805Y-4345603D01*
X4978907Y-4338600D01*
X4978907Y-4338600D01*
X4978907Y-4338600D01*
X4978907Y-4338600D01*
X4966477Y-4334950D01*
X4966477Y-4334950D01*
X4953523Y-4334950D01*
X4953523Y-4334950D01*
X4941093Y-4338600D01*
X4941093Y-4338600D01*
X4930195Y-4345603D01*
X4921712Y-4355394D01*
X4916330Y-4367177D01*
X4914487Y-4380000D01*
X4270550Y-4380000D01*
X4270550Y-4080000D01*
X4359432Y-4080000D01*
X4359432Y-4080000D01*
X4361496Y-4095676D01*
X4361496Y-4095677D01*
X4367546Y-4110284D01*
X4367546Y-4110284D01*
X4367546Y-4110284D01*
X4377172Y-4122828D01*
X4389716Y-4132454D01*
X4404324Y-4138504D01*
X4416081Y-4140052D01*
X4420000Y-4140568D01*
X4420000Y-4140568D01*
X4420000Y-4140568D01*
X4423135Y-4140155D01*
X4435676Y-4138504D01*
X4450284Y-4132454D01*
X4462828Y-4122828D01*
X4472454Y-4110284D01*
X4478504Y-4095676D01*
X4480568Y-4080000D01*
X4478504Y-4064324D01*
X4474663Y-4055050D01*
X4472454Y-4049716D01*
X4472454Y-4049716D01*
X4462829Y-4037172D01*
X4462829Y-4037172D01*
X4462828Y-4037172D01*
X4462828Y-4037171D01*
X4462828Y-4037171D01*
X4450284Y-4027546D01*
X4435677Y-4021496D01*
X4435676Y-4021495D01*
X4420000Y-4019432D01*
X4420000Y-4019432D01*
X4404324Y-4021495D01*
X4404323Y-4021496D01*
X4389716Y-4027546D01*
X4389716Y-4027546D01*
X4377172Y-4037171D01*
X4377171Y-4037172D01*
X4367546Y-4049716D01*
X4367546Y-4049716D01*
X4361496Y-4064323D01*
X4361496Y-4064324D01*
X4359432Y-4080000D01*
X4270550Y-4080000D01*
X4270550Y-4010000D01*
X8524487Y-4010000D01*
X8524487Y-4010000D01*
X8526330Y-4022822D01*
X8528488Y-4027546D01*
X8531712Y-4034606D01*
X8540195Y-4044397D01*
X8540195Y-4044397D01*
X8551093Y-4051400D01*
X8551093Y-4051400D01*
X8563523Y-4055050D01*
X8563523Y-4055050D01*
X8576477Y-4055050D01*
X8576477Y-4055050D01*
X8588907Y-4051400D01*
X8599805Y-4044397D01*
X8608288Y-4034606D01*
X8613670Y-4022823D01*
X8615513Y-4010000D01*
X8615513Y-4010000D01*
X9244487Y-4010000D01*
X9244487Y-4010000D01*
X9246330Y-4022822D01*
X9248488Y-4027546D01*
X9251712Y-4034606D01*
X9260195Y-4044397D01*
X9260195Y-4044397D01*
X9271093Y-4051400D01*
X9271093Y-4051400D01*
X9283523Y-4055050D01*
X9283523Y-4055050D01*
X9296477Y-4055050D01*
X9296477Y-4055050D01*
X9308907Y-4051400D01*
X9319805Y-4044397D01*
X9328288Y-4034606D01*
X9333670Y-4022823D01*
X9335513Y-4010000D01*
X9333670Y-3997177D01*
X9328288Y-3985394D01*
X9319805Y-3975603D01*
X9319805Y-3975603D01*
X9319805Y-3975603D01*
X9308907Y-3968600D01*
X9308907Y-3968600D01*
X9308907Y-3968600D01*
X9308907Y-3968599D01*
X9296477Y-3964950D01*
X9296477Y-3964950D01*
X9283523Y-3964950D01*
X9283523Y-3964950D01*
X9271093Y-3968599D01*
X9271093Y-3968600D01*
X9260195Y-3975603D01*
X9251712Y-3985394D01*
X9246330Y-3997177D01*
X9244487Y-4010000D01*
X8615513Y-4010000D01*
X8613670Y-3997177D01*
X8608288Y-3985394D01*
X8599805Y-3975603D01*
X8599805Y-3975603D01*
X8599805Y-3975603D01*
X8588907Y-3968600D01*
X8588907Y-3968600D01*
X8588907Y-3968600D01*
X8588907Y-3968599D01*
X8576477Y-3964950D01*
X8576477Y-3964950D01*
X8563523Y-3964950D01*
X8563523Y-3964950D01*
X8551093Y-3968599D01*
X8551093Y-3968600D01*
X8540195Y-3975603D01*
X8531712Y-3985394D01*
X8526330Y-3997177D01*
X8524487Y-4010000D01*
X4270550Y-4010000D01*
X4270550Y-3940000D01*
X4594487Y-3940000D01*
X4594487Y-3940000D01*
X4596330Y-3952822D01*
X4600900Y-3962829D01*
X4601712Y-3964606D01*
X4610195Y-3974397D01*
X4610195Y-3974397D01*
X4621093Y-3981400D01*
X4621093Y-3981400D01*
X4633523Y-3985050D01*
X4633523Y-3985050D01*
X4646477Y-3985050D01*
X4646477Y-3985050D01*
X4658907Y-3981400D01*
X4669805Y-3974397D01*
X4678288Y-3964606D01*
X4683670Y-3952823D01*
X4685128Y-3942681D01*
X4685513Y-3940000D01*
X4685513Y-3940000D01*
X4683670Y-3927177D01*
X4682698Y-3925050D01*
X4678288Y-3915394D01*
X4669805Y-3905603D01*
X4669805Y-3905603D01*
X4669805Y-3905603D01*
X4658907Y-3898600D01*
X4658907Y-3898600D01*
X4658907Y-3898600D01*
X4658907Y-3898599D01*
X4646477Y-3894950D01*
X4646477Y-3894950D01*
X4633523Y-3894950D01*
X4633523Y-3894950D01*
X4621093Y-3898599D01*
X4621093Y-3898600D01*
X4610195Y-3905603D01*
X4601712Y-3915394D01*
X4596330Y-3927177D01*
X4594487Y-3940000D01*
X4270550Y-3940000D01*
X4270550Y-3880000D01*
X6584487Y-3880000D01*
X6584487Y-3880000D01*
X6586330Y-3892822D01*
X6591583Y-3904324D01*
X6591712Y-3904606D01*
X6599085Y-3913116D01*
X6600195Y-3914397D01*
X6608914Y-3920000D01*
X6611093Y-3921400D01*
X6623523Y-3925050D01*
X6623523Y-3925050D01*
X6636477Y-3925050D01*
X6636477Y-3925050D01*
X6648907Y-3921400D01*
X6659805Y-3914397D01*
X6668288Y-3904606D01*
X6673670Y-3892823D01*
X6674634Y-3886112D01*
X6675513Y-3880000D01*
X6675513Y-3880000D01*
X6674322Y-3871715D01*
X6706202Y-3871715D01*
X6706202Y-3871716D01*
X6708046Y-3884538D01*
X6712728Y-3894790D01*
X6713427Y-3896322D01*
X6720606Y-3904606D01*
X6721911Y-3906112D01*
X6730139Y-3911400D01*
X6732809Y-3913116D01*
X6745238Y-3916766D01*
X6745239Y-3916766D01*
X6753002Y-3916766D01*
X6758821Y-3918656D01*
X6762417Y-3923606D01*
X6762758Y-3927576D01*
X6762771Y-3927576D01*
X6762771Y-3927724D01*
X6762801Y-3928074D01*
X6762771Y-3928284D01*
X6762771Y-3928284D01*
X6764614Y-3941107D01*
X6768532Y-3949685D01*
X6769996Y-3952891D01*
X6774860Y-3958504D01*
X6778479Y-3962681D01*
X6789377Y-3969684D01*
X6789377Y-3969685D01*
X6801807Y-3973334D01*
X6801807Y-3973334D01*
X6814761Y-3973334D01*
X6814761Y-3973334D01*
X6827191Y-3969685D01*
X6838089Y-3962681D01*
X6846572Y-3952891D01*
X6851954Y-3941107D01*
X6853135Y-3932891D01*
X6853798Y-3928284D01*
X6853798Y-3928284D01*
X6851954Y-3915462D01*
X6850883Y-3913116D01*
X6848676Y-3908284D01*
X7856202Y-3908284D01*
X7856202Y-3908284D01*
X7858046Y-3921107D01*
X7861068Y-3927724D01*
X7863427Y-3932891D01*
X7869588Y-3940000D01*
X7871911Y-3942681D01*
X7882808Y-3949684D01*
X7882809Y-3949685D01*
X7895238Y-3953334D01*
X7895239Y-3953334D01*
X7908193Y-3953334D01*
X7908193Y-3953334D01*
X7920623Y-3949685D01*
X7931521Y-3942681D01*
X7940004Y-3932891D01*
X7945385Y-3921107D01*
X7946207Y-3915394D01*
X7947229Y-3908284D01*
X7947229Y-3908284D01*
X7947199Y-3908074D01*
X7947229Y-3907900D01*
X7947229Y-3907576D01*
X7947285Y-3907576D01*
X7948242Y-3902046D01*
X7952630Y-3897781D01*
X7956998Y-3896766D01*
X7964761Y-3896766D01*
X7964761Y-3896766D01*
X7977191Y-3893116D01*
X7988089Y-3886112D01*
X7996572Y-3876322D01*
X7999460Y-3870000D01*
X8034487Y-3870000D01*
X8034487Y-3870000D01*
X8036330Y-3882822D01*
X8040897Y-3892823D01*
X8041712Y-3894606D01*
X8050131Y-3904323D01*
X8050195Y-3904397D01*
X8061093Y-3911400D01*
X8061093Y-3911400D01*
X8073523Y-3915050D01*
X8073523Y-3915050D01*
X8086477Y-3915050D01*
X8086477Y-3915050D01*
X8098907Y-3911400D01*
X8109805Y-3904397D01*
X8113615Y-3900000D01*
X8759432Y-3900000D01*
X8759432Y-3900000D01*
X8761496Y-3915676D01*
X8761496Y-3915677D01*
X8767546Y-3930284D01*
X8767546Y-3930284D01*
X8775002Y-3940000D01*
X8777172Y-3942828D01*
X8789716Y-3952454D01*
X8789716Y-3952454D01*
X8789716Y-3952454D01*
X8791842Y-3953334D01*
X8804324Y-3958504D01*
X8816081Y-3960052D01*
X8820000Y-3960568D01*
X8820000Y-3960568D01*
X8820000Y-3960568D01*
X8823135Y-3960155D01*
X8835676Y-3958504D01*
X8850284Y-3952454D01*
X8862828Y-3942828D01*
X8872454Y-3930284D01*
X8876714Y-3920000D01*
X11449432Y-3920000D01*
X11449432Y-3920000D01*
X11451495Y-3935676D01*
X11451496Y-3935677D01*
X11457546Y-3950284D01*
X11457546Y-3950284D01*
X11463854Y-3958504D01*
X11467172Y-3962828D01*
X11479716Y-3972454D01*
X11479716Y-3972454D01*
X11479716Y-3972454D01*
X11487320Y-3975603D01*
X11494324Y-3978504D01*
X11506081Y-3980052D01*
X11510000Y-3980568D01*
X11510000Y-3980568D01*
X11510000Y-3980568D01*
X11513135Y-3980155D01*
X11525676Y-3978504D01*
X11540284Y-3972454D01*
X11552828Y-3962828D01*
X11562454Y-3950284D01*
X11568504Y-3935676D01*
X11570568Y-3920000D01*
X11568504Y-3904324D01*
X11566133Y-3898599D01*
X11562454Y-3889716D01*
X11562454Y-3889716D01*
X11552829Y-3877172D01*
X11552828Y-3877172D01*
X11552828Y-3877172D01*
X11552828Y-3877171D01*
X11552828Y-3877171D01*
X11545306Y-3871400D01*
X11540284Y-3867546D01*
X11540284Y-3867546D01*
X11540284Y-3867546D01*
X11525677Y-3861496D01*
X11525676Y-3861495D01*
X11510000Y-3859432D01*
X11510000Y-3859432D01*
X11494324Y-3861495D01*
X11494323Y-3861496D01*
X11479716Y-3867546D01*
X11479716Y-3867546D01*
X11467172Y-3877171D01*
X11467171Y-3877172D01*
X11457546Y-3889716D01*
X11457546Y-3889716D01*
X11451496Y-3904323D01*
X11451495Y-3904324D01*
X11449432Y-3920000D01*
X8876714Y-3920000D01*
X8878504Y-3915676D01*
X8880568Y-3900000D01*
X8878504Y-3884324D01*
X8876713Y-3880000D01*
X8872454Y-3869716D01*
X8872454Y-3869716D01*
X8862829Y-3857172D01*
X8862829Y-3857172D01*
X8862828Y-3857172D01*
X8862828Y-3857171D01*
X8862828Y-3857171D01*
X8851448Y-3848439D01*
X8850284Y-3847546D01*
X8850284Y-3847546D01*
X8850284Y-3847546D01*
X8835677Y-3841496D01*
X8835676Y-3841495D01*
X8820000Y-3839432D01*
X8820000Y-3839432D01*
X8804324Y-3841495D01*
X8804323Y-3841496D01*
X8789716Y-3847546D01*
X8789716Y-3847546D01*
X8777172Y-3857171D01*
X8777171Y-3857172D01*
X8767546Y-3869716D01*
X8767546Y-3869716D01*
X8761496Y-3884323D01*
X8761496Y-3884324D01*
X8759432Y-3900000D01*
X8113615Y-3900000D01*
X8118288Y-3894606D01*
X8123670Y-3882823D01*
X8124482Y-3877171D01*
X8125513Y-3870000D01*
X8125513Y-3870000D01*
X8123670Y-3857177D01*
X8121175Y-3851716D01*
X8118288Y-3845394D01*
X8109805Y-3835603D01*
X8109805Y-3835603D01*
X8109805Y-3835603D01*
X8101086Y-3830000D01*
X8544487Y-3830000D01*
X8544487Y-3830000D01*
X8546330Y-3842822D01*
X8550392Y-3851716D01*
X8551712Y-3854606D01*
X8557681Y-3861496D01*
X8560195Y-3864397D01*
X8568914Y-3870000D01*
X8571093Y-3871400D01*
X8583523Y-3875050D01*
X8583523Y-3875050D01*
X8596477Y-3875050D01*
X8596477Y-3875050D01*
X8608907Y-3871400D01*
X8619805Y-3864397D01*
X8628288Y-3854606D01*
X8633670Y-3842823D01*
X8634972Y-3833765D01*
X8635513Y-3830000D01*
X8635513Y-3830000D01*
X9244487Y-3830000D01*
X9244487Y-3830000D01*
X9246330Y-3842822D01*
X9250392Y-3851716D01*
X9251712Y-3854606D01*
X9257681Y-3861496D01*
X9260195Y-3864397D01*
X9268914Y-3870000D01*
X9271093Y-3871400D01*
X9283523Y-3875050D01*
X9283523Y-3875050D01*
X9296477Y-3875050D01*
X9296477Y-3875050D01*
X9308907Y-3871400D01*
X9319805Y-3864397D01*
X9328288Y-3854606D01*
X9333670Y-3842823D01*
X9334972Y-3833765D01*
X9335513Y-3830000D01*
X9335513Y-3830000D01*
X9333670Y-3817177D01*
X9328288Y-3805394D01*
X9319805Y-3795603D01*
X9319805Y-3795603D01*
X9319805Y-3795603D01*
X9308907Y-3788600D01*
X9308907Y-3788600D01*
X9308907Y-3788600D01*
X9308907Y-3788599D01*
X9296477Y-3784950D01*
X9296477Y-3784950D01*
X9283523Y-3784950D01*
X9283523Y-3784950D01*
X9271093Y-3788599D01*
X9271093Y-3788600D01*
X9260195Y-3795603D01*
X9251712Y-3805394D01*
X9246330Y-3817177D01*
X9244487Y-3830000D01*
X8635513Y-3830000D01*
X8633670Y-3817177D01*
X8628288Y-3805394D01*
X8619805Y-3795603D01*
X8619805Y-3795603D01*
X8619805Y-3795603D01*
X8608907Y-3788600D01*
X8608907Y-3788600D01*
X8608907Y-3788600D01*
X8608907Y-3788599D01*
X8596477Y-3784950D01*
X8596477Y-3784950D01*
X8583523Y-3784950D01*
X8583523Y-3784950D01*
X8571093Y-3788599D01*
X8571093Y-3788600D01*
X8560195Y-3795603D01*
X8551712Y-3805394D01*
X8546330Y-3817177D01*
X8544487Y-3830000D01*
X8101086Y-3830000D01*
X8098907Y-3828600D01*
X8098907Y-3828600D01*
X8098907Y-3828600D01*
X8098907Y-3828599D01*
X8086477Y-3824950D01*
X8086477Y-3824950D01*
X8073523Y-3824950D01*
X8073522Y-3824950D01*
X8061093Y-3828599D01*
X8061093Y-3828600D01*
X8050195Y-3835603D01*
X8041712Y-3845394D01*
X8036330Y-3857177D01*
X8034487Y-3870000D01*
X7999460Y-3870000D01*
X8001954Y-3864538D01*
X8003696Y-3852424D01*
X8003798Y-3851716D01*
X8003798Y-3851715D01*
X8001954Y-3838893D01*
X7998037Y-3830315D01*
X7996572Y-3827109D01*
X7988089Y-3817319D01*
X7988089Y-3817319D01*
X7988089Y-3817319D01*
X7977192Y-3810315D01*
X7977191Y-3810315D01*
X7977191Y-3810315D01*
X7977191Y-3810315D01*
X7964762Y-3806666D01*
X7964761Y-3806666D01*
X7951807Y-3806666D01*
X7951807Y-3806666D01*
X7939378Y-3810315D01*
X7939377Y-3810315D01*
X7928479Y-3817319D01*
X7919996Y-3827109D01*
X7914614Y-3838893D01*
X7912771Y-3851715D01*
X7912771Y-3851716D01*
X7912801Y-3851925D01*
X7912771Y-3852099D01*
X7912771Y-3852424D01*
X7912715Y-3852424D01*
X7911758Y-3857954D01*
X7907370Y-3862219D01*
X7903002Y-3863234D01*
X7895238Y-3863234D01*
X7882809Y-3866884D01*
X7882808Y-3866884D01*
X7871911Y-3873887D01*
X7863427Y-3883678D01*
X7858046Y-3895462D01*
X7856202Y-3908284D01*
X6848676Y-3908284D01*
X6846572Y-3903678D01*
X6838089Y-3893888D01*
X6838089Y-3893887D01*
X6838089Y-3893887D01*
X6827192Y-3886884D01*
X6827191Y-3886884D01*
X6827191Y-3886884D01*
X6827191Y-3886884D01*
X6814762Y-3883234D01*
X6814761Y-3883234D01*
X6806998Y-3883234D01*
X6801179Y-3881344D01*
X6797583Y-3876394D01*
X6797242Y-3872424D01*
X6797229Y-3872424D01*
X6797229Y-3872276D01*
X6797199Y-3871925D01*
X6797229Y-3871716D01*
X6797229Y-3871715D01*
X6795385Y-3858893D01*
X6793787Y-3855394D01*
X6790004Y-3847109D01*
X6781521Y-3837319D01*
X6781520Y-3837319D01*
X6781520Y-3837319D01*
X6770623Y-3830315D01*
X6770623Y-3830315D01*
X6770623Y-3830315D01*
X6770622Y-3830315D01*
X6758193Y-3826666D01*
X6758193Y-3826666D01*
X6745238Y-3826666D01*
X6745238Y-3826666D01*
X6732809Y-3830315D01*
X6732808Y-3830315D01*
X6721911Y-3837319D01*
X6713427Y-3847109D01*
X6708046Y-3858893D01*
X6706202Y-3871715D01*
X6674322Y-3871715D01*
X6673670Y-3867177D01*
X6671869Y-3863234D01*
X6668288Y-3855394D01*
X6659805Y-3845603D01*
X6659805Y-3845603D01*
X6659805Y-3845603D01*
X6648907Y-3838600D01*
X6648907Y-3838600D01*
X6648907Y-3838600D01*
X6648907Y-3838599D01*
X6636477Y-3834950D01*
X6636477Y-3834950D01*
X6623523Y-3834950D01*
X6623522Y-3834950D01*
X6611093Y-3838599D01*
X6611093Y-3838600D01*
X6600195Y-3845603D01*
X6591712Y-3855394D01*
X6586330Y-3867177D01*
X6584487Y-3880000D01*
X4270550Y-3880000D01*
X4270550Y-3570000D01*
X4584487Y-3570000D01*
X4584487Y-3570000D01*
X4586330Y-3582822D01*
X4590900Y-3592829D01*
X4591712Y-3594606D01*
X4595234Y-3598671D01*
X4600195Y-3604397D01*
X4609667Y-3610484D01*
X4613540Y-3615221D01*
X4613890Y-3621329D01*
X4612068Y-3624781D01*
X4612095Y-3624798D01*
X4611899Y-3625103D01*
X4611798Y-3625294D01*
X4611712Y-3625393D01*
X4611712Y-3625393D01*
X4606330Y-3637177D01*
X4604487Y-3650000D01*
X4604487Y-3650000D01*
X4606330Y-3662822D01*
X4608969Y-3668600D01*
X4611712Y-3674606D01*
X4620195Y-3684397D01*
X4626648Y-3688543D01*
X4630520Y-3693280D01*
X4630870Y-3699388D01*
X4630300Y-3700984D01*
X4626330Y-3709677D01*
X4626330Y-3709677D01*
X4624487Y-3722500D01*
X4624487Y-3722500D01*
X4626330Y-3735322D01*
X4630474Y-3744397D01*
X4631712Y-3747106D01*
X4640195Y-3756897D01*
X4640195Y-3756897D01*
X4651093Y-3763900D01*
X4651093Y-3763900D01*
X4663523Y-3767550D01*
X4664837Y-3767550D01*
X4670656Y-3769441D01*
X4674253Y-3774391D01*
X4674636Y-3776041D01*
X4675142Y-3779559D01*
X4674099Y-3785588D01*
X4669711Y-3789852D01*
X4663655Y-3790723D01*
X4659990Y-3789296D01*
X4658907Y-3788600D01*
X4658907Y-3788599D01*
X4646477Y-3784950D01*
X4646477Y-3784950D01*
X4633523Y-3784950D01*
X4633523Y-3784950D01*
X4621093Y-3788599D01*
X4621093Y-3788600D01*
X4610195Y-3795603D01*
X4601712Y-3805394D01*
X4596330Y-3817177D01*
X4594487Y-3830000D01*
X4594487Y-3830000D01*
X4596330Y-3842822D01*
X4600392Y-3851716D01*
X4601712Y-3854606D01*
X4607681Y-3861496D01*
X4610195Y-3864397D01*
X4618914Y-3870000D01*
X4621093Y-3871400D01*
X4633523Y-3875050D01*
X4633523Y-3875050D01*
X4646477Y-3875050D01*
X4646477Y-3875050D01*
X4658907Y-3871400D01*
X4669805Y-3864397D01*
X4678288Y-3854606D01*
X4683670Y-3842823D01*
X4684972Y-3833765D01*
X4685513Y-3830000D01*
X4685513Y-3830000D01*
X4684858Y-3825441D01*
X4685901Y-3819412D01*
X4690289Y-3815148D01*
X4696345Y-3814277D01*
X4700010Y-3815704D01*
X4700475Y-3816003D01*
X4701093Y-3816400D01*
X4701093Y-3816400D01*
X4701093Y-3816400D01*
X4713523Y-3820050D01*
X4713523Y-3820050D01*
X4726477Y-3820050D01*
X4726477Y-3820050D01*
X4738907Y-3816400D01*
X4749805Y-3809397D01*
X4758288Y-3799606D01*
X4763670Y-3787823D01*
X4764793Y-3780007D01*
X4765513Y-3775000D01*
X4765513Y-3775000D01*
X4763670Y-3762177D01*
X4762675Y-3760000D01*
X9374487Y-3760000D01*
X9374487Y-3760000D01*
X9376330Y-3772822D01*
X9381712Y-3784606D01*
X9381712Y-3784606D01*
X9390195Y-3794397D01*
X9390195Y-3794397D01*
X9392073Y-3795603D01*
X9401093Y-3801400D01*
X9413523Y-3805050D01*
X9413523Y-3805050D01*
X9426477Y-3805050D01*
X9426477Y-3805050D01*
X9438907Y-3801400D01*
X9449805Y-3794397D01*
X9458288Y-3784606D01*
X9463670Y-3772823D01*
X9465161Y-3762454D01*
X9465513Y-3760000D01*
X9465513Y-3760000D01*
X9463670Y-3747177D01*
X9462400Y-3744397D01*
X9458288Y-3735394D01*
X9449805Y-3725603D01*
X9449805Y-3725603D01*
X9449805Y-3725603D01*
X9438907Y-3718600D01*
X9438907Y-3718600D01*
X9438907Y-3718600D01*
X9438907Y-3718599D01*
X9426477Y-3714950D01*
X9426477Y-3714950D01*
X9413523Y-3714950D01*
X9413523Y-3714950D01*
X9401093Y-3718599D01*
X9401093Y-3718600D01*
X9390195Y-3725603D01*
X9381712Y-3735394D01*
X9376330Y-3747177D01*
X9374487Y-3760000D01*
X4762675Y-3760000D01*
X4761258Y-3756897D01*
X4758288Y-3750394D01*
X4749805Y-3740603D01*
X4749805Y-3740603D01*
X4749805Y-3740603D01*
X4738907Y-3733600D01*
X4738907Y-3733600D01*
X4738907Y-3733600D01*
X4738907Y-3733599D01*
X4726477Y-3729950D01*
X4726477Y-3729950D01*
X4725163Y-3729950D01*
X4719344Y-3728059D01*
X4715747Y-3723109D01*
X4715364Y-3721459D01*
X4713716Y-3710000D01*
X8544487Y-3710000D01*
X8544487Y-3710000D01*
X8546330Y-3722822D01*
X8551252Y-3733600D01*
X8551712Y-3734606D01*
X8552333Y-3735323D01*
X8560195Y-3744397D01*
X8569527Y-3750394D01*
X8571093Y-3751400D01*
X8583523Y-3755050D01*
X8583523Y-3755050D01*
X8596477Y-3755050D01*
X8596477Y-3755050D01*
X8608907Y-3751400D01*
X8619805Y-3744397D01*
X8628288Y-3734606D01*
X8633670Y-3722823D01*
X8634802Y-3714950D01*
X8635513Y-3710000D01*
X8635513Y-3710000D01*
X8894487Y-3710000D01*
X8894487Y-3710000D01*
X8896330Y-3722822D01*
X8901252Y-3733600D01*
X8901712Y-3734606D01*
X8902333Y-3735323D01*
X8910195Y-3744397D01*
X8919527Y-3750394D01*
X8921093Y-3751400D01*
X8933523Y-3755050D01*
X8933523Y-3755050D01*
X8946477Y-3755050D01*
X8946477Y-3755050D01*
X8958907Y-3751400D01*
X8969805Y-3744397D01*
X8978288Y-3734606D01*
X8983670Y-3722823D01*
X8984802Y-3714950D01*
X8985513Y-3710000D01*
X8985513Y-3710000D01*
X9254487Y-3710000D01*
X9254487Y-3710000D01*
X9256330Y-3722822D01*
X9261252Y-3733600D01*
X9261712Y-3734606D01*
X9262333Y-3735323D01*
X9270195Y-3744397D01*
X9279527Y-3750394D01*
X9281093Y-3751400D01*
X9293523Y-3755050D01*
X9293523Y-3755050D01*
X9306477Y-3755050D01*
X9306477Y-3755050D01*
X9318907Y-3751400D01*
X9329805Y-3744397D01*
X9338288Y-3734606D01*
X9343670Y-3722823D01*
X9344802Y-3714950D01*
X9345513Y-3710000D01*
X9345513Y-3710000D01*
X10369432Y-3710000D01*
X10369432Y-3710000D01*
X10371496Y-3725676D01*
X10371496Y-3725677D01*
X10377546Y-3740284D01*
X10377546Y-3740284D01*
X10386076Y-3751400D01*
X10387172Y-3752828D01*
X10399716Y-3762454D01*
X10399716Y-3762454D01*
X10399716Y-3762454D01*
X10412019Y-3767550D01*
X10414324Y-3768504D01*
X10425684Y-3770000D01*
X10430000Y-3770568D01*
X10430000Y-3770568D01*
X10430000Y-3770568D01*
X10433135Y-3770155D01*
X10445676Y-3768504D01*
X10460284Y-3762454D01*
X10472828Y-3752828D01*
X10482454Y-3740284D01*
X10488504Y-3725676D01*
X10489961Y-3714615D01*
X11119950Y-3714615D01*
X11119950Y-3785384D01*
X11123026Y-3800850D01*
X11123026Y-3800850D01*
X11129060Y-3815417D01*
X11129061Y-3815418D01*
X11134331Y-3823306D01*
X11137821Y-3828529D01*
X11148971Y-3839679D01*
X11153676Y-3842823D01*
X11162081Y-3848439D01*
X11162083Y-3848440D01*
X11167464Y-3850668D01*
X11176650Y-3854474D01*
X11192116Y-3857550D01*
X11192116Y-3857550D01*
X11207884Y-3857550D01*
X11207884Y-3857550D01*
X11223350Y-3854474D01*
X11237918Y-3848439D01*
X11251029Y-3839679D01*
X11262179Y-3828529D01*
X11270939Y-3815418D01*
X11276974Y-3800850D01*
X11280050Y-3785384D01*
X11280050Y-3714616D01*
X11276974Y-3699150D01*
X11272398Y-3688103D01*
X11270940Y-3684582D01*
X11270939Y-3684581D01*
X11269267Y-3682079D01*
X11320000Y-3682079D01*
X11320000Y-3730000D01*
X11320000Y-3730000D01*
X11368246Y-3730000D01*
X11365056Y-3735525D01*
X11362500Y-3745063D01*
X11362500Y-3754937D01*
X11365056Y-3764474D01*
X11368246Y-3770000D01*
X11320000Y-3770000D01*
X11320000Y-3770000D01*
X11320000Y-3817920D01*
X11320285Y-3820960D01*
X11320285Y-3820960D01*
X11324765Y-3833765D01*
X11332821Y-3844679D01*
X11332821Y-3844679D01*
X11343735Y-3852734D01*
X11356540Y-3857215D01*
X11359579Y-3857500D01*
X11380000Y-3857500D01*
X11380000Y-3857500D01*
X11380000Y-3781754D01*
X11385525Y-3784944D01*
X11395063Y-3787500D01*
X11404937Y-3787500D01*
X11414474Y-3784944D01*
X11420000Y-3781754D01*
X11420000Y-3857500D01*
X11420000Y-3857500D01*
X11440420Y-3857500D01*
X11443460Y-3857215D01*
X11443460Y-3857215D01*
X11456265Y-3852734D01*
X11467179Y-3844679D01*
X11467179Y-3844679D01*
X11475234Y-3833765D01*
X11479715Y-3820960D01*
X11480000Y-3817921D01*
X11480000Y-3817921D01*
X11480000Y-3770000D01*
X11480000Y-3770000D01*
X11431754Y-3770000D01*
X11434944Y-3764474D01*
X11437500Y-3754937D01*
X11437500Y-3745063D01*
X11434944Y-3735525D01*
X11431754Y-3730000D01*
X11480000Y-3730000D01*
X11480000Y-3730000D01*
X11480000Y-3682080D01*
X11479715Y-3679040D01*
X11479715Y-3679040D01*
X11475234Y-3666235D01*
X11467179Y-3655321D01*
X11467179Y-3655321D01*
X11456265Y-3647265D01*
X11443460Y-3642785D01*
X11440421Y-3642500D01*
X11420000Y-3642500D01*
X11420000Y-3642500D01*
X11420000Y-3718246D01*
X11414474Y-3715056D01*
X11404937Y-3712500D01*
X11395063Y-3712500D01*
X11385525Y-3715056D01*
X11380000Y-3718246D01*
X11380000Y-3642500D01*
X11380000Y-3642500D01*
X11359580Y-3642500D01*
X11356540Y-3642785D01*
X11356540Y-3642785D01*
X11343735Y-3647265D01*
X11332821Y-3655321D01*
X11332821Y-3655321D01*
X11324765Y-3666235D01*
X11320285Y-3679040D01*
X11320000Y-3682079D01*
X11269267Y-3682079D01*
X11267236Y-3679040D01*
X11262179Y-3671471D01*
X11251029Y-3660321D01*
X11243545Y-3655321D01*
X11237918Y-3651561D01*
X11237917Y-3651560D01*
X11223350Y-3645526D01*
X11207884Y-3642450D01*
X11207884Y-3642450D01*
X11192116Y-3642450D01*
X11192115Y-3642450D01*
X11176650Y-3645526D01*
X11176650Y-3645526D01*
X11162083Y-3651560D01*
X11162081Y-3651561D01*
X11148971Y-3660321D01*
X11148971Y-3660321D01*
X11137821Y-3671471D01*
X11137821Y-3671471D01*
X11129061Y-3684581D01*
X11129060Y-3684582D01*
X11123026Y-3699150D01*
X11123026Y-3699150D01*
X11119950Y-3714615D01*
X10489961Y-3714615D01*
X10490568Y-3710000D01*
X10488504Y-3694324D01*
X10488072Y-3693280D01*
X10482454Y-3679716D01*
X10482454Y-3679716D01*
X10472829Y-3667172D01*
X10472829Y-3667172D01*
X10472828Y-3667172D01*
X10472828Y-3667171D01*
X10472828Y-3667171D01*
X10465710Y-3661710D01*
X10460284Y-3657546D01*
X10460284Y-3657546D01*
X10460284Y-3657546D01*
X10445677Y-3651496D01*
X10445676Y-3651495D01*
X10430000Y-3649432D01*
X10430000Y-3649432D01*
X10414324Y-3651495D01*
X10414323Y-3651496D01*
X10399716Y-3657546D01*
X10399716Y-3657546D01*
X10387172Y-3667171D01*
X10387171Y-3667172D01*
X10377546Y-3679716D01*
X10377546Y-3679716D01*
X10371496Y-3694323D01*
X10371496Y-3694324D01*
X10369432Y-3710000D01*
X9345513Y-3710000D01*
X9345513Y-3710000D01*
X9343670Y-3697177D01*
X9342367Y-3694324D01*
X9338288Y-3685394D01*
X9329805Y-3675603D01*
X9329805Y-3675603D01*
X9329805Y-3675603D01*
X9318907Y-3668600D01*
X9318907Y-3668600D01*
X9318907Y-3668600D01*
X9318907Y-3668599D01*
X9306477Y-3664950D01*
X9306477Y-3664950D01*
X9293523Y-3664950D01*
X9293523Y-3664950D01*
X9281093Y-3668599D01*
X9281093Y-3668600D01*
X9270195Y-3675603D01*
X9261712Y-3685394D01*
X9256330Y-3697177D01*
X9254487Y-3710000D01*
X8985513Y-3710000D01*
X8983670Y-3697177D01*
X8982367Y-3694324D01*
X8978288Y-3685394D01*
X8969805Y-3675603D01*
X8969805Y-3675603D01*
X8969805Y-3675603D01*
X8958907Y-3668600D01*
X8958907Y-3668600D01*
X8958907Y-3668600D01*
X8958907Y-3668599D01*
X8946477Y-3664950D01*
X8946477Y-3664950D01*
X8933523Y-3664950D01*
X8933523Y-3664950D01*
X8921093Y-3668599D01*
X8921093Y-3668600D01*
X8910195Y-3675603D01*
X8901712Y-3685394D01*
X8896330Y-3697177D01*
X8894487Y-3710000D01*
X8635513Y-3710000D01*
X8633670Y-3697177D01*
X8632367Y-3694324D01*
X8628288Y-3685394D01*
X8619805Y-3675603D01*
X8619805Y-3675603D01*
X8619805Y-3675603D01*
X8608907Y-3668600D01*
X8608907Y-3668600D01*
X8608907Y-3668600D01*
X8608907Y-3668599D01*
X8596477Y-3664950D01*
X8596477Y-3664950D01*
X8583523Y-3664950D01*
X8583523Y-3664950D01*
X8571093Y-3668599D01*
X8571093Y-3668600D01*
X8560195Y-3675603D01*
X8551712Y-3685394D01*
X8546330Y-3697177D01*
X8544487Y-3710000D01*
X4713716Y-3710000D01*
X4713670Y-3709677D01*
X4709700Y-3700984D01*
X4708288Y-3697894D01*
X4699805Y-3688103D01*
X4699805Y-3688103D01*
X4699805Y-3688103D01*
X4693353Y-3683957D01*
X4689480Y-3679220D01*
X4689130Y-3673111D01*
X4689700Y-3671516D01*
X4691683Y-3667172D01*
X4693670Y-3662823D01*
X4695513Y-3650000D01*
X4695120Y-3647265D01*
X4693670Y-3637177D01*
X4688288Y-3625394D01*
X4688288Y-3625394D01*
X4679805Y-3615603D01*
X4670333Y-3609516D01*
X4666460Y-3604779D01*
X4666110Y-3598671D01*
X4667932Y-3595219D01*
X4667905Y-3595202D01*
X4668102Y-3594896D01*
X4668203Y-3594704D01*
X4668288Y-3594606D01*
X4673670Y-3582823D01*
X4674851Y-3574606D01*
X4675513Y-3570000D01*
X4675513Y-3570000D01*
X4673670Y-3557177D01*
X4670392Y-3550000D01*
X4670392Y-3550000D01*
X8309432Y-3550000D01*
X8309432Y-3550000D01*
X8311495Y-3565676D01*
X8311496Y-3565677D01*
X8317546Y-3580284D01*
X8317546Y-3580284D01*
X8326076Y-3591400D01*
X8327172Y-3592828D01*
X8339716Y-3602454D01*
X8339716Y-3602454D01*
X8339716Y-3602454D01*
X8344407Y-3604397D01*
X8354324Y-3608504D01*
X8366081Y-3610052D01*
X8370000Y-3610568D01*
X8370000Y-3610568D01*
X8370000Y-3610568D01*
X8373135Y-3610155D01*
X8385676Y-3608504D01*
X8400284Y-3602454D01*
X8412828Y-3592828D01*
X8422454Y-3580284D01*
X8428504Y-3565676D01*
X8430568Y-3550000D01*
X8430568Y-3550000D01*
X8934487Y-3550000D01*
X8934487Y-3550000D01*
X8936330Y-3562822D01*
X8937633Y-3565676D01*
X8941712Y-3574606D01*
X8946631Y-3580284D01*
X8950195Y-3584397D01*
X8961093Y-3591400D01*
X8961093Y-3591400D01*
X8973523Y-3595050D01*
X8973523Y-3595050D01*
X8986477Y-3595050D01*
X8986477Y-3595050D01*
X8998907Y-3591400D01*
X9009805Y-3584397D01*
X9018288Y-3574606D01*
X9019171Y-3572674D01*
X10040110Y-3572674D01*
X10048030Y-3575000D01*
X10048030Y-3575000D01*
X10060970Y-3575000D01*
X10060970Y-3575000D01*
X10068890Y-3572674D01*
X10231110Y-3572674D01*
X10239030Y-3575000D01*
X10239030Y-3575000D01*
X10251970Y-3575000D01*
X10251970Y-3575000D01*
X10259890Y-3572674D01*
X10257216Y-3570000D01*
X10714487Y-3570000D01*
X10714487Y-3570000D01*
X10716330Y-3582822D01*
X10720900Y-3592829D01*
X10721712Y-3594606D01*
X10725234Y-3598671D01*
X10730195Y-3604397D01*
X10741093Y-3611400D01*
X10741093Y-3611400D01*
X10753523Y-3615050D01*
X10753523Y-3615050D01*
X10766477Y-3615050D01*
X10766477Y-3615050D01*
X10778907Y-3611400D01*
X10789805Y-3604397D01*
X10798288Y-3594606D01*
X10803670Y-3582823D01*
X10804851Y-3574606D01*
X10805513Y-3570000D01*
X10805513Y-3570000D01*
X10803670Y-3557177D01*
X10800392Y-3550000D01*
X10798288Y-3545394D01*
X10789805Y-3535603D01*
X10789805Y-3535603D01*
X10789805Y-3535603D01*
X10778907Y-3528600D01*
X10778907Y-3528600D01*
X10778907Y-3528600D01*
X10778907Y-3528599D01*
X10766477Y-3524950D01*
X10766477Y-3524950D01*
X10753523Y-3524950D01*
X10753523Y-3524950D01*
X10741093Y-3528599D01*
X10741093Y-3528600D01*
X10730195Y-3535603D01*
X10721712Y-3545394D01*
X10716330Y-3557177D01*
X10714487Y-3570000D01*
X10257216Y-3570000D01*
X10245500Y-3558284D01*
X10231110Y-3572674D01*
X10068890Y-3572674D01*
X10054500Y-3558284D01*
X10040110Y-3572674D01*
X9019171Y-3572674D01*
X9023670Y-3562823D01*
X9025513Y-3550000D01*
X9024851Y-3545394D01*
X9023670Y-3537177D01*
X9022367Y-3534324D01*
X9020392Y-3530000D01*
X10009037Y-3530000D01*
X10009037Y-3530000D01*
X10010879Y-3542808D01*
X10010879Y-3542808D01*
X10011671Y-3544544D01*
X10011672Y-3544544D01*
X10026216Y-3530000D01*
X10024227Y-3528011D01*
X10044500Y-3528011D01*
X10044500Y-3531989D01*
X10046022Y-3535664D01*
X10048836Y-3538478D01*
X10052511Y-3540000D01*
X10056489Y-3540000D01*
X10060165Y-3538478D01*
X10062978Y-3535664D01*
X10064500Y-3531989D01*
X10064500Y-3530000D01*
X10082784Y-3530000D01*
X10097328Y-3544544D01*
X10098121Y-3542808D01*
X10098121Y-3542808D01*
X10099963Y-3530000D01*
X10099963Y-3530000D01*
X10200037Y-3530000D01*
X10200037Y-3530000D01*
X10201879Y-3542808D01*
X10201879Y-3542808D01*
X10202671Y-3544544D01*
X10202672Y-3544544D01*
X10217216Y-3530000D01*
X10215227Y-3528011D01*
X10235500Y-3528011D01*
X10235500Y-3531989D01*
X10237022Y-3535664D01*
X10239836Y-3538478D01*
X10243511Y-3540000D01*
X10247489Y-3540000D01*
X10251165Y-3538478D01*
X10253978Y-3535664D01*
X10255500Y-3531989D01*
X10255500Y-3530000D01*
X10273784Y-3530000D01*
X10288328Y-3544544D01*
X10289121Y-3542808D01*
X10289121Y-3542808D01*
X10290963Y-3530000D01*
X10290963Y-3530000D01*
X10289121Y-3517192D01*
X10288328Y-3515456D01*
X10273784Y-3530000D01*
X10255500Y-3530000D01*
X10255500Y-3528011D01*
X10253978Y-3524335D01*
X10251165Y-3521522D01*
X10247489Y-3520000D01*
X10243511Y-3520000D01*
X10239836Y-3521522D01*
X10237022Y-3524335D01*
X10235500Y-3528011D01*
X10215227Y-3528011D01*
X10202671Y-3515456D01*
X10201879Y-3517192D01*
X10201879Y-3517192D01*
X10200037Y-3530000D01*
X10099963Y-3530000D01*
X10098121Y-3517192D01*
X10097328Y-3515456D01*
X10082784Y-3530000D01*
X10064500Y-3530000D01*
X10064500Y-3528011D01*
X10062978Y-3524335D01*
X10060165Y-3521522D01*
X10056489Y-3520000D01*
X10052511Y-3520000D01*
X10048836Y-3521522D01*
X10046022Y-3524335D01*
X10044500Y-3528011D01*
X10024227Y-3528011D01*
X10011671Y-3515456D01*
X10010879Y-3517192D01*
X10010879Y-3517192D01*
X10009037Y-3530000D01*
X9020392Y-3530000D01*
X9018288Y-3525394D01*
X9009805Y-3515603D01*
X9009805Y-3515603D01*
X9009805Y-3515603D01*
X8998907Y-3508600D01*
X8998907Y-3508600D01*
X8998907Y-3508600D01*
X8998907Y-3508599D01*
X8986477Y-3504950D01*
X8986477Y-3504950D01*
X8973523Y-3504950D01*
X8973523Y-3504950D01*
X8961093Y-3508599D01*
X8961093Y-3508600D01*
X8950195Y-3515603D01*
X8941712Y-3525394D01*
X8936330Y-3537177D01*
X8934487Y-3550000D01*
X8430568Y-3550000D01*
X8428504Y-3534324D01*
X8424805Y-3525394D01*
X8422454Y-3519716D01*
X8422454Y-3519716D01*
X8412829Y-3507172D01*
X8412829Y-3507172D01*
X8412828Y-3507172D01*
X8412828Y-3507171D01*
X8412828Y-3507171D01*
X8400284Y-3497546D01*
X8385677Y-3491496D01*
X8385676Y-3491495D01*
X8370000Y-3489432D01*
X8370000Y-3489432D01*
X8354324Y-3491495D01*
X8354323Y-3491496D01*
X8339716Y-3497546D01*
X8339716Y-3497546D01*
X8327172Y-3507171D01*
X8327171Y-3507172D01*
X8317546Y-3519716D01*
X8317546Y-3519716D01*
X8311496Y-3534323D01*
X8311495Y-3534324D01*
X8309432Y-3550000D01*
X4670392Y-3550000D01*
X4668288Y-3545394D01*
X4659805Y-3535603D01*
X4659805Y-3535603D01*
X4659805Y-3535603D01*
X4648907Y-3528600D01*
X4648907Y-3528600D01*
X4648907Y-3528600D01*
X4648907Y-3528599D01*
X4636477Y-3524950D01*
X4636477Y-3524950D01*
X4623523Y-3524950D01*
X4623523Y-3524950D01*
X4611093Y-3528599D01*
X4611093Y-3528600D01*
X4600195Y-3535603D01*
X4591712Y-3545394D01*
X4586330Y-3557177D01*
X4584487Y-3570000D01*
X4270550Y-3570000D01*
X4270550Y-3420000D01*
X6944487Y-3420000D01*
X6944487Y-3420000D01*
X6946330Y-3432822D01*
X6951583Y-3444324D01*
X6951712Y-3444606D01*
X6960195Y-3454397D01*
X6960195Y-3454397D01*
X6968914Y-3460000D01*
X6971093Y-3461400D01*
X6983523Y-3465050D01*
X6983523Y-3465050D01*
X6996477Y-3465050D01*
X6996477Y-3465050D01*
X7008907Y-3461400D01*
X7019805Y-3454397D01*
X7028288Y-3444606D01*
X7033670Y-3432823D01*
X7035513Y-3420000D01*
X7035107Y-3417172D01*
X7033670Y-3407177D01*
X7031676Y-3402812D01*
X7028288Y-3395394D01*
X7019805Y-3385603D01*
X7019805Y-3385603D01*
X7019805Y-3385603D01*
X7008907Y-3378600D01*
X7008907Y-3378600D01*
X7008907Y-3378600D01*
X7008907Y-3378599D01*
X6996477Y-3374950D01*
X6996477Y-3374950D01*
X6983523Y-3374950D01*
X6983522Y-3374950D01*
X6971093Y-3378599D01*
X6971093Y-3378600D01*
X6960195Y-3385603D01*
X6951712Y-3395394D01*
X6946330Y-3407177D01*
X6944487Y-3420000D01*
X4270550Y-3420000D01*
X4270550Y-3340000D01*
X9679432Y-3340000D01*
X9679432Y-3340000D01*
X9681496Y-3355676D01*
X9681496Y-3355677D01*
X9687546Y-3370284D01*
X9687546Y-3370284D01*
X9693927Y-3378600D01*
X9697172Y-3382828D01*
X9697172Y-3382828D01*
X9697172Y-3382829D01*
X9709315Y-3392146D01*
X9712780Y-3397188D01*
X9712620Y-3403305D01*
X9709315Y-3407854D01*
X9697172Y-3417171D01*
X9697171Y-3417172D01*
X9687546Y-3429716D01*
X9687546Y-3429716D01*
X9681496Y-3444323D01*
X9681496Y-3444324D01*
X9679432Y-3460000D01*
X9679432Y-3460000D01*
X9681496Y-3475676D01*
X9681496Y-3475677D01*
X9687546Y-3490284D01*
X9687546Y-3490284D01*
X9697171Y-3502828D01*
X9697172Y-3502828D01*
X9709716Y-3512454D01*
X9709716Y-3512454D01*
X9709716Y-3512454D01*
X9717320Y-3515603D01*
X9724324Y-3518504D01*
X9735684Y-3520000D01*
X9740000Y-3520568D01*
X9740000Y-3520568D01*
X9740000Y-3520568D01*
X9744316Y-3520000D01*
X9755676Y-3518504D01*
X9770284Y-3512454D01*
X9782828Y-3502828D01*
X9792454Y-3490284D01*
X9793679Y-3487325D01*
X10040110Y-3487325D01*
X10054500Y-3501716D01*
X10068890Y-3487325D01*
X10231110Y-3487325D01*
X10245500Y-3501716D01*
X10259890Y-3487325D01*
X10251970Y-3485000D01*
X10239030Y-3485000D01*
X10231110Y-3487325D01*
X10068890Y-3487325D01*
X10060970Y-3485000D01*
X10048030Y-3485000D01*
X10040110Y-3487325D01*
X9793679Y-3487325D01*
X9798504Y-3475676D01*
X9800568Y-3460000D01*
X9798504Y-3444324D01*
X9797821Y-3442674D01*
X10040110Y-3442674D01*
X10048030Y-3445000D01*
X10048030Y-3445000D01*
X10060970Y-3445000D01*
X10060970Y-3445000D01*
X10068890Y-3442674D01*
X10231110Y-3442674D01*
X10239030Y-3445000D01*
X10239030Y-3445000D01*
X10251970Y-3445000D01*
X10251970Y-3445000D01*
X10259890Y-3442674D01*
X10245500Y-3428284D01*
X10231110Y-3442674D01*
X10068890Y-3442674D01*
X10054500Y-3428284D01*
X10040110Y-3442674D01*
X9797821Y-3442674D01*
X9792454Y-3429716D01*
X9792454Y-3429716D01*
X9782829Y-3417172D01*
X9782829Y-3417172D01*
X9782828Y-3417172D01*
X9782828Y-3417171D01*
X9782828Y-3417171D01*
X9773482Y-3410000D01*
X9770685Y-3407854D01*
X9767220Y-3402812D01*
X9767293Y-3400000D01*
X10009037Y-3400000D01*
X10009037Y-3400000D01*
X10010879Y-3412808D01*
X10010879Y-3412808D01*
X10011671Y-3414544D01*
X10011672Y-3414544D01*
X10026216Y-3400000D01*
X10024227Y-3398011D01*
X10044500Y-3398011D01*
X10044500Y-3401989D01*
X10046022Y-3405664D01*
X10048836Y-3408478D01*
X10052511Y-3410000D01*
X10056489Y-3410000D01*
X10060165Y-3408478D01*
X10062978Y-3405664D01*
X10064500Y-3401989D01*
X10064500Y-3400000D01*
X10082784Y-3400000D01*
X10097328Y-3414544D01*
X10098121Y-3412808D01*
X10098121Y-3412808D01*
X10099963Y-3400000D01*
X10099963Y-3400000D01*
X10200037Y-3400000D01*
X10200037Y-3400000D01*
X10201879Y-3412808D01*
X10201879Y-3412808D01*
X10202671Y-3414544D01*
X10202672Y-3414544D01*
X10217216Y-3400000D01*
X10215227Y-3398011D01*
X10235500Y-3398011D01*
X10235500Y-3401989D01*
X10237022Y-3405664D01*
X10239836Y-3408478D01*
X10243511Y-3410000D01*
X10247489Y-3410000D01*
X10251165Y-3408478D01*
X10253978Y-3405664D01*
X10255500Y-3401989D01*
X10255500Y-3400000D01*
X10273784Y-3400000D01*
X10288328Y-3414544D01*
X10289121Y-3412808D01*
X10289121Y-3412808D01*
X10290963Y-3400000D01*
X10290963Y-3400000D01*
X10289121Y-3387192D01*
X10288328Y-3385456D01*
X10273784Y-3400000D01*
X10255500Y-3400000D01*
X10255500Y-3398011D01*
X10253978Y-3394335D01*
X10251165Y-3391522D01*
X10247489Y-3390000D01*
X10243511Y-3390000D01*
X10239836Y-3391522D01*
X10237022Y-3394335D01*
X10235500Y-3398011D01*
X10215227Y-3398011D01*
X10202671Y-3385456D01*
X10201879Y-3387192D01*
X10201879Y-3387192D01*
X10200037Y-3400000D01*
X10099963Y-3400000D01*
X10098121Y-3387192D01*
X10097328Y-3385456D01*
X10082784Y-3400000D01*
X10064500Y-3400000D01*
X10064500Y-3398011D01*
X10062978Y-3394335D01*
X10060165Y-3391522D01*
X10056489Y-3390000D01*
X10052511Y-3390000D01*
X10048836Y-3391522D01*
X10046022Y-3394335D01*
X10044500Y-3398011D01*
X10024227Y-3398011D01*
X10011671Y-3385456D01*
X10010879Y-3387192D01*
X10010879Y-3387192D01*
X10009037Y-3400000D01*
X9767293Y-3400000D01*
X9767380Y-3396695D01*
X9770685Y-3392146D01*
X9782828Y-3382828D01*
X9792454Y-3370284D01*
X9797821Y-3357325D01*
X10040110Y-3357325D01*
X10054500Y-3371716D01*
X10068890Y-3357325D01*
X10231110Y-3357325D01*
X10245500Y-3371716D01*
X10259890Y-3357325D01*
X10251970Y-3355000D01*
X10239030Y-3355000D01*
X10231110Y-3357325D01*
X10068890Y-3357325D01*
X10060970Y-3355000D01*
X10048030Y-3355000D01*
X10040110Y-3357325D01*
X9797821Y-3357325D01*
X9798504Y-3355676D01*
X9800568Y-3340000D01*
X9798504Y-3324324D01*
X9798504Y-3324323D01*
X9793679Y-3312674D01*
X10040110Y-3312674D01*
X10048030Y-3315000D01*
X10048030Y-3315000D01*
X10060970Y-3315000D01*
X10060970Y-3315000D01*
X10068890Y-3312674D01*
X10231110Y-3312674D01*
X10239030Y-3315000D01*
X10239030Y-3315000D01*
X10251970Y-3315000D01*
X10251970Y-3315000D01*
X10259890Y-3312674D01*
X10245500Y-3298284D01*
X10231110Y-3312674D01*
X10068890Y-3312674D01*
X10054500Y-3298284D01*
X10040110Y-3312674D01*
X9793679Y-3312674D01*
X9792454Y-3309716D01*
X9792454Y-3309716D01*
X9782829Y-3297172D01*
X9782829Y-3297172D01*
X9782828Y-3297172D01*
X9782828Y-3297171D01*
X9782828Y-3297171D01*
X9770284Y-3287546D01*
X9755677Y-3281496D01*
X9755676Y-3281495D01*
X9740000Y-3279432D01*
X9740000Y-3279432D01*
X9724324Y-3281495D01*
X9724323Y-3281496D01*
X9709716Y-3287546D01*
X9709716Y-3287546D01*
X9697172Y-3297171D01*
X9697171Y-3297172D01*
X9687546Y-3309716D01*
X9687546Y-3309716D01*
X9681496Y-3324323D01*
X9681496Y-3324324D01*
X9679432Y-3340000D01*
X4270550Y-3340000D01*
X4270550Y-3270000D01*
X10009037Y-3270000D01*
X10009037Y-3270000D01*
X10010879Y-3282808D01*
X10010879Y-3282808D01*
X10011671Y-3284544D01*
X10011672Y-3284544D01*
X10026216Y-3270000D01*
X10024227Y-3268011D01*
X10044500Y-3268011D01*
X10044500Y-3271989D01*
X10046022Y-3275664D01*
X10048836Y-3278478D01*
X10052511Y-3280000D01*
X10056489Y-3280000D01*
X10060165Y-3278478D01*
X10062978Y-3275664D01*
X10064500Y-3271989D01*
X10064500Y-3270000D01*
X10082784Y-3270000D01*
X10097328Y-3284544D01*
X10098121Y-3282808D01*
X10098121Y-3282808D01*
X10099963Y-3270000D01*
X10099963Y-3270000D01*
X10200037Y-3270000D01*
X10200037Y-3270000D01*
X10201879Y-3282808D01*
X10201879Y-3282808D01*
X10202671Y-3284544D01*
X10202672Y-3284544D01*
X10217216Y-3270000D01*
X10215227Y-3268011D01*
X10235500Y-3268011D01*
X10235500Y-3271989D01*
X10237022Y-3275664D01*
X10239836Y-3278478D01*
X10243511Y-3280000D01*
X10247489Y-3280000D01*
X10251165Y-3278478D01*
X10253978Y-3275664D01*
X10255500Y-3271989D01*
X10255500Y-3270000D01*
X10273784Y-3270000D01*
X10288328Y-3284544D01*
X10289121Y-3282808D01*
X10289121Y-3282808D01*
X10290963Y-3270000D01*
X10290963Y-3270000D01*
X10289121Y-3257192D01*
X10288328Y-3255456D01*
X10273784Y-3270000D01*
X10255500Y-3270000D01*
X10255500Y-3268011D01*
X10253978Y-3264335D01*
X10251165Y-3261522D01*
X10247489Y-3260000D01*
X10243511Y-3260000D01*
X10239836Y-3261522D01*
X10237022Y-3264335D01*
X10235500Y-3268011D01*
X10215227Y-3268011D01*
X10202671Y-3255456D01*
X10201879Y-3257192D01*
X10201879Y-3257192D01*
X10200037Y-3270000D01*
X10099963Y-3270000D01*
X10098121Y-3257192D01*
X10097328Y-3255456D01*
X10082784Y-3270000D01*
X10064500Y-3270000D01*
X10064500Y-3268011D01*
X10062978Y-3264335D01*
X10060165Y-3261522D01*
X10056489Y-3260000D01*
X10052511Y-3260000D01*
X10048836Y-3261522D01*
X10046022Y-3264335D01*
X10044500Y-3268011D01*
X10024227Y-3268011D01*
X10011671Y-3255456D01*
X10010879Y-3257192D01*
X10010879Y-3257192D01*
X10009037Y-3270000D01*
X4270550Y-3270000D01*
X4270550Y-3227325D01*
X10040110Y-3227325D01*
X10054500Y-3241716D01*
X10068890Y-3227325D01*
X10231110Y-3227325D01*
X10245500Y-3241716D01*
X10259890Y-3227325D01*
X10251970Y-3225000D01*
X10239030Y-3225000D01*
X10231110Y-3227325D01*
X10068890Y-3227325D01*
X10060970Y-3225000D01*
X10048030Y-3225000D01*
X10040110Y-3227325D01*
X4270550Y-3227325D01*
X4270550Y-3150000D01*
X7229432Y-3150000D01*
X7229432Y-3150000D01*
X7231495Y-3165676D01*
X7231496Y-3165677D01*
X7237546Y-3180284D01*
X7237546Y-3180284D01*
X7237546Y-3180284D01*
X7247172Y-3192828D01*
X7259716Y-3202454D01*
X7274324Y-3208504D01*
X7286081Y-3210052D01*
X7290000Y-3210568D01*
X7290000Y-3210568D01*
X7290000Y-3210568D01*
X7293135Y-3210155D01*
X7305676Y-3208504D01*
X7320284Y-3202454D01*
X7332828Y-3192828D01*
X7342454Y-3180284D01*
X7348504Y-3165676D01*
X7350568Y-3150000D01*
X7348504Y-3134324D01*
X7343742Y-3122828D01*
X7342454Y-3119716D01*
X7342454Y-3119716D01*
X7332829Y-3107172D01*
X7332828Y-3107172D01*
X7332828Y-3107172D01*
X7332828Y-3107171D01*
X7332828Y-3107171D01*
X7320284Y-3097546D01*
X7305677Y-3091496D01*
X7305676Y-3091495D01*
X7290000Y-3089432D01*
X7290000Y-3089432D01*
X7274324Y-3091495D01*
X7274323Y-3091496D01*
X7259716Y-3097546D01*
X7259716Y-3097546D01*
X7247172Y-3107171D01*
X7247171Y-3107172D01*
X7237546Y-3119716D01*
X7237546Y-3119716D01*
X7231496Y-3134323D01*
X7231495Y-3134324D01*
X7229432Y-3150000D01*
X4270550Y-3150000D01*
X4270550Y-3117298D01*
X4272441Y-3111479D01*
X4277391Y-3107883D01*
X4283509Y-3107883D01*
X4288304Y-3111271D01*
X4297172Y-3122828D01*
X4309716Y-3132454D01*
X4309716Y-3132454D01*
X4309716Y-3132454D01*
X4324323Y-3138504D01*
X4324324Y-3138504D01*
X4336081Y-3140052D01*
X4340000Y-3140568D01*
X4340000Y-3140568D01*
X4340000Y-3140568D01*
X4343135Y-3140155D01*
X4355676Y-3138504D01*
X4370284Y-3132454D01*
X4382828Y-3122828D01*
X4392454Y-3110284D01*
X4398504Y-3095676D01*
X4399252Y-3090000D01*
X5704487Y-3090000D01*
X5704487Y-3090000D01*
X5706330Y-3102822D01*
X5709738Y-3110284D01*
X5711712Y-3114606D01*
X5717377Y-3121144D01*
X5720195Y-3124397D01*
X5731093Y-3131400D01*
X5731093Y-3131400D01*
X5743523Y-3135050D01*
X5743523Y-3135050D01*
X5756477Y-3135050D01*
X5756477Y-3135050D01*
X5768907Y-3131400D01*
X5779805Y-3124397D01*
X5788288Y-3114606D01*
X5793670Y-3102823D01*
X5794697Y-3095676D01*
X5795513Y-3090000D01*
X5795513Y-3090000D01*
X5793670Y-3077177D01*
X5788288Y-3065394D01*
X5788288Y-3065394D01*
X5779805Y-3055603D01*
X5779805Y-3055603D01*
X5779805Y-3055603D01*
X5771086Y-3050000D01*
X10359432Y-3050000D01*
X10359432Y-3050000D01*
X10361496Y-3065676D01*
X10361496Y-3065677D01*
X10367546Y-3080284D01*
X10367546Y-3080284D01*
X10376149Y-3091496D01*
X10377172Y-3092828D01*
X10389716Y-3102454D01*
X10404324Y-3108504D01*
X10416081Y-3110052D01*
X10420000Y-3110568D01*
X10420000Y-3110568D01*
X10420000Y-3110568D01*
X10423135Y-3110155D01*
X10435676Y-3108504D01*
X10450284Y-3102454D01*
X10462828Y-3092828D01*
X10472454Y-3080284D01*
X10478504Y-3065676D01*
X10480568Y-3050000D01*
X10478504Y-3034324D01*
X10473191Y-3021496D01*
X10472454Y-3019716D01*
X10472454Y-3019716D01*
X10462829Y-3007172D01*
X10462829Y-3007172D01*
X10462828Y-3007172D01*
X10462828Y-3007171D01*
X10462828Y-3007171D01*
X10450284Y-2997546D01*
X10435677Y-2991496D01*
X10435676Y-2991495D01*
X10420000Y-2989432D01*
X10420000Y-2989432D01*
X10404324Y-2991495D01*
X10404323Y-2991496D01*
X10389716Y-2997546D01*
X10389716Y-2997546D01*
X10377172Y-3007171D01*
X10377171Y-3007172D01*
X10367546Y-3019716D01*
X10367546Y-3019716D01*
X10361496Y-3034323D01*
X10361496Y-3034324D01*
X10359432Y-3050000D01*
X5771086Y-3050000D01*
X5768907Y-3048600D01*
X5768907Y-3048600D01*
X5768907Y-3048600D01*
X5767917Y-3048309D01*
X5756477Y-3044950D01*
X5756477Y-3044950D01*
X5743523Y-3044950D01*
X5743522Y-3044950D01*
X5731093Y-3048599D01*
X5731093Y-3048600D01*
X5720195Y-3055603D01*
X5711712Y-3065394D01*
X5706330Y-3077177D01*
X5704487Y-3090000D01*
X4399252Y-3090000D01*
X4400568Y-3080000D01*
X4398504Y-3064324D01*
X4398504Y-3064323D01*
X4392454Y-3049716D01*
X4392454Y-3049716D01*
X4382829Y-3037172D01*
X4382829Y-3037172D01*
X4382828Y-3037172D01*
X4382828Y-3037171D01*
X4382828Y-3037171D01*
X4370284Y-3027546D01*
X4355677Y-3021496D01*
X4355676Y-3021495D01*
X4340000Y-3019432D01*
X4340000Y-3019432D01*
X4324324Y-3021495D01*
X4324323Y-3021496D01*
X4309716Y-3027546D01*
X4309716Y-3027546D01*
X4297172Y-3037171D01*
X4297171Y-3037172D01*
X4288304Y-3048728D01*
X4283262Y-3052194D01*
X4277145Y-3052034D01*
X4272291Y-3048309D01*
X4270550Y-3042702D01*
X4270550Y-2985957D01*
X10949950Y-2985957D01*
X10949950Y-3014043D01*
X10953094Y-3041951D01*
X10959344Y-3069332D01*
X10968620Y-3095841D01*
X10968620Y-3095841D01*
X10980805Y-3121143D01*
X10980805Y-3121144D01*
X10980806Y-3121144D01*
X10995748Y-3144925D01*
X11013258Y-3166882D01*
X11033118Y-3186742D01*
X11055075Y-3204252D01*
X11078856Y-3219194D01*
X11078857Y-3219195D01*
X11078857Y-3219195D01*
X11095740Y-3227325D01*
X11104159Y-3231380D01*
X11130668Y-3240656D01*
X11158049Y-3246905D01*
X11185957Y-3250050D01*
X11185958Y-3250050D01*
X11214042Y-3250050D01*
X11214042Y-3250050D01*
X11241951Y-3246905D01*
X11269332Y-3240656D01*
X11295841Y-3231380D01*
X11321144Y-3219194D01*
X11344925Y-3204252D01*
X11366882Y-3186742D01*
X11386742Y-3166882D01*
X11404252Y-3144925D01*
X11419194Y-3121144D01*
X11431380Y-3095841D01*
X11440656Y-3069332D01*
X11446905Y-3041951D01*
X11450050Y-3014042D01*
X11450050Y-2985957D01*
X11446905Y-2958049D01*
X11440656Y-2930668D01*
X11431380Y-2904159D01*
X11429377Y-2900000D01*
X11419195Y-2878857D01*
X11419195Y-2878857D01*
X11419194Y-2878855D01*
X11404252Y-2855075D01*
X11386742Y-2833117D01*
X11366882Y-2813258D01*
X11344925Y-2795748D01*
X11321144Y-2780806D01*
X11321144Y-2780805D01*
X11321143Y-2780805D01*
X11295841Y-2768620D01*
X11295841Y-2768620D01*
X11269332Y-2759344D01*
X11241951Y-2753094D01*
X11214043Y-2749950D01*
X11214042Y-2749950D01*
X11185957Y-2749950D01*
X11185957Y-2749950D01*
X11158049Y-2753094D01*
X11130668Y-2759344D01*
X11104159Y-2768620D01*
X11104159Y-2768620D01*
X11078857Y-2780805D01*
X11078856Y-2780805D01*
X11055075Y-2795748D01*
X11033118Y-2813258D01*
X11013258Y-2833118D01*
X10995748Y-2855075D01*
X10989132Y-2865603D01*
X10983321Y-2874853D01*
X10980805Y-2878856D01*
X10980805Y-2878857D01*
X10968620Y-2904159D01*
X10968620Y-2904159D01*
X10959344Y-2930668D01*
X10953094Y-2958049D01*
X10949950Y-2985957D01*
X4270550Y-2985957D01*
X4270550Y-2870450D01*
X4272441Y-2864631D01*
X4277391Y-2861034D01*
X4280450Y-2860550D01*
X4287549Y-2860550D01*
X4293368Y-2862441D01*
X4296965Y-2867391D01*
X4297365Y-2871742D01*
X4296955Y-2874853D01*
X4296955Y-2874853D01*
X4299019Y-2890529D01*
X4299019Y-2890530D01*
X4305069Y-2905137D01*
X4305069Y-2905137D01*
X4314695Y-2917681D01*
X4314695Y-2917681D01*
X4327239Y-2927307D01*
X4341847Y-2933357D01*
X4353604Y-2934905D01*
X4357523Y-2935421D01*
X4357523Y-2935421D01*
X4357523Y-2935421D01*
X4360658Y-2935008D01*
X4373199Y-2933357D01*
X4387807Y-2927307D01*
X4400351Y-2917681D01*
X4409977Y-2905137D01*
X4412105Y-2900000D01*
X10484487Y-2900000D01*
X10484487Y-2900000D01*
X10486330Y-2912822D01*
X10491712Y-2924606D01*
X10491712Y-2924606D01*
X10494052Y-2927307D01*
X10500195Y-2934397D01*
X10511093Y-2941400D01*
X10511093Y-2941400D01*
X10523523Y-2945050D01*
X10523523Y-2945050D01*
X10536477Y-2945050D01*
X10536477Y-2945050D01*
X10548907Y-2941400D01*
X10559805Y-2934397D01*
X10568288Y-2924606D01*
X10573670Y-2912823D01*
X10574775Y-2905137D01*
X10575513Y-2900000D01*
X10575513Y-2900000D01*
X10573670Y-2887177D01*
X10569870Y-2878857D01*
X10568288Y-2875394D01*
X10559805Y-2865603D01*
X10559805Y-2865603D01*
X10559805Y-2865603D01*
X10548907Y-2858600D01*
X10548907Y-2858600D01*
X10548907Y-2858600D01*
X10548907Y-2858599D01*
X10536477Y-2854950D01*
X10536477Y-2854950D01*
X10523523Y-2854950D01*
X10523523Y-2854950D01*
X10511093Y-2858599D01*
X10511093Y-2858600D01*
X10500195Y-2865603D01*
X10491712Y-2875394D01*
X10486330Y-2887177D01*
X10484487Y-2900000D01*
X4412105Y-2900000D01*
X4416028Y-2890529D01*
X4418091Y-2874853D01*
X4416028Y-2859177D01*
X4415748Y-2858503D01*
X4413355Y-2852725D01*
X4412875Y-2846625D01*
X4416072Y-2841408D01*
X4421725Y-2839067D01*
X4427674Y-2840495D01*
X4429983Y-2842453D01*
X4431832Y-2844586D01*
X4439589Y-2851504D01*
X4445652Y-2854379D01*
X4451052Y-2856939D01*
X4451053Y-2856939D01*
X4451053Y-2856939D01*
X4457757Y-2858907D01*
X4464104Y-2859820D01*
X4469181Y-2860550D01*
X4469181Y-2860550D01*
X8917600Y-2860550D01*
X8917600Y-2860550D01*
X8926220Y-2859623D01*
X8931371Y-2858503D01*
X8938536Y-2856231D01*
X8949306Y-2849525D01*
X8954586Y-2844949D01*
X8961504Y-2837192D01*
X8966939Y-2825728D01*
X8968907Y-2819025D01*
X8969893Y-2812170D01*
X8970550Y-2807600D01*
X8970550Y-2620000D01*
X10139432Y-2620000D01*
X10139432Y-2620000D01*
X10141496Y-2635676D01*
X10141496Y-2635677D01*
X10147546Y-2650284D01*
X10147546Y-2650284D01*
X10147546Y-2650284D01*
X10157172Y-2662828D01*
X10169716Y-2672454D01*
X10184324Y-2678504D01*
X10196081Y-2680052D01*
X10200000Y-2680568D01*
X10200000Y-2680568D01*
X10200000Y-2680568D01*
X10203135Y-2680155D01*
X10215676Y-2678504D01*
X10230284Y-2672454D01*
X10242828Y-2662828D01*
X10252454Y-2650284D01*
X10258504Y-2635676D01*
X10260568Y-2620000D01*
X10258504Y-2604324D01*
X10252454Y-2589716D01*
X10252454Y-2589716D01*
X10242829Y-2577172D01*
X10242829Y-2577172D01*
X10242828Y-2577172D01*
X10242828Y-2577171D01*
X10242828Y-2577171D01*
X10230284Y-2567546D01*
X10215677Y-2561496D01*
X10215676Y-2561496D01*
X10200000Y-2559432D01*
X10200000Y-2559432D01*
X10184324Y-2561496D01*
X10184323Y-2561496D01*
X10169716Y-2567546D01*
X10169716Y-2567546D01*
X10157172Y-2577171D01*
X10157171Y-2577172D01*
X10147546Y-2589716D01*
X10147546Y-2589716D01*
X10141496Y-2604323D01*
X10141496Y-2604324D01*
X10139432Y-2620000D01*
X8970550Y-2620000D01*
X8970550Y-2562400D01*
X8970550Y-2562400D01*
X8969623Y-2553780D01*
X8968503Y-2548629D01*
X8966231Y-2541464D01*
X8959525Y-2530694D01*
X8954950Y-2525414D01*
X8947192Y-2518496D01*
X8947192Y-2518496D01*
X8935729Y-2513061D01*
X8929025Y-2511093D01*
X8929025Y-2511093D01*
X8929025Y-2511093D01*
X8929024Y-2511093D01*
X8929024Y-2511093D01*
X8917600Y-2509450D01*
X8917600Y-2509450D01*
X3992400Y-2509450D01*
X3987474Y-2509980D01*
X3983780Y-2510377D01*
X3983779Y-2510377D01*
X3978630Y-2511497D01*
X3978629Y-2511497D01*
X3971464Y-2513769D01*
X3960694Y-2520475D01*
X3960694Y-2520475D01*
X3955414Y-2525051D01*
X3955414Y-2525051D01*
X3955413Y-2525051D01*
X3948496Y-2532808D01*
X3943061Y-2544271D01*
X3941093Y-2550975D01*
X3941092Y-2550976D01*
X3939450Y-2562400D01*
X3939450Y-5491656D01*
X3939682Y-5495990D01*
X3939755Y-5496666D01*
X3939966Y-5498627D01*
X3940430Y-5501776D01*
X3940430Y-5501777D01*
X3940430Y-5501777D01*
X3940430Y-5501777D01*
X3944693Y-5513725D01*
X3944694Y-5513727D01*
X3948041Y-5519857D01*
X3948041Y-5519857D01*
X3948042Y-5519858D01*
X3948042Y-5519858D01*
X3950266Y-5522828D01*
X3954959Y-5529097D01*
X3960289Y-5534428D01*
X3961671Y-5536161D01*
X3965220Y-5541808D01*
X3966182Y-5543806D01*
X3968385Y-5550103D01*
X3968878Y-5552263D01*
X3969579Y-5558483D01*
X3969625Y-5558891D01*
X3969625Y-5561108D01*
X3969038Y-5566322D01*
X3968891Y-5567627D01*
X3968890Y-5567631D01*
X3968878Y-5567740D01*
X3968385Y-5569897D01*
X3966182Y-5576194D01*
X3965220Y-5578191D01*
X3961671Y-5583839D01*
X3960289Y-5585572D01*
X3954959Y-5590902D01*
X3952058Y-5594132D01*
X3952056Y-5594134D01*
X3950395Y-5596196D01*
X3948496Y-5598751D01*
X3948495Y-5598752D01*
X3943061Y-5610215D01*
X3941093Y-5616919D01*
X3941092Y-5616920D01*
X3939450Y-5628343D01*
X3939450Y-5782377D01*
X3937559Y-5788196D01*
X3935143Y-5789951D01*
X3923948Y-5789951D01*
X3923953Y-5789948D01*
X3921541Y-5788196D01*
X3919735Y-5783669D01*
X3918504Y-5774324D01*
X3918504Y-5774324D01*
X3915970Y-5768205D01*
X3912454Y-5759716D01*
X3912454Y-5759716D01*
X3902829Y-5747172D01*
X3902828Y-5747172D01*
X3902828Y-5747172D01*
X3902828Y-5747171D01*
X3902828Y-5747171D01*
X3890284Y-5737546D01*
X3875677Y-5731496D01*
X3875676Y-5731495D01*
X3860000Y-5729432D01*
X3860000Y-5729432D01*
X3844324Y-5731495D01*
X3844323Y-5731496D01*
X3829716Y-5737546D01*
X3829716Y-5737546D01*
X3817172Y-5747171D01*
X3817171Y-5747172D01*
X3807546Y-5759716D01*
X3807546Y-5759716D01*
X3801496Y-5774323D01*
X3801495Y-5774324D01*
X3799432Y-5790000D01*
X3773411Y-5790000D01*
X3773974Y-5785000D01*
X3772082Y-5768205D01*
X3772082Y-5768205D01*
X3766500Y-5752253D01*
X3766500Y-5752253D01*
X3763811Y-5747973D01*
X3733054Y-5778730D01*
X3731115Y-5771490D01*
X3726507Y-5763509D01*
X3719990Y-5756993D01*
X3712009Y-5752385D01*
X3704770Y-5750445D01*
X3735527Y-5719689D01*
X3731247Y-5717000D01*
X3731247Y-5716999D01*
X3715295Y-5711418D01*
X3715295Y-5711418D01*
X3698500Y-5709525D01*
X3681705Y-5711418D01*
X3681705Y-5711418D01*
X3665753Y-5717000D01*
X3661473Y-5719689D01*
X3692230Y-5750445D01*
X3684990Y-5752385D01*
X3677009Y-5756993D01*
X3670493Y-5763509D01*
X3665885Y-5771490D01*
X3663945Y-5778730D01*
X3633189Y-5747973D01*
X3630500Y-5752253D01*
X3624918Y-5768205D01*
X3624918Y-5768205D01*
X3623025Y-5785000D01*
X3343974Y-5785000D01*
X3342082Y-5768205D01*
X3342082Y-5768205D01*
X3336500Y-5752253D01*
X3336500Y-5752253D01*
X3333811Y-5747973D01*
X3303054Y-5778730D01*
X3301115Y-5771490D01*
X3296507Y-5763509D01*
X3289990Y-5756993D01*
X3282009Y-5752385D01*
X3274770Y-5750445D01*
X3305527Y-5719689D01*
X3301247Y-5717000D01*
X3301247Y-5716999D01*
X3285295Y-5711418D01*
X3285295Y-5711418D01*
X3268500Y-5709525D01*
X3251705Y-5711418D01*
X3251705Y-5711418D01*
X3235753Y-5717000D01*
X3231473Y-5719689D01*
X3262230Y-5750445D01*
X3254990Y-5752385D01*
X3247009Y-5756993D01*
X3240493Y-5763509D01*
X3235885Y-5771490D01*
X3233945Y-5778730D01*
X3203189Y-5747973D01*
X3200500Y-5752253D01*
X3194918Y-5768205D01*
X3194918Y-5768205D01*
X3193025Y-5785000D01*
X2850000Y-5785000D01*
X2850000Y-5621884D01*
X3429450Y-5621884D01*
X3429450Y-5678116D01*
X3433133Y-5691862D01*
X3440249Y-5704187D01*
X3450312Y-5714251D01*
X3462637Y-5721367D01*
X3476384Y-5725050D01*
X3476384Y-5725050D01*
X3490616Y-5725050D01*
X3490616Y-5725050D01*
X3504362Y-5721367D01*
X3516687Y-5714251D01*
X3526751Y-5704187D01*
X3533867Y-5691862D01*
X3537550Y-5678116D01*
X3537550Y-5621884D01*
X3533867Y-5608137D01*
X3526751Y-5595812D01*
X3516687Y-5585749D01*
X3504362Y-5578633D01*
X3490616Y-5574950D01*
X3476384Y-5574950D01*
X3462637Y-5578633D01*
X3450312Y-5585749D01*
X3440249Y-5595812D01*
X3433133Y-5608137D01*
X3429450Y-5621884D01*
X2850000Y-5621884D01*
X2850000Y-5420000D01*
X3244487Y-5420000D01*
X3244487Y-5420000D01*
X3246330Y-5432823D01*
X3250897Y-5442823D01*
X3251712Y-5444606D01*
X3256139Y-5449716D01*
X3260195Y-5454397D01*
X3265526Y-5457823D01*
X3271093Y-5461400D01*
X3283523Y-5465050D01*
X3283523Y-5465050D01*
X3296477Y-5465050D01*
X3296477Y-5465050D01*
X3308907Y-5461400D01*
X3319805Y-5454397D01*
X3328288Y-5444606D01*
X3333670Y-5432823D01*
X3335513Y-5420000D01*
X3335513Y-5420000D01*
X3554487Y-5420000D01*
X3554487Y-5420000D01*
X3556330Y-5432823D01*
X3560897Y-5442823D01*
X3561712Y-5444606D01*
X3566139Y-5449716D01*
X3570195Y-5454397D01*
X3575526Y-5457823D01*
X3581093Y-5461400D01*
X3593523Y-5465050D01*
X3593523Y-5465050D01*
X3606477Y-5465050D01*
X3606477Y-5465050D01*
X3618907Y-5461400D01*
X3629805Y-5454397D01*
X3638288Y-5444606D01*
X3643670Y-5432823D01*
X3645513Y-5420000D01*
X3643670Y-5407177D01*
X3638288Y-5395394D01*
X3629805Y-5385603D01*
X3629805Y-5385603D01*
X3629805Y-5385603D01*
X3618907Y-5378600D01*
X3618907Y-5378600D01*
X3618907Y-5378600D01*
X3618907Y-5378600D01*
X3606477Y-5374950D01*
X3606477Y-5374950D01*
X3593523Y-5374950D01*
X3593522Y-5374950D01*
X3581093Y-5378600D01*
X3581093Y-5378600D01*
X3570195Y-5385603D01*
X3561712Y-5395394D01*
X3556330Y-5407177D01*
X3554487Y-5420000D01*
X3335513Y-5420000D01*
X3333670Y-5407177D01*
X3328288Y-5395394D01*
X3319805Y-5385603D01*
X3319805Y-5385603D01*
X3319805Y-5385603D01*
X3308907Y-5378600D01*
X3308907Y-5378600D01*
X3308907Y-5378600D01*
X3308907Y-5378600D01*
X3296477Y-5374950D01*
X3296477Y-5374950D01*
X3283523Y-5374950D01*
X3283522Y-5374950D01*
X3271093Y-5378600D01*
X3271093Y-5378600D01*
X3260195Y-5385603D01*
X3251712Y-5395394D01*
X3246330Y-5407177D01*
X3244487Y-5420000D01*
X2850000Y-5420000D01*
X2850000Y-5250000D01*
X3244487Y-5250000D01*
X3244487Y-5250000D01*
X3246330Y-5262823D01*
X3250248Y-5271400D01*
X3251712Y-5274606D01*
X3256139Y-5279716D01*
X3260195Y-5284397D01*
X3271093Y-5291400D01*
X3271093Y-5291400D01*
X3283523Y-5295050D01*
X3283523Y-5295050D01*
X3296477Y-5295050D01*
X3296477Y-5295050D01*
X3308907Y-5291400D01*
X3319805Y-5284397D01*
X3328288Y-5274606D01*
X3333670Y-5262823D01*
X3334787Y-5255050D01*
X3335513Y-5250000D01*
X3335513Y-5250000D01*
X3554487Y-5250000D01*
X3554487Y-5250000D01*
X3556330Y-5262823D01*
X3560248Y-5271400D01*
X3561712Y-5274606D01*
X3566139Y-5279716D01*
X3570195Y-5284397D01*
X3581093Y-5291400D01*
X3581093Y-5291400D01*
X3593523Y-5295050D01*
X3593523Y-5295050D01*
X3606477Y-5295050D01*
X3606477Y-5295050D01*
X3618907Y-5291400D01*
X3629805Y-5284397D01*
X3638288Y-5274606D01*
X3643670Y-5262823D01*
X3644787Y-5255050D01*
X3645513Y-5250000D01*
X3645513Y-5250000D01*
X3643670Y-5237177D01*
X3640392Y-5230000D01*
X3638288Y-5225394D01*
X3629805Y-5215603D01*
X3629805Y-5215603D01*
X3629805Y-5215603D01*
X3618907Y-5208600D01*
X3618907Y-5208600D01*
X3618907Y-5208600D01*
X3618907Y-5208600D01*
X3606477Y-5204950D01*
X3606477Y-5204950D01*
X3593523Y-5204950D01*
X3593522Y-5204950D01*
X3581093Y-5208600D01*
X3581093Y-5208600D01*
X3570195Y-5215603D01*
X3561712Y-5225394D01*
X3556330Y-5237177D01*
X3554487Y-5250000D01*
X3335513Y-5250000D01*
X3333670Y-5237177D01*
X3330392Y-5230000D01*
X3328288Y-5225394D01*
X3319805Y-5215603D01*
X3319805Y-5215603D01*
X3319805Y-5215603D01*
X3308907Y-5208600D01*
X3308907Y-5208600D01*
X3308907Y-5208600D01*
X3308907Y-5208600D01*
X3296477Y-5204950D01*
X3296477Y-5204950D01*
X3283523Y-5204950D01*
X3283522Y-5204950D01*
X3271093Y-5208600D01*
X3271093Y-5208600D01*
X3260195Y-5215603D01*
X3251712Y-5225394D01*
X3246330Y-5237177D01*
X3244487Y-5250000D01*
X2850000Y-5250000D01*
X2850000Y-3450035D01*
X2850000Y-3449960D01*
X2850000Y-3449960D01*
X2850249Y-3417029D01*
X2850267Y-3416507D01*
X2850790Y-3407854D01*
X2854246Y-3350726D01*
X2854300Y-3350132D01*
X2862239Y-3284745D01*
X2862328Y-3284159D01*
X2874201Y-3219371D01*
X2874326Y-3218789D01*
X2890089Y-3154837D01*
X2890249Y-3154262D01*
X2909844Y-3091379D01*
X2910037Y-3090819D01*
X2933396Y-3029229D01*
X2933622Y-3028681D01*
X2952851Y-2985957D01*
X3249950Y-2985957D01*
X3249950Y-3014043D01*
X3253094Y-3041951D01*
X3259344Y-3069332D01*
X3268620Y-3095841D01*
X3268620Y-3095841D01*
X3280805Y-3121143D01*
X3280805Y-3121144D01*
X3280805Y-3121144D01*
X3295748Y-3144925D01*
X3313258Y-3166882D01*
X3333117Y-3186742D01*
X3355075Y-3204252D01*
X3378855Y-3219194D01*
X3378857Y-3219195D01*
X3378857Y-3219195D01*
X3395739Y-3227325D01*
X3404159Y-3231380D01*
X3430668Y-3240656D01*
X3458049Y-3246905D01*
X3485957Y-3250050D01*
X3485958Y-3250050D01*
X3514042Y-3250050D01*
X3514042Y-3250050D01*
X3541951Y-3246905D01*
X3569332Y-3240656D01*
X3595841Y-3231380D01*
X3621144Y-3219194D01*
X3644925Y-3204252D01*
X3666882Y-3186742D01*
X3686742Y-3166882D01*
X3704252Y-3144925D01*
X3719194Y-3121144D01*
X3731380Y-3095841D01*
X3740656Y-3069332D01*
X3746905Y-3041951D01*
X3750050Y-3014042D01*
X3750050Y-2985957D01*
X3746905Y-2958049D01*
X3740656Y-2930668D01*
X3731380Y-2904159D01*
X3729377Y-2900000D01*
X3719195Y-2878857D01*
X3719195Y-2878857D01*
X3719194Y-2878855D01*
X3704252Y-2855075D01*
X3686742Y-2833117D01*
X3666882Y-2813258D01*
X3644925Y-2795748D01*
X3621144Y-2780806D01*
X3621144Y-2780805D01*
X3621143Y-2780805D01*
X3595841Y-2768620D01*
X3595841Y-2768620D01*
X3569332Y-2759344D01*
X3541951Y-2753094D01*
X3514043Y-2749950D01*
X3514042Y-2749950D01*
X3485957Y-2749950D01*
X3485957Y-2749950D01*
X3458049Y-2753094D01*
X3430668Y-2759344D01*
X3404159Y-2768620D01*
X3404159Y-2768620D01*
X3378857Y-2780805D01*
X3378856Y-2780805D01*
X3355075Y-2795748D01*
X3333118Y-2813258D01*
X3313258Y-2833118D01*
X3295748Y-2855075D01*
X3289132Y-2865603D01*
X3283320Y-2874853D01*
X3280805Y-2878856D01*
X3280805Y-2878857D01*
X3268620Y-2904159D01*
X3268620Y-2904159D01*
X3259344Y-2930668D01*
X3253094Y-2958049D01*
X3249950Y-2985957D01*
X2952851Y-2985957D01*
X2960656Y-2968615D01*
X2960915Y-2968084D01*
X2991526Y-2909758D01*
X2991817Y-2909242D01*
X3025894Y-2852873D01*
X3026215Y-2852376D01*
X3063632Y-2798167D01*
X3063984Y-2797689D01*
X3104606Y-2745839D01*
X3104986Y-2745384D01*
X3148665Y-2696080D01*
X3149071Y-2695648D01*
X3195648Y-2649072D01*
X3196080Y-2648665D01*
X3245384Y-2604986D01*
X3245839Y-2604607D01*
X3297689Y-2563984D01*
X3298167Y-2563633D01*
X3352376Y-2526215D01*
X3352873Y-2525894D01*
X3409242Y-2491817D01*
X3409758Y-2491526D01*
X3468084Y-2460915D01*
X3468615Y-2460656D01*
X3528681Y-2433623D01*
X3529229Y-2433396D01*
X3590819Y-2410038D01*
X3591379Y-2409844D01*
X3654263Y-2390249D01*
X3654837Y-2390089D01*
X3718789Y-2374326D01*
X3719371Y-2374201D01*
X3784159Y-2362328D01*
X3784745Y-2362239D01*
X3850133Y-2354300D01*
X3850726Y-2354246D01*
X3916508Y-2350267D01*
X3917029Y-2350249D01*
X3949960Y-2350000D01*
X3950035Y-2350000D01*
X10749965Y-2350000D01*
X10750040Y-2350000D01*
G37*
%TD.AperFunction*%
%TA.AperFunction,Conductor*%
G36*
X8924304Y-2551969D02*
G01*
X8928879Y-2557249D01*
X8930000Y-2562400D01*
X8930000Y-2807600D01*
X8928032Y-2814304D01*
X8922751Y-2818879D01*
X8917600Y-2820000D01*
X4469181Y-2820000D01*
X4462477Y-2818031D01*
X4457902Y-2812751D01*
X4456907Y-2805835D01*
X4457477Y-2803504D01*
X4458537Y-2800476D01*
X4458537Y-2800475D01*
X4460557Y-2782550D01*
X4460557Y-2782550D01*
X4458537Y-2764625D01*
X4458537Y-2764625D01*
X4452579Y-2747598D01*
X4442982Y-2732324D01*
X4430226Y-2719568D01*
X4414952Y-2709971D01*
X4397925Y-2704013D01*
X4397925Y-2704013D01*
X4380000Y-2701994D01*
X4380000Y-2701994D01*
X4362075Y-2704013D01*
X4362075Y-2704013D01*
X4345048Y-2709971D01*
X4329774Y-2719568D01*
X4317018Y-2732324D01*
X4307421Y-2747598D01*
X4301463Y-2764625D01*
X4301463Y-2764625D01*
X4299444Y-2782550D01*
X4299444Y-2782550D01*
X4301463Y-2800475D01*
X4302523Y-2803505D01*
X4302879Y-2810482D01*
X4299406Y-2816545D01*
X4293207Y-2819768D01*
X4290819Y-2820000D01*
X4230000Y-2820000D01*
X4230000Y-5720000D01*
X4467600Y-5720000D01*
X4474304Y-5721968D01*
X4478879Y-5727249D01*
X4480000Y-5732400D01*
X4480000Y-5807600D01*
X4478032Y-5814304D01*
X4472751Y-5818879D01*
X4467600Y-5820000D01*
X3992400Y-5820000D01*
X3985696Y-5818031D01*
X3981121Y-5812751D01*
X3980000Y-5807600D01*
X3980000Y-5628344D01*
X3981968Y-5621640D01*
X3983632Y-5619576D01*
X3987526Y-5615682D01*
X3992982Y-5610226D01*
X4002579Y-5594952D01*
X4008537Y-5577926D01*
X4009185Y-5572168D01*
X4010556Y-5560000D01*
X4010556Y-5560000D01*
X4008537Y-5542075D01*
X4008537Y-5542075D01*
X4002579Y-5525048D01*
X3992982Y-5509774D01*
X3983632Y-5500424D01*
X3980283Y-5494292D01*
X3980000Y-5491656D01*
X3980000Y-2562400D01*
X3981968Y-2555696D01*
X3987249Y-2551121D01*
X3992400Y-2550000D01*
X8917600Y-2550000D01*
X8924304Y-2551969D01*
G37*
%TD.AperFunction*%
M02*
