%TF.GenerationSoftware,KiCad,Pcbnew,8.0.6+1*%
%TF.CreationDate,2025-03-13T00:18:42+00:00*%
%TF.ProjectId,gshps,67736870-732e-46b6-9963-61645f706362,D*%
%TF.SameCoordinates,Original*%
%TF.FileFunction,Legend,Bot*%
%TF.FilePolarity,Positive*%
%FSLAX45Y45*%
G04 Gerber Fmt 4.5, Leading zero omitted, Abs format (unit mm)*
G04 Created by KiCad (PCBNEW 8.0.6+1) date 2025-03-13 00:18:42*
%MOMM*%
%LPD*%
G01*
G04 APERTURE LIST*
G04 Aperture macros list*
%AMRoundRect*
0 Rectangle with rounded corners*
0 $1 Rounding radius*
0 $2 $3 $4 $5 $6 $7 $8 $9 X,Y pos of 4 corners*
0 Add a 4 corners polygon primitive as box body*
4,1,4,$2,$3,$4,$5,$6,$7,$8,$9,$2,$3,0*
0 Add four circle primitives for the rounded corners*
1,1,$1+$1,$2,$3*
1,1,$1+$1,$4,$5*
1,1,$1+$1,$6,$7*
1,1,$1+$1,$8,$9*
0 Add four rect primitives between the rounded corners*
20,1,$1+$1,$2,$3,$4,$5,0*
20,1,$1+$1,$4,$5,$6,$7,0*
20,1,$1+$1,$6,$7,$8,$9,0*
20,1,$1+$1,$8,$9,$2,$3,0*%
G04 Aperture macros list end*
%ADD10C,0.100000*%
%ADD11C,0.150000*%
%ADD12C,0.300000*%
%ADD13C,0.400000*%
%TA.AperFunction,Profile*%
%ADD14C,0.100000*%
%TD*%
%ADD15C,0.200000*%
%ADD16C,0.120000*%
%ADD17C,5.000000*%
%ADD18C,0.660000*%
%ADD19O,0.580000X1.000000*%
%ADD20C,1.100000*%
%ADD21RoundRect,0.050000X0.387500X0.050000X-0.387500X0.050000X-0.387500X-0.050000X0.387500X-0.050000X0*%
%ADD22RoundRect,0.050000X0.050000X0.387500X-0.050000X0.387500X-0.050000X-0.387500X0.050000X-0.387500X0*%
%ADD23R,3.200000X3.200000*%
%ADD24RoundRect,0.135000X-0.185000X0.135000X-0.185000X-0.135000X0.185000X-0.135000X0.185000X0.135000X0*%
%ADD25RoundRect,0.225000X-0.225000X-0.250000X0.225000X-0.250000X0.225000X0.250000X-0.225000X0.250000X0*%
%ADD26RoundRect,0.135000X0.135000X0.185000X-0.135000X0.185000X-0.135000X-0.185000X0.135000X-0.185000X0*%
%ADD27RoundRect,0.140000X-0.140000X-0.170000X0.140000X-0.170000X0.140000X0.170000X-0.140000X0.170000X0*%
%ADD28RoundRect,0.140000X-0.170000X0.140000X-0.170000X-0.140000X0.170000X-0.140000X0.170000X0.140000X0*%
%ADD29RoundRect,0.150000X0.150000X-0.587500X0.150000X0.587500X-0.150000X0.587500X-0.150000X-0.587500X0*%
%ADD30R,0.700000X1.750000*%
%ADD31R,1.450000X1.000000*%
%ADD32R,1.000000X1.550000*%
%ADD33R,0.800000X1.500000*%
%ADD34R,1.300000X1.500000*%
%ADD35R,1.500000X1.500000*%
%ADD36R,0.800000X1.400000*%
%ADD37RoundRect,0.250000X-0.300000X-0.300000X0.300000X-0.300000X0.300000X0.300000X-0.300000X0.300000X0*%
%ADD38RoundRect,0.135000X-0.135000X-0.185000X0.135000X-0.185000X0.135000X0.185000X-0.135000X0.185000X0*%
%ADD39RoundRect,0.140000X-0.219203X-0.021213X-0.021213X-0.219203X0.219203X0.021213X0.021213X0.219203X0*%
%ADD40RoundRect,0.250000X0.250000X0.475000X-0.250000X0.475000X-0.250000X-0.475000X0.250000X-0.475000X0*%
%ADD41RoundRect,0.150000X0.587500X0.150000X-0.587500X0.150000X-0.587500X-0.150000X0.587500X-0.150000X0*%
%ADD42R,0.800000X0.300000*%
%ADD43R,0.800000X0.400000*%
%ADD44R,1.700000X1.000000*%
%ADD45RoundRect,0.150000X0.650000X0.150000X-0.650000X0.150000X-0.650000X-0.150000X0.650000X-0.150000X0*%
%ADD46R,2.410000X3.100000*%
%ADD47RoundRect,0.140000X0.170000X-0.140000X0.170000X0.140000X-0.170000X0.140000X-0.170000X-0.140000X0*%
%ADD48RoundRect,0.150000X-0.587500X-0.150000X0.587500X-0.150000X0.587500X0.150000X-0.587500X0.150000X0*%
%ADD49RoundRect,0.140000X0.140000X0.170000X-0.140000X0.170000X-0.140000X-0.170000X0.140000X-0.170000X0*%
%ADD50RoundRect,0.150000X-0.150000X0.587500X-0.150000X-0.587500X0.150000X-0.587500X0.150000X0.587500X0*%
%ADD51RoundRect,0.225000X-0.250000X0.225000X-0.250000X-0.225000X0.250000X-0.225000X0.250000X0.225000X0*%
%ADD52R,2.400000X0.740000*%
%ADD53RoundRect,0.200000X0.600000X-0.200000X0.600000X0.200000X-0.600000X0.200000X-0.600000X-0.200000X0*%
%ADD54RoundRect,0.250001X1.249999X-0.799999X1.249999X0.799999X-1.249999X0.799999X-1.249999X-0.799999X0*%
%ADD55RoundRect,0.250000X-0.362500X-1.425000X0.362500X-1.425000X0.362500X1.425000X-0.362500X1.425000X0*%
%ADD56RoundRect,0.135000X0.185000X-0.135000X0.185000X0.135000X-0.185000X0.135000X-0.185000X-0.135000X0*%
%ADD57RoundRect,0.140000X-0.021213X0.219203X-0.219203X0.021213X0.021213X-0.219203X0.219203X-0.021213X0*%
%ADD58R,1.400000X1.200000*%
%ADD59RoundRect,0.250000X-0.475000X0.250000X-0.475000X-0.250000X0.475000X-0.250000X0.475000X0.250000X0*%
%ADD60RoundRect,0.250000X0.300000X0.300000X-0.300000X0.300000X-0.300000X-0.300000X0.300000X-0.300000X0*%
%ADD61RoundRect,0.150000X0.512500X0.150000X-0.512500X0.150000X-0.512500X-0.150000X0.512500X-0.150000X0*%
%ADD62RoundRect,0.250000X-1.425000X0.362500X-1.425000X-0.362500X1.425000X-0.362500X1.425000X0.362500X0*%
%ADD63RoundRect,0.250000X0.300000X-0.300000X0.300000X0.300000X-0.300000X0.300000X-0.300000X-0.300000X0*%
%ADD64RoundRect,0.140000X0.021213X-0.219203X0.219203X-0.021213X-0.021213X0.219203X-0.219203X0.021213X0*%
%ADD65RoundRect,0.250000X-0.850000X0.375000X-0.850000X-0.375000X0.850000X-0.375000X0.850000X0.375000X0*%
%ADD66RoundRect,0.225000X0.375000X-0.225000X0.375000X0.225000X-0.375000X0.225000X-0.375000X-0.225000X0*%
%ADD67RoundRect,0.250000X0.350000X0.625000X-0.350000X0.625000X-0.350000X-0.625000X0.350000X-0.625000X0*%
%ADD68O,1.200000X1.750000*%
G04 APERTURE END LIST*
D10*
X15905782Y-17215462D02*
X15905782Y-18774098D01*
X17464418Y-18774098D01*
X17464418Y-17215462D01*
X15905782Y-17215462D01*
D11*
X15940000Y-17190000D02*
X26740000Y-17190000D01*
X26740000Y-20390000D01*
X15940000Y-20390000D01*
X15940000Y-17190000D01*
D10*
D11*
X1000000Y-1000000D02*
X26940000Y-1000000D01*
X26940000Y-20590000D01*
X1000000Y-20590000D01*
X1000000Y-1000000D01*
D10*
D11*
X1200000Y-1200000D02*
X26740000Y-1200000D01*
X26740000Y-20390000D01*
X1200000Y-20390000D01*
X1200000Y-1200000D01*
D10*
D11*
X6000000Y-1200000D02*
X6000000Y-1000000D01*
D10*
D11*
X11000000Y-1200000D02*
X11000000Y-1000000D01*
D10*
D11*
X16000000Y-1200000D02*
X16000000Y-1000000D01*
D10*
D11*
X21000000Y-1200000D02*
X21000000Y-1000000D01*
D10*
D11*
X26000000Y-1200000D02*
X26000000Y-1000000D01*
D10*
D11*
X3608916Y-1159360D02*
X3534630Y-1159360D01*
X3571773Y-1159360D02*
X3571773Y-1029360D01*
X3571773Y-1029360D02*
X3559392Y-1047932D01*
X3559392Y-1047932D02*
X3547011Y-1060313D01*
X3547011Y-1060313D02*
X3534630Y-1066503D01*
D10*
D11*
X8534630Y-1041741D02*
X8540821Y-1035551D01*
X8540821Y-1035551D02*
X8553202Y-1029360D01*
X8553202Y-1029360D02*
X8584154Y-1029360D01*
X8584154Y-1029360D02*
X8596535Y-1035551D01*
X8596535Y-1035551D02*
X8602726Y-1041741D01*
X8602726Y-1041741D02*
X8608916Y-1054122D01*
X8608916Y-1054122D02*
X8608916Y-1066503D01*
X8608916Y-1066503D02*
X8602726Y-1085075D01*
X8602726Y-1085075D02*
X8528440Y-1159360D01*
X8528440Y-1159360D02*
X8608916Y-1159360D01*
D10*
D11*
X13528440Y-1029360D02*
X13608916Y-1029360D01*
X13608916Y-1029360D02*
X13565583Y-1078884D01*
X13565583Y-1078884D02*
X13584154Y-1078884D01*
X13584154Y-1078884D02*
X13596535Y-1085075D01*
X13596535Y-1085075D02*
X13602725Y-1091265D01*
X13602725Y-1091265D02*
X13608916Y-1103646D01*
X13608916Y-1103646D02*
X13608916Y-1134599D01*
X13608916Y-1134599D02*
X13602725Y-1146980D01*
X13602725Y-1146980D02*
X13596535Y-1153170D01*
X13596535Y-1153170D02*
X13584154Y-1159360D01*
X13584154Y-1159360D02*
X13547011Y-1159360D01*
X13547011Y-1159360D02*
X13534630Y-1153170D01*
X13534630Y-1153170D02*
X13528440Y-1146980D01*
D10*
D11*
X18596535Y-1072694D02*
X18596535Y-1159360D01*
X18565583Y-1023170D02*
X18534630Y-1116027D01*
X18534630Y-1116027D02*
X18615106Y-1116027D01*
D10*
D11*
X23602725Y-1029360D02*
X23540821Y-1029360D01*
X23540821Y-1029360D02*
X23534630Y-1091265D01*
X23534630Y-1091265D02*
X23540821Y-1085075D01*
X23540821Y-1085075D02*
X23553202Y-1078884D01*
X23553202Y-1078884D02*
X23584154Y-1078884D01*
X23584154Y-1078884D02*
X23596535Y-1085075D01*
X23596535Y-1085075D02*
X23602725Y-1091265D01*
X23602725Y-1091265D02*
X23608916Y-1103646D01*
X23608916Y-1103646D02*
X23608916Y-1134599D01*
X23608916Y-1134599D02*
X23602725Y-1146980D01*
X23602725Y-1146980D02*
X23596535Y-1153170D01*
X23596535Y-1153170D02*
X23584154Y-1159360D01*
X23584154Y-1159360D02*
X23553202Y-1159360D01*
X23553202Y-1159360D02*
X23540821Y-1153170D01*
X23540821Y-1153170D02*
X23534630Y-1146980D01*
D10*
D11*
X6000000Y-20390000D02*
X6000000Y-20590000D01*
D10*
D11*
X11000000Y-20390000D02*
X11000000Y-20590000D01*
D10*
D11*
X16000000Y-20390000D02*
X16000000Y-20590000D01*
D10*
D11*
X21000000Y-20390000D02*
X21000000Y-20590000D01*
D10*
D11*
X26000000Y-20390000D02*
X26000000Y-20590000D01*
D10*
D11*
X3608916Y-20549360D02*
X3534630Y-20549360D01*
X3571773Y-20549360D02*
X3571773Y-20419360D01*
X3571773Y-20419360D02*
X3559392Y-20437932D01*
X3559392Y-20437932D02*
X3547011Y-20450313D01*
X3547011Y-20450313D02*
X3534630Y-20456503D01*
D10*
D11*
X8534630Y-20431741D02*
X8540821Y-20425551D01*
X8540821Y-20425551D02*
X8553202Y-20419360D01*
X8553202Y-20419360D02*
X8584154Y-20419360D01*
X8584154Y-20419360D02*
X8596535Y-20425551D01*
X8596535Y-20425551D02*
X8602726Y-20431741D01*
X8602726Y-20431741D02*
X8608916Y-20444122D01*
X8608916Y-20444122D02*
X8608916Y-20456503D01*
X8608916Y-20456503D02*
X8602726Y-20475075D01*
X8602726Y-20475075D02*
X8528440Y-20549360D01*
X8528440Y-20549360D02*
X8608916Y-20549360D01*
D10*
D11*
X13528440Y-20419360D02*
X13608916Y-20419360D01*
X13608916Y-20419360D02*
X13565583Y-20468884D01*
X13565583Y-20468884D02*
X13584154Y-20468884D01*
X13584154Y-20468884D02*
X13596535Y-20475075D01*
X13596535Y-20475075D02*
X13602725Y-20481265D01*
X13602725Y-20481265D02*
X13608916Y-20493646D01*
X13608916Y-20493646D02*
X13608916Y-20524599D01*
X13608916Y-20524599D02*
X13602725Y-20536980D01*
X13602725Y-20536980D02*
X13596535Y-20543170D01*
X13596535Y-20543170D02*
X13584154Y-20549360D01*
X13584154Y-20549360D02*
X13547011Y-20549360D01*
X13547011Y-20549360D02*
X13534630Y-20543170D01*
X13534630Y-20543170D02*
X13528440Y-20536980D01*
D10*
D11*
X18596535Y-20462694D02*
X18596535Y-20549360D01*
X18565583Y-20413170D02*
X18534630Y-20506027D01*
X18534630Y-20506027D02*
X18615106Y-20506027D01*
D10*
D11*
X23602725Y-20419360D02*
X23540821Y-20419360D01*
X23540821Y-20419360D02*
X23534630Y-20481265D01*
X23534630Y-20481265D02*
X23540821Y-20475075D01*
X23540821Y-20475075D02*
X23553202Y-20468884D01*
X23553202Y-20468884D02*
X23584154Y-20468884D01*
X23584154Y-20468884D02*
X23596535Y-20475075D01*
X23596535Y-20475075D02*
X23602725Y-20481265D01*
X23602725Y-20481265D02*
X23608916Y-20493646D01*
X23608916Y-20493646D02*
X23608916Y-20524599D01*
X23608916Y-20524599D02*
X23602725Y-20536980D01*
X23602725Y-20536980D02*
X23596535Y-20543170D01*
X23596535Y-20543170D02*
X23584154Y-20549360D01*
X23584154Y-20549360D02*
X23553202Y-20549360D01*
X23553202Y-20549360D02*
X23540821Y-20543170D01*
X23540821Y-20543170D02*
X23534630Y-20536980D01*
D10*
D11*
X1000000Y-6000000D02*
X1200000Y-6000000D01*
D10*
D11*
X1000000Y-11000000D02*
X1200000Y-11000000D01*
D10*
D11*
X1000000Y-16000000D02*
X1200000Y-16000000D01*
D10*
D11*
X1069048Y-3522218D02*
X1130952Y-3522218D01*
X1056667Y-3559360D02*
X1100000Y-3429360D01*
X1100000Y-3429360D02*
X1143333Y-3559360D01*
D10*
D11*
X1109286Y-8491265D02*
X1127857Y-8497456D01*
X1127857Y-8497456D02*
X1134048Y-8503646D01*
X1134048Y-8503646D02*
X1140238Y-8516027D01*
X1140238Y-8516027D02*
X1140238Y-8534599D01*
X1140238Y-8534599D02*
X1134048Y-8546980D01*
X1134048Y-8546980D02*
X1127857Y-8553170D01*
X1127857Y-8553170D02*
X1115476Y-8559360D01*
X1115476Y-8559360D02*
X1065952Y-8559360D01*
X1065952Y-8559360D02*
X1065952Y-8429360D01*
X1065952Y-8429360D02*
X1109286Y-8429360D01*
X1109286Y-8429360D02*
X1121667Y-8435551D01*
X1121667Y-8435551D02*
X1127857Y-8441741D01*
X1127857Y-8441741D02*
X1134048Y-8454122D01*
X1134048Y-8454122D02*
X1134048Y-8466503D01*
X1134048Y-8466503D02*
X1127857Y-8478884D01*
X1127857Y-8478884D02*
X1121667Y-8485075D01*
X1121667Y-8485075D02*
X1109286Y-8491265D01*
X1109286Y-8491265D02*
X1065952Y-8491265D01*
D10*
D11*
X1140238Y-13546979D02*
X1134048Y-13553170D01*
X1134048Y-13553170D02*
X1115476Y-13559360D01*
X1115476Y-13559360D02*
X1103095Y-13559360D01*
X1103095Y-13559360D02*
X1084524Y-13553170D01*
X1084524Y-13553170D02*
X1072143Y-13540789D01*
X1072143Y-13540789D02*
X1065952Y-13528408D01*
X1065952Y-13528408D02*
X1059762Y-13503646D01*
X1059762Y-13503646D02*
X1059762Y-13485075D01*
X1059762Y-13485075D02*
X1065952Y-13460313D01*
X1065952Y-13460313D02*
X1072143Y-13447932D01*
X1072143Y-13447932D02*
X1084524Y-13435551D01*
X1084524Y-13435551D02*
X1103095Y-13429360D01*
X1103095Y-13429360D02*
X1115476Y-13429360D01*
X1115476Y-13429360D02*
X1134048Y-13435551D01*
X1134048Y-13435551D02*
X1140238Y-13441741D01*
D10*
D11*
X1065952Y-18559360D02*
X1065952Y-18429360D01*
X1065952Y-18429360D02*
X1096905Y-18429360D01*
X1096905Y-18429360D02*
X1115476Y-18435551D01*
X1115476Y-18435551D02*
X1127857Y-18447932D01*
X1127857Y-18447932D02*
X1134048Y-18460313D01*
X1134048Y-18460313D02*
X1140238Y-18485075D01*
X1140238Y-18485075D02*
X1140238Y-18503646D01*
X1140238Y-18503646D02*
X1134048Y-18528408D01*
X1134048Y-18528408D02*
X1127857Y-18540789D01*
X1127857Y-18540789D02*
X1115476Y-18553170D01*
X1115476Y-18553170D02*
X1096905Y-18559360D01*
X1096905Y-18559360D02*
X1065952Y-18559360D01*
D10*
D11*
X26940000Y-6000000D02*
X26740000Y-6000000D01*
D10*
D11*
X26940000Y-11000000D02*
X26740000Y-11000000D01*
D10*
D11*
X26940000Y-16000000D02*
X26740000Y-16000000D01*
D10*
D11*
X26809048Y-3522218D02*
X26870952Y-3522218D01*
X26796667Y-3559360D02*
X26840000Y-3429360D01*
X26840000Y-3429360D02*
X26883333Y-3559360D01*
D10*
D11*
X26849286Y-8491265D02*
X26867857Y-8497456D01*
X26867857Y-8497456D02*
X26874048Y-8503646D01*
X26874048Y-8503646D02*
X26880238Y-8516027D01*
X26880238Y-8516027D02*
X26880238Y-8534599D01*
X26880238Y-8534599D02*
X26874048Y-8546980D01*
X26874048Y-8546980D02*
X26867857Y-8553170D01*
X26867857Y-8553170D02*
X26855476Y-8559360D01*
X26855476Y-8559360D02*
X26805952Y-8559360D01*
X26805952Y-8559360D02*
X26805952Y-8429360D01*
X26805952Y-8429360D02*
X26849286Y-8429360D01*
X26849286Y-8429360D02*
X26861667Y-8435551D01*
X26861667Y-8435551D02*
X26867857Y-8441741D01*
X26867857Y-8441741D02*
X26874048Y-8454122D01*
X26874048Y-8454122D02*
X26874048Y-8466503D01*
X26874048Y-8466503D02*
X26867857Y-8478884D01*
X26867857Y-8478884D02*
X26861667Y-8485075D01*
X26861667Y-8485075D02*
X26849286Y-8491265D01*
X26849286Y-8491265D02*
X26805952Y-8491265D01*
D10*
D11*
X26880238Y-13546979D02*
X26874048Y-13553170D01*
X26874048Y-13553170D02*
X26855476Y-13559360D01*
X26855476Y-13559360D02*
X26843095Y-13559360D01*
X26843095Y-13559360D02*
X26824524Y-13553170D01*
X26824524Y-13553170D02*
X26812143Y-13540789D01*
X26812143Y-13540789D02*
X26805952Y-13528408D01*
X26805952Y-13528408D02*
X26799762Y-13503646D01*
X26799762Y-13503646D02*
X26799762Y-13485075D01*
X26799762Y-13485075D02*
X26805952Y-13460313D01*
X26805952Y-13460313D02*
X26812143Y-13447932D01*
X26812143Y-13447932D02*
X26824524Y-13435551D01*
X26824524Y-13435551D02*
X26843095Y-13429360D01*
X26843095Y-13429360D02*
X26855476Y-13429360D01*
X26855476Y-13429360D02*
X26874048Y-13435551D01*
X26874048Y-13435551D02*
X26880238Y-13441741D01*
D10*
D11*
X26805952Y-18559360D02*
X26805952Y-18429360D01*
X26805952Y-18429360D02*
X26836905Y-18429360D01*
X26836905Y-18429360D02*
X26855476Y-18435551D01*
X26855476Y-18435551D02*
X26867857Y-18447932D01*
X26867857Y-18447932D02*
X26874048Y-18460313D01*
X26874048Y-18460313D02*
X26880238Y-18485075D01*
X26880238Y-18485075D02*
X26880238Y-18503646D01*
X26880238Y-18503646D02*
X26874048Y-18528408D01*
X26874048Y-18528408D02*
X26867857Y-18540789D01*
X26867857Y-18540789D02*
X26855476Y-18553170D01*
X26855476Y-18553170D02*
X26836905Y-18559360D01*
X26836905Y-18559360D02*
X26805952Y-18559360D01*
D10*
D11*
X18285583Y-19968613D02*
X18285583Y-19818613D01*
X18285583Y-19818613D02*
X18321297Y-19818613D01*
X18321297Y-19818613D02*
X18342726Y-19825756D01*
X18342726Y-19825756D02*
X18357011Y-19840041D01*
X18357011Y-19840041D02*
X18364154Y-19854327D01*
X18364154Y-19854327D02*
X18371297Y-19882899D01*
X18371297Y-19882899D02*
X18371297Y-19904327D01*
X18371297Y-19904327D02*
X18364154Y-19932899D01*
X18364154Y-19932899D02*
X18357011Y-19947184D01*
X18357011Y-19947184D02*
X18342726Y-19961470D01*
X18342726Y-19961470D02*
X18321297Y-19968613D01*
X18321297Y-19968613D02*
X18285583Y-19968613D01*
X18499868Y-19968613D02*
X18499868Y-19890041D01*
X18499868Y-19890041D02*
X18492726Y-19875756D01*
X18492726Y-19875756D02*
X18478440Y-19868613D01*
X18478440Y-19868613D02*
X18449868Y-19868613D01*
X18449868Y-19868613D02*
X18435583Y-19875756D01*
X18499868Y-19961470D02*
X18485583Y-19968613D01*
X18485583Y-19968613D02*
X18449868Y-19968613D01*
X18449868Y-19968613D02*
X18435583Y-19961470D01*
X18435583Y-19961470D02*
X18428440Y-19947184D01*
X18428440Y-19947184D02*
X18428440Y-19932899D01*
X18428440Y-19932899D02*
X18435583Y-19918613D01*
X18435583Y-19918613D02*
X18449868Y-19911470D01*
X18449868Y-19911470D02*
X18485583Y-19911470D01*
X18485583Y-19911470D02*
X18499868Y-19904327D01*
X18549868Y-19868613D02*
X18607011Y-19868613D01*
X18571297Y-19818613D02*
X18571297Y-19947184D01*
X18571297Y-19947184D02*
X18578440Y-19961470D01*
X18578440Y-19961470D02*
X18592726Y-19968613D01*
X18592726Y-19968613D02*
X18607011Y-19968613D01*
X18714154Y-19961470D02*
X18699868Y-19968613D01*
X18699868Y-19968613D02*
X18671297Y-19968613D01*
X18671297Y-19968613D02*
X18657011Y-19961470D01*
X18657011Y-19961470D02*
X18649868Y-19947184D01*
X18649868Y-19947184D02*
X18649868Y-19890041D01*
X18649868Y-19890041D02*
X18657011Y-19875756D01*
X18657011Y-19875756D02*
X18671297Y-19868613D01*
X18671297Y-19868613D02*
X18699868Y-19868613D01*
X18699868Y-19868613D02*
X18714154Y-19875756D01*
X18714154Y-19875756D02*
X18721297Y-19890041D01*
X18721297Y-19890041D02*
X18721297Y-19904327D01*
X18721297Y-19904327D02*
X18649868Y-19918613D01*
X18785583Y-19954327D02*
X18792726Y-19961470D01*
X18792726Y-19961470D02*
X18785583Y-19968613D01*
X18785583Y-19968613D02*
X18778440Y-19961470D01*
X18778440Y-19961470D02*
X18785583Y-19954327D01*
X18785583Y-19954327D02*
X18785583Y-19968613D01*
X18785583Y-19875756D02*
X18792726Y-19882899D01*
X18792726Y-19882899D02*
X18785583Y-19890041D01*
X18785583Y-19890041D02*
X18778440Y-19882899D01*
X18778440Y-19882899D02*
X18785583Y-19875756D01*
X18785583Y-19875756D02*
X18785583Y-19890041D01*
X18964154Y-19832899D02*
X18971297Y-19825756D01*
X18971297Y-19825756D02*
X18985583Y-19818613D01*
X18985583Y-19818613D02*
X19021297Y-19818613D01*
X19021297Y-19818613D02*
X19035583Y-19825756D01*
X19035583Y-19825756D02*
X19042726Y-19832899D01*
X19042726Y-19832899D02*
X19049868Y-19847184D01*
X19049868Y-19847184D02*
X19049868Y-19861470D01*
X19049868Y-19861470D02*
X19042726Y-19882899D01*
X19042726Y-19882899D02*
X18957011Y-19968613D01*
X18957011Y-19968613D02*
X19049868Y-19968613D01*
X19142726Y-19818613D02*
X19157011Y-19818613D01*
X19157011Y-19818613D02*
X19171297Y-19825756D01*
X19171297Y-19825756D02*
X19178440Y-19832899D01*
X19178440Y-19832899D02*
X19185583Y-19847184D01*
X19185583Y-19847184D02*
X19192726Y-19875756D01*
X19192726Y-19875756D02*
X19192726Y-19911470D01*
X19192726Y-19911470D02*
X19185583Y-19940041D01*
X19185583Y-19940041D02*
X19178440Y-19954327D01*
X19178440Y-19954327D02*
X19171297Y-19961470D01*
X19171297Y-19961470D02*
X19157011Y-19968613D01*
X19157011Y-19968613D02*
X19142726Y-19968613D01*
X19142726Y-19968613D02*
X19128440Y-19961470D01*
X19128440Y-19961470D02*
X19121297Y-19954327D01*
X19121297Y-19954327D02*
X19114154Y-19940041D01*
X19114154Y-19940041D02*
X19107011Y-19911470D01*
X19107011Y-19911470D02*
X19107011Y-19875756D01*
X19107011Y-19875756D02*
X19114154Y-19847184D01*
X19114154Y-19847184D02*
X19121297Y-19832899D01*
X19121297Y-19832899D02*
X19128440Y-19825756D01*
X19128440Y-19825756D02*
X19142726Y-19818613D01*
X19249868Y-19832899D02*
X19257011Y-19825756D01*
X19257011Y-19825756D02*
X19271297Y-19818613D01*
X19271297Y-19818613D02*
X19307011Y-19818613D01*
X19307011Y-19818613D02*
X19321297Y-19825756D01*
X19321297Y-19825756D02*
X19328440Y-19832899D01*
X19328440Y-19832899D02*
X19335583Y-19847184D01*
X19335583Y-19847184D02*
X19335583Y-19861470D01*
X19335583Y-19861470D02*
X19328440Y-19882899D01*
X19328440Y-19882899D02*
X19242725Y-19968613D01*
X19242725Y-19968613D02*
X19335583Y-19968613D01*
X19471297Y-19818613D02*
X19399868Y-19818613D01*
X19399868Y-19818613D02*
X19392725Y-19890041D01*
X19392725Y-19890041D02*
X19399868Y-19882899D01*
X19399868Y-19882899D02*
X19414154Y-19875756D01*
X19414154Y-19875756D02*
X19449868Y-19875756D01*
X19449868Y-19875756D02*
X19464154Y-19882899D01*
X19464154Y-19882899D02*
X19471297Y-19890041D01*
X19471297Y-19890041D02*
X19478440Y-19904327D01*
X19478440Y-19904327D02*
X19478440Y-19940041D01*
X19478440Y-19940041D02*
X19471297Y-19954327D01*
X19471297Y-19954327D02*
X19464154Y-19961470D01*
X19464154Y-19961470D02*
X19449868Y-19968613D01*
X19449868Y-19968613D02*
X19414154Y-19968613D01*
X19414154Y-19968613D02*
X19399868Y-19961470D01*
X19399868Y-19961470D02*
X19392725Y-19954327D01*
X19542725Y-19911470D02*
X19657011Y-19911470D01*
X19757011Y-19818613D02*
X19771297Y-19818613D01*
X19771297Y-19818613D02*
X19785583Y-19825756D01*
X19785583Y-19825756D02*
X19792725Y-19832899D01*
X19792725Y-19832899D02*
X19799868Y-19847184D01*
X19799868Y-19847184D02*
X19807011Y-19875756D01*
X19807011Y-19875756D02*
X19807011Y-19911470D01*
X19807011Y-19911470D02*
X19799868Y-19940041D01*
X19799868Y-19940041D02*
X19792725Y-19954327D01*
X19792725Y-19954327D02*
X19785583Y-19961470D01*
X19785583Y-19961470D02*
X19771297Y-19968613D01*
X19771297Y-19968613D02*
X19757011Y-19968613D01*
X19757011Y-19968613D02*
X19742725Y-19961470D01*
X19742725Y-19961470D02*
X19735583Y-19954327D01*
X19735583Y-19954327D02*
X19728440Y-19940041D01*
X19728440Y-19940041D02*
X19721297Y-19911470D01*
X19721297Y-19911470D02*
X19721297Y-19875756D01*
X19721297Y-19875756D02*
X19728440Y-19847184D01*
X19728440Y-19847184D02*
X19735583Y-19832899D01*
X19735583Y-19832899D02*
X19742725Y-19825756D01*
X19742725Y-19825756D02*
X19757011Y-19818613D01*
X19857011Y-19818613D02*
X19949868Y-19818613D01*
X19949868Y-19818613D02*
X19899868Y-19875756D01*
X19899868Y-19875756D02*
X19921297Y-19875756D01*
X19921297Y-19875756D02*
X19935583Y-19882899D01*
X19935583Y-19882899D02*
X19942725Y-19890041D01*
X19942725Y-19890041D02*
X19949868Y-19904327D01*
X19949868Y-19904327D02*
X19949868Y-19940041D01*
X19949868Y-19940041D02*
X19942725Y-19954327D01*
X19942725Y-19954327D02*
X19935583Y-19961470D01*
X19935583Y-19961470D02*
X19921297Y-19968613D01*
X19921297Y-19968613D02*
X19878440Y-19968613D01*
X19878440Y-19968613D02*
X19864154Y-19961470D01*
X19864154Y-19961470D02*
X19857011Y-19954327D01*
X20014154Y-19911470D02*
X20128440Y-19911470D01*
X20278440Y-19968613D02*
X20192725Y-19968613D01*
X20235582Y-19968613D02*
X20235582Y-19818613D01*
X20235582Y-19818613D02*
X20221297Y-19840041D01*
X20221297Y-19840041D02*
X20207011Y-19854327D01*
X20207011Y-19854327D02*
X20192725Y-19861470D01*
X20335582Y-19832899D02*
X20342725Y-19825756D01*
X20342725Y-19825756D02*
X20357011Y-19818613D01*
X20357011Y-19818613D02*
X20392725Y-19818613D01*
X20392725Y-19818613D02*
X20407011Y-19825756D01*
X20407011Y-19825756D02*
X20414154Y-19832899D01*
X20414154Y-19832899D02*
X20421297Y-19847184D01*
X20421297Y-19847184D02*
X20421297Y-19861470D01*
X20421297Y-19861470D02*
X20414154Y-19882899D01*
X20414154Y-19882899D02*
X20328440Y-19968613D01*
X20328440Y-19968613D02*
X20421297Y-19968613D01*
D10*
D11*
X15940000Y-20040000D02*
X26740000Y-20040000D01*
D10*
D11*
X16078440Y-20241470D02*
X16099868Y-20248613D01*
X16099868Y-20248613D02*
X16135583Y-20248613D01*
X16135583Y-20248613D02*
X16149868Y-20241470D01*
X16149868Y-20241470D02*
X16157011Y-20234327D01*
X16157011Y-20234327D02*
X16164154Y-20220041D01*
X16164154Y-20220041D02*
X16164154Y-20205756D01*
X16164154Y-20205756D02*
X16157011Y-20191470D01*
X16157011Y-20191470D02*
X16149868Y-20184327D01*
X16149868Y-20184327D02*
X16135583Y-20177184D01*
X16135583Y-20177184D02*
X16107011Y-20170041D01*
X16107011Y-20170041D02*
X16092725Y-20162899D01*
X16092725Y-20162899D02*
X16085583Y-20155756D01*
X16085583Y-20155756D02*
X16078440Y-20141470D01*
X16078440Y-20141470D02*
X16078440Y-20127184D01*
X16078440Y-20127184D02*
X16085583Y-20112899D01*
X16085583Y-20112899D02*
X16092725Y-20105756D01*
X16092725Y-20105756D02*
X16107011Y-20098613D01*
X16107011Y-20098613D02*
X16142725Y-20098613D01*
X16142725Y-20098613D02*
X16164154Y-20105756D01*
X16121297Y-20077184D02*
X16121297Y-20270041D01*
X16271297Y-20305756D02*
X16264154Y-20305756D01*
X16264154Y-20305756D02*
X16249868Y-20298613D01*
X16249868Y-20298613D02*
X16242725Y-20284327D01*
X16242725Y-20284327D02*
X16242725Y-20212899D01*
X16242725Y-20212899D02*
X16235583Y-20198613D01*
X16235583Y-20198613D02*
X16221297Y-20191470D01*
X16221297Y-20191470D02*
X16235583Y-20184327D01*
X16235583Y-20184327D02*
X16242725Y-20170041D01*
X16242725Y-20170041D02*
X16242725Y-20098613D01*
X16242725Y-20098613D02*
X16249868Y-20084327D01*
X16249868Y-20084327D02*
X16264154Y-20077184D01*
X16264154Y-20077184D02*
X16271297Y-20077184D01*
X16328440Y-20248613D02*
X16328440Y-20098613D01*
X16414154Y-20248613D02*
X16349868Y-20162899D01*
X16414154Y-20098613D02*
X16328440Y-20184327D01*
X16478440Y-20248613D02*
X16478440Y-20098613D01*
X16635583Y-20234327D02*
X16628440Y-20241470D01*
X16628440Y-20241470D02*
X16607011Y-20248613D01*
X16607011Y-20248613D02*
X16592725Y-20248613D01*
X16592725Y-20248613D02*
X16571297Y-20241470D01*
X16571297Y-20241470D02*
X16557011Y-20227184D01*
X16557011Y-20227184D02*
X16549868Y-20212899D01*
X16549868Y-20212899D02*
X16542725Y-20184327D01*
X16542725Y-20184327D02*
X16542725Y-20162899D01*
X16542725Y-20162899D02*
X16549868Y-20134327D01*
X16549868Y-20134327D02*
X16557011Y-20120041D01*
X16557011Y-20120041D02*
X16571297Y-20105756D01*
X16571297Y-20105756D02*
X16592725Y-20098613D01*
X16592725Y-20098613D02*
X16607011Y-20098613D01*
X16607011Y-20098613D02*
X16628440Y-20105756D01*
X16628440Y-20105756D02*
X16635583Y-20112899D01*
X16692725Y-20205756D02*
X16764154Y-20205756D01*
X16678440Y-20248613D02*
X16728440Y-20098613D01*
X16728440Y-20098613D02*
X16778440Y-20248613D01*
X16828440Y-20248613D02*
X16828440Y-20098613D01*
X16828440Y-20098613D02*
X16864154Y-20098613D01*
X16864154Y-20098613D02*
X16885583Y-20105756D01*
X16885583Y-20105756D02*
X16899868Y-20120041D01*
X16899868Y-20120041D02*
X16907011Y-20134327D01*
X16907011Y-20134327D02*
X16914154Y-20162899D01*
X16914154Y-20162899D02*
X16914154Y-20184327D01*
X16914154Y-20184327D02*
X16907011Y-20212899D01*
X16907011Y-20212899D02*
X16899868Y-20227184D01*
X16899868Y-20227184D02*
X16885583Y-20241470D01*
X16885583Y-20241470D02*
X16864154Y-20248613D01*
X16864154Y-20248613D02*
X16828440Y-20248613D01*
X16942726Y-20262899D02*
X17057011Y-20262899D01*
X17071297Y-20098613D02*
X17121297Y-20248613D01*
X17121297Y-20248613D02*
X17171297Y-20098613D01*
X17221297Y-20170041D02*
X17271297Y-20170041D01*
X17292725Y-20248613D02*
X17221297Y-20248613D01*
X17221297Y-20248613D02*
X17221297Y-20098613D01*
X17221297Y-20098613D02*
X17292725Y-20098613D01*
X17442725Y-20248613D02*
X17392725Y-20177184D01*
X17357011Y-20248613D02*
X17357011Y-20098613D01*
X17357011Y-20098613D02*
X17414154Y-20098613D01*
X17414154Y-20098613D02*
X17428440Y-20105756D01*
X17428440Y-20105756D02*
X17435583Y-20112899D01*
X17435583Y-20112899D02*
X17442725Y-20127184D01*
X17442725Y-20127184D02*
X17442725Y-20148613D01*
X17442725Y-20148613D02*
X17435583Y-20162899D01*
X17435583Y-20162899D02*
X17428440Y-20170041D01*
X17428440Y-20170041D02*
X17414154Y-20177184D01*
X17414154Y-20177184D02*
X17357011Y-20177184D01*
X17499868Y-20241470D02*
X17521297Y-20248613D01*
X17521297Y-20248613D02*
X17557011Y-20248613D01*
X17557011Y-20248613D02*
X17571297Y-20241470D01*
X17571297Y-20241470D02*
X17578440Y-20234327D01*
X17578440Y-20234327D02*
X17585583Y-20220041D01*
X17585583Y-20220041D02*
X17585583Y-20205756D01*
X17585583Y-20205756D02*
X17578440Y-20191470D01*
X17578440Y-20191470D02*
X17571297Y-20184327D01*
X17571297Y-20184327D02*
X17557011Y-20177184D01*
X17557011Y-20177184D02*
X17528440Y-20170041D01*
X17528440Y-20170041D02*
X17514154Y-20162899D01*
X17514154Y-20162899D02*
X17507011Y-20155756D01*
X17507011Y-20155756D02*
X17499868Y-20141470D01*
X17499868Y-20141470D02*
X17499868Y-20127184D01*
X17499868Y-20127184D02*
X17507011Y-20112899D01*
X17507011Y-20112899D02*
X17514154Y-20105756D01*
X17514154Y-20105756D02*
X17528440Y-20098613D01*
X17528440Y-20098613D02*
X17564154Y-20098613D01*
X17564154Y-20098613D02*
X17585583Y-20105756D01*
X17649868Y-20248613D02*
X17649868Y-20098613D01*
X17749868Y-20098613D02*
X17778440Y-20098613D01*
X17778440Y-20098613D02*
X17792725Y-20105756D01*
X17792725Y-20105756D02*
X17807011Y-20120041D01*
X17807011Y-20120041D02*
X17814154Y-20148613D01*
X17814154Y-20148613D02*
X17814154Y-20198613D01*
X17814154Y-20198613D02*
X17807011Y-20227184D01*
X17807011Y-20227184D02*
X17792725Y-20241470D01*
X17792725Y-20241470D02*
X17778440Y-20248613D01*
X17778440Y-20248613D02*
X17749868Y-20248613D01*
X17749868Y-20248613D02*
X17735583Y-20241470D01*
X17735583Y-20241470D02*
X17721297Y-20227184D01*
X17721297Y-20227184D02*
X17714154Y-20198613D01*
X17714154Y-20198613D02*
X17714154Y-20148613D01*
X17714154Y-20148613D02*
X17721297Y-20120041D01*
X17721297Y-20120041D02*
X17735583Y-20105756D01*
X17735583Y-20105756D02*
X17749868Y-20098613D01*
X17878440Y-20248613D02*
X17878440Y-20098613D01*
X17878440Y-20098613D02*
X17964154Y-20248613D01*
X17964154Y-20248613D02*
X17964154Y-20098613D01*
X18021297Y-20305756D02*
X18028440Y-20305756D01*
X18028440Y-20305756D02*
X18042726Y-20298613D01*
X18042726Y-20298613D02*
X18049868Y-20284327D01*
X18049868Y-20284327D02*
X18049868Y-20212899D01*
X18049868Y-20212899D02*
X18057011Y-20198613D01*
X18057011Y-20198613D02*
X18071297Y-20191470D01*
X18071297Y-20191470D02*
X18057011Y-20184327D01*
X18057011Y-20184327D02*
X18049868Y-20170041D01*
X18049868Y-20170041D02*
X18049868Y-20098613D01*
X18049868Y-20098613D02*
X18042726Y-20084327D01*
X18042726Y-20084327D02*
X18028440Y-20077184D01*
X18028440Y-20077184D02*
X18021297Y-20077184D01*
D10*
D11*
X15940000Y-19740000D02*
X26740000Y-19740000D01*
D10*
D12*
X24681165Y-19967833D02*
X24631165Y-19896404D01*
X24595451Y-19967833D02*
X24595451Y-19817833D01*
X24595451Y-19817833D02*
X24652594Y-19817833D01*
X24652594Y-19817833D02*
X24666880Y-19824976D01*
X24666880Y-19824976D02*
X24674022Y-19832119D01*
X24674022Y-19832119D02*
X24681165Y-19846404D01*
X24681165Y-19846404D02*
X24681165Y-19867833D01*
X24681165Y-19867833D02*
X24674022Y-19882119D01*
X24674022Y-19882119D02*
X24666880Y-19889261D01*
X24666880Y-19889261D02*
X24652594Y-19896404D01*
X24652594Y-19896404D02*
X24595451Y-19896404D01*
X24802594Y-19960690D02*
X24788308Y-19967833D01*
X24788308Y-19967833D02*
X24759737Y-19967833D01*
X24759737Y-19967833D02*
X24745451Y-19960690D01*
X24745451Y-19960690D02*
X24738308Y-19946404D01*
X24738308Y-19946404D02*
X24738308Y-19889261D01*
X24738308Y-19889261D02*
X24745451Y-19874976D01*
X24745451Y-19874976D02*
X24759737Y-19867833D01*
X24759737Y-19867833D02*
X24788308Y-19867833D01*
X24788308Y-19867833D02*
X24802594Y-19874976D01*
X24802594Y-19874976D02*
X24809737Y-19889261D01*
X24809737Y-19889261D02*
X24809737Y-19903547D01*
X24809737Y-19903547D02*
X24738308Y-19917833D01*
X24859737Y-19867833D02*
X24895451Y-19967833D01*
X24895451Y-19967833D02*
X24931165Y-19867833D01*
X24988308Y-19953547D02*
X24995451Y-19960690D01*
X24995451Y-19960690D02*
X24988308Y-19967833D01*
X24988308Y-19967833D02*
X24981165Y-19960690D01*
X24981165Y-19960690D02*
X24988308Y-19953547D01*
X24988308Y-19953547D02*
X24988308Y-19967833D01*
X24988308Y-19874976D02*
X24995451Y-19882119D01*
X24995451Y-19882119D02*
X24988308Y-19889261D01*
X24988308Y-19889261D02*
X24981165Y-19882119D01*
X24981165Y-19882119D02*
X24988308Y-19874976D01*
X24988308Y-19874976D02*
X24988308Y-19889261D01*
X25174022Y-19967833D02*
X25174022Y-19817833D01*
X25174022Y-19817833D02*
X25209737Y-19817833D01*
X25209737Y-19817833D02*
X25231165Y-19824976D01*
X25231165Y-19824976D02*
X25245451Y-19839261D01*
X25245451Y-19839261D02*
X25252594Y-19853547D01*
X25252594Y-19853547D02*
X25259737Y-19882119D01*
X25259737Y-19882119D02*
X25259737Y-19903547D01*
X25259737Y-19903547D02*
X25252594Y-19932119D01*
X25252594Y-19932119D02*
X25245451Y-19946404D01*
X25245451Y-19946404D02*
X25231165Y-19960690D01*
X25231165Y-19960690D02*
X25209737Y-19967833D01*
X25209737Y-19967833D02*
X25174022Y-19967833D01*
D10*
D11*
X16078440Y-19961470D02*
X16099868Y-19968613D01*
X16099868Y-19968613D02*
X16135583Y-19968613D01*
X16135583Y-19968613D02*
X16149868Y-19961470D01*
X16149868Y-19961470D02*
X16157011Y-19954327D01*
X16157011Y-19954327D02*
X16164154Y-19940041D01*
X16164154Y-19940041D02*
X16164154Y-19925756D01*
X16164154Y-19925756D02*
X16157011Y-19911470D01*
X16157011Y-19911470D02*
X16149868Y-19904327D01*
X16149868Y-19904327D02*
X16135583Y-19897184D01*
X16135583Y-19897184D02*
X16107011Y-19890041D01*
X16107011Y-19890041D02*
X16092725Y-19882899D01*
X16092725Y-19882899D02*
X16085583Y-19875756D01*
X16085583Y-19875756D02*
X16078440Y-19861470D01*
X16078440Y-19861470D02*
X16078440Y-19847184D01*
X16078440Y-19847184D02*
X16085583Y-19832899D01*
X16085583Y-19832899D02*
X16092725Y-19825756D01*
X16092725Y-19825756D02*
X16107011Y-19818613D01*
X16107011Y-19818613D02*
X16142725Y-19818613D01*
X16142725Y-19818613D02*
X16164154Y-19825756D01*
X16228440Y-19968613D02*
X16228440Y-19868613D01*
X16228440Y-19818613D02*
X16221297Y-19825756D01*
X16221297Y-19825756D02*
X16228440Y-19832899D01*
X16228440Y-19832899D02*
X16235583Y-19825756D01*
X16235583Y-19825756D02*
X16228440Y-19818613D01*
X16228440Y-19818613D02*
X16228440Y-19832899D01*
X16285583Y-19868613D02*
X16364154Y-19868613D01*
X16364154Y-19868613D02*
X16285583Y-19968613D01*
X16285583Y-19968613D02*
X16364154Y-19968613D01*
X16478440Y-19961470D02*
X16464154Y-19968613D01*
X16464154Y-19968613D02*
X16435583Y-19968613D01*
X16435583Y-19968613D02*
X16421297Y-19961470D01*
X16421297Y-19961470D02*
X16414154Y-19947184D01*
X16414154Y-19947184D02*
X16414154Y-19890041D01*
X16414154Y-19890041D02*
X16421297Y-19875756D01*
X16421297Y-19875756D02*
X16435583Y-19868613D01*
X16435583Y-19868613D02*
X16464154Y-19868613D01*
X16464154Y-19868613D02*
X16478440Y-19875756D01*
X16478440Y-19875756D02*
X16485583Y-19890041D01*
X16485583Y-19890041D02*
X16485583Y-19904327D01*
X16485583Y-19904327D02*
X16414154Y-19918613D01*
X16549868Y-19954327D02*
X16557011Y-19961470D01*
X16557011Y-19961470D02*
X16549868Y-19968613D01*
X16549868Y-19968613D02*
X16542725Y-19961470D01*
X16542725Y-19961470D02*
X16549868Y-19954327D01*
X16549868Y-19954327D02*
X16549868Y-19968613D01*
X16549868Y-19875756D02*
X16557011Y-19882899D01*
X16557011Y-19882899D02*
X16549868Y-19890041D01*
X16549868Y-19890041D02*
X16542725Y-19882899D01*
X16542725Y-19882899D02*
X16549868Y-19875756D01*
X16549868Y-19875756D02*
X16549868Y-19890041D01*
X16728440Y-19925756D02*
X16799868Y-19925756D01*
X16714154Y-19968613D02*
X16764154Y-19818613D01*
X16764154Y-19818613D02*
X16814154Y-19968613D01*
D10*
D11*
X24585583Y-20248613D02*
X24585583Y-20098613D01*
X24721297Y-20248613D02*
X24721297Y-20098613D01*
X24721297Y-20241470D02*
X24707011Y-20248613D01*
X24707011Y-20248613D02*
X24678440Y-20248613D01*
X24678440Y-20248613D02*
X24664154Y-20241470D01*
X24664154Y-20241470D02*
X24657011Y-20234327D01*
X24657011Y-20234327D02*
X24649868Y-20220041D01*
X24649868Y-20220041D02*
X24649868Y-20177184D01*
X24649868Y-20177184D02*
X24657011Y-20162899D01*
X24657011Y-20162899D02*
X24664154Y-20155756D01*
X24664154Y-20155756D02*
X24678440Y-20148613D01*
X24678440Y-20148613D02*
X24707011Y-20148613D01*
X24707011Y-20148613D02*
X24721297Y-20155756D01*
X24792725Y-20234327D02*
X24799868Y-20241470D01*
X24799868Y-20241470D02*
X24792725Y-20248613D01*
X24792725Y-20248613D02*
X24785583Y-20241470D01*
X24785583Y-20241470D02*
X24792725Y-20234327D01*
X24792725Y-20234327D02*
X24792725Y-20248613D01*
X24792725Y-20155756D02*
X24799868Y-20162899D01*
X24799868Y-20162899D02*
X24792725Y-20170041D01*
X24792725Y-20170041D02*
X24785583Y-20162899D01*
X24785583Y-20162899D02*
X24792725Y-20155756D01*
X24792725Y-20155756D02*
X24792725Y-20170041D01*
X25057011Y-20248613D02*
X24971297Y-20248613D01*
X25014154Y-20248613D02*
X25014154Y-20098613D01*
X25014154Y-20098613D02*
X24999868Y-20120041D01*
X24999868Y-20120041D02*
X24985583Y-20134327D01*
X24985583Y-20134327D02*
X24971297Y-20141470D01*
X25228440Y-20091470D02*
X25099868Y-20284327D01*
X25357011Y-20248613D02*
X25271297Y-20248613D01*
X25314154Y-20248613D02*
X25314154Y-20098613D01*
X25314154Y-20098613D02*
X25299868Y-20120041D01*
X25299868Y-20120041D02*
X25285583Y-20134327D01*
X25285583Y-20134327D02*
X25271297Y-20141470D01*
D10*
D11*
X15940000Y-19340000D02*
X26740000Y-19340000D01*
D10*
D13*
X16109173Y-19410444D02*
X16223458Y-19410444D01*
X16141316Y-19610444D02*
X16166316Y-19410444D01*
X16265125Y-19610444D02*
X16281792Y-19477110D01*
X16290125Y-19410444D02*
X16279411Y-19419968D01*
X16279411Y-19419968D02*
X16287744Y-19429491D01*
X16287744Y-19429491D02*
X16298459Y-19419968D01*
X16298459Y-19419968D02*
X16290125Y-19410444D01*
X16290125Y-19410444D02*
X16287744Y-19429491D01*
X16348459Y-19477110D02*
X16424649Y-19477110D01*
X16385363Y-19410444D02*
X16363935Y-19581872D01*
X16363935Y-19581872D02*
X16371078Y-19600920D01*
X16371078Y-19600920D02*
X16388935Y-19610444D01*
X16388935Y-19610444D02*
X16407982Y-19610444D01*
X16503220Y-19610444D02*
X16485363Y-19600920D01*
X16485363Y-19600920D02*
X16478220Y-19581872D01*
X16478220Y-19581872D02*
X16499649Y-19410444D01*
X16656792Y-19600920D02*
X16636554Y-19610444D01*
X16636554Y-19610444D02*
X16598458Y-19610444D01*
X16598458Y-19610444D02*
X16580601Y-19600920D01*
X16580601Y-19600920D02*
X16573458Y-19581872D01*
X16573458Y-19581872D02*
X16582982Y-19505682D01*
X16582982Y-19505682D02*
X16594887Y-19486634D01*
X16594887Y-19486634D02*
X16615125Y-19477110D01*
X16615125Y-19477110D02*
X16653220Y-19477110D01*
X16653220Y-19477110D02*
X16671078Y-19486634D01*
X16671078Y-19486634D02*
X16678220Y-19505682D01*
X16678220Y-19505682D02*
X16675839Y-19524730D01*
X16675839Y-19524730D02*
X16578220Y-19543777D01*
X16753220Y-19591396D02*
X16761554Y-19600920D01*
X16761554Y-19600920D02*
X16750839Y-19610444D01*
X16750839Y-19610444D02*
X16742506Y-19600920D01*
X16742506Y-19600920D02*
X16753220Y-19591396D01*
X16753220Y-19591396D02*
X16750839Y-19610444D01*
X16766316Y-19486634D02*
X16774649Y-19496158D01*
X16774649Y-19496158D02*
X16763935Y-19505682D01*
X16763935Y-19505682D02*
X16755601Y-19496158D01*
X16755601Y-19496158D02*
X16766316Y-19486634D01*
X16766316Y-19486634D02*
X16763935Y-19505682D01*
X17127030Y-19419968D02*
X17109173Y-19410444D01*
X17109173Y-19410444D02*
X17080602Y-19410444D01*
X17080602Y-19410444D02*
X17050840Y-19419968D01*
X17050840Y-19419968D02*
X17029411Y-19439015D01*
X17029411Y-19439015D02*
X17017506Y-19458063D01*
X17017506Y-19458063D02*
X17003221Y-19496158D01*
X17003221Y-19496158D02*
X16999649Y-19524730D01*
X16999649Y-19524730D02*
X17004411Y-19562825D01*
X17004411Y-19562825D02*
X17011554Y-19581872D01*
X17011554Y-19581872D02*
X17028221Y-19600920D01*
X17028221Y-19600920D02*
X17055602Y-19610444D01*
X17055602Y-19610444D02*
X17074649Y-19610444D01*
X17074649Y-19610444D02*
X17104411Y-19600920D01*
X17104411Y-19600920D02*
X17115125Y-19591396D01*
X17115125Y-19591396D02*
X17123459Y-19524730D01*
X17123459Y-19524730D02*
X17085363Y-19524730D01*
X17227030Y-19610444D02*
X17209173Y-19600920D01*
X17209173Y-19600920D02*
X17202030Y-19581872D01*
X17202030Y-19581872D02*
X17223459Y-19410444D01*
X17331792Y-19610444D02*
X17313935Y-19600920D01*
X17313935Y-19600920D02*
X17305602Y-19591396D01*
X17305602Y-19591396D02*
X17298459Y-19572349D01*
X17298459Y-19572349D02*
X17305602Y-19515206D01*
X17305602Y-19515206D02*
X17317506Y-19496158D01*
X17317506Y-19496158D02*
X17328221Y-19486634D01*
X17328221Y-19486634D02*
X17348459Y-19477110D01*
X17348459Y-19477110D02*
X17377030Y-19477110D01*
X17377030Y-19477110D02*
X17394887Y-19486634D01*
X17394887Y-19486634D02*
X17403221Y-19496158D01*
X17403221Y-19496158D02*
X17410363Y-19515206D01*
X17410363Y-19515206D02*
X17403221Y-19572349D01*
X17403221Y-19572349D02*
X17391316Y-19591396D01*
X17391316Y-19591396D02*
X17380602Y-19600920D01*
X17380602Y-19600920D02*
X17360363Y-19610444D01*
X17360363Y-19610444D02*
X17331792Y-19610444D01*
X17484173Y-19610444D02*
X17509173Y-19410444D01*
X17499649Y-19486634D02*
X17519887Y-19477110D01*
X17519887Y-19477110D02*
X17557982Y-19477110D01*
X17557982Y-19477110D02*
X17575840Y-19486634D01*
X17575840Y-19486634D02*
X17584173Y-19496158D01*
X17584173Y-19496158D02*
X17591316Y-19515206D01*
X17591316Y-19515206D02*
X17584173Y-19572349D01*
X17584173Y-19572349D02*
X17572268Y-19591396D01*
X17572268Y-19591396D02*
X17561554Y-19600920D01*
X17561554Y-19600920D02*
X17541316Y-19610444D01*
X17541316Y-19610444D02*
X17503221Y-19610444D01*
X17503221Y-19610444D02*
X17485363Y-19600920D01*
X17750840Y-19610444D02*
X17763935Y-19505682D01*
X17763935Y-19505682D02*
X17756792Y-19486634D01*
X17756792Y-19486634D02*
X17738935Y-19477110D01*
X17738935Y-19477110D02*
X17700840Y-19477110D01*
X17700840Y-19477110D02*
X17680602Y-19486634D01*
X17752030Y-19600920D02*
X17731792Y-19610444D01*
X17731792Y-19610444D02*
X17684173Y-19610444D01*
X17684173Y-19610444D02*
X17666316Y-19600920D01*
X17666316Y-19600920D02*
X17659173Y-19581872D01*
X17659173Y-19581872D02*
X17661554Y-19562825D01*
X17661554Y-19562825D02*
X17673459Y-19543777D01*
X17673459Y-19543777D02*
X17693697Y-19534253D01*
X17693697Y-19534253D02*
X17741316Y-19534253D01*
X17741316Y-19534253D02*
X17761554Y-19524730D01*
X17874649Y-19610444D02*
X17856792Y-19600920D01*
X17856792Y-19600920D02*
X17849649Y-19581872D01*
X17849649Y-19581872D02*
X17871078Y-19410444D01*
X18094887Y-19600920D02*
X18122268Y-19610444D01*
X18122268Y-19610444D02*
X18169887Y-19610444D01*
X18169887Y-19610444D02*
X18190125Y-19600920D01*
X18190125Y-19600920D02*
X18200840Y-19591396D01*
X18200840Y-19591396D02*
X18212744Y-19572349D01*
X18212744Y-19572349D02*
X18215125Y-19553301D01*
X18215125Y-19553301D02*
X18207983Y-19534253D01*
X18207983Y-19534253D02*
X18199649Y-19524730D01*
X18199649Y-19524730D02*
X18181792Y-19515206D01*
X18181792Y-19515206D02*
X18144887Y-19505682D01*
X18144887Y-19505682D02*
X18127030Y-19496158D01*
X18127030Y-19496158D02*
X18118697Y-19486634D01*
X18118697Y-19486634D02*
X18111554Y-19467587D01*
X18111554Y-19467587D02*
X18113935Y-19448539D01*
X18113935Y-19448539D02*
X18125840Y-19429491D01*
X18125840Y-19429491D02*
X18136554Y-19419968D01*
X18136554Y-19419968D02*
X18156792Y-19410444D01*
X18156792Y-19410444D02*
X18204411Y-19410444D01*
X18204411Y-19410444D02*
X18231792Y-19419968D01*
X18380602Y-19600920D02*
X18360364Y-19610444D01*
X18360364Y-19610444D02*
X18322268Y-19610444D01*
X18322268Y-19610444D02*
X18304411Y-19600920D01*
X18304411Y-19600920D02*
X18296078Y-19591396D01*
X18296078Y-19591396D02*
X18288935Y-19572349D01*
X18288935Y-19572349D02*
X18296078Y-19515206D01*
X18296078Y-19515206D02*
X18307983Y-19496158D01*
X18307983Y-19496158D02*
X18318697Y-19486634D01*
X18318697Y-19486634D02*
X18338935Y-19477110D01*
X18338935Y-19477110D02*
X18377030Y-19477110D01*
X18377030Y-19477110D02*
X18394887Y-19486634D01*
X18550840Y-19610444D02*
X18563935Y-19505682D01*
X18563935Y-19505682D02*
X18556792Y-19486634D01*
X18556792Y-19486634D02*
X18538935Y-19477110D01*
X18538935Y-19477110D02*
X18500840Y-19477110D01*
X18500840Y-19477110D02*
X18480602Y-19486634D01*
X18552030Y-19600920D02*
X18531792Y-19610444D01*
X18531792Y-19610444D02*
X18484173Y-19610444D01*
X18484173Y-19610444D02*
X18466316Y-19600920D01*
X18466316Y-19600920D02*
X18459173Y-19581872D01*
X18459173Y-19581872D02*
X18461554Y-19562825D01*
X18461554Y-19562825D02*
X18473459Y-19543777D01*
X18473459Y-19543777D02*
X18493697Y-19534253D01*
X18493697Y-19534253D02*
X18541316Y-19534253D01*
X18541316Y-19534253D02*
X18561554Y-19524730D01*
X18643697Y-19477110D02*
X18674649Y-19610444D01*
X18674649Y-19610444D02*
X18738935Y-19477110D01*
X18875840Y-19600920D02*
X18855602Y-19610444D01*
X18855602Y-19610444D02*
X18817506Y-19610444D01*
X18817506Y-19610444D02*
X18799649Y-19600920D01*
X18799649Y-19600920D02*
X18792506Y-19581872D01*
X18792506Y-19581872D02*
X18802030Y-19505682D01*
X18802030Y-19505682D02*
X18813935Y-19486634D01*
X18813935Y-19486634D02*
X18834173Y-19477110D01*
X18834173Y-19477110D02*
X18872268Y-19477110D01*
X18872268Y-19477110D02*
X18890126Y-19486634D01*
X18890126Y-19486634D02*
X18897268Y-19505682D01*
X18897268Y-19505682D02*
X18894887Y-19524730D01*
X18894887Y-19524730D02*
X18797268Y-19543777D01*
X18986554Y-19477110D02*
X18969887Y-19610444D01*
X18984173Y-19496158D02*
X18994887Y-19486634D01*
X18994887Y-19486634D02*
X19015126Y-19477110D01*
X19015126Y-19477110D02*
X19043697Y-19477110D01*
X19043697Y-19477110D02*
X19061554Y-19486634D01*
X19061554Y-19486634D02*
X19068697Y-19505682D01*
X19068697Y-19505682D02*
X19055602Y-19610444D01*
X19253221Y-19477110D02*
X19232983Y-19639015D01*
X19232983Y-19639015D02*
X19221078Y-19658063D01*
X19221078Y-19658063D02*
X19210364Y-19667587D01*
X19210364Y-19667587D02*
X19190126Y-19677110D01*
X19190126Y-19677110D02*
X19161554Y-19677110D01*
X19161554Y-19677110D02*
X19143697Y-19667587D01*
X19237745Y-19600920D02*
X19217507Y-19610444D01*
X19217507Y-19610444D02*
X19179411Y-19610444D01*
X19179411Y-19610444D02*
X19161554Y-19600920D01*
X19161554Y-19600920D02*
X19153221Y-19591396D01*
X19153221Y-19591396D02*
X19146078Y-19572349D01*
X19146078Y-19572349D02*
X19153221Y-19515206D01*
X19153221Y-19515206D02*
X19165126Y-19496158D01*
X19165126Y-19496158D02*
X19175840Y-19486634D01*
X19175840Y-19486634D02*
X19196078Y-19477110D01*
X19196078Y-19477110D02*
X19234173Y-19477110D01*
X19234173Y-19477110D02*
X19252030Y-19486634D01*
X19409173Y-19600920D02*
X19388935Y-19610444D01*
X19388935Y-19610444D02*
X19350840Y-19610444D01*
X19350840Y-19610444D02*
X19332983Y-19600920D01*
X19332983Y-19600920D02*
X19325840Y-19581872D01*
X19325840Y-19581872D02*
X19335364Y-19505682D01*
X19335364Y-19505682D02*
X19347268Y-19486634D01*
X19347268Y-19486634D02*
X19367507Y-19477110D01*
X19367507Y-19477110D02*
X19405602Y-19477110D01*
X19405602Y-19477110D02*
X19423459Y-19486634D01*
X19423459Y-19486634D02*
X19430602Y-19505682D01*
X19430602Y-19505682D02*
X19428221Y-19524730D01*
X19428221Y-19524730D02*
X19330602Y-19543777D01*
X19503221Y-19610444D02*
X19519888Y-19477110D01*
X19515126Y-19515206D02*
X19527030Y-19496158D01*
X19527030Y-19496158D02*
X19537745Y-19486634D01*
X19537745Y-19486634D02*
X19557983Y-19477110D01*
X19557983Y-19477110D02*
X19577030Y-19477110D01*
X19779411Y-19610444D02*
X19804411Y-19410444D01*
X19792507Y-19505682D02*
X19906792Y-19505682D01*
X19893697Y-19610444D02*
X19918697Y-19410444D01*
X20091316Y-19477110D02*
X20074649Y-19610444D01*
X20005602Y-19477110D02*
X19992507Y-19581872D01*
X19992507Y-19581872D02*
X19999649Y-19600920D01*
X19999649Y-19600920D02*
X20017507Y-19610444D01*
X20017507Y-19610444D02*
X20046078Y-19610444D01*
X20046078Y-19610444D02*
X20066316Y-19600920D01*
X20066316Y-19600920D02*
X20077030Y-19591396D01*
X20186554Y-19477110D02*
X20169888Y-19610444D01*
X20184173Y-19496158D02*
X20194888Y-19486634D01*
X20194888Y-19486634D02*
X20215126Y-19477110D01*
X20215126Y-19477110D02*
X20243697Y-19477110D01*
X20243697Y-19477110D02*
X20261554Y-19486634D01*
X20261554Y-19486634D02*
X20268697Y-19505682D01*
X20268697Y-19505682D02*
X20255602Y-19610444D01*
X20338935Y-19477110D02*
X20415126Y-19477110D01*
X20375840Y-19410444D02*
X20354411Y-19581872D01*
X20354411Y-19581872D02*
X20361554Y-19600920D01*
X20361554Y-19600920D02*
X20379411Y-19610444D01*
X20379411Y-19610444D02*
X20398459Y-19610444D01*
X20617507Y-19610444D02*
X20642507Y-19410444D01*
X20642507Y-19410444D02*
X20718697Y-19410444D01*
X20718697Y-19410444D02*
X20736554Y-19419968D01*
X20736554Y-19419968D02*
X20744888Y-19429491D01*
X20744888Y-19429491D02*
X20752030Y-19448539D01*
X20752030Y-19448539D02*
X20748459Y-19477110D01*
X20748459Y-19477110D02*
X20736554Y-19496158D01*
X20736554Y-19496158D02*
X20725840Y-19505682D01*
X20725840Y-19505682D02*
X20705602Y-19515206D01*
X20705602Y-19515206D02*
X20629411Y-19515206D01*
X20846078Y-19610444D02*
X20828221Y-19600920D01*
X20828221Y-19600920D02*
X20819888Y-19591396D01*
X20819888Y-19591396D02*
X20812745Y-19572349D01*
X20812745Y-19572349D02*
X20819888Y-19515206D01*
X20819888Y-19515206D02*
X20831792Y-19496158D01*
X20831792Y-19496158D02*
X20842507Y-19486634D01*
X20842507Y-19486634D02*
X20862745Y-19477110D01*
X20862745Y-19477110D02*
X20891316Y-19477110D01*
X20891316Y-19477110D02*
X20909173Y-19486634D01*
X20909173Y-19486634D02*
X20917507Y-19496158D01*
X20917507Y-19496158D02*
X20924650Y-19515206D01*
X20924650Y-19515206D02*
X20917507Y-19572349D01*
X20917507Y-19572349D02*
X20905602Y-19591396D01*
X20905602Y-19591396D02*
X20894888Y-19600920D01*
X20894888Y-19600920D02*
X20874650Y-19610444D01*
X20874650Y-19610444D02*
X20846078Y-19610444D01*
X20990126Y-19600920D02*
X21007983Y-19610444D01*
X21007983Y-19610444D02*
X21046078Y-19610444D01*
X21046078Y-19610444D02*
X21066316Y-19600920D01*
X21066316Y-19600920D02*
X21078221Y-19581872D01*
X21078221Y-19581872D02*
X21079411Y-19572349D01*
X21079411Y-19572349D02*
X21072269Y-19553301D01*
X21072269Y-19553301D02*
X21054411Y-19543777D01*
X21054411Y-19543777D02*
X21025840Y-19543777D01*
X21025840Y-19543777D02*
X21007983Y-19534253D01*
X21007983Y-19534253D02*
X21000840Y-19515206D01*
X21000840Y-19515206D02*
X21002031Y-19505682D01*
X21002031Y-19505682D02*
X21013935Y-19486634D01*
X21013935Y-19486634D02*
X21034173Y-19477110D01*
X21034173Y-19477110D02*
X21062745Y-19477110D01*
X21062745Y-19477110D02*
X21080602Y-19486634D01*
X21160364Y-19610444D02*
X21177031Y-19477110D01*
X21185364Y-19410444D02*
X21174650Y-19419968D01*
X21174650Y-19419968D02*
X21182983Y-19429491D01*
X21182983Y-19429491D02*
X21193697Y-19419968D01*
X21193697Y-19419968D02*
X21185364Y-19410444D01*
X21185364Y-19410444D02*
X21182983Y-19429491D01*
X21243697Y-19477110D02*
X21319888Y-19477110D01*
X21280602Y-19410444D02*
X21259173Y-19581872D01*
X21259173Y-19581872D02*
X21266316Y-19600920D01*
X21266316Y-19600920D02*
X21284173Y-19610444D01*
X21284173Y-19610444D02*
X21303221Y-19610444D01*
X21369888Y-19610444D02*
X21386554Y-19477110D01*
X21394888Y-19410444D02*
X21384173Y-19419968D01*
X21384173Y-19419968D02*
X21392507Y-19429491D01*
X21392507Y-19429491D02*
X21403221Y-19419968D01*
X21403221Y-19419968D02*
X21394888Y-19410444D01*
X21394888Y-19410444D02*
X21392507Y-19429491D01*
X21493697Y-19610444D02*
X21475840Y-19600920D01*
X21475840Y-19600920D02*
X21467507Y-19591396D01*
X21467507Y-19591396D02*
X21460364Y-19572349D01*
X21460364Y-19572349D02*
X21467507Y-19515206D01*
X21467507Y-19515206D02*
X21479411Y-19496158D01*
X21479411Y-19496158D02*
X21490126Y-19486634D01*
X21490126Y-19486634D02*
X21510364Y-19477110D01*
X21510364Y-19477110D02*
X21538935Y-19477110D01*
X21538935Y-19477110D02*
X21556792Y-19486634D01*
X21556792Y-19486634D02*
X21565126Y-19496158D01*
X21565126Y-19496158D02*
X21572269Y-19515206D01*
X21572269Y-19515206D02*
X21565126Y-19572349D01*
X21565126Y-19572349D02*
X21553221Y-19591396D01*
X21553221Y-19591396D02*
X21542507Y-19600920D01*
X21542507Y-19600920D02*
X21522269Y-19610444D01*
X21522269Y-19610444D02*
X21493697Y-19610444D01*
X21662745Y-19477110D02*
X21646078Y-19610444D01*
X21660364Y-19496158D02*
X21671078Y-19486634D01*
X21671078Y-19486634D02*
X21691316Y-19477110D01*
X21691316Y-19477110D02*
X21719888Y-19477110D01*
X21719888Y-19477110D02*
X21737745Y-19486634D01*
X21737745Y-19486634D02*
X21744888Y-19505682D01*
X21744888Y-19505682D02*
X21731792Y-19610444D01*
X21827031Y-19610444D02*
X21843697Y-19477110D01*
X21852031Y-19410444D02*
X21841316Y-19419968D01*
X21841316Y-19419968D02*
X21849650Y-19429491D01*
X21849650Y-19429491D02*
X21860364Y-19419968D01*
X21860364Y-19419968D02*
X21852031Y-19410444D01*
X21852031Y-19410444D02*
X21849650Y-19429491D01*
X21938935Y-19477110D02*
X21922269Y-19610444D01*
X21936554Y-19496158D02*
X21947269Y-19486634D01*
X21947269Y-19486634D02*
X21967507Y-19477110D01*
X21967507Y-19477110D02*
X21996078Y-19477110D01*
X21996078Y-19477110D02*
X22013935Y-19486634D01*
X22013935Y-19486634D02*
X22021078Y-19505682D01*
X22021078Y-19505682D02*
X22007983Y-19610444D01*
X22205602Y-19477110D02*
X22185364Y-19639015D01*
X22185364Y-19639015D02*
X22173459Y-19658063D01*
X22173459Y-19658063D02*
X22162745Y-19667587D01*
X22162745Y-19667587D02*
X22142507Y-19677110D01*
X22142507Y-19677110D02*
X22113935Y-19677110D01*
X22113935Y-19677110D02*
X22096078Y-19667587D01*
X22190126Y-19600920D02*
X22169888Y-19610444D01*
X22169888Y-19610444D02*
X22131793Y-19610444D01*
X22131793Y-19610444D02*
X22113935Y-19600920D01*
X22113935Y-19600920D02*
X22105602Y-19591396D01*
X22105602Y-19591396D02*
X22098459Y-19572349D01*
X22098459Y-19572349D02*
X22105602Y-19515206D01*
X22105602Y-19515206D02*
X22117507Y-19496158D01*
X22117507Y-19496158D02*
X22128221Y-19486634D01*
X22128221Y-19486634D02*
X22148459Y-19477110D01*
X22148459Y-19477110D02*
X22186554Y-19477110D01*
X22186554Y-19477110D02*
X22204412Y-19486634D01*
X22428221Y-19600920D02*
X22455602Y-19610444D01*
X22455602Y-19610444D02*
X22503221Y-19610444D01*
X22503221Y-19610444D02*
X22523459Y-19600920D01*
X22523459Y-19600920D02*
X22534173Y-19591396D01*
X22534173Y-19591396D02*
X22546078Y-19572349D01*
X22546078Y-19572349D02*
X22548459Y-19553301D01*
X22548459Y-19553301D02*
X22541316Y-19534253D01*
X22541316Y-19534253D02*
X22532983Y-19524730D01*
X22532983Y-19524730D02*
X22515126Y-19515206D01*
X22515126Y-19515206D02*
X22478221Y-19505682D01*
X22478221Y-19505682D02*
X22460364Y-19496158D01*
X22460364Y-19496158D02*
X22452031Y-19486634D01*
X22452031Y-19486634D02*
X22444888Y-19467587D01*
X22444888Y-19467587D02*
X22447269Y-19448539D01*
X22447269Y-19448539D02*
X22459173Y-19429491D01*
X22459173Y-19429491D02*
X22469888Y-19419968D01*
X22469888Y-19419968D02*
X22490126Y-19410444D01*
X22490126Y-19410444D02*
X22537745Y-19410444D01*
X22537745Y-19410444D02*
X22565126Y-19419968D01*
X22624650Y-19477110D02*
X22655602Y-19610444D01*
X22719888Y-19477110D02*
X22655602Y-19610444D01*
X22655602Y-19610444D02*
X22630602Y-19658063D01*
X22630602Y-19658063D02*
X22619888Y-19667587D01*
X22619888Y-19667587D02*
X22599650Y-19677110D01*
X22771078Y-19600920D02*
X22788935Y-19610444D01*
X22788935Y-19610444D02*
X22827031Y-19610444D01*
X22827031Y-19610444D02*
X22847269Y-19600920D01*
X22847269Y-19600920D02*
X22859173Y-19581872D01*
X22859173Y-19581872D02*
X22860364Y-19572349D01*
X22860364Y-19572349D02*
X22853221Y-19553301D01*
X22853221Y-19553301D02*
X22835364Y-19543777D01*
X22835364Y-19543777D02*
X22806793Y-19543777D01*
X22806793Y-19543777D02*
X22788935Y-19534253D01*
X22788935Y-19534253D02*
X22781793Y-19515206D01*
X22781793Y-19515206D02*
X22782983Y-19505682D01*
X22782983Y-19505682D02*
X22794888Y-19486634D01*
X22794888Y-19486634D02*
X22815126Y-19477110D01*
X22815126Y-19477110D02*
X22843697Y-19477110D01*
X22843697Y-19477110D02*
X22861554Y-19486634D01*
X22929412Y-19477110D02*
X23005602Y-19477110D01*
X22966316Y-19410444D02*
X22944888Y-19581872D01*
X22944888Y-19581872D02*
X22952031Y-19600920D01*
X22952031Y-19600920D02*
X22969888Y-19610444D01*
X22969888Y-19610444D02*
X22988935Y-19610444D01*
X23132983Y-19600920D02*
X23112745Y-19610444D01*
X23112745Y-19610444D02*
X23074650Y-19610444D01*
X23074650Y-19610444D02*
X23056793Y-19600920D01*
X23056793Y-19600920D02*
X23049650Y-19581872D01*
X23049650Y-19581872D02*
X23059174Y-19505682D01*
X23059174Y-19505682D02*
X23071078Y-19486634D01*
X23071078Y-19486634D02*
X23091316Y-19477110D01*
X23091316Y-19477110D02*
X23129412Y-19477110D01*
X23129412Y-19477110D02*
X23147269Y-19486634D01*
X23147269Y-19486634D02*
X23154412Y-19505682D01*
X23154412Y-19505682D02*
X23152031Y-19524730D01*
X23152031Y-19524730D02*
X23054412Y-19543777D01*
X23227031Y-19610444D02*
X23243697Y-19477110D01*
X23241316Y-19496158D02*
X23252031Y-19486634D01*
X23252031Y-19486634D02*
X23272269Y-19477110D01*
X23272269Y-19477110D02*
X23300840Y-19477110D01*
X23300840Y-19477110D02*
X23318697Y-19486634D01*
X23318697Y-19486634D02*
X23325840Y-19505682D01*
X23325840Y-19505682D02*
X23312745Y-19610444D01*
X23325840Y-19505682D02*
X23337745Y-19486634D01*
X23337745Y-19486634D02*
X23357983Y-19477110D01*
X23357983Y-19477110D02*
X23386554Y-19477110D01*
X23386554Y-19477110D02*
X23404412Y-19486634D01*
X23404412Y-19486634D02*
X23411554Y-19505682D01*
X23411554Y-19505682D02*
X23398459Y-19610444D01*
D10*
D11*
X16135583Y-19150041D02*
X16085583Y-19150041D01*
X16085583Y-19228613D02*
X16085583Y-19078613D01*
X16085583Y-19078613D02*
X16157011Y-19078613D01*
X16214154Y-19228613D02*
X16214154Y-19128613D01*
X16214154Y-19078613D02*
X16207011Y-19085756D01*
X16207011Y-19085756D02*
X16214154Y-19092899D01*
X16214154Y-19092899D02*
X16221297Y-19085756D01*
X16221297Y-19085756D02*
X16214154Y-19078613D01*
X16214154Y-19078613D02*
X16214154Y-19092899D01*
X16307011Y-19228613D02*
X16292725Y-19221470D01*
X16292725Y-19221470D02*
X16285583Y-19207184D01*
X16285583Y-19207184D02*
X16285583Y-19078613D01*
X16421297Y-19221470D02*
X16407011Y-19228613D01*
X16407011Y-19228613D02*
X16378440Y-19228613D01*
X16378440Y-19228613D02*
X16364154Y-19221470D01*
X16364154Y-19221470D02*
X16357011Y-19207184D01*
X16357011Y-19207184D02*
X16357011Y-19150041D01*
X16357011Y-19150041D02*
X16364154Y-19135756D01*
X16364154Y-19135756D02*
X16378440Y-19128613D01*
X16378440Y-19128613D02*
X16407011Y-19128613D01*
X16407011Y-19128613D02*
X16421297Y-19135756D01*
X16421297Y-19135756D02*
X16428440Y-19150041D01*
X16428440Y-19150041D02*
X16428440Y-19164327D01*
X16428440Y-19164327D02*
X16357011Y-19178613D01*
X16492725Y-19214327D02*
X16499868Y-19221470D01*
X16499868Y-19221470D02*
X16492725Y-19228613D01*
X16492725Y-19228613D02*
X16485583Y-19221470D01*
X16485583Y-19221470D02*
X16492725Y-19214327D01*
X16492725Y-19214327D02*
X16492725Y-19228613D01*
X16492725Y-19135756D02*
X16499868Y-19142899D01*
X16499868Y-19142899D02*
X16492725Y-19150041D01*
X16492725Y-19150041D02*
X16485583Y-19142899D01*
X16485583Y-19142899D02*
X16492725Y-19135756D01*
X16492725Y-19135756D02*
X16492725Y-19150041D01*
X16742725Y-19128613D02*
X16742725Y-19250041D01*
X16742725Y-19250041D02*
X16735583Y-19264327D01*
X16735583Y-19264327D02*
X16728440Y-19271470D01*
X16728440Y-19271470D02*
X16714154Y-19278613D01*
X16714154Y-19278613D02*
X16692725Y-19278613D01*
X16692725Y-19278613D02*
X16678440Y-19271470D01*
X16742725Y-19221470D02*
X16728440Y-19228613D01*
X16728440Y-19228613D02*
X16699868Y-19228613D01*
X16699868Y-19228613D02*
X16685583Y-19221470D01*
X16685583Y-19221470D02*
X16678440Y-19214327D01*
X16678440Y-19214327D02*
X16671297Y-19200041D01*
X16671297Y-19200041D02*
X16671297Y-19157184D01*
X16671297Y-19157184D02*
X16678440Y-19142899D01*
X16678440Y-19142899D02*
X16685583Y-19135756D01*
X16685583Y-19135756D02*
X16699868Y-19128613D01*
X16699868Y-19128613D02*
X16728440Y-19128613D01*
X16728440Y-19128613D02*
X16742725Y-19135756D01*
X16807011Y-19221470D02*
X16821297Y-19228613D01*
X16821297Y-19228613D02*
X16849868Y-19228613D01*
X16849868Y-19228613D02*
X16864154Y-19221470D01*
X16864154Y-19221470D02*
X16871297Y-19207184D01*
X16871297Y-19207184D02*
X16871297Y-19200041D01*
X16871297Y-19200041D02*
X16864154Y-19185756D01*
X16864154Y-19185756D02*
X16849868Y-19178613D01*
X16849868Y-19178613D02*
X16828440Y-19178613D01*
X16828440Y-19178613D02*
X16814154Y-19171470D01*
X16814154Y-19171470D02*
X16807011Y-19157184D01*
X16807011Y-19157184D02*
X16807011Y-19150041D01*
X16807011Y-19150041D02*
X16814154Y-19135756D01*
X16814154Y-19135756D02*
X16828440Y-19128613D01*
X16828440Y-19128613D02*
X16849868Y-19128613D01*
X16849868Y-19128613D02*
X16864154Y-19135756D01*
X16935583Y-19228613D02*
X16935583Y-19078613D01*
X16999868Y-19228613D02*
X16999868Y-19150041D01*
X16999868Y-19150041D02*
X16992726Y-19135756D01*
X16992726Y-19135756D02*
X16978440Y-19128613D01*
X16978440Y-19128613D02*
X16957011Y-19128613D01*
X16957011Y-19128613D02*
X16942726Y-19135756D01*
X16942726Y-19135756D02*
X16935583Y-19142899D01*
X17071297Y-19128613D02*
X17071297Y-19278613D01*
X17071297Y-19135756D02*
X17085583Y-19128613D01*
X17085583Y-19128613D02*
X17114154Y-19128613D01*
X17114154Y-19128613D02*
X17128440Y-19135756D01*
X17128440Y-19135756D02*
X17135583Y-19142899D01*
X17135583Y-19142899D02*
X17142726Y-19157184D01*
X17142726Y-19157184D02*
X17142726Y-19200041D01*
X17142726Y-19200041D02*
X17135583Y-19214327D01*
X17135583Y-19214327D02*
X17128440Y-19221470D01*
X17128440Y-19221470D02*
X17114154Y-19228613D01*
X17114154Y-19228613D02*
X17085583Y-19228613D01*
X17085583Y-19228613D02*
X17071297Y-19221470D01*
X17199868Y-19221470D02*
X17214154Y-19228613D01*
X17214154Y-19228613D02*
X17242726Y-19228613D01*
X17242726Y-19228613D02*
X17257011Y-19221470D01*
X17257011Y-19221470D02*
X17264154Y-19207184D01*
X17264154Y-19207184D02*
X17264154Y-19200041D01*
X17264154Y-19200041D02*
X17257011Y-19185756D01*
X17257011Y-19185756D02*
X17242726Y-19178613D01*
X17242726Y-19178613D02*
X17221297Y-19178613D01*
X17221297Y-19178613D02*
X17207011Y-19171470D01*
X17207011Y-19171470D02*
X17199868Y-19157184D01*
X17199868Y-19157184D02*
X17199868Y-19150041D01*
X17199868Y-19150041D02*
X17207011Y-19135756D01*
X17207011Y-19135756D02*
X17221297Y-19128613D01*
X17221297Y-19128613D02*
X17242726Y-19128613D01*
X17242726Y-19128613D02*
X17257011Y-19135756D01*
X17328440Y-19214327D02*
X17335583Y-19221470D01*
X17335583Y-19221470D02*
X17328440Y-19228613D01*
X17328440Y-19228613D02*
X17321297Y-19221470D01*
X17321297Y-19221470D02*
X17328440Y-19214327D01*
X17328440Y-19214327D02*
X17328440Y-19228613D01*
X17399868Y-19228613D02*
X17399868Y-19078613D01*
X17414154Y-19171470D02*
X17457011Y-19228613D01*
X17457011Y-19128613D02*
X17399868Y-19185756D01*
X17521297Y-19228613D02*
X17521297Y-19128613D01*
X17521297Y-19078613D02*
X17514154Y-19085756D01*
X17514154Y-19085756D02*
X17521297Y-19092899D01*
X17521297Y-19092899D02*
X17528440Y-19085756D01*
X17528440Y-19085756D02*
X17521297Y-19078613D01*
X17521297Y-19078613D02*
X17521297Y-19092899D01*
X17657011Y-19221470D02*
X17642726Y-19228613D01*
X17642726Y-19228613D02*
X17614154Y-19228613D01*
X17614154Y-19228613D02*
X17599869Y-19221470D01*
X17599869Y-19221470D02*
X17592726Y-19214327D01*
X17592726Y-19214327D02*
X17585583Y-19200041D01*
X17585583Y-19200041D02*
X17585583Y-19157184D01*
X17585583Y-19157184D02*
X17592726Y-19142899D01*
X17592726Y-19142899D02*
X17599869Y-19135756D01*
X17599869Y-19135756D02*
X17614154Y-19128613D01*
X17614154Y-19128613D02*
X17642726Y-19128613D01*
X17642726Y-19128613D02*
X17657011Y-19135756D01*
X17785583Y-19228613D02*
X17785583Y-19150041D01*
X17785583Y-19150041D02*
X17778440Y-19135756D01*
X17778440Y-19135756D02*
X17764154Y-19128613D01*
X17764154Y-19128613D02*
X17735583Y-19128613D01*
X17735583Y-19128613D02*
X17721297Y-19135756D01*
X17785583Y-19221470D02*
X17771297Y-19228613D01*
X17771297Y-19228613D02*
X17735583Y-19228613D01*
X17735583Y-19228613D02*
X17721297Y-19221470D01*
X17721297Y-19221470D02*
X17714154Y-19207184D01*
X17714154Y-19207184D02*
X17714154Y-19192899D01*
X17714154Y-19192899D02*
X17721297Y-19178613D01*
X17721297Y-19178613D02*
X17735583Y-19171470D01*
X17735583Y-19171470D02*
X17771297Y-19171470D01*
X17771297Y-19171470D02*
X17785583Y-19164327D01*
X17921297Y-19228613D02*
X17921297Y-19078613D01*
X17921297Y-19221470D02*
X17907011Y-19228613D01*
X17907011Y-19228613D02*
X17878440Y-19228613D01*
X17878440Y-19228613D02*
X17864154Y-19221470D01*
X17864154Y-19221470D02*
X17857011Y-19214327D01*
X17857011Y-19214327D02*
X17849869Y-19200041D01*
X17849869Y-19200041D02*
X17849869Y-19157184D01*
X17849869Y-19157184D02*
X17857011Y-19142899D01*
X17857011Y-19142899D02*
X17864154Y-19135756D01*
X17864154Y-19135756D02*
X17878440Y-19128613D01*
X17878440Y-19128613D02*
X17907011Y-19128613D01*
X17907011Y-19128613D02*
X17921297Y-19135756D01*
X17957011Y-19242899D02*
X18071297Y-19242899D01*
X18107011Y-19128613D02*
X18107011Y-19278613D01*
X18107011Y-19135756D02*
X18121297Y-19128613D01*
X18121297Y-19128613D02*
X18149869Y-19128613D01*
X18149869Y-19128613D02*
X18164154Y-19135756D01*
X18164154Y-19135756D02*
X18171297Y-19142899D01*
X18171297Y-19142899D02*
X18178440Y-19157184D01*
X18178440Y-19157184D02*
X18178440Y-19200041D01*
X18178440Y-19200041D02*
X18171297Y-19214327D01*
X18171297Y-19214327D02*
X18164154Y-19221470D01*
X18164154Y-19221470D02*
X18149869Y-19228613D01*
X18149869Y-19228613D02*
X18121297Y-19228613D01*
X18121297Y-19228613D02*
X18107011Y-19221470D01*
X18307011Y-19221470D02*
X18292726Y-19228613D01*
X18292726Y-19228613D02*
X18264154Y-19228613D01*
X18264154Y-19228613D02*
X18249869Y-19221470D01*
X18249869Y-19221470D02*
X18242726Y-19214327D01*
X18242726Y-19214327D02*
X18235583Y-19200041D01*
X18235583Y-19200041D02*
X18235583Y-19157184D01*
X18235583Y-19157184D02*
X18242726Y-19142899D01*
X18242726Y-19142899D02*
X18249869Y-19135756D01*
X18249869Y-19135756D02*
X18264154Y-19128613D01*
X18264154Y-19128613D02*
X18292726Y-19128613D01*
X18292726Y-19128613D02*
X18307011Y-19135756D01*
X18371297Y-19228613D02*
X18371297Y-19078613D01*
X18371297Y-19135756D02*
X18385583Y-19128613D01*
X18385583Y-19128613D02*
X18414154Y-19128613D01*
X18414154Y-19128613D02*
X18428440Y-19135756D01*
X18428440Y-19135756D02*
X18435583Y-19142899D01*
X18435583Y-19142899D02*
X18442726Y-19157184D01*
X18442726Y-19157184D02*
X18442726Y-19200041D01*
X18442726Y-19200041D02*
X18435583Y-19214327D01*
X18435583Y-19214327D02*
X18428440Y-19221470D01*
X18428440Y-19221470D02*
X18414154Y-19228613D01*
X18414154Y-19228613D02*
X18385583Y-19228613D01*
X18385583Y-19228613D02*
X18371297Y-19221470D01*
D10*
D11*
X15940000Y-18740000D02*
X26740000Y-18740000D01*
D10*
D11*
X16078440Y-18951470D02*
X16099868Y-18958613D01*
X16099868Y-18958613D02*
X16135583Y-18958613D01*
X16135583Y-18958613D02*
X16149868Y-18951470D01*
X16149868Y-18951470D02*
X16157011Y-18944327D01*
X16157011Y-18944327D02*
X16164154Y-18930041D01*
X16164154Y-18930041D02*
X16164154Y-18915756D01*
X16164154Y-18915756D02*
X16157011Y-18901470D01*
X16157011Y-18901470D02*
X16149868Y-18894327D01*
X16149868Y-18894327D02*
X16135583Y-18887184D01*
X16135583Y-18887184D02*
X16107011Y-18880041D01*
X16107011Y-18880041D02*
X16092725Y-18872899D01*
X16092725Y-18872899D02*
X16085583Y-18865756D01*
X16085583Y-18865756D02*
X16078440Y-18851470D01*
X16078440Y-18851470D02*
X16078440Y-18837184D01*
X16078440Y-18837184D02*
X16085583Y-18822899D01*
X16085583Y-18822899D02*
X16092725Y-18815756D01*
X16092725Y-18815756D02*
X16107011Y-18808613D01*
X16107011Y-18808613D02*
X16142725Y-18808613D01*
X16142725Y-18808613D02*
X16164154Y-18815756D01*
X16228440Y-18958613D02*
X16228440Y-18808613D01*
X16292725Y-18958613D02*
X16292725Y-18880041D01*
X16292725Y-18880041D02*
X16285583Y-18865756D01*
X16285583Y-18865756D02*
X16271297Y-18858613D01*
X16271297Y-18858613D02*
X16249868Y-18858613D01*
X16249868Y-18858613D02*
X16235583Y-18865756D01*
X16235583Y-18865756D02*
X16228440Y-18872899D01*
X16421297Y-18951470D02*
X16407011Y-18958613D01*
X16407011Y-18958613D02*
X16378440Y-18958613D01*
X16378440Y-18958613D02*
X16364154Y-18951470D01*
X16364154Y-18951470D02*
X16357011Y-18937184D01*
X16357011Y-18937184D02*
X16357011Y-18880041D01*
X16357011Y-18880041D02*
X16364154Y-18865756D01*
X16364154Y-18865756D02*
X16378440Y-18858613D01*
X16378440Y-18858613D02*
X16407011Y-18858613D01*
X16407011Y-18858613D02*
X16421297Y-18865756D01*
X16421297Y-18865756D02*
X16428440Y-18880041D01*
X16428440Y-18880041D02*
X16428440Y-18894327D01*
X16428440Y-18894327D02*
X16357011Y-18908613D01*
X16549868Y-18951470D02*
X16535583Y-18958613D01*
X16535583Y-18958613D02*
X16507011Y-18958613D01*
X16507011Y-18958613D02*
X16492725Y-18951470D01*
X16492725Y-18951470D02*
X16485583Y-18937184D01*
X16485583Y-18937184D02*
X16485583Y-18880041D01*
X16485583Y-18880041D02*
X16492725Y-18865756D01*
X16492725Y-18865756D02*
X16507011Y-18858613D01*
X16507011Y-18858613D02*
X16535583Y-18858613D01*
X16535583Y-18858613D02*
X16549868Y-18865756D01*
X16549868Y-18865756D02*
X16557011Y-18880041D01*
X16557011Y-18880041D02*
X16557011Y-18894327D01*
X16557011Y-18894327D02*
X16485583Y-18908613D01*
X16599868Y-18858613D02*
X16657011Y-18858613D01*
X16621297Y-18808613D02*
X16621297Y-18937184D01*
X16621297Y-18937184D02*
X16628440Y-18951470D01*
X16628440Y-18951470D02*
X16642725Y-18958613D01*
X16642725Y-18958613D02*
X16657011Y-18958613D01*
X16707011Y-18944327D02*
X16714154Y-18951470D01*
X16714154Y-18951470D02*
X16707011Y-18958613D01*
X16707011Y-18958613D02*
X16699868Y-18951470D01*
X16699868Y-18951470D02*
X16707011Y-18944327D01*
X16707011Y-18944327D02*
X16707011Y-18958613D01*
X16707011Y-18865756D02*
X16714154Y-18872899D01*
X16714154Y-18872899D02*
X16707011Y-18880041D01*
X16707011Y-18880041D02*
X16699868Y-18872899D01*
X16699868Y-18872899D02*
X16707011Y-18865756D01*
X16707011Y-18865756D02*
X16707011Y-18880041D01*
D10*
D12*
X17619451Y-18657813D02*
X17619451Y-18507813D01*
X17619451Y-18507813D02*
X17676594Y-18507813D01*
X17676594Y-18507813D02*
X17690880Y-18514956D01*
X17690880Y-18514956D02*
X17698023Y-18522099D01*
X17698023Y-18522099D02*
X17705165Y-18536384D01*
X17705165Y-18536384D02*
X17705165Y-18557813D01*
X17705165Y-18557813D02*
X17698023Y-18572099D01*
X17698023Y-18572099D02*
X17690880Y-18579241D01*
X17690880Y-18579241D02*
X17676594Y-18586384D01*
X17676594Y-18586384D02*
X17619451Y-18586384D01*
X17833737Y-18657813D02*
X17833737Y-18579241D01*
X17833737Y-18579241D02*
X17826594Y-18564956D01*
X17826594Y-18564956D02*
X17812308Y-18557813D01*
X17812308Y-18557813D02*
X17783737Y-18557813D01*
X17783737Y-18557813D02*
X17769451Y-18564956D01*
X17833737Y-18650670D02*
X17819451Y-18657813D01*
X17819451Y-18657813D02*
X17783737Y-18657813D01*
X17783737Y-18657813D02*
X17769451Y-18650670D01*
X17769451Y-18650670D02*
X17762308Y-18636384D01*
X17762308Y-18636384D02*
X17762308Y-18622099D01*
X17762308Y-18622099D02*
X17769451Y-18607813D01*
X17769451Y-18607813D02*
X17783737Y-18600670D01*
X17783737Y-18600670D02*
X17819451Y-18600670D01*
X17819451Y-18600670D02*
X17833737Y-18593527D01*
X17905165Y-18557813D02*
X17905165Y-18657813D01*
X17905165Y-18572099D02*
X17912308Y-18564956D01*
X17912308Y-18564956D02*
X17926594Y-18557813D01*
X17926594Y-18557813D02*
X17948023Y-18557813D01*
X17948023Y-18557813D02*
X17962308Y-18564956D01*
X17962308Y-18564956D02*
X17969451Y-18579241D01*
X17969451Y-18579241D02*
X17969451Y-18657813D01*
X18019451Y-18557813D02*
X18076594Y-18557813D01*
X18040880Y-18507813D02*
X18040880Y-18636384D01*
X18040880Y-18636384D02*
X18048023Y-18650670D01*
X18048023Y-18650670D02*
X18062308Y-18657813D01*
X18062308Y-18657813D02*
X18076594Y-18657813D01*
X18119451Y-18650670D02*
X18133737Y-18657813D01*
X18133737Y-18657813D02*
X18162308Y-18657813D01*
X18162308Y-18657813D02*
X18176594Y-18650670D01*
X18176594Y-18650670D02*
X18183737Y-18636384D01*
X18183737Y-18636384D02*
X18183737Y-18629241D01*
X18183737Y-18629241D02*
X18176594Y-18614956D01*
X18176594Y-18614956D02*
X18162308Y-18607813D01*
X18162308Y-18607813D02*
X18140880Y-18607813D01*
X18140880Y-18607813D02*
X18126594Y-18600670D01*
X18126594Y-18600670D02*
X18119451Y-18586384D01*
X18119451Y-18586384D02*
X18119451Y-18579241D01*
X18119451Y-18579241D02*
X18126594Y-18564956D01*
X18126594Y-18564956D02*
X18140880Y-18557813D01*
X18140880Y-18557813D02*
X18162308Y-18557813D01*
X18162308Y-18557813D02*
X18176594Y-18564956D01*
X18340880Y-18557813D02*
X18398023Y-18557813D01*
X18362308Y-18657813D02*
X18362308Y-18529241D01*
X18362308Y-18529241D02*
X18369451Y-18514956D01*
X18369451Y-18514956D02*
X18383737Y-18507813D01*
X18383737Y-18507813D02*
X18398023Y-18507813D01*
X18469451Y-18657813D02*
X18455165Y-18650670D01*
X18455165Y-18650670D02*
X18448023Y-18643527D01*
X18448023Y-18643527D02*
X18440880Y-18629241D01*
X18440880Y-18629241D02*
X18440880Y-18586384D01*
X18440880Y-18586384D02*
X18448023Y-18572099D01*
X18448023Y-18572099D02*
X18455165Y-18564956D01*
X18455165Y-18564956D02*
X18469451Y-18557813D01*
X18469451Y-18557813D02*
X18490880Y-18557813D01*
X18490880Y-18557813D02*
X18505165Y-18564956D01*
X18505165Y-18564956D02*
X18512308Y-18572099D01*
X18512308Y-18572099D02*
X18519451Y-18586384D01*
X18519451Y-18586384D02*
X18519451Y-18629241D01*
X18519451Y-18629241D02*
X18512308Y-18643527D01*
X18512308Y-18643527D02*
X18505165Y-18650670D01*
X18505165Y-18650670D02*
X18490880Y-18657813D01*
X18490880Y-18657813D02*
X18469451Y-18657813D01*
X18583737Y-18657813D02*
X18583737Y-18557813D01*
X18583737Y-18586384D02*
X18590880Y-18572099D01*
X18590880Y-18572099D02*
X18598023Y-18564956D01*
X18598023Y-18564956D02*
X18612308Y-18557813D01*
X18612308Y-18557813D02*
X18626594Y-18557813D01*
X18840880Y-18579241D02*
X18862308Y-18586384D01*
X18862308Y-18586384D02*
X18869451Y-18593527D01*
X18869451Y-18593527D02*
X18876594Y-18607813D01*
X18876594Y-18607813D02*
X18876594Y-18629241D01*
X18876594Y-18629241D02*
X18869451Y-18643527D01*
X18869451Y-18643527D02*
X18862308Y-18650670D01*
X18862308Y-18650670D02*
X18848023Y-18657813D01*
X18848023Y-18657813D02*
X18790880Y-18657813D01*
X18790880Y-18657813D02*
X18790880Y-18507813D01*
X18790880Y-18507813D02*
X18840880Y-18507813D01*
X18840880Y-18507813D02*
X18855165Y-18514956D01*
X18855165Y-18514956D02*
X18862308Y-18522099D01*
X18862308Y-18522099D02*
X18869451Y-18536384D01*
X18869451Y-18536384D02*
X18869451Y-18550670D01*
X18869451Y-18550670D02*
X18862308Y-18564956D01*
X18862308Y-18564956D02*
X18855165Y-18572099D01*
X18855165Y-18572099D02*
X18840880Y-18579241D01*
X18840880Y-18579241D02*
X18790880Y-18579241D01*
X18940880Y-18657813D02*
X18940880Y-18557813D01*
X18940880Y-18507813D02*
X18933737Y-18514956D01*
X18933737Y-18514956D02*
X18940880Y-18522099D01*
X18940880Y-18522099D02*
X18948023Y-18514956D01*
X18948023Y-18514956D02*
X18940880Y-18507813D01*
X18940880Y-18507813D02*
X18940880Y-18522099D01*
X19012308Y-18657813D02*
X19012308Y-18557813D01*
X19012308Y-18586384D02*
X19019451Y-18572099D01*
X19019451Y-18572099D02*
X19026594Y-18564956D01*
X19026594Y-18564956D02*
X19040880Y-18557813D01*
X19040880Y-18557813D02*
X19055165Y-18557813D01*
X19169451Y-18657813D02*
X19169451Y-18507813D01*
X19169451Y-18650670D02*
X19155165Y-18657813D01*
X19155165Y-18657813D02*
X19126594Y-18657813D01*
X19126594Y-18657813D02*
X19112308Y-18650670D01*
X19112308Y-18650670D02*
X19105165Y-18643527D01*
X19105165Y-18643527D02*
X19098023Y-18629241D01*
X19098023Y-18629241D02*
X19098023Y-18586384D01*
X19098023Y-18586384D02*
X19105165Y-18572099D01*
X19105165Y-18572099D02*
X19112308Y-18564956D01*
X19112308Y-18564956D02*
X19126594Y-18557813D01*
X19126594Y-18557813D02*
X19155165Y-18557813D01*
X19155165Y-18557813D02*
X19169451Y-18564956D01*
X19233737Y-18650670D02*
X19248023Y-18657813D01*
X19248023Y-18657813D02*
X19276594Y-18657813D01*
X19276594Y-18657813D02*
X19290880Y-18650670D01*
X19290880Y-18650670D02*
X19298023Y-18636384D01*
X19298023Y-18636384D02*
X19298023Y-18629241D01*
X19298023Y-18629241D02*
X19290880Y-18614956D01*
X19290880Y-18614956D02*
X19276594Y-18607813D01*
X19276594Y-18607813D02*
X19255165Y-18607813D01*
X19255165Y-18607813D02*
X19240880Y-18600670D01*
X19240880Y-18600670D02*
X19233737Y-18586384D01*
X19233737Y-18586384D02*
X19233737Y-18579241D01*
X19233737Y-18579241D02*
X19240880Y-18564956D01*
X19240880Y-18564956D02*
X19255165Y-18557813D01*
X19255165Y-18557813D02*
X19276594Y-18557813D01*
X19276594Y-18557813D02*
X19290880Y-18564956D01*
D10*
D11*
X17940000Y-19740000D02*
X17940000Y-20040000D01*
D10*
D11*
X24340000Y-19740000D02*
X24340000Y-20390000D01*
D10*
D11*
X17441100Y-17199780D02*
X17441100Y-18739780D01*
D14*
X4300000Y-5900000D02*
X6350000Y-5900000D01*
X10750000Y-2350000D02*
G75*
G02*
X11850000Y-3450000I0J-1100000D01*
G01*
X11850000Y-6750000D02*
G75*
G02*
X10750000Y-7850000I-1100000J0D01*
G01*
X3700000Y-5100000D02*
X3700000Y-3450000D01*
X3450000Y-3400000D02*
X3650000Y-3400000D01*
X3950000Y-7850000D02*
G75*
G02*
X2850000Y-6750000I0J1100000D01*
G01*
X4100000Y-7850000D02*
X4100000Y-6100000D01*
X3400000Y-3450000D02*
X3400000Y-5100000D01*
X3450000Y-5150000D02*
X3650000Y-5150000D01*
X3650000Y-3400000D02*
G75*
G02*
X3700000Y-3450000I0J-50000D01*
G01*
X3700000Y-5100000D02*
G75*
G02*
X3650000Y-5150000I-50000J0D01*
G01*
X4100000Y-6100000D02*
G75*
G02*
X4300000Y-5900000I200000J0D01*
G01*
X10750000Y-7850000D02*
X6550000Y-7850000D01*
X3950000Y-2350000D02*
X10750000Y-2350000D01*
X3400000Y-3450000D02*
G75*
G02*
X3450000Y-3400000I50000J0D01*
G01*
X4100000Y-7850000D02*
X3950000Y-7850000D01*
X3450000Y-5150000D02*
G75*
G02*
X3400000Y-5100000I0J50000D01*
G01*
X2850000Y-6750000D02*
X2850000Y-3450000D01*
X6550000Y-7850000D02*
X6550000Y-6100000D01*
X2850000Y-3450000D02*
G75*
G02*
X3950000Y-2350000I1100000J0D01*
G01*
X6350000Y-5900000D02*
G75*
G02*
X6550000Y-6100000I0J-200000D01*
G01*
X11850000Y-3450000D02*
X11850000Y-6750000D01*
D11*
X8401084Y-6242220D02*
X8386798Y-6246982D01*
X8386798Y-6246982D02*
X8362989Y-6246982D01*
X8362989Y-6246982D02*
X8353465Y-6242220D01*
X8353465Y-6242220D02*
X8348703Y-6237458D01*
X8348703Y-6237458D02*
X8343941Y-6227934D01*
X8343941Y-6227934D02*
X8343941Y-6218410D01*
X8343941Y-6218410D02*
X8348703Y-6208887D01*
X8348703Y-6208887D02*
X8353465Y-6204125D01*
X8353465Y-6204125D02*
X8362989Y-6199363D01*
X8362989Y-6199363D02*
X8382036Y-6194601D01*
X8382036Y-6194601D02*
X8391560Y-6189839D01*
X8391560Y-6189839D02*
X8396322Y-6185077D01*
X8396322Y-6185077D02*
X8401084Y-6175553D01*
X8401084Y-6175553D02*
X8401084Y-6166029D01*
X8401084Y-6166029D02*
X8396322Y-6156506D01*
X8396322Y-6156506D02*
X8391560Y-6151744D01*
X8391560Y-6151744D02*
X8382036Y-6146982D01*
X8382036Y-6146982D02*
X8358227Y-6146982D01*
X8358227Y-6146982D02*
X8343941Y-6151744D01*
X11236322Y-3578887D02*
X11160132Y-3578887D01*
X11198227Y-3616982D02*
X11198227Y-3540791D01*
X8826322Y-6548887D02*
X8750132Y-6548887D01*
X8788227Y-6586982D02*
X8788227Y-6510791D01*
X8712036Y-6486982D02*
X8650132Y-6486982D01*
X8650132Y-6486982D02*
X8683465Y-6525077D01*
X8683465Y-6525077D02*
X8669179Y-6525077D01*
X8669179Y-6525077D02*
X8659655Y-6529839D01*
X8659655Y-6529839D02*
X8654894Y-6534601D01*
X8654894Y-6534601D02*
X8650132Y-6544125D01*
X8650132Y-6544125D02*
X8650132Y-6567934D01*
X8650132Y-6567934D02*
X8654894Y-6577458D01*
X8654894Y-6577458D02*
X8659655Y-6582220D01*
X8659655Y-6582220D02*
X8669179Y-6586982D01*
X8669179Y-6586982D02*
X8697751Y-6586982D01*
X8697751Y-6586982D02*
X8707274Y-6582220D01*
X8707274Y-6582220D02*
X8712036Y-6577458D01*
X8621560Y-6486982D02*
X8588227Y-6586982D01*
X8588227Y-6586982D02*
X8554894Y-6486982D01*
X8531084Y-6486982D02*
X8469179Y-6486982D01*
X8469179Y-6486982D02*
X8502513Y-6525077D01*
X8502513Y-6525077D02*
X8488227Y-6525077D01*
X8488227Y-6525077D02*
X8478703Y-6529839D01*
X8478703Y-6529839D02*
X8473941Y-6534601D01*
X8473941Y-6534601D02*
X8469179Y-6544125D01*
X8469179Y-6544125D02*
X8469179Y-6567934D01*
X8469179Y-6567934D02*
X8473941Y-6577458D01*
X8473941Y-6577458D02*
X8478703Y-6582220D01*
X8478703Y-6582220D02*
X8488227Y-6586982D01*
X8488227Y-6586982D02*
X8516798Y-6586982D01*
X8516798Y-6586982D02*
X8526322Y-6582220D01*
X8526322Y-6582220D02*
X8531084Y-6577458D01*
D15*
G36*
X10888790Y-4092912D02*
G01*
X10893731Y-4093932D01*
X10898763Y-4095931D01*
X10903139Y-4098818D01*
X10904130Y-4099679D01*
X10907529Y-4103536D01*
X10909956Y-4108001D01*
X10911412Y-4113074D01*
X10911890Y-4118011D01*
X10911897Y-4118754D01*
X10911523Y-4123710D01*
X10910180Y-4128819D01*
X10907860Y-4133335D01*
X10904563Y-4137259D01*
X10904082Y-4137708D01*
X10899846Y-4140817D01*
X10894977Y-4143038D01*
X10890200Y-4144253D01*
X10884938Y-4144787D01*
X10883345Y-4144815D01*
X10877912Y-4144475D01*
X10872981Y-4143455D01*
X10867961Y-4141456D01*
X10863598Y-4138568D01*
X10862609Y-4137708D01*
X10859211Y-4133858D01*
X10856784Y-4129415D01*
X10855328Y-4124381D01*
X10854850Y-4119490D01*
X10854842Y-4118754D01*
X10855210Y-4113751D01*
X10856533Y-4108602D01*
X10858817Y-4104061D01*
X10862063Y-4100128D01*
X10862536Y-4099679D01*
X10866712Y-4096569D01*
X10871573Y-4094348D01*
X10876387Y-4093134D01*
X10881724Y-4092599D01*
X10883345Y-4092571D01*
X10888790Y-4092912D01*
G37*
G36*
X10878290Y-4022816D02*
G01*
X10877753Y-4027744D01*
X10875622Y-4032250D01*
X10875041Y-4032903D01*
X10870806Y-4035514D01*
X10865809Y-4036249D01*
X10860795Y-4035514D01*
X10856552Y-4032903D01*
X10853998Y-4028402D01*
X10853282Y-4023235D01*
X10853279Y-4022816D01*
X10853279Y-4009920D01*
X10878290Y-4009920D01*
X10878290Y-4022816D01*
G37*
G36*
X10944893Y-4180277D02*
G01*
X10818721Y-4180277D01*
X10818721Y-4118828D01*
X10832958Y-4118828D01*
X10833185Y-4123957D01*
X10833865Y-4128921D01*
X10834998Y-4133720D01*
X10836585Y-4138355D01*
X10838625Y-4142824D01*
X10839406Y-4144278D01*
X10842002Y-4148446D01*
X10845480Y-4152870D01*
X10849441Y-4156822D01*
X10853886Y-4160302D01*
X10857358Y-4162498D01*
X10861775Y-4164764D01*
X10866398Y-4166561D01*
X10871227Y-4167890D01*
X10876262Y-4168749D01*
X10881504Y-4169140D01*
X10883297Y-4169166D01*
X10888609Y-4168929D01*
X10893721Y-4168218D01*
X10898632Y-4167033D01*
X10903341Y-4165374D01*
X10907850Y-4163241D01*
X10909308Y-4162425D01*
X10913470Y-4159738D01*
X10917868Y-4156178D01*
X10921776Y-4152159D01*
X10925193Y-4147682D01*
X10927334Y-4144204D01*
X10929525Y-4139815D01*
X10931508Y-4134478D01*
X10932717Y-4129720D01*
X10933473Y-4124792D01*
X10933775Y-4119694D01*
X10933782Y-4118828D01*
X10933555Y-4113706D01*
X10932875Y-4108746D01*
X10931741Y-4103947D01*
X10930155Y-4099309D01*
X10928114Y-4094834D01*
X10927334Y-4093377D01*
X10924735Y-4089212D01*
X10921248Y-4084773D01*
X10917270Y-4080787D01*
X10912801Y-4077256D01*
X10909308Y-4075010D01*
X10904867Y-4072703D01*
X10900224Y-4070873D01*
X10895380Y-4069520D01*
X10890335Y-4068645D01*
X10885090Y-4068247D01*
X10883297Y-4068220D01*
X10877987Y-4068459D01*
X10872883Y-4069175D01*
X10867985Y-4070369D01*
X10863293Y-4072040D01*
X10858807Y-4074188D01*
X10857358Y-4075010D01*
X10853222Y-4077732D01*
X10848846Y-4081329D01*
X10844953Y-4085379D01*
X10841545Y-4089883D01*
X10839406Y-4093377D01*
X10837215Y-4097800D01*
X10835477Y-4102383D01*
X10834192Y-4107128D01*
X10833361Y-4112035D01*
X10832983Y-4117102D01*
X10832959Y-4118754D01*
X10832958Y-4118828D01*
X10818721Y-4118828D01*
X10818721Y-4022816D01*
X10834521Y-4022816D01*
X10834521Y-4024428D01*
X10834714Y-4029404D01*
X10835407Y-4034665D01*
X10836603Y-4039471D01*
X10838551Y-4044333D01*
X10841060Y-4048586D01*
X10844413Y-4052554D01*
X10848363Y-4055725D01*
X10849664Y-4056521D01*
X10854296Y-4058672D01*
X10859339Y-4060026D01*
X10864227Y-4060564D01*
X10865931Y-4060600D01*
X10871085Y-4060218D01*
X10875953Y-4059074D01*
X10880534Y-4057165D01*
X10881416Y-4056692D01*
X10885535Y-4053855D01*
X10889129Y-4050197D01*
X10892198Y-4045718D01*
X10892749Y-4044724D01*
X10894827Y-4039870D01*
X10896103Y-4035039D01*
X10896842Y-4029722D01*
X10897047Y-4024672D01*
X10897047Y-4009920D01*
X10933000Y-4009920D01*
X10933000Y-3985569D01*
X10834521Y-3985569D01*
X10834521Y-4022816D01*
X10818721Y-4022816D01*
X10818721Y-3968691D01*
X10834521Y-3968691D01*
X10933000Y-3968691D01*
X10933000Y-3944340D01*
X10834521Y-3944340D01*
X10834521Y-3968691D01*
X10818721Y-3968691D01*
X10818721Y-3901964D01*
X10833740Y-3901964D01*
X10914242Y-3901964D01*
X10914242Y-3933105D01*
X10933000Y-3933105D01*
X10933000Y-3877613D01*
X10833740Y-3877613D01*
X10833740Y-3901964D01*
X10818721Y-3901964D01*
X10818721Y-3794644D01*
X10832958Y-3794644D01*
X10833146Y-3799565D01*
X10833867Y-3805063D01*
X10835129Y-3810116D01*
X10836933Y-3814724D01*
X10839720Y-3819538D01*
X10840652Y-3820802D01*
X10844308Y-3824666D01*
X10848543Y-3827581D01*
X10853358Y-3829547D01*
X10858753Y-3830564D01*
X10862096Y-3830719D01*
X10862096Y-3805708D01*
X10857313Y-3804657D01*
X10854500Y-3802387D01*
X10852249Y-3798039D01*
X10851716Y-3793814D01*
X10852622Y-3788894D01*
X10854036Y-3786584D01*
X10858432Y-3784042D01*
X10860729Y-3783824D01*
X10865469Y-3785238D01*
X10868227Y-3788294D01*
X10870462Y-3792752D01*
X10872281Y-3797305D01*
X10873991Y-3802240D01*
X10875797Y-3807302D01*
X10877754Y-3812265D01*
X10879846Y-3816920D01*
X10880219Y-3817676D01*
X10882813Y-3821901D01*
X10886163Y-3825672D01*
X10888816Y-3827934D01*
X10893068Y-3830410D01*
X10898099Y-3831857D01*
X10903349Y-3832282D01*
X10908480Y-3831867D01*
X10913311Y-3830622D01*
X10917842Y-3828547D01*
X10918712Y-3828032D01*
X10922755Y-3825001D01*
X10926245Y-3821222D01*
X10929182Y-3816693D01*
X10929703Y-3815698D01*
X10931674Y-3810932D01*
X10933001Y-3805703D01*
X10933638Y-3800665D01*
X10933782Y-3796647D01*
X10933565Y-3791435D01*
X10932915Y-3786499D01*
X10931665Y-3781273D01*
X10930313Y-3777449D01*
X10928100Y-3772951D01*
X10925024Y-3768582D01*
X10921299Y-3764876D01*
X10920055Y-3763894D01*
X10915524Y-3761215D01*
X10910450Y-3759528D01*
X10905417Y-3758858D01*
X10903642Y-3758814D01*
X10903642Y-3783677D01*
X10908533Y-3784941D01*
X10912117Y-3787561D01*
X10914467Y-3791904D01*
X10915024Y-3796158D01*
X10914407Y-3801031D01*
X10912557Y-3804756D01*
X10908509Y-3807556D01*
X10905742Y-3807931D01*
X10900939Y-3806543D01*
X10899661Y-3805464D01*
X10896662Y-3801337D01*
X10895729Y-3799407D01*
X10893951Y-3794749D01*
X10892433Y-3790016D01*
X10892187Y-3789197D01*
X10890525Y-3784102D01*
X10888678Y-3779088D01*
X10886646Y-3774361D01*
X10886276Y-3773590D01*
X10883650Y-3769299D01*
X10880240Y-3765475D01*
X10877532Y-3763186D01*
X10873134Y-3760696D01*
X10868410Y-3759330D01*
X10862993Y-3758818D01*
X10862414Y-3758814D01*
X10857449Y-3759162D01*
X10852189Y-3760450D01*
X10847502Y-3762687D01*
X10843387Y-3765873D01*
X10840798Y-3768730D01*
X10837743Y-3773368D01*
X10835439Y-3778583D01*
X10834061Y-3783512D01*
X10833234Y-3788866D01*
X10832958Y-3794644D01*
X10818721Y-3794644D01*
X10818721Y-3741546D01*
X10829832Y-3741546D01*
X10933000Y-3741546D01*
X10933000Y-3717195D01*
X10851716Y-3717195D01*
X10851716Y-3703126D01*
X10829832Y-3703126D01*
X10829832Y-3741546D01*
X10818721Y-3741546D01*
X10818721Y-3692015D01*
X10944893Y-3692015D01*
X10944893Y-4180277D01*
G37*
D11*
X8673941Y-6651744D02*
X8683465Y-6646982D01*
X8683465Y-6646982D02*
X8697751Y-6646982D01*
X8697751Y-6646982D02*
X8712036Y-6651744D01*
X8712036Y-6651744D02*
X8721560Y-6661268D01*
X8721560Y-6661268D02*
X8726322Y-6670791D01*
X8726322Y-6670791D02*
X8731084Y-6689839D01*
X8731084Y-6689839D02*
X8731084Y-6704125D01*
X8731084Y-6704125D02*
X8726322Y-6723172D01*
X8726322Y-6723172D02*
X8721560Y-6732696D01*
X8721560Y-6732696D02*
X8712036Y-6742220D01*
X8712036Y-6742220D02*
X8697751Y-6746982D01*
X8697751Y-6746982D02*
X8688227Y-6746982D01*
X8688227Y-6746982D02*
X8673941Y-6742220D01*
X8673941Y-6742220D02*
X8669179Y-6737458D01*
X8669179Y-6737458D02*
X8669179Y-6704125D01*
X8669179Y-6704125D02*
X8688227Y-6704125D01*
X8626322Y-6746982D02*
X8626322Y-6646982D01*
X8626322Y-6646982D02*
X8569179Y-6746982D01*
X8569179Y-6746982D02*
X8569179Y-6646982D01*
X8521560Y-6746982D02*
X8521560Y-6646982D01*
X8521560Y-6646982D02*
X8497751Y-6646982D01*
X8497751Y-6646982D02*
X8483465Y-6651744D01*
X8483465Y-6651744D02*
X8473941Y-6661268D01*
X8473941Y-6661268D02*
X8469179Y-6670791D01*
X8469179Y-6670791D02*
X8464417Y-6689839D01*
X8464417Y-6689839D02*
X8464417Y-6704125D01*
X8464417Y-6704125D02*
X8469179Y-6723172D01*
X8469179Y-6723172D02*
X8473941Y-6732696D01*
X8473941Y-6732696D02*
X8483465Y-6742220D01*
X8483465Y-6742220D02*
X8497751Y-6746982D01*
X8497751Y-6746982D02*
X8521560Y-6746982D01*
D15*
G36*
X8324553Y-6875210D02*
G01*
X8329702Y-6876533D01*
X8334243Y-6878817D01*
X8338176Y-6882062D01*
X8338625Y-6882536D01*
X8341735Y-6886712D01*
X8343956Y-6891573D01*
X8345170Y-6896387D01*
X8345705Y-6901724D01*
X8345733Y-6903345D01*
X8345393Y-6908789D01*
X8344372Y-6913731D01*
X8342373Y-6918763D01*
X8339486Y-6923139D01*
X8338625Y-6924130D01*
X8334768Y-6927528D01*
X8330303Y-6929956D01*
X8325230Y-6931412D01*
X8320293Y-6931890D01*
X8319550Y-6931897D01*
X8314594Y-6931523D01*
X8309486Y-6930180D01*
X8304969Y-6927860D01*
X8301045Y-6924562D01*
X8300597Y-6924082D01*
X8297487Y-6919845D01*
X8295266Y-6914977D01*
X8294051Y-6910199D01*
X8293517Y-6904938D01*
X8293489Y-6903345D01*
X8293829Y-6897912D01*
X8294849Y-6892981D01*
X8296848Y-6887961D01*
X8299736Y-6883597D01*
X8300597Y-6882609D01*
X8304446Y-6879211D01*
X8308889Y-6876784D01*
X8313923Y-6875328D01*
X8318814Y-6874850D01*
X8319550Y-6874842D01*
X8324553Y-6875210D01*
G37*
G36*
X8534484Y-6898290D02*
G01*
X8519707Y-6898290D01*
X8514589Y-6897700D01*
X8510072Y-6895401D01*
X8509864Y-6895212D01*
X8507218Y-6890903D01*
X8506591Y-6886419D01*
X8507515Y-6881351D01*
X8509864Y-6877944D01*
X8514272Y-6875524D01*
X8519299Y-6874845D01*
X8519707Y-6874842D01*
X8534484Y-6874842D01*
X8534484Y-6898290D01*
G37*
G36*
X8734858Y-6964893D02*
G01*
X8258027Y-6964893D01*
X8258027Y-6903296D01*
X8269138Y-6903296D01*
X8269140Y-6903345D01*
X8269375Y-6908609D01*
X8270086Y-6913721D01*
X8271271Y-6918631D01*
X8272930Y-6923341D01*
X8275063Y-6927850D01*
X8275879Y-6929308D01*
X8278566Y-6933469D01*
X8282127Y-6937868D01*
X8286145Y-6941776D01*
X8290622Y-6945193D01*
X8294100Y-6947333D01*
X8298489Y-6949525D01*
X8303826Y-6951508D01*
X8308584Y-6952717D01*
X8313512Y-6953473D01*
X8318610Y-6953775D01*
X8319477Y-6953781D01*
X8324598Y-6953555D01*
X8329558Y-6952875D01*
X8334357Y-6951741D01*
X8338995Y-6950154D01*
X8343471Y-6948114D01*
X8344927Y-6947333D01*
X8349092Y-6944735D01*
X8353531Y-6941248D01*
X8357517Y-6937270D01*
X8361049Y-6932801D01*
X8363294Y-6929308D01*
X8365601Y-6924866D01*
X8367431Y-6920224D01*
X8368784Y-6915380D01*
X8369659Y-6910335D01*
X8370057Y-6905090D01*
X8370084Y-6903296D01*
X8369845Y-6897986D01*
X8369129Y-6892883D01*
X8367935Y-6887985D01*
X8366264Y-6883293D01*
X8364116Y-6878807D01*
X8363294Y-6877358D01*
X8360572Y-6873222D01*
X8356975Y-6868845D01*
X8352925Y-6864953D01*
X8348421Y-6861544D01*
X8344927Y-6859406D01*
X8340504Y-6857215D01*
X8335921Y-6855477D01*
X8331176Y-6854192D01*
X8328504Y-6853740D01*
X8376019Y-6853740D01*
X8410872Y-6953000D01*
X8440841Y-6953000D01*
X8481385Y-6953000D01*
X8508398Y-6953000D01*
X8528768Y-6915484D01*
X8534484Y-6915484D01*
X8534484Y-6953000D01*
X8558835Y-6953000D01*
X8558835Y-6873279D01*
X8574368Y-6873279D01*
X8610199Y-6873279D01*
X8610199Y-6893600D01*
X8578276Y-6893600D01*
X8578276Y-6912358D01*
X8610199Y-6912358D01*
X8610199Y-6934242D01*
X8574368Y-6934242D01*
X8574368Y-6953000D01*
X8634550Y-6953000D01*
X8634550Y-6923349D01*
X8650279Y-6923349D01*
X8650694Y-6928480D01*
X8651939Y-6933311D01*
X8654014Y-6937842D01*
X8654529Y-6938712D01*
X8657560Y-6942755D01*
X8661339Y-6946245D01*
X8665868Y-6949182D01*
X8666863Y-6949703D01*
X8671629Y-6951674D01*
X8676858Y-6953001D01*
X8681896Y-6953638D01*
X8685914Y-6953781D01*
X8691126Y-6953565D01*
X8696062Y-6952914D01*
X8701288Y-6951665D01*
X8705112Y-6950313D01*
X8709610Y-6948100D01*
X8713979Y-6945024D01*
X8717685Y-6941299D01*
X8718667Y-6940055D01*
X8721346Y-6935524D01*
X8723033Y-6930449D01*
X8723703Y-6925417D01*
X8723747Y-6923642D01*
X8698883Y-6923642D01*
X8697620Y-6928533D01*
X8695000Y-6932117D01*
X8690657Y-6934467D01*
X8686403Y-6935024D01*
X8681530Y-6934407D01*
X8677805Y-6932557D01*
X8675005Y-6928509D01*
X8674630Y-6925742D01*
X8676018Y-6920938D01*
X8677097Y-6919661D01*
X8681224Y-6916662D01*
X8683154Y-6915728D01*
X8687812Y-6913950D01*
X8692545Y-6912433D01*
X8693364Y-6912187D01*
X8698459Y-6910525D01*
X8703473Y-6908677D01*
X8708200Y-6906646D01*
X8708971Y-6906276D01*
X8713262Y-6903650D01*
X8717086Y-6900240D01*
X8719375Y-6897532D01*
X8721865Y-6893134D01*
X8723231Y-6888410D01*
X8723743Y-6882993D01*
X8723747Y-6882414D01*
X8723399Y-6877449D01*
X8722111Y-6872189D01*
X8719874Y-6867502D01*
X8716688Y-6863387D01*
X8713831Y-6860798D01*
X8709193Y-6857743D01*
X8703978Y-6855439D01*
X8699049Y-6854061D01*
X8693695Y-6853234D01*
X8687917Y-6852958D01*
X8682996Y-6853146D01*
X8677498Y-6853867D01*
X8672445Y-6855129D01*
X8667837Y-6856933D01*
X8663023Y-6859720D01*
X8661759Y-6860652D01*
X8657895Y-6864307D01*
X8654980Y-6868543D01*
X8653014Y-6873358D01*
X8651997Y-6878753D01*
X8651842Y-6882096D01*
X8676853Y-6882096D01*
X8677904Y-6877313D01*
X8680174Y-6874500D01*
X8684522Y-6872249D01*
X8688747Y-6871716D01*
X8693667Y-6872622D01*
X8695977Y-6874036D01*
X8698519Y-6878432D01*
X8698737Y-6880728D01*
X8697323Y-6885469D01*
X8694267Y-6888227D01*
X8689809Y-6890462D01*
X8685256Y-6892281D01*
X8680321Y-6893991D01*
X8675259Y-6895797D01*
X8670296Y-6897754D01*
X8665641Y-6899846D01*
X8664885Y-6900219D01*
X8660660Y-6902813D01*
X8656889Y-6906163D01*
X8654627Y-6908816D01*
X8652151Y-6913068D01*
X8650704Y-6918099D01*
X8650279Y-6923349D01*
X8634550Y-6923349D01*
X8634550Y-6854521D01*
X8574368Y-6854521D01*
X8574368Y-6873279D01*
X8558835Y-6873279D01*
X8558835Y-6853984D01*
X8518510Y-6853984D01*
X8513567Y-6854179D01*
X8508322Y-6854880D01*
X8503507Y-6856091D01*
X8498604Y-6858063D01*
X8494305Y-6860597D01*
X8490302Y-6863974D01*
X8487116Y-6867943D01*
X8486319Y-6869249D01*
X8484168Y-6873838D01*
X8482814Y-6878752D01*
X8482256Y-6883989D01*
X8482240Y-6885076D01*
X8482350Y-6886419D01*
X8482679Y-6890446D01*
X8483994Y-6895485D01*
X8486187Y-6900191D01*
X8487784Y-6902661D01*
X8491305Y-6906649D01*
X8495656Y-6909930D01*
X8500221Y-6912253D01*
X8504075Y-6913628D01*
X8481385Y-6953000D01*
X8440841Y-6953000D01*
X8475694Y-6853740D01*
X8450220Y-6853740D01*
X8425869Y-6928673D01*
X8401371Y-6853740D01*
X8376019Y-6853740D01*
X8328504Y-6853740D01*
X8326270Y-6853361D01*
X8321202Y-6852983D01*
X8319477Y-6852958D01*
X8314347Y-6853185D01*
X8309383Y-6853865D01*
X8304584Y-6854998D01*
X8299949Y-6856585D01*
X8295480Y-6858625D01*
X8294026Y-6859406D01*
X8289858Y-6862002D01*
X8285434Y-6865479D01*
X8281482Y-6869441D01*
X8278002Y-6873886D01*
X8275806Y-6877358D01*
X8273540Y-6881775D01*
X8271743Y-6886398D01*
X8270414Y-6891227D01*
X8269555Y-6896262D01*
X8269164Y-6901504D01*
X8269138Y-6903296D01*
X8258027Y-6903296D01*
X8258027Y-6841847D01*
X8734858Y-6841847D01*
X8734858Y-6964893D01*
G37*
G36*
X8666270Y-7278290D02*
G01*
X8651493Y-7278290D01*
X8646376Y-7277700D01*
X8641858Y-7275401D01*
X8641650Y-7275212D01*
X8639004Y-7270903D01*
X8638378Y-7266419D01*
X8639301Y-7261351D01*
X8641650Y-7257944D01*
X8646058Y-7255524D01*
X8651086Y-7254845D01*
X8651493Y-7254842D01*
X8666270Y-7254842D01*
X8666270Y-7278290D01*
G37*
G36*
X8701732Y-7344893D02*
G01*
X8280417Y-7344893D01*
X8280417Y-7253279D01*
X8291528Y-7253279D01*
X8318102Y-7253279D01*
X8318102Y-7333000D01*
X8342453Y-7333000D01*
X8342453Y-7253279D01*
X8368123Y-7253279D01*
X8377404Y-7253279D01*
X8413234Y-7253279D01*
X8413234Y-7273600D01*
X8381312Y-7273600D01*
X8381312Y-7292358D01*
X8413234Y-7292358D01*
X8413234Y-7314242D01*
X8377404Y-7314242D01*
X8377404Y-7333000D01*
X8437585Y-7333000D01*
X8437585Y-7303349D01*
X8453315Y-7303349D01*
X8453730Y-7308480D01*
X8454975Y-7313311D01*
X8457050Y-7317842D01*
X8457565Y-7318712D01*
X8460595Y-7322755D01*
X8464375Y-7326245D01*
X8468903Y-7329182D01*
X8469899Y-7329703D01*
X8474664Y-7331674D01*
X8479894Y-7333001D01*
X8484931Y-7333638D01*
X8488950Y-7333781D01*
X8494161Y-7333565D01*
X8499098Y-7332914D01*
X8504323Y-7331665D01*
X8508147Y-7330313D01*
X8512646Y-7328100D01*
X8517015Y-7325024D01*
X8520720Y-7321299D01*
X8521703Y-7320055D01*
X8524382Y-7315524D01*
X8526069Y-7310449D01*
X8526738Y-7305417D01*
X8526783Y-7303642D01*
X8501919Y-7303642D01*
X8500655Y-7308533D01*
X8498036Y-7312117D01*
X8493692Y-7314467D01*
X8489438Y-7315024D01*
X8484566Y-7314407D01*
X8480841Y-7312557D01*
X8478041Y-7308509D01*
X8477666Y-7305742D01*
X8479053Y-7300938D01*
X8480133Y-7299661D01*
X8484259Y-7296662D01*
X8486190Y-7295728D01*
X8490847Y-7293950D01*
X8495581Y-7292433D01*
X8496399Y-7292187D01*
X8501495Y-7290525D01*
X8506508Y-7288677D01*
X8511235Y-7286646D01*
X8512006Y-7286276D01*
X8516297Y-7283650D01*
X8520121Y-7280240D01*
X8522411Y-7277532D01*
X8524900Y-7273134D01*
X8526266Y-7268410D01*
X8526779Y-7262993D01*
X8526783Y-7262414D01*
X8526434Y-7257449D01*
X8525413Y-7253279D01*
X8539191Y-7253279D01*
X8575021Y-7253279D01*
X8575021Y-7273600D01*
X8543098Y-7273600D01*
X8543098Y-7292358D01*
X8575021Y-7292358D01*
X8575021Y-7314242D01*
X8539191Y-7314242D01*
X8539191Y-7333000D01*
X8599372Y-7333000D01*
X8613172Y-7333000D01*
X8640185Y-7333000D01*
X8660555Y-7295484D01*
X8666270Y-7295484D01*
X8666270Y-7333000D01*
X8690621Y-7333000D01*
X8690621Y-7233984D01*
X8650297Y-7233984D01*
X8645354Y-7234179D01*
X8640108Y-7234880D01*
X8635293Y-7236091D01*
X8630391Y-7238063D01*
X8626091Y-7240597D01*
X8622089Y-7243974D01*
X8618902Y-7247943D01*
X8618105Y-7249249D01*
X8615954Y-7253838D01*
X8614600Y-7258752D01*
X8614042Y-7263989D01*
X8614027Y-7265076D01*
X8614136Y-7266419D01*
X8614465Y-7270446D01*
X8615781Y-7275485D01*
X8617974Y-7280191D01*
X8619571Y-7282661D01*
X8623091Y-7286649D01*
X8627442Y-7289930D01*
X8632007Y-7292253D01*
X8635862Y-7293628D01*
X8613172Y-7333000D01*
X8599372Y-7333000D01*
X8599372Y-7234521D01*
X8539191Y-7234521D01*
X8539191Y-7253279D01*
X8525413Y-7253279D01*
X8525146Y-7252189D01*
X8522909Y-7247502D01*
X8519723Y-7243387D01*
X8516867Y-7240798D01*
X8512229Y-7237743D01*
X8507014Y-7235439D01*
X8502084Y-7234061D01*
X8496731Y-7233234D01*
X8490953Y-7232958D01*
X8486031Y-7233146D01*
X8480534Y-7233867D01*
X8475481Y-7235129D01*
X8470872Y-7236933D01*
X8466058Y-7239720D01*
X8464794Y-7240652D01*
X8460930Y-7244307D01*
X8458015Y-7248543D01*
X8456050Y-7253358D01*
X8455033Y-7258753D01*
X8454878Y-7262096D01*
X8479888Y-7262096D01*
X8480939Y-7257313D01*
X8483210Y-7254500D01*
X8487557Y-7252249D01*
X8491783Y-7251716D01*
X8496702Y-7252622D01*
X8499013Y-7254036D01*
X8501554Y-7258432D01*
X8501773Y-7260728D01*
X8500358Y-7265469D01*
X8497303Y-7268227D01*
X8492845Y-7270462D01*
X8488291Y-7272281D01*
X8483357Y-7273991D01*
X8478294Y-7275797D01*
X8473331Y-7277754D01*
X8468676Y-7279846D01*
X8467920Y-7280219D01*
X8463696Y-7282813D01*
X8459925Y-7286163D01*
X8457662Y-7288816D01*
X8455187Y-7293068D01*
X8453739Y-7298099D01*
X8453315Y-7303349D01*
X8437585Y-7303349D01*
X8437585Y-7234521D01*
X8377404Y-7234521D01*
X8377404Y-7253279D01*
X8368123Y-7253279D01*
X8368123Y-7234521D01*
X8291528Y-7234521D01*
X8291528Y-7253279D01*
X8280417Y-7253279D01*
X8280417Y-7221847D01*
X8701732Y-7221847D01*
X8701732Y-7344893D01*
G37*
G36*
X9897547Y-6255210D02*
G01*
X9902696Y-6256533D01*
X9907237Y-6258817D01*
X9911170Y-6262062D01*
X9911619Y-6262536D01*
X9914728Y-6266712D01*
X9916950Y-6271573D01*
X9918164Y-6276387D01*
X9918699Y-6281724D01*
X9918726Y-6283345D01*
X9918386Y-6288789D01*
X9917366Y-6293731D01*
X9915367Y-6298763D01*
X9912480Y-6303139D01*
X9911619Y-6304130D01*
X9907761Y-6307528D01*
X9903296Y-6309956D01*
X9898224Y-6311412D01*
X9893287Y-6311890D01*
X9892544Y-6311897D01*
X9887588Y-6311523D01*
X9882479Y-6310180D01*
X9877963Y-6307860D01*
X9874039Y-6304562D01*
X9873590Y-6304082D01*
X9870481Y-6299845D01*
X9868260Y-6294977D01*
X9867045Y-6290199D01*
X9866511Y-6284938D01*
X9866483Y-6283345D01*
X9866823Y-6277912D01*
X9867843Y-6272981D01*
X9869842Y-6267961D01*
X9872730Y-6263597D01*
X9873590Y-6262609D01*
X9877440Y-6259211D01*
X9881882Y-6256784D01*
X9886917Y-6255328D01*
X9891808Y-6254850D01*
X9892544Y-6254842D01*
X9897547Y-6255210D01*
G37*
G36*
X10007554Y-6255210D02*
G01*
X10012703Y-6256533D01*
X10017244Y-6258817D01*
X10021177Y-6262062D01*
X10021626Y-6262536D01*
X10024735Y-6266712D01*
X10026957Y-6271573D01*
X10028171Y-6276387D01*
X10028706Y-6281724D01*
X10028733Y-6283345D01*
X10028393Y-6288789D01*
X10027373Y-6293731D01*
X10025374Y-6298763D01*
X10022487Y-6303139D01*
X10021626Y-6304130D01*
X10017768Y-6307528D01*
X10013303Y-6309956D01*
X10008231Y-6311412D01*
X10003294Y-6311890D01*
X10002551Y-6311897D01*
X9997595Y-6311523D01*
X9992486Y-6310180D01*
X9987970Y-6307860D01*
X9984046Y-6304562D01*
X9983597Y-6304082D01*
X9980488Y-6299845D01*
X9978267Y-6294977D01*
X9977052Y-6290199D01*
X9976518Y-6284938D01*
X9976490Y-6283345D01*
X9976830Y-6277912D01*
X9977850Y-6272981D01*
X9979849Y-6267961D01*
X9982737Y-6263597D01*
X9983597Y-6262609D01*
X9987447Y-6259211D01*
X9991889Y-6256784D01*
X9996924Y-6255328D01*
X10001815Y-6254850D01*
X10002551Y-6254842D01*
X10007554Y-6255210D01*
G37*
G36*
X10116270Y-6314242D02*
G01*
X10099100Y-6314242D01*
X10094189Y-6313593D01*
X10090038Y-6311287D01*
X10087431Y-6307135D01*
X10086814Y-6302763D01*
X10087651Y-6297756D01*
X10090161Y-6293970D01*
X10094426Y-6291492D01*
X10099368Y-6290795D01*
X10116270Y-6290795D01*
X10116270Y-6314242D01*
G37*
G36*
X10116270Y-6273600D02*
G01*
X10100932Y-6273600D01*
X10095857Y-6272965D01*
X10092114Y-6271060D01*
X10089470Y-6266910D01*
X10089037Y-6263513D01*
X10090011Y-6258669D01*
X10092114Y-6255917D01*
X10096707Y-6253714D01*
X10100932Y-6253279D01*
X10116270Y-6253279D01*
X10116270Y-6273600D01*
G37*
G36*
X10151732Y-6344893D02*
G01*
X9746928Y-6344893D01*
X9746928Y-6253279D01*
X9758039Y-6253279D01*
X9784613Y-6253279D01*
X9784613Y-6333000D01*
X9808964Y-6333000D01*
X9808964Y-6283296D01*
X9842132Y-6283296D01*
X9842134Y-6283345D01*
X9842369Y-6288609D01*
X9843080Y-6293721D01*
X9844265Y-6298631D01*
X9845924Y-6303341D01*
X9848057Y-6307850D01*
X9848873Y-6309308D01*
X9851560Y-6313469D01*
X9855120Y-6317868D01*
X9859139Y-6321776D01*
X9863615Y-6325193D01*
X9867094Y-6327333D01*
X9871483Y-6329525D01*
X9876820Y-6331508D01*
X9881578Y-6332717D01*
X9886506Y-6333473D01*
X9891604Y-6333775D01*
X9892470Y-6333781D01*
X9897592Y-6333555D01*
X9902552Y-6332875D01*
X9907351Y-6331741D01*
X9911988Y-6330154D01*
X9916464Y-6328114D01*
X9917920Y-6327333D01*
X9922086Y-6324735D01*
X9926525Y-6321248D01*
X9930510Y-6317270D01*
X9934042Y-6312801D01*
X9936288Y-6309308D01*
X9938595Y-6304866D01*
X9940425Y-6300224D01*
X9941778Y-6295380D01*
X9942653Y-6290335D01*
X9943051Y-6285090D01*
X9943077Y-6283296D01*
X9952139Y-6283296D01*
X9952141Y-6283345D01*
X9952376Y-6288609D01*
X9953087Y-6293721D01*
X9954272Y-6298631D01*
X9955931Y-6303341D01*
X9958064Y-6307850D01*
X9958880Y-6309308D01*
X9961567Y-6313469D01*
X9965127Y-6317868D01*
X9969146Y-6321776D01*
X9973622Y-6325193D01*
X9977100Y-6327333D01*
X9981490Y-6329525D01*
X9986827Y-6331508D01*
X9991585Y-6332717D01*
X9996513Y-6333473D01*
X10001611Y-6333775D01*
X10002477Y-6333781D01*
X10007599Y-6333555D01*
X10012559Y-6332875D01*
X10017358Y-6331741D01*
X10021995Y-6330154D01*
X10026471Y-6328114D01*
X10027927Y-6327333D01*
X10032093Y-6324735D01*
X10036532Y-6321248D01*
X10040517Y-6317270D01*
X10044049Y-6312801D01*
X10046294Y-6309308D01*
X10048160Y-6305718D01*
X10062463Y-6305718D01*
X10062875Y-6310971D01*
X10064109Y-6315724D01*
X10066527Y-6320543D01*
X10070020Y-6324709D01*
X10071061Y-6325648D01*
X10075135Y-6328513D01*
X10079857Y-6330674D01*
X10085226Y-6332131D01*
X10090344Y-6332820D01*
X10094972Y-6333000D01*
X10140621Y-6333000D01*
X10140621Y-6234521D01*
X10096511Y-6234521D01*
X10091142Y-6234759D01*
X10086229Y-6235473D01*
X10081071Y-6236906D01*
X10076533Y-6238987D01*
X10073137Y-6241287D01*
X10069440Y-6244958D01*
X10066799Y-6249231D01*
X10065214Y-6254105D01*
X10064686Y-6259581D01*
X10065035Y-6263513D01*
X10065134Y-6264627D01*
X10066663Y-6269527D01*
X10069278Y-6273747D01*
X10072779Y-6277208D01*
X10077001Y-6279866D01*
X10081465Y-6281587D01*
X10076424Y-6283229D01*
X10072045Y-6285834D01*
X10068329Y-6289404D01*
X10067666Y-6290233D01*
X10064922Y-6294663D01*
X10063195Y-6299465D01*
X10062742Y-6302763D01*
X10062484Y-6304639D01*
X10062463Y-6305718D01*
X10048160Y-6305718D01*
X10048602Y-6304866D01*
X10050432Y-6300224D01*
X10051785Y-6295380D01*
X10052660Y-6290335D01*
X10053058Y-6285090D01*
X10053084Y-6283296D01*
X10052846Y-6277986D01*
X10052130Y-6272883D01*
X10050936Y-6267985D01*
X10049265Y-6263293D01*
X10047117Y-6258807D01*
X10046294Y-6257358D01*
X10043573Y-6253222D01*
X10039976Y-6248845D01*
X10035926Y-6244953D01*
X10031422Y-6241544D01*
X10027927Y-6239406D01*
X10023505Y-6237215D01*
X10018922Y-6235477D01*
X10014177Y-6234192D01*
X10009270Y-6233361D01*
X10004202Y-6232983D01*
X10002477Y-6232958D01*
X9997348Y-6233185D01*
X9992384Y-6233865D01*
X9987585Y-6234998D01*
X9982950Y-6236585D01*
X9978480Y-6238625D01*
X9977027Y-6239406D01*
X9972859Y-6242002D01*
X9968435Y-6245479D01*
X9964483Y-6249441D01*
X9961003Y-6253886D01*
X9958807Y-6257358D01*
X9956541Y-6261775D01*
X9954743Y-6266398D01*
X9953415Y-6271227D01*
X9952556Y-6276262D01*
X9952165Y-6281504D01*
X9952139Y-6283296D01*
X9943077Y-6283296D01*
X9942839Y-6277986D01*
X9942123Y-6272883D01*
X9940929Y-6267985D01*
X9939258Y-6263293D01*
X9937110Y-6258807D01*
X9936288Y-6257358D01*
X9933566Y-6253222D01*
X9929969Y-6248845D01*
X9925919Y-6244953D01*
X9921415Y-6241544D01*
X9917920Y-6239406D01*
X9913498Y-6237215D01*
X9908915Y-6235477D01*
X9904170Y-6234192D01*
X9899263Y-6233361D01*
X9894195Y-6232983D01*
X9892470Y-6232958D01*
X9887341Y-6233185D01*
X9882377Y-6233865D01*
X9877578Y-6234998D01*
X9872943Y-6236585D01*
X9868473Y-6238625D01*
X9867020Y-6239406D01*
X9862852Y-6242002D01*
X9858428Y-6245479D01*
X9854476Y-6249441D01*
X9850996Y-6253886D01*
X9848800Y-6257358D01*
X9846534Y-6261775D01*
X9844737Y-6266398D01*
X9843408Y-6271227D01*
X9842549Y-6276262D01*
X9842158Y-6281504D01*
X9842132Y-6283296D01*
X9808964Y-6283296D01*
X9808964Y-6253279D01*
X9834634Y-6253279D01*
X9834634Y-6234521D01*
X9758039Y-6234521D01*
X9758039Y-6253279D01*
X9746928Y-6253279D01*
X9746928Y-6221847D01*
X10151732Y-6221847D01*
X10151732Y-6344893D01*
G37*
D16*
X7739000Y-4339000D02*
X7804000Y-4339000D01*
X7739000Y-4404000D02*
X7739000Y-4339000D01*
X7739000Y-4996000D02*
X7739000Y-5061000D01*
X7739000Y-5061000D02*
X7804000Y-5061000D01*
X8431000Y-4339000D02*
X8396000Y-4339000D01*
X8461000Y-4363000D02*
X8461000Y-4404000D01*
X8461000Y-4996000D02*
X8461000Y-5061000D01*
X8461000Y-5061000D02*
X8396000Y-5061000D01*
X8461000Y-4339000D02*
X8437000Y-4306000D01*
X8485000Y-4306000D01*
X8461000Y-4339000D01*
G36*
X8461000Y-4339000D02*
G01*
X8437000Y-4306000D01*
X8485000Y-4306000D01*
X8461000Y-4339000D01*
G37*
X10212000Y-3965364D02*
X10212000Y-3934636D01*
X10288000Y-3965364D02*
X10288000Y-3934636D01*
X10364058Y-4099000D02*
X10335942Y-4099000D01*
X10364058Y-4201000D02*
X10335942Y-4201000D01*
X9384636Y-4712000D02*
X9415364Y-4712000D01*
X9384636Y-4788000D02*
X9415364Y-4788000D01*
X7570784Y-4764000D02*
X7549216Y-4764000D01*
X7570784Y-4836000D02*
X7549216Y-4836000D01*
X4894058Y-4249000D02*
X4865942Y-4249000D01*
X4894058Y-4351000D02*
X4865942Y-4351000D01*
X2992000Y-6125364D02*
X2992000Y-6094636D01*
X3068000Y-6125364D02*
X3068000Y-6094636D01*
X8064000Y-4110784D02*
X8064000Y-4089216D01*
X8136000Y-4110784D02*
X8136000Y-4089216D01*
X9194000Y-4435000D02*
X9194000Y-4500000D01*
X9194000Y-4565000D02*
X9194000Y-4500000D01*
X9506000Y-4435000D02*
X9506000Y-4500000D01*
X9506000Y-4565000D02*
X9506000Y-4500000D01*
X9534000Y-4640250D02*
X9501000Y-4616250D01*
X9534000Y-4592250D01*
X9534000Y-4640250D01*
G36*
X9534000Y-4640250D02*
G01*
X9501000Y-4616250D01*
X9534000Y-4592250D01*
X9534000Y-4640250D01*
G37*
X4894058Y-4399000D02*
X4865942Y-4399000D01*
X4894058Y-4501000D02*
X4865942Y-4501000D01*
X4914058Y-3779000D02*
X4885942Y-3779000D01*
X4914058Y-3881000D02*
X4885942Y-3881000D01*
X5156500Y-4521500D02*
X5167500Y-4521500D01*
X5156500Y-4702500D02*
X5156500Y-4521500D01*
X5156500Y-5522500D02*
X5156500Y-4892500D01*
X5317500Y-4521500D02*
X6443500Y-4521500D01*
X6443500Y-4521500D02*
X6443500Y-4637500D01*
X6443500Y-5522500D02*
X6443500Y-4962500D01*
X5679000Y-3650000D02*
X5679000Y-3850000D01*
X6065000Y-3650000D02*
X5679000Y-3650000D01*
X6065000Y-3850000D02*
X5679000Y-3850000D01*
X9115364Y-3512000D02*
X9084636Y-3512000D01*
X9115364Y-3588000D02*
X9084636Y-3588000D01*
X7992169Y-3833081D02*
X7976919Y-3817831D01*
X8043081Y-3782169D02*
X8027831Y-3766919D01*
X9533875Y-3126500D02*
X9586125Y-3126500D01*
X9533875Y-3273500D02*
X9586125Y-3273500D01*
X10635364Y-3402000D02*
X10604636Y-3402000D01*
X10635364Y-3478000D02*
X10604636Y-3478000D01*
X6475000Y-3154000D02*
X6540000Y-3154000D01*
X6475000Y-3466000D02*
X6540000Y-3466000D01*
X6605000Y-3154000D02*
X6540000Y-3154000D01*
X6605000Y-3466000D02*
X6540000Y-3466000D01*
X6656250Y-3159000D02*
X6632250Y-3126000D01*
X6680250Y-3126000D01*
X6656250Y-3159000D01*
G36*
X6656250Y-3159000D02*
G01*
X6632250Y-3126000D01*
X6680250Y-3126000D01*
X6656250Y-3159000D01*
G37*
X4213000Y-3495000D02*
X4213000Y-4915000D01*
X4213000Y-4915000D02*
X4387000Y-4915000D01*
X4387000Y-3495000D02*
X4213000Y-3495000D01*
X4570000Y-3515000D02*
X4620000Y-3515000D01*
X4570000Y-4895000D02*
X4620000Y-4895000D01*
X4620000Y-3515000D02*
X4620000Y-3565000D01*
X4620000Y-4895000D02*
X4620000Y-4845000D01*
X4670000Y-3565000D02*
X4620000Y-3565000D01*
X9488964Y-5817000D02*
X9488964Y-6017000D01*
X9638964Y-5642000D02*
X9593964Y-5687000D01*
X9638964Y-6192000D02*
X9593964Y-6147000D01*
X9888964Y-5642000D02*
X9638964Y-5642000D01*
X9888964Y-5642000D02*
X9933964Y-5687000D01*
X9888964Y-6192000D02*
X9638964Y-6192000D01*
X9888964Y-6192000D02*
X9933964Y-6147000D01*
X10038964Y-5817000D02*
X10038964Y-6017000D01*
X9502000Y-3985364D02*
X9502000Y-3954636D01*
X9578000Y-3985364D02*
X9578000Y-3954636D01*
X4894058Y-4649000D02*
X4865942Y-4649000D01*
X4894058Y-4751000D02*
X4865942Y-4751000D01*
X8714000Y-5510784D02*
X8714000Y-5489216D01*
X8786000Y-5510784D02*
X8786000Y-5489216D01*
X9955000Y-3144000D02*
X10150000Y-3144000D01*
X9955000Y-3656000D02*
X10150000Y-3656000D01*
X10345000Y-3144000D02*
X10150000Y-3144000D01*
X10345000Y-3656000D02*
X10150000Y-3656000D01*
X10420000Y-3153500D02*
X10396000Y-3120500D01*
X10444000Y-3120500D01*
X10420000Y-3153500D01*
G36*
X10420000Y-3153500D02*
G01*
X10396000Y-3120500D01*
X10444000Y-3120500D01*
X10420000Y-3153500D01*
G37*
X10312000Y-3965364D02*
X10312000Y-3934636D01*
X10388000Y-3965364D02*
X10388000Y-3934636D01*
X8074000Y-5289216D02*
X8074000Y-5310784D01*
X8146000Y-5289216D02*
X8146000Y-5310784D01*
X10412000Y-4865364D02*
X10412000Y-4834636D01*
X10488000Y-4865364D02*
X10488000Y-4834636D01*
X8510784Y-3514000D02*
X8489216Y-3514000D01*
X8510784Y-3586000D02*
X8489216Y-3586000D01*
X7862000Y-4164364D02*
X7862000Y-4133636D01*
X7938000Y-4164364D02*
X7938000Y-4133636D01*
X7085000Y-4844000D02*
X7150000Y-4844000D01*
X7085000Y-5156000D02*
X7150000Y-5156000D01*
X7215000Y-4844000D02*
X7150000Y-4844000D01*
X7215000Y-5156000D02*
X7150000Y-5156000D01*
X7057750Y-5184000D02*
X7009750Y-5184000D01*
X7033750Y-5151000D01*
X7057750Y-5184000D01*
G36*
X7057750Y-5184000D02*
G01*
X7009750Y-5184000D01*
X7033750Y-5151000D01*
X7057750Y-5184000D01*
G37*
X8527500Y-3627500D02*
X8800000Y-3627500D01*
X8527500Y-3653500D02*
X8527500Y-3627500D01*
X8527500Y-4146500D02*
X8527500Y-4172500D01*
X8527500Y-4172500D02*
X8800000Y-4172500D01*
X9072500Y-3627500D02*
X8800000Y-3627500D01*
X9072500Y-3653500D02*
X9072500Y-3627500D01*
X9072500Y-4146500D02*
X9072500Y-4172500D01*
X9072500Y-4172500D02*
X8800000Y-4172500D01*
X9240000Y-3653500D02*
X9072500Y-3653500D01*
X8641216Y-4764000D02*
X8662784Y-4764000D01*
X8641216Y-4836000D02*
X8662784Y-4836000D01*
X8639636Y-6005750D02*
X8670364Y-6005750D01*
X8639636Y-6081750D02*
X8670364Y-6081750D01*
X5274636Y-4332000D02*
X5305364Y-4332000D01*
X5274636Y-4408000D02*
X5305364Y-4408000D01*
X10635364Y-3302000D02*
X10604636Y-3302000D01*
X10635364Y-3378000D02*
X10604636Y-3378000D01*
X8499000Y-6228750D02*
X8499000Y-6293750D01*
X8499000Y-6358750D02*
X8499000Y-6293750D01*
X8811000Y-6228750D02*
X8811000Y-6293750D01*
X8811000Y-6358750D02*
X8811000Y-6293750D01*
X8504000Y-6177500D02*
X8471000Y-6201500D01*
X8471000Y-6153500D01*
X8504000Y-6177500D01*
G36*
X8504000Y-6177500D02*
G01*
X8471000Y-6201500D01*
X8471000Y-6153500D01*
X8504000Y-6177500D01*
G37*
X8164000Y-4110784D02*
X8164000Y-4089216D01*
X8236000Y-4110784D02*
X8236000Y-4089216D01*
X8099000Y-3264058D02*
X8099000Y-3235942D01*
X8201000Y-3264058D02*
X8201000Y-3235942D01*
X6234000Y-3139216D02*
X6234000Y-3160784D01*
X6306000Y-3139216D02*
X6306000Y-3160784D01*
X8641216Y-4364000D02*
X8662784Y-4364000D01*
X8641216Y-4436000D02*
X8662784Y-4436000D01*
X10412000Y-5565364D02*
X10412000Y-5534636D01*
X10488000Y-5565364D02*
X10488000Y-5534636D01*
X6823500Y-6926500D02*
X6823500Y-6933000D01*
X6823500Y-7567000D02*
X6691000Y-7567000D01*
X6823500Y-7567000D02*
X6823500Y-7573500D01*
X7176500Y-6926500D02*
X6823500Y-6926500D01*
X7176500Y-6926500D02*
X7176500Y-6933000D01*
X7176500Y-7567000D02*
X7176500Y-7573500D01*
X7176500Y-7573500D02*
X6823500Y-7573500D01*
X7829000Y-6164000D02*
X7829000Y-6736000D01*
X7829000Y-6736000D02*
X7874000Y-6736000D01*
X7874000Y-6164000D02*
X7829000Y-6164000D01*
X8271000Y-6164000D02*
X8226000Y-6164000D01*
X8271000Y-6259000D02*
X8271000Y-6164000D01*
X8271000Y-6641000D02*
X8271000Y-6736000D01*
X8271000Y-6736000D02*
X8226000Y-6736000D01*
X8420000Y-6641000D02*
X8271000Y-6641000D01*
X5549000Y-4214058D02*
X5549000Y-4185942D01*
X5651000Y-4214058D02*
X5651000Y-4185942D01*
X3534000Y-6159216D02*
X3534000Y-6180784D01*
X3606000Y-6159216D02*
X3606000Y-6180784D01*
X7625000Y-7200000D02*
X7625000Y-7400000D01*
X7775000Y-7025000D02*
X7730000Y-7070000D01*
X7775000Y-7575000D02*
X7730000Y-7530000D01*
X8025000Y-7025000D02*
X7775000Y-7025000D01*
X8025000Y-7025000D02*
X8070000Y-7070000D01*
X8025000Y-7575000D02*
X7775000Y-7575000D01*
X8025000Y-7575000D02*
X8070000Y-7530000D01*
X8175000Y-7200000D02*
X8175000Y-7400000D01*
X7549000Y-4114058D02*
X7549000Y-4085942D01*
X7651000Y-4114058D02*
X7651000Y-4085942D01*
X9925000Y-3914000D02*
X9990000Y-3914000D01*
X9925000Y-4226000D02*
X9990000Y-4226000D01*
X10055000Y-3914000D02*
X9990000Y-3914000D01*
X10055000Y-4226000D02*
X9990000Y-4226000D01*
X9897750Y-4254000D02*
X9849750Y-4254000D01*
X9873750Y-4221000D01*
X9897750Y-4254000D01*
G36*
X9897750Y-4254000D02*
G01*
X9849750Y-4254000D01*
X9873750Y-4221000D01*
X9897750Y-4254000D01*
G37*
X9767706Y-2729000D02*
X9332294Y-2729000D01*
X9767706Y-3071000D02*
X9332294Y-3071000D01*
X9214636Y-5712000D02*
X9245364Y-5712000D01*
X9214636Y-5788000D02*
X9245364Y-5788000D01*
X6752000Y-3254636D02*
X6752000Y-3285364D01*
X6828000Y-3254636D02*
X6828000Y-3285364D01*
X6212750Y-3414058D02*
X6212750Y-3385942D01*
X6314750Y-3414058D02*
X6314750Y-3385942D01*
X9931250Y-4259000D02*
X9996250Y-4259000D01*
X9931250Y-4571000D02*
X9996250Y-4571000D01*
X10061250Y-4259000D02*
X9996250Y-4259000D01*
X10061250Y-4571000D02*
X9996250Y-4571000D01*
X10112500Y-4264000D02*
X10088500Y-4231000D01*
X10136500Y-4231000D01*
X10112500Y-4264000D01*
G36*
X10112500Y-4264000D02*
G01*
X10088500Y-4231000D01*
X10136500Y-4231000D01*
X10112500Y-4264000D01*
G37*
X7699000Y-4114058D02*
X7699000Y-4085942D01*
X7801000Y-4114058D02*
X7801000Y-4085942D01*
X6666919Y-3792169D02*
X6682169Y-3776919D01*
X6717831Y-3843081D02*
X6733081Y-3827831D01*
X8250000Y-5340000D02*
X8250000Y-5660000D01*
X8650000Y-5340000D02*
X8250000Y-5340000D01*
X7349000Y-3241558D02*
X7349000Y-3213442D01*
X7451000Y-3241558D02*
X7451000Y-3213442D01*
X6176500Y-3876125D02*
X6176500Y-3823875D01*
X6323500Y-3876125D02*
X6323500Y-3823875D01*
X7372000Y-4584636D02*
X7372000Y-4615364D01*
X7448000Y-4584636D02*
X7448000Y-4615364D01*
X7570784Y-4404000D02*
X7549216Y-4404000D01*
X7570784Y-4476000D02*
X7549216Y-4476000D01*
X5735000Y-4150000D02*
X6121000Y-4150000D01*
X5735000Y-4350000D02*
X6121000Y-4350000D01*
X6121000Y-4350000D02*
X6121000Y-4150000D01*
X3895364Y-5612000D02*
X3864636Y-5612000D01*
X3895364Y-5688000D02*
X3864636Y-5688000D01*
X4894058Y-4899000D02*
X4865942Y-4899000D01*
X4894058Y-5001000D02*
X4865942Y-5001000D01*
X7372000Y-4805364D02*
X7372000Y-4774636D01*
X7448000Y-4805364D02*
X7448000Y-4774636D01*
X9616500Y-4096125D02*
X9616500Y-4043875D01*
X9763500Y-4096125D02*
X9763500Y-4043875D01*
X8244636Y-5232000D02*
X8275364Y-5232000D01*
X8244636Y-5308000D02*
X8275364Y-5308000D01*
X10572000Y-2965364D02*
X10572000Y-2934636D01*
X10648000Y-2965364D02*
X10648000Y-2934636D01*
X7674000Y-5410784D02*
X7674000Y-5389216D01*
X7746000Y-5410784D02*
X7746000Y-5389216D01*
X8591250Y-3049000D02*
X8656250Y-3049000D01*
X8591250Y-3361000D02*
X8656250Y-3361000D01*
X8721250Y-3049000D02*
X8656250Y-3049000D01*
X8721250Y-3361000D02*
X8656250Y-3361000D01*
X8772500Y-3054000D02*
X8748500Y-3021000D01*
X8796500Y-3021000D01*
X8772500Y-3054000D01*
G36*
X8772500Y-3054000D02*
G01*
X8748500Y-3021000D01*
X8796500Y-3021000D01*
X8772500Y-3054000D01*
G37*
X7620000Y-3094000D02*
X7700000Y-3094000D01*
X7620000Y-3406000D02*
X7700000Y-3406000D01*
X7780000Y-3094000D02*
X7700000Y-3094000D01*
X7780000Y-3406000D02*
X7700000Y-3406000D01*
X7830000Y-3099000D02*
X7806000Y-3066000D01*
X7854000Y-3066000D01*
X7830000Y-3099000D01*
G36*
X7830000Y-3099000D02*
G01*
X7806000Y-3066000D01*
X7854000Y-3066000D01*
X7830000Y-3099000D01*
G37*
X5129000Y-3917706D02*
X5129000Y-3482294D01*
X5471000Y-3917706D02*
X5471000Y-3482294D01*
X7962000Y-3215364D02*
X7962000Y-3184636D01*
X8038000Y-3215364D02*
X8038000Y-3184636D01*
X9743875Y-3706500D02*
X9796125Y-3706500D01*
X9743875Y-3853500D02*
X9796125Y-3853500D01*
X10412000Y-6265364D02*
X10412000Y-6234636D01*
X10488000Y-6265364D02*
X10488000Y-6234636D01*
X9502000Y-4154636D02*
X9502000Y-4185364D01*
X9578000Y-4154636D02*
X9578000Y-4185364D01*
X8900000Y-3035000D02*
X8900000Y-3421000D01*
X8900000Y-3421000D02*
X9100000Y-3421000D01*
X9100000Y-3035000D02*
X9100000Y-3421000D01*
X5679000Y-3900000D02*
X5679000Y-4100000D01*
X6065000Y-3900000D02*
X5679000Y-3900000D01*
X6065000Y-4100000D02*
X5679000Y-4100000D01*
X6742169Y-5636919D02*
X6726919Y-5652169D01*
X6793081Y-5687831D02*
X6777831Y-5703081D01*
X7085000Y-4494000D02*
X7150000Y-4494000D01*
X7085000Y-4806000D02*
X7150000Y-4806000D01*
X7215000Y-4494000D02*
X7150000Y-4494000D01*
X7215000Y-4806000D02*
X7150000Y-4806000D01*
X7057750Y-4834000D02*
X7009750Y-4834000D01*
X7033750Y-4801000D01*
X7057750Y-4834000D01*
G36*
X7057750Y-4834000D02*
G01*
X7009750Y-4834000D01*
X7033750Y-4801000D01*
X7057750Y-4834000D01*
G37*
X6862000Y-4984636D02*
X6862000Y-5015364D01*
X6938000Y-4984636D02*
X6938000Y-5015364D01*
X7974000Y-5289216D02*
X7974000Y-5310784D01*
X8046000Y-5289216D02*
X8046000Y-5310784D01*
X5929000Y-3446125D02*
X5929000Y-3393875D01*
X6151000Y-3446125D02*
X6151000Y-3393875D01*
X8734636Y-2912000D02*
X8765364Y-2912000D01*
X8734636Y-2988000D02*
X8765364Y-2988000D01*
X8114000Y-5489216D02*
X8114000Y-5510784D01*
X8186000Y-5489216D02*
X8186000Y-5510784D01*
X5635000Y-3294000D02*
X5700000Y-3294000D01*
X5635000Y-3606000D02*
X5700000Y-3606000D01*
X5765000Y-3294000D02*
X5700000Y-3294000D01*
X5765000Y-3606000D02*
X5700000Y-3606000D01*
X5607750Y-3634000D02*
X5559750Y-3634000D01*
X5583750Y-3601000D01*
X5607750Y-3634000D01*
G36*
X5607750Y-3634000D02*
G01*
X5559750Y-3634000D01*
X5583750Y-3601000D01*
X5607750Y-3634000D01*
G37*
X7634636Y-6912000D02*
X7665364Y-6912000D01*
X7634636Y-6988000D02*
X7665364Y-6988000D01*
X6862000Y-4665364D02*
X6862000Y-4634636D01*
X6938000Y-4665364D02*
X6938000Y-4634636D01*
X7962000Y-4165364D02*
X7962000Y-4134636D01*
X8038000Y-4165364D02*
X8038000Y-4134636D01*
X9550000Y-4385000D02*
X9550000Y-4786000D01*
X9550000Y-4786000D02*
X9750000Y-4786000D01*
X9750000Y-4385000D02*
X9750000Y-4786000D01*
X3715364Y-5382000D02*
X3684636Y-5382000D01*
X3715364Y-5458000D02*
X3684636Y-5458000D01*
X5549000Y-3814058D02*
X5549000Y-3785942D01*
X5651000Y-3814058D02*
X5651000Y-3785942D01*
X3715364Y-5212000D02*
X3684636Y-5212000D01*
X3715364Y-5288000D02*
X3684636Y-5288000D01*
X10994000Y-3604000D02*
X10994000Y-4386000D01*
X10994000Y-4386000D02*
X11606000Y-4386000D01*
X11070000Y-4000000D02*
X11170000Y-4000000D01*
X11070000Y-4160000D02*
X11070000Y-4000000D01*
X11086000Y-3604000D02*
X10994000Y-3604000D01*
X11086000Y-3764000D02*
X10994000Y-3764000D01*
X11086000Y-3764000D02*
X11086000Y-3604000D01*
X11114000Y-3764000D02*
X11086000Y-3764000D01*
X11170000Y-4000000D02*
X11170000Y-4160000D01*
X11170000Y-4160000D02*
X11070000Y-4160000D01*
X11250000Y-3950000D02*
X11350000Y-3950000D01*
X11250000Y-4386000D02*
X11250000Y-3950000D01*
X11350000Y-3950000D02*
X11350000Y-4386000D01*
X11430000Y-4000000D02*
X11430000Y-4160000D01*
X11430000Y-4160000D02*
X11530000Y-4160000D01*
X11430000Y-4386000D02*
X11430000Y-4160000D01*
X11480000Y-4386000D02*
X11480000Y-4160000D01*
X11486000Y-3642500D02*
X11486000Y-3764000D01*
X11514000Y-3604000D02*
X11514000Y-3764000D01*
X11514000Y-3764000D02*
X11486000Y-3764000D01*
X11514000Y-3764000D02*
X11606000Y-3764000D01*
X11530000Y-4000000D02*
X11430000Y-4000000D01*
X11530000Y-4160000D02*
X11530000Y-4000000D01*
X11606000Y-3604000D02*
X11514000Y-3604000D01*
X11606000Y-4386000D02*
X11606000Y-3604000D01*
%LPC*%
D12*
X11412833Y-5524737D02*
X11534261Y-5524737D01*
X11534261Y-5524737D02*
X11548547Y-5517594D01*
X11548547Y-5517594D02*
X11555690Y-5510451D01*
X11555690Y-5510451D02*
X11562833Y-5496165D01*
X11562833Y-5496165D02*
X11562833Y-5474737D01*
X11562833Y-5474737D02*
X11555690Y-5460451D01*
X11505690Y-5524737D02*
X11512833Y-5510451D01*
X11512833Y-5510451D02*
X11512833Y-5481880D01*
X11512833Y-5481880D02*
X11505690Y-5467594D01*
X11505690Y-5467594D02*
X11498547Y-5460451D01*
X11498547Y-5460451D02*
X11484261Y-5453308D01*
X11484261Y-5453308D02*
X11441404Y-5453308D01*
X11441404Y-5453308D02*
X11427118Y-5460451D01*
X11427118Y-5460451D02*
X11419976Y-5467594D01*
X11419976Y-5467594D02*
X11412833Y-5481880D01*
X11412833Y-5481880D02*
X11412833Y-5510451D01*
X11412833Y-5510451D02*
X11419976Y-5524737D01*
X11505690Y-5589023D02*
X11512833Y-5603308D01*
X11512833Y-5603308D02*
X11512833Y-5631880D01*
X11512833Y-5631880D02*
X11505690Y-5646165D01*
X11505690Y-5646165D02*
X11491404Y-5653308D01*
X11491404Y-5653308D02*
X11484261Y-5653308D01*
X11484261Y-5653308D02*
X11469976Y-5646165D01*
X11469976Y-5646165D02*
X11462833Y-5631880D01*
X11462833Y-5631880D02*
X11462833Y-5610451D01*
X11462833Y-5610451D02*
X11455690Y-5596165D01*
X11455690Y-5596165D02*
X11441404Y-5589023D01*
X11441404Y-5589023D02*
X11434261Y-5589023D01*
X11434261Y-5589023D02*
X11419976Y-5596165D01*
X11419976Y-5596165D02*
X11412833Y-5610451D01*
X11412833Y-5610451D02*
X11412833Y-5631880D01*
X11412833Y-5631880D02*
X11419976Y-5646165D01*
X11512833Y-5717594D02*
X11362833Y-5717594D01*
X11512833Y-5781880D02*
X11434261Y-5781880D01*
X11434261Y-5781880D02*
X11419976Y-5774737D01*
X11419976Y-5774737D02*
X11412833Y-5760451D01*
X11412833Y-5760451D02*
X11412833Y-5739022D01*
X11412833Y-5739022D02*
X11419976Y-5724737D01*
X11419976Y-5724737D02*
X11427118Y-5717594D01*
X11412833Y-5853308D02*
X11562833Y-5853308D01*
X11419976Y-5853308D02*
X11412833Y-5867594D01*
X11412833Y-5867594D02*
X11412833Y-5896165D01*
X11412833Y-5896165D02*
X11419976Y-5910451D01*
X11419976Y-5910451D02*
X11427118Y-5917594D01*
X11427118Y-5917594D02*
X11441404Y-5924737D01*
X11441404Y-5924737D02*
X11484261Y-5924737D01*
X11484261Y-5924737D02*
X11498547Y-5917594D01*
X11498547Y-5917594D02*
X11505690Y-5910451D01*
X11505690Y-5910451D02*
X11512833Y-5896165D01*
X11512833Y-5896165D02*
X11512833Y-5867594D01*
X11512833Y-5867594D02*
X11505690Y-5853308D01*
X11505690Y-5981880D02*
X11512833Y-5996165D01*
X11512833Y-5996165D02*
X11512833Y-6024737D01*
X11512833Y-6024737D02*
X11505690Y-6039022D01*
X11505690Y-6039022D02*
X11491404Y-6046165D01*
X11491404Y-6046165D02*
X11484261Y-6046165D01*
X11484261Y-6046165D02*
X11469976Y-6039022D01*
X11469976Y-6039022D02*
X11462833Y-6024737D01*
X11462833Y-6024737D02*
X11462833Y-6003308D01*
X11462833Y-6003308D02*
X11455690Y-5989022D01*
X11455690Y-5989022D02*
X11441404Y-5981880D01*
X11441404Y-5981880D02*
X11434261Y-5981880D01*
X11434261Y-5981880D02*
X11419976Y-5989022D01*
X11419976Y-5989022D02*
X11412833Y-6003308D01*
X11412833Y-6003308D02*
X11412833Y-6024737D01*
X11412833Y-6024737D02*
X11419976Y-6039022D01*
X11742833Y-5546165D02*
X11671404Y-5496165D01*
X11742833Y-5460451D02*
X11592833Y-5460451D01*
X11592833Y-5460451D02*
X11592833Y-5517594D01*
X11592833Y-5517594D02*
X11599976Y-5531880D01*
X11599976Y-5531880D02*
X11607118Y-5539023D01*
X11607118Y-5539023D02*
X11621404Y-5546165D01*
X11621404Y-5546165D02*
X11642833Y-5546165D01*
X11642833Y-5546165D02*
X11657118Y-5539023D01*
X11657118Y-5539023D02*
X11664261Y-5531880D01*
X11664261Y-5531880D02*
X11671404Y-5517594D01*
X11671404Y-5517594D02*
X11671404Y-5460451D01*
X11664261Y-5610451D02*
X11664261Y-5660451D01*
X11742833Y-5681880D02*
X11742833Y-5610451D01*
X11742833Y-5610451D02*
X11592833Y-5610451D01*
X11592833Y-5610451D02*
X11592833Y-5681880D01*
X11592833Y-5724737D02*
X11742833Y-5774737D01*
X11742833Y-5774737D02*
X11592833Y-5824737D01*
X11742833Y-5989022D02*
X11592833Y-5989022D01*
X11592833Y-5989022D02*
X11592833Y-6024737D01*
X11592833Y-6024737D02*
X11599976Y-6046165D01*
X11599976Y-6046165D02*
X11614261Y-6060451D01*
X11614261Y-6060451D02*
X11628547Y-6067594D01*
X11628547Y-6067594D02*
X11657118Y-6074737D01*
X11657118Y-6074737D02*
X11678547Y-6074737D01*
X11678547Y-6074737D02*
X11707118Y-6067594D01*
X11707118Y-6067594D02*
X11721404Y-6060451D01*
X11721404Y-6060451D02*
X11735690Y-6046165D01*
X11735690Y-6046165D02*
X11742833Y-6024737D01*
X11742833Y-6024737D02*
X11742833Y-5989022D01*
D17*
X11200000Y-7200000D03*
D18*
X3483500Y-6400000D03*
D19*
X3483500Y-5650000D03*
D20*
X3268500Y-6265000D03*
X3698500Y-6265000D03*
X3268500Y-5785000D03*
X3698500Y-5785000D03*
D17*
X3500000Y-7200000D03*
X3500000Y-3000000D03*
X11200000Y-3000000D03*
D21*
X8443750Y-4440000D03*
X8443750Y-4480000D03*
X8443750Y-4520000D03*
X8443750Y-4560000D03*
X8443750Y-4600000D03*
X8443750Y-4640000D03*
X8443750Y-4680000D03*
X8443750Y-4720000D03*
X8443750Y-4760000D03*
X8443750Y-4800000D03*
X8443750Y-4840000D03*
X8443750Y-4880000D03*
X8443750Y-4920000D03*
X8443750Y-4960000D03*
D22*
X8360000Y-5043750D03*
X8320000Y-5043750D03*
X8280000Y-5043750D03*
X8240000Y-5043750D03*
X8200000Y-5043750D03*
X8160000Y-5043750D03*
X8120000Y-5043750D03*
X8080000Y-5043750D03*
X8040000Y-5043750D03*
X8000000Y-5043750D03*
X7960000Y-5043750D03*
X7920000Y-5043750D03*
X7880000Y-5043750D03*
X7840000Y-5043750D03*
D21*
X7756250Y-4960000D03*
X7756250Y-4920000D03*
X7756250Y-4880000D03*
X7756250Y-4840000D03*
X7756250Y-4800000D03*
X7756250Y-4760000D03*
X7756250Y-4720000D03*
X7756250Y-4680000D03*
X7756250Y-4640000D03*
X7756250Y-4600000D03*
X7756250Y-4560000D03*
X7756250Y-4520000D03*
X7756250Y-4480000D03*
X7756250Y-4440000D03*
D22*
X7840000Y-4356250D03*
X7880000Y-4356250D03*
X7920000Y-4356250D03*
X7960000Y-4356250D03*
X8000000Y-4356250D03*
X8040000Y-4356250D03*
X8080000Y-4356250D03*
X8120000Y-4356250D03*
X8160000Y-4356250D03*
X8200000Y-4356250D03*
X8240000Y-4356250D03*
X8280000Y-4356250D03*
X8320000Y-4356250D03*
X8360000Y-4356250D03*
D23*
X8100000Y-4700000D03*
D24*
X10250000Y-3899000D03*
X10250000Y-4001000D03*
D25*
X10272500Y-4150000D03*
X10427500Y-4150000D03*
D26*
X9451000Y-4750000D03*
X9349000Y-4750000D03*
D27*
X7512000Y-4800000D03*
X7608000Y-4800000D03*
D25*
X4802500Y-4300000D03*
X4957500Y-4300000D03*
D24*
X3030000Y-6059000D03*
X3030000Y-6161000D03*
D28*
X8100000Y-4052000D03*
X8100000Y-4148000D03*
D29*
X9445000Y-4593750D03*
X9255000Y-4593750D03*
X9350000Y-4406250D03*
D25*
X4802500Y-4450000D03*
X4957500Y-4450000D03*
X4822500Y-3830000D03*
X4977500Y-3830000D03*
D30*
X5482500Y-5635000D03*
X5592500Y-5635000D03*
X5702500Y-5635000D03*
X5812500Y-5635000D03*
X5922500Y-5635000D03*
X6032500Y-5635000D03*
X6142500Y-5635000D03*
X6252500Y-5635000D03*
D31*
X6365000Y-4712500D03*
D32*
X5242500Y-4555000D03*
D33*
X6397500Y-4862500D03*
D34*
X6372500Y-5622500D03*
D35*
X5237500Y-5622500D03*
D36*
X5202500Y-4797500D03*
D37*
X5760000Y-3750000D03*
X6040000Y-3750000D03*
D38*
X9049000Y-3550000D03*
X9151000Y-3550000D03*
D39*
X7976059Y-3766059D03*
X8043941Y-3833941D03*
D40*
X9655000Y-3200000D03*
X9465000Y-3200000D03*
D38*
X10569000Y-3440000D03*
X10671000Y-3440000D03*
D41*
X6633750Y-3215000D03*
X6633750Y-3405000D03*
X6446250Y-3310000D03*
D42*
X4560000Y-3630000D03*
X4560000Y-3680000D03*
X4560000Y-3730000D03*
X4560000Y-3780000D03*
X4560000Y-3830000D03*
X4560000Y-3880000D03*
X4560000Y-3930000D03*
X4560000Y-3980000D03*
X4560000Y-4030000D03*
X4560000Y-4080000D03*
X4560000Y-4130000D03*
X4560000Y-4180000D03*
X4560000Y-4230000D03*
X4560000Y-4280000D03*
X4560000Y-4330000D03*
X4560000Y-4380000D03*
X4560000Y-4430000D03*
X4560000Y-4480000D03*
X4560000Y-4530000D03*
X4560000Y-4580000D03*
X4560000Y-4630000D03*
X4560000Y-4680000D03*
X4560000Y-4730000D03*
X4560000Y-4780000D03*
D43*
X4295000Y-4880000D03*
X4295000Y-3530000D03*
D44*
X9448964Y-6107000D03*
X10078964Y-6107000D03*
X9448964Y-5727000D03*
X10078964Y-5727000D03*
D24*
X9540000Y-3919000D03*
X9540000Y-4021000D03*
D25*
X4802500Y-4700000D03*
X4957500Y-4700000D03*
D28*
X8750000Y-5452000D03*
X8750000Y-5548000D03*
D45*
X10415000Y-3209500D03*
X10415000Y-3336500D03*
X10415000Y-3463500D03*
X10415000Y-3590500D03*
X9885000Y-3590500D03*
X9885000Y-3463500D03*
X9885000Y-3336500D03*
X9885000Y-3209500D03*
D46*
X10150000Y-3400000D03*
D24*
X10350000Y-3899000D03*
X10350000Y-4001000D03*
D47*
X8110000Y-5348000D03*
X8110000Y-5252000D03*
D24*
X10450000Y-4799000D03*
X10450000Y-4901000D03*
D27*
X8452000Y-3550000D03*
X8548000Y-3550000D03*
D24*
X7900000Y-4098000D03*
X7900000Y-4200000D03*
D48*
X7056250Y-5095000D03*
X7056250Y-4905000D03*
X7243750Y-5000000D03*
D45*
X9160000Y-3709500D03*
X9160000Y-3836500D03*
X9160000Y-3963500D03*
X9160000Y-4090500D03*
X8440000Y-4090500D03*
X8440000Y-3963500D03*
X8440000Y-3836500D03*
X8440000Y-3709500D03*
D49*
X8700000Y-4800000D03*
X8604000Y-4800000D03*
D26*
X8706000Y-6043750D03*
X8604000Y-6043750D03*
X5341000Y-4370000D03*
X5239000Y-4370000D03*
D38*
X10569000Y-3340000D03*
X10671000Y-3340000D03*
D50*
X8560000Y-6200000D03*
X8750000Y-6200000D03*
X8655000Y-6387500D03*
D28*
X8200000Y-4052000D03*
X8200000Y-4148000D03*
D51*
X8150000Y-3172500D03*
X8150000Y-3327500D03*
D47*
X6270000Y-3198000D03*
X6270000Y-3102000D03*
D49*
X8700000Y-4400000D03*
X8604000Y-4400000D03*
D24*
X10450000Y-5499000D03*
X10450000Y-5601000D03*
D52*
X6805000Y-7504000D03*
X7195000Y-7504000D03*
X6805000Y-7377000D03*
X7195000Y-7377000D03*
X6805000Y-7250000D03*
X7195000Y-7250000D03*
X6805000Y-7123000D03*
X7195000Y-7123000D03*
X6805000Y-6996000D03*
X7195000Y-6996000D03*
D53*
X8340000Y-6575000D03*
X8340000Y-6450000D03*
X8340000Y-6325000D03*
D54*
X8050000Y-6830000D03*
X8050000Y-6070000D03*
D51*
X5600000Y-4122500D03*
X5600000Y-4277500D03*
D47*
X3570000Y-6218000D03*
X3570000Y-6122000D03*
D44*
X7585000Y-7490000D03*
X8215000Y-7490000D03*
X7585000Y-7110000D03*
X8215000Y-7110000D03*
D51*
X7600000Y-4022500D03*
X7600000Y-4177500D03*
D48*
X9896250Y-4165000D03*
X9896250Y-3975000D03*
X10083750Y-4070000D03*
D55*
X9253750Y-2900000D03*
X9846250Y-2900000D03*
D26*
X9281000Y-5750000D03*
X9179000Y-5750000D03*
D56*
X6790000Y-3321000D03*
X6790000Y-3219000D03*
D51*
X6263750Y-3322500D03*
X6263750Y-3477500D03*
D41*
X10090000Y-4320000D03*
X10090000Y-4510000D03*
X9902500Y-4415000D03*
D51*
X7750000Y-4022500D03*
X7750000Y-4177500D03*
D57*
X6733941Y-3776059D03*
X6666059Y-3843941D03*
D58*
X8340000Y-5420000D03*
X8560000Y-5420000D03*
X8560000Y-5580000D03*
X8340000Y-5580000D03*
D51*
X7400000Y-3150000D03*
X7400000Y-3305000D03*
D59*
X6250000Y-3755000D03*
X6250000Y-3945000D03*
D56*
X7410000Y-4651000D03*
X7410000Y-4549000D03*
D27*
X7512000Y-4440000D03*
X7608000Y-4440000D03*
D60*
X6040000Y-4250000D03*
X5760000Y-4250000D03*
D38*
X3829000Y-5650000D03*
X3931000Y-5650000D03*
D25*
X4802500Y-4950000D03*
X4957500Y-4950000D03*
D24*
X7410000Y-4739000D03*
X7410000Y-4841000D03*
D59*
X9690000Y-3975000D03*
X9690000Y-4165000D03*
D26*
X8311000Y-5270000D03*
X8209000Y-5270000D03*
D24*
X10610000Y-2899000D03*
X10610000Y-3001000D03*
D28*
X7710000Y-5352000D03*
X7710000Y-5448000D03*
D41*
X8750000Y-3110000D03*
X8750000Y-3300000D03*
X8562500Y-3205000D03*
D61*
X7813750Y-3155000D03*
X7813750Y-3250000D03*
X7813750Y-3345000D03*
X7586250Y-3345000D03*
X7586250Y-3155000D03*
D62*
X5300000Y-3403750D03*
X5300000Y-3996250D03*
D24*
X8000000Y-3149000D03*
X8000000Y-3251000D03*
D40*
X9865000Y-3780000D03*
X9675000Y-3780000D03*
D24*
X10450000Y-6199000D03*
X10450000Y-6301000D03*
D56*
X9540000Y-4221000D03*
X9540000Y-4119000D03*
D63*
X9000000Y-3340000D03*
X9000000Y-3060000D03*
D37*
X5760000Y-4000000D03*
X6040000Y-4000000D03*
D64*
X6726059Y-5703941D03*
X6793941Y-5636059D03*
D48*
X7056250Y-4745000D03*
X7056250Y-4555000D03*
X7243750Y-4650000D03*
D56*
X6900000Y-5051000D03*
X6900000Y-4949000D03*
D47*
X8010000Y-5348000D03*
X8010000Y-5252000D03*
D65*
X6040000Y-3312500D03*
X6040000Y-3527500D03*
D26*
X8801000Y-2950000D03*
X8699000Y-2950000D03*
D47*
X8150000Y-5548000D03*
X8150000Y-5452000D03*
D48*
X5606250Y-3545000D03*
X5606250Y-3355000D03*
X5793750Y-3450000D03*
D26*
X7701000Y-6950000D03*
X7599000Y-6950000D03*
D24*
X6900000Y-4599000D03*
X6900000Y-4701000D03*
X8000000Y-4099000D03*
X8000000Y-4201000D03*
D66*
X9650000Y-4715000D03*
X9650000Y-4385000D03*
D38*
X3649000Y-5420000D03*
X3751000Y-5420000D03*
D51*
X5600000Y-3722500D03*
X5600000Y-3877500D03*
D38*
X3649000Y-5250000D03*
X3751000Y-5250000D03*
D67*
X11400000Y-3750000D03*
D68*
X11200000Y-3750000D03*
%LPD*%
M02*
