%TF.GenerationSoftware,KiCad,Pcbnew,8.0.6+1*%
%TF.CreationDate,2025-01-07T07:54:15+00:00*%
%TF.ProjectId,gshps,67736870-732e-46b6-9963-61645f706362,B*%
%TF.SameCoordinates,Original*%
%TF.FileFunction,Profile,NP*%
%FSLAX45Y45*%
G04 Gerber Fmt 4.5, Leading zero omitted, Abs format (unit mm)*
G04 Created by KiCad (PCBNEW 8.0.6+1) date 2025-01-07 07:54:15*
%MOMM*%
%LPD*%
G01*
G04 APERTURE LIST*
%TA.AperFunction,Profile*%
%ADD10C,0.100000*%
%TD*%
G04 APERTURE END LIST*
D10*
X4300000Y-5900000D02*
X6350000Y-5900000D01*
X10750000Y-2350000D02*
G75*
G02*
X11850000Y-3450000I0J-1100000D01*
G01*
X11850000Y-6750000D02*
G75*
G02*
X10750000Y-7850000I-1100000J0D01*
G01*
X3950000Y-7850000D02*
G75*
G02*
X2850000Y-6750000I0J1100000D01*
G01*
X4100000Y-7850000D02*
X4100000Y-6100000D01*
X4100000Y-6100000D02*
G75*
G02*
X4300000Y-5900000I200000J0D01*
G01*
X10750000Y-7850000D02*
X6550000Y-7850000D01*
X3950000Y-2350000D02*
X10750000Y-2350000D01*
X4100000Y-7850000D02*
X3950000Y-7850000D01*
X2850000Y-6750000D02*
X2850000Y-3450000D01*
X6550000Y-7850000D02*
X6550000Y-6100000D01*
X2850000Y-3450000D02*
G75*
G02*
X3950000Y-2350000I1100000J0D01*
G01*
X6350000Y-5900000D02*
G75*
G02*
X6550000Y-6100000I0J-200000D01*
G01*
X11850000Y-3450000D02*
X11850000Y-6750000D01*
X4300000Y-5900000D02*
X6350000Y-5900000D01*
X10750000Y-2350000D02*
G75*
G02*
X11850000Y-3450000I0J-1100000D01*
G01*
X11850000Y-6750000D02*
G75*
G02*
X10750000Y-7850000I-1100000J0D01*
G01*
X3950000Y-7850000D02*
G75*
G02*
X2850000Y-6750000I0J1100000D01*
G01*
X4100000Y-7850000D02*
X4100000Y-6100000D01*
X4100000Y-6100000D02*
G75*
G02*
X4300000Y-5900000I200000J0D01*
G01*
X10750000Y-7850000D02*
X6550000Y-7850000D01*
X3950000Y-2350000D02*
X10750000Y-2350000D01*
X4100000Y-7850000D02*
X3950000Y-7850000D01*
X2850000Y-6750000D02*
X2850000Y-3450000D01*
X6550000Y-7850000D02*
X6550000Y-6100000D01*
X2850000Y-3450000D02*
G75*
G02*
X3950000Y-2350000I1100000J0D01*
G01*
X6350000Y-5900000D02*
G75*
G02*
X6550000Y-6100000I0J-200000D01*
G01*
X11850000Y-3450000D02*
X11850000Y-6750000D01*
M02*
