%TF.GenerationSoftware,KiCad,Pcbnew,7.0.7*%
%TF.CreationDate,2023-09-09T23:22:34-07:00*%
%TF.ProjectId,gshps,67736870-732e-46b6-9963-61645f706362,rev?*%
%TF.SameCoordinates,Original*%
%TF.FileFunction,Profile,NP*%
%FSLAX46Y46*%
G04 Gerber Fmt 4.6, Leading zero omitted, Abs format (unit mm)*
G04 Created by KiCad (PCBNEW 7.0.7) date 2023-09-09 23:22:34*
%MOMM*%
%LPD*%
G01*
G04 APERTURE LIST*
%TA.AperFunction,Profile*%
%ADD10C,0.100000*%
%TD*%
G04 APERTURE END LIST*
D10*
X125000000Y-68000000D02*
X145500000Y-68000000D01*
X200500000Y-43500000D02*
G75*
G03*
X189500000Y-32500000I-11000000J0D01*
G01*
X116000000Y-60000000D02*
G75*
G03*
X116500000Y-60500000I500000J0D01*
G01*
X189500000Y-87500000D02*
G75*
G03*
X200500000Y-76500000I0J11000000D01*
G01*
X116000000Y-43500000D02*
X116000000Y-60000000D01*
X118500000Y-60500000D02*
G75*
G03*
X119000000Y-60000000I0J500000D01*
G01*
X110500000Y-76500000D02*
G75*
G03*
X121500000Y-87500000I11000000J0D01*
G01*
X123000000Y-87500000D02*
X123000000Y-70000000D01*
X125000000Y-68000000D02*
G75*
G03*
X123000000Y-70000000I0J-2000000D01*
G01*
X189500000Y-87500000D02*
X147500000Y-87500000D01*
X121500000Y-32500000D02*
X189500000Y-32500000D01*
X119000000Y-43500000D02*
G75*
G03*
X118500000Y-43000000I-500000J0D01*
G01*
X123000000Y-87500000D02*
X121500000Y-87500000D01*
X116500000Y-43000000D02*
X118500000Y-43000000D01*
X116500000Y-60500000D02*
X118500000Y-60500000D01*
X119000000Y-43500000D02*
X119000000Y-60000000D01*
X110500000Y-76500000D02*
X110500000Y-43500000D01*
X116500000Y-43000000D02*
G75*
G03*
X116000000Y-43500000I0J-500000D01*
G01*
X147500000Y-87500000D02*
X147500000Y-70000000D01*
X121500000Y-32500000D02*
G75*
G03*
X110500000Y-43500000I0J-11000000D01*
G01*
X147500000Y-70000000D02*
G75*
G03*
X145500000Y-68000000I-2000000J0D01*
G01*
X200500000Y-43500000D02*
X200500000Y-76500000D01*
M02*
