  0
SECTION
  2
HEADER
  9
$ANGBASE
  50
0.0
  9
$ANGDIR
  70
1
  9
$MEASUREMENT
  70
0
  0
ENDSEC
  0
SECTION
  2
TABLES
  0
TABLE
  2
LTYPE
  70
4
  0
LTYPE
  5
40F
  2
CONTINUOUS
  70
0
  3
Solid line
  72
65
  73
0
  40
0.0
  0
LTYPE
  5
410
  2
DASHDOT
 70
0
  3
Dash Dot ____ _ ____ _
 72
65
 73
4
 40
2.0
 49
1.25
 49
-0.25
 49
0.25
 49
-0.25
  0
LTYPE
  5
411
  2
DASHED
 70
0
  3
Dashed __ __ __ __ __
 72
65
 73
2
 40
0.75
 49
0.5
 49
-0.25
  0
LTYPE
  5
43B
  2
DOTTED
 70
0
  3
Dotted .  .  .  .
 72
65
 73
2
 40
0.2
 49
0.0
 49
-0.2
  0
ENDTAB
  0
TABLE
  2
STYLE
  70
4
  0
STYLE
  2
KICAD
  70
0
  40
0
  41
1
  42
1
  50
0
  71
0
  3
isocp.shx
  0
STYLE
  2
KICADB
  70
0
  40
0
  41
1
  42
1
  50
0
  71
0
  3
isocp.shx
  0
STYLE
  2
KICADI
  70
0
  40
0
  41
1
  42
1
  50
15
  71
0
  3
isocp.shx
  0
STYLE
  2
KICADBI
  70
0
  40
0
  41
1
  42
1
  50
15
  71
0
  3
isocp.shx
  0
ENDTAB
  0
TABLE
  2
LAYER
  70
1
  0
LAYER
  2
BLACK
  70
0
  62
7
  6
CONTINUOUS
  0
ENDTAB
  0
ENDSEC
  0
SECTION
  2
ENTITIES
0
LINE
8
BLACK
6
CONTINUOUS
10
6.27559
20
-6.76772
11
10.5276
21
-6.76772
0
LINE
8
BLACK
6
CONTINUOUS
10
10.5276
20
-6.76772
11
10.5276
21
-8.02756
0
LINE
8
BLACK
6
CONTINUOUS
10
10.5276
20
-8.02756
11
6.27559
21
-8.02756
0
LINE
8
BLACK
6
CONTINUOUS
10
6.27559
20
-8.02756
11
6.27559
21
-6.76772
0
LINE
8
BLACK
6
CONTINUOUS
10
0.393701
20
-0.393701
11
10.6063
21
-0.393701
0
LINE
8
BLACK
6
CONTINUOUS
10
10.6063
20
-0.393701
11
10.6063
21
-8.1063
0
LINE
8
BLACK
6
CONTINUOUS
10
10.6063
20
-8.1063
11
0.393701
21
-8.1063
0
LINE
8
BLACK
6
CONTINUOUS
10
0.393701
20
-8.1063
11
0.393701
21
-0.393701
0
LINE
8
BLACK
6
CONTINUOUS
10
0.472441
20
-0.472441
11
10.5276
21
-0.472441
0
LINE
8
BLACK
6
CONTINUOUS
10
10.5276
20
-0.472441
11
10.5276
21
-8.02756
0
LINE
8
BLACK
6
CONTINUOUS
10
10.5276
20
-8.02756
11
0.472441
21
-8.02756
0
LINE
8
BLACK
6
CONTINUOUS
10
0.472441
20
-8.02756
11
0.472441
21
-0.472441
0
LINE
8
BLACK
6
CONTINUOUS
10
2.3622
20
-0.472441
11
2.3622
21
-0.393701
0
LINE
8
BLACK
6
CONTINUOUS
10
4.33071
20
-0.472441
11
4.33071
21
-0.393701
0
LINE
8
BLACK
6
CONTINUOUS
10
6.29921
20
-0.472441
11
6.29921
21
-0.393701
0
LINE
8
BLACK
6
CONTINUOUS
10
8.26772
20
-0.472441
11
8.26772
21
-0.393701
0
LINE
8
BLACK
6
CONTINUOUS
10
10.2362
20
-0.472441
11
10.2362
21
-0.393701
0
LINE
8
BLACK
6
CONTINUOUS
10
1.42083
20
-0.456441
11
1.39159
21
-0.456441
0
LINE
8
BLACK
6
CONTINUOUS
10
1.40621
20
-0.456441
11
1.40621
21
-0.40526
0
LINE
8
BLACK
6
CONTINUOUS
10
1.40621
20
-0.40526
11
1.40134
21
-0.412572
0
LINE
8
BLACK
6
CONTINUOUS
10
1.40134
20
-0.412572
11
1.39646
21
-0.417446
0
LINE
8
BLACK
6
CONTINUOUS
10
1.39646
20
-0.417446
11
1.39159
21
-0.419883
0
LINE
8
BLACK
6
CONTINUOUS
10
3.36009
20
-0.410134
11
3.36253
21
-0.407697
0
LINE
8
BLACK
6
CONTINUOUS
10
3.36253
20
-0.407697
11
3.3674
21
-0.40526
0
LINE
8
BLACK
6
CONTINUOUS
10
3.3674
20
-0.40526
11
3.37959
21
-0.40526
0
LINE
8
BLACK
6
CONTINUOUS
10
3.37959
20
-0.40526
11
3.38446
21
-0.407697
0
LINE
8
BLACK
6
CONTINUOUS
10
3.38446
20
-0.407697
11
3.3869
21
-0.410134
0
LINE
8
BLACK
6
CONTINUOUS
10
3.3869
20
-0.410134
11
3.38934
21
-0.415009
0
LINE
8
BLACK
6
CONTINUOUS
10
3.38934
20
-0.415009
11
3.38934
21
-0.419883
0
LINE
8
BLACK
6
CONTINUOUS
10
3.38934
20
-0.419883
11
3.3869
21
-0.427195
0
LINE
8
BLACK
6
CONTINUOUS
10
3.3869
20
-0.427195
11
3.35765
21
-0.456441
0
LINE
8
BLACK
6
CONTINUOUS
10
3.35765
20
-0.456441
11
3.38934
21
-0.456441
0
LINE
8
BLACK
6
CONTINUOUS
10
5.32616
20
-0.40526
11
5.35784
21
-0.40526
0
LINE
8
BLACK
6
CONTINUOUS
10
5.35784
20
-0.40526
11
5.34078
21
-0.424758
0
LINE
8
BLACK
6
CONTINUOUS
10
5.34078
20
-0.424758
11
5.34809
21
-0.424758
0
LINE
8
BLACK
6
CONTINUOUS
10
5.34809
20
-0.424758
11
5.35297
21
-0.427195
0
LINE
8
BLACK
6
CONTINUOUS
10
5.35297
20
-0.427195
11
5.3554
21
-0.429632
0
LINE
8
BLACK
6
CONTINUOUS
10
5.3554
20
-0.429632
11
5.35784
21
-0.434506
0
LINE
8
BLACK
6
CONTINUOUS
10
5.35784
20
-0.434506
11
5.35784
21
-0.446692
0
LINE
8
BLACK
6
CONTINUOUS
10
5.35784
20
-0.446692
11
5.3554
21
-0.451567
0
LINE
8
BLACK
6
CONTINUOUS
10
5.3554
20
-0.451567
11
5.35297
21
-0.454004
0
LINE
8
BLACK
6
CONTINUOUS
10
5.35297
20
-0.454004
11
5.34809
21
-0.456441
0
LINE
8
BLACK
6
CONTINUOUS
10
5.34809
20
-0.456441
11
5.33347
21
-0.456441
0
LINE
8
BLACK
6
CONTINUOUS
10
5.33347
20
-0.456441
11
5.32859
21
-0.454004
0
LINE
8
BLACK
6
CONTINUOUS
10
5.32859
20
-0.454004
11
5.32616
21
-0.451567
0
LINE
8
BLACK
6
CONTINUOUS
10
7.32147
20
-0.42232
11
7.32147
21
-0.456441
0
LINE
8
BLACK
6
CONTINUOUS
10
7.30928
20
-0.402823
11
7.2971
21
-0.439381
0
LINE
8
BLACK
6
CONTINUOUS
10
7.2971
20
-0.439381
11
7.32878
21
-0.439381
0
LINE
8
BLACK
6
CONTINUOUS
10
9.29241
20
-0.40526
11
9.26804
21
-0.40526
0
LINE
8
BLACK
6
CONTINUOUS
10
9.26804
20
-0.40526
11
9.2656
21
-0.429632
0
LINE
8
BLACK
6
CONTINUOUS
10
9.2656
20
-0.429632
11
9.26804
21
-0.427195
0
LINE
8
BLACK
6
CONTINUOUS
10
9.26804
20
-0.427195
11
9.27291
21
-0.424758
0
LINE
8
BLACK
6
CONTINUOUS
10
9.27291
20
-0.424758
11
9.2851
21
-0.424758
0
LINE
8
BLACK
6
CONTINUOUS
10
9.2851
20
-0.424758
11
9.28997
21
-0.427195
0
LINE
8
BLACK
6
CONTINUOUS
10
9.28997
20
-0.427195
11
9.29241
21
-0.429632
0
LINE
8
BLACK
6
CONTINUOUS
10
9.29241
20
-0.429632
11
9.29485
21
-0.434506
0
LINE
8
BLACK
6
CONTINUOUS
10
9.29485
20
-0.434506
11
9.29485
21
-0.446692
0
LINE
8
BLACK
6
CONTINUOUS
10
9.29485
20
-0.446692
11
9.29241
21
-0.451567
0
LINE
8
BLACK
6
CONTINUOUS
10
9.29241
20
-0.451567
11
9.28997
21
-0.454004
0
LINE
8
BLACK
6
CONTINUOUS
10
9.28997
20
-0.454004
11
9.2851
21
-0.456441
0
LINE
8
BLACK
6
CONTINUOUS
10
9.2851
20
-0.456441
11
9.27291
21
-0.456441
0
LINE
8
BLACK
6
CONTINUOUS
10
9.27291
20
-0.456441
11
9.26804
21
-0.454004
0
LINE
8
BLACK
6
CONTINUOUS
10
9.26804
20
-0.454004
11
9.2656
21
-0.451567
0
LINE
8
BLACK
6
CONTINUOUS
10
2.3622
20
-8.02756
11
2.3622
21
-8.1063
0
LINE
8
BLACK
6
CONTINUOUS
10
4.33071
20
-8.02756
11
4.33071
21
-8.1063
0
LINE
8
BLACK
6
CONTINUOUS
10
6.29921
20
-8.02756
11
6.29921
21
-8.1063
0
LINE
8
BLACK
6
CONTINUOUS
10
8.26772
20
-8.02756
11
8.26772
21
-8.1063
0
LINE
8
BLACK
6
CONTINUOUS
10
10.2362
20
-8.02756
11
10.2362
21
-8.1063
0
LINE
8
BLACK
6
CONTINUOUS
10
1.42083
20
-8.0903
11
1.39159
21
-8.0903
0
LINE
8
BLACK
6
CONTINUOUS
10
1.40621
20
-8.0903
11
1.40621
21
-8.03912
0
LINE
8
BLACK
6
CONTINUOUS
10
1.40621
20
-8.03912
11
1.40134
21
-8.04643
0
LINE
8
BLACK
6
CONTINUOUS
10
1.40134
20
-8.04643
11
1.39646
21
-8.0513
0
LINE
8
BLACK
6
CONTINUOUS
10
1.39646
20
-8.0513
11
1.39159
21
-8.05374
0
LINE
8
BLACK
6
CONTINUOUS
10
3.36009
20
-8.04399
11
3.36253
21
-8.04156
0
LINE
8
BLACK
6
CONTINUOUS
10
3.36253
20
-8.04156
11
3.3674
21
-8.03912
0
LINE
8
BLACK
6
CONTINUOUS
10
3.3674
20
-8.03912
11
3.37959
21
-8.03912
0
LINE
8
BLACK
6
CONTINUOUS
10
3.37959
20
-8.03912
11
3.38446
21
-8.04156
0
LINE
8
BLACK
6
CONTINUOUS
10
3.38446
20
-8.04156
11
3.3869
21
-8.04399
0
LINE
8
BLACK
6
CONTINUOUS
10
3.3869
20
-8.04399
11
3.38934
21
-8.04887
0
LINE
8
BLACK
6
CONTINUOUS
10
3.38934
20
-8.04887
11
3.38934
21
-8.05374
0
LINE
8
BLACK
6
CONTINUOUS
10
3.38934
20
-8.05374
11
3.3869
21
-8.06105
0
LINE
8
BLACK
6
CONTINUOUS
10
3.3869
20
-8.06105
11
3.35765
21
-8.0903
0
LINE
8
BLACK
6
CONTINUOUS
10
3.35765
20
-8.0903
11
3.38934
21
-8.0903
0
LINE
8
BLACK
6
CONTINUOUS
10
5.32616
20
-8.03912
11
5.35784
21
-8.03912
0
LINE
8
BLACK
6
CONTINUOUS
10
5.35784
20
-8.03912
11
5.34078
21
-8.05862
0
LINE
8
BLACK
6
CONTINUOUS
10
5.34078
20
-8.05862
11
5.34809
21
-8.05862
0
LINE
8
BLACK
6
CONTINUOUS
10
5.34809
20
-8.05862
11
5.35297
21
-8.06105
0
LINE
8
BLACK
6
CONTINUOUS
10
5.35297
20
-8.06105
11
5.3554
21
-8.06349
0
LINE
8
BLACK
6
CONTINUOUS
10
5.3554
20
-8.06349
11
5.35784
21
-8.06836
0
LINE
8
BLACK
6
CONTINUOUS
10
5.35784
20
-8.06836
11
5.35784
21
-8.08055
0
LINE
8
BLACK
6
CONTINUOUS
10
5.35784
20
-8.08055
11
5.3554
21
-8.08542
0
LINE
8
BLACK
6
CONTINUOUS
10
5.3554
20
-8.08542
11
5.35297
21
-8.08786
0
LINE
8
BLACK
6
CONTINUOUS
10
5.35297
20
-8.08786
11
5.34809
21
-8.0903
0
LINE
8
BLACK
6
CONTINUOUS
10
5.34809
20
-8.0903
11
5.33347
21
-8.0903
0
LINE
8
BLACK
6
CONTINUOUS
10
5.33347
20
-8.0903
11
5.32859
21
-8.08786
0
LINE
8
BLACK
6
CONTINUOUS
10
5.32859
20
-8.08786
11
5.32616
21
-8.08542
0
LINE
8
BLACK
6
CONTINUOUS
10
7.32147
20
-8.05618
11
7.32147
21
-8.0903
0
LINE
8
BLACK
6
CONTINUOUS
10
7.30928
20
-8.03668
11
7.2971
21
-8.07324
0
LINE
8
BLACK
6
CONTINUOUS
10
7.2971
20
-8.07324
11
7.32878
21
-8.07324
0
LINE
8
BLACK
6
CONTINUOUS
10
9.29241
20
-8.03912
11
9.26804
21
-8.03912
0
LINE
8
BLACK
6
CONTINUOUS
10
9.26804
20
-8.03912
11
9.2656
21
-8.06349
0
LINE
8
BLACK
6
CONTINUOUS
10
9.2656
20
-8.06349
11
9.26804
21
-8.06105
0
LINE
8
BLACK
6
CONTINUOUS
10
9.26804
20
-8.06105
11
9.27291
21
-8.05862
0
LINE
8
BLACK
6
CONTINUOUS
10
9.27291
20
-8.05862
11
9.2851
21
-8.05862
0
LINE
8
BLACK
6
CONTINUOUS
10
9.2851
20
-8.05862
11
9.28997
21
-8.06105
0
LINE
8
BLACK
6
CONTINUOUS
10
9.28997
20
-8.06105
11
9.29241
21
-8.06349
0
LINE
8
BLACK
6
CONTINUOUS
10
9.29241
20
-8.06349
11
9.29485
21
-8.06836
0
LINE
8
BLACK
6
CONTINUOUS
10
9.29485
20
-8.06836
11
9.29485
21
-8.08055
0
LINE
8
BLACK
6
CONTINUOUS
10
9.29485
20
-8.08055
11
9.29241
21
-8.08542
0
LINE
8
BLACK
6
CONTINUOUS
10
9.29241
20
-8.08542
11
9.28997
21
-8.08786
0
LINE
8
BLACK
6
CONTINUOUS
10
9.28997
20
-8.08786
11
9.2851
21
-8.0903
0
LINE
8
BLACK
6
CONTINUOUS
10
9.2851
20
-8.0903
11
9.27291
21
-8.0903
0
LINE
8
BLACK
6
CONTINUOUS
10
9.27291
20
-8.0903
11
9.26804
21
-8.08786
0
LINE
8
BLACK
6
CONTINUOUS
10
9.26804
20
-8.08786
11
9.2656
21
-8.08542
0
LINE
8
BLACK
6
CONTINUOUS
10
0.393701
20
-2.3622
11
0.472441
21
-2.3622
0
LINE
8
BLACK
6
CONTINUOUS
10
0.393701
20
-4.33071
11
0.472441
21
-4.33071
0
LINE
8
BLACK
6
CONTINUOUS
10
0.393701
20
-6.29921
11
0.472441
21
-6.29921
0
LINE
8
BLACK
6
CONTINUOUS
10
0.420885
20
-1.3867
11
0.445257
21
-1.3867
0
LINE
8
BLACK
6
CONTINUOUS
10
0.41601
20
-1.40132
11
0.433071
21
-1.35014
0
LINE
8
BLACK
6
CONTINUOUS
10
0.433071
20
-1.35014
11
0.450131
21
-1.40132
0
LINE
8
BLACK
6
CONTINUOUS
10
0.436727
20
-3.34302
11
0.444038
21
-3.34545
0
LINE
8
BLACK
6
CONTINUOUS
10
0.444038
20
-3.34545
11
0.446475
21
-3.34789
0
LINE
8
BLACK
6
CONTINUOUS
10
0.446475
20
-3.34789
11
0.448913
21
-3.35277
0
LINE
8
BLACK
6
CONTINUOUS
10
0.448913
20
-3.35277
11
0.448913
21
-3.36008
0
LINE
8
BLACK
6
CONTINUOUS
10
0.448913
20
-3.36008
11
0.446475
21
-3.36495
0
LINE
8
BLACK
6
CONTINUOUS
10
0.446475
20
-3.36495
11
0.444038
21
-3.36739
0
LINE
8
BLACK
6
CONTINUOUS
10
0.444038
20
-3.36739
11
0.439164
21
-3.36983
0
LINE
8
BLACK
6
CONTINUOUS
10
0.439164
20
-3.36983
11
0.419666
21
-3.36983
0
LINE
8
BLACK
6
CONTINUOUS
10
0.419666
20
-3.36983
11
0.419666
21
-3.31865
0
LINE
8
BLACK
6
CONTINUOUS
10
0.419666
20
-3.31865
11
0.436727
21
-3.31865
0
LINE
8
BLACK
6
CONTINUOUS
10
0.436727
20
-3.31865
11
0.441601
21
-3.32108
0
LINE
8
BLACK
6
CONTINUOUS
10
0.441601
20
-3.32108
11
0.444038
21
-3.32352
0
LINE
8
BLACK
6
CONTINUOUS
10
0.444038
20
-3.32352
11
0.446475
21
-3.32839
0
LINE
8
BLACK
6
CONTINUOUS
10
0.446475
20
-3.32839
11
0.446475
21
-3.33327
0
LINE
8
BLACK
6
CONTINUOUS
10
0.446475
20
-3.33327
11
0.444038
21
-3.33814
0
LINE
8
BLACK
6
CONTINUOUS
10
0.444038
20
-3.33814
11
0.441601
21
-3.34058
0
LINE
8
BLACK
6
CONTINUOUS
10
0.441601
20
-3.34058
11
0.436727
21
-3.34302
0
LINE
8
BLACK
6
CONTINUOUS
10
0.436727
20
-3.34302
11
0.419666
21
-3.34302
0
LINE
8
BLACK
6
CONTINUOUS
10
0.448913
20
-5.33346
11
0.446475
21
-5.33589
0
LINE
8
BLACK
6
CONTINUOUS
10
0.446475
20
-5.33589
11
0.439164
21
-5.33833
0
LINE
8
BLACK
6
CONTINUOUS
10
0.439164
20
-5.33833
11
0.434289
21
-5.33833
0
LINE
8
BLACK
6
CONTINUOUS
10
0.434289
20
-5.33833
11
0.426978
21
-5.33589
0
LINE
8
BLACK
6
CONTINUOUS
10
0.426978
20
-5.33589
11
0.422103
21
-5.33102
0
LINE
8
BLACK
6
CONTINUOUS
10
0.422103
20
-5.33102
11
0.419666
21
-5.32614
0
LINE
8
BLACK
6
CONTINUOUS
10
0.419666
20
-5.32614
11
0.417229
21
-5.3164
0
LINE
8
BLACK
6
CONTINUOUS
10
0.417229
20
-5.3164
11
0.417229
21
-5.30908
0
LINE
8
BLACK
6
CONTINUOUS
10
0.417229
20
-5.30908
11
0.419666
21
-5.29934
0
LINE
8
BLACK
6
CONTINUOUS
10
0.419666
20
-5.29934
11
0.422103
21
-5.29446
0
LINE
8
BLACK
6
CONTINUOUS
10
0.422103
20
-5.29446
11
0.426978
21
-5.28959
0
LINE
8
BLACK
6
CONTINUOUS
10
0.426978
20
-5.28959
11
0.434289
21
-5.28715
0
LINE
8
BLACK
6
CONTINUOUS
10
0.434289
20
-5.28715
11
0.439164
21
-5.28715
0
LINE
8
BLACK
6
CONTINUOUS
10
0.439164
20
-5.28715
11
0.446475
21
-5.28959
0
LINE
8
BLACK
6
CONTINUOUS
10
0.446475
20
-5.28959
11
0.448913
21
-5.29202
0
LINE
8
BLACK
6
CONTINUOUS
10
0.419666
20
-7.30683
11
0.419666
21
-7.25565
0
LINE
8
BLACK
6
CONTINUOUS
10
0.419666
20
-7.25565
11
0.431852
21
-7.25565
0
LINE
8
BLACK
6
CONTINUOUS
10
0.431852
20
-7.25565
11
0.439164
21
-7.25809
0
LINE
8
BLACK
6
CONTINUOUS
10
0.439164
20
-7.25809
11
0.444038
21
-7.26297
0
LINE
8
BLACK
6
CONTINUOUS
10
0.444038
20
-7.26297
11
0.446475
21
-7.26784
0
LINE
8
BLACK
6
CONTINUOUS
10
0.446475
20
-7.26784
11
0.448913
21
-7.27759
0
LINE
8
BLACK
6
CONTINUOUS
10
0.448913
20
-7.27759
11
0.448913
21
-7.2849
0
LINE
8
BLACK
6
CONTINUOUS
10
0.448913
20
-7.2849
11
0.446475
21
-7.29465
0
LINE
8
BLACK
6
CONTINUOUS
10
0.446475
20
-7.29465
11
0.444038
21
-7.29952
0
LINE
8
BLACK
6
CONTINUOUS
10
0.444038
20
-7.29952
11
0.439164
21
-7.3044
0
LINE
8
BLACK
6
CONTINUOUS
10
0.439164
20
-7.3044
11
0.431852
21
-7.30683
0
LINE
8
BLACK
6
CONTINUOUS
10
0.431852
20
-7.30683
11
0.419666
21
-7.30683
0
LINE
8
BLACK
6
CONTINUOUS
10
10.6063
20
-2.3622
11
10.5276
21
-2.3622
0
LINE
8
BLACK
6
CONTINUOUS
10
10.6063
20
-4.33071
11
10.5276
21
-4.33071
0
LINE
8
BLACK
6
CONTINUOUS
10
10.6063
20
-6.29921
11
10.5276
21
-6.29921
0
LINE
8
BLACK
6
CONTINUOUS
10
10.5547
20
-1.3867
11
10.5791
21
-1.3867
0
LINE
8
BLACK
6
CONTINUOUS
10
10.5499
20
-1.40132
11
10.5669
21
-1.35014
0
LINE
8
BLACK
6
CONTINUOUS
10
10.5669
20
-1.35014
11
10.584
21
-1.40132
0
LINE
8
BLACK
6
CONTINUOUS
10
10.5706
20
-3.34302
11
10.5779
21
-3.34545
0
LINE
8
BLACK
6
CONTINUOUS
10
10.5779
20
-3.34545
11
10.5803
21
-3.34789
0
LINE
8
BLACK
6
CONTINUOUS
10
10.5803
20
-3.34789
11
10.5828
21
-3.35277
0
LINE
8
BLACK
6
CONTINUOUS
10
10.5828
20
-3.35277
11
10.5828
21
-3.36008
0
LINE
8
BLACK
6
CONTINUOUS
10
10.5828
20
-3.36008
11
10.5803
21
-3.36495
0
LINE
8
BLACK
6
CONTINUOUS
10
10.5803
20
-3.36495
11
10.5779
21
-3.36739
0
LINE
8
BLACK
6
CONTINUOUS
10
10.5779
20
-3.36739
11
10.573
21
-3.36983
0
LINE
8
BLACK
6
CONTINUOUS
10
10.573
20
-3.36983
11
10.5535
21
-3.36983
0
LINE
8
BLACK
6
CONTINUOUS
10
10.5535
20
-3.36983
11
10.5535
21
-3.31865
0
LINE
8
BLACK
6
CONTINUOUS
10
10.5535
20
-3.31865
11
10.5706
21
-3.31865
0
LINE
8
BLACK
6
CONTINUOUS
10
10.5706
20
-3.31865
11
10.5755
21
-3.32108
0
LINE
8
BLACK
6
CONTINUOUS
10
10.5755
20
-3.32108
11
10.5779
21
-3.32352
0
LINE
8
BLACK
6
CONTINUOUS
10
10.5779
20
-3.32352
11
10.5803
21
-3.32839
0
LINE
8
BLACK
6
CONTINUOUS
10
10.5803
20
-3.32839
11
10.5803
21
-3.33327
0
LINE
8
BLACK
6
CONTINUOUS
10
10.5803
20
-3.33327
11
10.5779
21
-3.33814
0
LINE
8
BLACK
6
CONTINUOUS
10
10.5779
20
-3.33814
11
10.5755
21
-3.34058
0
LINE
8
BLACK
6
CONTINUOUS
10
10.5755
20
-3.34058
11
10.5706
21
-3.34302
0
LINE
8
BLACK
6
CONTINUOUS
10
10.5706
20
-3.34302
11
10.5535
21
-3.34302
0
LINE
8
BLACK
6
CONTINUOUS
10
10.5828
20
-5.33346
11
10.5803
21
-5.33589
0
LINE
8
BLACK
6
CONTINUOUS
10
10.5803
20
-5.33589
11
10.573
21
-5.33833
0
LINE
8
BLACK
6
CONTINUOUS
10
10.573
20
-5.33833
11
10.5681
21
-5.33833
0
LINE
8
BLACK
6
CONTINUOUS
10
10.5681
20
-5.33833
11
10.5608
21
-5.33589
0
LINE
8
BLACK
6
CONTINUOUS
10
10.5608
20
-5.33589
11
10.556
21
-5.33102
0
LINE
8
BLACK
6
CONTINUOUS
10
10.556
20
-5.33102
11
10.5535
21
-5.32614
0
LINE
8
BLACK
6
CONTINUOUS
10
10.5535
20
-5.32614
11
10.5511
21
-5.3164
0
LINE
8
BLACK
6
CONTINUOUS
10
10.5511
20
-5.3164
11
10.5511
21
-5.30908
0
LINE
8
BLACK
6
CONTINUOUS
10
10.5511
20
-5.30908
11
10.5535
21
-5.29934
0
LINE
8
BLACK
6
CONTINUOUS
10
10.5535
20
-5.29934
11
10.556
21
-5.29446
0
LINE
8
BLACK
6
CONTINUOUS
10
10.556
20
-5.29446
11
10.5608
21
-5.28959
0
LINE
8
BLACK
6
CONTINUOUS
10
10.5608
20
-5.28959
11
10.5681
21
-5.28715
0
LINE
8
BLACK
6
CONTINUOUS
10
10.5681
20
-5.28715
11
10.573
21
-5.28715
0
LINE
8
BLACK
6
CONTINUOUS
10
10.573
20
-5.28715
11
10.5803
21
-5.28959
0
LINE
8
BLACK
6
CONTINUOUS
10
10.5803
20
-5.28959
11
10.5828
21
-5.29202
0
LINE
8
BLACK
6
CONTINUOUS
10
10.5535
20
-7.30683
11
10.5535
21
-7.25565
0
LINE
8
BLACK
6
CONTINUOUS
10
10.5535
20
-7.25565
11
10.5657
21
-7.25565
0
LINE
8
BLACK
6
CONTINUOUS
10
10.5657
20
-7.25565
11
10.573
21
-7.25809
0
LINE
8
BLACK
6
CONTINUOUS
10
10.573
20
-7.25809
11
10.5779
21
-7.26297
0
LINE
8
BLACK
6
CONTINUOUS
10
10.5779
20
-7.26297
11
10.5803
21
-7.26784
0
LINE
8
BLACK
6
CONTINUOUS
10
10.5803
20
-7.26784
11
10.5828
21
-7.27759
0
LINE
8
BLACK
6
CONTINUOUS
10
10.5828
20
-7.27759
11
10.5828
21
-7.2849
0
LINE
8
BLACK
6
CONTINUOUS
10
10.5828
20
-7.2849
11
10.5803
21
-7.29465
0
LINE
8
BLACK
6
CONTINUOUS
10
10.5803
20
-7.29465
11
10.5779
21
-7.29952
0
LINE
8
BLACK
6
CONTINUOUS
10
10.5779
20
-7.29952
11
10.573
21
-7.3044
0
LINE
8
BLACK
6
CONTINUOUS
10
10.573
20
-7.3044
11
10.5657
21
-7.30683
0
LINE
8
BLACK
6
CONTINUOUS
10
10.5657
20
-7.30683
11
10.5535
21
-7.30683
0
LINE
8
BLACK
6
CONTINUOUS
10
7.19905
20
-7.86166
11
7.19905
21
-7.8026
0
LINE
8
BLACK
6
CONTINUOUS
10
7.19905
20
-7.8026
11
7.21311
21
-7.8026
0
LINE
8
BLACK
6
CONTINUOUS
10
7.21311
20
-7.8026
11
7.22155
21
-7.80542
0
LINE
8
BLACK
6
CONTINUOUS
10
7.22155
20
-7.80542
11
7.22717
21
-7.81104
0
LINE
8
BLACK
6
CONTINUOUS
10
7.22717
20
-7.81104
11
7.22998
21
-7.81666
0
LINE
8
BLACK
6
CONTINUOUS
10
7.22998
20
-7.81666
11
7.23279
21
-7.82791
0
LINE
8
BLACK
6
CONTINUOUS
10
7.23279
20
-7.82791
11
7.23279
21
-7.83635
0
LINE
8
BLACK
6
CONTINUOUS
10
7.23279
20
-7.83635
11
7.22998
21
-7.8476
0
LINE
8
BLACK
6
CONTINUOUS
10
7.22998
20
-7.8476
11
7.22717
21
-7.85322
0
LINE
8
BLACK
6
CONTINUOUS
10
7.22717
20
-7.85322
11
7.22155
21
-7.85885
0
LINE
8
BLACK
6
CONTINUOUS
10
7.22155
20
-7.85885
11
7.21311
21
-7.86166
0
LINE
8
BLACK
6
CONTINUOUS
10
7.21311
20
-7.86166
11
7.19905
21
-7.86166
0
LINE
8
BLACK
6
CONTINUOUS
10
7.28341
20
-7.86166
11
7.28341
21
-7.83072
0
LINE
8
BLACK
6
CONTINUOUS
10
7.28341
20
-7.83072
11
7.2806
21
-7.8251
0
LINE
8
BLACK
6
CONTINUOUS
10
7.2806
20
-7.8251
11
7.27498
21
-7.82229
0
LINE
8
BLACK
6
CONTINUOUS
10
7.27498
20
-7.82229
11
7.26373
21
-7.82229
0
LINE
8
BLACK
6
CONTINUOUS
10
7.26373
20
-7.82229
11
7.2581
21
-7.8251
0
LINE
8
BLACK
6
CONTINUOUS
10
7.28341
20
-7.85885
11
7.27779
21
-7.86166
0
LINE
8
BLACK
6
CONTINUOUS
10
7.27779
20
-7.86166
11
7.26373
21
-7.86166
0
LINE
8
BLACK
6
CONTINUOUS
10
7.26373
20
-7.86166
11
7.2581
21
-7.85885
0
LINE
8
BLACK
6
CONTINUOUS
10
7.2581
20
-7.85885
11
7.25529
21
-7.85322
0
LINE
8
BLACK
6
CONTINUOUS
10
7.25529
20
-7.85322
11
7.25529
21
-7.8476
0
LINE
8
BLACK
6
CONTINUOUS
10
7.25529
20
-7.8476
11
7.2581
21
-7.84197
0
LINE
8
BLACK
6
CONTINUOUS
10
7.2581
20
-7.84197
11
7.26373
21
-7.83916
0
LINE
8
BLACK
6
CONTINUOUS
10
7.26373
20
-7.83916
11
7.27779
21
-7.83916
0
LINE
8
BLACK
6
CONTINUOUS
10
7.27779
20
-7.83916
11
7.28341
21
-7.83635
0
LINE
8
BLACK
6
CONTINUOUS
10
7.3031
20
-7.82229
11
7.32559
21
-7.82229
0
LINE
8
BLACK
6
CONTINUOUS
10
7.31153
20
-7.8026
11
7.31153
21
-7.85322
0
LINE
8
BLACK
6
CONTINUOUS
10
7.31153
20
-7.85322
11
7.31435
21
-7.85885
0
LINE
8
BLACK
6
CONTINUOUS
10
7.31435
20
-7.85885
11
7.31997
21
-7.86166
0
LINE
8
BLACK
6
CONTINUOUS
10
7.31997
20
-7.86166
11
7.32559
21
-7.86166
0
LINE
8
BLACK
6
CONTINUOUS
10
7.36778
20
-7.85885
11
7.36215
21
-7.86166
0
LINE
8
BLACK
6
CONTINUOUS
10
7.36215
20
-7.86166
11
7.3509
21
-7.86166
0
LINE
8
BLACK
6
CONTINUOUS
10
7.3509
20
-7.86166
11
7.34528
21
-7.85885
0
LINE
8
BLACK
6
CONTINUOUS
10
7.34528
20
-7.85885
11
7.34247
21
-7.85322
0
LINE
8
BLACK
6
CONTINUOUS
10
7.34247
20
-7.85322
11
7.34247
21
-7.83072
0
LINE
8
BLACK
6
CONTINUOUS
10
7.34247
20
-7.83072
11
7.34528
21
-7.8251
0
LINE
8
BLACK
6
CONTINUOUS
10
7.34528
20
-7.8251
11
7.3509
21
-7.82229
0
LINE
8
BLACK
6
CONTINUOUS
10
7.3509
20
-7.82229
11
7.36215
21
-7.82229
0
LINE
8
BLACK
6
CONTINUOUS
10
7.36215
20
-7.82229
11
7.36778
21
-7.8251
0
LINE
8
BLACK
6
CONTINUOUS
10
7.36778
20
-7.8251
11
7.37059
21
-7.83072
0
LINE
8
BLACK
6
CONTINUOUS
10
7.37059
20
-7.83072
11
7.37059
21
-7.83635
0
LINE
8
BLACK
6
CONTINUOUS
10
7.37059
20
-7.83635
11
7.34247
21
-7.84197
0
LINE
8
BLACK
6
CONTINUOUS
10
7.3959
20
-7.85603
11
7.39871
21
-7.85885
0
LINE
8
BLACK
6
CONTINUOUS
10
7.39871
20
-7.85885
11
7.3959
21
-7.86166
0
LINE
8
BLACK
6
CONTINUOUS
10
7.3959
20
-7.86166
11
7.39309
21
-7.85885
0
LINE
8
BLACK
6
CONTINUOUS
10
7.39309
20
-7.85885
11
7.3959
21
-7.85603
0
LINE
8
BLACK
6
CONTINUOUS
10
7.3959
20
-7.85603
11
7.3959
21
-7.86166
0
LINE
8
BLACK
6
CONTINUOUS
10
7.3959
20
-7.8251
11
7.39871
21
-7.82791
0
LINE
8
BLACK
6
CONTINUOUS
10
7.39871
20
-7.82791
11
7.3959
21
-7.83072
0
LINE
8
BLACK
6
CONTINUOUS
10
7.3959
20
-7.83072
11
7.39309
21
-7.82791
0
LINE
8
BLACK
6
CONTINUOUS
10
7.39309
20
-7.82791
11
7.3959
21
-7.8251
0
LINE
8
BLACK
6
CONTINUOUS
10
7.3959
20
-7.8251
11
7.3959
21
-7.83072
0
LINE
8
BLACK
6
CONTINUOUS
10
7.4662
20
-7.80823
11
7.46901
21
-7.80542
0
LINE
8
BLACK
6
CONTINUOUS
10
7.46901
20
-7.80542
11
7.47464
21
-7.8026
0
LINE
8
BLACK
6
CONTINUOUS
10
7.47464
20
-7.8026
11
7.4887
21
-7.8026
0
LINE
8
BLACK
6
CONTINUOUS
10
7.4887
20
-7.8026
11
7.49432
21
-7.80542
0
LINE
8
BLACK
6
CONTINUOUS
10
7.49432
20
-7.80542
11
7.49714
21
-7.80823
0
LINE
8
BLACK
6
CONTINUOUS
10
7.49714
20
-7.80823
11
7.49995
21
-7.81385
0
LINE
8
BLACK
6
CONTINUOUS
10
7.49995
20
-7.81385
11
7.49995
21
-7.81948
0
LINE
8
BLACK
6
CONTINUOUS
10
7.49995
20
-7.81948
11
7.49714
21
-7.82791
0
LINE
8
BLACK
6
CONTINUOUS
10
7.49714
20
-7.82791
11
7.46339
21
-7.86166
0
LINE
8
BLACK
6
CONTINUOUS
10
7.46339
20
-7.86166
11
7.49995
21
-7.86166
0
LINE
8
BLACK
6
CONTINUOUS
10
7.53651
20
-7.8026
11
7.54213
21
-7.8026
0
LINE
8
BLACK
6
CONTINUOUS
10
7.54213
20
-7.8026
11
7.54775
21
-7.80542
0
LINE
8
BLACK
6
CONTINUOUS
10
7.54775
20
-7.80542
11
7.55057
21
-7.80823
0
LINE
8
BLACK
6
CONTINUOUS
10
7.55057
20
-7.80823
11
7.55338
21
-7.81385
0
LINE
8
BLACK
6
CONTINUOUS
10
7.55338
20
-7.81385
11
7.55619
21
-7.8251
0
LINE
8
BLACK
6
CONTINUOUS
10
7.55619
20
-7.8251
11
7.55619
21
-7.83916
0
LINE
8
BLACK
6
CONTINUOUS
10
7.55619
20
-7.83916
11
7.55338
21
-7.85041
0
LINE
8
BLACK
6
CONTINUOUS
10
7.55338
20
-7.85041
11
7.55057
21
-7.85603
0
LINE
8
BLACK
6
CONTINUOUS
10
7.55057
20
-7.85603
11
7.54775
21
-7.85885
0
LINE
8
BLACK
6
CONTINUOUS
10
7.54775
20
-7.85885
11
7.54213
21
-7.86166
0
LINE
8
BLACK
6
CONTINUOUS
10
7.54213
20
-7.86166
11
7.53651
21
-7.86166
0
LINE
8
BLACK
6
CONTINUOUS
10
7.53651
20
-7.86166
11
7.53088
21
-7.85885
0
LINE
8
BLACK
6
CONTINUOUS
10
7.53088
20
-7.85885
11
7.52807
21
-7.85603
0
LINE
8
BLACK
6
CONTINUOUS
10
7.52807
20
-7.85603
11
7.52526
21
-7.85041
0
LINE
8
BLACK
6
CONTINUOUS
10
7.52526
20
-7.85041
11
7.52245
21
-7.83916
0
LINE
8
BLACK
6
CONTINUOUS
10
7.52245
20
-7.83916
11
7.52245
21
-7.8251
0
LINE
8
BLACK
6
CONTINUOUS
10
7.52245
20
-7.8251
11
7.52526
21
-7.81385
0
LINE
8
BLACK
6
CONTINUOUS
10
7.52526
20
-7.81385
11
7.52807
21
-7.80823
0
LINE
8
BLACK
6
CONTINUOUS
10
7.52807
20
-7.80823
11
7.53088
21
-7.80542
0
LINE
8
BLACK
6
CONTINUOUS
10
7.53088
20
-7.80542
11
7.53651
21
-7.8026
0
LINE
8
BLACK
6
CONTINUOUS
10
7.57869
20
-7.80823
11
7.5815
21
-7.80542
0
LINE
8
BLACK
6
CONTINUOUS
10
7.5815
20
-7.80542
11
7.58712
21
-7.8026
0
LINE
8
BLACK
6
CONTINUOUS
10
7.58712
20
-7.8026
11
7.60119
21
-7.8026
0
LINE
8
BLACK
6
CONTINUOUS
10
7.60119
20
-7.8026
11
7.60681
21
-7.80542
0
LINE
8
BLACK
6
CONTINUOUS
10
7.60681
20
-7.80542
11
7.60962
21
-7.80823
0
LINE
8
BLACK
6
CONTINUOUS
10
7.60962
20
-7.80823
11
7.61243
21
-7.81385
0
LINE
8
BLACK
6
CONTINUOUS
10
7.61243
20
-7.81385
11
7.61243
21
-7.81948
0
LINE
8
BLACK
6
CONTINUOUS
10
7.61243
20
-7.81948
11
7.60962
21
-7.82791
0
LINE
8
BLACK
6
CONTINUOUS
10
7.60962
20
-7.82791
11
7.57588
21
-7.86166
0
LINE
8
BLACK
6
CONTINUOUS
10
7.57588
20
-7.86166
11
7.61243
21
-7.86166
0
LINE
8
BLACK
6
CONTINUOUS
10
7.63212
20
-7.8026
11
7.66868
21
-7.8026
0
LINE
8
BLACK
6
CONTINUOUS
10
7.66868
20
-7.8026
11
7.64899
21
-7.8251
0
LINE
8
BLACK
6
CONTINUOUS
10
7.64899
20
-7.8251
11
7.65743
21
-7.8251
0
LINE
8
BLACK
6
CONTINUOUS
10
7.65743
20
-7.8251
11
7.66305
21
-7.82791
0
LINE
8
BLACK
6
CONTINUOUS
10
7.66305
20
-7.82791
11
7.66586
21
-7.83072
0
LINE
8
BLACK
6
CONTINUOUS
10
7.66586
20
-7.83072
11
7.66868
21
-7.83635
0
LINE
8
BLACK
6
CONTINUOUS
10
7.66868
20
-7.83635
11
7.66868
21
-7.85041
0
LINE
8
BLACK
6
CONTINUOUS
10
7.66868
20
-7.85041
11
7.66586
21
-7.85603
0
LINE
8
BLACK
6
CONTINUOUS
10
7.66586
20
-7.85603
11
7.66305
21
-7.85885
0
LINE
8
BLACK
6
CONTINUOUS
10
7.66305
20
-7.85885
11
7.65743
21
-7.86166
0
LINE
8
BLACK
6
CONTINUOUS
10
7.65743
20
-7.86166
11
7.64056
21
-7.86166
0
LINE
8
BLACK
6
CONTINUOUS
10
7.64056
20
-7.86166
11
7.63493
21
-7.85885
0
LINE
8
BLACK
6
CONTINUOUS
10
7.63493
20
-7.85885
11
7.63212
21
-7.85603
0
LINE
8
BLACK
6
CONTINUOUS
10
7.69399
20
-7.83916
11
7.73898
21
-7.83916
0
LINE
8
BLACK
6
CONTINUOUS
10
7.77835
20
-7.8026
11
7.78398
21
-7.8026
0
LINE
8
BLACK
6
CONTINUOUS
10
7.78398
20
-7.8026
11
7.7896
21
-7.80542
0
LINE
8
BLACK
6
CONTINUOUS
10
7.7896
20
-7.80542
11
7.79241
21
-7.80823
0
LINE
8
BLACK
6
CONTINUOUS
10
7.79241
20
-7.80823
11
7.79522
21
-7.81385
0
LINE
8
BLACK
6
CONTINUOUS
10
7.79522
20
-7.81385
11
7.79804
21
-7.8251
0
LINE
8
BLACK
6
CONTINUOUS
10
7.79804
20
-7.8251
11
7.79804
21
-7.83916
0
LINE
8
BLACK
6
CONTINUOUS
10
7.79804
20
-7.83916
11
7.79522
21
-7.85041
0
LINE
8
BLACK
6
CONTINUOUS
10
7.79522
20
-7.85041
11
7.79241
21
-7.85603
0
LINE
8
BLACK
6
CONTINUOUS
10
7.79241
20
-7.85603
11
7.7896
21
-7.85885
0
LINE
8
BLACK
6
CONTINUOUS
10
7.7896
20
-7.85885
11
7.78398
21
-7.86166
0
LINE
8
BLACK
6
CONTINUOUS
10
7.78398
20
-7.86166
11
7.77835
21
-7.86166
0
LINE
8
BLACK
6
CONTINUOUS
10
7.77835
20
-7.86166
11
7.77273
21
-7.85885
0
LINE
8
BLACK
6
CONTINUOUS
10
7.77273
20
-7.85885
11
7.76991
21
-7.85603
0
LINE
8
BLACK
6
CONTINUOUS
10
7.76991
20
-7.85603
11
7.7671
21
-7.85041
0
LINE
8
BLACK
6
CONTINUOUS
10
7.7671
20
-7.85041
11
7.76429
21
-7.83916
0
LINE
8
BLACK
6
CONTINUOUS
10
7.76429
20
-7.83916
11
7.76429
21
-7.8251
0
LINE
8
BLACK
6
CONTINUOUS
10
7.76429
20
-7.8251
11
7.7671
21
-7.81385
0
LINE
8
BLACK
6
CONTINUOUS
10
7.7671
20
-7.81385
11
7.76991
21
-7.80823
0
LINE
8
BLACK
6
CONTINUOUS
10
7.76991
20
-7.80823
11
7.77273
21
-7.80542
0
LINE
8
BLACK
6
CONTINUOUS
10
7.77273
20
-7.80542
11
7.77835
21
-7.8026
0
LINE
8
BLACK
6
CONTINUOUS
10
7.82616
20
-7.86166
11
7.83741
21
-7.86166
0
LINE
8
BLACK
6
CONTINUOUS
10
7.83741
20
-7.86166
11
7.84303
21
-7.85885
0
LINE
8
BLACK
6
CONTINUOUS
10
7.84303
20
-7.85885
11
7.84584
21
-7.85603
0
LINE
8
BLACK
6
CONTINUOUS
10
7.84584
20
-7.85603
11
7.85147
21
-7.8476
0
LINE
8
BLACK
6
CONTINUOUS
10
7.85147
20
-7.8476
11
7.85428
21
-7.83635
0
LINE
8
BLACK
6
CONTINUOUS
10
7.85428
20
-7.83635
11
7.85428
21
-7.81385
0
LINE
8
BLACK
6
CONTINUOUS
10
7.85428
20
-7.81385
11
7.85147
21
-7.80823
0
LINE
8
BLACK
6
CONTINUOUS
10
7.85147
20
-7.80823
11
7.84865
21
-7.80542
0
LINE
8
BLACK
6
CONTINUOUS
10
7.84865
20
-7.80542
11
7.84303
21
-7.8026
0
LINE
8
BLACK
6
CONTINUOUS
10
7.84303
20
-7.8026
11
7.83178
21
-7.8026
0
LINE
8
BLACK
6
CONTINUOUS
10
7.83178
20
-7.8026
11
7.82616
21
-7.80542
0
LINE
8
BLACK
6
CONTINUOUS
10
7.82616
20
-7.80542
11
7.82335
21
-7.80823
0
LINE
8
BLACK
6
CONTINUOUS
10
7.82335
20
-7.80823
11
7.82053
21
-7.81385
0
LINE
8
BLACK
6
CONTINUOUS
10
7.82053
20
-7.81385
11
7.82053
21
-7.82791
0
LINE
8
BLACK
6
CONTINUOUS
10
7.82053
20
-7.82791
11
7.82335
21
-7.83354
0
LINE
8
BLACK
6
CONTINUOUS
10
7.82335
20
-7.83354
11
7.82616
21
-7.83635
0
LINE
8
BLACK
6
CONTINUOUS
10
7.82616
20
-7.83635
11
7.83178
21
-7.83916
0
LINE
8
BLACK
6
CONTINUOUS
10
7.83178
20
-7.83916
11
7.84303
21
-7.83916
0
LINE
8
BLACK
6
CONTINUOUS
10
7.84303
20
-7.83916
11
7.84865
21
-7.83635
0
LINE
8
BLACK
6
CONTINUOUS
10
7.84865
20
-7.83635
11
7.85147
21
-7.83354
0
LINE
8
BLACK
6
CONTINUOUS
10
7.85147
20
-7.83354
11
7.85428
21
-7.82791
0
LINE
8
BLACK
6
CONTINUOUS
10
7.87959
20
-7.83916
11
7.92458
21
-7.83916
0
LINE
8
BLACK
6
CONTINUOUS
10
7.98364
20
-7.86166
11
7.94989
21
-7.86166
0
LINE
8
BLACK
6
CONTINUOUS
10
7.96676
20
-7.86166
11
7.96676
21
-7.8026
0
LINE
8
BLACK
6
CONTINUOUS
10
7.96676
20
-7.8026
11
7.96114
21
-7.81104
0
LINE
8
BLACK
6
CONTINUOUS
10
7.96114
20
-7.81104
11
7.95552
21
-7.81666
0
LINE
8
BLACK
6
CONTINUOUS
10
7.95552
20
-7.81666
11
7.94989
21
-7.81948
0
LINE
8
BLACK
6
CONTINUOUS
10
8.0202
20
-7.8026
11
8.02582
21
-7.8026
0
LINE
8
BLACK
6
CONTINUOUS
10
8.02582
20
-7.8026
11
8.03144
21
-7.80542
0
LINE
8
BLACK
6
CONTINUOUS
10
8.03144
20
-7.80542
11
8.03426
21
-7.80823
0
LINE
8
BLACK
6
CONTINUOUS
10
8.03426
20
-7.80823
11
8.03707
21
-7.81385
0
LINE
8
BLACK
6
CONTINUOUS
10
8.03707
20
-7.81385
11
8.03988
21
-7.8251
0
LINE
8
BLACK
6
CONTINUOUS
10
8.03988
20
-7.8251
11
8.03988
21
-7.83916
0
LINE
8
BLACK
6
CONTINUOUS
10
8.03988
20
-7.83916
11
8.03707
21
-7.85041
0
LINE
8
BLACK
6
CONTINUOUS
10
8.03707
20
-7.85041
11
8.03426
21
-7.85603
0
LINE
8
BLACK
6
CONTINUOUS
10
8.03426
20
-7.85603
11
8.03144
21
-7.85885
0
LINE
8
BLACK
6
CONTINUOUS
10
8.03144
20
-7.85885
11
8.02582
21
-7.86166
0
LINE
8
BLACK
6
CONTINUOUS
10
8.02582
20
-7.86166
11
8.0202
21
-7.86166
0
LINE
8
BLACK
6
CONTINUOUS
10
8.0202
20
-7.86166
11
8.01457
21
-7.85885
0
LINE
8
BLACK
6
CONTINUOUS
10
8.01457
20
-7.85885
11
8.01176
21
-7.85603
0
LINE
8
BLACK
6
CONTINUOUS
10
8.01176
20
-7.85603
11
8.00895
21
-7.85041
0
LINE
8
BLACK
6
CONTINUOUS
10
8.00895
20
-7.85041
11
8.00613
21
-7.83916
0
LINE
8
BLACK
6
CONTINUOUS
10
8.00613
20
-7.83916
11
8.00613
21
-7.8251
0
LINE
8
BLACK
6
CONTINUOUS
10
8.00613
20
-7.8251
11
8.00895
21
-7.81385
0
LINE
8
BLACK
6
CONTINUOUS
10
8.00895
20
-7.81385
11
8.01176
21
-7.80823
0
LINE
8
BLACK
6
CONTINUOUS
10
8.01176
20
-7.80823
11
8.01457
21
-7.80542
0
LINE
8
BLACK
6
CONTINUOUS
10
8.01457
20
-7.80542
11
8.0202
21
-7.8026
0
LINE
8
BLACK
6
CONTINUOUS
10
6.27559
20
-7.88976
11
10.5276
21
-7.88976
0
LINE
8
BLACK
6
CONTINUOUS
10
6.33291
20
-7.97189
11
6.33291
21
-7.91284
0
LINE
8
BLACK
6
CONTINUOUS
10
6.36665
20
-7.97189
11
6.34134
21
-7.93815
0
LINE
8
BLACK
6
CONTINUOUS
10
6.36665
20
-7.91284
11
6.33291
21
-7.94659
0
LINE
8
BLACK
6
CONTINUOUS
10
6.39196
20
-7.97189
11
6.39196
21
-7.93252
0
LINE
8
BLACK
6
CONTINUOUS
10
6.39196
20
-7.91284
11
6.38915
21
-7.91565
0
LINE
8
BLACK
6
CONTINUOUS
10
6.38915
20
-7.91565
11
6.39196
21
-7.91846
0
LINE
8
BLACK
6
CONTINUOUS
10
6.39196
20
-7.91846
11
6.39477
21
-7.91565
0
LINE
8
BLACK
6
CONTINUOUS
10
6.39477
20
-7.91565
11
6.39196
21
-7.91284
0
LINE
8
BLACK
6
CONTINUOUS
10
6.39196
20
-7.91284
11
6.39196
21
-7.91846
0
LINE
8
BLACK
6
CONTINUOUS
10
6.45383
20
-7.96627
11
6.45102
21
-7.96908
0
LINE
8
BLACK
6
CONTINUOUS
10
6.45102
20
-7.96908
11
6.44258
21
-7.97189
0
LINE
8
BLACK
6
CONTINUOUS
10
6.44258
20
-7.97189
11
6.43696
21
-7.97189
0
LINE
8
BLACK
6
CONTINUOUS
10
6.43696
20
-7.97189
11
6.42852
21
-7.96908
0
LINE
8
BLACK
6
CONTINUOUS
10
6.42852
20
-7.96908
11
6.4229
21
-7.96346
0
LINE
8
BLACK
6
CONTINUOUS
10
6.4229
20
-7.96346
11
6.42008
21
-7.95783
0
LINE
8
BLACK
6
CONTINUOUS
10
6.42008
20
-7.95783
11
6.41727
21
-7.94659
0
LINE
8
BLACK
6
CONTINUOUS
10
6.41727
20
-7.94659
11
6.41727
21
-7.93815
0
LINE
8
BLACK
6
CONTINUOUS
10
6.41727
20
-7.93815
11
6.42008
21
-7.9269
0
LINE
8
BLACK
6
CONTINUOUS
10
6.42008
20
-7.9269
11
6.4229
21
-7.92128
0
LINE
8
BLACK
6
CONTINUOUS
10
6.4229
20
-7.92128
11
6.42852
21
-7.91565
0
LINE
8
BLACK
6
CONTINUOUS
10
6.42852
20
-7.91565
11
6.43696
21
-7.91284
0
LINE
8
BLACK
6
CONTINUOUS
10
6.43696
20
-7.91284
11
6.44258
21
-7.91284
0
LINE
8
BLACK
6
CONTINUOUS
10
6.44258
20
-7.91284
11
6.45102
21
-7.91565
0
LINE
8
BLACK
6
CONTINUOUS
10
6.45102
20
-7.91565
11
6.45383
21
-7.91846
0
LINE
8
BLACK
6
CONTINUOUS
10
6.50445
20
-7.97189
11
6.50445
21
-7.94096
0
LINE
8
BLACK
6
CONTINUOUS
10
6.50445
20
-7.94096
11
6.50164
21
-7.93534
0
LINE
8
BLACK
6
CONTINUOUS
10
6.50164
20
-7.93534
11
6.49601
21
-7.93252
0
LINE
8
BLACK
6
CONTINUOUS
10
6.49601
20
-7.93252
11
6.48476
21
-7.93252
0
LINE
8
BLACK
6
CONTINUOUS
10
6.48476
20
-7.93252
11
6.47914
21
-7.93534
0
LINE
8
BLACK
6
CONTINUOUS
10
6.50445
20
-7.96908
11
6.49882
21
-7.97189
0
LINE
8
BLACK
6
CONTINUOUS
10
6.49882
20
-7.97189
11
6.48476
21
-7.97189
0
LINE
8
BLACK
6
CONTINUOUS
10
6.48476
20
-7.97189
11
6.47914
21
-7.96908
0
LINE
8
BLACK
6
CONTINUOUS
10
6.47914
20
-7.96908
11
6.47633
21
-7.96346
0
LINE
8
BLACK
6
CONTINUOUS
10
6.47633
20
-7.96346
11
6.47633
21
-7.95783
0
LINE
8
BLACK
6
CONTINUOUS
10
6.47633
20
-7.95783
11
6.47914
21
-7.95221
0
LINE
8
BLACK
6
CONTINUOUS
10
6.47914
20
-7.95221
11
6.48476
21
-7.9494
0
LINE
8
BLACK
6
CONTINUOUS
10
6.48476
20
-7.9494
11
6.49882
21
-7.9494
0
LINE
8
BLACK
6
CONTINUOUS
10
6.49882
20
-7.9494
11
6.50445
21
-7.94659
0
LINE
8
BLACK
6
CONTINUOUS
10
6.55788
20
-7.97189
11
6.55788
21
-7.91284
0
LINE
8
BLACK
6
CONTINUOUS
10
6.55788
20
-7.96908
11
6.55225
21
-7.97189
0
LINE
8
BLACK
6
CONTINUOUS
10
6.55225
20
-7.97189
11
6.54101
21
-7.97189
0
LINE
8
BLACK
6
CONTINUOUS
10
6.54101
20
-7.97189
11
6.53538
21
-7.96908
0
LINE
8
BLACK
6
CONTINUOUS
10
6.53538
20
-7.96908
11
6.53257
21
-7.96627
0
LINE
8
BLACK
6
CONTINUOUS
10
6.53257
20
-7.96627
11
6.52976
21
-7.96065
0
LINE
8
BLACK
6
CONTINUOUS
10
6.52976
20
-7.96065
11
6.52976
21
-7.94377
0
LINE
8
BLACK
6
CONTINUOUS
10
6.52976
20
-7.94377
11
6.53257
21
-7.93815
0
LINE
8
BLACK
6
CONTINUOUS
10
6.53257
20
-7.93815
11
6.53538
21
-7.93534
0
LINE
8
BLACK
6
CONTINUOUS
10
6.53538
20
-7.93534
11
6.54101
21
-7.93252
0
LINE
8
BLACK
6
CONTINUOUS
10
6.54101
20
-7.93252
11
6.55225
21
-7.93252
0
LINE
8
BLACK
6
CONTINUOUS
10
6.55225
20
-7.93252
11
6.55788
21
-7.93534
0
LINE
8
BLACK
6
CONTINUOUS
10
6.63099
20
-7.94096
11
6.65068
21
-7.94096
0
LINE
8
BLACK
6
CONTINUOUS
10
6.65912
20
-7.97189
11
6.63099
21
-7.97189
0
LINE
8
BLACK
6
CONTINUOUS
10
6.63099
20
-7.97189
11
6.63099
21
-7.91284
0
LINE
8
BLACK
6
CONTINUOUS
10
6.63099
20
-7.91284
11
6.65912
21
-7.91284
0
LINE
8
BLACK
6
CONTINUOUS
10
6.68443
20
-7.96627
11
6.68724
21
-7.96908
0
LINE
8
BLACK
6
CONTINUOUS
10
6.68724
20
-7.96908
11
6.68443
21
-7.97189
0
LINE
8
BLACK
6
CONTINUOUS
10
6.68443
20
-7.97189
11
6.68161
21
-7.96908
0
LINE
8
BLACK
6
CONTINUOUS
10
6.68161
20
-7.96908
11
6.68443
21
-7.96627
0
LINE
8
BLACK
6
CONTINUOUS
10
6.68443
20
-7.96627
11
6.68443
21
-7.97189
0
LINE
8
BLACK
6
CONTINUOUS
10
6.71255
20
-7.97189
11
6.71255
21
-7.91284
0
LINE
8
BLACK
6
CONTINUOUS
10
6.71255
20
-7.91284
11
6.72661
21
-7.91284
0
LINE
8
BLACK
6
CONTINUOUS
10
6.72661
20
-7.91284
11
6.73504
21
-7.91565
0
LINE
8
BLACK
6
CONTINUOUS
10
6.73504
20
-7.91565
11
6.74067
21
-7.92128
0
LINE
8
BLACK
6
CONTINUOUS
10
6.74067
20
-7.92128
11
6.74348
21
-7.9269
0
LINE
8
BLACK
6
CONTINUOUS
10
6.74348
20
-7.9269
11
6.74629
21
-7.93815
0
LINE
8
BLACK
6
CONTINUOUS
10
6.74629
20
-7.93815
11
6.74629
21
-7.94659
0
LINE
8
BLACK
6
CONTINUOUS
10
6.74629
20
-7.94659
11
6.74348
21
-7.95783
0
LINE
8
BLACK
6
CONTINUOUS
10
6.74348
20
-7.95783
11
6.74067
21
-7.96346
0
LINE
8
BLACK
6
CONTINUOUS
10
6.74067
20
-7.96346
11
6.73504
21
-7.96908
0
LINE
8
BLACK
6
CONTINUOUS
10
6.73504
20
-7.96908
11
6.72661
21
-7.97189
0
LINE
8
BLACK
6
CONTINUOUS
10
6.72661
20
-7.97189
11
6.71255
21
-7.97189
0
LINE
8
BLACK
6
CONTINUOUS
10
6.7716
20
-7.96627
11
6.77441
21
-7.96908
0
LINE
8
BLACK
6
CONTINUOUS
10
6.77441
20
-7.96908
11
6.7716
21
-7.97189
0
LINE
8
BLACK
6
CONTINUOUS
10
6.7716
20
-7.97189
11
6.76879
21
-7.96908
0
LINE
8
BLACK
6
CONTINUOUS
10
6.76879
20
-7.96908
11
6.7716
21
-7.96627
0
LINE
8
BLACK
6
CONTINUOUS
10
6.7716
20
-7.96627
11
6.7716
21
-7.97189
0
LINE
8
BLACK
6
CONTINUOUS
10
6.79691
20
-7.95502
11
6.82503
21
-7.95502
0
LINE
8
BLACK
6
CONTINUOUS
10
6.79129
20
-7.97189
11
6.81097
21
-7.91284
0
LINE
8
BLACK
6
CONTINUOUS
10
6.81097
20
-7.91284
11
6.83066
21
-7.97189
0
LINE
8
BLACK
6
CONTINUOUS
10
6.85034
20
-7.96627
11
6.85315
21
-7.96908
0
LINE
8
BLACK
6
CONTINUOUS
10
6.85315
20
-7.96908
11
6.85034
21
-7.97189
0
LINE
8
BLACK
6
CONTINUOUS
10
6.85034
20
-7.97189
11
6.84753
21
-7.96908
0
LINE
8
BLACK
6
CONTINUOUS
10
6.84753
20
-7.96908
11
6.85034
21
-7.96627
0
LINE
8
BLACK
6
CONTINUOUS
10
6.85034
20
-7.96627
11
6.85034
21
-7.97189
0
LINE
8
BLACK
6
CONTINUOUS
10
6.96845
20
-7.97189
11
6.96845
21
-7.91284
0
LINE
8
BLACK
6
CONTINUOUS
10
6.97408
20
-7.9494
11
6.99095
21
-7.97189
0
LINE
8
BLACK
6
CONTINUOUS
10
6.99095
20
-7.93252
11
6.96845
21
-7.95502
0
LINE
8
BLACK
6
CONTINUOUS
10
7.01626
20
-7.97189
11
7.01626
21
-7.93252
0
LINE
8
BLACK
6
CONTINUOUS
10
7.01626
20
-7.91284
11
7.01345
21
-7.91565
0
LINE
8
BLACK
6
CONTINUOUS
10
7.01345
20
-7.91565
11
7.01626
21
-7.91846
0
LINE
8
BLACK
6
CONTINUOUS
10
7.01626
20
-7.91846
11
7.01907
21
-7.91565
0
LINE
8
BLACK
6
CONTINUOUS
10
7.01907
20
-7.91565
11
7.01626
21
-7.91284
0
LINE
8
BLACK
6
CONTINUOUS
10
7.01626
20
-7.91284
11
7.01626
21
-7.91846
0
LINE
8
BLACK
6
CONTINUOUS
10
7.06969
20
-7.96908
11
7.06407
21
-7.97189
0
LINE
8
BLACK
6
CONTINUOUS
10
7.06407
20
-7.97189
11
7.05282
21
-7.97189
0
LINE
8
BLACK
6
CONTINUOUS
10
7.05282
20
-7.97189
11
7.04719
21
-7.96908
0
LINE
8
BLACK
6
CONTINUOUS
10
7.04719
20
-7.96908
11
7.04438
21
-7.96627
0
LINE
8
BLACK
6
CONTINUOUS
10
7.04438
20
-7.96627
11
7.04157
21
-7.96065
0
LINE
8
BLACK
6
CONTINUOUS
10
7.04157
20
-7.96065
11
7.04157
21
-7.94377
0
LINE
8
BLACK
6
CONTINUOUS
10
7.04157
20
-7.94377
11
7.04438
21
-7.93815
0
LINE
8
BLACK
6
CONTINUOUS
10
7.04438
20
-7.93815
11
7.04719
21
-7.93534
0
LINE
8
BLACK
6
CONTINUOUS
10
7.04719
20
-7.93534
11
7.05282
21
-7.93252
0
LINE
8
BLACK
6
CONTINUOUS
10
7.05282
20
-7.93252
11
7.06407
21
-7.93252
0
LINE
8
BLACK
6
CONTINUOUS
10
7.06407
20
-7.93252
11
7.06969
21
-7.93534
0
LINE
8
BLACK
6
CONTINUOUS
10
7.12031
20
-7.97189
11
7.12031
21
-7.94096
0
LINE
8
BLACK
6
CONTINUOUS
10
7.12031
20
-7.94096
11
7.1175
21
-7.93534
0
LINE
8
BLACK
6
CONTINUOUS
10
7.1175
20
-7.93534
11
7.11187
21
-7.93252
0
LINE
8
BLACK
6
CONTINUOUS
10
7.11187
20
-7.93252
11
7.10062
21
-7.93252
0
LINE
8
BLACK
6
CONTINUOUS
10
7.10062
20
-7.93252
11
7.095
21
-7.93534
0
LINE
8
BLACK
6
CONTINUOUS
10
7.12031
20
-7.96908
11
7.11468
21
-7.97189
0
LINE
8
BLACK
6
CONTINUOUS
10
7.11468
20
-7.97189
11
7.10062
21
-7.97189
0
LINE
8
BLACK
6
CONTINUOUS
10
7.10062
20
-7.97189
11
7.095
21
-7.96908
0
LINE
8
BLACK
6
CONTINUOUS
10
7.095
20
-7.96908
11
7.09219
21
-7.96346
0
LINE
8
BLACK
6
CONTINUOUS
10
7.09219
20
-7.96346
11
7.09219
21
-7.95783
0
LINE
8
BLACK
6
CONTINUOUS
10
7.09219
20
-7.95783
11
7.095
21
-7.95221
0
LINE
8
BLACK
6
CONTINUOUS
10
7.095
20
-7.95221
11
7.10062
21
-7.9494
0
LINE
8
BLACK
6
CONTINUOUS
10
7.10062
20
-7.9494
11
7.11468
21
-7.9494
0
LINE
8
BLACK
6
CONTINUOUS
10
7.11468
20
-7.9494
11
7.12031
21
-7.94659
0
LINE
8
BLACK
6
CONTINUOUS
10
7.17374
20
-7.97189
11
7.17374
21
-7.91284
0
LINE
8
BLACK
6
CONTINUOUS
10
7.17374
20
-7.96908
11
7.16811
21
-7.97189
0
LINE
8
BLACK
6
CONTINUOUS
10
7.16811
20
-7.97189
11
7.15687
21
-7.97189
0
LINE
8
BLACK
6
CONTINUOUS
10
7.15687
20
-7.97189
11
7.15124
21
-7.96908
0
LINE
8
BLACK
6
CONTINUOUS
10
7.15124
20
-7.96908
11
7.14843
21
-7.96627
0
LINE
8
BLACK
6
CONTINUOUS
10
7.14843
20
-7.96627
11
7.14562
21
-7.96065
0
LINE
8
BLACK
6
CONTINUOUS
10
7.14562
20
-7.96065
11
7.14562
21
-7.94377
0
LINE
8
BLACK
6
CONTINUOUS
10
7.14562
20
-7.94377
11
7.14843
21
-7.93815
0
LINE
8
BLACK
6
CONTINUOUS
10
7.14843
20
-7.93815
11
7.15124
21
-7.93534
0
LINE
8
BLACK
6
CONTINUOUS
10
7.15124
20
-7.93534
11
7.15687
21
-7.93252
0
LINE
8
BLACK
6
CONTINUOUS
10
7.15687
20
-7.93252
11
7.16811
21
-7.93252
0
LINE
8
BLACK
6
CONTINUOUS
10
7.16811
20
-7.93252
11
7.17374
21
-7.93534
0
LINE
8
BLACK
6
CONTINUOUS
10
7.24123
20
-7.91284
11
7.2806
21
-7.91284
0
LINE
8
BLACK
6
CONTINUOUS
10
7.2806
20
-7.91284
11
7.25529
21
-7.97189
0
LINE
8
BLACK
6
CONTINUOUS
10
7.3031
20
-7.96627
11
7.30591
21
-7.96908
0
LINE
8
BLACK
6
CONTINUOUS
10
7.30591
20
-7.96908
11
7.3031
21
-7.97189
0
LINE
8
BLACK
6
CONTINUOUS
10
7.3031
20
-7.97189
11
7.30029
21
-7.96908
0
LINE
8
BLACK
6
CONTINUOUS
10
7.30029
20
-7.96908
11
7.3031
21
-7.96627
0
LINE
8
BLACK
6
CONTINUOUS
10
7.3031
20
-7.96627
11
7.3031
21
-7.97189
0
LINE
8
BLACK
6
CONTINUOUS
10
7.34247
20
-7.91284
11
7.34809
21
-7.91284
0
LINE
8
BLACK
6
CONTINUOUS
10
7.34809
20
-7.91284
11
7.35372
21
-7.91565
0
LINE
8
BLACK
6
CONTINUOUS
10
7.35372
20
-7.91565
11
7.35653
21
-7.91846
0
LINE
8
BLACK
6
CONTINUOUS
10
7.35653
20
-7.91846
11
7.35934
21
-7.92409
0
LINE
8
BLACK
6
CONTINUOUS
10
7.35934
20
-7.92409
11
7.36215
21
-7.93534
0
LINE
8
BLACK
6
CONTINUOUS
10
7.36215
20
-7.93534
11
7.36215
21
-7.9494
0
LINE
8
BLACK
6
CONTINUOUS
10
7.36215
20
-7.9494
11
7.35934
21
-7.96065
0
LINE
8
BLACK
6
CONTINUOUS
10
7.35934
20
-7.96065
11
7.35653
21
-7.96627
0
LINE
8
BLACK
6
CONTINUOUS
10
7.35653
20
-7.96627
11
7.35372
21
-7.96908
0
LINE
8
BLACK
6
CONTINUOUS
10
7.35372
20
-7.96908
11
7.34809
21
-7.97189
0
LINE
8
BLACK
6
CONTINUOUS
10
7.34809
20
-7.97189
11
7.34247
21
-7.97189
0
LINE
8
BLACK
6
CONTINUOUS
10
7.34247
20
-7.97189
11
7.33684
21
-7.96908
0
LINE
8
BLACK
6
CONTINUOUS
10
7.33684
20
-7.96908
11
7.33403
21
-7.96627
0
LINE
8
BLACK
6
CONTINUOUS
10
7.33403
20
-7.96627
11
7.33122
21
-7.96065
0
LINE
8
BLACK
6
CONTINUOUS
10
7.33122
20
-7.96065
11
7.32841
21
-7.9494
0
LINE
8
BLACK
6
CONTINUOUS
10
7.32841
20
-7.9494
11
7.32841
21
-7.93534
0
LINE
8
BLACK
6
CONTINUOUS
10
7.32841
20
-7.93534
11
7.33122
21
-7.92409
0
LINE
8
BLACK
6
CONTINUOUS
10
7.33122
20
-7.92409
11
7.33403
21
-7.91846
0
LINE
8
BLACK
6
CONTINUOUS
10
7.33403
20
-7.91846
11
7.33684
21
-7.91565
0
LINE
8
BLACK
6
CONTINUOUS
10
7.33684
20
-7.91565
11
7.34247
21
-7.91284
0
LINE
8
BLACK
6
CONTINUOUS
10
7.38746
20
-7.96627
11
7.39027
21
-7.96908
0
LINE
8
BLACK
6
CONTINUOUS
10
7.39027
20
-7.96908
11
7.38746
21
-7.97189
0
LINE
8
BLACK
6
CONTINUOUS
10
7.38746
20
-7.97189
11
7.38465
21
-7.96908
0
LINE
8
BLACK
6
CONTINUOUS
10
7.38465
20
-7.96908
11
7.38746
21
-7.96627
0
LINE
8
BLACK
6
CONTINUOUS
10
7.38746
20
-7.96627
11
7.38746
21
-7.97189
0
LINE
8
BLACK
6
CONTINUOUS
10
7.40996
20
-7.91284
11
7.44933
21
-7.91284
0
LINE
8
BLACK
6
CONTINUOUS
10
7.44933
20
-7.91284
11
7.42402
21
-7.97189
0
LINE
8
BLACK
6
CONTINUOUS
10
6.27559
20
-7.77165
11
10.5276
21
-7.77165
0
LINE
8
BLACK
6
CONTINUOUS
10
9.71699
20
-7.86135
11
9.69731
21
-7.83323
0
LINE
8
BLACK
6
CONTINUOUS
10
9.68325
20
-7.86135
11
9.68325
21
-7.8023
0
LINE
8
BLACK
6
CONTINUOUS
10
9.68325
20
-7.8023
11
9.70575
21
-7.8023
0
LINE
8
BLACK
6
CONTINUOUS
10
9.70575
20
-7.8023
11
9.71137
21
-7.80511
0
LINE
8
BLACK
6
CONTINUOUS
10
9.71137
20
-7.80511
11
9.71418
21
-7.80792
0
LINE
8
BLACK
6
CONTINUOUS
10
9.71418
20
-7.80792
11
9.71699
21
-7.81354
0
LINE
8
BLACK
6
CONTINUOUS
10
9.71699
20
-7.81354
11
9.71699
21
-7.82198
0
LINE
8
BLACK
6
CONTINUOUS
10
9.71699
20
-7.82198
11
9.71418
21
-7.82761
0
LINE
8
BLACK
6
CONTINUOUS
10
9.71418
20
-7.82761
11
9.71137
21
-7.83042
0
LINE
8
BLACK
6
CONTINUOUS
10
9.71137
20
-7.83042
11
9.70575
21
-7.83323
0
LINE
8
BLACK
6
CONTINUOUS
10
9.70575
20
-7.83323
11
9.68325
21
-7.83323
0
LINE
8
BLACK
6
CONTINUOUS
10
9.7648
20
-7.85854
11
9.75918
21
-7.86135
0
LINE
8
BLACK
6
CONTINUOUS
10
9.75918
20
-7.86135
11
9.74793
21
-7.86135
0
LINE
8
BLACK
6
CONTINUOUS
10
9.74793
20
-7.86135
11
9.7423
21
-7.85854
0
LINE
8
BLACK
6
CONTINUOUS
10
9.7423
20
-7.85854
11
9.73949
21
-7.85292
0
LINE
8
BLACK
6
CONTINUOUS
10
9.73949
20
-7.85292
11
9.73949
21
-7.83042
0
LINE
8
BLACK
6
CONTINUOUS
10
9.73949
20
-7.83042
11
9.7423
21
-7.82479
0
LINE
8
BLACK
6
CONTINUOUS
10
9.7423
20
-7.82479
11
9.74793
21
-7.82198
0
LINE
8
BLACK
6
CONTINUOUS
10
9.74793
20
-7.82198
11
9.75918
21
-7.82198
0
LINE
8
BLACK
6
CONTINUOUS
10
9.75918
20
-7.82198
11
9.7648
21
-7.82479
0
LINE
8
BLACK
6
CONTINUOUS
10
9.7648
20
-7.82479
11
9.76761
21
-7.83042
0
LINE
8
BLACK
6
CONTINUOUS
10
9.76761
20
-7.83042
11
9.76761
21
-7.83604
0
LINE
8
BLACK
6
CONTINUOUS
10
9.76761
20
-7.83604
11
9.73949
21
-7.84167
0
LINE
8
BLACK
6
CONTINUOUS
10
9.7873
20
-7.82198
11
9.80136
21
-7.86135
0
LINE
8
BLACK
6
CONTINUOUS
10
9.80136
20
-7.86135
11
9.81542
21
-7.82198
0
LINE
8
BLACK
6
CONTINUOUS
10
9.83792
20
-7.85573
11
9.84073
21
-7.85854
0
LINE
8
BLACK
6
CONTINUOUS
10
9.84073
20
-7.85854
11
9.83792
21
-7.86135
0
LINE
8
BLACK
6
CONTINUOUS
10
9.83792
20
-7.86135
11
9.8351
21
-7.85854
0
LINE
8
BLACK
6
CONTINUOUS
10
9.8351
20
-7.85854
11
9.83792
21
-7.85573
0
LINE
8
BLACK
6
CONTINUOUS
10
9.83792
20
-7.85573
11
9.83792
21
-7.86135
0
LINE
8
BLACK
6
CONTINUOUS
10
9.83792
20
-7.82479
11
9.84073
21
-7.82761
0
LINE
8
BLACK
6
CONTINUOUS
10
9.84073
20
-7.82761
11
9.83792
21
-7.83042
0
LINE
8
BLACK
6
CONTINUOUS
10
9.83792
20
-7.83042
11
9.8351
21
-7.82761
0
LINE
8
BLACK
6
CONTINUOUS
10
9.8351
20
-7.82761
11
9.83792
21
-7.82479
0
LINE
8
BLACK
6
CONTINUOUS
10
9.83792
20
-7.82479
11
9.83792
21
-7.83042
0
LINE
8
BLACK
6
CONTINUOUS
10
9.90822
20
-7.84448
11
9.93634
21
-7.84448
0
LINE
8
BLACK
6
CONTINUOUS
10
9.9026
20
-7.86135
11
9.92228
21
-7.8023
0
LINE
8
BLACK
6
CONTINUOUS
10
9.92228
20
-7.8023
11
9.94197
21
-7.86135
0
LINE
8
BLACK
6
CONTINUOUS
10
6.33009
20
-7.85885
11
6.33853
21
-7.86166
0
LINE
8
BLACK
6
CONTINUOUS
10
6.33853
20
-7.86166
11
6.35259
21
-7.86166
0
LINE
8
BLACK
6
CONTINUOUS
10
6.35259
20
-7.86166
11
6.35822
21
-7.85885
0
LINE
8
BLACK
6
CONTINUOUS
10
6.35822
20
-7.85885
11
6.36103
21
-7.85603
0
LINE
8
BLACK
6
CONTINUOUS
10
6.36103
20
-7.85603
11
6.36384
21
-7.85041
0
LINE
8
BLACK
6
CONTINUOUS
10
6.36384
20
-7.85041
11
6.36384
21
-7.84479
0
LINE
8
BLACK
6
CONTINUOUS
10
6.36384
20
-7.84479
11
6.36103
21
-7.83916
0
LINE
8
BLACK
6
CONTINUOUS
10
6.36103
20
-7.83916
11
6.35822
21
-7.83635
0
LINE
8
BLACK
6
CONTINUOUS
10
6.35822
20
-7.83635
11
6.35259
21
-7.83354
0
LINE
8
BLACK
6
CONTINUOUS
10
6.35259
20
-7.83354
11
6.34134
21
-7.83072
0
LINE
8
BLACK
6
CONTINUOUS
10
6.34134
20
-7.83072
11
6.33572
21
-7.82791
0
LINE
8
BLACK
6
CONTINUOUS
10
6.33572
20
-7.82791
11
6.33291
21
-7.8251
0
LINE
8
BLACK
6
CONTINUOUS
10
6.33291
20
-7.8251
11
6.33009
21
-7.81948
0
LINE
8
BLACK
6
CONTINUOUS
10
6.33009
20
-7.81948
11
6.33009
21
-7.81385
0
LINE
8
BLACK
6
CONTINUOUS
10
6.33009
20
-7.81385
11
6.33291
21
-7.80823
0
LINE
8
BLACK
6
CONTINUOUS
10
6.33291
20
-7.80823
11
6.33572
21
-7.80542
0
LINE
8
BLACK
6
CONTINUOUS
10
6.33572
20
-7.80542
11
6.34134
21
-7.8026
0
LINE
8
BLACK
6
CONTINUOUS
10
6.34134
20
-7.8026
11
6.3554
21
-7.8026
0
LINE
8
BLACK
6
CONTINUOUS
10
6.3554
20
-7.8026
11
6.36384
21
-7.80542
0
LINE
8
BLACK
6
CONTINUOUS
10
6.38915
20
-7.86166
11
6.38915
21
-7.82229
0
LINE
8
BLACK
6
CONTINUOUS
10
6.38915
20
-7.8026
11
6.38634
21
-7.80542
0
LINE
8
BLACK
6
CONTINUOUS
10
6.38634
20
-7.80542
11
6.38915
21
-7.80823
0
LINE
8
BLACK
6
CONTINUOUS
10
6.38915
20
-7.80823
11
6.39196
21
-7.80542
0
LINE
8
BLACK
6
CONTINUOUS
10
6.39196
20
-7.80542
11
6.38915
21
-7.8026
0
LINE
8
BLACK
6
CONTINUOUS
10
6.38915
20
-7.8026
11
6.38915
21
-7.80823
0
LINE
8
BLACK
6
CONTINUOUS
10
6.41165
20
-7.82229
11
6.44258
21
-7.82229
0
LINE
8
BLACK
6
CONTINUOUS
10
6.44258
20
-7.82229
11
6.41165
21
-7.86166
0
LINE
8
BLACK
6
CONTINUOUS
10
6.41165
20
-7.86166
11
6.44258
21
-7.86166
0
LINE
8
BLACK
6
CONTINUOUS
10
6.48757
20
-7.85885
11
6.48195
21
-7.86166
0
LINE
8
BLACK
6
CONTINUOUS
10
6.48195
20
-7.86166
11
6.4707
21
-7.86166
0
LINE
8
BLACK
6
CONTINUOUS
10
6.4707
20
-7.86166
11
6.46508
21
-7.85885
0
LINE
8
BLACK
6
CONTINUOUS
10
6.46508
20
-7.85885
11
6.46227
21
-7.85322
0
LINE
8
BLACK
6
CONTINUOUS
10
6.46227
20
-7.85322
11
6.46227
21
-7.83072
0
LINE
8
BLACK
6
CONTINUOUS
10
6.46227
20
-7.83072
11
6.46508
21
-7.8251
0
LINE
8
BLACK
6
CONTINUOUS
10
6.46508
20
-7.8251
11
6.4707
21
-7.82229
0
LINE
8
BLACK
6
CONTINUOUS
10
6.4707
20
-7.82229
11
6.48195
21
-7.82229
0
LINE
8
BLACK
6
CONTINUOUS
10
6.48195
20
-7.82229
11
6.48757
21
-7.8251
0
LINE
8
BLACK
6
CONTINUOUS
10
6.48757
20
-7.8251
11
6.49039
21
-7.83072
0
LINE
8
BLACK
6
CONTINUOUS
10
6.49039
20
-7.83072
11
6.49039
21
-7.83635
0
LINE
8
BLACK
6
CONTINUOUS
10
6.49039
20
-7.83635
11
6.46227
21
-7.84197
0
LINE
8
BLACK
6
CONTINUOUS
10
6.5157
20
-7.85603
11
6.51851
21
-7.85885
0
LINE
8
BLACK
6
CONTINUOUS
10
6.51851
20
-7.85885
11
6.5157
21
-7.86166
0
LINE
8
BLACK
6
CONTINUOUS
10
6.5157
20
-7.86166
11
6.51288
21
-7.85885
0
LINE
8
BLACK
6
CONTINUOUS
10
6.51288
20
-7.85885
11
6.5157
21
-7.85603
0
LINE
8
BLACK
6
CONTINUOUS
10
6.5157
20
-7.85603
11
6.5157
21
-7.86166
0
LINE
8
BLACK
6
CONTINUOUS
10
6.5157
20
-7.8251
11
6.51851
21
-7.82791
0
LINE
8
BLACK
6
CONTINUOUS
10
6.51851
20
-7.82791
11
6.5157
21
-7.83072
0
LINE
8
BLACK
6
CONTINUOUS
10
6.5157
20
-7.83072
11
6.51288
21
-7.82791
0
LINE
8
BLACK
6
CONTINUOUS
10
6.51288
20
-7.82791
11
6.5157
21
-7.8251
0
LINE
8
BLACK
6
CONTINUOUS
10
6.5157
20
-7.8251
11
6.5157
21
-7.83072
0
LINE
8
BLACK
6
CONTINUOUS
10
6.586
20
-7.84479
11
6.61412
21
-7.84479
0
LINE
8
BLACK
6
CONTINUOUS
10
6.58038
20
-7.86166
11
6.60006
21
-7.8026
0
LINE
8
BLACK
6
CONTINUOUS
10
6.60006
20
-7.8026
11
6.61975
21
-7.86166
0
LINE
8
BLACK
6
CONTINUOUS
10
9.67936
20
-7.97189
11
9.67936
21
-7.91284
0
LINE
8
BLACK
6
CONTINUOUS
10
9.73279
20
-7.97189
11
9.73279
21
-7.91284
0
LINE
8
BLACK
6
CONTINUOUS
10
9.73279
20
-7.96908
11
9.72717
21
-7.97189
0
LINE
8
BLACK
6
CONTINUOUS
10
9.72717
20
-7.97189
11
9.71592
21
-7.97189
0
LINE
8
BLACK
6
CONTINUOUS
10
9.71592
20
-7.97189
11
9.7103
21
-7.96908
0
LINE
8
BLACK
6
CONTINUOUS
10
9.7103
20
-7.96908
11
9.70748
21
-7.96627
0
LINE
8
BLACK
6
CONTINUOUS
10
9.70748
20
-7.96627
11
9.70467
21
-7.96065
0
LINE
8
BLACK
6
CONTINUOUS
10
9.70467
20
-7.96065
11
9.70467
21
-7.94377
0
LINE
8
BLACK
6
CONTINUOUS
10
9.70467
20
-7.94377
11
9.70748
21
-7.93815
0
LINE
8
BLACK
6
CONTINUOUS
10
9.70748
20
-7.93815
11
9.7103
21
-7.93534
0
LINE
8
BLACK
6
CONTINUOUS
10
9.7103
20
-7.93534
11
9.71592
21
-7.93252
0
LINE
8
BLACK
6
CONTINUOUS
10
9.71592
20
-7.93252
11
9.72717
21
-7.93252
0
LINE
8
BLACK
6
CONTINUOUS
10
9.72717
20
-7.93252
11
9.73279
21
-7.93534
0
LINE
8
BLACK
6
CONTINUOUS
10
9.76092
20
-7.96627
11
9.76373
21
-7.96908
0
LINE
8
BLACK
6
CONTINUOUS
10
9.76373
20
-7.96908
11
9.76092
21
-7.97189
0
LINE
8
BLACK
6
CONTINUOUS
10
9.76092
20
-7.97189
11
9.7581
21
-7.96908
0
LINE
8
BLACK
6
CONTINUOUS
10
9.7581
20
-7.96908
11
9.76092
21
-7.96627
0
LINE
8
BLACK
6
CONTINUOUS
10
9.76092
20
-7.96627
11
9.76092
21
-7.97189
0
LINE
8
BLACK
6
CONTINUOUS
10
9.76092
20
-7.93534
11
9.76373
21
-7.93815
0
LINE
8
BLACK
6
CONTINUOUS
10
9.76373
20
-7.93815
11
9.76092
21
-7.94096
0
LINE
8
BLACK
6
CONTINUOUS
10
9.76092
20
-7.94096
11
9.7581
21
-7.93815
0
LINE
8
BLACK
6
CONTINUOUS
10
9.7581
20
-7.93815
11
9.76092
21
-7.93534
0
LINE
8
BLACK
6
CONTINUOUS
10
9.76092
20
-7.93534
11
9.76092
21
-7.94096
0
LINE
8
BLACK
6
CONTINUOUS
10
9.86497
20
-7.97189
11
9.83122
21
-7.97189
0
LINE
8
BLACK
6
CONTINUOUS
10
9.84809
20
-7.97189
11
9.84809
21
-7.91284
0
LINE
8
BLACK
6
CONTINUOUS
10
9.84809
20
-7.91284
11
9.84247
21
-7.92128
0
LINE
8
BLACK
6
CONTINUOUS
10
9.84247
20
-7.92128
11
9.83684
21
-7.9269
0
LINE
8
BLACK
6
CONTINUOUS
10
9.83684
20
-7.9269
11
9.83122
21
-7.92971
0
LINE
8
BLACK
6
CONTINUOUS
10
9.93246
20
-7.91003
11
9.88184
21
-7.98596
0
LINE
8
BLACK
6
CONTINUOUS
10
9.98308
20
-7.97189
11
9.94933
21
-7.97189
0
LINE
8
BLACK
6
CONTINUOUS
10
9.9662
20
-7.97189
11
9.9662
21
-7.91284
0
LINE
8
BLACK
6
CONTINUOUS
10
9.9662
20
-7.91284
11
9.96058
21
-7.92128
0
LINE
8
BLACK
6
CONTINUOUS
10
9.96058
20
-7.92128
11
9.95495
21
-7.9269
0
LINE
8
BLACK
6
CONTINUOUS
10
9.95495
20
-7.9269
11
9.94933
21
-7.92971
0
LINE
8
BLACK
6
CONTINUOUS
10
6.27559
20
-7.61417
11
10.5276
21
-7.61417
0
LINE
8
BLACK
6
CONTINUOUS
10
6.34219
20
-7.64191
11
6.38719
21
-7.64191
0
LINE
8
BLACK
6
CONTINUOUS
10
6.35485
20
-7.72065
11
6.36469
21
-7.64191
0
LINE
8
BLACK
6
CONTINUOUS
10
6.40359
20
-7.72065
11
6.41015
21
-7.66815
0
LINE
8
BLACK
6
CONTINUOUS
10
6.41344
20
-7.64191
11
6.40922
21
-7.64566
0
LINE
8
BLACK
6
CONTINUOUS
10
6.40922
20
-7.64566
11
6.4125
21
-7.64941
0
LINE
8
BLACK
6
CONTINUOUS
10
6.4125
20
-7.64941
11
6.41672
21
-7.64566
0
LINE
8
BLACK
6
CONTINUOUS
10
6.41672
20
-7.64566
11
6.41344
21
-7.64191
0
LINE
8
BLACK
6
CONTINUOUS
10
6.41344
20
-7.64191
11
6.4125
21
-7.64941
0
LINE
8
BLACK
6
CONTINUOUS
10
6.4364
20
-7.66815
11
6.4664
21
-7.66815
0
LINE
8
BLACK
6
CONTINUOUS
10
6.45093
20
-7.64191
11
6.44249
21
-7.7094
0
LINE
8
BLACK
6
CONTINUOUS
10
6.44249
20
-7.7094
11
6.44531
21
-7.7169
0
LINE
8
BLACK
6
CONTINUOUS
10
6.44531
20
-7.7169
11
6.45234
21
-7.72065
0
LINE
8
BLACK
6
CONTINUOUS
10
6.45234
20
-7.72065
11
6.45984
21
-7.72065
0
LINE
8
BLACK
6
CONTINUOUS
10
6.49733
20
-7.72065
11
6.4903
21
-7.7169
0
LINE
8
BLACK
6
CONTINUOUS
10
6.4903
20
-7.7169
11
6.48749
21
-7.7094
0
LINE
8
BLACK
6
CONTINUOUS
10
6.48749
20
-7.7094
11
6.49592
21
-7.64191
0
LINE
8
BLACK
6
CONTINUOUS
10
6.55779
20
-7.7169
11
6.54982
21
-7.72065
0
LINE
8
BLACK
6
CONTINUOUS
10
6.54982
20
-7.72065
11
6.53483
21
-7.72065
0
LINE
8
BLACK
6
CONTINUOUS
10
6.53483
20
-7.72065
11
6.5278
21
-7.7169
0
LINE
8
BLACK
6
CONTINUOUS
10
6.5278
20
-7.7169
11
6.52498
21
-7.7094
0
LINE
8
BLACK
6
CONTINUOUS
10
6.52498
20
-7.7094
11
6.52873
21
-7.6794
0
LINE
8
BLACK
6
CONTINUOUS
10
6.52873
20
-7.6794
11
6.53342
21
-7.6719
0
LINE
8
BLACK
6
CONTINUOUS
10
6.53342
20
-7.6719
11
6.54139
21
-7.66815
0
LINE
8
BLACK
6
CONTINUOUS
10
6.54139
20
-7.66815
11
6.55639
21
-7.66815
0
LINE
8
BLACK
6
CONTINUOUS
10
6.55639
20
-7.66815
11
6.56342
21
-7.6719
0
LINE
8
BLACK
6
CONTINUOUS
10
6.56342
20
-7.6719
11
6.56623
21
-7.6794
0
LINE
8
BLACK
6
CONTINUOUS
10
6.56623
20
-7.6794
11
6.56529
21
-7.6869
0
LINE
8
BLACK
6
CONTINUOUS
10
6.56529
20
-7.6869
11
6.52686
21
-7.6944
0
LINE
8
BLACK
6
CONTINUOUS
10
6.59576
20
-7.71315
11
6.59904
21
-7.7169
0
LINE
8
BLACK
6
CONTINUOUS
10
6.59904
20
-7.7169
11
6.59482
21
-7.72065
0
LINE
8
BLACK
6
CONTINUOUS
10
6.59482
20
-7.72065
11
6.59154
21
-7.7169
0
LINE
8
BLACK
6
CONTINUOUS
10
6.59154
20
-7.7169
11
6.59576
21
-7.71315
0
LINE
8
BLACK
6
CONTINUOUS
10
6.59576
20
-7.71315
11
6.59482
21
-7.72065
0
LINE
8
BLACK
6
CONTINUOUS
10
6.60091
20
-7.6719
11
6.60419
21
-7.67565
0
LINE
8
BLACK
6
CONTINUOUS
10
6.60419
20
-7.67565
11
6.59997
21
-7.6794
0
LINE
8
BLACK
6
CONTINUOUS
10
6.59997
20
-7.6794
11
6.59669
21
-7.67565
0
LINE
8
BLACK
6
CONTINUOUS
10
6.59669
20
-7.67565
11
6.60091
21
-7.6719
0
LINE
8
BLACK
6
CONTINUOUS
10
6.60091
20
-7.6719
11
6.59997
21
-7.6794
0
LINE
8
BLACK
6
CONTINUOUS
10
6.74293
20
-7.64566
11
6.73589
21
-7.64191
0
LINE
8
BLACK
6
CONTINUOUS
10
6.73589
20
-7.64191
11
6.72465
21
-7.64191
0
LINE
8
BLACK
6
CONTINUOUS
10
6.72465
20
-7.64191
11
6.71293
21
-7.64566
0
LINE
8
BLACK
6
CONTINUOUS
10
6.71293
20
-7.64566
11
6.70449
21
-7.65316
0
LINE
8
BLACK
6
CONTINUOUS
10
6.70449
20
-7.65316
11
6.69981
21
-7.66065
0
LINE
8
BLACK
6
CONTINUOUS
10
6.69981
20
-7.66065
11
6.69418
21
-7.67565
0
LINE
8
BLACK
6
CONTINUOUS
10
6.69418
20
-7.67565
11
6.69278
21
-7.6869
0
LINE
8
BLACK
6
CONTINUOUS
10
6.69278
20
-7.6869
11
6.69465
21
-7.7019
0
LINE
8
BLACK
6
CONTINUOUS
10
6.69465
20
-7.7019
11
6.69746
21
-7.7094
0
LINE
8
BLACK
6
CONTINUOUS
10
6.69746
20
-7.7094
11
6.70402
21
-7.7169
0
LINE
8
BLACK
6
CONTINUOUS
10
6.70402
20
-7.7169
11
6.7148
21
-7.72065
0
LINE
8
BLACK
6
CONTINUOUS
10
6.7148
20
-7.72065
11
6.7223
21
-7.72065
0
LINE
8
BLACK
6
CONTINUOUS
10
6.7223
20
-7.72065
11
6.73402
21
-7.7169
0
LINE
8
BLACK
6
CONTINUOUS
10
6.73402
20
-7.7169
11
6.73824
21
-7.71315
0
LINE
8
BLACK
6
CONTINUOUS
10
6.73824
20
-7.71315
11
6.74152
21
-7.6869
0
LINE
8
BLACK
6
CONTINUOUS
10
6.74152
20
-7.6869
11
6.72652
21
-7.6869
0
LINE
8
BLACK
6
CONTINUOUS
10
6.7823
20
-7.72065
11
6.77526
21
-7.7169
0
LINE
8
BLACK
6
CONTINUOUS
10
6.77526
20
-7.7169
11
6.77245
21
-7.7094
0
LINE
8
BLACK
6
CONTINUOUS
10
6.77245
20
-7.7094
11
6.78089
21
-7.64191
0
LINE
8
BLACK
6
CONTINUOUS
10
6.82354
20
-7.72065
11
6.81651
21
-7.7169
0
LINE
8
BLACK
6
CONTINUOUS
10
6.81651
20
-7.7169
11
6.81323
21
-7.71315
0
LINE
8
BLACK
6
CONTINUOUS
10
6.81323
20
-7.71315
11
6.81042
21
-7.70565
0
LINE
8
BLACK
6
CONTINUOUS
10
6.81042
20
-7.70565
11
6.81323
21
-7.68315
0
LINE
8
BLACK
6
CONTINUOUS
10
6.81323
20
-7.68315
11
6.81792
21
-7.67565
0
LINE
8
BLACK
6
CONTINUOUS
10
6.81792
20
-7.67565
11
6.82213
21
-7.6719
0
LINE
8
BLACK
6
CONTINUOUS
10
6.82213
20
-7.6719
11
6.8301
21
-7.66815
0
LINE
8
BLACK
6
CONTINUOUS
10
6.8301
20
-7.66815
11
6.84135
21
-7.66815
0
LINE
8
BLACK
6
CONTINUOUS
10
6.84135
20
-7.66815
11
6.84838
21
-7.6719
0
LINE
8
BLACK
6
CONTINUOUS
10
6.84838
20
-7.6719
11
6.85166
21
-7.67565
0
LINE
8
BLACK
6
CONTINUOUS
10
6.85166
20
-7.67565
11
6.85447
21
-7.68315
0
LINE
8
BLACK
6
CONTINUOUS
10
6.85447
20
-7.68315
11
6.85166
21
-7.70565
0
LINE
8
BLACK
6
CONTINUOUS
10
6.85166
20
-7.70565
11
6.84697
21
-7.71315
0
LINE
8
BLACK
6
CONTINUOUS
10
6.84697
20
-7.71315
11
6.84276
21
-7.7169
0
LINE
8
BLACK
6
CONTINUOUS
10
6.84276
20
-7.7169
11
6.83479
21
-7.72065
0
LINE
8
BLACK
6
CONTINUOUS
10
6.83479
20
-7.72065
11
6.82354
21
-7.72065
0
LINE
8
BLACK
6
CONTINUOUS
10
6.88353
20
-7.72065
11
6.89338
21
-7.64191
0
LINE
8
BLACK
6
CONTINUOUS
10
6.88963
20
-7.6719
11
6.89759
21
-7.66815
0
LINE
8
BLACK
6
CONTINUOUS
10
6.89759
20
-7.66815
11
6.91259
21
-7.66815
0
LINE
8
BLACK
6
CONTINUOUS
10
6.91259
20
-7.66815
11
6.91962
21
-7.6719
0
LINE
8
BLACK
6
CONTINUOUS
10
6.91962
20
-7.6719
11
6.9229
21
-7.67565
0
LINE
8
BLACK
6
CONTINUOUS
10
6.9229
20
-7.67565
11
6.92571
21
-7.68315
0
LINE
8
BLACK
6
CONTINUOUS
10
6.92571
20
-7.68315
11
6.9229
21
-7.70565
0
LINE
8
BLACK
6
CONTINUOUS
10
6.9229
20
-7.70565
11
6.91822
21
-7.71315
0
LINE
8
BLACK
6
CONTINUOUS
10
6.91822
20
-7.71315
11
6.914
21
-7.7169
0
LINE
8
BLACK
6
CONTINUOUS
10
6.914
20
-7.7169
11
6.90603
21
-7.72065
0
LINE
8
BLACK
6
CONTINUOUS
10
6.90603
20
-7.72065
11
6.89103
21
-7.72065
0
LINE
8
BLACK
6
CONTINUOUS
10
6.89103
20
-7.72065
11
6.884
21
-7.7169
0
LINE
8
BLACK
6
CONTINUOUS
10
6.98852
20
-7.72065
11
6.99368
21
-7.6794
0
LINE
8
BLACK
6
CONTINUOUS
10
6.99368
20
-7.6794
11
6.99086
21
-7.6719
0
LINE
8
BLACK
6
CONTINUOUS
10
6.99086
20
-7.6719
11
6.98383
21
-7.66815
0
LINE
8
BLACK
6
CONTINUOUS
10
6.98383
20
-7.66815
11
6.96883
21
-7.66815
0
LINE
8
BLACK
6
CONTINUOUS
10
6.96883
20
-7.66815
11
6.96087
21
-7.6719
0
LINE
8
BLACK
6
CONTINUOUS
10
6.98899
20
-7.7169
11
6.98102
21
-7.72065
0
LINE
8
BLACK
6
CONTINUOUS
10
6.98102
20
-7.72065
11
6.96227
21
-7.72065
0
LINE
8
BLACK
6
CONTINUOUS
10
6.96227
20
-7.72065
11
6.95524
21
-7.7169
0
LINE
8
BLACK
6
CONTINUOUS
10
6.95524
20
-7.7169
11
6.95243
21
-7.7094
0
LINE
8
BLACK
6
CONTINUOUS
10
6.95243
20
-7.7094
11
6.95337
21
-7.7019
0
LINE
8
BLACK
6
CONTINUOUS
10
6.95337
20
-7.7019
11
6.95805
21
-7.6944
0
LINE
8
BLACK
6
CONTINUOUS
10
6.95805
20
-7.6944
11
6.96602
21
-7.69065
0
LINE
8
BLACK
6
CONTINUOUS
10
6.96602
20
-7.69065
11
6.98477
21
-7.69065
0
LINE
8
BLACK
6
CONTINUOUS
10
6.98477
20
-7.69065
11
6.99274
21
-7.6869
0
LINE
8
BLACK
6
CONTINUOUS
10
7.03726
20
-7.72065
11
7.03023
21
-7.7169
0
LINE
8
BLACK
6
CONTINUOUS
10
7.03023
20
-7.7169
11
7.02742
21
-7.7094
0
LINE
8
BLACK
6
CONTINUOUS
10
7.02742
20
-7.7094
11
7.03586
21
-7.64191
0
LINE
8
BLACK
6
CONTINUOUS
10
7.12397
20
-7.7169
11
7.13475
21
-7.72065
0
LINE
8
BLACK
6
CONTINUOUS
10
7.13475
20
-7.72065
11
7.1535
21
-7.72065
0
LINE
8
BLACK
6
CONTINUOUS
10
7.1535
20
-7.72065
11
7.16147
21
-7.7169
0
LINE
8
BLACK
6
CONTINUOUS
10
7.16147
20
-7.7169
11
7.16568
21
-7.71315
0
LINE
8
BLACK
6
CONTINUOUS
10
7.16568
20
-7.71315
11
7.17037
21
-7.70565
0
LINE
8
BLACK
6
CONTINUOUS
10
7.17037
20
-7.70565
11
7.17131
21
-7.69815
0
LINE
8
BLACK
6
CONTINUOUS
10
7.17131
20
-7.69815
11
7.1685
21
-7.69065
0
LINE
8
BLACK
6
CONTINUOUS
10
7.1685
20
-7.69065
11
7.16522
21
-7.6869
0
LINE
8
BLACK
6
CONTINUOUS
10
7.16522
20
-7.6869
11
7.15819
21
-7.68315
0
LINE
8
BLACK
6
CONTINUOUS
10
7.15819
20
-7.68315
11
7.14366
21
-7.6794
0
LINE
8
BLACK
6
CONTINUOUS
10
7.14366
20
-7.6794
11
7.13663
21
-7.67565
0
LINE
8
BLACK
6
CONTINUOUS
10
7.13663
20
-7.67565
11
7.13335
21
-7.6719
0
LINE
8
BLACK
6
CONTINUOUS
10
7.13335
20
-7.6719
11
7.13053
21
-7.6644
0
LINE
8
BLACK
6
CONTINUOUS
10
7.13053
20
-7.6644
11
7.13147
21
-7.65691
0
LINE
8
BLACK
6
CONTINUOUS
10
7.13147
20
-7.65691
11
7.13616
21
-7.64941
0
LINE
8
BLACK
6
CONTINUOUS
10
7.13616
20
-7.64941
11
7.14038
21
-7.64566
0
LINE
8
BLACK
6
CONTINUOUS
10
7.14038
20
-7.64566
11
7.14834
21
-7.64191
0
LINE
8
BLACK
6
CONTINUOUS
10
7.14834
20
-7.64191
11
7.16709
21
-7.64191
0
LINE
8
BLACK
6
CONTINUOUS
10
7.16709
20
-7.64191
11
7.17787
21
-7.64566
0
LINE
8
BLACK
6
CONTINUOUS
10
7.23646
20
-7.7169
11
7.22849
21
-7.72065
0
LINE
8
BLACK
6
CONTINUOUS
10
7.22849
20
-7.72065
11
7.21349
21
-7.72065
0
LINE
8
BLACK
6
CONTINUOUS
10
7.21349
20
-7.72065
11
7.20646
21
-7.7169
0
LINE
8
BLACK
6
CONTINUOUS
10
7.20646
20
-7.7169
11
7.20318
21
-7.71315
0
LINE
8
BLACK
6
CONTINUOUS
10
7.20318
20
-7.71315
11
7.20037
21
-7.70565
0
LINE
8
BLACK
6
CONTINUOUS
10
7.20037
20
-7.70565
11
7.20318
21
-7.68315
0
LINE
8
BLACK
6
CONTINUOUS
10
7.20318
20
-7.68315
11
7.20787
21
-7.67565
0
LINE
8
BLACK
6
CONTINUOUS
10
7.20787
20
-7.67565
11
7.21209
21
-7.6719
0
LINE
8
BLACK
6
CONTINUOUS
10
7.21209
20
-7.6719
11
7.22005
21
-7.66815
0
LINE
8
BLACK
6
CONTINUOUS
10
7.22005
20
-7.66815
11
7.23505
21
-7.66815
0
LINE
8
BLACK
6
CONTINUOUS
10
7.23505
20
-7.66815
11
7.24208
21
-7.6719
0
LINE
8
BLACK
6
CONTINUOUS
10
7.30348
20
-7.72065
11
7.30864
21
-7.6794
0
LINE
8
BLACK
6
CONTINUOUS
10
7.30864
20
-7.6794
11
7.30582
21
-7.6719
0
LINE
8
BLACK
6
CONTINUOUS
10
7.30582
20
-7.6719
11
7.29879
21
-7.66815
0
LINE
8
BLACK
6
CONTINUOUS
10
7.29879
20
-7.66815
11
7.2838
21
-7.66815
0
LINE
8
BLACK
6
CONTINUOUS
10
7.2838
20
-7.66815
11
7.27583
21
-7.6719
0
LINE
8
BLACK
6
CONTINUOUS
10
7.30395
20
-7.7169
11
7.29598
21
-7.72065
0
LINE
8
BLACK
6
CONTINUOUS
10
7.29598
20
-7.72065
11
7.27723
21
-7.72065
0
LINE
8
BLACK
6
CONTINUOUS
10
7.27723
20
-7.72065
11
7.2702
21
-7.7169
0
LINE
8
BLACK
6
CONTINUOUS
10
7.2702
20
-7.7169
11
7.26739
21
-7.7094
0
LINE
8
BLACK
6
CONTINUOUS
10
7.26739
20
-7.7094
11
7.26833
21
-7.7019
0
LINE
8
BLACK
6
CONTINUOUS
10
7.26833
20
-7.7019
11
7.27302
21
-7.6944
0
LINE
8
BLACK
6
CONTINUOUS
10
7.27302
20
-7.6944
11
7.28098
21
-7.69065
0
LINE
8
BLACK
6
CONTINUOUS
10
7.28098
20
-7.69065
11
7.29973
21
-7.69065
0
LINE
8
BLACK
6
CONTINUOUS
10
7.29973
20
-7.69065
11
7.3077
21
-7.6869
0
LINE
8
BLACK
6
CONTINUOUS
10
7.34004
20
-7.66815
11
7.35222
21
-7.72065
0
LINE
8
BLACK
6
CONTINUOUS
10
7.35222
20
-7.72065
11
7.37753
21
-7.66815
0
LINE
8
BLACK
6
CONTINUOUS
10
7.43143
20
-7.7169
11
7.42347
21
-7.72065
0
LINE
8
BLACK
6
CONTINUOUS
10
7.42347
20
-7.72065
11
7.40847
21
-7.72065
0
LINE
8
BLACK
6
CONTINUOUS
10
7.40847
20
-7.72065
11
7.40144
21
-7.7169
0
LINE
8
BLACK
6
CONTINUOUS
10
7.40144
20
-7.7169
11
7.39862
21
-7.7094
0
LINE
8
BLACK
6
CONTINUOUS
10
7.39862
20
-7.7094
11
7.40237
21
-7.6794
0
LINE
8
BLACK
6
CONTINUOUS
10
7.40237
20
-7.6794
11
7.40706
21
-7.6719
0
LINE
8
BLACK
6
CONTINUOUS
10
7.40706
20
-7.6719
11
7.41503
21
-7.66815
0
LINE
8
BLACK
6
CONTINUOUS
10
7.41503
20
-7.66815
11
7.43003
21
-7.66815
0
LINE
8
BLACK
6
CONTINUOUS
10
7.43003
20
-7.66815
11
7.43706
21
-7.6719
0
LINE
8
BLACK
6
CONTINUOUS
10
7.43706
20
-7.6719
11
7.43987
21
-7.6794
0
LINE
8
BLACK
6
CONTINUOUS
10
7.43987
20
-7.6794
11
7.43893
21
-7.6869
0
LINE
8
BLACK
6
CONTINUOUS
10
7.43893
20
-7.6869
11
7.4005
21
-7.6944
0
LINE
8
BLACK
6
CONTINUOUS
10
7.47502
20
-7.66815
11
7.46846
21
-7.72065
0
LINE
8
BLACK
6
CONTINUOUS
10
7.47408
20
-7.67565
11
7.4783
21
-7.6719
0
LINE
8
BLACK
6
CONTINUOUS
10
7.4783
20
-7.6719
11
7.48627
21
-7.66815
0
LINE
8
BLACK
6
CONTINUOUS
10
7.48627
20
-7.66815
11
7.49752
21
-7.66815
0
LINE
8
BLACK
6
CONTINUOUS
10
7.49752
20
-7.66815
11
7.50455
21
-7.6719
0
LINE
8
BLACK
6
CONTINUOUS
10
7.50455
20
-7.6719
11
7.50736
21
-7.6794
0
LINE
8
BLACK
6
CONTINUOUS
10
7.50736
20
-7.6794
11
7.50221
21
-7.72065
0
LINE
8
BLACK
6
CONTINUOUS
10
7.58001
20
-7.66815
11
7.57204
21
-7.7319
0
LINE
8
BLACK
6
CONTINUOUS
10
7.57204
20
-7.7319
11
7.56735
21
-7.73939
0
LINE
8
BLACK
6
CONTINUOUS
10
7.56735
20
-7.73939
11
7.56314
21
-7.74314
0
LINE
8
BLACK
6
CONTINUOUS
10
7.56314
20
-7.74314
11
7.55517
21
-7.74689
0
LINE
8
BLACK
6
CONTINUOUS
10
7.55517
20
-7.74689
11
7.54392
21
-7.74689
0
LINE
8
BLACK
6
CONTINUOUS
10
7.54392
20
-7.74689
11
7.53689
21
-7.74314
0
LINE
8
BLACK
6
CONTINUOUS
10
7.57392
20
-7.7169
11
7.56595
21
-7.72065
0
LINE
8
BLACK
6
CONTINUOUS
10
7.56595
20
-7.72065
11
7.55095
21
-7.72065
0
LINE
8
BLACK
6
CONTINUOUS
10
7.55095
20
-7.72065
11
7.54392
21
-7.7169
0
LINE
8
BLACK
6
CONTINUOUS
10
7.54392
20
-7.7169
11
7.54064
21
-7.71315
0
LINE
8
BLACK
6
CONTINUOUS
10
7.54064
20
-7.71315
11
7.53783
21
-7.70565
0
LINE
8
BLACK
6
CONTINUOUS
10
7.53783
20
-7.70565
11
7.54064
21
-7.68315
0
LINE
8
BLACK
6
CONTINUOUS
10
7.54064
20
-7.68315
11
7.54533
21
-7.67565
0
LINE
8
BLACK
6
CONTINUOUS
10
7.54533
20
-7.67565
11
7.54954
21
-7.6719
0
LINE
8
BLACK
6
CONTINUOUS
10
7.54954
20
-7.6719
11
7.55751
21
-7.66815
0
LINE
8
BLACK
6
CONTINUOUS
10
7.55751
20
-7.66815
11
7.57251
21
-7.66815
0
LINE
8
BLACK
6
CONTINUOUS
10
7.57251
20
-7.66815
11
7.57954
21
-7.6719
0
LINE
8
BLACK
6
CONTINUOUS
10
7.64141
20
-7.7169
11
7.63344
21
-7.72065
0
LINE
8
BLACK
6
CONTINUOUS
10
7.63344
20
-7.72065
11
7.61844
21
-7.72065
0
LINE
8
BLACK
6
CONTINUOUS
10
7.61844
20
-7.72065
11
7.61141
21
-7.7169
0
LINE
8
BLACK
6
CONTINUOUS
10
7.61141
20
-7.7169
11
7.6086
21
-7.7094
0
LINE
8
BLACK
6
CONTINUOUS
10
7.6086
20
-7.7094
11
7.61235
21
-7.6794
0
LINE
8
BLACK
6
CONTINUOUS
10
7.61235
20
-7.6794
11
7.61703
21
-7.6719
0
LINE
8
BLACK
6
CONTINUOUS
10
7.61703
20
-7.6719
11
7.625
21
-7.66815
0
LINE
8
BLACK
6
CONTINUOUS
10
7.625
20
-7.66815
11
7.64
21
-7.66815
0
LINE
8
BLACK
6
CONTINUOUS
10
7.64
20
-7.66815
11
7.64703
21
-7.6719
0
LINE
8
BLACK
6
CONTINUOUS
10
7.64703
20
-7.6719
11
7.64984
21
-7.6794
0
LINE
8
BLACK
6
CONTINUOUS
10
7.64984
20
-7.6794
11
7.64891
21
-7.6869
0
LINE
8
BLACK
6
CONTINUOUS
10
7.64891
20
-7.6869
11
7.61047
21
-7.6944
0
LINE
8
BLACK
6
CONTINUOUS
10
7.67843
20
-7.72065
11
7.685
21
-7.66815
0
LINE
8
BLACK
6
CONTINUOUS
10
7.68312
20
-7.68315
11
7.68781
21
-7.67565
0
LINE
8
BLACK
6
CONTINUOUS
10
7.68781
20
-7.67565
11
7.69203
21
-7.6719
0
LINE
8
BLACK
6
CONTINUOUS
10
7.69203
20
-7.6719
11
7.69999
21
-7.66815
0
LINE
8
BLACK
6
CONTINUOUS
10
7.69999
20
-7.66815
11
7.70749
21
-7.66815
0
LINE
8
BLACK
6
CONTINUOUS
10
7.78717
20
-7.72065
11
7.79701
21
-7.64191
0
LINE
8
BLACK
6
CONTINUOUS
10
7.79233
20
-7.6794
11
7.83732
21
-7.6794
0
LINE
8
BLACK
6
CONTINUOUS
10
7.83216
20
-7.72065
11
7.84201
21
-7.64191
0
LINE
8
BLACK
6
CONTINUOUS
10
7.90997
20
-7.66815
11
7.90341
21
-7.72065
0
LINE
8
BLACK
6
CONTINUOUS
10
7.87622
20
-7.66815
11
7.87107
21
-7.7094
0
LINE
8
BLACK
6
CONTINUOUS
10
7.87107
20
-7.7094
11
7.87388
21
-7.7169
0
LINE
8
BLACK
6
CONTINUOUS
10
7.87388
20
-7.7169
11
7.88091
21
-7.72065
0
LINE
8
BLACK
6
CONTINUOUS
10
7.88091
20
-7.72065
11
7.89216
21
-7.72065
0
LINE
8
BLACK
6
CONTINUOUS
10
7.89216
20
-7.72065
11
7.90012
21
-7.7169
0
LINE
8
BLACK
6
CONTINUOUS
10
7.90012
20
-7.7169
11
7.90434
21
-7.71315
0
LINE
8
BLACK
6
CONTINUOUS
10
7.94746
20
-7.66815
11
7.9409
21
-7.72065
0
LINE
8
BLACK
6
CONTINUOUS
10
7.94652
20
-7.67565
11
7.95074
21
-7.6719
0
LINE
8
BLACK
6
CONTINUOUS
10
7.95074
20
-7.6719
11
7.95871
21
-7.66815
0
LINE
8
BLACK
6
CONTINUOUS
10
7.95871
20
-7.66815
11
7.96996
21
-7.66815
0
LINE
8
BLACK
6
CONTINUOUS
10
7.96996
20
-7.66815
11
7.97699
21
-7.6719
0
LINE
8
BLACK
6
CONTINUOUS
10
7.97699
20
-7.6719
11
7.9798
21
-7.6794
0
LINE
8
BLACK
6
CONTINUOUS
10
7.9798
20
-7.6794
11
7.97465
21
-7.72065
0
LINE
8
BLACK
6
CONTINUOUS
10
8.00745
20
-7.66815
11
8.03745
21
-7.66815
0
LINE
8
BLACK
6
CONTINUOUS
10
8.02198
20
-7.64191
11
8.01355
21
-7.7094
0
LINE
8
BLACK
6
CONTINUOUS
10
8.01355
20
-7.7094
11
8.01636
21
-7.7169
0
LINE
8
BLACK
6
CONTINUOUS
10
8.01636
20
-7.7169
11
8.02339
21
-7.72065
0
LINE
8
BLACK
6
CONTINUOUS
10
8.02339
20
-7.72065
11
8.03089
21
-7.72065
0
LINE
8
BLACK
6
CONTINUOUS
10
8.11713
20
-7.72065
11
8.12697
21
-7.64191
0
LINE
8
BLACK
6
CONTINUOUS
10
8.12697
20
-7.64191
11
8.15697
21
-7.64191
0
LINE
8
BLACK
6
CONTINUOUS
10
8.15697
20
-7.64191
11
8.164
21
-7.64566
0
LINE
8
BLACK
6
CONTINUOUS
10
8.164
20
-7.64566
11
8.16728
21
-7.64941
0
LINE
8
BLACK
6
CONTINUOUS
10
8.16728
20
-7.64941
11
8.17009
21
-7.65691
0
LINE
8
BLACK
6
CONTINUOUS
10
8.17009
20
-7.65691
11
8.16868
21
-7.66815
0
LINE
8
BLACK
6
CONTINUOUS
10
8.16868
20
-7.66815
11
8.164
21
-7.67565
0
LINE
8
BLACK
6
CONTINUOUS
10
8.164
20
-7.67565
11
8.15978
21
-7.6794
0
LINE
8
BLACK
6
CONTINUOUS
10
8.15978
20
-7.6794
11
8.15181
21
-7.68315
0
LINE
8
BLACK
6
CONTINUOUS
10
8.15181
20
-7.68315
11
8.12182
21
-7.68315
0
LINE
8
BLACK
6
CONTINUOUS
10
8.20712
20
-7.72065
11
8.20009
21
-7.7169
0
LINE
8
BLACK
6
CONTINUOUS
10
8.20009
20
-7.7169
11
8.19681
21
-7.71315
0
LINE
8
BLACK
6
CONTINUOUS
10
8.19681
20
-7.71315
11
8.19399
21
-7.70565
0
LINE
8
BLACK
6
CONTINUOUS
10
8.19399
20
-7.70565
11
8.19681
21
-7.68315
0
LINE
8
BLACK
6
CONTINUOUS
10
8.19681
20
-7.68315
11
8.20149
21
-7.67565
0
LINE
8
BLACK
6
CONTINUOUS
10
8.20149
20
-7.67565
11
8.20571
21
-7.6719
0
LINE
8
BLACK
6
CONTINUOUS
10
8.20571
20
-7.6719
11
8.21368
21
-7.66815
0
LINE
8
BLACK
6
CONTINUOUS
10
8.21368
20
-7.66815
11
8.22493
21
-7.66815
0
LINE
8
BLACK
6
CONTINUOUS
10
8.22493
20
-7.66815
11
8.23196
21
-7.6719
0
LINE
8
BLACK
6
CONTINUOUS
10
8.23196
20
-7.6719
11
8.23524
21
-7.67565
0
LINE
8
BLACK
6
CONTINUOUS
10
8.23524
20
-7.67565
11
8.23805
21
-7.68315
0
LINE
8
BLACK
6
CONTINUOUS
10
8.23805
20
-7.68315
11
8.23524
21
-7.70565
0
LINE
8
BLACK
6
CONTINUOUS
10
8.23524
20
-7.70565
11
8.23055
21
-7.71315
0
LINE
8
BLACK
6
CONTINUOUS
10
8.23055
20
-7.71315
11
8.22633
21
-7.7169
0
LINE
8
BLACK
6
CONTINUOUS
10
8.22633
20
-7.7169
11
8.21837
21
-7.72065
0
LINE
8
BLACK
6
CONTINUOUS
10
8.21837
20
-7.72065
11
8.20712
21
-7.72065
0
LINE
8
BLACK
6
CONTINUOUS
10
8.26383
20
-7.7169
11
8.27086
21
-7.72065
0
LINE
8
BLACK
6
CONTINUOUS
10
8.27086
20
-7.72065
11
8.28586
21
-7.72065
0
LINE
8
BLACK
6
CONTINUOUS
10
8.28586
20
-7.72065
11
8.29383
21
-7.7169
0
LINE
8
BLACK
6
CONTINUOUS
10
8.29383
20
-7.7169
11
8.29851
21
-7.7094
0
LINE
8
BLACK
6
CONTINUOUS
10
8.29851
20
-7.7094
11
8.29898
21
-7.70565
0
LINE
8
BLACK
6
CONTINUOUS
10
8.29898
20
-7.70565
11
8.29617
21
-7.69815
0
LINE
8
BLACK
6
CONTINUOUS
10
8.29617
20
-7.69815
11
8.28914
21
-7.6944
0
LINE
8
BLACK
6
CONTINUOUS
10
8.28914
20
-7.6944
11
8.27789
21
-7.6944
0
LINE
8
BLACK
6
CONTINUOUS
10
8.27789
20
-7.6944
11
8.27086
21
-7.69065
0
LINE
8
BLACK
6
CONTINUOUS
10
8.27086
20
-7.69065
11
8.26805
21
-7.68315
0
LINE
8
BLACK
6
CONTINUOUS
10
8.26805
20
-7.68315
11
8.26852
21
-7.6794
0
LINE
8
BLACK
6
CONTINUOUS
10
8.26852
20
-7.6794
11
8.2732
21
-7.6719
0
LINE
8
BLACK
6
CONTINUOUS
10
8.2732
20
-7.6719
11
8.28117
21
-7.66815
0
LINE
8
BLACK
6
CONTINUOUS
10
8.28117
20
-7.66815
11
8.29242
21
-7.66815
0
LINE
8
BLACK
6
CONTINUOUS
10
8.29242
20
-7.66815
11
8.29945
21
-7.6719
0
LINE
8
BLACK
6
CONTINUOUS
10
8.33085
20
-7.72065
11
8.33741
21
-7.66815
0
LINE
8
BLACK
6
CONTINUOUS
10
8.34069
20
-7.64191
11
8.33648
21
-7.64566
0
LINE
8
BLACK
6
CONTINUOUS
10
8.33648
20
-7.64566
11
8.33976
21
-7.64941
0
LINE
8
BLACK
6
CONTINUOUS
10
8.33976
20
-7.64941
11
8.34398
21
-7.64566
0
LINE
8
BLACK
6
CONTINUOUS
10
8.34398
20
-7.64566
11
8.34069
21
-7.64191
0
LINE
8
BLACK
6
CONTINUOUS
10
8.34069
20
-7.64191
11
8.33976
21
-7.64941
0
LINE
8
BLACK
6
CONTINUOUS
10
8.36366
20
-7.66815
11
8.39366
21
-7.66815
0
LINE
8
BLACK
6
CONTINUOUS
10
8.37819
20
-7.64191
11
8.36975
21
-7.7094
0
LINE
8
BLACK
6
CONTINUOUS
10
8.36975
20
-7.7094
11
8.37257
21
-7.7169
0
LINE
8
BLACK
6
CONTINUOUS
10
8.37257
20
-7.7169
11
8.3796
21
-7.72065
0
LINE
8
BLACK
6
CONTINUOUS
10
8.3796
20
-7.72065
11
8.38709
21
-7.72065
0
LINE
8
BLACK
6
CONTINUOUS
10
8.41334
20
-7.72065
11
8.4199
21
-7.66815
0
LINE
8
BLACK
6
CONTINUOUS
10
8.42318
20
-7.64191
11
8.41897
21
-7.64566
0
LINE
8
BLACK
6
CONTINUOUS
10
8.41897
20
-7.64566
11
8.42225
21
-7.64941
0
LINE
8
BLACK
6
CONTINUOUS
10
8.42225
20
-7.64941
11
8.42646
21
-7.64566
0
LINE
8
BLACK
6
CONTINUOUS
10
8.42646
20
-7.64566
11
8.42318
21
-7.64191
0
LINE
8
BLACK
6
CONTINUOUS
10
8.42318
20
-7.64191
11
8.42225
21
-7.64941
0
LINE
8
BLACK
6
CONTINUOUS
10
8.46209
20
-7.72065
11
8.45506
21
-7.7169
0
LINE
8
BLACK
6
CONTINUOUS
10
8.45506
20
-7.7169
11
8.45177
21
-7.71315
0
LINE
8
BLACK
6
CONTINUOUS
10
8.45177
20
-7.71315
11
8.44896
21
-7.70565
0
LINE
8
BLACK
6
CONTINUOUS
10
8.44896
20
-7.70565
11
8.45177
21
-7.68315
0
LINE
8
BLACK
6
CONTINUOUS
10
8.45177
20
-7.68315
11
8.45646
21
-7.67565
0
LINE
8
BLACK
6
CONTINUOUS
10
8.45646
20
-7.67565
11
8.46068
21
-7.6719
0
LINE
8
BLACK
6
CONTINUOUS
10
8.46068
20
-7.6719
11
8.46865
21
-7.66815
0
LINE
8
BLACK
6
CONTINUOUS
10
8.46865
20
-7.66815
11
8.4799
21
-7.66815
0
LINE
8
BLACK
6
CONTINUOUS
10
8.4799
20
-7.66815
11
8.48693
21
-7.6719
0
LINE
8
BLACK
6
CONTINUOUS
10
8.48693
20
-7.6719
11
8.49021
21
-7.67565
0
LINE
8
BLACK
6
CONTINUOUS
10
8.49021
20
-7.67565
11
8.49302
21
-7.68315
0
LINE
8
BLACK
6
CONTINUOUS
10
8.49302
20
-7.68315
11
8.49021
21
-7.70565
0
LINE
8
BLACK
6
CONTINUOUS
10
8.49021
20
-7.70565
11
8.48552
21
-7.71315
0
LINE
8
BLACK
6
CONTINUOUS
10
8.48552
20
-7.71315
11
8.4813
21
-7.7169
0
LINE
8
BLACK
6
CONTINUOUS
10
8.4813
20
-7.7169
11
8.47333
21
-7.72065
0
LINE
8
BLACK
6
CONTINUOUS
10
8.47333
20
-7.72065
11
8.46209
21
-7.72065
0
LINE
8
BLACK
6
CONTINUOUS
10
8.52864
20
-7.66815
11
8.52208
21
-7.72065
0
LINE
8
BLACK
6
CONTINUOUS
10
8.5277
20
-7.67565
11
8.53192
21
-7.6719
0
LINE
8
BLACK
6
CONTINUOUS
10
8.53192
20
-7.6719
11
8.53989
21
-7.66815
0
LINE
8
BLACK
6
CONTINUOUS
10
8.53989
20
-7.66815
11
8.55114
21
-7.66815
0
LINE
8
BLACK
6
CONTINUOUS
10
8.55114
20
-7.66815
11
8.55817
21
-7.6719
0
LINE
8
BLACK
6
CONTINUOUS
10
8.55817
20
-7.6719
11
8.56098
21
-7.6794
0
LINE
8
BLACK
6
CONTINUOUS
10
8.56098
20
-7.6794
11
8.55582
21
-7.72065
0
LINE
8
BLACK
6
CONTINUOUS
10
8.59332
20
-7.72065
11
8.59988
21
-7.66815
0
LINE
8
BLACK
6
CONTINUOUS
10
8.60316
20
-7.64191
11
8.59894
21
-7.64566
0
LINE
8
BLACK
6
CONTINUOUS
10
8.59894
20
-7.64566
11
8.60222
21
-7.64941
0
LINE
8
BLACK
6
CONTINUOUS
10
8.60222
20
-7.64941
11
8.60644
21
-7.64566
0
LINE
8
BLACK
6
CONTINUOUS
10
8.60644
20
-7.64566
11
8.60316
21
-7.64191
0
LINE
8
BLACK
6
CONTINUOUS
10
8.60316
20
-7.64191
11
8.60222
21
-7.64941
0
LINE
8
BLACK
6
CONTINUOUS
10
8.63738
20
-7.66815
11
8.63081
21
-7.72065
0
LINE
8
BLACK
6
CONTINUOUS
10
8.63644
20
-7.67565
11
8.64066
21
-7.6719
0
LINE
8
BLACK
6
CONTINUOUS
10
8.64066
20
-7.6719
11
8.64862
21
-7.66815
0
LINE
8
BLACK
6
CONTINUOUS
10
8.64862
20
-7.66815
11
8.65987
21
-7.66815
0
LINE
8
BLACK
6
CONTINUOUS
10
8.65987
20
-7.66815
11
8.6669
21
-7.6719
0
LINE
8
BLACK
6
CONTINUOUS
10
8.6669
20
-7.6719
11
8.66972
21
-7.6794
0
LINE
8
BLACK
6
CONTINUOUS
10
8.66972
20
-7.6794
11
8.66456
21
-7.72065
0
LINE
8
BLACK
6
CONTINUOUS
10
8.74236
20
-7.66815
11
8.7344
21
-7.7319
0
LINE
8
BLACK
6
CONTINUOUS
10
8.7344
20
-7.7319
11
8.72971
21
-7.73939
0
LINE
8
BLACK
6
CONTINUOUS
10
8.72971
20
-7.73939
11
8.72549
21
-7.74314
0
LINE
8
BLACK
6
CONTINUOUS
10
8.72549
20
-7.74314
11
8.71752
21
-7.74689
0
LINE
8
BLACK
6
CONTINUOUS
10
8.71752
20
-7.74689
11
8.70627
21
-7.74689
0
LINE
8
BLACK
6
CONTINUOUS
10
8.70627
20
-7.74689
11
8.69924
21
-7.74314
0
LINE
8
BLACK
6
CONTINUOUS
10
8.73627
20
-7.7169
11
8.7283
21
-7.72065
0
LINE
8
BLACK
6
CONTINUOUS
10
8.7283
20
-7.72065
11
8.7133
21
-7.72065
0
LINE
8
BLACK
6
CONTINUOUS
10
8.7133
20
-7.72065
11
8.70627
21
-7.7169
0
LINE
8
BLACK
6
CONTINUOUS
10
8.70627
20
-7.7169
11
8.70299
21
-7.71315
0
LINE
8
BLACK
6
CONTINUOUS
10
8.70299
20
-7.71315
11
8.70018
21
-7.70565
0
LINE
8
BLACK
6
CONTINUOUS
10
8.70018
20
-7.70565
11
8.70299
21
-7.68315
0
LINE
8
BLACK
6
CONTINUOUS
10
8.70299
20
-7.68315
11
8.70768
21
-7.67565
0
LINE
8
BLACK
6
CONTINUOUS
10
8.70768
20
-7.67565
11
8.7119
21
-7.6719
0
LINE
8
BLACK
6
CONTINUOUS
10
8.7119
20
-7.6719
11
8.71987
21
-7.66815
0
LINE
8
BLACK
6
CONTINUOUS
10
8.71987
20
-7.66815
11
8.73486
21
-7.66815
0
LINE
8
BLACK
6
CONTINUOUS
10
8.73486
20
-7.66815
11
8.74189
21
-7.6719
0
LINE
8
BLACK
6
CONTINUOUS
10
8.83001
20
-7.7169
11
8.84079
21
-7.72065
0
LINE
8
BLACK
6
CONTINUOUS
10
8.84079
20
-7.72065
11
8.85954
21
-7.72065
0
LINE
8
BLACK
6
CONTINUOUS
10
8.85954
20
-7.72065
11
8.8675
21
-7.7169
0
LINE
8
BLACK
6
CONTINUOUS
10
8.8675
20
-7.7169
11
8.87172
21
-7.71315
0
LINE
8
BLACK
6
CONTINUOUS
10
8.87172
20
-7.71315
11
8.87641
21
-7.70565
0
LINE
8
BLACK
6
CONTINUOUS
10
8.87641
20
-7.70565
11
8.87735
21
-7.69815
0
LINE
8
BLACK
6
CONTINUOUS
10
8.87735
20
-7.69815
11
8.87453
21
-7.69065
0
LINE
8
BLACK
6
CONTINUOUS
10
8.87453
20
-7.69065
11
8.87125
21
-7.6869
0
LINE
8
BLACK
6
CONTINUOUS
10
8.87125
20
-7.6869
11
8.86422
21
-7.68315
0
LINE
8
BLACK
6
CONTINUOUS
10
8.86422
20
-7.68315
11
8.84969
21
-7.6794
0
LINE
8
BLACK
6
CONTINUOUS
10
8.84969
20
-7.6794
11
8.84266
21
-7.67565
0
LINE
8
BLACK
6
CONTINUOUS
10
8.84266
20
-7.67565
11
8.83938
21
-7.6719
0
LINE
8
BLACK
6
CONTINUOUS
10
8.83938
20
-7.6719
11
8.83657
21
-7.6644
0
LINE
8
BLACK
6
CONTINUOUS
10
8.83657
20
-7.6644
11
8.83751
21
-7.65691
0
LINE
8
BLACK
6
CONTINUOUS
10
8.83751
20
-7.65691
11
8.84219
21
-7.64941
0
LINE
8
BLACK
6
CONTINUOUS
10
8.84219
20
-7.64941
11
8.84641
21
-7.64566
0
LINE
8
BLACK
6
CONTINUOUS
10
8.84641
20
-7.64566
11
8.85438
21
-7.64191
0
LINE
8
BLACK
6
CONTINUOUS
10
8.85438
20
-7.64191
11
8.87313
21
-7.64191
0
LINE
8
BLACK
6
CONTINUOUS
10
8.87313
20
-7.64191
11
8.88391
21
-7.64566
0
LINE
8
BLACK
6
CONTINUOUS
10
8.90734
20
-7.66815
11
8.91953
21
-7.72065
0
LINE
8
BLACK
6
CONTINUOUS
10
8.94484
20
-7.66815
11
8.91953
21
-7.72065
0
LINE
8
BLACK
6
CONTINUOUS
10
8.91953
20
-7.72065
11
8.90969
21
-7.73939
0
LINE
8
BLACK
6
CONTINUOUS
10
8.90969
20
-7.73939
11
8.90547
21
-7.74314
0
LINE
8
BLACK
6
CONTINUOUS
10
8.90547
20
-7.74314
11
8.8975
21
-7.74689
0
LINE
8
BLACK
6
CONTINUOUS
10
8.96499
20
-7.7169
11
8.97202
21
-7.72065
0
LINE
8
BLACK
6
CONTINUOUS
10
8.97202
20
-7.72065
11
8.98702
21
-7.72065
0
LINE
8
BLACK
6
CONTINUOUS
10
8.98702
20
-7.72065
11
8.99499
21
-7.7169
0
LINE
8
BLACK
6
CONTINUOUS
10
8.99499
20
-7.7169
11
8.99967
21
-7.7094
0
LINE
8
BLACK
6
CONTINUOUS
10
8.99967
20
-7.7094
11
9.00014
21
-7.70565
0
LINE
8
BLACK
6
CONTINUOUS
10
9.00014
20
-7.70565
11
8.99733
21
-7.69815
0
LINE
8
BLACK
6
CONTINUOUS
10
8.99733
20
-7.69815
11
8.9903
21
-7.6944
0
LINE
8
BLACK
6
CONTINUOUS
10
8.9903
20
-7.6944
11
8.97905
21
-7.6944
0
LINE
8
BLACK
6
CONTINUOUS
10
8.97905
20
-7.6944
11
8.97202
21
-7.69065
0
LINE
8
BLACK
6
CONTINUOUS
10
8.97202
20
-7.69065
11
8.96921
21
-7.68315
0
LINE
8
BLACK
6
CONTINUOUS
10
8.96921
20
-7.68315
11
8.96968
21
-7.6794
0
LINE
8
BLACK
6
CONTINUOUS
10
8.96968
20
-7.6794
11
8.97437
21
-7.6719
0
LINE
8
BLACK
6
CONTINUOUS
10
8.97437
20
-7.6719
11
8.98233
21
-7.66815
0
LINE
8
BLACK
6
CONTINUOUS
10
8.98233
20
-7.66815
11
8.99358
21
-7.66815
0
LINE
8
BLACK
6
CONTINUOUS
10
8.99358
20
-7.66815
11
9.00061
21
-7.6719
0
LINE
8
BLACK
6
CONTINUOUS
10
9.02733
20
-7.66815
11
9.05732
21
-7.66815
0
LINE
8
BLACK
6
CONTINUOUS
10
9.04186
20
-7.64191
11
9.03342
21
-7.7094
0
LINE
8
BLACK
6
CONTINUOUS
10
9.03342
20
-7.7094
11
9.03623
21
-7.7169
0
LINE
8
BLACK
6
CONTINUOUS
10
9.03623
20
-7.7169
11
9.04326
21
-7.72065
0
LINE
8
BLACK
6
CONTINUOUS
10
9.04326
20
-7.72065
11
9.05076
21
-7.72065
0
LINE
8
BLACK
6
CONTINUOUS
10
9.10747
20
-7.7169
11
9.09951
21
-7.72065
0
LINE
8
BLACK
6
CONTINUOUS
10
9.09951
20
-7.72065
11
9.08451
21
-7.72065
0
LINE
8
BLACK
6
CONTINUOUS
10
9.08451
20
-7.72065
11
9.07748
21
-7.7169
0
LINE
8
BLACK
6
CONTINUOUS
10
9.07748
20
-7.7169
11
9.07467
21
-7.7094
0
LINE
8
BLACK
6
CONTINUOUS
10
9.07467
20
-7.7094
11
9.07841
21
-7.6794
0
LINE
8
BLACK
6
CONTINUOUS
10
9.07841
20
-7.6794
11
9.0831
21
-7.6719
0
LINE
8
BLACK
6
CONTINUOUS
10
9.0831
20
-7.6719
11
9.09107
21
-7.66815
0
LINE
8
BLACK
6
CONTINUOUS
10
9.09107
20
-7.66815
11
9.10607
21
-7.66815
0
LINE
8
BLACK
6
CONTINUOUS
10
9.10607
20
-7.66815
11
9.1131
21
-7.6719
0
LINE
8
BLACK
6
CONTINUOUS
10
9.1131
20
-7.6719
11
9.11591
21
-7.6794
0
LINE
8
BLACK
6
CONTINUOUS
10
9.11591
20
-7.6794
11
9.11497
21
-7.6869
0
LINE
8
BLACK
6
CONTINUOUS
10
9.11497
20
-7.6869
11
9.07654
21
-7.6944
0
LINE
8
BLACK
6
CONTINUOUS
10
9.1445
20
-7.72065
11
9.15106
21
-7.66815
0
LINE
8
BLACK
6
CONTINUOUS
10
9.15012
20
-7.67565
11
9.15434
21
-7.6719
0
LINE
8
BLACK
6
CONTINUOUS
10
9.15434
20
-7.6719
11
9.16231
21
-7.66815
0
LINE
8
BLACK
6
CONTINUOUS
10
9.16231
20
-7.66815
11
9.17356
21
-7.66815
0
LINE
8
BLACK
6
CONTINUOUS
10
9.17356
20
-7.66815
11
9.18059
21
-7.6719
0
LINE
8
BLACK
6
CONTINUOUS
10
9.18059
20
-7.6719
11
9.1834
21
-7.6794
0
LINE
8
BLACK
6
CONTINUOUS
10
9.1834
20
-7.6794
11
9.17825
21
-7.72065
0
LINE
8
BLACK
6
CONTINUOUS
10
9.1834
20
-7.6794
11
9.18809
21
-7.6719
0
LINE
8
BLACK
6
CONTINUOUS
10
9.18809
20
-7.6719
11
9.19606
21
-7.66815
0
LINE
8
BLACK
6
CONTINUOUS
10
9.19606
20
-7.66815
11
9.2073
21
-7.66815
0
LINE
8
BLACK
6
CONTINUOUS
10
9.2073
20
-7.66815
11
9.21434
21
-7.6719
0
LINE
8
BLACK
6
CONTINUOUS
10
9.21434
20
-7.6719
11
9.21715
21
-7.6794
0
LINE
8
BLACK
6
CONTINUOUS
10
9.21715
20
-7.6794
11
9.21199
21
-7.72065
0
LINE
8
BLACK
6
CONTINUOUS
10
6.35259
20
-7.53939
11
6.33291
21
-7.53939
0
LINE
8
BLACK
6
CONTINUOUS
10
6.33291
20
-7.57032
11
6.33291
21
-7.51126
0
LINE
8
BLACK
6
CONTINUOUS
10
6.33291
20
-7.51126
11
6.36103
21
-7.51126
0
LINE
8
BLACK
6
CONTINUOUS
10
6.38353
20
-7.57032
11
6.38353
21
-7.53095
0
LINE
8
BLACK
6
CONTINUOUS
10
6.38353
20
-7.51126
11
6.38071
21
-7.51408
0
LINE
8
BLACK
6
CONTINUOUS
10
6.38071
20
-7.51408
11
6.38353
21
-7.51689
0
LINE
8
BLACK
6
CONTINUOUS
10
6.38353
20
-7.51689
11
6.38634
21
-7.51408
0
LINE
8
BLACK
6
CONTINUOUS
10
6.38634
20
-7.51408
11
6.38353
21
-7.51126
0
LINE
8
BLACK
6
CONTINUOUS
10
6.38353
20
-7.51126
11
6.38353
21
-7.51689
0
LINE
8
BLACK
6
CONTINUOUS
10
6.42008
20
-7.57032
11
6.41446
21
-7.56751
0
LINE
8
BLACK
6
CONTINUOUS
10
6.41446
20
-7.56751
11
6.41165
21
-7.56188
0
LINE
8
BLACK
6
CONTINUOUS
10
6.41165
20
-7.56188
11
6.41165
21
-7.51126
0
LINE
8
BLACK
6
CONTINUOUS
10
6.46508
20
-7.56751
11
6.45945
21
-7.57032
0
LINE
8
BLACK
6
CONTINUOUS
10
6.45945
20
-7.57032
11
6.4482
21
-7.57032
0
LINE
8
BLACK
6
CONTINUOUS
10
6.4482
20
-7.57032
11
6.44258
21
-7.56751
0
LINE
8
BLACK
6
CONTINUOUS
10
6.44258
20
-7.56751
11
6.43977
21
-7.56188
0
LINE
8
BLACK
6
CONTINUOUS
10
6.43977
20
-7.56188
11
6.43977
21
-7.53939
0
LINE
8
BLACK
6
CONTINUOUS
10
6.43977
20
-7.53939
11
6.44258
21
-7.53376
0
LINE
8
BLACK
6
CONTINUOUS
10
6.44258
20
-7.53376
11
6.4482
21
-7.53095
0
LINE
8
BLACK
6
CONTINUOUS
10
6.4482
20
-7.53095
11
6.45945
21
-7.53095
0
LINE
8
BLACK
6
CONTINUOUS
10
6.45945
20
-7.53095
11
6.46508
21
-7.53376
0
LINE
8
BLACK
6
CONTINUOUS
10
6.46508
20
-7.53376
11
6.46789
21
-7.53939
0
LINE
8
BLACK
6
CONTINUOUS
10
6.46789
20
-7.53939
11
6.46789
21
-7.54501
0
LINE
8
BLACK
6
CONTINUOUS
10
6.46789
20
-7.54501
11
6.43977
21
-7.55063
0
LINE
8
BLACK
6
CONTINUOUS
10
6.4932
20
-7.5647
11
6.49601
21
-7.56751
0
LINE
8
BLACK
6
CONTINUOUS
10
6.49601
20
-7.56751
11
6.4932
21
-7.57032
0
LINE
8
BLACK
6
CONTINUOUS
10
6.4932
20
-7.57032
11
6.49039
21
-7.56751
0
LINE
8
BLACK
6
CONTINUOUS
10
6.49039
20
-7.56751
11
6.4932
21
-7.5647
0
LINE
8
BLACK
6
CONTINUOUS
10
6.4932
20
-7.5647
11
6.4932
21
-7.57032
0
LINE
8
BLACK
6
CONTINUOUS
10
6.4932
20
-7.53376
11
6.49601
21
-7.53657
0
LINE
8
BLACK
6
CONTINUOUS
10
6.49601
20
-7.53657
11
6.4932
21
-7.53939
0
LINE
8
BLACK
6
CONTINUOUS
10
6.4932
20
-7.53939
11
6.49039
21
-7.53657
0
LINE
8
BLACK
6
CONTINUOUS
10
6.49039
20
-7.53657
11
6.4932
21
-7.53376
0
LINE
8
BLACK
6
CONTINUOUS
10
6.4932
20
-7.53376
11
6.4932
21
-7.53939
0
LINE
8
BLACK
6
CONTINUOUS
10
6.59162
20
-7.53095
11
6.59162
21
-7.57876
0
LINE
8
BLACK
6
CONTINUOUS
10
6.59162
20
-7.57876
11
6.58881
21
-7.58438
0
LINE
8
BLACK
6
CONTINUOUS
10
6.58881
20
-7.58438
11
6.586
21
-7.58719
0
LINE
8
BLACK
6
CONTINUOUS
10
6.586
20
-7.58719
11
6.58038
21
-7.59001
0
LINE
8
BLACK
6
CONTINUOUS
10
6.58038
20
-7.59001
11
6.57194
21
-7.59001
0
LINE
8
BLACK
6
CONTINUOUS
10
6.57194
20
-7.59001
11
6.56631
21
-7.58719
0
LINE
8
BLACK
6
CONTINUOUS
10
6.59162
20
-7.56751
11
6.586
21
-7.57032
0
LINE
8
BLACK
6
CONTINUOUS
10
6.586
20
-7.57032
11
6.57475
21
-7.57032
0
LINE
8
BLACK
6
CONTINUOUS
10
6.57475
20
-7.57032
11
6.56913
21
-7.56751
0
LINE
8
BLACK
6
CONTINUOUS
10
6.56913
20
-7.56751
11
6.56631
21
-7.5647
0
LINE
8
BLACK
6
CONTINUOUS
10
6.56631
20
-7.5647
11
6.5635
21
-7.55907
0
LINE
8
BLACK
6
CONTINUOUS
10
6.5635
20
-7.55907
11
6.5635
21
-7.5422
0
LINE
8
BLACK
6
CONTINUOUS
10
6.5635
20
-7.5422
11
6.56631
21
-7.53657
0
LINE
8
BLACK
6
CONTINUOUS
10
6.56631
20
-7.53657
11
6.56913
21
-7.53376
0
LINE
8
BLACK
6
CONTINUOUS
10
6.56913
20
-7.53376
11
6.57475
21
-7.53095
0
LINE
8
BLACK
6
CONTINUOUS
10
6.57475
20
-7.53095
11
6.586
21
-7.53095
0
LINE
8
BLACK
6
CONTINUOUS
10
6.586
20
-7.53095
11
6.59162
21
-7.53376
0
LINE
8
BLACK
6
CONTINUOUS
10
6.61693
20
-7.56751
11
6.62256
21
-7.57032
0
LINE
8
BLACK
6
CONTINUOUS
10
6.62256
20
-7.57032
11
6.63381
21
-7.57032
0
LINE
8
BLACK
6
CONTINUOUS
10
6.63381
20
-7.57032
11
6.63943
21
-7.56751
0
LINE
8
BLACK
6
CONTINUOUS
10
6.63943
20
-7.56751
11
6.64224
21
-7.56188
0
LINE
8
BLACK
6
CONTINUOUS
10
6.64224
20
-7.56188
11
6.64224
21
-7.55907
0
LINE
8
BLACK
6
CONTINUOUS
10
6.64224
20
-7.55907
11
6.63943
21
-7.55345
0
LINE
8
BLACK
6
CONTINUOUS
10
6.63943
20
-7.55345
11
6.63381
21
-7.55063
0
LINE
8
BLACK
6
CONTINUOUS
10
6.63381
20
-7.55063
11
6.62537
21
-7.55063
0
LINE
8
BLACK
6
CONTINUOUS
10
6.62537
20
-7.55063
11
6.61975
21
-7.54782
0
LINE
8
BLACK
6
CONTINUOUS
10
6.61975
20
-7.54782
11
6.61693
21
-7.5422
0
LINE
8
BLACK
6
CONTINUOUS
10
6.61693
20
-7.5422
11
6.61693
21
-7.53939
0
LINE
8
BLACK
6
CONTINUOUS
10
6.61693
20
-7.53939
11
6.61975
21
-7.53376
0
LINE
8
BLACK
6
CONTINUOUS
10
6.61975
20
-7.53376
11
6.62537
21
-7.53095
0
LINE
8
BLACK
6
CONTINUOUS
10
6.62537
20
-7.53095
11
6.63381
21
-7.53095
0
LINE
8
BLACK
6
CONTINUOUS
10
6.63381
20
-7.53095
11
6.63943
21
-7.53376
0
LINE
8
BLACK
6
CONTINUOUS
10
6.66755
20
-7.57032
11
6.66755
21
-7.51126
0
LINE
8
BLACK
6
CONTINUOUS
10
6.69286
20
-7.57032
11
6.69286
21
-7.53939
0
LINE
8
BLACK
6
CONTINUOUS
10
6.69286
20
-7.53939
11
6.69005
21
-7.53376
0
LINE
8
BLACK
6
CONTINUOUS
10
6.69005
20
-7.53376
11
6.68443
21
-7.53095
0
LINE
8
BLACK
6
CONTINUOUS
10
6.68443
20
-7.53095
11
6.67599
21
-7.53095
0
LINE
8
BLACK
6
CONTINUOUS
10
6.67599
20
-7.53095
11
6.67036
21
-7.53376
0
LINE
8
BLACK
6
CONTINUOUS
10
6.67036
20
-7.53376
11
6.66755
21
-7.53657
0
LINE
8
BLACK
6
CONTINUOUS
10
6.72098
20
-7.53095
11
6.72098
21
-7.59001
0
LINE
8
BLACK
6
CONTINUOUS
10
6.72098
20
-7.53376
11
6.72661
21
-7.53095
0
LINE
8
BLACK
6
CONTINUOUS
10
6.72661
20
-7.53095
11
6.73786
21
-7.53095
0
LINE
8
BLACK
6
CONTINUOUS
10
6.73786
20
-7.53095
11
6.74348
21
-7.53376
0
LINE
8
BLACK
6
CONTINUOUS
10
6.74348
20
-7.53376
11
6.74629
21
-7.53657
0
LINE
8
BLACK
6
CONTINUOUS
10
6.74629
20
-7.53657
11
6.7491
21
-7.5422
0
LINE
8
BLACK
6
CONTINUOUS
10
6.7491
20
-7.5422
11
6.7491
21
-7.55907
0
LINE
8
BLACK
6
CONTINUOUS
10
6.7491
20
-7.55907
11
6.74629
21
-7.5647
0
LINE
8
BLACK
6
CONTINUOUS
10
6.74629
20
-7.5647
11
6.74348
21
-7.56751
0
LINE
8
BLACK
6
CONTINUOUS
10
6.74348
20
-7.56751
11
6.73786
21
-7.57032
0
LINE
8
BLACK
6
CONTINUOUS
10
6.73786
20
-7.57032
11
6.72661
21
-7.57032
0
LINE
8
BLACK
6
CONTINUOUS
10
6.72661
20
-7.57032
11
6.72098
21
-7.56751
0
LINE
8
BLACK
6
CONTINUOUS
10
6.7716
20
-7.56751
11
6.77723
21
-7.57032
0
LINE
8
BLACK
6
CONTINUOUS
10
6.77723
20
-7.57032
11
6.78847
21
-7.57032
0
LINE
8
BLACK
6
CONTINUOUS
10
6.78847
20
-7.57032
11
6.7941
21
-7.56751
0
LINE
8
BLACK
6
CONTINUOUS
10
6.7941
20
-7.56751
11
6.79691
21
-7.56188
0
LINE
8
BLACK
6
CONTINUOUS
10
6.79691
20
-7.56188
11
6.79691
21
-7.55907
0
LINE
8
BLACK
6
CONTINUOUS
10
6.79691
20
-7.55907
11
6.7941
21
-7.55345
0
LINE
8
BLACK
6
CONTINUOUS
10
6.7941
20
-7.55345
11
6.78847
21
-7.55063
0
LINE
8
BLACK
6
CONTINUOUS
10
6.78847
20
-7.55063
11
6.78004
21
-7.55063
0
LINE
8
BLACK
6
CONTINUOUS
10
6.78004
20
-7.55063
11
6.77441
21
-7.54782
0
LINE
8
BLACK
6
CONTINUOUS
10
6.77441
20
-7.54782
11
6.7716
21
-7.5422
0
LINE
8
BLACK
6
CONTINUOUS
10
6.7716
20
-7.5422
11
6.7716
21
-7.53939
0
LINE
8
BLACK
6
CONTINUOUS
10
6.7716
20
-7.53939
11
6.77441
21
-7.53376
0
LINE
8
BLACK
6
CONTINUOUS
10
6.77441
20
-7.53376
11
6.78004
21
-7.53095
0
LINE
8
BLACK
6
CONTINUOUS
10
6.78004
20
-7.53095
11
6.78847
21
-7.53095
0
LINE
8
BLACK
6
CONTINUOUS
10
6.78847
20
-7.53095
11
6.7941
21
-7.53376
0
LINE
8
BLACK
6
CONTINUOUS
10
6.82222
20
-7.5647
11
6.82503
21
-7.56751
0
LINE
8
BLACK
6
CONTINUOUS
10
6.82503
20
-7.56751
11
6.82222
21
-7.57032
0
LINE
8
BLACK
6
CONTINUOUS
10
6.82222
20
-7.57032
11
6.81941
21
-7.56751
0
LINE
8
BLACK
6
CONTINUOUS
10
6.81941
20
-7.56751
11
6.82222
21
-7.5647
0
LINE
8
BLACK
6
CONTINUOUS
10
6.82222
20
-7.5647
11
6.82222
21
-7.57032
0
LINE
8
BLACK
6
CONTINUOUS
10
6.85034
20
-7.57032
11
6.85034
21
-7.51126
0
LINE
8
BLACK
6
CONTINUOUS
10
6.85597
20
-7.54782
11
6.87284
21
-7.57032
0
LINE
8
BLACK
6
CONTINUOUS
10
6.87284
20
-7.53095
11
6.85034
21
-7.55345
0
LINE
8
BLACK
6
CONTINUOUS
10
6.89815
20
-7.57032
11
6.89815
21
-7.53095
0
LINE
8
BLACK
6
CONTINUOUS
10
6.89815
20
-7.51126
11
6.89534
21
-7.51408
0
LINE
8
BLACK
6
CONTINUOUS
10
6.89534
20
-7.51408
11
6.89815
21
-7.51689
0
LINE
8
BLACK
6
CONTINUOUS
10
6.89815
20
-7.51689
11
6.90096
21
-7.51408
0
LINE
8
BLACK
6
CONTINUOUS
10
6.90096
20
-7.51408
11
6.89815
21
-7.51126
0
LINE
8
BLACK
6
CONTINUOUS
10
6.89815
20
-7.51126
11
6.89815
21
-7.51689
0
LINE
8
BLACK
6
CONTINUOUS
10
6.95158
20
-7.56751
11
6.94595
21
-7.57032
0
LINE
8
BLACK
6
CONTINUOUS
10
6.94595
20
-7.57032
11
6.93471
21
-7.57032
0
LINE
8
BLACK
6
CONTINUOUS
10
6.93471
20
-7.57032
11
6.92908
21
-7.56751
0
LINE
8
BLACK
6
CONTINUOUS
10
6.92908
20
-7.56751
11
6.92627
21
-7.5647
0
LINE
8
BLACK
6
CONTINUOUS
10
6.92627
20
-7.5647
11
6.92346
21
-7.55907
0
LINE
8
BLACK
6
CONTINUOUS
10
6.92346
20
-7.55907
11
6.92346
21
-7.5422
0
LINE
8
BLACK
6
CONTINUOUS
10
6.92346
20
-7.5422
11
6.92627
21
-7.53657
0
LINE
8
BLACK
6
CONTINUOUS
10
6.92627
20
-7.53657
11
6.92908
21
-7.53376
0
LINE
8
BLACK
6
CONTINUOUS
10
6.92908
20
-7.53376
11
6.93471
21
-7.53095
0
LINE
8
BLACK
6
CONTINUOUS
10
6.93471
20
-7.53095
11
6.94595
21
-7.53095
0
LINE
8
BLACK
6
CONTINUOUS
10
6.94595
20
-7.53095
11
6.95158
21
-7.53376
0
LINE
8
BLACK
6
CONTINUOUS
10
7.0022
20
-7.57032
11
7.0022
21
-7.53939
0
LINE
8
BLACK
6
CONTINUOUS
10
7.0022
20
-7.53939
11
6.99939
21
-7.53376
0
LINE
8
BLACK
6
CONTINUOUS
10
6.99939
20
-7.53376
11
6.99376
21
-7.53095
0
LINE
8
BLACK
6
CONTINUOUS
10
6.99376
20
-7.53095
11
6.98251
21
-7.53095
0
LINE
8
BLACK
6
CONTINUOUS
10
6.98251
20
-7.53095
11
6.97689
21
-7.53376
0
LINE
8
BLACK
6
CONTINUOUS
10
7.0022
20
-7.56751
11
6.99657
21
-7.57032
0
LINE
8
BLACK
6
CONTINUOUS
10
6.99657
20
-7.57032
11
6.98251
21
-7.57032
0
LINE
8
BLACK
6
CONTINUOUS
10
6.98251
20
-7.57032
11
6.97689
21
-7.56751
0
LINE
8
BLACK
6
CONTINUOUS
10
6.97689
20
-7.56751
11
6.97408
21
-7.56188
0
LINE
8
BLACK
6
CONTINUOUS
10
6.97408
20
-7.56188
11
6.97408
21
-7.55626
0
LINE
8
BLACK
6
CONTINUOUS
10
6.97408
20
-7.55626
11
6.97689
21
-7.55063
0
LINE
8
BLACK
6
CONTINUOUS
10
6.97689
20
-7.55063
11
6.98251
21
-7.54782
0
LINE
8
BLACK
6
CONTINUOUS
10
6.98251
20
-7.54782
11
6.99657
21
-7.54782
0
LINE
8
BLACK
6
CONTINUOUS
10
6.99657
20
-7.54782
11
7.0022
21
-7.54501
0
LINE
8
BLACK
6
CONTINUOUS
10
7.05563
20
-7.57032
11
7.05563
21
-7.51126
0
LINE
8
BLACK
6
CONTINUOUS
10
7.05563
20
-7.56751
11
7.05
21
-7.57032
0
LINE
8
BLACK
6
CONTINUOUS
10
7.05
20
-7.57032
11
7.03876
21
-7.57032
0
LINE
8
BLACK
6
CONTINUOUS
10
7.03876
20
-7.57032
11
7.03313
21
-7.56751
0
LINE
8
BLACK
6
CONTINUOUS
10
7.03313
20
-7.56751
11
7.03032
21
-7.5647
0
LINE
8
BLACK
6
CONTINUOUS
10
7.03032
20
-7.5647
11
7.02751
21
-7.55907
0
LINE
8
BLACK
6
CONTINUOUS
10
7.02751
20
-7.55907
11
7.02751
21
-7.5422
0
LINE
8
BLACK
6
CONTINUOUS
10
7.02751
20
-7.5422
11
7.03032
21
-7.53657
0
LINE
8
BLACK
6
CONTINUOUS
10
7.03032
20
-7.53657
11
7.03313
21
-7.53376
0
LINE
8
BLACK
6
CONTINUOUS
10
7.03313
20
-7.53376
11
7.03876
21
-7.53095
0
LINE
8
BLACK
6
CONTINUOUS
10
7.03876
20
-7.53095
11
7.05
21
-7.53095
0
LINE
8
BLACK
6
CONTINUOUS
10
7.05
20
-7.53095
11
7.05563
21
-7.53376
0
LINE
8
BLACK
6
CONTINUOUS
10
7.06969
20
-7.57594
11
7.11468
21
-7.57594
0
LINE
8
BLACK
6
CONTINUOUS
10
7.12874
20
-7.53095
11
7.12874
21
-7.59001
0
LINE
8
BLACK
6
CONTINUOUS
10
7.12874
20
-7.53376
11
7.13437
21
-7.53095
0
LINE
8
BLACK
6
CONTINUOUS
10
7.13437
20
-7.53095
11
7.14562
21
-7.53095
0
LINE
8
BLACK
6
CONTINUOUS
10
7.14562
20
-7.53095
11
7.15124
21
-7.53376
0
LINE
8
BLACK
6
CONTINUOUS
10
7.15124
20
-7.53376
11
7.15405
21
-7.53657
0
LINE
8
BLACK
6
CONTINUOUS
10
7.15405
20
-7.53657
11
7.15687
21
-7.5422
0
LINE
8
BLACK
6
CONTINUOUS
10
7.15687
20
-7.5422
11
7.15687
21
-7.55907
0
LINE
8
BLACK
6
CONTINUOUS
10
7.15687
20
-7.55907
11
7.15405
21
-7.5647
0
LINE
8
BLACK
6
CONTINUOUS
10
7.15405
20
-7.5647
11
7.15124
21
-7.56751
0
LINE
8
BLACK
6
CONTINUOUS
10
7.15124
20
-7.56751
11
7.14562
21
-7.57032
0
LINE
8
BLACK
6
CONTINUOUS
10
7.14562
20
-7.57032
11
7.13437
21
-7.57032
0
LINE
8
BLACK
6
CONTINUOUS
10
7.13437
20
-7.57032
11
7.12874
21
-7.56751
0
LINE
8
BLACK
6
CONTINUOUS
10
7.20748
20
-7.56751
11
7.20186
21
-7.57032
0
LINE
8
BLACK
6
CONTINUOUS
10
7.20186
20
-7.57032
11
7.19061
21
-7.57032
0
LINE
8
BLACK
6
CONTINUOUS
10
7.19061
20
-7.57032
11
7.18499
21
-7.56751
0
LINE
8
BLACK
6
CONTINUOUS
10
7.18499
20
-7.56751
11
7.18218
21
-7.5647
0
LINE
8
BLACK
6
CONTINUOUS
10
7.18218
20
-7.5647
11
7.17936
21
-7.55907
0
LINE
8
BLACK
6
CONTINUOUS
10
7.17936
20
-7.55907
11
7.17936
21
-7.5422
0
LINE
8
BLACK
6
CONTINUOUS
10
7.17936
20
-7.5422
11
7.18218
21
-7.53657
0
LINE
8
BLACK
6
CONTINUOUS
10
7.18218
20
-7.53657
11
7.18499
21
-7.53376
0
LINE
8
BLACK
6
CONTINUOUS
10
7.18499
20
-7.53376
11
7.19061
21
-7.53095
0
LINE
8
BLACK
6
CONTINUOUS
10
7.19061
20
-7.53095
11
7.20186
21
-7.53095
0
LINE
8
BLACK
6
CONTINUOUS
10
7.20186
20
-7.53095
11
7.20748
21
-7.53376
0
LINE
8
BLACK
6
CONTINUOUS
10
7.23279
20
-7.57032
11
7.23279
21
-7.51126
0
LINE
8
BLACK
6
CONTINUOUS
10
7.23279
20
-7.53376
11
7.23842
21
-7.53095
0
LINE
8
BLACK
6
CONTINUOUS
10
7.23842
20
-7.53095
11
7.24967
21
-7.53095
0
LINE
8
BLACK
6
CONTINUOUS
10
7.24967
20
-7.53095
11
7.25529
21
-7.53376
0
LINE
8
BLACK
6
CONTINUOUS
10
7.25529
20
-7.53376
11
7.2581
21
-7.53657
0
LINE
8
BLACK
6
CONTINUOUS
10
7.2581
20
-7.53657
11
7.26092
21
-7.5422
0
LINE
8
BLACK
6
CONTINUOUS
10
7.26092
20
-7.5422
11
7.26092
21
-7.55907
0
LINE
8
BLACK
6
CONTINUOUS
10
7.26092
20
-7.55907
11
7.2581
21
-7.5647
0
LINE
8
BLACK
6
CONTINUOUS
10
7.2581
20
-7.5647
11
7.25529
21
-7.56751
0
LINE
8
BLACK
6
CONTINUOUS
10
7.25529
20
-7.56751
11
7.24967
21
-7.57032
0
LINE
8
BLACK
6
CONTINUOUS
10
7.24967
20
-7.57032
11
7.23842
21
-7.57032
0
LINE
8
BLACK
6
CONTINUOUS
10
7.23842
20
-7.57032
11
7.23279
21
-7.56751
0
LINE
8
BLACK
6
CONTINUOUS
10
6.27559
20
-7.37795
11
10.5276
21
-7.37795
0
LINE
8
BLACK
6
CONTINUOUS
10
6.33009
20
-7.46121
11
6.33853
21
-7.46402
0
LINE
8
BLACK
6
CONTINUOUS
10
6.33853
20
-7.46402
11
6.35259
21
-7.46402
0
LINE
8
BLACK
6
CONTINUOUS
10
6.35259
20
-7.46402
11
6.35822
21
-7.46121
0
LINE
8
BLACK
6
CONTINUOUS
10
6.35822
20
-7.46121
11
6.36103
21
-7.4584
0
LINE
8
BLACK
6
CONTINUOUS
10
6.36103
20
-7.4584
11
6.36384
21
-7.45277
0
LINE
8
BLACK
6
CONTINUOUS
10
6.36384
20
-7.45277
11
6.36384
21
-7.44715
0
LINE
8
BLACK
6
CONTINUOUS
10
6.36384
20
-7.44715
11
6.36103
21
-7.44152
0
LINE
8
BLACK
6
CONTINUOUS
10
6.36103
20
-7.44152
11
6.35822
21
-7.43871
0
LINE
8
BLACK
6
CONTINUOUS
10
6.35822
20
-7.43871
11
6.35259
21
-7.4359
0
LINE
8
BLACK
6
CONTINUOUS
10
6.35259
20
-7.4359
11
6.34134
21
-7.43309
0
LINE
8
BLACK
6
CONTINUOUS
10
6.34134
20
-7.43309
11
6.33572
21
-7.43027
0
LINE
8
BLACK
6
CONTINUOUS
10
6.33572
20
-7.43027
11
6.33291
21
-7.42746
0
LINE
8
BLACK
6
CONTINUOUS
10
6.33291
20
-7.42746
11
6.33009
21
-7.42184
0
LINE
8
BLACK
6
CONTINUOUS
10
6.33009
20
-7.42184
11
6.33009
21
-7.41621
0
LINE
8
BLACK
6
CONTINUOUS
10
6.33009
20
-7.41621
11
6.33291
21
-7.41059
0
LINE
8
BLACK
6
CONTINUOUS
10
6.33291
20
-7.41059
11
6.33572
21
-7.40778
0
LINE
8
BLACK
6
CONTINUOUS
10
6.33572
20
-7.40778
11
6.34134
21
-7.40497
0
LINE
8
BLACK
6
CONTINUOUS
10
6.34134
20
-7.40497
11
6.3554
21
-7.40497
0
LINE
8
BLACK
6
CONTINUOUS
10
6.3554
20
-7.40497
11
6.36384
21
-7.40778
0
LINE
8
BLACK
6
CONTINUOUS
10
6.38915
20
-7.46402
11
6.38915
21
-7.40497
0
LINE
8
BLACK
6
CONTINUOUS
10
6.41446
20
-7.46402
11
6.41446
21
-7.43309
0
LINE
8
BLACK
6
CONTINUOUS
10
6.41446
20
-7.43309
11
6.41165
21
-7.42746
0
LINE
8
BLACK
6
CONTINUOUS
10
6.41165
20
-7.42746
11
6.40602
21
-7.42465
0
LINE
8
BLACK
6
CONTINUOUS
10
6.40602
20
-7.42465
11
6.39759
21
-7.42465
0
LINE
8
BLACK
6
CONTINUOUS
10
6.39759
20
-7.42465
11
6.39196
21
-7.42746
0
LINE
8
BLACK
6
CONTINUOUS
10
6.39196
20
-7.42746
11
6.38915
21
-7.43027
0
LINE
8
BLACK
6
CONTINUOUS
10
6.46508
20
-7.46121
11
6.45945
21
-7.46402
0
LINE
8
BLACK
6
CONTINUOUS
10
6.45945
20
-7.46402
11
6.4482
21
-7.46402
0
LINE
8
BLACK
6
CONTINUOUS
10
6.4482
20
-7.46402
11
6.44258
21
-7.46121
0
LINE
8
BLACK
6
CONTINUOUS
10
6.44258
20
-7.46121
11
6.43977
21
-7.45558
0
LINE
8
BLACK
6
CONTINUOUS
10
6.43977
20
-7.45558
11
6.43977
21
-7.43309
0
LINE
8
BLACK
6
CONTINUOUS
10
6.43977
20
-7.43309
11
6.44258
21
-7.42746
0
LINE
8
BLACK
6
CONTINUOUS
10
6.44258
20
-7.42746
11
6.4482
21
-7.42465
0
LINE
8
BLACK
6
CONTINUOUS
10
6.4482
20
-7.42465
11
6.45945
21
-7.42465
0
LINE
8
BLACK
6
CONTINUOUS
10
6.45945
20
-7.42465
11
6.46508
21
-7.42746
0
LINE
8
BLACK
6
CONTINUOUS
10
6.46508
20
-7.42746
11
6.46789
21
-7.43309
0
LINE
8
BLACK
6
CONTINUOUS
10
6.46789
20
-7.43309
11
6.46789
21
-7.43871
0
LINE
8
BLACK
6
CONTINUOUS
10
6.46789
20
-7.43871
11
6.43977
21
-7.44434
0
LINE
8
BLACK
6
CONTINUOUS
10
6.5157
20
-7.46121
11
6.51007
21
-7.46402
0
LINE
8
BLACK
6
CONTINUOUS
10
6.51007
20
-7.46402
11
6.49882
21
-7.46402
0
LINE
8
BLACK
6
CONTINUOUS
10
6.49882
20
-7.46402
11
6.4932
21
-7.46121
0
LINE
8
BLACK
6
CONTINUOUS
10
6.4932
20
-7.46121
11
6.49039
21
-7.45558
0
LINE
8
BLACK
6
CONTINUOUS
10
6.49039
20
-7.45558
11
6.49039
21
-7.43309
0
LINE
8
BLACK
6
CONTINUOUS
10
6.49039
20
-7.43309
11
6.4932
21
-7.42746
0
LINE
8
BLACK
6
CONTINUOUS
10
6.4932
20
-7.42746
11
6.49882
21
-7.42465
0
LINE
8
BLACK
6
CONTINUOUS
10
6.49882
20
-7.42465
11
6.51007
21
-7.42465
0
LINE
8
BLACK
6
CONTINUOUS
10
6.51007
20
-7.42465
11
6.5157
21
-7.42746
0
LINE
8
BLACK
6
CONTINUOUS
10
6.5157
20
-7.42746
11
6.51851
21
-7.43309
0
LINE
8
BLACK
6
CONTINUOUS
10
6.51851
20
-7.43309
11
6.51851
21
-7.43871
0
LINE
8
BLACK
6
CONTINUOUS
10
6.51851
20
-7.43871
11
6.49039
21
-7.44434
0
LINE
8
BLACK
6
CONTINUOUS
10
6.53538
20
-7.42465
11
6.55788
21
-7.42465
0
LINE
8
BLACK
6
CONTINUOUS
10
6.54382
20
-7.40497
11
6.54382
21
-7.45558
0
LINE
8
BLACK
6
CONTINUOUS
10
6.54382
20
-7.45558
11
6.54663
21
-7.46121
0
LINE
8
BLACK
6
CONTINUOUS
10
6.54663
20
-7.46121
11
6.55225
21
-7.46402
0
LINE
8
BLACK
6
CONTINUOUS
10
6.55225
20
-7.46402
11
6.55788
21
-7.46402
0
LINE
8
BLACK
6
CONTINUOUS
10
6.57756
20
-7.4584
11
6.58038
21
-7.46121
0
LINE
8
BLACK
6
CONTINUOUS
10
6.58038
20
-7.46121
11
6.57756
21
-7.46402
0
LINE
8
BLACK
6
CONTINUOUS
10
6.57756
20
-7.46402
11
6.57475
21
-7.46121
0
LINE
8
BLACK
6
CONTINUOUS
10
6.57475
20
-7.46121
11
6.57756
21
-7.4584
0
LINE
8
BLACK
6
CONTINUOUS
10
6.57756
20
-7.4584
11
6.57756
21
-7.46402
0
LINE
8
BLACK
6
CONTINUOUS
10
6.57756
20
-7.42746
11
6.58038
21
-7.43027
0
LINE
8
BLACK
6
CONTINUOUS
10
6.58038
20
-7.43027
11
6.57756
21
-7.43309
0
LINE
8
BLACK
6
CONTINUOUS
10
6.57756
20
-7.43309
11
6.57475
21
-7.43027
0
LINE
8
BLACK
6
CONTINUOUS
10
6.57475
20
-7.43027
11
6.57756
21
-7.42746
0
LINE
8
BLACK
6
CONTINUOUS
10
6.57756
20
-7.42746
11
6.57756
21
-7.43309
0
LINE
8
BLACK
6
CONTINUOUS
10
6.33679
20
-7.3456
11
6.33679
21
-7.28655
0
LINE
8
BLACK
6
CONTINUOUS
10
6.33679
20
-7.28655
11
6.35929
21
-7.28655
0
LINE
8
BLACK
6
CONTINUOUS
10
6.35929
20
-7.28655
11
6.36491
21
-7.28936
0
LINE
8
BLACK
6
CONTINUOUS
10
6.36491
20
-7.28936
11
6.36773
21
-7.29217
0
LINE
8
BLACK
6
CONTINUOUS
10
6.36773
20
-7.29217
11
6.37054
21
-7.2978
0
LINE
8
BLACK
6
CONTINUOUS
10
6.37054
20
-7.2978
11
6.37054
21
-7.30623
0
LINE
8
BLACK
6
CONTINUOUS
10
6.37054
20
-7.30623
11
6.36773
21
-7.31186
0
LINE
8
BLACK
6
CONTINUOUS
10
6.36773
20
-7.31186
11
6.36491
21
-7.31467
0
LINE
8
BLACK
6
CONTINUOUS
10
6.36491
20
-7.31467
11
6.35929
21
-7.31748
0
LINE
8
BLACK
6
CONTINUOUS
10
6.35929
20
-7.31748
11
6.33679
21
-7.31748
0
LINE
8
BLACK
6
CONTINUOUS
10
6.42116
20
-7.3456
11
6.42116
21
-7.31467
0
LINE
8
BLACK
6
CONTINUOUS
10
6.42116
20
-7.31467
11
6.41834
21
-7.30905
0
LINE
8
BLACK
6
CONTINUOUS
10
6.41834
20
-7.30905
11
6.41272
21
-7.30623
0
LINE
8
BLACK
6
CONTINUOUS
10
6.41272
20
-7.30623
11
6.40147
21
-7.30623
0
LINE
8
BLACK
6
CONTINUOUS
10
6.40147
20
-7.30623
11
6.39585
21
-7.30905
0
LINE
8
BLACK
6
CONTINUOUS
10
6.42116
20
-7.34279
11
6.41553
21
-7.3456
0
LINE
8
BLACK
6
CONTINUOUS
10
6.41553
20
-7.3456
11
6.40147
21
-7.3456
0
LINE
8
BLACK
6
CONTINUOUS
10
6.40147
20
-7.3456
11
6.39585
21
-7.34279
0
LINE
8
BLACK
6
CONTINUOUS
10
6.39585
20
-7.34279
11
6.39303
21
-7.33717
0
LINE
8
BLACK
6
CONTINUOUS
10
6.39303
20
-7.33717
11
6.39303
21
-7.33154
0
LINE
8
BLACK
6
CONTINUOUS
10
6.39303
20
-7.33154
11
6.39585
21
-7.32592
0
LINE
8
BLACK
6
CONTINUOUS
10
6.39585
20
-7.32592
11
6.40147
21
-7.32311
0
LINE
8
BLACK
6
CONTINUOUS
10
6.40147
20
-7.32311
11
6.41553
21
-7.32311
0
LINE
8
BLACK
6
CONTINUOUS
10
6.41553
20
-7.32311
11
6.42116
21
-7.32029
0
LINE
8
BLACK
6
CONTINUOUS
10
6.44928
20
-7.30623
11
6.44928
21
-7.3456
0
LINE
8
BLACK
6
CONTINUOUS
10
6.44928
20
-7.31186
11
6.45209
21
-7.30905
0
LINE
8
BLACK
6
CONTINUOUS
10
6.45209
20
-7.30905
11
6.45771
21
-7.30623
0
LINE
8
BLACK
6
CONTINUOUS
10
6.45771
20
-7.30623
11
6.46615
21
-7.30623
0
LINE
8
BLACK
6
CONTINUOUS
10
6.46615
20
-7.30623
11
6.47177
21
-7.30905
0
LINE
8
BLACK
6
CONTINUOUS
10
6.47177
20
-7.30905
11
6.47459
21
-7.31467
0
LINE
8
BLACK
6
CONTINUOUS
10
6.47459
20
-7.31467
11
6.47459
21
-7.3456
0
LINE
8
BLACK
6
CONTINUOUS
10
6.49427
20
-7.30623
11
6.51677
21
-7.30623
0
LINE
8
BLACK
6
CONTINUOUS
10
6.50271
20
-7.28655
11
6.50271
21
-7.33717
0
LINE
8
BLACK
6
CONTINUOUS
10
6.50271
20
-7.33717
11
6.50552
21
-7.34279
0
LINE
8
BLACK
6
CONTINUOUS
10
6.50552
20
-7.34279
11
6.51114
21
-7.3456
0
LINE
8
BLACK
6
CONTINUOUS
10
6.51114
20
-7.3456
11
6.51677
21
-7.3456
0
LINE
8
BLACK
6
CONTINUOUS
10
6.53364
20
-7.34279
11
6.53927
21
-7.3456
0
LINE
8
BLACK
6
CONTINUOUS
10
6.53927
20
-7.3456
11
6.55052
21
-7.3456
0
LINE
8
BLACK
6
CONTINUOUS
10
6.55052
20
-7.3456
11
6.55614
21
-7.34279
0
LINE
8
BLACK
6
CONTINUOUS
10
6.55614
20
-7.34279
11
6.55895
21
-7.33717
0
LINE
8
BLACK
6
CONTINUOUS
10
6.55895
20
-7.33717
11
6.55895
21
-7.33435
0
LINE
8
BLACK
6
CONTINUOUS
10
6.55895
20
-7.33435
11
6.55614
21
-7.32873
0
LINE
8
BLACK
6
CONTINUOUS
10
6.55614
20
-7.32873
11
6.55052
21
-7.32592
0
LINE
8
BLACK
6
CONTINUOUS
10
6.55052
20
-7.32592
11
6.54208
21
-7.32592
0
LINE
8
BLACK
6
CONTINUOUS
10
6.54208
20
-7.32592
11
6.53645
21
-7.32311
0
LINE
8
BLACK
6
CONTINUOUS
10
6.53645
20
-7.32311
11
6.53364
21
-7.31748
0
LINE
8
BLACK
6
CONTINUOUS
10
6.53364
20
-7.31748
11
6.53364
21
-7.31467
0
LINE
8
BLACK
6
CONTINUOUS
10
6.53364
20
-7.31467
11
6.53645
21
-7.30905
0
LINE
8
BLACK
6
CONTINUOUS
10
6.53645
20
-7.30905
11
6.54208
21
-7.30623
0
LINE
8
BLACK
6
CONTINUOUS
10
6.54208
20
-7.30623
11
6.55052
21
-7.30623
0
LINE
8
BLACK
6
CONTINUOUS
10
6.55052
20
-7.30623
11
6.55614
21
-7.30905
0
LINE
8
BLACK
6
CONTINUOUS
10
6.62082
20
-7.30623
11
6.64332
21
-7.30623
0
LINE
8
BLACK
6
CONTINUOUS
10
6.62926
20
-7.3456
11
6.62926
21
-7.29498
0
LINE
8
BLACK
6
CONTINUOUS
10
6.62926
20
-7.29498
11
6.63207
21
-7.28936
0
LINE
8
BLACK
6
CONTINUOUS
10
6.63207
20
-7.28936
11
6.63769
21
-7.28655
0
LINE
8
BLACK
6
CONTINUOUS
10
6.63769
20
-7.28655
11
6.64332
21
-7.28655
0
LINE
8
BLACK
6
CONTINUOUS
10
6.67144
20
-7.3456
11
6.66581
21
-7.34279
0
LINE
8
BLACK
6
CONTINUOUS
10
6.66581
20
-7.34279
11
6.663
21
-7.33998
0
LINE
8
BLACK
6
CONTINUOUS
10
6.663
20
-7.33998
11
6.66019
21
-7.33435
0
LINE
8
BLACK
6
CONTINUOUS
10
6.66019
20
-7.33435
11
6.66019
21
-7.31748
0
LINE
8
BLACK
6
CONTINUOUS
10
6.66019
20
-7.31748
11
6.663
21
-7.31186
0
LINE
8
BLACK
6
CONTINUOUS
10
6.663
20
-7.31186
11
6.66581
21
-7.30905
0
LINE
8
BLACK
6
CONTINUOUS
10
6.66581
20
-7.30905
11
6.67144
21
-7.30623
0
LINE
8
BLACK
6
CONTINUOUS
10
6.67144
20
-7.30623
11
6.67987
21
-7.30623
0
LINE
8
BLACK
6
CONTINUOUS
10
6.67987
20
-7.30623
11
6.6855
21
-7.30905
0
LINE
8
BLACK
6
CONTINUOUS
10
6.6855
20
-7.30905
11
6.68831
21
-7.31186
0
LINE
8
BLACK
6
CONTINUOUS
10
6.68831
20
-7.31186
11
6.69112
21
-7.31748
0
LINE
8
BLACK
6
CONTINUOUS
10
6.69112
20
-7.31748
11
6.69112
21
-7.33435
0
LINE
8
BLACK
6
CONTINUOUS
10
6.69112
20
-7.33435
11
6.68831
21
-7.33998
0
LINE
8
BLACK
6
CONTINUOUS
10
6.68831
20
-7.33998
11
6.6855
21
-7.34279
0
LINE
8
BLACK
6
CONTINUOUS
10
6.6855
20
-7.34279
11
6.67987
21
-7.3456
0
LINE
8
BLACK
6
CONTINUOUS
10
6.67987
20
-7.3456
11
6.67144
21
-7.3456
0
LINE
8
BLACK
6
CONTINUOUS
10
6.71643
20
-7.3456
11
6.71643
21
-7.30623
0
LINE
8
BLACK
6
CONTINUOUS
10
6.71643
20
-7.31748
11
6.71924
21
-7.31186
0
LINE
8
BLACK
6
CONTINUOUS
10
6.71924
20
-7.31186
11
6.72206
21
-7.30905
0
LINE
8
BLACK
6
CONTINUOUS
10
6.72206
20
-7.30905
11
6.72768
21
-7.30623
0
LINE
8
BLACK
6
CONTINUOUS
10
6.72768
20
-7.30623
11
6.7333
21
-7.30623
0
LINE
8
BLACK
6
CONTINUOUS
10
6.81767
20
-7.31467
11
6.82611
21
-7.31748
0
LINE
8
BLACK
6
CONTINUOUS
10
6.82611
20
-7.31748
11
6.82892
21
-7.32029
0
LINE
8
BLACK
6
CONTINUOUS
10
6.82892
20
-7.32029
11
6.83173
21
-7.32592
0
LINE
8
BLACK
6
CONTINUOUS
10
6.83173
20
-7.32592
11
6.83173
21
-7.33435
0
LINE
8
BLACK
6
CONTINUOUS
10
6.83173
20
-7.33435
11
6.82892
21
-7.33998
0
LINE
8
BLACK
6
CONTINUOUS
10
6.82892
20
-7.33998
11
6.82611
21
-7.34279
0
LINE
8
BLACK
6
CONTINUOUS
10
6.82611
20
-7.34279
11
6.82048
21
-7.3456
0
LINE
8
BLACK
6
CONTINUOUS
10
6.82048
20
-7.3456
11
6.79798
21
-7.3456
0
LINE
8
BLACK
6
CONTINUOUS
10
6.79798
20
-7.3456
11
6.79798
21
-7.28655
0
LINE
8
BLACK
6
CONTINUOUS
10
6.79798
20
-7.28655
11
6.81767
21
-7.28655
0
LINE
8
BLACK
6
CONTINUOUS
10
6.81767
20
-7.28655
11
6.82329
21
-7.28936
0
LINE
8
BLACK
6
CONTINUOUS
10
6.82329
20
-7.28936
11
6.82611
21
-7.29217
0
LINE
8
BLACK
6
CONTINUOUS
10
6.82611
20
-7.29217
11
6.82892
21
-7.2978
0
LINE
8
BLACK
6
CONTINUOUS
10
6.82892
20
-7.2978
11
6.82892
21
-7.30342
0
LINE
8
BLACK
6
CONTINUOUS
10
6.82892
20
-7.30342
11
6.82611
21
-7.30905
0
LINE
8
BLACK
6
CONTINUOUS
10
6.82611
20
-7.30905
11
6.82329
21
-7.31186
0
LINE
8
BLACK
6
CONTINUOUS
10
6.82329
20
-7.31186
11
6.81767
21
-7.31467
0
LINE
8
BLACK
6
CONTINUOUS
10
6.81767
20
-7.31467
11
6.79798
21
-7.31467
0
LINE
8
BLACK
6
CONTINUOUS
10
6.85704
20
-7.3456
11
6.85704
21
-7.30623
0
LINE
8
BLACK
6
CONTINUOUS
10
6.85704
20
-7.28655
11
6.85423
21
-7.28936
0
LINE
8
BLACK
6
CONTINUOUS
10
6.85423
20
-7.28936
11
6.85704
21
-7.29217
0
LINE
8
BLACK
6
CONTINUOUS
10
6.85704
20
-7.29217
11
6.85985
21
-7.28936
0
LINE
8
BLACK
6
CONTINUOUS
10
6.85985
20
-7.28936
11
6.85704
21
-7.28655
0
LINE
8
BLACK
6
CONTINUOUS
10
6.85704
20
-7.28655
11
6.85704
21
-7.29217
0
LINE
8
BLACK
6
CONTINUOUS
10
6.88516
20
-7.3456
11
6.88516
21
-7.30623
0
LINE
8
BLACK
6
CONTINUOUS
10
6.88516
20
-7.31748
11
6.88797
21
-7.31186
0
LINE
8
BLACK
6
CONTINUOUS
10
6.88797
20
-7.31186
11
6.89079
21
-7.30905
0
LINE
8
BLACK
6
CONTINUOUS
10
6.89079
20
-7.30905
11
6.89641
21
-7.30623
0
LINE
8
BLACK
6
CONTINUOUS
10
6.89641
20
-7.30623
11
6.90203
21
-7.30623
0
LINE
8
BLACK
6
CONTINUOUS
10
6.94703
20
-7.3456
11
6.94703
21
-7.28655
0
LINE
8
BLACK
6
CONTINUOUS
10
6.94703
20
-7.34279
11
6.9414
21
-7.3456
0
LINE
8
BLACK
6
CONTINUOUS
10
6.9414
20
-7.3456
11
6.93016
21
-7.3456
0
LINE
8
BLACK
6
CONTINUOUS
10
6.93016
20
-7.3456
11
6.92453
21
-7.34279
0
LINE
8
BLACK
6
CONTINUOUS
10
6.92453
20
-7.34279
11
6.92172
21
-7.33998
0
LINE
8
BLACK
6
CONTINUOUS
10
6.92172
20
-7.33998
11
6.91891
21
-7.33435
0
LINE
8
BLACK
6
CONTINUOUS
10
6.91891
20
-7.33435
11
6.91891
21
-7.31748
0
LINE
8
BLACK
6
CONTINUOUS
10
6.91891
20
-7.31748
11
6.92172
21
-7.31186
0
LINE
8
BLACK
6
CONTINUOUS
10
6.92172
20
-7.31186
11
6.92453
21
-7.30905
0
LINE
8
BLACK
6
CONTINUOUS
10
6.92453
20
-7.30905
11
6.93016
21
-7.30623
0
LINE
8
BLACK
6
CONTINUOUS
10
6.93016
20
-7.30623
11
6.9414
21
-7.30623
0
LINE
8
BLACK
6
CONTINUOUS
10
6.9414
20
-7.30623
11
6.94703
21
-7.30905
0
LINE
8
BLACK
6
CONTINUOUS
10
6.97234
20
-7.34279
11
6.97796
21
-7.3456
0
LINE
8
BLACK
6
CONTINUOUS
10
6.97796
20
-7.3456
11
6.98921
21
-7.3456
0
LINE
8
BLACK
6
CONTINUOUS
10
6.98921
20
-7.3456
11
6.99483
21
-7.34279
0
LINE
8
BLACK
6
CONTINUOUS
10
6.99483
20
-7.34279
11
6.99765
21
-7.33717
0
LINE
8
BLACK
6
CONTINUOUS
10
6.99765
20
-7.33717
11
6.99765
21
-7.33435
0
LINE
8
BLACK
6
CONTINUOUS
10
6.99765
20
-7.33435
11
6.99483
21
-7.32873
0
LINE
8
BLACK
6
CONTINUOUS
10
6.99483
20
-7.32873
11
6.98921
21
-7.32592
0
LINE
8
BLACK
6
CONTINUOUS
10
6.98921
20
-7.32592
11
6.98077
21
-7.32592
0
LINE
8
BLACK
6
CONTINUOUS
10
6.98077
20
-7.32592
11
6.97515
21
-7.32311
0
LINE
8
BLACK
6
CONTINUOUS
10
6.97515
20
-7.32311
11
6.97234
21
-7.31748
0
LINE
8
BLACK
6
CONTINUOUS
10
6.97234
20
-7.31748
11
6.97234
21
-7.31467
0
LINE
8
BLACK
6
CONTINUOUS
10
6.97234
20
-7.31467
11
6.97515
21
-7.30905
0
LINE
8
BLACK
6
CONTINUOUS
10
6.97515
20
-7.30905
11
6.98077
21
-7.30623
0
LINE
8
BLACK
6
CONTINUOUS
10
6.98077
20
-7.30623
11
6.98921
21
-7.30623
0
LINE
8
BLACK
6
CONTINUOUS
10
6.98921
20
-7.30623
11
6.99483
21
-7.30905
0
LINE
8
BLACK
6
CONTINUOUS
10
7.06299
20
-7.77165
11
7.06299
21
-7.88976
0
LINE
8
BLACK
6
CONTINUOUS
10
9.58268
20
-7.77165
11
9.58268
21
-8.02756
0
LINE
8
BLACK
6
CONTINUOUS
10
4.66535
20
-1.69094
11
4.67017
21
-1.69149
0
LINE
8
BLACK
6
CONTINUOUS
10
4.67017
20
-1.69149
11
4.67475
21
-1.69309
0
LINE
8
BLACK
6
CONTINUOUS
10
4.67475
20
-1.69309
11
4.67886
21
-1.69567
0
LINE
8
BLACK
6
CONTINUOUS
10
4.67886
20
-1.69567
11
4.68228
21
-1.6991
0
LINE
8
BLACK
6
CONTINUOUS
10
4.68228
20
-1.6991
11
4.68486
21
-1.7032
0
LINE
8
BLACK
6
CONTINUOUS
10
4.68486
20
-1.7032
11
4.68646
21
-1.70778
0
LINE
8
BLACK
6
CONTINUOUS
10
4.68646
20
-1.70778
11
4.68701
21
-1.7126
0
LINE
8
BLACK
6
CONTINUOUS
10
4.68701
20
-1.7126
11
4.68701
21
-1.7126
0
LINE
8
BLACK
6
CONTINUOUS
10
4.68701
20
-1.7126
11
4.68701
21
-2.3622
0
LINE
8
BLACK
6
CONTINUOUS
10
4.68701
20
-2.3622
11
4.68646
21
-2.36702
0
LINE
8
BLACK
6
CONTINUOUS
10
4.68646
20
-2.36702
11
4.68486
21
-2.3716
0
LINE
8
BLACK
6
CONTINUOUS
10
4.68486
20
-2.3716
11
4.68228
21
-2.37571
0
LINE
8
BLACK
6
CONTINUOUS
10
4.68228
20
-2.37571
11
4.67886
21
-2.37913
0
LINE
8
BLACK
6
CONTINUOUS
10
4.67886
20
-2.37913
11
4.67475
21
-2.38171
0
LINE
8
BLACK
6
CONTINUOUS
10
4.67475
20
-2.38171
11
4.67017
21
-2.38332
0
LINE
8
BLACK
6
CONTINUOUS
10
4.67017
20
-2.38332
11
4.66535
21
-2.38386
0
LINE
8
BLACK
6
CONTINUOUS
10
4.66535
20
-2.38386
11
4.58661
21
-2.38386
0
LINE
8
BLACK
6
CONTINUOUS
10
4.58661
20
-2.38386
11
4.5818
21
-2.38332
0
LINE
8
BLACK
6
CONTINUOUS
10
4.5818
20
-2.38332
11
4.57722
21
-2.38171
0
LINE
8
BLACK
6
CONTINUOUS
10
4.57722
20
-2.38171
11
4.57311
21
-2.37913
0
LINE
8
BLACK
6
CONTINUOUS
10
4.57311
20
-2.37913
11
4.56968
21
-2.37571
0
LINE
8
BLACK
6
CONTINUOUS
10
4.56968
20
-2.37571
11
4.5671
21
-2.3716
0
LINE
8
BLACK
6
CONTINUOUS
10
4.5671
20
-2.3716
11
4.5655
21
-2.36702
0
LINE
8
BLACK
6
CONTINUOUS
10
4.5655
20
-2.36702
11
4.56496
21
-2.3622
0
LINE
8
BLACK
6
CONTINUOUS
10
4.56496
20
-2.3622
11
4.56496
21
-1.7126
0
LINE
8
BLACK
6
CONTINUOUS
10
4.56496
20
-1.7126
11
4.56496
21
-1.7126
0
LINE
8
BLACK
6
CONTINUOUS
10
4.56496
20
-1.7126
11
4.5655
21
-1.70778
0
LINE
8
BLACK
6
CONTINUOUS
10
4.5655
20
-1.70778
11
4.5671
21
-1.7032
0
LINE
8
BLACK
6
CONTINUOUS
10
4.5671
20
-1.7032
11
4.56968
21
-1.6991
0
LINE
8
BLACK
6
CONTINUOUS
10
4.56968
20
-1.6991
11
4.57311
21
-1.69567
0
LINE
8
BLACK
6
CONTINUOUS
10
4.57311
20
-1.69567
11
4.57722
21
-1.69309
0
LINE
8
BLACK
6
CONTINUOUS
10
4.57722
20
-1.69309
11
4.5818
21
-1.69149
0
LINE
8
BLACK
6
CONTINUOUS
10
4.5818
20
-1.69149
11
4.58661
21
-1.69094
0
LINE
8
BLACK
6
CONTINUOUS
10
4.58661
20
-1.69094
11
4.66535
21
-1.69094
0
LINE
8
BLACK
6
CONTINUOUS
10
4.58661
20
-1.69488
11
4.58428
21
-1.69488
0
LINE
8
BLACK
6
CONTINUOUS
10
4.58428
20
-1.69488
11
4.57978
21
-1.69609
0
LINE
8
BLACK
6
CONTINUOUS
10
4.57978
20
-1.69609
11
4.57574
21
-1.69842
0
LINE
8
BLACK
6
CONTINUOUS
10
4.57574
20
-1.69842
11
4.57244
21
-1.70172
0
LINE
8
BLACK
6
CONTINUOUS
10
4.57244
20
-1.70172
11
4.5701
21
-1.70576
0
LINE
8
BLACK
6
CONTINUOUS
10
4.5701
20
-1.70576
11
4.5689
21
-1.71027
0
LINE
8
BLACK
6
CONTINUOUS
10
4.5689
20
-1.71027
11
4.5689
21
-1.7126
0
LINE
8
BLACK
6
CONTINUOUS
10
4.5689
20
-1.7126
11
4.5689
21
-2.3622
0
LINE
8
BLACK
6
CONTINUOUS
10
4.5689
20
-2.3622
11
4.5689
21
-2.36454
0
LINE
8
BLACK
6
CONTINUOUS
10
4.5689
20
-2.36454
11
4.5701
21
-2.36904
0
LINE
8
BLACK
6
CONTINUOUS
10
4.5701
20
-2.36904
11
4.57244
21
-2.37308
0
LINE
8
BLACK
6
CONTINUOUS
10
4.57244
20
-2.37308
11
4.57574
21
-2.37638
0
LINE
8
BLACK
6
CONTINUOUS
10
4.57574
20
-2.37638
11
4.57978
21
-2.37871
0
LINE
8
BLACK
6
CONTINUOUS
10
4.57978
20
-2.37871
11
4.58428
21
-2.37992
0
LINE
8
BLACK
6
CONTINUOUS
10
4.58428
20
-2.37992
11
4.58661
21
-2.37992
0
LINE
8
BLACK
6
CONTINUOUS
10
4.58661
20
-2.37992
11
4.66535
21
-2.37992
0
LINE
8
BLACK
6
CONTINUOUS
10
4.66535
20
-2.37992
11
4.66769
21
-2.37992
0
LINE
8
BLACK
6
CONTINUOUS
10
4.66769
20
-2.37992
11
4.67219
21
-2.37871
0
LINE
8
BLACK
6
CONTINUOUS
10
4.67219
20
-2.37871
11
4.67623
21
-2.37638
0
LINE
8
BLACK
6
CONTINUOUS
10
4.67623
20
-2.37638
11
4.67953
21
-2.37308
0
LINE
8
BLACK
6
CONTINUOUS
10
4.67953
20
-2.37308
11
4.68186
21
-2.36904
0
LINE
8
BLACK
6
CONTINUOUS
10
4.68186
20
-2.36904
11
4.68307
21
-2.36454
0
LINE
8
BLACK
6
CONTINUOUS
10
4.68307
20
-2.36454
11
4.68307
21
-2.3622
0
LINE
8
BLACK
6
CONTINUOUS
10
4.68307
20
-2.3622
11
4.68307
21
-2.3622
0
LINE
8
BLACK
6
CONTINUOUS
10
4.68307
20
-2.3622
11
4.68307
21
-1.7126
0
LINE
8
BLACK
6
CONTINUOUS
10
4.68307
20
-1.7126
11
4.68307
21
-1.71027
0
LINE
8
BLACK
6
CONTINUOUS
10
4.68307
20
-1.71027
11
4.68186
21
-1.70576
0
LINE
8
BLACK
6
CONTINUOUS
10
4.68186
20
-1.70576
11
4.67953
21
-1.70172
0
LINE
8
BLACK
6
CONTINUOUS
10
4.67953
20
-1.70172
11
4.67623
21
-1.69842
0
LINE
8
BLACK
6
CONTINUOUS
10
4.67623
20
-1.69842
11
4.67219
21
-1.69609
0
LINE
8
BLACK
6
CONTINUOUS
10
4.67219
20
-1.69609
11
4.66769
21
-1.69488
0
LINE
8
BLACK
6
CONTINUOUS
10
4.66769
20
-1.69488
11
4.66535
21
-1.69488
0
LINE
8
BLACK
6
CONTINUOUS
10
4.66535
20
-1.69488
11
4.58661
21
-1.69488
0
LINE
8
BLACK
6
CONTINUOUS
10
7.46063
20
-1.27756
11
7.48593
21
-1.2783
0
LINE
8
BLACK
6
CONTINUOUS
10
7.48593
20
-1.2783
11
7.51113
21
-1.2805
0
LINE
8
BLACK
6
CONTINUOUS
10
7.51113
20
-1.2805
11
7.53617
21
-1.28417
0
LINE
8
BLACK
6
CONTINUOUS
10
7.53617
20
-1.28417
11
7.56096
21
-1.28929
0
LINE
8
BLACK
6
CONTINUOUS
10
7.56096
20
-1.28929
11
7.5854
21
-1.29584
0
LINE
8
BLACK
6
CONTINUOUS
10
7.5854
20
-1.29584
11
7.60942
21
-1.3038
0
LINE
8
BLACK
6
CONTINUOUS
10
7.60942
20
-1.3038
11
7.63294
21
-1.31314
0
LINE
8
BLACK
6
CONTINUOUS
10
7.63294
20
-1.31314
11
7.65588
21
-1.32383
0
LINE
8
BLACK
6
CONTINUOUS
10
7.65588
20
-1.32383
11
7.67815
21
-1.33584
0
LINE
8
BLACK
6
CONTINUOUS
10
7.67815
20
-1.33584
11
7.69969
21
-1.34913
0
LINE
8
BLACK
6
CONTINUOUS
10
7.69969
20
-1.34913
11
7.72042
21
-1.36364
0
LINE
8
BLACK
6
CONTINUOUS
10
7.72042
20
-1.36364
11
7.74027
21
-1.37934
0
LINE
8
BLACK
6
CONTINUOUS
10
7.74027
20
-1.37934
11
7.75917
21
-1.39616
0
LINE
8
BLACK
6
CONTINUOUS
10
7.75917
20
-1.39616
11
7.77707
21
-1.41406
0
LINE
8
BLACK
6
CONTINUOUS
10
7.77707
20
-1.41406
11
7.79389
21
-1.43296
0
LINE
8
BLACK
6
CONTINUOUS
10
7.79389
20
-1.43296
11
7.80959
21
-1.45281
0
LINE
8
BLACK
6
CONTINUOUS
10
7.80959
20
-1.45281
11
7.8241
21
-1.47354
0
LINE
8
BLACK
6
CONTINUOUS
10
7.8241
20
-1.47354
11
7.83739
21
-1.49508
0
LINE
8
BLACK
6
CONTINUOUS
10
7.83739
20
-1.49508
11
7.8494
21
-1.51735
0
LINE
8
BLACK
6
CONTINUOUS
10
7.8494
20
-1.51735
11
7.86009
21
-1.54029
0
LINE
8
BLACK
6
CONTINUOUS
10
7.86009
20
-1.54029
11
7.86943
21
-1.56381
0
LINE
8
BLACK
6
CONTINUOUS
10
7.86943
20
-1.56381
11
7.87739
21
-1.58783
0
LINE
8
BLACK
6
CONTINUOUS
10
7.87739
20
-1.58783
11
7.88394
21
-1.61227
0
LINE
8
BLACK
6
CONTINUOUS
10
7.88394
20
-1.61227
11
7.88906
21
-1.63705
0
LINE
8
BLACK
6
CONTINUOUS
10
7.88906
20
-1.63705
11
7.89273
21
-1.66209
0
LINE
8
BLACK
6
CONTINUOUS
10
7.89273
20
-1.66209
11
7.89493
21
-1.6873
0
LINE
8
BLACK
6
CONTINUOUS
10
7.89493
20
-1.6873
11
7.89567
21
-1.7126
0
LINE
8
BLACK
6
CONTINUOUS
10
7.89567
20
-1.7126
11
7.89567
21
-1.7126
0
LINE
8
BLACK
6
CONTINUOUS
10
7.89567
20
-1.7126
11
7.89567
21
-3.01181
0
LINE
8
BLACK
6
CONTINUOUS
10
7.89567
20
-3.01181
11
7.89493
21
-3.03711
0
LINE
8
BLACK
6
CONTINUOUS
10
7.89493
20
-3.03711
11
7.89273
21
-3.06232
0
LINE
8
BLACK
6
CONTINUOUS
10
7.89273
20
-3.06232
11
7.88906
21
-3.08735
0
LINE
8
BLACK
6
CONTINUOUS
10
7.88906
20
-3.08735
11
7.88394
21
-3.11214
0
LINE
8
BLACK
6
CONTINUOUS
10
7.88394
20
-3.11214
11
7.87739
21
-3.13658
0
LINE
8
BLACK
6
CONTINUOUS
10
7.87739
20
-3.13658
11
7.86943
21
-3.1606
0
LINE
8
BLACK
6
CONTINUOUS
10
7.86943
20
-3.1606
11
7.86009
21
-3.18412
0
LINE
8
BLACK
6
CONTINUOUS
10
7.86009
20
-3.18412
11
7.8494
21
-3.20706
0
LINE
8
BLACK
6
CONTINUOUS
10
7.8494
20
-3.20706
11
7.83739
21
-3.22933
0
LINE
8
BLACK
6
CONTINUOUS
10
7.83739
20
-3.22933
11
7.8241
21
-3.25087
0
LINE
8
BLACK
6
CONTINUOUS
10
7.8241
20
-3.25087
11
7.80959
21
-3.2716
0
LINE
8
BLACK
6
CONTINUOUS
10
7.80959
20
-3.2716
11
7.79389
21
-3.29145
0
LINE
8
BLACK
6
CONTINUOUS
10
7.79389
20
-3.29145
11
7.77707
21
-3.31035
0
LINE
8
BLACK
6
CONTINUOUS
10
7.77707
20
-3.31035
11
7.75917
21
-3.32825
0
LINE
8
BLACK
6
CONTINUOUS
10
7.75917
20
-3.32825
11
7.74027
21
-3.34507
0
LINE
8
BLACK
6
CONTINUOUS
10
7.74027
20
-3.34507
11
7.72042
21
-3.36077
0
LINE
8
BLACK
6
CONTINUOUS
10
7.72042
20
-3.36077
11
7.69969
21
-3.37528
0
LINE
8
BLACK
6
CONTINUOUS
10
7.69969
20
-3.37528
11
7.67815
21
-3.38857
0
LINE
8
BLACK
6
CONTINUOUS
10
7.67815
20
-3.38857
11
7.65588
21
-3.40058
0
LINE
8
BLACK
6
CONTINUOUS
10
7.65588
20
-3.40058
11
7.63294
21
-3.41127
0
LINE
8
BLACK
6
CONTINUOUS
10
7.63294
20
-3.41127
11
7.60942
21
-3.42061
0
LINE
8
BLACK
6
CONTINUOUS
10
7.60942
20
-3.42061
11
7.5854
21
-3.42857
0
LINE
8
BLACK
6
CONTINUOUS
10
7.5854
20
-3.42857
11
7.56096
21
-3.43512
0
LINE
8
BLACK
6
CONTINUOUS
10
7.56096
20
-3.43512
11
7.53617
21
-3.44024
0
LINE
8
BLACK
6
CONTINUOUS
10
7.53617
20
-3.44024
11
7.51113
21
-3.44391
0
LINE
8
BLACK
6
CONTINUOUS
10
7.51113
20
-3.44391
11
7.48593
21
-3.44611
0
LINE
8
BLACK
6
CONTINUOUS
10
7.48593
20
-3.44611
11
7.46063
21
-3.44685
0
LINE
8
BLACK
6
CONTINUOUS
10
7.46063
20
-3.44685
11
5.80709
21
-3.44685
0
LINE
8
BLACK
6
CONTINUOUS
10
5.80709
20
-3.44685
11
5.80569
21
-3.44627
0
LINE
8
BLACK
6
CONTINUOUS
10
5.80569
20
-3.44627
11
5.80512
21
-3.44488
0
LINE
8
BLACK
6
CONTINUOUS
10
5.80512
20
-3.44488
11
5.80512
21
-2.75591
0
LINE
8
BLACK
6
CONTINUOUS
10
5.80512
20
-2.75591
11
5.80512
21
-2.75087
0
LINE
8
BLACK
6
CONTINUOUS
10
5.80512
20
-2.75087
11
5.8038
21
-2.7409
0
LINE
8
BLACK
6
CONTINUOUS
10
5.8038
20
-2.7409
11
5.8012
21
-2.73118
0
LINE
8
BLACK
6
CONTINUOUS
10
5.8012
20
-2.73118
11
5.79735
21
-2.72188
0
LINE
8
BLACK
6
CONTINUOUS
10
5.79735
20
-2.72188
11
5.79232
21
-2.71316
0
LINE
8
BLACK
6
CONTINUOUS
10
5.79232
20
-2.71316
11
5.78619
21
-2.70518
0
LINE
8
BLACK
6
CONTINUOUS
10
5.78619
20
-2.70518
11
5.77907
21
-2.69806
0
LINE
8
BLACK
6
CONTINUOUS
10
5.77907
20
-2.69806
11
5.77109
21
-2.69194
0
LINE
8
BLACK
6
CONTINUOUS
10
5.77109
20
-2.69194
11
5.76237
21
-2.6869
0
LINE
8
BLACK
6
CONTINUOUS
10
5.76237
20
-2.6869
11
5.75308
21
-2.68305
0
LINE
8
BLACK
6
CONTINUOUS
10
5.75308
20
-2.68305
11
5.74336
21
-2.68045
0
LINE
8
BLACK
6
CONTINUOUS
10
5.74336
20
-2.68045
11
5.73338
21
-2.67913
0
LINE
8
BLACK
6
CONTINUOUS
10
5.73338
20
-2.67913
11
5.72835
21
-2.67913
0
LINE
8
BLACK
6
CONTINUOUS
10
5.72835
20
-2.67913
11
4.92126
21
-2.67913
0
LINE
8
BLACK
6
CONTINUOUS
10
4.92126
20
-2.67913
11
4.91623
21
-2.67913
0
LINE
8
BLACK
6
CONTINUOUS
10
4.91623
20
-2.67913
11
4.90625
21
-2.68045
0
LINE
8
BLACK
6
CONTINUOUS
10
4.90625
20
-2.68045
11
4.89653
21
-2.68305
0
LINE
8
BLACK
6
CONTINUOUS
10
4.89653
20
-2.68305
11
4.88723
21
-2.6869
0
LINE
8
BLACK
6
CONTINUOUS
10
4.88723
20
-2.6869
11
4.87852
21
-2.69194
0
LINE
8
BLACK
6
CONTINUOUS
10
4.87852
20
-2.69194
11
4.87053
21
-2.69806
0
LINE
8
BLACK
6
CONTINUOUS
10
4.87053
20
-2.69806
11
4.86342
21
-2.70518
0
LINE
8
BLACK
6
CONTINUOUS
10
4.86342
20
-2.70518
11
4.85729
21
-2.71316
0
LINE
8
BLACK
6
CONTINUOUS
10
4.85729
20
-2.71316
11
4.85226
21
-2.72188
0
LINE
8
BLACK
6
CONTINUOUS
10
4.85226
20
-2.72188
11
4.84841
21
-2.73118
0
LINE
8
BLACK
6
CONTINUOUS
10
4.84841
20
-2.73118
11
4.8458
21
-2.7409
0
LINE
8
BLACK
6
CONTINUOUS
10
4.8458
20
-2.7409
11
4.84449
21
-2.75087
0
LINE
8
BLACK
6
CONTINUOUS
10
4.84449
20
-2.75087
11
4.84449
21
-2.75591
0
LINE
8
BLACK
6
CONTINUOUS
10
4.84449
20
-2.75591
11
4.84449
21
-3.44488
0
LINE
8
BLACK
6
CONTINUOUS
10
4.84449
20
-3.44488
11
4.84391
21
-3.44627
0
LINE
8
BLACK
6
CONTINUOUS
10
4.84391
20
-3.44627
11
4.84252
21
-3.44685
0
LINE
8
BLACK
6
CONTINUOUS
10
4.84252
20
-3.44685
11
4.78346
21
-3.44685
0
LINE
8
BLACK
6
CONTINUOUS
10
4.78346
20
-3.44685
11
4.75817
21
-3.44611
0
LINE
8
BLACK
6
CONTINUOUS
10
4.75817
20
-3.44611
11
4.73296
21
-3.44391
0
LINE
8
BLACK
6
CONTINUOUS
10
4.73296
20
-3.44391
11
4.70792
21
-3.44024
0
LINE
8
BLACK
6
CONTINUOUS
10
4.70792
20
-3.44024
11
4.68314
21
-3.43512
0
LINE
8
BLACK
6
CONTINUOUS
10
4.68314
20
-3.43512
11
4.65869
21
-3.42857
0
LINE
8
BLACK
6
CONTINUOUS
10
4.65869
20
-3.42857
11
4.63467
21
-3.42061
0
LINE
8
BLACK
6
CONTINUOUS
10
4.63467
20
-3.42061
11
4.61115
21
-3.41127
0
LINE
8
BLACK
6
CONTINUOUS
10
4.61115
20
-3.41127
11
4.58822
21
-3.40058
0
LINE
8
BLACK
6
CONTINUOUS
10
4.58822
20
-3.40058
11
4.56594
21
-3.38857
0
LINE
8
BLACK
6
CONTINUOUS
10
4.56594
20
-3.38857
11
4.54441
21
-3.37528
0
LINE
8
BLACK
6
CONTINUOUS
10
4.54441
20
-3.37528
11
4.52368
21
-3.36077
0
LINE
8
BLACK
6
CONTINUOUS
10
4.52368
20
-3.36077
11
4.50383
21
-3.34507
0
LINE
8
BLACK
6
CONTINUOUS
10
4.50383
20
-3.34507
11
4.48492
21
-3.32825
0
LINE
8
BLACK
6
CONTINUOUS
10
4.48492
20
-3.32825
11
4.46703
21
-3.31035
0
LINE
8
BLACK
6
CONTINUOUS
10
4.46703
20
-3.31035
11
4.45021
21
-3.29145
0
LINE
8
BLACK
6
CONTINUOUS
10
4.45021
20
-3.29145
11
4.43451
21
-3.2716
0
LINE
8
BLACK
6
CONTINUOUS
10
4.43451
20
-3.2716
11
4.41999
21
-3.25087
0
LINE
8
BLACK
6
CONTINUOUS
10
4.41999
20
-3.25087
11
4.40671
21
-3.22933
0
LINE
8
BLACK
6
CONTINUOUS
10
4.40671
20
-3.22933
11
4.3947
21
-3.20706
0
LINE
8
BLACK
6
CONTINUOUS
10
4.3947
20
-3.20706
11
4.384
21
-3.18412
0
LINE
8
BLACK
6
CONTINUOUS
10
4.384
20
-3.18412
11
4.37466
21
-3.1606
0
LINE
8
BLACK
6
CONTINUOUS
10
4.37466
20
-3.1606
11
4.3667
21
-3.13658
0
LINE
8
BLACK
6
CONTINUOUS
10
4.3667
20
-3.13658
11
4.36015
21
-3.11214
0
LINE
8
BLACK
6
CONTINUOUS
10
4.36015
20
-3.11214
11
4.35503
21
-3.08735
0
LINE
8
BLACK
6
CONTINUOUS
10
4.35503
20
-3.08735
11
4.35137
21
-3.06232
0
LINE
8
BLACK
6
CONTINUOUS
10
4.35137
20
-3.06232
11
4.34916
21
-3.03711
0
LINE
8
BLACK
6
CONTINUOUS
10
4.34916
20
-3.03711
11
4.34843
21
-3.01181
0
LINE
8
BLACK
6
CONTINUOUS
10
4.34843
20
-3.01181
11
4.34843
21
-3.01181
0
LINE
8
BLACK
6
CONTINUOUS
10
4.34843
20
-3.01181
11
4.34843
21
-1.7126
0
LINE
8
BLACK
6
CONTINUOUS
10
4.34843
20
-1.7126
11
4.34916
21
-1.6873
0
LINE
8
BLACK
6
CONTINUOUS
10
4.34916
20
-1.6873
11
4.35137
21
-1.66209
0
LINE
8
BLACK
6
CONTINUOUS
10
4.35137
20
-1.66209
11
4.35503
21
-1.63705
0
LINE
8
BLACK
6
CONTINUOUS
10
4.35503
20
-1.63705
11
4.36015
21
-1.61227
0
LINE
8
BLACK
6
CONTINUOUS
10
4.36015
20
-1.61227
11
4.3667
21
-1.58783
0
LINE
8
BLACK
6
CONTINUOUS
10
4.3667
20
-1.58783
11
4.37466
21
-1.56381
0
LINE
8
BLACK
6
CONTINUOUS
10
4.37466
20
-1.56381
11
4.384
21
-1.54029
0
LINE
8
BLACK
6
CONTINUOUS
10
4.384
20
-1.54029
11
4.3947
21
-1.51735
0
LINE
8
BLACK
6
CONTINUOUS
10
4.3947
20
-1.51735
11
4.40671
21
-1.49508
0
LINE
8
BLACK
6
CONTINUOUS
10
4.40671
20
-1.49508
11
4.41999
21
-1.47354
0
LINE
8
BLACK
6
CONTINUOUS
10
4.41999
20
-1.47354
11
4.43451
21
-1.45281
0
LINE
8
BLACK
6
CONTINUOUS
10
4.43451
20
-1.45281
11
4.45021
21
-1.43296
0
LINE
8
BLACK
6
CONTINUOUS
10
4.45021
20
-1.43296
11
4.46703
21
-1.41406
0
LINE
8
BLACK
6
CONTINUOUS
10
4.46703
20
-1.41406
11
4.48492
21
-1.39616
0
LINE
8
BLACK
6
CONTINUOUS
10
4.48492
20
-1.39616
11
4.50383
21
-1.37934
0
LINE
8
BLACK
6
CONTINUOUS
10
4.50383
20
-1.37934
11
4.52368
21
-1.36364
0
LINE
8
BLACK
6
CONTINUOUS
10
4.52368
20
-1.36364
11
4.54441
21
-1.34913
0
LINE
8
BLACK
6
CONTINUOUS
10
4.54441
20
-1.34913
11
4.56594
21
-1.33584
0
LINE
8
BLACK
6
CONTINUOUS
10
4.56594
20
-1.33584
11
4.58822
21
-1.32383
0
LINE
8
BLACK
6
CONTINUOUS
10
4.58822
20
-1.32383
11
4.61115
21
-1.31314
0
LINE
8
BLACK
6
CONTINUOUS
10
4.61115
20
-1.31314
11
4.63467
21
-1.3038
0
LINE
8
BLACK
6
CONTINUOUS
10
4.63467
20
-1.3038
11
4.65869
21
-1.29584
0
LINE
8
BLACK
6
CONTINUOUS
10
4.65869
20
-1.29584
11
4.68314
21
-1.28929
0
LINE
8
BLACK
6
CONTINUOUS
10
4.68314
20
-1.28929
11
4.70792
21
-1.28417
0
LINE
8
BLACK
6
CONTINUOUS
10
4.70792
20
-1.28417
11
4.73296
21
-1.2805
0
LINE
8
BLACK
6
CONTINUOUS
10
4.73296
20
-1.2805
11
4.75817
21
-1.2783
0
LINE
8
BLACK
6
CONTINUOUS
10
4.75817
20
-1.2783
11
4.78346
21
-1.27756
0
LINE
8
BLACK
6
CONTINUOUS
10
4.78346
20
-1.27756
11
7.46063
21
-1.27756
0
LINE
8
BLACK
6
CONTINUOUS
10
4.78346
20
-1.2815
11
4.77092
21
-1.2815
0
LINE
8
BLACK
6
CONTINUOUS
10
4.77092
20
-1.2815
11
4.74588
21
-1.28295
0
LINE
8
BLACK
6
CONTINUOUS
10
4.74588
20
-1.28295
11
4.72096
21
-1.28587
0
LINE
8
BLACK
6
CONTINUOUS
10
4.72096
20
-1.28587
11
4.69625
21
-1.29022
0
LINE
8
BLACK
6
CONTINUOUS
10
4.69625
20
-1.29022
11
4.67184
21
-1.29601
0
LINE
8
BLACK
6
CONTINUOUS
10
4.67184
20
-1.29601
11
4.64781
21
-1.3032
0
LINE
8
BLACK
6
CONTINUOUS
10
4.64781
20
-1.3032
11
4.62423
21
-1.31178
0
LINE
8
BLACK
6
CONTINUOUS
10
4.62423
20
-1.31178
11
4.6012
21
-1.32172
0
LINE
8
BLACK
6
CONTINUOUS
10
4.6012
20
-1.32172
11
4.57878
21
-1.33298
0
LINE
8
BLACK
6
CONTINUOUS
10
4.57878
20
-1.33298
11
4.55705
21
-1.34552
0
LINE
8
BLACK
6
CONTINUOUS
10
4.55705
20
-1.34552
11
4.53609
21
-1.35931
0
LINE
8
BLACK
6
CONTINUOUS
10
4.53609
20
-1.35931
11
4.51597
21
-1.37429
0
LINE
8
BLACK
6
CONTINUOUS
10
4.51597
20
-1.37429
11
4.49675
21
-1.39042
0
LINE
8
BLACK
6
CONTINUOUS
10
4.49675
20
-1.39042
11
4.4785
21
-1.40763
0
LINE
8
BLACK
6
CONTINUOUS
10
4.4785
20
-1.40763
11
4.46128
21
-1.42588
0
LINE
8
BLACK
6
CONTINUOUS
10
4.46128
20
-1.42588
11
4.44516
21
-1.4451
0
LINE
8
BLACK
6
CONTINUOUS
10
4.44516
20
-1.4451
11
4.43018
21
-1.46522
0
LINE
8
BLACK
6
CONTINUOUS
10
4.43018
20
-1.46522
11
4.41639
21
-1.48618
0
LINE
8
BLACK
6
CONTINUOUS
10
4.41639
20
-1.48618
11
4.40385
21
-1.50791
0
LINE
8
BLACK
6
CONTINUOUS
10
4.40385
20
-1.50791
11
4.39259
21
-1.53033
0
LINE
8
BLACK
6
CONTINUOUS
10
4.39259
20
-1.53033
11
4.38265
21
-1.55337
0
LINE
8
BLACK
6
CONTINUOUS
10
4.38265
20
-1.55337
11
4.37407
21
-1.57694
0
LINE
8
BLACK
6
CONTINUOUS
10
4.37407
20
-1.57694
11
4.36688
21
-1.60097
0
LINE
8
BLACK
6
CONTINUOUS
10
4.36688
20
-1.60097
11
4.36109
21
-1.62539
0
LINE
8
BLACK
6
CONTINUOUS
10
4.36109
20
-1.62539
11
4.35673
21
-1.65009
0
LINE
8
BLACK
6
CONTINUOUS
10
4.35673
20
-1.65009
11
4.35382
21
-1.67501
0
LINE
8
BLACK
6
CONTINUOUS
10
4.35382
20
-1.67501
11
4.35236
21
-1.70005
0
LINE
8
BLACK
6
CONTINUOUS
10
4.35236
20
-1.70005
11
4.35236
21
-1.7126
0
LINE
8
BLACK
6
CONTINUOUS
10
4.35236
20
-1.7126
11
4.35236
21
-1.7126
0
LINE
8
BLACK
6
CONTINUOUS
10
4.35236
20
-1.7126
11
4.35236
21
-3.01181
0
LINE
8
BLACK
6
CONTINUOUS
10
4.35236
20
-3.01181
11
4.35236
21
-3.02435
0
LINE
8
BLACK
6
CONTINUOUS
10
4.35236
20
-3.02435
11
4.35382
21
-3.0494
0
LINE
8
BLACK
6
CONTINUOUS
10
4.35382
20
-3.0494
11
4.35673
21
-3.07432
0
LINE
8
BLACK
6
CONTINUOUS
10
4.35673
20
-3.07432
11
4.36109
21
-3.09902
0
LINE
8
BLACK
6
CONTINUOUS
10
4.36109
20
-3.09902
11
4.36688
21
-3.12344
0
LINE
8
BLACK
6
CONTINUOUS
10
4.36688
20
-3.12344
11
4.37407
21
-3.14747
0
LINE
8
BLACK
6
CONTINUOUS
10
4.37407
20
-3.14747
11
4.38265
21
-3.17104
0
LINE
8
BLACK
6
CONTINUOUS
10
4.38265
20
-3.17104
11
4.39259
21
-3.19408
0
LINE
8
BLACK
6
CONTINUOUS
10
4.39259
20
-3.19408
11
4.40385
21
-3.2165
0
LINE
8
BLACK
6
CONTINUOUS
10
4.40385
20
-3.2165
11
4.41639
21
-3.23823
0
LINE
8
BLACK
6
CONTINUOUS
10
4.41639
20
-3.23823
11
4.43018
21
-3.25919
0
LINE
8
BLACK
6
CONTINUOUS
10
4.43018
20
-3.25919
11
4.44516
21
-3.27931
0
LINE
8
BLACK
6
CONTINUOUS
10
4.44516
20
-3.27931
11
4.46128
21
-3.29853
0
LINE
8
BLACK
6
CONTINUOUS
10
4.46128
20
-3.29853
11
4.4785
21
-3.31678
0
LINE
8
BLACK
6
CONTINUOUS
10
4.4785
20
-3.31678
11
4.49675
21
-3.33399
0
LINE
8
BLACK
6
CONTINUOUS
10
4.49675
20
-3.33399
11
4.51597
21
-3.35012
0
LINE
8
BLACK
6
CONTINUOUS
10
4.51597
20
-3.35012
11
4.53609
21
-3.3651
0
LINE
8
BLACK
6
CONTINUOUS
10
4.53609
20
-3.3651
11
4.55705
21
-3.37888
0
LINE
8
BLACK
6
CONTINUOUS
10
4.55705
20
-3.37888
11
4.57878
21
-3.39143
0
LINE
8
BLACK
6
CONTINUOUS
10
4.57878
20
-3.39143
11
4.6012
21
-3.40269
0
LINE
8
BLACK
6
CONTINUOUS
10
4.6012
20
-3.40269
11
4.62423
21
-3.41262
0
LINE
8
BLACK
6
CONTINUOUS
10
4.62423
20
-3.41262
11
4.64781
21
-3.4212
0
LINE
8
BLACK
6
CONTINUOUS
10
4.64781
20
-3.4212
11
4.67184
21
-3.4284
0
LINE
8
BLACK
6
CONTINUOUS
10
4.67184
20
-3.4284
11
4.69625
21
-3.43419
0
LINE
8
BLACK
6
CONTINUOUS
10
4.69625
20
-3.43419
11
4.72096
21
-3.43854
0
LINE
8
BLACK
6
CONTINUOUS
10
4.72096
20
-3.43854
11
4.74588
21
-3.44145
0
LINE
8
BLACK
6
CONTINUOUS
10
4.74588
20
-3.44145
11
4.77092
21
-3.44291
0
LINE
8
BLACK
6
CONTINUOUS
10
4.77092
20
-3.44291
11
4.78346
21
-3.44291
0
LINE
8
BLACK
6
CONTINUOUS
10
4.78346
20
-3.44291
11
4.84055
21
-3.44291
0
LINE
8
BLACK
6
CONTINUOUS
10
4.84055
20
-3.44291
11
4.84055
21
-2.75591
0
LINE
8
BLACK
6
CONTINUOUS
10
4.84055
20
-2.75591
11
4.84055
21
-2.75591
0
LINE
8
BLACK
6
CONTINUOUS
10
4.84055
20
-2.75591
11
4.84124
21
-2.74537
0
LINE
8
BLACK
6
CONTINUOUS
10
4.84124
20
-2.74537
11
4.8433
21
-2.73502
0
LINE
8
BLACK
6
CONTINUOUS
10
4.8433
20
-2.73502
11
4.84669
21
-2.72502
0
LINE
8
BLACK
6
CONTINUOUS
10
4.84669
20
-2.72502
11
4.85136
21
-2.71555
0
LINE
8
BLACK
6
CONTINUOUS
10
4.85136
20
-2.71555
11
4.85723
21
-2.70677
0
LINE
8
BLACK
6
CONTINUOUS
10
4.85723
20
-2.70677
11
4.86419
21
-2.69884
0
LINE
8
BLACK
6
CONTINUOUS
10
4.86419
20
-2.69884
11
4.87213
21
-2.69188
0
LINE
8
BLACK
6
CONTINUOUS
10
4.87213
20
-2.69188
11
4.88091
21
-2.68601
0
LINE
8
BLACK
6
CONTINUOUS
10
4.88091
20
-2.68601
11
4.89037
21
-2.68134
0
LINE
8
BLACK
6
CONTINUOUS
10
4.89037
20
-2.68134
11
4.90037
21
-2.67795
0
LINE
8
BLACK
6
CONTINUOUS
10
4.90037
20
-2.67795
11
4.91073
21
-2.67589
0
LINE
8
BLACK
6
CONTINUOUS
10
4.91073
20
-2.67589
11
4.92126
21
-2.6752
0
LINE
8
BLACK
6
CONTINUOUS
10
4.92126
20
-2.6752
11
5.72835
21
-2.6752
0
LINE
8
BLACK
6
CONTINUOUS
10
5.72835
20
-2.6752
11
5.73888
21
-2.67589
0
LINE
8
BLACK
6
CONTINUOUS
10
5.73888
20
-2.67589
11
5.74924
21
-2.67795
0
LINE
8
BLACK
6
CONTINUOUS
10
5.74924
20
-2.67795
11
5.75923
21
-2.68134
0
LINE
8
BLACK
6
CONTINUOUS
10
5.75923
20
-2.68134
11
5.7687
21
-2.68601
0
LINE
8
BLACK
6
CONTINUOUS
10
5.7687
20
-2.68601
11
5.77748
21
-2.69188
0
LINE
8
BLACK
6
CONTINUOUS
10
5.77748
20
-2.69188
11
5.78542
21
-2.69884
0
LINE
8
BLACK
6
CONTINUOUS
10
5.78542
20
-2.69884
11
5.79238
21
-2.70677
0
LINE
8
BLACK
6
CONTINUOUS
10
5.79238
20
-2.70677
11
5.79824
21
-2.71555
0
LINE
8
BLACK
6
CONTINUOUS
10
5.79824
20
-2.71555
11
5.80291
21
-2.72502
0
LINE
8
BLACK
6
CONTINUOUS
10
5.80291
20
-2.72502
11
5.80631
21
-2.73502
0
LINE
8
BLACK
6
CONTINUOUS
10
5.80631
20
-2.73502
11
5.80836
21
-2.74537
0
LINE
8
BLACK
6
CONTINUOUS
10
5.80836
20
-2.74537
11
5.80906
21
-2.75591
0
LINE
8
BLACK
6
CONTINUOUS
10
5.80906
20
-2.75591
11
5.80906
21
-3.44291
0
LINE
8
BLACK
6
CONTINUOUS
10
5.80906
20
-3.44291
11
7.46063
21
-3.44291
0
LINE
8
BLACK
6
CONTINUOUS
10
7.46063
20
-3.44291
11
7.47317
21
-3.44291
0
LINE
8
BLACK
6
CONTINUOUS
10
7.47317
20
-3.44291
11
7.49822
21
-3.44145
0
LINE
8
BLACK
6
CONTINUOUS
10
7.49822
20
-3.44145
11
7.52314
21
-3.43854
0
LINE
8
BLACK
6
CONTINUOUS
10
7.52314
20
-3.43854
11
7.54784
21
-3.43419
0
LINE
8
BLACK
6
CONTINUOUS
10
7.54784
20
-3.43419
11
7.57225
21
-3.4284
0
LINE
8
BLACK
6
CONTINUOUS
10
7.57225
20
-3.4284
11
7.59629
21
-3.4212
0
LINE
8
BLACK
6
CONTINUOUS
10
7.59629
20
-3.4212
11
7.61986
21
-3.41262
0
LINE
8
BLACK
6
CONTINUOUS
10
7.61986
20
-3.41262
11
7.6429
21
-3.40269
0
LINE
8
BLACK
6
CONTINUOUS
10
7.6429
20
-3.40269
11
7.66532
21
-3.39143
0
LINE
8
BLACK
6
CONTINUOUS
10
7.66532
20
-3.39143
11
7.68704
21
-3.37888
0
LINE
8
BLACK
6
CONTINUOUS
10
7.68704
20
-3.37888
11
7.708
21
-3.3651
0
LINE
8
BLACK
6
CONTINUOUS
10
7.708
20
-3.3651
11
7.72813
21
-3.35012
0
LINE
8
BLACK
6
CONTINUOUS
10
7.72813
20
-3.35012
11
7.74735
21
-3.33399
0
LINE
8
BLACK
6
CONTINUOUS
10
7.74735
20
-3.33399
11
7.76559
21
-3.31678
0
LINE
8
BLACK
6
CONTINUOUS
10
7.76559
20
-3.31678
11
7.78281
21
-3.29853
0
LINE
8
BLACK
6
CONTINUOUS
10
7.78281
20
-3.29853
11
7.79894
21
-3.27931
0
LINE
8
BLACK
6
CONTINUOUS
10
7.79894
20
-3.27931
11
7.81392
21
-3.25919
0
LINE
8
BLACK
6
CONTINUOUS
10
7.81392
20
-3.25919
11
7.8277
21
-3.23823
0
LINE
8
BLACK
6
CONTINUOUS
10
7.8277
20
-3.23823
11
7.84025
21
-3.2165
0
LINE
8
BLACK
6
CONTINUOUS
10
7.84025
20
-3.2165
11
7.85151
21
-3.19408
0
LINE
8
BLACK
6
CONTINUOUS
10
7.85151
20
-3.19408
11
7.86144
21
-3.17104
0
LINE
8
BLACK
6
CONTINUOUS
10
7.86144
20
-3.17104
11
7.87002
21
-3.14747
0
LINE
8
BLACK
6
CONTINUOUS
10
7.87002
20
-3.14747
11
7.87722
21
-3.12344
0
LINE
8
BLACK
6
CONTINUOUS
10
7.87722
20
-3.12344
11
7.883
21
-3.09902
0
LINE
8
BLACK
6
CONTINUOUS
10
7.883
20
-3.09902
11
7.88736
21
-3.07432
0
LINE
8
BLACK
6
CONTINUOUS
10
7.88736
20
-3.07432
11
7.89027
21
-3.0494
0
LINE
8
BLACK
6
CONTINUOUS
10
7.89027
20
-3.0494
11
7.89173
21
-3.02435
0
LINE
8
BLACK
6
CONTINUOUS
10
7.89173
20
-3.02435
11
7.89173
21
-3.01181
0
LINE
8
BLACK
6
CONTINUOUS
10
7.89173
20
-3.01181
11
7.89173
21
-3.01181
0
LINE
8
BLACK
6
CONTINUOUS
10
7.89173
20
-3.01181
11
7.89173
21
-1.7126
0
LINE
8
BLACK
6
CONTINUOUS
10
7.89173
20
-1.7126
11
7.89173
21
-1.7126
0
LINE
8
BLACK
6
CONTINUOUS
10
7.89173
20
-1.7126
11
7.89173
21
-1.70005
0
LINE
8
BLACK
6
CONTINUOUS
10
7.89173
20
-1.70005
11
7.89027
21
-1.67501
0
LINE
8
BLACK
6
CONTINUOUS
10
7.89027
20
-1.67501
11
7.88736
21
-1.65009
0
LINE
8
BLACK
6
CONTINUOUS
10
7.88736
20
-1.65009
11
7.883
21
-1.62539
0
LINE
8
BLACK
6
CONTINUOUS
10
7.883
20
-1.62539
11
7.87722
21
-1.60097
0
LINE
8
BLACK
6
CONTINUOUS
10
7.87722
20
-1.60097
11
7.87002
21
-1.57694
0
LINE
8
BLACK
6
CONTINUOUS
10
7.87002
20
-1.57694
11
7.86144
21
-1.55337
0
LINE
8
BLACK
6
CONTINUOUS
10
7.86144
20
-1.55337
11
7.85151
21
-1.53033
0
LINE
8
BLACK
6
CONTINUOUS
10
7.85151
20
-1.53033
11
7.84025
21
-1.50791
0
LINE
8
BLACK
6
CONTINUOUS
10
7.84025
20
-1.50791
11
7.8277
21
-1.48618
0
LINE
8
BLACK
6
CONTINUOUS
10
7.8277
20
-1.48618
11
7.81392
21
-1.46522
0
LINE
8
BLACK
6
CONTINUOUS
10
7.81392
20
-1.46522
11
7.79894
21
-1.4451
0
LINE
8
BLACK
6
CONTINUOUS
10
7.79894
20
-1.4451
11
7.78281
21
-1.42588
0
LINE
8
BLACK
6
CONTINUOUS
10
7.78281
20
-1.42588
11
7.76559
21
-1.40763
0
LINE
8
BLACK
6
CONTINUOUS
10
7.76559
20
-1.40763
11
7.74735
21
-1.39042
0
LINE
8
BLACK
6
CONTINUOUS
10
7.74735
20
-1.39042
11
7.72813
21
-1.37429
0
LINE
8
BLACK
6
CONTINUOUS
10
7.72813
20
-1.37429
11
7.708
21
-1.35931
0
LINE
8
BLACK
6
CONTINUOUS
10
7.708
20
-1.35931
11
7.68704
21
-1.34552
0
LINE
8
BLACK
6
CONTINUOUS
10
7.68704
20
-1.34552
11
7.66532
21
-1.33298
0
LINE
8
BLACK
6
CONTINUOUS
10
7.66532
20
-1.33298
11
7.6429
21
-1.32172
0
LINE
8
BLACK
6
CONTINUOUS
10
7.6429
20
-1.32172
11
7.61986
21
-1.31178
0
LINE
8
BLACK
6
CONTINUOUS
10
7.61986
20
-1.31178
11
7.59629
21
-1.3032
0
LINE
8
BLACK
6
CONTINUOUS
10
7.59629
20
-1.3032
11
7.57225
21
-1.29601
0
LINE
8
BLACK
6
CONTINUOUS
10
7.57225
20
-1.29601
11
7.54784
21
-1.29022
0
LINE
8
BLACK
6
CONTINUOUS
10
7.54784
20
-1.29022
11
7.52314
21
-1.28587
0
LINE
8
BLACK
6
CONTINUOUS
10
7.52314
20
-1.28587
11
7.49822
21
-1.28295
0
LINE
8
BLACK
6
CONTINUOUS
10
7.49822
20
-1.28295
11
7.47317
21
-1.2815
0
LINE
8
BLACK
6
CONTINUOUS
10
7.47317
20
-1.2815
11
7.46063
21
-1.2815
0
LINE
8
BLACK
6
CONTINUOUS
10
7.46063
20
-1.2815
11
4.78346
21
-1.2815
  0
ENDSEC
  0
EOF
