M48
; DRILL file {KiCad 7.0.7} date Sat Sep  9 23:22:37 2023
; FORMAT={-:-/ absolute / metric / decimal}
; #@! TF.CreationDate,2023-09-09T23:22:37-07:00
; #@! TF.GenerationSoftware,Kicad,Pcbnew,7.0.7
; #@! TF.FileFunction,MixedPlating,1,4
FMAT,2
METRIC
; #@! TA.AperFunction,Plated,PTH,ViaDrill
T1C0.200
; #@! TA.AperFunction,Plated,PTH,ComponentDrill
T2C0.200
; #@! TA.AperFunction,Plated,PTH,ViaDrill
T3C0.400
; #@! TA.AperFunction,Plated,PTH,ComponentDrill
T4C0.700
; #@! TA.AperFunction,Plated,PTH,ComponentDrill
T5C0.750
; #@! TA.AperFunction,NonPlated,NPTH,ComponentDrill
T6C0.580
; #@! TA.AperFunction,NonPlated,NPTH,ComponentDrill
T7C0.660
; #@! TA.AperFunction,NonPlated,NPTH,ComponentDrill
T8C2.700
%
G90
G05
T1
X113.2Y-69.6
X114.8Y-68.925
X114.8Y-69.575
X118.785Y-70.248
X119.1Y-68.9
X119.1Y-69.6
X119.9Y-68.0
X124.886Y-51.798
X124.898Y-50.498
X124.917Y-51.149
X125.018Y-52.434
X125.861Y-52.261
X126.321Y-52.724
X128.3Y-56.3
X131.4Y-56.3
X131.6Y-52.8
X132.4Y-56.3
X134.4Y-53.274
X137.9Y-61.3
X139.005Y-62.0
X139.5Y-39.9
X139.5Y-52.8
X141.1Y-62.4
X143.486Y-61.274
X146.751Y-53.3
X146.8Y-62.7
X147.225Y-52.557
X147.6Y-52.0
X147.7Y-56.4
X147.7Y-57.05
X148.3Y-47.8
X148.516Y-64.538
X148.9Y-66.4
X148.976Y-64.998
X149.57Y-47.77
X149.7Y-46.4
X150.03Y-48.23
X150.1Y-55.5
X150.3Y-65.0
X152.16Y-64.94
X153.1Y-65.7
X153.9Y-63.8
X155.6Y-61.1
X156.1Y-67.5
X156.1Y-78.0
X156.25Y-61.1
X156.4Y-53.4
X156.4Y-57.0
X156.575Y-78.5
X156.6Y-68.0
X156.899Y-61.098
X157.535Y-60.967
X157.8Y-54.5
X157.8Y-55.5
X157.8Y-56.2
X158.0Y-52.0
X158.4Y-59.2
X158.4Y-60.0
X158.4Y-60.8
X158.5Y-54.5
X158.7Y-53.4
X158.7Y-57.0
X158.8Y-62.5
X159.3Y-51.999
X159.4Y-67.025
X159.75Y-63.45
X160.15Y-64.6
X160.4Y-65.6
X161.0Y-54.0
X161.0Y-55.0
X161.0Y-56.0
X161.0Y-57.0
X161.0Y-58.0
X161.07Y-48.03
X161.1Y-62.0
X161.4Y-46.3
X161.53Y-47.57
X162.0Y-54.0
X162.0Y-58.0
X162.1Y-62.9
X162.368Y-60.801
X162.8Y-47.7
X162.8Y-51.325
X163.0Y-48.8
X163.0Y-54.0
X163.0Y-58.0
X163.018Y-60.782
X163.483Y-51.308
X164.0Y-48.8
X164.0Y-54.0
X164.0Y-58.0
X165.0Y-54.0
X165.0Y-55.0
X165.0Y-56.0
X165.0Y-57.0
X165.0Y-58.0
X165.4Y-69.8
X166.571Y-59.941
X166.579Y-60.621
X166.586Y-61.298
X167.3Y-53.0
X167.336Y-57.055
X167.599Y-60.299
X167.624Y-59.65
X167.7Y-49.1
X167.874Y-59.05
X167.9Y-46.1
X167.9Y-47.3
X168.1Y-68.6
X168.2Y-55.9
X168.3Y-58.549
X169.0Y-58.075
X169.7Y-53.0
X169.7Y-57.0
X170.025Y-56.438
X170.2Y-67.974
X170.613Y-54.344
X170.7Y-67.5
X170.725Y-53.0
X170.725Y-53.705
X170.826Y-51.974
X171.2Y-76.25
X171.393Y-61.248
X171.4Y-46.1
X171.508Y-51.984
X171.611Y-56.39
X171.8Y-44.5
X171.9Y-60.274
X172.0Y-68.7
X172.0Y-69.5
X172.003Y-60.916
X172.157Y-51.994
X172.21Y-59.18
X172.6Y-59.7
X172.8Y-51.9
X173.16Y-55.8
X173.2Y-71.7
X174.3Y-61.3
X174.3Y-67.7
X174.3Y-80.7
X174.9Y-47.3
X174.9Y-49.1
X175.0Y-46.1
X176.2Y-46.6
X176.4Y-65.3
X177.4Y-57.6
X182.8Y-65.3
X184.0Y-35.0
X185.08Y-55.091
X185.425Y-54.54
X185.9Y-54.0
X186.5Y-56.3
X186.5Y-58.7
X186.5Y-63.3
X186.5Y-65.7
X186.5Y-70.3
X186.5Y-72.7
X187.3Y-38.0
X189.6Y-44.7
T2
X182.545Y-41.7
X182.545Y-43.0
X182.545Y-44.3
X184.455Y-41.7
X184.455Y-43.0
X184.455Y-44.3
T3
X112.3Y-71.4
X114.9Y-61.7
X118.8Y-61.7
X119.7Y-70.5
X120.6Y-66.9
X121.3Y-64.6
X122.3Y-63.3
X124.736Y-36.936
X125.4Y-39.8
X125.5Y-66.8
X125.7Y-63.0
X125.8Y-36.825
X126.2Y-48.7
X126.2Y-49.8
X126.4Y-66.8
X126.43Y-53.517
X126.7Y-63.0
X130.7Y-52.9
X132.4Y-45.5
X132.5Y-42.5
X132.5Y-50.0
X133.6Y-47.0
X135.5Y-45.7
X136.8Y-48.3
X140.0Y-63.8
X142.5Y-63.8
X143.0Y-45.5
X143.9Y-41.4
X143.9Y-42.5
X143.9Y-43.6
X144.4Y-45.1
X145.7Y-47.8
X145.9Y-50.0
X148.3Y-81.5
X148.3Y-82.8
X148.3Y-84.1
X151.0Y-57.7
X152.3Y-59.0
X152.6Y-52.9
X154.8Y-42.1
X154.9Y-40.5
X156.0Y-43.1
X156.8Y-49.2
X157.9Y-84.9
X158.2Y-70.2
X158.2Y-73.3
X158.9Y-41.5
X159.0Y-77.6
X159.1Y-70.2
X159.2Y-73.3
X162.8Y-73.3
X163.5Y-43.3
X163.5Y-65.4
X163.7Y-73.3
X164.2Y-84.9
X164.6Y-70.4
X164.6Y-71.3
X165.0Y-75.8
X165.7Y-44.5
X165.9Y-75.8
X168.1Y-38.5
X168.4Y-44.5
X168.6Y-71.0
X169.0Y-35.5
X169.0Y-36.5
X169.5Y-62.6
X170.063Y-52.211
X170.2Y-48.0
X170.5Y-35.5
X170.5Y-36.5
X170.5Y-71.0
X172.1Y-50.0
X172.3Y-74.7
X172.627Y-62.1
X175.1Y-50.0
X175.2Y-71.7
X175.2Y-82.2
X175.6Y-41.0
X176.5Y-69.0
X176.9Y-41.9
X176.9Y-53.1
X178.4Y-71.7
X178.5Y-51.0
X178.5Y-82.2
X178.8Y-45.3
X179.4Y-42.4
X179.4Y-43.6
X181.6Y-79.7
X181.6Y-83.3
X182.5Y-69.0
X182.9Y-50.6
X184.9Y-52.0
X185.4Y-76.9
X185.4Y-79.7
X185.4Y-83.3
X185.4Y-86.0
X186.2Y-39.5
X186.3Y-46.1
X187.0Y-54.5
X187.0Y-61.5
X187.0Y-68.5
X188.1Y-44.7
X196.0Y-54.5
X196.0Y-61.5
X196.0Y-68.5
X197.1Y-48.2
X197.1Y-62.3
T4
X114.685Y-66.85
X114.685Y-71.65
X118.985Y-66.85
X118.985Y-71.65
T5
X194.0Y-46.5
X196.0Y-46.5
T7
X116.835Y-73.0
T8
X117.0Y-39.0
X117.0Y-81.0
X194.0Y-39.0
X194.0Y-81.0
T6
G00X116.835Y-65.71
M15
G01X116.835Y-65.29
M16
G05
T0
M30
