%TF.GenerationSoftware,KiCad,Pcbnew,7.0.7*%
%TF.CreationDate,2023-09-09T23:22:34-07:00*%
%TF.ProjectId,gshps,67736870-732e-46b6-9963-61645f706362,rev?*%
%TF.SameCoordinates,Original*%
%TF.FileFunction,Paste,Top*%
%TF.FilePolarity,Positive*%
%FSLAX46Y46*%
G04 Gerber Fmt 4.6, Leading zero omitted, Abs format (unit mm)*
G04 Created by KiCad (PCBNEW 7.0.7) date 2023-09-09 23:22:34*
%MOMM*%
%LPD*%
G01*
G04 APERTURE LIST*
G04 Aperture macros list*
%AMRoundRect*
0 Rectangle with rounded corners*
0 $1 Rounding radius*
0 $2 $3 $4 $5 $6 $7 $8 $9 X,Y pos of 4 corners*
0 Add a 4 corners polygon primitive as box body*
4,1,4,$2,$3,$4,$5,$6,$7,$8,$9,$2,$3,0*
0 Add four circle primitives for the rounded corners*
1,1,$1+$1,$2,$3*
1,1,$1+$1,$4,$5*
1,1,$1+$1,$6,$7*
1,1,$1+$1,$8,$9*
0 Add four rect primitives between the rounded corners*
20,1,$1+$1,$2,$3,$4,$5,0*
20,1,$1+$1,$4,$5,$6,$7,0*
20,1,$1+$1,$6,$7,$8,$9,0*
20,1,$1+$1,$8,$9,$2,$3,0*%
G04 Aperture macros list end*
%ADD10RoundRect,0.140000X-0.140000X-0.170000X0.140000X-0.170000X0.140000X0.170000X-0.140000X0.170000X0*%
%ADD11R,1.700000X1.000000*%
%ADD12R,0.850000X0.300000*%
%ADD13C,1.100000*%
%ADD14RoundRect,0.218750X-0.256250X0.218750X-0.256250X-0.218750X0.256250X-0.218750X0.256250X0.218750X0*%
%ADD15R,1.000000X0.700000*%
%ADD16R,0.600000X0.700000*%
%ADD17RoundRect,0.218750X0.256250X-0.218750X0.256250X0.218750X-0.256250X0.218750X-0.256250X-0.218750X0*%
%ADD18R,1.000000X1.700000*%
%ADD19R,2.000000X1.000000*%
G04 APERTURE END LIST*
D10*
%TO.C,C34*%
X140720000Y-63800000D03*
X141680000Y-63800000D03*
%TD*%
D11*
%TO.C,SW6*%
X188350000Y-68600000D03*
X194650000Y-68600000D03*
X188350000Y-72400000D03*
X194650000Y-72400000D03*
%TD*%
D12*
%TO.C,J2*%
X116000000Y-72000000D03*
X116000000Y-71500000D03*
X116000000Y-71000000D03*
X116000000Y-70500000D03*
X116000000Y-70000000D03*
X116000000Y-69500000D03*
X116000000Y-69000000D03*
X116000000Y-68500000D03*
X116000000Y-68000000D03*
X116000000Y-67500000D03*
X116000000Y-67000000D03*
X116000000Y-66500000D03*
X117670000Y-66500000D03*
X117670000Y-67000000D03*
X117670000Y-67500000D03*
X117670000Y-68000000D03*
X117670000Y-68500000D03*
X117670000Y-69000000D03*
X117670000Y-69500000D03*
X117670000Y-70000000D03*
X117670000Y-70500000D03*
X117670000Y-71000000D03*
X117670000Y-71500000D03*
X117670000Y-72000000D03*
D13*
X114685000Y-71650000D03*
X118985000Y-71650000D03*
X114685000Y-66850000D03*
X118985000Y-66850000D03*
%TD*%
D11*
%TO.C,SW5*%
X188350000Y-61600000D03*
X194650000Y-61600000D03*
X188350000Y-65400000D03*
X194650000Y-65400000D03*
%TD*%
%TO.C,SW4*%
X188350000Y-54600000D03*
X194650000Y-54600000D03*
X188350000Y-58400000D03*
X194650000Y-58400000D03*
%TD*%
D14*
%TO.C,D1*%
X116000000Y-61712500D03*
X116000000Y-63287500D03*
%TD*%
D15*
%TO.C,CR1*%
X126200000Y-64000000D03*
D16*
X124500000Y-64000000D03*
X124500000Y-66000000D03*
X126400000Y-66000000D03*
%TD*%
D17*
%TO.C,D5*%
X184000000Y-37787500D03*
X184000000Y-36212500D03*
%TD*%
D14*
%TO.C,D2*%
X117600000Y-61712500D03*
X117600000Y-63287500D03*
%TD*%
D18*
%TO.C,SW1*%
X185400000Y-78350000D03*
X185400000Y-84650000D03*
X181600000Y-78350000D03*
X181600000Y-84650000D03*
%TD*%
D19*
%TO.C,U5*%
X161200000Y-70250000D03*
X161200000Y-71750000D03*
X161200000Y-73250000D03*
X161200000Y-74750000D03*
X161200000Y-76250000D03*
X161200000Y-77750000D03*
X161200000Y-79250000D03*
X161200000Y-80750000D03*
X161200000Y-82250000D03*
X161200000Y-83750000D03*
X176800000Y-83750000D03*
X176800000Y-82250000D03*
X176800000Y-80750000D03*
X176800000Y-79250000D03*
X176800000Y-77750000D03*
X176800000Y-76250000D03*
X176800000Y-74750000D03*
X176800000Y-73250000D03*
X176800000Y-71750000D03*
X176800000Y-70250000D03*
%TD*%
M02*
