%TF.GenerationSoftware,KiCad,Pcbnew,7.0.7*%
%TF.CreationDate,2023-09-15T21:11:31-07:00*%
%TF.ProjectId,gshps,67736870-732e-46b6-9963-61645f706362,A*%
%TF.SameCoordinates,Original*%
%TF.FileFunction,Legend,Top*%
%TF.FilePolarity,Positive*%
%FSLAX46Y46*%
G04 Gerber Fmt 4.6, Leading zero omitted, Abs format (unit mm)*
G04 Created by KiCad (PCBNEW 7.0.7) date 2023-09-15 21:11:31*
%MOMM*%
%LPD*%
G01*
G04 APERTURE LIST*
%ADD10C,0.100000*%
%ADD11C,0.150000*%
%ADD12C,0.300000*%
%ADD13C,0.400000*%
%ADD14C,0.200000*%
%ADD15C,0.120000*%
G04 APERTURE END LIST*
D10*
D11*
X159400000Y-171900000D02*
X267400000Y-171900000D01*
X267400000Y-203900000D01*
X159400000Y-203900000D01*
X159400000Y-171900000D01*
D10*
D11*
X10000000Y-10000000D02*
X269400000Y-10000000D01*
X269400000Y-205900000D01*
X10000000Y-205900000D01*
X10000000Y-10000000D01*
D10*
D11*
X12000000Y-12000000D02*
X267400000Y-12000000D01*
X267400000Y-203900000D01*
X12000000Y-203900000D01*
X12000000Y-12000000D01*
D10*
D11*
X60000000Y-12000000D02*
X60000000Y-10000000D01*
D10*
D11*
X110000000Y-12000000D02*
X110000000Y-10000000D01*
D10*
D11*
X160000000Y-12000000D02*
X160000000Y-10000000D01*
D10*
D11*
X210000000Y-12000000D02*
X210000000Y-10000000D01*
D10*
D11*
X260000000Y-12000000D02*
X260000000Y-10000000D01*
D10*
D11*
X36089160Y-11593604D02*
X35346303Y-11593604D01*
X35717731Y-11593604D02*
X35717731Y-10293604D01*
X35717731Y-10293604D02*
X35593922Y-10479319D01*
X35593922Y-10479319D02*
X35470112Y-10603128D01*
X35470112Y-10603128D02*
X35346303Y-10665033D01*
D10*
D11*
X85346303Y-10417414D02*
X85408207Y-10355509D01*
X85408207Y-10355509D02*
X85532017Y-10293604D01*
X85532017Y-10293604D02*
X85841541Y-10293604D01*
X85841541Y-10293604D02*
X85965350Y-10355509D01*
X85965350Y-10355509D02*
X86027255Y-10417414D01*
X86027255Y-10417414D02*
X86089160Y-10541223D01*
X86089160Y-10541223D02*
X86089160Y-10665033D01*
X86089160Y-10665033D02*
X86027255Y-10850747D01*
X86027255Y-10850747D02*
X85284398Y-11593604D01*
X85284398Y-11593604D02*
X86089160Y-11593604D01*
D10*
D11*
X135284398Y-10293604D02*
X136089160Y-10293604D01*
X136089160Y-10293604D02*
X135655826Y-10788842D01*
X135655826Y-10788842D02*
X135841541Y-10788842D01*
X135841541Y-10788842D02*
X135965350Y-10850747D01*
X135965350Y-10850747D02*
X136027255Y-10912652D01*
X136027255Y-10912652D02*
X136089160Y-11036461D01*
X136089160Y-11036461D02*
X136089160Y-11345985D01*
X136089160Y-11345985D02*
X136027255Y-11469795D01*
X136027255Y-11469795D02*
X135965350Y-11531700D01*
X135965350Y-11531700D02*
X135841541Y-11593604D01*
X135841541Y-11593604D02*
X135470112Y-11593604D01*
X135470112Y-11593604D02*
X135346303Y-11531700D01*
X135346303Y-11531700D02*
X135284398Y-11469795D01*
D10*
D11*
X185965350Y-10726938D02*
X185965350Y-11593604D01*
X185655826Y-10231700D02*
X185346303Y-11160271D01*
X185346303Y-11160271D02*
X186151064Y-11160271D01*
D10*
D11*
X236027255Y-10293604D02*
X235408207Y-10293604D01*
X235408207Y-10293604D02*
X235346303Y-10912652D01*
X235346303Y-10912652D02*
X235408207Y-10850747D01*
X235408207Y-10850747D02*
X235532017Y-10788842D01*
X235532017Y-10788842D02*
X235841541Y-10788842D01*
X235841541Y-10788842D02*
X235965350Y-10850747D01*
X235965350Y-10850747D02*
X236027255Y-10912652D01*
X236027255Y-10912652D02*
X236089160Y-11036461D01*
X236089160Y-11036461D02*
X236089160Y-11345985D01*
X236089160Y-11345985D02*
X236027255Y-11469795D01*
X236027255Y-11469795D02*
X235965350Y-11531700D01*
X235965350Y-11531700D02*
X235841541Y-11593604D01*
X235841541Y-11593604D02*
X235532017Y-11593604D01*
X235532017Y-11593604D02*
X235408207Y-11531700D01*
X235408207Y-11531700D02*
X235346303Y-11469795D01*
D10*
D11*
X60000000Y-203900000D02*
X60000000Y-205900000D01*
D10*
D11*
X110000000Y-203900000D02*
X110000000Y-205900000D01*
D10*
D11*
X160000000Y-203900000D02*
X160000000Y-205900000D01*
D10*
D11*
X210000000Y-203900000D02*
X210000000Y-205900000D01*
D10*
D11*
X260000000Y-203900000D02*
X260000000Y-205900000D01*
D10*
D11*
X36089160Y-205493604D02*
X35346303Y-205493604D01*
X35717731Y-205493604D02*
X35717731Y-204193604D01*
X35717731Y-204193604D02*
X35593922Y-204379319D01*
X35593922Y-204379319D02*
X35470112Y-204503128D01*
X35470112Y-204503128D02*
X35346303Y-204565033D01*
D10*
D11*
X85346303Y-204317414D02*
X85408207Y-204255509D01*
X85408207Y-204255509D02*
X85532017Y-204193604D01*
X85532017Y-204193604D02*
X85841541Y-204193604D01*
X85841541Y-204193604D02*
X85965350Y-204255509D01*
X85965350Y-204255509D02*
X86027255Y-204317414D01*
X86027255Y-204317414D02*
X86089160Y-204441223D01*
X86089160Y-204441223D02*
X86089160Y-204565033D01*
X86089160Y-204565033D02*
X86027255Y-204750747D01*
X86027255Y-204750747D02*
X85284398Y-205493604D01*
X85284398Y-205493604D02*
X86089160Y-205493604D01*
D10*
D11*
X135284398Y-204193604D02*
X136089160Y-204193604D01*
X136089160Y-204193604D02*
X135655826Y-204688842D01*
X135655826Y-204688842D02*
X135841541Y-204688842D01*
X135841541Y-204688842D02*
X135965350Y-204750747D01*
X135965350Y-204750747D02*
X136027255Y-204812652D01*
X136027255Y-204812652D02*
X136089160Y-204936461D01*
X136089160Y-204936461D02*
X136089160Y-205245985D01*
X136089160Y-205245985D02*
X136027255Y-205369795D01*
X136027255Y-205369795D02*
X135965350Y-205431700D01*
X135965350Y-205431700D02*
X135841541Y-205493604D01*
X135841541Y-205493604D02*
X135470112Y-205493604D01*
X135470112Y-205493604D02*
X135346303Y-205431700D01*
X135346303Y-205431700D02*
X135284398Y-205369795D01*
D10*
D11*
X185965350Y-204626938D02*
X185965350Y-205493604D01*
X185655826Y-204131700D02*
X185346303Y-205060271D01*
X185346303Y-205060271D02*
X186151064Y-205060271D01*
D10*
D11*
X236027255Y-204193604D02*
X235408207Y-204193604D01*
X235408207Y-204193604D02*
X235346303Y-204812652D01*
X235346303Y-204812652D02*
X235408207Y-204750747D01*
X235408207Y-204750747D02*
X235532017Y-204688842D01*
X235532017Y-204688842D02*
X235841541Y-204688842D01*
X235841541Y-204688842D02*
X235965350Y-204750747D01*
X235965350Y-204750747D02*
X236027255Y-204812652D01*
X236027255Y-204812652D02*
X236089160Y-204936461D01*
X236089160Y-204936461D02*
X236089160Y-205245985D01*
X236089160Y-205245985D02*
X236027255Y-205369795D01*
X236027255Y-205369795D02*
X235965350Y-205431700D01*
X235965350Y-205431700D02*
X235841541Y-205493604D01*
X235841541Y-205493604D02*
X235532017Y-205493604D01*
X235532017Y-205493604D02*
X235408207Y-205431700D01*
X235408207Y-205431700D02*
X235346303Y-205369795D01*
D10*
D11*
X10000000Y-60000000D02*
X12000000Y-60000000D01*
D10*
D11*
X10000000Y-110000000D02*
X12000000Y-110000000D01*
D10*
D11*
X10000000Y-160000000D02*
X12000000Y-160000000D01*
D10*
D11*
X10690476Y-35222176D02*
X11309523Y-35222176D01*
X10566666Y-35593604D02*
X10999999Y-34293604D01*
X10999999Y-34293604D02*
X11433333Y-35593604D01*
D10*
D11*
X11092857Y-84912652D02*
X11278571Y-84974557D01*
X11278571Y-84974557D02*
X11340476Y-85036461D01*
X11340476Y-85036461D02*
X11402380Y-85160271D01*
X11402380Y-85160271D02*
X11402380Y-85345985D01*
X11402380Y-85345985D02*
X11340476Y-85469795D01*
X11340476Y-85469795D02*
X11278571Y-85531700D01*
X11278571Y-85531700D02*
X11154761Y-85593604D01*
X11154761Y-85593604D02*
X10659523Y-85593604D01*
X10659523Y-85593604D02*
X10659523Y-84293604D01*
X10659523Y-84293604D02*
X11092857Y-84293604D01*
X11092857Y-84293604D02*
X11216666Y-84355509D01*
X11216666Y-84355509D02*
X11278571Y-84417414D01*
X11278571Y-84417414D02*
X11340476Y-84541223D01*
X11340476Y-84541223D02*
X11340476Y-84665033D01*
X11340476Y-84665033D02*
X11278571Y-84788842D01*
X11278571Y-84788842D02*
X11216666Y-84850747D01*
X11216666Y-84850747D02*
X11092857Y-84912652D01*
X11092857Y-84912652D02*
X10659523Y-84912652D01*
D10*
D11*
X11402380Y-135469795D02*
X11340476Y-135531700D01*
X11340476Y-135531700D02*
X11154761Y-135593604D01*
X11154761Y-135593604D02*
X11030952Y-135593604D01*
X11030952Y-135593604D02*
X10845238Y-135531700D01*
X10845238Y-135531700D02*
X10721428Y-135407890D01*
X10721428Y-135407890D02*
X10659523Y-135284080D01*
X10659523Y-135284080D02*
X10597619Y-135036461D01*
X10597619Y-135036461D02*
X10597619Y-134850747D01*
X10597619Y-134850747D02*
X10659523Y-134603128D01*
X10659523Y-134603128D02*
X10721428Y-134479319D01*
X10721428Y-134479319D02*
X10845238Y-134355509D01*
X10845238Y-134355509D02*
X11030952Y-134293604D01*
X11030952Y-134293604D02*
X11154761Y-134293604D01*
X11154761Y-134293604D02*
X11340476Y-134355509D01*
X11340476Y-134355509D02*
X11402380Y-134417414D01*
D10*
D11*
X10659523Y-185593604D02*
X10659523Y-184293604D01*
X10659523Y-184293604D02*
X10969047Y-184293604D01*
X10969047Y-184293604D02*
X11154761Y-184355509D01*
X11154761Y-184355509D02*
X11278571Y-184479319D01*
X11278571Y-184479319D02*
X11340476Y-184603128D01*
X11340476Y-184603128D02*
X11402380Y-184850747D01*
X11402380Y-184850747D02*
X11402380Y-185036461D01*
X11402380Y-185036461D02*
X11340476Y-185284080D01*
X11340476Y-185284080D02*
X11278571Y-185407890D01*
X11278571Y-185407890D02*
X11154761Y-185531700D01*
X11154761Y-185531700D02*
X10969047Y-185593604D01*
X10969047Y-185593604D02*
X10659523Y-185593604D01*
D10*
D11*
X269400000Y-60000000D02*
X267400000Y-60000000D01*
D10*
D11*
X269400000Y-110000000D02*
X267400000Y-110000000D01*
D10*
D11*
X269400000Y-160000000D02*
X267400000Y-160000000D01*
D10*
D11*
X268090476Y-35222176D02*
X268709523Y-35222176D01*
X267966666Y-35593604D02*
X268399999Y-34293604D01*
X268399999Y-34293604D02*
X268833333Y-35593604D01*
D10*
D11*
X268492857Y-84912652D02*
X268678571Y-84974557D01*
X268678571Y-84974557D02*
X268740476Y-85036461D01*
X268740476Y-85036461D02*
X268802380Y-85160271D01*
X268802380Y-85160271D02*
X268802380Y-85345985D01*
X268802380Y-85345985D02*
X268740476Y-85469795D01*
X268740476Y-85469795D02*
X268678571Y-85531700D01*
X268678571Y-85531700D02*
X268554761Y-85593604D01*
X268554761Y-85593604D02*
X268059523Y-85593604D01*
X268059523Y-85593604D02*
X268059523Y-84293604D01*
X268059523Y-84293604D02*
X268492857Y-84293604D01*
X268492857Y-84293604D02*
X268616666Y-84355509D01*
X268616666Y-84355509D02*
X268678571Y-84417414D01*
X268678571Y-84417414D02*
X268740476Y-84541223D01*
X268740476Y-84541223D02*
X268740476Y-84665033D01*
X268740476Y-84665033D02*
X268678571Y-84788842D01*
X268678571Y-84788842D02*
X268616666Y-84850747D01*
X268616666Y-84850747D02*
X268492857Y-84912652D01*
X268492857Y-84912652D02*
X268059523Y-84912652D01*
D10*
D11*
X268802380Y-135469795D02*
X268740476Y-135531700D01*
X268740476Y-135531700D02*
X268554761Y-135593604D01*
X268554761Y-135593604D02*
X268430952Y-135593604D01*
X268430952Y-135593604D02*
X268245238Y-135531700D01*
X268245238Y-135531700D02*
X268121428Y-135407890D01*
X268121428Y-135407890D02*
X268059523Y-135284080D01*
X268059523Y-135284080D02*
X267997619Y-135036461D01*
X267997619Y-135036461D02*
X267997619Y-134850747D01*
X267997619Y-134850747D02*
X268059523Y-134603128D01*
X268059523Y-134603128D02*
X268121428Y-134479319D01*
X268121428Y-134479319D02*
X268245238Y-134355509D01*
X268245238Y-134355509D02*
X268430952Y-134293604D01*
X268430952Y-134293604D02*
X268554761Y-134293604D01*
X268554761Y-134293604D02*
X268740476Y-134355509D01*
X268740476Y-134355509D02*
X268802380Y-134417414D01*
D10*
D11*
X268059523Y-185593604D02*
X268059523Y-184293604D01*
X268059523Y-184293604D02*
X268369047Y-184293604D01*
X268369047Y-184293604D02*
X268554761Y-184355509D01*
X268554761Y-184355509D02*
X268678571Y-184479319D01*
X268678571Y-184479319D02*
X268740476Y-184603128D01*
X268740476Y-184603128D02*
X268802380Y-184850747D01*
X268802380Y-184850747D02*
X268802380Y-185036461D01*
X268802380Y-185036461D02*
X268740476Y-185284080D01*
X268740476Y-185284080D02*
X268678571Y-185407890D01*
X268678571Y-185407890D02*
X268554761Y-185531700D01*
X268554761Y-185531700D02*
X268369047Y-185593604D01*
X268369047Y-185593604D02*
X268059523Y-185593604D01*
D10*
D11*
X182855826Y-199686128D02*
X182855826Y-198186128D01*
X182855826Y-198186128D02*
X183212969Y-198186128D01*
X183212969Y-198186128D02*
X183427255Y-198257557D01*
X183427255Y-198257557D02*
X183570112Y-198400414D01*
X183570112Y-198400414D02*
X183641541Y-198543271D01*
X183641541Y-198543271D02*
X183712969Y-198828985D01*
X183712969Y-198828985D02*
X183712969Y-199043271D01*
X183712969Y-199043271D02*
X183641541Y-199328985D01*
X183641541Y-199328985D02*
X183570112Y-199471842D01*
X183570112Y-199471842D02*
X183427255Y-199614700D01*
X183427255Y-199614700D02*
X183212969Y-199686128D01*
X183212969Y-199686128D02*
X182855826Y-199686128D01*
X184998684Y-199686128D02*
X184998684Y-198900414D01*
X184998684Y-198900414D02*
X184927255Y-198757557D01*
X184927255Y-198757557D02*
X184784398Y-198686128D01*
X184784398Y-198686128D02*
X184498684Y-198686128D01*
X184498684Y-198686128D02*
X184355826Y-198757557D01*
X184998684Y-199614700D02*
X184855826Y-199686128D01*
X184855826Y-199686128D02*
X184498684Y-199686128D01*
X184498684Y-199686128D02*
X184355826Y-199614700D01*
X184355826Y-199614700D02*
X184284398Y-199471842D01*
X184284398Y-199471842D02*
X184284398Y-199328985D01*
X184284398Y-199328985D02*
X184355826Y-199186128D01*
X184355826Y-199186128D02*
X184498684Y-199114700D01*
X184498684Y-199114700D02*
X184855826Y-199114700D01*
X184855826Y-199114700D02*
X184998684Y-199043271D01*
X185498684Y-198686128D02*
X186070112Y-198686128D01*
X185712969Y-198186128D02*
X185712969Y-199471842D01*
X185712969Y-199471842D02*
X185784398Y-199614700D01*
X185784398Y-199614700D02*
X185927255Y-199686128D01*
X185927255Y-199686128D02*
X186070112Y-199686128D01*
X187141541Y-199614700D02*
X186998684Y-199686128D01*
X186998684Y-199686128D02*
X186712970Y-199686128D01*
X186712970Y-199686128D02*
X186570112Y-199614700D01*
X186570112Y-199614700D02*
X186498684Y-199471842D01*
X186498684Y-199471842D02*
X186498684Y-198900414D01*
X186498684Y-198900414D02*
X186570112Y-198757557D01*
X186570112Y-198757557D02*
X186712970Y-198686128D01*
X186712970Y-198686128D02*
X186998684Y-198686128D01*
X186998684Y-198686128D02*
X187141541Y-198757557D01*
X187141541Y-198757557D02*
X187212970Y-198900414D01*
X187212970Y-198900414D02*
X187212970Y-199043271D01*
X187212970Y-199043271D02*
X186498684Y-199186128D01*
X187855826Y-199543271D02*
X187927255Y-199614700D01*
X187927255Y-199614700D02*
X187855826Y-199686128D01*
X187855826Y-199686128D02*
X187784398Y-199614700D01*
X187784398Y-199614700D02*
X187855826Y-199543271D01*
X187855826Y-199543271D02*
X187855826Y-199686128D01*
X187855826Y-198757557D02*
X187927255Y-198828985D01*
X187927255Y-198828985D02*
X187855826Y-198900414D01*
X187855826Y-198900414D02*
X187784398Y-198828985D01*
X187784398Y-198828985D02*
X187855826Y-198757557D01*
X187855826Y-198757557D02*
X187855826Y-198900414D01*
X189641541Y-198328985D02*
X189712969Y-198257557D01*
X189712969Y-198257557D02*
X189855827Y-198186128D01*
X189855827Y-198186128D02*
X190212969Y-198186128D01*
X190212969Y-198186128D02*
X190355827Y-198257557D01*
X190355827Y-198257557D02*
X190427255Y-198328985D01*
X190427255Y-198328985D02*
X190498684Y-198471842D01*
X190498684Y-198471842D02*
X190498684Y-198614700D01*
X190498684Y-198614700D02*
X190427255Y-198828985D01*
X190427255Y-198828985D02*
X189570112Y-199686128D01*
X189570112Y-199686128D02*
X190498684Y-199686128D01*
X191427255Y-198186128D02*
X191570112Y-198186128D01*
X191570112Y-198186128D02*
X191712969Y-198257557D01*
X191712969Y-198257557D02*
X191784398Y-198328985D01*
X191784398Y-198328985D02*
X191855826Y-198471842D01*
X191855826Y-198471842D02*
X191927255Y-198757557D01*
X191927255Y-198757557D02*
X191927255Y-199114700D01*
X191927255Y-199114700D02*
X191855826Y-199400414D01*
X191855826Y-199400414D02*
X191784398Y-199543271D01*
X191784398Y-199543271D02*
X191712969Y-199614700D01*
X191712969Y-199614700D02*
X191570112Y-199686128D01*
X191570112Y-199686128D02*
X191427255Y-199686128D01*
X191427255Y-199686128D02*
X191284398Y-199614700D01*
X191284398Y-199614700D02*
X191212969Y-199543271D01*
X191212969Y-199543271D02*
X191141540Y-199400414D01*
X191141540Y-199400414D02*
X191070112Y-199114700D01*
X191070112Y-199114700D02*
X191070112Y-198757557D01*
X191070112Y-198757557D02*
X191141540Y-198471842D01*
X191141540Y-198471842D02*
X191212969Y-198328985D01*
X191212969Y-198328985D02*
X191284398Y-198257557D01*
X191284398Y-198257557D02*
X191427255Y-198186128D01*
X192498683Y-198328985D02*
X192570111Y-198257557D01*
X192570111Y-198257557D02*
X192712969Y-198186128D01*
X192712969Y-198186128D02*
X193070111Y-198186128D01*
X193070111Y-198186128D02*
X193212969Y-198257557D01*
X193212969Y-198257557D02*
X193284397Y-198328985D01*
X193284397Y-198328985D02*
X193355826Y-198471842D01*
X193355826Y-198471842D02*
X193355826Y-198614700D01*
X193355826Y-198614700D02*
X193284397Y-198828985D01*
X193284397Y-198828985D02*
X192427254Y-199686128D01*
X192427254Y-199686128D02*
X193355826Y-199686128D01*
X193855825Y-198186128D02*
X194784397Y-198186128D01*
X194784397Y-198186128D02*
X194284397Y-198757557D01*
X194284397Y-198757557D02*
X194498682Y-198757557D01*
X194498682Y-198757557D02*
X194641540Y-198828985D01*
X194641540Y-198828985D02*
X194712968Y-198900414D01*
X194712968Y-198900414D02*
X194784397Y-199043271D01*
X194784397Y-199043271D02*
X194784397Y-199400414D01*
X194784397Y-199400414D02*
X194712968Y-199543271D01*
X194712968Y-199543271D02*
X194641540Y-199614700D01*
X194641540Y-199614700D02*
X194498682Y-199686128D01*
X194498682Y-199686128D02*
X194070111Y-199686128D01*
X194070111Y-199686128D02*
X193927254Y-199614700D01*
X193927254Y-199614700D02*
X193855825Y-199543271D01*
X195427253Y-199114700D02*
X196570111Y-199114700D01*
X197570111Y-198186128D02*
X197712968Y-198186128D01*
X197712968Y-198186128D02*
X197855825Y-198257557D01*
X197855825Y-198257557D02*
X197927254Y-198328985D01*
X197927254Y-198328985D02*
X197998682Y-198471842D01*
X197998682Y-198471842D02*
X198070111Y-198757557D01*
X198070111Y-198757557D02*
X198070111Y-199114700D01*
X198070111Y-199114700D02*
X197998682Y-199400414D01*
X197998682Y-199400414D02*
X197927254Y-199543271D01*
X197927254Y-199543271D02*
X197855825Y-199614700D01*
X197855825Y-199614700D02*
X197712968Y-199686128D01*
X197712968Y-199686128D02*
X197570111Y-199686128D01*
X197570111Y-199686128D02*
X197427254Y-199614700D01*
X197427254Y-199614700D02*
X197355825Y-199543271D01*
X197355825Y-199543271D02*
X197284396Y-199400414D01*
X197284396Y-199400414D02*
X197212968Y-199114700D01*
X197212968Y-199114700D02*
X197212968Y-198757557D01*
X197212968Y-198757557D02*
X197284396Y-198471842D01*
X197284396Y-198471842D02*
X197355825Y-198328985D01*
X197355825Y-198328985D02*
X197427254Y-198257557D01*
X197427254Y-198257557D02*
X197570111Y-198186128D01*
X198784396Y-199686128D02*
X199070110Y-199686128D01*
X199070110Y-199686128D02*
X199212967Y-199614700D01*
X199212967Y-199614700D02*
X199284396Y-199543271D01*
X199284396Y-199543271D02*
X199427253Y-199328985D01*
X199427253Y-199328985D02*
X199498682Y-199043271D01*
X199498682Y-199043271D02*
X199498682Y-198471842D01*
X199498682Y-198471842D02*
X199427253Y-198328985D01*
X199427253Y-198328985D02*
X199355825Y-198257557D01*
X199355825Y-198257557D02*
X199212967Y-198186128D01*
X199212967Y-198186128D02*
X198927253Y-198186128D01*
X198927253Y-198186128D02*
X198784396Y-198257557D01*
X198784396Y-198257557D02*
X198712967Y-198328985D01*
X198712967Y-198328985D02*
X198641539Y-198471842D01*
X198641539Y-198471842D02*
X198641539Y-198828985D01*
X198641539Y-198828985D02*
X198712967Y-198971842D01*
X198712967Y-198971842D02*
X198784396Y-199043271D01*
X198784396Y-199043271D02*
X198927253Y-199114700D01*
X198927253Y-199114700D02*
X199212967Y-199114700D01*
X199212967Y-199114700D02*
X199355825Y-199043271D01*
X199355825Y-199043271D02*
X199427253Y-198971842D01*
X199427253Y-198971842D02*
X199498682Y-198828985D01*
X200141538Y-199114700D02*
X201284396Y-199114700D01*
X202784396Y-199686128D02*
X201927253Y-199686128D01*
X202355824Y-199686128D02*
X202355824Y-198186128D01*
X202355824Y-198186128D02*
X202212967Y-198400414D01*
X202212967Y-198400414D02*
X202070110Y-198543271D01*
X202070110Y-198543271D02*
X201927253Y-198614700D01*
X203712967Y-198186128D02*
X203855824Y-198186128D01*
X203855824Y-198186128D02*
X203998681Y-198257557D01*
X203998681Y-198257557D02*
X204070110Y-198328985D01*
X204070110Y-198328985D02*
X204141538Y-198471842D01*
X204141538Y-198471842D02*
X204212967Y-198757557D01*
X204212967Y-198757557D02*
X204212967Y-199114700D01*
X204212967Y-199114700D02*
X204141538Y-199400414D01*
X204141538Y-199400414D02*
X204070110Y-199543271D01*
X204070110Y-199543271D02*
X203998681Y-199614700D01*
X203998681Y-199614700D02*
X203855824Y-199686128D01*
X203855824Y-199686128D02*
X203712967Y-199686128D01*
X203712967Y-199686128D02*
X203570110Y-199614700D01*
X203570110Y-199614700D02*
X203498681Y-199543271D01*
X203498681Y-199543271D02*
X203427252Y-199400414D01*
X203427252Y-199400414D02*
X203355824Y-199114700D01*
X203355824Y-199114700D02*
X203355824Y-198757557D01*
X203355824Y-198757557D02*
X203427252Y-198471842D01*
X203427252Y-198471842D02*
X203498681Y-198328985D01*
X203498681Y-198328985D02*
X203570110Y-198257557D01*
X203570110Y-198257557D02*
X203712967Y-198186128D01*
D10*
D11*
X159400000Y-200400000D02*
X267400000Y-200400000D01*
D10*
D11*
X160855826Y-202486128D02*
X160855826Y-200986128D01*
X161712969Y-202486128D02*
X161070112Y-201628985D01*
X161712969Y-200986128D02*
X160855826Y-201843271D01*
X162355826Y-202486128D02*
X162355826Y-201486128D01*
X162355826Y-200986128D02*
X162284398Y-201057557D01*
X162284398Y-201057557D02*
X162355826Y-201128985D01*
X162355826Y-201128985D02*
X162427255Y-201057557D01*
X162427255Y-201057557D02*
X162355826Y-200986128D01*
X162355826Y-200986128D02*
X162355826Y-201128985D01*
X163927255Y-202343271D02*
X163855827Y-202414700D01*
X163855827Y-202414700D02*
X163641541Y-202486128D01*
X163641541Y-202486128D02*
X163498684Y-202486128D01*
X163498684Y-202486128D02*
X163284398Y-202414700D01*
X163284398Y-202414700D02*
X163141541Y-202271842D01*
X163141541Y-202271842D02*
X163070112Y-202128985D01*
X163070112Y-202128985D02*
X162998684Y-201843271D01*
X162998684Y-201843271D02*
X162998684Y-201628985D01*
X162998684Y-201628985D02*
X163070112Y-201343271D01*
X163070112Y-201343271D02*
X163141541Y-201200414D01*
X163141541Y-201200414D02*
X163284398Y-201057557D01*
X163284398Y-201057557D02*
X163498684Y-200986128D01*
X163498684Y-200986128D02*
X163641541Y-200986128D01*
X163641541Y-200986128D02*
X163855827Y-201057557D01*
X163855827Y-201057557D02*
X163927255Y-201128985D01*
X165212970Y-202486128D02*
X165212970Y-201700414D01*
X165212970Y-201700414D02*
X165141541Y-201557557D01*
X165141541Y-201557557D02*
X164998684Y-201486128D01*
X164998684Y-201486128D02*
X164712970Y-201486128D01*
X164712970Y-201486128D02*
X164570112Y-201557557D01*
X165212970Y-202414700D02*
X165070112Y-202486128D01*
X165070112Y-202486128D02*
X164712970Y-202486128D01*
X164712970Y-202486128D02*
X164570112Y-202414700D01*
X164570112Y-202414700D02*
X164498684Y-202271842D01*
X164498684Y-202271842D02*
X164498684Y-202128985D01*
X164498684Y-202128985D02*
X164570112Y-201986128D01*
X164570112Y-201986128D02*
X164712970Y-201914700D01*
X164712970Y-201914700D02*
X165070112Y-201914700D01*
X165070112Y-201914700D02*
X165212970Y-201843271D01*
X166570113Y-202486128D02*
X166570113Y-200986128D01*
X166570113Y-202414700D02*
X166427255Y-202486128D01*
X166427255Y-202486128D02*
X166141541Y-202486128D01*
X166141541Y-202486128D02*
X165998684Y-202414700D01*
X165998684Y-202414700D02*
X165927255Y-202343271D01*
X165927255Y-202343271D02*
X165855827Y-202200414D01*
X165855827Y-202200414D02*
X165855827Y-201771842D01*
X165855827Y-201771842D02*
X165927255Y-201628985D01*
X165927255Y-201628985D02*
X165998684Y-201557557D01*
X165998684Y-201557557D02*
X166141541Y-201486128D01*
X166141541Y-201486128D02*
X166427255Y-201486128D01*
X166427255Y-201486128D02*
X166570113Y-201557557D01*
X168427255Y-201700414D02*
X168927255Y-201700414D01*
X169141541Y-202486128D02*
X168427255Y-202486128D01*
X168427255Y-202486128D02*
X168427255Y-200986128D01*
X168427255Y-200986128D02*
X169141541Y-200986128D01*
X169784398Y-202343271D02*
X169855827Y-202414700D01*
X169855827Y-202414700D02*
X169784398Y-202486128D01*
X169784398Y-202486128D02*
X169712970Y-202414700D01*
X169712970Y-202414700D02*
X169784398Y-202343271D01*
X169784398Y-202343271D02*
X169784398Y-202486128D01*
X170498684Y-202486128D02*
X170498684Y-200986128D01*
X170498684Y-200986128D02*
X170855827Y-200986128D01*
X170855827Y-200986128D02*
X171070113Y-201057557D01*
X171070113Y-201057557D02*
X171212970Y-201200414D01*
X171212970Y-201200414D02*
X171284399Y-201343271D01*
X171284399Y-201343271D02*
X171355827Y-201628985D01*
X171355827Y-201628985D02*
X171355827Y-201843271D01*
X171355827Y-201843271D02*
X171284399Y-202128985D01*
X171284399Y-202128985D02*
X171212970Y-202271842D01*
X171212970Y-202271842D02*
X171070113Y-202414700D01*
X171070113Y-202414700D02*
X170855827Y-202486128D01*
X170855827Y-202486128D02*
X170498684Y-202486128D01*
X171998684Y-202343271D02*
X172070113Y-202414700D01*
X172070113Y-202414700D02*
X171998684Y-202486128D01*
X171998684Y-202486128D02*
X171927256Y-202414700D01*
X171927256Y-202414700D02*
X171998684Y-202343271D01*
X171998684Y-202343271D02*
X171998684Y-202486128D01*
X172641542Y-202057557D02*
X173355828Y-202057557D01*
X172498685Y-202486128D02*
X172998685Y-200986128D01*
X172998685Y-200986128D02*
X173498685Y-202486128D01*
X173998684Y-202343271D02*
X174070113Y-202414700D01*
X174070113Y-202414700D02*
X173998684Y-202486128D01*
X173998684Y-202486128D02*
X173927256Y-202414700D01*
X173927256Y-202414700D02*
X173998684Y-202343271D01*
X173998684Y-202343271D02*
X173998684Y-202486128D01*
X176998684Y-202486128D02*
X176998684Y-200986128D01*
X177141542Y-201914700D02*
X177570113Y-202486128D01*
X177570113Y-201486128D02*
X176998684Y-202057557D01*
X178212970Y-202486128D02*
X178212970Y-201486128D01*
X178212970Y-200986128D02*
X178141542Y-201057557D01*
X178141542Y-201057557D02*
X178212970Y-201128985D01*
X178212970Y-201128985D02*
X178284399Y-201057557D01*
X178284399Y-201057557D02*
X178212970Y-200986128D01*
X178212970Y-200986128D02*
X178212970Y-201128985D01*
X179570114Y-202414700D02*
X179427256Y-202486128D01*
X179427256Y-202486128D02*
X179141542Y-202486128D01*
X179141542Y-202486128D02*
X178998685Y-202414700D01*
X178998685Y-202414700D02*
X178927256Y-202343271D01*
X178927256Y-202343271D02*
X178855828Y-202200414D01*
X178855828Y-202200414D02*
X178855828Y-201771842D01*
X178855828Y-201771842D02*
X178927256Y-201628985D01*
X178927256Y-201628985D02*
X178998685Y-201557557D01*
X178998685Y-201557557D02*
X179141542Y-201486128D01*
X179141542Y-201486128D02*
X179427256Y-201486128D01*
X179427256Y-201486128D02*
X179570114Y-201557557D01*
X180855828Y-202486128D02*
X180855828Y-201700414D01*
X180855828Y-201700414D02*
X180784399Y-201557557D01*
X180784399Y-201557557D02*
X180641542Y-201486128D01*
X180641542Y-201486128D02*
X180355828Y-201486128D01*
X180355828Y-201486128D02*
X180212970Y-201557557D01*
X180855828Y-202414700D02*
X180712970Y-202486128D01*
X180712970Y-202486128D02*
X180355828Y-202486128D01*
X180355828Y-202486128D02*
X180212970Y-202414700D01*
X180212970Y-202414700D02*
X180141542Y-202271842D01*
X180141542Y-202271842D02*
X180141542Y-202128985D01*
X180141542Y-202128985D02*
X180212970Y-201986128D01*
X180212970Y-201986128D02*
X180355828Y-201914700D01*
X180355828Y-201914700D02*
X180712970Y-201914700D01*
X180712970Y-201914700D02*
X180855828Y-201843271D01*
X182212971Y-202486128D02*
X182212971Y-200986128D01*
X182212971Y-202414700D02*
X182070113Y-202486128D01*
X182070113Y-202486128D02*
X181784399Y-202486128D01*
X181784399Y-202486128D02*
X181641542Y-202414700D01*
X181641542Y-202414700D02*
X181570113Y-202343271D01*
X181570113Y-202343271D02*
X181498685Y-202200414D01*
X181498685Y-202200414D02*
X181498685Y-201771842D01*
X181498685Y-201771842D02*
X181570113Y-201628985D01*
X181570113Y-201628985D02*
X181641542Y-201557557D01*
X181641542Y-201557557D02*
X181784399Y-201486128D01*
X181784399Y-201486128D02*
X182070113Y-201486128D01*
X182070113Y-201486128D02*
X182212971Y-201557557D01*
X183927256Y-200986128D02*
X184927256Y-200986128D01*
X184927256Y-200986128D02*
X184284399Y-202486128D01*
X185498684Y-202343271D02*
X185570113Y-202414700D01*
X185570113Y-202414700D02*
X185498684Y-202486128D01*
X185498684Y-202486128D02*
X185427256Y-202414700D01*
X185427256Y-202414700D02*
X185498684Y-202343271D01*
X185498684Y-202343271D02*
X185498684Y-202486128D01*
X186498685Y-200986128D02*
X186641542Y-200986128D01*
X186641542Y-200986128D02*
X186784399Y-201057557D01*
X186784399Y-201057557D02*
X186855828Y-201128985D01*
X186855828Y-201128985D02*
X186927256Y-201271842D01*
X186927256Y-201271842D02*
X186998685Y-201557557D01*
X186998685Y-201557557D02*
X186998685Y-201914700D01*
X186998685Y-201914700D02*
X186927256Y-202200414D01*
X186927256Y-202200414D02*
X186855828Y-202343271D01*
X186855828Y-202343271D02*
X186784399Y-202414700D01*
X186784399Y-202414700D02*
X186641542Y-202486128D01*
X186641542Y-202486128D02*
X186498685Y-202486128D01*
X186498685Y-202486128D02*
X186355828Y-202414700D01*
X186355828Y-202414700D02*
X186284399Y-202343271D01*
X186284399Y-202343271D02*
X186212970Y-202200414D01*
X186212970Y-202200414D02*
X186141542Y-201914700D01*
X186141542Y-201914700D02*
X186141542Y-201557557D01*
X186141542Y-201557557D02*
X186212970Y-201271842D01*
X186212970Y-201271842D02*
X186284399Y-201128985D01*
X186284399Y-201128985D02*
X186355828Y-201057557D01*
X186355828Y-201057557D02*
X186498685Y-200986128D01*
X187641541Y-202343271D02*
X187712970Y-202414700D01*
X187712970Y-202414700D02*
X187641541Y-202486128D01*
X187641541Y-202486128D02*
X187570113Y-202414700D01*
X187570113Y-202414700D02*
X187641541Y-202343271D01*
X187641541Y-202343271D02*
X187641541Y-202486128D01*
X188212970Y-200986128D02*
X189212970Y-200986128D01*
X189212970Y-200986128D02*
X188570113Y-202486128D01*
D10*
D11*
X159400000Y-197400000D02*
X267400000Y-197400000D01*
D10*
D12*
X246811653Y-199678328D02*
X246311653Y-198964042D01*
X245954510Y-199678328D02*
X245954510Y-198178328D01*
X245954510Y-198178328D02*
X246525939Y-198178328D01*
X246525939Y-198178328D02*
X246668796Y-198249757D01*
X246668796Y-198249757D02*
X246740225Y-198321185D01*
X246740225Y-198321185D02*
X246811653Y-198464042D01*
X246811653Y-198464042D02*
X246811653Y-198678328D01*
X246811653Y-198678328D02*
X246740225Y-198821185D01*
X246740225Y-198821185D02*
X246668796Y-198892614D01*
X246668796Y-198892614D02*
X246525939Y-198964042D01*
X246525939Y-198964042D02*
X245954510Y-198964042D01*
X248025939Y-199606900D02*
X247883082Y-199678328D01*
X247883082Y-199678328D02*
X247597368Y-199678328D01*
X247597368Y-199678328D02*
X247454510Y-199606900D01*
X247454510Y-199606900D02*
X247383082Y-199464042D01*
X247383082Y-199464042D02*
X247383082Y-198892614D01*
X247383082Y-198892614D02*
X247454510Y-198749757D01*
X247454510Y-198749757D02*
X247597368Y-198678328D01*
X247597368Y-198678328D02*
X247883082Y-198678328D01*
X247883082Y-198678328D02*
X248025939Y-198749757D01*
X248025939Y-198749757D02*
X248097368Y-198892614D01*
X248097368Y-198892614D02*
X248097368Y-199035471D01*
X248097368Y-199035471D02*
X247383082Y-199178328D01*
X248597367Y-198678328D02*
X248954510Y-199678328D01*
X248954510Y-199678328D02*
X249311653Y-198678328D01*
X249883081Y-199535471D02*
X249954510Y-199606900D01*
X249954510Y-199606900D02*
X249883081Y-199678328D01*
X249883081Y-199678328D02*
X249811653Y-199606900D01*
X249811653Y-199606900D02*
X249883081Y-199535471D01*
X249883081Y-199535471D02*
X249883081Y-199678328D01*
X249883081Y-198749757D02*
X249954510Y-198821185D01*
X249954510Y-198821185D02*
X249883081Y-198892614D01*
X249883081Y-198892614D02*
X249811653Y-198821185D01*
X249811653Y-198821185D02*
X249883081Y-198749757D01*
X249883081Y-198749757D02*
X249883081Y-198892614D01*
X251668796Y-199249757D02*
X252383082Y-199249757D01*
X251525939Y-199678328D02*
X252025939Y-198178328D01*
X252025939Y-198178328D02*
X252525939Y-199678328D01*
D10*
D11*
X160784398Y-199614700D02*
X160998684Y-199686128D01*
X160998684Y-199686128D02*
X161355826Y-199686128D01*
X161355826Y-199686128D02*
X161498684Y-199614700D01*
X161498684Y-199614700D02*
X161570112Y-199543271D01*
X161570112Y-199543271D02*
X161641541Y-199400414D01*
X161641541Y-199400414D02*
X161641541Y-199257557D01*
X161641541Y-199257557D02*
X161570112Y-199114700D01*
X161570112Y-199114700D02*
X161498684Y-199043271D01*
X161498684Y-199043271D02*
X161355826Y-198971842D01*
X161355826Y-198971842D02*
X161070112Y-198900414D01*
X161070112Y-198900414D02*
X160927255Y-198828985D01*
X160927255Y-198828985D02*
X160855826Y-198757557D01*
X160855826Y-198757557D02*
X160784398Y-198614700D01*
X160784398Y-198614700D02*
X160784398Y-198471842D01*
X160784398Y-198471842D02*
X160855826Y-198328985D01*
X160855826Y-198328985D02*
X160927255Y-198257557D01*
X160927255Y-198257557D02*
X161070112Y-198186128D01*
X161070112Y-198186128D02*
X161427255Y-198186128D01*
X161427255Y-198186128D02*
X161641541Y-198257557D01*
X162284397Y-199686128D02*
X162284397Y-198686128D01*
X162284397Y-198186128D02*
X162212969Y-198257557D01*
X162212969Y-198257557D02*
X162284397Y-198328985D01*
X162284397Y-198328985D02*
X162355826Y-198257557D01*
X162355826Y-198257557D02*
X162284397Y-198186128D01*
X162284397Y-198186128D02*
X162284397Y-198328985D01*
X162855826Y-198686128D02*
X163641541Y-198686128D01*
X163641541Y-198686128D02*
X162855826Y-199686128D01*
X162855826Y-199686128D02*
X163641541Y-199686128D01*
X164784398Y-199614700D02*
X164641541Y-199686128D01*
X164641541Y-199686128D02*
X164355827Y-199686128D01*
X164355827Y-199686128D02*
X164212969Y-199614700D01*
X164212969Y-199614700D02*
X164141541Y-199471842D01*
X164141541Y-199471842D02*
X164141541Y-198900414D01*
X164141541Y-198900414D02*
X164212969Y-198757557D01*
X164212969Y-198757557D02*
X164355827Y-198686128D01*
X164355827Y-198686128D02*
X164641541Y-198686128D01*
X164641541Y-198686128D02*
X164784398Y-198757557D01*
X164784398Y-198757557D02*
X164855827Y-198900414D01*
X164855827Y-198900414D02*
X164855827Y-199043271D01*
X164855827Y-199043271D02*
X164141541Y-199186128D01*
X165498683Y-199543271D02*
X165570112Y-199614700D01*
X165570112Y-199614700D02*
X165498683Y-199686128D01*
X165498683Y-199686128D02*
X165427255Y-199614700D01*
X165427255Y-199614700D02*
X165498683Y-199543271D01*
X165498683Y-199543271D02*
X165498683Y-199686128D01*
X165498683Y-198757557D02*
X165570112Y-198828985D01*
X165570112Y-198828985D02*
X165498683Y-198900414D01*
X165498683Y-198900414D02*
X165427255Y-198828985D01*
X165427255Y-198828985D02*
X165498683Y-198757557D01*
X165498683Y-198757557D02*
X165498683Y-198900414D01*
X167284398Y-199257557D02*
X167998684Y-199257557D01*
X167141541Y-199686128D02*
X167641541Y-198186128D01*
X167641541Y-198186128D02*
X168141541Y-199686128D01*
D10*
D11*
X245855826Y-202486128D02*
X245855826Y-200986128D01*
X247212970Y-202486128D02*
X247212970Y-200986128D01*
X247212970Y-202414700D02*
X247070112Y-202486128D01*
X247070112Y-202486128D02*
X246784398Y-202486128D01*
X246784398Y-202486128D02*
X246641541Y-202414700D01*
X246641541Y-202414700D02*
X246570112Y-202343271D01*
X246570112Y-202343271D02*
X246498684Y-202200414D01*
X246498684Y-202200414D02*
X246498684Y-201771842D01*
X246498684Y-201771842D02*
X246570112Y-201628985D01*
X246570112Y-201628985D02*
X246641541Y-201557557D01*
X246641541Y-201557557D02*
X246784398Y-201486128D01*
X246784398Y-201486128D02*
X247070112Y-201486128D01*
X247070112Y-201486128D02*
X247212970Y-201557557D01*
X247927255Y-202343271D02*
X247998684Y-202414700D01*
X247998684Y-202414700D02*
X247927255Y-202486128D01*
X247927255Y-202486128D02*
X247855827Y-202414700D01*
X247855827Y-202414700D02*
X247927255Y-202343271D01*
X247927255Y-202343271D02*
X247927255Y-202486128D01*
X247927255Y-201557557D02*
X247998684Y-201628985D01*
X247998684Y-201628985D02*
X247927255Y-201700414D01*
X247927255Y-201700414D02*
X247855827Y-201628985D01*
X247855827Y-201628985D02*
X247927255Y-201557557D01*
X247927255Y-201557557D02*
X247927255Y-201700414D01*
X250570113Y-202486128D02*
X249712970Y-202486128D01*
X250141541Y-202486128D02*
X250141541Y-200986128D01*
X250141541Y-200986128D02*
X249998684Y-201200414D01*
X249998684Y-201200414D02*
X249855827Y-201343271D01*
X249855827Y-201343271D02*
X249712970Y-201414700D01*
X252284398Y-200914700D02*
X250998684Y-202843271D01*
X253570113Y-202486128D02*
X252712970Y-202486128D01*
X253141541Y-202486128D02*
X253141541Y-200986128D01*
X253141541Y-200986128D02*
X252998684Y-201200414D01*
X252998684Y-201200414D02*
X252855827Y-201343271D01*
X252855827Y-201343271D02*
X252712970Y-201414700D01*
D10*
D11*
X159400000Y-193400000D02*
X267400000Y-193400000D01*
D10*
D13*
X161091728Y-194104438D02*
X162234585Y-194104438D01*
X161413157Y-196104438D02*
X161663157Y-194104438D01*
X162651252Y-196104438D02*
X162817919Y-194771104D01*
X162901252Y-194104438D02*
X162794109Y-194199676D01*
X162794109Y-194199676D02*
X162877443Y-194294914D01*
X162877443Y-194294914D02*
X162984586Y-194199676D01*
X162984586Y-194199676D02*
X162901252Y-194104438D01*
X162901252Y-194104438D02*
X162877443Y-194294914D01*
X163484586Y-194771104D02*
X164246490Y-194771104D01*
X163853633Y-194104438D02*
X163639348Y-195818723D01*
X163639348Y-195818723D02*
X163710776Y-196009200D01*
X163710776Y-196009200D02*
X163889348Y-196104438D01*
X163889348Y-196104438D02*
X164079824Y-196104438D01*
X165032205Y-196104438D02*
X164853633Y-196009200D01*
X164853633Y-196009200D02*
X164782205Y-195818723D01*
X164782205Y-195818723D02*
X164996490Y-194104438D01*
X166567919Y-196009200D02*
X166365538Y-196104438D01*
X166365538Y-196104438D02*
X165984585Y-196104438D01*
X165984585Y-196104438D02*
X165806014Y-196009200D01*
X165806014Y-196009200D02*
X165734585Y-195818723D01*
X165734585Y-195818723D02*
X165829824Y-195056819D01*
X165829824Y-195056819D02*
X165948871Y-194866342D01*
X165948871Y-194866342D02*
X166151252Y-194771104D01*
X166151252Y-194771104D02*
X166532204Y-194771104D01*
X166532204Y-194771104D02*
X166710776Y-194866342D01*
X166710776Y-194866342D02*
X166782204Y-195056819D01*
X166782204Y-195056819D02*
X166758395Y-195247295D01*
X166758395Y-195247295D02*
X165782204Y-195437771D01*
X167532205Y-195913961D02*
X167615538Y-196009200D01*
X167615538Y-196009200D02*
X167508395Y-196104438D01*
X167508395Y-196104438D02*
X167425062Y-196009200D01*
X167425062Y-196009200D02*
X167532205Y-195913961D01*
X167532205Y-195913961D02*
X167508395Y-196104438D01*
X167663157Y-194866342D02*
X167746490Y-194961580D01*
X167746490Y-194961580D02*
X167639348Y-195056819D01*
X167639348Y-195056819D02*
X167556014Y-194961580D01*
X167556014Y-194961580D02*
X167663157Y-194866342D01*
X167663157Y-194866342D02*
X167639348Y-195056819D01*
X171270301Y-194199676D02*
X171091729Y-194104438D01*
X171091729Y-194104438D02*
X170806015Y-194104438D01*
X170806015Y-194104438D02*
X170508396Y-194199676D01*
X170508396Y-194199676D02*
X170294110Y-194390152D01*
X170294110Y-194390152D02*
X170175062Y-194580628D01*
X170175062Y-194580628D02*
X170032205Y-194961580D01*
X170032205Y-194961580D02*
X169996491Y-195247295D01*
X169996491Y-195247295D02*
X170044110Y-195628247D01*
X170044110Y-195628247D02*
X170115539Y-195818723D01*
X170115539Y-195818723D02*
X170282205Y-196009200D01*
X170282205Y-196009200D02*
X170556015Y-196104438D01*
X170556015Y-196104438D02*
X170746491Y-196104438D01*
X170746491Y-196104438D02*
X171044110Y-196009200D01*
X171044110Y-196009200D02*
X171151253Y-195913961D01*
X171151253Y-195913961D02*
X171234586Y-195247295D01*
X171234586Y-195247295D02*
X170853634Y-195247295D01*
X172270301Y-196104438D02*
X172091729Y-196009200D01*
X172091729Y-196009200D02*
X172020301Y-195818723D01*
X172020301Y-195818723D02*
X172234586Y-194104438D01*
X173317920Y-196104438D02*
X173139348Y-196009200D01*
X173139348Y-196009200D02*
X173056015Y-195913961D01*
X173056015Y-195913961D02*
X172984586Y-195723485D01*
X172984586Y-195723485D02*
X173056015Y-195152057D01*
X173056015Y-195152057D02*
X173175062Y-194961580D01*
X173175062Y-194961580D02*
X173282205Y-194866342D01*
X173282205Y-194866342D02*
X173484586Y-194771104D01*
X173484586Y-194771104D02*
X173770300Y-194771104D01*
X173770300Y-194771104D02*
X173948872Y-194866342D01*
X173948872Y-194866342D02*
X174032205Y-194961580D01*
X174032205Y-194961580D02*
X174103634Y-195152057D01*
X174103634Y-195152057D02*
X174032205Y-195723485D01*
X174032205Y-195723485D02*
X173913158Y-195913961D01*
X173913158Y-195913961D02*
X173806015Y-196009200D01*
X173806015Y-196009200D02*
X173603634Y-196104438D01*
X173603634Y-196104438D02*
X173317920Y-196104438D01*
X174841729Y-196104438D02*
X175091729Y-194104438D01*
X174996491Y-194866342D02*
X175198872Y-194771104D01*
X175198872Y-194771104D02*
X175579824Y-194771104D01*
X175579824Y-194771104D02*
X175758396Y-194866342D01*
X175758396Y-194866342D02*
X175841729Y-194961580D01*
X175841729Y-194961580D02*
X175913158Y-195152057D01*
X175913158Y-195152057D02*
X175841729Y-195723485D01*
X175841729Y-195723485D02*
X175722682Y-195913961D01*
X175722682Y-195913961D02*
X175615539Y-196009200D01*
X175615539Y-196009200D02*
X175413158Y-196104438D01*
X175413158Y-196104438D02*
X175032205Y-196104438D01*
X175032205Y-196104438D02*
X174853634Y-196009200D01*
X177508396Y-196104438D02*
X177639348Y-195056819D01*
X177639348Y-195056819D02*
X177567920Y-194866342D01*
X177567920Y-194866342D02*
X177389348Y-194771104D01*
X177389348Y-194771104D02*
X177008396Y-194771104D01*
X177008396Y-194771104D02*
X176806015Y-194866342D01*
X177520301Y-196009200D02*
X177317920Y-196104438D01*
X177317920Y-196104438D02*
X176841729Y-196104438D01*
X176841729Y-196104438D02*
X176663158Y-196009200D01*
X176663158Y-196009200D02*
X176591729Y-195818723D01*
X176591729Y-195818723D02*
X176615539Y-195628247D01*
X176615539Y-195628247D02*
X176734587Y-195437771D01*
X176734587Y-195437771D02*
X176936968Y-195342533D01*
X176936968Y-195342533D02*
X177413158Y-195342533D01*
X177413158Y-195342533D02*
X177615539Y-195247295D01*
X178746492Y-196104438D02*
X178567920Y-196009200D01*
X178567920Y-196009200D02*
X178496492Y-195818723D01*
X178496492Y-195818723D02*
X178710777Y-194104438D01*
X180948873Y-196009200D02*
X181222682Y-196104438D01*
X181222682Y-196104438D02*
X181698873Y-196104438D01*
X181698873Y-196104438D02*
X181901254Y-196009200D01*
X181901254Y-196009200D02*
X182008397Y-195913961D01*
X182008397Y-195913961D02*
X182127444Y-195723485D01*
X182127444Y-195723485D02*
X182151254Y-195533009D01*
X182151254Y-195533009D02*
X182079825Y-195342533D01*
X182079825Y-195342533D02*
X181996492Y-195247295D01*
X181996492Y-195247295D02*
X181817921Y-195152057D01*
X181817921Y-195152057D02*
X181448873Y-195056819D01*
X181448873Y-195056819D02*
X181270301Y-194961580D01*
X181270301Y-194961580D02*
X181186968Y-194866342D01*
X181186968Y-194866342D02*
X181115540Y-194675866D01*
X181115540Y-194675866D02*
X181139349Y-194485390D01*
X181139349Y-194485390D02*
X181258397Y-194294914D01*
X181258397Y-194294914D02*
X181365540Y-194199676D01*
X181365540Y-194199676D02*
X181567921Y-194104438D01*
X181567921Y-194104438D02*
X182044111Y-194104438D01*
X182044111Y-194104438D02*
X182317921Y-194199676D01*
X183806016Y-196009200D02*
X183603635Y-196104438D01*
X183603635Y-196104438D02*
X183222683Y-196104438D01*
X183222683Y-196104438D02*
X183044111Y-196009200D01*
X183044111Y-196009200D02*
X182960778Y-195913961D01*
X182960778Y-195913961D02*
X182889349Y-195723485D01*
X182889349Y-195723485D02*
X182960778Y-195152057D01*
X182960778Y-195152057D02*
X183079825Y-194961580D01*
X183079825Y-194961580D02*
X183186968Y-194866342D01*
X183186968Y-194866342D02*
X183389349Y-194771104D01*
X183389349Y-194771104D02*
X183770302Y-194771104D01*
X183770302Y-194771104D02*
X183948873Y-194866342D01*
X185508397Y-196104438D02*
X185639349Y-195056819D01*
X185639349Y-195056819D02*
X185567921Y-194866342D01*
X185567921Y-194866342D02*
X185389349Y-194771104D01*
X185389349Y-194771104D02*
X185008397Y-194771104D01*
X185008397Y-194771104D02*
X184806016Y-194866342D01*
X185520302Y-196009200D02*
X185317921Y-196104438D01*
X185317921Y-196104438D02*
X184841730Y-196104438D01*
X184841730Y-196104438D02*
X184663159Y-196009200D01*
X184663159Y-196009200D02*
X184591730Y-195818723D01*
X184591730Y-195818723D02*
X184615540Y-195628247D01*
X184615540Y-195628247D02*
X184734588Y-195437771D01*
X184734588Y-195437771D02*
X184936969Y-195342533D01*
X184936969Y-195342533D02*
X185413159Y-195342533D01*
X185413159Y-195342533D02*
X185615540Y-195247295D01*
X186436969Y-194771104D02*
X186746493Y-196104438D01*
X186746493Y-196104438D02*
X187389350Y-194771104D01*
X188758398Y-196009200D02*
X188556017Y-196104438D01*
X188556017Y-196104438D02*
X188175064Y-196104438D01*
X188175064Y-196104438D02*
X187996493Y-196009200D01*
X187996493Y-196009200D02*
X187925064Y-195818723D01*
X187925064Y-195818723D02*
X188020303Y-195056819D01*
X188020303Y-195056819D02*
X188139350Y-194866342D01*
X188139350Y-194866342D02*
X188341731Y-194771104D01*
X188341731Y-194771104D02*
X188722683Y-194771104D01*
X188722683Y-194771104D02*
X188901255Y-194866342D01*
X188901255Y-194866342D02*
X188972683Y-195056819D01*
X188972683Y-195056819D02*
X188948874Y-195247295D01*
X188948874Y-195247295D02*
X187972683Y-195437771D01*
X189865541Y-194771104D02*
X189698874Y-196104438D01*
X189841731Y-194961580D02*
X189948874Y-194866342D01*
X189948874Y-194866342D02*
X190151255Y-194771104D01*
X190151255Y-194771104D02*
X190436969Y-194771104D01*
X190436969Y-194771104D02*
X190615541Y-194866342D01*
X190615541Y-194866342D02*
X190686969Y-195056819D01*
X190686969Y-195056819D02*
X190556017Y-196104438D01*
X192532208Y-194771104D02*
X192329827Y-196390152D01*
X192329827Y-196390152D02*
X192210779Y-196580628D01*
X192210779Y-196580628D02*
X192103636Y-196675866D01*
X192103636Y-196675866D02*
X191901255Y-196771104D01*
X191901255Y-196771104D02*
X191615541Y-196771104D01*
X191615541Y-196771104D02*
X191436970Y-196675866D01*
X192377446Y-196009200D02*
X192175065Y-196104438D01*
X192175065Y-196104438D02*
X191794113Y-196104438D01*
X191794113Y-196104438D02*
X191615541Y-196009200D01*
X191615541Y-196009200D02*
X191532208Y-195913961D01*
X191532208Y-195913961D02*
X191460779Y-195723485D01*
X191460779Y-195723485D02*
X191532208Y-195152057D01*
X191532208Y-195152057D02*
X191651255Y-194961580D01*
X191651255Y-194961580D02*
X191758398Y-194866342D01*
X191758398Y-194866342D02*
X191960779Y-194771104D01*
X191960779Y-194771104D02*
X192341732Y-194771104D01*
X192341732Y-194771104D02*
X192520303Y-194866342D01*
X194091732Y-196009200D02*
X193889351Y-196104438D01*
X193889351Y-196104438D02*
X193508398Y-196104438D01*
X193508398Y-196104438D02*
X193329827Y-196009200D01*
X193329827Y-196009200D02*
X193258398Y-195818723D01*
X193258398Y-195818723D02*
X193353637Y-195056819D01*
X193353637Y-195056819D02*
X193472684Y-194866342D01*
X193472684Y-194866342D02*
X193675065Y-194771104D01*
X193675065Y-194771104D02*
X194056017Y-194771104D01*
X194056017Y-194771104D02*
X194234589Y-194866342D01*
X194234589Y-194866342D02*
X194306017Y-195056819D01*
X194306017Y-195056819D02*
X194282208Y-195247295D01*
X194282208Y-195247295D02*
X193306017Y-195437771D01*
X195032208Y-196104438D02*
X195198875Y-194771104D01*
X195151256Y-195152057D02*
X195270303Y-194961580D01*
X195270303Y-194961580D02*
X195377446Y-194866342D01*
X195377446Y-194866342D02*
X195579827Y-194771104D01*
X195579827Y-194771104D02*
X195770303Y-194771104D01*
X197794113Y-196104438D02*
X198044113Y-194104438D01*
X197925066Y-195056819D02*
X199067923Y-195056819D01*
X198936970Y-196104438D02*
X199186970Y-194104438D01*
X200913161Y-194771104D02*
X200746494Y-196104438D01*
X200056018Y-194771104D02*
X199925066Y-195818723D01*
X199925066Y-195818723D02*
X199996494Y-196009200D01*
X199996494Y-196009200D02*
X200175066Y-196104438D01*
X200175066Y-196104438D02*
X200460780Y-196104438D01*
X200460780Y-196104438D02*
X200663161Y-196009200D01*
X200663161Y-196009200D02*
X200770304Y-195913961D01*
X201865542Y-194771104D02*
X201698875Y-196104438D01*
X201841732Y-194961580D02*
X201948875Y-194866342D01*
X201948875Y-194866342D02*
X202151256Y-194771104D01*
X202151256Y-194771104D02*
X202436970Y-194771104D01*
X202436970Y-194771104D02*
X202615542Y-194866342D01*
X202615542Y-194866342D02*
X202686970Y-195056819D01*
X202686970Y-195056819D02*
X202556018Y-196104438D01*
X203389352Y-194771104D02*
X204151256Y-194771104D01*
X203758399Y-194104438D02*
X203544114Y-195818723D01*
X203544114Y-195818723D02*
X203615542Y-196009200D01*
X203615542Y-196009200D02*
X203794114Y-196104438D01*
X203794114Y-196104438D02*
X203984590Y-196104438D01*
X206175066Y-196104438D02*
X206425066Y-194104438D01*
X206425066Y-194104438D02*
X207186971Y-194104438D01*
X207186971Y-194104438D02*
X207365542Y-194199676D01*
X207365542Y-194199676D02*
X207448876Y-194294914D01*
X207448876Y-194294914D02*
X207520304Y-194485390D01*
X207520304Y-194485390D02*
X207484590Y-194771104D01*
X207484590Y-194771104D02*
X207365542Y-194961580D01*
X207365542Y-194961580D02*
X207258400Y-195056819D01*
X207258400Y-195056819D02*
X207056019Y-195152057D01*
X207056019Y-195152057D02*
X206294114Y-195152057D01*
X208460781Y-196104438D02*
X208282209Y-196009200D01*
X208282209Y-196009200D02*
X208198876Y-195913961D01*
X208198876Y-195913961D02*
X208127447Y-195723485D01*
X208127447Y-195723485D02*
X208198876Y-195152057D01*
X208198876Y-195152057D02*
X208317923Y-194961580D01*
X208317923Y-194961580D02*
X208425066Y-194866342D01*
X208425066Y-194866342D02*
X208627447Y-194771104D01*
X208627447Y-194771104D02*
X208913161Y-194771104D01*
X208913161Y-194771104D02*
X209091733Y-194866342D01*
X209091733Y-194866342D02*
X209175066Y-194961580D01*
X209175066Y-194961580D02*
X209246495Y-195152057D01*
X209246495Y-195152057D02*
X209175066Y-195723485D01*
X209175066Y-195723485D02*
X209056019Y-195913961D01*
X209056019Y-195913961D02*
X208948876Y-196009200D01*
X208948876Y-196009200D02*
X208746495Y-196104438D01*
X208746495Y-196104438D02*
X208460781Y-196104438D01*
X209901257Y-196009200D02*
X210079828Y-196104438D01*
X210079828Y-196104438D02*
X210460781Y-196104438D01*
X210460781Y-196104438D02*
X210663162Y-196009200D01*
X210663162Y-196009200D02*
X210782209Y-195818723D01*
X210782209Y-195818723D02*
X210794114Y-195723485D01*
X210794114Y-195723485D02*
X210722685Y-195533009D01*
X210722685Y-195533009D02*
X210544114Y-195437771D01*
X210544114Y-195437771D02*
X210258400Y-195437771D01*
X210258400Y-195437771D02*
X210079828Y-195342533D01*
X210079828Y-195342533D02*
X210008400Y-195152057D01*
X210008400Y-195152057D02*
X210020305Y-195056819D01*
X210020305Y-195056819D02*
X210139352Y-194866342D01*
X210139352Y-194866342D02*
X210341733Y-194771104D01*
X210341733Y-194771104D02*
X210627447Y-194771104D01*
X210627447Y-194771104D02*
X210806019Y-194866342D01*
X211603638Y-196104438D02*
X211770305Y-194771104D01*
X211853638Y-194104438D02*
X211746495Y-194199676D01*
X211746495Y-194199676D02*
X211829829Y-194294914D01*
X211829829Y-194294914D02*
X211936972Y-194199676D01*
X211936972Y-194199676D02*
X211853638Y-194104438D01*
X211853638Y-194104438D02*
X211829829Y-194294914D01*
X212436972Y-194771104D02*
X213198876Y-194771104D01*
X212806019Y-194104438D02*
X212591734Y-195818723D01*
X212591734Y-195818723D02*
X212663162Y-196009200D01*
X212663162Y-196009200D02*
X212841734Y-196104438D01*
X212841734Y-196104438D02*
X213032210Y-196104438D01*
X213698876Y-196104438D02*
X213865543Y-194771104D01*
X213948876Y-194104438D02*
X213841733Y-194199676D01*
X213841733Y-194199676D02*
X213925067Y-194294914D01*
X213925067Y-194294914D02*
X214032210Y-194199676D01*
X214032210Y-194199676D02*
X213948876Y-194104438D01*
X213948876Y-194104438D02*
X213925067Y-194294914D01*
X214936972Y-196104438D02*
X214758400Y-196009200D01*
X214758400Y-196009200D02*
X214675067Y-195913961D01*
X214675067Y-195913961D02*
X214603638Y-195723485D01*
X214603638Y-195723485D02*
X214675067Y-195152057D01*
X214675067Y-195152057D02*
X214794114Y-194961580D01*
X214794114Y-194961580D02*
X214901257Y-194866342D01*
X214901257Y-194866342D02*
X215103638Y-194771104D01*
X215103638Y-194771104D02*
X215389352Y-194771104D01*
X215389352Y-194771104D02*
X215567924Y-194866342D01*
X215567924Y-194866342D02*
X215651257Y-194961580D01*
X215651257Y-194961580D02*
X215722686Y-195152057D01*
X215722686Y-195152057D02*
X215651257Y-195723485D01*
X215651257Y-195723485D02*
X215532210Y-195913961D01*
X215532210Y-195913961D02*
X215425067Y-196009200D01*
X215425067Y-196009200D02*
X215222686Y-196104438D01*
X215222686Y-196104438D02*
X214936972Y-196104438D01*
X216627448Y-194771104D02*
X216460781Y-196104438D01*
X216603638Y-194961580D02*
X216710781Y-194866342D01*
X216710781Y-194866342D02*
X216913162Y-194771104D01*
X216913162Y-194771104D02*
X217198876Y-194771104D01*
X217198876Y-194771104D02*
X217377448Y-194866342D01*
X217377448Y-194866342D02*
X217448876Y-195056819D01*
X217448876Y-195056819D02*
X217317924Y-196104438D01*
X218270305Y-196104438D02*
X218436972Y-194771104D01*
X218520305Y-194104438D02*
X218413162Y-194199676D01*
X218413162Y-194199676D02*
X218496496Y-194294914D01*
X218496496Y-194294914D02*
X218603639Y-194199676D01*
X218603639Y-194199676D02*
X218520305Y-194104438D01*
X218520305Y-194104438D02*
X218496496Y-194294914D01*
X219389353Y-194771104D02*
X219222686Y-196104438D01*
X219365543Y-194961580D02*
X219472686Y-194866342D01*
X219472686Y-194866342D02*
X219675067Y-194771104D01*
X219675067Y-194771104D02*
X219960781Y-194771104D01*
X219960781Y-194771104D02*
X220139353Y-194866342D01*
X220139353Y-194866342D02*
X220210781Y-195056819D01*
X220210781Y-195056819D02*
X220079829Y-196104438D01*
X222056020Y-194771104D02*
X221853639Y-196390152D01*
X221853639Y-196390152D02*
X221734591Y-196580628D01*
X221734591Y-196580628D02*
X221627448Y-196675866D01*
X221627448Y-196675866D02*
X221425067Y-196771104D01*
X221425067Y-196771104D02*
X221139353Y-196771104D01*
X221139353Y-196771104D02*
X220960782Y-196675866D01*
X221901258Y-196009200D02*
X221698877Y-196104438D01*
X221698877Y-196104438D02*
X221317925Y-196104438D01*
X221317925Y-196104438D02*
X221139353Y-196009200D01*
X221139353Y-196009200D02*
X221056020Y-195913961D01*
X221056020Y-195913961D02*
X220984591Y-195723485D01*
X220984591Y-195723485D02*
X221056020Y-195152057D01*
X221056020Y-195152057D02*
X221175067Y-194961580D01*
X221175067Y-194961580D02*
X221282210Y-194866342D01*
X221282210Y-194866342D02*
X221484591Y-194771104D01*
X221484591Y-194771104D02*
X221865544Y-194771104D01*
X221865544Y-194771104D02*
X222044115Y-194866342D01*
X224282211Y-196009200D02*
X224556020Y-196104438D01*
X224556020Y-196104438D02*
X225032211Y-196104438D01*
X225032211Y-196104438D02*
X225234592Y-196009200D01*
X225234592Y-196009200D02*
X225341735Y-195913961D01*
X225341735Y-195913961D02*
X225460782Y-195723485D01*
X225460782Y-195723485D02*
X225484592Y-195533009D01*
X225484592Y-195533009D02*
X225413163Y-195342533D01*
X225413163Y-195342533D02*
X225329830Y-195247295D01*
X225329830Y-195247295D02*
X225151259Y-195152057D01*
X225151259Y-195152057D02*
X224782211Y-195056819D01*
X224782211Y-195056819D02*
X224603639Y-194961580D01*
X224603639Y-194961580D02*
X224520306Y-194866342D01*
X224520306Y-194866342D02*
X224448878Y-194675866D01*
X224448878Y-194675866D02*
X224472687Y-194485390D01*
X224472687Y-194485390D02*
X224591735Y-194294914D01*
X224591735Y-194294914D02*
X224698878Y-194199676D01*
X224698878Y-194199676D02*
X224901259Y-194104438D01*
X224901259Y-194104438D02*
X225377449Y-194104438D01*
X225377449Y-194104438D02*
X225651259Y-194199676D01*
X226246497Y-194771104D02*
X226556021Y-196104438D01*
X227198878Y-194771104D02*
X226556021Y-196104438D01*
X226556021Y-196104438D02*
X226306021Y-196580628D01*
X226306021Y-196580628D02*
X226198878Y-196675866D01*
X226198878Y-196675866D02*
X225996497Y-196771104D01*
X227710783Y-196009200D02*
X227889354Y-196104438D01*
X227889354Y-196104438D02*
X228270307Y-196104438D01*
X228270307Y-196104438D02*
X228472688Y-196009200D01*
X228472688Y-196009200D02*
X228591735Y-195818723D01*
X228591735Y-195818723D02*
X228603640Y-195723485D01*
X228603640Y-195723485D02*
X228532211Y-195533009D01*
X228532211Y-195533009D02*
X228353640Y-195437771D01*
X228353640Y-195437771D02*
X228067926Y-195437771D01*
X228067926Y-195437771D02*
X227889354Y-195342533D01*
X227889354Y-195342533D02*
X227817926Y-195152057D01*
X227817926Y-195152057D02*
X227829831Y-195056819D01*
X227829831Y-195056819D02*
X227948878Y-194866342D01*
X227948878Y-194866342D02*
X228151259Y-194771104D01*
X228151259Y-194771104D02*
X228436973Y-194771104D01*
X228436973Y-194771104D02*
X228615545Y-194866342D01*
X229294117Y-194771104D02*
X230056021Y-194771104D01*
X229663164Y-194104438D02*
X229448879Y-195818723D01*
X229448879Y-195818723D02*
X229520307Y-196009200D01*
X229520307Y-196009200D02*
X229698879Y-196104438D01*
X229698879Y-196104438D02*
X229889355Y-196104438D01*
X231329831Y-196009200D02*
X231127450Y-196104438D01*
X231127450Y-196104438D02*
X230746497Y-196104438D01*
X230746497Y-196104438D02*
X230567926Y-196009200D01*
X230567926Y-196009200D02*
X230496497Y-195818723D01*
X230496497Y-195818723D02*
X230591736Y-195056819D01*
X230591736Y-195056819D02*
X230710783Y-194866342D01*
X230710783Y-194866342D02*
X230913164Y-194771104D01*
X230913164Y-194771104D02*
X231294116Y-194771104D01*
X231294116Y-194771104D02*
X231472688Y-194866342D01*
X231472688Y-194866342D02*
X231544116Y-195056819D01*
X231544116Y-195056819D02*
X231520307Y-195247295D01*
X231520307Y-195247295D02*
X230544116Y-195437771D01*
X232270307Y-196104438D02*
X232436974Y-194771104D01*
X232413164Y-194961580D02*
X232520307Y-194866342D01*
X232520307Y-194866342D02*
X232722688Y-194771104D01*
X232722688Y-194771104D02*
X233008402Y-194771104D01*
X233008402Y-194771104D02*
X233186974Y-194866342D01*
X233186974Y-194866342D02*
X233258402Y-195056819D01*
X233258402Y-195056819D02*
X233127450Y-196104438D01*
X233258402Y-195056819D02*
X233377450Y-194866342D01*
X233377450Y-194866342D02*
X233579831Y-194771104D01*
X233579831Y-194771104D02*
X233865545Y-194771104D01*
X233865545Y-194771104D02*
X234044117Y-194866342D01*
X234044117Y-194866342D02*
X234115545Y-195056819D01*
X234115545Y-195056819D02*
X233984593Y-196104438D01*
D10*
D11*
X161355826Y-191500414D02*
X160855826Y-191500414D01*
X160855826Y-192286128D02*
X160855826Y-190786128D01*
X160855826Y-190786128D02*
X161570112Y-190786128D01*
X162141540Y-192286128D02*
X162141540Y-191286128D01*
X162141540Y-190786128D02*
X162070112Y-190857557D01*
X162070112Y-190857557D02*
X162141540Y-190928985D01*
X162141540Y-190928985D02*
X162212969Y-190857557D01*
X162212969Y-190857557D02*
X162141540Y-190786128D01*
X162141540Y-190786128D02*
X162141540Y-190928985D01*
X163070112Y-192286128D02*
X162927255Y-192214700D01*
X162927255Y-192214700D02*
X162855826Y-192071842D01*
X162855826Y-192071842D02*
X162855826Y-190786128D01*
X164212969Y-192214700D02*
X164070112Y-192286128D01*
X164070112Y-192286128D02*
X163784398Y-192286128D01*
X163784398Y-192286128D02*
X163641540Y-192214700D01*
X163641540Y-192214700D02*
X163570112Y-192071842D01*
X163570112Y-192071842D02*
X163570112Y-191500414D01*
X163570112Y-191500414D02*
X163641540Y-191357557D01*
X163641540Y-191357557D02*
X163784398Y-191286128D01*
X163784398Y-191286128D02*
X164070112Y-191286128D01*
X164070112Y-191286128D02*
X164212969Y-191357557D01*
X164212969Y-191357557D02*
X164284398Y-191500414D01*
X164284398Y-191500414D02*
X164284398Y-191643271D01*
X164284398Y-191643271D02*
X163570112Y-191786128D01*
X164927254Y-192143271D02*
X164998683Y-192214700D01*
X164998683Y-192214700D02*
X164927254Y-192286128D01*
X164927254Y-192286128D02*
X164855826Y-192214700D01*
X164855826Y-192214700D02*
X164927254Y-192143271D01*
X164927254Y-192143271D02*
X164927254Y-192286128D01*
X164927254Y-191357557D02*
X164998683Y-191428985D01*
X164998683Y-191428985D02*
X164927254Y-191500414D01*
X164927254Y-191500414D02*
X164855826Y-191428985D01*
X164855826Y-191428985D02*
X164927254Y-191357557D01*
X164927254Y-191357557D02*
X164927254Y-191500414D01*
X167427255Y-191286128D02*
X167427255Y-192500414D01*
X167427255Y-192500414D02*
X167355826Y-192643271D01*
X167355826Y-192643271D02*
X167284397Y-192714700D01*
X167284397Y-192714700D02*
X167141540Y-192786128D01*
X167141540Y-192786128D02*
X166927255Y-192786128D01*
X166927255Y-192786128D02*
X166784397Y-192714700D01*
X167427255Y-192214700D02*
X167284397Y-192286128D01*
X167284397Y-192286128D02*
X166998683Y-192286128D01*
X166998683Y-192286128D02*
X166855826Y-192214700D01*
X166855826Y-192214700D02*
X166784397Y-192143271D01*
X166784397Y-192143271D02*
X166712969Y-192000414D01*
X166712969Y-192000414D02*
X166712969Y-191571842D01*
X166712969Y-191571842D02*
X166784397Y-191428985D01*
X166784397Y-191428985D02*
X166855826Y-191357557D01*
X166855826Y-191357557D02*
X166998683Y-191286128D01*
X166998683Y-191286128D02*
X167284397Y-191286128D01*
X167284397Y-191286128D02*
X167427255Y-191357557D01*
X168070112Y-192214700D02*
X168212969Y-192286128D01*
X168212969Y-192286128D02*
X168498683Y-192286128D01*
X168498683Y-192286128D02*
X168641540Y-192214700D01*
X168641540Y-192214700D02*
X168712969Y-192071842D01*
X168712969Y-192071842D02*
X168712969Y-192000414D01*
X168712969Y-192000414D02*
X168641540Y-191857557D01*
X168641540Y-191857557D02*
X168498683Y-191786128D01*
X168498683Y-191786128D02*
X168284398Y-191786128D01*
X168284398Y-191786128D02*
X168141540Y-191714700D01*
X168141540Y-191714700D02*
X168070112Y-191571842D01*
X168070112Y-191571842D02*
X168070112Y-191500414D01*
X168070112Y-191500414D02*
X168141540Y-191357557D01*
X168141540Y-191357557D02*
X168284398Y-191286128D01*
X168284398Y-191286128D02*
X168498683Y-191286128D01*
X168498683Y-191286128D02*
X168641540Y-191357557D01*
X169355826Y-192286128D02*
X169355826Y-190786128D01*
X169998684Y-192286128D02*
X169998684Y-191500414D01*
X169998684Y-191500414D02*
X169927255Y-191357557D01*
X169927255Y-191357557D02*
X169784398Y-191286128D01*
X169784398Y-191286128D02*
X169570112Y-191286128D01*
X169570112Y-191286128D02*
X169427255Y-191357557D01*
X169427255Y-191357557D02*
X169355826Y-191428985D01*
X170712969Y-191286128D02*
X170712969Y-192786128D01*
X170712969Y-191357557D02*
X170855827Y-191286128D01*
X170855827Y-191286128D02*
X171141541Y-191286128D01*
X171141541Y-191286128D02*
X171284398Y-191357557D01*
X171284398Y-191357557D02*
X171355827Y-191428985D01*
X171355827Y-191428985D02*
X171427255Y-191571842D01*
X171427255Y-191571842D02*
X171427255Y-192000414D01*
X171427255Y-192000414D02*
X171355827Y-192143271D01*
X171355827Y-192143271D02*
X171284398Y-192214700D01*
X171284398Y-192214700D02*
X171141541Y-192286128D01*
X171141541Y-192286128D02*
X170855827Y-192286128D01*
X170855827Y-192286128D02*
X170712969Y-192214700D01*
X171998684Y-192214700D02*
X172141541Y-192286128D01*
X172141541Y-192286128D02*
X172427255Y-192286128D01*
X172427255Y-192286128D02*
X172570112Y-192214700D01*
X172570112Y-192214700D02*
X172641541Y-192071842D01*
X172641541Y-192071842D02*
X172641541Y-192000414D01*
X172641541Y-192000414D02*
X172570112Y-191857557D01*
X172570112Y-191857557D02*
X172427255Y-191786128D01*
X172427255Y-191786128D02*
X172212970Y-191786128D01*
X172212970Y-191786128D02*
X172070112Y-191714700D01*
X172070112Y-191714700D02*
X171998684Y-191571842D01*
X171998684Y-191571842D02*
X171998684Y-191500414D01*
X171998684Y-191500414D02*
X172070112Y-191357557D01*
X172070112Y-191357557D02*
X172212970Y-191286128D01*
X172212970Y-191286128D02*
X172427255Y-191286128D01*
X172427255Y-191286128D02*
X172570112Y-191357557D01*
X173284398Y-192143271D02*
X173355827Y-192214700D01*
X173355827Y-192214700D02*
X173284398Y-192286128D01*
X173284398Y-192286128D02*
X173212970Y-192214700D01*
X173212970Y-192214700D02*
X173284398Y-192143271D01*
X173284398Y-192143271D02*
X173284398Y-192286128D01*
X173998684Y-192286128D02*
X173998684Y-190786128D01*
X174141542Y-191714700D02*
X174570113Y-192286128D01*
X174570113Y-191286128D02*
X173998684Y-191857557D01*
X175212970Y-192286128D02*
X175212970Y-191286128D01*
X175212970Y-190786128D02*
X175141542Y-190857557D01*
X175141542Y-190857557D02*
X175212970Y-190928985D01*
X175212970Y-190928985D02*
X175284399Y-190857557D01*
X175284399Y-190857557D02*
X175212970Y-190786128D01*
X175212970Y-190786128D02*
X175212970Y-190928985D01*
X176570114Y-192214700D02*
X176427256Y-192286128D01*
X176427256Y-192286128D02*
X176141542Y-192286128D01*
X176141542Y-192286128D02*
X175998685Y-192214700D01*
X175998685Y-192214700D02*
X175927256Y-192143271D01*
X175927256Y-192143271D02*
X175855828Y-192000414D01*
X175855828Y-192000414D02*
X175855828Y-191571842D01*
X175855828Y-191571842D02*
X175927256Y-191428985D01*
X175927256Y-191428985D02*
X175998685Y-191357557D01*
X175998685Y-191357557D02*
X176141542Y-191286128D01*
X176141542Y-191286128D02*
X176427256Y-191286128D01*
X176427256Y-191286128D02*
X176570114Y-191357557D01*
X177855828Y-192286128D02*
X177855828Y-191500414D01*
X177855828Y-191500414D02*
X177784399Y-191357557D01*
X177784399Y-191357557D02*
X177641542Y-191286128D01*
X177641542Y-191286128D02*
X177355828Y-191286128D01*
X177355828Y-191286128D02*
X177212970Y-191357557D01*
X177855828Y-192214700D02*
X177712970Y-192286128D01*
X177712970Y-192286128D02*
X177355828Y-192286128D01*
X177355828Y-192286128D02*
X177212970Y-192214700D01*
X177212970Y-192214700D02*
X177141542Y-192071842D01*
X177141542Y-192071842D02*
X177141542Y-191928985D01*
X177141542Y-191928985D02*
X177212970Y-191786128D01*
X177212970Y-191786128D02*
X177355828Y-191714700D01*
X177355828Y-191714700D02*
X177712970Y-191714700D01*
X177712970Y-191714700D02*
X177855828Y-191643271D01*
X179212971Y-192286128D02*
X179212971Y-190786128D01*
X179212971Y-192214700D02*
X179070113Y-192286128D01*
X179070113Y-192286128D02*
X178784399Y-192286128D01*
X178784399Y-192286128D02*
X178641542Y-192214700D01*
X178641542Y-192214700D02*
X178570113Y-192143271D01*
X178570113Y-192143271D02*
X178498685Y-192000414D01*
X178498685Y-192000414D02*
X178498685Y-191571842D01*
X178498685Y-191571842D02*
X178570113Y-191428985D01*
X178570113Y-191428985D02*
X178641542Y-191357557D01*
X178641542Y-191357557D02*
X178784399Y-191286128D01*
X178784399Y-191286128D02*
X179070113Y-191286128D01*
X179070113Y-191286128D02*
X179212971Y-191357557D01*
X179570114Y-192428985D02*
X180712971Y-192428985D01*
X181070113Y-191286128D02*
X181070113Y-192786128D01*
X181070113Y-191357557D02*
X181212971Y-191286128D01*
X181212971Y-191286128D02*
X181498685Y-191286128D01*
X181498685Y-191286128D02*
X181641542Y-191357557D01*
X181641542Y-191357557D02*
X181712971Y-191428985D01*
X181712971Y-191428985D02*
X181784399Y-191571842D01*
X181784399Y-191571842D02*
X181784399Y-192000414D01*
X181784399Y-192000414D02*
X181712971Y-192143271D01*
X181712971Y-192143271D02*
X181641542Y-192214700D01*
X181641542Y-192214700D02*
X181498685Y-192286128D01*
X181498685Y-192286128D02*
X181212971Y-192286128D01*
X181212971Y-192286128D02*
X181070113Y-192214700D01*
X183070114Y-192214700D02*
X182927256Y-192286128D01*
X182927256Y-192286128D02*
X182641542Y-192286128D01*
X182641542Y-192286128D02*
X182498685Y-192214700D01*
X182498685Y-192214700D02*
X182427256Y-192143271D01*
X182427256Y-192143271D02*
X182355828Y-192000414D01*
X182355828Y-192000414D02*
X182355828Y-191571842D01*
X182355828Y-191571842D02*
X182427256Y-191428985D01*
X182427256Y-191428985D02*
X182498685Y-191357557D01*
X182498685Y-191357557D02*
X182641542Y-191286128D01*
X182641542Y-191286128D02*
X182927256Y-191286128D01*
X182927256Y-191286128D02*
X183070114Y-191357557D01*
X183712970Y-192286128D02*
X183712970Y-190786128D01*
X183712970Y-191357557D02*
X183855828Y-191286128D01*
X183855828Y-191286128D02*
X184141542Y-191286128D01*
X184141542Y-191286128D02*
X184284399Y-191357557D01*
X184284399Y-191357557D02*
X184355828Y-191428985D01*
X184355828Y-191428985D02*
X184427256Y-191571842D01*
X184427256Y-191571842D02*
X184427256Y-192000414D01*
X184427256Y-192000414D02*
X184355828Y-192143271D01*
X184355828Y-192143271D02*
X184284399Y-192214700D01*
X184284399Y-192214700D02*
X184141542Y-192286128D01*
X184141542Y-192286128D02*
X183855828Y-192286128D01*
X183855828Y-192286128D02*
X183712970Y-192214700D01*
D10*
D11*
X159400000Y-187400000D02*
X267400000Y-187400000D01*
D10*
D11*
X160784398Y-189514700D02*
X160998684Y-189586128D01*
X160998684Y-189586128D02*
X161355826Y-189586128D01*
X161355826Y-189586128D02*
X161498684Y-189514700D01*
X161498684Y-189514700D02*
X161570112Y-189443271D01*
X161570112Y-189443271D02*
X161641541Y-189300414D01*
X161641541Y-189300414D02*
X161641541Y-189157557D01*
X161641541Y-189157557D02*
X161570112Y-189014700D01*
X161570112Y-189014700D02*
X161498684Y-188943271D01*
X161498684Y-188943271D02*
X161355826Y-188871842D01*
X161355826Y-188871842D02*
X161070112Y-188800414D01*
X161070112Y-188800414D02*
X160927255Y-188728985D01*
X160927255Y-188728985D02*
X160855826Y-188657557D01*
X160855826Y-188657557D02*
X160784398Y-188514700D01*
X160784398Y-188514700D02*
X160784398Y-188371842D01*
X160784398Y-188371842D02*
X160855826Y-188228985D01*
X160855826Y-188228985D02*
X160927255Y-188157557D01*
X160927255Y-188157557D02*
X161070112Y-188086128D01*
X161070112Y-188086128D02*
X161427255Y-188086128D01*
X161427255Y-188086128D02*
X161641541Y-188157557D01*
X162284397Y-189586128D02*
X162284397Y-188086128D01*
X162927255Y-189586128D02*
X162927255Y-188800414D01*
X162927255Y-188800414D02*
X162855826Y-188657557D01*
X162855826Y-188657557D02*
X162712969Y-188586128D01*
X162712969Y-188586128D02*
X162498683Y-188586128D01*
X162498683Y-188586128D02*
X162355826Y-188657557D01*
X162355826Y-188657557D02*
X162284397Y-188728985D01*
X164212969Y-189514700D02*
X164070112Y-189586128D01*
X164070112Y-189586128D02*
X163784398Y-189586128D01*
X163784398Y-189586128D02*
X163641540Y-189514700D01*
X163641540Y-189514700D02*
X163570112Y-189371842D01*
X163570112Y-189371842D02*
X163570112Y-188800414D01*
X163570112Y-188800414D02*
X163641540Y-188657557D01*
X163641540Y-188657557D02*
X163784398Y-188586128D01*
X163784398Y-188586128D02*
X164070112Y-188586128D01*
X164070112Y-188586128D02*
X164212969Y-188657557D01*
X164212969Y-188657557D02*
X164284398Y-188800414D01*
X164284398Y-188800414D02*
X164284398Y-188943271D01*
X164284398Y-188943271D02*
X163570112Y-189086128D01*
X165498683Y-189514700D02*
X165355826Y-189586128D01*
X165355826Y-189586128D02*
X165070112Y-189586128D01*
X165070112Y-189586128D02*
X164927254Y-189514700D01*
X164927254Y-189514700D02*
X164855826Y-189371842D01*
X164855826Y-189371842D02*
X164855826Y-188800414D01*
X164855826Y-188800414D02*
X164927254Y-188657557D01*
X164927254Y-188657557D02*
X165070112Y-188586128D01*
X165070112Y-188586128D02*
X165355826Y-188586128D01*
X165355826Y-188586128D02*
X165498683Y-188657557D01*
X165498683Y-188657557D02*
X165570112Y-188800414D01*
X165570112Y-188800414D02*
X165570112Y-188943271D01*
X165570112Y-188943271D02*
X164855826Y-189086128D01*
X165998683Y-188586128D02*
X166570111Y-188586128D01*
X166212968Y-188086128D02*
X166212968Y-189371842D01*
X166212968Y-189371842D02*
X166284397Y-189514700D01*
X166284397Y-189514700D02*
X166427254Y-189586128D01*
X166427254Y-189586128D02*
X166570111Y-189586128D01*
X167070111Y-189443271D02*
X167141540Y-189514700D01*
X167141540Y-189514700D02*
X167070111Y-189586128D01*
X167070111Y-189586128D02*
X166998683Y-189514700D01*
X166998683Y-189514700D02*
X167070111Y-189443271D01*
X167070111Y-189443271D02*
X167070111Y-189586128D01*
X167070111Y-188657557D02*
X167141540Y-188728985D01*
X167141540Y-188728985D02*
X167070111Y-188800414D01*
X167070111Y-188800414D02*
X166998683Y-188728985D01*
X166998683Y-188728985D02*
X167070111Y-188657557D01*
X167070111Y-188657557D02*
X167070111Y-188800414D01*
D10*
D12*
X160954510Y-186578328D02*
X160954510Y-185078328D01*
X160954510Y-185078328D02*
X161525939Y-185078328D01*
X161525939Y-185078328D02*
X161668796Y-185149757D01*
X161668796Y-185149757D02*
X161740225Y-185221185D01*
X161740225Y-185221185D02*
X161811653Y-185364042D01*
X161811653Y-185364042D02*
X161811653Y-185578328D01*
X161811653Y-185578328D02*
X161740225Y-185721185D01*
X161740225Y-185721185D02*
X161668796Y-185792614D01*
X161668796Y-185792614D02*
X161525939Y-185864042D01*
X161525939Y-185864042D02*
X160954510Y-185864042D01*
X163097368Y-186578328D02*
X163097368Y-185792614D01*
X163097368Y-185792614D02*
X163025939Y-185649757D01*
X163025939Y-185649757D02*
X162883082Y-185578328D01*
X162883082Y-185578328D02*
X162597368Y-185578328D01*
X162597368Y-185578328D02*
X162454510Y-185649757D01*
X163097368Y-186506900D02*
X162954510Y-186578328D01*
X162954510Y-186578328D02*
X162597368Y-186578328D01*
X162597368Y-186578328D02*
X162454510Y-186506900D01*
X162454510Y-186506900D02*
X162383082Y-186364042D01*
X162383082Y-186364042D02*
X162383082Y-186221185D01*
X162383082Y-186221185D02*
X162454510Y-186078328D01*
X162454510Y-186078328D02*
X162597368Y-186006900D01*
X162597368Y-186006900D02*
X162954510Y-186006900D01*
X162954510Y-186006900D02*
X163097368Y-185935471D01*
X163811653Y-185578328D02*
X163811653Y-186578328D01*
X163811653Y-185721185D02*
X163883082Y-185649757D01*
X163883082Y-185649757D02*
X164025939Y-185578328D01*
X164025939Y-185578328D02*
X164240225Y-185578328D01*
X164240225Y-185578328D02*
X164383082Y-185649757D01*
X164383082Y-185649757D02*
X164454511Y-185792614D01*
X164454511Y-185792614D02*
X164454511Y-186578328D01*
X164954511Y-185578328D02*
X165525939Y-185578328D01*
X165168796Y-185078328D02*
X165168796Y-186364042D01*
X165168796Y-186364042D02*
X165240225Y-186506900D01*
X165240225Y-186506900D02*
X165383082Y-186578328D01*
X165383082Y-186578328D02*
X165525939Y-186578328D01*
X165954511Y-186506900D02*
X166097368Y-186578328D01*
X166097368Y-186578328D02*
X166383082Y-186578328D01*
X166383082Y-186578328D02*
X166525939Y-186506900D01*
X166525939Y-186506900D02*
X166597368Y-186364042D01*
X166597368Y-186364042D02*
X166597368Y-186292614D01*
X166597368Y-186292614D02*
X166525939Y-186149757D01*
X166525939Y-186149757D02*
X166383082Y-186078328D01*
X166383082Y-186078328D02*
X166168797Y-186078328D01*
X166168797Y-186078328D02*
X166025939Y-186006900D01*
X166025939Y-186006900D02*
X165954511Y-185864042D01*
X165954511Y-185864042D02*
X165954511Y-185792614D01*
X165954511Y-185792614D02*
X166025939Y-185649757D01*
X166025939Y-185649757D02*
X166168797Y-185578328D01*
X166168797Y-185578328D02*
X166383082Y-185578328D01*
X166383082Y-185578328D02*
X166525939Y-185649757D01*
X168168797Y-185578328D02*
X168740225Y-185578328D01*
X168383082Y-186578328D02*
X168383082Y-185292614D01*
X168383082Y-185292614D02*
X168454511Y-185149757D01*
X168454511Y-185149757D02*
X168597368Y-185078328D01*
X168597368Y-185078328D02*
X168740225Y-185078328D01*
X169454511Y-186578328D02*
X169311654Y-186506900D01*
X169311654Y-186506900D02*
X169240225Y-186435471D01*
X169240225Y-186435471D02*
X169168797Y-186292614D01*
X169168797Y-186292614D02*
X169168797Y-185864042D01*
X169168797Y-185864042D02*
X169240225Y-185721185D01*
X169240225Y-185721185D02*
X169311654Y-185649757D01*
X169311654Y-185649757D02*
X169454511Y-185578328D01*
X169454511Y-185578328D02*
X169668797Y-185578328D01*
X169668797Y-185578328D02*
X169811654Y-185649757D01*
X169811654Y-185649757D02*
X169883083Y-185721185D01*
X169883083Y-185721185D02*
X169954511Y-185864042D01*
X169954511Y-185864042D02*
X169954511Y-186292614D01*
X169954511Y-186292614D02*
X169883083Y-186435471D01*
X169883083Y-186435471D02*
X169811654Y-186506900D01*
X169811654Y-186506900D02*
X169668797Y-186578328D01*
X169668797Y-186578328D02*
X169454511Y-186578328D01*
X170597368Y-186578328D02*
X170597368Y-185578328D01*
X170597368Y-185864042D02*
X170668797Y-185721185D01*
X170668797Y-185721185D02*
X170740226Y-185649757D01*
X170740226Y-185649757D02*
X170883083Y-185578328D01*
X170883083Y-185578328D02*
X171025940Y-185578328D01*
X173168796Y-185792614D02*
X173383082Y-185864042D01*
X173383082Y-185864042D02*
X173454511Y-185935471D01*
X173454511Y-185935471D02*
X173525939Y-186078328D01*
X173525939Y-186078328D02*
X173525939Y-186292614D01*
X173525939Y-186292614D02*
X173454511Y-186435471D01*
X173454511Y-186435471D02*
X173383082Y-186506900D01*
X173383082Y-186506900D02*
X173240225Y-186578328D01*
X173240225Y-186578328D02*
X172668796Y-186578328D01*
X172668796Y-186578328D02*
X172668796Y-185078328D01*
X172668796Y-185078328D02*
X173168796Y-185078328D01*
X173168796Y-185078328D02*
X173311654Y-185149757D01*
X173311654Y-185149757D02*
X173383082Y-185221185D01*
X173383082Y-185221185D02*
X173454511Y-185364042D01*
X173454511Y-185364042D02*
X173454511Y-185506900D01*
X173454511Y-185506900D02*
X173383082Y-185649757D01*
X173383082Y-185649757D02*
X173311654Y-185721185D01*
X173311654Y-185721185D02*
X173168796Y-185792614D01*
X173168796Y-185792614D02*
X172668796Y-185792614D01*
X174168796Y-186578328D02*
X174168796Y-185578328D01*
X174168796Y-185078328D02*
X174097368Y-185149757D01*
X174097368Y-185149757D02*
X174168796Y-185221185D01*
X174168796Y-185221185D02*
X174240225Y-185149757D01*
X174240225Y-185149757D02*
X174168796Y-185078328D01*
X174168796Y-185078328D02*
X174168796Y-185221185D01*
X174883082Y-186578328D02*
X174883082Y-185578328D01*
X174883082Y-185864042D02*
X174954511Y-185721185D01*
X174954511Y-185721185D02*
X175025940Y-185649757D01*
X175025940Y-185649757D02*
X175168797Y-185578328D01*
X175168797Y-185578328D02*
X175311654Y-185578328D01*
X176454511Y-186578328D02*
X176454511Y-185078328D01*
X176454511Y-186506900D02*
X176311653Y-186578328D01*
X176311653Y-186578328D02*
X176025939Y-186578328D01*
X176025939Y-186578328D02*
X175883082Y-186506900D01*
X175883082Y-186506900D02*
X175811653Y-186435471D01*
X175811653Y-186435471D02*
X175740225Y-186292614D01*
X175740225Y-186292614D02*
X175740225Y-185864042D01*
X175740225Y-185864042D02*
X175811653Y-185721185D01*
X175811653Y-185721185D02*
X175883082Y-185649757D01*
X175883082Y-185649757D02*
X176025939Y-185578328D01*
X176025939Y-185578328D02*
X176311653Y-185578328D01*
X176311653Y-185578328D02*
X176454511Y-185649757D01*
X177097368Y-186506900D02*
X177240225Y-186578328D01*
X177240225Y-186578328D02*
X177525939Y-186578328D01*
X177525939Y-186578328D02*
X177668796Y-186506900D01*
X177668796Y-186506900D02*
X177740225Y-186364042D01*
X177740225Y-186364042D02*
X177740225Y-186292614D01*
X177740225Y-186292614D02*
X177668796Y-186149757D01*
X177668796Y-186149757D02*
X177525939Y-186078328D01*
X177525939Y-186078328D02*
X177311654Y-186078328D01*
X177311654Y-186078328D02*
X177168796Y-186006900D01*
X177168796Y-186006900D02*
X177097368Y-185864042D01*
X177097368Y-185864042D02*
X177097368Y-185792614D01*
X177097368Y-185792614D02*
X177168796Y-185649757D01*
X177168796Y-185649757D02*
X177311654Y-185578328D01*
X177311654Y-185578328D02*
X177525939Y-185578328D01*
X177525939Y-185578328D02*
X177668796Y-185649757D01*
D10*
D11*
D10*
D11*
D10*
D11*
D10*
D11*
D10*
D11*
X179400000Y-197400000D02*
X179400000Y-200400000D01*
D10*
D11*
X243400000Y-197400000D02*
X243400000Y-203900000D01*
X118700000Y-68350000D02*
X119600000Y-68350000D01*
X119600000Y-70250000D01*
X118700000Y-70250000D01*
X118700000Y-68350000D01*
G36*
X118700000Y-68350000D02*
G01*
X119600000Y-68350000D01*
X119600000Y-70250000D01*
X118700000Y-70250000D01*
X118700000Y-68350000D01*
G37*
X114300000Y-68300000D02*
X115200000Y-68300000D01*
X115200000Y-70200000D01*
X114300000Y-70200000D01*
X114300000Y-68300000D01*
G36*
X114300000Y-68300000D02*
G01*
X115200000Y-68300000D01*
X115200000Y-70200000D01*
X114300000Y-70200000D01*
X114300000Y-68300000D01*
G37*
D10*
X125500000Y-33500000D02*
X125627000Y-33373000D01*
X125881000Y-33373000D01*
X126008000Y-33500000D01*
X126008000Y-33754000D01*
X125500000Y-34516000D01*
X124992000Y-33754000D01*
X124992000Y-33500000D01*
X125119000Y-33373000D01*
X125246000Y-33373000D01*
X125373000Y-33373000D01*
X125500000Y-33500000D01*
G36*
X125500000Y-33500000D02*
G01*
X125627000Y-33373000D01*
X125881000Y-33373000D01*
X126008000Y-33500000D01*
X126008000Y-33754000D01*
X125500000Y-34516000D01*
X124992000Y-33754000D01*
X124992000Y-33500000D01*
X125119000Y-33373000D01*
X125246000Y-33373000D01*
X125373000Y-33373000D01*
X125500000Y-33500000D01*
G37*
D14*
G36*
X119936554Y-61288703D02*
G01*
X119961223Y-61313371D01*
X119991028Y-61372981D01*
X119991028Y-61630326D01*
X119667219Y-61630326D01*
X119667219Y-61372981D01*
X119697024Y-61313371D01*
X119721692Y-61288702D01*
X119781302Y-61258898D01*
X119876945Y-61258898D01*
X119936554Y-61288703D01*
G37*
G36*
X120181504Y-59734440D02*
G01*
X119883446Y-59635088D01*
X120181504Y-59535735D01*
X120181504Y-59734440D01*
G37*
G36*
X120294218Y-58538963D02*
G01*
X120365127Y-58574417D01*
X120432197Y-58641487D01*
X120467218Y-58746552D01*
X120467219Y-58868421D01*
X119667219Y-58868421D01*
X119667218Y-58746553D01*
X119702240Y-58641488D01*
X119769313Y-58574415D01*
X119840218Y-58538963D01*
X120008099Y-58496993D01*
X120126337Y-58496993D01*
X120294218Y-58538963D01*
G37*
G36*
X120810076Y-61973183D02*
G01*
X119324362Y-61973183D01*
X119324362Y-61730326D01*
X119467219Y-61730326D01*
X119472113Y-61745388D01*
X119472113Y-61761228D01*
X119481422Y-61774041D01*
X119486317Y-61789105D01*
X119499130Y-61798414D01*
X119508440Y-61811228D01*
X119523503Y-61816122D01*
X119536317Y-61825432D01*
X119552156Y-61825432D01*
X119567219Y-61830326D01*
X120567219Y-61830326D01*
X120625998Y-61811228D01*
X120662325Y-61761228D01*
X120662325Y-61699424D01*
X120625998Y-61649424D01*
X120567219Y-61630326D01*
X120191028Y-61630326D01*
X120191027Y-61544296D01*
X120624565Y-61240821D01*
X120661767Y-61191468D01*
X120662854Y-61129674D01*
X120627412Y-61079042D01*
X120568979Y-61058913D01*
X120509873Y-61076975D01*
X120180866Y-61307278D01*
X120180471Y-61304652D01*
X120132852Y-61209415D01*
X120121477Y-61197866D01*
X120114119Y-61183425D01*
X120066501Y-61135806D01*
X120052058Y-61128447D01*
X120040511Y-61117074D01*
X119945273Y-61069455D01*
X119922475Y-61066021D01*
X119900552Y-61058898D01*
X119757695Y-61058898D01*
X119735771Y-61066021D01*
X119712973Y-61069455D01*
X119617736Y-61117074D01*
X119606187Y-61128448D01*
X119591746Y-61135807D01*
X119544127Y-61183425D01*
X119536768Y-61197867D01*
X119525395Y-61209415D01*
X119477776Y-61304653D01*
X119474342Y-61327450D01*
X119467219Y-61349374D01*
X119467219Y-61730326D01*
X119324362Y-61730326D01*
X119324362Y-60730326D01*
X119467219Y-60730326D01*
X119472113Y-60745388D01*
X119472113Y-60761228D01*
X119481422Y-60774041D01*
X119486317Y-60789105D01*
X119499130Y-60798414D01*
X119508440Y-60811228D01*
X119523503Y-60816122D01*
X119536317Y-60825432D01*
X119552156Y-60825432D01*
X119567219Y-60830326D01*
X120567219Y-60830326D01*
X120582282Y-60825432D01*
X120598121Y-60825432D01*
X120610934Y-60816122D01*
X120625998Y-60811228D01*
X120635307Y-60798414D01*
X120648121Y-60789105D01*
X120653015Y-60774041D01*
X120662325Y-60761228D01*
X120662325Y-60745388D01*
X120667219Y-60730326D01*
X120667219Y-60254136D01*
X120648121Y-60195357D01*
X120598121Y-60159030D01*
X120536317Y-60159030D01*
X120486317Y-60195357D01*
X120467219Y-60254136D01*
X120467219Y-60630326D01*
X120143409Y-60630326D01*
X120143409Y-60396993D01*
X120124311Y-60338214D01*
X120074311Y-60301887D01*
X120012507Y-60301887D01*
X119962507Y-60338214D01*
X119943409Y-60396993D01*
X119943409Y-60630326D01*
X119667219Y-60630326D01*
X119667219Y-60254136D01*
X119648121Y-60195357D01*
X119598121Y-60159030D01*
X119536317Y-60159030D01*
X119486317Y-60195357D01*
X119467219Y-60254136D01*
X119467219Y-60730326D01*
X119324362Y-60730326D01*
X119324362Y-59635847D01*
X119467221Y-59635847D01*
X119476757Y-59664456D01*
X119485873Y-59693251D01*
X119486514Y-59693724D01*
X119486766Y-59694479D01*
X119511317Y-59712033D01*
X119535596Y-59729956D01*
X120535596Y-60063289D01*
X120597398Y-60063759D01*
X120647672Y-60027812D01*
X120667216Y-59969180D01*
X120648565Y-59910258D01*
X120598841Y-59873553D01*
X120381504Y-59801107D01*
X120381504Y-59469068D01*
X120598841Y-59396623D01*
X120648565Y-59359918D01*
X120667216Y-59300996D01*
X120647672Y-59242364D01*
X120597398Y-59206417D01*
X120535596Y-59206887D01*
X119535596Y-59540220D01*
X119511317Y-59558142D01*
X119486766Y-59575697D01*
X119486514Y-59576451D01*
X119485873Y-59576925D01*
X119476757Y-59605719D01*
X119467221Y-59634329D01*
X119467461Y-59635088D01*
X119467221Y-59635847D01*
X119324362Y-59635847D01*
X119324362Y-58968421D01*
X119467219Y-58968421D01*
X119472113Y-58983483D01*
X119472113Y-58999323D01*
X119481422Y-59012136D01*
X119486317Y-59027200D01*
X119499130Y-59036509D01*
X119508440Y-59049323D01*
X119523503Y-59054217D01*
X119536317Y-59063527D01*
X119552156Y-59063527D01*
X119567219Y-59068421D01*
X120567219Y-59068421D01*
X120582282Y-59063527D01*
X120598121Y-59063527D01*
X120610934Y-59054217D01*
X120625998Y-59049323D01*
X120635307Y-59036509D01*
X120648121Y-59027200D01*
X120653015Y-59012136D01*
X120662325Y-58999323D01*
X120662325Y-58983483D01*
X120667219Y-58968421D01*
X120667219Y-58730326D01*
X120662210Y-58714910D01*
X120662087Y-58698703D01*
X120614468Y-58555846D01*
X120600779Y-58537302D01*
X120590311Y-58516758D01*
X120495071Y-58421520D01*
X120480630Y-58414162D01*
X120469082Y-58402788D01*
X120373844Y-58355169D01*
X120362822Y-58353508D01*
X120353376Y-58347598D01*
X120162901Y-58299979D01*
X120150484Y-58300839D01*
X120138647Y-58296993D01*
X119995790Y-58296993D01*
X119983952Y-58300839D01*
X119971536Y-58299979D01*
X119781060Y-58347598D01*
X119771613Y-58353508D01*
X119760592Y-58355169D01*
X119665355Y-58402788D01*
X119653807Y-58414161D01*
X119639365Y-58421520D01*
X119544127Y-58516758D01*
X119533659Y-58537301D01*
X119519970Y-58555847D01*
X119472351Y-58698703D01*
X119472227Y-58714910D01*
X119467219Y-58730326D01*
X119467219Y-58968421D01*
X119324362Y-58968421D01*
X119324362Y-58136267D01*
X119470391Y-58136267D01*
X119503572Y-58188409D01*
X119561064Y-58211089D01*
X119620907Y-58195644D01*
X120120148Y-57877945D01*
X120567219Y-57877945D01*
X120625998Y-57858847D01*
X120662325Y-57808847D01*
X120662325Y-57747043D01*
X120625998Y-57697043D01*
X120567219Y-57677945D01*
X120120148Y-57677945D01*
X119620907Y-57360246D01*
X119561064Y-57344801D01*
X119503572Y-57367481D01*
X119470391Y-57419623D01*
X119474195Y-57481309D01*
X119513531Y-57528978D01*
X119904765Y-57777945D01*
X119513531Y-58026912D01*
X119474195Y-58074581D01*
X119470391Y-58136267D01*
X119324362Y-58136267D01*
X119324362Y-57201944D01*
X120810076Y-57201944D01*
X120810076Y-61973183D01*
G37*
G36*
X113881504Y-59491583D02*
G01*
X113583445Y-59392230D01*
X113881504Y-59292878D01*
X113881504Y-59491583D01*
G37*
G36*
X113636554Y-58283941D02*
G01*
X113661223Y-58308609D01*
X113691028Y-58368219D01*
X113691028Y-58625564D01*
X113367219Y-58625564D01*
X113367219Y-58368219D01*
X113397024Y-58308609D01*
X113421692Y-58283940D01*
X113481302Y-58254136D01*
X113576945Y-58254136D01*
X113636554Y-58283941D01*
G37*
G36*
X114510076Y-61920802D02*
G01*
X113024362Y-61920802D01*
X113024362Y-61344612D01*
X113167219Y-61344612D01*
X113172227Y-61360027D01*
X113172351Y-61376235D01*
X113219970Y-61519091D01*
X113233659Y-61537636D01*
X113244127Y-61558180D01*
X113339365Y-61653418D01*
X113353807Y-61660776D01*
X113365355Y-61672150D01*
X113460592Y-61719769D01*
X113471613Y-61721429D01*
X113481060Y-61727340D01*
X113671536Y-61774959D01*
X113683952Y-61774098D01*
X113695790Y-61777945D01*
X113838647Y-61777945D01*
X113850484Y-61774098D01*
X113862901Y-61774959D01*
X114053376Y-61727340D01*
X114062822Y-61721429D01*
X114073844Y-61719769D01*
X114169082Y-61672150D01*
X114180630Y-61660775D01*
X114195071Y-61653418D01*
X114290311Y-61558180D01*
X114300779Y-61537635D01*
X114314468Y-61519092D01*
X114362087Y-61376235D01*
X114362210Y-61360027D01*
X114367219Y-61344612D01*
X114367219Y-61249374D01*
X114362210Y-61233958D01*
X114362087Y-61217751D01*
X114314468Y-61074894D01*
X114300776Y-61056347D01*
X114290310Y-61035805D01*
X114242690Y-60988187D01*
X114187622Y-60960128D01*
X114126580Y-60969797D01*
X114082878Y-61013500D01*
X114073211Y-61074542D01*
X114101270Y-61129609D01*
X114132197Y-61160535D01*
X114167219Y-61265600D01*
X114167219Y-61328385D01*
X114132197Y-61433450D01*
X114065127Y-61500520D01*
X113994218Y-61535974D01*
X113826337Y-61577945D01*
X113708099Y-61577945D01*
X113540218Y-61535974D01*
X113469313Y-61500522D01*
X113402240Y-61433449D01*
X113367219Y-61328384D01*
X113367219Y-61265600D01*
X113402240Y-61160535D01*
X113433167Y-61129609D01*
X113461226Y-61074542D01*
X113451558Y-61013499D01*
X113407856Y-60969797D01*
X113346813Y-60960129D01*
X113291746Y-60988188D01*
X113244127Y-61035806D01*
X113233659Y-61056349D01*
X113219970Y-61074895D01*
X113172351Y-61217751D01*
X113172227Y-61233958D01*
X113167219Y-61249374D01*
X113167219Y-61344612D01*
X113024362Y-61344612D01*
X113024362Y-60661228D01*
X113172113Y-60661228D01*
X113208440Y-60711228D01*
X113267219Y-60730326D01*
X114267219Y-60730326D01*
X114325998Y-60711228D01*
X114362325Y-60661228D01*
X114362325Y-60599424D01*
X114325998Y-60549424D01*
X114267219Y-60530326D01*
X113843409Y-60530326D01*
X113843409Y-60158898D01*
X114267219Y-60158898D01*
X114325998Y-60139800D01*
X114362325Y-60089800D01*
X114362325Y-60027996D01*
X114325998Y-59977996D01*
X114267219Y-59958898D01*
X113267219Y-59958898D01*
X113208440Y-59977996D01*
X113172113Y-60027996D01*
X113172113Y-60089800D01*
X113208440Y-60139800D01*
X113267219Y-60158898D01*
X113643409Y-60158898D01*
X113643409Y-60530326D01*
X113267219Y-60530326D01*
X113208440Y-60549424D01*
X113172113Y-60599424D01*
X113172113Y-60661228D01*
X113024362Y-60661228D01*
X113024362Y-59392990D01*
X113167221Y-59392990D01*
X113176757Y-59421599D01*
X113185873Y-59450394D01*
X113186514Y-59450867D01*
X113186766Y-59451622D01*
X113211317Y-59469176D01*
X113235596Y-59487099D01*
X114235596Y-59820432D01*
X114297398Y-59820902D01*
X114347672Y-59784955D01*
X114367216Y-59726323D01*
X114348565Y-59667401D01*
X114298841Y-59630696D01*
X114081504Y-59558250D01*
X114081504Y-59226211D01*
X114298841Y-59153766D01*
X114348565Y-59117061D01*
X114367216Y-59058139D01*
X114347672Y-58999507D01*
X114297398Y-58963560D01*
X114235596Y-58964030D01*
X113235596Y-59297363D01*
X113211317Y-59315285D01*
X113186766Y-59332840D01*
X113186514Y-59333594D01*
X113185873Y-59334068D01*
X113176757Y-59362862D01*
X113167221Y-59391472D01*
X113167461Y-59392230D01*
X113167221Y-59392990D01*
X113024362Y-59392990D01*
X113024362Y-58725564D01*
X113167219Y-58725564D01*
X113172113Y-58740626D01*
X113172113Y-58756466D01*
X113181422Y-58769279D01*
X113186317Y-58784343D01*
X113199130Y-58793652D01*
X113208440Y-58806466D01*
X113223503Y-58811360D01*
X113236317Y-58820670D01*
X113252156Y-58820670D01*
X113267219Y-58825564D01*
X114267219Y-58825564D01*
X114325998Y-58806466D01*
X114362325Y-58756466D01*
X114362325Y-58694662D01*
X114325998Y-58644662D01*
X114267219Y-58625564D01*
X113891028Y-58625564D01*
X113891028Y-58539534D01*
X114324565Y-58236059D01*
X114361767Y-58186706D01*
X114362854Y-58124912D01*
X114327412Y-58074280D01*
X114268979Y-58054151D01*
X114209873Y-58072213D01*
X113880866Y-58302516D01*
X113880471Y-58299890D01*
X113832852Y-58204653D01*
X113821477Y-58193104D01*
X113814119Y-58178663D01*
X113766501Y-58131044D01*
X113752058Y-58123685D01*
X113740511Y-58112312D01*
X113645273Y-58064693D01*
X113622475Y-58061259D01*
X113600552Y-58054136D01*
X113457695Y-58054136D01*
X113435771Y-58061259D01*
X113412973Y-58064693D01*
X113317736Y-58112312D01*
X113306187Y-58123686D01*
X113291746Y-58131045D01*
X113244127Y-58178663D01*
X113236768Y-58193105D01*
X113225395Y-58204653D01*
X113177776Y-58299891D01*
X113174342Y-58322688D01*
X113167219Y-58344612D01*
X113167219Y-58725564D01*
X113024362Y-58725564D01*
X113024362Y-57439850D01*
X113167219Y-57439850D01*
X113172227Y-57455265D01*
X113172351Y-57471473D01*
X113219970Y-57614329D01*
X113233659Y-57632874D01*
X113244127Y-57653418D01*
X113339365Y-57748656D01*
X113353807Y-57756014D01*
X113365355Y-57767388D01*
X113460592Y-57815007D01*
X113471613Y-57816667D01*
X113481060Y-57822578D01*
X113671536Y-57870197D01*
X113683952Y-57869336D01*
X113695790Y-57873183D01*
X113838647Y-57873183D01*
X113850484Y-57869336D01*
X113862901Y-57870197D01*
X114053376Y-57822578D01*
X114062822Y-57816667D01*
X114073844Y-57815007D01*
X114169082Y-57767388D01*
X114180630Y-57756013D01*
X114195071Y-57748656D01*
X114290311Y-57653418D01*
X114300779Y-57632873D01*
X114314468Y-57614330D01*
X114362087Y-57471473D01*
X114362210Y-57455265D01*
X114367219Y-57439850D01*
X114367219Y-57344612D01*
X114362210Y-57329196D01*
X114362087Y-57312989D01*
X114314468Y-57170132D01*
X114300776Y-57151585D01*
X114290310Y-57131043D01*
X114242690Y-57083425D01*
X114235502Y-57079762D01*
X114230759Y-57073234D01*
X114208487Y-57065997D01*
X114187622Y-57055366D01*
X114179651Y-57056628D01*
X114171980Y-57054136D01*
X113838647Y-57054136D01*
X113823584Y-57059030D01*
X113807745Y-57059030D01*
X113794931Y-57068339D01*
X113779868Y-57073234D01*
X113770558Y-57086047D01*
X113757745Y-57095357D01*
X113752850Y-57110420D01*
X113743541Y-57123234D01*
X113743541Y-57139073D01*
X113738647Y-57154136D01*
X113738647Y-57344612D01*
X113757745Y-57403391D01*
X113807745Y-57439718D01*
X113869549Y-57439718D01*
X113919549Y-57403391D01*
X113938647Y-57344612D01*
X113938647Y-57254136D01*
X114130560Y-57254136D01*
X114132197Y-57255773D01*
X114167219Y-57360838D01*
X114167219Y-57423623D01*
X114132197Y-57528688D01*
X114065127Y-57595758D01*
X113994218Y-57631212D01*
X113826337Y-57673183D01*
X113708099Y-57673183D01*
X113540218Y-57631212D01*
X113469313Y-57595760D01*
X113402240Y-57528687D01*
X113367219Y-57423622D01*
X113367219Y-57320600D01*
X113404281Y-57246477D01*
X113413486Y-57185362D01*
X113385010Y-57130510D01*
X113329731Y-57102870D01*
X113268764Y-57113001D01*
X113225395Y-57157034D01*
X113177776Y-57252272D01*
X113174342Y-57275069D01*
X113167219Y-57296993D01*
X113167219Y-57439850D01*
X113024362Y-57439850D01*
X113024362Y-56756466D01*
X113172113Y-56756466D01*
X113208440Y-56806466D01*
X113267219Y-56825564D01*
X114267219Y-56825564D01*
X114325998Y-56806466D01*
X114362325Y-56756466D01*
X114362325Y-56694662D01*
X114325998Y-56644662D01*
X114267219Y-56625564D01*
X113267219Y-56625564D01*
X113208440Y-56644662D01*
X113172113Y-56694662D01*
X113172113Y-56756466D01*
X113024362Y-56756466D01*
X113024362Y-56269729D01*
X113169312Y-56269729D01*
X113172113Y-56274630D01*
X113172113Y-56280276D01*
X113187224Y-56301075D01*
X113199976Y-56323390D01*
X113205121Y-56325708D01*
X113208440Y-56330276D01*
X113232886Y-56338219D01*
X113256323Y-56348779D01*
X113261850Y-56347629D01*
X113267219Y-56349374D01*
X114267219Y-56349374D01*
X114325998Y-56330276D01*
X114362325Y-56280276D01*
X114362325Y-56218472D01*
X114325998Y-56168472D01*
X114267219Y-56149374D01*
X113643775Y-56149374D01*
X114316833Y-55764770D01*
X114320628Y-55760592D01*
X114325998Y-55758848D01*
X114341109Y-55738049D01*
X114358392Y-55719026D01*
X114359007Y-55713414D01*
X114362325Y-55708848D01*
X114362325Y-55683144D01*
X114365126Y-55657591D01*
X114362325Y-55652689D01*
X114362325Y-55647044D01*
X114347216Y-55626248D01*
X114334463Y-55603930D01*
X114329316Y-55601610D01*
X114325998Y-55597044D01*
X114301552Y-55589101D01*
X114278115Y-55578541D01*
X114272587Y-55579690D01*
X114267219Y-55577946D01*
X113267219Y-55577946D01*
X113208440Y-55597044D01*
X113172113Y-55647044D01*
X113172113Y-55708848D01*
X113208440Y-55758848D01*
X113267219Y-55777946D01*
X113890663Y-55777946D01*
X113217605Y-56162550D01*
X113213809Y-56166727D01*
X113208440Y-56168472D01*
X113193328Y-56189270D01*
X113176046Y-56208294D01*
X113175430Y-56213905D01*
X113172113Y-56218472D01*
X113172113Y-56244175D01*
X113169312Y-56269729D01*
X113024362Y-56269729D01*
X113024362Y-54916041D01*
X113167219Y-54916041D01*
X113172227Y-54931456D01*
X113172351Y-54947664D01*
X113219970Y-55090520D01*
X113233659Y-55109065D01*
X113244127Y-55129609D01*
X113339365Y-55224847D01*
X113353807Y-55232205D01*
X113365355Y-55243579D01*
X113460592Y-55291198D01*
X113471613Y-55292858D01*
X113481060Y-55298769D01*
X113671536Y-55346388D01*
X113683952Y-55345527D01*
X113695790Y-55349374D01*
X113838647Y-55349374D01*
X113850484Y-55345527D01*
X113862901Y-55346388D01*
X114053376Y-55298769D01*
X114062822Y-55292858D01*
X114073844Y-55291198D01*
X114169082Y-55243579D01*
X114180630Y-55232204D01*
X114195071Y-55224847D01*
X114290311Y-55129609D01*
X114300779Y-55109064D01*
X114314468Y-55090521D01*
X114362087Y-54947664D01*
X114362210Y-54931456D01*
X114367219Y-54916041D01*
X114367219Y-54820803D01*
X114362210Y-54805387D01*
X114362087Y-54789180D01*
X114314468Y-54646323D01*
X114300776Y-54627776D01*
X114290310Y-54607234D01*
X114242690Y-54559616D01*
X114235502Y-54555953D01*
X114230759Y-54549425D01*
X114208487Y-54542188D01*
X114187622Y-54531557D01*
X114179651Y-54532819D01*
X114171980Y-54530327D01*
X113838647Y-54530327D01*
X113823584Y-54535221D01*
X113807745Y-54535221D01*
X113794931Y-54544530D01*
X113779868Y-54549425D01*
X113770558Y-54562238D01*
X113757745Y-54571548D01*
X113752850Y-54586611D01*
X113743541Y-54599425D01*
X113743541Y-54615264D01*
X113738647Y-54630327D01*
X113738647Y-54820803D01*
X113757745Y-54879582D01*
X113807745Y-54915909D01*
X113869549Y-54915909D01*
X113919549Y-54879582D01*
X113938647Y-54820803D01*
X113938647Y-54730327D01*
X114130560Y-54730327D01*
X114132197Y-54731964D01*
X114167219Y-54837029D01*
X114167219Y-54899814D01*
X114132197Y-55004879D01*
X114065127Y-55071949D01*
X113994218Y-55107403D01*
X113826337Y-55149374D01*
X113708099Y-55149374D01*
X113540218Y-55107403D01*
X113469313Y-55071951D01*
X113402240Y-55004878D01*
X113367219Y-54899813D01*
X113367219Y-54796791D01*
X113404281Y-54722668D01*
X113413486Y-54661553D01*
X113385010Y-54606701D01*
X113329731Y-54579061D01*
X113268764Y-54589192D01*
X113225395Y-54633225D01*
X113177776Y-54728463D01*
X113174342Y-54751260D01*
X113167219Y-54773184D01*
X113167219Y-54916041D01*
X113024362Y-54916041D01*
X113024362Y-54387470D01*
X114510076Y-54387470D01*
X114510076Y-61920802D01*
G37*
G36*
X181286626Y-75997023D02*
G01*
X181350805Y-76061202D01*
X181388720Y-76212861D01*
X181388720Y-76521575D01*
X181350804Y-76673235D01*
X181286628Y-76737413D01*
X181227018Y-76767219D01*
X181083756Y-76767219D01*
X181024146Y-76737414D01*
X180959969Y-76673236D01*
X180922054Y-76521574D01*
X180922054Y-76212862D01*
X180959969Y-76061202D01*
X181024147Y-75997023D01*
X181083756Y-75967219D01*
X181227018Y-75967219D01*
X181286626Y-75997023D01*
G37*
G36*
X184381865Y-75997024D02*
G01*
X184406534Y-76021692D01*
X184436339Y-76081302D01*
X184436339Y-76176945D01*
X184406534Y-76236554D01*
X184381865Y-76261222D01*
X184322256Y-76291028D01*
X184064911Y-76291028D01*
X184064911Y-75967219D01*
X184322256Y-75967219D01*
X184381865Y-75997024D01*
G37*
G36*
X180286627Y-75997024D02*
G01*
X180311296Y-76021692D01*
X180341100Y-76081301D01*
X180341100Y-76176945D01*
X180311296Y-76236554D01*
X180286627Y-76261222D01*
X180227018Y-76291028D01*
X179969673Y-76291028D01*
X179969673Y-75967219D01*
X180227018Y-75967219D01*
X180286627Y-75997024D01*
G37*
G36*
X184779196Y-77110076D02*
G01*
X179626816Y-77110076D01*
X179626816Y-76867219D01*
X179769673Y-76867219D01*
X179788771Y-76925998D01*
X179838771Y-76962325D01*
X179900575Y-76962325D01*
X179950575Y-76925998D01*
X179969673Y-76867219D01*
X179969673Y-76533885D01*
X180722054Y-76533885D01*
X180725900Y-76545722D01*
X180725040Y-76558139D01*
X180772659Y-76748614D01*
X180786832Y-76771264D01*
X180798962Y-76795071D01*
X180894200Y-76890311D01*
X180908643Y-76897670D01*
X180920190Y-76909043D01*
X181015427Y-76956662D01*
X181038225Y-76960095D01*
X181060149Y-76967219D01*
X181250625Y-76967219D01*
X181272548Y-76960095D01*
X181295346Y-76956662D01*
X181390584Y-76909043D01*
X181402132Y-76897668D01*
X181416574Y-76890310D01*
X181511812Y-76795071D01*
X181523943Y-76771262D01*
X181538115Y-76748615D01*
X181585734Y-76558139D01*
X181584873Y-76545722D01*
X181588720Y-76533885D01*
X181588720Y-76200552D01*
X181584873Y-76188714D01*
X181585734Y-76176298D01*
X181538115Y-75985822D01*
X181523942Y-75963173D01*
X181511812Y-75939365D01*
X181462828Y-75890381D01*
X181724773Y-75890381D01*
X181962868Y-76890381D01*
X181966464Y-76896274D01*
X181966834Y-76903168D01*
X181982286Y-76922204D01*
X181995061Y-76943138D01*
X182001434Y-76945792D01*
X182005785Y-76951151D01*
X182029477Y-76957469D01*
X182052116Y-76966896D01*
X182058831Y-76965297D01*
X182065502Y-76967076D01*
X182088386Y-76958260D01*
X182112239Y-76952581D01*
X182116731Y-76947340D01*
X182123174Y-76944859D01*
X182136505Y-76924276D01*
X182152465Y-76905661D01*
X182153019Y-76898779D01*
X182156773Y-76892985D01*
X182250625Y-76541038D01*
X182344478Y-76892986D01*
X182348230Y-76898779D01*
X182348785Y-76905661D01*
X182364745Y-76924277D01*
X182378076Y-76944859D01*
X182384518Y-76947340D01*
X182389011Y-76952581D01*
X182412863Y-76958260D01*
X182435748Y-76967076D01*
X182442418Y-76965297D01*
X182449134Y-76966896D01*
X182471767Y-76957471D01*
X182495465Y-76951152D01*
X182499816Y-76945791D01*
X182506188Y-76943138D01*
X182518957Y-76922211D01*
X182534417Y-76903168D01*
X182534786Y-76896272D01*
X182538382Y-76890381D01*
X182543897Y-76867219D01*
X182960149Y-76867219D01*
X182965043Y-76882281D01*
X182965043Y-76898121D01*
X182974352Y-76910934D01*
X182979247Y-76925998D01*
X182992060Y-76935307D01*
X183001370Y-76948121D01*
X183016433Y-76953015D01*
X183029247Y-76962325D01*
X183045086Y-76962325D01*
X183060149Y-76967219D01*
X183536339Y-76967219D01*
X183595118Y-76948121D01*
X183631445Y-76898121D01*
X183631445Y-76867219D01*
X183864911Y-76867219D01*
X183884009Y-76925998D01*
X183934009Y-76962325D01*
X183995813Y-76962325D01*
X184045813Y-76925998D01*
X184064911Y-76867219D01*
X184064911Y-76491028D01*
X184150941Y-76491028D01*
X184454416Y-76924565D01*
X184503769Y-76961767D01*
X184565563Y-76962854D01*
X184616195Y-76927412D01*
X184636324Y-76868979D01*
X184618262Y-76809873D01*
X184387957Y-76480866D01*
X184390584Y-76480471D01*
X184485822Y-76432852D01*
X184497369Y-76421478D01*
X184511812Y-76414120D01*
X184559430Y-76366501D01*
X184566788Y-76352059D01*
X184578163Y-76340511D01*
X184625782Y-76245274D01*
X184629215Y-76222475D01*
X184636339Y-76200552D01*
X184636339Y-76057695D01*
X184629215Y-76035771D01*
X184625782Y-76012973D01*
X184578163Y-75917736D01*
X184566788Y-75906187D01*
X184559430Y-75891746D01*
X184511812Y-75844127D01*
X184497369Y-75836768D01*
X184485822Y-75825395D01*
X184390584Y-75777776D01*
X184367786Y-75774342D01*
X184345863Y-75767219D01*
X183964911Y-75767219D01*
X183949848Y-75772113D01*
X183934009Y-75772113D01*
X183921195Y-75781422D01*
X183906132Y-75786317D01*
X183896822Y-75799130D01*
X183884009Y-75808440D01*
X183879114Y-75823503D01*
X183869805Y-75836317D01*
X183869805Y-75852156D01*
X183864911Y-75867219D01*
X183864911Y-76867219D01*
X183631445Y-76867219D01*
X183631445Y-76836317D01*
X183595118Y-76786317D01*
X183536339Y-76767219D01*
X183160149Y-76767219D01*
X183160149Y-76443409D01*
X183393482Y-76443409D01*
X183452261Y-76424311D01*
X183488588Y-76374311D01*
X183488588Y-76312507D01*
X183452261Y-76262507D01*
X183393482Y-76243409D01*
X183160149Y-76243409D01*
X183160149Y-75967219D01*
X183536339Y-75967219D01*
X183595118Y-75948121D01*
X183631445Y-75898121D01*
X183631445Y-75836317D01*
X183595118Y-75786317D01*
X183536339Y-75767219D01*
X183060149Y-75767219D01*
X183045086Y-75772113D01*
X183029247Y-75772113D01*
X183016433Y-75781422D01*
X183001370Y-75786317D01*
X182992060Y-75799130D01*
X182979247Y-75808440D01*
X182974352Y-75823503D01*
X182965043Y-75836317D01*
X182965043Y-75852156D01*
X182960149Y-75867219D01*
X182960149Y-76867219D01*
X182543897Y-76867219D01*
X182776478Y-75890381D01*
X182771513Y-75828777D01*
X182731287Y-75781857D01*
X182671164Y-75767542D01*
X182614109Y-75791300D01*
X182581916Y-75844057D01*
X182435612Y-76458530D01*
X182347249Y-76127167D01*
X182344237Y-76122517D01*
X182343941Y-76116984D01*
X182327674Y-76096945D01*
X182313650Y-76075293D01*
X182308481Y-76073301D01*
X182304989Y-76069000D01*
X182280054Y-76062351D01*
X182255978Y-76053076D01*
X182250625Y-76054503D01*
X182245272Y-76053076D01*
X182221190Y-76062352D01*
X182196261Y-76069001D01*
X182192770Y-76073301D01*
X182187600Y-76075293D01*
X182173572Y-76096950D01*
X182157310Y-76116984D01*
X182157013Y-76122516D01*
X182154002Y-76127166D01*
X182065637Y-76458530D01*
X181919335Y-75844057D01*
X181887142Y-75791300D01*
X181830087Y-75767542D01*
X181769964Y-75781857D01*
X181729738Y-75828777D01*
X181724773Y-75890381D01*
X181462828Y-75890381D01*
X181416574Y-75844127D01*
X181402131Y-75836768D01*
X181390584Y-75825395D01*
X181295346Y-75777776D01*
X181272548Y-75774342D01*
X181250625Y-75767219D01*
X181060149Y-75767219D01*
X181038225Y-75774342D01*
X181015427Y-75777776D01*
X180920190Y-75825395D01*
X180908642Y-75836768D01*
X180894200Y-75844127D01*
X180798962Y-75939365D01*
X180786830Y-75963174D01*
X180772659Y-75985823D01*
X180725040Y-76176298D01*
X180725900Y-76188714D01*
X180722054Y-76200552D01*
X180722054Y-76533885D01*
X179969673Y-76533885D01*
X179969673Y-76491028D01*
X180250625Y-76491028D01*
X180272548Y-76483904D01*
X180295346Y-76480471D01*
X180390584Y-76432852D01*
X180402131Y-76421478D01*
X180416574Y-76414120D01*
X180464192Y-76366501D01*
X180471550Y-76352059D01*
X180482925Y-76340511D01*
X180530544Y-76245274D01*
X180533977Y-76222475D01*
X180541101Y-76200552D01*
X180541101Y-76057695D01*
X180533977Y-76035771D01*
X180530544Y-76012973D01*
X180482925Y-75917736D01*
X180471550Y-75906187D01*
X180464192Y-75891746D01*
X180416574Y-75844127D01*
X180402131Y-75836768D01*
X180390584Y-75825395D01*
X180295346Y-75777776D01*
X180272548Y-75774342D01*
X180250625Y-75767219D01*
X179869673Y-75767219D01*
X179854610Y-75772113D01*
X179838771Y-75772113D01*
X179825957Y-75781422D01*
X179810894Y-75786317D01*
X179801584Y-75799130D01*
X179788771Y-75808440D01*
X179783876Y-75823503D01*
X179774567Y-75836317D01*
X179774567Y-75852156D01*
X179769673Y-75867219D01*
X179769673Y-76867219D01*
X179626816Y-76867219D01*
X179626816Y-75624362D01*
X184779196Y-75624362D01*
X184779196Y-77110076D01*
G37*
D11*
X131360588Y-33807438D02*
X131265350Y-33759819D01*
X131265350Y-33759819D02*
X131122493Y-33759819D01*
X131122493Y-33759819D02*
X130979636Y-33807438D01*
X130979636Y-33807438D02*
X130884398Y-33902676D01*
X130884398Y-33902676D02*
X130836779Y-33997914D01*
X130836779Y-33997914D02*
X130789160Y-34188390D01*
X130789160Y-34188390D02*
X130789160Y-34331247D01*
X130789160Y-34331247D02*
X130836779Y-34521723D01*
X130836779Y-34521723D02*
X130884398Y-34616961D01*
X130884398Y-34616961D02*
X130979636Y-34712200D01*
X130979636Y-34712200D02*
X131122493Y-34759819D01*
X131122493Y-34759819D02*
X131217731Y-34759819D01*
X131217731Y-34759819D02*
X131360588Y-34712200D01*
X131360588Y-34712200D02*
X131408207Y-34664580D01*
X131408207Y-34664580D02*
X131408207Y-34331247D01*
X131408207Y-34331247D02*
X131217731Y-34331247D01*
X131979636Y-34759819D02*
X131884398Y-34712200D01*
X131884398Y-34712200D02*
X131836779Y-34616961D01*
X131836779Y-34616961D02*
X131836779Y-33759819D01*
X132503446Y-34759819D02*
X132408208Y-34712200D01*
X132408208Y-34712200D02*
X132360589Y-34664580D01*
X132360589Y-34664580D02*
X132312970Y-34569342D01*
X132312970Y-34569342D02*
X132312970Y-34283628D01*
X132312970Y-34283628D02*
X132360589Y-34188390D01*
X132360589Y-34188390D02*
X132408208Y-34140771D01*
X132408208Y-34140771D02*
X132503446Y-34093152D01*
X132503446Y-34093152D02*
X132646303Y-34093152D01*
X132646303Y-34093152D02*
X132741541Y-34140771D01*
X132741541Y-34140771D02*
X132789160Y-34188390D01*
X132789160Y-34188390D02*
X132836779Y-34283628D01*
X132836779Y-34283628D02*
X132836779Y-34569342D01*
X132836779Y-34569342D02*
X132789160Y-34664580D01*
X132789160Y-34664580D02*
X132741541Y-34712200D01*
X132741541Y-34712200D02*
X132646303Y-34759819D01*
X132646303Y-34759819D02*
X132503446Y-34759819D01*
X133265351Y-34759819D02*
X133265351Y-33759819D01*
X133265351Y-34140771D02*
X133360589Y-34093152D01*
X133360589Y-34093152D02*
X133551065Y-34093152D01*
X133551065Y-34093152D02*
X133646303Y-34140771D01*
X133646303Y-34140771D02*
X133693922Y-34188390D01*
X133693922Y-34188390D02*
X133741541Y-34283628D01*
X133741541Y-34283628D02*
X133741541Y-34569342D01*
X133741541Y-34569342D02*
X133693922Y-34664580D01*
X133693922Y-34664580D02*
X133646303Y-34712200D01*
X133646303Y-34712200D02*
X133551065Y-34759819D01*
X133551065Y-34759819D02*
X133360589Y-34759819D01*
X133360589Y-34759819D02*
X133265351Y-34712200D01*
X134598684Y-34759819D02*
X134598684Y-34236009D01*
X134598684Y-34236009D02*
X134551065Y-34140771D01*
X134551065Y-34140771D02*
X134455827Y-34093152D01*
X134455827Y-34093152D02*
X134265351Y-34093152D01*
X134265351Y-34093152D02*
X134170113Y-34140771D01*
X134598684Y-34712200D02*
X134503446Y-34759819D01*
X134503446Y-34759819D02*
X134265351Y-34759819D01*
X134265351Y-34759819D02*
X134170113Y-34712200D01*
X134170113Y-34712200D02*
X134122494Y-34616961D01*
X134122494Y-34616961D02*
X134122494Y-34521723D01*
X134122494Y-34521723D02*
X134170113Y-34426485D01*
X134170113Y-34426485D02*
X134265351Y-34378866D01*
X134265351Y-34378866D02*
X134503446Y-34378866D01*
X134503446Y-34378866D02*
X134598684Y-34331247D01*
X135217732Y-34759819D02*
X135122494Y-34712200D01*
X135122494Y-34712200D02*
X135074875Y-34616961D01*
X135074875Y-34616961D02*
X135074875Y-33759819D01*
X136312971Y-34712200D02*
X136455828Y-34759819D01*
X136455828Y-34759819D02*
X136693923Y-34759819D01*
X136693923Y-34759819D02*
X136789161Y-34712200D01*
X136789161Y-34712200D02*
X136836780Y-34664580D01*
X136836780Y-34664580D02*
X136884399Y-34569342D01*
X136884399Y-34569342D02*
X136884399Y-34474104D01*
X136884399Y-34474104D02*
X136836780Y-34378866D01*
X136836780Y-34378866D02*
X136789161Y-34331247D01*
X136789161Y-34331247D02*
X136693923Y-34283628D01*
X136693923Y-34283628D02*
X136503447Y-34236009D01*
X136503447Y-34236009D02*
X136408209Y-34188390D01*
X136408209Y-34188390D02*
X136360590Y-34140771D01*
X136360590Y-34140771D02*
X136312971Y-34045533D01*
X136312971Y-34045533D02*
X136312971Y-33950295D01*
X136312971Y-33950295D02*
X136360590Y-33855057D01*
X136360590Y-33855057D02*
X136408209Y-33807438D01*
X136408209Y-33807438D02*
X136503447Y-33759819D01*
X136503447Y-33759819D02*
X136741542Y-33759819D01*
X136741542Y-33759819D02*
X136884399Y-33807438D01*
X137741542Y-34712200D02*
X137646304Y-34759819D01*
X137646304Y-34759819D02*
X137455828Y-34759819D01*
X137455828Y-34759819D02*
X137360590Y-34712200D01*
X137360590Y-34712200D02*
X137312971Y-34664580D01*
X137312971Y-34664580D02*
X137265352Y-34569342D01*
X137265352Y-34569342D02*
X137265352Y-34283628D01*
X137265352Y-34283628D02*
X137312971Y-34188390D01*
X137312971Y-34188390D02*
X137360590Y-34140771D01*
X137360590Y-34140771D02*
X137455828Y-34093152D01*
X137455828Y-34093152D02*
X137646304Y-34093152D01*
X137646304Y-34093152D02*
X137741542Y-34140771D01*
X138598685Y-34759819D02*
X138598685Y-34236009D01*
X138598685Y-34236009D02*
X138551066Y-34140771D01*
X138551066Y-34140771D02*
X138455828Y-34093152D01*
X138455828Y-34093152D02*
X138265352Y-34093152D01*
X138265352Y-34093152D02*
X138170114Y-34140771D01*
X138598685Y-34712200D02*
X138503447Y-34759819D01*
X138503447Y-34759819D02*
X138265352Y-34759819D01*
X138265352Y-34759819D02*
X138170114Y-34712200D01*
X138170114Y-34712200D02*
X138122495Y-34616961D01*
X138122495Y-34616961D02*
X138122495Y-34521723D01*
X138122495Y-34521723D02*
X138170114Y-34426485D01*
X138170114Y-34426485D02*
X138265352Y-34378866D01*
X138265352Y-34378866D02*
X138503447Y-34378866D01*
X138503447Y-34378866D02*
X138598685Y-34331247D01*
X138979638Y-34093152D02*
X139217733Y-34759819D01*
X139217733Y-34759819D02*
X139455828Y-34093152D01*
X140217733Y-34712200D02*
X140122495Y-34759819D01*
X140122495Y-34759819D02*
X139932019Y-34759819D01*
X139932019Y-34759819D02*
X139836781Y-34712200D01*
X139836781Y-34712200D02*
X139789162Y-34616961D01*
X139789162Y-34616961D02*
X139789162Y-34236009D01*
X139789162Y-34236009D02*
X139836781Y-34140771D01*
X139836781Y-34140771D02*
X139932019Y-34093152D01*
X139932019Y-34093152D02*
X140122495Y-34093152D01*
X140122495Y-34093152D02*
X140217733Y-34140771D01*
X140217733Y-34140771D02*
X140265352Y-34236009D01*
X140265352Y-34236009D02*
X140265352Y-34331247D01*
X140265352Y-34331247D02*
X139789162Y-34426485D01*
X140693924Y-34093152D02*
X140693924Y-34759819D01*
X140693924Y-34188390D02*
X140741543Y-34140771D01*
X140741543Y-34140771D02*
X140836781Y-34093152D01*
X140836781Y-34093152D02*
X140979638Y-34093152D01*
X140979638Y-34093152D02*
X141074876Y-34140771D01*
X141074876Y-34140771D02*
X141122495Y-34236009D01*
X141122495Y-34236009D02*
X141122495Y-34759819D01*
X142027257Y-34093152D02*
X142027257Y-34902676D01*
X142027257Y-34902676D02*
X141979638Y-34997914D01*
X141979638Y-34997914D02*
X141932019Y-35045533D01*
X141932019Y-35045533D02*
X141836781Y-35093152D01*
X141836781Y-35093152D02*
X141693924Y-35093152D01*
X141693924Y-35093152D02*
X141598686Y-35045533D01*
X142027257Y-34712200D02*
X141932019Y-34759819D01*
X141932019Y-34759819D02*
X141741543Y-34759819D01*
X141741543Y-34759819D02*
X141646305Y-34712200D01*
X141646305Y-34712200D02*
X141598686Y-34664580D01*
X141598686Y-34664580D02*
X141551067Y-34569342D01*
X141551067Y-34569342D02*
X141551067Y-34283628D01*
X141551067Y-34283628D02*
X141598686Y-34188390D01*
X141598686Y-34188390D02*
X141646305Y-34140771D01*
X141646305Y-34140771D02*
X141741543Y-34093152D01*
X141741543Y-34093152D02*
X141932019Y-34093152D01*
X141932019Y-34093152D02*
X142027257Y-34140771D01*
X142884400Y-34712200D02*
X142789162Y-34759819D01*
X142789162Y-34759819D02*
X142598686Y-34759819D01*
X142598686Y-34759819D02*
X142503448Y-34712200D01*
X142503448Y-34712200D02*
X142455829Y-34616961D01*
X142455829Y-34616961D02*
X142455829Y-34236009D01*
X142455829Y-34236009D02*
X142503448Y-34140771D01*
X142503448Y-34140771D02*
X142598686Y-34093152D01*
X142598686Y-34093152D02*
X142789162Y-34093152D01*
X142789162Y-34093152D02*
X142884400Y-34140771D01*
X142884400Y-34140771D02*
X142932019Y-34236009D01*
X142932019Y-34236009D02*
X142932019Y-34331247D01*
X142932019Y-34331247D02*
X142455829Y-34426485D01*
X143360591Y-34759819D02*
X143360591Y-34093152D01*
X143360591Y-34283628D02*
X143408210Y-34188390D01*
X143408210Y-34188390D02*
X143455829Y-34140771D01*
X143455829Y-34140771D02*
X143551067Y-34093152D01*
X143551067Y-34093152D02*
X143646305Y-34093152D01*
X144741544Y-34759819D02*
X144741544Y-33759819D01*
X144741544Y-34236009D02*
X145312972Y-34236009D01*
X145312972Y-34759819D02*
X145312972Y-33759819D01*
X146217734Y-34093152D02*
X146217734Y-34759819D01*
X145789163Y-34093152D02*
X145789163Y-34616961D01*
X145789163Y-34616961D02*
X145836782Y-34712200D01*
X145836782Y-34712200D02*
X145932020Y-34759819D01*
X145932020Y-34759819D02*
X146074877Y-34759819D01*
X146074877Y-34759819D02*
X146170115Y-34712200D01*
X146170115Y-34712200D02*
X146217734Y-34664580D01*
X146693925Y-34093152D02*
X146693925Y-34759819D01*
X146693925Y-34188390D02*
X146741544Y-34140771D01*
X146741544Y-34140771D02*
X146836782Y-34093152D01*
X146836782Y-34093152D02*
X146979639Y-34093152D01*
X146979639Y-34093152D02*
X147074877Y-34140771D01*
X147074877Y-34140771D02*
X147122496Y-34236009D01*
X147122496Y-34236009D02*
X147122496Y-34759819D01*
X147455830Y-34093152D02*
X147836782Y-34093152D01*
X147598687Y-33759819D02*
X147598687Y-34616961D01*
X147598687Y-34616961D02*
X147646306Y-34712200D01*
X147646306Y-34712200D02*
X147741544Y-34759819D01*
X147741544Y-34759819D02*
X147836782Y-34759819D01*
X148932021Y-34759819D02*
X148932021Y-33759819D01*
X148932021Y-33759819D02*
X149312973Y-33759819D01*
X149312973Y-33759819D02*
X149408211Y-33807438D01*
X149408211Y-33807438D02*
X149455830Y-33855057D01*
X149455830Y-33855057D02*
X149503449Y-33950295D01*
X149503449Y-33950295D02*
X149503449Y-34093152D01*
X149503449Y-34093152D02*
X149455830Y-34188390D01*
X149455830Y-34188390D02*
X149408211Y-34236009D01*
X149408211Y-34236009D02*
X149312973Y-34283628D01*
X149312973Y-34283628D02*
X148932021Y-34283628D01*
X150074878Y-34759819D02*
X149979640Y-34712200D01*
X149979640Y-34712200D02*
X149932021Y-34664580D01*
X149932021Y-34664580D02*
X149884402Y-34569342D01*
X149884402Y-34569342D02*
X149884402Y-34283628D01*
X149884402Y-34283628D02*
X149932021Y-34188390D01*
X149932021Y-34188390D02*
X149979640Y-34140771D01*
X149979640Y-34140771D02*
X150074878Y-34093152D01*
X150074878Y-34093152D02*
X150217735Y-34093152D01*
X150217735Y-34093152D02*
X150312973Y-34140771D01*
X150312973Y-34140771D02*
X150360592Y-34188390D01*
X150360592Y-34188390D02*
X150408211Y-34283628D01*
X150408211Y-34283628D02*
X150408211Y-34569342D01*
X150408211Y-34569342D02*
X150360592Y-34664580D01*
X150360592Y-34664580D02*
X150312973Y-34712200D01*
X150312973Y-34712200D02*
X150217735Y-34759819D01*
X150217735Y-34759819D02*
X150074878Y-34759819D01*
X150789164Y-34712200D02*
X150884402Y-34759819D01*
X150884402Y-34759819D02*
X151074878Y-34759819D01*
X151074878Y-34759819D02*
X151170116Y-34712200D01*
X151170116Y-34712200D02*
X151217735Y-34616961D01*
X151217735Y-34616961D02*
X151217735Y-34569342D01*
X151217735Y-34569342D02*
X151170116Y-34474104D01*
X151170116Y-34474104D02*
X151074878Y-34426485D01*
X151074878Y-34426485D02*
X150932021Y-34426485D01*
X150932021Y-34426485D02*
X150836783Y-34378866D01*
X150836783Y-34378866D02*
X150789164Y-34283628D01*
X150789164Y-34283628D02*
X150789164Y-34236009D01*
X150789164Y-34236009D02*
X150836783Y-34140771D01*
X150836783Y-34140771D02*
X150932021Y-34093152D01*
X150932021Y-34093152D02*
X151074878Y-34093152D01*
X151074878Y-34093152D02*
X151170116Y-34140771D01*
X151646307Y-34759819D02*
X151646307Y-34093152D01*
X151646307Y-33759819D02*
X151598688Y-33807438D01*
X151598688Y-33807438D02*
X151646307Y-33855057D01*
X151646307Y-33855057D02*
X151693926Y-33807438D01*
X151693926Y-33807438D02*
X151646307Y-33759819D01*
X151646307Y-33759819D02*
X151646307Y-33855057D01*
X151979640Y-34093152D02*
X152360592Y-34093152D01*
X152122497Y-33759819D02*
X152122497Y-34616961D01*
X152122497Y-34616961D02*
X152170116Y-34712200D01*
X152170116Y-34712200D02*
X152265354Y-34759819D01*
X152265354Y-34759819D02*
X152360592Y-34759819D01*
X152693926Y-34759819D02*
X152693926Y-34093152D01*
X152693926Y-33759819D02*
X152646307Y-33807438D01*
X152646307Y-33807438D02*
X152693926Y-33855057D01*
X152693926Y-33855057D02*
X152741545Y-33807438D01*
X152741545Y-33807438D02*
X152693926Y-33759819D01*
X152693926Y-33759819D02*
X152693926Y-33855057D01*
X153312973Y-34759819D02*
X153217735Y-34712200D01*
X153217735Y-34712200D02*
X153170116Y-34664580D01*
X153170116Y-34664580D02*
X153122497Y-34569342D01*
X153122497Y-34569342D02*
X153122497Y-34283628D01*
X153122497Y-34283628D02*
X153170116Y-34188390D01*
X153170116Y-34188390D02*
X153217735Y-34140771D01*
X153217735Y-34140771D02*
X153312973Y-34093152D01*
X153312973Y-34093152D02*
X153455830Y-34093152D01*
X153455830Y-34093152D02*
X153551068Y-34140771D01*
X153551068Y-34140771D02*
X153598687Y-34188390D01*
X153598687Y-34188390D02*
X153646306Y-34283628D01*
X153646306Y-34283628D02*
X153646306Y-34569342D01*
X153646306Y-34569342D02*
X153598687Y-34664580D01*
X153598687Y-34664580D02*
X153551068Y-34712200D01*
X153551068Y-34712200D02*
X153455830Y-34759819D01*
X153455830Y-34759819D02*
X153312973Y-34759819D01*
X154074878Y-34093152D02*
X154074878Y-34759819D01*
X154074878Y-34188390D02*
X154122497Y-34140771D01*
X154122497Y-34140771D02*
X154217735Y-34093152D01*
X154217735Y-34093152D02*
X154360592Y-34093152D01*
X154360592Y-34093152D02*
X154455830Y-34140771D01*
X154455830Y-34140771D02*
X154503449Y-34236009D01*
X154503449Y-34236009D02*
X154503449Y-34759819D01*
X154979640Y-34759819D02*
X154979640Y-34093152D01*
X154979640Y-33759819D02*
X154932021Y-33807438D01*
X154932021Y-33807438D02*
X154979640Y-33855057D01*
X154979640Y-33855057D02*
X155027259Y-33807438D01*
X155027259Y-33807438D02*
X154979640Y-33759819D01*
X154979640Y-33759819D02*
X154979640Y-33855057D01*
X155455830Y-34093152D02*
X155455830Y-34759819D01*
X155455830Y-34188390D02*
X155503449Y-34140771D01*
X155503449Y-34140771D02*
X155598687Y-34093152D01*
X155598687Y-34093152D02*
X155741544Y-34093152D01*
X155741544Y-34093152D02*
X155836782Y-34140771D01*
X155836782Y-34140771D02*
X155884401Y-34236009D01*
X155884401Y-34236009D02*
X155884401Y-34759819D01*
X156789163Y-34093152D02*
X156789163Y-34902676D01*
X156789163Y-34902676D02*
X156741544Y-34997914D01*
X156741544Y-34997914D02*
X156693925Y-35045533D01*
X156693925Y-35045533D02*
X156598687Y-35093152D01*
X156598687Y-35093152D02*
X156455830Y-35093152D01*
X156455830Y-35093152D02*
X156360592Y-35045533D01*
X156789163Y-34712200D02*
X156693925Y-34759819D01*
X156693925Y-34759819D02*
X156503449Y-34759819D01*
X156503449Y-34759819D02*
X156408211Y-34712200D01*
X156408211Y-34712200D02*
X156360592Y-34664580D01*
X156360592Y-34664580D02*
X156312973Y-34569342D01*
X156312973Y-34569342D02*
X156312973Y-34283628D01*
X156312973Y-34283628D02*
X156360592Y-34188390D01*
X156360592Y-34188390D02*
X156408211Y-34140771D01*
X156408211Y-34140771D02*
X156503449Y-34093152D01*
X156503449Y-34093152D02*
X156693925Y-34093152D01*
X156693925Y-34093152D02*
X156789163Y-34140771D01*
X157979640Y-34712200D02*
X158122497Y-34759819D01*
X158122497Y-34759819D02*
X158360592Y-34759819D01*
X158360592Y-34759819D02*
X158455830Y-34712200D01*
X158455830Y-34712200D02*
X158503449Y-34664580D01*
X158503449Y-34664580D02*
X158551068Y-34569342D01*
X158551068Y-34569342D02*
X158551068Y-34474104D01*
X158551068Y-34474104D02*
X158503449Y-34378866D01*
X158503449Y-34378866D02*
X158455830Y-34331247D01*
X158455830Y-34331247D02*
X158360592Y-34283628D01*
X158360592Y-34283628D02*
X158170116Y-34236009D01*
X158170116Y-34236009D02*
X158074878Y-34188390D01*
X158074878Y-34188390D02*
X158027259Y-34140771D01*
X158027259Y-34140771D02*
X157979640Y-34045533D01*
X157979640Y-34045533D02*
X157979640Y-33950295D01*
X157979640Y-33950295D02*
X158027259Y-33855057D01*
X158027259Y-33855057D02*
X158074878Y-33807438D01*
X158074878Y-33807438D02*
X158170116Y-33759819D01*
X158170116Y-33759819D02*
X158408211Y-33759819D01*
X158408211Y-33759819D02*
X158551068Y-33807438D01*
X158884402Y-34093152D02*
X159122497Y-34759819D01*
X159360592Y-34093152D02*
X159122497Y-34759819D01*
X159122497Y-34759819D02*
X159027259Y-34997914D01*
X159027259Y-34997914D02*
X158979640Y-35045533D01*
X158979640Y-35045533D02*
X158884402Y-35093152D01*
X159693926Y-34712200D02*
X159789164Y-34759819D01*
X159789164Y-34759819D02*
X159979640Y-34759819D01*
X159979640Y-34759819D02*
X160074878Y-34712200D01*
X160074878Y-34712200D02*
X160122497Y-34616961D01*
X160122497Y-34616961D02*
X160122497Y-34569342D01*
X160122497Y-34569342D02*
X160074878Y-34474104D01*
X160074878Y-34474104D02*
X159979640Y-34426485D01*
X159979640Y-34426485D02*
X159836783Y-34426485D01*
X159836783Y-34426485D02*
X159741545Y-34378866D01*
X159741545Y-34378866D02*
X159693926Y-34283628D01*
X159693926Y-34283628D02*
X159693926Y-34236009D01*
X159693926Y-34236009D02*
X159741545Y-34140771D01*
X159741545Y-34140771D02*
X159836783Y-34093152D01*
X159836783Y-34093152D02*
X159979640Y-34093152D01*
X159979640Y-34093152D02*
X160074878Y-34140771D01*
X160408212Y-34093152D02*
X160789164Y-34093152D01*
X160551069Y-33759819D02*
X160551069Y-34616961D01*
X160551069Y-34616961D02*
X160598688Y-34712200D01*
X160598688Y-34712200D02*
X160693926Y-34759819D01*
X160693926Y-34759819D02*
X160789164Y-34759819D01*
X161503450Y-34712200D02*
X161408212Y-34759819D01*
X161408212Y-34759819D02*
X161217736Y-34759819D01*
X161217736Y-34759819D02*
X161122498Y-34712200D01*
X161122498Y-34712200D02*
X161074879Y-34616961D01*
X161074879Y-34616961D02*
X161074879Y-34236009D01*
X161074879Y-34236009D02*
X161122498Y-34140771D01*
X161122498Y-34140771D02*
X161217736Y-34093152D01*
X161217736Y-34093152D02*
X161408212Y-34093152D01*
X161408212Y-34093152D02*
X161503450Y-34140771D01*
X161503450Y-34140771D02*
X161551069Y-34236009D01*
X161551069Y-34236009D02*
X161551069Y-34331247D01*
X161551069Y-34331247D02*
X161074879Y-34426485D01*
X161979641Y-34759819D02*
X161979641Y-34093152D01*
X161979641Y-34188390D02*
X162027260Y-34140771D01*
X162027260Y-34140771D02*
X162122498Y-34093152D01*
X162122498Y-34093152D02*
X162265355Y-34093152D01*
X162265355Y-34093152D02*
X162360593Y-34140771D01*
X162360593Y-34140771D02*
X162408212Y-34236009D01*
X162408212Y-34236009D02*
X162408212Y-34759819D01*
X162408212Y-34236009D02*
X162455831Y-34140771D01*
X162455831Y-34140771D02*
X162551069Y-34093152D01*
X162551069Y-34093152D02*
X162693926Y-34093152D01*
X162693926Y-34093152D02*
X162789165Y-34140771D01*
X162789165Y-34140771D02*
X162836784Y-34236009D01*
X162836784Y-34236009D02*
X162836784Y-34759819D01*
X130836779Y-35703152D02*
X130836779Y-36703152D01*
X130836779Y-35750771D02*
X130932017Y-35703152D01*
X130932017Y-35703152D02*
X131122493Y-35703152D01*
X131122493Y-35703152D02*
X131217731Y-35750771D01*
X131217731Y-35750771D02*
X131265350Y-35798390D01*
X131265350Y-35798390D02*
X131312969Y-35893628D01*
X131312969Y-35893628D02*
X131312969Y-36179342D01*
X131312969Y-36179342D02*
X131265350Y-36274580D01*
X131265350Y-36274580D02*
X131217731Y-36322200D01*
X131217731Y-36322200D02*
X131122493Y-36369819D01*
X131122493Y-36369819D02*
X130932017Y-36369819D01*
X130932017Y-36369819D02*
X130836779Y-36322200D01*
X132170112Y-36369819D02*
X132170112Y-35846009D01*
X132170112Y-35846009D02*
X132122493Y-35750771D01*
X132122493Y-35750771D02*
X132027255Y-35703152D01*
X132027255Y-35703152D02*
X131836779Y-35703152D01*
X131836779Y-35703152D02*
X131741541Y-35750771D01*
X132170112Y-36322200D02*
X132074874Y-36369819D01*
X132074874Y-36369819D02*
X131836779Y-36369819D01*
X131836779Y-36369819D02*
X131741541Y-36322200D01*
X131741541Y-36322200D02*
X131693922Y-36226961D01*
X131693922Y-36226961D02*
X131693922Y-36131723D01*
X131693922Y-36131723D02*
X131741541Y-36036485D01*
X131741541Y-36036485D02*
X131836779Y-35988866D01*
X131836779Y-35988866D02*
X132074874Y-35988866D01*
X132074874Y-35988866D02*
X132170112Y-35941247D01*
X132646303Y-35703152D02*
X132646303Y-36369819D01*
X132646303Y-35798390D02*
X132693922Y-35750771D01*
X132693922Y-35750771D02*
X132789160Y-35703152D01*
X132789160Y-35703152D02*
X132932017Y-35703152D01*
X132932017Y-35703152D02*
X133027255Y-35750771D01*
X133027255Y-35750771D02*
X133074874Y-35846009D01*
X133074874Y-35846009D02*
X133074874Y-36369819D01*
X133408208Y-35703152D02*
X133789160Y-35703152D01*
X133551065Y-35369819D02*
X133551065Y-36226961D01*
X133551065Y-36226961D02*
X133598684Y-36322200D01*
X133598684Y-36322200D02*
X133693922Y-36369819D01*
X133693922Y-36369819D02*
X133789160Y-36369819D01*
X134074875Y-36322200D02*
X134170113Y-36369819D01*
X134170113Y-36369819D02*
X134360589Y-36369819D01*
X134360589Y-36369819D02*
X134455827Y-36322200D01*
X134455827Y-36322200D02*
X134503446Y-36226961D01*
X134503446Y-36226961D02*
X134503446Y-36179342D01*
X134503446Y-36179342D02*
X134455827Y-36084104D01*
X134455827Y-36084104D02*
X134360589Y-36036485D01*
X134360589Y-36036485D02*
X134217732Y-36036485D01*
X134217732Y-36036485D02*
X134122494Y-35988866D01*
X134122494Y-35988866D02*
X134074875Y-35893628D01*
X134074875Y-35893628D02*
X134074875Y-35846009D01*
X134074875Y-35846009D02*
X134122494Y-35750771D01*
X134122494Y-35750771D02*
X134217732Y-35703152D01*
X134217732Y-35703152D02*
X134360589Y-35703152D01*
X134360589Y-35703152D02*
X134455827Y-35750771D01*
X134789161Y-35703152D02*
X135170113Y-35703152D01*
X134932018Y-36369819D02*
X134932018Y-35512676D01*
X134932018Y-35512676D02*
X134979637Y-35417438D01*
X134979637Y-35417438D02*
X135074875Y-35369819D01*
X135074875Y-35369819D02*
X135170113Y-35369819D01*
X135646304Y-36369819D02*
X135551066Y-36322200D01*
X135551066Y-36322200D02*
X135503447Y-36274580D01*
X135503447Y-36274580D02*
X135455828Y-36179342D01*
X135455828Y-36179342D02*
X135455828Y-35893628D01*
X135455828Y-35893628D02*
X135503447Y-35798390D01*
X135503447Y-35798390D02*
X135551066Y-35750771D01*
X135551066Y-35750771D02*
X135646304Y-35703152D01*
X135646304Y-35703152D02*
X135789161Y-35703152D01*
X135789161Y-35703152D02*
X135884399Y-35750771D01*
X135884399Y-35750771D02*
X135932018Y-35798390D01*
X135932018Y-35798390D02*
X135979637Y-35893628D01*
X135979637Y-35893628D02*
X135979637Y-36179342D01*
X135979637Y-36179342D02*
X135932018Y-36274580D01*
X135932018Y-36274580D02*
X135884399Y-36322200D01*
X135884399Y-36322200D02*
X135789161Y-36369819D01*
X135789161Y-36369819D02*
X135646304Y-36369819D01*
X136408209Y-36369819D02*
X136408209Y-35703152D01*
X136408209Y-35893628D02*
X136455828Y-35798390D01*
X136455828Y-35798390D02*
X136503447Y-35750771D01*
X136503447Y-35750771D02*
X136598685Y-35703152D01*
X136598685Y-35703152D02*
X136693923Y-35703152D01*
X137027257Y-36369819D02*
X137027257Y-35369819D01*
X137027257Y-35750771D02*
X137122495Y-35703152D01*
X137122495Y-35703152D02*
X137312971Y-35703152D01*
X137312971Y-35703152D02*
X137408209Y-35750771D01*
X137408209Y-35750771D02*
X137455828Y-35798390D01*
X137455828Y-35798390D02*
X137503447Y-35893628D01*
X137503447Y-35893628D02*
X137503447Y-36179342D01*
X137503447Y-36179342D02*
X137455828Y-36274580D01*
X137455828Y-36274580D02*
X137408209Y-36322200D01*
X137408209Y-36322200D02*
X137312971Y-36369819D01*
X137312971Y-36369819D02*
X137122495Y-36369819D01*
X137122495Y-36369819D02*
X137027257Y-36322200D01*
X137932019Y-36369819D02*
X137932019Y-35703152D01*
X137932019Y-35369819D02*
X137884400Y-35417438D01*
X137884400Y-35417438D02*
X137932019Y-35465057D01*
X137932019Y-35465057D02*
X137979638Y-35417438D01*
X137979638Y-35417438D02*
X137932019Y-35369819D01*
X137932019Y-35369819D02*
X137932019Y-35465057D01*
X138408209Y-36369819D02*
X138408209Y-35703152D01*
X138408209Y-35893628D02*
X138455828Y-35798390D01*
X138455828Y-35798390D02*
X138503447Y-35750771D01*
X138503447Y-35750771D02*
X138598685Y-35703152D01*
X138598685Y-35703152D02*
X138693923Y-35703152D01*
X139455828Y-36369819D02*
X139455828Y-35369819D01*
X139455828Y-36322200D02*
X139360590Y-36369819D01*
X139360590Y-36369819D02*
X139170114Y-36369819D01*
X139170114Y-36369819D02*
X139074876Y-36322200D01*
X139074876Y-36322200D02*
X139027257Y-36274580D01*
X139027257Y-36274580D02*
X138979638Y-36179342D01*
X138979638Y-36179342D02*
X138979638Y-35893628D01*
X138979638Y-35893628D02*
X139027257Y-35798390D01*
X139027257Y-35798390D02*
X139074876Y-35750771D01*
X139074876Y-35750771D02*
X139170114Y-35703152D01*
X139170114Y-35703152D02*
X139360590Y-35703152D01*
X139360590Y-35703152D02*
X139455828Y-35750771D01*
X139884400Y-36322200D02*
X139979638Y-36369819D01*
X139979638Y-36369819D02*
X140170114Y-36369819D01*
X140170114Y-36369819D02*
X140265352Y-36322200D01*
X140265352Y-36322200D02*
X140312971Y-36226961D01*
X140312971Y-36226961D02*
X140312971Y-36179342D01*
X140312971Y-36179342D02*
X140265352Y-36084104D01*
X140265352Y-36084104D02*
X140170114Y-36036485D01*
X140170114Y-36036485D02*
X140027257Y-36036485D01*
X140027257Y-36036485D02*
X139932019Y-35988866D01*
X139932019Y-35988866D02*
X139884400Y-35893628D01*
X139884400Y-35893628D02*
X139884400Y-35846009D01*
X139884400Y-35846009D02*
X139932019Y-35750771D01*
X139932019Y-35750771D02*
X140027257Y-35703152D01*
X140027257Y-35703152D02*
X140170114Y-35703152D01*
X140170114Y-35703152D02*
X140265352Y-35750771D01*
X140741543Y-36274580D02*
X140789162Y-36322200D01*
X140789162Y-36322200D02*
X140741543Y-36369819D01*
X140741543Y-36369819D02*
X140693924Y-36322200D01*
X140693924Y-36322200D02*
X140741543Y-36274580D01*
X140741543Y-36274580D02*
X140741543Y-36369819D01*
X141646304Y-36322200D02*
X141551066Y-36369819D01*
X141551066Y-36369819D02*
X141360590Y-36369819D01*
X141360590Y-36369819D02*
X141265352Y-36322200D01*
X141265352Y-36322200D02*
X141217733Y-36274580D01*
X141217733Y-36274580D02*
X141170114Y-36179342D01*
X141170114Y-36179342D02*
X141170114Y-35893628D01*
X141170114Y-35893628D02*
X141217733Y-35798390D01*
X141217733Y-35798390D02*
X141265352Y-35750771D01*
X141265352Y-35750771D02*
X141360590Y-35703152D01*
X141360590Y-35703152D02*
X141551066Y-35703152D01*
X141551066Y-35703152D02*
X141646304Y-35750771D01*
X142217733Y-36369819D02*
X142122495Y-36322200D01*
X142122495Y-36322200D02*
X142074876Y-36274580D01*
X142074876Y-36274580D02*
X142027257Y-36179342D01*
X142027257Y-36179342D02*
X142027257Y-35893628D01*
X142027257Y-35893628D02*
X142074876Y-35798390D01*
X142074876Y-35798390D02*
X142122495Y-35750771D01*
X142122495Y-35750771D02*
X142217733Y-35703152D01*
X142217733Y-35703152D02*
X142360590Y-35703152D01*
X142360590Y-35703152D02*
X142455828Y-35750771D01*
X142455828Y-35750771D02*
X142503447Y-35798390D01*
X142503447Y-35798390D02*
X142551066Y-35893628D01*
X142551066Y-35893628D02*
X142551066Y-36179342D01*
X142551066Y-36179342D02*
X142503447Y-36274580D01*
X142503447Y-36274580D02*
X142455828Y-36322200D01*
X142455828Y-36322200D02*
X142360590Y-36369819D01*
X142360590Y-36369819D02*
X142217733Y-36369819D01*
X142979638Y-36369819D02*
X142979638Y-35703152D01*
X142979638Y-35798390D02*
X143027257Y-35750771D01*
X143027257Y-35750771D02*
X143122495Y-35703152D01*
X143122495Y-35703152D02*
X143265352Y-35703152D01*
X143265352Y-35703152D02*
X143360590Y-35750771D01*
X143360590Y-35750771D02*
X143408209Y-35846009D01*
X143408209Y-35846009D02*
X143408209Y-36369819D01*
X143408209Y-35846009D02*
X143455828Y-35750771D01*
X143455828Y-35750771D02*
X143551066Y-35703152D01*
X143551066Y-35703152D02*
X143693923Y-35703152D01*
X143693923Y-35703152D02*
X143789162Y-35750771D01*
X143789162Y-35750771D02*
X143836781Y-35846009D01*
X143836781Y-35846009D02*
X143836781Y-36369819D01*
D14*
G36*
X182373788Y-39481504D02*
G01*
X182175083Y-39481504D01*
X182274435Y-39183446D01*
X182373788Y-39481504D01*
G37*
G36*
X185517292Y-40110076D02*
G01*
X180079197Y-40110076D01*
X180079197Y-39152933D01*
X180222054Y-39152933D01*
X180229177Y-39174856D01*
X180232611Y-39197654D01*
X180280230Y-39292892D01*
X180291603Y-39304439D01*
X180298962Y-39318882D01*
X180346581Y-39366500D01*
X180361022Y-39373858D01*
X180372571Y-39385233D01*
X180467808Y-39432852D01*
X180478829Y-39434512D01*
X180488276Y-39440423D01*
X180668101Y-39485379D01*
X180739008Y-39520833D01*
X180763677Y-39545501D01*
X180793482Y-39605110D01*
X180793482Y-39653135D01*
X180763677Y-39712743D01*
X180739008Y-39737413D01*
X180679399Y-39767219D01*
X180481137Y-39767219D01*
X180353677Y-39724732D01*
X180291875Y-39724262D01*
X180241601Y-39760209D01*
X180222056Y-39818841D01*
X180240708Y-39877763D01*
X180290431Y-39914468D01*
X180433288Y-39962087D01*
X180449495Y-39962210D01*
X180464911Y-39967219D01*
X180703006Y-39967219D01*
X180724929Y-39960095D01*
X180747727Y-39956662D01*
X180842965Y-39909043D01*
X180854513Y-39897668D01*
X180868955Y-39890310D01*
X180916574Y-39842690D01*
X180923931Y-39828249D01*
X180935306Y-39816701D01*
X180982925Y-39721464D01*
X180986358Y-39698665D01*
X180993482Y-39676742D01*
X180993482Y-39581504D01*
X180986358Y-39559580D01*
X180982925Y-39536782D01*
X180935306Y-39441545D01*
X180923931Y-39429996D01*
X180916573Y-39415555D01*
X180868955Y-39367936D01*
X180854512Y-39360577D01*
X180842965Y-39349204D01*
X180747727Y-39301585D01*
X180736705Y-39299924D01*
X180727259Y-39294014D01*
X180547434Y-39249057D01*
X180476527Y-39213604D01*
X180451859Y-39188935D01*
X180422054Y-39129325D01*
X180422054Y-39081302D01*
X180451859Y-39021692D01*
X180476527Y-38997023D01*
X180536137Y-38967219D01*
X180734398Y-38967219D01*
X180861859Y-39009706D01*
X180923661Y-39010176D01*
X180973935Y-38974229D01*
X180993479Y-38915597D01*
X180987947Y-38898121D01*
X181084091Y-38898121D01*
X181120418Y-38948121D01*
X181179197Y-38967219D01*
X181364911Y-38967219D01*
X181364911Y-39867219D01*
X181384009Y-39925998D01*
X181434009Y-39962325D01*
X181495813Y-39962325D01*
X181545813Y-39925998D01*
X181555105Y-39897398D01*
X181845764Y-39897398D01*
X181881711Y-39947672D01*
X181940343Y-39967217D01*
X181999265Y-39948565D01*
X182035970Y-39898842D01*
X182108416Y-39681504D01*
X182440454Y-39681504D01*
X182512900Y-39898841D01*
X182549605Y-39948565D01*
X182608527Y-39967216D01*
X182667159Y-39947672D01*
X182703106Y-39897398D01*
X182702636Y-39835596D01*
X182390145Y-38898121D01*
X182703139Y-38898121D01*
X182739466Y-38948121D01*
X182798245Y-38967219D01*
X182983959Y-38967219D01*
X182983959Y-39867219D01*
X183003057Y-39925998D01*
X183053057Y-39962325D01*
X183114861Y-39962325D01*
X183164861Y-39925998D01*
X183183959Y-39867219D01*
X183183959Y-39676742D01*
X183603007Y-39676742D01*
X183610130Y-39698665D01*
X183613564Y-39721463D01*
X183661183Y-39816701D01*
X183672556Y-39828248D01*
X183679915Y-39842690D01*
X183727533Y-39890310D01*
X183741976Y-39897669D01*
X183753524Y-39909043D01*
X183848761Y-39956662D01*
X183871559Y-39960095D01*
X183893483Y-39967219D01*
X184083959Y-39967219D01*
X184105882Y-39960095D01*
X184128680Y-39956662D01*
X184223918Y-39909043D01*
X184235466Y-39897668D01*
X184249908Y-39890310D01*
X184297527Y-39842690D01*
X184304884Y-39828249D01*
X184316259Y-39816701D01*
X184363878Y-39721464D01*
X184367311Y-39698665D01*
X184374435Y-39676742D01*
X184374435Y-39152933D01*
X184603007Y-39152933D01*
X184610130Y-39174856D01*
X184613564Y-39197654D01*
X184661183Y-39292892D01*
X184672556Y-39304439D01*
X184679915Y-39318882D01*
X184727534Y-39366500D01*
X184741975Y-39373858D01*
X184753524Y-39385233D01*
X184848761Y-39432852D01*
X184859782Y-39434512D01*
X184869229Y-39440423D01*
X185049054Y-39485379D01*
X185119961Y-39520833D01*
X185144630Y-39545501D01*
X185174435Y-39605110D01*
X185174435Y-39653135D01*
X185144630Y-39712743D01*
X185119961Y-39737413D01*
X185060352Y-39767219D01*
X184862090Y-39767219D01*
X184734630Y-39724732D01*
X184672828Y-39724262D01*
X184622554Y-39760209D01*
X184603009Y-39818841D01*
X184621661Y-39877763D01*
X184671384Y-39914468D01*
X184814241Y-39962087D01*
X184830448Y-39962210D01*
X184845864Y-39967219D01*
X185083959Y-39967219D01*
X185105882Y-39960095D01*
X185128680Y-39956662D01*
X185223918Y-39909043D01*
X185235466Y-39897668D01*
X185249908Y-39890310D01*
X185297527Y-39842690D01*
X185304884Y-39828249D01*
X185316259Y-39816701D01*
X185363878Y-39721464D01*
X185367311Y-39698665D01*
X185374435Y-39676742D01*
X185374435Y-39581504D01*
X185367311Y-39559580D01*
X185363878Y-39536782D01*
X185316259Y-39441545D01*
X185304884Y-39429996D01*
X185297526Y-39415555D01*
X185249908Y-39367936D01*
X185235465Y-39360577D01*
X185223918Y-39349204D01*
X185128680Y-39301585D01*
X185117658Y-39299924D01*
X185108212Y-39294014D01*
X184928387Y-39249057D01*
X184857480Y-39213604D01*
X184832812Y-39188935D01*
X184803007Y-39129325D01*
X184803007Y-39081302D01*
X184832812Y-39021692D01*
X184857480Y-38997023D01*
X184917090Y-38967219D01*
X185115351Y-38967219D01*
X185242812Y-39009706D01*
X185304614Y-39010176D01*
X185354888Y-38974229D01*
X185374432Y-38915597D01*
X185355781Y-38856675D01*
X185306057Y-38819970D01*
X185163201Y-38772351D01*
X185146993Y-38772227D01*
X185131578Y-38767219D01*
X184893483Y-38767219D01*
X184871559Y-38774342D01*
X184848761Y-38777776D01*
X184753524Y-38825395D01*
X184741975Y-38836769D01*
X184727534Y-38844128D01*
X184679915Y-38891746D01*
X184672556Y-38906188D01*
X184661183Y-38917736D01*
X184613564Y-39012974D01*
X184610130Y-39035771D01*
X184603007Y-39057695D01*
X184603007Y-39152933D01*
X184374435Y-39152933D01*
X184374435Y-38867219D01*
X184355337Y-38808440D01*
X184305337Y-38772113D01*
X184243533Y-38772113D01*
X184193533Y-38808440D01*
X184174435Y-38867219D01*
X184174435Y-39653134D01*
X184144630Y-39712743D01*
X184119961Y-39737413D01*
X184060352Y-39767219D01*
X183917090Y-39767219D01*
X183857480Y-39737414D01*
X183832813Y-39712746D01*
X183803007Y-39653134D01*
X183803007Y-38867219D01*
X183783909Y-38808440D01*
X183733909Y-38772113D01*
X183672105Y-38772113D01*
X183622105Y-38808440D01*
X183603007Y-38867219D01*
X183603007Y-39676742D01*
X183183959Y-39676742D01*
X183183959Y-38967219D01*
X183369673Y-38967219D01*
X183428452Y-38948121D01*
X183464779Y-38898121D01*
X183464779Y-38836317D01*
X183428452Y-38786317D01*
X183369673Y-38767219D01*
X182798245Y-38767219D01*
X182739466Y-38786317D01*
X182703139Y-38836317D01*
X182703139Y-38898121D01*
X182390145Y-38898121D01*
X182369303Y-38835596D01*
X182351380Y-38811317D01*
X182333826Y-38786766D01*
X182333071Y-38786514D01*
X182332598Y-38785873D01*
X182303772Y-38776748D01*
X182275194Y-38767222D01*
X182274436Y-38767461D01*
X182273676Y-38767221D01*
X182245037Y-38776767D01*
X182216272Y-38785873D01*
X182215798Y-38786514D01*
X182215044Y-38786766D01*
X182197477Y-38811333D01*
X182179567Y-38835597D01*
X181846234Y-39835596D01*
X181845764Y-39897398D01*
X181555105Y-39897398D01*
X181564911Y-39867219D01*
X181564911Y-38967219D01*
X181750625Y-38967219D01*
X181809404Y-38948121D01*
X181845731Y-38898121D01*
X181845731Y-38836317D01*
X181809404Y-38786317D01*
X181750625Y-38767219D01*
X181179197Y-38767219D01*
X181120418Y-38786317D01*
X181084091Y-38836317D01*
X181084091Y-38898121D01*
X180987947Y-38898121D01*
X180974828Y-38856675D01*
X180925104Y-38819970D01*
X180782248Y-38772351D01*
X180766040Y-38772227D01*
X180750625Y-38767219D01*
X180512530Y-38767219D01*
X180490606Y-38774342D01*
X180467808Y-38777776D01*
X180372571Y-38825395D01*
X180361022Y-38836769D01*
X180346581Y-38844128D01*
X180298962Y-38891746D01*
X180291603Y-38906188D01*
X180280230Y-38917736D01*
X180232611Y-39012974D01*
X180229177Y-39035771D01*
X180222054Y-39057695D01*
X180222054Y-39152933D01*
X180079197Y-39152933D01*
X180079197Y-38624362D01*
X185517292Y-38624362D01*
X185517292Y-40110076D01*
G37*
D15*
%TO.C,C34*%
X141092164Y-64160000D02*
X141307836Y-64160000D01*
X141092164Y-63440000D02*
X141307836Y-63440000D01*
%TO.C,SW6*%
X194250000Y-69500000D02*
X194250000Y-71500000D01*
X193200000Y-72800000D02*
X192750000Y-73250000D01*
X193200000Y-68200000D02*
X192750000Y-67750000D01*
X190250000Y-73250000D02*
X192750000Y-73250000D01*
X190250000Y-67750000D02*
X192750000Y-67750000D01*
X189800000Y-72800000D02*
X190250000Y-73250000D01*
X189800000Y-68200000D02*
X190250000Y-67750000D01*
X188750000Y-69500000D02*
X188750000Y-71500000D01*
%TO.C,J2*%
X118855000Y-64980000D02*
X117955000Y-64980000D01*
X118855000Y-64980000D02*
X118855000Y-65780000D01*
X114815000Y-64980000D02*
X115715000Y-64980000D01*
X114815000Y-64980000D02*
X114815000Y-65780000D01*
X118855000Y-73520000D02*
X118855000Y-72720000D01*
X118855000Y-73520000D02*
X117955000Y-73520000D01*
X114815000Y-73520000D02*
X114815000Y-72720000D01*
X114815000Y-73520000D02*
X115715000Y-73520000D01*
X114665000Y-73670000D02*
X114665000Y-73170000D01*
X114665000Y-73670000D02*
X115165000Y-73670000D01*
%TO.C,SW5*%
X194250000Y-62500000D02*
X194250000Y-64500000D01*
X193200000Y-65800000D02*
X192750000Y-66250000D01*
X193200000Y-61200000D02*
X192750000Y-60750000D01*
X190250000Y-66250000D02*
X192750000Y-66250000D01*
X190250000Y-60750000D02*
X192750000Y-60750000D01*
X189800000Y-65800000D02*
X190250000Y-66250000D01*
X189800000Y-61200000D02*
X190250000Y-60750000D01*
X188750000Y-62500000D02*
X188750000Y-64500000D01*
%TO.C,SW4*%
X194250000Y-55500000D02*
X194250000Y-57500000D01*
X193200000Y-58800000D02*
X192750000Y-59250000D01*
X193200000Y-54200000D02*
X192750000Y-53750000D01*
X190250000Y-59250000D02*
X192750000Y-59250000D01*
X190250000Y-53750000D02*
X192750000Y-53750000D01*
X189800000Y-58800000D02*
X190250000Y-59250000D01*
X189800000Y-54200000D02*
X190250000Y-53750000D01*
X188750000Y-55500000D02*
X188750000Y-57500000D01*
%TO.C,GRAPHIC2*%
D10*
X128719200Y-36571500D02*
X126966600Y-36571500D01*
X126712600Y-34857000D01*
X126357000Y-34476000D01*
X127944500Y-34476000D01*
X128719200Y-36571500D01*
G36*
X128719200Y-36571500D02*
G01*
X126966600Y-36571500D01*
X126712600Y-34857000D01*
X126357000Y-34476000D01*
X127944500Y-34476000D01*
X128719200Y-36571500D01*
G37*
X129100200Y-37587500D02*
X127119000Y-37587500D01*
X127004700Y-36825500D01*
X128820800Y-36825500D01*
X129100200Y-37587500D01*
G36*
X129100200Y-37587500D02*
G01*
X127119000Y-37587500D01*
X127004700Y-36825500D01*
X128820800Y-36825500D01*
X129100200Y-37587500D01*
G37*
D15*
%TO.C,D1*%
X116735000Y-63300000D02*
X116735000Y-61015000D01*
X115265000Y-61015000D02*
X115265000Y-63300000D01*
X116735000Y-61015000D02*
X115265000Y-61015000D01*
%TO.C,CR1*%
X127010000Y-65650000D02*
X127010000Y-63650000D01*
X123890000Y-64350000D02*
X123890000Y-65650000D01*
%TO.C,D5*%
X183265000Y-36200000D02*
X183265000Y-38485000D01*
X184735000Y-38485000D02*
X184735000Y-36200000D01*
X183265000Y-38485000D02*
X184735000Y-38485000D01*
%TO.C,D2*%
X118335000Y-63300000D02*
X118335000Y-61015000D01*
X116865000Y-61015000D02*
X116865000Y-63300000D01*
X118335000Y-61015000D02*
X116865000Y-61015000D01*
%TO.C,GRAPHIC1*%
D10*
X124287400Y-34857000D02*
X124033400Y-36571500D01*
X122280800Y-36571500D01*
X123055500Y-34476000D01*
X124643000Y-34476000D01*
X124287400Y-34857000D01*
G36*
X124287400Y-34857000D02*
G01*
X124033400Y-36571500D01*
X122280800Y-36571500D01*
X123055500Y-34476000D01*
X124643000Y-34476000D01*
X124287400Y-34857000D01*
G37*
X123881000Y-37587500D02*
X121899800Y-37587500D01*
X122179200Y-36825500D01*
X123995300Y-36825500D01*
X123881000Y-37587500D01*
G36*
X123881000Y-37587500D02*
G01*
X121899800Y-37587500D01*
X122179200Y-36825500D01*
X123995300Y-36825500D01*
X123881000Y-37587500D01*
G37*
D15*
%TO.C,SW1*%
X184500000Y-84250000D02*
X182500000Y-84250000D01*
X181200000Y-83200000D02*
X180750000Y-82750000D01*
X185800000Y-83200000D02*
X186250000Y-82750000D01*
X180750000Y-80250000D02*
X180750000Y-82750000D01*
X186250000Y-80250000D02*
X186250000Y-82750000D01*
X181200000Y-79800000D02*
X180750000Y-80250000D01*
X185800000Y-79800000D02*
X186250000Y-80250000D01*
X184500000Y-78750000D02*
X182500000Y-78750000D01*
%TO.C,U5*%
X177500000Y-85500000D02*
X176500000Y-85500000D01*
X177500000Y-84500000D02*
X177500000Y-85500000D01*
X177500000Y-69500000D02*
X177500000Y-68500000D01*
X176500000Y-68500000D02*
X177500000Y-68500000D01*
X160500000Y-85500000D02*
X161500000Y-85500000D01*
X160500000Y-84500000D02*
X160500000Y-85500000D01*
X160500000Y-69500000D02*
X160500000Y-68500000D01*
X160500000Y-69500000D02*
X160000000Y-69500000D01*
X160500000Y-68500000D02*
X161500000Y-68500000D01*
%TD*%
M02*
