%TF.GenerationSoftware,KiCad,Pcbnew,7.0.7*%
%TF.CreationDate,2023-09-15T21:11:31-07:00*%
%TF.ProjectId,gshps,67736870-732e-46b6-9963-61645f706362,A*%
%TF.SameCoordinates,Original*%
%TF.FileFunction,Profile,NP*%
%FSLAX46Y46*%
G04 Gerber Fmt 4.6, Leading zero omitted, Abs format (unit mm)*
G04 Created by KiCad (PCBNEW 7.0.7) date 2023-09-15 21:11:31*
%MOMM*%
%LPD*%
G01*
G04 APERTURE LIST*
%ADD10C,0.100000*%
%ADD11C,0.150000*%
%ADD12C,0.300000*%
%ADD13C,0.400000*%
%TA.AperFunction,Profile*%
%ADD14C,0.100000*%
%TD*%
G04 APERTURE END LIST*
D10*
D11*
X159400000Y-171900000D02*
X267400000Y-171900000D01*
X267400000Y-203900000D01*
X159400000Y-203900000D01*
X159400000Y-171900000D01*
D10*
D11*
X10000000Y-10000000D02*
X269400000Y-10000000D01*
X269400000Y-205900000D01*
X10000000Y-205900000D01*
X10000000Y-10000000D01*
D10*
D11*
X12000000Y-12000000D02*
X267400000Y-12000000D01*
X267400000Y-203900000D01*
X12000000Y-203900000D01*
X12000000Y-12000000D01*
D10*
D11*
X60000000Y-12000000D02*
X60000000Y-10000000D01*
D10*
D11*
X110000000Y-12000000D02*
X110000000Y-10000000D01*
D10*
D11*
X160000000Y-12000000D02*
X160000000Y-10000000D01*
D10*
D11*
X210000000Y-12000000D02*
X210000000Y-10000000D01*
D10*
D11*
X260000000Y-12000000D02*
X260000000Y-10000000D01*
D10*
D11*
X36089160Y-11593604D02*
X35346303Y-11593604D01*
X35717731Y-11593604D02*
X35717731Y-10293604D01*
X35717731Y-10293604D02*
X35593922Y-10479319D01*
X35593922Y-10479319D02*
X35470112Y-10603128D01*
X35470112Y-10603128D02*
X35346303Y-10665033D01*
D10*
D11*
X85346303Y-10417414D02*
X85408207Y-10355509D01*
X85408207Y-10355509D02*
X85532017Y-10293604D01*
X85532017Y-10293604D02*
X85841541Y-10293604D01*
X85841541Y-10293604D02*
X85965350Y-10355509D01*
X85965350Y-10355509D02*
X86027255Y-10417414D01*
X86027255Y-10417414D02*
X86089160Y-10541223D01*
X86089160Y-10541223D02*
X86089160Y-10665033D01*
X86089160Y-10665033D02*
X86027255Y-10850747D01*
X86027255Y-10850747D02*
X85284398Y-11593604D01*
X85284398Y-11593604D02*
X86089160Y-11593604D01*
D10*
D11*
X135284398Y-10293604D02*
X136089160Y-10293604D01*
X136089160Y-10293604D02*
X135655826Y-10788842D01*
X135655826Y-10788842D02*
X135841541Y-10788842D01*
X135841541Y-10788842D02*
X135965350Y-10850747D01*
X135965350Y-10850747D02*
X136027255Y-10912652D01*
X136027255Y-10912652D02*
X136089160Y-11036461D01*
X136089160Y-11036461D02*
X136089160Y-11345985D01*
X136089160Y-11345985D02*
X136027255Y-11469795D01*
X136027255Y-11469795D02*
X135965350Y-11531700D01*
X135965350Y-11531700D02*
X135841541Y-11593604D01*
X135841541Y-11593604D02*
X135470112Y-11593604D01*
X135470112Y-11593604D02*
X135346303Y-11531700D01*
X135346303Y-11531700D02*
X135284398Y-11469795D01*
D10*
D11*
X185965350Y-10726938D02*
X185965350Y-11593604D01*
X185655826Y-10231700D02*
X185346303Y-11160271D01*
X185346303Y-11160271D02*
X186151064Y-11160271D01*
D10*
D11*
X236027255Y-10293604D02*
X235408207Y-10293604D01*
X235408207Y-10293604D02*
X235346303Y-10912652D01*
X235346303Y-10912652D02*
X235408207Y-10850747D01*
X235408207Y-10850747D02*
X235532017Y-10788842D01*
X235532017Y-10788842D02*
X235841541Y-10788842D01*
X235841541Y-10788842D02*
X235965350Y-10850747D01*
X235965350Y-10850747D02*
X236027255Y-10912652D01*
X236027255Y-10912652D02*
X236089160Y-11036461D01*
X236089160Y-11036461D02*
X236089160Y-11345985D01*
X236089160Y-11345985D02*
X236027255Y-11469795D01*
X236027255Y-11469795D02*
X235965350Y-11531700D01*
X235965350Y-11531700D02*
X235841541Y-11593604D01*
X235841541Y-11593604D02*
X235532017Y-11593604D01*
X235532017Y-11593604D02*
X235408207Y-11531700D01*
X235408207Y-11531700D02*
X235346303Y-11469795D01*
D10*
D11*
X60000000Y-203900000D02*
X60000000Y-205900000D01*
D10*
D11*
X110000000Y-203900000D02*
X110000000Y-205900000D01*
D10*
D11*
X160000000Y-203900000D02*
X160000000Y-205900000D01*
D10*
D11*
X210000000Y-203900000D02*
X210000000Y-205900000D01*
D10*
D11*
X260000000Y-203900000D02*
X260000000Y-205900000D01*
D10*
D11*
X36089160Y-205493604D02*
X35346303Y-205493604D01*
X35717731Y-205493604D02*
X35717731Y-204193604D01*
X35717731Y-204193604D02*
X35593922Y-204379319D01*
X35593922Y-204379319D02*
X35470112Y-204503128D01*
X35470112Y-204503128D02*
X35346303Y-204565033D01*
D10*
D11*
X85346303Y-204317414D02*
X85408207Y-204255509D01*
X85408207Y-204255509D02*
X85532017Y-204193604D01*
X85532017Y-204193604D02*
X85841541Y-204193604D01*
X85841541Y-204193604D02*
X85965350Y-204255509D01*
X85965350Y-204255509D02*
X86027255Y-204317414D01*
X86027255Y-204317414D02*
X86089160Y-204441223D01*
X86089160Y-204441223D02*
X86089160Y-204565033D01*
X86089160Y-204565033D02*
X86027255Y-204750747D01*
X86027255Y-204750747D02*
X85284398Y-205493604D01*
X85284398Y-205493604D02*
X86089160Y-205493604D01*
D10*
D11*
X135284398Y-204193604D02*
X136089160Y-204193604D01*
X136089160Y-204193604D02*
X135655826Y-204688842D01*
X135655826Y-204688842D02*
X135841541Y-204688842D01*
X135841541Y-204688842D02*
X135965350Y-204750747D01*
X135965350Y-204750747D02*
X136027255Y-204812652D01*
X136027255Y-204812652D02*
X136089160Y-204936461D01*
X136089160Y-204936461D02*
X136089160Y-205245985D01*
X136089160Y-205245985D02*
X136027255Y-205369795D01*
X136027255Y-205369795D02*
X135965350Y-205431700D01*
X135965350Y-205431700D02*
X135841541Y-205493604D01*
X135841541Y-205493604D02*
X135470112Y-205493604D01*
X135470112Y-205493604D02*
X135346303Y-205431700D01*
X135346303Y-205431700D02*
X135284398Y-205369795D01*
D10*
D11*
X185965350Y-204626938D02*
X185965350Y-205493604D01*
X185655826Y-204131700D02*
X185346303Y-205060271D01*
X185346303Y-205060271D02*
X186151064Y-205060271D01*
D10*
D11*
X236027255Y-204193604D02*
X235408207Y-204193604D01*
X235408207Y-204193604D02*
X235346303Y-204812652D01*
X235346303Y-204812652D02*
X235408207Y-204750747D01*
X235408207Y-204750747D02*
X235532017Y-204688842D01*
X235532017Y-204688842D02*
X235841541Y-204688842D01*
X235841541Y-204688842D02*
X235965350Y-204750747D01*
X235965350Y-204750747D02*
X236027255Y-204812652D01*
X236027255Y-204812652D02*
X236089160Y-204936461D01*
X236089160Y-204936461D02*
X236089160Y-205245985D01*
X236089160Y-205245985D02*
X236027255Y-205369795D01*
X236027255Y-205369795D02*
X235965350Y-205431700D01*
X235965350Y-205431700D02*
X235841541Y-205493604D01*
X235841541Y-205493604D02*
X235532017Y-205493604D01*
X235532017Y-205493604D02*
X235408207Y-205431700D01*
X235408207Y-205431700D02*
X235346303Y-205369795D01*
D10*
D11*
X10000000Y-60000000D02*
X12000000Y-60000000D01*
D10*
D11*
X10000000Y-110000000D02*
X12000000Y-110000000D01*
D10*
D11*
X10000000Y-160000000D02*
X12000000Y-160000000D01*
D10*
D11*
X10690476Y-35222176D02*
X11309523Y-35222176D01*
X10566666Y-35593604D02*
X10999999Y-34293604D01*
X10999999Y-34293604D02*
X11433333Y-35593604D01*
D10*
D11*
X11092857Y-84912652D02*
X11278571Y-84974557D01*
X11278571Y-84974557D02*
X11340476Y-85036461D01*
X11340476Y-85036461D02*
X11402380Y-85160271D01*
X11402380Y-85160271D02*
X11402380Y-85345985D01*
X11402380Y-85345985D02*
X11340476Y-85469795D01*
X11340476Y-85469795D02*
X11278571Y-85531700D01*
X11278571Y-85531700D02*
X11154761Y-85593604D01*
X11154761Y-85593604D02*
X10659523Y-85593604D01*
X10659523Y-85593604D02*
X10659523Y-84293604D01*
X10659523Y-84293604D02*
X11092857Y-84293604D01*
X11092857Y-84293604D02*
X11216666Y-84355509D01*
X11216666Y-84355509D02*
X11278571Y-84417414D01*
X11278571Y-84417414D02*
X11340476Y-84541223D01*
X11340476Y-84541223D02*
X11340476Y-84665033D01*
X11340476Y-84665033D02*
X11278571Y-84788842D01*
X11278571Y-84788842D02*
X11216666Y-84850747D01*
X11216666Y-84850747D02*
X11092857Y-84912652D01*
X11092857Y-84912652D02*
X10659523Y-84912652D01*
D10*
D11*
X11402380Y-135469795D02*
X11340476Y-135531700D01*
X11340476Y-135531700D02*
X11154761Y-135593604D01*
X11154761Y-135593604D02*
X11030952Y-135593604D01*
X11030952Y-135593604D02*
X10845238Y-135531700D01*
X10845238Y-135531700D02*
X10721428Y-135407890D01*
X10721428Y-135407890D02*
X10659523Y-135284080D01*
X10659523Y-135284080D02*
X10597619Y-135036461D01*
X10597619Y-135036461D02*
X10597619Y-134850747D01*
X10597619Y-134850747D02*
X10659523Y-134603128D01*
X10659523Y-134603128D02*
X10721428Y-134479319D01*
X10721428Y-134479319D02*
X10845238Y-134355509D01*
X10845238Y-134355509D02*
X11030952Y-134293604D01*
X11030952Y-134293604D02*
X11154761Y-134293604D01*
X11154761Y-134293604D02*
X11340476Y-134355509D01*
X11340476Y-134355509D02*
X11402380Y-134417414D01*
D10*
D11*
X10659523Y-185593604D02*
X10659523Y-184293604D01*
X10659523Y-184293604D02*
X10969047Y-184293604D01*
X10969047Y-184293604D02*
X11154761Y-184355509D01*
X11154761Y-184355509D02*
X11278571Y-184479319D01*
X11278571Y-184479319D02*
X11340476Y-184603128D01*
X11340476Y-184603128D02*
X11402380Y-184850747D01*
X11402380Y-184850747D02*
X11402380Y-185036461D01*
X11402380Y-185036461D02*
X11340476Y-185284080D01*
X11340476Y-185284080D02*
X11278571Y-185407890D01*
X11278571Y-185407890D02*
X11154761Y-185531700D01*
X11154761Y-185531700D02*
X10969047Y-185593604D01*
X10969047Y-185593604D02*
X10659523Y-185593604D01*
D10*
D11*
X269400000Y-60000000D02*
X267400000Y-60000000D01*
D10*
D11*
X269400000Y-110000000D02*
X267400000Y-110000000D01*
D10*
D11*
X269400000Y-160000000D02*
X267400000Y-160000000D01*
D10*
D11*
X268090476Y-35222176D02*
X268709523Y-35222176D01*
X267966666Y-35593604D02*
X268399999Y-34293604D01*
X268399999Y-34293604D02*
X268833333Y-35593604D01*
D10*
D11*
X268492857Y-84912652D02*
X268678571Y-84974557D01*
X268678571Y-84974557D02*
X268740476Y-85036461D01*
X268740476Y-85036461D02*
X268802380Y-85160271D01*
X268802380Y-85160271D02*
X268802380Y-85345985D01*
X268802380Y-85345985D02*
X268740476Y-85469795D01*
X268740476Y-85469795D02*
X268678571Y-85531700D01*
X268678571Y-85531700D02*
X268554761Y-85593604D01*
X268554761Y-85593604D02*
X268059523Y-85593604D01*
X268059523Y-85593604D02*
X268059523Y-84293604D01*
X268059523Y-84293604D02*
X268492857Y-84293604D01*
X268492857Y-84293604D02*
X268616666Y-84355509D01*
X268616666Y-84355509D02*
X268678571Y-84417414D01*
X268678571Y-84417414D02*
X268740476Y-84541223D01*
X268740476Y-84541223D02*
X268740476Y-84665033D01*
X268740476Y-84665033D02*
X268678571Y-84788842D01*
X268678571Y-84788842D02*
X268616666Y-84850747D01*
X268616666Y-84850747D02*
X268492857Y-84912652D01*
X268492857Y-84912652D02*
X268059523Y-84912652D01*
D10*
D11*
X268802380Y-135469795D02*
X268740476Y-135531700D01*
X268740476Y-135531700D02*
X268554761Y-135593604D01*
X268554761Y-135593604D02*
X268430952Y-135593604D01*
X268430952Y-135593604D02*
X268245238Y-135531700D01*
X268245238Y-135531700D02*
X268121428Y-135407890D01*
X268121428Y-135407890D02*
X268059523Y-135284080D01*
X268059523Y-135284080D02*
X267997619Y-135036461D01*
X267997619Y-135036461D02*
X267997619Y-134850747D01*
X267997619Y-134850747D02*
X268059523Y-134603128D01*
X268059523Y-134603128D02*
X268121428Y-134479319D01*
X268121428Y-134479319D02*
X268245238Y-134355509D01*
X268245238Y-134355509D02*
X268430952Y-134293604D01*
X268430952Y-134293604D02*
X268554761Y-134293604D01*
X268554761Y-134293604D02*
X268740476Y-134355509D01*
X268740476Y-134355509D02*
X268802380Y-134417414D01*
D10*
D11*
X268059523Y-185593604D02*
X268059523Y-184293604D01*
X268059523Y-184293604D02*
X268369047Y-184293604D01*
X268369047Y-184293604D02*
X268554761Y-184355509D01*
X268554761Y-184355509D02*
X268678571Y-184479319D01*
X268678571Y-184479319D02*
X268740476Y-184603128D01*
X268740476Y-184603128D02*
X268802380Y-184850747D01*
X268802380Y-184850747D02*
X268802380Y-185036461D01*
X268802380Y-185036461D02*
X268740476Y-185284080D01*
X268740476Y-185284080D02*
X268678571Y-185407890D01*
X268678571Y-185407890D02*
X268554761Y-185531700D01*
X268554761Y-185531700D02*
X268369047Y-185593604D01*
X268369047Y-185593604D02*
X268059523Y-185593604D01*
D10*
D11*
X182855826Y-199686128D02*
X182855826Y-198186128D01*
X182855826Y-198186128D02*
X183212969Y-198186128D01*
X183212969Y-198186128D02*
X183427255Y-198257557D01*
X183427255Y-198257557D02*
X183570112Y-198400414D01*
X183570112Y-198400414D02*
X183641541Y-198543271D01*
X183641541Y-198543271D02*
X183712969Y-198828985D01*
X183712969Y-198828985D02*
X183712969Y-199043271D01*
X183712969Y-199043271D02*
X183641541Y-199328985D01*
X183641541Y-199328985D02*
X183570112Y-199471842D01*
X183570112Y-199471842D02*
X183427255Y-199614700D01*
X183427255Y-199614700D02*
X183212969Y-199686128D01*
X183212969Y-199686128D02*
X182855826Y-199686128D01*
X184998684Y-199686128D02*
X184998684Y-198900414D01*
X184998684Y-198900414D02*
X184927255Y-198757557D01*
X184927255Y-198757557D02*
X184784398Y-198686128D01*
X184784398Y-198686128D02*
X184498684Y-198686128D01*
X184498684Y-198686128D02*
X184355826Y-198757557D01*
X184998684Y-199614700D02*
X184855826Y-199686128D01*
X184855826Y-199686128D02*
X184498684Y-199686128D01*
X184498684Y-199686128D02*
X184355826Y-199614700D01*
X184355826Y-199614700D02*
X184284398Y-199471842D01*
X184284398Y-199471842D02*
X184284398Y-199328985D01*
X184284398Y-199328985D02*
X184355826Y-199186128D01*
X184355826Y-199186128D02*
X184498684Y-199114700D01*
X184498684Y-199114700D02*
X184855826Y-199114700D01*
X184855826Y-199114700D02*
X184998684Y-199043271D01*
X185498684Y-198686128D02*
X186070112Y-198686128D01*
X185712969Y-198186128D02*
X185712969Y-199471842D01*
X185712969Y-199471842D02*
X185784398Y-199614700D01*
X185784398Y-199614700D02*
X185927255Y-199686128D01*
X185927255Y-199686128D02*
X186070112Y-199686128D01*
X187141541Y-199614700D02*
X186998684Y-199686128D01*
X186998684Y-199686128D02*
X186712970Y-199686128D01*
X186712970Y-199686128D02*
X186570112Y-199614700D01*
X186570112Y-199614700D02*
X186498684Y-199471842D01*
X186498684Y-199471842D02*
X186498684Y-198900414D01*
X186498684Y-198900414D02*
X186570112Y-198757557D01*
X186570112Y-198757557D02*
X186712970Y-198686128D01*
X186712970Y-198686128D02*
X186998684Y-198686128D01*
X186998684Y-198686128D02*
X187141541Y-198757557D01*
X187141541Y-198757557D02*
X187212970Y-198900414D01*
X187212970Y-198900414D02*
X187212970Y-199043271D01*
X187212970Y-199043271D02*
X186498684Y-199186128D01*
X187855826Y-199543271D02*
X187927255Y-199614700D01*
X187927255Y-199614700D02*
X187855826Y-199686128D01*
X187855826Y-199686128D02*
X187784398Y-199614700D01*
X187784398Y-199614700D02*
X187855826Y-199543271D01*
X187855826Y-199543271D02*
X187855826Y-199686128D01*
X187855826Y-198757557D02*
X187927255Y-198828985D01*
X187927255Y-198828985D02*
X187855826Y-198900414D01*
X187855826Y-198900414D02*
X187784398Y-198828985D01*
X187784398Y-198828985D02*
X187855826Y-198757557D01*
X187855826Y-198757557D02*
X187855826Y-198900414D01*
X189641541Y-198328985D02*
X189712969Y-198257557D01*
X189712969Y-198257557D02*
X189855827Y-198186128D01*
X189855827Y-198186128D02*
X190212969Y-198186128D01*
X190212969Y-198186128D02*
X190355827Y-198257557D01*
X190355827Y-198257557D02*
X190427255Y-198328985D01*
X190427255Y-198328985D02*
X190498684Y-198471842D01*
X190498684Y-198471842D02*
X190498684Y-198614700D01*
X190498684Y-198614700D02*
X190427255Y-198828985D01*
X190427255Y-198828985D02*
X189570112Y-199686128D01*
X189570112Y-199686128D02*
X190498684Y-199686128D01*
X191427255Y-198186128D02*
X191570112Y-198186128D01*
X191570112Y-198186128D02*
X191712969Y-198257557D01*
X191712969Y-198257557D02*
X191784398Y-198328985D01*
X191784398Y-198328985D02*
X191855826Y-198471842D01*
X191855826Y-198471842D02*
X191927255Y-198757557D01*
X191927255Y-198757557D02*
X191927255Y-199114700D01*
X191927255Y-199114700D02*
X191855826Y-199400414D01*
X191855826Y-199400414D02*
X191784398Y-199543271D01*
X191784398Y-199543271D02*
X191712969Y-199614700D01*
X191712969Y-199614700D02*
X191570112Y-199686128D01*
X191570112Y-199686128D02*
X191427255Y-199686128D01*
X191427255Y-199686128D02*
X191284398Y-199614700D01*
X191284398Y-199614700D02*
X191212969Y-199543271D01*
X191212969Y-199543271D02*
X191141540Y-199400414D01*
X191141540Y-199400414D02*
X191070112Y-199114700D01*
X191070112Y-199114700D02*
X191070112Y-198757557D01*
X191070112Y-198757557D02*
X191141540Y-198471842D01*
X191141540Y-198471842D02*
X191212969Y-198328985D01*
X191212969Y-198328985D02*
X191284398Y-198257557D01*
X191284398Y-198257557D02*
X191427255Y-198186128D01*
X192498683Y-198328985D02*
X192570111Y-198257557D01*
X192570111Y-198257557D02*
X192712969Y-198186128D01*
X192712969Y-198186128D02*
X193070111Y-198186128D01*
X193070111Y-198186128D02*
X193212969Y-198257557D01*
X193212969Y-198257557D02*
X193284397Y-198328985D01*
X193284397Y-198328985D02*
X193355826Y-198471842D01*
X193355826Y-198471842D02*
X193355826Y-198614700D01*
X193355826Y-198614700D02*
X193284397Y-198828985D01*
X193284397Y-198828985D02*
X192427254Y-199686128D01*
X192427254Y-199686128D02*
X193355826Y-199686128D01*
X193855825Y-198186128D02*
X194784397Y-198186128D01*
X194784397Y-198186128D02*
X194284397Y-198757557D01*
X194284397Y-198757557D02*
X194498682Y-198757557D01*
X194498682Y-198757557D02*
X194641540Y-198828985D01*
X194641540Y-198828985D02*
X194712968Y-198900414D01*
X194712968Y-198900414D02*
X194784397Y-199043271D01*
X194784397Y-199043271D02*
X194784397Y-199400414D01*
X194784397Y-199400414D02*
X194712968Y-199543271D01*
X194712968Y-199543271D02*
X194641540Y-199614700D01*
X194641540Y-199614700D02*
X194498682Y-199686128D01*
X194498682Y-199686128D02*
X194070111Y-199686128D01*
X194070111Y-199686128D02*
X193927254Y-199614700D01*
X193927254Y-199614700D02*
X193855825Y-199543271D01*
X195427253Y-199114700D02*
X196570111Y-199114700D01*
X197570111Y-198186128D02*
X197712968Y-198186128D01*
X197712968Y-198186128D02*
X197855825Y-198257557D01*
X197855825Y-198257557D02*
X197927254Y-198328985D01*
X197927254Y-198328985D02*
X197998682Y-198471842D01*
X197998682Y-198471842D02*
X198070111Y-198757557D01*
X198070111Y-198757557D02*
X198070111Y-199114700D01*
X198070111Y-199114700D02*
X197998682Y-199400414D01*
X197998682Y-199400414D02*
X197927254Y-199543271D01*
X197927254Y-199543271D02*
X197855825Y-199614700D01*
X197855825Y-199614700D02*
X197712968Y-199686128D01*
X197712968Y-199686128D02*
X197570111Y-199686128D01*
X197570111Y-199686128D02*
X197427254Y-199614700D01*
X197427254Y-199614700D02*
X197355825Y-199543271D01*
X197355825Y-199543271D02*
X197284396Y-199400414D01*
X197284396Y-199400414D02*
X197212968Y-199114700D01*
X197212968Y-199114700D02*
X197212968Y-198757557D01*
X197212968Y-198757557D02*
X197284396Y-198471842D01*
X197284396Y-198471842D02*
X197355825Y-198328985D01*
X197355825Y-198328985D02*
X197427254Y-198257557D01*
X197427254Y-198257557D02*
X197570111Y-198186128D01*
X198784396Y-199686128D02*
X199070110Y-199686128D01*
X199070110Y-199686128D02*
X199212967Y-199614700D01*
X199212967Y-199614700D02*
X199284396Y-199543271D01*
X199284396Y-199543271D02*
X199427253Y-199328985D01*
X199427253Y-199328985D02*
X199498682Y-199043271D01*
X199498682Y-199043271D02*
X199498682Y-198471842D01*
X199498682Y-198471842D02*
X199427253Y-198328985D01*
X199427253Y-198328985D02*
X199355825Y-198257557D01*
X199355825Y-198257557D02*
X199212967Y-198186128D01*
X199212967Y-198186128D02*
X198927253Y-198186128D01*
X198927253Y-198186128D02*
X198784396Y-198257557D01*
X198784396Y-198257557D02*
X198712967Y-198328985D01*
X198712967Y-198328985D02*
X198641539Y-198471842D01*
X198641539Y-198471842D02*
X198641539Y-198828985D01*
X198641539Y-198828985D02*
X198712967Y-198971842D01*
X198712967Y-198971842D02*
X198784396Y-199043271D01*
X198784396Y-199043271D02*
X198927253Y-199114700D01*
X198927253Y-199114700D02*
X199212967Y-199114700D01*
X199212967Y-199114700D02*
X199355825Y-199043271D01*
X199355825Y-199043271D02*
X199427253Y-198971842D01*
X199427253Y-198971842D02*
X199498682Y-198828985D01*
X200141538Y-199114700D02*
X201284396Y-199114700D01*
X202784396Y-199686128D02*
X201927253Y-199686128D01*
X202355824Y-199686128D02*
X202355824Y-198186128D01*
X202355824Y-198186128D02*
X202212967Y-198400414D01*
X202212967Y-198400414D02*
X202070110Y-198543271D01*
X202070110Y-198543271D02*
X201927253Y-198614700D01*
X203712967Y-198186128D02*
X203855824Y-198186128D01*
X203855824Y-198186128D02*
X203998681Y-198257557D01*
X203998681Y-198257557D02*
X204070110Y-198328985D01*
X204070110Y-198328985D02*
X204141538Y-198471842D01*
X204141538Y-198471842D02*
X204212967Y-198757557D01*
X204212967Y-198757557D02*
X204212967Y-199114700D01*
X204212967Y-199114700D02*
X204141538Y-199400414D01*
X204141538Y-199400414D02*
X204070110Y-199543271D01*
X204070110Y-199543271D02*
X203998681Y-199614700D01*
X203998681Y-199614700D02*
X203855824Y-199686128D01*
X203855824Y-199686128D02*
X203712967Y-199686128D01*
X203712967Y-199686128D02*
X203570110Y-199614700D01*
X203570110Y-199614700D02*
X203498681Y-199543271D01*
X203498681Y-199543271D02*
X203427252Y-199400414D01*
X203427252Y-199400414D02*
X203355824Y-199114700D01*
X203355824Y-199114700D02*
X203355824Y-198757557D01*
X203355824Y-198757557D02*
X203427252Y-198471842D01*
X203427252Y-198471842D02*
X203498681Y-198328985D01*
X203498681Y-198328985D02*
X203570110Y-198257557D01*
X203570110Y-198257557D02*
X203712967Y-198186128D01*
D10*
D11*
X159400000Y-200400000D02*
X267400000Y-200400000D01*
D10*
D11*
X160855826Y-202486128D02*
X160855826Y-200986128D01*
X161712969Y-202486128D02*
X161070112Y-201628985D01*
X161712969Y-200986128D02*
X160855826Y-201843271D01*
X162355826Y-202486128D02*
X162355826Y-201486128D01*
X162355826Y-200986128D02*
X162284398Y-201057557D01*
X162284398Y-201057557D02*
X162355826Y-201128985D01*
X162355826Y-201128985D02*
X162427255Y-201057557D01*
X162427255Y-201057557D02*
X162355826Y-200986128D01*
X162355826Y-200986128D02*
X162355826Y-201128985D01*
X163927255Y-202343271D02*
X163855827Y-202414700D01*
X163855827Y-202414700D02*
X163641541Y-202486128D01*
X163641541Y-202486128D02*
X163498684Y-202486128D01*
X163498684Y-202486128D02*
X163284398Y-202414700D01*
X163284398Y-202414700D02*
X163141541Y-202271842D01*
X163141541Y-202271842D02*
X163070112Y-202128985D01*
X163070112Y-202128985D02*
X162998684Y-201843271D01*
X162998684Y-201843271D02*
X162998684Y-201628985D01*
X162998684Y-201628985D02*
X163070112Y-201343271D01*
X163070112Y-201343271D02*
X163141541Y-201200414D01*
X163141541Y-201200414D02*
X163284398Y-201057557D01*
X163284398Y-201057557D02*
X163498684Y-200986128D01*
X163498684Y-200986128D02*
X163641541Y-200986128D01*
X163641541Y-200986128D02*
X163855827Y-201057557D01*
X163855827Y-201057557D02*
X163927255Y-201128985D01*
X165212970Y-202486128D02*
X165212970Y-201700414D01*
X165212970Y-201700414D02*
X165141541Y-201557557D01*
X165141541Y-201557557D02*
X164998684Y-201486128D01*
X164998684Y-201486128D02*
X164712970Y-201486128D01*
X164712970Y-201486128D02*
X164570112Y-201557557D01*
X165212970Y-202414700D02*
X165070112Y-202486128D01*
X165070112Y-202486128D02*
X164712970Y-202486128D01*
X164712970Y-202486128D02*
X164570112Y-202414700D01*
X164570112Y-202414700D02*
X164498684Y-202271842D01*
X164498684Y-202271842D02*
X164498684Y-202128985D01*
X164498684Y-202128985D02*
X164570112Y-201986128D01*
X164570112Y-201986128D02*
X164712970Y-201914700D01*
X164712970Y-201914700D02*
X165070112Y-201914700D01*
X165070112Y-201914700D02*
X165212970Y-201843271D01*
X166570113Y-202486128D02*
X166570113Y-200986128D01*
X166570113Y-202414700D02*
X166427255Y-202486128D01*
X166427255Y-202486128D02*
X166141541Y-202486128D01*
X166141541Y-202486128D02*
X165998684Y-202414700D01*
X165998684Y-202414700D02*
X165927255Y-202343271D01*
X165927255Y-202343271D02*
X165855827Y-202200414D01*
X165855827Y-202200414D02*
X165855827Y-201771842D01*
X165855827Y-201771842D02*
X165927255Y-201628985D01*
X165927255Y-201628985D02*
X165998684Y-201557557D01*
X165998684Y-201557557D02*
X166141541Y-201486128D01*
X166141541Y-201486128D02*
X166427255Y-201486128D01*
X166427255Y-201486128D02*
X166570113Y-201557557D01*
X168427255Y-201700414D02*
X168927255Y-201700414D01*
X169141541Y-202486128D02*
X168427255Y-202486128D01*
X168427255Y-202486128D02*
X168427255Y-200986128D01*
X168427255Y-200986128D02*
X169141541Y-200986128D01*
X169784398Y-202343271D02*
X169855827Y-202414700D01*
X169855827Y-202414700D02*
X169784398Y-202486128D01*
X169784398Y-202486128D02*
X169712970Y-202414700D01*
X169712970Y-202414700D02*
X169784398Y-202343271D01*
X169784398Y-202343271D02*
X169784398Y-202486128D01*
X170498684Y-202486128D02*
X170498684Y-200986128D01*
X170498684Y-200986128D02*
X170855827Y-200986128D01*
X170855827Y-200986128D02*
X171070113Y-201057557D01*
X171070113Y-201057557D02*
X171212970Y-201200414D01*
X171212970Y-201200414D02*
X171284399Y-201343271D01*
X171284399Y-201343271D02*
X171355827Y-201628985D01*
X171355827Y-201628985D02*
X171355827Y-201843271D01*
X171355827Y-201843271D02*
X171284399Y-202128985D01*
X171284399Y-202128985D02*
X171212970Y-202271842D01*
X171212970Y-202271842D02*
X171070113Y-202414700D01*
X171070113Y-202414700D02*
X170855827Y-202486128D01*
X170855827Y-202486128D02*
X170498684Y-202486128D01*
X171998684Y-202343271D02*
X172070113Y-202414700D01*
X172070113Y-202414700D02*
X171998684Y-202486128D01*
X171998684Y-202486128D02*
X171927256Y-202414700D01*
X171927256Y-202414700D02*
X171998684Y-202343271D01*
X171998684Y-202343271D02*
X171998684Y-202486128D01*
X172641542Y-202057557D02*
X173355828Y-202057557D01*
X172498685Y-202486128D02*
X172998685Y-200986128D01*
X172998685Y-200986128D02*
X173498685Y-202486128D01*
X173998684Y-202343271D02*
X174070113Y-202414700D01*
X174070113Y-202414700D02*
X173998684Y-202486128D01*
X173998684Y-202486128D02*
X173927256Y-202414700D01*
X173927256Y-202414700D02*
X173998684Y-202343271D01*
X173998684Y-202343271D02*
X173998684Y-202486128D01*
X176998684Y-202486128D02*
X176998684Y-200986128D01*
X177141542Y-201914700D02*
X177570113Y-202486128D01*
X177570113Y-201486128D02*
X176998684Y-202057557D01*
X178212970Y-202486128D02*
X178212970Y-201486128D01*
X178212970Y-200986128D02*
X178141542Y-201057557D01*
X178141542Y-201057557D02*
X178212970Y-201128985D01*
X178212970Y-201128985D02*
X178284399Y-201057557D01*
X178284399Y-201057557D02*
X178212970Y-200986128D01*
X178212970Y-200986128D02*
X178212970Y-201128985D01*
X179570114Y-202414700D02*
X179427256Y-202486128D01*
X179427256Y-202486128D02*
X179141542Y-202486128D01*
X179141542Y-202486128D02*
X178998685Y-202414700D01*
X178998685Y-202414700D02*
X178927256Y-202343271D01*
X178927256Y-202343271D02*
X178855828Y-202200414D01*
X178855828Y-202200414D02*
X178855828Y-201771842D01*
X178855828Y-201771842D02*
X178927256Y-201628985D01*
X178927256Y-201628985D02*
X178998685Y-201557557D01*
X178998685Y-201557557D02*
X179141542Y-201486128D01*
X179141542Y-201486128D02*
X179427256Y-201486128D01*
X179427256Y-201486128D02*
X179570114Y-201557557D01*
X180855828Y-202486128D02*
X180855828Y-201700414D01*
X180855828Y-201700414D02*
X180784399Y-201557557D01*
X180784399Y-201557557D02*
X180641542Y-201486128D01*
X180641542Y-201486128D02*
X180355828Y-201486128D01*
X180355828Y-201486128D02*
X180212970Y-201557557D01*
X180855828Y-202414700D02*
X180712970Y-202486128D01*
X180712970Y-202486128D02*
X180355828Y-202486128D01*
X180355828Y-202486128D02*
X180212970Y-202414700D01*
X180212970Y-202414700D02*
X180141542Y-202271842D01*
X180141542Y-202271842D02*
X180141542Y-202128985D01*
X180141542Y-202128985D02*
X180212970Y-201986128D01*
X180212970Y-201986128D02*
X180355828Y-201914700D01*
X180355828Y-201914700D02*
X180712970Y-201914700D01*
X180712970Y-201914700D02*
X180855828Y-201843271D01*
X182212971Y-202486128D02*
X182212971Y-200986128D01*
X182212971Y-202414700D02*
X182070113Y-202486128D01*
X182070113Y-202486128D02*
X181784399Y-202486128D01*
X181784399Y-202486128D02*
X181641542Y-202414700D01*
X181641542Y-202414700D02*
X181570113Y-202343271D01*
X181570113Y-202343271D02*
X181498685Y-202200414D01*
X181498685Y-202200414D02*
X181498685Y-201771842D01*
X181498685Y-201771842D02*
X181570113Y-201628985D01*
X181570113Y-201628985D02*
X181641542Y-201557557D01*
X181641542Y-201557557D02*
X181784399Y-201486128D01*
X181784399Y-201486128D02*
X182070113Y-201486128D01*
X182070113Y-201486128D02*
X182212971Y-201557557D01*
X183927256Y-200986128D02*
X184927256Y-200986128D01*
X184927256Y-200986128D02*
X184284399Y-202486128D01*
X185498684Y-202343271D02*
X185570113Y-202414700D01*
X185570113Y-202414700D02*
X185498684Y-202486128D01*
X185498684Y-202486128D02*
X185427256Y-202414700D01*
X185427256Y-202414700D02*
X185498684Y-202343271D01*
X185498684Y-202343271D02*
X185498684Y-202486128D01*
X186498685Y-200986128D02*
X186641542Y-200986128D01*
X186641542Y-200986128D02*
X186784399Y-201057557D01*
X186784399Y-201057557D02*
X186855828Y-201128985D01*
X186855828Y-201128985D02*
X186927256Y-201271842D01*
X186927256Y-201271842D02*
X186998685Y-201557557D01*
X186998685Y-201557557D02*
X186998685Y-201914700D01*
X186998685Y-201914700D02*
X186927256Y-202200414D01*
X186927256Y-202200414D02*
X186855828Y-202343271D01*
X186855828Y-202343271D02*
X186784399Y-202414700D01*
X186784399Y-202414700D02*
X186641542Y-202486128D01*
X186641542Y-202486128D02*
X186498685Y-202486128D01*
X186498685Y-202486128D02*
X186355828Y-202414700D01*
X186355828Y-202414700D02*
X186284399Y-202343271D01*
X186284399Y-202343271D02*
X186212970Y-202200414D01*
X186212970Y-202200414D02*
X186141542Y-201914700D01*
X186141542Y-201914700D02*
X186141542Y-201557557D01*
X186141542Y-201557557D02*
X186212970Y-201271842D01*
X186212970Y-201271842D02*
X186284399Y-201128985D01*
X186284399Y-201128985D02*
X186355828Y-201057557D01*
X186355828Y-201057557D02*
X186498685Y-200986128D01*
X187641541Y-202343271D02*
X187712970Y-202414700D01*
X187712970Y-202414700D02*
X187641541Y-202486128D01*
X187641541Y-202486128D02*
X187570113Y-202414700D01*
X187570113Y-202414700D02*
X187641541Y-202343271D01*
X187641541Y-202343271D02*
X187641541Y-202486128D01*
X188212970Y-200986128D02*
X189212970Y-200986128D01*
X189212970Y-200986128D02*
X188570113Y-202486128D01*
D10*
D11*
X159400000Y-197400000D02*
X267400000Y-197400000D01*
D10*
D12*
X246811653Y-199678328D02*
X246311653Y-198964042D01*
X245954510Y-199678328D02*
X245954510Y-198178328D01*
X245954510Y-198178328D02*
X246525939Y-198178328D01*
X246525939Y-198178328D02*
X246668796Y-198249757D01*
X246668796Y-198249757D02*
X246740225Y-198321185D01*
X246740225Y-198321185D02*
X246811653Y-198464042D01*
X246811653Y-198464042D02*
X246811653Y-198678328D01*
X246811653Y-198678328D02*
X246740225Y-198821185D01*
X246740225Y-198821185D02*
X246668796Y-198892614D01*
X246668796Y-198892614D02*
X246525939Y-198964042D01*
X246525939Y-198964042D02*
X245954510Y-198964042D01*
X248025939Y-199606900D02*
X247883082Y-199678328D01*
X247883082Y-199678328D02*
X247597368Y-199678328D01*
X247597368Y-199678328D02*
X247454510Y-199606900D01*
X247454510Y-199606900D02*
X247383082Y-199464042D01*
X247383082Y-199464042D02*
X247383082Y-198892614D01*
X247383082Y-198892614D02*
X247454510Y-198749757D01*
X247454510Y-198749757D02*
X247597368Y-198678328D01*
X247597368Y-198678328D02*
X247883082Y-198678328D01*
X247883082Y-198678328D02*
X248025939Y-198749757D01*
X248025939Y-198749757D02*
X248097368Y-198892614D01*
X248097368Y-198892614D02*
X248097368Y-199035471D01*
X248097368Y-199035471D02*
X247383082Y-199178328D01*
X248597367Y-198678328D02*
X248954510Y-199678328D01*
X248954510Y-199678328D02*
X249311653Y-198678328D01*
X249883081Y-199535471D02*
X249954510Y-199606900D01*
X249954510Y-199606900D02*
X249883081Y-199678328D01*
X249883081Y-199678328D02*
X249811653Y-199606900D01*
X249811653Y-199606900D02*
X249883081Y-199535471D01*
X249883081Y-199535471D02*
X249883081Y-199678328D01*
X249883081Y-198749757D02*
X249954510Y-198821185D01*
X249954510Y-198821185D02*
X249883081Y-198892614D01*
X249883081Y-198892614D02*
X249811653Y-198821185D01*
X249811653Y-198821185D02*
X249883081Y-198749757D01*
X249883081Y-198749757D02*
X249883081Y-198892614D01*
X251668796Y-199249757D02*
X252383082Y-199249757D01*
X251525939Y-199678328D02*
X252025939Y-198178328D01*
X252025939Y-198178328D02*
X252525939Y-199678328D01*
D10*
D11*
X160784398Y-199614700D02*
X160998684Y-199686128D01*
X160998684Y-199686128D02*
X161355826Y-199686128D01*
X161355826Y-199686128D02*
X161498684Y-199614700D01*
X161498684Y-199614700D02*
X161570112Y-199543271D01*
X161570112Y-199543271D02*
X161641541Y-199400414D01*
X161641541Y-199400414D02*
X161641541Y-199257557D01*
X161641541Y-199257557D02*
X161570112Y-199114700D01*
X161570112Y-199114700D02*
X161498684Y-199043271D01*
X161498684Y-199043271D02*
X161355826Y-198971842D01*
X161355826Y-198971842D02*
X161070112Y-198900414D01*
X161070112Y-198900414D02*
X160927255Y-198828985D01*
X160927255Y-198828985D02*
X160855826Y-198757557D01*
X160855826Y-198757557D02*
X160784398Y-198614700D01*
X160784398Y-198614700D02*
X160784398Y-198471842D01*
X160784398Y-198471842D02*
X160855826Y-198328985D01*
X160855826Y-198328985D02*
X160927255Y-198257557D01*
X160927255Y-198257557D02*
X161070112Y-198186128D01*
X161070112Y-198186128D02*
X161427255Y-198186128D01*
X161427255Y-198186128D02*
X161641541Y-198257557D01*
X162284397Y-199686128D02*
X162284397Y-198686128D01*
X162284397Y-198186128D02*
X162212969Y-198257557D01*
X162212969Y-198257557D02*
X162284397Y-198328985D01*
X162284397Y-198328985D02*
X162355826Y-198257557D01*
X162355826Y-198257557D02*
X162284397Y-198186128D01*
X162284397Y-198186128D02*
X162284397Y-198328985D01*
X162855826Y-198686128D02*
X163641541Y-198686128D01*
X163641541Y-198686128D02*
X162855826Y-199686128D01*
X162855826Y-199686128D02*
X163641541Y-199686128D01*
X164784398Y-199614700D02*
X164641541Y-199686128D01*
X164641541Y-199686128D02*
X164355827Y-199686128D01*
X164355827Y-199686128D02*
X164212969Y-199614700D01*
X164212969Y-199614700D02*
X164141541Y-199471842D01*
X164141541Y-199471842D02*
X164141541Y-198900414D01*
X164141541Y-198900414D02*
X164212969Y-198757557D01*
X164212969Y-198757557D02*
X164355827Y-198686128D01*
X164355827Y-198686128D02*
X164641541Y-198686128D01*
X164641541Y-198686128D02*
X164784398Y-198757557D01*
X164784398Y-198757557D02*
X164855827Y-198900414D01*
X164855827Y-198900414D02*
X164855827Y-199043271D01*
X164855827Y-199043271D02*
X164141541Y-199186128D01*
X165498683Y-199543271D02*
X165570112Y-199614700D01*
X165570112Y-199614700D02*
X165498683Y-199686128D01*
X165498683Y-199686128D02*
X165427255Y-199614700D01*
X165427255Y-199614700D02*
X165498683Y-199543271D01*
X165498683Y-199543271D02*
X165498683Y-199686128D01*
X165498683Y-198757557D02*
X165570112Y-198828985D01*
X165570112Y-198828985D02*
X165498683Y-198900414D01*
X165498683Y-198900414D02*
X165427255Y-198828985D01*
X165427255Y-198828985D02*
X165498683Y-198757557D01*
X165498683Y-198757557D02*
X165498683Y-198900414D01*
X167284398Y-199257557D02*
X167998684Y-199257557D01*
X167141541Y-199686128D02*
X167641541Y-198186128D01*
X167641541Y-198186128D02*
X168141541Y-199686128D01*
D10*
D11*
X245855826Y-202486128D02*
X245855826Y-200986128D01*
X247212970Y-202486128D02*
X247212970Y-200986128D01*
X247212970Y-202414700D02*
X247070112Y-202486128D01*
X247070112Y-202486128D02*
X246784398Y-202486128D01*
X246784398Y-202486128D02*
X246641541Y-202414700D01*
X246641541Y-202414700D02*
X246570112Y-202343271D01*
X246570112Y-202343271D02*
X246498684Y-202200414D01*
X246498684Y-202200414D02*
X246498684Y-201771842D01*
X246498684Y-201771842D02*
X246570112Y-201628985D01*
X246570112Y-201628985D02*
X246641541Y-201557557D01*
X246641541Y-201557557D02*
X246784398Y-201486128D01*
X246784398Y-201486128D02*
X247070112Y-201486128D01*
X247070112Y-201486128D02*
X247212970Y-201557557D01*
X247927255Y-202343271D02*
X247998684Y-202414700D01*
X247998684Y-202414700D02*
X247927255Y-202486128D01*
X247927255Y-202486128D02*
X247855827Y-202414700D01*
X247855827Y-202414700D02*
X247927255Y-202343271D01*
X247927255Y-202343271D02*
X247927255Y-202486128D01*
X247927255Y-201557557D02*
X247998684Y-201628985D01*
X247998684Y-201628985D02*
X247927255Y-201700414D01*
X247927255Y-201700414D02*
X247855827Y-201628985D01*
X247855827Y-201628985D02*
X247927255Y-201557557D01*
X247927255Y-201557557D02*
X247927255Y-201700414D01*
X250570113Y-202486128D02*
X249712970Y-202486128D01*
X250141541Y-202486128D02*
X250141541Y-200986128D01*
X250141541Y-200986128D02*
X249998684Y-201200414D01*
X249998684Y-201200414D02*
X249855827Y-201343271D01*
X249855827Y-201343271D02*
X249712970Y-201414700D01*
X252284398Y-200914700D02*
X250998684Y-202843271D01*
X253570113Y-202486128D02*
X252712970Y-202486128D01*
X253141541Y-202486128D02*
X253141541Y-200986128D01*
X253141541Y-200986128D02*
X252998684Y-201200414D01*
X252998684Y-201200414D02*
X252855827Y-201343271D01*
X252855827Y-201343271D02*
X252712970Y-201414700D01*
D10*
D11*
X159400000Y-193400000D02*
X267400000Y-193400000D01*
D10*
D13*
X161091728Y-194104438D02*
X162234585Y-194104438D01*
X161413157Y-196104438D02*
X161663157Y-194104438D01*
X162651252Y-196104438D02*
X162817919Y-194771104D01*
X162901252Y-194104438D02*
X162794109Y-194199676D01*
X162794109Y-194199676D02*
X162877443Y-194294914D01*
X162877443Y-194294914D02*
X162984586Y-194199676D01*
X162984586Y-194199676D02*
X162901252Y-194104438D01*
X162901252Y-194104438D02*
X162877443Y-194294914D01*
X163484586Y-194771104D02*
X164246490Y-194771104D01*
X163853633Y-194104438D02*
X163639348Y-195818723D01*
X163639348Y-195818723D02*
X163710776Y-196009200D01*
X163710776Y-196009200D02*
X163889348Y-196104438D01*
X163889348Y-196104438D02*
X164079824Y-196104438D01*
X165032205Y-196104438D02*
X164853633Y-196009200D01*
X164853633Y-196009200D02*
X164782205Y-195818723D01*
X164782205Y-195818723D02*
X164996490Y-194104438D01*
X166567919Y-196009200D02*
X166365538Y-196104438D01*
X166365538Y-196104438D02*
X165984585Y-196104438D01*
X165984585Y-196104438D02*
X165806014Y-196009200D01*
X165806014Y-196009200D02*
X165734585Y-195818723D01*
X165734585Y-195818723D02*
X165829824Y-195056819D01*
X165829824Y-195056819D02*
X165948871Y-194866342D01*
X165948871Y-194866342D02*
X166151252Y-194771104D01*
X166151252Y-194771104D02*
X166532204Y-194771104D01*
X166532204Y-194771104D02*
X166710776Y-194866342D01*
X166710776Y-194866342D02*
X166782204Y-195056819D01*
X166782204Y-195056819D02*
X166758395Y-195247295D01*
X166758395Y-195247295D02*
X165782204Y-195437771D01*
X167532205Y-195913961D02*
X167615538Y-196009200D01*
X167615538Y-196009200D02*
X167508395Y-196104438D01*
X167508395Y-196104438D02*
X167425062Y-196009200D01*
X167425062Y-196009200D02*
X167532205Y-195913961D01*
X167532205Y-195913961D02*
X167508395Y-196104438D01*
X167663157Y-194866342D02*
X167746490Y-194961580D01*
X167746490Y-194961580D02*
X167639348Y-195056819D01*
X167639348Y-195056819D02*
X167556014Y-194961580D01*
X167556014Y-194961580D02*
X167663157Y-194866342D01*
X167663157Y-194866342D02*
X167639348Y-195056819D01*
X171270301Y-194199676D02*
X171091729Y-194104438D01*
X171091729Y-194104438D02*
X170806015Y-194104438D01*
X170806015Y-194104438D02*
X170508396Y-194199676D01*
X170508396Y-194199676D02*
X170294110Y-194390152D01*
X170294110Y-194390152D02*
X170175062Y-194580628D01*
X170175062Y-194580628D02*
X170032205Y-194961580D01*
X170032205Y-194961580D02*
X169996491Y-195247295D01*
X169996491Y-195247295D02*
X170044110Y-195628247D01*
X170044110Y-195628247D02*
X170115539Y-195818723D01*
X170115539Y-195818723D02*
X170282205Y-196009200D01*
X170282205Y-196009200D02*
X170556015Y-196104438D01*
X170556015Y-196104438D02*
X170746491Y-196104438D01*
X170746491Y-196104438D02*
X171044110Y-196009200D01*
X171044110Y-196009200D02*
X171151253Y-195913961D01*
X171151253Y-195913961D02*
X171234586Y-195247295D01*
X171234586Y-195247295D02*
X170853634Y-195247295D01*
X172270301Y-196104438D02*
X172091729Y-196009200D01*
X172091729Y-196009200D02*
X172020301Y-195818723D01*
X172020301Y-195818723D02*
X172234586Y-194104438D01*
X173317920Y-196104438D02*
X173139348Y-196009200D01*
X173139348Y-196009200D02*
X173056015Y-195913961D01*
X173056015Y-195913961D02*
X172984586Y-195723485D01*
X172984586Y-195723485D02*
X173056015Y-195152057D01*
X173056015Y-195152057D02*
X173175062Y-194961580D01*
X173175062Y-194961580D02*
X173282205Y-194866342D01*
X173282205Y-194866342D02*
X173484586Y-194771104D01*
X173484586Y-194771104D02*
X173770300Y-194771104D01*
X173770300Y-194771104D02*
X173948872Y-194866342D01*
X173948872Y-194866342D02*
X174032205Y-194961580D01*
X174032205Y-194961580D02*
X174103634Y-195152057D01*
X174103634Y-195152057D02*
X174032205Y-195723485D01*
X174032205Y-195723485D02*
X173913158Y-195913961D01*
X173913158Y-195913961D02*
X173806015Y-196009200D01*
X173806015Y-196009200D02*
X173603634Y-196104438D01*
X173603634Y-196104438D02*
X173317920Y-196104438D01*
X174841729Y-196104438D02*
X175091729Y-194104438D01*
X174996491Y-194866342D02*
X175198872Y-194771104D01*
X175198872Y-194771104D02*
X175579824Y-194771104D01*
X175579824Y-194771104D02*
X175758396Y-194866342D01*
X175758396Y-194866342D02*
X175841729Y-194961580D01*
X175841729Y-194961580D02*
X175913158Y-195152057D01*
X175913158Y-195152057D02*
X175841729Y-195723485D01*
X175841729Y-195723485D02*
X175722682Y-195913961D01*
X175722682Y-195913961D02*
X175615539Y-196009200D01*
X175615539Y-196009200D02*
X175413158Y-196104438D01*
X175413158Y-196104438D02*
X175032205Y-196104438D01*
X175032205Y-196104438D02*
X174853634Y-196009200D01*
X177508396Y-196104438D02*
X177639348Y-195056819D01*
X177639348Y-195056819D02*
X177567920Y-194866342D01*
X177567920Y-194866342D02*
X177389348Y-194771104D01*
X177389348Y-194771104D02*
X177008396Y-194771104D01*
X177008396Y-194771104D02*
X176806015Y-194866342D01*
X177520301Y-196009200D02*
X177317920Y-196104438D01*
X177317920Y-196104438D02*
X176841729Y-196104438D01*
X176841729Y-196104438D02*
X176663158Y-196009200D01*
X176663158Y-196009200D02*
X176591729Y-195818723D01*
X176591729Y-195818723D02*
X176615539Y-195628247D01*
X176615539Y-195628247D02*
X176734587Y-195437771D01*
X176734587Y-195437771D02*
X176936968Y-195342533D01*
X176936968Y-195342533D02*
X177413158Y-195342533D01*
X177413158Y-195342533D02*
X177615539Y-195247295D01*
X178746492Y-196104438D02*
X178567920Y-196009200D01*
X178567920Y-196009200D02*
X178496492Y-195818723D01*
X178496492Y-195818723D02*
X178710777Y-194104438D01*
X180948873Y-196009200D02*
X181222682Y-196104438D01*
X181222682Y-196104438D02*
X181698873Y-196104438D01*
X181698873Y-196104438D02*
X181901254Y-196009200D01*
X181901254Y-196009200D02*
X182008397Y-195913961D01*
X182008397Y-195913961D02*
X182127444Y-195723485D01*
X182127444Y-195723485D02*
X182151254Y-195533009D01*
X182151254Y-195533009D02*
X182079825Y-195342533D01*
X182079825Y-195342533D02*
X181996492Y-195247295D01*
X181996492Y-195247295D02*
X181817921Y-195152057D01*
X181817921Y-195152057D02*
X181448873Y-195056819D01*
X181448873Y-195056819D02*
X181270301Y-194961580D01*
X181270301Y-194961580D02*
X181186968Y-194866342D01*
X181186968Y-194866342D02*
X181115540Y-194675866D01*
X181115540Y-194675866D02*
X181139349Y-194485390D01*
X181139349Y-194485390D02*
X181258397Y-194294914D01*
X181258397Y-194294914D02*
X181365540Y-194199676D01*
X181365540Y-194199676D02*
X181567921Y-194104438D01*
X181567921Y-194104438D02*
X182044111Y-194104438D01*
X182044111Y-194104438D02*
X182317921Y-194199676D01*
X183806016Y-196009200D02*
X183603635Y-196104438D01*
X183603635Y-196104438D02*
X183222683Y-196104438D01*
X183222683Y-196104438D02*
X183044111Y-196009200D01*
X183044111Y-196009200D02*
X182960778Y-195913961D01*
X182960778Y-195913961D02*
X182889349Y-195723485D01*
X182889349Y-195723485D02*
X182960778Y-195152057D01*
X182960778Y-195152057D02*
X183079825Y-194961580D01*
X183079825Y-194961580D02*
X183186968Y-194866342D01*
X183186968Y-194866342D02*
X183389349Y-194771104D01*
X183389349Y-194771104D02*
X183770302Y-194771104D01*
X183770302Y-194771104D02*
X183948873Y-194866342D01*
X185508397Y-196104438D02*
X185639349Y-195056819D01*
X185639349Y-195056819D02*
X185567921Y-194866342D01*
X185567921Y-194866342D02*
X185389349Y-194771104D01*
X185389349Y-194771104D02*
X185008397Y-194771104D01*
X185008397Y-194771104D02*
X184806016Y-194866342D01*
X185520302Y-196009200D02*
X185317921Y-196104438D01*
X185317921Y-196104438D02*
X184841730Y-196104438D01*
X184841730Y-196104438D02*
X184663159Y-196009200D01*
X184663159Y-196009200D02*
X184591730Y-195818723D01*
X184591730Y-195818723D02*
X184615540Y-195628247D01*
X184615540Y-195628247D02*
X184734588Y-195437771D01*
X184734588Y-195437771D02*
X184936969Y-195342533D01*
X184936969Y-195342533D02*
X185413159Y-195342533D01*
X185413159Y-195342533D02*
X185615540Y-195247295D01*
X186436969Y-194771104D02*
X186746493Y-196104438D01*
X186746493Y-196104438D02*
X187389350Y-194771104D01*
X188758398Y-196009200D02*
X188556017Y-196104438D01*
X188556017Y-196104438D02*
X188175064Y-196104438D01*
X188175064Y-196104438D02*
X187996493Y-196009200D01*
X187996493Y-196009200D02*
X187925064Y-195818723D01*
X187925064Y-195818723D02*
X188020303Y-195056819D01*
X188020303Y-195056819D02*
X188139350Y-194866342D01*
X188139350Y-194866342D02*
X188341731Y-194771104D01*
X188341731Y-194771104D02*
X188722683Y-194771104D01*
X188722683Y-194771104D02*
X188901255Y-194866342D01*
X188901255Y-194866342D02*
X188972683Y-195056819D01*
X188972683Y-195056819D02*
X188948874Y-195247295D01*
X188948874Y-195247295D02*
X187972683Y-195437771D01*
X189865541Y-194771104D02*
X189698874Y-196104438D01*
X189841731Y-194961580D02*
X189948874Y-194866342D01*
X189948874Y-194866342D02*
X190151255Y-194771104D01*
X190151255Y-194771104D02*
X190436969Y-194771104D01*
X190436969Y-194771104D02*
X190615541Y-194866342D01*
X190615541Y-194866342D02*
X190686969Y-195056819D01*
X190686969Y-195056819D02*
X190556017Y-196104438D01*
X192532208Y-194771104D02*
X192329827Y-196390152D01*
X192329827Y-196390152D02*
X192210779Y-196580628D01*
X192210779Y-196580628D02*
X192103636Y-196675866D01*
X192103636Y-196675866D02*
X191901255Y-196771104D01*
X191901255Y-196771104D02*
X191615541Y-196771104D01*
X191615541Y-196771104D02*
X191436970Y-196675866D01*
X192377446Y-196009200D02*
X192175065Y-196104438D01*
X192175065Y-196104438D02*
X191794113Y-196104438D01*
X191794113Y-196104438D02*
X191615541Y-196009200D01*
X191615541Y-196009200D02*
X191532208Y-195913961D01*
X191532208Y-195913961D02*
X191460779Y-195723485D01*
X191460779Y-195723485D02*
X191532208Y-195152057D01*
X191532208Y-195152057D02*
X191651255Y-194961580D01*
X191651255Y-194961580D02*
X191758398Y-194866342D01*
X191758398Y-194866342D02*
X191960779Y-194771104D01*
X191960779Y-194771104D02*
X192341732Y-194771104D01*
X192341732Y-194771104D02*
X192520303Y-194866342D01*
X194091732Y-196009200D02*
X193889351Y-196104438D01*
X193889351Y-196104438D02*
X193508398Y-196104438D01*
X193508398Y-196104438D02*
X193329827Y-196009200D01*
X193329827Y-196009200D02*
X193258398Y-195818723D01*
X193258398Y-195818723D02*
X193353637Y-195056819D01*
X193353637Y-195056819D02*
X193472684Y-194866342D01*
X193472684Y-194866342D02*
X193675065Y-194771104D01*
X193675065Y-194771104D02*
X194056017Y-194771104D01*
X194056017Y-194771104D02*
X194234589Y-194866342D01*
X194234589Y-194866342D02*
X194306017Y-195056819D01*
X194306017Y-195056819D02*
X194282208Y-195247295D01*
X194282208Y-195247295D02*
X193306017Y-195437771D01*
X195032208Y-196104438D02*
X195198875Y-194771104D01*
X195151256Y-195152057D02*
X195270303Y-194961580D01*
X195270303Y-194961580D02*
X195377446Y-194866342D01*
X195377446Y-194866342D02*
X195579827Y-194771104D01*
X195579827Y-194771104D02*
X195770303Y-194771104D01*
X197794113Y-196104438D02*
X198044113Y-194104438D01*
X197925066Y-195056819D02*
X199067923Y-195056819D01*
X198936970Y-196104438D02*
X199186970Y-194104438D01*
X200913161Y-194771104D02*
X200746494Y-196104438D01*
X200056018Y-194771104D02*
X199925066Y-195818723D01*
X199925066Y-195818723D02*
X199996494Y-196009200D01*
X199996494Y-196009200D02*
X200175066Y-196104438D01*
X200175066Y-196104438D02*
X200460780Y-196104438D01*
X200460780Y-196104438D02*
X200663161Y-196009200D01*
X200663161Y-196009200D02*
X200770304Y-195913961D01*
X201865542Y-194771104D02*
X201698875Y-196104438D01*
X201841732Y-194961580D02*
X201948875Y-194866342D01*
X201948875Y-194866342D02*
X202151256Y-194771104D01*
X202151256Y-194771104D02*
X202436970Y-194771104D01*
X202436970Y-194771104D02*
X202615542Y-194866342D01*
X202615542Y-194866342D02*
X202686970Y-195056819D01*
X202686970Y-195056819D02*
X202556018Y-196104438D01*
X203389352Y-194771104D02*
X204151256Y-194771104D01*
X203758399Y-194104438D02*
X203544114Y-195818723D01*
X203544114Y-195818723D02*
X203615542Y-196009200D01*
X203615542Y-196009200D02*
X203794114Y-196104438D01*
X203794114Y-196104438D02*
X203984590Y-196104438D01*
X206175066Y-196104438D02*
X206425066Y-194104438D01*
X206425066Y-194104438D02*
X207186971Y-194104438D01*
X207186971Y-194104438D02*
X207365542Y-194199676D01*
X207365542Y-194199676D02*
X207448876Y-194294914D01*
X207448876Y-194294914D02*
X207520304Y-194485390D01*
X207520304Y-194485390D02*
X207484590Y-194771104D01*
X207484590Y-194771104D02*
X207365542Y-194961580D01*
X207365542Y-194961580D02*
X207258400Y-195056819D01*
X207258400Y-195056819D02*
X207056019Y-195152057D01*
X207056019Y-195152057D02*
X206294114Y-195152057D01*
X208460781Y-196104438D02*
X208282209Y-196009200D01*
X208282209Y-196009200D02*
X208198876Y-195913961D01*
X208198876Y-195913961D02*
X208127447Y-195723485D01*
X208127447Y-195723485D02*
X208198876Y-195152057D01*
X208198876Y-195152057D02*
X208317923Y-194961580D01*
X208317923Y-194961580D02*
X208425066Y-194866342D01*
X208425066Y-194866342D02*
X208627447Y-194771104D01*
X208627447Y-194771104D02*
X208913161Y-194771104D01*
X208913161Y-194771104D02*
X209091733Y-194866342D01*
X209091733Y-194866342D02*
X209175066Y-194961580D01*
X209175066Y-194961580D02*
X209246495Y-195152057D01*
X209246495Y-195152057D02*
X209175066Y-195723485D01*
X209175066Y-195723485D02*
X209056019Y-195913961D01*
X209056019Y-195913961D02*
X208948876Y-196009200D01*
X208948876Y-196009200D02*
X208746495Y-196104438D01*
X208746495Y-196104438D02*
X208460781Y-196104438D01*
X209901257Y-196009200D02*
X210079828Y-196104438D01*
X210079828Y-196104438D02*
X210460781Y-196104438D01*
X210460781Y-196104438D02*
X210663162Y-196009200D01*
X210663162Y-196009200D02*
X210782209Y-195818723D01*
X210782209Y-195818723D02*
X210794114Y-195723485D01*
X210794114Y-195723485D02*
X210722685Y-195533009D01*
X210722685Y-195533009D02*
X210544114Y-195437771D01*
X210544114Y-195437771D02*
X210258400Y-195437771D01*
X210258400Y-195437771D02*
X210079828Y-195342533D01*
X210079828Y-195342533D02*
X210008400Y-195152057D01*
X210008400Y-195152057D02*
X210020305Y-195056819D01*
X210020305Y-195056819D02*
X210139352Y-194866342D01*
X210139352Y-194866342D02*
X210341733Y-194771104D01*
X210341733Y-194771104D02*
X210627447Y-194771104D01*
X210627447Y-194771104D02*
X210806019Y-194866342D01*
X211603638Y-196104438D02*
X211770305Y-194771104D01*
X211853638Y-194104438D02*
X211746495Y-194199676D01*
X211746495Y-194199676D02*
X211829829Y-194294914D01*
X211829829Y-194294914D02*
X211936972Y-194199676D01*
X211936972Y-194199676D02*
X211853638Y-194104438D01*
X211853638Y-194104438D02*
X211829829Y-194294914D01*
X212436972Y-194771104D02*
X213198876Y-194771104D01*
X212806019Y-194104438D02*
X212591734Y-195818723D01*
X212591734Y-195818723D02*
X212663162Y-196009200D01*
X212663162Y-196009200D02*
X212841734Y-196104438D01*
X212841734Y-196104438D02*
X213032210Y-196104438D01*
X213698876Y-196104438D02*
X213865543Y-194771104D01*
X213948876Y-194104438D02*
X213841733Y-194199676D01*
X213841733Y-194199676D02*
X213925067Y-194294914D01*
X213925067Y-194294914D02*
X214032210Y-194199676D01*
X214032210Y-194199676D02*
X213948876Y-194104438D01*
X213948876Y-194104438D02*
X213925067Y-194294914D01*
X214936972Y-196104438D02*
X214758400Y-196009200D01*
X214758400Y-196009200D02*
X214675067Y-195913961D01*
X214675067Y-195913961D02*
X214603638Y-195723485D01*
X214603638Y-195723485D02*
X214675067Y-195152057D01*
X214675067Y-195152057D02*
X214794114Y-194961580D01*
X214794114Y-194961580D02*
X214901257Y-194866342D01*
X214901257Y-194866342D02*
X215103638Y-194771104D01*
X215103638Y-194771104D02*
X215389352Y-194771104D01*
X215389352Y-194771104D02*
X215567924Y-194866342D01*
X215567924Y-194866342D02*
X215651257Y-194961580D01*
X215651257Y-194961580D02*
X215722686Y-195152057D01*
X215722686Y-195152057D02*
X215651257Y-195723485D01*
X215651257Y-195723485D02*
X215532210Y-195913961D01*
X215532210Y-195913961D02*
X215425067Y-196009200D01*
X215425067Y-196009200D02*
X215222686Y-196104438D01*
X215222686Y-196104438D02*
X214936972Y-196104438D01*
X216627448Y-194771104D02*
X216460781Y-196104438D01*
X216603638Y-194961580D02*
X216710781Y-194866342D01*
X216710781Y-194866342D02*
X216913162Y-194771104D01*
X216913162Y-194771104D02*
X217198876Y-194771104D01*
X217198876Y-194771104D02*
X217377448Y-194866342D01*
X217377448Y-194866342D02*
X217448876Y-195056819D01*
X217448876Y-195056819D02*
X217317924Y-196104438D01*
X218270305Y-196104438D02*
X218436972Y-194771104D01*
X218520305Y-194104438D02*
X218413162Y-194199676D01*
X218413162Y-194199676D02*
X218496496Y-194294914D01*
X218496496Y-194294914D02*
X218603639Y-194199676D01*
X218603639Y-194199676D02*
X218520305Y-194104438D01*
X218520305Y-194104438D02*
X218496496Y-194294914D01*
X219389353Y-194771104D02*
X219222686Y-196104438D01*
X219365543Y-194961580D02*
X219472686Y-194866342D01*
X219472686Y-194866342D02*
X219675067Y-194771104D01*
X219675067Y-194771104D02*
X219960781Y-194771104D01*
X219960781Y-194771104D02*
X220139353Y-194866342D01*
X220139353Y-194866342D02*
X220210781Y-195056819D01*
X220210781Y-195056819D02*
X220079829Y-196104438D01*
X222056020Y-194771104D02*
X221853639Y-196390152D01*
X221853639Y-196390152D02*
X221734591Y-196580628D01*
X221734591Y-196580628D02*
X221627448Y-196675866D01*
X221627448Y-196675866D02*
X221425067Y-196771104D01*
X221425067Y-196771104D02*
X221139353Y-196771104D01*
X221139353Y-196771104D02*
X220960782Y-196675866D01*
X221901258Y-196009200D02*
X221698877Y-196104438D01*
X221698877Y-196104438D02*
X221317925Y-196104438D01*
X221317925Y-196104438D02*
X221139353Y-196009200D01*
X221139353Y-196009200D02*
X221056020Y-195913961D01*
X221056020Y-195913961D02*
X220984591Y-195723485D01*
X220984591Y-195723485D02*
X221056020Y-195152057D01*
X221056020Y-195152057D02*
X221175067Y-194961580D01*
X221175067Y-194961580D02*
X221282210Y-194866342D01*
X221282210Y-194866342D02*
X221484591Y-194771104D01*
X221484591Y-194771104D02*
X221865544Y-194771104D01*
X221865544Y-194771104D02*
X222044115Y-194866342D01*
X224282211Y-196009200D02*
X224556020Y-196104438D01*
X224556020Y-196104438D02*
X225032211Y-196104438D01*
X225032211Y-196104438D02*
X225234592Y-196009200D01*
X225234592Y-196009200D02*
X225341735Y-195913961D01*
X225341735Y-195913961D02*
X225460782Y-195723485D01*
X225460782Y-195723485D02*
X225484592Y-195533009D01*
X225484592Y-195533009D02*
X225413163Y-195342533D01*
X225413163Y-195342533D02*
X225329830Y-195247295D01*
X225329830Y-195247295D02*
X225151259Y-195152057D01*
X225151259Y-195152057D02*
X224782211Y-195056819D01*
X224782211Y-195056819D02*
X224603639Y-194961580D01*
X224603639Y-194961580D02*
X224520306Y-194866342D01*
X224520306Y-194866342D02*
X224448878Y-194675866D01*
X224448878Y-194675866D02*
X224472687Y-194485390D01*
X224472687Y-194485390D02*
X224591735Y-194294914D01*
X224591735Y-194294914D02*
X224698878Y-194199676D01*
X224698878Y-194199676D02*
X224901259Y-194104438D01*
X224901259Y-194104438D02*
X225377449Y-194104438D01*
X225377449Y-194104438D02*
X225651259Y-194199676D01*
X226246497Y-194771104D02*
X226556021Y-196104438D01*
X227198878Y-194771104D02*
X226556021Y-196104438D01*
X226556021Y-196104438D02*
X226306021Y-196580628D01*
X226306021Y-196580628D02*
X226198878Y-196675866D01*
X226198878Y-196675866D02*
X225996497Y-196771104D01*
X227710783Y-196009200D02*
X227889354Y-196104438D01*
X227889354Y-196104438D02*
X228270307Y-196104438D01*
X228270307Y-196104438D02*
X228472688Y-196009200D01*
X228472688Y-196009200D02*
X228591735Y-195818723D01*
X228591735Y-195818723D02*
X228603640Y-195723485D01*
X228603640Y-195723485D02*
X228532211Y-195533009D01*
X228532211Y-195533009D02*
X228353640Y-195437771D01*
X228353640Y-195437771D02*
X228067926Y-195437771D01*
X228067926Y-195437771D02*
X227889354Y-195342533D01*
X227889354Y-195342533D02*
X227817926Y-195152057D01*
X227817926Y-195152057D02*
X227829831Y-195056819D01*
X227829831Y-195056819D02*
X227948878Y-194866342D01*
X227948878Y-194866342D02*
X228151259Y-194771104D01*
X228151259Y-194771104D02*
X228436973Y-194771104D01*
X228436973Y-194771104D02*
X228615545Y-194866342D01*
X229294117Y-194771104D02*
X230056021Y-194771104D01*
X229663164Y-194104438D02*
X229448879Y-195818723D01*
X229448879Y-195818723D02*
X229520307Y-196009200D01*
X229520307Y-196009200D02*
X229698879Y-196104438D01*
X229698879Y-196104438D02*
X229889355Y-196104438D01*
X231329831Y-196009200D02*
X231127450Y-196104438D01*
X231127450Y-196104438D02*
X230746497Y-196104438D01*
X230746497Y-196104438D02*
X230567926Y-196009200D01*
X230567926Y-196009200D02*
X230496497Y-195818723D01*
X230496497Y-195818723D02*
X230591736Y-195056819D01*
X230591736Y-195056819D02*
X230710783Y-194866342D01*
X230710783Y-194866342D02*
X230913164Y-194771104D01*
X230913164Y-194771104D02*
X231294116Y-194771104D01*
X231294116Y-194771104D02*
X231472688Y-194866342D01*
X231472688Y-194866342D02*
X231544116Y-195056819D01*
X231544116Y-195056819D02*
X231520307Y-195247295D01*
X231520307Y-195247295D02*
X230544116Y-195437771D01*
X232270307Y-196104438D02*
X232436974Y-194771104D01*
X232413164Y-194961580D02*
X232520307Y-194866342D01*
X232520307Y-194866342D02*
X232722688Y-194771104D01*
X232722688Y-194771104D02*
X233008402Y-194771104D01*
X233008402Y-194771104D02*
X233186974Y-194866342D01*
X233186974Y-194866342D02*
X233258402Y-195056819D01*
X233258402Y-195056819D02*
X233127450Y-196104438D01*
X233258402Y-195056819D02*
X233377450Y-194866342D01*
X233377450Y-194866342D02*
X233579831Y-194771104D01*
X233579831Y-194771104D02*
X233865545Y-194771104D01*
X233865545Y-194771104D02*
X234044117Y-194866342D01*
X234044117Y-194866342D02*
X234115545Y-195056819D01*
X234115545Y-195056819D02*
X233984593Y-196104438D01*
D10*
D11*
X161355826Y-191500414D02*
X160855826Y-191500414D01*
X160855826Y-192286128D02*
X160855826Y-190786128D01*
X160855826Y-190786128D02*
X161570112Y-190786128D01*
X162141540Y-192286128D02*
X162141540Y-191286128D01*
X162141540Y-190786128D02*
X162070112Y-190857557D01*
X162070112Y-190857557D02*
X162141540Y-190928985D01*
X162141540Y-190928985D02*
X162212969Y-190857557D01*
X162212969Y-190857557D02*
X162141540Y-190786128D01*
X162141540Y-190786128D02*
X162141540Y-190928985D01*
X163070112Y-192286128D02*
X162927255Y-192214700D01*
X162927255Y-192214700D02*
X162855826Y-192071842D01*
X162855826Y-192071842D02*
X162855826Y-190786128D01*
X164212969Y-192214700D02*
X164070112Y-192286128D01*
X164070112Y-192286128D02*
X163784398Y-192286128D01*
X163784398Y-192286128D02*
X163641540Y-192214700D01*
X163641540Y-192214700D02*
X163570112Y-192071842D01*
X163570112Y-192071842D02*
X163570112Y-191500414D01*
X163570112Y-191500414D02*
X163641540Y-191357557D01*
X163641540Y-191357557D02*
X163784398Y-191286128D01*
X163784398Y-191286128D02*
X164070112Y-191286128D01*
X164070112Y-191286128D02*
X164212969Y-191357557D01*
X164212969Y-191357557D02*
X164284398Y-191500414D01*
X164284398Y-191500414D02*
X164284398Y-191643271D01*
X164284398Y-191643271D02*
X163570112Y-191786128D01*
X164927254Y-192143271D02*
X164998683Y-192214700D01*
X164998683Y-192214700D02*
X164927254Y-192286128D01*
X164927254Y-192286128D02*
X164855826Y-192214700D01*
X164855826Y-192214700D02*
X164927254Y-192143271D01*
X164927254Y-192143271D02*
X164927254Y-192286128D01*
X164927254Y-191357557D02*
X164998683Y-191428985D01*
X164998683Y-191428985D02*
X164927254Y-191500414D01*
X164927254Y-191500414D02*
X164855826Y-191428985D01*
X164855826Y-191428985D02*
X164927254Y-191357557D01*
X164927254Y-191357557D02*
X164927254Y-191500414D01*
X167427255Y-191286128D02*
X167427255Y-192500414D01*
X167427255Y-192500414D02*
X167355826Y-192643271D01*
X167355826Y-192643271D02*
X167284397Y-192714700D01*
X167284397Y-192714700D02*
X167141540Y-192786128D01*
X167141540Y-192786128D02*
X166927255Y-192786128D01*
X166927255Y-192786128D02*
X166784397Y-192714700D01*
X167427255Y-192214700D02*
X167284397Y-192286128D01*
X167284397Y-192286128D02*
X166998683Y-192286128D01*
X166998683Y-192286128D02*
X166855826Y-192214700D01*
X166855826Y-192214700D02*
X166784397Y-192143271D01*
X166784397Y-192143271D02*
X166712969Y-192000414D01*
X166712969Y-192000414D02*
X166712969Y-191571842D01*
X166712969Y-191571842D02*
X166784397Y-191428985D01*
X166784397Y-191428985D02*
X166855826Y-191357557D01*
X166855826Y-191357557D02*
X166998683Y-191286128D01*
X166998683Y-191286128D02*
X167284397Y-191286128D01*
X167284397Y-191286128D02*
X167427255Y-191357557D01*
X168070112Y-192214700D02*
X168212969Y-192286128D01*
X168212969Y-192286128D02*
X168498683Y-192286128D01*
X168498683Y-192286128D02*
X168641540Y-192214700D01*
X168641540Y-192214700D02*
X168712969Y-192071842D01*
X168712969Y-192071842D02*
X168712969Y-192000414D01*
X168712969Y-192000414D02*
X168641540Y-191857557D01*
X168641540Y-191857557D02*
X168498683Y-191786128D01*
X168498683Y-191786128D02*
X168284398Y-191786128D01*
X168284398Y-191786128D02*
X168141540Y-191714700D01*
X168141540Y-191714700D02*
X168070112Y-191571842D01*
X168070112Y-191571842D02*
X168070112Y-191500414D01*
X168070112Y-191500414D02*
X168141540Y-191357557D01*
X168141540Y-191357557D02*
X168284398Y-191286128D01*
X168284398Y-191286128D02*
X168498683Y-191286128D01*
X168498683Y-191286128D02*
X168641540Y-191357557D01*
X169355826Y-192286128D02*
X169355826Y-190786128D01*
X169998684Y-192286128D02*
X169998684Y-191500414D01*
X169998684Y-191500414D02*
X169927255Y-191357557D01*
X169927255Y-191357557D02*
X169784398Y-191286128D01*
X169784398Y-191286128D02*
X169570112Y-191286128D01*
X169570112Y-191286128D02*
X169427255Y-191357557D01*
X169427255Y-191357557D02*
X169355826Y-191428985D01*
X170712969Y-191286128D02*
X170712969Y-192786128D01*
X170712969Y-191357557D02*
X170855827Y-191286128D01*
X170855827Y-191286128D02*
X171141541Y-191286128D01*
X171141541Y-191286128D02*
X171284398Y-191357557D01*
X171284398Y-191357557D02*
X171355827Y-191428985D01*
X171355827Y-191428985D02*
X171427255Y-191571842D01*
X171427255Y-191571842D02*
X171427255Y-192000414D01*
X171427255Y-192000414D02*
X171355827Y-192143271D01*
X171355827Y-192143271D02*
X171284398Y-192214700D01*
X171284398Y-192214700D02*
X171141541Y-192286128D01*
X171141541Y-192286128D02*
X170855827Y-192286128D01*
X170855827Y-192286128D02*
X170712969Y-192214700D01*
X171998684Y-192214700D02*
X172141541Y-192286128D01*
X172141541Y-192286128D02*
X172427255Y-192286128D01*
X172427255Y-192286128D02*
X172570112Y-192214700D01*
X172570112Y-192214700D02*
X172641541Y-192071842D01*
X172641541Y-192071842D02*
X172641541Y-192000414D01*
X172641541Y-192000414D02*
X172570112Y-191857557D01*
X172570112Y-191857557D02*
X172427255Y-191786128D01*
X172427255Y-191786128D02*
X172212970Y-191786128D01*
X172212970Y-191786128D02*
X172070112Y-191714700D01*
X172070112Y-191714700D02*
X171998684Y-191571842D01*
X171998684Y-191571842D02*
X171998684Y-191500414D01*
X171998684Y-191500414D02*
X172070112Y-191357557D01*
X172070112Y-191357557D02*
X172212970Y-191286128D01*
X172212970Y-191286128D02*
X172427255Y-191286128D01*
X172427255Y-191286128D02*
X172570112Y-191357557D01*
X173284398Y-192143271D02*
X173355827Y-192214700D01*
X173355827Y-192214700D02*
X173284398Y-192286128D01*
X173284398Y-192286128D02*
X173212970Y-192214700D01*
X173212970Y-192214700D02*
X173284398Y-192143271D01*
X173284398Y-192143271D02*
X173284398Y-192286128D01*
X173998684Y-192286128D02*
X173998684Y-190786128D01*
X174141542Y-191714700D02*
X174570113Y-192286128D01*
X174570113Y-191286128D02*
X173998684Y-191857557D01*
X175212970Y-192286128D02*
X175212970Y-191286128D01*
X175212970Y-190786128D02*
X175141542Y-190857557D01*
X175141542Y-190857557D02*
X175212970Y-190928985D01*
X175212970Y-190928985D02*
X175284399Y-190857557D01*
X175284399Y-190857557D02*
X175212970Y-190786128D01*
X175212970Y-190786128D02*
X175212970Y-190928985D01*
X176570114Y-192214700D02*
X176427256Y-192286128D01*
X176427256Y-192286128D02*
X176141542Y-192286128D01*
X176141542Y-192286128D02*
X175998685Y-192214700D01*
X175998685Y-192214700D02*
X175927256Y-192143271D01*
X175927256Y-192143271D02*
X175855828Y-192000414D01*
X175855828Y-192000414D02*
X175855828Y-191571842D01*
X175855828Y-191571842D02*
X175927256Y-191428985D01*
X175927256Y-191428985D02*
X175998685Y-191357557D01*
X175998685Y-191357557D02*
X176141542Y-191286128D01*
X176141542Y-191286128D02*
X176427256Y-191286128D01*
X176427256Y-191286128D02*
X176570114Y-191357557D01*
X177855828Y-192286128D02*
X177855828Y-191500414D01*
X177855828Y-191500414D02*
X177784399Y-191357557D01*
X177784399Y-191357557D02*
X177641542Y-191286128D01*
X177641542Y-191286128D02*
X177355828Y-191286128D01*
X177355828Y-191286128D02*
X177212970Y-191357557D01*
X177855828Y-192214700D02*
X177712970Y-192286128D01*
X177712970Y-192286128D02*
X177355828Y-192286128D01*
X177355828Y-192286128D02*
X177212970Y-192214700D01*
X177212970Y-192214700D02*
X177141542Y-192071842D01*
X177141542Y-192071842D02*
X177141542Y-191928985D01*
X177141542Y-191928985D02*
X177212970Y-191786128D01*
X177212970Y-191786128D02*
X177355828Y-191714700D01*
X177355828Y-191714700D02*
X177712970Y-191714700D01*
X177712970Y-191714700D02*
X177855828Y-191643271D01*
X179212971Y-192286128D02*
X179212971Y-190786128D01*
X179212971Y-192214700D02*
X179070113Y-192286128D01*
X179070113Y-192286128D02*
X178784399Y-192286128D01*
X178784399Y-192286128D02*
X178641542Y-192214700D01*
X178641542Y-192214700D02*
X178570113Y-192143271D01*
X178570113Y-192143271D02*
X178498685Y-192000414D01*
X178498685Y-192000414D02*
X178498685Y-191571842D01*
X178498685Y-191571842D02*
X178570113Y-191428985D01*
X178570113Y-191428985D02*
X178641542Y-191357557D01*
X178641542Y-191357557D02*
X178784399Y-191286128D01*
X178784399Y-191286128D02*
X179070113Y-191286128D01*
X179070113Y-191286128D02*
X179212971Y-191357557D01*
X179570114Y-192428985D02*
X180712971Y-192428985D01*
X181070113Y-191286128D02*
X181070113Y-192786128D01*
X181070113Y-191357557D02*
X181212971Y-191286128D01*
X181212971Y-191286128D02*
X181498685Y-191286128D01*
X181498685Y-191286128D02*
X181641542Y-191357557D01*
X181641542Y-191357557D02*
X181712971Y-191428985D01*
X181712971Y-191428985D02*
X181784399Y-191571842D01*
X181784399Y-191571842D02*
X181784399Y-192000414D01*
X181784399Y-192000414D02*
X181712971Y-192143271D01*
X181712971Y-192143271D02*
X181641542Y-192214700D01*
X181641542Y-192214700D02*
X181498685Y-192286128D01*
X181498685Y-192286128D02*
X181212971Y-192286128D01*
X181212971Y-192286128D02*
X181070113Y-192214700D01*
X183070114Y-192214700D02*
X182927256Y-192286128D01*
X182927256Y-192286128D02*
X182641542Y-192286128D01*
X182641542Y-192286128D02*
X182498685Y-192214700D01*
X182498685Y-192214700D02*
X182427256Y-192143271D01*
X182427256Y-192143271D02*
X182355828Y-192000414D01*
X182355828Y-192000414D02*
X182355828Y-191571842D01*
X182355828Y-191571842D02*
X182427256Y-191428985D01*
X182427256Y-191428985D02*
X182498685Y-191357557D01*
X182498685Y-191357557D02*
X182641542Y-191286128D01*
X182641542Y-191286128D02*
X182927256Y-191286128D01*
X182927256Y-191286128D02*
X183070114Y-191357557D01*
X183712970Y-192286128D02*
X183712970Y-190786128D01*
X183712970Y-191357557D02*
X183855828Y-191286128D01*
X183855828Y-191286128D02*
X184141542Y-191286128D01*
X184141542Y-191286128D02*
X184284399Y-191357557D01*
X184284399Y-191357557D02*
X184355828Y-191428985D01*
X184355828Y-191428985D02*
X184427256Y-191571842D01*
X184427256Y-191571842D02*
X184427256Y-192000414D01*
X184427256Y-192000414D02*
X184355828Y-192143271D01*
X184355828Y-192143271D02*
X184284399Y-192214700D01*
X184284399Y-192214700D02*
X184141542Y-192286128D01*
X184141542Y-192286128D02*
X183855828Y-192286128D01*
X183855828Y-192286128D02*
X183712970Y-192214700D01*
D10*
D11*
X159400000Y-187400000D02*
X267400000Y-187400000D01*
D10*
D11*
X160784398Y-189514700D02*
X160998684Y-189586128D01*
X160998684Y-189586128D02*
X161355826Y-189586128D01*
X161355826Y-189586128D02*
X161498684Y-189514700D01*
X161498684Y-189514700D02*
X161570112Y-189443271D01*
X161570112Y-189443271D02*
X161641541Y-189300414D01*
X161641541Y-189300414D02*
X161641541Y-189157557D01*
X161641541Y-189157557D02*
X161570112Y-189014700D01*
X161570112Y-189014700D02*
X161498684Y-188943271D01*
X161498684Y-188943271D02*
X161355826Y-188871842D01*
X161355826Y-188871842D02*
X161070112Y-188800414D01*
X161070112Y-188800414D02*
X160927255Y-188728985D01*
X160927255Y-188728985D02*
X160855826Y-188657557D01*
X160855826Y-188657557D02*
X160784398Y-188514700D01*
X160784398Y-188514700D02*
X160784398Y-188371842D01*
X160784398Y-188371842D02*
X160855826Y-188228985D01*
X160855826Y-188228985D02*
X160927255Y-188157557D01*
X160927255Y-188157557D02*
X161070112Y-188086128D01*
X161070112Y-188086128D02*
X161427255Y-188086128D01*
X161427255Y-188086128D02*
X161641541Y-188157557D01*
X162284397Y-189586128D02*
X162284397Y-188086128D01*
X162927255Y-189586128D02*
X162927255Y-188800414D01*
X162927255Y-188800414D02*
X162855826Y-188657557D01*
X162855826Y-188657557D02*
X162712969Y-188586128D01*
X162712969Y-188586128D02*
X162498683Y-188586128D01*
X162498683Y-188586128D02*
X162355826Y-188657557D01*
X162355826Y-188657557D02*
X162284397Y-188728985D01*
X164212969Y-189514700D02*
X164070112Y-189586128D01*
X164070112Y-189586128D02*
X163784398Y-189586128D01*
X163784398Y-189586128D02*
X163641540Y-189514700D01*
X163641540Y-189514700D02*
X163570112Y-189371842D01*
X163570112Y-189371842D02*
X163570112Y-188800414D01*
X163570112Y-188800414D02*
X163641540Y-188657557D01*
X163641540Y-188657557D02*
X163784398Y-188586128D01*
X163784398Y-188586128D02*
X164070112Y-188586128D01*
X164070112Y-188586128D02*
X164212969Y-188657557D01*
X164212969Y-188657557D02*
X164284398Y-188800414D01*
X164284398Y-188800414D02*
X164284398Y-188943271D01*
X164284398Y-188943271D02*
X163570112Y-189086128D01*
X165498683Y-189514700D02*
X165355826Y-189586128D01*
X165355826Y-189586128D02*
X165070112Y-189586128D01*
X165070112Y-189586128D02*
X164927254Y-189514700D01*
X164927254Y-189514700D02*
X164855826Y-189371842D01*
X164855826Y-189371842D02*
X164855826Y-188800414D01*
X164855826Y-188800414D02*
X164927254Y-188657557D01*
X164927254Y-188657557D02*
X165070112Y-188586128D01*
X165070112Y-188586128D02*
X165355826Y-188586128D01*
X165355826Y-188586128D02*
X165498683Y-188657557D01*
X165498683Y-188657557D02*
X165570112Y-188800414D01*
X165570112Y-188800414D02*
X165570112Y-188943271D01*
X165570112Y-188943271D02*
X164855826Y-189086128D01*
X165998683Y-188586128D02*
X166570111Y-188586128D01*
X166212968Y-188086128D02*
X166212968Y-189371842D01*
X166212968Y-189371842D02*
X166284397Y-189514700D01*
X166284397Y-189514700D02*
X166427254Y-189586128D01*
X166427254Y-189586128D02*
X166570111Y-189586128D01*
X167070111Y-189443271D02*
X167141540Y-189514700D01*
X167141540Y-189514700D02*
X167070111Y-189586128D01*
X167070111Y-189586128D02*
X166998683Y-189514700D01*
X166998683Y-189514700D02*
X167070111Y-189443271D01*
X167070111Y-189443271D02*
X167070111Y-189586128D01*
X167070111Y-188657557D02*
X167141540Y-188728985D01*
X167141540Y-188728985D02*
X167070111Y-188800414D01*
X167070111Y-188800414D02*
X166998683Y-188728985D01*
X166998683Y-188728985D02*
X167070111Y-188657557D01*
X167070111Y-188657557D02*
X167070111Y-188800414D01*
D10*
D12*
X160954510Y-186578328D02*
X160954510Y-185078328D01*
X160954510Y-185078328D02*
X161525939Y-185078328D01*
X161525939Y-185078328D02*
X161668796Y-185149757D01*
X161668796Y-185149757D02*
X161740225Y-185221185D01*
X161740225Y-185221185D02*
X161811653Y-185364042D01*
X161811653Y-185364042D02*
X161811653Y-185578328D01*
X161811653Y-185578328D02*
X161740225Y-185721185D01*
X161740225Y-185721185D02*
X161668796Y-185792614D01*
X161668796Y-185792614D02*
X161525939Y-185864042D01*
X161525939Y-185864042D02*
X160954510Y-185864042D01*
X163097368Y-186578328D02*
X163097368Y-185792614D01*
X163097368Y-185792614D02*
X163025939Y-185649757D01*
X163025939Y-185649757D02*
X162883082Y-185578328D01*
X162883082Y-185578328D02*
X162597368Y-185578328D01*
X162597368Y-185578328D02*
X162454510Y-185649757D01*
X163097368Y-186506900D02*
X162954510Y-186578328D01*
X162954510Y-186578328D02*
X162597368Y-186578328D01*
X162597368Y-186578328D02*
X162454510Y-186506900D01*
X162454510Y-186506900D02*
X162383082Y-186364042D01*
X162383082Y-186364042D02*
X162383082Y-186221185D01*
X162383082Y-186221185D02*
X162454510Y-186078328D01*
X162454510Y-186078328D02*
X162597368Y-186006900D01*
X162597368Y-186006900D02*
X162954510Y-186006900D01*
X162954510Y-186006900D02*
X163097368Y-185935471D01*
X163811653Y-185578328D02*
X163811653Y-186578328D01*
X163811653Y-185721185D02*
X163883082Y-185649757D01*
X163883082Y-185649757D02*
X164025939Y-185578328D01*
X164025939Y-185578328D02*
X164240225Y-185578328D01*
X164240225Y-185578328D02*
X164383082Y-185649757D01*
X164383082Y-185649757D02*
X164454511Y-185792614D01*
X164454511Y-185792614D02*
X164454511Y-186578328D01*
X164954511Y-185578328D02*
X165525939Y-185578328D01*
X165168796Y-185078328D02*
X165168796Y-186364042D01*
X165168796Y-186364042D02*
X165240225Y-186506900D01*
X165240225Y-186506900D02*
X165383082Y-186578328D01*
X165383082Y-186578328D02*
X165525939Y-186578328D01*
X165954511Y-186506900D02*
X166097368Y-186578328D01*
X166097368Y-186578328D02*
X166383082Y-186578328D01*
X166383082Y-186578328D02*
X166525939Y-186506900D01*
X166525939Y-186506900D02*
X166597368Y-186364042D01*
X166597368Y-186364042D02*
X166597368Y-186292614D01*
X166597368Y-186292614D02*
X166525939Y-186149757D01*
X166525939Y-186149757D02*
X166383082Y-186078328D01*
X166383082Y-186078328D02*
X166168797Y-186078328D01*
X166168797Y-186078328D02*
X166025939Y-186006900D01*
X166025939Y-186006900D02*
X165954511Y-185864042D01*
X165954511Y-185864042D02*
X165954511Y-185792614D01*
X165954511Y-185792614D02*
X166025939Y-185649757D01*
X166025939Y-185649757D02*
X166168797Y-185578328D01*
X166168797Y-185578328D02*
X166383082Y-185578328D01*
X166383082Y-185578328D02*
X166525939Y-185649757D01*
X168168797Y-185578328D02*
X168740225Y-185578328D01*
X168383082Y-186578328D02*
X168383082Y-185292614D01*
X168383082Y-185292614D02*
X168454511Y-185149757D01*
X168454511Y-185149757D02*
X168597368Y-185078328D01*
X168597368Y-185078328D02*
X168740225Y-185078328D01*
X169454511Y-186578328D02*
X169311654Y-186506900D01*
X169311654Y-186506900D02*
X169240225Y-186435471D01*
X169240225Y-186435471D02*
X169168797Y-186292614D01*
X169168797Y-186292614D02*
X169168797Y-185864042D01*
X169168797Y-185864042D02*
X169240225Y-185721185D01*
X169240225Y-185721185D02*
X169311654Y-185649757D01*
X169311654Y-185649757D02*
X169454511Y-185578328D01*
X169454511Y-185578328D02*
X169668797Y-185578328D01*
X169668797Y-185578328D02*
X169811654Y-185649757D01*
X169811654Y-185649757D02*
X169883083Y-185721185D01*
X169883083Y-185721185D02*
X169954511Y-185864042D01*
X169954511Y-185864042D02*
X169954511Y-186292614D01*
X169954511Y-186292614D02*
X169883083Y-186435471D01*
X169883083Y-186435471D02*
X169811654Y-186506900D01*
X169811654Y-186506900D02*
X169668797Y-186578328D01*
X169668797Y-186578328D02*
X169454511Y-186578328D01*
X170597368Y-186578328D02*
X170597368Y-185578328D01*
X170597368Y-185864042D02*
X170668797Y-185721185D01*
X170668797Y-185721185D02*
X170740226Y-185649757D01*
X170740226Y-185649757D02*
X170883083Y-185578328D01*
X170883083Y-185578328D02*
X171025940Y-185578328D01*
X173168796Y-185792614D02*
X173383082Y-185864042D01*
X173383082Y-185864042D02*
X173454511Y-185935471D01*
X173454511Y-185935471D02*
X173525939Y-186078328D01*
X173525939Y-186078328D02*
X173525939Y-186292614D01*
X173525939Y-186292614D02*
X173454511Y-186435471D01*
X173454511Y-186435471D02*
X173383082Y-186506900D01*
X173383082Y-186506900D02*
X173240225Y-186578328D01*
X173240225Y-186578328D02*
X172668796Y-186578328D01*
X172668796Y-186578328D02*
X172668796Y-185078328D01*
X172668796Y-185078328D02*
X173168796Y-185078328D01*
X173168796Y-185078328D02*
X173311654Y-185149757D01*
X173311654Y-185149757D02*
X173383082Y-185221185D01*
X173383082Y-185221185D02*
X173454511Y-185364042D01*
X173454511Y-185364042D02*
X173454511Y-185506900D01*
X173454511Y-185506900D02*
X173383082Y-185649757D01*
X173383082Y-185649757D02*
X173311654Y-185721185D01*
X173311654Y-185721185D02*
X173168796Y-185792614D01*
X173168796Y-185792614D02*
X172668796Y-185792614D01*
X174168796Y-186578328D02*
X174168796Y-185578328D01*
X174168796Y-185078328D02*
X174097368Y-185149757D01*
X174097368Y-185149757D02*
X174168796Y-185221185D01*
X174168796Y-185221185D02*
X174240225Y-185149757D01*
X174240225Y-185149757D02*
X174168796Y-185078328D01*
X174168796Y-185078328D02*
X174168796Y-185221185D01*
X174883082Y-186578328D02*
X174883082Y-185578328D01*
X174883082Y-185864042D02*
X174954511Y-185721185D01*
X174954511Y-185721185D02*
X175025940Y-185649757D01*
X175025940Y-185649757D02*
X175168797Y-185578328D01*
X175168797Y-185578328D02*
X175311654Y-185578328D01*
X176454511Y-186578328D02*
X176454511Y-185078328D01*
X176454511Y-186506900D02*
X176311653Y-186578328D01*
X176311653Y-186578328D02*
X176025939Y-186578328D01*
X176025939Y-186578328D02*
X175883082Y-186506900D01*
X175883082Y-186506900D02*
X175811653Y-186435471D01*
X175811653Y-186435471D02*
X175740225Y-186292614D01*
X175740225Y-186292614D02*
X175740225Y-185864042D01*
X175740225Y-185864042D02*
X175811653Y-185721185D01*
X175811653Y-185721185D02*
X175883082Y-185649757D01*
X175883082Y-185649757D02*
X176025939Y-185578328D01*
X176025939Y-185578328D02*
X176311653Y-185578328D01*
X176311653Y-185578328D02*
X176454511Y-185649757D01*
X177097368Y-186506900D02*
X177240225Y-186578328D01*
X177240225Y-186578328D02*
X177525939Y-186578328D01*
X177525939Y-186578328D02*
X177668796Y-186506900D01*
X177668796Y-186506900D02*
X177740225Y-186364042D01*
X177740225Y-186364042D02*
X177740225Y-186292614D01*
X177740225Y-186292614D02*
X177668796Y-186149757D01*
X177668796Y-186149757D02*
X177525939Y-186078328D01*
X177525939Y-186078328D02*
X177311654Y-186078328D01*
X177311654Y-186078328D02*
X177168796Y-186006900D01*
X177168796Y-186006900D02*
X177097368Y-185864042D01*
X177097368Y-185864042D02*
X177097368Y-185792614D01*
X177097368Y-185792614D02*
X177168796Y-185649757D01*
X177168796Y-185649757D02*
X177311654Y-185578328D01*
X177311654Y-185578328D02*
X177525939Y-185578328D01*
X177525939Y-185578328D02*
X177668796Y-185649757D01*
D10*
D11*
D10*
D11*
D10*
D11*
D10*
D11*
D10*
D11*
X179400000Y-197400000D02*
X179400000Y-200400000D01*
D10*
D11*
X243400000Y-197400000D02*
X243400000Y-203900000D01*
D14*
X125000000Y-68000000D02*
X145500000Y-68000000D01*
X200500000Y-43500000D02*
G75*
G03*
X189500000Y-32500000I-11000000J0D01*
G01*
X116000000Y-60000000D02*
G75*
G03*
X116500000Y-60500000I500000J0D01*
G01*
X189500000Y-87500000D02*
G75*
G03*
X200500000Y-76500000I0J11000000D01*
G01*
X116000000Y-43500000D02*
X116000000Y-60000000D01*
X118500000Y-60500000D02*
G75*
G03*
X119000000Y-60000000I0J500000D01*
G01*
X110500000Y-76500000D02*
G75*
G03*
X121500000Y-87500000I11000000J0D01*
G01*
X123000000Y-87500000D02*
X123000000Y-70000000D01*
X125000000Y-68000000D02*
G75*
G03*
X123000000Y-70000000I0J-2000000D01*
G01*
X189500000Y-87500000D02*
X147500000Y-87500000D01*
X121500000Y-32500000D02*
X189500000Y-32500000D01*
X119000000Y-43500000D02*
G75*
G03*
X118500000Y-43000000I-500000J0D01*
G01*
X123000000Y-87500000D02*
X121500000Y-87500000D01*
X116500000Y-43000000D02*
X118500000Y-43000000D01*
X116500000Y-60500000D02*
X118500000Y-60500000D01*
X119000000Y-43500000D02*
X119000000Y-60000000D01*
X110500000Y-76500000D02*
X110500000Y-43500000D01*
X116500000Y-43000000D02*
G75*
G03*
X116000000Y-43500000I0J-500000D01*
G01*
X147500000Y-87500000D02*
X147500000Y-70000000D01*
X121500000Y-32500000D02*
G75*
G03*
X110500000Y-43500000I0J-11000000D01*
G01*
X147500000Y-70000000D02*
G75*
G03*
X145500000Y-68000000I-2000000J0D01*
G01*
X200500000Y-43500000D02*
X200500000Y-76500000D01*
M02*
