%TF.GenerationSoftware,KiCad,Pcbnew,7.0.7*%
%TF.CreationDate,2023-09-09T23:22:34-07:00*%
%TF.ProjectId,gshps,67736870-732e-46b6-9963-61645f706362,rev?*%
%TF.SameCoordinates,Original*%
%TF.FileFunction,Legend,Top*%
%TF.FilePolarity,Positive*%
%FSLAX46Y46*%
G04 Gerber Fmt 4.6, Leading zero omitted, Abs format (unit mm)*
G04 Created by KiCad (PCBNEW 7.0.7) date 2023-09-09 23:22:34*
%MOMM*%
%LPD*%
G01*
G04 APERTURE LIST*
%ADD10C,0.150000*%
%ADD11C,0.100000*%
%ADD12C,0.200000*%
%ADD13C,0.120000*%
G04 APERTURE END LIST*
D10*
X118700000Y-68350000D02*
X119600000Y-68350000D01*
X119600000Y-70250000D01*
X118700000Y-70250000D01*
X118700000Y-68350000D01*
G36*
X118700000Y-68350000D02*
G01*
X119600000Y-68350000D01*
X119600000Y-70250000D01*
X118700000Y-70250000D01*
X118700000Y-68350000D01*
G37*
X114300000Y-68300000D02*
X115200000Y-68300000D01*
X115200000Y-70200000D01*
X114300000Y-70200000D01*
X114300000Y-68300000D01*
G36*
X114300000Y-68300000D02*
G01*
X115200000Y-68300000D01*
X115200000Y-70200000D01*
X114300000Y-70200000D01*
X114300000Y-68300000D01*
G37*
D11*
X125500000Y-33500000D02*
X125627000Y-33373000D01*
X125881000Y-33373000D01*
X126008000Y-33500000D01*
X126008000Y-33754000D01*
X125500000Y-34516000D01*
X124992000Y-33754000D01*
X124992000Y-33500000D01*
X125119000Y-33373000D01*
X125246000Y-33373000D01*
X125373000Y-33373000D01*
X125500000Y-33500000D01*
G36*
X125500000Y-33500000D02*
G01*
X125627000Y-33373000D01*
X125881000Y-33373000D01*
X126008000Y-33500000D01*
X126008000Y-33754000D01*
X125500000Y-34516000D01*
X124992000Y-33754000D01*
X124992000Y-33500000D01*
X125119000Y-33373000D01*
X125246000Y-33373000D01*
X125373000Y-33373000D01*
X125500000Y-33500000D01*
G37*
D12*
G36*
X119936554Y-61288703D02*
G01*
X119961223Y-61313371D01*
X119991028Y-61372981D01*
X119991028Y-61630326D01*
X119667219Y-61630326D01*
X119667219Y-61372981D01*
X119697024Y-61313371D01*
X119721692Y-61288702D01*
X119781302Y-61258898D01*
X119876945Y-61258898D01*
X119936554Y-61288703D01*
G37*
G36*
X120181504Y-59734440D02*
G01*
X119883446Y-59635088D01*
X120181504Y-59535735D01*
X120181504Y-59734440D01*
G37*
G36*
X120294218Y-58538963D02*
G01*
X120365127Y-58574417D01*
X120432197Y-58641487D01*
X120467218Y-58746552D01*
X120467219Y-58868421D01*
X119667219Y-58868421D01*
X119667218Y-58746553D01*
X119702240Y-58641488D01*
X119769313Y-58574415D01*
X119840218Y-58538963D01*
X120008099Y-58496993D01*
X120126337Y-58496993D01*
X120294218Y-58538963D01*
G37*
G36*
X120810076Y-61973183D02*
G01*
X119324362Y-61973183D01*
X119324362Y-61730326D01*
X119467219Y-61730326D01*
X119472113Y-61745388D01*
X119472113Y-61761228D01*
X119481422Y-61774041D01*
X119486317Y-61789105D01*
X119499130Y-61798414D01*
X119508440Y-61811228D01*
X119523503Y-61816122D01*
X119536317Y-61825432D01*
X119552156Y-61825432D01*
X119567219Y-61830326D01*
X120567219Y-61830326D01*
X120625998Y-61811228D01*
X120662325Y-61761228D01*
X120662325Y-61699424D01*
X120625998Y-61649424D01*
X120567219Y-61630326D01*
X120191028Y-61630326D01*
X120191027Y-61544296D01*
X120624565Y-61240821D01*
X120661767Y-61191468D01*
X120662854Y-61129674D01*
X120627412Y-61079042D01*
X120568979Y-61058913D01*
X120509873Y-61076975D01*
X120180866Y-61307278D01*
X120180471Y-61304652D01*
X120132852Y-61209415D01*
X120121477Y-61197866D01*
X120114119Y-61183425D01*
X120066501Y-61135806D01*
X120052058Y-61128447D01*
X120040511Y-61117074D01*
X119945273Y-61069455D01*
X119922475Y-61066021D01*
X119900552Y-61058898D01*
X119757695Y-61058898D01*
X119735771Y-61066021D01*
X119712973Y-61069455D01*
X119617736Y-61117074D01*
X119606187Y-61128448D01*
X119591746Y-61135807D01*
X119544127Y-61183425D01*
X119536768Y-61197867D01*
X119525395Y-61209415D01*
X119477776Y-61304653D01*
X119474342Y-61327450D01*
X119467219Y-61349374D01*
X119467219Y-61730326D01*
X119324362Y-61730326D01*
X119324362Y-60730326D01*
X119467219Y-60730326D01*
X119472113Y-60745388D01*
X119472113Y-60761228D01*
X119481422Y-60774041D01*
X119486317Y-60789105D01*
X119499130Y-60798414D01*
X119508440Y-60811228D01*
X119523503Y-60816122D01*
X119536317Y-60825432D01*
X119552156Y-60825432D01*
X119567219Y-60830326D01*
X120567219Y-60830326D01*
X120582282Y-60825432D01*
X120598121Y-60825432D01*
X120610934Y-60816122D01*
X120625998Y-60811228D01*
X120635307Y-60798414D01*
X120648121Y-60789105D01*
X120653015Y-60774041D01*
X120662325Y-60761228D01*
X120662325Y-60745388D01*
X120667219Y-60730326D01*
X120667219Y-60254136D01*
X120648121Y-60195357D01*
X120598121Y-60159030D01*
X120536317Y-60159030D01*
X120486317Y-60195357D01*
X120467219Y-60254136D01*
X120467219Y-60630326D01*
X120143409Y-60630326D01*
X120143409Y-60396993D01*
X120124311Y-60338214D01*
X120074311Y-60301887D01*
X120012507Y-60301887D01*
X119962507Y-60338214D01*
X119943409Y-60396993D01*
X119943409Y-60630326D01*
X119667219Y-60630326D01*
X119667219Y-60254136D01*
X119648121Y-60195357D01*
X119598121Y-60159030D01*
X119536317Y-60159030D01*
X119486317Y-60195357D01*
X119467219Y-60254136D01*
X119467219Y-60730326D01*
X119324362Y-60730326D01*
X119324362Y-59635847D01*
X119467221Y-59635847D01*
X119476757Y-59664456D01*
X119485873Y-59693251D01*
X119486514Y-59693724D01*
X119486766Y-59694479D01*
X119511317Y-59712033D01*
X119535596Y-59729956D01*
X120535596Y-60063289D01*
X120597398Y-60063759D01*
X120647672Y-60027812D01*
X120667216Y-59969180D01*
X120648565Y-59910258D01*
X120598841Y-59873553D01*
X120381504Y-59801107D01*
X120381504Y-59469068D01*
X120598841Y-59396623D01*
X120648565Y-59359918D01*
X120667216Y-59300996D01*
X120647672Y-59242364D01*
X120597398Y-59206417D01*
X120535596Y-59206887D01*
X119535596Y-59540220D01*
X119511317Y-59558142D01*
X119486766Y-59575697D01*
X119486514Y-59576451D01*
X119485873Y-59576925D01*
X119476757Y-59605719D01*
X119467221Y-59634329D01*
X119467461Y-59635088D01*
X119467221Y-59635847D01*
X119324362Y-59635847D01*
X119324362Y-58968421D01*
X119467219Y-58968421D01*
X119472113Y-58983483D01*
X119472113Y-58999323D01*
X119481422Y-59012136D01*
X119486317Y-59027200D01*
X119499130Y-59036509D01*
X119508440Y-59049323D01*
X119523503Y-59054217D01*
X119536317Y-59063527D01*
X119552156Y-59063527D01*
X119567219Y-59068421D01*
X120567219Y-59068421D01*
X120582282Y-59063527D01*
X120598121Y-59063527D01*
X120610934Y-59054217D01*
X120625998Y-59049323D01*
X120635307Y-59036509D01*
X120648121Y-59027200D01*
X120653015Y-59012136D01*
X120662325Y-58999323D01*
X120662325Y-58983483D01*
X120667219Y-58968421D01*
X120667219Y-58730326D01*
X120662210Y-58714910D01*
X120662087Y-58698703D01*
X120614468Y-58555846D01*
X120600779Y-58537302D01*
X120590311Y-58516758D01*
X120495071Y-58421520D01*
X120480630Y-58414162D01*
X120469082Y-58402788D01*
X120373844Y-58355169D01*
X120362822Y-58353508D01*
X120353376Y-58347598D01*
X120162901Y-58299979D01*
X120150484Y-58300839D01*
X120138647Y-58296993D01*
X119995790Y-58296993D01*
X119983952Y-58300839D01*
X119971536Y-58299979D01*
X119781060Y-58347598D01*
X119771613Y-58353508D01*
X119760592Y-58355169D01*
X119665355Y-58402788D01*
X119653807Y-58414161D01*
X119639365Y-58421520D01*
X119544127Y-58516758D01*
X119533659Y-58537301D01*
X119519970Y-58555847D01*
X119472351Y-58698703D01*
X119472227Y-58714910D01*
X119467219Y-58730326D01*
X119467219Y-58968421D01*
X119324362Y-58968421D01*
X119324362Y-58136267D01*
X119470391Y-58136267D01*
X119503572Y-58188409D01*
X119561064Y-58211089D01*
X119620907Y-58195644D01*
X120120148Y-57877945D01*
X120567219Y-57877945D01*
X120625998Y-57858847D01*
X120662325Y-57808847D01*
X120662325Y-57747043D01*
X120625998Y-57697043D01*
X120567219Y-57677945D01*
X120120148Y-57677945D01*
X119620907Y-57360246D01*
X119561064Y-57344801D01*
X119503572Y-57367481D01*
X119470391Y-57419623D01*
X119474195Y-57481309D01*
X119513531Y-57528978D01*
X119904765Y-57777945D01*
X119513531Y-58026912D01*
X119474195Y-58074581D01*
X119470391Y-58136267D01*
X119324362Y-58136267D01*
X119324362Y-57201944D01*
X120810076Y-57201944D01*
X120810076Y-61973183D01*
G37*
G36*
X113881504Y-59491583D02*
G01*
X113583445Y-59392230D01*
X113881504Y-59292878D01*
X113881504Y-59491583D01*
G37*
G36*
X113636554Y-58283941D02*
G01*
X113661223Y-58308609D01*
X113691028Y-58368219D01*
X113691028Y-58625564D01*
X113367219Y-58625564D01*
X113367219Y-58368219D01*
X113397024Y-58308609D01*
X113421692Y-58283940D01*
X113481302Y-58254136D01*
X113576945Y-58254136D01*
X113636554Y-58283941D01*
G37*
G36*
X114510076Y-61920802D02*
G01*
X113024362Y-61920802D01*
X113024362Y-61344612D01*
X113167219Y-61344612D01*
X113172227Y-61360027D01*
X113172351Y-61376235D01*
X113219970Y-61519091D01*
X113233659Y-61537636D01*
X113244127Y-61558180D01*
X113339365Y-61653418D01*
X113353807Y-61660776D01*
X113365355Y-61672150D01*
X113460592Y-61719769D01*
X113471613Y-61721429D01*
X113481060Y-61727340D01*
X113671536Y-61774959D01*
X113683952Y-61774098D01*
X113695790Y-61777945D01*
X113838647Y-61777945D01*
X113850484Y-61774098D01*
X113862901Y-61774959D01*
X114053376Y-61727340D01*
X114062822Y-61721429D01*
X114073844Y-61719769D01*
X114169082Y-61672150D01*
X114180630Y-61660775D01*
X114195071Y-61653418D01*
X114290311Y-61558180D01*
X114300779Y-61537635D01*
X114314468Y-61519092D01*
X114362087Y-61376235D01*
X114362210Y-61360027D01*
X114367219Y-61344612D01*
X114367219Y-61249374D01*
X114362210Y-61233958D01*
X114362087Y-61217751D01*
X114314468Y-61074894D01*
X114300776Y-61056347D01*
X114290310Y-61035805D01*
X114242690Y-60988187D01*
X114187622Y-60960128D01*
X114126580Y-60969797D01*
X114082878Y-61013500D01*
X114073211Y-61074542D01*
X114101270Y-61129609D01*
X114132197Y-61160535D01*
X114167219Y-61265600D01*
X114167219Y-61328385D01*
X114132197Y-61433450D01*
X114065127Y-61500520D01*
X113994218Y-61535974D01*
X113826337Y-61577945D01*
X113708099Y-61577945D01*
X113540218Y-61535974D01*
X113469313Y-61500522D01*
X113402240Y-61433449D01*
X113367219Y-61328384D01*
X113367219Y-61265600D01*
X113402240Y-61160535D01*
X113433167Y-61129609D01*
X113461226Y-61074542D01*
X113451558Y-61013499D01*
X113407856Y-60969797D01*
X113346813Y-60960129D01*
X113291746Y-60988188D01*
X113244127Y-61035806D01*
X113233659Y-61056349D01*
X113219970Y-61074895D01*
X113172351Y-61217751D01*
X113172227Y-61233958D01*
X113167219Y-61249374D01*
X113167219Y-61344612D01*
X113024362Y-61344612D01*
X113024362Y-60661228D01*
X113172113Y-60661228D01*
X113208440Y-60711228D01*
X113267219Y-60730326D01*
X114267219Y-60730326D01*
X114325998Y-60711228D01*
X114362325Y-60661228D01*
X114362325Y-60599424D01*
X114325998Y-60549424D01*
X114267219Y-60530326D01*
X113843409Y-60530326D01*
X113843409Y-60158898D01*
X114267219Y-60158898D01*
X114325998Y-60139800D01*
X114362325Y-60089800D01*
X114362325Y-60027996D01*
X114325998Y-59977996D01*
X114267219Y-59958898D01*
X113267219Y-59958898D01*
X113208440Y-59977996D01*
X113172113Y-60027996D01*
X113172113Y-60089800D01*
X113208440Y-60139800D01*
X113267219Y-60158898D01*
X113643409Y-60158898D01*
X113643409Y-60530326D01*
X113267219Y-60530326D01*
X113208440Y-60549424D01*
X113172113Y-60599424D01*
X113172113Y-60661228D01*
X113024362Y-60661228D01*
X113024362Y-59392990D01*
X113167221Y-59392990D01*
X113176757Y-59421599D01*
X113185873Y-59450394D01*
X113186514Y-59450867D01*
X113186766Y-59451622D01*
X113211317Y-59469176D01*
X113235596Y-59487099D01*
X114235596Y-59820432D01*
X114297398Y-59820902D01*
X114347672Y-59784955D01*
X114367216Y-59726323D01*
X114348565Y-59667401D01*
X114298841Y-59630696D01*
X114081504Y-59558250D01*
X114081504Y-59226211D01*
X114298841Y-59153766D01*
X114348565Y-59117061D01*
X114367216Y-59058139D01*
X114347672Y-58999507D01*
X114297398Y-58963560D01*
X114235596Y-58964030D01*
X113235596Y-59297363D01*
X113211317Y-59315285D01*
X113186766Y-59332840D01*
X113186514Y-59333594D01*
X113185873Y-59334068D01*
X113176757Y-59362862D01*
X113167221Y-59391472D01*
X113167461Y-59392230D01*
X113167221Y-59392990D01*
X113024362Y-59392990D01*
X113024362Y-58725564D01*
X113167219Y-58725564D01*
X113172113Y-58740626D01*
X113172113Y-58756466D01*
X113181422Y-58769279D01*
X113186317Y-58784343D01*
X113199130Y-58793652D01*
X113208440Y-58806466D01*
X113223503Y-58811360D01*
X113236317Y-58820670D01*
X113252156Y-58820670D01*
X113267219Y-58825564D01*
X114267219Y-58825564D01*
X114325998Y-58806466D01*
X114362325Y-58756466D01*
X114362325Y-58694662D01*
X114325998Y-58644662D01*
X114267219Y-58625564D01*
X113891028Y-58625564D01*
X113891028Y-58539534D01*
X114324565Y-58236059D01*
X114361767Y-58186706D01*
X114362854Y-58124912D01*
X114327412Y-58074280D01*
X114268979Y-58054151D01*
X114209873Y-58072213D01*
X113880866Y-58302516D01*
X113880471Y-58299890D01*
X113832852Y-58204653D01*
X113821477Y-58193104D01*
X113814119Y-58178663D01*
X113766501Y-58131044D01*
X113752058Y-58123685D01*
X113740511Y-58112312D01*
X113645273Y-58064693D01*
X113622475Y-58061259D01*
X113600552Y-58054136D01*
X113457695Y-58054136D01*
X113435771Y-58061259D01*
X113412973Y-58064693D01*
X113317736Y-58112312D01*
X113306187Y-58123686D01*
X113291746Y-58131045D01*
X113244127Y-58178663D01*
X113236768Y-58193105D01*
X113225395Y-58204653D01*
X113177776Y-58299891D01*
X113174342Y-58322688D01*
X113167219Y-58344612D01*
X113167219Y-58725564D01*
X113024362Y-58725564D01*
X113024362Y-57439850D01*
X113167219Y-57439850D01*
X113172227Y-57455265D01*
X113172351Y-57471473D01*
X113219970Y-57614329D01*
X113233659Y-57632874D01*
X113244127Y-57653418D01*
X113339365Y-57748656D01*
X113353807Y-57756014D01*
X113365355Y-57767388D01*
X113460592Y-57815007D01*
X113471613Y-57816667D01*
X113481060Y-57822578D01*
X113671536Y-57870197D01*
X113683952Y-57869336D01*
X113695790Y-57873183D01*
X113838647Y-57873183D01*
X113850484Y-57869336D01*
X113862901Y-57870197D01*
X114053376Y-57822578D01*
X114062822Y-57816667D01*
X114073844Y-57815007D01*
X114169082Y-57767388D01*
X114180630Y-57756013D01*
X114195071Y-57748656D01*
X114290311Y-57653418D01*
X114300779Y-57632873D01*
X114314468Y-57614330D01*
X114362087Y-57471473D01*
X114362210Y-57455265D01*
X114367219Y-57439850D01*
X114367219Y-57344612D01*
X114362210Y-57329196D01*
X114362087Y-57312989D01*
X114314468Y-57170132D01*
X114300776Y-57151585D01*
X114290310Y-57131043D01*
X114242690Y-57083425D01*
X114235502Y-57079762D01*
X114230759Y-57073234D01*
X114208487Y-57065997D01*
X114187622Y-57055366D01*
X114179651Y-57056628D01*
X114171980Y-57054136D01*
X113838647Y-57054136D01*
X113823584Y-57059030D01*
X113807745Y-57059030D01*
X113794931Y-57068339D01*
X113779868Y-57073234D01*
X113770558Y-57086047D01*
X113757745Y-57095357D01*
X113752850Y-57110420D01*
X113743541Y-57123234D01*
X113743541Y-57139073D01*
X113738647Y-57154136D01*
X113738647Y-57344612D01*
X113757745Y-57403391D01*
X113807745Y-57439718D01*
X113869549Y-57439718D01*
X113919549Y-57403391D01*
X113938647Y-57344612D01*
X113938647Y-57254136D01*
X114130560Y-57254136D01*
X114132197Y-57255773D01*
X114167219Y-57360838D01*
X114167219Y-57423623D01*
X114132197Y-57528688D01*
X114065127Y-57595758D01*
X113994218Y-57631212D01*
X113826337Y-57673183D01*
X113708099Y-57673183D01*
X113540218Y-57631212D01*
X113469313Y-57595760D01*
X113402240Y-57528687D01*
X113367219Y-57423622D01*
X113367219Y-57320600D01*
X113404281Y-57246477D01*
X113413486Y-57185362D01*
X113385010Y-57130510D01*
X113329731Y-57102870D01*
X113268764Y-57113001D01*
X113225395Y-57157034D01*
X113177776Y-57252272D01*
X113174342Y-57275069D01*
X113167219Y-57296993D01*
X113167219Y-57439850D01*
X113024362Y-57439850D01*
X113024362Y-56756466D01*
X113172113Y-56756466D01*
X113208440Y-56806466D01*
X113267219Y-56825564D01*
X114267219Y-56825564D01*
X114325998Y-56806466D01*
X114362325Y-56756466D01*
X114362325Y-56694662D01*
X114325998Y-56644662D01*
X114267219Y-56625564D01*
X113267219Y-56625564D01*
X113208440Y-56644662D01*
X113172113Y-56694662D01*
X113172113Y-56756466D01*
X113024362Y-56756466D01*
X113024362Y-56269729D01*
X113169312Y-56269729D01*
X113172113Y-56274630D01*
X113172113Y-56280276D01*
X113187224Y-56301075D01*
X113199976Y-56323390D01*
X113205121Y-56325708D01*
X113208440Y-56330276D01*
X113232886Y-56338219D01*
X113256323Y-56348779D01*
X113261850Y-56347629D01*
X113267219Y-56349374D01*
X114267219Y-56349374D01*
X114325998Y-56330276D01*
X114362325Y-56280276D01*
X114362325Y-56218472D01*
X114325998Y-56168472D01*
X114267219Y-56149374D01*
X113643775Y-56149374D01*
X114316833Y-55764770D01*
X114320628Y-55760592D01*
X114325998Y-55758848D01*
X114341109Y-55738049D01*
X114358392Y-55719026D01*
X114359007Y-55713414D01*
X114362325Y-55708848D01*
X114362325Y-55683144D01*
X114365126Y-55657591D01*
X114362325Y-55652689D01*
X114362325Y-55647044D01*
X114347216Y-55626248D01*
X114334463Y-55603930D01*
X114329316Y-55601610D01*
X114325998Y-55597044D01*
X114301552Y-55589101D01*
X114278115Y-55578541D01*
X114272587Y-55579690D01*
X114267219Y-55577946D01*
X113267219Y-55577946D01*
X113208440Y-55597044D01*
X113172113Y-55647044D01*
X113172113Y-55708848D01*
X113208440Y-55758848D01*
X113267219Y-55777946D01*
X113890663Y-55777946D01*
X113217605Y-56162550D01*
X113213809Y-56166727D01*
X113208440Y-56168472D01*
X113193328Y-56189270D01*
X113176046Y-56208294D01*
X113175430Y-56213905D01*
X113172113Y-56218472D01*
X113172113Y-56244175D01*
X113169312Y-56269729D01*
X113024362Y-56269729D01*
X113024362Y-54916041D01*
X113167219Y-54916041D01*
X113172227Y-54931456D01*
X113172351Y-54947664D01*
X113219970Y-55090520D01*
X113233659Y-55109065D01*
X113244127Y-55129609D01*
X113339365Y-55224847D01*
X113353807Y-55232205D01*
X113365355Y-55243579D01*
X113460592Y-55291198D01*
X113471613Y-55292858D01*
X113481060Y-55298769D01*
X113671536Y-55346388D01*
X113683952Y-55345527D01*
X113695790Y-55349374D01*
X113838647Y-55349374D01*
X113850484Y-55345527D01*
X113862901Y-55346388D01*
X114053376Y-55298769D01*
X114062822Y-55292858D01*
X114073844Y-55291198D01*
X114169082Y-55243579D01*
X114180630Y-55232204D01*
X114195071Y-55224847D01*
X114290311Y-55129609D01*
X114300779Y-55109064D01*
X114314468Y-55090521D01*
X114362087Y-54947664D01*
X114362210Y-54931456D01*
X114367219Y-54916041D01*
X114367219Y-54820803D01*
X114362210Y-54805387D01*
X114362087Y-54789180D01*
X114314468Y-54646323D01*
X114300776Y-54627776D01*
X114290310Y-54607234D01*
X114242690Y-54559616D01*
X114235502Y-54555953D01*
X114230759Y-54549425D01*
X114208487Y-54542188D01*
X114187622Y-54531557D01*
X114179651Y-54532819D01*
X114171980Y-54530327D01*
X113838647Y-54530327D01*
X113823584Y-54535221D01*
X113807745Y-54535221D01*
X113794931Y-54544530D01*
X113779868Y-54549425D01*
X113770558Y-54562238D01*
X113757745Y-54571548D01*
X113752850Y-54586611D01*
X113743541Y-54599425D01*
X113743541Y-54615264D01*
X113738647Y-54630327D01*
X113738647Y-54820803D01*
X113757745Y-54879582D01*
X113807745Y-54915909D01*
X113869549Y-54915909D01*
X113919549Y-54879582D01*
X113938647Y-54820803D01*
X113938647Y-54730327D01*
X114130560Y-54730327D01*
X114132197Y-54731964D01*
X114167219Y-54837029D01*
X114167219Y-54899814D01*
X114132197Y-55004879D01*
X114065127Y-55071949D01*
X113994218Y-55107403D01*
X113826337Y-55149374D01*
X113708099Y-55149374D01*
X113540218Y-55107403D01*
X113469313Y-55071951D01*
X113402240Y-55004878D01*
X113367219Y-54899813D01*
X113367219Y-54796791D01*
X113404281Y-54722668D01*
X113413486Y-54661553D01*
X113385010Y-54606701D01*
X113329731Y-54579061D01*
X113268764Y-54589192D01*
X113225395Y-54633225D01*
X113177776Y-54728463D01*
X113174342Y-54751260D01*
X113167219Y-54773184D01*
X113167219Y-54916041D01*
X113024362Y-54916041D01*
X113024362Y-54387470D01*
X114510076Y-54387470D01*
X114510076Y-61920802D01*
G37*
G36*
X181286626Y-75997023D02*
G01*
X181350805Y-76061202D01*
X181388720Y-76212861D01*
X181388720Y-76521575D01*
X181350804Y-76673235D01*
X181286628Y-76737413D01*
X181227018Y-76767219D01*
X181083756Y-76767219D01*
X181024146Y-76737414D01*
X180959969Y-76673236D01*
X180922054Y-76521574D01*
X180922054Y-76212862D01*
X180959969Y-76061202D01*
X181024147Y-75997023D01*
X181083756Y-75967219D01*
X181227018Y-75967219D01*
X181286626Y-75997023D01*
G37*
G36*
X184381865Y-75997024D02*
G01*
X184406534Y-76021692D01*
X184436339Y-76081302D01*
X184436339Y-76176945D01*
X184406534Y-76236554D01*
X184381865Y-76261222D01*
X184322256Y-76291028D01*
X184064911Y-76291028D01*
X184064911Y-75967219D01*
X184322256Y-75967219D01*
X184381865Y-75997024D01*
G37*
G36*
X180286627Y-75997024D02*
G01*
X180311296Y-76021692D01*
X180341100Y-76081301D01*
X180341100Y-76176945D01*
X180311296Y-76236554D01*
X180286627Y-76261222D01*
X180227018Y-76291028D01*
X179969673Y-76291028D01*
X179969673Y-75967219D01*
X180227018Y-75967219D01*
X180286627Y-75997024D01*
G37*
G36*
X184779196Y-77110076D02*
G01*
X179626816Y-77110076D01*
X179626816Y-76867219D01*
X179769673Y-76867219D01*
X179788771Y-76925998D01*
X179838771Y-76962325D01*
X179900575Y-76962325D01*
X179950575Y-76925998D01*
X179969673Y-76867219D01*
X179969673Y-76533885D01*
X180722054Y-76533885D01*
X180725900Y-76545722D01*
X180725040Y-76558139D01*
X180772659Y-76748614D01*
X180786832Y-76771264D01*
X180798962Y-76795071D01*
X180894200Y-76890311D01*
X180908643Y-76897670D01*
X180920190Y-76909043D01*
X181015427Y-76956662D01*
X181038225Y-76960095D01*
X181060149Y-76967219D01*
X181250625Y-76967219D01*
X181272548Y-76960095D01*
X181295346Y-76956662D01*
X181390584Y-76909043D01*
X181402132Y-76897668D01*
X181416574Y-76890310D01*
X181511812Y-76795071D01*
X181523943Y-76771262D01*
X181538115Y-76748615D01*
X181585734Y-76558139D01*
X181584873Y-76545722D01*
X181588720Y-76533885D01*
X181588720Y-76200552D01*
X181584873Y-76188714D01*
X181585734Y-76176298D01*
X181538115Y-75985822D01*
X181523942Y-75963173D01*
X181511812Y-75939365D01*
X181462828Y-75890381D01*
X181724773Y-75890381D01*
X181962868Y-76890381D01*
X181966464Y-76896274D01*
X181966834Y-76903168D01*
X181982286Y-76922204D01*
X181995061Y-76943138D01*
X182001434Y-76945792D01*
X182005785Y-76951151D01*
X182029477Y-76957469D01*
X182052116Y-76966896D01*
X182058831Y-76965297D01*
X182065502Y-76967076D01*
X182088386Y-76958260D01*
X182112239Y-76952581D01*
X182116731Y-76947340D01*
X182123174Y-76944859D01*
X182136505Y-76924276D01*
X182152465Y-76905661D01*
X182153019Y-76898779D01*
X182156773Y-76892985D01*
X182250625Y-76541038D01*
X182344478Y-76892986D01*
X182348230Y-76898779D01*
X182348785Y-76905661D01*
X182364745Y-76924277D01*
X182378076Y-76944859D01*
X182384518Y-76947340D01*
X182389011Y-76952581D01*
X182412863Y-76958260D01*
X182435748Y-76967076D01*
X182442418Y-76965297D01*
X182449134Y-76966896D01*
X182471767Y-76957471D01*
X182495465Y-76951152D01*
X182499816Y-76945791D01*
X182506188Y-76943138D01*
X182518957Y-76922211D01*
X182534417Y-76903168D01*
X182534786Y-76896272D01*
X182538382Y-76890381D01*
X182543897Y-76867219D01*
X182960149Y-76867219D01*
X182965043Y-76882281D01*
X182965043Y-76898121D01*
X182974352Y-76910934D01*
X182979247Y-76925998D01*
X182992060Y-76935307D01*
X183001370Y-76948121D01*
X183016433Y-76953015D01*
X183029247Y-76962325D01*
X183045086Y-76962325D01*
X183060149Y-76967219D01*
X183536339Y-76967219D01*
X183595118Y-76948121D01*
X183631445Y-76898121D01*
X183631445Y-76867219D01*
X183864911Y-76867219D01*
X183884009Y-76925998D01*
X183934009Y-76962325D01*
X183995813Y-76962325D01*
X184045813Y-76925998D01*
X184064911Y-76867219D01*
X184064911Y-76491028D01*
X184150941Y-76491028D01*
X184454416Y-76924565D01*
X184503769Y-76961767D01*
X184565563Y-76962854D01*
X184616195Y-76927412D01*
X184636324Y-76868979D01*
X184618262Y-76809873D01*
X184387957Y-76480866D01*
X184390584Y-76480471D01*
X184485822Y-76432852D01*
X184497369Y-76421478D01*
X184511812Y-76414120D01*
X184559430Y-76366501D01*
X184566788Y-76352059D01*
X184578163Y-76340511D01*
X184625782Y-76245274D01*
X184629215Y-76222475D01*
X184636339Y-76200552D01*
X184636339Y-76057695D01*
X184629215Y-76035771D01*
X184625782Y-76012973D01*
X184578163Y-75917736D01*
X184566788Y-75906187D01*
X184559430Y-75891746D01*
X184511812Y-75844127D01*
X184497369Y-75836768D01*
X184485822Y-75825395D01*
X184390584Y-75777776D01*
X184367786Y-75774342D01*
X184345863Y-75767219D01*
X183964911Y-75767219D01*
X183949848Y-75772113D01*
X183934009Y-75772113D01*
X183921195Y-75781422D01*
X183906132Y-75786317D01*
X183896822Y-75799130D01*
X183884009Y-75808440D01*
X183879114Y-75823503D01*
X183869805Y-75836317D01*
X183869805Y-75852156D01*
X183864911Y-75867219D01*
X183864911Y-76867219D01*
X183631445Y-76867219D01*
X183631445Y-76836317D01*
X183595118Y-76786317D01*
X183536339Y-76767219D01*
X183160149Y-76767219D01*
X183160149Y-76443409D01*
X183393482Y-76443409D01*
X183452261Y-76424311D01*
X183488588Y-76374311D01*
X183488588Y-76312507D01*
X183452261Y-76262507D01*
X183393482Y-76243409D01*
X183160149Y-76243409D01*
X183160149Y-75967219D01*
X183536339Y-75967219D01*
X183595118Y-75948121D01*
X183631445Y-75898121D01*
X183631445Y-75836317D01*
X183595118Y-75786317D01*
X183536339Y-75767219D01*
X183060149Y-75767219D01*
X183045086Y-75772113D01*
X183029247Y-75772113D01*
X183016433Y-75781422D01*
X183001370Y-75786317D01*
X182992060Y-75799130D01*
X182979247Y-75808440D01*
X182974352Y-75823503D01*
X182965043Y-75836317D01*
X182965043Y-75852156D01*
X182960149Y-75867219D01*
X182960149Y-76867219D01*
X182543897Y-76867219D01*
X182776478Y-75890381D01*
X182771513Y-75828777D01*
X182731287Y-75781857D01*
X182671164Y-75767542D01*
X182614109Y-75791300D01*
X182581916Y-75844057D01*
X182435612Y-76458530D01*
X182347249Y-76127167D01*
X182344237Y-76122517D01*
X182343941Y-76116984D01*
X182327674Y-76096945D01*
X182313650Y-76075293D01*
X182308481Y-76073301D01*
X182304989Y-76069000D01*
X182280054Y-76062351D01*
X182255978Y-76053076D01*
X182250625Y-76054503D01*
X182245272Y-76053076D01*
X182221190Y-76062352D01*
X182196261Y-76069001D01*
X182192770Y-76073301D01*
X182187600Y-76075293D01*
X182173572Y-76096950D01*
X182157310Y-76116984D01*
X182157013Y-76122516D01*
X182154002Y-76127166D01*
X182065637Y-76458530D01*
X181919335Y-75844057D01*
X181887142Y-75791300D01*
X181830087Y-75767542D01*
X181769964Y-75781857D01*
X181729738Y-75828777D01*
X181724773Y-75890381D01*
X181462828Y-75890381D01*
X181416574Y-75844127D01*
X181402131Y-75836768D01*
X181390584Y-75825395D01*
X181295346Y-75777776D01*
X181272548Y-75774342D01*
X181250625Y-75767219D01*
X181060149Y-75767219D01*
X181038225Y-75774342D01*
X181015427Y-75777776D01*
X180920190Y-75825395D01*
X180908642Y-75836768D01*
X180894200Y-75844127D01*
X180798962Y-75939365D01*
X180786830Y-75963174D01*
X180772659Y-75985823D01*
X180725040Y-76176298D01*
X180725900Y-76188714D01*
X180722054Y-76200552D01*
X180722054Y-76533885D01*
X179969673Y-76533885D01*
X179969673Y-76491028D01*
X180250625Y-76491028D01*
X180272548Y-76483904D01*
X180295346Y-76480471D01*
X180390584Y-76432852D01*
X180402131Y-76421478D01*
X180416574Y-76414120D01*
X180464192Y-76366501D01*
X180471550Y-76352059D01*
X180482925Y-76340511D01*
X180530544Y-76245274D01*
X180533977Y-76222475D01*
X180541101Y-76200552D01*
X180541101Y-76057695D01*
X180533977Y-76035771D01*
X180530544Y-76012973D01*
X180482925Y-75917736D01*
X180471550Y-75906187D01*
X180464192Y-75891746D01*
X180416574Y-75844127D01*
X180402131Y-75836768D01*
X180390584Y-75825395D01*
X180295346Y-75777776D01*
X180272548Y-75774342D01*
X180250625Y-75767219D01*
X179869673Y-75767219D01*
X179854610Y-75772113D01*
X179838771Y-75772113D01*
X179825957Y-75781422D01*
X179810894Y-75786317D01*
X179801584Y-75799130D01*
X179788771Y-75808440D01*
X179783876Y-75823503D01*
X179774567Y-75836317D01*
X179774567Y-75852156D01*
X179769673Y-75867219D01*
X179769673Y-76867219D01*
X179626816Y-76867219D01*
X179626816Y-75624362D01*
X184779196Y-75624362D01*
X184779196Y-77110076D01*
G37*
D10*
X131360588Y-33807438D02*
X131265350Y-33759819D01*
X131265350Y-33759819D02*
X131122493Y-33759819D01*
X131122493Y-33759819D02*
X130979636Y-33807438D01*
X130979636Y-33807438D02*
X130884398Y-33902676D01*
X130884398Y-33902676D02*
X130836779Y-33997914D01*
X130836779Y-33997914D02*
X130789160Y-34188390D01*
X130789160Y-34188390D02*
X130789160Y-34331247D01*
X130789160Y-34331247D02*
X130836779Y-34521723D01*
X130836779Y-34521723D02*
X130884398Y-34616961D01*
X130884398Y-34616961D02*
X130979636Y-34712200D01*
X130979636Y-34712200D02*
X131122493Y-34759819D01*
X131122493Y-34759819D02*
X131217731Y-34759819D01*
X131217731Y-34759819D02*
X131360588Y-34712200D01*
X131360588Y-34712200D02*
X131408207Y-34664580D01*
X131408207Y-34664580D02*
X131408207Y-34331247D01*
X131408207Y-34331247D02*
X131217731Y-34331247D01*
X131979636Y-34759819D02*
X131884398Y-34712200D01*
X131884398Y-34712200D02*
X131836779Y-34616961D01*
X131836779Y-34616961D02*
X131836779Y-33759819D01*
X132503446Y-34759819D02*
X132408208Y-34712200D01*
X132408208Y-34712200D02*
X132360589Y-34664580D01*
X132360589Y-34664580D02*
X132312970Y-34569342D01*
X132312970Y-34569342D02*
X132312970Y-34283628D01*
X132312970Y-34283628D02*
X132360589Y-34188390D01*
X132360589Y-34188390D02*
X132408208Y-34140771D01*
X132408208Y-34140771D02*
X132503446Y-34093152D01*
X132503446Y-34093152D02*
X132646303Y-34093152D01*
X132646303Y-34093152D02*
X132741541Y-34140771D01*
X132741541Y-34140771D02*
X132789160Y-34188390D01*
X132789160Y-34188390D02*
X132836779Y-34283628D01*
X132836779Y-34283628D02*
X132836779Y-34569342D01*
X132836779Y-34569342D02*
X132789160Y-34664580D01*
X132789160Y-34664580D02*
X132741541Y-34712200D01*
X132741541Y-34712200D02*
X132646303Y-34759819D01*
X132646303Y-34759819D02*
X132503446Y-34759819D01*
X133265351Y-34759819D02*
X133265351Y-33759819D01*
X133265351Y-34140771D02*
X133360589Y-34093152D01*
X133360589Y-34093152D02*
X133551065Y-34093152D01*
X133551065Y-34093152D02*
X133646303Y-34140771D01*
X133646303Y-34140771D02*
X133693922Y-34188390D01*
X133693922Y-34188390D02*
X133741541Y-34283628D01*
X133741541Y-34283628D02*
X133741541Y-34569342D01*
X133741541Y-34569342D02*
X133693922Y-34664580D01*
X133693922Y-34664580D02*
X133646303Y-34712200D01*
X133646303Y-34712200D02*
X133551065Y-34759819D01*
X133551065Y-34759819D02*
X133360589Y-34759819D01*
X133360589Y-34759819D02*
X133265351Y-34712200D01*
X134598684Y-34759819D02*
X134598684Y-34236009D01*
X134598684Y-34236009D02*
X134551065Y-34140771D01*
X134551065Y-34140771D02*
X134455827Y-34093152D01*
X134455827Y-34093152D02*
X134265351Y-34093152D01*
X134265351Y-34093152D02*
X134170113Y-34140771D01*
X134598684Y-34712200D02*
X134503446Y-34759819D01*
X134503446Y-34759819D02*
X134265351Y-34759819D01*
X134265351Y-34759819D02*
X134170113Y-34712200D01*
X134170113Y-34712200D02*
X134122494Y-34616961D01*
X134122494Y-34616961D02*
X134122494Y-34521723D01*
X134122494Y-34521723D02*
X134170113Y-34426485D01*
X134170113Y-34426485D02*
X134265351Y-34378866D01*
X134265351Y-34378866D02*
X134503446Y-34378866D01*
X134503446Y-34378866D02*
X134598684Y-34331247D01*
X135217732Y-34759819D02*
X135122494Y-34712200D01*
X135122494Y-34712200D02*
X135074875Y-34616961D01*
X135074875Y-34616961D02*
X135074875Y-33759819D01*
X136312971Y-34712200D02*
X136455828Y-34759819D01*
X136455828Y-34759819D02*
X136693923Y-34759819D01*
X136693923Y-34759819D02*
X136789161Y-34712200D01*
X136789161Y-34712200D02*
X136836780Y-34664580D01*
X136836780Y-34664580D02*
X136884399Y-34569342D01*
X136884399Y-34569342D02*
X136884399Y-34474104D01*
X136884399Y-34474104D02*
X136836780Y-34378866D01*
X136836780Y-34378866D02*
X136789161Y-34331247D01*
X136789161Y-34331247D02*
X136693923Y-34283628D01*
X136693923Y-34283628D02*
X136503447Y-34236009D01*
X136503447Y-34236009D02*
X136408209Y-34188390D01*
X136408209Y-34188390D02*
X136360590Y-34140771D01*
X136360590Y-34140771D02*
X136312971Y-34045533D01*
X136312971Y-34045533D02*
X136312971Y-33950295D01*
X136312971Y-33950295D02*
X136360590Y-33855057D01*
X136360590Y-33855057D02*
X136408209Y-33807438D01*
X136408209Y-33807438D02*
X136503447Y-33759819D01*
X136503447Y-33759819D02*
X136741542Y-33759819D01*
X136741542Y-33759819D02*
X136884399Y-33807438D01*
X137741542Y-34712200D02*
X137646304Y-34759819D01*
X137646304Y-34759819D02*
X137455828Y-34759819D01*
X137455828Y-34759819D02*
X137360590Y-34712200D01*
X137360590Y-34712200D02*
X137312971Y-34664580D01*
X137312971Y-34664580D02*
X137265352Y-34569342D01*
X137265352Y-34569342D02*
X137265352Y-34283628D01*
X137265352Y-34283628D02*
X137312971Y-34188390D01*
X137312971Y-34188390D02*
X137360590Y-34140771D01*
X137360590Y-34140771D02*
X137455828Y-34093152D01*
X137455828Y-34093152D02*
X137646304Y-34093152D01*
X137646304Y-34093152D02*
X137741542Y-34140771D01*
X138598685Y-34759819D02*
X138598685Y-34236009D01*
X138598685Y-34236009D02*
X138551066Y-34140771D01*
X138551066Y-34140771D02*
X138455828Y-34093152D01*
X138455828Y-34093152D02*
X138265352Y-34093152D01*
X138265352Y-34093152D02*
X138170114Y-34140771D01*
X138598685Y-34712200D02*
X138503447Y-34759819D01*
X138503447Y-34759819D02*
X138265352Y-34759819D01*
X138265352Y-34759819D02*
X138170114Y-34712200D01*
X138170114Y-34712200D02*
X138122495Y-34616961D01*
X138122495Y-34616961D02*
X138122495Y-34521723D01*
X138122495Y-34521723D02*
X138170114Y-34426485D01*
X138170114Y-34426485D02*
X138265352Y-34378866D01*
X138265352Y-34378866D02*
X138503447Y-34378866D01*
X138503447Y-34378866D02*
X138598685Y-34331247D01*
X138979638Y-34093152D02*
X139217733Y-34759819D01*
X139217733Y-34759819D02*
X139455828Y-34093152D01*
X140217733Y-34712200D02*
X140122495Y-34759819D01*
X140122495Y-34759819D02*
X139932019Y-34759819D01*
X139932019Y-34759819D02*
X139836781Y-34712200D01*
X139836781Y-34712200D02*
X139789162Y-34616961D01*
X139789162Y-34616961D02*
X139789162Y-34236009D01*
X139789162Y-34236009D02*
X139836781Y-34140771D01*
X139836781Y-34140771D02*
X139932019Y-34093152D01*
X139932019Y-34093152D02*
X140122495Y-34093152D01*
X140122495Y-34093152D02*
X140217733Y-34140771D01*
X140217733Y-34140771D02*
X140265352Y-34236009D01*
X140265352Y-34236009D02*
X140265352Y-34331247D01*
X140265352Y-34331247D02*
X139789162Y-34426485D01*
X140693924Y-34093152D02*
X140693924Y-34759819D01*
X140693924Y-34188390D02*
X140741543Y-34140771D01*
X140741543Y-34140771D02*
X140836781Y-34093152D01*
X140836781Y-34093152D02*
X140979638Y-34093152D01*
X140979638Y-34093152D02*
X141074876Y-34140771D01*
X141074876Y-34140771D02*
X141122495Y-34236009D01*
X141122495Y-34236009D02*
X141122495Y-34759819D01*
X142027257Y-34093152D02*
X142027257Y-34902676D01*
X142027257Y-34902676D02*
X141979638Y-34997914D01*
X141979638Y-34997914D02*
X141932019Y-35045533D01*
X141932019Y-35045533D02*
X141836781Y-35093152D01*
X141836781Y-35093152D02*
X141693924Y-35093152D01*
X141693924Y-35093152D02*
X141598686Y-35045533D01*
X142027257Y-34712200D02*
X141932019Y-34759819D01*
X141932019Y-34759819D02*
X141741543Y-34759819D01*
X141741543Y-34759819D02*
X141646305Y-34712200D01*
X141646305Y-34712200D02*
X141598686Y-34664580D01*
X141598686Y-34664580D02*
X141551067Y-34569342D01*
X141551067Y-34569342D02*
X141551067Y-34283628D01*
X141551067Y-34283628D02*
X141598686Y-34188390D01*
X141598686Y-34188390D02*
X141646305Y-34140771D01*
X141646305Y-34140771D02*
X141741543Y-34093152D01*
X141741543Y-34093152D02*
X141932019Y-34093152D01*
X141932019Y-34093152D02*
X142027257Y-34140771D01*
X142884400Y-34712200D02*
X142789162Y-34759819D01*
X142789162Y-34759819D02*
X142598686Y-34759819D01*
X142598686Y-34759819D02*
X142503448Y-34712200D01*
X142503448Y-34712200D02*
X142455829Y-34616961D01*
X142455829Y-34616961D02*
X142455829Y-34236009D01*
X142455829Y-34236009D02*
X142503448Y-34140771D01*
X142503448Y-34140771D02*
X142598686Y-34093152D01*
X142598686Y-34093152D02*
X142789162Y-34093152D01*
X142789162Y-34093152D02*
X142884400Y-34140771D01*
X142884400Y-34140771D02*
X142932019Y-34236009D01*
X142932019Y-34236009D02*
X142932019Y-34331247D01*
X142932019Y-34331247D02*
X142455829Y-34426485D01*
X143360591Y-34759819D02*
X143360591Y-34093152D01*
X143360591Y-34283628D02*
X143408210Y-34188390D01*
X143408210Y-34188390D02*
X143455829Y-34140771D01*
X143455829Y-34140771D02*
X143551067Y-34093152D01*
X143551067Y-34093152D02*
X143646305Y-34093152D01*
X144741544Y-34759819D02*
X144741544Y-33759819D01*
X144741544Y-34236009D02*
X145312972Y-34236009D01*
X145312972Y-34759819D02*
X145312972Y-33759819D01*
X146217734Y-34093152D02*
X146217734Y-34759819D01*
X145789163Y-34093152D02*
X145789163Y-34616961D01*
X145789163Y-34616961D02*
X145836782Y-34712200D01*
X145836782Y-34712200D02*
X145932020Y-34759819D01*
X145932020Y-34759819D02*
X146074877Y-34759819D01*
X146074877Y-34759819D02*
X146170115Y-34712200D01*
X146170115Y-34712200D02*
X146217734Y-34664580D01*
X146693925Y-34093152D02*
X146693925Y-34759819D01*
X146693925Y-34188390D02*
X146741544Y-34140771D01*
X146741544Y-34140771D02*
X146836782Y-34093152D01*
X146836782Y-34093152D02*
X146979639Y-34093152D01*
X146979639Y-34093152D02*
X147074877Y-34140771D01*
X147074877Y-34140771D02*
X147122496Y-34236009D01*
X147122496Y-34236009D02*
X147122496Y-34759819D01*
X147455830Y-34093152D02*
X147836782Y-34093152D01*
X147598687Y-33759819D02*
X147598687Y-34616961D01*
X147598687Y-34616961D02*
X147646306Y-34712200D01*
X147646306Y-34712200D02*
X147741544Y-34759819D01*
X147741544Y-34759819D02*
X147836782Y-34759819D01*
X148932021Y-34759819D02*
X148932021Y-33759819D01*
X148932021Y-33759819D02*
X149312973Y-33759819D01*
X149312973Y-33759819D02*
X149408211Y-33807438D01*
X149408211Y-33807438D02*
X149455830Y-33855057D01*
X149455830Y-33855057D02*
X149503449Y-33950295D01*
X149503449Y-33950295D02*
X149503449Y-34093152D01*
X149503449Y-34093152D02*
X149455830Y-34188390D01*
X149455830Y-34188390D02*
X149408211Y-34236009D01*
X149408211Y-34236009D02*
X149312973Y-34283628D01*
X149312973Y-34283628D02*
X148932021Y-34283628D01*
X150074878Y-34759819D02*
X149979640Y-34712200D01*
X149979640Y-34712200D02*
X149932021Y-34664580D01*
X149932021Y-34664580D02*
X149884402Y-34569342D01*
X149884402Y-34569342D02*
X149884402Y-34283628D01*
X149884402Y-34283628D02*
X149932021Y-34188390D01*
X149932021Y-34188390D02*
X149979640Y-34140771D01*
X149979640Y-34140771D02*
X150074878Y-34093152D01*
X150074878Y-34093152D02*
X150217735Y-34093152D01*
X150217735Y-34093152D02*
X150312973Y-34140771D01*
X150312973Y-34140771D02*
X150360592Y-34188390D01*
X150360592Y-34188390D02*
X150408211Y-34283628D01*
X150408211Y-34283628D02*
X150408211Y-34569342D01*
X150408211Y-34569342D02*
X150360592Y-34664580D01*
X150360592Y-34664580D02*
X150312973Y-34712200D01*
X150312973Y-34712200D02*
X150217735Y-34759819D01*
X150217735Y-34759819D02*
X150074878Y-34759819D01*
X150789164Y-34712200D02*
X150884402Y-34759819D01*
X150884402Y-34759819D02*
X151074878Y-34759819D01*
X151074878Y-34759819D02*
X151170116Y-34712200D01*
X151170116Y-34712200D02*
X151217735Y-34616961D01*
X151217735Y-34616961D02*
X151217735Y-34569342D01*
X151217735Y-34569342D02*
X151170116Y-34474104D01*
X151170116Y-34474104D02*
X151074878Y-34426485D01*
X151074878Y-34426485D02*
X150932021Y-34426485D01*
X150932021Y-34426485D02*
X150836783Y-34378866D01*
X150836783Y-34378866D02*
X150789164Y-34283628D01*
X150789164Y-34283628D02*
X150789164Y-34236009D01*
X150789164Y-34236009D02*
X150836783Y-34140771D01*
X150836783Y-34140771D02*
X150932021Y-34093152D01*
X150932021Y-34093152D02*
X151074878Y-34093152D01*
X151074878Y-34093152D02*
X151170116Y-34140771D01*
X151646307Y-34759819D02*
X151646307Y-34093152D01*
X151646307Y-33759819D02*
X151598688Y-33807438D01*
X151598688Y-33807438D02*
X151646307Y-33855057D01*
X151646307Y-33855057D02*
X151693926Y-33807438D01*
X151693926Y-33807438D02*
X151646307Y-33759819D01*
X151646307Y-33759819D02*
X151646307Y-33855057D01*
X151979640Y-34093152D02*
X152360592Y-34093152D01*
X152122497Y-33759819D02*
X152122497Y-34616961D01*
X152122497Y-34616961D02*
X152170116Y-34712200D01*
X152170116Y-34712200D02*
X152265354Y-34759819D01*
X152265354Y-34759819D02*
X152360592Y-34759819D01*
X152693926Y-34759819D02*
X152693926Y-34093152D01*
X152693926Y-33759819D02*
X152646307Y-33807438D01*
X152646307Y-33807438D02*
X152693926Y-33855057D01*
X152693926Y-33855057D02*
X152741545Y-33807438D01*
X152741545Y-33807438D02*
X152693926Y-33759819D01*
X152693926Y-33759819D02*
X152693926Y-33855057D01*
X153312973Y-34759819D02*
X153217735Y-34712200D01*
X153217735Y-34712200D02*
X153170116Y-34664580D01*
X153170116Y-34664580D02*
X153122497Y-34569342D01*
X153122497Y-34569342D02*
X153122497Y-34283628D01*
X153122497Y-34283628D02*
X153170116Y-34188390D01*
X153170116Y-34188390D02*
X153217735Y-34140771D01*
X153217735Y-34140771D02*
X153312973Y-34093152D01*
X153312973Y-34093152D02*
X153455830Y-34093152D01*
X153455830Y-34093152D02*
X153551068Y-34140771D01*
X153551068Y-34140771D02*
X153598687Y-34188390D01*
X153598687Y-34188390D02*
X153646306Y-34283628D01*
X153646306Y-34283628D02*
X153646306Y-34569342D01*
X153646306Y-34569342D02*
X153598687Y-34664580D01*
X153598687Y-34664580D02*
X153551068Y-34712200D01*
X153551068Y-34712200D02*
X153455830Y-34759819D01*
X153455830Y-34759819D02*
X153312973Y-34759819D01*
X154074878Y-34093152D02*
X154074878Y-34759819D01*
X154074878Y-34188390D02*
X154122497Y-34140771D01*
X154122497Y-34140771D02*
X154217735Y-34093152D01*
X154217735Y-34093152D02*
X154360592Y-34093152D01*
X154360592Y-34093152D02*
X154455830Y-34140771D01*
X154455830Y-34140771D02*
X154503449Y-34236009D01*
X154503449Y-34236009D02*
X154503449Y-34759819D01*
X154979640Y-34759819D02*
X154979640Y-34093152D01*
X154979640Y-33759819D02*
X154932021Y-33807438D01*
X154932021Y-33807438D02*
X154979640Y-33855057D01*
X154979640Y-33855057D02*
X155027259Y-33807438D01*
X155027259Y-33807438D02*
X154979640Y-33759819D01*
X154979640Y-33759819D02*
X154979640Y-33855057D01*
X155455830Y-34093152D02*
X155455830Y-34759819D01*
X155455830Y-34188390D02*
X155503449Y-34140771D01*
X155503449Y-34140771D02*
X155598687Y-34093152D01*
X155598687Y-34093152D02*
X155741544Y-34093152D01*
X155741544Y-34093152D02*
X155836782Y-34140771D01*
X155836782Y-34140771D02*
X155884401Y-34236009D01*
X155884401Y-34236009D02*
X155884401Y-34759819D01*
X156789163Y-34093152D02*
X156789163Y-34902676D01*
X156789163Y-34902676D02*
X156741544Y-34997914D01*
X156741544Y-34997914D02*
X156693925Y-35045533D01*
X156693925Y-35045533D02*
X156598687Y-35093152D01*
X156598687Y-35093152D02*
X156455830Y-35093152D01*
X156455830Y-35093152D02*
X156360592Y-35045533D01*
X156789163Y-34712200D02*
X156693925Y-34759819D01*
X156693925Y-34759819D02*
X156503449Y-34759819D01*
X156503449Y-34759819D02*
X156408211Y-34712200D01*
X156408211Y-34712200D02*
X156360592Y-34664580D01*
X156360592Y-34664580D02*
X156312973Y-34569342D01*
X156312973Y-34569342D02*
X156312973Y-34283628D01*
X156312973Y-34283628D02*
X156360592Y-34188390D01*
X156360592Y-34188390D02*
X156408211Y-34140771D01*
X156408211Y-34140771D02*
X156503449Y-34093152D01*
X156503449Y-34093152D02*
X156693925Y-34093152D01*
X156693925Y-34093152D02*
X156789163Y-34140771D01*
X157979640Y-34712200D02*
X158122497Y-34759819D01*
X158122497Y-34759819D02*
X158360592Y-34759819D01*
X158360592Y-34759819D02*
X158455830Y-34712200D01*
X158455830Y-34712200D02*
X158503449Y-34664580D01*
X158503449Y-34664580D02*
X158551068Y-34569342D01*
X158551068Y-34569342D02*
X158551068Y-34474104D01*
X158551068Y-34474104D02*
X158503449Y-34378866D01*
X158503449Y-34378866D02*
X158455830Y-34331247D01*
X158455830Y-34331247D02*
X158360592Y-34283628D01*
X158360592Y-34283628D02*
X158170116Y-34236009D01*
X158170116Y-34236009D02*
X158074878Y-34188390D01*
X158074878Y-34188390D02*
X158027259Y-34140771D01*
X158027259Y-34140771D02*
X157979640Y-34045533D01*
X157979640Y-34045533D02*
X157979640Y-33950295D01*
X157979640Y-33950295D02*
X158027259Y-33855057D01*
X158027259Y-33855057D02*
X158074878Y-33807438D01*
X158074878Y-33807438D02*
X158170116Y-33759819D01*
X158170116Y-33759819D02*
X158408211Y-33759819D01*
X158408211Y-33759819D02*
X158551068Y-33807438D01*
X158884402Y-34093152D02*
X159122497Y-34759819D01*
X159360592Y-34093152D02*
X159122497Y-34759819D01*
X159122497Y-34759819D02*
X159027259Y-34997914D01*
X159027259Y-34997914D02*
X158979640Y-35045533D01*
X158979640Y-35045533D02*
X158884402Y-35093152D01*
X159693926Y-34712200D02*
X159789164Y-34759819D01*
X159789164Y-34759819D02*
X159979640Y-34759819D01*
X159979640Y-34759819D02*
X160074878Y-34712200D01*
X160074878Y-34712200D02*
X160122497Y-34616961D01*
X160122497Y-34616961D02*
X160122497Y-34569342D01*
X160122497Y-34569342D02*
X160074878Y-34474104D01*
X160074878Y-34474104D02*
X159979640Y-34426485D01*
X159979640Y-34426485D02*
X159836783Y-34426485D01*
X159836783Y-34426485D02*
X159741545Y-34378866D01*
X159741545Y-34378866D02*
X159693926Y-34283628D01*
X159693926Y-34283628D02*
X159693926Y-34236009D01*
X159693926Y-34236009D02*
X159741545Y-34140771D01*
X159741545Y-34140771D02*
X159836783Y-34093152D01*
X159836783Y-34093152D02*
X159979640Y-34093152D01*
X159979640Y-34093152D02*
X160074878Y-34140771D01*
X160408212Y-34093152D02*
X160789164Y-34093152D01*
X160551069Y-33759819D02*
X160551069Y-34616961D01*
X160551069Y-34616961D02*
X160598688Y-34712200D01*
X160598688Y-34712200D02*
X160693926Y-34759819D01*
X160693926Y-34759819D02*
X160789164Y-34759819D01*
X161503450Y-34712200D02*
X161408212Y-34759819D01*
X161408212Y-34759819D02*
X161217736Y-34759819D01*
X161217736Y-34759819D02*
X161122498Y-34712200D01*
X161122498Y-34712200D02*
X161074879Y-34616961D01*
X161074879Y-34616961D02*
X161074879Y-34236009D01*
X161074879Y-34236009D02*
X161122498Y-34140771D01*
X161122498Y-34140771D02*
X161217736Y-34093152D01*
X161217736Y-34093152D02*
X161408212Y-34093152D01*
X161408212Y-34093152D02*
X161503450Y-34140771D01*
X161503450Y-34140771D02*
X161551069Y-34236009D01*
X161551069Y-34236009D02*
X161551069Y-34331247D01*
X161551069Y-34331247D02*
X161074879Y-34426485D01*
X161979641Y-34759819D02*
X161979641Y-34093152D01*
X161979641Y-34188390D02*
X162027260Y-34140771D01*
X162027260Y-34140771D02*
X162122498Y-34093152D01*
X162122498Y-34093152D02*
X162265355Y-34093152D01*
X162265355Y-34093152D02*
X162360593Y-34140771D01*
X162360593Y-34140771D02*
X162408212Y-34236009D01*
X162408212Y-34236009D02*
X162408212Y-34759819D01*
X162408212Y-34236009D02*
X162455831Y-34140771D01*
X162455831Y-34140771D02*
X162551069Y-34093152D01*
X162551069Y-34093152D02*
X162693926Y-34093152D01*
X162693926Y-34093152D02*
X162789165Y-34140771D01*
X162789165Y-34140771D02*
X162836784Y-34236009D01*
X162836784Y-34236009D02*
X162836784Y-34759819D01*
X130836779Y-35703152D02*
X130836779Y-36703152D01*
X130836779Y-35750771D02*
X130932017Y-35703152D01*
X130932017Y-35703152D02*
X131122493Y-35703152D01*
X131122493Y-35703152D02*
X131217731Y-35750771D01*
X131217731Y-35750771D02*
X131265350Y-35798390D01*
X131265350Y-35798390D02*
X131312969Y-35893628D01*
X131312969Y-35893628D02*
X131312969Y-36179342D01*
X131312969Y-36179342D02*
X131265350Y-36274580D01*
X131265350Y-36274580D02*
X131217731Y-36322200D01*
X131217731Y-36322200D02*
X131122493Y-36369819D01*
X131122493Y-36369819D02*
X130932017Y-36369819D01*
X130932017Y-36369819D02*
X130836779Y-36322200D01*
X132170112Y-36369819D02*
X132170112Y-35846009D01*
X132170112Y-35846009D02*
X132122493Y-35750771D01*
X132122493Y-35750771D02*
X132027255Y-35703152D01*
X132027255Y-35703152D02*
X131836779Y-35703152D01*
X131836779Y-35703152D02*
X131741541Y-35750771D01*
X132170112Y-36322200D02*
X132074874Y-36369819D01*
X132074874Y-36369819D02*
X131836779Y-36369819D01*
X131836779Y-36369819D02*
X131741541Y-36322200D01*
X131741541Y-36322200D02*
X131693922Y-36226961D01*
X131693922Y-36226961D02*
X131693922Y-36131723D01*
X131693922Y-36131723D02*
X131741541Y-36036485D01*
X131741541Y-36036485D02*
X131836779Y-35988866D01*
X131836779Y-35988866D02*
X132074874Y-35988866D01*
X132074874Y-35988866D02*
X132170112Y-35941247D01*
X132646303Y-35703152D02*
X132646303Y-36369819D01*
X132646303Y-35798390D02*
X132693922Y-35750771D01*
X132693922Y-35750771D02*
X132789160Y-35703152D01*
X132789160Y-35703152D02*
X132932017Y-35703152D01*
X132932017Y-35703152D02*
X133027255Y-35750771D01*
X133027255Y-35750771D02*
X133074874Y-35846009D01*
X133074874Y-35846009D02*
X133074874Y-36369819D01*
X133408208Y-35703152D02*
X133789160Y-35703152D01*
X133551065Y-35369819D02*
X133551065Y-36226961D01*
X133551065Y-36226961D02*
X133598684Y-36322200D01*
X133598684Y-36322200D02*
X133693922Y-36369819D01*
X133693922Y-36369819D02*
X133789160Y-36369819D01*
X134074875Y-36322200D02*
X134170113Y-36369819D01*
X134170113Y-36369819D02*
X134360589Y-36369819D01*
X134360589Y-36369819D02*
X134455827Y-36322200D01*
X134455827Y-36322200D02*
X134503446Y-36226961D01*
X134503446Y-36226961D02*
X134503446Y-36179342D01*
X134503446Y-36179342D02*
X134455827Y-36084104D01*
X134455827Y-36084104D02*
X134360589Y-36036485D01*
X134360589Y-36036485D02*
X134217732Y-36036485D01*
X134217732Y-36036485D02*
X134122494Y-35988866D01*
X134122494Y-35988866D02*
X134074875Y-35893628D01*
X134074875Y-35893628D02*
X134074875Y-35846009D01*
X134074875Y-35846009D02*
X134122494Y-35750771D01*
X134122494Y-35750771D02*
X134217732Y-35703152D01*
X134217732Y-35703152D02*
X134360589Y-35703152D01*
X134360589Y-35703152D02*
X134455827Y-35750771D01*
X134789161Y-35703152D02*
X135170113Y-35703152D01*
X134932018Y-36369819D02*
X134932018Y-35512676D01*
X134932018Y-35512676D02*
X134979637Y-35417438D01*
X134979637Y-35417438D02*
X135074875Y-35369819D01*
X135074875Y-35369819D02*
X135170113Y-35369819D01*
X135646304Y-36369819D02*
X135551066Y-36322200D01*
X135551066Y-36322200D02*
X135503447Y-36274580D01*
X135503447Y-36274580D02*
X135455828Y-36179342D01*
X135455828Y-36179342D02*
X135455828Y-35893628D01*
X135455828Y-35893628D02*
X135503447Y-35798390D01*
X135503447Y-35798390D02*
X135551066Y-35750771D01*
X135551066Y-35750771D02*
X135646304Y-35703152D01*
X135646304Y-35703152D02*
X135789161Y-35703152D01*
X135789161Y-35703152D02*
X135884399Y-35750771D01*
X135884399Y-35750771D02*
X135932018Y-35798390D01*
X135932018Y-35798390D02*
X135979637Y-35893628D01*
X135979637Y-35893628D02*
X135979637Y-36179342D01*
X135979637Y-36179342D02*
X135932018Y-36274580D01*
X135932018Y-36274580D02*
X135884399Y-36322200D01*
X135884399Y-36322200D02*
X135789161Y-36369819D01*
X135789161Y-36369819D02*
X135646304Y-36369819D01*
X136408209Y-36369819D02*
X136408209Y-35703152D01*
X136408209Y-35893628D02*
X136455828Y-35798390D01*
X136455828Y-35798390D02*
X136503447Y-35750771D01*
X136503447Y-35750771D02*
X136598685Y-35703152D01*
X136598685Y-35703152D02*
X136693923Y-35703152D01*
X137027257Y-36369819D02*
X137027257Y-35369819D01*
X137027257Y-35750771D02*
X137122495Y-35703152D01*
X137122495Y-35703152D02*
X137312971Y-35703152D01*
X137312971Y-35703152D02*
X137408209Y-35750771D01*
X137408209Y-35750771D02*
X137455828Y-35798390D01*
X137455828Y-35798390D02*
X137503447Y-35893628D01*
X137503447Y-35893628D02*
X137503447Y-36179342D01*
X137503447Y-36179342D02*
X137455828Y-36274580D01*
X137455828Y-36274580D02*
X137408209Y-36322200D01*
X137408209Y-36322200D02*
X137312971Y-36369819D01*
X137312971Y-36369819D02*
X137122495Y-36369819D01*
X137122495Y-36369819D02*
X137027257Y-36322200D01*
X137932019Y-36369819D02*
X137932019Y-35703152D01*
X137932019Y-35369819D02*
X137884400Y-35417438D01*
X137884400Y-35417438D02*
X137932019Y-35465057D01*
X137932019Y-35465057D02*
X137979638Y-35417438D01*
X137979638Y-35417438D02*
X137932019Y-35369819D01*
X137932019Y-35369819D02*
X137932019Y-35465057D01*
X138408209Y-36369819D02*
X138408209Y-35703152D01*
X138408209Y-35893628D02*
X138455828Y-35798390D01*
X138455828Y-35798390D02*
X138503447Y-35750771D01*
X138503447Y-35750771D02*
X138598685Y-35703152D01*
X138598685Y-35703152D02*
X138693923Y-35703152D01*
X139455828Y-36369819D02*
X139455828Y-35369819D01*
X139455828Y-36322200D02*
X139360590Y-36369819D01*
X139360590Y-36369819D02*
X139170114Y-36369819D01*
X139170114Y-36369819D02*
X139074876Y-36322200D01*
X139074876Y-36322200D02*
X139027257Y-36274580D01*
X139027257Y-36274580D02*
X138979638Y-36179342D01*
X138979638Y-36179342D02*
X138979638Y-35893628D01*
X138979638Y-35893628D02*
X139027257Y-35798390D01*
X139027257Y-35798390D02*
X139074876Y-35750771D01*
X139074876Y-35750771D02*
X139170114Y-35703152D01*
X139170114Y-35703152D02*
X139360590Y-35703152D01*
X139360590Y-35703152D02*
X139455828Y-35750771D01*
X139884400Y-36322200D02*
X139979638Y-36369819D01*
X139979638Y-36369819D02*
X140170114Y-36369819D01*
X140170114Y-36369819D02*
X140265352Y-36322200D01*
X140265352Y-36322200D02*
X140312971Y-36226961D01*
X140312971Y-36226961D02*
X140312971Y-36179342D01*
X140312971Y-36179342D02*
X140265352Y-36084104D01*
X140265352Y-36084104D02*
X140170114Y-36036485D01*
X140170114Y-36036485D02*
X140027257Y-36036485D01*
X140027257Y-36036485D02*
X139932019Y-35988866D01*
X139932019Y-35988866D02*
X139884400Y-35893628D01*
X139884400Y-35893628D02*
X139884400Y-35846009D01*
X139884400Y-35846009D02*
X139932019Y-35750771D01*
X139932019Y-35750771D02*
X140027257Y-35703152D01*
X140027257Y-35703152D02*
X140170114Y-35703152D01*
X140170114Y-35703152D02*
X140265352Y-35750771D01*
X140741543Y-36274580D02*
X140789162Y-36322200D01*
X140789162Y-36322200D02*
X140741543Y-36369819D01*
X140741543Y-36369819D02*
X140693924Y-36322200D01*
X140693924Y-36322200D02*
X140741543Y-36274580D01*
X140741543Y-36274580D02*
X140741543Y-36369819D01*
X141646304Y-36322200D02*
X141551066Y-36369819D01*
X141551066Y-36369819D02*
X141360590Y-36369819D01*
X141360590Y-36369819D02*
X141265352Y-36322200D01*
X141265352Y-36322200D02*
X141217733Y-36274580D01*
X141217733Y-36274580D02*
X141170114Y-36179342D01*
X141170114Y-36179342D02*
X141170114Y-35893628D01*
X141170114Y-35893628D02*
X141217733Y-35798390D01*
X141217733Y-35798390D02*
X141265352Y-35750771D01*
X141265352Y-35750771D02*
X141360590Y-35703152D01*
X141360590Y-35703152D02*
X141551066Y-35703152D01*
X141551066Y-35703152D02*
X141646304Y-35750771D01*
X142217733Y-36369819D02*
X142122495Y-36322200D01*
X142122495Y-36322200D02*
X142074876Y-36274580D01*
X142074876Y-36274580D02*
X142027257Y-36179342D01*
X142027257Y-36179342D02*
X142027257Y-35893628D01*
X142027257Y-35893628D02*
X142074876Y-35798390D01*
X142074876Y-35798390D02*
X142122495Y-35750771D01*
X142122495Y-35750771D02*
X142217733Y-35703152D01*
X142217733Y-35703152D02*
X142360590Y-35703152D01*
X142360590Y-35703152D02*
X142455828Y-35750771D01*
X142455828Y-35750771D02*
X142503447Y-35798390D01*
X142503447Y-35798390D02*
X142551066Y-35893628D01*
X142551066Y-35893628D02*
X142551066Y-36179342D01*
X142551066Y-36179342D02*
X142503447Y-36274580D01*
X142503447Y-36274580D02*
X142455828Y-36322200D01*
X142455828Y-36322200D02*
X142360590Y-36369819D01*
X142360590Y-36369819D02*
X142217733Y-36369819D01*
X142979638Y-36369819D02*
X142979638Y-35703152D01*
X142979638Y-35798390D02*
X143027257Y-35750771D01*
X143027257Y-35750771D02*
X143122495Y-35703152D01*
X143122495Y-35703152D02*
X143265352Y-35703152D01*
X143265352Y-35703152D02*
X143360590Y-35750771D01*
X143360590Y-35750771D02*
X143408209Y-35846009D01*
X143408209Y-35846009D02*
X143408209Y-36369819D01*
X143408209Y-35846009D02*
X143455828Y-35750771D01*
X143455828Y-35750771D02*
X143551066Y-35703152D01*
X143551066Y-35703152D02*
X143693923Y-35703152D01*
X143693923Y-35703152D02*
X143789162Y-35750771D01*
X143789162Y-35750771D02*
X143836781Y-35846009D01*
X143836781Y-35846009D02*
X143836781Y-36369819D01*
D12*
G36*
X182373788Y-39481504D02*
G01*
X182175083Y-39481504D01*
X182274435Y-39183446D01*
X182373788Y-39481504D01*
G37*
G36*
X185517292Y-40110076D02*
G01*
X180079197Y-40110076D01*
X180079197Y-39152933D01*
X180222054Y-39152933D01*
X180229177Y-39174856D01*
X180232611Y-39197654D01*
X180280230Y-39292892D01*
X180291603Y-39304439D01*
X180298962Y-39318882D01*
X180346581Y-39366500D01*
X180361022Y-39373858D01*
X180372571Y-39385233D01*
X180467808Y-39432852D01*
X180478829Y-39434512D01*
X180488276Y-39440423D01*
X180668101Y-39485379D01*
X180739008Y-39520833D01*
X180763677Y-39545501D01*
X180793482Y-39605110D01*
X180793482Y-39653135D01*
X180763677Y-39712743D01*
X180739008Y-39737413D01*
X180679399Y-39767219D01*
X180481137Y-39767219D01*
X180353677Y-39724732D01*
X180291875Y-39724262D01*
X180241601Y-39760209D01*
X180222056Y-39818841D01*
X180240708Y-39877763D01*
X180290431Y-39914468D01*
X180433288Y-39962087D01*
X180449495Y-39962210D01*
X180464911Y-39967219D01*
X180703006Y-39967219D01*
X180724929Y-39960095D01*
X180747727Y-39956662D01*
X180842965Y-39909043D01*
X180854513Y-39897668D01*
X180868955Y-39890310D01*
X180916574Y-39842690D01*
X180923931Y-39828249D01*
X180935306Y-39816701D01*
X180982925Y-39721464D01*
X180986358Y-39698665D01*
X180993482Y-39676742D01*
X180993482Y-39581504D01*
X180986358Y-39559580D01*
X180982925Y-39536782D01*
X180935306Y-39441545D01*
X180923931Y-39429996D01*
X180916573Y-39415555D01*
X180868955Y-39367936D01*
X180854512Y-39360577D01*
X180842965Y-39349204D01*
X180747727Y-39301585D01*
X180736705Y-39299924D01*
X180727259Y-39294014D01*
X180547434Y-39249057D01*
X180476527Y-39213604D01*
X180451859Y-39188935D01*
X180422054Y-39129325D01*
X180422054Y-39081302D01*
X180451859Y-39021692D01*
X180476527Y-38997023D01*
X180536137Y-38967219D01*
X180734398Y-38967219D01*
X180861859Y-39009706D01*
X180923661Y-39010176D01*
X180973935Y-38974229D01*
X180993479Y-38915597D01*
X180987947Y-38898121D01*
X181084091Y-38898121D01*
X181120418Y-38948121D01*
X181179197Y-38967219D01*
X181364911Y-38967219D01*
X181364911Y-39867219D01*
X181384009Y-39925998D01*
X181434009Y-39962325D01*
X181495813Y-39962325D01*
X181545813Y-39925998D01*
X181555105Y-39897398D01*
X181845764Y-39897398D01*
X181881711Y-39947672D01*
X181940343Y-39967217D01*
X181999265Y-39948565D01*
X182035970Y-39898842D01*
X182108416Y-39681504D01*
X182440454Y-39681504D01*
X182512900Y-39898841D01*
X182549605Y-39948565D01*
X182608527Y-39967216D01*
X182667159Y-39947672D01*
X182703106Y-39897398D01*
X182702636Y-39835596D01*
X182390145Y-38898121D01*
X182703139Y-38898121D01*
X182739466Y-38948121D01*
X182798245Y-38967219D01*
X182983959Y-38967219D01*
X182983959Y-39867219D01*
X183003057Y-39925998D01*
X183053057Y-39962325D01*
X183114861Y-39962325D01*
X183164861Y-39925998D01*
X183183959Y-39867219D01*
X183183959Y-39676742D01*
X183603007Y-39676742D01*
X183610130Y-39698665D01*
X183613564Y-39721463D01*
X183661183Y-39816701D01*
X183672556Y-39828248D01*
X183679915Y-39842690D01*
X183727533Y-39890310D01*
X183741976Y-39897669D01*
X183753524Y-39909043D01*
X183848761Y-39956662D01*
X183871559Y-39960095D01*
X183893483Y-39967219D01*
X184083959Y-39967219D01*
X184105882Y-39960095D01*
X184128680Y-39956662D01*
X184223918Y-39909043D01*
X184235466Y-39897668D01*
X184249908Y-39890310D01*
X184297527Y-39842690D01*
X184304884Y-39828249D01*
X184316259Y-39816701D01*
X184363878Y-39721464D01*
X184367311Y-39698665D01*
X184374435Y-39676742D01*
X184374435Y-39152933D01*
X184603007Y-39152933D01*
X184610130Y-39174856D01*
X184613564Y-39197654D01*
X184661183Y-39292892D01*
X184672556Y-39304439D01*
X184679915Y-39318882D01*
X184727534Y-39366500D01*
X184741975Y-39373858D01*
X184753524Y-39385233D01*
X184848761Y-39432852D01*
X184859782Y-39434512D01*
X184869229Y-39440423D01*
X185049054Y-39485379D01*
X185119961Y-39520833D01*
X185144630Y-39545501D01*
X185174435Y-39605110D01*
X185174435Y-39653135D01*
X185144630Y-39712743D01*
X185119961Y-39737413D01*
X185060352Y-39767219D01*
X184862090Y-39767219D01*
X184734630Y-39724732D01*
X184672828Y-39724262D01*
X184622554Y-39760209D01*
X184603009Y-39818841D01*
X184621661Y-39877763D01*
X184671384Y-39914468D01*
X184814241Y-39962087D01*
X184830448Y-39962210D01*
X184845864Y-39967219D01*
X185083959Y-39967219D01*
X185105882Y-39960095D01*
X185128680Y-39956662D01*
X185223918Y-39909043D01*
X185235466Y-39897668D01*
X185249908Y-39890310D01*
X185297527Y-39842690D01*
X185304884Y-39828249D01*
X185316259Y-39816701D01*
X185363878Y-39721464D01*
X185367311Y-39698665D01*
X185374435Y-39676742D01*
X185374435Y-39581504D01*
X185367311Y-39559580D01*
X185363878Y-39536782D01*
X185316259Y-39441545D01*
X185304884Y-39429996D01*
X185297526Y-39415555D01*
X185249908Y-39367936D01*
X185235465Y-39360577D01*
X185223918Y-39349204D01*
X185128680Y-39301585D01*
X185117658Y-39299924D01*
X185108212Y-39294014D01*
X184928387Y-39249057D01*
X184857480Y-39213604D01*
X184832812Y-39188935D01*
X184803007Y-39129325D01*
X184803007Y-39081302D01*
X184832812Y-39021692D01*
X184857480Y-38997023D01*
X184917090Y-38967219D01*
X185115351Y-38967219D01*
X185242812Y-39009706D01*
X185304614Y-39010176D01*
X185354888Y-38974229D01*
X185374432Y-38915597D01*
X185355781Y-38856675D01*
X185306057Y-38819970D01*
X185163201Y-38772351D01*
X185146993Y-38772227D01*
X185131578Y-38767219D01*
X184893483Y-38767219D01*
X184871559Y-38774342D01*
X184848761Y-38777776D01*
X184753524Y-38825395D01*
X184741975Y-38836769D01*
X184727534Y-38844128D01*
X184679915Y-38891746D01*
X184672556Y-38906188D01*
X184661183Y-38917736D01*
X184613564Y-39012974D01*
X184610130Y-39035771D01*
X184603007Y-39057695D01*
X184603007Y-39152933D01*
X184374435Y-39152933D01*
X184374435Y-38867219D01*
X184355337Y-38808440D01*
X184305337Y-38772113D01*
X184243533Y-38772113D01*
X184193533Y-38808440D01*
X184174435Y-38867219D01*
X184174435Y-39653134D01*
X184144630Y-39712743D01*
X184119961Y-39737413D01*
X184060352Y-39767219D01*
X183917090Y-39767219D01*
X183857480Y-39737414D01*
X183832813Y-39712746D01*
X183803007Y-39653134D01*
X183803007Y-38867219D01*
X183783909Y-38808440D01*
X183733909Y-38772113D01*
X183672105Y-38772113D01*
X183622105Y-38808440D01*
X183603007Y-38867219D01*
X183603007Y-39676742D01*
X183183959Y-39676742D01*
X183183959Y-38967219D01*
X183369673Y-38967219D01*
X183428452Y-38948121D01*
X183464779Y-38898121D01*
X183464779Y-38836317D01*
X183428452Y-38786317D01*
X183369673Y-38767219D01*
X182798245Y-38767219D01*
X182739466Y-38786317D01*
X182703139Y-38836317D01*
X182703139Y-38898121D01*
X182390145Y-38898121D01*
X182369303Y-38835596D01*
X182351380Y-38811317D01*
X182333826Y-38786766D01*
X182333071Y-38786514D01*
X182332598Y-38785873D01*
X182303772Y-38776748D01*
X182275194Y-38767222D01*
X182274436Y-38767461D01*
X182273676Y-38767221D01*
X182245037Y-38776767D01*
X182216272Y-38785873D01*
X182215798Y-38786514D01*
X182215044Y-38786766D01*
X182197477Y-38811333D01*
X182179567Y-38835597D01*
X181846234Y-39835596D01*
X181845764Y-39897398D01*
X181555105Y-39897398D01*
X181564911Y-39867219D01*
X181564911Y-38967219D01*
X181750625Y-38967219D01*
X181809404Y-38948121D01*
X181845731Y-38898121D01*
X181845731Y-38836317D01*
X181809404Y-38786317D01*
X181750625Y-38767219D01*
X181179197Y-38767219D01*
X181120418Y-38786317D01*
X181084091Y-38836317D01*
X181084091Y-38898121D01*
X180987947Y-38898121D01*
X180974828Y-38856675D01*
X180925104Y-38819970D01*
X180782248Y-38772351D01*
X180766040Y-38772227D01*
X180750625Y-38767219D01*
X180512530Y-38767219D01*
X180490606Y-38774342D01*
X180467808Y-38777776D01*
X180372571Y-38825395D01*
X180361022Y-38836769D01*
X180346581Y-38844128D01*
X180298962Y-38891746D01*
X180291603Y-38906188D01*
X180280230Y-38917736D01*
X180232611Y-39012974D01*
X180229177Y-39035771D01*
X180222054Y-39057695D01*
X180222054Y-39152933D01*
X180079197Y-39152933D01*
X180079197Y-38624362D01*
X185517292Y-38624362D01*
X185517292Y-40110076D01*
G37*
D13*
%TO.C,C34*%
X141092164Y-63440000D02*
X141307836Y-63440000D01*
X141092164Y-64160000D02*
X141307836Y-64160000D01*
%TO.C,SW6*%
X188750000Y-69500000D02*
X188750000Y-71500000D01*
X189800000Y-68200000D02*
X190250000Y-67750000D01*
X189800000Y-72800000D02*
X190250000Y-73250000D01*
X190250000Y-67750000D02*
X192750000Y-67750000D01*
X190250000Y-73250000D02*
X192750000Y-73250000D01*
X193200000Y-68200000D02*
X192750000Y-67750000D01*
X193200000Y-72800000D02*
X192750000Y-73250000D01*
X194250000Y-69500000D02*
X194250000Y-71500000D01*
%TO.C,J2*%
X114665000Y-73670000D02*
X115165000Y-73670000D01*
X114665000Y-73670000D02*
X114665000Y-73170000D01*
X114815000Y-73520000D02*
X115715000Y-73520000D01*
X114815000Y-73520000D02*
X114815000Y-72720000D01*
X118855000Y-73520000D02*
X117955000Y-73520000D01*
X118855000Y-73520000D02*
X118855000Y-72720000D01*
X114815000Y-64980000D02*
X114815000Y-65780000D01*
X114815000Y-64980000D02*
X115715000Y-64980000D01*
X118855000Y-64980000D02*
X118855000Y-65780000D01*
X118855000Y-64980000D02*
X117955000Y-64980000D01*
%TO.C,SW5*%
X188750000Y-62500000D02*
X188750000Y-64500000D01*
X189800000Y-61200000D02*
X190250000Y-60750000D01*
X189800000Y-65800000D02*
X190250000Y-66250000D01*
X190250000Y-60750000D02*
X192750000Y-60750000D01*
X190250000Y-66250000D02*
X192750000Y-66250000D01*
X193200000Y-61200000D02*
X192750000Y-60750000D01*
X193200000Y-65800000D02*
X192750000Y-66250000D01*
X194250000Y-62500000D02*
X194250000Y-64500000D01*
%TO.C,SW4*%
X188750000Y-55500000D02*
X188750000Y-57500000D01*
X189800000Y-54200000D02*
X190250000Y-53750000D01*
X189800000Y-58800000D02*
X190250000Y-59250000D01*
X190250000Y-53750000D02*
X192750000Y-53750000D01*
X190250000Y-59250000D02*
X192750000Y-59250000D01*
X193200000Y-54200000D02*
X192750000Y-53750000D01*
X193200000Y-58800000D02*
X192750000Y-59250000D01*
X194250000Y-55500000D02*
X194250000Y-57500000D01*
%TO.C,GRAPHIC2*%
D11*
X129100200Y-37587500D02*
X127119000Y-37587500D01*
X127004700Y-36825500D01*
X128820800Y-36825500D01*
X129100200Y-37587500D01*
G36*
X129100200Y-37587500D02*
G01*
X127119000Y-37587500D01*
X127004700Y-36825500D01*
X128820800Y-36825500D01*
X129100200Y-37587500D01*
G37*
X128719200Y-36571500D02*
X126966600Y-36571500D01*
X126712600Y-34857000D01*
X126357000Y-34476000D01*
X127944500Y-34476000D01*
X128719200Y-36571500D01*
G36*
X128719200Y-36571500D02*
G01*
X126966600Y-36571500D01*
X126712600Y-34857000D01*
X126357000Y-34476000D01*
X127944500Y-34476000D01*
X128719200Y-36571500D01*
G37*
D13*
%TO.C,D1*%
X116735000Y-61015000D02*
X115265000Y-61015000D01*
X115265000Y-61015000D02*
X115265000Y-63300000D01*
X116735000Y-63300000D02*
X116735000Y-61015000D01*
%TO.C,CR1*%
X123890000Y-64350000D02*
X123890000Y-65650000D01*
X127010000Y-65650000D02*
X127010000Y-63650000D01*
%TO.C,D5*%
X183265000Y-38485000D02*
X184735000Y-38485000D01*
X184735000Y-38485000D02*
X184735000Y-36200000D01*
X183265000Y-36200000D02*
X183265000Y-38485000D01*
%TO.C,D2*%
X118335000Y-61015000D02*
X116865000Y-61015000D01*
X116865000Y-61015000D02*
X116865000Y-63300000D01*
X118335000Y-63300000D02*
X118335000Y-61015000D01*
%TO.C,GRAPHIC1*%
D11*
X123881000Y-37587500D02*
X121899800Y-37587500D01*
X122179200Y-36825500D01*
X123995300Y-36825500D01*
X123881000Y-37587500D01*
G36*
X123881000Y-37587500D02*
G01*
X121899800Y-37587500D01*
X122179200Y-36825500D01*
X123995300Y-36825500D01*
X123881000Y-37587500D01*
G37*
X124287400Y-34857000D02*
X124033400Y-36571500D01*
X122280800Y-36571500D01*
X123055500Y-34476000D01*
X124643000Y-34476000D01*
X124287400Y-34857000D01*
G36*
X124287400Y-34857000D02*
G01*
X124033400Y-36571500D01*
X122280800Y-36571500D01*
X123055500Y-34476000D01*
X124643000Y-34476000D01*
X124287400Y-34857000D01*
G37*
D13*
%TO.C,SW1*%
X184500000Y-78750000D02*
X182500000Y-78750000D01*
X185800000Y-79800000D02*
X186250000Y-80250000D01*
X181200000Y-79800000D02*
X180750000Y-80250000D01*
X186250000Y-80250000D02*
X186250000Y-82750000D01*
X180750000Y-80250000D02*
X180750000Y-82750000D01*
X185800000Y-83200000D02*
X186250000Y-82750000D01*
X181200000Y-83200000D02*
X180750000Y-82750000D01*
X184500000Y-84250000D02*
X182500000Y-84250000D01*
%TO.C,U5*%
X160500000Y-68500000D02*
X161500000Y-68500000D01*
X160500000Y-69500000D02*
X160000000Y-69500000D01*
X160500000Y-69500000D02*
X160500000Y-68500000D01*
X160500000Y-84500000D02*
X160500000Y-85500000D01*
X160500000Y-85500000D02*
X161500000Y-85500000D01*
X176500000Y-68500000D02*
X177500000Y-68500000D01*
X177500000Y-69500000D02*
X177500000Y-68500000D01*
X177500000Y-84500000D02*
X177500000Y-85500000D01*
X177500000Y-85500000D02*
X176500000Y-85500000D01*
%TD*%
M02*
