%TF.GenerationSoftware,KiCad,Pcbnew,7.0.7*%
%TF.CreationDate,2023-09-09T23:22:34-07:00*%
%TF.ProjectId,gshps,67736870-732e-46b6-9963-61645f706362,rev?*%
%TF.SameCoordinates,Original*%
%TF.FileFunction,Soldermask,Bot*%
%TF.FilePolarity,Negative*%
%FSLAX46Y46*%
G04 Gerber Fmt 4.6, Leading zero omitted, Abs format (unit mm)*
G04 Created by KiCad (PCBNEW 7.0.7) date 2023-09-09 23:22:34*
%MOMM*%
%LPD*%
G01*
G04 APERTURE LIST*
G04 Aperture macros list*
%AMRoundRect*
0 Rectangle with rounded corners*
0 $1 Rounding radius*
0 $2 $3 $4 $5 $6 $7 $8 $9 X,Y pos of 4 corners*
0 Add a 4 corners polygon primitive as box body*
4,1,4,$2,$3,$4,$5,$6,$7,$8,$9,$2,$3,0*
0 Add four circle primitives for the rounded corners*
1,1,$1+$1,$2,$3*
1,1,$1+$1,$4,$5*
1,1,$1+$1,$6,$7*
1,1,$1+$1,$8,$9*
0 Add four rect primitives between the rounded corners*
20,1,$1+$1,$2,$3,$4,$5,0*
20,1,$1+$1,$4,$5,$6,$7,0*
20,1,$1+$1,$6,$7,$8,$9,0*
20,1,$1+$1,$8,$9,$2,$3,0*%
G04 Aperture macros list end*
%ADD10C,0.300000*%
%ADD11C,5.000000*%
%ADD12C,0.660000*%
%ADD13O,0.580000X1.000000*%
%ADD14C,1.100000*%
%ADD15RoundRect,0.050000X0.387500X0.050000X-0.387500X0.050000X-0.387500X-0.050000X0.387500X-0.050000X0*%
%ADD16RoundRect,0.050000X0.050000X0.387500X-0.050000X0.387500X-0.050000X-0.387500X0.050000X-0.387500X0*%
%ADD17R,3.200000X3.200000*%
%ADD18RoundRect,0.135000X-0.185000X0.135000X-0.185000X-0.135000X0.185000X-0.135000X0.185000X0.135000X0*%
%ADD19RoundRect,0.225000X-0.225000X-0.250000X0.225000X-0.250000X0.225000X0.250000X-0.225000X0.250000X0*%
%ADD20RoundRect,0.140000X-0.140000X-0.170000X0.140000X-0.170000X0.140000X0.170000X-0.140000X0.170000X0*%
%ADD21RoundRect,0.140000X-0.170000X0.140000X-0.170000X-0.140000X0.170000X-0.140000X0.170000X0.140000X0*%
%ADD22RoundRect,0.150000X0.150000X-0.587500X0.150000X0.587500X-0.150000X0.587500X-0.150000X-0.587500X0*%
%ADD23RoundRect,0.225000X0.250000X-0.225000X0.250000X0.225000X-0.250000X0.225000X-0.250000X-0.225000X0*%
%ADD24R,0.700000X1.750000*%
%ADD25R,1.450000X1.000000*%
%ADD26R,1.000000X1.550000*%
%ADD27R,0.800000X1.500000*%
%ADD28R,1.300000X1.500000*%
%ADD29R,1.500000X1.500000*%
%ADD30R,0.800000X1.400000*%
%ADD31RoundRect,0.250000X-0.300000X-0.300000X0.300000X-0.300000X0.300000X0.300000X-0.300000X0.300000X0*%
%ADD32RoundRect,0.135000X-0.135000X-0.185000X0.135000X-0.185000X0.135000X0.185000X-0.135000X0.185000X0*%
%ADD33RoundRect,0.140000X-0.219203X-0.021213X-0.021213X-0.219203X0.219203X0.021213X0.021213X0.219203X0*%
%ADD34RoundRect,0.225000X0.225000X0.250000X-0.225000X0.250000X-0.225000X-0.250000X0.225000X-0.250000X0*%
%ADD35R,0.800000X0.300000*%
%ADD36R,0.800000X0.400000*%
%ADD37R,1.700000X1.000000*%
%ADD38RoundRect,0.150000X0.650000X0.150000X-0.650000X0.150000X-0.650000X-0.150000X0.650000X-0.150000X0*%
%ADD39R,2.410000X3.100000*%
%ADD40RoundRect,0.140000X0.170000X-0.140000X0.170000X0.140000X-0.170000X0.140000X-0.170000X-0.140000X0*%
%ADD41RoundRect,0.150000X-0.587500X-0.150000X0.587500X-0.150000X0.587500X0.150000X-0.587500X0.150000X0*%
%ADD42RoundRect,0.140000X0.140000X0.170000X-0.140000X0.170000X-0.140000X-0.170000X0.140000X-0.170000X0*%
%ADD43RoundRect,0.135000X0.135000X0.185000X-0.135000X0.185000X-0.135000X-0.185000X0.135000X-0.185000X0*%
%ADD44RoundRect,0.135000X0.185000X-0.135000X0.185000X0.135000X-0.185000X0.135000X-0.185000X-0.135000X0*%
%ADD45RoundRect,0.150000X-0.150000X0.587500X-0.150000X-0.587500X0.150000X-0.587500X0.150000X0.587500X0*%
%ADD46RoundRect,0.225000X-0.250000X0.225000X-0.250000X-0.225000X0.250000X-0.225000X0.250000X0.225000X0*%
%ADD47R,2.400000X0.740000*%
%ADD48RoundRect,0.200000X0.600000X-0.200000X0.600000X0.200000X-0.600000X0.200000X-0.600000X-0.200000X0*%
%ADD49RoundRect,0.250001X1.249999X-0.799999X1.249999X0.799999X-1.249999X0.799999X-1.249999X-0.799999X0*%
%ADD50RoundRect,0.250000X-0.362500X-1.425000X0.362500X-1.425000X0.362500X1.425000X-0.362500X1.425000X0*%
%ADD51RoundRect,0.150000X0.587500X0.150000X-0.587500X0.150000X-0.587500X-0.150000X0.587500X-0.150000X0*%
%ADD52RoundRect,0.140000X-0.021213X0.219203X-0.219203X0.021213X0.021213X-0.219203X0.219203X-0.021213X0*%
%ADD53R,1.400000X1.200000*%
%ADD54RoundRect,0.250000X0.300000X0.300000X-0.300000X0.300000X-0.300000X-0.300000X0.300000X-0.300000X0*%
%ADD55RoundRect,0.150000X0.512500X0.150000X-0.512500X0.150000X-0.512500X-0.150000X0.512500X-0.150000X0*%
%ADD56RoundRect,0.225000X0.375000X-0.225000X0.375000X0.225000X-0.375000X0.225000X-0.375000X-0.225000X0*%
%ADD57RoundRect,0.250000X0.300000X-0.300000X0.300000X0.300000X-0.300000X0.300000X-0.300000X-0.300000X0*%
%ADD58RoundRect,0.140000X0.021213X-0.219203X0.219203X-0.021213X-0.021213X0.219203X-0.219203X0.021213X0*%
%ADD59RoundRect,0.250000X0.375000X0.850000X-0.375000X0.850000X-0.375000X-0.850000X0.375000X-0.850000X0*%
%ADD60RoundRect,0.250000X0.350000X0.625000X-0.350000X0.625000X-0.350000X-0.625000X0.350000X-0.625000X0*%
%ADD61O,1.200000X1.750000*%
G04 APERTURE END LIST*
D10*
X199328328Y-70861653D02*
X198614042Y-70361653D01*
X199328328Y-70004510D02*
X197828328Y-70004510D01*
X197828328Y-70004510D02*
X197828328Y-70575939D01*
X197828328Y-70575939D02*
X197899757Y-70718796D01*
X197899757Y-70718796D02*
X197971185Y-70790225D01*
X197971185Y-70790225D02*
X198114042Y-70861653D01*
X198114042Y-70861653D02*
X198328328Y-70861653D01*
X198328328Y-70861653D02*
X198471185Y-70790225D01*
X198471185Y-70790225D02*
X198542614Y-70718796D01*
X198542614Y-70718796D02*
X198614042Y-70575939D01*
X198614042Y-70575939D02*
X198614042Y-70004510D01*
X198542614Y-71504510D02*
X198542614Y-72004510D01*
X199328328Y-72218796D02*
X199328328Y-71504510D01*
X199328328Y-71504510D02*
X197828328Y-71504510D01*
X197828328Y-71504510D02*
X197828328Y-72218796D01*
X197828328Y-72647368D02*
X199328328Y-73147368D01*
X199328328Y-73147368D02*
X197828328Y-73647368D01*
X198899757Y-75218796D02*
X198899757Y-75933082D01*
X199328328Y-75075939D02*
X197828328Y-75575939D01*
X197828328Y-75575939D02*
X199328328Y-76075939D01*
X196028328Y-70647368D02*
X197242614Y-70647368D01*
X197242614Y-70647368D02*
X197385471Y-70575939D01*
X197385471Y-70575939D02*
X197456900Y-70504510D01*
X197456900Y-70504510D02*
X197528328Y-70361653D01*
X197528328Y-70361653D02*
X197528328Y-70147368D01*
X197528328Y-70147368D02*
X197456900Y-70004510D01*
X196956900Y-70647368D02*
X197028328Y-70504510D01*
X197028328Y-70504510D02*
X197028328Y-70218796D01*
X197028328Y-70218796D02*
X196956900Y-70075939D01*
X196956900Y-70075939D02*
X196885471Y-70004510D01*
X196885471Y-70004510D02*
X196742614Y-69933082D01*
X196742614Y-69933082D02*
X196314042Y-69933082D01*
X196314042Y-69933082D02*
X196171185Y-70004510D01*
X196171185Y-70004510D02*
X196099757Y-70075939D01*
X196099757Y-70075939D02*
X196028328Y-70218796D01*
X196028328Y-70218796D02*
X196028328Y-70504510D01*
X196028328Y-70504510D02*
X196099757Y-70647368D01*
X196956900Y-71290225D02*
X197028328Y-71433082D01*
X197028328Y-71433082D02*
X197028328Y-71718796D01*
X197028328Y-71718796D02*
X196956900Y-71861653D01*
X196956900Y-71861653D02*
X196814042Y-71933082D01*
X196814042Y-71933082D02*
X196742614Y-71933082D01*
X196742614Y-71933082D02*
X196599757Y-71861653D01*
X196599757Y-71861653D02*
X196528328Y-71718796D01*
X196528328Y-71718796D02*
X196528328Y-71504511D01*
X196528328Y-71504511D02*
X196456900Y-71361653D01*
X196456900Y-71361653D02*
X196314042Y-71290225D01*
X196314042Y-71290225D02*
X196242614Y-71290225D01*
X196242614Y-71290225D02*
X196099757Y-71361653D01*
X196099757Y-71361653D02*
X196028328Y-71504511D01*
X196028328Y-71504511D02*
X196028328Y-71718796D01*
X196028328Y-71718796D02*
X196099757Y-71861653D01*
X197028328Y-72575939D02*
X195528328Y-72575939D01*
X197028328Y-73218797D02*
X196242614Y-73218797D01*
X196242614Y-73218797D02*
X196099757Y-73147368D01*
X196099757Y-73147368D02*
X196028328Y-73004511D01*
X196028328Y-73004511D02*
X196028328Y-72790225D01*
X196028328Y-72790225D02*
X196099757Y-72647368D01*
X196099757Y-72647368D02*
X196171185Y-72575939D01*
X196028328Y-73933082D02*
X197528328Y-73933082D01*
X196099757Y-73933082D02*
X196028328Y-74075940D01*
X196028328Y-74075940D02*
X196028328Y-74361654D01*
X196028328Y-74361654D02*
X196099757Y-74504511D01*
X196099757Y-74504511D02*
X196171185Y-74575940D01*
X196171185Y-74575940D02*
X196314042Y-74647368D01*
X196314042Y-74647368D02*
X196742614Y-74647368D01*
X196742614Y-74647368D02*
X196885471Y-74575940D01*
X196885471Y-74575940D02*
X196956900Y-74504511D01*
X196956900Y-74504511D02*
X197028328Y-74361654D01*
X197028328Y-74361654D02*
X197028328Y-74075940D01*
X197028328Y-74075940D02*
X196956900Y-73933082D01*
X196956900Y-75218797D02*
X197028328Y-75361654D01*
X197028328Y-75361654D02*
X197028328Y-75647368D01*
X197028328Y-75647368D02*
X196956900Y-75790225D01*
X196956900Y-75790225D02*
X196814042Y-75861654D01*
X196814042Y-75861654D02*
X196742614Y-75861654D01*
X196742614Y-75861654D02*
X196599757Y-75790225D01*
X196599757Y-75790225D02*
X196528328Y-75647368D01*
X196528328Y-75647368D02*
X196528328Y-75433083D01*
X196528328Y-75433083D02*
X196456900Y-75290225D01*
X196456900Y-75290225D02*
X196314042Y-75218797D01*
X196314042Y-75218797D02*
X196242614Y-75218797D01*
X196242614Y-75218797D02*
X196099757Y-75290225D01*
X196099757Y-75290225D02*
X196028328Y-75433083D01*
X196028328Y-75433083D02*
X196028328Y-75647368D01*
X196028328Y-75647368D02*
X196099757Y-75790225D01*
D11*
%TO.C,H4*%
X194000000Y-81000000D03*
%TD*%
D12*
%TO.C,J2*%
X116835000Y-73000000D03*
D13*
X116835000Y-65500000D03*
D14*
X114685000Y-71650000D03*
X118985000Y-71650000D03*
X114685000Y-66850000D03*
X118985000Y-66850000D03*
%TD*%
D11*
%TO.C,H3*%
X117000000Y-81000000D03*
%TD*%
%TO.C,H1*%
X117000000Y-39000000D03*
%TD*%
%TO.C,H2*%
X194000000Y-39000000D03*
%TD*%
D15*
%TO.C,U4*%
X166437500Y-53400000D03*
X166437500Y-53800000D03*
X166437500Y-54200000D03*
X166437500Y-54600000D03*
X166437500Y-55000000D03*
X166437500Y-55400000D03*
X166437500Y-55800000D03*
X166437500Y-56200000D03*
X166437500Y-56600000D03*
X166437500Y-57000000D03*
X166437500Y-57400000D03*
X166437500Y-57800000D03*
X166437500Y-58200000D03*
X166437500Y-58600000D03*
D16*
X165600000Y-59437500D03*
X165200000Y-59437500D03*
X164800000Y-59437500D03*
X164400000Y-59437500D03*
X164000000Y-59437500D03*
X163600000Y-59437500D03*
X163200000Y-59437500D03*
X162800000Y-59437500D03*
X162400000Y-59437500D03*
X162000000Y-59437500D03*
X161600000Y-59437500D03*
X161200000Y-59437500D03*
X160800000Y-59437500D03*
X160400000Y-59437500D03*
D15*
X159562500Y-58600000D03*
X159562500Y-58200000D03*
X159562500Y-57800000D03*
X159562500Y-57400000D03*
X159562500Y-57000000D03*
X159562500Y-56600000D03*
X159562500Y-56200000D03*
X159562500Y-55800000D03*
X159562500Y-55400000D03*
X159562500Y-55000000D03*
X159562500Y-54600000D03*
X159562500Y-54200000D03*
X159562500Y-53800000D03*
X159562500Y-53400000D03*
D16*
X160400000Y-52562500D03*
X160800000Y-52562500D03*
X161200000Y-52562500D03*
X161600000Y-52562500D03*
X162000000Y-52562500D03*
X162400000Y-52562500D03*
X162800000Y-52562500D03*
X163200000Y-52562500D03*
X163600000Y-52562500D03*
X164000000Y-52562500D03*
X164400000Y-52562500D03*
X164800000Y-52562500D03*
X165200000Y-52562500D03*
X165600000Y-52562500D03*
D17*
X163000000Y-56000000D03*
%TD*%
D18*
%TO.C,R8*%
X184500000Y-47990000D03*
X184500000Y-49010000D03*
%TD*%
D19*
%TO.C,C19*%
X184725000Y-50500000D03*
X186275000Y-50500000D03*
%TD*%
D18*
%TO.C,R14*%
X175500000Y-56490000D03*
X175500000Y-57510000D03*
%TD*%
D20*
%TO.C,C11*%
X157120000Y-57000000D03*
X158080000Y-57000000D03*
%TD*%
D19*
%TO.C,C28*%
X129725000Y-50000000D03*
X131275000Y-50000000D03*
%TD*%
D18*
%TO.C,R1*%
X112300000Y-69590000D03*
X112300000Y-70610000D03*
%TD*%
D21*
%TO.C,C14*%
X163000000Y-49520000D03*
X163000000Y-50480000D03*
%TD*%
D22*
%TO.C,Q3*%
X176450000Y-54937500D03*
X174550000Y-54937500D03*
X175500000Y-53062500D03*
%TD*%
D18*
%TO.C,R22*%
X156000000Y-54490000D03*
X156000000Y-55510000D03*
%TD*%
D19*
%TO.C,C29*%
X129725000Y-48500000D03*
X131275000Y-48500000D03*
%TD*%
D23*
%TO.C,C27*%
X129500000Y-54275000D03*
X129500000Y-52725000D03*
%TD*%
D24*
%TO.C,J6*%
X136825000Y-65350000D03*
X137925000Y-65350000D03*
X139025000Y-65350000D03*
X140125000Y-65350000D03*
X141225000Y-65350000D03*
X142325000Y-65350000D03*
X143425000Y-65350000D03*
X144525000Y-65350000D03*
D25*
X145650000Y-56125000D03*
D26*
X134425000Y-54550000D03*
D27*
X145975000Y-57625000D03*
D28*
X145725000Y-65225000D03*
D29*
X134375000Y-65225000D03*
D30*
X134025000Y-56975000D03*
%TD*%
D31*
%TO.C,D6*%
X137600000Y-50000000D03*
X140400000Y-50000000D03*
%TD*%
D32*
%TO.C,R17*%
X172490000Y-44500000D03*
X173510000Y-44500000D03*
%TD*%
D18*
%TO.C,R6*%
X188100000Y-42765000D03*
X188100000Y-43785000D03*
%TD*%
D33*
%TO.C,C6*%
X161760589Y-46660589D03*
X162439411Y-47339411D03*
%TD*%
D34*
%TO.C,C2*%
X178412500Y-40775000D03*
X176862500Y-40775000D03*
%TD*%
D35*
%TO.C,J5*%
X127400000Y-56750000D03*
X127400000Y-56250000D03*
X127400000Y-55750000D03*
X127400000Y-55250000D03*
X127400000Y-54750000D03*
X127400000Y-54250000D03*
X127400000Y-53750000D03*
X127400000Y-53250000D03*
X127400000Y-52750000D03*
X127400000Y-52250000D03*
X127400000Y-51750000D03*
X127400000Y-51250000D03*
X127400000Y-50750000D03*
X127400000Y-50250000D03*
X127400000Y-49750000D03*
X127400000Y-49250000D03*
X127400000Y-48750000D03*
X127400000Y-48250000D03*
X127400000Y-47750000D03*
X127400000Y-47250000D03*
X127400000Y-46750000D03*
X127400000Y-46250000D03*
X127400000Y-45750000D03*
X127400000Y-45250000D03*
D36*
X124750000Y-57750000D03*
X124750000Y-44250000D03*
%TD*%
D37*
%TO.C,SW2*%
X176489642Y-70070000D03*
X182789642Y-70070000D03*
X176489642Y-66270000D03*
X182789642Y-66270000D03*
%TD*%
D18*
%TO.C,R10*%
X177437500Y-47540000D03*
X177437500Y-48560000D03*
%TD*%
D19*
%TO.C,C30*%
X129725000Y-45500000D03*
X131275000Y-45500000D03*
%TD*%
D21*
%TO.C,C22*%
X169500000Y-63520000D03*
X169500000Y-64480000D03*
%TD*%
D38*
%TO.C,U1*%
X186150000Y-41095000D03*
X186150000Y-42365000D03*
X186150000Y-43635000D03*
X186150000Y-44905000D03*
X180850000Y-44905000D03*
X180850000Y-43635000D03*
X180850000Y-42365000D03*
X180850000Y-41095000D03*
D39*
X183500000Y-43000000D03*
%TD*%
D18*
%TO.C,R9*%
X185500000Y-47990000D03*
X185500000Y-49010000D03*
%TD*%
D40*
%TO.C,C10*%
X163100000Y-62480000D03*
X163100000Y-61520000D03*
%TD*%
D18*
%TO.C,R27*%
X186500000Y-56990000D03*
X186500000Y-58010000D03*
%TD*%
D20*
%TO.C,C21*%
X166520000Y-44500000D03*
X167480000Y-44500000D03*
%TD*%
D18*
%TO.C,R13*%
X161000000Y-49980001D03*
X161000000Y-51000001D03*
%TD*%
D41*
%TO.C,Q7*%
X152562500Y-59950000D03*
X152562500Y-58050000D03*
X154437500Y-59000000D03*
%TD*%
D38*
%TO.C,U3*%
X173600000Y-46095000D03*
X173600000Y-47365000D03*
X173600000Y-48635000D03*
X173600000Y-49905000D03*
X166400000Y-49905000D03*
X166400000Y-48635000D03*
X166400000Y-47365000D03*
X166400000Y-46095000D03*
%TD*%
D42*
%TO.C,C12*%
X169000000Y-57000000D03*
X168040000Y-57000000D03*
%TD*%
D43*
%TO.C,R19*%
X169060000Y-69437500D03*
X168040000Y-69437500D03*
%TD*%
D44*
%TO.C,R31*%
X132400000Y-55510000D03*
X132400000Y-54490000D03*
%TD*%
D45*
%TO.C,Q5*%
X167600000Y-71000000D03*
X169500000Y-71000000D03*
X168550000Y-72875000D03*
%TD*%
D21*
%TO.C,C8*%
X164000000Y-49520000D03*
X164000000Y-50480000D03*
%TD*%
D46*
%TO.C,C20*%
X163500000Y-40725000D03*
X163500000Y-42275000D03*
%TD*%
D40*
%TO.C,C24*%
X143000000Y-47480000D03*
X143000000Y-46520000D03*
%TD*%
D42*
%TO.C,C13*%
X169000000Y-53000000D03*
X168040000Y-53000000D03*
%TD*%
D18*
%TO.C,R28*%
X186500000Y-63990000D03*
X186500000Y-65010000D03*
%TD*%
D47*
%TO.C,J4*%
X150050000Y-84040000D03*
X153950000Y-84040000D03*
X150050000Y-82770000D03*
X153950000Y-82770000D03*
X150050000Y-81500000D03*
X153950000Y-81500000D03*
X150050000Y-80230000D03*
X153950000Y-80230000D03*
X150050000Y-78960000D03*
X153950000Y-78960000D03*
%TD*%
D48*
%TO.C,J3*%
X165400000Y-74750000D03*
X165400000Y-73500000D03*
X165400000Y-72250000D03*
D49*
X162500000Y-77300000D03*
X162500000Y-69700000D03*
%TD*%
D23*
%TO.C,C31*%
X133500000Y-45775000D03*
X133500000Y-44225000D03*
%TD*%
D40*
%TO.C,C3*%
X117700000Y-71180000D03*
X117700000Y-70220000D03*
%TD*%
D37*
%TO.C,SW3*%
X157850000Y-83900000D03*
X164150000Y-83900000D03*
X157850000Y-80100000D03*
X164150000Y-80100000D03*
%TD*%
D46*
%TO.C,C16*%
X158000000Y-49225000D03*
X158000000Y-50775000D03*
%TD*%
D41*
%TO.C,Q1*%
X181000000Y-50000000D03*
X181000000Y-48100000D03*
X182875000Y-49050000D03*
%TD*%
D50*
%TO.C,R2*%
X174537500Y-38000000D03*
X180462500Y-38000000D03*
%TD*%
D43*
%TO.C,R18*%
X174810000Y-66500000D03*
X173790000Y-66500000D03*
%TD*%
D40*
%TO.C,R24*%
X157000000Y-55480000D03*
X157000000Y-54520000D03*
%TD*%
D23*
%TO.C,C25*%
X144500000Y-47775000D03*
X144500000Y-46225000D03*
%TD*%
D51*
%TO.C,Q4*%
X182937500Y-51550000D03*
X182937500Y-53450000D03*
X181062500Y-52500000D03*
%TD*%
D46*
%TO.C,C15*%
X159500000Y-49225000D03*
X159500000Y-50775000D03*
%TD*%
D52*
%TO.C,C5*%
X149339411Y-46760589D03*
X148660589Y-47439411D03*
%TD*%
D53*
%TO.C,Y1*%
X165400000Y-63200000D03*
X167600000Y-63200000D03*
X167600000Y-64800000D03*
X165400000Y-64800000D03*
%TD*%
D46*
%TO.C,C17*%
X156000000Y-40500000D03*
X156000000Y-42050000D03*
%TD*%
D23*
%TO.C,C32*%
X137500000Y-46275000D03*
X137500000Y-44725000D03*
%TD*%
D20*
%TO.C,C9*%
X157120000Y-53400000D03*
X158080000Y-53400000D03*
%TD*%
D44*
%TO.C,R12*%
X176500000Y-57510000D03*
X176500000Y-56490000D03*
%TD*%
D54*
%TO.C,D8*%
X137400000Y-42000000D03*
X134600000Y-42000000D03*
%TD*%
D32*
%TO.C,R3*%
X120290000Y-65500000D03*
X121310000Y-65500000D03*
%TD*%
D19*
%TO.C,C33*%
X129725000Y-42500000D03*
X131275000Y-42500000D03*
%TD*%
D46*
%TO.C,C18*%
X178937500Y-48275000D03*
X178937500Y-49825000D03*
%TD*%
D43*
%TO.C,R20*%
X165110000Y-61700000D03*
X164090000Y-61700000D03*
%TD*%
D18*
%TO.C,R21*%
X188100000Y-37990000D03*
X188100000Y-39010000D03*
%TD*%
D51*
%TO.C,Q2*%
X169500000Y-40100000D03*
X169500000Y-42000000D03*
X167625000Y-41050000D03*
%TD*%
D55*
%TO.C,U2*%
X160137500Y-40550000D03*
X160137500Y-41500000D03*
X160137500Y-42450000D03*
X157862500Y-42450000D03*
X157862500Y-40550000D03*
%TD*%
D50*
%TO.C,R30*%
X139537500Y-42500000D03*
X145462500Y-42500000D03*
%TD*%
D18*
%TO.C,R7*%
X162000000Y-40490000D03*
X162000000Y-41510000D03*
%TD*%
D34*
%TO.C,C1*%
X180375000Y-46500000D03*
X178825000Y-46500000D03*
%TD*%
D18*
%TO.C,R29*%
X186500000Y-70990000D03*
X186500000Y-72010000D03*
%TD*%
D44*
%TO.C,R16*%
X177437500Y-50560000D03*
X177437500Y-49540000D03*
%TD*%
D56*
%TO.C,D3*%
X172000000Y-42650000D03*
X172000000Y-39350000D03*
%TD*%
D57*
%TO.C,D7*%
X135500000Y-46900000D03*
X135500000Y-44100000D03*
%TD*%
D58*
%TO.C,C4*%
X149260589Y-66039411D03*
X149939411Y-65360589D03*
%TD*%
D41*
%TO.C,Q6*%
X152562500Y-56450000D03*
X152562500Y-54550000D03*
X154437500Y-55500000D03*
%TD*%
D44*
%TO.C,R26*%
X151000000Y-59510000D03*
X151000000Y-58490000D03*
%TD*%
D40*
%TO.C,C7*%
X162100000Y-62480000D03*
X162100000Y-61520000D03*
%TD*%
D59*
%TO.C,L1*%
X144575000Y-50000000D03*
X142425000Y-50000000D03*
%TD*%
D43*
%TO.C,R15*%
X170010000Y-38500000D03*
X168990000Y-38500000D03*
%TD*%
D40*
%TO.C,C23*%
X163500000Y-64480000D03*
X163500000Y-63520000D03*
%TD*%
D41*
%TO.C,Q8*%
X139500000Y-47500000D03*
X139500000Y-45600000D03*
X141375000Y-46550000D03*
%TD*%
D43*
%TO.C,R25*%
X159010000Y-78500000D03*
X157990000Y-78500000D03*
%TD*%
D18*
%TO.C,R23*%
X151000000Y-54990000D03*
X151000000Y-56010000D03*
%TD*%
%TO.C,R11*%
X162000000Y-49990000D03*
X162000000Y-51010000D03*
%TD*%
D56*
%TO.C,D4*%
X178500000Y-56150000D03*
X178500000Y-52850000D03*
%TD*%
D18*
%TO.C,R5*%
X117600000Y-61990000D03*
X117600000Y-63010000D03*
%TD*%
D23*
%TO.C,C26*%
X135500000Y-50275000D03*
X135500000Y-48725000D03*
%TD*%
D18*
%TO.C,R4*%
X116000000Y-61990000D03*
X116000000Y-63010000D03*
%TD*%
D60*
%TO.C,J1*%
X196000000Y-46500000D03*
D61*
X194000000Y-46500000D03*
%TD*%
M02*
