G04 #@! TF.GenerationSoftware,KiCad,Pcbnew,8.0.6+1*
G04 #@! TF.CreationDate,2025-02-24T18:19:53+00:00*
G04 #@! TF.ProjectId,gshps,67736870-732e-46b6-9963-61645f706362,C*
G04 #@! TF.SameCoordinates,Original*
G04 #@! TF.FileFunction,Profile,NP*
%FSLAX46Y46*%
G04 Gerber Fmt 4.6, Leading zero omitted, Abs format (unit mm)*
G04 Created by KiCad (PCBNEW 8.0.6+1) date 2025-02-24 18:19:53*
%MOMM*%
%LPD*%
G01*
G04 APERTURE LIST*
G04 #@! TA.AperFunction,Profile*
%ADD10C,0.100000*%
G04 #@! TD*
G04 APERTURE END LIST*
D10*
X43000000Y-59000000D02*
X63500000Y-59000000D01*
X107500000Y-23500000D02*
G75*
G02*
X118500000Y-34500000I0J-11000000D01*
G01*
X118500000Y-67500000D02*
G75*
G02*
X107500000Y-78500000I-11000000J0D01*
G01*
X36999999Y-51000000D02*
X36999999Y-34500000D01*
X34500000Y-34000000D02*
X36500000Y-34000001D01*
X39500000Y-78500000D02*
G75*
G02*
X28500000Y-67500000I0J11000000D01*
G01*
X41000000Y-78500000D02*
X41000000Y-61000000D01*
X34000000Y-34500000D02*
X34000001Y-51000000D01*
X34500000Y-51499999D02*
X36500000Y-51499999D01*
X36500000Y-34000001D02*
G75*
G02*
X36999999Y-34500000I0J-499999D01*
G01*
X36999999Y-51000000D02*
G75*
G02*
X36500000Y-51499999I-499999J0D01*
G01*
X41000000Y-61000000D02*
G75*
G02*
X43000000Y-59000000I2000000J0D01*
G01*
X107500000Y-78500000D02*
X65500000Y-78500000D01*
X39500000Y-23500000D02*
X107500000Y-23500000D01*
X34000000Y-34500000D02*
G75*
G02*
X34500000Y-34000000I500000J0D01*
G01*
X41000000Y-78500000D02*
X39500000Y-78500000D01*
X34500000Y-51499999D02*
G75*
G02*
X34000001Y-51000000I0J499999D01*
G01*
X28500000Y-67500000D02*
X28500000Y-34500000D01*
X65500000Y-78500000D02*
X65500000Y-61000000D01*
X28500000Y-34500000D02*
G75*
G02*
X39500000Y-23500000I11000000J0D01*
G01*
X63500000Y-59000000D02*
G75*
G02*
X65500000Y-61000000I0J-2000000D01*
G01*
X118500000Y-34500000D02*
X118500000Y-67500000D01*
M02*
