G04 #@! TF.GenerationSoftware,KiCad,Pcbnew,8.0.6+1*
G04 #@! TF.CreationDate,2025-01-07T07:54:38+00:00*
G04 #@! TF.ProjectId,gshps,67736870-732e-46b6-9963-61645f706362,B*
G04 #@! TF.SameCoordinates,Original*
G04 #@! TF.FileFunction,Other,Comment*
%FSLAX46Y46*%
G04 Gerber Fmt 4.6, Leading zero omitted, Abs format (unit mm)*
G04 Created by KiCad (PCBNEW 8.0.6+1) date 2025-01-07 07:54:38*
%MOMM*%
%LPD*%
G01*
G04 APERTURE LIST*
%ADD10C,0.150000*%
%ADD11C,0.100000*%
%ADD12C,0.060000*%
G04 APERTURE END LIST*
D10*
X129086778Y-59539818D02*
X129086778Y-60349341D01*
X129086778Y-60349341D02*
X129134397Y-60444579D01*
X129134397Y-60444579D02*
X129182016Y-60492199D01*
X129182016Y-60492199D02*
X129277254Y-60539818D01*
X129277254Y-60539818D02*
X129467730Y-60539818D01*
X129467730Y-60539818D02*
X129562968Y-60492199D01*
X129562968Y-60492199D02*
X129610587Y-60444579D01*
X129610587Y-60444579D02*
X129658206Y-60349341D01*
X129658206Y-60349341D02*
X129658206Y-59539818D01*
X130086778Y-60492199D02*
X130229635Y-60539818D01*
X130229635Y-60539818D02*
X130467730Y-60539818D01*
X130467730Y-60539818D02*
X130562968Y-60492199D01*
X130562968Y-60492199D02*
X130610587Y-60444579D01*
X130610587Y-60444579D02*
X130658206Y-60349341D01*
X130658206Y-60349341D02*
X130658206Y-60254103D01*
X130658206Y-60254103D02*
X130610587Y-60158865D01*
X130610587Y-60158865D02*
X130562968Y-60111246D01*
X130562968Y-60111246D02*
X130467730Y-60063627D01*
X130467730Y-60063627D02*
X130277254Y-60016008D01*
X130277254Y-60016008D02*
X130182016Y-59968389D01*
X130182016Y-59968389D02*
X130134397Y-59920770D01*
X130134397Y-59920770D02*
X130086778Y-59825532D01*
X130086778Y-59825532D02*
X130086778Y-59730294D01*
X130086778Y-59730294D02*
X130134397Y-59635056D01*
X130134397Y-59635056D02*
X130182016Y-59587437D01*
X130182016Y-59587437D02*
X130277254Y-59539818D01*
X130277254Y-59539818D02*
X130515349Y-59539818D01*
X130515349Y-59539818D02*
X130658206Y-59587437D01*
X131420111Y-60016008D02*
X131562968Y-60063627D01*
X131562968Y-60063627D02*
X131610587Y-60111246D01*
X131610587Y-60111246D02*
X131658206Y-60206484D01*
X131658206Y-60206484D02*
X131658206Y-60349341D01*
X131658206Y-60349341D02*
X131610587Y-60444579D01*
X131610587Y-60444579D02*
X131562968Y-60492199D01*
X131562968Y-60492199D02*
X131467730Y-60539818D01*
X131467730Y-60539818D02*
X131086778Y-60539818D01*
X131086778Y-60539818D02*
X131086778Y-59539818D01*
X131086778Y-59539818D02*
X131420111Y-59539818D01*
X131420111Y-59539818D02*
X131515349Y-59587437D01*
X131515349Y-59587437D02*
X131562968Y-59635056D01*
X131562968Y-59635056D02*
X131610587Y-59730294D01*
X131610587Y-59730294D02*
X131610587Y-59825532D01*
X131610587Y-59825532D02*
X131562968Y-59920770D01*
X131562968Y-59920770D02*
X131515349Y-59968389D01*
X131515349Y-59968389D02*
X131420111Y-60016008D01*
X131420111Y-60016008D02*
X131086778Y-60016008D01*
X132705826Y-59539818D02*
X133277254Y-59539818D01*
X132991540Y-60539818D02*
X132991540Y-59539818D01*
X133610588Y-60539818D02*
X133610588Y-59873151D01*
X133610588Y-60063627D02*
X133658207Y-59968389D01*
X133658207Y-59968389D02*
X133705826Y-59920770D01*
X133705826Y-59920770D02*
X133801064Y-59873151D01*
X133801064Y-59873151D02*
X133896302Y-59873151D01*
X134658207Y-60539818D02*
X134658207Y-60016008D01*
X134658207Y-60016008D02*
X134610588Y-59920770D01*
X134610588Y-59920770D02*
X134515350Y-59873151D01*
X134515350Y-59873151D02*
X134324874Y-59873151D01*
X134324874Y-59873151D02*
X134229636Y-59920770D01*
X134658207Y-60492199D02*
X134562969Y-60539818D01*
X134562969Y-60539818D02*
X134324874Y-60539818D01*
X134324874Y-60539818D02*
X134229636Y-60492199D01*
X134229636Y-60492199D02*
X134182017Y-60396960D01*
X134182017Y-60396960D02*
X134182017Y-60301722D01*
X134182017Y-60301722D02*
X134229636Y-60206484D01*
X134229636Y-60206484D02*
X134324874Y-60158865D01*
X134324874Y-60158865D02*
X134562969Y-60158865D01*
X134562969Y-60158865D02*
X134658207Y-60111246D01*
X135562969Y-60492199D02*
X135467731Y-60539818D01*
X135467731Y-60539818D02*
X135277255Y-60539818D01*
X135277255Y-60539818D02*
X135182017Y-60492199D01*
X135182017Y-60492199D02*
X135134398Y-60444579D01*
X135134398Y-60444579D02*
X135086779Y-60349341D01*
X135086779Y-60349341D02*
X135086779Y-60063627D01*
X135086779Y-60063627D02*
X135134398Y-59968389D01*
X135134398Y-59968389D02*
X135182017Y-59920770D01*
X135182017Y-59920770D02*
X135277255Y-59873151D01*
X135277255Y-59873151D02*
X135467731Y-59873151D01*
X135467731Y-59873151D02*
X135562969Y-59920770D01*
X136372493Y-60492199D02*
X136277255Y-60539818D01*
X136277255Y-60539818D02*
X136086779Y-60539818D01*
X136086779Y-60539818D02*
X135991541Y-60492199D01*
X135991541Y-60492199D02*
X135943922Y-60396960D01*
X135943922Y-60396960D02*
X135943922Y-60016008D01*
X135943922Y-60016008D02*
X135991541Y-59920770D01*
X135991541Y-59920770D02*
X136086779Y-59873151D01*
X136086779Y-59873151D02*
X136277255Y-59873151D01*
X136277255Y-59873151D02*
X136372493Y-59920770D01*
X136372493Y-59920770D02*
X136420112Y-60016008D01*
X136420112Y-60016008D02*
X136420112Y-60111246D01*
X136420112Y-60111246D02*
X135943922Y-60206484D01*
X136801065Y-60492199D02*
X136896303Y-60539818D01*
X136896303Y-60539818D02*
X137086779Y-60539818D01*
X137086779Y-60539818D02*
X137182017Y-60492199D01*
X137182017Y-60492199D02*
X137229636Y-60396960D01*
X137229636Y-60396960D02*
X137229636Y-60349341D01*
X137229636Y-60349341D02*
X137182017Y-60254103D01*
X137182017Y-60254103D02*
X137086779Y-60206484D01*
X137086779Y-60206484D02*
X136943922Y-60206484D01*
X136943922Y-60206484D02*
X136848684Y-60158865D01*
X136848684Y-60158865D02*
X136801065Y-60063627D01*
X136801065Y-60063627D02*
X136801065Y-60016008D01*
X136801065Y-60016008D02*
X136848684Y-59920770D01*
X136848684Y-59920770D02*
X136943922Y-59873151D01*
X136943922Y-59873151D02*
X137086779Y-59873151D01*
X137086779Y-59873151D02*
X137182017Y-59920770D01*
X138420113Y-60539818D02*
X138420113Y-59873151D01*
X138420113Y-59968389D02*
X138467732Y-59920770D01*
X138467732Y-59920770D02*
X138562970Y-59873151D01*
X138562970Y-59873151D02*
X138705827Y-59873151D01*
X138705827Y-59873151D02*
X138801065Y-59920770D01*
X138801065Y-59920770D02*
X138848684Y-60016008D01*
X138848684Y-60016008D02*
X138848684Y-60539818D01*
X138848684Y-60016008D02*
X138896303Y-59920770D01*
X138896303Y-59920770D02*
X138991541Y-59873151D01*
X138991541Y-59873151D02*
X139134398Y-59873151D01*
X139134398Y-59873151D02*
X139229637Y-59920770D01*
X139229637Y-59920770D02*
X139277256Y-60016008D01*
X139277256Y-60016008D02*
X139277256Y-60539818D01*
X140182017Y-59873151D02*
X140182017Y-60539818D01*
X139753446Y-59873151D02*
X139753446Y-60396960D01*
X139753446Y-60396960D02*
X139801065Y-60492199D01*
X139801065Y-60492199D02*
X139896303Y-60539818D01*
X139896303Y-60539818D02*
X140039160Y-60539818D01*
X140039160Y-60539818D02*
X140134398Y-60492199D01*
X140134398Y-60492199D02*
X140182017Y-60444579D01*
X140610589Y-60492199D02*
X140705827Y-60539818D01*
X140705827Y-60539818D02*
X140896303Y-60539818D01*
X140896303Y-60539818D02*
X140991541Y-60492199D01*
X140991541Y-60492199D02*
X141039160Y-60396960D01*
X141039160Y-60396960D02*
X141039160Y-60349341D01*
X141039160Y-60349341D02*
X140991541Y-60254103D01*
X140991541Y-60254103D02*
X140896303Y-60206484D01*
X140896303Y-60206484D02*
X140753446Y-60206484D01*
X140753446Y-60206484D02*
X140658208Y-60158865D01*
X140658208Y-60158865D02*
X140610589Y-60063627D01*
X140610589Y-60063627D02*
X140610589Y-60016008D01*
X140610589Y-60016008D02*
X140658208Y-59920770D01*
X140658208Y-59920770D02*
X140753446Y-59873151D01*
X140753446Y-59873151D02*
X140896303Y-59873151D01*
X140896303Y-59873151D02*
X140991541Y-59920770D01*
X141324875Y-59873151D02*
X141705827Y-59873151D01*
X141467732Y-59539818D02*
X141467732Y-60396960D01*
X141467732Y-60396960D02*
X141515351Y-60492199D01*
X141515351Y-60492199D02*
X141610589Y-60539818D01*
X141610589Y-60539818D02*
X141705827Y-60539818D01*
X142801066Y-60539818D02*
X142801066Y-59539818D01*
X142801066Y-59920770D02*
X142896304Y-59873151D01*
X142896304Y-59873151D02*
X143086780Y-59873151D01*
X143086780Y-59873151D02*
X143182018Y-59920770D01*
X143182018Y-59920770D02*
X143229637Y-59968389D01*
X143229637Y-59968389D02*
X143277256Y-60063627D01*
X143277256Y-60063627D02*
X143277256Y-60349341D01*
X143277256Y-60349341D02*
X143229637Y-60444579D01*
X143229637Y-60444579D02*
X143182018Y-60492199D01*
X143182018Y-60492199D02*
X143086780Y-60539818D01*
X143086780Y-60539818D02*
X142896304Y-60539818D01*
X142896304Y-60539818D02*
X142801066Y-60492199D01*
X144086780Y-60492199D02*
X143991542Y-60539818D01*
X143991542Y-60539818D02*
X143801066Y-60539818D01*
X143801066Y-60539818D02*
X143705828Y-60492199D01*
X143705828Y-60492199D02*
X143658209Y-60396960D01*
X143658209Y-60396960D02*
X143658209Y-60016008D01*
X143658209Y-60016008D02*
X143705828Y-59920770D01*
X143705828Y-59920770D02*
X143801066Y-59873151D01*
X143801066Y-59873151D02*
X143991542Y-59873151D01*
X143991542Y-59873151D02*
X144086780Y-59920770D01*
X144086780Y-59920770D02*
X144134399Y-60016008D01*
X144134399Y-60016008D02*
X144134399Y-60111246D01*
X144134399Y-60111246D02*
X143658209Y-60206484D01*
X145372495Y-60539818D02*
X145562971Y-60539818D01*
X145562971Y-60539818D02*
X145658209Y-60492199D01*
X145658209Y-60492199D02*
X145705828Y-60444579D01*
X145705828Y-60444579D02*
X145801066Y-60301722D01*
X145801066Y-60301722D02*
X145848685Y-60111246D01*
X145848685Y-60111246D02*
X145848685Y-59730294D01*
X145848685Y-59730294D02*
X145801066Y-59635056D01*
X145801066Y-59635056D02*
X145753447Y-59587437D01*
X145753447Y-59587437D02*
X145658209Y-59539818D01*
X145658209Y-59539818D02*
X145467733Y-59539818D01*
X145467733Y-59539818D02*
X145372495Y-59587437D01*
X145372495Y-59587437D02*
X145324876Y-59635056D01*
X145324876Y-59635056D02*
X145277257Y-59730294D01*
X145277257Y-59730294D02*
X145277257Y-59968389D01*
X145277257Y-59968389D02*
X145324876Y-60063627D01*
X145324876Y-60063627D02*
X145372495Y-60111246D01*
X145372495Y-60111246D02*
X145467733Y-60158865D01*
X145467733Y-60158865D02*
X145658209Y-60158865D01*
X145658209Y-60158865D02*
X145753447Y-60111246D01*
X145753447Y-60111246D02*
X145801066Y-60063627D01*
X145801066Y-60063627D02*
X145848685Y-59968389D01*
X146467733Y-59539818D02*
X146562971Y-59539818D01*
X146562971Y-59539818D02*
X146658209Y-59587437D01*
X146658209Y-59587437D02*
X146705828Y-59635056D01*
X146705828Y-59635056D02*
X146753447Y-59730294D01*
X146753447Y-59730294D02*
X146801066Y-59920770D01*
X146801066Y-59920770D02*
X146801066Y-60158865D01*
X146801066Y-60158865D02*
X146753447Y-60349341D01*
X146753447Y-60349341D02*
X146705828Y-60444579D01*
X146705828Y-60444579D02*
X146658209Y-60492199D01*
X146658209Y-60492199D02*
X146562971Y-60539818D01*
X146562971Y-60539818D02*
X146467733Y-60539818D01*
X146467733Y-60539818D02*
X146372495Y-60492199D01*
X146372495Y-60492199D02*
X146324876Y-60444579D01*
X146324876Y-60444579D02*
X146277257Y-60349341D01*
X146277257Y-60349341D02*
X146229638Y-60158865D01*
X146229638Y-60158865D02*
X146229638Y-59920770D01*
X146229638Y-59920770D02*
X146277257Y-59730294D01*
X146277257Y-59730294D02*
X146324876Y-59635056D01*
X146324876Y-59635056D02*
X146372495Y-59587437D01*
X146372495Y-59587437D02*
X146467733Y-59539818D01*
X148182019Y-59539818D02*
X148372495Y-59539818D01*
X148372495Y-59539818D02*
X148467733Y-59587437D01*
X148467733Y-59587437D02*
X148562971Y-59682675D01*
X148562971Y-59682675D02*
X148610590Y-59873151D01*
X148610590Y-59873151D02*
X148610590Y-60206484D01*
X148610590Y-60206484D02*
X148562971Y-60396960D01*
X148562971Y-60396960D02*
X148467733Y-60492199D01*
X148467733Y-60492199D02*
X148372495Y-60539818D01*
X148372495Y-60539818D02*
X148182019Y-60539818D01*
X148182019Y-60539818D02*
X148086781Y-60492199D01*
X148086781Y-60492199D02*
X147991543Y-60396960D01*
X147991543Y-60396960D02*
X147943924Y-60206484D01*
X147943924Y-60206484D02*
X147943924Y-59873151D01*
X147943924Y-59873151D02*
X147991543Y-59682675D01*
X147991543Y-59682675D02*
X148086781Y-59587437D01*
X148086781Y-59587437D02*
X148182019Y-59539818D01*
X149039162Y-60539818D02*
X149039162Y-59539818D01*
X149467733Y-60539818D02*
X149467733Y-60016008D01*
X149467733Y-60016008D02*
X149420114Y-59920770D01*
X149420114Y-59920770D02*
X149324876Y-59873151D01*
X149324876Y-59873151D02*
X149182019Y-59873151D01*
X149182019Y-59873151D02*
X149086781Y-59920770D01*
X149086781Y-59920770D02*
X149039162Y-59968389D01*
X149943924Y-60539818D02*
X149943924Y-59873151D01*
X149943924Y-59968389D02*
X149991543Y-59920770D01*
X149991543Y-59920770D02*
X150086781Y-59873151D01*
X150086781Y-59873151D02*
X150229638Y-59873151D01*
X150229638Y-59873151D02*
X150324876Y-59920770D01*
X150324876Y-59920770D02*
X150372495Y-60016008D01*
X150372495Y-60016008D02*
X150372495Y-60539818D01*
X150372495Y-60016008D02*
X150420114Y-59920770D01*
X150420114Y-59920770D02*
X150515352Y-59873151D01*
X150515352Y-59873151D02*
X150658209Y-59873151D01*
X150658209Y-59873151D02*
X150753448Y-59920770D01*
X150753448Y-59920770D02*
X150801067Y-60016008D01*
X150801067Y-60016008D02*
X150801067Y-60539818D01*
X151229638Y-60492199D02*
X151324876Y-60539818D01*
X151324876Y-60539818D02*
X151515352Y-60539818D01*
X151515352Y-60539818D02*
X151610590Y-60492199D01*
X151610590Y-60492199D02*
X151658209Y-60396960D01*
X151658209Y-60396960D02*
X151658209Y-60349341D01*
X151658209Y-60349341D02*
X151610590Y-60254103D01*
X151610590Y-60254103D02*
X151515352Y-60206484D01*
X151515352Y-60206484D02*
X151372495Y-60206484D01*
X151372495Y-60206484D02*
X151277257Y-60158865D01*
X151277257Y-60158865D02*
X151229638Y-60063627D01*
X151229638Y-60063627D02*
X151229638Y-60016008D01*
X151229638Y-60016008D02*
X151277257Y-59920770D01*
X151277257Y-59920770D02*
X151372495Y-59873151D01*
X151372495Y-59873151D02*
X151515352Y-59873151D01*
X151515352Y-59873151D02*
X151610590Y-59920770D01*
X129086778Y-62149762D02*
X129086778Y-61149762D01*
X129086778Y-61149762D02*
X129324873Y-61149762D01*
X129324873Y-61149762D02*
X129467730Y-61197381D01*
X129467730Y-61197381D02*
X129562968Y-61292619D01*
X129562968Y-61292619D02*
X129610587Y-61387857D01*
X129610587Y-61387857D02*
X129658206Y-61578333D01*
X129658206Y-61578333D02*
X129658206Y-61721190D01*
X129658206Y-61721190D02*
X129610587Y-61911666D01*
X129610587Y-61911666D02*
X129562968Y-62006904D01*
X129562968Y-62006904D02*
X129467730Y-62102143D01*
X129467730Y-62102143D02*
X129324873Y-62149762D01*
X129324873Y-62149762D02*
X129086778Y-62149762D01*
X130086778Y-62149762D02*
X130086778Y-61483095D01*
X130086778Y-61149762D02*
X130039159Y-61197381D01*
X130039159Y-61197381D02*
X130086778Y-61245000D01*
X130086778Y-61245000D02*
X130134397Y-61197381D01*
X130134397Y-61197381D02*
X130086778Y-61149762D01*
X130086778Y-61149762D02*
X130086778Y-61245000D01*
X130420111Y-61483095D02*
X130801063Y-61483095D01*
X130562968Y-62149762D02*
X130562968Y-61292619D01*
X130562968Y-61292619D02*
X130610587Y-61197381D01*
X130610587Y-61197381D02*
X130705825Y-61149762D01*
X130705825Y-61149762D02*
X130801063Y-61149762D01*
X130991540Y-61483095D02*
X131372492Y-61483095D01*
X131134397Y-62149762D02*
X131134397Y-61292619D01*
X131134397Y-61292619D02*
X131182016Y-61197381D01*
X131182016Y-61197381D02*
X131277254Y-61149762D01*
X131277254Y-61149762D02*
X131372492Y-61149762D01*
X132086778Y-62102143D02*
X131991540Y-62149762D01*
X131991540Y-62149762D02*
X131801064Y-62149762D01*
X131801064Y-62149762D02*
X131705826Y-62102143D01*
X131705826Y-62102143D02*
X131658207Y-62006904D01*
X131658207Y-62006904D02*
X131658207Y-61625952D01*
X131658207Y-61625952D02*
X131705826Y-61530714D01*
X131705826Y-61530714D02*
X131801064Y-61483095D01*
X131801064Y-61483095D02*
X131991540Y-61483095D01*
X131991540Y-61483095D02*
X132086778Y-61530714D01*
X132086778Y-61530714D02*
X132134397Y-61625952D01*
X132134397Y-61625952D02*
X132134397Y-61721190D01*
X132134397Y-61721190D02*
X131658207Y-61816428D01*
X132562969Y-62149762D02*
X132562969Y-61483095D01*
X132562969Y-61673571D02*
X132610588Y-61578333D01*
X132610588Y-61578333D02*
X132658207Y-61530714D01*
X132658207Y-61530714D02*
X132753445Y-61483095D01*
X132753445Y-61483095D02*
X132848683Y-61483095D01*
X133562969Y-62102143D02*
X133467731Y-62149762D01*
X133467731Y-62149762D02*
X133277255Y-62149762D01*
X133277255Y-62149762D02*
X133182017Y-62102143D01*
X133182017Y-62102143D02*
X133134398Y-62006904D01*
X133134398Y-62006904D02*
X133134398Y-61625952D01*
X133134398Y-61625952D02*
X133182017Y-61530714D01*
X133182017Y-61530714D02*
X133277255Y-61483095D01*
X133277255Y-61483095D02*
X133467731Y-61483095D01*
X133467731Y-61483095D02*
X133562969Y-61530714D01*
X133562969Y-61530714D02*
X133610588Y-61625952D01*
X133610588Y-61625952D02*
X133610588Y-61721190D01*
X133610588Y-61721190D02*
X133134398Y-61816428D01*
X134039160Y-61483095D02*
X134039160Y-62149762D01*
X134039160Y-61578333D02*
X134086779Y-61530714D01*
X134086779Y-61530714D02*
X134182017Y-61483095D01*
X134182017Y-61483095D02*
X134324874Y-61483095D01*
X134324874Y-61483095D02*
X134420112Y-61530714D01*
X134420112Y-61530714D02*
X134467731Y-61625952D01*
X134467731Y-61625952D02*
X134467731Y-62149762D01*
X134801065Y-61483095D02*
X135182017Y-61483095D01*
X134943922Y-61149762D02*
X134943922Y-62006904D01*
X134943922Y-62006904D02*
X134991541Y-62102143D01*
X134991541Y-62102143D02*
X135086779Y-62149762D01*
X135086779Y-62149762D02*
X135182017Y-62149762D01*
X135515351Y-62149762D02*
X135515351Y-61483095D01*
X135515351Y-61149762D02*
X135467732Y-61197381D01*
X135467732Y-61197381D02*
X135515351Y-61245000D01*
X135515351Y-61245000D02*
X135562970Y-61197381D01*
X135562970Y-61197381D02*
X135515351Y-61149762D01*
X135515351Y-61149762D02*
X135515351Y-61245000D01*
X136420112Y-62149762D02*
X136420112Y-61625952D01*
X136420112Y-61625952D02*
X136372493Y-61530714D01*
X136372493Y-61530714D02*
X136277255Y-61483095D01*
X136277255Y-61483095D02*
X136086779Y-61483095D01*
X136086779Y-61483095D02*
X135991541Y-61530714D01*
X136420112Y-62102143D02*
X136324874Y-62149762D01*
X136324874Y-62149762D02*
X136086779Y-62149762D01*
X136086779Y-62149762D02*
X135991541Y-62102143D01*
X135991541Y-62102143D02*
X135943922Y-62006904D01*
X135943922Y-62006904D02*
X135943922Y-61911666D01*
X135943922Y-61911666D02*
X135991541Y-61816428D01*
X135991541Y-61816428D02*
X136086779Y-61768809D01*
X136086779Y-61768809D02*
X136324874Y-61768809D01*
X136324874Y-61768809D02*
X136420112Y-61721190D01*
X137039160Y-62149762D02*
X136943922Y-62102143D01*
X136943922Y-62102143D02*
X136896303Y-62006904D01*
X136896303Y-62006904D02*
X136896303Y-61149762D01*
X138467732Y-62530714D02*
X138420113Y-62483095D01*
X138420113Y-62483095D02*
X138324875Y-62340238D01*
X138324875Y-62340238D02*
X138277256Y-62245000D01*
X138277256Y-62245000D02*
X138229637Y-62102143D01*
X138229637Y-62102143D02*
X138182018Y-61864047D01*
X138182018Y-61864047D02*
X138182018Y-61673571D01*
X138182018Y-61673571D02*
X138229637Y-61435476D01*
X138229637Y-61435476D02*
X138277256Y-61292619D01*
X138277256Y-61292619D02*
X138324875Y-61197381D01*
X138324875Y-61197381D02*
X138420113Y-61054523D01*
X138420113Y-61054523D02*
X138467732Y-61006904D01*
X138753447Y-61149762D02*
X139420113Y-61149762D01*
X139420113Y-61149762D02*
X138753447Y-62149762D01*
X138753447Y-62149762D02*
X139420113Y-62149762D01*
X139943923Y-62149762D02*
X139848685Y-62102143D01*
X139848685Y-62102143D02*
X139801066Y-62054523D01*
X139801066Y-62054523D02*
X139753447Y-61959285D01*
X139753447Y-61959285D02*
X139753447Y-61673571D01*
X139753447Y-61673571D02*
X139801066Y-61578333D01*
X139801066Y-61578333D02*
X139848685Y-61530714D01*
X139848685Y-61530714D02*
X139943923Y-61483095D01*
X139943923Y-61483095D02*
X140086780Y-61483095D01*
X140086780Y-61483095D02*
X140182018Y-61530714D01*
X140182018Y-61530714D02*
X140229637Y-61578333D01*
X140229637Y-61578333D02*
X140277256Y-61673571D01*
X140277256Y-61673571D02*
X140277256Y-61959285D01*
X140277256Y-61959285D02*
X140229637Y-62054523D01*
X140229637Y-62054523D02*
X140182018Y-62102143D01*
X140182018Y-62102143D02*
X140086780Y-62149762D01*
X140086780Y-62149762D02*
X139943923Y-62149762D01*
X141134399Y-62149762D02*
X141134399Y-61149762D01*
X141134399Y-62102143D02*
X141039161Y-62149762D01*
X141039161Y-62149762D02*
X140848685Y-62149762D01*
X140848685Y-62149762D02*
X140753447Y-62102143D01*
X140753447Y-62102143D02*
X140705828Y-62054523D01*
X140705828Y-62054523D02*
X140658209Y-61959285D01*
X140658209Y-61959285D02*
X140658209Y-61673571D01*
X140658209Y-61673571D02*
X140705828Y-61578333D01*
X140705828Y-61578333D02*
X140753447Y-61530714D01*
X140753447Y-61530714D02*
X140848685Y-61483095D01*
X140848685Y-61483095D02*
X141039161Y-61483095D01*
X141039161Y-61483095D02*
X141134399Y-61530714D01*
X142039161Y-62149762D02*
X142039161Y-61149762D01*
X142039161Y-62102143D02*
X141943923Y-62149762D01*
X141943923Y-62149762D02*
X141753447Y-62149762D01*
X141753447Y-62149762D02*
X141658209Y-62102143D01*
X141658209Y-62102143D02*
X141610590Y-62054523D01*
X141610590Y-62054523D02*
X141562971Y-61959285D01*
X141562971Y-61959285D02*
X141562971Y-61673571D01*
X141562971Y-61673571D02*
X141610590Y-61578333D01*
X141610590Y-61578333D02*
X141658209Y-61530714D01*
X141658209Y-61530714D02*
X141753447Y-61483095D01*
X141753447Y-61483095D02*
X141943923Y-61483095D01*
X141943923Y-61483095D02*
X142039161Y-61530714D01*
X142515352Y-61625952D02*
X143277257Y-61625952D01*
X143277257Y-61911666D02*
X142515352Y-61911666D01*
X144182018Y-61483095D02*
X144182018Y-62149762D01*
X143943923Y-61102143D02*
X143705828Y-61816428D01*
X143705828Y-61816428D02*
X144324875Y-61816428D01*
X145182018Y-61149762D02*
X144705828Y-61149762D01*
X144705828Y-61149762D02*
X144658209Y-61625952D01*
X144658209Y-61625952D02*
X144705828Y-61578333D01*
X144705828Y-61578333D02*
X144801066Y-61530714D01*
X144801066Y-61530714D02*
X145039161Y-61530714D01*
X145039161Y-61530714D02*
X145134399Y-61578333D01*
X145134399Y-61578333D02*
X145182018Y-61625952D01*
X145182018Y-61625952D02*
X145229637Y-61721190D01*
X145229637Y-61721190D02*
X145229637Y-61959285D01*
X145229637Y-61959285D02*
X145182018Y-62054523D01*
X145182018Y-62054523D02*
X145134399Y-62102143D01*
X145134399Y-62102143D02*
X145039161Y-62149762D01*
X145039161Y-62149762D02*
X144801066Y-62149762D01*
X144801066Y-62149762D02*
X144705828Y-62102143D01*
X144705828Y-62102143D02*
X144658209Y-62054523D01*
X146610590Y-61149762D02*
X146801066Y-61149762D01*
X146801066Y-61149762D02*
X146896304Y-61197381D01*
X146896304Y-61197381D02*
X146991542Y-61292619D01*
X146991542Y-61292619D02*
X147039161Y-61483095D01*
X147039161Y-61483095D02*
X147039161Y-61816428D01*
X147039161Y-61816428D02*
X146991542Y-62006904D01*
X146991542Y-62006904D02*
X146896304Y-62102143D01*
X146896304Y-62102143D02*
X146801066Y-62149762D01*
X146801066Y-62149762D02*
X146610590Y-62149762D01*
X146610590Y-62149762D02*
X146515352Y-62102143D01*
X146515352Y-62102143D02*
X146420114Y-62006904D01*
X146420114Y-62006904D02*
X146372495Y-61816428D01*
X146372495Y-61816428D02*
X146372495Y-61483095D01*
X146372495Y-61483095D02*
X146420114Y-61292619D01*
X146420114Y-61292619D02*
X146515352Y-61197381D01*
X146515352Y-61197381D02*
X146610590Y-61149762D01*
X147467733Y-62149762D02*
X147467733Y-61149762D01*
X147896304Y-62149762D02*
X147896304Y-61625952D01*
X147896304Y-61625952D02*
X147848685Y-61530714D01*
X147848685Y-61530714D02*
X147753447Y-61483095D01*
X147753447Y-61483095D02*
X147610590Y-61483095D01*
X147610590Y-61483095D02*
X147515352Y-61530714D01*
X147515352Y-61530714D02*
X147467733Y-61578333D01*
X148372495Y-62149762D02*
X148372495Y-61483095D01*
X148372495Y-61578333D02*
X148420114Y-61530714D01*
X148420114Y-61530714D02*
X148515352Y-61483095D01*
X148515352Y-61483095D02*
X148658209Y-61483095D01*
X148658209Y-61483095D02*
X148753447Y-61530714D01*
X148753447Y-61530714D02*
X148801066Y-61625952D01*
X148801066Y-61625952D02*
X148801066Y-62149762D01*
X148801066Y-61625952D02*
X148848685Y-61530714D01*
X148848685Y-61530714D02*
X148943923Y-61483095D01*
X148943923Y-61483095D02*
X149086780Y-61483095D01*
X149086780Y-61483095D02*
X149182019Y-61530714D01*
X149182019Y-61530714D02*
X149229638Y-61625952D01*
X149229638Y-61625952D02*
X149229638Y-62149762D01*
X149658209Y-62102143D02*
X149753447Y-62149762D01*
X149753447Y-62149762D02*
X149943923Y-62149762D01*
X149943923Y-62149762D02*
X150039161Y-62102143D01*
X150039161Y-62102143D02*
X150086780Y-62006904D01*
X150086780Y-62006904D02*
X150086780Y-61959285D01*
X150086780Y-61959285D02*
X150039161Y-61864047D01*
X150039161Y-61864047D02*
X149943923Y-61816428D01*
X149943923Y-61816428D02*
X149801066Y-61816428D01*
X149801066Y-61816428D02*
X149705828Y-61768809D01*
X149705828Y-61768809D02*
X149658209Y-61673571D01*
X149658209Y-61673571D02*
X149658209Y-61625952D01*
X149658209Y-61625952D02*
X149705828Y-61530714D01*
X149705828Y-61530714D02*
X149801066Y-61483095D01*
X149801066Y-61483095D02*
X149943923Y-61483095D01*
X149943923Y-61483095D02*
X150039161Y-61530714D01*
X150420114Y-62530714D02*
X150467733Y-62483095D01*
X150467733Y-62483095D02*
X150562971Y-62340238D01*
X150562971Y-62340238D02*
X150610590Y-62245000D01*
X150610590Y-62245000D02*
X150658209Y-62102143D01*
X150658209Y-62102143D02*
X150705828Y-61864047D01*
X150705828Y-61864047D02*
X150705828Y-61673571D01*
X150705828Y-61673571D02*
X150658209Y-61435476D01*
X150658209Y-61435476D02*
X150610590Y-61292619D01*
X150610590Y-61292619D02*
X150562971Y-61197381D01*
X150562971Y-61197381D02*
X150467733Y-61054523D01*
X150467733Y-61054523D02*
X150420114Y-61006904D01*
X151229638Y-62102143D02*
X151229638Y-62149762D01*
X151229638Y-62149762D02*
X151182019Y-62245000D01*
X151182019Y-62245000D02*
X151134400Y-62292619D01*
X152324876Y-61149762D02*
X152943923Y-61149762D01*
X152943923Y-61149762D02*
X152610590Y-61530714D01*
X152610590Y-61530714D02*
X152753447Y-61530714D01*
X152753447Y-61530714D02*
X152848685Y-61578333D01*
X152848685Y-61578333D02*
X152896304Y-61625952D01*
X152896304Y-61625952D02*
X152943923Y-61721190D01*
X152943923Y-61721190D02*
X152943923Y-61959285D01*
X152943923Y-61959285D02*
X152896304Y-62054523D01*
X152896304Y-62054523D02*
X152848685Y-62102143D01*
X152848685Y-62102143D02*
X152753447Y-62149762D01*
X152753447Y-62149762D02*
X152467733Y-62149762D01*
X152467733Y-62149762D02*
X152372495Y-62102143D01*
X152372495Y-62102143D02*
X152324876Y-62054523D01*
X153562971Y-61149762D02*
X153658209Y-61149762D01*
X153658209Y-61149762D02*
X153753447Y-61197381D01*
X153753447Y-61197381D02*
X153801066Y-61245000D01*
X153801066Y-61245000D02*
X153848685Y-61340238D01*
X153848685Y-61340238D02*
X153896304Y-61530714D01*
X153896304Y-61530714D02*
X153896304Y-61768809D01*
X153896304Y-61768809D02*
X153848685Y-61959285D01*
X153848685Y-61959285D02*
X153801066Y-62054523D01*
X153801066Y-62054523D02*
X153753447Y-62102143D01*
X153753447Y-62102143D02*
X153658209Y-62149762D01*
X153658209Y-62149762D02*
X153562971Y-62149762D01*
X153562971Y-62149762D02*
X153467733Y-62102143D01*
X153467733Y-62102143D02*
X153420114Y-62054523D01*
X153420114Y-62054523D02*
X153372495Y-61959285D01*
X153372495Y-61959285D02*
X153324876Y-61768809D01*
X153324876Y-61768809D02*
X153324876Y-61530714D01*
X153324876Y-61530714D02*
X153372495Y-61340238D01*
X153372495Y-61340238D02*
X153420114Y-61245000D01*
X153420114Y-61245000D02*
X153467733Y-61197381D01*
X153467733Y-61197381D02*
X153562971Y-61149762D01*
X129277254Y-62759706D02*
X129467730Y-62759706D01*
X129467730Y-62759706D02*
X129562968Y-62807325D01*
X129562968Y-62807325D02*
X129658206Y-62902563D01*
X129658206Y-62902563D02*
X129705825Y-63093039D01*
X129705825Y-63093039D02*
X129705825Y-63426372D01*
X129705825Y-63426372D02*
X129658206Y-63616848D01*
X129658206Y-63616848D02*
X129562968Y-63712087D01*
X129562968Y-63712087D02*
X129467730Y-63759706D01*
X129467730Y-63759706D02*
X129277254Y-63759706D01*
X129277254Y-63759706D02*
X129182016Y-63712087D01*
X129182016Y-63712087D02*
X129086778Y-63616848D01*
X129086778Y-63616848D02*
X129039159Y-63426372D01*
X129039159Y-63426372D02*
X129039159Y-63093039D01*
X129039159Y-63093039D02*
X129086778Y-62902563D01*
X129086778Y-62902563D02*
X129182016Y-62807325D01*
X129182016Y-62807325D02*
X129277254Y-62759706D01*
X130134397Y-63759706D02*
X130134397Y-62759706D01*
X130562968Y-63759706D02*
X130562968Y-63235896D01*
X130562968Y-63235896D02*
X130515349Y-63140658D01*
X130515349Y-63140658D02*
X130420111Y-63093039D01*
X130420111Y-63093039D02*
X130277254Y-63093039D01*
X130277254Y-63093039D02*
X130182016Y-63140658D01*
X130182016Y-63140658D02*
X130134397Y-63188277D01*
X131039159Y-63759706D02*
X131039159Y-63093039D01*
X131039159Y-63188277D02*
X131086778Y-63140658D01*
X131086778Y-63140658D02*
X131182016Y-63093039D01*
X131182016Y-63093039D02*
X131324873Y-63093039D01*
X131324873Y-63093039D02*
X131420111Y-63140658D01*
X131420111Y-63140658D02*
X131467730Y-63235896D01*
X131467730Y-63235896D02*
X131467730Y-63759706D01*
X131467730Y-63235896D02*
X131515349Y-63140658D01*
X131515349Y-63140658D02*
X131610587Y-63093039D01*
X131610587Y-63093039D02*
X131753444Y-63093039D01*
X131753444Y-63093039D02*
X131848683Y-63140658D01*
X131848683Y-63140658D02*
X131896302Y-63235896D01*
X131896302Y-63235896D02*
X131896302Y-63759706D01*
X132324873Y-63712087D02*
X132420111Y-63759706D01*
X132420111Y-63759706D02*
X132610587Y-63759706D01*
X132610587Y-63759706D02*
X132705825Y-63712087D01*
X132705825Y-63712087D02*
X132753444Y-63616848D01*
X132753444Y-63616848D02*
X132753444Y-63569229D01*
X132753444Y-63569229D02*
X132705825Y-63473991D01*
X132705825Y-63473991D02*
X132610587Y-63426372D01*
X132610587Y-63426372D02*
X132467730Y-63426372D01*
X132467730Y-63426372D02*
X132372492Y-63378753D01*
X132372492Y-63378753D02*
X132324873Y-63283515D01*
X132324873Y-63283515D02*
X132324873Y-63235896D01*
X132324873Y-63235896D02*
X132372492Y-63140658D01*
X132372492Y-63140658D02*
X132467730Y-63093039D01*
X132467730Y-63093039D02*
X132610587Y-63093039D01*
X132610587Y-63093039D02*
X132705825Y-63140658D01*
X134515349Y-63664467D02*
X134467730Y-63712087D01*
X134467730Y-63712087D02*
X134324873Y-63759706D01*
X134324873Y-63759706D02*
X134229635Y-63759706D01*
X134229635Y-63759706D02*
X134086778Y-63712087D01*
X134086778Y-63712087D02*
X133991540Y-63616848D01*
X133991540Y-63616848D02*
X133943921Y-63521610D01*
X133943921Y-63521610D02*
X133896302Y-63331134D01*
X133896302Y-63331134D02*
X133896302Y-63188277D01*
X133896302Y-63188277D02*
X133943921Y-62997801D01*
X133943921Y-62997801D02*
X133991540Y-62902563D01*
X133991540Y-62902563D02*
X134086778Y-62807325D01*
X134086778Y-62807325D02*
X134229635Y-62759706D01*
X134229635Y-62759706D02*
X134324873Y-62759706D01*
X134324873Y-62759706D02*
X134467730Y-62807325D01*
X134467730Y-62807325D02*
X134515349Y-62854944D01*
X135086778Y-63759706D02*
X134991540Y-63712087D01*
X134991540Y-63712087D02*
X134943921Y-63664467D01*
X134943921Y-63664467D02*
X134896302Y-63569229D01*
X134896302Y-63569229D02*
X134896302Y-63283515D01*
X134896302Y-63283515D02*
X134943921Y-63188277D01*
X134943921Y-63188277D02*
X134991540Y-63140658D01*
X134991540Y-63140658D02*
X135086778Y-63093039D01*
X135086778Y-63093039D02*
X135229635Y-63093039D01*
X135229635Y-63093039D02*
X135324873Y-63140658D01*
X135324873Y-63140658D02*
X135372492Y-63188277D01*
X135372492Y-63188277D02*
X135420111Y-63283515D01*
X135420111Y-63283515D02*
X135420111Y-63569229D01*
X135420111Y-63569229D02*
X135372492Y-63664467D01*
X135372492Y-63664467D02*
X135324873Y-63712087D01*
X135324873Y-63712087D02*
X135229635Y-63759706D01*
X135229635Y-63759706D02*
X135086778Y-63759706D01*
X135848683Y-63759706D02*
X135848683Y-63093039D01*
X135848683Y-63188277D02*
X135896302Y-63140658D01*
X135896302Y-63140658D02*
X135991540Y-63093039D01*
X135991540Y-63093039D02*
X136134397Y-63093039D01*
X136134397Y-63093039D02*
X136229635Y-63140658D01*
X136229635Y-63140658D02*
X136277254Y-63235896D01*
X136277254Y-63235896D02*
X136277254Y-63759706D01*
X136277254Y-63235896D02*
X136324873Y-63140658D01*
X136324873Y-63140658D02*
X136420111Y-63093039D01*
X136420111Y-63093039D02*
X136562968Y-63093039D01*
X136562968Y-63093039D02*
X136658207Y-63140658D01*
X136658207Y-63140658D02*
X136705826Y-63235896D01*
X136705826Y-63235896D02*
X136705826Y-63759706D01*
X137182016Y-63759706D02*
X137182016Y-63093039D01*
X137182016Y-63188277D02*
X137229635Y-63140658D01*
X137229635Y-63140658D02*
X137324873Y-63093039D01*
X137324873Y-63093039D02*
X137467730Y-63093039D01*
X137467730Y-63093039D02*
X137562968Y-63140658D01*
X137562968Y-63140658D02*
X137610587Y-63235896D01*
X137610587Y-63235896D02*
X137610587Y-63759706D01*
X137610587Y-63235896D02*
X137658206Y-63140658D01*
X137658206Y-63140658D02*
X137753444Y-63093039D01*
X137753444Y-63093039D02*
X137896301Y-63093039D01*
X137896301Y-63093039D02*
X137991540Y-63140658D01*
X137991540Y-63140658D02*
X138039159Y-63235896D01*
X138039159Y-63235896D02*
X138039159Y-63759706D01*
X138658206Y-63759706D02*
X138562968Y-63712087D01*
X138562968Y-63712087D02*
X138515349Y-63664467D01*
X138515349Y-63664467D02*
X138467730Y-63569229D01*
X138467730Y-63569229D02*
X138467730Y-63283515D01*
X138467730Y-63283515D02*
X138515349Y-63188277D01*
X138515349Y-63188277D02*
X138562968Y-63140658D01*
X138562968Y-63140658D02*
X138658206Y-63093039D01*
X138658206Y-63093039D02*
X138801063Y-63093039D01*
X138801063Y-63093039D02*
X138896301Y-63140658D01*
X138896301Y-63140658D02*
X138943920Y-63188277D01*
X138943920Y-63188277D02*
X138991539Y-63283515D01*
X138991539Y-63283515D02*
X138991539Y-63569229D01*
X138991539Y-63569229D02*
X138943920Y-63664467D01*
X138943920Y-63664467D02*
X138896301Y-63712087D01*
X138896301Y-63712087D02*
X138801063Y-63759706D01*
X138801063Y-63759706D02*
X138658206Y-63759706D01*
X139420111Y-63093039D02*
X139420111Y-63759706D01*
X139420111Y-63188277D02*
X139467730Y-63140658D01*
X139467730Y-63140658D02*
X139562968Y-63093039D01*
X139562968Y-63093039D02*
X139705825Y-63093039D01*
X139705825Y-63093039D02*
X139801063Y-63140658D01*
X139801063Y-63140658D02*
X139848682Y-63235896D01*
X139848682Y-63235896D02*
X139848682Y-63759706D01*
X141372492Y-64140658D02*
X141324873Y-64093039D01*
X141324873Y-64093039D02*
X141229635Y-63950182D01*
X141229635Y-63950182D02*
X141182016Y-63854944D01*
X141182016Y-63854944D02*
X141134397Y-63712087D01*
X141134397Y-63712087D02*
X141086778Y-63473991D01*
X141086778Y-63473991D02*
X141086778Y-63283515D01*
X141086778Y-63283515D02*
X141134397Y-63045420D01*
X141134397Y-63045420D02*
X141182016Y-62902563D01*
X141182016Y-62902563D02*
X141229635Y-62807325D01*
X141229635Y-62807325D02*
X141324873Y-62664467D01*
X141324873Y-62664467D02*
X141372492Y-62616848D01*
X141658207Y-62759706D02*
X142324873Y-62759706D01*
X142324873Y-62759706D02*
X141658207Y-63759706D01*
X141658207Y-63759706D02*
X142324873Y-63759706D01*
X143086778Y-63712087D02*
X142991540Y-63759706D01*
X142991540Y-63759706D02*
X142801064Y-63759706D01*
X142801064Y-63759706D02*
X142705826Y-63712087D01*
X142705826Y-63712087D02*
X142658207Y-63616848D01*
X142658207Y-63616848D02*
X142658207Y-63235896D01*
X142658207Y-63235896D02*
X142705826Y-63140658D01*
X142705826Y-63140658D02*
X142801064Y-63093039D01*
X142801064Y-63093039D02*
X142991540Y-63093039D01*
X142991540Y-63093039D02*
X143086778Y-63140658D01*
X143086778Y-63140658D02*
X143134397Y-63235896D01*
X143134397Y-63235896D02*
X143134397Y-63331134D01*
X143134397Y-63331134D02*
X142658207Y-63426372D01*
X143467731Y-63093039D02*
X143705826Y-63759706D01*
X143705826Y-63759706D02*
X143943921Y-63093039D01*
X144705826Y-63712087D02*
X144610588Y-63759706D01*
X144610588Y-63759706D02*
X144420112Y-63759706D01*
X144420112Y-63759706D02*
X144324874Y-63712087D01*
X144324874Y-63712087D02*
X144277255Y-63616848D01*
X144277255Y-63616848D02*
X144277255Y-63235896D01*
X144277255Y-63235896D02*
X144324874Y-63140658D01*
X144324874Y-63140658D02*
X144420112Y-63093039D01*
X144420112Y-63093039D02*
X144610588Y-63093039D01*
X144610588Y-63093039D02*
X144705826Y-63140658D01*
X144705826Y-63140658D02*
X144753445Y-63235896D01*
X144753445Y-63235896D02*
X144753445Y-63331134D01*
X144753445Y-63331134D02*
X144277255Y-63426372D01*
X145182017Y-63093039D02*
X145182017Y-63759706D01*
X145182017Y-63188277D02*
X145229636Y-63140658D01*
X145229636Y-63140658D02*
X145324874Y-63093039D01*
X145324874Y-63093039D02*
X145467731Y-63093039D01*
X145467731Y-63093039D02*
X145562969Y-63140658D01*
X145562969Y-63140658D02*
X145610588Y-63235896D01*
X145610588Y-63235896D02*
X145610588Y-63759706D01*
X146086779Y-63235896D02*
X146848684Y-63235896D01*
X146848684Y-63521610D02*
X146086779Y-63521610D01*
X147753445Y-62759706D02*
X147562969Y-62759706D01*
X147562969Y-62759706D02*
X147467731Y-62807325D01*
X147467731Y-62807325D02*
X147420112Y-62854944D01*
X147420112Y-62854944D02*
X147324874Y-62997801D01*
X147324874Y-62997801D02*
X147277255Y-63188277D01*
X147277255Y-63188277D02*
X147277255Y-63569229D01*
X147277255Y-63569229D02*
X147324874Y-63664467D01*
X147324874Y-63664467D02*
X147372493Y-63712087D01*
X147372493Y-63712087D02*
X147467731Y-63759706D01*
X147467731Y-63759706D02*
X147658207Y-63759706D01*
X147658207Y-63759706D02*
X147753445Y-63712087D01*
X147753445Y-63712087D02*
X147801064Y-63664467D01*
X147801064Y-63664467D02*
X147848683Y-63569229D01*
X147848683Y-63569229D02*
X147848683Y-63331134D01*
X147848683Y-63331134D02*
X147801064Y-63235896D01*
X147801064Y-63235896D02*
X147753445Y-63188277D01*
X147753445Y-63188277D02*
X147658207Y-63140658D01*
X147658207Y-63140658D02*
X147467731Y-63140658D01*
X147467731Y-63140658D02*
X147372493Y-63188277D01*
X147372493Y-63188277D02*
X147324874Y-63235896D01*
X147324874Y-63235896D02*
X147277255Y-63331134D01*
X148467731Y-62759706D02*
X148562969Y-62759706D01*
X148562969Y-62759706D02*
X148658207Y-62807325D01*
X148658207Y-62807325D02*
X148705826Y-62854944D01*
X148705826Y-62854944D02*
X148753445Y-62950182D01*
X148753445Y-62950182D02*
X148801064Y-63140658D01*
X148801064Y-63140658D02*
X148801064Y-63378753D01*
X148801064Y-63378753D02*
X148753445Y-63569229D01*
X148753445Y-63569229D02*
X148705826Y-63664467D01*
X148705826Y-63664467D02*
X148658207Y-63712087D01*
X148658207Y-63712087D02*
X148562969Y-63759706D01*
X148562969Y-63759706D02*
X148467731Y-63759706D01*
X148467731Y-63759706D02*
X148372493Y-63712087D01*
X148372493Y-63712087D02*
X148324874Y-63664467D01*
X148324874Y-63664467D02*
X148277255Y-63569229D01*
X148277255Y-63569229D02*
X148229636Y-63378753D01*
X148229636Y-63378753D02*
X148229636Y-63140658D01*
X148229636Y-63140658D02*
X148277255Y-62950182D01*
X148277255Y-62950182D02*
X148324874Y-62854944D01*
X148324874Y-62854944D02*
X148372493Y-62807325D01*
X148372493Y-62807325D02*
X148467731Y-62759706D01*
X150182017Y-62759706D02*
X150372493Y-62759706D01*
X150372493Y-62759706D02*
X150467731Y-62807325D01*
X150467731Y-62807325D02*
X150562969Y-62902563D01*
X150562969Y-62902563D02*
X150610588Y-63093039D01*
X150610588Y-63093039D02*
X150610588Y-63426372D01*
X150610588Y-63426372D02*
X150562969Y-63616848D01*
X150562969Y-63616848D02*
X150467731Y-63712087D01*
X150467731Y-63712087D02*
X150372493Y-63759706D01*
X150372493Y-63759706D02*
X150182017Y-63759706D01*
X150182017Y-63759706D02*
X150086779Y-63712087D01*
X150086779Y-63712087D02*
X149991541Y-63616848D01*
X149991541Y-63616848D02*
X149943922Y-63426372D01*
X149943922Y-63426372D02*
X149943922Y-63093039D01*
X149943922Y-63093039D02*
X149991541Y-62902563D01*
X149991541Y-62902563D02*
X150086779Y-62807325D01*
X150086779Y-62807325D02*
X150182017Y-62759706D01*
X151039160Y-63759706D02*
X151039160Y-62759706D01*
X151467731Y-63759706D02*
X151467731Y-63235896D01*
X151467731Y-63235896D02*
X151420112Y-63140658D01*
X151420112Y-63140658D02*
X151324874Y-63093039D01*
X151324874Y-63093039D02*
X151182017Y-63093039D01*
X151182017Y-63093039D02*
X151086779Y-63140658D01*
X151086779Y-63140658D02*
X151039160Y-63188277D01*
X151943922Y-63759706D02*
X151943922Y-63093039D01*
X151943922Y-63188277D02*
X151991541Y-63140658D01*
X151991541Y-63140658D02*
X152086779Y-63093039D01*
X152086779Y-63093039D02*
X152229636Y-63093039D01*
X152229636Y-63093039D02*
X152324874Y-63140658D01*
X152324874Y-63140658D02*
X152372493Y-63235896D01*
X152372493Y-63235896D02*
X152372493Y-63759706D01*
X152372493Y-63235896D02*
X152420112Y-63140658D01*
X152420112Y-63140658D02*
X152515350Y-63093039D01*
X152515350Y-63093039D02*
X152658207Y-63093039D01*
X152658207Y-63093039D02*
X152753446Y-63140658D01*
X152753446Y-63140658D02*
X152801065Y-63235896D01*
X152801065Y-63235896D02*
X152801065Y-63759706D01*
X153229636Y-63712087D02*
X153324874Y-63759706D01*
X153324874Y-63759706D02*
X153515350Y-63759706D01*
X153515350Y-63759706D02*
X153610588Y-63712087D01*
X153610588Y-63712087D02*
X153658207Y-63616848D01*
X153658207Y-63616848D02*
X153658207Y-63569229D01*
X153658207Y-63569229D02*
X153610588Y-63473991D01*
X153610588Y-63473991D02*
X153515350Y-63426372D01*
X153515350Y-63426372D02*
X153372493Y-63426372D01*
X153372493Y-63426372D02*
X153277255Y-63378753D01*
X153277255Y-63378753D02*
X153229636Y-63283515D01*
X153229636Y-63283515D02*
X153229636Y-63235896D01*
X153229636Y-63235896D02*
X153277255Y-63140658D01*
X153277255Y-63140658D02*
X153372493Y-63093039D01*
X153372493Y-63093039D02*
X153515350Y-63093039D01*
X153515350Y-63093039D02*
X153610588Y-63140658D01*
X153991541Y-64140658D02*
X154039160Y-64093039D01*
X154039160Y-64093039D02*
X154134398Y-63950182D01*
X154134398Y-63950182D02*
X154182017Y-63854944D01*
X154182017Y-63854944D02*
X154229636Y-63712087D01*
X154229636Y-63712087D02*
X154277255Y-63473991D01*
X154277255Y-63473991D02*
X154277255Y-63283515D01*
X154277255Y-63283515D02*
X154229636Y-63045420D01*
X154229636Y-63045420D02*
X154182017Y-62902563D01*
X154182017Y-62902563D02*
X154134398Y-62807325D01*
X154134398Y-62807325D02*
X154039160Y-62664467D01*
X154039160Y-62664467D02*
X153991541Y-62616848D01*
X154753446Y-63664467D02*
X154801065Y-63712087D01*
X154801065Y-63712087D02*
X154753446Y-63759706D01*
X154753446Y-63759706D02*
X154705827Y-63712087D01*
X154705827Y-63712087D02*
X154753446Y-63664467D01*
X154753446Y-63664467D02*
X154753446Y-63759706D01*
X129372492Y-65979594D02*
X129372492Y-66693879D01*
X129372492Y-66693879D02*
X129324873Y-66836736D01*
X129324873Y-66836736D02*
X129229635Y-66931975D01*
X129229635Y-66931975D02*
X129086778Y-66979594D01*
X129086778Y-66979594D02*
X128991540Y-66979594D01*
X130324873Y-66979594D02*
X129848683Y-66979594D01*
X129848683Y-66979594D02*
X129848683Y-65979594D01*
X131229635Y-66884355D02*
X131182016Y-66931975D01*
X131182016Y-66931975D02*
X131039159Y-66979594D01*
X131039159Y-66979594D02*
X130943921Y-66979594D01*
X130943921Y-66979594D02*
X130801064Y-66931975D01*
X130801064Y-66931975D02*
X130705826Y-66836736D01*
X130705826Y-66836736D02*
X130658207Y-66741498D01*
X130658207Y-66741498D02*
X130610588Y-66551022D01*
X130610588Y-66551022D02*
X130610588Y-66408165D01*
X130610588Y-66408165D02*
X130658207Y-66217689D01*
X130658207Y-66217689D02*
X130705826Y-66122451D01*
X130705826Y-66122451D02*
X130801064Y-66027213D01*
X130801064Y-66027213D02*
X130943921Y-65979594D01*
X130943921Y-65979594D02*
X131039159Y-65979594D01*
X131039159Y-65979594D02*
X131182016Y-66027213D01*
X131182016Y-66027213D02*
X131229635Y-66074832D01*
X131658207Y-66979594D02*
X131658207Y-65979594D01*
X131658207Y-65979594D02*
X132039159Y-65979594D01*
X132039159Y-65979594D02*
X132134397Y-66027213D01*
X132134397Y-66027213D02*
X132182016Y-66074832D01*
X132182016Y-66074832D02*
X132229635Y-66170070D01*
X132229635Y-66170070D02*
X132229635Y-66312927D01*
X132229635Y-66312927D02*
X132182016Y-66408165D01*
X132182016Y-66408165D02*
X132134397Y-66455784D01*
X132134397Y-66455784D02*
X132039159Y-66503403D01*
X132039159Y-66503403D02*
X131658207Y-66503403D01*
X133229635Y-66884355D02*
X133182016Y-66931975D01*
X133182016Y-66931975D02*
X133039159Y-66979594D01*
X133039159Y-66979594D02*
X132943921Y-66979594D01*
X132943921Y-66979594D02*
X132801064Y-66931975D01*
X132801064Y-66931975D02*
X132705826Y-66836736D01*
X132705826Y-66836736D02*
X132658207Y-66741498D01*
X132658207Y-66741498D02*
X132610588Y-66551022D01*
X132610588Y-66551022D02*
X132610588Y-66408165D01*
X132610588Y-66408165D02*
X132658207Y-66217689D01*
X132658207Y-66217689D02*
X132705826Y-66122451D01*
X132705826Y-66122451D02*
X132801064Y-66027213D01*
X132801064Y-66027213D02*
X132943921Y-65979594D01*
X132943921Y-65979594D02*
X133039159Y-65979594D01*
X133039159Y-65979594D02*
X133182016Y-66027213D01*
X133182016Y-66027213D02*
X133229635Y-66074832D01*
X133991540Y-66455784D02*
X134134397Y-66503403D01*
X134134397Y-66503403D02*
X134182016Y-66551022D01*
X134182016Y-66551022D02*
X134229635Y-66646260D01*
X134229635Y-66646260D02*
X134229635Y-66789117D01*
X134229635Y-66789117D02*
X134182016Y-66884355D01*
X134182016Y-66884355D02*
X134134397Y-66931975D01*
X134134397Y-66931975D02*
X134039159Y-66979594D01*
X134039159Y-66979594D02*
X133658207Y-66979594D01*
X133658207Y-66979594D02*
X133658207Y-65979594D01*
X133658207Y-65979594D02*
X133991540Y-65979594D01*
X133991540Y-65979594D02*
X134086778Y-66027213D01*
X134086778Y-66027213D02*
X134134397Y-66074832D01*
X134134397Y-66074832D02*
X134182016Y-66170070D01*
X134182016Y-66170070D02*
X134182016Y-66265308D01*
X134182016Y-66265308D02*
X134134397Y-66360546D01*
X134134397Y-66360546D02*
X134086778Y-66408165D01*
X134086778Y-66408165D02*
X133991540Y-66455784D01*
X133991540Y-66455784D02*
X133658207Y-66455784D01*
X135372493Y-66931975D02*
X135515350Y-66979594D01*
X135515350Y-66979594D02*
X135753445Y-66979594D01*
X135753445Y-66979594D02*
X135848683Y-66931975D01*
X135848683Y-66931975D02*
X135896302Y-66884355D01*
X135896302Y-66884355D02*
X135943921Y-66789117D01*
X135943921Y-66789117D02*
X135943921Y-66693879D01*
X135943921Y-66693879D02*
X135896302Y-66598641D01*
X135896302Y-66598641D02*
X135848683Y-66551022D01*
X135848683Y-66551022D02*
X135753445Y-66503403D01*
X135753445Y-66503403D02*
X135562969Y-66455784D01*
X135562969Y-66455784D02*
X135467731Y-66408165D01*
X135467731Y-66408165D02*
X135420112Y-66360546D01*
X135420112Y-66360546D02*
X135372493Y-66265308D01*
X135372493Y-66265308D02*
X135372493Y-66170070D01*
X135372493Y-66170070D02*
X135420112Y-66074832D01*
X135420112Y-66074832D02*
X135467731Y-66027213D01*
X135467731Y-66027213D02*
X135562969Y-65979594D01*
X135562969Y-65979594D02*
X135801064Y-65979594D01*
X135801064Y-65979594D02*
X135943921Y-66027213D01*
X136229636Y-66312927D02*
X136610588Y-66312927D01*
X136372493Y-65979594D02*
X136372493Y-66836736D01*
X136372493Y-66836736D02*
X136420112Y-66931975D01*
X136420112Y-66931975D02*
X136515350Y-66979594D01*
X136515350Y-66979594D02*
X136610588Y-66979594D01*
X137372493Y-66979594D02*
X137372493Y-66455784D01*
X137372493Y-66455784D02*
X137324874Y-66360546D01*
X137324874Y-66360546D02*
X137229636Y-66312927D01*
X137229636Y-66312927D02*
X137039160Y-66312927D01*
X137039160Y-66312927D02*
X136943922Y-66360546D01*
X137372493Y-66931975D02*
X137277255Y-66979594D01*
X137277255Y-66979594D02*
X137039160Y-66979594D01*
X137039160Y-66979594D02*
X136943922Y-66931975D01*
X136943922Y-66931975D02*
X136896303Y-66836736D01*
X136896303Y-66836736D02*
X136896303Y-66741498D01*
X136896303Y-66741498D02*
X136943922Y-66646260D01*
X136943922Y-66646260D02*
X137039160Y-66598641D01*
X137039160Y-66598641D02*
X137277255Y-66598641D01*
X137277255Y-66598641D02*
X137372493Y-66551022D01*
X138277255Y-66931975D02*
X138182017Y-66979594D01*
X138182017Y-66979594D02*
X137991541Y-66979594D01*
X137991541Y-66979594D02*
X137896303Y-66931975D01*
X137896303Y-66931975D02*
X137848684Y-66884355D01*
X137848684Y-66884355D02*
X137801065Y-66789117D01*
X137801065Y-66789117D02*
X137801065Y-66503403D01*
X137801065Y-66503403D02*
X137848684Y-66408165D01*
X137848684Y-66408165D02*
X137896303Y-66360546D01*
X137896303Y-66360546D02*
X137991541Y-66312927D01*
X137991541Y-66312927D02*
X138182017Y-66312927D01*
X138182017Y-66312927D02*
X138277255Y-66360546D01*
X138705827Y-66979594D02*
X138705827Y-65979594D01*
X138801065Y-66598641D02*
X139086779Y-66979594D01*
X139086779Y-66312927D02*
X138705827Y-66693879D01*
X139943922Y-66312927D02*
X139943922Y-66979594D01*
X139515351Y-66312927D02*
X139515351Y-66836736D01*
X139515351Y-66836736D02*
X139562970Y-66931975D01*
X139562970Y-66931975D02*
X139658208Y-66979594D01*
X139658208Y-66979594D02*
X139801065Y-66979594D01*
X139801065Y-66979594D02*
X139896303Y-66931975D01*
X139896303Y-66931975D02*
X139943922Y-66884355D01*
X140420113Y-66312927D02*
X140420113Y-67312927D01*
X140420113Y-66360546D02*
X140515351Y-66312927D01*
X140515351Y-66312927D02*
X140705827Y-66312927D01*
X140705827Y-66312927D02*
X140801065Y-66360546D01*
X140801065Y-66360546D02*
X140848684Y-66408165D01*
X140848684Y-66408165D02*
X140896303Y-66503403D01*
X140896303Y-66503403D02*
X140896303Y-66789117D01*
X140896303Y-66789117D02*
X140848684Y-66884355D01*
X140848684Y-66884355D02*
X140801065Y-66931975D01*
X140801065Y-66931975D02*
X140705827Y-66979594D01*
X140705827Y-66979594D02*
X140515351Y-66979594D01*
X140515351Y-66979594D02*
X140420113Y-66931975D01*
X142658208Y-66884355D02*
X142610589Y-66931975D01*
X142610589Y-66931975D02*
X142467732Y-66979594D01*
X142467732Y-66979594D02*
X142372494Y-66979594D01*
X142372494Y-66979594D02*
X142229637Y-66931975D01*
X142229637Y-66931975D02*
X142134399Y-66836736D01*
X142134399Y-66836736D02*
X142086780Y-66741498D01*
X142086780Y-66741498D02*
X142039161Y-66551022D01*
X142039161Y-66551022D02*
X142039161Y-66408165D01*
X142039161Y-66408165D02*
X142086780Y-66217689D01*
X142086780Y-66217689D02*
X142134399Y-66122451D01*
X142134399Y-66122451D02*
X142229637Y-66027213D01*
X142229637Y-66027213D02*
X142372494Y-65979594D01*
X142372494Y-65979594D02*
X142467732Y-65979594D01*
X142467732Y-65979594D02*
X142610589Y-66027213D01*
X142610589Y-66027213D02*
X142658208Y-66074832D01*
X143086780Y-66979594D02*
X143086780Y-65979594D01*
X143515351Y-66979594D02*
X143515351Y-66455784D01*
X143515351Y-66455784D02*
X143467732Y-66360546D01*
X143467732Y-66360546D02*
X143372494Y-66312927D01*
X143372494Y-66312927D02*
X143229637Y-66312927D01*
X143229637Y-66312927D02*
X143134399Y-66360546D01*
X143134399Y-66360546D02*
X143086780Y-66408165D01*
X144420113Y-66979594D02*
X144420113Y-66455784D01*
X144420113Y-66455784D02*
X144372494Y-66360546D01*
X144372494Y-66360546D02*
X144277256Y-66312927D01*
X144277256Y-66312927D02*
X144086780Y-66312927D01*
X144086780Y-66312927D02*
X143991542Y-66360546D01*
X144420113Y-66931975D02*
X144324875Y-66979594D01*
X144324875Y-66979594D02*
X144086780Y-66979594D01*
X144086780Y-66979594D02*
X143991542Y-66931975D01*
X143991542Y-66931975D02*
X143943923Y-66836736D01*
X143943923Y-66836736D02*
X143943923Y-66741498D01*
X143943923Y-66741498D02*
X143991542Y-66646260D01*
X143991542Y-66646260D02*
X144086780Y-66598641D01*
X144086780Y-66598641D02*
X144324875Y-66598641D01*
X144324875Y-66598641D02*
X144420113Y-66551022D01*
X144896304Y-66979594D02*
X144896304Y-66312927D01*
X144896304Y-66503403D02*
X144943923Y-66408165D01*
X144943923Y-66408165D02*
X144991542Y-66360546D01*
X144991542Y-66360546D02*
X145086780Y-66312927D01*
X145086780Y-66312927D02*
X145182018Y-66312927D01*
X145372495Y-66312927D02*
X145753447Y-66312927D01*
X145515352Y-65979594D02*
X145515352Y-66836736D01*
X145515352Y-66836736D02*
X145562971Y-66931975D01*
X145562971Y-66931975D02*
X145658209Y-66979594D01*
X145658209Y-66979594D02*
X145753447Y-66979594D01*
X146086781Y-66884355D02*
X146134400Y-66931975D01*
X146134400Y-66931975D02*
X146086781Y-66979594D01*
X146086781Y-66979594D02*
X146039162Y-66931975D01*
X146039162Y-66931975D02*
X146086781Y-66884355D01*
X146086781Y-66884355D02*
X146086781Y-66979594D01*
X146086781Y-66360546D02*
X146134400Y-66408165D01*
X146134400Y-66408165D02*
X146086781Y-66455784D01*
X146086781Y-66455784D02*
X146039162Y-66408165D01*
X146039162Y-66408165D02*
X146086781Y-66360546D01*
X146086781Y-66360546D02*
X146086781Y-66455784D01*
X129086778Y-68589538D02*
X129086778Y-67589538D01*
X129515349Y-68589538D02*
X129515349Y-68065728D01*
X129515349Y-68065728D02*
X129467730Y-67970490D01*
X129467730Y-67970490D02*
X129372492Y-67922871D01*
X129372492Y-67922871D02*
X129229635Y-67922871D01*
X129229635Y-67922871D02*
X129134397Y-67970490D01*
X129134397Y-67970490D02*
X129086778Y-68018109D01*
X129848683Y-67922871D02*
X130229635Y-67922871D01*
X129991540Y-67589538D02*
X129991540Y-68446680D01*
X129991540Y-68446680D02*
X130039159Y-68541919D01*
X130039159Y-68541919D02*
X130134397Y-68589538D01*
X130134397Y-68589538D02*
X130229635Y-68589538D01*
X130420112Y-67922871D02*
X130801064Y-67922871D01*
X130562969Y-67589538D02*
X130562969Y-68446680D01*
X130562969Y-68446680D02*
X130610588Y-68541919D01*
X130610588Y-68541919D02*
X130705826Y-68589538D01*
X130705826Y-68589538D02*
X130801064Y-68589538D01*
X131134398Y-67922871D02*
X131134398Y-68922871D01*
X131134398Y-67970490D02*
X131229636Y-67922871D01*
X131229636Y-67922871D02*
X131420112Y-67922871D01*
X131420112Y-67922871D02*
X131515350Y-67970490D01*
X131515350Y-67970490D02*
X131562969Y-68018109D01*
X131562969Y-68018109D02*
X131610588Y-68113347D01*
X131610588Y-68113347D02*
X131610588Y-68399061D01*
X131610588Y-68399061D02*
X131562969Y-68494299D01*
X131562969Y-68494299D02*
X131515350Y-68541919D01*
X131515350Y-68541919D02*
X131420112Y-68589538D01*
X131420112Y-68589538D02*
X131229636Y-68589538D01*
X131229636Y-68589538D02*
X131134398Y-68541919D01*
X131991541Y-68541919D02*
X132086779Y-68589538D01*
X132086779Y-68589538D02*
X132277255Y-68589538D01*
X132277255Y-68589538D02*
X132372493Y-68541919D01*
X132372493Y-68541919D02*
X132420112Y-68446680D01*
X132420112Y-68446680D02*
X132420112Y-68399061D01*
X132420112Y-68399061D02*
X132372493Y-68303823D01*
X132372493Y-68303823D02*
X132277255Y-68256204D01*
X132277255Y-68256204D02*
X132134398Y-68256204D01*
X132134398Y-68256204D02*
X132039160Y-68208585D01*
X132039160Y-68208585D02*
X131991541Y-68113347D01*
X131991541Y-68113347D02*
X131991541Y-68065728D01*
X131991541Y-68065728D02*
X132039160Y-67970490D01*
X132039160Y-67970490D02*
X132134398Y-67922871D01*
X132134398Y-67922871D02*
X132277255Y-67922871D01*
X132277255Y-67922871D02*
X132372493Y-67970490D01*
X132848684Y-68494299D02*
X132896303Y-68541919D01*
X132896303Y-68541919D02*
X132848684Y-68589538D01*
X132848684Y-68589538D02*
X132801065Y-68541919D01*
X132801065Y-68541919D02*
X132848684Y-68494299D01*
X132848684Y-68494299D02*
X132848684Y-68589538D01*
X132848684Y-67970490D02*
X132896303Y-68018109D01*
X132896303Y-68018109D02*
X132848684Y-68065728D01*
X132848684Y-68065728D02*
X132801065Y-68018109D01*
X132801065Y-68018109D02*
X132848684Y-67970490D01*
X132848684Y-67970490D02*
X132848684Y-68065728D01*
X134039159Y-67541919D02*
X133182017Y-68827633D01*
X135086778Y-67541919D02*
X134229636Y-68827633D01*
X135420112Y-67922871D02*
X135420112Y-68780014D01*
X135420112Y-68780014D02*
X135372493Y-68875252D01*
X135372493Y-68875252D02*
X135277255Y-68922871D01*
X135277255Y-68922871D02*
X135229636Y-68922871D01*
X135420112Y-67589538D02*
X135372493Y-67637157D01*
X135372493Y-67637157D02*
X135420112Y-67684776D01*
X135420112Y-67684776D02*
X135467731Y-67637157D01*
X135467731Y-67637157D02*
X135420112Y-67589538D01*
X135420112Y-67589538D02*
X135420112Y-67684776D01*
X136039159Y-68589538D02*
X135943921Y-68541919D01*
X135943921Y-68541919D02*
X135896302Y-68446680D01*
X135896302Y-68446680D02*
X135896302Y-67589538D01*
X136848683Y-68541919D02*
X136753445Y-68589538D01*
X136753445Y-68589538D02*
X136562969Y-68589538D01*
X136562969Y-68589538D02*
X136467731Y-68541919D01*
X136467731Y-68541919D02*
X136420112Y-68494299D01*
X136420112Y-68494299D02*
X136372493Y-68399061D01*
X136372493Y-68399061D02*
X136372493Y-68113347D01*
X136372493Y-68113347D02*
X136420112Y-68018109D01*
X136420112Y-68018109D02*
X136467731Y-67970490D01*
X136467731Y-67970490D02*
X136562969Y-67922871D01*
X136562969Y-67922871D02*
X136753445Y-67922871D01*
X136753445Y-67922871D02*
X136848683Y-67970490D01*
X137277255Y-67922871D02*
X137277255Y-68922871D01*
X137277255Y-67970490D02*
X137372493Y-67922871D01*
X137372493Y-67922871D02*
X137562969Y-67922871D01*
X137562969Y-67922871D02*
X137658207Y-67970490D01*
X137658207Y-67970490D02*
X137705826Y-68018109D01*
X137705826Y-68018109D02*
X137753445Y-68113347D01*
X137753445Y-68113347D02*
X137753445Y-68399061D01*
X137753445Y-68399061D02*
X137705826Y-68494299D01*
X137705826Y-68494299D02*
X137658207Y-68541919D01*
X137658207Y-68541919D02*
X137562969Y-68589538D01*
X137562969Y-68589538D02*
X137372493Y-68589538D01*
X137372493Y-68589538D02*
X137277255Y-68541919D01*
X138610588Y-68541919D02*
X138515350Y-68589538D01*
X138515350Y-68589538D02*
X138324874Y-68589538D01*
X138324874Y-68589538D02*
X138229636Y-68541919D01*
X138229636Y-68541919D02*
X138182017Y-68494299D01*
X138182017Y-68494299D02*
X138134398Y-68399061D01*
X138134398Y-68399061D02*
X138134398Y-68113347D01*
X138134398Y-68113347D02*
X138182017Y-68018109D01*
X138182017Y-68018109D02*
X138229636Y-67970490D01*
X138229636Y-67970490D02*
X138324874Y-67922871D01*
X138324874Y-67922871D02*
X138515350Y-67922871D01*
X138515350Y-67922871D02*
X138610588Y-67970490D01*
X139039160Y-68589538D02*
X139039160Y-67589538D01*
X139039160Y-67970490D02*
X139134398Y-67922871D01*
X139134398Y-67922871D02*
X139324874Y-67922871D01*
X139324874Y-67922871D02*
X139420112Y-67970490D01*
X139420112Y-67970490D02*
X139467731Y-68018109D01*
X139467731Y-68018109D02*
X139515350Y-68113347D01*
X139515350Y-68113347D02*
X139515350Y-68399061D01*
X139515350Y-68399061D02*
X139467731Y-68494299D01*
X139467731Y-68494299D02*
X139420112Y-68541919D01*
X139420112Y-68541919D02*
X139324874Y-68589538D01*
X139324874Y-68589538D02*
X139134398Y-68589538D01*
X139134398Y-68589538D02*
X139039160Y-68541919D01*
X139943922Y-68494299D02*
X139991541Y-68541919D01*
X139991541Y-68541919D02*
X139943922Y-68589538D01*
X139943922Y-68589538D02*
X139896303Y-68541919D01*
X139896303Y-68541919D02*
X139943922Y-68494299D01*
X139943922Y-68494299D02*
X139943922Y-68589538D01*
X140848683Y-68541919D02*
X140753445Y-68589538D01*
X140753445Y-68589538D02*
X140562969Y-68589538D01*
X140562969Y-68589538D02*
X140467731Y-68541919D01*
X140467731Y-68541919D02*
X140420112Y-68494299D01*
X140420112Y-68494299D02*
X140372493Y-68399061D01*
X140372493Y-68399061D02*
X140372493Y-68113347D01*
X140372493Y-68113347D02*
X140420112Y-68018109D01*
X140420112Y-68018109D02*
X140467731Y-67970490D01*
X140467731Y-67970490D02*
X140562969Y-67922871D01*
X140562969Y-67922871D02*
X140753445Y-67922871D01*
X140753445Y-67922871D02*
X140848683Y-67970490D01*
X141420112Y-68589538D02*
X141324874Y-68541919D01*
X141324874Y-68541919D02*
X141277255Y-68494299D01*
X141277255Y-68494299D02*
X141229636Y-68399061D01*
X141229636Y-68399061D02*
X141229636Y-68113347D01*
X141229636Y-68113347D02*
X141277255Y-68018109D01*
X141277255Y-68018109D02*
X141324874Y-67970490D01*
X141324874Y-67970490D02*
X141420112Y-67922871D01*
X141420112Y-67922871D02*
X141562969Y-67922871D01*
X141562969Y-67922871D02*
X141658207Y-67970490D01*
X141658207Y-67970490D02*
X141705826Y-68018109D01*
X141705826Y-68018109D02*
X141753445Y-68113347D01*
X141753445Y-68113347D02*
X141753445Y-68399061D01*
X141753445Y-68399061D02*
X141705826Y-68494299D01*
X141705826Y-68494299D02*
X141658207Y-68541919D01*
X141658207Y-68541919D02*
X141562969Y-68589538D01*
X141562969Y-68589538D02*
X141420112Y-68589538D01*
X142182017Y-68589538D02*
X142182017Y-67922871D01*
X142182017Y-68018109D02*
X142229636Y-67970490D01*
X142229636Y-67970490D02*
X142324874Y-67922871D01*
X142324874Y-67922871D02*
X142467731Y-67922871D01*
X142467731Y-67922871D02*
X142562969Y-67970490D01*
X142562969Y-67970490D02*
X142610588Y-68065728D01*
X142610588Y-68065728D02*
X142610588Y-68589538D01*
X142610588Y-68065728D02*
X142658207Y-67970490D01*
X142658207Y-67970490D02*
X142753445Y-67922871D01*
X142753445Y-67922871D02*
X142896302Y-67922871D01*
X142896302Y-67922871D02*
X142991541Y-67970490D01*
X142991541Y-67970490D02*
X143039160Y-68065728D01*
X143039160Y-68065728D02*
X143039160Y-68589538D01*
X144229635Y-67541919D02*
X143372493Y-68827633D01*
X144562969Y-68589538D02*
X144562969Y-67922871D01*
X144562969Y-67589538D02*
X144515350Y-67637157D01*
X144515350Y-67637157D02*
X144562969Y-67684776D01*
X144562969Y-67684776D02*
X144610588Y-67637157D01*
X144610588Y-67637157D02*
X144562969Y-67589538D01*
X144562969Y-67589538D02*
X144562969Y-67684776D01*
X145039159Y-68589538D02*
X145039159Y-67922871D01*
X145039159Y-68018109D02*
X145086778Y-67970490D01*
X145086778Y-67970490D02*
X145182016Y-67922871D01*
X145182016Y-67922871D02*
X145324873Y-67922871D01*
X145324873Y-67922871D02*
X145420111Y-67970490D01*
X145420111Y-67970490D02*
X145467730Y-68065728D01*
X145467730Y-68065728D02*
X145467730Y-68589538D01*
X145467730Y-68065728D02*
X145515349Y-67970490D01*
X145515349Y-67970490D02*
X145610587Y-67922871D01*
X145610587Y-67922871D02*
X145753444Y-67922871D01*
X145753444Y-67922871D02*
X145848683Y-67970490D01*
X145848683Y-67970490D02*
X145896302Y-68065728D01*
X145896302Y-68065728D02*
X145896302Y-68589538D01*
X146372492Y-67922871D02*
X146372492Y-68922871D01*
X146372492Y-67970490D02*
X146467730Y-67922871D01*
X146467730Y-67922871D02*
X146658206Y-67922871D01*
X146658206Y-67922871D02*
X146753444Y-67970490D01*
X146753444Y-67970490D02*
X146801063Y-68018109D01*
X146801063Y-68018109D02*
X146848682Y-68113347D01*
X146848682Y-68113347D02*
X146848682Y-68399061D01*
X146848682Y-68399061D02*
X146801063Y-68494299D01*
X146801063Y-68494299D02*
X146753444Y-68541919D01*
X146753444Y-68541919D02*
X146658206Y-68589538D01*
X146658206Y-68589538D02*
X146467730Y-68589538D01*
X146467730Y-68589538D02*
X146372492Y-68541919D01*
X147658206Y-68541919D02*
X147562968Y-68589538D01*
X147562968Y-68589538D02*
X147372492Y-68589538D01*
X147372492Y-68589538D02*
X147277254Y-68541919D01*
X147277254Y-68541919D02*
X147229635Y-68446680D01*
X147229635Y-68446680D02*
X147229635Y-68065728D01*
X147229635Y-68065728D02*
X147277254Y-67970490D01*
X147277254Y-67970490D02*
X147372492Y-67922871D01*
X147372492Y-67922871D02*
X147562968Y-67922871D01*
X147562968Y-67922871D02*
X147658206Y-67970490D01*
X147658206Y-67970490D02*
X147705825Y-68065728D01*
X147705825Y-68065728D02*
X147705825Y-68160966D01*
X147705825Y-68160966D02*
X147229635Y-68256204D01*
X148562968Y-68589538D02*
X148562968Y-67589538D01*
X148562968Y-68541919D02*
X148467730Y-68589538D01*
X148467730Y-68589538D02*
X148277254Y-68589538D01*
X148277254Y-68589538D02*
X148182016Y-68541919D01*
X148182016Y-68541919D02*
X148134397Y-68494299D01*
X148134397Y-68494299D02*
X148086778Y-68399061D01*
X148086778Y-68399061D02*
X148086778Y-68113347D01*
X148086778Y-68113347D02*
X148134397Y-68018109D01*
X148134397Y-68018109D02*
X148182016Y-67970490D01*
X148182016Y-67970490D02*
X148277254Y-67922871D01*
X148277254Y-67922871D02*
X148467730Y-67922871D01*
X148467730Y-67922871D02*
X148562968Y-67970490D01*
X149467730Y-68589538D02*
X149467730Y-68065728D01*
X149467730Y-68065728D02*
X149420111Y-67970490D01*
X149420111Y-67970490D02*
X149324873Y-67922871D01*
X149324873Y-67922871D02*
X149134397Y-67922871D01*
X149134397Y-67922871D02*
X149039159Y-67970490D01*
X149467730Y-68541919D02*
X149372492Y-68589538D01*
X149372492Y-68589538D02*
X149134397Y-68589538D01*
X149134397Y-68589538D02*
X149039159Y-68541919D01*
X149039159Y-68541919D02*
X148991540Y-68446680D01*
X148991540Y-68446680D02*
X148991540Y-68351442D01*
X148991540Y-68351442D02*
X149039159Y-68256204D01*
X149039159Y-68256204D02*
X149134397Y-68208585D01*
X149134397Y-68208585D02*
X149372492Y-68208585D01*
X149372492Y-68208585D02*
X149467730Y-68160966D01*
X149943921Y-67922871D02*
X149943921Y-68589538D01*
X149943921Y-68018109D02*
X149991540Y-67970490D01*
X149991540Y-67970490D02*
X150086778Y-67922871D01*
X150086778Y-67922871D02*
X150229635Y-67922871D01*
X150229635Y-67922871D02*
X150324873Y-67970490D01*
X150324873Y-67970490D02*
X150372492Y-68065728D01*
X150372492Y-68065728D02*
X150372492Y-68589538D01*
X151277254Y-68541919D02*
X151182016Y-68589538D01*
X151182016Y-68589538D02*
X150991540Y-68589538D01*
X150991540Y-68589538D02*
X150896302Y-68541919D01*
X150896302Y-68541919D02*
X150848683Y-68494299D01*
X150848683Y-68494299D02*
X150801064Y-68399061D01*
X150801064Y-68399061D02*
X150801064Y-68113347D01*
X150801064Y-68113347D02*
X150848683Y-68018109D01*
X150848683Y-68018109D02*
X150896302Y-67970490D01*
X150896302Y-67970490D02*
X150991540Y-67922871D01*
X150991540Y-67922871D02*
X151182016Y-67922871D01*
X151182016Y-67922871D02*
X151277254Y-67970490D01*
X152086778Y-68541919D02*
X151991540Y-68589538D01*
X151991540Y-68589538D02*
X151801064Y-68589538D01*
X151801064Y-68589538D02*
X151705826Y-68541919D01*
X151705826Y-68541919D02*
X151658207Y-68446680D01*
X151658207Y-68446680D02*
X151658207Y-68065728D01*
X151658207Y-68065728D02*
X151705826Y-67970490D01*
X151705826Y-67970490D02*
X151801064Y-67922871D01*
X151801064Y-67922871D02*
X151991540Y-67922871D01*
X151991540Y-67922871D02*
X152086778Y-67970490D01*
X152086778Y-67970490D02*
X152134397Y-68065728D01*
X152134397Y-68065728D02*
X152134397Y-68160966D01*
X152134397Y-68160966D02*
X151658207Y-68256204D01*
X129277254Y-70809426D02*
X129467730Y-70809426D01*
X129467730Y-70809426D02*
X129562968Y-70857045D01*
X129562968Y-70857045D02*
X129658206Y-70952283D01*
X129658206Y-70952283D02*
X129705825Y-71142759D01*
X129705825Y-71142759D02*
X129705825Y-71476092D01*
X129705825Y-71476092D02*
X129658206Y-71666568D01*
X129658206Y-71666568D02*
X129562968Y-71761807D01*
X129562968Y-71761807D02*
X129467730Y-71809426D01*
X129467730Y-71809426D02*
X129277254Y-71809426D01*
X129277254Y-71809426D02*
X129182016Y-71761807D01*
X129182016Y-71761807D02*
X129086778Y-71666568D01*
X129086778Y-71666568D02*
X129039159Y-71476092D01*
X129039159Y-71476092D02*
X129039159Y-71142759D01*
X129039159Y-71142759D02*
X129086778Y-70952283D01*
X129086778Y-70952283D02*
X129182016Y-70857045D01*
X129182016Y-70857045D02*
X129277254Y-70809426D01*
X130134397Y-71142759D02*
X130134397Y-72142759D01*
X130134397Y-71190378D02*
X130229635Y-71142759D01*
X130229635Y-71142759D02*
X130420111Y-71142759D01*
X130420111Y-71142759D02*
X130515349Y-71190378D01*
X130515349Y-71190378D02*
X130562968Y-71237997D01*
X130562968Y-71237997D02*
X130610587Y-71333235D01*
X130610587Y-71333235D02*
X130610587Y-71618949D01*
X130610587Y-71618949D02*
X130562968Y-71714187D01*
X130562968Y-71714187D02*
X130515349Y-71761807D01*
X130515349Y-71761807D02*
X130420111Y-71809426D01*
X130420111Y-71809426D02*
X130229635Y-71809426D01*
X130229635Y-71809426D02*
X130134397Y-71761807D01*
X130896302Y-71142759D02*
X131277254Y-71142759D01*
X131039159Y-70809426D02*
X131039159Y-71666568D01*
X131039159Y-71666568D02*
X131086778Y-71761807D01*
X131086778Y-71761807D02*
X131182016Y-71809426D01*
X131182016Y-71809426D02*
X131277254Y-71809426D01*
X131610588Y-71809426D02*
X131610588Y-71142759D01*
X131610588Y-70809426D02*
X131562969Y-70857045D01*
X131562969Y-70857045D02*
X131610588Y-70904664D01*
X131610588Y-70904664D02*
X131658207Y-70857045D01*
X131658207Y-70857045D02*
X131610588Y-70809426D01*
X131610588Y-70809426D02*
X131610588Y-70904664D01*
X132086778Y-71809426D02*
X132086778Y-71142759D01*
X132086778Y-71237997D02*
X132134397Y-71190378D01*
X132134397Y-71190378D02*
X132229635Y-71142759D01*
X132229635Y-71142759D02*
X132372492Y-71142759D01*
X132372492Y-71142759D02*
X132467730Y-71190378D01*
X132467730Y-71190378D02*
X132515349Y-71285616D01*
X132515349Y-71285616D02*
X132515349Y-71809426D01*
X132515349Y-71285616D02*
X132562968Y-71190378D01*
X132562968Y-71190378D02*
X132658206Y-71142759D01*
X132658206Y-71142759D02*
X132801063Y-71142759D01*
X132801063Y-71142759D02*
X132896302Y-71190378D01*
X132896302Y-71190378D02*
X132943921Y-71285616D01*
X132943921Y-71285616D02*
X132943921Y-71809426D01*
X133420111Y-71809426D02*
X133420111Y-71142759D01*
X133420111Y-70809426D02*
X133372492Y-70857045D01*
X133372492Y-70857045D02*
X133420111Y-70904664D01*
X133420111Y-70904664D02*
X133467730Y-70857045D01*
X133467730Y-70857045D02*
X133420111Y-70809426D01*
X133420111Y-70809426D02*
X133420111Y-70904664D01*
X133801063Y-71142759D02*
X134324872Y-71142759D01*
X134324872Y-71142759D02*
X133801063Y-71809426D01*
X133801063Y-71809426D02*
X134324872Y-71809426D01*
X135086777Y-71761807D02*
X134991539Y-71809426D01*
X134991539Y-71809426D02*
X134801063Y-71809426D01*
X134801063Y-71809426D02*
X134705825Y-71761807D01*
X134705825Y-71761807D02*
X134658206Y-71666568D01*
X134658206Y-71666568D02*
X134658206Y-71285616D01*
X134658206Y-71285616D02*
X134705825Y-71190378D01*
X134705825Y-71190378D02*
X134801063Y-71142759D01*
X134801063Y-71142759D02*
X134991539Y-71142759D01*
X134991539Y-71142759D02*
X135086777Y-71190378D01*
X135086777Y-71190378D02*
X135134396Y-71285616D01*
X135134396Y-71285616D02*
X135134396Y-71380854D01*
X135134396Y-71380854D02*
X134658206Y-71476092D01*
X135991539Y-71809426D02*
X135991539Y-70809426D01*
X135991539Y-71761807D02*
X135896301Y-71809426D01*
X135896301Y-71809426D02*
X135705825Y-71809426D01*
X135705825Y-71809426D02*
X135610587Y-71761807D01*
X135610587Y-71761807D02*
X135562968Y-71714187D01*
X135562968Y-71714187D02*
X135515349Y-71618949D01*
X135515349Y-71618949D02*
X135515349Y-71333235D01*
X135515349Y-71333235D02*
X135562968Y-71237997D01*
X135562968Y-71237997D02*
X135610587Y-71190378D01*
X135610587Y-71190378D02*
X135705825Y-71142759D01*
X135705825Y-71142759D02*
X135896301Y-71142759D01*
X135896301Y-71142759D02*
X135991539Y-71190378D01*
X137086778Y-71142759D02*
X137467730Y-71142759D01*
X137229635Y-71809426D02*
X137229635Y-70952283D01*
X137229635Y-70952283D02*
X137277254Y-70857045D01*
X137277254Y-70857045D02*
X137372492Y-70809426D01*
X137372492Y-70809426D02*
X137467730Y-70809426D01*
X137943921Y-71809426D02*
X137848683Y-71761807D01*
X137848683Y-71761807D02*
X137801064Y-71714187D01*
X137801064Y-71714187D02*
X137753445Y-71618949D01*
X137753445Y-71618949D02*
X137753445Y-71333235D01*
X137753445Y-71333235D02*
X137801064Y-71237997D01*
X137801064Y-71237997D02*
X137848683Y-71190378D01*
X137848683Y-71190378D02*
X137943921Y-71142759D01*
X137943921Y-71142759D02*
X138086778Y-71142759D01*
X138086778Y-71142759D02*
X138182016Y-71190378D01*
X138182016Y-71190378D02*
X138229635Y-71237997D01*
X138229635Y-71237997D02*
X138277254Y-71333235D01*
X138277254Y-71333235D02*
X138277254Y-71618949D01*
X138277254Y-71618949D02*
X138229635Y-71714187D01*
X138229635Y-71714187D02*
X138182016Y-71761807D01*
X138182016Y-71761807D02*
X138086778Y-71809426D01*
X138086778Y-71809426D02*
X137943921Y-71809426D01*
X138705826Y-71809426D02*
X138705826Y-71142759D01*
X138705826Y-71333235D02*
X138753445Y-71237997D01*
X138753445Y-71237997D02*
X138801064Y-71190378D01*
X138801064Y-71190378D02*
X138896302Y-71142759D01*
X138896302Y-71142759D02*
X138991540Y-71142759D01*
X140372493Y-70809426D02*
X140372493Y-71523711D01*
X140372493Y-71523711D02*
X140324874Y-71666568D01*
X140324874Y-71666568D02*
X140229636Y-71761807D01*
X140229636Y-71761807D02*
X140086779Y-71809426D01*
X140086779Y-71809426D02*
X139991541Y-71809426D01*
X141324874Y-71809426D02*
X140848684Y-71809426D01*
X140848684Y-71809426D02*
X140848684Y-70809426D01*
X142229636Y-71714187D02*
X142182017Y-71761807D01*
X142182017Y-71761807D02*
X142039160Y-71809426D01*
X142039160Y-71809426D02*
X141943922Y-71809426D01*
X141943922Y-71809426D02*
X141801065Y-71761807D01*
X141801065Y-71761807D02*
X141705827Y-71666568D01*
X141705827Y-71666568D02*
X141658208Y-71571330D01*
X141658208Y-71571330D02*
X141610589Y-71380854D01*
X141610589Y-71380854D02*
X141610589Y-71237997D01*
X141610589Y-71237997D02*
X141658208Y-71047521D01*
X141658208Y-71047521D02*
X141705827Y-70952283D01*
X141705827Y-70952283D02*
X141801065Y-70857045D01*
X141801065Y-70857045D02*
X141943922Y-70809426D01*
X141943922Y-70809426D02*
X142039160Y-70809426D01*
X142039160Y-70809426D02*
X142182017Y-70857045D01*
X142182017Y-70857045D02*
X142229636Y-70904664D01*
X142658208Y-71809426D02*
X142658208Y-70809426D01*
X142658208Y-70809426D02*
X143039160Y-70809426D01*
X143039160Y-70809426D02*
X143134398Y-70857045D01*
X143134398Y-70857045D02*
X143182017Y-70904664D01*
X143182017Y-70904664D02*
X143229636Y-70999902D01*
X143229636Y-70999902D02*
X143229636Y-71142759D01*
X143229636Y-71142759D02*
X143182017Y-71237997D01*
X143182017Y-71237997D02*
X143134398Y-71285616D01*
X143134398Y-71285616D02*
X143039160Y-71333235D01*
X143039160Y-71333235D02*
X142658208Y-71333235D01*
X144229636Y-71714187D02*
X144182017Y-71761807D01*
X144182017Y-71761807D02*
X144039160Y-71809426D01*
X144039160Y-71809426D02*
X143943922Y-71809426D01*
X143943922Y-71809426D02*
X143801065Y-71761807D01*
X143801065Y-71761807D02*
X143705827Y-71666568D01*
X143705827Y-71666568D02*
X143658208Y-71571330D01*
X143658208Y-71571330D02*
X143610589Y-71380854D01*
X143610589Y-71380854D02*
X143610589Y-71237997D01*
X143610589Y-71237997D02*
X143658208Y-71047521D01*
X143658208Y-71047521D02*
X143705827Y-70952283D01*
X143705827Y-70952283D02*
X143801065Y-70857045D01*
X143801065Y-70857045D02*
X143943922Y-70809426D01*
X143943922Y-70809426D02*
X144039160Y-70809426D01*
X144039160Y-70809426D02*
X144182017Y-70857045D01*
X144182017Y-70857045D02*
X144229636Y-70904664D01*
X144991541Y-71285616D02*
X145134398Y-71333235D01*
X145134398Y-71333235D02*
X145182017Y-71380854D01*
X145182017Y-71380854D02*
X145229636Y-71476092D01*
X145229636Y-71476092D02*
X145229636Y-71618949D01*
X145229636Y-71618949D02*
X145182017Y-71714187D01*
X145182017Y-71714187D02*
X145134398Y-71761807D01*
X145134398Y-71761807D02*
X145039160Y-71809426D01*
X145039160Y-71809426D02*
X144658208Y-71809426D01*
X144658208Y-71809426D02*
X144658208Y-70809426D01*
X144658208Y-70809426D02*
X144991541Y-70809426D01*
X144991541Y-70809426D02*
X145086779Y-70857045D01*
X145086779Y-70857045D02*
X145134398Y-70904664D01*
X145134398Y-70904664D02*
X145182017Y-70999902D01*
X145182017Y-70999902D02*
X145182017Y-71095140D01*
X145182017Y-71095140D02*
X145134398Y-71190378D01*
X145134398Y-71190378D02*
X145086779Y-71237997D01*
X145086779Y-71237997D02*
X144991541Y-71285616D01*
X144991541Y-71285616D02*
X144658208Y-71285616D01*
X146610589Y-70809426D02*
X146705827Y-70809426D01*
X146705827Y-70809426D02*
X146801065Y-70857045D01*
X146801065Y-70857045D02*
X146848684Y-70904664D01*
X146848684Y-70904664D02*
X146896303Y-70999902D01*
X146896303Y-70999902D02*
X146943922Y-71190378D01*
X146943922Y-71190378D02*
X146943922Y-71428473D01*
X146943922Y-71428473D02*
X146896303Y-71618949D01*
X146896303Y-71618949D02*
X146848684Y-71714187D01*
X146848684Y-71714187D02*
X146801065Y-71761807D01*
X146801065Y-71761807D02*
X146705827Y-71809426D01*
X146705827Y-71809426D02*
X146610589Y-71809426D01*
X146610589Y-71809426D02*
X146515351Y-71761807D01*
X146515351Y-71761807D02*
X146467732Y-71714187D01*
X146467732Y-71714187D02*
X146420113Y-71618949D01*
X146420113Y-71618949D02*
X146372494Y-71428473D01*
X146372494Y-71428473D02*
X146372494Y-71190378D01*
X146372494Y-71190378D02*
X146420113Y-70999902D01*
X146420113Y-70999902D02*
X146467732Y-70904664D01*
X146467732Y-70904664D02*
X146515351Y-70857045D01*
X146515351Y-70857045D02*
X146610589Y-70809426D01*
X147372494Y-71714187D02*
X147420113Y-71761807D01*
X147420113Y-71761807D02*
X147372494Y-71809426D01*
X147372494Y-71809426D02*
X147324875Y-71761807D01*
X147324875Y-71761807D02*
X147372494Y-71714187D01*
X147372494Y-71714187D02*
X147372494Y-71809426D01*
X147991541Y-71237997D02*
X147896303Y-71190378D01*
X147896303Y-71190378D02*
X147848684Y-71142759D01*
X147848684Y-71142759D02*
X147801065Y-71047521D01*
X147801065Y-71047521D02*
X147801065Y-70999902D01*
X147801065Y-70999902D02*
X147848684Y-70904664D01*
X147848684Y-70904664D02*
X147896303Y-70857045D01*
X147896303Y-70857045D02*
X147991541Y-70809426D01*
X147991541Y-70809426D02*
X148182017Y-70809426D01*
X148182017Y-70809426D02*
X148277255Y-70857045D01*
X148277255Y-70857045D02*
X148324874Y-70904664D01*
X148324874Y-70904664D02*
X148372493Y-70999902D01*
X148372493Y-70999902D02*
X148372493Y-71047521D01*
X148372493Y-71047521D02*
X148324874Y-71142759D01*
X148324874Y-71142759D02*
X148277255Y-71190378D01*
X148277255Y-71190378D02*
X148182017Y-71237997D01*
X148182017Y-71237997D02*
X147991541Y-71237997D01*
X147991541Y-71237997D02*
X147896303Y-71285616D01*
X147896303Y-71285616D02*
X147848684Y-71333235D01*
X147848684Y-71333235D02*
X147801065Y-71428473D01*
X147801065Y-71428473D02*
X147801065Y-71618949D01*
X147801065Y-71618949D02*
X147848684Y-71714187D01*
X147848684Y-71714187D02*
X147896303Y-71761807D01*
X147896303Y-71761807D02*
X147991541Y-71809426D01*
X147991541Y-71809426D02*
X148182017Y-71809426D01*
X148182017Y-71809426D02*
X148277255Y-71761807D01*
X148277255Y-71761807D02*
X148324874Y-71714187D01*
X148324874Y-71714187D02*
X148372493Y-71618949D01*
X148372493Y-71618949D02*
X148372493Y-71428473D01*
X148372493Y-71428473D02*
X148324874Y-71333235D01*
X148324874Y-71333235D02*
X148277255Y-71285616D01*
X148277255Y-71285616D02*
X148182017Y-71237997D01*
X148801065Y-71809426D02*
X148801065Y-71142759D01*
X148801065Y-71237997D02*
X148848684Y-71190378D01*
X148848684Y-71190378D02*
X148943922Y-71142759D01*
X148943922Y-71142759D02*
X149086779Y-71142759D01*
X149086779Y-71142759D02*
X149182017Y-71190378D01*
X149182017Y-71190378D02*
X149229636Y-71285616D01*
X149229636Y-71285616D02*
X149229636Y-71809426D01*
X149229636Y-71285616D02*
X149277255Y-71190378D01*
X149277255Y-71190378D02*
X149372493Y-71142759D01*
X149372493Y-71142759D02*
X149515350Y-71142759D01*
X149515350Y-71142759D02*
X149610589Y-71190378D01*
X149610589Y-71190378D02*
X149658208Y-71285616D01*
X149658208Y-71285616D02*
X149658208Y-71809426D01*
X150134398Y-71809426D02*
X150134398Y-71142759D01*
X150134398Y-71237997D02*
X150182017Y-71190378D01*
X150182017Y-71190378D02*
X150277255Y-71142759D01*
X150277255Y-71142759D02*
X150420112Y-71142759D01*
X150420112Y-71142759D02*
X150515350Y-71190378D01*
X150515350Y-71190378D02*
X150562969Y-71285616D01*
X150562969Y-71285616D02*
X150562969Y-71809426D01*
X150562969Y-71285616D02*
X150610588Y-71190378D01*
X150610588Y-71190378D02*
X150705826Y-71142759D01*
X150705826Y-71142759D02*
X150848683Y-71142759D01*
X150848683Y-71142759D02*
X150943922Y-71190378D01*
X150943922Y-71190378D02*
X150991541Y-71285616D01*
X150991541Y-71285616D02*
X150991541Y-71809426D01*
X152086779Y-71142759D02*
X152467731Y-71142759D01*
X152229636Y-70809426D02*
X152229636Y-71666568D01*
X152229636Y-71666568D02*
X152277255Y-71761807D01*
X152277255Y-71761807D02*
X152372493Y-71809426D01*
X152372493Y-71809426D02*
X152467731Y-71809426D01*
X152801065Y-71809426D02*
X152801065Y-70809426D01*
X153229636Y-71809426D02*
X153229636Y-71285616D01*
X153229636Y-71285616D02*
X153182017Y-71190378D01*
X153182017Y-71190378D02*
X153086779Y-71142759D01*
X153086779Y-71142759D02*
X152943922Y-71142759D01*
X152943922Y-71142759D02*
X152848684Y-71190378D01*
X152848684Y-71190378D02*
X152801065Y-71237997D01*
X153705827Y-71809426D02*
X153705827Y-71142759D01*
X153705827Y-70809426D02*
X153658208Y-70857045D01*
X153658208Y-70857045D02*
X153705827Y-70904664D01*
X153705827Y-70904664D02*
X153753446Y-70857045D01*
X153753446Y-70857045D02*
X153705827Y-70809426D01*
X153705827Y-70809426D02*
X153705827Y-70904664D01*
X154610588Y-71761807D02*
X154515350Y-71809426D01*
X154515350Y-71809426D02*
X154324874Y-71809426D01*
X154324874Y-71809426D02*
X154229636Y-71761807D01*
X154229636Y-71761807D02*
X154182017Y-71714187D01*
X154182017Y-71714187D02*
X154134398Y-71618949D01*
X154134398Y-71618949D02*
X154134398Y-71333235D01*
X154134398Y-71333235D02*
X154182017Y-71237997D01*
X154182017Y-71237997D02*
X154229636Y-71190378D01*
X154229636Y-71190378D02*
X154324874Y-71142759D01*
X154324874Y-71142759D02*
X154515350Y-71142759D01*
X154515350Y-71142759D02*
X154610588Y-71190378D01*
X155039160Y-71809426D02*
X155039160Y-70809426D01*
X155134398Y-71428473D02*
X155420112Y-71809426D01*
X155420112Y-71142759D02*
X155039160Y-71523711D01*
X129610587Y-73419370D02*
X129039159Y-73419370D01*
X129324873Y-73419370D02*
X129324873Y-72419370D01*
X129324873Y-72419370D02*
X129229635Y-72562227D01*
X129229635Y-72562227D02*
X129134397Y-72657465D01*
X129134397Y-72657465D02*
X129039159Y-72705084D01*
X130182016Y-73419370D02*
X130086778Y-73371751D01*
X130086778Y-73371751D02*
X130039159Y-73324131D01*
X130039159Y-73324131D02*
X129991540Y-73228893D01*
X129991540Y-73228893D02*
X129991540Y-72943179D01*
X129991540Y-72943179D02*
X130039159Y-72847941D01*
X130039159Y-72847941D02*
X130086778Y-72800322D01*
X130086778Y-72800322D02*
X130182016Y-72752703D01*
X130182016Y-72752703D02*
X130324873Y-72752703D01*
X130324873Y-72752703D02*
X130420111Y-72800322D01*
X130420111Y-72800322D02*
X130467730Y-72847941D01*
X130467730Y-72847941D02*
X130515349Y-72943179D01*
X130515349Y-72943179D02*
X130515349Y-73228893D01*
X130515349Y-73228893D02*
X130467730Y-73324131D01*
X130467730Y-73324131D02*
X130420111Y-73371751D01*
X130420111Y-73371751D02*
X130324873Y-73419370D01*
X130324873Y-73419370D02*
X130182016Y-73419370D01*
X130848683Y-72752703D02*
X131372492Y-72752703D01*
X131372492Y-72752703D02*
X130848683Y-73419370D01*
X130848683Y-73419370D02*
X131372492Y-73419370D01*
X132658207Y-73419370D02*
X132562969Y-73371751D01*
X132562969Y-73371751D02*
X132515350Y-73324131D01*
X132515350Y-73324131D02*
X132467731Y-73228893D01*
X132467731Y-73228893D02*
X132467731Y-72943179D01*
X132467731Y-72943179D02*
X132515350Y-72847941D01*
X132515350Y-72847941D02*
X132562969Y-72800322D01*
X132562969Y-72800322D02*
X132658207Y-72752703D01*
X132658207Y-72752703D02*
X132801064Y-72752703D01*
X132801064Y-72752703D02*
X132896302Y-72800322D01*
X132896302Y-72800322D02*
X132943921Y-72847941D01*
X132943921Y-72847941D02*
X132991540Y-72943179D01*
X132991540Y-72943179D02*
X132991540Y-73228893D01*
X132991540Y-73228893D02*
X132943921Y-73324131D01*
X132943921Y-73324131D02*
X132896302Y-73371751D01*
X132896302Y-73371751D02*
X132801064Y-73419370D01*
X132801064Y-73419370D02*
X132658207Y-73419370D01*
X133848683Y-72752703D02*
X133848683Y-73419370D01*
X133420112Y-72752703D02*
X133420112Y-73276512D01*
X133420112Y-73276512D02*
X133467731Y-73371751D01*
X133467731Y-73371751D02*
X133562969Y-73419370D01*
X133562969Y-73419370D02*
X133705826Y-73419370D01*
X133705826Y-73419370D02*
X133801064Y-73371751D01*
X133801064Y-73371751D02*
X133848683Y-73324131D01*
X134182017Y-72752703D02*
X134562969Y-72752703D01*
X134324874Y-72419370D02*
X134324874Y-73276512D01*
X134324874Y-73276512D02*
X134372493Y-73371751D01*
X134372493Y-73371751D02*
X134467731Y-73419370D01*
X134467731Y-73419370D02*
X134562969Y-73419370D01*
X135277255Y-73371751D02*
X135182017Y-73419370D01*
X135182017Y-73419370D02*
X134991541Y-73419370D01*
X134991541Y-73419370D02*
X134896303Y-73371751D01*
X134896303Y-73371751D02*
X134848684Y-73276512D01*
X134848684Y-73276512D02*
X134848684Y-72895560D01*
X134848684Y-72895560D02*
X134896303Y-72800322D01*
X134896303Y-72800322D02*
X134991541Y-72752703D01*
X134991541Y-72752703D02*
X135182017Y-72752703D01*
X135182017Y-72752703D02*
X135277255Y-72800322D01*
X135277255Y-72800322D02*
X135324874Y-72895560D01*
X135324874Y-72895560D02*
X135324874Y-72990798D01*
X135324874Y-72990798D02*
X134848684Y-73086036D01*
X135753446Y-73419370D02*
X135753446Y-72752703D01*
X135753446Y-72943179D02*
X135801065Y-72847941D01*
X135801065Y-72847941D02*
X135848684Y-72800322D01*
X135848684Y-72800322D02*
X135943922Y-72752703D01*
X135943922Y-72752703D02*
X136039160Y-72752703D01*
X137848684Y-72371751D02*
X136991542Y-73657465D01*
X139467732Y-73419370D02*
X138896304Y-73419370D01*
X139182018Y-73419370D02*
X139182018Y-72419370D01*
X139182018Y-72419370D02*
X139086780Y-72562227D01*
X139086780Y-72562227D02*
X138991542Y-72657465D01*
X138991542Y-72657465D02*
X138896304Y-72705084D01*
X140039161Y-73419370D02*
X139943923Y-73371751D01*
X139943923Y-73371751D02*
X139896304Y-73324131D01*
X139896304Y-73324131D02*
X139848685Y-73228893D01*
X139848685Y-73228893D02*
X139848685Y-72943179D01*
X139848685Y-72943179D02*
X139896304Y-72847941D01*
X139896304Y-72847941D02*
X139943923Y-72800322D01*
X139943923Y-72800322D02*
X140039161Y-72752703D01*
X140039161Y-72752703D02*
X140182018Y-72752703D01*
X140182018Y-72752703D02*
X140277256Y-72800322D01*
X140277256Y-72800322D02*
X140324875Y-72847941D01*
X140324875Y-72847941D02*
X140372494Y-72943179D01*
X140372494Y-72943179D02*
X140372494Y-73228893D01*
X140372494Y-73228893D02*
X140324875Y-73324131D01*
X140324875Y-73324131D02*
X140277256Y-73371751D01*
X140277256Y-73371751D02*
X140182018Y-73419370D01*
X140182018Y-73419370D02*
X140039161Y-73419370D01*
X140705828Y-72752703D02*
X141229637Y-72752703D01*
X141229637Y-72752703D02*
X140705828Y-73419370D01*
X140705828Y-73419370D02*
X141229637Y-73419370D01*
X142372495Y-73419370D02*
X142372495Y-72752703D01*
X142372495Y-72419370D02*
X142324876Y-72466989D01*
X142324876Y-72466989D02*
X142372495Y-72514608D01*
X142372495Y-72514608D02*
X142420114Y-72466989D01*
X142420114Y-72466989D02*
X142372495Y-72419370D01*
X142372495Y-72419370D02*
X142372495Y-72514608D01*
X142848685Y-72752703D02*
X142848685Y-73419370D01*
X142848685Y-72847941D02*
X142896304Y-72800322D01*
X142896304Y-72800322D02*
X142991542Y-72752703D01*
X142991542Y-72752703D02*
X143134399Y-72752703D01*
X143134399Y-72752703D02*
X143229637Y-72800322D01*
X143229637Y-72800322D02*
X143277256Y-72895560D01*
X143277256Y-72895560D02*
X143277256Y-73419370D01*
X143753447Y-72752703D02*
X143753447Y-73419370D01*
X143753447Y-72847941D02*
X143801066Y-72800322D01*
X143801066Y-72800322D02*
X143896304Y-72752703D01*
X143896304Y-72752703D02*
X144039161Y-72752703D01*
X144039161Y-72752703D02*
X144134399Y-72800322D01*
X144134399Y-72800322D02*
X144182018Y-72895560D01*
X144182018Y-72895560D02*
X144182018Y-73419370D01*
X145039161Y-73371751D02*
X144943923Y-73419370D01*
X144943923Y-73419370D02*
X144753447Y-73419370D01*
X144753447Y-73419370D02*
X144658209Y-73371751D01*
X144658209Y-73371751D02*
X144610590Y-73276512D01*
X144610590Y-73276512D02*
X144610590Y-72895560D01*
X144610590Y-72895560D02*
X144658209Y-72800322D01*
X144658209Y-72800322D02*
X144753447Y-72752703D01*
X144753447Y-72752703D02*
X144943923Y-72752703D01*
X144943923Y-72752703D02*
X145039161Y-72800322D01*
X145039161Y-72800322D02*
X145086780Y-72895560D01*
X145086780Y-72895560D02*
X145086780Y-72990798D01*
X145086780Y-72990798D02*
X144610590Y-73086036D01*
X145515352Y-73419370D02*
X145515352Y-72752703D01*
X145515352Y-72943179D02*
X145562971Y-72847941D01*
X145562971Y-72847941D02*
X145610590Y-72800322D01*
X145610590Y-72800322D02*
X145705828Y-72752703D01*
X145705828Y-72752703D02*
X145801066Y-72752703D01*
X129372492Y-74029314D02*
X129372492Y-74743599D01*
X129372492Y-74743599D02*
X129324873Y-74886456D01*
X129324873Y-74886456D02*
X129229635Y-74981695D01*
X129229635Y-74981695D02*
X129086778Y-75029314D01*
X129086778Y-75029314D02*
X128991540Y-75029314D01*
X130324873Y-75029314D02*
X129848683Y-75029314D01*
X129848683Y-75029314D02*
X129848683Y-74029314D01*
X131229635Y-74934075D02*
X131182016Y-74981695D01*
X131182016Y-74981695D02*
X131039159Y-75029314D01*
X131039159Y-75029314D02*
X130943921Y-75029314D01*
X130943921Y-75029314D02*
X130801064Y-74981695D01*
X130801064Y-74981695D02*
X130705826Y-74886456D01*
X130705826Y-74886456D02*
X130658207Y-74791218D01*
X130658207Y-74791218D02*
X130610588Y-74600742D01*
X130610588Y-74600742D02*
X130610588Y-74457885D01*
X130610588Y-74457885D02*
X130658207Y-74267409D01*
X130658207Y-74267409D02*
X130705826Y-74172171D01*
X130705826Y-74172171D02*
X130801064Y-74076933D01*
X130801064Y-74076933D02*
X130943921Y-74029314D01*
X130943921Y-74029314D02*
X131039159Y-74029314D01*
X131039159Y-74029314D02*
X131182016Y-74076933D01*
X131182016Y-74076933D02*
X131229635Y-74124552D01*
X131848683Y-74029314D02*
X131943921Y-74029314D01*
X131943921Y-74029314D02*
X132039159Y-74076933D01*
X132039159Y-74076933D02*
X132086778Y-74124552D01*
X132086778Y-74124552D02*
X132134397Y-74219790D01*
X132134397Y-74219790D02*
X132182016Y-74410266D01*
X132182016Y-74410266D02*
X132182016Y-74648361D01*
X132182016Y-74648361D02*
X132134397Y-74838837D01*
X132134397Y-74838837D02*
X132086778Y-74934075D01*
X132086778Y-74934075D02*
X132039159Y-74981695D01*
X132039159Y-74981695D02*
X131943921Y-75029314D01*
X131943921Y-75029314D02*
X131848683Y-75029314D01*
X131848683Y-75029314D02*
X131753445Y-74981695D01*
X131753445Y-74981695D02*
X131705826Y-74934075D01*
X131705826Y-74934075D02*
X131658207Y-74838837D01*
X131658207Y-74838837D02*
X131610588Y-74648361D01*
X131610588Y-74648361D02*
X131610588Y-74410266D01*
X131610588Y-74410266D02*
X131658207Y-74219790D01*
X131658207Y-74219790D02*
X131705826Y-74124552D01*
X131705826Y-74124552D02*
X131753445Y-74076933D01*
X131753445Y-74076933D02*
X131848683Y-74029314D01*
X133039159Y-74362647D02*
X133039159Y-75029314D01*
X132801064Y-73981695D02*
X132562969Y-74695980D01*
X132562969Y-74695980D02*
X133182016Y-74695980D01*
X133753445Y-74029314D02*
X133848683Y-74029314D01*
X133848683Y-74029314D02*
X133943921Y-74076933D01*
X133943921Y-74076933D02*
X133991540Y-74124552D01*
X133991540Y-74124552D02*
X134039159Y-74219790D01*
X134039159Y-74219790D02*
X134086778Y-74410266D01*
X134086778Y-74410266D02*
X134086778Y-74648361D01*
X134086778Y-74648361D02*
X134039159Y-74838837D01*
X134039159Y-74838837D02*
X133991540Y-74934075D01*
X133991540Y-74934075D02*
X133943921Y-74981695D01*
X133943921Y-74981695D02*
X133848683Y-75029314D01*
X133848683Y-75029314D02*
X133753445Y-75029314D01*
X133753445Y-75029314D02*
X133658207Y-74981695D01*
X133658207Y-74981695D02*
X133610588Y-74934075D01*
X133610588Y-74934075D02*
X133562969Y-74838837D01*
X133562969Y-74838837D02*
X133515350Y-74648361D01*
X133515350Y-74648361D02*
X133515350Y-74410266D01*
X133515350Y-74410266D02*
X133562969Y-74219790D01*
X133562969Y-74219790D02*
X133610588Y-74124552D01*
X133610588Y-74124552D02*
X133658207Y-74076933D01*
X133658207Y-74076933D02*
X133753445Y-74029314D01*
X134658207Y-74457885D02*
X134562969Y-74410266D01*
X134562969Y-74410266D02*
X134515350Y-74362647D01*
X134515350Y-74362647D02*
X134467731Y-74267409D01*
X134467731Y-74267409D02*
X134467731Y-74219790D01*
X134467731Y-74219790D02*
X134515350Y-74124552D01*
X134515350Y-74124552D02*
X134562969Y-74076933D01*
X134562969Y-74076933D02*
X134658207Y-74029314D01*
X134658207Y-74029314D02*
X134848683Y-74029314D01*
X134848683Y-74029314D02*
X134943921Y-74076933D01*
X134943921Y-74076933D02*
X134991540Y-74124552D01*
X134991540Y-74124552D02*
X135039159Y-74219790D01*
X135039159Y-74219790D02*
X135039159Y-74267409D01*
X135039159Y-74267409D02*
X134991540Y-74362647D01*
X134991540Y-74362647D02*
X134943921Y-74410266D01*
X134943921Y-74410266D02*
X134848683Y-74457885D01*
X134848683Y-74457885D02*
X134658207Y-74457885D01*
X134658207Y-74457885D02*
X134562969Y-74505504D01*
X134562969Y-74505504D02*
X134515350Y-74553123D01*
X134515350Y-74553123D02*
X134467731Y-74648361D01*
X134467731Y-74648361D02*
X134467731Y-74838837D01*
X134467731Y-74838837D02*
X134515350Y-74934075D01*
X134515350Y-74934075D02*
X134562969Y-74981695D01*
X134562969Y-74981695D02*
X134658207Y-75029314D01*
X134658207Y-75029314D02*
X134848683Y-75029314D01*
X134848683Y-75029314D02*
X134943921Y-74981695D01*
X134943921Y-74981695D02*
X134991540Y-74934075D01*
X134991540Y-74934075D02*
X135039159Y-74838837D01*
X135039159Y-74838837D02*
X135039159Y-74648361D01*
X135039159Y-74648361D02*
X134991540Y-74553123D01*
X134991540Y-74553123D02*
X134943921Y-74505504D01*
X134943921Y-74505504D02*
X134848683Y-74457885D01*
X135991540Y-75029314D02*
X135420112Y-75029314D01*
X135705826Y-75029314D02*
X135705826Y-74029314D01*
X135705826Y-74029314D02*
X135610588Y-74172171D01*
X135610588Y-74172171D02*
X135515350Y-74267409D01*
X135515350Y-74267409D02*
X135420112Y-74315028D01*
X136943921Y-75029314D02*
X136372493Y-75029314D01*
X136658207Y-75029314D02*
X136658207Y-74029314D01*
X136658207Y-74029314D02*
X136562969Y-74172171D01*
X136562969Y-74172171D02*
X136467731Y-74267409D01*
X136467731Y-74267409D02*
X136372493Y-74315028D01*
X137372493Y-74648361D02*
X138134398Y-74648361D01*
X138515350Y-74029314D02*
X139134397Y-74029314D01*
X139134397Y-74029314D02*
X138801064Y-74410266D01*
X138801064Y-74410266D02*
X138943921Y-74410266D01*
X138943921Y-74410266D02*
X139039159Y-74457885D01*
X139039159Y-74457885D02*
X139086778Y-74505504D01*
X139086778Y-74505504D02*
X139134397Y-74600742D01*
X139134397Y-74600742D02*
X139134397Y-74838837D01*
X139134397Y-74838837D02*
X139086778Y-74934075D01*
X139086778Y-74934075D02*
X139039159Y-74981695D01*
X139039159Y-74981695D02*
X138943921Y-75029314D01*
X138943921Y-75029314D02*
X138658207Y-75029314D01*
X138658207Y-75029314D02*
X138562969Y-74981695D01*
X138562969Y-74981695D02*
X138515350Y-74934075D01*
X139467731Y-74029314D02*
X140086778Y-74029314D01*
X140086778Y-74029314D02*
X139753445Y-74410266D01*
X139753445Y-74410266D02*
X139896302Y-74410266D01*
X139896302Y-74410266D02*
X139991540Y-74457885D01*
X139991540Y-74457885D02*
X140039159Y-74505504D01*
X140039159Y-74505504D02*
X140086778Y-74600742D01*
X140086778Y-74600742D02*
X140086778Y-74838837D01*
X140086778Y-74838837D02*
X140039159Y-74934075D01*
X140039159Y-74934075D02*
X139991540Y-74981695D01*
X139991540Y-74981695D02*
X139896302Y-75029314D01*
X139896302Y-75029314D02*
X139610588Y-75029314D01*
X139610588Y-75029314D02*
X139515350Y-74981695D01*
X139515350Y-74981695D02*
X139467731Y-74934075D01*
X141039159Y-75029314D02*
X140467731Y-75029314D01*
X140753445Y-75029314D02*
X140753445Y-74029314D01*
X140753445Y-74029314D02*
X140658207Y-74172171D01*
X140658207Y-74172171D02*
X140562969Y-74267409D01*
X140562969Y-74267409D02*
X140467731Y-74315028D01*
X141372493Y-74029314D02*
X141991540Y-74029314D01*
X141991540Y-74029314D02*
X141658207Y-74410266D01*
X141658207Y-74410266D02*
X141801064Y-74410266D01*
X141801064Y-74410266D02*
X141896302Y-74457885D01*
X141896302Y-74457885D02*
X141943921Y-74505504D01*
X141943921Y-74505504D02*
X141991540Y-74600742D01*
X141991540Y-74600742D02*
X141991540Y-74838837D01*
X141991540Y-74838837D02*
X141943921Y-74934075D01*
X141943921Y-74934075D02*
X141896302Y-74981695D01*
X141896302Y-74981695D02*
X141801064Y-75029314D01*
X141801064Y-75029314D02*
X141515350Y-75029314D01*
X141515350Y-75029314D02*
X141420112Y-74981695D01*
X141420112Y-74981695D02*
X141372493Y-74934075D01*
X143134398Y-74981695D02*
X143277255Y-75029314D01*
X143277255Y-75029314D02*
X143515350Y-75029314D01*
X143515350Y-75029314D02*
X143610588Y-74981695D01*
X143610588Y-74981695D02*
X143658207Y-74934075D01*
X143658207Y-74934075D02*
X143705826Y-74838837D01*
X143705826Y-74838837D02*
X143705826Y-74743599D01*
X143705826Y-74743599D02*
X143658207Y-74648361D01*
X143658207Y-74648361D02*
X143610588Y-74600742D01*
X143610588Y-74600742D02*
X143515350Y-74553123D01*
X143515350Y-74553123D02*
X143324874Y-74505504D01*
X143324874Y-74505504D02*
X143229636Y-74457885D01*
X143229636Y-74457885D02*
X143182017Y-74410266D01*
X143182017Y-74410266D02*
X143134398Y-74315028D01*
X143134398Y-74315028D02*
X143134398Y-74219790D01*
X143134398Y-74219790D02*
X143182017Y-74124552D01*
X143182017Y-74124552D02*
X143229636Y-74076933D01*
X143229636Y-74076933D02*
X143324874Y-74029314D01*
X143324874Y-74029314D02*
X143562969Y-74029314D01*
X143562969Y-74029314D02*
X143705826Y-74076933D01*
X143991541Y-74362647D02*
X144372493Y-74362647D01*
X144134398Y-74029314D02*
X144134398Y-74886456D01*
X144134398Y-74886456D02*
X144182017Y-74981695D01*
X144182017Y-74981695D02*
X144277255Y-75029314D01*
X144277255Y-75029314D02*
X144372493Y-75029314D01*
X145134398Y-75029314D02*
X145134398Y-74505504D01*
X145134398Y-74505504D02*
X145086779Y-74410266D01*
X145086779Y-74410266D02*
X144991541Y-74362647D01*
X144991541Y-74362647D02*
X144801065Y-74362647D01*
X144801065Y-74362647D02*
X144705827Y-74410266D01*
X145134398Y-74981695D02*
X145039160Y-75029314D01*
X145039160Y-75029314D02*
X144801065Y-75029314D01*
X144801065Y-75029314D02*
X144705827Y-74981695D01*
X144705827Y-74981695D02*
X144658208Y-74886456D01*
X144658208Y-74886456D02*
X144658208Y-74791218D01*
X144658208Y-74791218D02*
X144705827Y-74695980D01*
X144705827Y-74695980D02*
X144801065Y-74648361D01*
X144801065Y-74648361D02*
X145039160Y-74648361D01*
X145039160Y-74648361D02*
X145134398Y-74600742D01*
X146039160Y-74981695D02*
X145943922Y-75029314D01*
X145943922Y-75029314D02*
X145753446Y-75029314D01*
X145753446Y-75029314D02*
X145658208Y-74981695D01*
X145658208Y-74981695D02*
X145610589Y-74934075D01*
X145610589Y-74934075D02*
X145562970Y-74838837D01*
X145562970Y-74838837D02*
X145562970Y-74553123D01*
X145562970Y-74553123D02*
X145610589Y-74457885D01*
X145610589Y-74457885D02*
X145658208Y-74410266D01*
X145658208Y-74410266D02*
X145753446Y-74362647D01*
X145753446Y-74362647D02*
X145943922Y-74362647D01*
X145943922Y-74362647D02*
X146039160Y-74410266D01*
X146467732Y-75029314D02*
X146467732Y-74029314D01*
X146562970Y-74648361D02*
X146848684Y-75029314D01*
X146848684Y-74362647D02*
X146467732Y-74743599D01*
X147705827Y-74362647D02*
X147705827Y-75029314D01*
X147277256Y-74362647D02*
X147277256Y-74886456D01*
X147277256Y-74886456D02*
X147324875Y-74981695D01*
X147324875Y-74981695D02*
X147420113Y-75029314D01*
X147420113Y-75029314D02*
X147562970Y-75029314D01*
X147562970Y-75029314D02*
X147658208Y-74981695D01*
X147658208Y-74981695D02*
X147705827Y-74934075D01*
X148182018Y-74362647D02*
X148182018Y-75362647D01*
X148182018Y-74410266D02*
X148277256Y-74362647D01*
X148277256Y-74362647D02*
X148467732Y-74362647D01*
X148467732Y-74362647D02*
X148562970Y-74410266D01*
X148562970Y-74410266D02*
X148610589Y-74457885D01*
X148610589Y-74457885D02*
X148658208Y-74553123D01*
X148658208Y-74553123D02*
X148658208Y-74838837D01*
X148658208Y-74838837D02*
X148610589Y-74934075D01*
X148610589Y-74934075D02*
X148562970Y-74981695D01*
X148562970Y-74981695D02*
X148467732Y-75029314D01*
X148467732Y-75029314D02*
X148277256Y-75029314D01*
X148277256Y-75029314D02*
X148182018Y-74981695D01*
X149086780Y-74934075D02*
X149134399Y-74981695D01*
X149134399Y-74981695D02*
X149086780Y-75029314D01*
X149086780Y-75029314D02*
X149039161Y-74981695D01*
X149039161Y-74981695D02*
X149086780Y-74934075D01*
X149086780Y-74934075D02*
X149086780Y-75029314D01*
X150324875Y-75029314D02*
X150324875Y-74029314D01*
X150324875Y-74029314D02*
X150896303Y-75029314D01*
X150896303Y-75029314D02*
X150896303Y-74029314D01*
X151515351Y-75029314D02*
X151420113Y-74981695D01*
X151420113Y-74981695D02*
X151372494Y-74934075D01*
X151372494Y-74934075D02*
X151324875Y-74838837D01*
X151324875Y-74838837D02*
X151324875Y-74553123D01*
X151324875Y-74553123D02*
X151372494Y-74457885D01*
X151372494Y-74457885D02*
X151420113Y-74410266D01*
X151420113Y-74410266D02*
X151515351Y-74362647D01*
X151515351Y-74362647D02*
X151658208Y-74362647D01*
X151658208Y-74362647D02*
X151753446Y-74410266D01*
X151753446Y-74410266D02*
X151801065Y-74457885D01*
X151801065Y-74457885D02*
X151848684Y-74553123D01*
X151848684Y-74553123D02*
X151848684Y-74838837D01*
X151848684Y-74838837D02*
X151801065Y-74934075D01*
X151801065Y-74934075D02*
X151753446Y-74981695D01*
X151753446Y-74981695D02*
X151658208Y-75029314D01*
X151658208Y-75029314D02*
X151515351Y-75029314D01*
X152134399Y-74362647D02*
X152515351Y-74362647D01*
X152277256Y-74029314D02*
X152277256Y-74886456D01*
X152277256Y-74886456D02*
X152324875Y-74981695D01*
X152324875Y-74981695D02*
X152420113Y-75029314D01*
X152420113Y-75029314D02*
X152515351Y-75029314D01*
X129515349Y-75972591D02*
X129515349Y-76972591D01*
X129515349Y-76591639D02*
X129420111Y-76639258D01*
X129420111Y-76639258D02*
X129229635Y-76639258D01*
X129229635Y-76639258D02*
X129134397Y-76591639D01*
X129134397Y-76591639D02*
X129086778Y-76544019D01*
X129086778Y-76544019D02*
X129039159Y-76448781D01*
X129039159Y-76448781D02*
X129039159Y-76163067D01*
X129039159Y-76163067D02*
X129086778Y-76067829D01*
X129086778Y-76067829D02*
X129134397Y-76020210D01*
X129134397Y-76020210D02*
X129229635Y-75972591D01*
X129229635Y-75972591D02*
X129420111Y-75972591D01*
X129420111Y-75972591D02*
X129515349Y-76020210D01*
X130420111Y-75972591D02*
X130420111Y-76639258D01*
X129991540Y-75972591D02*
X129991540Y-76496400D01*
X129991540Y-76496400D02*
X130039159Y-76591639D01*
X130039159Y-76591639D02*
X130134397Y-76639258D01*
X130134397Y-76639258D02*
X130277254Y-76639258D01*
X130277254Y-76639258D02*
X130372492Y-76591639D01*
X130372492Y-76591639D02*
X130420111Y-76544019D01*
X130896302Y-76639258D02*
X130896302Y-75972591D01*
X130896302Y-75639258D02*
X130848683Y-75686877D01*
X130848683Y-75686877D02*
X130896302Y-75734496D01*
X130896302Y-75734496D02*
X130943921Y-75686877D01*
X130943921Y-75686877D02*
X130896302Y-75639258D01*
X130896302Y-75639258D02*
X130896302Y-75734496D01*
X131229635Y-75972591D02*
X131610587Y-75972591D01*
X131372492Y-75639258D02*
X131372492Y-76496400D01*
X131372492Y-76496400D02*
X131420111Y-76591639D01*
X131420111Y-76591639D02*
X131515349Y-76639258D01*
X131515349Y-76639258D02*
X131610587Y-76639258D01*
X132324873Y-76591639D02*
X132229635Y-76639258D01*
X132229635Y-76639258D02*
X132039159Y-76639258D01*
X132039159Y-76639258D02*
X131943921Y-76591639D01*
X131943921Y-76591639D02*
X131896302Y-76496400D01*
X131896302Y-76496400D02*
X131896302Y-76115448D01*
X131896302Y-76115448D02*
X131943921Y-76020210D01*
X131943921Y-76020210D02*
X132039159Y-75972591D01*
X132039159Y-75972591D02*
X132229635Y-75972591D01*
X132229635Y-75972591D02*
X132324873Y-76020210D01*
X132324873Y-76020210D02*
X132372492Y-76115448D01*
X132372492Y-76115448D02*
X132372492Y-76210686D01*
X132372492Y-76210686D02*
X131896302Y-76305924D01*
X133991540Y-76639258D02*
X133991540Y-76115448D01*
X133991540Y-76115448D02*
X133943921Y-76020210D01*
X133943921Y-76020210D02*
X133848683Y-75972591D01*
X133848683Y-75972591D02*
X133658207Y-75972591D01*
X133658207Y-75972591D02*
X133562969Y-76020210D01*
X133991540Y-76591639D02*
X133896302Y-76639258D01*
X133896302Y-76639258D02*
X133658207Y-76639258D01*
X133658207Y-76639258D02*
X133562969Y-76591639D01*
X133562969Y-76591639D02*
X133515350Y-76496400D01*
X133515350Y-76496400D02*
X133515350Y-76401162D01*
X133515350Y-76401162D02*
X133562969Y-76305924D01*
X133562969Y-76305924D02*
X133658207Y-76258305D01*
X133658207Y-76258305D02*
X133896302Y-76258305D01*
X133896302Y-76258305D02*
X133991540Y-76210686D01*
X134467731Y-75972591D02*
X134467731Y-76639258D01*
X134467731Y-76067829D02*
X134515350Y-76020210D01*
X134515350Y-76020210D02*
X134610588Y-75972591D01*
X134610588Y-75972591D02*
X134753445Y-75972591D01*
X134753445Y-75972591D02*
X134848683Y-76020210D01*
X134848683Y-76020210D02*
X134896302Y-76115448D01*
X134896302Y-76115448D02*
X134896302Y-76639258D01*
X136515350Y-76591639D02*
X136420112Y-76639258D01*
X136420112Y-76639258D02*
X136229636Y-76639258D01*
X136229636Y-76639258D02*
X136134398Y-76591639D01*
X136134398Y-76591639D02*
X136086779Y-76496400D01*
X136086779Y-76496400D02*
X136086779Y-76115448D01*
X136086779Y-76115448D02*
X136134398Y-76020210D01*
X136134398Y-76020210D02*
X136229636Y-75972591D01*
X136229636Y-75972591D02*
X136420112Y-75972591D01*
X136420112Y-75972591D02*
X136515350Y-76020210D01*
X136515350Y-76020210D02*
X136562969Y-76115448D01*
X136562969Y-76115448D02*
X136562969Y-76210686D01*
X136562969Y-76210686D02*
X136086779Y-76305924D01*
X136896303Y-76639258D02*
X137420112Y-75972591D01*
X136896303Y-75972591D02*
X137420112Y-76639258D01*
X138229636Y-76639258D02*
X138229636Y-76115448D01*
X138229636Y-76115448D02*
X138182017Y-76020210D01*
X138182017Y-76020210D02*
X138086779Y-75972591D01*
X138086779Y-75972591D02*
X137896303Y-75972591D01*
X137896303Y-75972591D02*
X137801065Y-76020210D01*
X138229636Y-76591639D02*
X138134398Y-76639258D01*
X138134398Y-76639258D02*
X137896303Y-76639258D01*
X137896303Y-76639258D02*
X137801065Y-76591639D01*
X137801065Y-76591639D02*
X137753446Y-76496400D01*
X137753446Y-76496400D02*
X137753446Y-76401162D01*
X137753446Y-76401162D02*
X137801065Y-76305924D01*
X137801065Y-76305924D02*
X137896303Y-76258305D01*
X137896303Y-76258305D02*
X138134398Y-76258305D01*
X138134398Y-76258305D02*
X138229636Y-76210686D01*
X139134398Y-76591639D02*
X139039160Y-76639258D01*
X139039160Y-76639258D02*
X138848684Y-76639258D01*
X138848684Y-76639258D02*
X138753446Y-76591639D01*
X138753446Y-76591639D02*
X138705827Y-76544019D01*
X138705827Y-76544019D02*
X138658208Y-76448781D01*
X138658208Y-76448781D02*
X138658208Y-76163067D01*
X138658208Y-76163067D02*
X138705827Y-76067829D01*
X138705827Y-76067829D02*
X138753446Y-76020210D01*
X138753446Y-76020210D02*
X138848684Y-75972591D01*
X138848684Y-75972591D02*
X139039160Y-75972591D01*
X139039160Y-75972591D02*
X139134398Y-76020210D01*
X139420113Y-75972591D02*
X139801065Y-75972591D01*
X139562970Y-75639258D02*
X139562970Y-76496400D01*
X139562970Y-76496400D02*
X139610589Y-76591639D01*
X139610589Y-76591639D02*
X139705827Y-76639258D01*
X139705827Y-76639258D02*
X139801065Y-76639258D01*
X140896304Y-76639258D02*
X140896304Y-75972591D01*
X140896304Y-76067829D02*
X140943923Y-76020210D01*
X140943923Y-76020210D02*
X141039161Y-75972591D01*
X141039161Y-75972591D02*
X141182018Y-75972591D01*
X141182018Y-75972591D02*
X141277256Y-76020210D01*
X141277256Y-76020210D02*
X141324875Y-76115448D01*
X141324875Y-76115448D02*
X141324875Y-76639258D01*
X141324875Y-76115448D02*
X141372494Y-76020210D01*
X141372494Y-76020210D02*
X141467732Y-75972591D01*
X141467732Y-75972591D02*
X141610589Y-75972591D01*
X141610589Y-75972591D02*
X141705828Y-76020210D01*
X141705828Y-76020210D02*
X141753447Y-76115448D01*
X141753447Y-76115448D02*
X141753447Y-76639258D01*
X142658208Y-76639258D02*
X142658208Y-76115448D01*
X142658208Y-76115448D02*
X142610589Y-76020210D01*
X142610589Y-76020210D02*
X142515351Y-75972591D01*
X142515351Y-75972591D02*
X142324875Y-75972591D01*
X142324875Y-75972591D02*
X142229637Y-76020210D01*
X142658208Y-76591639D02*
X142562970Y-76639258D01*
X142562970Y-76639258D02*
X142324875Y-76639258D01*
X142324875Y-76639258D02*
X142229637Y-76591639D01*
X142229637Y-76591639D02*
X142182018Y-76496400D01*
X142182018Y-76496400D02*
X142182018Y-76401162D01*
X142182018Y-76401162D02*
X142229637Y-76305924D01*
X142229637Y-76305924D02*
X142324875Y-76258305D01*
X142324875Y-76258305D02*
X142562970Y-76258305D01*
X142562970Y-76258305D02*
X142658208Y-76210686D01*
X142991542Y-75972591D02*
X143372494Y-75972591D01*
X143134399Y-75639258D02*
X143134399Y-76496400D01*
X143134399Y-76496400D02*
X143182018Y-76591639D01*
X143182018Y-76591639D02*
X143277256Y-76639258D01*
X143277256Y-76639258D02*
X143372494Y-76639258D01*
X144134399Y-76591639D02*
X144039161Y-76639258D01*
X144039161Y-76639258D02*
X143848685Y-76639258D01*
X143848685Y-76639258D02*
X143753447Y-76591639D01*
X143753447Y-76591639D02*
X143705828Y-76544019D01*
X143705828Y-76544019D02*
X143658209Y-76448781D01*
X143658209Y-76448781D02*
X143658209Y-76163067D01*
X143658209Y-76163067D02*
X143705828Y-76067829D01*
X143705828Y-76067829D02*
X143753447Y-76020210D01*
X143753447Y-76020210D02*
X143848685Y-75972591D01*
X143848685Y-75972591D02*
X144039161Y-75972591D01*
X144039161Y-75972591D02*
X144134399Y-76020210D01*
X144562971Y-76639258D02*
X144562971Y-75639258D01*
X144991542Y-76639258D02*
X144991542Y-76115448D01*
X144991542Y-76115448D02*
X144943923Y-76020210D01*
X144943923Y-76020210D02*
X144848685Y-75972591D01*
X144848685Y-75972591D02*
X144705828Y-75972591D01*
X144705828Y-75972591D02*
X144610590Y-76020210D01*
X144610590Y-76020210D02*
X144562971Y-76067829D01*
X145515352Y-76591639D02*
X145515352Y-76639258D01*
X145515352Y-76639258D02*
X145467733Y-76734496D01*
X145467733Y-76734496D02*
X145420114Y-76782115D01*
X146705828Y-76639258D02*
X146705828Y-75639258D01*
X146705828Y-76020210D02*
X146801066Y-75972591D01*
X146801066Y-75972591D02*
X146991542Y-75972591D01*
X146991542Y-75972591D02*
X147086780Y-76020210D01*
X147086780Y-76020210D02*
X147134399Y-76067829D01*
X147134399Y-76067829D02*
X147182018Y-76163067D01*
X147182018Y-76163067D02*
X147182018Y-76448781D01*
X147182018Y-76448781D02*
X147134399Y-76544019D01*
X147134399Y-76544019D02*
X147086780Y-76591639D01*
X147086780Y-76591639D02*
X146991542Y-76639258D01*
X146991542Y-76639258D02*
X146801066Y-76639258D01*
X146801066Y-76639258D02*
X146705828Y-76591639D01*
X148039161Y-75972591D02*
X148039161Y-76639258D01*
X147610590Y-75972591D02*
X147610590Y-76496400D01*
X147610590Y-76496400D02*
X147658209Y-76591639D01*
X147658209Y-76591639D02*
X147753447Y-76639258D01*
X147753447Y-76639258D02*
X147896304Y-76639258D01*
X147896304Y-76639258D02*
X147991542Y-76591639D01*
X147991542Y-76591639D02*
X148039161Y-76544019D01*
X148372495Y-75972591D02*
X148753447Y-75972591D01*
X148515352Y-75639258D02*
X148515352Y-76496400D01*
X148515352Y-76496400D02*
X148562971Y-76591639D01*
X148562971Y-76591639D02*
X148658209Y-76639258D01*
X148658209Y-76639258D02*
X148753447Y-76639258D01*
X149753448Y-75972591D02*
X149943924Y-76639258D01*
X149943924Y-76639258D02*
X150134400Y-76163067D01*
X150134400Y-76163067D02*
X150324876Y-76639258D01*
X150324876Y-76639258D02*
X150515352Y-75972591D01*
X150896305Y-76639258D02*
X150896305Y-75972591D01*
X150896305Y-75639258D02*
X150848686Y-75686877D01*
X150848686Y-75686877D02*
X150896305Y-75734496D01*
X150896305Y-75734496D02*
X150943924Y-75686877D01*
X150943924Y-75686877D02*
X150896305Y-75639258D01*
X150896305Y-75639258D02*
X150896305Y-75734496D01*
X151229638Y-75972591D02*
X151610590Y-75972591D01*
X151372495Y-75639258D02*
X151372495Y-76496400D01*
X151372495Y-76496400D02*
X151420114Y-76591639D01*
X151420114Y-76591639D02*
X151515352Y-76639258D01*
X151515352Y-76639258D02*
X151610590Y-76639258D01*
X151943924Y-76639258D02*
X151943924Y-75639258D01*
X152372495Y-76639258D02*
X152372495Y-76115448D01*
X152372495Y-76115448D02*
X152324876Y-76020210D01*
X152324876Y-76020210D02*
X152229638Y-75972591D01*
X152229638Y-75972591D02*
X152086781Y-75972591D01*
X152086781Y-75972591D02*
X151991543Y-76020210D01*
X151991543Y-76020210D02*
X151943924Y-76067829D01*
X152848686Y-76639258D02*
X152848686Y-75972591D01*
X152848686Y-75639258D02*
X152801067Y-75686877D01*
X152801067Y-75686877D02*
X152848686Y-75734496D01*
X152848686Y-75734496D02*
X152896305Y-75686877D01*
X152896305Y-75686877D02*
X152848686Y-75639258D01*
X152848686Y-75639258D02*
X152848686Y-75734496D01*
X153324876Y-75972591D02*
X153324876Y-76639258D01*
X153324876Y-76067829D02*
X153372495Y-76020210D01*
X153372495Y-76020210D02*
X153467733Y-75972591D01*
X153467733Y-75972591D02*
X153610590Y-75972591D01*
X153610590Y-75972591D02*
X153705828Y-76020210D01*
X153705828Y-76020210D02*
X153753447Y-76115448D01*
X153753447Y-76115448D02*
X153753447Y-76639258D01*
X129610587Y-78249202D02*
X129039159Y-78249202D01*
X129324873Y-78249202D02*
X129324873Y-77249202D01*
X129324873Y-77249202D02*
X129229635Y-77392059D01*
X129229635Y-77392059D02*
X129134397Y-77487297D01*
X129134397Y-77487297D02*
X129039159Y-77534916D01*
X130229635Y-77249202D02*
X130324873Y-77249202D01*
X130324873Y-77249202D02*
X130420111Y-77296821D01*
X130420111Y-77296821D02*
X130467730Y-77344440D01*
X130467730Y-77344440D02*
X130515349Y-77439678D01*
X130515349Y-77439678D02*
X130562968Y-77630154D01*
X130562968Y-77630154D02*
X130562968Y-77868249D01*
X130562968Y-77868249D02*
X130515349Y-78058725D01*
X130515349Y-78058725D02*
X130467730Y-78153963D01*
X130467730Y-78153963D02*
X130420111Y-78201583D01*
X130420111Y-78201583D02*
X130324873Y-78249202D01*
X130324873Y-78249202D02*
X130229635Y-78249202D01*
X130229635Y-78249202D02*
X130134397Y-78201583D01*
X130134397Y-78201583D02*
X130086778Y-78153963D01*
X130086778Y-78153963D02*
X130039159Y-78058725D01*
X130039159Y-78058725D02*
X129991540Y-77868249D01*
X129991540Y-77868249D02*
X129991540Y-77630154D01*
X129991540Y-77630154D02*
X130039159Y-77439678D01*
X130039159Y-77439678D02*
X130086778Y-77344440D01*
X130086778Y-77344440D02*
X130134397Y-77296821D01*
X130134397Y-77296821D02*
X130229635Y-77249202D01*
X130943921Y-78249202D02*
X131705825Y-77249202D01*
X131086778Y-77249202D02*
X131182016Y-77296821D01*
X131182016Y-77296821D02*
X131229635Y-77392059D01*
X131229635Y-77392059D02*
X131182016Y-77487297D01*
X131182016Y-77487297D02*
X131086778Y-77534916D01*
X131086778Y-77534916D02*
X130991540Y-77487297D01*
X130991540Y-77487297D02*
X130943921Y-77392059D01*
X130943921Y-77392059D02*
X130991540Y-77296821D01*
X130991540Y-77296821D02*
X131086778Y-77249202D01*
X131658206Y-78201583D02*
X131705825Y-78106344D01*
X131705825Y-78106344D02*
X131658206Y-78011106D01*
X131658206Y-78011106D02*
X131562968Y-77963487D01*
X131562968Y-77963487D02*
X131467730Y-78011106D01*
X131467730Y-78011106D02*
X131420111Y-78106344D01*
X131420111Y-78106344D02*
X131467730Y-78201583D01*
X131467730Y-78201583D02*
X131562968Y-78249202D01*
X131562968Y-78249202D02*
X131658206Y-78201583D01*
X132134397Y-78153963D02*
X132182016Y-78201583D01*
X132182016Y-78201583D02*
X132134397Y-78249202D01*
X132134397Y-78249202D02*
X132086778Y-78201583D01*
X132086778Y-78201583D02*
X132134397Y-78153963D01*
X132134397Y-78153963D02*
X132134397Y-78249202D01*
D11*
X55179762Y-50932419D02*
X55179762Y-49932419D01*
X55751190Y-50932419D02*
X55322619Y-50360990D01*
X55751190Y-49932419D02*
X55179762Y-50503847D01*
X56179762Y-50408609D02*
X56513095Y-50408609D01*
X56655952Y-50932419D02*
X56179762Y-50932419D01*
X56179762Y-50932419D02*
X56179762Y-49932419D01*
X56179762Y-49932419D02*
X56655952Y-49932419D01*
X57084524Y-50408609D02*
X57417857Y-50408609D01*
X57560714Y-50932419D02*
X57084524Y-50932419D01*
X57084524Y-50932419D02*
X57084524Y-49932419D01*
X57084524Y-49932419D02*
X57560714Y-49932419D01*
X57989286Y-50932419D02*
X57989286Y-49932419D01*
X57989286Y-49932419D02*
X58370238Y-49932419D01*
X58370238Y-49932419D02*
X58465476Y-49980038D01*
X58465476Y-49980038D02*
X58513095Y-50027657D01*
X58513095Y-50027657D02*
X58560714Y-50122895D01*
X58560714Y-50122895D02*
X58560714Y-50265752D01*
X58560714Y-50265752D02*
X58513095Y-50360990D01*
X58513095Y-50360990D02*
X58465476Y-50408609D01*
X58465476Y-50408609D02*
X58370238Y-50456228D01*
X58370238Y-50456228D02*
X57989286Y-50456228D01*
X59179762Y-49932419D02*
X59370238Y-49932419D01*
X59370238Y-49932419D02*
X59465476Y-49980038D01*
X59465476Y-49980038D02*
X59560714Y-50075276D01*
X59560714Y-50075276D02*
X59608333Y-50265752D01*
X59608333Y-50265752D02*
X59608333Y-50599085D01*
X59608333Y-50599085D02*
X59560714Y-50789561D01*
X59560714Y-50789561D02*
X59465476Y-50884800D01*
X59465476Y-50884800D02*
X59370238Y-50932419D01*
X59370238Y-50932419D02*
X59179762Y-50932419D01*
X59179762Y-50932419D02*
X59084524Y-50884800D01*
X59084524Y-50884800D02*
X58989286Y-50789561D01*
X58989286Y-50789561D02*
X58941667Y-50599085D01*
X58941667Y-50599085D02*
X58941667Y-50265752D01*
X58941667Y-50265752D02*
X58989286Y-50075276D01*
X58989286Y-50075276D02*
X59084524Y-49980038D01*
X59084524Y-49980038D02*
X59179762Y-49932419D01*
X60036905Y-49932419D02*
X60036905Y-50741942D01*
X60036905Y-50741942D02*
X60084524Y-50837180D01*
X60084524Y-50837180D02*
X60132143Y-50884800D01*
X60132143Y-50884800D02*
X60227381Y-50932419D01*
X60227381Y-50932419D02*
X60417857Y-50932419D01*
X60417857Y-50932419D02*
X60513095Y-50884800D01*
X60513095Y-50884800D02*
X60560714Y-50837180D01*
X60560714Y-50837180D02*
X60608333Y-50741942D01*
X60608333Y-50741942D02*
X60608333Y-49932419D01*
X60941667Y-49932419D02*
X61513095Y-49932419D01*
X61227381Y-50932419D02*
X61227381Y-49932419D01*
D12*
X57486904Y-46381927D02*
X57486904Y-45981927D01*
X57715475Y-46381927D02*
X57544046Y-46153356D01*
X57715475Y-45981927D02*
X57486904Y-46210499D01*
X57886904Y-46172403D02*
X58020237Y-46172403D01*
X58077380Y-46381927D02*
X57886904Y-46381927D01*
X57886904Y-46381927D02*
X57886904Y-45981927D01*
X57886904Y-45981927D02*
X58077380Y-45981927D01*
X58248809Y-46172403D02*
X58382142Y-46172403D01*
X58439285Y-46381927D02*
X58248809Y-46381927D01*
X58248809Y-46381927D02*
X58248809Y-45981927D01*
X58248809Y-45981927D02*
X58439285Y-45981927D01*
X58610714Y-46381927D02*
X58610714Y-45981927D01*
X58610714Y-45981927D02*
X58763095Y-45981927D01*
X58763095Y-45981927D02*
X58801190Y-46000975D01*
X58801190Y-46000975D02*
X58820237Y-46020022D01*
X58820237Y-46020022D02*
X58839285Y-46058118D01*
X58839285Y-46058118D02*
X58839285Y-46115260D01*
X58839285Y-46115260D02*
X58820237Y-46153356D01*
X58820237Y-46153356D02*
X58801190Y-46172403D01*
X58801190Y-46172403D02*
X58763095Y-46191451D01*
X58763095Y-46191451D02*
X58610714Y-46191451D01*
X59086904Y-45981927D02*
X59163095Y-45981927D01*
X59163095Y-45981927D02*
X59201190Y-46000975D01*
X59201190Y-46000975D02*
X59239285Y-46039070D01*
X59239285Y-46039070D02*
X59258333Y-46115260D01*
X59258333Y-46115260D02*
X59258333Y-46248594D01*
X59258333Y-46248594D02*
X59239285Y-46324784D01*
X59239285Y-46324784D02*
X59201190Y-46362880D01*
X59201190Y-46362880D02*
X59163095Y-46381927D01*
X59163095Y-46381927D02*
X59086904Y-46381927D01*
X59086904Y-46381927D02*
X59048809Y-46362880D01*
X59048809Y-46362880D02*
X59010714Y-46324784D01*
X59010714Y-46324784D02*
X58991666Y-46248594D01*
X58991666Y-46248594D02*
X58991666Y-46115260D01*
X58991666Y-46115260D02*
X59010714Y-46039070D01*
X59010714Y-46039070D02*
X59048809Y-46000975D01*
X59048809Y-46000975D02*
X59086904Y-45981927D01*
X59429762Y-45981927D02*
X59429762Y-46305737D01*
X59429762Y-46305737D02*
X59448809Y-46343832D01*
X59448809Y-46343832D02*
X59467857Y-46362880D01*
X59467857Y-46362880D02*
X59505952Y-46381927D01*
X59505952Y-46381927D02*
X59582143Y-46381927D01*
X59582143Y-46381927D02*
X59620238Y-46362880D01*
X59620238Y-46362880D02*
X59639285Y-46343832D01*
X59639285Y-46343832D02*
X59658333Y-46305737D01*
X59658333Y-46305737D02*
X59658333Y-45981927D01*
X59791667Y-45981927D02*
X60020238Y-45981927D01*
X59905952Y-46381927D02*
X59905952Y-45981927D01*
D10*
X114700000Y-72000000D02*
G75*
G02*
X109300000Y-72000000I-2700000J0D01*
G01*
X109300000Y-72000000D02*
G75*
G02*
X114700000Y-72000000I2700000J0D01*
G01*
X37700000Y-72000000D02*
G75*
G02*
X32300000Y-72000000I-2700000J0D01*
G01*
X32300000Y-72000000D02*
G75*
G02*
X37700000Y-72000000I2700000J0D01*
G01*
X37700000Y-30000000D02*
G75*
G02*
X32300000Y-30000000I-2700000J0D01*
G01*
X32300000Y-30000000D02*
G75*
G02*
X37700000Y-30000000I2700000J0D01*
G01*
X114700000Y-30000000D02*
G75*
G02*
X109300000Y-30000000I-2700000J0D01*
G01*
X109300000Y-30000000D02*
G75*
G02*
X114700000Y-30000000I2700000J0D01*
G01*
M02*
