G04 #@! TF.GenerationSoftware,KiCad,Pcbnew,8.0.6+1*
G04 #@! TF.CreationDate,2025-02-24T18:19:53+00:00*
G04 #@! TF.ProjectId,gshps,67736870-732e-46b6-9963-61645f706362,C*
G04 #@! TF.SameCoordinates,Original*
G04 #@! TF.FileFunction,Other,Comment*
%FSLAX46Y46*%
G04 Gerber Fmt 4.6, Leading zero omitted, Abs format (unit mm)*
G04 Created by KiCad (PCBNEW 8.0.6+1) date 2025-02-24 18:19:53*
%MOMM*%
%LPD*%
G01*
G04 APERTURE LIST*
%ADD10C,0.150000*%
%ADD11C,0.060000*%
%ADD12C,0.100000*%
G04 APERTURE END LIST*
D10*
X129086779Y-59539819D02*
X129086779Y-60349342D01*
X129086779Y-60349342D02*
X129134398Y-60444580D01*
X129134398Y-60444580D02*
X129182017Y-60492200D01*
X129182017Y-60492200D02*
X129277255Y-60539819D01*
X129277255Y-60539819D02*
X129467731Y-60539819D01*
X129467731Y-60539819D02*
X129562969Y-60492200D01*
X129562969Y-60492200D02*
X129610588Y-60444580D01*
X129610588Y-60444580D02*
X129658207Y-60349342D01*
X129658207Y-60349342D02*
X129658207Y-59539819D01*
X130086779Y-60492200D02*
X130229636Y-60539819D01*
X130229636Y-60539819D02*
X130467731Y-60539819D01*
X130467731Y-60539819D02*
X130562969Y-60492200D01*
X130562969Y-60492200D02*
X130610588Y-60444580D01*
X130610588Y-60444580D02*
X130658207Y-60349342D01*
X130658207Y-60349342D02*
X130658207Y-60254104D01*
X130658207Y-60254104D02*
X130610588Y-60158866D01*
X130610588Y-60158866D02*
X130562969Y-60111247D01*
X130562969Y-60111247D02*
X130467731Y-60063628D01*
X130467731Y-60063628D02*
X130277255Y-60016009D01*
X130277255Y-60016009D02*
X130182017Y-59968390D01*
X130182017Y-59968390D02*
X130134398Y-59920771D01*
X130134398Y-59920771D02*
X130086779Y-59825533D01*
X130086779Y-59825533D02*
X130086779Y-59730295D01*
X130086779Y-59730295D02*
X130134398Y-59635057D01*
X130134398Y-59635057D02*
X130182017Y-59587438D01*
X130182017Y-59587438D02*
X130277255Y-59539819D01*
X130277255Y-59539819D02*
X130515350Y-59539819D01*
X130515350Y-59539819D02*
X130658207Y-59587438D01*
X131420112Y-60016009D02*
X131562969Y-60063628D01*
X131562969Y-60063628D02*
X131610588Y-60111247D01*
X131610588Y-60111247D02*
X131658207Y-60206485D01*
X131658207Y-60206485D02*
X131658207Y-60349342D01*
X131658207Y-60349342D02*
X131610588Y-60444580D01*
X131610588Y-60444580D02*
X131562969Y-60492200D01*
X131562969Y-60492200D02*
X131467731Y-60539819D01*
X131467731Y-60539819D02*
X131086779Y-60539819D01*
X131086779Y-60539819D02*
X131086779Y-59539819D01*
X131086779Y-59539819D02*
X131420112Y-59539819D01*
X131420112Y-59539819D02*
X131515350Y-59587438D01*
X131515350Y-59587438D02*
X131562969Y-59635057D01*
X131562969Y-59635057D02*
X131610588Y-59730295D01*
X131610588Y-59730295D02*
X131610588Y-59825533D01*
X131610588Y-59825533D02*
X131562969Y-59920771D01*
X131562969Y-59920771D02*
X131515350Y-59968390D01*
X131515350Y-59968390D02*
X131420112Y-60016009D01*
X131420112Y-60016009D02*
X131086779Y-60016009D01*
X132705827Y-59539819D02*
X133277255Y-59539819D01*
X132991541Y-60539819D02*
X132991541Y-59539819D01*
X133610589Y-60539819D02*
X133610589Y-59873152D01*
X133610589Y-60063628D02*
X133658208Y-59968390D01*
X133658208Y-59968390D02*
X133705827Y-59920771D01*
X133705827Y-59920771D02*
X133801065Y-59873152D01*
X133801065Y-59873152D02*
X133896303Y-59873152D01*
X134658208Y-60539819D02*
X134658208Y-60016009D01*
X134658208Y-60016009D02*
X134610589Y-59920771D01*
X134610589Y-59920771D02*
X134515351Y-59873152D01*
X134515351Y-59873152D02*
X134324875Y-59873152D01*
X134324875Y-59873152D02*
X134229637Y-59920771D01*
X134658208Y-60492200D02*
X134562970Y-60539819D01*
X134562970Y-60539819D02*
X134324875Y-60539819D01*
X134324875Y-60539819D02*
X134229637Y-60492200D01*
X134229637Y-60492200D02*
X134182018Y-60396961D01*
X134182018Y-60396961D02*
X134182018Y-60301723D01*
X134182018Y-60301723D02*
X134229637Y-60206485D01*
X134229637Y-60206485D02*
X134324875Y-60158866D01*
X134324875Y-60158866D02*
X134562970Y-60158866D01*
X134562970Y-60158866D02*
X134658208Y-60111247D01*
X135562970Y-60492200D02*
X135467732Y-60539819D01*
X135467732Y-60539819D02*
X135277256Y-60539819D01*
X135277256Y-60539819D02*
X135182018Y-60492200D01*
X135182018Y-60492200D02*
X135134399Y-60444580D01*
X135134399Y-60444580D02*
X135086780Y-60349342D01*
X135086780Y-60349342D02*
X135086780Y-60063628D01*
X135086780Y-60063628D02*
X135134399Y-59968390D01*
X135134399Y-59968390D02*
X135182018Y-59920771D01*
X135182018Y-59920771D02*
X135277256Y-59873152D01*
X135277256Y-59873152D02*
X135467732Y-59873152D01*
X135467732Y-59873152D02*
X135562970Y-59920771D01*
X136372494Y-60492200D02*
X136277256Y-60539819D01*
X136277256Y-60539819D02*
X136086780Y-60539819D01*
X136086780Y-60539819D02*
X135991542Y-60492200D01*
X135991542Y-60492200D02*
X135943923Y-60396961D01*
X135943923Y-60396961D02*
X135943923Y-60016009D01*
X135943923Y-60016009D02*
X135991542Y-59920771D01*
X135991542Y-59920771D02*
X136086780Y-59873152D01*
X136086780Y-59873152D02*
X136277256Y-59873152D01*
X136277256Y-59873152D02*
X136372494Y-59920771D01*
X136372494Y-59920771D02*
X136420113Y-60016009D01*
X136420113Y-60016009D02*
X136420113Y-60111247D01*
X136420113Y-60111247D02*
X135943923Y-60206485D01*
X136801066Y-60492200D02*
X136896304Y-60539819D01*
X136896304Y-60539819D02*
X137086780Y-60539819D01*
X137086780Y-60539819D02*
X137182018Y-60492200D01*
X137182018Y-60492200D02*
X137229637Y-60396961D01*
X137229637Y-60396961D02*
X137229637Y-60349342D01*
X137229637Y-60349342D02*
X137182018Y-60254104D01*
X137182018Y-60254104D02*
X137086780Y-60206485D01*
X137086780Y-60206485D02*
X136943923Y-60206485D01*
X136943923Y-60206485D02*
X136848685Y-60158866D01*
X136848685Y-60158866D02*
X136801066Y-60063628D01*
X136801066Y-60063628D02*
X136801066Y-60016009D01*
X136801066Y-60016009D02*
X136848685Y-59920771D01*
X136848685Y-59920771D02*
X136943923Y-59873152D01*
X136943923Y-59873152D02*
X137086780Y-59873152D01*
X137086780Y-59873152D02*
X137182018Y-59920771D01*
X138420114Y-60539819D02*
X138420114Y-59873152D01*
X138420114Y-59968390D02*
X138467733Y-59920771D01*
X138467733Y-59920771D02*
X138562971Y-59873152D01*
X138562971Y-59873152D02*
X138705828Y-59873152D01*
X138705828Y-59873152D02*
X138801066Y-59920771D01*
X138801066Y-59920771D02*
X138848685Y-60016009D01*
X138848685Y-60016009D02*
X138848685Y-60539819D01*
X138848685Y-60016009D02*
X138896304Y-59920771D01*
X138896304Y-59920771D02*
X138991542Y-59873152D01*
X138991542Y-59873152D02*
X139134399Y-59873152D01*
X139134399Y-59873152D02*
X139229638Y-59920771D01*
X139229638Y-59920771D02*
X139277257Y-60016009D01*
X139277257Y-60016009D02*
X139277257Y-60539819D01*
X140182018Y-59873152D02*
X140182018Y-60539819D01*
X139753447Y-59873152D02*
X139753447Y-60396961D01*
X139753447Y-60396961D02*
X139801066Y-60492200D01*
X139801066Y-60492200D02*
X139896304Y-60539819D01*
X139896304Y-60539819D02*
X140039161Y-60539819D01*
X140039161Y-60539819D02*
X140134399Y-60492200D01*
X140134399Y-60492200D02*
X140182018Y-60444580D01*
X140610590Y-60492200D02*
X140705828Y-60539819D01*
X140705828Y-60539819D02*
X140896304Y-60539819D01*
X140896304Y-60539819D02*
X140991542Y-60492200D01*
X140991542Y-60492200D02*
X141039161Y-60396961D01*
X141039161Y-60396961D02*
X141039161Y-60349342D01*
X141039161Y-60349342D02*
X140991542Y-60254104D01*
X140991542Y-60254104D02*
X140896304Y-60206485D01*
X140896304Y-60206485D02*
X140753447Y-60206485D01*
X140753447Y-60206485D02*
X140658209Y-60158866D01*
X140658209Y-60158866D02*
X140610590Y-60063628D01*
X140610590Y-60063628D02*
X140610590Y-60016009D01*
X140610590Y-60016009D02*
X140658209Y-59920771D01*
X140658209Y-59920771D02*
X140753447Y-59873152D01*
X140753447Y-59873152D02*
X140896304Y-59873152D01*
X140896304Y-59873152D02*
X140991542Y-59920771D01*
X141324876Y-59873152D02*
X141705828Y-59873152D01*
X141467733Y-59539819D02*
X141467733Y-60396961D01*
X141467733Y-60396961D02*
X141515352Y-60492200D01*
X141515352Y-60492200D02*
X141610590Y-60539819D01*
X141610590Y-60539819D02*
X141705828Y-60539819D01*
X142801067Y-60539819D02*
X142801067Y-59539819D01*
X142801067Y-59920771D02*
X142896305Y-59873152D01*
X142896305Y-59873152D02*
X143086781Y-59873152D01*
X143086781Y-59873152D02*
X143182019Y-59920771D01*
X143182019Y-59920771D02*
X143229638Y-59968390D01*
X143229638Y-59968390D02*
X143277257Y-60063628D01*
X143277257Y-60063628D02*
X143277257Y-60349342D01*
X143277257Y-60349342D02*
X143229638Y-60444580D01*
X143229638Y-60444580D02*
X143182019Y-60492200D01*
X143182019Y-60492200D02*
X143086781Y-60539819D01*
X143086781Y-60539819D02*
X142896305Y-60539819D01*
X142896305Y-60539819D02*
X142801067Y-60492200D01*
X144086781Y-60492200D02*
X143991543Y-60539819D01*
X143991543Y-60539819D02*
X143801067Y-60539819D01*
X143801067Y-60539819D02*
X143705829Y-60492200D01*
X143705829Y-60492200D02*
X143658210Y-60396961D01*
X143658210Y-60396961D02*
X143658210Y-60016009D01*
X143658210Y-60016009D02*
X143705829Y-59920771D01*
X143705829Y-59920771D02*
X143801067Y-59873152D01*
X143801067Y-59873152D02*
X143991543Y-59873152D01*
X143991543Y-59873152D02*
X144086781Y-59920771D01*
X144086781Y-59920771D02*
X144134400Y-60016009D01*
X144134400Y-60016009D02*
X144134400Y-60111247D01*
X144134400Y-60111247D02*
X143658210Y-60206485D01*
X145372496Y-60539819D02*
X145562972Y-60539819D01*
X145562972Y-60539819D02*
X145658210Y-60492200D01*
X145658210Y-60492200D02*
X145705829Y-60444580D01*
X145705829Y-60444580D02*
X145801067Y-60301723D01*
X145801067Y-60301723D02*
X145848686Y-60111247D01*
X145848686Y-60111247D02*
X145848686Y-59730295D01*
X145848686Y-59730295D02*
X145801067Y-59635057D01*
X145801067Y-59635057D02*
X145753448Y-59587438D01*
X145753448Y-59587438D02*
X145658210Y-59539819D01*
X145658210Y-59539819D02*
X145467734Y-59539819D01*
X145467734Y-59539819D02*
X145372496Y-59587438D01*
X145372496Y-59587438D02*
X145324877Y-59635057D01*
X145324877Y-59635057D02*
X145277258Y-59730295D01*
X145277258Y-59730295D02*
X145277258Y-59968390D01*
X145277258Y-59968390D02*
X145324877Y-60063628D01*
X145324877Y-60063628D02*
X145372496Y-60111247D01*
X145372496Y-60111247D02*
X145467734Y-60158866D01*
X145467734Y-60158866D02*
X145658210Y-60158866D01*
X145658210Y-60158866D02*
X145753448Y-60111247D01*
X145753448Y-60111247D02*
X145801067Y-60063628D01*
X145801067Y-60063628D02*
X145848686Y-59968390D01*
X146467734Y-59539819D02*
X146562972Y-59539819D01*
X146562972Y-59539819D02*
X146658210Y-59587438D01*
X146658210Y-59587438D02*
X146705829Y-59635057D01*
X146705829Y-59635057D02*
X146753448Y-59730295D01*
X146753448Y-59730295D02*
X146801067Y-59920771D01*
X146801067Y-59920771D02*
X146801067Y-60158866D01*
X146801067Y-60158866D02*
X146753448Y-60349342D01*
X146753448Y-60349342D02*
X146705829Y-60444580D01*
X146705829Y-60444580D02*
X146658210Y-60492200D01*
X146658210Y-60492200D02*
X146562972Y-60539819D01*
X146562972Y-60539819D02*
X146467734Y-60539819D01*
X146467734Y-60539819D02*
X146372496Y-60492200D01*
X146372496Y-60492200D02*
X146324877Y-60444580D01*
X146324877Y-60444580D02*
X146277258Y-60349342D01*
X146277258Y-60349342D02*
X146229639Y-60158866D01*
X146229639Y-60158866D02*
X146229639Y-59920771D01*
X146229639Y-59920771D02*
X146277258Y-59730295D01*
X146277258Y-59730295D02*
X146324877Y-59635057D01*
X146324877Y-59635057D02*
X146372496Y-59587438D01*
X146372496Y-59587438D02*
X146467734Y-59539819D01*
X148182020Y-59539819D02*
X148372496Y-59539819D01*
X148372496Y-59539819D02*
X148467734Y-59587438D01*
X148467734Y-59587438D02*
X148562972Y-59682676D01*
X148562972Y-59682676D02*
X148610591Y-59873152D01*
X148610591Y-59873152D02*
X148610591Y-60206485D01*
X148610591Y-60206485D02*
X148562972Y-60396961D01*
X148562972Y-60396961D02*
X148467734Y-60492200D01*
X148467734Y-60492200D02*
X148372496Y-60539819D01*
X148372496Y-60539819D02*
X148182020Y-60539819D01*
X148182020Y-60539819D02*
X148086782Y-60492200D01*
X148086782Y-60492200D02*
X147991544Y-60396961D01*
X147991544Y-60396961D02*
X147943925Y-60206485D01*
X147943925Y-60206485D02*
X147943925Y-59873152D01*
X147943925Y-59873152D02*
X147991544Y-59682676D01*
X147991544Y-59682676D02*
X148086782Y-59587438D01*
X148086782Y-59587438D02*
X148182020Y-59539819D01*
X149039163Y-60539819D02*
X149039163Y-59539819D01*
X149467734Y-60539819D02*
X149467734Y-60016009D01*
X149467734Y-60016009D02*
X149420115Y-59920771D01*
X149420115Y-59920771D02*
X149324877Y-59873152D01*
X149324877Y-59873152D02*
X149182020Y-59873152D01*
X149182020Y-59873152D02*
X149086782Y-59920771D01*
X149086782Y-59920771D02*
X149039163Y-59968390D01*
X149943925Y-60539819D02*
X149943925Y-59873152D01*
X149943925Y-59968390D02*
X149991544Y-59920771D01*
X149991544Y-59920771D02*
X150086782Y-59873152D01*
X150086782Y-59873152D02*
X150229639Y-59873152D01*
X150229639Y-59873152D02*
X150324877Y-59920771D01*
X150324877Y-59920771D02*
X150372496Y-60016009D01*
X150372496Y-60016009D02*
X150372496Y-60539819D01*
X150372496Y-60016009D02*
X150420115Y-59920771D01*
X150420115Y-59920771D02*
X150515353Y-59873152D01*
X150515353Y-59873152D02*
X150658210Y-59873152D01*
X150658210Y-59873152D02*
X150753449Y-59920771D01*
X150753449Y-59920771D02*
X150801068Y-60016009D01*
X150801068Y-60016009D02*
X150801068Y-60539819D01*
X151229639Y-60492200D02*
X151324877Y-60539819D01*
X151324877Y-60539819D02*
X151515353Y-60539819D01*
X151515353Y-60539819D02*
X151610591Y-60492200D01*
X151610591Y-60492200D02*
X151658210Y-60396961D01*
X151658210Y-60396961D02*
X151658210Y-60349342D01*
X151658210Y-60349342D02*
X151610591Y-60254104D01*
X151610591Y-60254104D02*
X151515353Y-60206485D01*
X151515353Y-60206485D02*
X151372496Y-60206485D01*
X151372496Y-60206485D02*
X151277258Y-60158866D01*
X151277258Y-60158866D02*
X151229639Y-60063628D01*
X151229639Y-60063628D02*
X151229639Y-60016009D01*
X151229639Y-60016009D02*
X151277258Y-59920771D01*
X151277258Y-59920771D02*
X151372496Y-59873152D01*
X151372496Y-59873152D02*
X151515353Y-59873152D01*
X151515353Y-59873152D02*
X151610591Y-59920771D01*
X129086779Y-62149763D02*
X129086779Y-61149763D01*
X129086779Y-61149763D02*
X129324874Y-61149763D01*
X129324874Y-61149763D02*
X129467731Y-61197382D01*
X129467731Y-61197382D02*
X129562969Y-61292620D01*
X129562969Y-61292620D02*
X129610588Y-61387858D01*
X129610588Y-61387858D02*
X129658207Y-61578334D01*
X129658207Y-61578334D02*
X129658207Y-61721191D01*
X129658207Y-61721191D02*
X129610588Y-61911667D01*
X129610588Y-61911667D02*
X129562969Y-62006905D01*
X129562969Y-62006905D02*
X129467731Y-62102144D01*
X129467731Y-62102144D02*
X129324874Y-62149763D01*
X129324874Y-62149763D02*
X129086779Y-62149763D01*
X130086779Y-62149763D02*
X130086779Y-61483096D01*
X130086779Y-61149763D02*
X130039160Y-61197382D01*
X130039160Y-61197382D02*
X130086779Y-61245001D01*
X130086779Y-61245001D02*
X130134398Y-61197382D01*
X130134398Y-61197382D02*
X130086779Y-61149763D01*
X130086779Y-61149763D02*
X130086779Y-61245001D01*
X130420112Y-61483096D02*
X130801064Y-61483096D01*
X130562969Y-62149763D02*
X130562969Y-61292620D01*
X130562969Y-61292620D02*
X130610588Y-61197382D01*
X130610588Y-61197382D02*
X130705826Y-61149763D01*
X130705826Y-61149763D02*
X130801064Y-61149763D01*
X130991541Y-61483096D02*
X131372493Y-61483096D01*
X131134398Y-62149763D02*
X131134398Y-61292620D01*
X131134398Y-61292620D02*
X131182017Y-61197382D01*
X131182017Y-61197382D02*
X131277255Y-61149763D01*
X131277255Y-61149763D02*
X131372493Y-61149763D01*
X132086779Y-62102144D02*
X131991541Y-62149763D01*
X131991541Y-62149763D02*
X131801065Y-62149763D01*
X131801065Y-62149763D02*
X131705827Y-62102144D01*
X131705827Y-62102144D02*
X131658208Y-62006905D01*
X131658208Y-62006905D02*
X131658208Y-61625953D01*
X131658208Y-61625953D02*
X131705827Y-61530715D01*
X131705827Y-61530715D02*
X131801065Y-61483096D01*
X131801065Y-61483096D02*
X131991541Y-61483096D01*
X131991541Y-61483096D02*
X132086779Y-61530715D01*
X132086779Y-61530715D02*
X132134398Y-61625953D01*
X132134398Y-61625953D02*
X132134398Y-61721191D01*
X132134398Y-61721191D02*
X131658208Y-61816429D01*
X132562970Y-62149763D02*
X132562970Y-61483096D01*
X132562970Y-61673572D02*
X132610589Y-61578334D01*
X132610589Y-61578334D02*
X132658208Y-61530715D01*
X132658208Y-61530715D02*
X132753446Y-61483096D01*
X132753446Y-61483096D02*
X132848684Y-61483096D01*
X133562970Y-62102144D02*
X133467732Y-62149763D01*
X133467732Y-62149763D02*
X133277256Y-62149763D01*
X133277256Y-62149763D02*
X133182018Y-62102144D01*
X133182018Y-62102144D02*
X133134399Y-62006905D01*
X133134399Y-62006905D02*
X133134399Y-61625953D01*
X133134399Y-61625953D02*
X133182018Y-61530715D01*
X133182018Y-61530715D02*
X133277256Y-61483096D01*
X133277256Y-61483096D02*
X133467732Y-61483096D01*
X133467732Y-61483096D02*
X133562970Y-61530715D01*
X133562970Y-61530715D02*
X133610589Y-61625953D01*
X133610589Y-61625953D02*
X133610589Y-61721191D01*
X133610589Y-61721191D02*
X133134399Y-61816429D01*
X134039161Y-61483096D02*
X134039161Y-62149763D01*
X134039161Y-61578334D02*
X134086780Y-61530715D01*
X134086780Y-61530715D02*
X134182018Y-61483096D01*
X134182018Y-61483096D02*
X134324875Y-61483096D01*
X134324875Y-61483096D02*
X134420113Y-61530715D01*
X134420113Y-61530715D02*
X134467732Y-61625953D01*
X134467732Y-61625953D02*
X134467732Y-62149763D01*
X134801066Y-61483096D02*
X135182018Y-61483096D01*
X134943923Y-61149763D02*
X134943923Y-62006905D01*
X134943923Y-62006905D02*
X134991542Y-62102144D01*
X134991542Y-62102144D02*
X135086780Y-62149763D01*
X135086780Y-62149763D02*
X135182018Y-62149763D01*
X135515352Y-62149763D02*
X135515352Y-61483096D01*
X135515352Y-61149763D02*
X135467733Y-61197382D01*
X135467733Y-61197382D02*
X135515352Y-61245001D01*
X135515352Y-61245001D02*
X135562971Y-61197382D01*
X135562971Y-61197382D02*
X135515352Y-61149763D01*
X135515352Y-61149763D02*
X135515352Y-61245001D01*
X136420113Y-62149763D02*
X136420113Y-61625953D01*
X136420113Y-61625953D02*
X136372494Y-61530715D01*
X136372494Y-61530715D02*
X136277256Y-61483096D01*
X136277256Y-61483096D02*
X136086780Y-61483096D01*
X136086780Y-61483096D02*
X135991542Y-61530715D01*
X136420113Y-62102144D02*
X136324875Y-62149763D01*
X136324875Y-62149763D02*
X136086780Y-62149763D01*
X136086780Y-62149763D02*
X135991542Y-62102144D01*
X135991542Y-62102144D02*
X135943923Y-62006905D01*
X135943923Y-62006905D02*
X135943923Y-61911667D01*
X135943923Y-61911667D02*
X135991542Y-61816429D01*
X135991542Y-61816429D02*
X136086780Y-61768810D01*
X136086780Y-61768810D02*
X136324875Y-61768810D01*
X136324875Y-61768810D02*
X136420113Y-61721191D01*
X137039161Y-62149763D02*
X136943923Y-62102144D01*
X136943923Y-62102144D02*
X136896304Y-62006905D01*
X136896304Y-62006905D02*
X136896304Y-61149763D01*
X138467733Y-62530715D02*
X138420114Y-62483096D01*
X138420114Y-62483096D02*
X138324876Y-62340239D01*
X138324876Y-62340239D02*
X138277257Y-62245001D01*
X138277257Y-62245001D02*
X138229638Y-62102144D01*
X138229638Y-62102144D02*
X138182019Y-61864048D01*
X138182019Y-61864048D02*
X138182019Y-61673572D01*
X138182019Y-61673572D02*
X138229638Y-61435477D01*
X138229638Y-61435477D02*
X138277257Y-61292620D01*
X138277257Y-61292620D02*
X138324876Y-61197382D01*
X138324876Y-61197382D02*
X138420114Y-61054524D01*
X138420114Y-61054524D02*
X138467733Y-61006905D01*
X138753448Y-61149763D02*
X139420114Y-61149763D01*
X139420114Y-61149763D02*
X138753448Y-62149763D01*
X138753448Y-62149763D02*
X139420114Y-62149763D01*
X139943924Y-62149763D02*
X139848686Y-62102144D01*
X139848686Y-62102144D02*
X139801067Y-62054524D01*
X139801067Y-62054524D02*
X139753448Y-61959286D01*
X139753448Y-61959286D02*
X139753448Y-61673572D01*
X139753448Y-61673572D02*
X139801067Y-61578334D01*
X139801067Y-61578334D02*
X139848686Y-61530715D01*
X139848686Y-61530715D02*
X139943924Y-61483096D01*
X139943924Y-61483096D02*
X140086781Y-61483096D01*
X140086781Y-61483096D02*
X140182019Y-61530715D01*
X140182019Y-61530715D02*
X140229638Y-61578334D01*
X140229638Y-61578334D02*
X140277257Y-61673572D01*
X140277257Y-61673572D02*
X140277257Y-61959286D01*
X140277257Y-61959286D02*
X140229638Y-62054524D01*
X140229638Y-62054524D02*
X140182019Y-62102144D01*
X140182019Y-62102144D02*
X140086781Y-62149763D01*
X140086781Y-62149763D02*
X139943924Y-62149763D01*
X141134400Y-62149763D02*
X141134400Y-61149763D01*
X141134400Y-62102144D02*
X141039162Y-62149763D01*
X141039162Y-62149763D02*
X140848686Y-62149763D01*
X140848686Y-62149763D02*
X140753448Y-62102144D01*
X140753448Y-62102144D02*
X140705829Y-62054524D01*
X140705829Y-62054524D02*
X140658210Y-61959286D01*
X140658210Y-61959286D02*
X140658210Y-61673572D01*
X140658210Y-61673572D02*
X140705829Y-61578334D01*
X140705829Y-61578334D02*
X140753448Y-61530715D01*
X140753448Y-61530715D02*
X140848686Y-61483096D01*
X140848686Y-61483096D02*
X141039162Y-61483096D01*
X141039162Y-61483096D02*
X141134400Y-61530715D01*
X142039162Y-62149763D02*
X142039162Y-61149763D01*
X142039162Y-62102144D02*
X141943924Y-62149763D01*
X141943924Y-62149763D02*
X141753448Y-62149763D01*
X141753448Y-62149763D02*
X141658210Y-62102144D01*
X141658210Y-62102144D02*
X141610591Y-62054524D01*
X141610591Y-62054524D02*
X141562972Y-61959286D01*
X141562972Y-61959286D02*
X141562972Y-61673572D01*
X141562972Y-61673572D02*
X141610591Y-61578334D01*
X141610591Y-61578334D02*
X141658210Y-61530715D01*
X141658210Y-61530715D02*
X141753448Y-61483096D01*
X141753448Y-61483096D02*
X141943924Y-61483096D01*
X141943924Y-61483096D02*
X142039162Y-61530715D01*
X142515353Y-61625953D02*
X143277258Y-61625953D01*
X143277258Y-61911667D02*
X142515353Y-61911667D01*
X144182019Y-61483096D02*
X144182019Y-62149763D01*
X143943924Y-61102144D02*
X143705829Y-61816429D01*
X143705829Y-61816429D02*
X144324876Y-61816429D01*
X145182019Y-61149763D02*
X144705829Y-61149763D01*
X144705829Y-61149763D02*
X144658210Y-61625953D01*
X144658210Y-61625953D02*
X144705829Y-61578334D01*
X144705829Y-61578334D02*
X144801067Y-61530715D01*
X144801067Y-61530715D02*
X145039162Y-61530715D01*
X145039162Y-61530715D02*
X145134400Y-61578334D01*
X145134400Y-61578334D02*
X145182019Y-61625953D01*
X145182019Y-61625953D02*
X145229638Y-61721191D01*
X145229638Y-61721191D02*
X145229638Y-61959286D01*
X145229638Y-61959286D02*
X145182019Y-62054524D01*
X145182019Y-62054524D02*
X145134400Y-62102144D01*
X145134400Y-62102144D02*
X145039162Y-62149763D01*
X145039162Y-62149763D02*
X144801067Y-62149763D01*
X144801067Y-62149763D02*
X144705829Y-62102144D01*
X144705829Y-62102144D02*
X144658210Y-62054524D01*
X146610591Y-61149763D02*
X146801067Y-61149763D01*
X146801067Y-61149763D02*
X146896305Y-61197382D01*
X146896305Y-61197382D02*
X146991543Y-61292620D01*
X146991543Y-61292620D02*
X147039162Y-61483096D01*
X147039162Y-61483096D02*
X147039162Y-61816429D01*
X147039162Y-61816429D02*
X146991543Y-62006905D01*
X146991543Y-62006905D02*
X146896305Y-62102144D01*
X146896305Y-62102144D02*
X146801067Y-62149763D01*
X146801067Y-62149763D02*
X146610591Y-62149763D01*
X146610591Y-62149763D02*
X146515353Y-62102144D01*
X146515353Y-62102144D02*
X146420115Y-62006905D01*
X146420115Y-62006905D02*
X146372496Y-61816429D01*
X146372496Y-61816429D02*
X146372496Y-61483096D01*
X146372496Y-61483096D02*
X146420115Y-61292620D01*
X146420115Y-61292620D02*
X146515353Y-61197382D01*
X146515353Y-61197382D02*
X146610591Y-61149763D01*
X147467734Y-62149763D02*
X147467734Y-61149763D01*
X147896305Y-62149763D02*
X147896305Y-61625953D01*
X147896305Y-61625953D02*
X147848686Y-61530715D01*
X147848686Y-61530715D02*
X147753448Y-61483096D01*
X147753448Y-61483096D02*
X147610591Y-61483096D01*
X147610591Y-61483096D02*
X147515353Y-61530715D01*
X147515353Y-61530715D02*
X147467734Y-61578334D01*
X148372496Y-62149763D02*
X148372496Y-61483096D01*
X148372496Y-61578334D02*
X148420115Y-61530715D01*
X148420115Y-61530715D02*
X148515353Y-61483096D01*
X148515353Y-61483096D02*
X148658210Y-61483096D01*
X148658210Y-61483096D02*
X148753448Y-61530715D01*
X148753448Y-61530715D02*
X148801067Y-61625953D01*
X148801067Y-61625953D02*
X148801067Y-62149763D01*
X148801067Y-61625953D02*
X148848686Y-61530715D01*
X148848686Y-61530715D02*
X148943924Y-61483096D01*
X148943924Y-61483096D02*
X149086781Y-61483096D01*
X149086781Y-61483096D02*
X149182020Y-61530715D01*
X149182020Y-61530715D02*
X149229639Y-61625953D01*
X149229639Y-61625953D02*
X149229639Y-62149763D01*
X149658210Y-62102144D02*
X149753448Y-62149763D01*
X149753448Y-62149763D02*
X149943924Y-62149763D01*
X149943924Y-62149763D02*
X150039162Y-62102144D01*
X150039162Y-62102144D02*
X150086781Y-62006905D01*
X150086781Y-62006905D02*
X150086781Y-61959286D01*
X150086781Y-61959286D02*
X150039162Y-61864048D01*
X150039162Y-61864048D02*
X149943924Y-61816429D01*
X149943924Y-61816429D02*
X149801067Y-61816429D01*
X149801067Y-61816429D02*
X149705829Y-61768810D01*
X149705829Y-61768810D02*
X149658210Y-61673572D01*
X149658210Y-61673572D02*
X149658210Y-61625953D01*
X149658210Y-61625953D02*
X149705829Y-61530715D01*
X149705829Y-61530715D02*
X149801067Y-61483096D01*
X149801067Y-61483096D02*
X149943924Y-61483096D01*
X149943924Y-61483096D02*
X150039162Y-61530715D01*
X150420115Y-62530715D02*
X150467734Y-62483096D01*
X150467734Y-62483096D02*
X150562972Y-62340239D01*
X150562972Y-62340239D02*
X150610591Y-62245001D01*
X150610591Y-62245001D02*
X150658210Y-62102144D01*
X150658210Y-62102144D02*
X150705829Y-61864048D01*
X150705829Y-61864048D02*
X150705829Y-61673572D01*
X150705829Y-61673572D02*
X150658210Y-61435477D01*
X150658210Y-61435477D02*
X150610591Y-61292620D01*
X150610591Y-61292620D02*
X150562972Y-61197382D01*
X150562972Y-61197382D02*
X150467734Y-61054524D01*
X150467734Y-61054524D02*
X150420115Y-61006905D01*
X151229639Y-62102144D02*
X151229639Y-62149763D01*
X151229639Y-62149763D02*
X151182020Y-62245001D01*
X151182020Y-62245001D02*
X151134401Y-62292620D01*
X152324877Y-61149763D02*
X152943924Y-61149763D01*
X152943924Y-61149763D02*
X152610591Y-61530715D01*
X152610591Y-61530715D02*
X152753448Y-61530715D01*
X152753448Y-61530715D02*
X152848686Y-61578334D01*
X152848686Y-61578334D02*
X152896305Y-61625953D01*
X152896305Y-61625953D02*
X152943924Y-61721191D01*
X152943924Y-61721191D02*
X152943924Y-61959286D01*
X152943924Y-61959286D02*
X152896305Y-62054524D01*
X152896305Y-62054524D02*
X152848686Y-62102144D01*
X152848686Y-62102144D02*
X152753448Y-62149763D01*
X152753448Y-62149763D02*
X152467734Y-62149763D01*
X152467734Y-62149763D02*
X152372496Y-62102144D01*
X152372496Y-62102144D02*
X152324877Y-62054524D01*
X153562972Y-61149763D02*
X153658210Y-61149763D01*
X153658210Y-61149763D02*
X153753448Y-61197382D01*
X153753448Y-61197382D02*
X153801067Y-61245001D01*
X153801067Y-61245001D02*
X153848686Y-61340239D01*
X153848686Y-61340239D02*
X153896305Y-61530715D01*
X153896305Y-61530715D02*
X153896305Y-61768810D01*
X153896305Y-61768810D02*
X153848686Y-61959286D01*
X153848686Y-61959286D02*
X153801067Y-62054524D01*
X153801067Y-62054524D02*
X153753448Y-62102144D01*
X153753448Y-62102144D02*
X153658210Y-62149763D01*
X153658210Y-62149763D02*
X153562972Y-62149763D01*
X153562972Y-62149763D02*
X153467734Y-62102144D01*
X153467734Y-62102144D02*
X153420115Y-62054524D01*
X153420115Y-62054524D02*
X153372496Y-61959286D01*
X153372496Y-61959286D02*
X153324877Y-61768810D01*
X153324877Y-61768810D02*
X153324877Y-61530715D01*
X153324877Y-61530715D02*
X153372496Y-61340239D01*
X153372496Y-61340239D02*
X153420115Y-61245001D01*
X153420115Y-61245001D02*
X153467734Y-61197382D01*
X153467734Y-61197382D02*
X153562972Y-61149763D01*
X129277255Y-62759707D02*
X129467731Y-62759707D01*
X129467731Y-62759707D02*
X129562969Y-62807326D01*
X129562969Y-62807326D02*
X129658207Y-62902564D01*
X129658207Y-62902564D02*
X129705826Y-63093040D01*
X129705826Y-63093040D02*
X129705826Y-63426373D01*
X129705826Y-63426373D02*
X129658207Y-63616849D01*
X129658207Y-63616849D02*
X129562969Y-63712088D01*
X129562969Y-63712088D02*
X129467731Y-63759707D01*
X129467731Y-63759707D02*
X129277255Y-63759707D01*
X129277255Y-63759707D02*
X129182017Y-63712088D01*
X129182017Y-63712088D02*
X129086779Y-63616849D01*
X129086779Y-63616849D02*
X129039160Y-63426373D01*
X129039160Y-63426373D02*
X129039160Y-63093040D01*
X129039160Y-63093040D02*
X129086779Y-62902564D01*
X129086779Y-62902564D02*
X129182017Y-62807326D01*
X129182017Y-62807326D02*
X129277255Y-62759707D01*
X130134398Y-63759707D02*
X130134398Y-62759707D01*
X130562969Y-63759707D02*
X130562969Y-63235897D01*
X130562969Y-63235897D02*
X130515350Y-63140659D01*
X130515350Y-63140659D02*
X130420112Y-63093040D01*
X130420112Y-63093040D02*
X130277255Y-63093040D01*
X130277255Y-63093040D02*
X130182017Y-63140659D01*
X130182017Y-63140659D02*
X130134398Y-63188278D01*
X131039160Y-63759707D02*
X131039160Y-63093040D01*
X131039160Y-63188278D02*
X131086779Y-63140659D01*
X131086779Y-63140659D02*
X131182017Y-63093040D01*
X131182017Y-63093040D02*
X131324874Y-63093040D01*
X131324874Y-63093040D02*
X131420112Y-63140659D01*
X131420112Y-63140659D02*
X131467731Y-63235897D01*
X131467731Y-63235897D02*
X131467731Y-63759707D01*
X131467731Y-63235897D02*
X131515350Y-63140659D01*
X131515350Y-63140659D02*
X131610588Y-63093040D01*
X131610588Y-63093040D02*
X131753445Y-63093040D01*
X131753445Y-63093040D02*
X131848684Y-63140659D01*
X131848684Y-63140659D02*
X131896303Y-63235897D01*
X131896303Y-63235897D02*
X131896303Y-63759707D01*
X132324874Y-63712088D02*
X132420112Y-63759707D01*
X132420112Y-63759707D02*
X132610588Y-63759707D01*
X132610588Y-63759707D02*
X132705826Y-63712088D01*
X132705826Y-63712088D02*
X132753445Y-63616849D01*
X132753445Y-63616849D02*
X132753445Y-63569230D01*
X132753445Y-63569230D02*
X132705826Y-63473992D01*
X132705826Y-63473992D02*
X132610588Y-63426373D01*
X132610588Y-63426373D02*
X132467731Y-63426373D01*
X132467731Y-63426373D02*
X132372493Y-63378754D01*
X132372493Y-63378754D02*
X132324874Y-63283516D01*
X132324874Y-63283516D02*
X132324874Y-63235897D01*
X132324874Y-63235897D02*
X132372493Y-63140659D01*
X132372493Y-63140659D02*
X132467731Y-63093040D01*
X132467731Y-63093040D02*
X132610588Y-63093040D01*
X132610588Y-63093040D02*
X132705826Y-63140659D01*
X134515350Y-63664468D02*
X134467731Y-63712088D01*
X134467731Y-63712088D02*
X134324874Y-63759707D01*
X134324874Y-63759707D02*
X134229636Y-63759707D01*
X134229636Y-63759707D02*
X134086779Y-63712088D01*
X134086779Y-63712088D02*
X133991541Y-63616849D01*
X133991541Y-63616849D02*
X133943922Y-63521611D01*
X133943922Y-63521611D02*
X133896303Y-63331135D01*
X133896303Y-63331135D02*
X133896303Y-63188278D01*
X133896303Y-63188278D02*
X133943922Y-62997802D01*
X133943922Y-62997802D02*
X133991541Y-62902564D01*
X133991541Y-62902564D02*
X134086779Y-62807326D01*
X134086779Y-62807326D02*
X134229636Y-62759707D01*
X134229636Y-62759707D02*
X134324874Y-62759707D01*
X134324874Y-62759707D02*
X134467731Y-62807326D01*
X134467731Y-62807326D02*
X134515350Y-62854945D01*
X135086779Y-63759707D02*
X134991541Y-63712088D01*
X134991541Y-63712088D02*
X134943922Y-63664468D01*
X134943922Y-63664468D02*
X134896303Y-63569230D01*
X134896303Y-63569230D02*
X134896303Y-63283516D01*
X134896303Y-63283516D02*
X134943922Y-63188278D01*
X134943922Y-63188278D02*
X134991541Y-63140659D01*
X134991541Y-63140659D02*
X135086779Y-63093040D01*
X135086779Y-63093040D02*
X135229636Y-63093040D01*
X135229636Y-63093040D02*
X135324874Y-63140659D01*
X135324874Y-63140659D02*
X135372493Y-63188278D01*
X135372493Y-63188278D02*
X135420112Y-63283516D01*
X135420112Y-63283516D02*
X135420112Y-63569230D01*
X135420112Y-63569230D02*
X135372493Y-63664468D01*
X135372493Y-63664468D02*
X135324874Y-63712088D01*
X135324874Y-63712088D02*
X135229636Y-63759707D01*
X135229636Y-63759707D02*
X135086779Y-63759707D01*
X135848684Y-63759707D02*
X135848684Y-63093040D01*
X135848684Y-63188278D02*
X135896303Y-63140659D01*
X135896303Y-63140659D02*
X135991541Y-63093040D01*
X135991541Y-63093040D02*
X136134398Y-63093040D01*
X136134398Y-63093040D02*
X136229636Y-63140659D01*
X136229636Y-63140659D02*
X136277255Y-63235897D01*
X136277255Y-63235897D02*
X136277255Y-63759707D01*
X136277255Y-63235897D02*
X136324874Y-63140659D01*
X136324874Y-63140659D02*
X136420112Y-63093040D01*
X136420112Y-63093040D02*
X136562969Y-63093040D01*
X136562969Y-63093040D02*
X136658208Y-63140659D01*
X136658208Y-63140659D02*
X136705827Y-63235897D01*
X136705827Y-63235897D02*
X136705827Y-63759707D01*
X137182017Y-63759707D02*
X137182017Y-63093040D01*
X137182017Y-63188278D02*
X137229636Y-63140659D01*
X137229636Y-63140659D02*
X137324874Y-63093040D01*
X137324874Y-63093040D02*
X137467731Y-63093040D01*
X137467731Y-63093040D02*
X137562969Y-63140659D01*
X137562969Y-63140659D02*
X137610588Y-63235897D01*
X137610588Y-63235897D02*
X137610588Y-63759707D01*
X137610588Y-63235897D02*
X137658207Y-63140659D01*
X137658207Y-63140659D02*
X137753445Y-63093040D01*
X137753445Y-63093040D02*
X137896302Y-63093040D01*
X137896302Y-63093040D02*
X137991541Y-63140659D01*
X137991541Y-63140659D02*
X138039160Y-63235897D01*
X138039160Y-63235897D02*
X138039160Y-63759707D01*
X138658207Y-63759707D02*
X138562969Y-63712088D01*
X138562969Y-63712088D02*
X138515350Y-63664468D01*
X138515350Y-63664468D02*
X138467731Y-63569230D01*
X138467731Y-63569230D02*
X138467731Y-63283516D01*
X138467731Y-63283516D02*
X138515350Y-63188278D01*
X138515350Y-63188278D02*
X138562969Y-63140659D01*
X138562969Y-63140659D02*
X138658207Y-63093040D01*
X138658207Y-63093040D02*
X138801064Y-63093040D01*
X138801064Y-63093040D02*
X138896302Y-63140659D01*
X138896302Y-63140659D02*
X138943921Y-63188278D01*
X138943921Y-63188278D02*
X138991540Y-63283516D01*
X138991540Y-63283516D02*
X138991540Y-63569230D01*
X138991540Y-63569230D02*
X138943921Y-63664468D01*
X138943921Y-63664468D02*
X138896302Y-63712088D01*
X138896302Y-63712088D02*
X138801064Y-63759707D01*
X138801064Y-63759707D02*
X138658207Y-63759707D01*
X139420112Y-63093040D02*
X139420112Y-63759707D01*
X139420112Y-63188278D02*
X139467731Y-63140659D01*
X139467731Y-63140659D02*
X139562969Y-63093040D01*
X139562969Y-63093040D02*
X139705826Y-63093040D01*
X139705826Y-63093040D02*
X139801064Y-63140659D01*
X139801064Y-63140659D02*
X139848683Y-63235897D01*
X139848683Y-63235897D02*
X139848683Y-63759707D01*
X141372493Y-64140659D02*
X141324874Y-64093040D01*
X141324874Y-64093040D02*
X141229636Y-63950183D01*
X141229636Y-63950183D02*
X141182017Y-63854945D01*
X141182017Y-63854945D02*
X141134398Y-63712088D01*
X141134398Y-63712088D02*
X141086779Y-63473992D01*
X141086779Y-63473992D02*
X141086779Y-63283516D01*
X141086779Y-63283516D02*
X141134398Y-63045421D01*
X141134398Y-63045421D02*
X141182017Y-62902564D01*
X141182017Y-62902564D02*
X141229636Y-62807326D01*
X141229636Y-62807326D02*
X141324874Y-62664468D01*
X141324874Y-62664468D02*
X141372493Y-62616849D01*
X141658208Y-62759707D02*
X142324874Y-62759707D01*
X142324874Y-62759707D02*
X141658208Y-63759707D01*
X141658208Y-63759707D02*
X142324874Y-63759707D01*
X143086779Y-63712088D02*
X142991541Y-63759707D01*
X142991541Y-63759707D02*
X142801065Y-63759707D01*
X142801065Y-63759707D02*
X142705827Y-63712088D01*
X142705827Y-63712088D02*
X142658208Y-63616849D01*
X142658208Y-63616849D02*
X142658208Y-63235897D01*
X142658208Y-63235897D02*
X142705827Y-63140659D01*
X142705827Y-63140659D02*
X142801065Y-63093040D01*
X142801065Y-63093040D02*
X142991541Y-63093040D01*
X142991541Y-63093040D02*
X143086779Y-63140659D01*
X143086779Y-63140659D02*
X143134398Y-63235897D01*
X143134398Y-63235897D02*
X143134398Y-63331135D01*
X143134398Y-63331135D02*
X142658208Y-63426373D01*
X143467732Y-63093040D02*
X143705827Y-63759707D01*
X143705827Y-63759707D02*
X143943922Y-63093040D01*
X144705827Y-63712088D02*
X144610589Y-63759707D01*
X144610589Y-63759707D02*
X144420113Y-63759707D01*
X144420113Y-63759707D02*
X144324875Y-63712088D01*
X144324875Y-63712088D02*
X144277256Y-63616849D01*
X144277256Y-63616849D02*
X144277256Y-63235897D01*
X144277256Y-63235897D02*
X144324875Y-63140659D01*
X144324875Y-63140659D02*
X144420113Y-63093040D01*
X144420113Y-63093040D02*
X144610589Y-63093040D01*
X144610589Y-63093040D02*
X144705827Y-63140659D01*
X144705827Y-63140659D02*
X144753446Y-63235897D01*
X144753446Y-63235897D02*
X144753446Y-63331135D01*
X144753446Y-63331135D02*
X144277256Y-63426373D01*
X145182018Y-63093040D02*
X145182018Y-63759707D01*
X145182018Y-63188278D02*
X145229637Y-63140659D01*
X145229637Y-63140659D02*
X145324875Y-63093040D01*
X145324875Y-63093040D02*
X145467732Y-63093040D01*
X145467732Y-63093040D02*
X145562970Y-63140659D01*
X145562970Y-63140659D02*
X145610589Y-63235897D01*
X145610589Y-63235897D02*
X145610589Y-63759707D01*
X146086780Y-63235897D02*
X146848685Y-63235897D01*
X146848685Y-63521611D02*
X146086780Y-63521611D01*
X147753446Y-62759707D02*
X147562970Y-62759707D01*
X147562970Y-62759707D02*
X147467732Y-62807326D01*
X147467732Y-62807326D02*
X147420113Y-62854945D01*
X147420113Y-62854945D02*
X147324875Y-62997802D01*
X147324875Y-62997802D02*
X147277256Y-63188278D01*
X147277256Y-63188278D02*
X147277256Y-63569230D01*
X147277256Y-63569230D02*
X147324875Y-63664468D01*
X147324875Y-63664468D02*
X147372494Y-63712088D01*
X147372494Y-63712088D02*
X147467732Y-63759707D01*
X147467732Y-63759707D02*
X147658208Y-63759707D01*
X147658208Y-63759707D02*
X147753446Y-63712088D01*
X147753446Y-63712088D02*
X147801065Y-63664468D01*
X147801065Y-63664468D02*
X147848684Y-63569230D01*
X147848684Y-63569230D02*
X147848684Y-63331135D01*
X147848684Y-63331135D02*
X147801065Y-63235897D01*
X147801065Y-63235897D02*
X147753446Y-63188278D01*
X147753446Y-63188278D02*
X147658208Y-63140659D01*
X147658208Y-63140659D02*
X147467732Y-63140659D01*
X147467732Y-63140659D02*
X147372494Y-63188278D01*
X147372494Y-63188278D02*
X147324875Y-63235897D01*
X147324875Y-63235897D02*
X147277256Y-63331135D01*
X148467732Y-62759707D02*
X148562970Y-62759707D01*
X148562970Y-62759707D02*
X148658208Y-62807326D01*
X148658208Y-62807326D02*
X148705827Y-62854945D01*
X148705827Y-62854945D02*
X148753446Y-62950183D01*
X148753446Y-62950183D02*
X148801065Y-63140659D01*
X148801065Y-63140659D02*
X148801065Y-63378754D01*
X148801065Y-63378754D02*
X148753446Y-63569230D01*
X148753446Y-63569230D02*
X148705827Y-63664468D01*
X148705827Y-63664468D02*
X148658208Y-63712088D01*
X148658208Y-63712088D02*
X148562970Y-63759707D01*
X148562970Y-63759707D02*
X148467732Y-63759707D01*
X148467732Y-63759707D02*
X148372494Y-63712088D01*
X148372494Y-63712088D02*
X148324875Y-63664468D01*
X148324875Y-63664468D02*
X148277256Y-63569230D01*
X148277256Y-63569230D02*
X148229637Y-63378754D01*
X148229637Y-63378754D02*
X148229637Y-63140659D01*
X148229637Y-63140659D02*
X148277256Y-62950183D01*
X148277256Y-62950183D02*
X148324875Y-62854945D01*
X148324875Y-62854945D02*
X148372494Y-62807326D01*
X148372494Y-62807326D02*
X148467732Y-62759707D01*
X150182018Y-62759707D02*
X150372494Y-62759707D01*
X150372494Y-62759707D02*
X150467732Y-62807326D01*
X150467732Y-62807326D02*
X150562970Y-62902564D01*
X150562970Y-62902564D02*
X150610589Y-63093040D01*
X150610589Y-63093040D02*
X150610589Y-63426373D01*
X150610589Y-63426373D02*
X150562970Y-63616849D01*
X150562970Y-63616849D02*
X150467732Y-63712088D01*
X150467732Y-63712088D02*
X150372494Y-63759707D01*
X150372494Y-63759707D02*
X150182018Y-63759707D01*
X150182018Y-63759707D02*
X150086780Y-63712088D01*
X150086780Y-63712088D02*
X149991542Y-63616849D01*
X149991542Y-63616849D02*
X149943923Y-63426373D01*
X149943923Y-63426373D02*
X149943923Y-63093040D01*
X149943923Y-63093040D02*
X149991542Y-62902564D01*
X149991542Y-62902564D02*
X150086780Y-62807326D01*
X150086780Y-62807326D02*
X150182018Y-62759707D01*
X151039161Y-63759707D02*
X151039161Y-62759707D01*
X151467732Y-63759707D02*
X151467732Y-63235897D01*
X151467732Y-63235897D02*
X151420113Y-63140659D01*
X151420113Y-63140659D02*
X151324875Y-63093040D01*
X151324875Y-63093040D02*
X151182018Y-63093040D01*
X151182018Y-63093040D02*
X151086780Y-63140659D01*
X151086780Y-63140659D02*
X151039161Y-63188278D01*
X151943923Y-63759707D02*
X151943923Y-63093040D01*
X151943923Y-63188278D02*
X151991542Y-63140659D01*
X151991542Y-63140659D02*
X152086780Y-63093040D01*
X152086780Y-63093040D02*
X152229637Y-63093040D01*
X152229637Y-63093040D02*
X152324875Y-63140659D01*
X152324875Y-63140659D02*
X152372494Y-63235897D01*
X152372494Y-63235897D02*
X152372494Y-63759707D01*
X152372494Y-63235897D02*
X152420113Y-63140659D01*
X152420113Y-63140659D02*
X152515351Y-63093040D01*
X152515351Y-63093040D02*
X152658208Y-63093040D01*
X152658208Y-63093040D02*
X152753447Y-63140659D01*
X152753447Y-63140659D02*
X152801066Y-63235897D01*
X152801066Y-63235897D02*
X152801066Y-63759707D01*
X153229637Y-63712088D02*
X153324875Y-63759707D01*
X153324875Y-63759707D02*
X153515351Y-63759707D01*
X153515351Y-63759707D02*
X153610589Y-63712088D01*
X153610589Y-63712088D02*
X153658208Y-63616849D01*
X153658208Y-63616849D02*
X153658208Y-63569230D01*
X153658208Y-63569230D02*
X153610589Y-63473992D01*
X153610589Y-63473992D02*
X153515351Y-63426373D01*
X153515351Y-63426373D02*
X153372494Y-63426373D01*
X153372494Y-63426373D02*
X153277256Y-63378754D01*
X153277256Y-63378754D02*
X153229637Y-63283516D01*
X153229637Y-63283516D02*
X153229637Y-63235897D01*
X153229637Y-63235897D02*
X153277256Y-63140659D01*
X153277256Y-63140659D02*
X153372494Y-63093040D01*
X153372494Y-63093040D02*
X153515351Y-63093040D01*
X153515351Y-63093040D02*
X153610589Y-63140659D01*
X153991542Y-64140659D02*
X154039161Y-64093040D01*
X154039161Y-64093040D02*
X154134399Y-63950183D01*
X154134399Y-63950183D02*
X154182018Y-63854945D01*
X154182018Y-63854945D02*
X154229637Y-63712088D01*
X154229637Y-63712088D02*
X154277256Y-63473992D01*
X154277256Y-63473992D02*
X154277256Y-63283516D01*
X154277256Y-63283516D02*
X154229637Y-63045421D01*
X154229637Y-63045421D02*
X154182018Y-62902564D01*
X154182018Y-62902564D02*
X154134399Y-62807326D01*
X154134399Y-62807326D02*
X154039161Y-62664468D01*
X154039161Y-62664468D02*
X153991542Y-62616849D01*
X154753447Y-63664468D02*
X154801066Y-63712088D01*
X154801066Y-63712088D02*
X154753447Y-63759707D01*
X154753447Y-63759707D02*
X154705828Y-63712088D01*
X154705828Y-63712088D02*
X154753447Y-63664468D01*
X154753447Y-63664468D02*
X154753447Y-63759707D01*
X129372493Y-65979595D02*
X129372493Y-66693880D01*
X129372493Y-66693880D02*
X129324874Y-66836737D01*
X129324874Y-66836737D02*
X129229636Y-66931976D01*
X129229636Y-66931976D02*
X129086779Y-66979595D01*
X129086779Y-66979595D02*
X128991541Y-66979595D01*
X130324874Y-66979595D02*
X129848684Y-66979595D01*
X129848684Y-66979595D02*
X129848684Y-65979595D01*
X131229636Y-66884356D02*
X131182017Y-66931976D01*
X131182017Y-66931976D02*
X131039160Y-66979595D01*
X131039160Y-66979595D02*
X130943922Y-66979595D01*
X130943922Y-66979595D02*
X130801065Y-66931976D01*
X130801065Y-66931976D02*
X130705827Y-66836737D01*
X130705827Y-66836737D02*
X130658208Y-66741499D01*
X130658208Y-66741499D02*
X130610589Y-66551023D01*
X130610589Y-66551023D02*
X130610589Y-66408166D01*
X130610589Y-66408166D02*
X130658208Y-66217690D01*
X130658208Y-66217690D02*
X130705827Y-66122452D01*
X130705827Y-66122452D02*
X130801065Y-66027214D01*
X130801065Y-66027214D02*
X130943922Y-65979595D01*
X130943922Y-65979595D02*
X131039160Y-65979595D01*
X131039160Y-65979595D02*
X131182017Y-66027214D01*
X131182017Y-66027214D02*
X131229636Y-66074833D01*
X131658208Y-66979595D02*
X131658208Y-65979595D01*
X131658208Y-65979595D02*
X132039160Y-65979595D01*
X132039160Y-65979595D02*
X132134398Y-66027214D01*
X132134398Y-66027214D02*
X132182017Y-66074833D01*
X132182017Y-66074833D02*
X132229636Y-66170071D01*
X132229636Y-66170071D02*
X132229636Y-66312928D01*
X132229636Y-66312928D02*
X132182017Y-66408166D01*
X132182017Y-66408166D02*
X132134398Y-66455785D01*
X132134398Y-66455785D02*
X132039160Y-66503404D01*
X132039160Y-66503404D02*
X131658208Y-66503404D01*
X133229636Y-66884356D02*
X133182017Y-66931976D01*
X133182017Y-66931976D02*
X133039160Y-66979595D01*
X133039160Y-66979595D02*
X132943922Y-66979595D01*
X132943922Y-66979595D02*
X132801065Y-66931976D01*
X132801065Y-66931976D02*
X132705827Y-66836737D01*
X132705827Y-66836737D02*
X132658208Y-66741499D01*
X132658208Y-66741499D02*
X132610589Y-66551023D01*
X132610589Y-66551023D02*
X132610589Y-66408166D01*
X132610589Y-66408166D02*
X132658208Y-66217690D01*
X132658208Y-66217690D02*
X132705827Y-66122452D01*
X132705827Y-66122452D02*
X132801065Y-66027214D01*
X132801065Y-66027214D02*
X132943922Y-65979595D01*
X132943922Y-65979595D02*
X133039160Y-65979595D01*
X133039160Y-65979595D02*
X133182017Y-66027214D01*
X133182017Y-66027214D02*
X133229636Y-66074833D01*
X133991541Y-66455785D02*
X134134398Y-66503404D01*
X134134398Y-66503404D02*
X134182017Y-66551023D01*
X134182017Y-66551023D02*
X134229636Y-66646261D01*
X134229636Y-66646261D02*
X134229636Y-66789118D01*
X134229636Y-66789118D02*
X134182017Y-66884356D01*
X134182017Y-66884356D02*
X134134398Y-66931976D01*
X134134398Y-66931976D02*
X134039160Y-66979595D01*
X134039160Y-66979595D02*
X133658208Y-66979595D01*
X133658208Y-66979595D02*
X133658208Y-65979595D01*
X133658208Y-65979595D02*
X133991541Y-65979595D01*
X133991541Y-65979595D02*
X134086779Y-66027214D01*
X134086779Y-66027214D02*
X134134398Y-66074833D01*
X134134398Y-66074833D02*
X134182017Y-66170071D01*
X134182017Y-66170071D02*
X134182017Y-66265309D01*
X134182017Y-66265309D02*
X134134398Y-66360547D01*
X134134398Y-66360547D02*
X134086779Y-66408166D01*
X134086779Y-66408166D02*
X133991541Y-66455785D01*
X133991541Y-66455785D02*
X133658208Y-66455785D01*
X135372494Y-66931976D02*
X135515351Y-66979595D01*
X135515351Y-66979595D02*
X135753446Y-66979595D01*
X135753446Y-66979595D02*
X135848684Y-66931976D01*
X135848684Y-66931976D02*
X135896303Y-66884356D01*
X135896303Y-66884356D02*
X135943922Y-66789118D01*
X135943922Y-66789118D02*
X135943922Y-66693880D01*
X135943922Y-66693880D02*
X135896303Y-66598642D01*
X135896303Y-66598642D02*
X135848684Y-66551023D01*
X135848684Y-66551023D02*
X135753446Y-66503404D01*
X135753446Y-66503404D02*
X135562970Y-66455785D01*
X135562970Y-66455785D02*
X135467732Y-66408166D01*
X135467732Y-66408166D02*
X135420113Y-66360547D01*
X135420113Y-66360547D02*
X135372494Y-66265309D01*
X135372494Y-66265309D02*
X135372494Y-66170071D01*
X135372494Y-66170071D02*
X135420113Y-66074833D01*
X135420113Y-66074833D02*
X135467732Y-66027214D01*
X135467732Y-66027214D02*
X135562970Y-65979595D01*
X135562970Y-65979595D02*
X135801065Y-65979595D01*
X135801065Y-65979595D02*
X135943922Y-66027214D01*
X136229637Y-66312928D02*
X136610589Y-66312928D01*
X136372494Y-65979595D02*
X136372494Y-66836737D01*
X136372494Y-66836737D02*
X136420113Y-66931976D01*
X136420113Y-66931976D02*
X136515351Y-66979595D01*
X136515351Y-66979595D02*
X136610589Y-66979595D01*
X137372494Y-66979595D02*
X137372494Y-66455785D01*
X137372494Y-66455785D02*
X137324875Y-66360547D01*
X137324875Y-66360547D02*
X137229637Y-66312928D01*
X137229637Y-66312928D02*
X137039161Y-66312928D01*
X137039161Y-66312928D02*
X136943923Y-66360547D01*
X137372494Y-66931976D02*
X137277256Y-66979595D01*
X137277256Y-66979595D02*
X137039161Y-66979595D01*
X137039161Y-66979595D02*
X136943923Y-66931976D01*
X136943923Y-66931976D02*
X136896304Y-66836737D01*
X136896304Y-66836737D02*
X136896304Y-66741499D01*
X136896304Y-66741499D02*
X136943923Y-66646261D01*
X136943923Y-66646261D02*
X137039161Y-66598642D01*
X137039161Y-66598642D02*
X137277256Y-66598642D01*
X137277256Y-66598642D02*
X137372494Y-66551023D01*
X138277256Y-66931976D02*
X138182018Y-66979595D01*
X138182018Y-66979595D02*
X137991542Y-66979595D01*
X137991542Y-66979595D02*
X137896304Y-66931976D01*
X137896304Y-66931976D02*
X137848685Y-66884356D01*
X137848685Y-66884356D02*
X137801066Y-66789118D01*
X137801066Y-66789118D02*
X137801066Y-66503404D01*
X137801066Y-66503404D02*
X137848685Y-66408166D01*
X137848685Y-66408166D02*
X137896304Y-66360547D01*
X137896304Y-66360547D02*
X137991542Y-66312928D01*
X137991542Y-66312928D02*
X138182018Y-66312928D01*
X138182018Y-66312928D02*
X138277256Y-66360547D01*
X138705828Y-66979595D02*
X138705828Y-65979595D01*
X138801066Y-66598642D02*
X139086780Y-66979595D01*
X139086780Y-66312928D02*
X138705828Y-66693880D01*
X139943923Y-66312928D02*
X139943923Y-66979595D01*
X139515352Y-66312928D02*
X139515352Y-66836737D01*
X139515352Y-66836737D02*
X139562971Y-66931976D01*
X139562971Y-66931976D02*
X139658209Y-66979595D01*
X139658209Y-66979595D02*
X139801066Y-66979595D01*
X139801066Y-66979595D02*
X139896304Y-66931976D01*
X139896304Y-66931976D02*
X139943923Y-66884356D01*
X140420114Y-66312928D02*
X140420114Y-67312928D01*
X140420114Y-66360547D02*
X140515352Y-66312928D01*
X140515352Y-66312928D02*
X140705828Y-66312928D01*
X140705828Y-66312928D02*
X140801066Y-66360547D01*
X140801066Y-66360547D02*
X140848685Y-66408166D01*
X140848685Y-66408166D02*
X140896304Y-66503404D01*
X140896304Y-66503404D02*
X140896304Y-66789118D01*
X140896304Y-66789118D02*
X140848685Y-66884356D01*
X140848685Y-66884356D02*
X140801066Y-66931976D01*
X140801066Y-66931976D02*
X140705828Y-66979595D01*
X140705828Y-66979595D02*
X140515352Y-66979595D01*
X140515352Y-66979595D02*
X140420114Y-66931976D01*
X142658209Y-66884356D02*
X142610590Y-66931976D01*
X142610590Y-66931976D02*
X142467733Y-66979595D01*
X142467733Y-66979595D02*
X142372495Y-66979595D01*
X142372495Y-66979595D02*
X142229638Y-66931976D01*
X142229638Y-66931976D02*
X142134400Y-66836737D01*
X142134400Y-66836737D02*
X142086781Y-66741499D01*
X142086781Y-66741499D02*
X142039162Y-66551023D01*
X142039162Y-66551023D02*
X142039162Y-66408166D01*
X142039162Y-66408166D02*
X142086781Y-66217690D01*
X142086781Y-66217690D02*
X142134400Y-66122452D01*
X142134400Y-66122452D02*
X142229638Y-66027214D01*
X142229638Y-66027214D02*
X142372495Y-65979595D01*
X142372495Y-65979595D02*
X142467733Y-65979595D01*
X142467733Y-65979595D02*
X142610590Y-66027214D01*
X142610590Y-66027214D02*
X142658209Y-66074833D01*
X143086781Y-66979595D02*
X143086781Y-65979595D01*
X143515352Y-66979595D02*
X143515352Y-66455785D01*
X143515352Y-66455785D02*
X143467733Y-66360547D01*
X143467733Y-66360547D02*
X143372495Y-66312928D01*
X143372495Y-66312928D02*
X143229638Y-66312928D01*
X143229638Y-66312928D02*
X143134400Y-66360547D01*
X143134400Y-66360547D02*
X143086781Y-66408166D01*
X144420114Y-66979595D02*
X144420114Y-66455785D01*
X144420114Y-66455785D02*
X144372495Y-66360547D01*
X144372495Y-66360547D02*
X144277257Y-66312928D01*
X144277257Y-66312928D02*
X144086781Y-66312928D01*
X144086781Y-66312928D02*
X143991543Y-66360547D01*
X144420114Y-66931976D02*
X144324876Y-66979595D01*
X144324876Y-66979595D02*
X144086781Y-66979595D01*
X144086781Y-66979595D02*
X143991543Y-66931976D01*
X143991543Y-66931976D02*
X143943924Y-66836737D01*
X143943924Y-66836737D02*
X143943924Y-66741499D01*
X143943924Y-66741499D02*
X143991543Y-66646261D01*
X143991543Y-66646261D02*
X144086781Y-66598642D01*
X144086781Y-66598642D02*
X144324876Y-66598642D01*
X144324876Y-66598642D02*
X144420114Y-66551023D01*
X144896305Y-66979595D02*
X144896305Y-66312928D01*
X144896305Y-66503404D02*
X144943924Y-66408166D01*
X144943924Y-66408166D02*
X144991543Y-66360547D01*
X144991543Y-66360547D02*
X145086781Y-66312928D01*
X145086781Y-66312928D02*
X145182019Y-66312928D01*
X145372496Y-66312928D02*
X145753448Y-66312928D01*
X145515353Y-65979595D02*
X145515353Y-66836737D01*
X145515353Y-66836737D02*
X145562972Y-66931976D01*
X145562972Y-66931976D02*
X145658210Y-66979595D01*
X145658210Y-66979595D02*
X145753448Y-66979595D01*
X146086782Y-66884356D02*
X146134401Y-66931976D01*
X146134401Y-66931976D02*
X146086782Y-66979595D01*
X146086782Y-66979595D02*
X146039163Y-66931976D01*
X146039163Y-66931976D02*
X146086782Y-66884356D01*
X146086782Y-66884356D02*
X146086782Y-66979595D01*
X146086782Y-66360547D02*
X146134401Y-66408166D01*
X146134401Y-66408166D02*
X146086782Y-66455785D01*
X146086782Y-66455785D02*
X146039163Y-66408166D01*
X146039163Y-66408166D02*
X146086782Y-66360547D01*
X146086782Y-66360547D02*
X146086782Y-66455785D01*
X129086779Y-68589539D02*
X129086779Y-67589539D01*
X129515350Y-68589539D02*
X129515350Y-68065729D01*
X129515350Y-68065729D02*
X129467731Y-67970491D01*
X129467731Y-67970491D02*
X129372493Y-67922872D01*
X129372493Y-67922872D02*
X129229636Y-67922872D01*
X129229636Y-67922872D02*
X129134398Y-67970491D01*
X129134398Y-67970491D02*
X129086779Y-68018110D01*
X129848684Y-67922872D02*
X130229636Y-67922872D01*
X129991541Y-67589539D02*
X129991541Y-68446681D01*
X129991541Y-68446681D02*
X130039160Y-68541920D01*
X130039160Y-68541920D02*
X130134398Y-68589539D01*
X130134398Y-68589539D02*
X130229636Y-68589539D01*
X130420113Y-67922872D02*
X130801065Y-67922872D01*
X130562970Y-67589539D02*
X130562970Y-68446681D01*
X130562970Y-68446681D02*
X130610589Y-68541920D01*
X130610589Y-68541920D02*
X130705827Y-68589539D01*
X130705827Y-68589539D02*
X130801065Y-68589539D01*
X131134399Y-67922872D02*
X131134399Y-68922872D01*
X131134399Y-67970491D02*
X131229637Y-67922872D01*
X131229637Y-67922872D02*
X131420113Y-67922872D01*
X131420113Y-67922872D02*
X131515351Y-67970491D01*
X131515351Y-67970491D02*
X131562970Y-68018110D01*
X131562970Y-68018110D02*
X131610589Y-68113348D01*
X131610589Y-68113348D02*
X131610589Y-68399062D01*
X131610589Y-68399062D02*
X131562970Y-68494300D01*
X131562970Y-68494300D02*
X131515351Y-68541920D01*
X131515351Y-68541920D02*
X131420113Y-68589539D01*
X131420113Y-68589539D02*
X131229637Y-68589539D01*
X131229637Y-68589539D02*
X131134399Y-68541920D01*
X131991542Y-68541920D02*
X132086780Y-68589539D01*
X132086780Y-68589539D02*
X132277256Y-68589539D01*
X132277256Y-68589539D02*
X132372494Y-68541920D01*
X132372494Y-68541920D02*
X132420113Y-68446681D01*
X132420113Y-68446681D02*
X132420113Y-68399062D01*
X132420113Y-68399062D02*
X132372494Y-68303824D01*
X132372494Y-68303824D02*
X132277256Y-68256205D01*
X132277256Y-68256205D02*
X132134399Y-68256205D01*
X132134399Y-68256205D02*
X132039161Y-68208586D01*
X132039161Y-68208586D02*
X131991542Y-68113348D01*
X131991542Y-68113348D02*
X131991542Y-68065729D01*
X131991542Y-68065729D02*
X132039161Y-67970491D01*
X132039161Y-67970491D02*
X132134399Y-67922872D01*
X132134399Y-67922872D02*
X132277256Y-67922872D01*
X132277256Y-67922872D02*
X132372494Y-67970491D01*
X132848685Y-68494300D02*
X132896304Y-68541920D01*
X132896304Y-68541920D02*
X132848685Y-68589539D01*
X132848685Y-68589539D02*
X132801066Y-68541920D01*
X132801066Y-68541920D02*
X132848685Y-68494300D01*
X132848685Y-68494300D02*
X132848685Y-68589539D01*
X132848685Y-67970491D02*
X132896304Y-68018110D01*
X132896304Y-68018110D02*
X132848685Y-68065729D01*
X132848685Y-68065729D02*
X132801066Y-68018110D01*
X132801066Y-68018110D02*
X132848685Y-67970491D01*
X132848685Y-67970491D02*
X132848685Y-68065729D01*
X134039160Y-67541920D02*
X133182018Y-68827634D01*
X135086779Y-67541920D02*
X134229637Y-68827634D01*
X135420113Y-67922872D02*
X135420113Y-68780015D01*
X135420113Y-68780015D02*
X135372494Y-68875253D01*
X135372494Y-68875253D02*
X135277256Y-68922872D01*
X135277256Y-68922872D02*
X135229637Y-68922872D01*
X135420113Y-67589539D02*
X135372494Y-67637158D01*
X135372494Y-67637158D02*
X135420113Y-67684777D01*
X135420113Y-67684777D02*
X135467732Y-67637158D01*
X135467732Y-67637158D02*
X135420113Y-67589539D01*
X135420113Y-67589539D02*
X135420113Y-67684777D01*
X136039160Y-68589539D02*
X135943922Y-68541920D01*
X135943922Y-68541920D02*
X135896303Y-68446681D01*
X135896303Y-68446681D02*
X135896303Y-67589539D01*
X136848684Y-68541920D02*
X136753446Y-68589539D01*
X136753446Y-68589539D02*
X136562970Y-68589539D01*
X136562970Y-68589539D02*
X136467732Y-68541920D01*
X136467732Y-68541920D02*
X136420113Y-68494300D01*
X136420113Y-68494300D02*
X136372494Y-68399062D01*
X136372494Y-68399062D02*
X136372494Y-68113348D01*
X136372494Y-68113348D02*
X136420113Y-68018110D01*
X136420113Y-68018110D02*
X136467732Y-67970491D01*
X136467732Y-67970491D02*
X136562970Y-67922872D01*
X136562970Y-67922872D02*
X136753446Y-67922872D01*
X136753446Y-67922872D02*
X136848684Y-67970491D01*
X137277256Y-67922872D02*
X137277256Y-68922872D01*
X137277256Y-67970491D02*
X137372494Y-67922872D01*
X137372494Y-67922872D02*
X137562970Y-67922872D01*
X137562970Y-67922872D02*
X137658208Y-67970491D01*
X137658208Y-67970491D02*
X137705827Y-68018110D01*
X137705827Y-68018110D02*
X137753446Y-68113348D01*
X137753446Y-68113348D02*
X137753446Y-68399062D01*
X137753446Y-68399062D02*
X137705827Y-68494300D01*
X137705827Y-68494300D02*
X137658208Y-68541920D01*
X137658208Y-68541920D02*
X137562970Y-68589539D01*
X137562970Y-68589539D02*
X137372494Y-68589539D01*
X137372494Y-68589539D02*
X137277256Y-68541920D01*
X138610589Y-68541920D02*
X138515351Y-68589539D01*
X138515351Y-68589539D02*
X138324875Y-68589539D01*
X138324875Y-68589539D02*
X138229637Y-68541920D01*
X138229637Y-68541920D02*
X138182018Y-68494300D01*
X138182018Y-68494300D02*
X138134399Y-68399062D01*
X138134399Y-68399062D02*
X138134399Y-68113348D01*
X138134399Y-68113348D02*
X138182018Y-68018110D01*
X138182018Y-68018110D02*
X138229637Y-67970491D01*
X138229637Y-67970491D02*
X138324875Y-67922872D01*
X138324875Y-67922872D02*
X138515351Y-67922872D01*
X138515351Y-67922872D02*
X138610589Y-67970491D01*
X139039161Y-68589539D02*
X139039161Y-67589539D01*
X139039161Y-67970491D02*
X139134399Y-67922872D01*
X139134399Y-67922872D02*
X139324875Y-67922872D01*
X139324875Y-67922872D02*
X139420113Y-67970491D01*
X139420113Y-67970491D02*
X139467732Y-68018110D01*
X139467732Y-68018110D02*
X139515351Y-68113348D01*
X139515351Y-68113348D02*
X139515351Y-68399062D01*
X139515351Y-68399062D02*
X139467732Y-68494300D01*
X139467732Y-68494300D02*
X139420113Y-68541920D01*
X139420113Y-68541920D02*
X139324875Y-68589539D01*
X139324875Y-68589539D02*
X139134399Y-68589539D01*
X139134399Y-68589539D02*
X139039161Y-68541920D01*
X139943923Y-68494300D02*
X139991542Y-68541920D01*
X139991542Y-68541920D02*
X139943923Y-68589539D01*
X139943923Y-68589539D02*
X139896304Y-68541920D01*
X139896304Y-68541920D02*
X139943923Y-68494300D01*
X139943923Y-68494300D02*
X139943923Y-68589539D01*
X140848684Y-68541920D02*
X140753446Y-68589539D01*
X140753446Y-68589539D02*
X140562970Y-68589539D01*
X140562970Y-68589539D02*
X140467732Y-68541920D01*
X140467732Y-68541920D02*
X140420113Y-68494300D01*
X140420113Y-68494300D02*
X140372494Y-68399062D01*
X140372494Y-68399062D02*
X140372494Y-68113348D01*
X140372494Y-68113348D02*
X140420113Y-68018110D01*
X140420113Y-68018110D02*
X140467732Y-67970491D01*
X140467732Y-67970491D02*
X140562970Y-67922872D01*
X140562970Y-67922872D02*
X140753446Y-67922872D01*
X140753446Y-67922872D02*
X140848684Y-67970491D01*
X141420113Y-68589539D02*
X141324875Y-68541920D01*
X141324875Y-68541920D02*
X141277256Y-68494300D01*
X141277256Y-68494300D02*
X141229637Y-68399062D01*
X141229637Y-68399062D02*
X141229637Y-68113348D01*
X141229637Y-68113348D02*
X141277256Y-68018110D01*
X141277256Y-68018110D02*
X141324875Y-67970491D01*
X141324875Y-67970491D02*
X141420113Y-67922872D01*
X141420113Y-67922872D02*
X141562970Y-67922872D01*
X141562970Y-67922872D02*
X141658208Y-67970491D01*
X141658208Y-67970491D02*
X141705827Y-68018110D01*
X141705827Y-68018110D02*
X141753446Y-68113348D01*
X141753446Y-68113348D02*
X141753446Y-68399062D01*
X141753446Y-68399062D02*
X141705827Y-68494300D01*
X141705827Y-68494300D02*
X141658208Y-68541920D01*
X141658208Y-68541920D02*
X141562970Y-68589539D01*
X141562970Y-68589539D02*
X141420113Y-68589539D01*
X142182018Y-68589539D02*
X142182018Y-67922872D01*
X142182018Y-68018110D02*
X142229637Y-67970491D01*
X142229637Y-67970491D02*
X142324875Y-67922872D01*
X142324875Y-67922872D02*
X142467732Y-67922872D01*
X142467732Y-67922872D02*
X142562970Y-67970491D01*
X142562970Y-67970491D02*
X142610589Y-68065729D01*
X142610589Y-68065729D02*
X142610589Y-68589539D01*
X142610589Y-68065729D02*
X142658208Y-67970491D01*
X142658208Y-67970491D02*
X142753446Y-67922872D01*
X142753446Y-67922872D02*
X142896303Y-67922872D01*
X142896303Y-67922872D02*
X142991542Y-67970491D01*
X142991542Y-67970491D02*
X143039161Y-68065729D01*
X143039161Y-68065729D02*
X143039161Y-68589539D01*
X144229636Y-67541920D02*
X143372494Y-68827634D01*
X144562970Y-68589539D02*
X144562970Y-67922872D01*
X144562970Y-67589539D02*
X144515351Y-67637158D01*
X144515351Y-67637158D02*
X144562970Y-67684777D01*
X144562970Y-67684777D02*
X144610589Y-67637158D01*
X144610589Y-67637158D02*
X144562970Y-67589539D01*
X144562970Y-67589539D02*
X144562970Y-67684777D01*
X145039160Y-68589539D02*
X145039160Y-67922872D01*
X145039160Y-68018110D02*
X145086779Y-67970491D01*
X145086779Y-67970491D02*
X145182017Y-67922872D01*
X145182017Y-67922872D02*
X145324874Y-67922872D01*
X145324874Y-67922872D02*
X145420112Y-67970491D01*
X145420112Y-67970491D02*
X145467731Y-68065729D01*
X145467731Y-68065729D02*
X145467731Y-68589539D01*
X145467731Y-68065729D02*
X145515350Y-67970491D01*
X145515350Y-67970491D02*
X145610588Y-67922872D01*
X145610588Y-67922872D02*
X145753445Y-67922872D01*
X145753445Y-67922872D02*
X145848684Y-67970491D01*
X145848684Y-67970491D02*
X145896303Y-68065729D01*
X145896303Y-68065729D02*
X145896303Y-68589539D01*
X146372493Y-67922872D02*
X146372493Y-68922872D01*
X146372493Y-67970491D02*
X146467731Y-67922872D01*
X146467731Y-67922872D02*
X146658207Y-67922872D01*
X146658207Y-67922872D02*
X146753445Y-67970491D01*
X146753445Y-67970491D02*
X146801064Y-68018110D01*
X146801064Y-68018110D02*
X146848683Y-68113348D01*
X146848683Y-68113348D02*
X146848683Y-68399062D01*
X146848683Y-68399062D02*
X146801064Y-68494300D01*
X146801064Y-68494300D02*
X146753445Y-68541920D01*
X146753445Y-68541920D02*
X146658207Y-68589539D01*
X146658207Y-68589539D02*
X146467731Y-68589539D01*
X146467731Y-68589539D02*
X146372493Y-68541920D01*
X147658207Y-68541920D02*
X147562969Y-68589539D01*
X147562969Y-68589539D02*
X147372493Y-68589539D01*
X147372493Y-68589539D02*
X147277255Y-68541920D01*
X147277255Y-68541920D02*
X147229636Y-68446681D01*
X147229636Y-68446681D02*
X147229636Y-68065729D01*
X147229636Y-68065729D02*
X147277255Y-67970491D01*
X147277255Y-67970491D02*
X147372493Y-67922872D01*
X147372493Y-67922872D02*
X147562969Y-67922872D01*
X147562969Y-67922872D02*
X147658207Y-67970491D01*
X147658207Y-67970491D02*
X147705826Y-68065729D01*
X147705826Y-68065729D02*
X147705826Y-68160967D01*
X147705826Y-68160967D02*
X147229636Y-68256205D01*
X148562969Y-68589539D02*
X148562969Y-67589539D01*
X148562969Y-68541920D02*
X148467731Y-68589539D01*
X148467731Y-68589539D02*
X148277255Y-68589539D01*
X148277255Y-68589539D02*
X148182017Y-68541920D01*
X148182017Y-68541920D02*
X148134398Y-68494300D01*
X148134398Y-68494300D02*
X148086779Y-68399062D01*
X148086779Y-68399062D02*
X148086779Y-68113348D01*
X148086779Y-68113348D02*
X148134398Y-68018110D01*
X148134398Y-68018110D02*
X148182017Y-67970491D01*
X148182017Y-67970491D02*
X148277255Y-67922872D01*
X148277255Y-67922872D02*
X148467731Y-67922872D01*
X148467731Y-67922872D02*
X148562969Y-67970491D01*
X149467731Y-68589539D02*
X149467731Y-68065729D01*
X149467731Y-68065729D02*
X149420112Y-67970491D01*
X149420112Y-67970491D02*
X149324874Y-67922872D01*
X149324874Y-67922872D02*
X149134398Y-67922872D01*
X149134398Y-67922872D02*
X149039160Y-67970491D01*
X149467731Y-68541920D02*
X149372493Y-68589539D01*
X149372493Y-68589539D02*
X149134398Y-68589539D01*
X149134398Y-68589539D02*
X149039160Y-68541920D01*
X149039160Y-68541920D02*
X148991541Y-68446681D01*
X148991541Y-68446681D02*
X148991541Y-68351443D01*
X148991541Y-68351443D02*
X149039160Y-68256205D01*
X149039160Y-68256205D02*
X149134398Y-68208586D01*
X149134398Y-68208586D02*
X149372493Y-68208586D01*
X149372493Y-68208586D02*
X149467731Y-68160967D01*
X149943922Y-67922872D02*
X149943922Y-68589539D01*
X149943922Y-68018110D02*
X149991541Y-67970491D01*
X149991541Y-67970491D02*
X150086779Y-67922872D01*
X150086779Y-67922872D02*
X150229636Y-67922872D01*
X150229636Y-67922872D02*
X150324874Y-67970491D01*
X150324874Y-67970491D02*
X150372493Y-68065729D01*
X150372493Y-68065729D02*
X150372493Y-68589539D01*
X151277255Y-68541920D02*
X151182017Y-68589539D01*
X151182017Y-68589539D02*
X150991541Y-68589539D01*
X150991541Y-68589539D02*
X150896303Y-68541920D01*
X150896303Y-68541920D02*
X150848684Y-68494300D01*
X150848684Y-68494300D02*
X150801065Y-68399062D01*
X150801065Y-68399062D02*
X150801065Y-68113348D01*
X150801065Y-68113348D02*
X150848684Y-68018110D01*
X150848684Y-68018110D02*
X150896303Y-67970491D01*
X150896303Y-67970491D02*
X150991541Y-67922872D01*
X150991541Y-67922872D02*
X151182017Y-67922872D01*
X151182017Y-67922872D02*
X151277255Y-67970491D01*
X152086779Y-68541920D02*
X151991541Y-68589539D01*
X151991541Y-68589539D02*
X151801065Y-68589539D01*
X151801065Y-68589539D02*
X151705827Y-68541920D01*
X151705827Y-68541920D02*
X151658208Y-68446681D01*
X151658208Y-68446681D02*
X151658208Y-68065729D01*
X151658208Y-68065729D02*
X151705827Y-67970491D01*
X151705827Y-67970491D02*
X151801065Y-67922872D01*
X151801065Y-67922872D02*
X151991541Y-67922872D01*
X151991541Y-67922872D02*
X152086779Y-67970491D01*
X152086779Y-67970491D02*
X152134398Y-68065729D01*
X152134398Y-68065729D02*
X152134398Y-68160967D01*
X152134398Y-68160967D02*
X151658208Y-68256205D01*
X129277255Y-70809427D02*
X129467731Y-70809427D01*
X129467731Y-70809427D02*
X129562969Y-70857046D01*
X129562969Y-70857046D02*
X129658207Y-70952284D01*
X129658207Y-70952284D02*
X129705826Y-71142760D01*
X129705826Y-71142760D02*
X129705826Y-71476093D01*
X129705826Y-71476093D02*
X129658207Y-71666569D01*
X129658207Y-71666569D02*
X129562969Y-71761808D01*
X129562969Y-71761808D02*
X129467731Y-71809427D01*
X129467731Y-71809427D02*
X129277255Y-71809427D01*
X129277255Y-71809427D02*
X129182017Y-71761808D01*
X129182017Y-71761808D02*
X129086779Y-71666569D01*
X129086779Y-71666569D02*
X129039160Y-71476093D01*
X129039160Y-71476093D02*
X129039160Y-71142760D01*
X129039160Y-71142760D02*
X129086779Y-70952284D01*
X129086779Y-70952284D02*
X129182017Y-70857046D01*
X129182017Y-70857046D02*
X129277255Y-70809427D01*
X130134398Y-71142760D02*
X130134398Y-72142760D01*
X130134398Y-71190379D02*
X130229636Y-71142760D01*
X130229636Y-71142760D02*
X130420112Y-71142760D01*
X130420112Y-71142760D02*
X130515350Y-71190379D01*
X130515350Y-71190379D02*
X130562969Y-71237998D01*
X130562969Y-71237998D02*
X130610588Y-71333236D01*
X130610588Y-71333236D02*
X130610588Y-71618950D01*
X130610588Y-71618950D02*
X130562969Y-71714188D01*
X130562969Y-71714188D02*
X130515350Y-71761808D01*
X130515350Y-71761808D02*
X130420112Y-71809427D01*
X130420112Y-71809427D02*
X130229636Y-71809427D01*
X130229636Y-71809427D02*
X130134398Y-71761808D01*
X130896303Y-71142760D02*
X131277255Y-71142760D01*
X131039160Y-70809427D02*
X131039160Y-71666569D01*
X131039160Y-71666569D02*
X131086779Y-71761808D01*
X131086779Y-71761808D02*
X131182017Y-71809427D01*
X131182017Y-71809427D02*
X131277255Y-71809427D01*
X131610589Y-71809427D02*
X131610589Y-71142760D01*
X131610589Y-70809427D02*
X131562970Y-70857046D01*
X131562970Y-70857046D02*
X131610589Y-70904665D01*
X131610589Y-70904665D02*
X131658208Y-70857046D01*
X131658208Y-70857046D02*
X131610589Y-70809427D01*
X131610589Y-70809427D02*
X131610589Y-70904665D01*
X132086779Y-71809427D02*
X132086779Y-71142760D01*
X132086779Y-71237998D02*
X132134398Y-71190379D01*
X132134398Y-71190379D02*
X132229636Y-71142760D01*
X132229636Y-71142760D02*
X132372493Y-71142760D01*
X132372493Y-71142760D02*
X132467731Y-71190379D01*
X132467731Y-71190379D02*
X132515350Y-71285617D01*
X132515350Y-71285617D02*
X132515350Y-71809427D01*
X132515350Y-71285617D02*
X132562969Y-71190379D01*
X132562969Y-71190379D02*
X132658207Y-71142760D01*
X132658207Y-71142760D02*
X132801064Y-71142760D01*
X132801064Y-71142760D02*
X132896303Y-71190379D01*
X132896303Y-71190379D02*
X132943922Y-71285617D01*
X132943922Y-71285617D02*
X132943922Y-71809427D01*
X133420112Y-71809427D02*
X133420112Y-71142760D01*
X133420112Y-70809427D02*
X133372493Y-70857046D01*
X133372493Y-70857046D02*
X133420112Y-70904665D01*
X133420112Y-70904665D02*
X133467731Y-70857046D01*
X133467731Y-70857046D02*
X133420112Y-70809427D01*
X133420112Y-70809427D02*
X133420112Y-70904665D01*
X133801064Y-71142760D02*
X134324873Y-71142760D01*
X134324873Y-71142760D02*
X133801064Y-71809427D01*
X133801064Y-71809427D02*
X134324873Y-71809427D01*
X135086778Y-71761808D02*
X134991540Y-71809427D01*
X134991540Y-71809427D02*
X134801064Y-71809427D01*
X134801064Y-71809427D02*
X134705826Y-71761808D01*
X134705826Y-71761808D02*
X134658207Y-71666569D01*
X134658207Y-71666569D02*
X134658207Y-71285617D01*
X134658207Y-71285617D02*
X134705826Y-71190379D01*
X134705826Y-71190379D02*
X134801064Y-71142760D01*
X134801064Y-71142760D02*
X134991540Y-71142760D01*
X134991540Y-71142760D02*
X135086778Y-71190379D01*
X135086778Y-71190379D02*
X135134397Y-71285617D01*
X135134397Y-71285617D02*
X135134397Y-71380855D01*
X135134397Y-71380855D02*
X134658207Y-71476093D01*
X135991540Y-71809427D02*
X135991540Y-70809427D01*
X135991540Y-71761808D02*
X135896302Y-71809427D01*
X135896302Y-71809427D02*
X135705826Y-71809427D01*
X135705826Y-71809427D02*
X135610588Y-71761808D01*
X135610588Y-71761808D02*
X135562969Y-71714188D01*
X135562969Y-71714188D02*
X135515350Y-71618950D01*
X135515350Y-71618950D02*
X135515350Y-71333236D01*
X135515350Y-71333236D02*
X135562969Y-71237998D01*
X135562969Y-71237998D02*
X135610588Y-71190379D01*
X135610588Y-71190379D02*
X135705826Y-71142760D01*
X135705826Y-71142760D02*
X135896302Y-71142760D01*
X135896302Y-71142760D02*
X135991540Y-71190379D01*
X137086779Y-71142760D02*
X137467731Y-71142760D01*
X137229636Y-71809427D02*
X137229636Y-70952284D01*
X137229636Y-70952284D02*
X137277255Y-70857046D01*
X137277255Y-70857046D02*
X137372493Y-70809427D01*
X137372493Y-70809427D02*
X137467731Y-70809427D01*
X137943922Y-71809427D02*
X137848684Y-71761808D01*
X137848684Y-71761808D02*
X137801065Y-71714188D01*
X137801065Y-71714188D02*
X137753446Y-71618950D01*
X137753446Y-71618950D02*
X137753446Y-71333236D01*
X137753446Y-71333236D02*
X137801065Y-71237998D01*
X137801065Y-71237998D02*
X137848684Y-71190379D01*
X137848684Y-71190379D02*
X137943922Y-71142760D01*
X137943922Y-71142760D02*
X138086779Y-71142760D01*
X138086779Y-71142760D02*
X138182017Y-71190379D01*
X138182017Y-71190379D02*
X138229636Y-71237998D01*
X138229636Y-71237998D02*
X138277255Y-71333236D01*
X138277255Y-71333236D02*
X138277255Y-71618950D01*
X138277255Y-71618950D02*
X138229636Y-71714188D01*
X138229636Y-71714188D02*
X138182017Y-71761808D01*
X138182017Y-71761808D02*
X138086779Y-71809427D01*
X138086779Y-71809427D02*
X137943922Y-71809427D01*
X138705827Y-71809427D02*
X138705827Y-71142760D01*
X138705827Y-71333236D02*
X138753446Y-71237998D01*
X138753446Y-71237998D02*
X138801065Y-71190379D01*
X138801065Y-71190379D02*
X138896303Y-71142760D01*
X138896303Y-71142760D02*
X138991541Y-71142760D01*
X140372494Y-70809427D02*
X140372494Y-71523712D01*
X140372494Y-71523712D02*
X140324875Y-71666569D01*
X140324875Y-71666569D02*
X140229637Y-71761808D01*
X140229637Y-71761808D02*
X140086780Y-71809427D01*
X140086780Y-71809427D02*
X139991542Y-71809427D01*
X141324875Y-71809427D02*
X140848685Y-71809427D01*
X140848685Y-71809427D02*
X140848685Y-70809427D01*
X142229637Y-71714188D02*
X142182018Y-71761808D01*
X142182018Y-71761808D02*
X142039161Y-71809427D01*
X142039161Y-71809427D02*
X141943923Y-71809427D01*
X141943923Y-71809427D02*
X141801066Y-71761808D01*
X141801066Y-71761808D02*
X141705828Y-71666569D01*
X141705828Y-71666569D02*
X141658209Y-71571331D01*
X141658209Y-71571331D02*
X141610590Y-71380855D01*
X141610590Y-71380855D02*
X141610590Y-71237998D01*
X141610590Y-71237998D02*
X141658209Y-71047522D01*
X141658209Y-71047522D02*
X141705828Y-70952284D01*
X141705828Y-70952284D02*
X141801066Y-70857046D01*
X141801066Y-70857046D02*
X141943923Y-70809427D01*
X141943923Y-70809427D02*
X142039161Y-70809427D01*
X142039161Y-70809427D02*
X142182018Y-70857046D01*
X142182018Y-70857046D02*
X142229637Y-70904665D01*
X142658209Y-71809427D02*
X142658209Y-70809427D01*
X142658209Y-70809427D02*
X143039161Y-70809427D01*
X143039161Y-70809427D02*
X143134399Y-70857046D01*
X143134399Y-70857046D02*
X143182018Y-70904665D01*
X143182018Y-70904665D02*
X143229637Y-70999903D01*
X143229637Y-70999903D02*
X143229637Y-71142760D01*
X143229637Y-71142760D02*
X143182018Y-71237998D01*
X143182018Y-71237998D02*
X143134399Y-71285617D01*
X143134399Y-71285617D02*
X143039161Y-71333236D01*
X143039161Y-71333236D02*
X142658209Y-71333236D01*
X144229637Y-71714188D02*
X144182018Y-71761808D01*
X144182018Y-71761808D02*
X144039161Y-71809427D01*
X144039161Y-71809427D02*
X143943923Y-71809427D01*
X143943923Y-71809427D02*
X143801066Y-71761808D01*
X143801066Y-71761808D02*
X143705828Y-71666569D01*
X143705828Y-71666569D02*
X143658209Y-71571331D01*
X143658209Y-71571331D02*
X143610590Y-71380855D01*
X143610590Y-71380855D02*
X143610590Y-71237998D01*
X143610590Y-71237998D02*
X143658209Y-71047522D01*
X143658209Y-71047522D02*
X143705828Y-70952284D01*
X143705828Y-70952284D02*
X143801066Y-70857046D01*
X143801066Y-70857046D02*
X143943923Y-70809427D01*
X143943923Y-70809427D02*
X144039161Y-70809427D01*
X144039161Y-70809427D02*
X144182018Y-70857046D01*
X144182018Y-70857046D02*
X144229637Y-70904665D01*
X144991542Y-71285617D02*
X145134399Y-71333236D01*
X145134399Y-71333236D02*
X145182018Y-71380855D01*
X145182018Y-71380855D02*
X145229637Y-71476093D01*
X145229637Y-71476093D02*
X145229637Y-71618950D01*
X145229637Y-71618950D02*
X145182018Y-71714188D01*
X145182018Y-71714188D02*
X145134399Y-71761808D01*
X145134399Y-71761808D02*
X145039161Y-71809427D01*
X145039161Y-71809427D02*
X144658209Y-71809427D01*
X144658209Y-71809427D02*
X144658209Y-70809427D01*
X144658209Y-70809427D02*
X144991542Y-70809427D01*
X144991542Y-70809427D02*
X145086780Y-70857046D01*
X145086780Y-70857046D02*
X145134399Y-70904665D01*
X145134399Y-70904665D02*
X145182018Y-70999903D01*
X145182018Y-70999903D02*
X145182018Y-71095141D01*
X145182018Y-71095141D02*
X145134399Y-71190379D01*
X145134399Y-71190379D02*
X145086780Y-71237998D01*
X145086780Y-71237998D02*
X144991542Y-71285617D01*
X144991542Y-71285617D02*
X144658209Y-71285617D01*
X146610590Y-70809427D02*
X146705828Y-70809427D01*
X146705828Y-70809427D02*
X146801066Y-70857046D01*
X146801066Y-70857046D02*
X146848685Y-70904665D01*
X146848685Y-70904665D02*
X146896304Y-70999903D01*
X146896304Y-70999903D02*
X146943923Y-71190379D01*
X146943923Y-71190379D02*
X146943923Y-71428474D01*
X146943923Y-71428474D02*
X146896304Y-71618950D01*
X146896304Y-71618950D02*
X146848685Y-71714188D01*
X146848685Y-71714188D02*
X146801066Y-71761808D01*
X146801066Y-71761808D02*
X146705828Y-71809427D01*
X146705828Y-71809427D02*
X146610590Y-71809427D01*
X146610590Y-71809427D02*
X146515352Y-71761808D01*
X146515352Y-71761808D02*
X146467733Y-71714188D01*
X146467733Y-71714188D02*
X146420114Y-71618950D01*
X146420114Y-71618950D02*
X146372495Y-71428474D01*
X146372495Y-71428474D02*
X146372495Y-71190379D01*
X146372495Y-71190379D02*
X146420114Y-70999903D01*
X146420114Y-70999903D02*
X146467733Y-70904665D01*
X146467733Y-70904665D02*
X146515352Y-70857046D01*
X146515352Y-70857046D02*
X146610590Y-70809427D01*
X147372495Y-71714188D02*
X147420114Y-71761808D01*
X147420114Y-71761808D02*
X147372495Y-71809427D01*
X147372495Y-71809427D02*
X147324876Y-71761808D01*
X147324876Y-71761808D02*
X147372495Y-71714188D01*
X147372495Y-71714188D02*
X147372495Y-71809427D01*
X147991542Y-71237998D02*
X147896304Y-71190379D01*
X147896304Y-71190379D02*
X147848685Y-71142760D01*
X147848685Y-71142760D02*
X147801066Y-71047522D01*
X147801066Y-71047522D02*
X147801066Y-70999903D01*
X147801066Y-70999903D02*
X147848685Y-70904665D01*
X147848685Y-70904665D02*
X147896304Y-70857046D01*
X147896304Y-70857046D02*
X147991542Y-70809427D01*
X147991542Y-70809427D02*
X148182018Y-70809427D01*
X148182018Y-70809427D02*
X148277256Y-70857046D01*
X148277256Y-70857046D02*
X148324875Y-70904665D01*
X148324875Y-70904665D02*
X148372494Y-70999903D01*
X148372494Y-70999903D02*
X148372494Y-71047522D01*
X148372494Y-71047522D02*
X148324875Y-71142760D01*
X148324875Y-71142760D02*
X148277256Y-71190379D01*
X148277256Y-71190379D02*
X148182018Y-71237998D01*
X148182018Y-71237998D02*
X147991542Y-71237998D01*
X147991542Y-71237998D02*
X147896304Y-71285617D01*
X147896304Y-71285617D02*
X147848685Y-71333236D01*
X147848685Y-71333236D02*
X147801066Y-71428474D01*
X147801066Y-71428474D02*
X147801066Y-71618950D01*
X147801066Y-71618950D02*
X147848685Y-71714188D01*
X147848685Y-71714188D02*
X147896304Y-71761808D01*
X147896304Y-71761808D02*
X147991542Y-71809427D01*
X147991542Y-71809427D02*
X148182018Y-71809427D01*
X148182018Y-71809427D02*
X148277256Y-71761808D01*
X148277256Y-71761808D02*
X148324875Y-71714188D01*
X148324875Y-71714188D02*
X148372494Y-71618950D01*
X148372494Y-71618950D02*
X148372494Y-71428474D01*
X148372494Y-71428474D02*
X148324875Y-71333236D01*
X148324875Y-71333236D02*
X148277256Y-71285617D01*
X148277256Y-71285617D02*
X148182018Y-71237998D01*
X148801066Y-71809427D02*
X148801066Y-71142760D01*
X148801066Y-71237998D02*
X148848685Y-71190379D01*
X148848685Y-71190379D02*
X148943923Y-71142760D01*
X148943923Y-71142760D02*
X149086780Y-71142760D01*
X149086780Y-71142760D02*
X149182018Y-71190379D01*
X149182018Y-71190379D02*
X149229637Y-71285617D01*
X149229637Y-71285617D02*
X149229637Y-71809427D01*
X149229637Y-71285617D02*
X149277256Y-71190379D01*
X149277256Y-71190379D02*
X149372494Y-71142760D01*
X149372494Y-71142760D02*
X149515351Y-71142760D01*
X149515351Y-71142760D02*
X149610590Y-71190379D01*
X149610590Y-71190379D02*
X149658209Y-71285617D01*
X149658209Y-71285617D02*
X149658209Y-71809427D01*
X150134399Y-71809427D02*
X150134399Y-71142760D01*
X150134399Y-71237998D02*
X150182018Y-71190379D01*
X150182018Y-71190379D02*
X150277256Y-71142760D01*
X150277256Y-71142760D02*
X150420113Y-71142760D01*
X150420113Y-71142760D02*
X150515351Y-71190379D01*
X150515351Y-71190379D02*
X150562970Y-71285617D01*
X150562970Y-71285617D02*
X150562970Y-71809427D01*
X150562970Y-71285617D02*
X150610589Y-71190379D01*
X150610589Y-71190379D02*
X150705827Y-71142760D01*
X150705827Y-71142760D02*
X150848684Y-71142760D01*
X150848684Y-71142760D02*
X150943923Y-71190379D01*
X150943923Y-71190379D02*
X150991542Y-71285617D01*
X150991542Y-71285617D02*
X150991542Y-71809427D01*
X152086780Y-71142760D02*
X152467732Y-71142760D01*
X152229637Y-70809427D02*
X152229637Y-71666569D01*
X152229637Y-71666569D02*
X152277256Y-71761808D01*
X152277256Y-71761808D02*
X152372494Y-71809427D01*
X152372494Y-71809427D02*
X152467732Y-71809427D01*
X152801066Y-71809427D02*
X152801066Y-70809427D01*
X153229637Y-71809427D02*
X153229637Y-71285617D01*
X153229637Y-71285617D02*
X153182018Y-71190379D01*
X153182018Y-71190379D02*
X153086780Y-71142760D01*
X153086780Y-71142760D02*
X152943923Y-71142760D01*
X152943923Y-71142760D02*
X152848685Y-71190379D01*
X152848685Y-71190379D02*
X152801066Y-71237998D01*
X153705828Y-71809427D02*
X153705828Y-71142760D01*
X153705828Y-70809427D02*
X153658209Y-70857046D01*
X153658209Y-70857046D02*
X153705828Y-70904665D01*
X153705828Y-70904665D02*
X153753447Y-70857046D01*
X153753447Y-70857046D02*
X153705828Y-70809427D01*
X153705828Y-70809427D02*
X153705828Y-70904665D01*
X154610589Y-71761808D02*
X154515351Y-71809427D01*
X154515351Y-71809427D02*
X154324875Y-71809427D01*
X154324875Y-71809427D02*
X154229637Y-71761808D01*
X154229637Y-71761808D02*
X154182018Y-71714188D01*
X154182018Y-71714188D02*
X154134399Y-71618950D01*
X154134399Y-71618950D02*
X154134399Y-71333236D01*
X154134399Y-71333236D02*
X154182018Y-71237998D01*
X154182018Y-71237998D02*
X154229637Y-71190379D01*
X154229637Y-71190379D02*
X154324875Y-71142760D01*
X154324875Y-71142760D02*
X154515351Y-71142760D01*
X154515351Y-71142760D02*
X154610589Y-71190379D01*
X155039161Y-71809427D02*
X155039161Y-70809427D01*
X155134399Y-71428474D02*
X155420113Y-71809427D01*
X155420113Y-71142760D02*
X155039161Y-71523712D01*
X129610588Y-73419371D02*
X129039160Y-73419371D01*
X129324874Y-73419371D02*
X129324874Y-72419371D01*
X129324874Y-72419371D02*
X129229636Y-72562228D01*
X129229636Y-72562228D02*
X129134398Y-72657466D01*
X129134398Y-72657466D02*
X129039160Y-72705085D01*
X130182017Y-73419371D02*
X130086779Y-73371752D01*
X130086779Y-73371752D02*
X130039160Y-73324132D01*
X130039160Y-73324132D02*
X129991541Y-73228894D01*
X129991541Y-73228894D02*
X129991541Y-72943180D01*
X129991541Y-72943180D02*
X130039160Y-72847942D01*
X130039160Y-72847942D02*
X130086779Y-72800323D01*
X130086779Y-72800323D02*
X130182017Y-72752704D01*
X130182017Y-72752704D02*
X130324874Y-72752704D01*
X130324874Y-72752704D02*
X130420112Y-72800323D01*
X130420112Y-72800323D02*
X130467731Y-72847942D01*
X130467731Y-72847942D02*
X130515350Y-72943180D01*
X130515350Y-72943180D02*
X130515350Y-73228894D01*
X130515350Y-73228894D02*
X130467731Y-73324132D01*
X130467731Y-73324132D02*
X130420112Y-73371752D01*
X130420112Y-73371752D02*
X130324874Y-73419371D01*
X130324874Y-73419371D02*
X130182017Y-73419371D01*
X130848684Y-72752704D02*
X131372493Y-72752704D01*
X131372493Y-72752704D02*
X130848684Y-73419371D01*
X130848684Y-73419371D02*
X131372493Y-73419371D01*
X132658208Y-73419371D02*
X132562970Y-73371752D01*
X132562970Y-73371752D02*
X132515351Y-73324132D01*
X132515351Y-73324132D02*
X132467732Y-73228894D01*
X132467732Y-73228894D02*
X132467732Y-72943180D01*
X132467732Y-72943180D02*
X132515351Y-72847942D01*
X132515351Y-72847942D02*
X132562970Y-72800323D01*
X132562970Y-72800323D02*
X132658208Y-72752704D01*
X132658208Y-72752704D02*
X132801065Y-72752704D01*
X132801065Y-72752704D02*
X132896303Y-72800323D01*
X132896303Y-72800323D02*
X132943922Y-72847942D01*
X132943922Y-72847942D02*
X132991541Y-72943180D01*
X132991541Y-72943180D02*
X132991541Y-73228894D01*
X132991541Y-73228894D02*
X132943922Y-73324132D01*
X132943922Y-73324132D02*
X132896303Y-73371752D01*
X132896303Y-73371752D02*
X132801065Y-73419371D01*
X132801065Y-73419371D02*
X132658208Y-73419371D01*
X133848684Y-72752704D02*
X133848684Y-73419371D01*
X133420113Y-72752704D02*
X133420113Y-73276513D01*
X133420113Y-73276513D02*
X133467732Y-73371752D01*
X133467732Y-73371752D02*
X133562970Y-73419371D01*
X133562970Y-73419371D02*
X133705827Y-73419371D01*
X133705827Y-73419371D02*
X133801065Y-73371752D01*
X133801065Y-73371752D02*
X133848684Y-73324132D01*
X134182018Y-72752704D02*
X134562970Y-72752704D01*
X134324875Y-72419371D02*
X134324875Y-73276513D01*
X134324875Y-73276513D02*
X134372494Y-73371752D01*
X134372494Y-73371752D02*
X134467732Y-73419371D01*
X134467732Y-73419371D02*
X134562970Y-73419371D01*
X135277256Y-73371752D02*
X135182018Y-73419371D01*
X135182018Y-73419371D02*
X134991542Y-73419371D01*
X134991542Y-73419371D02*
X134896304Y-73371752D01*
X134896304Y-73371752D02*
X134848685Y-73276513D01*
X134848685Y-73276513D02*
X134848685Y-72895561D01*
X134848685Y-72895561D02*
X134896304Y-72800323D01*
X134896304Y-72800323D02*
X134991542Y-72752704D01*
X134991542Y-72752704D02*
X135182018Y-72752704D01*
X135182018Y-72752704D02*
X135277256Y-72800323D01*
X135277256Y-72800323D02*
X135324875Y-72895561D01*
X135324875Y-72895561D02*
X135324875Y-72990799D01*
X135324875Y-72990799D02*
X134848685Y-73086037D01*
X135753447Y-73419371D02*
X135753447Y-72752704D01*
X135753447Y-72943180D02*
X135801066Y-72847942D01*
X135801066Y-72847942D02*
X135848685Y-72800323D01*
X135848685Y-72800323D02*
X135943923Y-72752704D01*
X135943923Y-72752704D02*
X136039161Y-72752704D01*
X137848685Y-72371752D02*
X136991543Y-73657466D01*
X139134400Y-72419371D02*
X139229638Y-72419371D01*
X139229638Y-72419371D02*
X139324876Y-72466990D01*
X139324876Y-72466990D02*
X139372495Y-72514609D01*
X139372495Y-72514609D02*
X139420114Y-72609847D01*
X139420114Y-72609847D02*
X139467733Y-72800323D01*
X139467733Y-72800323D02*
X139467733Y-73038418D01*
X139467733Y-73038418D02*
X139420114Y-73228894D01*
X139420114Y-73228894D02*
X139372495Y-73324132D01*
X139372495Y-73324132D02*
X139324876Y-73371752D01*
X139324876Y-73371752D02*
X139229638Y-73419371D01*
X139229638Y-73419371D02*
X139134400Y-73419371D01*
X139134400Y-73419371D02*
X139039162Y-73371752D01*
X139039162Y-73371752D02*
X138991543Y-73324132D01*
X138991543Y-73324132D02*
X138943924Y-73228894D01*
X138943924Y-73228894D02*
X138896305Y-73038418D01*
X138896305Y-73038418D02*
X138896305Y-72800323D01*
X138896305Y-72800323D02*
X138943924Y-72609847D01*
X138943924Y-72609847D02*
X138991543Y-72514609D01*
X138991543Y-72514609D02*
X139039162Y-72466990D01*
X139039162Y-72466990D02*
X139134400Y-72419371D01*
X139896305Y-73324132D02*
X139943924Y-73371752D01*
X139943924Y-73371752D02*
X139896305Y-73419371D01*
X139896305Y-73419371D02*
X139848686Y-73371752D01*
X139848686Y-73371752D02*
X139896305Y-73324132D01*
X139896305Y-73324132D02*
X139896305Y-73419371D01*
X140848685Y-72419371D02*
X140372495Y-72419371D01*
X140372495Y-72419371D02*
X140324876Y-72895561D01*
X140324876Y-72895561D02*
X140372495Y-72847942D01*
X140372495Y-72847942D02*
X140467733Y-72800323D01*
X140467733Y-72800323D02*
X140705828Y-72800323D01*
X140705828Y-72800323D02*
X140801066Y-72847942D01*
X140801066Y-72847942D02*
X140848685Y-72895561D01*
X140848685Y-72895561D02*
X140896304Y-72990799D01*
X140896304Y-72990799D02*
X140896304Y-73228894D01*
X140896304Y-73228894D02*
X140848685Y-73324132D01*
X140848685Y-73324132D02*
X140801066Y-73371752D01*
X140801066Y-73371752D02*
X140705828Y-73419371D01*
X140705828Y-73419371D02*
X140467733Y-73419371D01*
X140467733Y-73419371D02*
X140372495Y-73371752D01*
X140372495Y-73371752D02*
X140324876Y-73324132D01*
X141467733Y-73419371D02*
X141372495Y-73371752D01*
X141372495Y-73371752D02*
X141324876Y-73324132D01*
X141324876Y-73324132D02*
X141277257Y-73228894D01*
X141277257Y-73228894D02*
X141277257Y-72943180D01*
X141277257Y-72943180D02*
X141324876Y-72847942D01*
X141324876Y-72847942D02*
X141372495Y-72800323D01*
X141372495Y-72800323D02*
X141467733Y-72752704D01*
X141467733Y-72752704D02*
X141610590Y-72752704D01*
X141610590Y-72752704D02*
X141705828Y-72800323D01*
X141705828Y-72800323D02*
X141753447Y-72847942D01*
X141753447Y-72847942D02*
X141801066Y-72943180D01*
X141801066Y-72943180D02*
X141801066Y-73228894D01*
X141801066Y-73228894D02*
X141753447Y-73324132D01*
X141753447Y-73324132D02*
X141705828Y-73371752D01*
X141705828Y-73371752D02*
X141610590Y-73419371D01*
X141610590Y-73419371D02*
X141467733Y-73419371D01*
X142134400Y-72752704D02*
X142658209Y-72752704D01*
X142658209Y-72752704D02*
X142134400Y-73419371D01*
X142134400Y-73419371D02*
X142658209Y-73419371D01*
X143801067Y-73419371D02*
X143801067Y-72752704D01*
X143801067Y-72419371D02*
X143753448Y-72466990D01*
X143753448Y-72466990D02*
X143801067Y-72514609D01*
X143801067Y-72514609D02*
X143848686Y-72466990D01*
X143848686Y-72466990D02*
X143801067Y-72419371D01*
X143801067Y-72419371D02*
X143801067Y-72514609D01*
X144277257Y-72752704D02*
X144277257Y-73419371D01*
X144277257Y-72847942D02*
X144324876Y-72800323D01*
X144324876Y-72800323D02*
X144420114Y-72752704D01*
X144420114Y-72752704D02*
X144562971Y-72752704D01*
X144562971Y-72752704D02*
X144658209Y-72800323D01*
X144658209Y-72800323D02*
X144705828Y-72895561D01*
X144705828Y-72895561D02*
X144705828Y-73419371D01*
X145182019Y-72752704D02*
X145182019Y-73419371D01*
X145182019Y-72847942D02*
X145229638Y-72800323D01*
X145229638Y-72800323D02*
X145324876Y-72752704D01*
X145324876Y-72752704D02*
X145467733Y-72752704D01*
X145467733Y-72752704D02*
X145562971Y-72800323D01*
X145562971Y-72800323D02*
X145610590Y-72895561D01*
X145610590Y-72895561D02*
X145610590Y-73419371D01*
X146467733Y-73371752D02*
X146372495Y-73419371D01*
X146372495Y-73419371D02*
X146182019Y-73419371D01*
X146182019Y-73419371D02*
X146086781Y-73371752D01*
X146086781Y-73371752D02*
X146039162Y-73276513D01*
X146039162Y-73276513D02*
X146039162Y-72895561D01*
X146039162Y-72895561D02*
X146086781Y-72800323D01*
X146086781Y-72800323D02*
X146182019Y-72752704D01*
X146182019Y-72752704D02*
X146372495Y-72752704D01*
X146372495Y-72752704D02*
X146467733Y-72800323D01*
X146467733Y-72800323D02*
X146515352Y-72895561D01*
X146515352Y-72895561D02*
X146515352Y-72990799D01*
X146515352Y-72990799D02*
X146039162Y-73086037D01*
X146943924Y-73419371D02*
X146943924Y-72752704D01*
X146943924Y-72943180D02*
X146991543Y-72847942D01*
X146991543Y-72847942D02*
X147039162Y-72800323D01*
X147039162Y-72800323D02*
X147134400Y-72752704D01*
X147134400Y-72752704D02*
X147229638Y-72752704D01*
X129372493Y-74029315D02*
X129372493Y-74743600D01*
X129372493Y-74743600D02*
X129324874Y-74886457D01*
X129324874Y-74886457D02*
X129229636Y-74981696D01*
X129229636Y-74981696D02*
X129086779Y-75029315D01*
X129086779Y-75029315D02*
X128991541Y-75029315D01*
X130324874Y-75029315D02*
X129848684Y-75029315D01*
X129848684Y-75029315D02*
X129848684Y-74029315D01*
X131229636Y-74934076D02*
X131182017Y-74981696D01*
X131182017Y-74981696D02*
X131039160Y-75029315D01*
X131039160Y-75029315D02*
X130943922Y-75029315D01*
X130943922Y-75029315D02*
X130801065Y-74981696D01*
X130801065Y-74981696D02*
X130705827Y-74886457D01*
X130705827Y-74886457D02*
X130658208Y-74791219D01*
X130658208Y-74791219D02*
X130610589Y-74600743D01*
X130610589Y-74600743D02*
X130610589Y-74457886D01*
X130610589Y-74457886D02*
X130658208Y-74267410D01*
X130658208Y-74267410D02*
X130705827Y-74172172D01*
X130705827Y-74172172D02*
X130801065Y-74076934D01*
X130801065Y-74076934D02*
X130943922Y-74029315D01*
X130943922Y-74029315D02*
X131039160Y-74029315D01*
X131039160Y-74029315D02*
X131182017Y-74076934D01*
X131182017Y-74076934D02*
X131229636Y-74124553D01*
X131848684Y-74029315D02*
X131943922Y-74029315D01*
X131943922Y-74029315D02*
X132039160Y-74076934D01*
X132039160Y-74076934D02*
X132086779Y-74124553D01*
X132086779Y-74124553D02*
X132134398Y-74219791D01*
X132134398Y-74219791D02*
X132182017Y-74410267D01*
X132182017Y-74410267D02*
X132182017Y-74648362D01*
X132182017Y-74648362D02*
X132134398Y-74838838D01*
X132134398Y-74838838D02*
X132086779Y-74934076D01*
X132086779Y-74934076D02*
X132039160Y-74981696D01*
X132039160Y-74981696D02*
X131943922Y-75029315D01*
X131943922Y-75029315D02*
X131848684Y-75029315D01*
X131848684Y-75029315D02*
X131753446Y-74981696D01*
X131753446Y-74981696D02*
X131705827Y-74934076D01*
X131705827Y-74934076D02*
X131658208Y-74838838D01*
X131658208Y-74838838D02*
X131610589Y-74648362D01*
X131610589Y-74648362D02*
X131610589Y-74410267D01*
X131610589Y-74410267D02*
X131658208Y-74219791D01*
X131658208Y-74219791D02*
X131705827Y-74124553D01*
X131705827Y-74124553D02*
X131753446Y-74076934D01*
X131753446Y-74076934D02*
X131848684Y-74029315D01*
X133039160Y-74362648D02*
X133039160Y-75029315D01*
X132801065Y-73981696D02*
X132562970Y-74695981D01*
X132562970Y-74695981D02*
X133182017Y-74695981D01*
X133753446Y-74029315D02*
X133848684Y-74029315D01*
X133848684Y-74029315D02*
X133943922Y-74076934D01*
X133943922Y-74076934D02*
X133991541Y-74124553D01*
X133991541Y-74124553D02*
X134039160Y-74219791D01*
X134039160Y-74219791D02*
X134086779Y-74410267D01*
X134086779Y-74410267D02*
X134086779Y-74648362D01*
X134086779Y-74648362D02*
X134039160Y-74838838D01*
X134039160Y-74838838D02*
X133991541Y-74934076D01*
X133991541Y-74934076D02*
X133943922Y-74981696D01*
X133943922Y-74981696D02*
X133848684Y-75029315D01*
X133848684Y-75029315D02*
X133753446Y-75029315D01*
X133753446Y-75029315D02*
X133658208Y-74981696D01*
X133658208Y-74981696D02*
X133610589Y-74934076D01*
X133610589Y-74934076D02*
X133562970Y-74838838D01*
X133562970Y-74838838D02*
X133515351Y-74648362D01*
X133515351Y-74648362D02*
X133515351Y-74410267D01*
X133515351Y-74410267D02*
X133562970Y-74219791D01*
X133562970Y-74219791D02*
X133610589Y-74124553D01*
X133610589Y-74124553D02*
X133658208Y-74076934D01*
X133658208Y-74076934D02*
X133753446Y-74029315D01*
X134658208Y-74457886D02*
X134562970Y-74410267D01*
X134562970Y-74410267D02*
X134515351Y-74362648D01*
X134515351Y-74362648D02*
X134467732Y-74267410D01*
X134467732Y-74267410D02*
X134467732Y-74219791D01*
X134467732Y-74219791D02*
X134515351Y-74124553D01*
X134515351Y-74124553D02*
X134562970Y-74076934D01*
X134562970Y-74076934D02*
X134658208Y-74029315D01*
X134658208Y-74029315D02*
X134848684Y-74029315D01*
X134848684Y-74029315D02*
X134943922Y-74076934D01*
X134943922Y-74076934D02*
X134991541Y-74124553D01*
X134991541Y-74124553D02*
X135039160Y-74219791D01*
X135039160Y-74219791D02*
X135039160Y-74267410D01*
X135039160Y-74267410D02*
X134991541Y-74362648D01*
X134991541Y-74362648D02*
X134943922Y-74410267D01*
X134943922Y-74410267D02*
X134848684Y-74457886D01*
X134848684Y-74457886D02*
X134658208Y-74457886D01*
X134658208Y-74457886D02*
X134562970Y-74505505D01*
X134562970Y-74505505D02*
X134515351Y-74553124D01*
X134515351Y-74553124D02*
X134467732Y-74648362D01*
X134467732Y-74648362D02*
X134467732Y-74838838D01*
X134467732Y-74838838D02*
X134515351Y-74934076D01*
X134515351Y-74934076D02*
X134562970Y-74981696D01*
X134562970Y-74981696D02*
X134658208Y-75029315D01*
X134658208Y-75029315D02*
X134848684Y-75029315D01*
X134848684Y-75029315D02*
X134943922Y-74981696D01*
X134943922Y-74981696D02*
X134991541Y-74934076D01*
X134991541Y-74934076D02*
X135039160Y-74838838D01*
X135039160Y-74838838D02*
X135039160Y-74648362D01*
X135039160Y-74648362D02*
X134991541Y-74553124D01*
X134991541Y-74553124D02*
X134943922Y-74505505D01*
X134943922Y-74505505D02*
X134848684Y-74457886D01*
X135991541Y-75029315D02*
X135420113Y-75029315D01*
X135705827Y-75029315D02*
X135705827Y-74029315D01*
X135705827Y-74029315D02*
X135610589Y-74172172D01*
X135610589Y-74172172D02*
X135515351Y-74267410D01*
X135515351Y-74267410D02*
X135420113Y-74315029D01*
X136420113Y-75029315D02*
X136420113Y-74029315D01*
X136420113Y-74505505D02*
X136991541Y-74505505D01*
X136991541Y-75029315D02*
X136991541Y-74029315D01*
X137467732Y-74648362D02*
X138229637Y-74648362D01*
X138610589Y-74029315D02*
X139229636Y-74029315D01*
X139229636Y-74029315D02*
X138896303Y-74410267D01*
X138896303Y-74410267D02*
X139039160Y-74410267D01*
X139039160Y-74410267D02*
X139134398Y-74457886D01*
X139134398Y-74457886D02*
X139182017Y-74505505D01*
X139182017Y-74505505D02*
X139229636Y-74600743D01*
X139229636Y-74600743D02*
X139229636Y-74838838D01*
X139229636Y-74838838D02*
X139182017Y-74934076D01*
X139182017Y-74934076D02*
X139134398Y-74981696D01*
X139134398Y-74981696D02*
X139039160Y-75029315D01*
X139039160Y-75029315D02*
X138753446Y-75029315D01*
X138753446Y-75029315D02*
X138658208Y-74981696D01*
X138658208Y-74981696D02*
X138610589Y-74934076D01*
X139562970Y-74029315D02*
X140182017Y-74029315D01*
X140182017Y-74029315D02*
X139848684Y-74410267D01*
X139848684Y-74410267D02*
X139991541Y-74410267D01*
X139991541Y-74410267D02*
X140086779Y-74457886D01*
X140086779Y-74457886D02*
X140134398Y-74505505D01*
X140134398Y-74505505D02*
X140182017Y-74600743D01*
X140182017Y-74600743D02*
X140182017Y-74838838D01*
X140182017Y-74838838D02*
X140134398Y-74934076D01*
X140134398Y-74934076D02*
X140086779Y-74981696D01*
X140086779Y-74981696D02*
X139991541Y-75029315D01*
X139991541Y-75029315D02*
X139705827Y-75029315D01*
X139705827Y-75029315D02*
X139610589Y-74981696D01*
X139610589Y-74981696D02*
X139562970Y-74934076D01*
X141134398Y-75029315D02*
X140562970Y-75029315D01*
X140848684Y-75029315D02*
X140848684Y-74029315D01*
X140848684Y-74029315D02*
X140753446Y-74172172D01*
X140753446Y-74172172D02*
X140658208Y-74267410D01*
X140658208Y-74267410D02*
X140562970Y-74315029D01*
X141467732Y-74029315D02*
X142086779Y-74029315D01*
X142086779Y-74029315D02*
X141753446Y-74410267D01*
X141753446Y-74410267D02*
X141896303Y-74410267D01*
X141896303Y-74410267D02*
X141991541Y-74457886D01*
X141991541Y-74457886D02*
X142039160Y-74505505D01*
X142039160Y-74505505D02*
X142086779Y-74600743D01*
X142086779Y-74600743D02*
X142086779Y-74838838D01*
X142086779Y-74838838D02*
X142039160Y-74934076D01*
X142039160Y-74934076D02*
X141991541Y-74981696D01*
X141991541Y-74981696D02*
X141896303Y-75029315D01*
X141896303Y-75029315D02*
X141610589Y-75029315D01*
X141610589Y-75029315D02*
X141515351Y-74981696D01*
X141515351Y-74981696D02*
X141467732Y-74934076D01*
X143229637Y-74981696D02*
X143372494Y-75029315D01*
X143372494Y-75029315D02*
X143610589Y-75029315D01*
X143610589Y-75029315D02*
X143705827Y-74981696D01*
X143705827Y-74981696D02*
X143753446Y-74934076D01*
X143753446Y-74934076D02*
X143801065Y-74838838D01*
X143801065Y-74838838D02*
X143801065Y-74743600D01*
X143801065Y-74743600D02*
X143753446Y-74648362D01*
X143753446Y-74648362D02*
X143705827Y-74600743D01*
X143705827Y-74600743D02*
X143610589Y-74553124D01*
X143610589Y-74553124D02*
X143420113Y-74505505D01*
X143420113Y-74505505D02*
X143324875Y-74457886D01*
X143324875Y-74457886D02*
X143277256Y-74410267D01*
X143277256Y-74410267D02*
X143229637Y-74315029D01*
X143229637Y-74315029D02*
X143229637Y-74219791D01*
X143229637Y-74219791D02*
X143277256Y-74124553D01*
X143277256Y-74124553D02*
X143324875Y-74076934D01*
X143324875Y-74076934D02*
X143420113Y-74029315D01*
X143420113Y-74029315D02*
X143658208Y-74029315D01*
X143658208Y-74029315D02*
X143801065Y-74076934D01*
X144086780Y-74362648D02*
X144467732Y-74362648D01*
X144229637Y-74029315D02*
X144229637Y-74886457D01*
X144229637Y-74886457D02*
X144277256Y-74981696D01*
X144277256Y-74981696D02*
X144372494Y-75029315D01*
X144372494Y-75029315D02*
X144467732Y-75029315D01*
X145229637Y-75029315D02*
X145229637Y-74505505D01*
X145229637Y-74505505D02*
X145182018Y-74410267D01*
X145182018Y-74410267D02*
X145086780Y-74362648D01*
X145086780Y-74362648D02*
X144896304Y-74362648D01*
X144896304Y-74362648D02*
X144801066Y-74410267D01*
X145229637Y-74981696D02*
X145134399Y-75029315D01*
X145134399Y-75029315D02*
X144896304Y-75029315D01*
X144896304Y-75029315D02*
X144801066Y-74981696D01*
X144801066Y-74981696D02*
X144753447Y-74886457D01*
X144753447Y-74886457D02*
X144753447Y-74791219D01*
X144753447Y-74791219D02*
X144801066Y-74695981D01*
X144801066Y-74695981D02*
X144896304Y-74648362D01*
X144896304Y-74648362D02*
X145134399Y-74648362D01*
X145134399Y-74648362D02*
X145229637Y-74600743D01*
X146134399Y-74981696D02*
X146039161Y-75029315D01*
X146039161Y-75029315D02*
X145848685Y-75029315D01*
X145848685Y-75029315D02*
X145753447Y-74981696D01*
X145753447Y-74981696D02*
X145705828Y-74934076D01*
X145705828Y-74934076D02*
X145658209Y-74838838D01*
X145658209Y-74838838D02*
X145658209Y-74553124D01*
X145658209Y-74553124D02*
X145705828Y-74457886D01*
X145705828Y-74457886D02*
X145753447Y-74410267D01*
X145753447Y-74410267D02*
X145848685Y-74362648D01*
X145848685Y-74362648D02*
X146039161Y-74362648D01*
X146039161Y-74362648D02*
X146134399Y-74410267D01*
X146562971Y-75029315D02*
X146562971Y-74029315D01*
X146658209Y-74648362D02*
X146943923Y-75029315D01*
X146943923Y-74362648D02*
X146562971Y-74743600D01*
X147801066Y-74362648D02*
X147801066Y-75029315D01*
X147372495Y-74362648D02*
X147372495Y-74886457D01*
X147372495Y-74886457D02*
X147420114Y-74981696D01*
X147420114Y-74981696D02*
X147515352Y-75029315D01*
X147515352Y-75029315D02*
X147658209Y-75029315D01*
X147658209Y-75029315D02*
X147753447Y-74981696D01*
X147753447Y-74981696D02*
X147801066Y-74934076D01*
X148277257Y-74362648D02*
X148277257Y-75362648D01*
X148277257Y-74410267D02*
X148372495Y-74362648D01*
X148372495Y-74362648D02*
X148562971Y-74362648D01*
X148562971Y-74362648D02*
X148658209Y-74410267D01*
X148658209Y-74410267D02*
X148705828Y-74457886D01*
X148705828Y-74457886D02*
X148753447Y-74553124D01*
X148753447Y-74553124D02*
X148753447Y-74838838D01*
X148753447Y-74838838D02*
X148705828Y-74934076D01*
X148705828Y-74934076D02*
X148658209Y-74981696D01*
X148658209Y-74981696D02*
X148562971Y-75029315D01*
X148562971Y-75029315D02*
X148372495Y-75029315D01*
X148372495Y-75029315D02*
X148277257Y-74981696D01*
X149182019Y-74934076D02*
X149229638Y-74981696D01*
X149229638Y-74981696D02*
X149182019Y-75029315D01*
X149182019Y-75029315D02*
X149134400Y-74981696D01*
X149134400Y-74981696D02*
X149182019Y-74934076D01*
X149182019Y-74934076D02*
X149182019Y-75029315D01*
X150420114Y-75029315D02*
X150420114Y-74029315D01*
X150420114Y-74029315D02*
X150991542Y-75029315D01*
X150991542Y-75029315D02*
X150991542Y-74029315D01*
X151610590Y-75029315D02*
X151515352Y-74981696D01*
X151515352Y-74981696D02*
X151467733Y-74934076D01*
X151467733Y-74934076D02*
X151420114Y-74838838D01*
X151420114Y-74838838D02*
X151420114Y-74553124D01*
X151420114Y-74553124D02*
X151467733Y-74457886D01*
X151467733Y-74457886D02*
X151515352Y-74410267D01*
X151515352Y-74410267D02*
X151610590Y-74362648D01*
X151610590Y-74362648D02*
X151753447Y-74362648D01*
X151753447Y-74362648D02*
X151848685Y-74410267D01*
X151848685Y-74410267D02*
X151896304Y-74457886D01*
X151896304Y-74457886D02*
X151943923Y-74553124D01*
X151943923Y-74553124D02*
X151943923Y-74838838D01*
X151943923Y-74838838D02*
X151896304Y-74934076D01*
X151896304Y-74934076D02*
X151848685Y-74981696D01*
X151848685Y-74981696D02*
X151753447Y-75029315D01*
X151753447Y-75029315D02*
X151610590Y-75029315D01*
X152229638Y-74362648D02*
X152610590Y-74362648D01*
X152372495Y-74029315D02*
X152372495Y-74886457D01*
X152372495Y-74886457D02*
X152420114Y-74981696D01*
X152420114Y-74981696D02*
X152515352Y-75029315D01*
X152515352Y-75029315D02*
X152610590Y-75029315D01*
X129515350Y-75972592D02*
X129515350Y-76972592D01*
X129515350Y-76591640D02*
X129420112Y-76639259D01*
X129420112Y-76639259D02*
X129229636Y-76639259D01*
X129229636Y-76639259D02*
X129134398Y-76591640D01*
X129134398Y-76591640D02*
X129086779Y-76544020D01*
X129086779Y-76544020D02*
X129039160Y-76448782D01*
X129039160Y-76448782D02*
X129039160Y-76163068D01*
X129039160Y-76163068D02*
X129086779Y-76067830D01*
X129086779Y-76067830D02*
X129134398Y-76020211D01*
X129134398Y-76020211D02*
X129229636Y-75972592D01*
X129229636Y-75972592D02*
X129420112Y-75972592D01*
X129420112Y-75972592D02*
X129515350Y-76020211D01*
X130420112Y-75972592D02*
X130420112Y-76639259D01*
X129991541Y-75972592D02*
X129991541Y-76496401D01*
X129991541Y-76496401D02*
X130039160Y-76591640D01*
X130039160Y-76591640D02*
X130134398Y-76639259D01*
X130134398Y-76639259D02*
X130277255Y-76639259D01*
X130277255Y-76639259D02*
X130372493Y-76591640D01*
X130372493Y-76591640D02*
X130420112Y-76544020D01*
X130896303Y-76639259D02*
X130896303Y-75972592D01*
X130896303Y-75639259D02*
X130848684Y-75686878D01*
X130848684Y-75686878D02*
X130896303Y-75734497D01*
X130896303Y-75734497D02*
X130943922Y-75686878D01*
X130943922Y-75686878D02*
X130896303Y-75639259D01*
X130896303Y-75639259D02*
X130896303Y-75734497D01*
X131229636Y-75972592D02*
X131610588Y-75972592D01*
X131372493Y-75639259D02*
X131372493Y-76496401D01*
X131372493Y-76496401D02*
X131420112Y-76591640D01*
X131420112Y-76591640D02*
X131515350Y-76639259D01*
X131515350Y-76639259D02*
X131610588Y-76639259D01*
X132324874Y-76591640D02*
X132229636Y-76639259D01*
X132229636Y-76639259D02*
X132039160Y-76639259D01*
X132039160Y-76639259D02*
X131943922Y-76591640D01*
X131943922Y-76591640D02*
X131896303Y-76496401D01*
X131896303Y-76496401D02*
X131896303Y-76115449D01*
X131896303Y-76115449D02*
X131943922Y-76020211D01*
X131943922Y-76020211D02*
X132039160Y-75972592D01*
X132039160Y-75972592D02*
X132229636Y-75972592D01*
X132229636Y-75972592D02*
X132324874Y-76020211D01*
X132324874Y-76020211D02*
X132372493Y-76115449D01*
X132372493Y-76115449D02*
X132372493Y-76210687D01*
X132372493Y-76210687D02*
X131896303Y-76305925D01*
X133991541Y-76639259D02*
X133991541Y-76115449D01*
X133991541Y-76115449D02*
X133943922Y-76020211D01*
X133943922Y-76020211D02*
X133848684Y-75972592D01*
X133848684Y-75972592D02*
X133658208Y-75972592D01*
X133658208Y-75972592D02*
X133562970Y-76020211D01*
X133991541Y-76591640D02*
X133896303Y-76639259D01*
X133896303Y-76639259D02*
X133658208Y-76639259D01*
X133658208Y-76639259D02*
X133562970Y-76591640D01*
X133562970Y-76591640D02*
X133515351Y-76496401D01*
X133515351Y-76496401D02*
X133515351Y-76401163D01*
X133515351Y-76401163D02*
X133562970Y-76305925D01*
X133562970Y-76305925D02*
X133658208Y-76258306D01*
X133658208Y-76258306D02*
X133896303Y-76258306D01*
X133896303Y-76258306D02*
X133991541Y-76210687D01*
X134467732Y-75972592D02*
X134467732Y-76639259D01*
X134467732Y-76067830D02*
X134515351Y-76020211D01*
X134515351Y-76020211D02*
X134610589Y-75972592D01*
X134610589Y-75972592D02*
X134753446Y-75972592D01*
X134753446Y-75972592D02*
X134848684Y-76020211D01*
X134848684Y-76020211D02*
X134896303Y-76115449D01*
X134896303Y-76115449D02*
X134896303Y-76639259D01*
X136515351Y-76591640D02*
X136420113Y-76639259D01*
X136420113Y-76639259D02*
X136229637Y-76639259D01*
X136229637Y-76639259D02*
X136134399Y-76591640D01*
X136134399Y-76591640D02*
X136086780Y-76496401D01*
X136086780Y-76496401D02*
X136086780Y-76115449D01*
X136086780Y-76115449D02*
X136134399Y-76020211D01*
X136134399Y-76020211D02*
X136229637Y-75972592D01*
X136229637Y-75972592D02*
X136420113Y-75972592D01*
X136420113Y-75972592D02*
X136515351Y-76020211D01*
X136515351Y-76020211D02*
X136562970Y-76115449D01*
X136562970Y-76115449D02*
X136562970Y-76210687D01*
X136562970Y-76210687D02*
X136086780Y-76305925D01*
X136896304Y-76639259D02*
X137420113Y-75972592D01*
X136896304Y-75972592D02*
X137420113Y-76639259D01*
X138229637Y-76639259D02*
X138229637Y-76115449D01*
X138229637Y-76115449D02*
X138182018Y-76020211D01*
X138182018Y-76020211D02*
X138086780Y-75972592D01*
X138086780Y-75972592D02*
X137896304Y-75972592D01*
X137896304Y-75972592D02*
X137801066Y-76020211D01*
X138229637Y-76591640D02*
X138134399Y-76639259D01*
X138134399Y-76639259D02*
X137896304Y-76639259D01*
X137896304Y-76639259D02*
X137801066Y-76591640D01*
X137801066Y-76591640D02*
X137753447Y-76496401D01*
X137753447Y-76496401D02*
X137753447Y-76401163D01*
X137753447Y-76401163D02*
X137801066Y-76305925D01*
X137801066Y-76305925D02*
X137896304Y-76258306D01*
X137896304Y-76258306D02*
X138134399Y-76258306D01*
X138134399Y-76258306D02*
X138229637Y-76210687D01*
X139134399Y-76591640D02*
X139039161Y-76639259D01*
X139039161Y-76639259D02*
X138848685Y-76639259D01*
X138848685Y-76639259D02*
X138753447Y-76591640D01*
X138753447Y-76591640D02*
X138705828Y-76544020D01*
X138705828Y-76544020D02*
X138658209Y-76448782D01*
X138658209Y-76448782D02*
X138658209Y-76163068D01*
X138658209Y-76163068D02*
X138705828Y-76067830D01*
X138705828Y-76067830D02*
X138753447Y-76020211D01*
X138753447Y-76020211D02*
X138848685Y-75972592D01*
X138848685Y-75972592D02*
X139039161Y-75972592D01*
X139039161Y-75972592D02*
X139134399Y-76020211D01*
X139420114Y-75972592D02*
X139801066Y-75972592D01*
X139562971Y-75639259D02*
X139562971Y-76496401D01*
X139562971Y-76496401D02*
X139610590Y-76591640D01*
X139610590Y-76591640D02*
X139705828Y-76639259D01*
X139705828Y-76639259D02*
X139801066Y-76639259D01*
X140896305Y-76639259D02*
X140896305Y-75972592D01*
X140896305Y-76067830D02*
X140943924Y-76020211D01*
X140943924Y-76020211D02*
X141039162Y-75972592D01*
X141039162Y-75972592D02*
X141182019Y-75972592D01*
X141182019Y-75972592D02*
X141277257Y-76020211D01*
X141277257Y-76020211D02*
X141324876Y-76115449D01*
X141324876Y-76115449D02*
X141324876Y-76639259D01*
X141324876Y-76115449D02*
X141372495Y-76020211D01*
X141372495Y-76020211D02*
X141467733Y-75972592D01*
X141467733Y-75972592D02*
X141610590Y-75972592D01*
X141610590Y-75972592D02*
X141705829Y-76020211D01*
X141705829Y-76020211D02*
X141753448Y-76115449D01*
X141753448Y-76115449D02*
X141753448Y-76639259D01*
X142658209Y-76639259D02*
X142658209Y-76115449D01*
X142658209Y-76115449D02*
X142610590Y-76020211D01*
X142610590Y-76020211D02*
X142515352Y-75972592D01*
X142515352Y-75972592D02*
X142324876Y-75972592D01*
X142324876Y-75972592D02*
X142229638Y-76020211D01*
X142658209Y-76591640D02*
X142562971Y-76639259D01*
X142562971Y-76639259D02*
X142324876Y-76639259D01*
X142324876Y-76639259D02*
X142229638Y-76591640D01*
X142229638Y-76591640D02*
X142182019Y-76496401D01*
X142182019Y-76496401D02*
X142182019Y-76401163D01*
X142182019Y-76401163D02*
X142229638Y-76305925D01*
X142229638Y-76305925D02*
X142324876Y-76258306D01*
X142324876Y-76258306D02*
X142562971Y-76258306D01*
X142562971Y-76258306D02*
X142658209Y-76210687D01*
X142991543Y-75972592D02*
X143372495Y-75972592D01*
X143134400Y-75639259D02*
X143134400Y-76496401D01*
X143134400Y-76496401D02*
X143182019Y-76591640D01*
X143182019Y-76591640D02*
X143277257Y-76639259D01*
X143277257Y-76639259D02*
X143372495Y-76639259D01*
X144134400Y-76591640D02*
X144039162Y-76639259D01*
X144039162Y-76639259D02*
X143848686Y-76639259D01*
X143848686Y-76639259D02*
X143753448Y-76591640D01*
X143753448Y-76591640D02*
X143705829Y-76544020D01*
X143705829Y-76544020D02*
X143658210Y-76448782D01*
X143658210Y-76448782D02*
X143658210Y-76163068D01*
X143658210Y-76163068D02*
X143705829Y-76067830D01*
X143705829Y-76067830D02*
X143753448Y-76020211D01*
X143753448Y-76020211D02*
X143848686Y-75972592D01*
X143848686Y-75972592D02*
X144039162Y-75972592D01*
X144039162Y-75972592D02*
X144134400Y-76020211D01*
X144562972Y-76639259D02*
X144562972Y-75639259D01*
X144991543Y-76639259D02*
X144991543Y-76115449D01*
X144991543Y-76115449D02*
X144943924Y-76020211D01*
X144943924Y-76020211D02*
X144848686Y-75972592D01*
X144848686Y-75972592D02*
X144705829Y-75972592D01*
X144705829Y-75972592D02*
X144610591Y-76020211D01*
X144610591Y-76020211D02*
X144562972Y-76067830D01*
X145515353Y-76591640D02*
X145515353Y-76639259D01*
X145515353Y-76639259D02*
X145467734Y-76734497D01*
X145467734Y-76734497D02*
X145420115Y-76782116D01*
X146705829Y-76639259D02*
X146705829Y-75639259D01*
X146705829Y-76020211D02*
X146801067Y-75972592D01*
X146801067Y-75972592D02*
X146991543Y-75972592D01*
X146991543Y-75972592D02*
X147086781Y-76020211D01*
X147086781Y-76020211D02*
X147134400Y-76067830D01*
X147134400Y-76067830D02*
X147182019Y-76163068D01*
X147182019Y-76163068D02*
X147182019Y-76448782D01*
X147182019Y-76448782D02*
X147134400Y-76544020D01*
X147134400Y-76544020D02*
X147086781Y-76591640D01*
X147086781Y-76591640D02*
X146991543Y-76639259D01*
X146991543Y-76639259D02*
X146801067Y-76639259D01*
X146801067Y-76639259D02*
X146705829Y-76591640D01*
X148039162Y-75972592D02*
X148039162Y-76639259D01*
X147610591Y-75972592D02*
X147610591Y-76496401D01*
X147610591Y-76496401D02*
X147658210Y-76591640D01*
X147658210Y-76591640D02*
X147753448Y-76639259D01*
X147753448Y-76639259D02*
X147896305Y-76639259D01*
X147896305Y-76639259D02*
X147991543Y-76591640D01*
X147991543Y-76591640D02*
X148039162Y-76544020D01*
X148372496Y-75972592D02*
X148753448Y-75972592D01*
X148515353Y-75639259D02*
X148515353Y-76496401D01*
X148515353Y-76496401D02*
X148562972Y-76591640D01*
X148562972Y-76591640D02*
X148658210Y-76639259D01*
X148658210Y-76639259D02*
X148753448Y-76639259D01*
X149753449Y-75972592D02*
X149943925Y-76639259D01*
X149943925Y-76639259D02*
X150134401Y-76163068D01*
X150134401Y-76163068D02*
X150324877Y-76639259D01*
X150324877Y-76639259D02*
X150515353Y-75972592D01*
X150896306Y-76639259D02*
X150896306Y-75972592D01*
X150896306Y-75639259D02*
X150848687Y-75686878D01*
X150848687Y-75686878D02*
X150896306Y-75734497D01*
X150896306Y-75734497D02*
X150943925Y-75686878D01*
X150943925Y-75686878D02*
X150896306Y-75639259D01*
X150896306Y-75639259D02*
X150896306Y-75734497D01*
X151229639Y-75972592D02*
X151610591Y-75972592D01*
X151372496Y-75639259D02*
X151372496Y-76496401D01*
X151372496Y-76496401D02*
X151420115Y-76591640D01*
X151420115Y-76591640D02*
X151515353Y-76639259D01*
X151515353Y-76639259D02*
X151610591Y-76639259D01*
X151943925Y-76639259D02*
X151943925Y-75639259D01*
X152372496Y-76639259D02*
X152372496Y-76115449D01*
X152372496Y-76115449D02*
X152324877Y-76020211D01*
X152324877Y-76020211D02*
X152229639Y-75972592D01*
X152229639Y-75972592D02*
X152086782Y-75972592D01*
X152086782Y-75972592D02*
X151991544Y-76020211D01*
X151991544Y-76020211D02*
X151943925Y-76067830D01*
X152848687Y-76639259D02*
X152848687Y-75972592D01*
X152848687Y-75639259D02*
X152801068Y-75686878D01*
X152801068Y-75686878D02*
X152848687Y-75734497D01*
X152848687Y-75734497D02*
X152896306Y-75686878D01*
X152896306Y-75686878D02*
X152848687Y-75639259D01*
X152848687Y-75639259D02*
X152848687Y-75734497D01*
X153324877Y-75972592D02*
X153324877Y-76639259D01*
X153324877Y-76067830D02*
X153372496Y-76020211D01*
X153372496Y-76020211D02*
X153467734Y-75972592D01*
X153467734Y-75972592D02*
X153610591Y-75972592D01*
X153610591Y-75972592D02*
X153705829Y-76020211D01*
X153705829Y-76020211D02*
X153753448Y-76115449D01*
X153753448Y-76115449D02*
X153753448Y-76639259D01*
X129610588Y-78249203D02*
X129039160Y-78249203D01*
X129324874Y-78249203D02*
X129324874Y-77249203D01*
X129324874Y-77249203D02*
X129229636Y-77392060D01*
X129229636Y-77392060D02*
X129134398Y-77487298D01*
X129134398Y-77487298D02*
X129039160Y-77534917D01*
X130229636Y-77249203D02*
X130324874Y-77249203D01*
X130324874Y-77249203D02*
X130420112Y-77296822D01*
X130420112Y-77296822D02*
X130467731Y-77344441D01*
X130467731Y-77344441D02*
X130515350Y-77439679D01*
X130515350Y-77439679D02*
X130562969Y-77630155D01*
X130562969Y-77630155D02*
X130562969Y-77868250D01*
X130562969Y-77868250D02*
X130515350Y-78058726D01*
X130515350Y-78058726D02*
X130467731Y-78153964D01*
X130467731Y-78153964D02*
X130420112Y-78201584D01*
X130420112Y-78201584D02*
X130324874Y-78249203D01*
X130324874Y-78249203D02*
X130229636Y-78249203D01*
X130229636Y-78249203D02*
X130134398Y-78201584D01*
X130134398Y-78201584D02*
X130086779Y-78153964D01*
X130086779Y-78153964D02*
X130039160Y-78058726D01*
X130039160Y-78058726D02*
X129991541Y-77868250D01*
X129991541Y-77868250D02*
X129991541Y-77630155D01*
X129991541Y-77630155D02*
X130039160Y-77439679D01*
X130039160Y-77439679D02*
X130086779Y-77344441D01*
X130086779Y-77344441D02*
X130134398Y-77296822D01*
X130134398Y-77296822D02*
X130229636Y-77249203D01*
X130943922Y-78249203D02*
X131705826Y-77249203D01*
X131086779Y-77249203D02*
X131182017Y-77296822D01*
X131182017Y-77296822D02*
X131229636Y-77392060D01*
X131229636Y-77392060D02*
X131182017Y-77487298D01*
X131182017Y-77487298D02*
X131086779Y-77534917D01*
X131086779Y-77534917D02*
X130991541Y-77487298D01*
X130991541Y-77487298D02*
X130943922Y-77392060D01*
X130943922Y-77392060D02*
X130991541Y-77296822D01*
X130991541Y-77296822D02*
X131086779Y-77249203D01*
X131658207Y-78201584D02*
X131705826Y-78106345D01*
X131705826Y-78106345D02*
X131658207Y-78011107D01*
X131658207Y-78011107D02*
X131562969Y-77963488D01*
X131562969Y-77963488D02*
X131467731Y-78011107D01*
X131467731Y-78011107D02*
X131420112Y-78106345D01*
X131420112Y-78106345D02*
X131467731Y-78201584D01*
X131467731Y-78201584D02*
X131562969Y-78249203D01*
X131562969Y-78249203D02*
X131658207Y-78201584D01*
X132134398Y-78153964D02*
X132182017Y-78201584D01*
X132182017Y-78201584D02*
X132134398Y-78249203D01*
X132134398Y-78249203D02*
X132086779Y-78201584D01*
X132086779Y-78201584D02*
X132134398Y-78153964D01*
X132134398Y-78153964D02*
X132134398Y-78249203D01*
D11*
X57486904Y-46381927D02*
X57486904Y-45981927D01*
X57715475Y-46381927D02*
X57544046Y-46153356D01*
X57715475Y-45981927D02*
X57486904Y-46210499D01*
X57886904Y-46172403D02*
X58020237Y-46172403D01*
X58077380Y-46381927D02*
X57886904Y-46381927D01*
X57886904Y-46381927D02*
X57886904Y-45981927D01*
X57886904Y-45981927D02*
X58077380Y-45981927D01*
X58248809Y-46172403D02*
X58382142Y-46172403D01*
X58439285Y-46381927D02*
X58248809Y-46381927D01*
X58248809Y-46381927D02*
X58248809Y-45981927D01*
X58248809Y-45981927D02*
X58439285Y-45981927D01*
X58610714Y-46381927D02*
X58610714Y-45981927D01*
X58610714Y-45981927D02*
X58763095Y-45981927D01*
X58763095Y-45981927D02*
X58801190Y-46000975D01*
X58801190Y-46000975D02*
X58820237Y-46020022D01*
X58820237Y-46020022D02*
X58839285Y-46058118D01*
X58839285Y-46058118D02*
X58839285Y-46115260D01*
X58839285Y-46115260D02*
X58820237Y-46153356D01*
X58820237Y-46153356D02*
X58801190Y-46172403D01*
X58801190Y-46172403D02*
X58763095Y-46191451D01*
X58763095Y-46191451D02*
X58610714Y-46191451D01*
X59086904Y-45981927D02*
X59163095Y-45981927D01*
X59163095Y-45981927D02*
X59201190Y-46000975D01*
X59201190Y-46000975D02*
X59239285Y-46039070D01*
X59239285Y-46039070D02*
X59258333Y-46115260D01*
X59258333Y-46115260D02*
X59258333Y-46248594D01*
X59258333Y-46248594D02*
X59239285Y-46324784D01*
X59239285Y-46324784D02*
X59201190Y-46362880D01*
X59201190Y-46362880D02*
X59163095Y-46381927D01*
X59163095Y-46381927D02*
X59086904Y-46381927D01*
X59086904Y-46381927D02*
X59048809Y-46362880D01*
X59048809Y-46362880D02*
X59010714Y-46324784D01*
X59010714Y-46324784D02*
X58991666Y-46248594D01*
X58991666Y-46248594D02*
X58991666Y-46115260D01*
X58991666Y-46115260D02*
X59010714Y-46039070D01*
X59010714Y-46039070D02*
X59048809Y-46000975D01*
X59048809Y-46000975D02*
X59086904Y-45981927D01*
X59429762Y-45981927D02*
X59429762Y-46305737D01*
X59429762Y-46305737D02*
X59448809Y-46343832D01*
X59448809Y-46343832D02*
X59467857Y-46362880D01*
X59467857Y-46362880D02*
X59505952Y-46381927D01*
X59505952Y-46381927D02*
X59582143Y-46381927D01*
X59582143Y-46381927D02*
X59620238Y-46362880D01*
X59620238Y-46362880D02*
X59639285Y-46343832D01*
X59639285Y-46343832D02*
X59658333Y-46305737D01*
X59658333Y-46305737D02*
X59658333Y-45981927D01*
X59791667Y-45981927D02*
X60020238Y-45981927D01*
X59905952Y-46381927D02*
X59905952Y-45981927D01*
D12*
X55179762Y-50932419D02*
X55179762Y-49932419D01*
X55751190Y-50932419D02*
X55322619Y-50360990D01*
X55751190Y-49932419D02*
X55179762Y-50503847D01*
X56179762Y-50408609D02*
X56513095Y-50408609D01*
X56655952Y-50932419D02*
X56179762Y-50932419D01*
X56179762Y-50932419D02*
X56179762Y-49932419D01*
X56179762Y-49932419D02*
X56655952Y-49932419D01*
X57084524Y-50408609D02*
X57417857Y-50408609D01*
X57560714Y-50932419D02*
X57084524Y-50932419D01*
X57084524Y-50932419D02*
X57084524Y-49932419D01*
X57084524Y-49932419D02*
X57560714Y-49932419D01*
X57989286Y-50932419D02*
X57989286Y-49932419D01*
X57989286Y-49932419D02*
X58370238Y-49932419D01*
X58370238Y-49932419D02*
X58465476Y-49980038D01*
X58465476Y-49980038D02*
X58513095Y-50027657D01*
X58513095Y-50027657D02*
X58560714Y-50122895D01*
X58560714Y-50122895D02*
X58560714Y-50265752D01*
X58560714Y-50265752D02*
X58513095Y-50360990D01*
X58513095Y-50360990D02*
X58465476Y-50408609D01*
X58465476Y-50408609D02*
X58370238Y-50456228D01*
X58370238Y-50456228D02*
X57989286Y-50456228D01*
X59179762Y-49932419D02*
X59370238Y-49932419D01*
X59370238Y-49932419D02*
X59465476Y-49980038D01*
X59465476Y-49980038D02*
X59560714Y-50075276D01*
X59560714Y-50075276D02*
X59608333Y-50265752D01*
X59608333Y-50265752D02*
X59608333Y-50599085D01*
X59608333Y-50599085D02*
X59560714Y-50789561D01*
X59560714Y-50789561D02*
X59465476Y-50884800D01*
X59465476Y-50884800D02*
X59370238Y-50932419D01*
X59370238Y-50932419D02*
X59179762Y-50932419D01*
X59179762Y-50932419D02*
X59084524Y-50884800D01*
X59084524Y-50884800D02*
X58989286Y-50789561D01*
X58989286Y-50789561D02*
X58941667Y-50599085D01*
X58941667Y-50599085D02*
X58941667Y-50265752D01*
X58941667Y-50265752D02*
X58989286Y-50075276D01*
X58989286Y-50075276D02*
X59084524Y-49980038D01*
X59084524Y-49980038D02*
X59179762Y-49932419D01*
X60036905Y-49932419D02*
X60036905Y-50741942D01*
X60036905Y-50741942D02*
X60084524Y-50837180D01*
X60084524Y-50837180D02*
X60132143Y-50884800D01*
X60132143Y-50884800D02*
X60227381Y-50932419D01*
X60227381Y-50932419D02*
X60417857Y-50932419D01*
X60417857Y-50932419D02*
X60513095Y-50884800D01*
X60513095Y-50884800D02*
X60560714Y-50837180D01*
X60560714Y-50837180D02*
X60608333Y-50741942D01*
X60608333Y-50741942D02*
X60608333Y-49932419D01*
X60941667Y-49932419D02*
X61513095Y-49932419D01*
X61227381Y-50932419D02*
X61227381Y-49932419D01*
D10*
X114700000Y-72000000D02*
G75*
G02*
X109300000Y-72000000I-2700000J0D01*
G01*
X109300000Y-72000000D02*
G75*
G02*
X114700000Y-72000000I2700000J0D01*
G01*
X37700000Y-72000000D02*
G75*
G02*
X32300000Y-72000000I-2700000J0D01*
G01*
X32300000Y-72000000D02*
G75*
G02*
X37700000Y-72000000I2700000J0D01*
G01*
X37700000Y-30000000D02*
G75*
G02*
X32300000Y-30000000I-2700000J0D01*
G01*
X32300000Y-30000000D02*
G75*
G02*
X37700000Y-30000000I2700000J0D01*
G01*
X114700000Y-30000000D02*
G75*
G02*
X109300000Y-30000000I-2700000J0D01*
G01*
X109300000Y-30000000D02*
G75*
G02*
X114700000Y-30000000I2700000J0D01*
G01*
M02*
