G04 #@! TF.GenerationSoftware,KiCad,Pcbnew,8.0.6+1*
G04 #@! TF.CreationDate,2025-03-13T00:19:28+00:00*
G04 #@! TF.ProjectId,gshps,67736870-732e-46b6-9963-61645f706362,D*
G04 #@! TF.SameCoordinates,Original*
G04 #@! TF.FileFunction,Other,ECO1*
%FSLAX46Y46*%
G04 Gerber Fmt 4.6, Leading zero omitted, Abs format (unit mm)*
G04 Created by KiCad (PCBNEW 8.0.6+1) date 2025-03-13 00:19:28*
%MOMM*%
%LPD*%
G01*
G04 APERTURE LIST*
%ADD10C,0.250000*%
%ADD11C,0.200000*%
%ADD12C,0.604202*%
G04 APERTURE END LIST*
D10*
X35136728Y-57361165D02*
X35174228Y-57361165D01*
X36095129Y-59464499D02*
X36093004Y-59457296D01*
X36416732Y-58467503D02*
X36416730Y-58523278D01*
X112200000Y-59800000D02*
X106800000Y-59800000D01*
X34188340Y-56443234D02*
X34045331Y-56559768D01*
X35628124Y-56559768D02*
X35781908Y-56762511D01*
X35823219Y-56851749D01*
X36423432Y-59595714D02*
X36432617Y-59616508D01*
X35300000Y-53000000D02*
X35300000Y-52775000D01*
X35173884Y-57361165D02*
X35136728Y-57361165D01*
X32832518Y-54232518D02*
X32832518Y-53982518D01*
X33858408Y-64114485D02*
X33701196Y-63915220D01*
X33635132Y-63780329D01*
X36416730Y-58523278D02*
X36416728Y-58568851D01*
X34586727Y-64416165D02*
X34336284Y-64379332D01*
X34192563Y-64337760D01*
X35174228Y-60131165D02*
X35186728Y-60131165D01*
D11*
X117785179Y-71400654D02*
X118001930Y-70772534D01*
D10*
X112400000Y-45400000D02*
X112700000Y-45400000D01*
X35086728Y-64416165D02*
X35337170Y-64379332D01*
X35480892Y-64337760D01*
X34686728Y-63585503D02*
X34686728Y-63591165D01*
X35107776Y-56917751D02*
X34986728Y-56901165D01*
X35891728Y-57196165D02*
X35852188Y-56945355D01*
X35823219Y-56851749D01*
X34499228Y-60361165D02*
X34536728Y-60361165D01*
X32986728Y-62146165D02*
X33107586Y-62146165D01*
X34686728Y-63591165D02*
X34569830Y-63575716D01*
X79000000Y-60000000D02*
X95000000Y-60000000D01*
X103100000Y-75500000D02*
X103100000Y-75700000D01*
X36566728Y-59646165D02*
X36565947Y-60846165D01*
X37102473Y-59646165D02*
X37004926Y-59646165D01*
X34400000Y-52700000D02*
X34400000Y-54300000D01*
X33256305Y-62046337D02*
X33255319Y-62071658D01*
X28500000Y-33500000D02*
G75*
G02*
X38500000Y-23500000I10000000J0D01*
G01*
X34486728Y-61131165D02*
X34499571Y-61131165D01*
X36091728Y-57196165D02*
X36091728Y-63296165D01*
X36420625Y-60902572D02*
X36421040Y-60898837D01*
X106800000Y-56200000D02*
X106500000Y-56700000D01*
X36430963Y-58374583D02*
X36443695Y-58360595D01*
X34686728Y-63585503D02*
X34686728Y-63585654D01*
X34308490Y-63384912D02*
X34382702Y-63472979D01*
X33578497Y-59828301D02*
X33581728Y-59845330D01*
X35136728Y-60631165D02*
X35174228Y-60631165D01*
X32668530Y-57596165D02*
X32814689Y-57596165D01*
X34536728Y-63538111D02*
X34536728Y-63509527D01*
X35173884Y-58361165D02*
X35136728Y-58361165D01*
X33212794Y-62896165D02*
X33164130Y-62896165D01*
X32317482Y-54282518D02*
X32882518Y-54282518D01*
X34761728Y-63506354D02*
X34761728Y-63606165D01*
X34499228Y-59361165D02*
X34536728Y-59361165D01*
X33781728Y-63296165D02*
X33821266Y-63546973D01*
X33850236Y-63640580D01*
X36417131Y-59541307D02*
X36417511Y-59557585D01*
X34486728Y-59861165D02*
X34499228Y-59861165D01*
X94200000Y-60500000D02*
G75*
G02*
X94500000Y-60800000I0J-300000D01*
G01*
X33569224Y-60995784D02*
X33569224Y-60960558D01*
X32300000Y-54300000D02*
X32900000Y-54300000D01*
X32814689Y-60646165D02*
X32986728Y-60646165D01*
X36736728Y-63451165D02*
X36736728Y-64246165D01*
X35173884Y-57631165D02*
X35186728Y-57631165D01*
X36104252Y-59488074D02*
X36104245Y-59513991D01*
X36518735Y-60846482D02*
X36565947Y-60846164D01*
X34486728Y-58361165D02*
X34486728Y-58631165D01*
X36853553Y-51353553D02*
X36933013Y-51250000D01*
X36092034Y-61391165D02*
X36092034Y-59101165D01*
X38500000Y-78500000D02*
G75*
G02*
X28500000Y-68500000I0J10000000D01*
G01*
X33164130Y-62896165D02*
X33106728Y-62896165D01*
X29469102Y-72014541D02*
X29214821Y-71400654D01*
X32814520Y-58346165D02*
X32986728Y-58346164D01*
X35136728Y-61131165D02*
X35174228Y-61131165D01*
X36525848Y-58346309D02*
X36565947Y-58346165D01*
X33216500Y-59637698D02*
X33236791Y-59625853D01*
X33578497Y-60916920D02*
X33569224Y-60910945D01*
X36176905Y-63837731D02*
X36053482Y-64064928D01*
X35921114Y-64220551D01*
X36007995Y-63717116D02*
X35876912Y-63937179D01*
X35769545Y-64073982D01*
X29759984Y-72611955D02*
X29469102Y-72014541D01*
X36104231Y-59496545D02*
X36104231Y-59531770D01*
D11*
X39500000Y-78500000D02*
X41000000Y-78500000D01*
D10*
X36104273Y-60951632D02*
X36104266Y-60994157D01*
X106800000Y-49200000D02*
X106300000Y-49500000D01*
X35174228Y-60861165D02*
X35186728Y-60861165D01*
X106800000Y-56200000D02*
X106300000Y-56500000D01*
X36092105Y-61040236D02*
X36092720Y-61036361D01*
X35891728Y-61391165D02*
X35891728Y-59101165D01*
X46958464Y-59000000D02*
X46958464Y-59670672D01*
X36686727Y-60846164D02*
X36416728Y-60846165D01*
X33496550Y-56654598D02*
X33619972Y-56427400D01*
X33752341Y-56271779D01*
X36073740Y-64033307D02*
X35921114Y-64220551D01*
X34911728Y-63506165D02*
X35136728Y-63506165D01*
X34499571Y-57631165D02*
X34536728Y-57631165D01*
X34486728Y-60131165D02*
X34499228Y-60131165D01*
X35103607Y-63575721D02*
X35203359Y-63535589D01*
X36104252Y-60688104D02*
X36104245Y-60713990D01*
X33182986Y-62144719D02*
X33216500Y-62137698D01*
X112700000Y-47328427D02*
X112200000Y-47328427D01*
X36982963Y-34370590D02*
X36933013Y-34250000D01*
X37102473Y-57596165D02*
X37004926Y-57596165D01*
X35136868Y-56976560D02*
X35136728Y-56954218D01*
X111950000Y-37550000D02*
X112050000Y-37550000D01*
X33569224Y-59811130D02*
X33569224Y-59811800D01*
X35335805Y-64126841D02*
X35553610Y-63999643D01*
X35628124Y-63932561D01*
X35952060Y-64396165D02*
X36586728Y-64396165D01*
X35030863Y-63506165D02*
X34986751Y-63512832D01*
X33752341Y-56271779D02*
X33956037Y-56106909D01*
X34135161Y-56015987D01*
X34308466Y-63384923D02*
X34256029Y-63271544D01*
X111950000Y-37450000D02*
X112050000Y-37450000D01*
X36091730Y-59448219D02*
X36091731Y-59448020D01*
D11*
X42169170Y-59180736D02*
X42436535Y-59081014D01*
D10*
X32570982Y-59646165D02*
X32536728Y-59646165D01*
D11*
X29214821Y-30599346D02*
X28998070Y-31227466D01*
D10*
X34250000Y-34066987D02*
X34146447Y-34146447D01*
X32898106Y-62146165D02*
X32986728Y-62146165D01*
X33600000Y-54000000D02*
X34400000Y-54000000D01*
X36432617Y-59616508D02*
X36423432Y-59595714D01*
X35823336Y-36363917D02*
X35823336Y-50190574D01*
X33665460Y-63717116D02*
X33788465Y-63939894D01*
X33903910Y-64073982D01*
X33600000Y-54225000D02*
X33700000Y-54225000D01*
X35136728Y-57631165D02*
X35174228Y-57631165D01*
X32668530Y-58346165D02*
X32814520Y-58346165D01*
X32986728Y-62146165D02*
X32814520Y-62146165D01*
X36858935Y-60846164D02*
X37004926Y-60846164D01*
X32936728Y-63451165D02*
X32936728Y-64246165D01*
X35900000Y-52775000D02*
X35900000Y-53000000D01*
X36092034Y-58101165D02*
X36092034Y-57196165D01*
X34569848Y-56916608D02*
X34686728Y-56901165D01*
X33406728Y-63386165D02*
X33406728Y-57106164D01*
X34077758Y-64614924D02*
X33848561Y-64494498D01*
X33646275Y-64326616D01*
X35186728Y-57361165D02*
X35173884Y-57361165D01*
X35174228Y-62861165D02*
X35186728Y-62861165D01*
X32570982Y-57596165D02*
X32536728Y-57596165D01*
X36464925Y-60852165D02*
X36443695Y-60860563D01*
X34486728Y-61631165D02*
X34499571Y-61631165D01*
D11*
X113190716Y-25086406D02*
X112611955Y-24759984D01*
D10*
X34499571Y-62131165D02*
X34536728Y-62131165D01*
X36116728Y-59646163D02*
X36104231Y-59646163D01*
X34636728Y-63291165D02*
X35036728Y-63291165D01*
X34681728Y-64396165D02*
X34427377Y-64359568D01*
X34260776Y-64312432D01*
X34388045Y-77240016D02*
X33809284Y-76913594D01*
X36527303Y-60846303D02*
X36565947Y-60846165D01*
X36091728Y-58991165D02*
X36116728Y-58991165D01*
X34486728Y-61861165D02*
X34499571Y-61861165D01*
X111800000Y-50500000D02*
G75*
G02*
X111000000Y-51300000I-800000J0D01*
G01*
X118479931Y-33835837D02*
X118500000Y-34500000D01*
X35173884Y-59361165D02*
X35186728Y-59361165D01*
X34499228Y-61631165D02*
X34536728Y-61631165D01*
X106651472Y-46479899D02*
X107479899Y-45651472D01*
X114794349Y-75733618D02*
X114283908Y-76159018D01*
X34255844Y-63271770D02*
X34308490Y-63384912D01*
X35841728Y-58101165D02*
X36092034Y-58101165D01*
X111750000Y-37250000D02*
X112250000Y-37250000D01*
X34499571Y-60631165D02*
X34536728Y-60631165D01*
X34486728Y-62131165D02*
X34499228Y-62131165D01*
D11*
X107500000Y-78500000D02*
X108164163Y-78479931D01*
D10*
X34260776Y-64312432D02*
X34506825Y-64373724D01*
X34681728Y-64396165D01*
X34486728Y-57631165D02*
X34499228Y-57631165D01*
X36417511Y-59557585D02*
X36420567Y-59585229D01*
X33569224Y-59482216D02*
X33569224Y-59481158D01*
X34902351Y-56939563D02*
X34911728Y-56893317D01*
X34400000Y-53950000D02*
X33600000Y-53950000D01*
X35364965Y-57107417D02*
X35290753Y-57019350D01*
X33665460Y-63717116D02*
X33604167Y-63471066D01*
X33581728Y-63296165D01*
X97774000Y-55341000D02*
X49226000Y-55341000D01*
X33253546Y-58408603D02*
X33249159Y-58386281D01*
X38835837Y-78479931D02*
X38174097Y-78419798D01*
X36429186Y-58376632D02*
X36443692Y-58360595D01*
D11*
X116552823Y-73748712D02*
X116913594Y-73190716D01*
D10*
X34486728Y-62131165D02*
X34499571Y-62131165D01*
X33256305Y-59546337D02*
X33256728Y-59496166D01*
X36104231Y-59480528D02*
X36104231Y-59496545D01*
X34681728Y-56296165D02*
X34430918Y-56335703D01*
X34337312Y-56364673D01*
X34308156Y-57107888D02*
X34374733Y-57026881D01*
X114283908Y-25840982D02*
X114794349Y-26266382D01*
X65500000Y-78500000D02*
X65500000Y-61000000D01*
X98500000Y-75500000D02*
X104500000Y-75500000D01*
X34499571Y-62631165D02*
X34536728Y-62631165D01*
X34486728Y-59631165D02*
X34499571Y-59631165D01*
X36420609Y-62085507D02*
X36428137Y-62108150D01*
X80000000Y-61500000D02*
X80000000Y-74500000D01*
D11*
X28680181Y-69482805D02*
X28819640Y-70132472D01*
D10*
X107479899Y-45651472D02*
G75*
G02*
X108328427Y-45299978I848601J-848628D01*
G01*
X36416728Y-57106164D02*
X36381581Y-56846479D01*
X36315487Y-56597196D01*
X32533737Y-58165626D02*
G75*
G02*
X32925224Y-57595456I151263J315626D01*
G01*
X35152495Y-63544358D02*
X35168856Y-63546020D01*
X34486728Y-58631165D02*
X34499571Y-58631165D01*
X37128062Y-57596165D02*
X37136728Y-57596165D01*
X33255319Y-62071658D02*
X33248777Y-62105841D01*
X35086729Y-56076165D02*
X35337171Y-56112996D01*
X35480892Y-56154569D01*
X35086728Y-55926165D02*
X35086729Y-56076165D01*
X35174228Y-58861165D02*
X35186728Y-58861165D01*
X28998070Y-31227466D02*
X29214821Y-30599346D01*
X36091728Y-59846845D02*
X36091831Y-59843126D01*
X36104231Y-60900080D02*
X36104231Y-60951470D01*
X34761728Y-64396165D02*
X34761728Y-64416165D01*
X36858935Y-59646165D02*
X37004926Y-59646165D01*
X34586727Y-64716165D02*
X34327041Y-64681018D01*
X34077758Y-64614924D01*
X112500000Y-51500000D02*
G75*
G02*
X113500000Y-52500000I0J-1000000D01*
G01*
X35163495Y-63546153D02*
X35153048Y-63544764D01*
X32571390Y-60646165D02*
X32668530Y-60646165D01*
X32814520Y-62146165D02*
X32668530Y-62146165D01*
X35174672Y-56949357D02*
X35095682Y-56919886D01*
X33496550Y-56654598D02*
X33619972Y-56427400D01*
X33752341Y-56271779D01*
X36518735Y-60846482D02*
X36504776Y-60846790D01*
X34486728Y-60631165D02*
X34499571Y-60631165D01*
X34255844Y-63271770D02*
X34308490Y-63384912D01*
X33569224Y-59795784D02*
X33569224Y-59760558D01*
X36093004Y-59457296D02*
X36092253Y-59453168D01*
X35086728Y-55926165D02*
X35345465Y-55962612D01*
X35538294Y-56015987D01*
X36686727Y-58346164D02*
X36858935Y-58346164D01*
X34520961Y-56947971D02*
X34504600Y-56946309D01*
X34499571Y-61131165D02*
X34536728Y-61131165D01*
X35173884Y-57631165D02*
X35186728Y-57631165D01*
X34681728Y-56295858D02*
X34991728Y-56295858D01*
X36104231Y-61010113D02*
X36104231Y-61011130D01*
X102400000Y-28500000D02*
X101600000Y-28500000D01*
X35136728Y-58361165D02*
X35174228Y-58361165D01*
D11*
X30447177Y-73748712D02*
X30840982Y-74283908D01*
D10*
X33248519Y-58386574D02*
X33255301Y-58420552D01*
X34836715Y-56985921D02*
X34877866Y-56964116D01*
D11*
X41690279Y-59488501D02*
X41918718Y-59317493D01*
D10*
X33106728Y-62896165D02*
X33107586Y-62146165D01*
X30840982Y-27716092D02*
X31266382Y-27205651D01*
X33781421Y-59101165D02*
X33781421Y-61391165D01*
X79000000Y-76000000D02*
X79000000Y-60000000D01*
X33245310Y-57596165D02*
X33256728Y-57596165D01*
X33700000Y-52970000D02*
X34300000Y-52970000D01*
X35173884Y-63131165D02*
X35186728Y-63131165D01*
X34499571Y-58861165D02*
X34536728Y-58861165D01*
X36007995Y-56775213D02*
X36069287Y-57021262D01*
X36091728Y-57196165D01*
X34686728Y-56901165D02*
X34583903Y-56913070D01*
X33581728Y-61651165D02*
X33556728Y-61651165D01*
X87600000Y-68000000D02*
G75*
G02*
X86400000Y-68000000I-600000J0D01*
G01*
X86400000Y-68000000D02*
G75*
G02*
X87600000Y-68000000I600000J0D01*
G01*
X34260776Y-64312432D02*
X34506825Y-64373724D01*
X34681728Y-64396165D01*
X36460713Y-57596165D02*
X36509359Y-57596165D01*
D11*
X36227466Y-78001930D02*
X36867528Y-78180360D01*
D10*
X33248777Y-62105841D02*
X33236743Y-62125882D01*
X35036728Y-63291165D02*
X35136728Y-63331165D01*
X34499571Y-62361165D02*
X34536728Y-62361165D01*
X37004926Y-60846164D02*
X37102473Y-60846164D01*
X36104231Y-61013089D02*
X36116728Y-60996793D01*
X34045331Y-56559768D02*
X33891547Y-56762511D01*
X33850236Y-56851749D01*
X34536728Y-63509036D02*
X34536728Y-63516195D01*
X36418613Y-62067371D02*
X36418449Y-62063680D01*
D11*
X35000000Y-30000000D02*
X112000000Y-30000000D01*
D10*
X33581421Y-62391165D02*
X33831728Y-62391165D01*
X36116729Y-60694138D02*
X36116729Y-59646165D01*
X32936728Y-57041165D02*
X33258317Y-57041165D01*
D11*
X114283908Y-25840982D02*
X113748712Y-25447177D01*
D10*
X37000000Y-36363917D02*
X37000000Y-34500000D01*
X33256305Y-59546337D02*
X33255319Y-59571658D01*
X112250000Y-37250000D02*
X112250000Y-38050000D01*
X35921114Y-56271779D02*
X36072609Y-56457297D01*
X109482805Y-23680181D02*
X110132472Y-23819640D01*
X36093016Y-60657320D02*
X36091728Y-60645431D01*
X98300000Y-74500000D02*
X98800000Y-74200000D01*
X33569224Y-60792249D02*
X33569224Y-60740859D01*
X35174228Y-57631165D02*
X35186728Y-57631165D01*
X34486728Y-58861165D02*
X34486728Y-59131165D01*
X111950000Y-37450000D02*
X111950000Y-37550000D01*
X33569224Y-59795784D02*
X33569224Y-59760558D01*
X117240016Y-72611955D02*
X116913594Y-73190716D01*
X35136728Y-58631165D02*
X35173884Y-58631165D01*
X34045331Y-63932561D02*
X34248074Y-64086345D01*
X34337312Y-64127656D01*
X33600000Y-52730000D02*
X34400000Y-52730000D01*
X34499228Y-62131165D02*
X34536728Y-62131165D01*
X35136728Y-63509527D02*
X35136728Y-63538111D01*
X36104231Y-59581382D02*
X36104272Y-59610827D01*
X34761728Y-56893317D02*
X34911728Y-56893317D01*
X36117294Y-60923167D02*
X36117093Y-60939018D01*
X34499228Y-58631165D02*
X34536728Y-58631165D01*
X36104231Y-59751470D02*
X36104231Y-59790197D01*
X35136728Y-56954218D02*
X35163499Y-56946177D01*
X36416731Y-60846183D02*
X36416734Y-59646184D01*
X33086728Y-56096165D02*
X33086728Y-57041165D01*
D11*
X115278175Y-26721825D02*
X114794349Y-26266382D01*
D10*
X34499228Y-60861165D02*
X34536728Y-60861165D01*
X33357968Y-63895133D02*
X33291874Y-63645849D01*
X33256728Y-63386165D01*
X34805650Y-56969498D02*
X34761728Y-56969498D01*
X33700000Y-54225000D02*
X33700000Y-54000000D01*
X35769545Y-64073982D02*
X35920386Y-63869305D01*
X36007995Y-63717116D01*
X98500000Y-74700000D02*
G75*
G02*
X98300000Y-74500000I0J200000D01*
G01*
D11*
X41488501Y-59690279D02*
X41690279Y-59488501D01*
D10*
X106800000Y-52800000D02*
X106800000Y-56200000D01*
X36027180Y-56165713D02*
X35824893Y-55997830D01*
X35595697Y-55877405D01*
X36104231Y-60781382D02*
X36104259Y-60810607D01*
X34536728Y-57631165D02*
X34530057Y-57487277D01*
X34991728Y-64396471D02*
X34681728Y-64396471D01*
X28500000Y-34500000D02*
X28520069Y-33835837D01*
X106500000Y-50500000D02*
G75*
G02*
X105500000Y-49500000I0J1000000D01*
G01*
D11*
X107500000Y-23500000D02*
X39500000Y-23500000D01*
D10*
X34686704Y-56979498D02*
X34686708Y-56949190D01*
X114250000Y-37250000D02*
X114250000Y-38050000D01*
X33569224Y-59502133D02*
X33569224Y-59482216D01*
X34499228Y-58131165D02*
X34536728Y-58131165D01*
X36092105Y-61040236D02*
X36092720Y-61036361D01*
X41488501Y-59690279D02*
X41317493Y-59918718D01*
X116552823Y-28251288D02*
X116913594Y-28809284D01*
X34486992Y-57487277D02*
X34486728Y-57631165D01*
X34499571Y-59631165D02*
X34536728Y-59631165D01*
X36496700Y-60847199D02*
X36504776Y-60846790D01*
X35203359Y-63535589D02*
X35168856Y-63546020D01*
X95000000Y-76000000D02*
X79000000Y-76000000D01*
X35136728Y-60131165D02*
X35173884Y-60131165D01*
X98300000Y-70500000D02*
X98800000Y-70800000D01*
D11*
X35599346Y-77785179D02*
X36227466Y-78001930D01*
D10*
X36007995Y-56775213D02*
X35884990Y-56552434D01*
X35769545Y-56418347D01*
X36443695Y-58360595D02*
X36464722Y-58351399D01*
X33236743Y-59625882D02*
X33213790Y-59638941D01*
X34986751Y-63512832D02*
X34911728Y-63512832D01*
X34374733Y-57026881D02*
X34470096Y-56956740D01*
X111994975Y-46833452D02*
G75*
G02*
X112200023Y-47328427I-495075J-495048D01*
G01*
X33569224Y-60702133D02*
X33569224Y-60682216D01*
X36095129Y-59464499D02*
X36093004Y-59457296D01*
X36686727Y-60846165D02*
X36858766Y-60846165D01*
X36686727Y-57596165D02*
X36686727Y-58346164D01*
X33254771Y-62075820D02*
X33256534Y-62038426D01*
X29469102Y-29985459D02*
X29759984Y-29388045D01*
X115733618Y-27205651D02*
X116159018Y-27716092D01*
X87052277Y-68000000D02*
G75*
G02*
X86947723Y-68000000I-52277J0D01*
G01*
X86947723Y-68000000D02*
G75*
G02*
X87052277Y-68000000I52277J0D01*
G01*
X28500000Y-68500000D02*
X28500000Y-33500000D01*
X35136728Y-59131165D02*
X35173884Y-59131165D01*
X94000000Y-74500000D02*
G75*
G02*
X93500000Y-75000000I-500000J0D01*
G01*
X35136728Y-59631165D02*
X35174228Y-59631165D01*
X36423432Y-59595714D02*
X36418593Y-59567045D01*
X33182986Y-59644719D02*
X33216500Y-59637698D01*
X36104231Y-59810113D02*
X36104231Y-59811089D01*
X34499571Y-62861165D02*
X34486728Y-62861165D01*
X35595697Y-64614924D02*
X35346413Y-64681018D01*
X35086728Y-64716165D01*
X34486728Y-57861165D02*
X34499571Y-57861165D01*
X34135161Y-64476342D02*
X33907963Y-64352919D01*
X33752342Y-64220551D01*
X35186728Y-60361165D02*
X35173884Y-60361165D01*
X35136728Y-62131165D02*
X35173884Y-62131165D01*
X94500000Y-75200000D02*
X79500000Y-75200000D01*
X35815048Y-64114484D02*
X35615783Y-64271695D01*
X35480892Y-64337760D01*
X34520407Y-56947565D02*
X34536728Y-56954218D01*
X36858935Y-57596165D02*
X37004926Y-57596165D01*
X32500000Y-54400000D02*
X32700000Y-54400000D01*
X35769545Y-56418347D02*
X35930419Y-56619651D01*
X36007995Y-56775213D01*
X105500000Y-52500000D02*
G75*
G02*
X106500000Y-51500000I1000000J0D01*
G01*
D11*
X118419798Y-33174097D02*
X118319819Y-32517195D01*
D10*
X35186728Y-58861165D02*
X35186728Y-59131165D01*
X38835837Y-23520069D02*
X39500000Y-23500000D01*
X34382759Y-57020283D02*
X34308091Y-57107821D01*
X36429186Y-58376632D02*
X36421103Y-58400421D01*
X33569224Y-60910945D02*
X33578497Y-60916920D01*
X34236728Y-57351165D02*
X34254423Y-57226214D01*
X38174097Y-78419798D02*
X37517195Y-78319819D01*
X33164130Y-60646165D02*
X33106728Y-60646165D01*
X99900000Y-69500000D02*
X99900000Y-69300000D01*
X35173884Y-60631165D02*
X35186728Y-60631165D01*
X105500000Y-59500000D02*
X105500000Y-61671573D01*
X101700000Y-28725000D02*
X101700000Y-28500000D01*
X36227466Y-23998070D02*
X36867528Y-23819640D01*
X34486728Y-62631165D02*
X34499571Y-62631165D01*
X34499571Y-60861165D02*
X34536728Y-60861165D01*
X102300000Y-28530000D02*
X101700000Y-28530000D01*
X105500000Y-74500000D02*
G75*
G02*
X104500000Y-75500000I-1000000J0D01*
G01*
X34499571Y-58131165D02*
X34536728Y-58131165D01*
X36586728Y-63451165D02*
X36586728Y-64396165D01*
X104200000Y-70800000D02*
X104500000Y-70300000D01*
X36315487Y-56597196D02*
X36195061Y-56367999D01*
X36027180Y-56165713D01*
X36565947Y-60846164D02*
X36518735Y-60846482D01*
X103600000Y-75500000D02*
X103600000Y-75700000D01*
X35921114Y-64220551D02*
X35717417Y-64385419D01*
X35538294Y-64476342D01*
X37136728Y-59646165D02*
X37136728Y-60846165D01*
X33929925Y-56701056D02*
X33844918Y-56864879D01*
X34986728Y-56901165D02*
X34911728Y-56901165D01*
X32716092Y-25840982D02*
X33251288Y-25447177D01*
X33646276Y-56165712D02*
X33478393Y-56367998D01*
X33357968Y-56597195D01*
X33569224Y-61011800D02*
X33569224Y-60995784D01*
X36421103Y-58400421D02*
X36417587Y-58431484D01*
X113190716Y-25086406D02*
X113748712Y-25447177D01*
X36116730Y-59491080D02*
X36116729Y-59469140D01*
X35186728Y-62861165D02*
X35173884Y-62861165D01*
X34761728Y-56076165D02*
X34761728Y-56095858D01*
X33781728Y-63296165D02*
X33581421Y-63296165D01*
X36183878Y-63820516D02*
X36073740Y-64033307D01*
X33858408Y-64114485D02*
X33701196Y-63915220D01*
X33635132Y-63780329D01*
X32986728Y-62146165D02*
X32986728Y-62896165D01*
X36423485Y-57596165D02*
X36428187Y-57596165D01*
X37102473Y-58346165D02*
X37136728Y-58346165D01*
X32536728Y-62896165D02*
X32571390Y-62896165D01*
D11*
X112611955Y-24759984D02*
X112014541Y-24469102D01*
D10*
X36421040Y-60898837D02*
X36428948Y-60875899D01*
X34486728Y-63131165D02*
X34499571Y-63131165D01*
X33406728Y-57106164D02*
X33443175Y-56847426D01*
X33496550Y-56654598D01*
X35417501Y-63271402D02*
X35436728Y-63141165D01*
X42436535Y-59081014D02*
X42169170Y-59180736D01*
X33164130Y-60646165D02*
X33106728Y-60646165D01*
X36027180Y-64326617D02*
X36195061Y-64124329D01*
X36315487Y-63895133D01*
X98500000Y-74700000D02*
X98800000Y-74200000D01*
X41317493Y-59918718D02*
X41180736Y-60169170D01*
X35891728Y-63296165D02*
X35891728Y-62391165D01*
X112700000Y-59500000D02*
X112700000Y-61671573D01*
D11*
X111400654Y-24214821D02*
X110772534Y-23998070D01*
D10*
X106500000Y-52300000D02*
X106800000Y-52800000D01*
X111166548Y-62994975D02*
X111994975Y-62166548D01*
X36416732Y-60967485D02*
X36416730Y-61023270D01*
X33569224Y-61011800D02*
X33569224Y-60995784D01*
X36027180Y-56165713D02*
X36195061Y-56367999D01*
X36315487Y-56597196D01*
X108000000Y-58300000D02*
G75*
G02*
X107200000Y-57500000I0J800000D01*
G01*
X33858408Y-64114485D02*
X34057671Y-64271695D01*
X34192563Y-64337760D01*
X36116728Y-63386165D02*
X36079896Y-63636607D01*
X36038324Y-63780328D01*
X33752341Y-56271779D02*
X33956037Y-56106909D01*
X34135161Y-56015987D01*
X33245744Y-62896165D02*
X33256728Y-62896165D01*
X112500000Y-49700000D02*
X106500000Y-49700000D01*
X32814520Y-62896165D02*
X32986728Y-62896165D01*
X34499571Y-60131165D02*
X34536728Y-60131165D01*
X113752447Y-37781193D02*
X114247553Y-37781193D01*
X33251288Y-25447177D02*
X33809284Y-25086406D01*
X36529043Y-62145996D02*
X36566728Y-62146165D01*
X36466569Y-60851650D02*
X36494177Y-60847497D01*
X112014541Y-77530898D02*
X111400654Y-77785179D01*
X33578497Y-59716920D02*
X33569224Y-59710945D01*
X36091731Y-61044310D02*
X36091731Y-61020255D01*
X36416728Y-63386165D02*
X36381581Y-63645849D01*
X36315487Y-63895133D01*
X34499571Y-60631165D02*
X34536728Y-60631165D01*
X65500000Y-61000000D02*
X65479643Y-60715370D01*
X36417646Y-60929377D02*
X36417198Y-60948448D01*
X113752447Y-37281193D02*
X114247553Y-37281193D01*
X36416734Y-59646184D02*
X36416752Y-59525028D01*
X35200000Y-53000000D02*
X36000000Y-53000000D01*
X35174228Y-57361165D02*
X35186728Y-57361165D01*
X33700000Y-52775000D02*
X33600000Y-52775000D01*
X35892034Y-62391165D02*
X35892034Y-63296165D01*
X34986728Y-56949190D02*
X34986728Y-56979498D01*
X33255319Y-62071658D02*
X33256305Y-62046337D01*
X36520351Y-58346384D02*
X36565947Y-58346165D01*
X35136728Y-62131165D02*
X35173884Y-62131165D01*
X35174228Y-61631165D02*
X35186728Y-61631165D01*
X36104314Y-59646163D02*
X36104304Y-59697727D01*
X36686728Y-62896165D02*
X36858935Y-62896165D01*
X34486728Y-57861165D02*
X34499228Y-57861165D01*
X108825903Y-23580202D02*
X109482805Y-23680181D01*
X106800000Y-56200000D02*
X112200000Y-56200000D01*
X34388045Y-24759984D02*
X34985459Y-24469102D01*
X36027180Y-56165713D02*
X36195061Y-56367999D01*
X36315487Y-56597196D01*
X33248777Y-62105841D02*
X33255319Y-62071658D01*
X36460713Y-57596165D02*
X36509359Y-57596165D01*
X36104266Y-60994157D02*
X36104263Y-61006738D01*
X30086406Y-73190716D02*
X29759984Y-72611955D01*
D11*
X118479931Y-33835837D02*
X118419798Y-33174097D01*
D10*
X34470096Y-63535589D02*
X34565679Y-63574578D01*
X33086728Y-64396165D02*
X33086728Y-63451165D01*
X35136728Y-63515745D02*
X35136728Y-63538111D01*
X33357968Y-63895133D02*
X33291874Y-63645849D01*
X33256728Y-63386165D01*
X36446384Y-59630527D02*
X36432617Y-59616508D01*
X33600000Y-54270000D02*
X34400000Y-54270000D01*
X117530898Y-29985459D02*
X117785179Y-30599346D01*
X35136728Y-60131165D02*
X35173884Y-60131165D01*
X34536728Y-61361165D02*
X34499571Y-61361165D01*
X34986728Y-63591165D02*
X35103607Y-63575721D01*
X33157705Y-58346535D02*
X33107084Y-58346165D01*
X34400000Y-52775000D02*
X34300000Y-52775000D01*
X113752447Y-37281193D02*
X113750000Y-37281579D01*
D11*
X36867528Y-23819640D02*
X36227466Y-23998070D01*
D10*
X36091743Y-60846165D02*
X36091741Y-60803570D01*
X34686728Y-63585787D02*
X34686728Y-63569160D01*
X34985459Y-77530898D02*
X34388045Y-77240016D01*
X34536728Y-63516195D02*
X34536728Y-63538111D01*
X35538294Y-64476342D02*
X35288640Y-64539818D01*
X35086728Y-64566165D01*
X80500000Y-75000000D02*
G75*
G02*
X80000000Y-74500000I0J500000D01*
G01*
X112085786Y-45085786D02*
X112914214Y-45914214D01*
X35186728Y-58861165D02*
X35173884Y-58861165D01*
X33581728Y-59723782D02*
X33578497Y-59716920D01*
X36468830Y-59640413D02*
X36496369Y-59644695D01*
X36427753Y-57596165D02*
X36460713Y-57596165D01*
X33569224Y-59592249D02*
X33569224Y-59540859D01*
X35136728Y-61361165D02*
X35173884Y-61361165D01*
X106500000Y-57500000D02*
G75*
G02*
X105500000Y-56500000I0J1000000D01*
G01*
D11*
X113748712Y-25447177D02*
X113190716Y-25086406D01*
D10*
X35136728Y-63131165D02*
X35174228Y-63131165D01*
X35174228Y-61861165D02*
X35186728Y-61861165D01*
X34499571Y-58361165D02*
X34536728Y-58361165D01*
X37102066Y-57596165D02*
X37128062Y-57596165D01*
X33581421Y-59101165D02*
X33831728Y-59101165D01*
X32936728Y-64246165D02*
X33086728Y-64396165D01*
X33569224Y-61013089D02*
X33578497Y-61028301D01*
X36091731Y-61020255D02*
X36091728Y-60975048D01*
X36091742Y-59603836D02*
X36091740Y-59568547D01*
X35168856Y-63546020D02*
X35203359Y-63535589D01*
X113748712Y-76552823D02*
X113190716Y-76913594D01*
X106600000Y-63600000D02*
X106300000Y-63600000D01*
X30840982Y-74283908D02*
X30447177Y-73748712D01*
X36460639Y-62135915D02*
X36485736Y-62142227D01*
X34470096Y-63535589D02*
X34504599Y-63546021D01*
X35103607Y-63575721D02*
X34986728Y-63591165D01*
X33858408Y-56377844D02*
X34057671Y-56220633D01*
X34192563Y-56154569D01*
X34577773Y-63572443D02*
X34686728Y-63585800D01*
X32986728Y-59646165D02*
X32986728Y-60646165D01*
D11*
X118419798Y-68825903D02*
X118479931Y-68164163D01*
D10*
X34761728Y-63606165D02*
X34911728Y-63606165D01*
X34192563Y-64337760D02*
X34435454Y-64397061D01*
X34586727Y-64416165D01*
X79800000Y-75500000D02*
X94200000Y-75500000D01*
X101700000Y-27500000D02*
X101700000Y-27275000D01*
X35628124Y-63932561D02*
X35781908Y-63729817D01*
X35823219Y-63640580D01*
X35136728Y-62631165D02*
X35174228Y-62631165D01*
X35136728Y-57861165D02*
X35174228Y-57861165D01*
X100474000Y-28885000D02*
X100474000Y-58085000D01*
X32936728Y-56246165D02*
X32936728Y-57041165D01*
X33556728Y-58351165D02*
X33581728Y-58351165D01*
X98300000Y-70500000D02*
G75*
G02*
X98500000Y-70300000I200000J0D01*
G01*
X34536728Y-61861165D02*
X34499571Y-61861165D01*
X34686728Y-63569160D02*
X34686728Y-63585503D01*
X112085786Y-63914214D02*
X112914214Y-63085786D01*
X34991728Y-56095858D02*
X34991728Y-56296165D01*
X36095164Y-59575401D02*
X36091741Y-59568547D01*
X34337312Y-56364673D02*
X34582430Y-56308200D01*
X34681728Y-56296165D01*
X34986728Y-56923169D02*
X34986728Y-56906826D01*
X32814520Y-59646165D02*
X32668530Y-59646165D01*
X35173884Y-59631165D02*
X35186728Y-59631165D01*
X35173884Y-61861165D02*
X35186728Y-61861165D01*
X35436728Y-63141165D02*
X35436728Y-57351165D01*
X34486728Y-62361165D02*
X34499571Y-62361165D01*
X36116728Y-60695536D02*
X36104231Y-60679240D01*
X112014541Y-24469102D02*
X112611955Y-24759984D01*
D11*
X65011499Y-59690279D02*
X65182507Y-59918718D01*
D10*
X36586728Y-64396165D02*
X36736728Y-64246165D01*
X111752447Y-37281193D02*
X111750000Y-37281579D01*
X32668530Y-59646165D02*
X32814689Y-59646165D01*
X33357968Y-63895133D02*
X33478393Y-64124329D01*
X33646275Y-64326616D01*
X110671573Y-45800000D02*
X110671573Y-45300000D01*
X33256728Y-60646165D02*
X33245310Y-60646165D01*
X34530057Y-57487277D02*
X34516807Y-57423889D01*
X34991728Y-56096165D02*
X35246077Y-56132760D01*
X35412679Y-56179897D01*
X33569224Y-59813089D02*
X33578497Y-59828301D01*
X33245310Y-62896165D02*
X33212794Y-62896165D01*
X33164130Y-57596165D02*
X33212794Y-57596165D01*
X65418986Y-60436535D02*
X65319264Y-60169170D01*
X33236791Y-62125853D02*
X33249101Y-62105360D01*
X34192563Y-56154569D02*
X34435454Y-56095267D01*
X34586727Y-56076165D01*
X35417611Y-57220559D02*
X35364965Y-57107417D01*
D11*
X114283908Y-76159018D02*
X114794349Y-75733618D01*
D10*
X35173884Y-60131165D02*
X35186728Y-60131165D01*
X36464271Y-58352061D02*
X36496652Y-58347174D01*
D11*
X110132472Y-78180360D02*
X110772534Y-78001930D01*
D10*
X34254423Y-57226214D02*
X34308156Y-57107888D01*
X36686727Y-57596165D02*
X36858935Y-57596165D01*
X35300000Y-52775000D02*
X35200000Y-52775000D01*
X34986728Y-56948343D02*
X34986728Y-56979498D01*
X106800000Y-52800000D02*
X106300000Y-52500000D01*
X35203359Y-63535589D02*
X35163495Y-63546153D01*
X101700000Y-27275000D02*
X101600000Y-27275000D01*
X36266728Y-57106164D02*
X36266728Y-63386165D01*
D11*
X116913594Y-28809284D02*
X116552823Y-28251288D01*
X41000000Y-78500000D02*
X41000000Y-61000000D01*
D10*
X34565679Y-63574578D02*
X34686728Y-63591165D01*
X32668530Y-58346165D02*
X32814520Y-58346165D01*
X34192563Y-64337760D02*
X33973762Y-64215003D01*
X33858408Y-64114485D01*
X36091731Y-59820171D02*
X36091728Y-59774966D01*
X46958464Y-59670672D02*
X64991892Y-59670672D01*
X36116728Y-60846163D02*
X36104231Y-60846163D01*
X33569224Y-60740859D02*
X33569224Y-60702133D01*
X37004926Y-58346164D02*
X37102473Y-58346165D01*
X35174228Y-58631165D02*
X35186728Y-58631165D01*
X36116728Y-63386165D02*
X36079896Y-63636607D01*
X36038324Y-63780328D01*
X36686727Y-58346165D02*
X36858766Y-58346165D01*
X112611955Y-77240016D02*
X112014541Y-77530898D01*
X33569224Y-59811164D02*
X33569224Y-59811800D01*
X34499571Y-57361165D02*
X34489468Y-57423880D01*
X34236728Y-57351165D02*
X34236728Y-63141165D01*
X35815048Y-56377845D02*
X35615784Y-56220633D01*
X35480892Y-56154569D01*
X34911728Y-63506537D02*
X34761728Y-63506537D01*
X32536728Y-58346165D02*
X32570982Y-58346165D01*
X33254771Y-59575820D02*
X33256534Y-59538426D01*
X35136728Y-59861165D02*
X35173884Y-59861165D01*
X104500000Y-69500000D02*
G75*
G02*
X105500000Y-70500000I0J-1000000D01*
G01*
X33569224Y-60792249D02*
X33569224Y-60740859D01*
X36500000Y-51500000D02*
X36629410Y-51482963D01*
X34991728Y-56296165D02*
X34681728Y-56296165D01*
X35417426Y-57220785D02*
X35436728Y-57351165D01*
X34499571Y-62861165D02*
X34536728Y-62861165D01*
X34486728Y-60131165D02*
X34499571Y-60131165D01*
X34583903Y-56913070D02*
X34486923Y-56950283D01*
X35173884Y-62631165D02*
X35186728Y-62631165D01*
X41020357Y-60715370D02*
X41000000Y-61000000D01*
X35136728Y-59131165D02*
X35174228Y-59131165D01*
X112500000Y-58500000D02*
G75*
G02*
X113500000Y-59500000I0J-1000000D01*
G01*
D11*
X41918718Y-59317493D02*
X42169170Y-59180736D01*
D10*
X34504600Y-56946309D02*
X34470096Y-56956740D01*
X34499228Y-60631165D02*
X34536728Y-60631165D01*
X32668530Y-62146165D02*
X32570982Y-62146165D01*
X36416728Y-62146165D02*
X36416754Y-62025504D01*
X35136728Y-62631165D02*
X35173884Y-62631165D01*
X36566728Y-62896165D02*
X36509362Y-62896165D01*
D11*
X111400654Y-77785179D02*
X112014541Y-77530898D01*
D10*
X35417611Y-57220559D02*
X35364965Y-57107417D01*
X34911728Y-56087238D02*
X34761728Y-56087238D01*
X33581728Y-58841165D02*
X33556728Y-58841165D01*
X36104231Y-60731770D02*
X36104231Y-60781382D01*
X33569224Y-59482216D02*
X33569224Y-59481199D01*
D11*
X117240016Y-72611955D02*
X117530898Y-72014541D01*
D10*
X33182708Y-59644742D02*
X33151134Y-59646019D01*
X36460549Y-59635854D02*
X36485648Y-59642200D01*
X33556728Y-63386165D02*
X33593559Y-63636607D01*
X33635132Y-63780329D01*
X33255319Y-59571658D02*
X33256305Y-59546337D01*
X35203359Y-56956740D02*
X35296746Y-57024992D01*
X36315487Y-63895133D02*
X36195061Y-64124330D01*
X36027180Y-64326617D01*
X106300000Y-47328427D02*
G75*
G02*
X106651479Y-46479906I1199900J27D01*
G01*
X34536728Y-60361165D02*
X34499571Y-60361165D01*
X112050000Y-37550000D02*
X112247553Y-37781193D01*
D11*
X28500000Y-67500000D02*
X28520069Y-68164163D01*
D10*
X35136728Y-57361165D02*
X35173884Y-57361165D01*
X33255319Y-59571658D02*
X33248777Y-59605841D01*
X34986747Y-63543139D02*
X34986741Y-63569160D01*
X33581728Y-60923782D02*
X33578497Y-60916920D01*
X33556728Y-62141165D02*
X33581728Y-62141165D01*
X36686728Y-62146165D02*
X36857091Y-62146165D01*
X34370590Y-34017037D02*
X34250000Y-34066987D01*
X33581728Y-59723782D02*
X33578497Y-59716920D01*
X112418154Y-45400000D02*
X112418154Y-45418154D01*
X35841728Y-62391165D02*
X35841728Y-61391165D01*
X35364989Y-57107406D02*
X35417426Y-57220785D01*
X101600000Y-28800000D02*
X101600000Y-27200000D01*
X34536728Y-57161165D02*
X34636728Y-57201165D01*
X32536728Y-59646165D02*
X32571390Y-59646165D01*
X37102473Y-60846164D02*
X37136728Y-60846165D01*
X33578497Y-61028301D02*
X33581728Y-61045330D01*
X33236709Y-58366391D02*
X33216171Y-58354748D01*
X32986728Y-59646165D02*
X32814520Y-59646165D01*
X34586727Y-64416165D02*
X34336284Y-64379332D01*
X34192563Y-64337760D01*
X98500000Y-70300000D02*
X104500000Y-70300000D01*
D11*
X113400000Y-30000000D02*
G75*
G02*
X110600000Y-30000000I-1400000J0D01*
G01*
X110600000Y-30000000D02*
G75*
G02*
X113400000Y-30000000I1400000J0D01*
G01*
D10*
X39500000Y-78500000D02*
X38835837Y-78479931D01*
X35136728Y-59631165D02*
X35173884Y-59631165D01*
X36443695Y-60860563D02*
X36464925Y-60852165D01*
X108328427Y-64500000D02*
G75*
G02*
X106914221Y-63914207I-27J1999900D01*
G01*
X35136728Y-61861165D02*
X35173884Y-61861165D01*
X36460718Y-62896165D02*
X36508977Y-62896165D01*
X28580202Y-33174097D02*
X28680181Y-32517195D01*
X64581282Y-59317493D02*
X64330830Y-59180736D01*
X101600000Y-27550000D02*
X102400000Y-27550000D01*
X33600000Y-52700000D02*
X34400000Y-52700000D01*
X32367482Y-54232518D02*
X32832518Y-54232518D01*
X36091740Y-60768545D02*
X36095158Y-60775398D01*
X36091728Y-58841165D02*
X36116728Y-58841165D01*
X33781728Y-59101165D02*
X33781728Y-61391165D01*
X35136728Y-58131165D02*
X35173884Y-58131165D01*
X33249159Y-58386281D02*
X33236709Y-58366391D01*
X32571390Y-59646165D02*
X32668530Y-59646165D01*
X112700000Y-56500000D02*
X112200000Y-56200000D01*
X32814520Y-60646165D02*
X32986728Y-60646165D01*
X34986728Y-56906826D02*
X34986728Y-56901165D01*
X36750000Y-34066987D02*
X36629410Y-34017037D01*
X112500000Y-49700000D02*
X112200000Y-49200000D01*
X33256728Y-59496166D02*
X33256305Y-59546337D01*
D11*
X29759984Y-72611955D02*
X30086406Y-73190716D01*
D10*
X35336143Y-56364673D02*
X35091025Y-56308200D01*
X34991728Y-56296165D01*
X34495318Y-56946593D02*
X34569848Y-56916608D01*
X33721395Y-56096165D02*
X33086728Y-56096165D01*
X103600000Y-75700000D02*
X103100000Y-75700000D01*
D11*
X38174097Y-78419798D02*
X38835837Y-78479931D01*
D10*
X35174228Y-62361165D02*
X35186728Y-62361165D01*
X34686722Y-56906826D02*
X34686716Y-56923169D01*
X35173884Y-58131165D02*
X35186728Y-58131165D01*
X32898106Y-59646165D02*
X32986728Y-59646165D01*
X34686728Y-63543986D02*
X34686728Y-63569160D01*
X34499228Y-61861165D02*
X34536728Y-61861165D01*
D11*
X38835837Y-23520069D02*
X38174097Y-23580202D01*
D10*
X34991728Y-56095858D02*
X34681728Y-56095858D01*
X112085786Y-63914214D02*
G75*
G02*
X110671573Y-64500022I-1414286J1414314D01*
G01*
X34686728Y-63512831D02*
X34686728Y-63543986D01*
X36494177Y-60847497D02*
X36527303Y-60846303D01*
X36104280Y-60897821D02*
X36104273Y-60951632D01*
X36093016Y-60657320D02*
X36091728Y-60645431D01*
X35841728Y-59101165D02*
X35841728Y-58101165D01*
X117240016Y-29388045D02*
X117530898Y-29985459D01*
X99900000Y-75700000D02*
X99400000Y-75700000D01*
X32300000Y-53500000D02*
X32317482Y-53517482D01*
X35186728Y-59361165D02*
X35173884Y-59361165D01*
X34686708Y-56949190D02*
X34686714Y-56923169D01*
D11*
X118479931Y-68164163D02*
X118500000Y-67500000D01*
D10*
X34486728Y-58131165D02*
X34499228Y-58131165D01*
X113752447Y-37781193D02*
X113750000Y-37781579D01*
X34686728Y-56901165D02*
X34686722Y-56906826D01*
X37102473Y-57596165D02*
X37136728Y-57596165D01*
X35173884Y-60361165D02*
X35136728Y-60361165D01*
D11*
X28520069Y-33835837D02*
X28500000Y-34500000D01*
D10*
X65011499Y-59690279D02*
X64809721Y-59488501D01*
X34686714Y-56923169D02*
X34686720Y-56906501D01*
X118180360Y-31867528D02*
X118319819Y-32517195D01*
X35136728Y-59361165D02*
X35174228Y-59361165D01*
X41274000Y-28885000D02*
X41274000Y-58085000D01*
X35173884Y-61361165D02*
X35186728Y-61361165D01*
X106085786Y-63085786D02*
G75*
G02*
X105499978Y-61671573I1414314J1414286D01*
G01*
X34499571Y-62361165D02*
X34486728Y-62361165D01*
X102555000Y-35300000D02*
G75*
G02*
X102355000Y-35300000I-100000J0D01*
G01*
X102355000Y-35300000D02*
G75*
G02*
X102555000Y-35300000I100000J0D01*
G01*
X34499571Y-58631165D02*
X34536728Y-58631165D01*
X36566728Y-57596165D02*
X36686727Y-57596165D01*
X34499571Y-61631165D02*
X34536728Y-61631165D01*
X36416728Y-63386165D02*
X36416728Y-57106164D01*
X32668530Y-57596165D02*
X32814520Y-57596165D01*
X34486728Y-59361165D02*
X34486728Y-59631165D01*
X111750000Y-37250000D02*
X111750000Y-38050000D01*
X34536728Y-57861165D02*
X34499571Y-57861165D01*
X35595697Y-55877405D02*
X35346413Y-55811311D01*
X35086729Y-55776165D01*
X34486728Y-57424600D02*
X34486728Y-57496165D01*
X35538294Y-64476342D02*
X35288640Y-64539818D01*
X35086728Y-64566165D01*
X35136728Y-62131165D02*
X35174228Y-62131165D01*
X33937860Y-56120283D02*
X34152376Y-56009014D01*
X35186728Y-57861165D02*
X35173884Y-57861165D01*
X36736728Y-56246165D02*
X36736728Y-57041165D01*
X34991728Y-64196165D02*
X35242192Y-64155855D01*
X35335805Y-64126841D01*
X32668530Y-58346165D02*
X32814689Y-58346165D01*
X63784630Y-59020357D02*
X63500000Y-59000000D01*
D11*
X64581282Y-59317493D02*
X64809721Y-59488501D01*
D10*
X36094723Y-61028945D02*
X36104434Y-61012154D01*
X33569224Y-59716690D02*
X33569224Y-59646166D01*
X34368530Y-63459363D02*
X34363081Y-63451165D01*
X35595697Y-64614924D02*
X35824893Y-64494498D01*
X36027180Y-64326617D01*
X34486728Y-63131165D02*
X34499571Y-63131165D01*
X34486728Y-62361165D02*
X34486728Y-62631165D01*
X36116729Y-58201165D02*
X36116728Y-57596165D01*
X36566728Y-62146165D02*
X36566728Y-62896165D01*
X36104231Y-61010113D02*
X36104231Y-61011086D01*
X33151134Y-62146019D02*
X33182708Y-62144742D01*
X36104259Y-60810607D02*
X36104287Y-60846163D01*
X64063465Y-59081014D02*
X63784630Y-59020357D01*
X33665460Y-63717116D02*
X33788465Y-63939894D01*
X33903910Y-64073982D01*
X35086728Y-64716165D02*
X35346413Y-64681018D01*
X35595697Y-64614924D01*
X36104231Y-59480528D02*
X36104231Y-59496545D01*
X36000000Y-53950000D02*
X35200000Y-53950000D01*
X32986728Y-58346164D02*
X33107084Y-58346164D01*
X36416728Y-62896165D02*
X36427758Y-62896165D01*
X34681728Y-64196165D02*
X34991728Y-64196165D01*
X36468916Y-62140446D02*
X36496440Y-62144704D01*
X33646276Y-56165712D02*
X33848562Y-55997830D01*
X34077759Y-55877405D01*
X33106728Y-60646165D02*
X33107586Y-59646165D01*
D11*
X32205651Y-75733618D02*
X32716092Y-76159018D01*
D10*
X32929269Y-62900665D02*
G75*
G02*
X32536522Y-62333054I-244269J250665D01*
G01*
X33236782Y-58366333D02*
X33215727Y-58353867D01*
X34499228Y-57631165D02*
X34536728Y-57631165D01*
D11*
X64809721Y-59488501D02*
X65011499Y-59690279D01*
D10*
X32716092Y-76159018D02*
X32205651Y-75733618D01*
X37000000Y-34500000D02*
X36982963Y-34370590D01*
X33212794Y-60646165D02*
X33232015Y-60646165D01*
X33182708Y-62144742D02*
X33151134Y-62146019D01*
X33163574Y-60646165D02*
X33212794Y-60646165D01*
X35136728Y-63538111D02*
X35136866Y-63515961D01*
X33635132Y-63780329D02*
X33757888Y-63999129D01*
X33858408Y-64114485D01*
X34686728Y-63591165D02*
X34569830Y-63575716D01*
X33245310Y-60646165D02*
X33212794Y-60646165D01*
X113500000Y-61671573D02*
G75*
G02*
X112914207Y-63085779I-1999900J-27D01*
G01*
X35136728Y-61361165D02*
X35174228Y-61361165D01*
D11*
X109482805Y-78319819D02*
X110132472Y-78180360D01*
X108825903Y-23580202D02*
X108164163Y-23520069D01*
D10*
X36104434Y-59480175D02*
X36095129Y-59464499D01*
X36000000Y-52700000D02*
X36000000Y-54300000D01*
X33635132Y-63780329D02*
X33575830Y-63537437D01*
X33556728Y-63386165D01*
X35136728Y-58631165D02*
X35174228Y-58631165D01*
X32668530Y-62896165D02*
X32814689Y-62896165D01*
X113750000Y-37250000D02*
X113750000Y-38050000D01*
X104200000Y-74200000D02*
X104200000Y-70800000D01*
X111000000Y-57700000D02*
G75*
G02*
X111800000Y-58500000I0J-800000D01*
G01*
X34686728Y-63512831D02*
X34643439Y-63506165D01*
X35136728Y-58131165D02*
X35173884Y-58131165D01*
X36091729Y-61044106D02*
X36091731Y-61044310D01*
X36423485Y-57596165D02*
X36428187Y-57596165D01*
X35200000Y-52700000D02*
X35200000Y-54300000D01*
X118419798Y-68825903D02*
X118319819Y-69482805D01*
X35628124Y-63932561D02*
X35781265Y-63729601D01*
X35822404Y-63640242D01*
X111520101Y-45651472D02*
X112348528Y-46479899D01*
X36858935Y-58346164D02*
X37004926Y-58346164D01*
X35173884Y-58631165D02*
X35186728Y-58631165D01*
X33569224Y-61011130D02*
X33569224Y-61011800D01*
X36496440Y-62144704D02*
X36468916Y-62140446D01*
X34486180Y-56096165D02*
X35187275Y-56096165D01*
X34499228Y-62631165D02*
X34536728Y-62631165D01*
D11*
X36227466Y-23998070D02*
X35599346Y-24214821D01*
D10*
X80000000Y-61500000D02*
G75*
G02*
X80500000Y-61000000I500000J0D01*
G01*
X102400000Y-28800000D02*
X102400000Y-27200000D01*
X34877866Y-56964116D02*
X34902351Y-56939563D01*
X34077758Y-64614924D02*
X33848561Y-64494498D01*
X33646275Y-64326616D01*
X35136728Y-58861165D02*
X35174228Y-58861165D01*
X36091743Y-60888758D02*
X36091741Y-60923782D01*
D11*
X28580202Y-68825903D02*
X28680181Y-69482805D01*
D10*
X35163499Y-56946177D02*
X35183152Y-56948512D01*
X98300000Y-74500000D02*
X98300000Y-70500000D01*
X34686722Y-56906826D02*
X34686716Y-56923169D01*
X36095159Y-59575400D02*
X36091740Y-59568547D01*
X36091728Y-62291165D02*
X36116728Y-62291165D01*
X35892034Y-59101165D02*
X35892034Y-61391165D01*
X36464925Y-60852165D02*
X36496700Y-60847199D01*
X34499571Y-60361165D02*
X34536728Y-60361165D01*
X35412679Y-56179897D02*
X35635457Y-56302901D01*
X35769545Y-56418347D01*
X36092720Y-61036361D02*
X36094723Y-61028945D01*
X34499571Y-61131165D02*
X34536728Y-61131165D01*
X32900000Y-54300000D02*
X32882518Y-54282518D01*
X32367482Y-54232518D02*
X32367482Y-53982518D01*
X36418410Y-60925170D02*
X36422727Y-60896702D01*
X33781728Y-63296165D02*
X33821266Y-63546973D01*
X33850236Y-63640580D01*
X32814520Y-59646165D02*
X32986728Y-59646165D01*
X34486728Y-60131165D02*
X34499571Y-60131165D01*
X36496700Y-60847199D02*
X36464925Y-60852165D01*
X36095142Y-60664508D02*
X36093016Y-60657320D01*
X36092253Y-59453168D02*
X36092034Y-59449943D01*
X34991728Y-64396165D02*
X35245202Y-64359274D01*
X35412679Y-64312432D01*
X32900000Y-53500000D02*
X32882518Y-53517482D01*
X34499571Y-61861165D02*
X34486728Y-61861165D01*
X35815048Y-56377845D02*
X35972259Y-56577108D01*
X36038324Y-56712001D01*
X34486728Y-57361165D02*
X34486728Y-57424600D01*
X35412679Y-56179897D02*
X35166629Y-56118604D01*
X34991728Y-56096165D01*
X36933013Y-34250000D02*
X36853553Y-34146447D01*
X106500000Y-59300000D02*
X112500000Y-59300000D01*
X33831728Y-61391165D02*
X33831728Y-62391165D01*
X34260776Y-64312432D02*
X34037997Y-64189427D01*
X33903910Y-64073982D01*
X106300000Y-63600000D02*
X106300000Y-63300000D01*
X111000000Y-57700000D02*
X108000000Y-57700000D01*
X33903910Y-56418347D02*
X33747460Y-56624077D01*
X33665460Y-56775213D01*
X33903910Y-64073982D02*
X34105214Y-64234856D01*
X34260776Y-64312432D01*
X36432686Y-62116659D02*
X36423477Y-62095947D01*
X36428948Y-60875899D02*
X36421040Y-60898837D01*
X35336143Y-64127656D02*
X35091025Y-64184128D01*
X34991728Y-64196165D01*
X35290690Y-63472037D02*
X35365356Y-63384483D01*
X79500000Y-60800000D02*
G75*
G02*
X79800000Y-60500000I300000J0D01*
G01*
X36266728Y-63386165D02*
X36233706Y-63634649D01*
X36183878Y-63820516D01*
X35173884Y-62631165D02*
X35186728Y-62631165D01*
D11*
X65500000Y-61000000D02*
X65500000Y-78500000D01*
D10*
X34470096Y-56956740D02*
X34382759Y-57020283D01*
X33850236Y-56851749D02*
X33793763Y-57096867D01*
X33781728Y-57196165D01*
X33147578Y-58346333D02*
X33185028Y-58348064D01*
X34536728Y-59361165D02*
X34499571Y-59361165D01*
X36442592Y-59625776D02*
X36460549Y-59635854D01*
X35733870Y-56119152D02*
X35921114Y-56271779D01*
X111200000Y-50500000D02*
G75*
G02*
X111000000Y-50700000I-200000J0D01*
G01*
X112200000Y-56200000D02*
X112200000Y-52800000D01*
X118419798Y-33174097D02*
X118479931Y-33835837D01*
X34486728Y-60861165D02*
X34499571Y-60861165D01*
X33163926Y-62896165D02*
X33212794Y-62896165D01*
X36116730Y-58351165D02*
X36091728Y-58351165D01*
X113500000Y-56500000D02*
G75*
G02*
X112500000Y-57500000I-1000000J0D01*
G01*
X35136728Y-56954218D02*
X35136728Y-63506165D01*
X100474000Y-33929580D02*
G75*
G02*
X100474000Y-34070420I71000J-70420D01*
G01*
X36091744Y-60846165D02*
X36091743Y-60888758D01*
X34486728Y-57631165D02*
X34499571Y-57631165D01*
X113350000Y-72000000D02*
G75*
G02*
X110650000Y-72000000I-1350000J0D01*
G01*
X110650000Y-72000000D02*
G75*
G02*
X113350000Y-72000000I1350000J0D01*
G01*
X35174228Y-58361165D02*
X35186728Y-58361165D01*
X36933013Y-51250000D02*
X36982963Y-51129410D01*
X32570982Y-59646165D02*
X32668530Y-59646165D01*
X35173884Y-62861165D02*
X35186728Y-62861165D01*
X36104231Y-60681199D02*
X36104231Y-60680528D01*
X35089552Y-63579259D02*
X35186533Y-63542046D01*
X36857091Y-62146165D02*
X37004926Y-62146165D01*
D11*
X65319264Y-60169170D02*
X65418986Y-60436535D01*
D10*
X99900000Y-75500000D02*
X99900000Y-75700000D01*
X34255995Y-57220942D02*
X34236728Y-57351165D01*
X36686727Y-57596165D02*
X36858766Y-57596165D01*
X35203359Y-63535589D02*
X35290690Y-63472037D01*
X113750000Y-38050000D02*
X114250000Y-38050000D01*
D11*
X117240016Y-29388045D02*
X116913594Y-28809284D01*
D10*
X34499571Y-60131165D02*
X34536728Y-60131165D01*
X36091741Y-60803570D02*
X36091740Y-60768547D01*
X36315487Y-63895133D02*
X36381581Y-63645849D01*
X36416728Y-63386165D01*
X34236728Y-63141165D02*
X34255844Y-63271770D01*
X36104231Y-60990197D02*
X36104231Y-61010113D01*
X108500000Y-23500000D02*
G75*
G02*
X118500000Y-33500000I0J-10000000D01*
G01*
X32570982Y-58346165D02*
X32668530Y-58346165D01*
X37102473Y-62146165D02*
X37136728Y-62146165D01*
X34986741Y-63569160D02*
X34986735Y-63585828D01*
X33213790Y-62138941D02*
X33236743Y-62125882D01*
X35815048Y-56377845D02*
X35972259Y-56577108D01*
X36038324Y-56712001D01*
X34376709Y-63467337D02*
X34308466Y-63384923D01*
X112700000Y-47328427D02*
X112700000Y-49500000D01*
X36116730Y-60846165D02*
X36116730Y-60792622D01*
D11*
X113748712Y-76552823D02*
X114283908Y-76159018D01*
D10*
X36072609Y-56457297D02*
X36183878Y-56671813D01*
X36858935Y-59646165D02*
X36686727Y-59646165D01*
X33556728Y-57106163D02*
X33593559Y-56855720D01*
X33635132Y-56712000D01*
X35419043Y-63266079D02*
X35365315Y-63384416D01*
X32700000Y-54300000D02*
X32700000Y-54400000D01*
X80500000Y-75000000D02*
X93500000Y-75000000D01*
X107500000Y-23500000D02*
X108164163Y-23520069D01*
X32814520Y-58346165D02*
X32986728Y-58346164D01*
X106300000Y-61671573D02*
X106300000Y-59500000D01*
X33581421Y-63296165D02*
X33581421Y-62391165D01*
X35136728Y-57631165D02*
X35173884Y-57631165D01*
X34536589Y-56976368D02*
X34536728Y-57002165D01*
X118001930Y-70772534D02*
X117785179Y-71400654D01*
X100474000Y-35229580D02*
G75*
G02*
X100474000Y-35370420I71000J-70420D01*
G01*
X34520960Y-63544358D02*
X34536728Y-63538111D01*
X34991728Y-64196165D02*
X35242536Y-64156625D01*
X35336143Y-64127656D01*
X102400000Y-27275000D02*
X102300000Y-27275000D01*
X34761728Y-56893317D02*
X34771104Y-56939563D01*
X32571390Y-62896165D02*
X32668530Y-62896165D01*
X36586728Y-56096165D02*
X36736728Y-56246165D01*
X35174228Y-59861165D02*
X35186728Y-59861165D01*
X37517195Y-23680181D02*
X38174097Y-23580202D01*
X34911728Y-56886165D02*
X34911728Y-56986031D01*
X34250000Y-51433013D02*
X34370590Y-51482963D01*
X34486728Y-60861165D02*
X34499228Y-60861165D01*
X35921114Y-64220551D02*
X35717417Y-64385419D01*
X35538294Y-64476342D01*
X34991728Y-56296165D02*
X35242536Y-56335703D01*
X35336143Y-56364673D01*
D11*
X118319819Y-69482805D02*
X118419798Y-68825903D01*
D10*
X35891728Y-63296165D02*
X35852188Y-63546973D01*
X35823219Y-63640580D01*
D11*
X118319819Y-32517195D02*
X118180360Y-31867528D01*
D10*
X34794997Y-56963871D02*
X34836740Y-56985921D01*
X34761728Y-56886165D02*
X34761728Y-56986031D01*
X36748112Y-57592349D02*
G75*
G02*
X37137677Y-58164944I236888J-257651D01*
G01*
X34486728Y-59361165D02*
X34499571Y-59361165D01*
X34499571Y-59131165D02*
X34536728Y-59131165D01*
X35336143Y-56364673D02*
X35553609Y-56492490D01*
X35628124Y-56559768D01*
X34470096Y-56956740D02*
X34509960Y-56946176D01*
X36529001Y-59645996D02*
X36496369Y-59644695D01*
X35152495Y-56947971D02*
X35168856Y-56946309D01*
X111520101Y-63348528D02*
G75*
G02*
X110671573Y-63700022I-848601J848628D01*
G01*
X34536728Y-58361165D02*
X34499571Y-58361165D01*
X35174228Y-61361165D02*
X35186728Y-61361165D01*
X111994975Y-46833452D02*
X111166548Y-46005025D01*
X34499571Y-57861165D02*
X34486728Y-57861165D01*
X36418420Y-62063014D02*
X36418613Y-62067371D01*
X107479899Y-63348528D02*
X106651472Y-62520101D01*
X36093004Y-59457296D02*
X36092253Y-59453168D01*
X33569224Y-59813089D02*
X33578497Y-59828301D01*
X35173884Y-57861165D02*
X35186728Y-57861165D01*
X112700000Y-52500000D02*
X112200000Y-52800000D01*
X34761728Y-64405091D02*
X34911728Y-64405091D01*
X34500000Y-51500000D02*
X36500000Y-51500000D01*
D11*
X115278175Y-75278175D02*
X115733618Y-74794349D01*
D10*
X93500000Y-61000000D02*
X80500000Y-61000000D01*
X42715370Y-59020357D02*
X42436535Y-59081014D01*
X111166548Y-62994975D02*
G75*
G02*
X110671573Y-63200023I-495048J495075D01*
G01*
X35186728Y-58361165D02*
X35173884Y-58361165D01*
X37102473Y-59646165D02*
X37128164Y-59646165D01*
X32570982Y-62896165D02*
X32668530Y-62896165D01*
X118319819Y-32517195D02*
X118419798Y-33174097D01*
X113748712Y-25447177D02*
X114283908Y-25840982D01*
X34486728Y-60631165D02*
X34499571Y-60631165D01*
X33256728Y-60646165D02*
X33245310Y-60646165D01*
X34911728Y-56969499D02*
X34867708Y-56969498D01*
X33569224Y-60846166D02*
X33569224Y-60792249D01*
X36000000Y-53050000D02*
X35200000Y-53050000D01*
X32570982Y-62146165D02*
X32536728Y-62146165D01*
X34499571Y-63131165D02*
X34536728Y-63131165D01*
X33215727Y-58353867D02*
X33236782Y-58366333D01*
X36509359Y-57596165D02*
X36566728Y-57596165D01*
X33665460Y-56775213D02*
X33602623Y-57019718D01*
X33581728Y-57196165D01*
X118479931Y-68164163D02*
X118419798Y-68825903D01*
D11*
X110132472Y-23819640D02*
X109482805Y-23680181D01*
D10*
X33245310Y-60646165D02*
X33212794Y-60646165D01*
X43000000Y-59000000D02*
X42715370Y-59020357D01*
X35173884Y-58861165D02*
X35186728Y-58861165D01*
X36091728Y-59774966D02*
X36091728Y-59716494D01*
X32668530Y-60646165D02*
X32814520Y-60646165D01*
X36104231Y-60680528D02*
X36104231Y-60696545D01*
X65182507Y-59918718D02*
X65011499Y-59690279D01*
X35136728Y-59631165D02*
X35173884Y-59631165D01*
X35136728Y-63131165D02*
X35173884Y-63131165D01*
X35595697Y-55877405D02*
X35824893Y-55997830D01*
X36027180Y-56165713D01*
X79800000Y-75500000D02*
G75*
G02*
X79500000Y-75200000I0J300000D01*
G01*
D11*
X110772534Y-78001930D02*
X111400654Y-77785179D01*
D10*
X36176905Y-63837731D02*
X36053482Y-64064928D01*
X35921114Y-64220551D01*
X114247553Y-37781193D02*
X114250000Y-37781579D01*
X33581728Y-58991165D02*
X33556728Y-58991165D01*
X101600000Y-28725000D02*
X101700000Y-28725000D01*
D11*
X33809284Y-25086406D02*
X33251288Y-25447177D01*
D10*
X35599346Y-24214821D02*
X36227466Y-23998070D01*
X34681728Y-64196471D02*
X34991728Y-64196471D01*
X36116728Y-59495536D02*
X36104231Y-59479240D01*
X35173884Y-61131165D02*
X35186728Y-61131165D01*
X115278175Y-75278175D02*
X114794349Y-75733618D01*
X32536728Y-57596165D02*
X32571390Y-57596165D01*
X34586728Y-64566165D02*
X34327990Y-64529716D01*
X34135161Y-64476342D01*
X35024863Y-56076165D02*
X35049313Y-56094628D01*
X31266382Y-27205651D02*
X31721825Y-26721825D01*
X35521079Y-56009014D02*
X35733870Y-56119152D01*
X32205651Y-75733618D02*
X31721825Y-75278175D01*
X35837904Y-50333531D02*
X35824876Y-50190574D01*
X36104272Y-59610827D02*
X36104314Y-59646163D01*
X34569848Y-56916608D02*
X34686728Y-56901165D01*
X113750000Y-37250000D02*
X114250000Y-37250000D01*
X32536728Y-62146165D02*
X32571390Y-62146165D01*
X36104278Y-59806668D02*
X36104272Y-59811992D01*
X107833452Y-46005025D02*
X107005025Y-46833452D01*
X36586728Y-56096165D02*
X35952060Y-56096165D01*
X36504776Y-60846790D02*
X36496700Y-60847199D01*
X36923336Y-36112740D02*
X36514954Y-36363917D01*
X34300000Y-54225000D02*
X34400000Y-54225000D01*
X106600000Y-45400000D02*
X106300000Y-45400000D01*
D11*
X116913594Y-73190716D02*
X117240016Y-72611955D01*
D10*
X34498783Y-63542972D02*
X34577773Y-63572443D01*
X35136728Y-62631165D02*
X35173884Y-62631165D01*
X34991728Y-64396165D02*
X35245202Y-64359274D01*
X35412679Y-64312432D01*
X34499571Y-61861165D02*
X34536728Y-61861165D01*
X113950000Y-37450000D02*
X114050000Y-37450000D01*
X36496652Y-58347174D02*
X36520351Y-58346384D01*
X35186728Y-62361165D02*
X35186728Y-62631165D01*
X34991728Y-64196165D02*
X34991728Y-64396471D01*
X36091728Y-60916903D02*
X36091743Y-60846165D01*
X35186728Y-57361165D02*
X35186728Y-57631165D01*
X34499228Y-61131165D02*
X34536728Y-61131165D01*
X34337312Y-64127656D02*
X34582430Y-64184128D01*
X34681728Y-64196165D01*
X108000000Y-57700000D02*
G75*
G02*
X107800000Y-57500000I0J200000D01*
G01*
X35365356Y-63384483D02*
X35417501Y-63271402D01*
X32570982Y-62146165D02*
X32668530Y-62146165D01*
X32536728Y-57596165D02*
X32536728Y-58346165D01*
D11*
X31266382Y-27205651D02*
X30840982Y-27716092D01*
D10*
X36104231Y-59481199D02*
X36104231Y-59480528D01*
X32814520Y-60646165D02*
X32986728Y-60646165D01*
X36104231Y-59531770D02*
X36104231Y-59581382D01*
X37004926Y-62896165D02*
X37102473Y-62896165D01*
X35186728Y-61861165D02*
X35173884Y-61861165D01*
X98500000Y-75500000D02*
G75*
G02*
X97500000Y-74500000I0J1000000D01*
G01*
X112200000Y-52800000D02*
X106800000Y-52800000D01*
X34486728Y-59131165D02*
X34499228Y-59131165D01*
X37136728Y-62146165D02*
X37136728Y-62896165D01*
X34761728Y-56901165D02*
X34686728Y-56901165D01*
X34986728Y-56923169D02*
X34986728Y-56948343D01*
X33249101Y-59605360D02*
X33254771Y-59575820D01*
X36428191Y-62896165D02*
X36416728Y-62896165D01*
X32986728Y-60646165D02*
X33106728Y-60646165D01*
X36104258Y-59481447D02*
X36104252Y-59488074D01*
X34486728Y-57496165D02*
X34486728Y-57631165D01*
X107479899Y-63348528D02*
X107833452Y-62994975D01*
X33781728Y-57196165D02*
X33821266Y-56945355D01*
X33850236Y-56851749D01*
D11*
X37517195Y-23680181D02*
X36867528Y-23819640D01*
D10*
X36428137Y-62108150D02*
X36442678Y-62125886D01*
X108328427Y-63700000D02*
X108328427Y-63200000D01*
X35136728Y-58631165D02*
X35173884Y-58631165D01*
D11*
X29759984Y-29388045D02*
X29469102Y-29985459D01*
D10*
X34236728Y-63141165D02*
X34255844Y-63271770D01*
X30447177Y-73748712D02*
X30086406Y-73190716D01*
X33600000Y-53000000D02*
X34400000Y-53000000D01*
X36496652Y-58347174D02*
X36464271Y-58352061D01*
X113190716Y-76913594D02*
X112611955Y-77240016D01*
X102400000Y-27230000D02*
X101600000Y-27230000D01*
X28819640Y-31867528D02*
X28998070Y-31227466D01*
X106914214Y-45085786D02*
G75*
G02*
X108328427Y-44499978I1414286J-1414314D01*
G01*
X33212794Y-57596165D02*
X33245310Y-57596165D01*
X35173884Y-62861165D02*
X35136728Y-62861165D01*
X34986728Y-56906675D02*
X34986728Y-56906826D01*
X34499571Y-60861165D02*
X34486728Y-60861165D01*
X35036728Y-57201165D02*
X35136728Y-57161165D01*
X36038324Y-56712001D02*
X36097624Y-56954891D01*
X36116728Y-57106165D01*
X36116728Y-57106165D02*
X36266728Y-57106165D01*
X107005025Y-62166548D02*
G75*
G02*
X106799977Y-61671573I495075J495048D01*
G01*
X64330830Y-59180736D02*
X64063465Y-59081014D01*
X112247553Y-37281193D02*
X112250000Y-37281579D01*
X36427758Y-62896165D02*
X36460718Y-62896165D01*
X32571390Y-58346165D02*
X32668530Y-58346165D01*
X99400000Y-75500000D02*
X99400000Y-75700000D01*
X106500000Y-52300000D02*
X112500000Y-52300000D01*
X112050000Y-37450000D02*
X112050000Y-37550000D01*
X34337312Y-56364673D02*
X34119845Y-56492490D01*
X34045331Y-56559768D01*
X33600000Y-54300000D02*
X34400000Y-54300000D01*
X33700000Y-53000000D02*
X33700000Y-52775000D01*
D11*
X28580202Y-33174097D02*
X28520069Y-33835837D01*
D10*
X102555000Y-34000000D02*
G75*
G02*
X102355000Y-34000000I-100000J0D01*
G01*
X102355000Y-34000000D02*
G75*
G02*
X102555000Y-34000000I100000J0D01*
G01*
X33357968Y-56597195D02*
X33478393Y-56367998D01*
X33646276Y-56165712D01*
X36686727Y-59646165D02*
X36857220Y-59646165D01*
X33581728Y-63296165D02*
X33618323Y-63550514D01*
X33665460Y-63717116D01*
X36464722Y-58351399D02*
X36492106Y-58347472D01*
X113950000Y-37550000D02*
X114050000Y-37550000D01*
D11*
X108164163Y-23520069D02*
X107500000Y-23500000D01*
D10*
X106500000Y-56700000D02*
G75*
G02*
X106300000Y-56500000I0J200000D01*
G01*
D11*
X41000000Y-61000000D02*
X41020357Y-60715370D01*
D10*
X34682800Y-63582350D02*
X34675302Y-63589655D01*
X36418460Y-58346165D02*
X36686727Y-58346164D01*
X106651472Y-62520101D02*
G75*
G02*
X106299978Y-61671573I848628J848601D01*
G01*
X111166548Y-62994975D02*
X111520101Y-63348528D01*
X34486728Y-62361165D02*
X34499228Y-62361165D01*
X34586727Y-55926165D02*
X35086728Y-55926165D01*
X36416750Y-58466498D02*
X36416729Y-58346165D01*
X36104231Y-60696545D02*
X36104231Y-60731770D01*
X36423477Y-62095947D02*
X36432686Y-62116659D01*
X33216500Y-62137698D02*
X33236791Y-62125853D01*
X110772534Y-78001930D02*
X110132472Y-78180360D01*
X35595697Y-64614924D02*
X35346413Y-64681018D01*
X35086728Y-64716165D01*
X35173099Y-56948770D02*
X35095682Y-56919886D01*
X34586727Y-64416165D02*
X34586728Y-64566165D01*
X33258317Y-57041165D02*
X33256757Y-57104949D01*
D11*
X118500000Y-67500000D02*
X118500000Y-34500000D01*
D10*
X34686720Y-56906501D02*
X34686728Y-56901165D01*
X115733618Y-74794349D02*
X115278175Y-75278175D01*
X33182708Y-59644742D02*
X33213790Y-59638941D01*
X93500000Y-61000000D02*
G75*
G02*
X94000000Y-61500000I0J-500000D01*
G01*
X33406728Y-63386165D02*
X33556728Y-63386165D01*
X112500000Y-52300000D02*
G75*
G02*
X112700000Y-52500000I0J-200000D01*
G01*
X106581846Y-45418154D02*
X106581846Y-45400000D01*
X36104231Y-60846163D02*
X36104231Y-60900080D01*
X102300000Y-27275000D02*
X102300000Y-27500000D01*
X36443695Y-60860563D02*
X36428948Y-60875899D01*
X35174228Y-59631165D02*
X35186728Y-59631165D01*
X34489468Y-57423880D02*
X34486992Y-57487277D01*
X33357968Y-56597195D02*
X33291874Y-56846478D01*
X33256728Y-57106163D01*
X108328427Y-63700000D02*
G75*
G02*
X107479906Y-63348521I-27J1199900D01*
G01*
X36104231Y-60846163D02*
X36104231Y-60900080D01*
X35168856Y-56946309D02*
X35203359Y-56956740D01*
X34536728Y-56954218D02*
X34536728Y-63506165D01*
X32500000Y-54300000D02*
X32500000Y-54400000D01*
X34569830Y-63575716D02*
X34470096Y-63535589D01*
X36858935Y-58346164D02*
X37004926Y-58346164D01*
X33106728Y-62896165D02*
X33163926Y-62896165D01*
X106800000Y-49200000D02*
X112200000Y-49200000D01*
X35769545Y-56418347D02*
X35568240Y-56257472D01*
X35412679Y-56179897D01*
X35200000Y-54300000D02*
X36000000Y-54300000D01*
X36442678Y-62125886D02*
X36460639Y-62135915D01*
D11*
X36400000Y-30000000D02*
G75*
G02*
X33600000Y-30000000I-1400000J0D01*
G01*
X33600000Y-30000000D02*
G75*
G02*
X36400000Y-30000000I1400000J0D01*
G01*
D10*
X28680181Y-32517195D02*
X28819640Y-31867528D01*
X36686728Y-62896165D02*
X36858935Y-62896165D01*
X104200000Y-70800000D02*
X104700000Y-70500000D01*
X34986733Y-63585503D02*
X34986739Y-63569160D01*
X33752342Y-56271779D02*
X33937860Y-56120283D01*
X35412679Y-64312432D02*
X35638184Y-64190343D01*
X35769545Y-64073982D01*
X35103625Y-56916613D02*
X34986728Y-56901165D01*
X34499571Y-59631165D02*
X34536728Y-59631165D01*
X28680181Y-69482805D02*
X28580202Y-68825903D01*
X37102066Y-62896165D02*
X37136728Y-62896165D01*
D11*
X37517195Y-78319819D02*
X38174097Y-78419798D01*
D10*
X34673293Y-63589389D02*
X34684225Y-63580962D01*
X33556728Y-57106163D02*
X33593559Y-56855720D01*
X33635132Y-56712000D01*
X79500000Y-60800000D02*
X79500000Y-75200000D01*
X111752447Y-37281193D02*
X112247553Y-37281193D01*
X112700000Y-45400000D02*
X112700000Y-45700000D01*
X113950000Y-37450000D02*
X113752447Y-37281193D01*
D11*
X64063465Y-59081014D02*
X64330830Y-59180736D01*
D10*
X37136728Y-57596165D02*
X37102473Y-57596165D01*
X36027180Y-64326617D02*
X35824893Y-64494498D01*
X35595697Y-64614924D01*
X118500000Y-33500000D02*
X118500000Y-68500000D01*
X33569224Y-60846166D02*
X33569224Y-60792249D01*
X33569224Y-59592249D02*
X33569224Y-59540859D01*
X33256728Y-57106163D02*
X33291874Y-56846478D01*
X33357968Y-56597195D01*
X34077758Y-64614924D02*
X34327041Y-64681018D01*
X34586727Y-64716165D01*
X32882518Y-54282518D02*
X32882518Y-53517482D01*
X35841728Y-61391165D02*
X36092034Y-61391165D01*
X36629410Y-34017037D02*
X36500000Y-34000000D01*
X35298708Y-63465461D02*
X35203359Y-63535589D01*
X33185028Y-58348064D02*
X33215727Y-58353867D01*
X33212794Y-62896165D02*
X33245310Y-62896165D01*
X102400000Y-27500000D02*
X101600000Y-27500000D01*
X36094722Y-59828902D02*
X36104461Y-59812083D01*
X36176905Y-56654598D02*
X36240381Y-56904251D01*
X36266728Y-57106165D01*
X107833452Y-46005025D02*
G75*
G02*
X108328427Y-45799977I495048J-495075D01*
G01*
X32536728Y-59646165D02*
X32570982Y-59646165D01*
X36518022Y-59645101D02*
X36566728Y-59646165D01*
X36092034Y-63296165D02*
X35891728Y-63296165D01*
X34192563Y-64337760D02*
X33973762Y-64215003D01*
X33858408Y-64114485D01*
X34499571Y-61631165D02*
X34536728Y-61631165D01*
X34681728Y-56296165D02*
X34681728Y-56095858D01*
D11*
X34388045Y-24759984D02*
X33809284Y-25086406D01*
D10*
X33781728Y-62391165D02*
X33781728Y-63296165D01*
X35735596Y-64372046D02*
X35521079Y-64483315D01*
X35769545Y-64073982D02*
X35920386Y-63869305D01*
X36007995Y-63717116D01*
X36091831Y-59843126D02*
X36092102Y-59840216D01*
X33106728Y-60646165D02*
X33163574Y-60646165D01*
X34400000Y-53050000D02*
X33600000Y-53050000D01*
X34986728Y-56901165D02*
X35054728Y-56914865D01*
X35173884Y-58861165D02*
X35136728Y-58861165D01*
X33600000Y-52700000D02*
X33600000Y-54300000D01*
X35823219Y-56851749D02*
X35695401Y-56634282D01*
X35628124Y-56559768D01*
D11*
X32205651Y-26266382D02*
X31721825Y-26721825D01*
D10*
X36104287Y-60846163D02*
X36104280Y-60897821D01*
X33850236Y-63640580D02*
X33978053Y-63858046D01*
X34045331Y-63932561D01*
X112611955Y-24759984D02*
X113190716Y-25086406D01*
X35841728Y-59101165D02*
X36092034Y-59101165D01*
X36104231Y-60951470D02*
X36104231Y-60990197D01*
D11*
X29469102Y-72014541D02*
X29759984Y-72611955D01*
D10*
X28520069Y-33835837D02*
X28580202Y-33174097D01*
X34986733Y-63585503D02*
X34986739Y-63569160D01*
X41000000Y-76500000D02*
X65500000Y-76500000D01*
X38174097Y-23580202D02*
X38835837Y-23520069D01*
X36509359Y-57596165D02*
X36566728Y-57596165D01*
X33809284Y-25086406D02*
X34388045Y-24759984D01*
X33850236Y-63640580D02*
X33978053Y-63858046D01*
X34045331Y-63932561D01*
X32814689Y-58346165D02*
X32986728Y-58346165D01*
X36104231Y-60731770D02*
X36104231Y-60781382D01*
X36116729Y-59469140D02*
X36116728Y-59423478D01*
X35628124Y-63932561D02*
X35425380Y-64086345D01*
X35336143Y-64127656D01*
X34520961Y-56947971D02*
X34504600Y-56946309D01*
X35436728Y-63141165D02*
X35419043Y-63266079D01*
X34911728Y-64396165D02*
X34911728Y-64416165D01*
X33212794Y-60646165D02*
X33164130Y-60646165D01*
X35365315Y-63384416D02*
X35298708Y-63465461D01*
X34986728Y-56923169D02*
X34986728Y-56949190D01*
X36509362Y-62896165D02*
X36566728Y-62896165D01*
X33569224Y-59646166D02*
X33569224Y-59592249D01*
X36315487Y-63895133D02*
X36195061Y-64124330D01*
X36027180Y-64326617D01*
X36038324Y-63780328D02*
X35915566Y-63999129D01*
X35815048Y-64114484D01*
X34192563Y-56154569D02*
X33973762Y-56277325D01*
X33858408Y-56377844D01*
X34986728Y-56901165D02*
X34986728Y-56906675D01*
X34308091Y-57107821D02*
X34255995Y-57220942D01*
X35186728Y-60361165D02*
X35186728Y-60631165D01*
X34509960Y-56946176D02*
X34520407Y-56947565D01*
X104500000Y-70300000D02*
G75*
G02*
X104700000Y-70500000I0J-200000D01*
G01*
X34499571Y-61361165D02*
X34536728Y-61361165D01*
X107005025Y-46833452D02*
X106651472Y-46479899D01*
X79800000Y-75500000D02*
X79800000Y-60500000D01*
X36468830Y-59640413D02*
X36446384Y-59630527D01*
X33232015Y-60646165D02*
X33245744Y-60646165D01*
X110671573Y-45800000D02*
X108328427Y-45800000D01*
X35336143Y-64127656D02*
X35553609Y-63999838D01*
X35628124Y-63932561D01*
X111994975Y-62166548D02*
X112348528Y-62520101D01*
X34686728Y-56901165D02*
X34686722Y-56906826D01*
X34536728Y-58861165D02*
X34499571Y-58861165D01*
X33581728Y-58201165D02*
X33556728Y-58201165D01*
X34486728Y-59131165D02*
X34499571Y-59131165D01*
X33107586Y-59646165D02*
X33157989Y-59645845D01*
X112700000Y-52500000D02*
X112700000Y-56500000D01*
X100474000Y-32629580D02*
G75*
G02*
X100474000Y-32770420I71000J-70420D01*
G01*
X34499571Y-59861165D02*
X34536728Y-59861165D01*
X36350000Y-30000000D02*
G75*
G02*
X33650000Y-30000000I-1350000J0D01*
G01*
X33650000Y-30000000D02*
G75*
G02*
X36350000Y-30000000I1350000J0D01*
G01*
X33781728Y-57196165D02*
X33781728Y-58101165D01*
X33256728Y-61996166D02*
X33256305Y-62046337D01*
X36923336Y-36112740D02*
X36923336Y-50552951D01*
X36104231Y-59496545D02*
X36104231Y-59531770D01*
X34503357Y-63548971D02*
X34368530Y-63459363D01*
D11*
X43000000Y-59000000D02*
X63500000Y-59000000D01*
D10*
X112700000Y-49500000D02*
G75*
G02*
X112500000Y-49700000I-200000J0D01*
G01*
X35173884Y-58631165D02*
X35186728Y-58631165D01*
X34499571Y-58631165D02*
X34536728Y-58631165D01*
X110772534Y-23998070D02*
X111400654Y-24214821D01*
X106800000Y-47328427D02*
X106800000Y-49200000D01*
X37102473Y-60846164D02*
X37136728Y-60846165D01*
X34686704Y-56979498D02*
X34761728Y-56979498D01*
X35480892Y-56154569D02*
X35699693Y-56277326D01*
X35815048Y-56377845D01*
X33831728Y-61391165D02*
X33581421Y-61391165D01*
X33106728Y-57596165D02*
X33164130Y-57596165D01*
X33903910Y-64073982D02*
X34105214Y-64234856D01*
X34260776Y-64312432D01*
X33752342Y-64220551D02*
X33587472Y-64016854D01*
X33496550Y-63837731D01*
D11*
X30086406Y-73190716D02*
X30447177Y-73748712D01*
D10*
X36415138Y-63451165D02*
X36416728Y-63386165D01*
X32536728Y-62146165D02*
X32570982Y-62146165D01*
X35290753Y-57019350D02*
X35203359Y-56956740D01*
X32536728Y-62896165D02*
X32570982Y-62896165D01*
X113950000Y-37550000D02*
X113752447Y-37781193D01*
X35186728Y-59861165D02*
X35173884Y-59861165D01*
D11*
X35000000Y-30000000D02*
X35000000Y-72000000D01*
D10*
X41690279Y-59488501D02*
X41488501Y-59690279D01*
X32668530Y-57596165D02*
X32570982Y-57596165D01*
X36176905Y-56654598D02*
X36240381Y-56904251D01*
X36266728Y-57106165D01*
X36104238Y-59547484D02*
X36104231Y-59581384D01*
X36116728Y-62141165D02*
X36091728Y-62141165D01*
X112200000Y-61671573D02*
X112700000Y-61671573D01*
X36686727Y-60846164D02*
X36858935Y-60846164D01*
X32571390Y-62146165D02*
X32668530Y-62146165D01*
X111950000Y-37450000D02*
X111752447Y-37281193D01*
X35173884Y-59861165D02*
X35186728Y-59861165D01*
X36116728Y-57106164D02*
X36116728Y-63386165D01*
X33236782Y-58366333D02*
X33248519Y-58386574D01*
X34499571Y-62631165D02*
X34536728Y-62631165D01*
X33255301Y-58420552D02*
X33248519Y-58386574D01*
X36496440Y-62144704D02*
X36529043Y-62145996D01*
X36091730Y-59844436D02*
X36091731Y-59834483D01*
X36858935Y-62146165D02*
X36686728Y-62146165D01*
X110132472Y-23819640D02*
X110772534Y-23998070D01*
X36092034Y-61041496D02*
X36092105Y-61040236D01*
X34382702Y-63472979D02*
X34470096Y-63535589D01*
X33163569Y-57596165D02*
X33212794Y-57596165D01*
X35136728Y-61631165D02*
X35173884Y-61631165D01*
X34499571Y-61361165D02*
X34486728Y-61361165D01*
X29214821Y-71400654D02*
X28998070Y-70772534D01*
X32571390Y-57596165D02*
X32668530Y-57596165D01*
X37102473Y-58346165D02*
X37136728Y-58346165D01*
X36104231Y-60951470D02*
X36104231Y-60990197D01*
X34509956Y-63546152D02*
X34490304Y-63543817D01*
X33599716Y-56459022D02*
X33752342Y-56271779D01*
X36468916Y-62140446D02*
X36446473Y-62130616D01*
X36443692Y-58360595D02*
X36464271Y-58352061D01*
X35173884Y-58131165D02*
X35186728Y-58131165D01*
X33569224Y-60916690D02*
X33569224Y-60846166D01*
X35892034Y-57196165D02*
X35892034Y-58101165D01*
X113500000Y-61671573D02*
X113500000Y-59500000D01*
X34536728Y-62861165D02*
X34499571Y-62861165D01*
X35174228Y-61131165D02*
X35186728Y-61131165D01*
X37004926Y-59646165D02*
X37102473Y-59646165D01*
X32536728Y-58346165D02*
X32571390Y-58346165D01*
X112500000Y-58500000D02*
X106500000Y-58500000D01*
X34486728Y-61861165D02*
X34486728Y-62131165D01*
X32814520Y-57596165D02*
X32986728Y-57596165D01*
X37004926Y-59646165D02*
X36858935Y-59646165D01*
X36428948Y-60875899D02*
X36443695Y-60860563D01*
X111000000Y-50700000D02*
X108000000Y-50700000D01*
X36736728Y-63451165D02*
X36415138Y-63451165D01*
X103100000Y-69500000D02*
X103100000Y-69300000D01*
X33578497Y-59716920D02*
X33569224Y-59710945D01*
X36858766Y-57596165D02*
X37004926Y-57596165D01*
X36104245Y-60713990D02*
X36104238Y-60747243D01*
X34135161Y-64476342D02*
X33907963Y-64352919D01*
X33752342Y-64220551D01*
X105500000Y-49500000D02*
X105500000Y-47328427D01*
X34681728Y-56296165D02*
X34430553Y-56334715D01*
X34350442Y-56359355D01*
X36350000Y-72000000D02*
G75*
G02*
X33650000Y-72000000I-1350000J0D01*
G01*
X33650000Y-72000000D02*
G75*
G02*
X36350000Y-72000000I1350000J0D01*
G01*
X34985459Y-24469102D02*
X35599346Y-24214821D01*
X36095158Y-60775398D02*
X36104231Y-60781382D01*
X36091728Y-61046902D02*
X36092105Y-61040236D01*
X33496550Y-63837731D02*
X33433073Y-63588077D01*
X33406728Y-63386165D01*
X36418593Y-59567045D02*
X36417673Y-59546036D01*
D11*
X28500000Y-34500000D02*
X28500000Y-67500000D01*
D10*
X33106728Y-62896165D02*
X33164130Y-62896165D01*
X32668530Y-62146165D02*
X32814520Y-62146165D01*
X98800000Y-74200000D02*
X104200000Y-74200000D01*
X34636728Y-57201165D02*
X35036728Y-57201165D01*
X35174228Y-60631165D02*
X35186728Y-60631165D01*
X106800000Y-47328427D02*
G75*
G02*
X107005032Y-46833459I699900J27D01*
G01*
X34536728Y-56986165D02*
X35136728Y-56986165D01*
X33635132Y-56712000D02*
X33757889Y-56493198D01*
X33858408Y-56377844D01*
X33556728Y-57106163D02*
X33406728Y-57106164D01*
X35174228Y-59131165D02*
X35186728Y-59131165D01*
X35628124Y-56559768D02*
X35425380Y-56405984D01*
X35336143Y-56364673D01*
X101600000Y-28450000D02*
X102400000Y-28450000D01*
X37004926Y-60846164D02*
X37102473Y-60846164D01*
X35595697Y-55877405D02*
X35824893Y-55997830D01*
X36027180Y-56165713D01*
X34499571Y-58861165D02*
X34486728Y-58861165D01*
X33107586Y-62146165D02*
X33157989Y-62145845D01*
X35480892Y-64337760D02*
X35238000Y-64397061D01*
X35086728Y-64416165D01*
X32668530Y-59646165D02*
X32570982Y-59646165D01*
D11*
X41180736Y-60169170D02*
X41317493Y-59918718D01*
D10*
X32700000Y-53500000D02*
X32700000Y-53400000D01*
X36104231Y-60680528D02*
X36104231Y-60696545D01*
X34536728Y-63538111D02*
X34509956Y-63546152D01*
X37004926Y-62146165D02*
X37060609Y-62146165D01*
X106300000Y-49500000D02*
X106300000Y-47328427D01*
X35136728Y-59861165D02*
X35174228Y-59861165D01*
X108328427Y-63200000D02*
X110671573Y-63200000D01*
X36566728Y-62896165D02*
X36686728Y-62896165D01*
X33781421Y-62391165D02*
X33781421Y-63296165D01*
X34681728Y-64396471D02*
X34681728Y-64196165D01*
X36104231Y-60990197D02*
X36104231Y-61010113D01*
X108164163Y-78479931D02*
X107500000Y-78500000D01*
X35186728Y-57861165D02*
X35186728Y-58131165D01*
D11*
X108825903Y-78419798D02*
X109482805Y-78319819D01*
D10*
X36116730Y-60776031D02*
X36116730Y-60770850D01*
X36508463Y-57596165D02*
X36566728Y-57596165D01*
X106300000Y-59500000D02*
X106800000Y-59800000D01*
X63500000Y-59000000D02*
X43000000Y-59000000D01*
X32536728Y-62146165D02*
X32536728Y-62896165D01*
D11*
X31721825Y-75278175D02*
X32205651Y-75733618D01*
D10*
X32536728Y-60646165D02*
X32570982Y-60646165D01*
D11*
X33251288Y-25447177D02*
X32716092Y-25840982D01*
X117785179Y-30599346D02*
X117530898Y-29985459D01*
D10*
X34486728Y-59861165D02*
X34486728Y-60131165D01*
X35173884Y-59131165D02*
X35186728Y-59131165D01*
X36104231Y-59581384D02*
X36095164Y-59575401D01*
X49226000Y-55341000D02*
X49226000Y-31629000D01*
X33164130Y-57596165D02*
X33212794Y-57596165D01*
X116913594Y-28809284D02*
X117240016Y-29388045D01*
D11*
X31266382Y-74794349D02*
X31721825Y-75278175D01*
D10*
X35921114Y-56271779D02*
X36085982Y-56475474D01*
X36176905Y-56654598D01*
X36529001Y-59645996D02*
X36566728Y-59646165D01*
X36415138Y-57041165D02*
X36736728Y-57041165D01*
D11*
X63500000Y-59000000D02*
X63784630Y-59020357D01*
D10*
X105500000Y-74500000D02*
X105500000Y-70500000D01*
X34135161Y-56015987D02*
X34384814Y-55952510D01*
X34586727Y-55926165D01*
X32536728Y-58346165D02*
X32570982Y-58346165D01*
X34486728Y-58361165D02*
X34499571Y-58361165D01*
X112500000Y-59300000D02*
G75*
G02*
X112700000Y-59500000I0J-200000D01*
G01*
X33556728Y-60846166D02*
X33569224Y-60846166D01*
X34686716Y-56923169D02*
X34686710Y-56948343D01*
X36092034Y-63296165D02*
X36092034Y-62391165D01*
X41000000Y-61000000D02*
X41000000Y-78500000D01*
X34911728Y-56076165D02*
X34911728Y-56095858D01*
X36428068Y-59607959D02*
X36442592Y-59625776D01*
X33569224Y-60679240D02*
X33556728Y-60695965D01*
D11*
X118180360Y-31867528D02*
X118001930Y-31227466D01*
D10*
X36104231Y-59700080D02*
X36104231Y-59751470D01*
X94200000Y-60500000D02*
X79800000Y-60500000D01*
X32900000Y-54300000D02*
X32900000Y-53500000D01*
X33569224Y-59540859D02*
X33569224Y-59502133D01*
X36104231Y-60781382D02*
X36095158Y-60775398D01*
X37136728Y-62146165D02*
X37102473Y-62146165D01*
X34836728Y-56985916D02*
X34536728Y-56986165D01*
X112914214Y-45914214D02*
G75*
G02*
X113500022Y-47328427I-1414314J-1414286D01*
G01*
D11*
X114794349Y-26266382D02*
X114283908Y-25840982D01*
D10*
X33107586Y-62146165D02*
X33151134Y-62146019D01*
X33212794Y-57596165D02*
X33232015Y-57596165D01*
X33646275Y-64326616D02*
X33478393Y-64124329D01*
X33357968Y-63895133D01*
X34300000Y-52775000D02*
X34300000Y-53000000D01*
X33151134Y-59646019D02*
X33107586Y-59646165D01*
X110671573Y-45800000D02*
G75*
G02*
X111166541Y-46005032I27J-699900D01*
G01*
X35136728Y-61861165D02*
X35174228Y-61861165D01*
X112418154Y-63581846D02*
X112418154Y-63600000D01*
X36104293Y-59751569D02*
X36104283Y-59794106D01*
X36508977Y-62896165D02*
X36566728Y-62896165D01*
X36509362Y-62896165D02*
X36460718Y-62896165D01*
X34486728Y-62131165D02*
X34499571Y-62131165D01*
X36417581Y-60946344D02*
X36418410Y-60925170D01*
X34986728Y-63591165D02*
X34986733Y-63585503D01*
X37000000Y-51000000D02*
X37000000Y-50552951D01*
X116159018Y-74283908D02*
X115733618Y-74794349D01*
X29759984Y-29388045D02*
X30086406Y-28809284D01*
X64809721Y-59488501D02*
X64581282Y-59317493D01*
X35921114Y-56271779D02*
X36085982Y-56475474D01*
X36176905Y-56654598D01*
X34486728Y-61361165D02*
X34499228Y-61361165D01*
D11*
X34985459Y-77530898D02*
X35599346Y-77785179D01*
D10*
X35769545Y-64073982D02*
X35570452Y-64235600D01*
X35412679Y-64312432D01*
X36418613Y-62067371D02*
X36423477Y-62095947D01*
X34486728Y-61361165D02*
X34499571Y-61361165D01*
X35173884Y-57361165D02*
X35186728Y-57361165D01*
X33569224Y-59760558D02*
X33569224Y-59710945D01*
X34577773Y-63572443D02*
X34686728Y-63585800D01*
X111000000Y-58300000D02*
X108000000Y-58300000D01*
X32536728Y-60646165D02*
X32570982Y-60646165D01*
X36104231Y-59481243D02*
X36104231Y-59480528D01*
X35304926Y-57032966D02*
X35310374Y-57041165D01*
X65319264Y-60169170D02*
X65182507Y-59918718D01*
X35599346Y-77785179D02*
X34985459Y-77530898D01*
X36092102Y-59840216D02*
X36092250Y-59839091D01*
X36104231Y-60696545D02*
X36104231Y-60731770D01*
X108328427Y-63200000D02*
G75*
G02*
X107833459Y-62994968I-27J699900D01*
G01*
D11*
X115733618Y-27205651D02*
X115278175Y-26721825D01*
D10*
X34686728Y-63591165D02*
X34618727Y-63577464D01*
X32814520Y-62896165D02*
X32986728Y-62896165D01*
X34986728Y-63591165D02*
X35089552Y-63579259D01*
X37004926Y-57596165D02*
X37102473Y-57596165D01*
X32536728Y-57596165D02*
X32570982Y-57596165D01*
X34986728Y-56948343D02*
X34986728Y-56923169D01*
X104200000Y-70800000D02*
X98800000Y-70800000D01*
D11*
X109482805Y-23680181D02*
X108825903Y-23580202D01*
D10*
X34486728Y-57631165D02*
X34499571Y-57631165D01*
X36418447Y-58424904D02*
X36422531Y-58396425D01*
X33255451Y-58424351D02*
X33255301Y-58420552D01*
D11*
X112611955Y-77240016D02*
X113190716Y-76913594D01*
D10*
X79250000Y-75750000D02*
X79250000Y-60250000D01*
X33581728Y-63296165D02*
X33581728Y-57196165D01*
X36104231Y-59646163D02*
X36104231Y-59700080D01*
X114050000Y-37550000D02*
X114247553Y-37781193D01*
X34499571Y-57631165D02*
X34536728Y-57631165D01*
X114050000Y-37450000D02*
X114247553Y-37281193D01*
X33635132Y-56712000D02*
X33575830Y-56954890D01*
X33556728Y-57106163D01*
X37136728Y-57596165D02*
X37136728Y-58346165D01*
X35822404Y-63640242D02*
X35879324Y-63395291D01*
X35891728Y-63296165D01*
X41180736Y-60169170D02*
X41081014Y-60436535D01*
X28580202Y-68825903D02*
X28520069Y-68164163D01*
X34017037Y-51129410D02*
X34066987Y-51250000D01*
X36422727Y-60896702D02*
X36431358Y-60875581D01*
X34499571Y-59361165D02*
X34486728Y-59361165D01*
X33248777Y-59605841D02*
X33236743Y-59625882D01*
X36092034Y-62391165D02*
X35841728Y-62391165D01*
X33255301Y-58420552D02*
X33255451Y-58424351D01*
X35136728Y-61631165D02*
X35174228Y-61631165D01*
X34486728Y-59361165D02*
X34499228Y-59361165D01*
X36858935Y-57596165D02*
X36686727Y-57596165D01*
X34586728Y-64566165D02*
X34327990Y-64529716D01*
X34135161Y-64476342D01*
D11*
X41317493Y-59918718D02*
X41488501Y-59690279D01*
D10*
X111400654Y-24214821D02*
X112014541Y-24469102D01*
X36464271Y-58352061D02*
X36443692Y-58360595D01*
X36446473Y-62130616D02*
X36468916Y-62140446D01*
X108328427Y-45800000D02*
X108328427Y-45300000D01*
X35136728Y-56954218D02*
X35152495Y-56947971D01*
X36092253Y-59453168D02*
X36091728Y-59445427D01*
X33578497Y-59828301D02*
X33581728Y-59845330D01*
X34500000Y-34000000D02*
X34370590Y-34017037D01*
X35173884Y-61361165D02*
X35136728Y-61361165D01*
X33256534Y-59538426D02*
X33256728Y-59496166D01*
X35480892Y-64337760D02*
X35699692Y-64215003D01*
X35815048Y-64114484D01*
X37102473Y-62896165D02*
X37136728Y-62896165D01*
D11*
X65479643Y-60715370D02*
X65500000Y-61000000D01*
D10*
X36417590Y-58446221D02*
X36418447Y-58424904D01*
X113500000Y-49500000D02*
G75*
G02*
X112500000Y-50500000I-1000000J0D01*
G01*
X36104231Y-59581382D02*
X36104231Y-59646163D01*
X106300000Y-45700000D02*
X106300000Y-45400000D01*
X36566728Y-59646165D02*
X36686727Y-59646165D01*
X33581728Y-57196165D02*
X33616574Y-56940065D01*
X33665460Y-56775213D01*
X112200000Y-61671573D02*
X112200000Y-59800000D01*
X32668530Y-60646165D02*
X32814520Y-60646165D01*
X35186728Y-62131165D02*
X35186728Y-61861165D01*
X33578497Y-60916920D02*
X33569224Y-60910945D01*
X33245744Y-57596165D02*
X33256728Y-57596165D01*
X36092250Y-59839091D02*
X36094722Y-59828902D01*
D11*
X28520069Y-68164163D02*
X28580202Y-68825903D01*
D10*
X37139144Y-62335771D02*
G75*
G02*
X36738934Y-62898902I-154144J-314229D01*
G01*
X34586727Y-64416165D02*
X35086728Y-64416165D01*
X33569224Y-59811800D02*
X33569224Y-59795784D01*
X32668530Y-62896165D02*
X32814520Y-62896165D01*
X34499571Y-59361165D02*
X34536728Y-59361165D01*
X34486728Y-57861165D02*
X34486728Y-58131165D01*
X33151134Y-62146019D02*
X33107586Y-62146165D01*
X112200000Y-56200000D02*
X112500000Y-56700000D01*
X33212794Y-62896165D02*
X33232015Y-62896165D01*
X33496550Y-63837731D02*
X33433073Y-63588077D01*
X33406728Y-63386165D01*
X34686728Y-63585654D02*
X34686728Y-63591165D01*
X102400000Y-28770000D02*
X101600000Y-28770000D01*
X33646275Y-64326616D02*
X33478393Y-64124329D01*
X33357968Y-63895133D01*
X36500000Y-34000000D02*
X34500000Y-34000000D01*
X35336143Y-56364673D02*
X35091025Y-56308200D01*
X34991728Y-56296165D01*
X35186728Y-59361165D02*
X35186728Y-59631165D01*
X34486728Y-58631165D02*
X34499571Y-58631165D01*
X113350000Y-30000000D02*
G75*
G02*
X110650000Y-30000000I-1350000J0D01*
G01*
X110650000Y-30000000D02*
G75*
G02*
X113350000Y-30000000I1350000J0D01*
G01*
X32317482Y-53517482D02*
X32317482Y-54282518D01*
X35173884Y-61631165D02*
X35186728Y-61631165D01*
X35095682Y-56919886D02*
X34986728Y-56906529D01*
X36227466Y-78001930D02*
X35599346Y-77785179D01*
X34146447Y-34146447D02*
X34066987Y-34250000D01*
X35910181Y-50552951D02*
X35837904Y-50333531D01*
D11*
X38835837Y-78479931D02*
X39500000Y-78500000D01*
D10*
X106300000Y-59500000D02*
G75*
G02*
X106500000Y-59300000I200000J0D01*
G01*
X36858935Y-62896165D02*
X37004926Y-62896165D01*
X111752447Y-37781193D02*
X112247553Y-37781193D01*
X33569224Y-60960558D02*
X33569224Y-60910945D01*
X36460718Y-62896165D02*
X36509362Y-62896165D01*
D11*
X30447177Y-28251288D02*
X30086406Y-28809284D01*
D10*
X34986745Y-63543986D02*
X34986751Y-63512832D01*
X34636728Y-57201165D02*
X34636728Y-63291165D01*
X34499228Y-58361165D02*
X34536728Y-58361165D01*
X34686710Y-56948343D02*
X34686704Y-56979498D01*
X35173884Y-57861165D02*
X35136728Y-57861165D01*
X35173884Y-60861165D02*
X35136728Y-60861165D01*
X33858408Y-56377844D02*
X34057671Y-56220633D01*
X34192563Y-56154569D01*
X34470096Y-56956740D02*
X34569848Y-56916608D01*
X36091729Y-59845675D02*
X36091730Y-59844436D01*
X103600000Y-69500000D02*
X103600000Y-69300000D01*
X112700000Y-49500000D02*
X112200000Y-49200000D01*
X33213790Y-59638941D02*
X33182708Y-59644742D01*
X112500000Y-52300000D02*
X112200000Y-52800000D01*
X35136728Y-59361165D02*
X35173884Y-59361165D01*
X36858766Y-62896165D02*
X37004926Y-62896165D01*
X37128164Y-59646165D02*
X37136728Y-59646165D01*
X113500000Y-47328427D02*
X113500000Y-49500000D01*
X36104231Y-59810113D02*
X36104231Y-59811130D01*
X34761728Y-63512831D02*
X34686728Y-63512831D01*
X35173884Y-59861165D02*
X35136728Y-59861165D01*
X35186728Y-62861165D02*
X35186728Y-63131165D01*
X104200000Y-74200000D02*
X104700000Y-74500000D01*
X36858935Y-62146165D02*
X37004926Y-62146165D01*
X34152376Y-56009014D02*
X34406603Y-55947847D01*
X34586727Y-55926165D01*
X33850236Y-56851749D02*
X33978053Y-56634282D01*
X34045331Y-56559768D01*
X34045331Y-63932561D02*
X33891547Y-63729817D01*
X33850236Y-63640580D01*
X34536728Y-56954218D02*
X34536589Y-56976368D01*
X33665460Y-56775213D02*
X33793919Y-56557889D01*
X33903910Y-56418347D01*
X99400000Y-69300000D02*
X99900000Y-69300000D01*
X35815048Y-64114484D02*
X35615783Y-64271695D01*
X35480892Y-64337760D01*
X34986739Y-63569160D02*
X34986745Y-63543986D01*
D11*
X112014541Y-24469102D02*
X111400654Y-24214821D01*
D10*
X36092250Y-59839091D02*
X36094722Y-59828902D01*
X34370590Y-51482963D02*
X34500000Y-51500000D01*
X35174228Y-62131165D02*
X35186728Y-62131165D01*
X112247553Y-37781193D02*
X112250000Y-37781579D01*
X94200000Y-60500000D02*
X94200000Y-75500000D01*
X34911728Y-63599012D02*
X34761728Y-63599012D01*
X36104231Y-59581383D02*
X36095159Y-59575400D01*
X33578497Y-60916920D02*
X33581728Y-60923782D01*
X34586727Y-64716165D02*
X35086728Y-64716165D01*
X36104435Y-60680153D02*
X36095142Y-60664508D01*
X35480892Y-56154569D02*
X35699693Y-56277326D01*
X35815048Y-56377845D01*
X36095159Y-59575400D02*
X36104231Y-59581383D01*
X35297015Y-63464620D02*
X35170101Y-63548969D01*
D11*
X63784630Y-59020357D02*
X64063465Y-59081014D01*
D10*
X33106728Y-57596165D02*
X33164130Y-57596165D01*
X33212794Y-57596165D02*
X33245310Y-57596165D01*
X28819640Y-70132472D02*
X28680181Y-69482805D01*
X34499228Y-62861165D02*
X34536728Y-62861165D01*
X112400000Y-63600000D02*
X112700000Y-63600000D01*
X33569224Y-61013089D02*
X33578497Y-61028301D01*
X35103625Y-56916613D02*
X35203359Y-56956740D01*
X36266728Y-63386165D02*
X36230279Y-63644902D01*
X36176905Y-63837731D01*
X34192563Y-56154569D02*
X34435454Y-56095267D01*
X34586727Y-56076165D01*
X33256534Y-62038426D02*
X33256728Y-61996166D01*
X33556728Y-61501165D02*
X33581728Y-61501165D01*
X33216171Y-58354748D02*
X33182670Y-58347702D01*
X102555000Y-32700000D02*
G75*
G02*
X102355000Y-32700000I-100000J0D01*
G01*
X102355000Y-32700000D02*
G75*
G02*
X102555000Y-32700000I100000J0D01*
G01*
X42169170Y-59180736D02*
X41918718Y-59317493D01*
X35290690Y-63472037D02*
X35365356Y-63384483D01*
D11*
X28819640Y-70132472D02*
X28998070Y-70772534D01*
D10*
X36853553Y-34146447D02*
X36750000Y-34066987D01*
X36091731Y-59834483D02*
X36091731Y-59820171D01*
X35174228Y-59361165D02*
X35186728Y-59361165D01*
D11*
X36867528Y-78180360D02*
X37517195Y-78319819D01*
D10*
X35173884Y-61131165D02*
X35186728Y-61131165D01*
X108825903Y-78419798D02*
X108164163Y-78479931D01*
X35203359Y-56956740D02*
X35107776Y-56917751D01*
X33569224Y-60995784D02*
X33569224Y-60960558D01*
X35823219Y-56851749D02*
X35879691Y-57096867D01*
X35891728Y-57196165D01*
X34686728Y-63591165D02*
X34761728Y-63591165D01*
X97500000Y-70500000D02*
X97500000Y-74500000D01*
X36104231Y-59646163D02*
X36104231Y-59700080D01*
X117785179Y-30599346D02*
X118001930Y-31227466D01*
X35136728Y-60131165D02*
X35174228Y-60131165D01*
X33752342Y-64220551D02*
X33587472Y-64016854D01*
X33496550Y-63837731D01*
X35412679Y-56179897D02*
X35166629Y-56118604D01*
X34991728Y-56096165D01*
X34686710Y-56948343D02*
X34686704Y-56979498D01*
X33232015Y-62896165D02*
X33245744Y-62896165D01*
X36432617Y-59616508D02*
X36446384Y-59630527D01*
X105500000Y-59500000D02*
G75*
G02*
X106500000Y-58500000I1000000J0D01*
G01*
X32898106Y-57596165D02*
X32986728Y-57596165D01*
X35086728Y-64566165D02*
X35086728Y-64416165D01*
X29214821Y-30599346D02*
X29469102Y-29985459D01*
X34486728Y-62861165D02*
X34486728Y-63131165D01*
X35136728Y-59131165D02*
X35173884Y-59131165D01*
D11*
X118180360Y-70132472D02*
X118319819Y-69482805D01*
D10*
X36104231Y-59790197D02*
X36104231Y-59810113D01*
X32570982Y-58346165D02*
X32668530Y-58346165D01*
X35136728Y-58361165D02*
X35173884Y-58361165D01*
X104200000Y-74200000D02*
X104500000Y-74700000D01*
X35300000Y-52970000D02*
X35900000Y-52970000D01*
X36416993Y-59530512D02*
X36418593Y-59567045D01*
X36266728Y-63386165D02*
X36116728Y-63386165D01*
X33903910Y-64073982D02*
X33743035Y-63872677D01*
X33665460Y-63717116D01*
X35891728Y-58101165D02*
X35891728Y-57196165D01*
X112050000Y-37450000D02*
X112247553Y-37281193D01*
D11*
X108164163Y-78479931D02*
X108825903Y-78419798D01*
D10*
X34077759Y-55877405D02*
X33848562Y-55997830D01*
X33646276Y-56165712D01*
X35153048Y-63544764D02*
X35136728Y-63538111D01*
X33903910Y-56418347D02*
X33747460Y-56624077D01*
X33665460Y-56775213D01*
X35173884Y-62361165D02*
X35136728Y-62361165D01*
X106500000Y-51500000D02*
X112500000Y-51500000D01*
X34536728Y-60861165D02*
X34499571Y-60861165D01*
X112200000Y-61671573D02*
G75*
G02*
X111994968Y-62166541I-699900J-27D01*
G01*
X36116728Y-57106165D02*
X36079896Y-56855721D01*
X36038324Y-56712001D01*
X32570982Y-60646165D02*
X32668530Y-60646165D01*
X34681728Y-64196165D02*
X34430918Y-64156625D01*
X34337312Y-64127656D01*
X28998070Y-70772534D02*
X28819640Y-70132472D01*
X117530898Y-72014541D02*
X117240016Y-72611955D01*
X32536728Y-59646165D02*
X32536728Y-60646165D01*
X36428187Y-57596165D02*
X36460713Y-57596165D01*
X33569224Y-61011164D02*
X33569224Y-61011800D01*
X113750000Y-37779508D02*
G75*
G02*
X114250000Y-37779508I250000J279508D01*
G01*
X35136728Y-57002600D02*
X35136868Y-56976560D01*
X34536728Y-59861165D02*
X34499571Y-59861165D01*
X41274000Y-58085000D02*
X100474000Y-58085000D01*
X36038324Y-63780328D02*
X36097624Y-63537437D01*
X36116728Y-63386165D01*
D11*
X30840982Y-74283908D02*
X31266382Y-74794349D01*
D10*
X34686728Y-63543139D02*
X34686728Y-63512831D01*
X34486728Y-59131165D02*
X34499571Y-59131165D01*
X94000000Y-74500000D02*
X94000000Y-61500000D01*
X102300000Y-28725000D02*
X102400000Y-28725000D01*
X33569224Y-59502133D02*
X33569224Y-59482216D01*
D11*
X65182507Y-59918718D02*
X65319264Y-60169170D01*
D10*
X32936728Y-63451165D02*
X33258317Y-63451165D01*
X34350442Y-56359355D02*
X34188340Y-56443234D01*
X36446473Y-62130616D02*
X36432686Y-62116659D01*
X35173884Y-59131165D02*
X35186728Y-59131165D01*
X34486728Y-58631165D02*
X34499228Y-58631165D01*
X107200000Y-51500000D02*
G75*
G02*
X108000000Y-50700000I800000J0D01*
G01*
X33406728Y-57106164D02*
X33443175Y-56847426D01*
X33496550Y-56654598D01*
X97500000Y-70500000D02*
G75*
G02*
X98500000Y-69500000I1000000J0D01*
G01*
X36104238Y-60747243D02*
X36104231Y-60781382D01*
X33569224Y-59760558D02*
X33569224Y-59710945D01*
X32300000Y-54300000D02*
X32317482Y-54282518D01*
X36091744Y-59646165D02*
X36091742Y-59603836D01*
X33781421Y-57196165D02*
X33781421Y-58101165D01*
X35891728Y-57196165D02*
X36092034Y-57196165D01*
X98500000Y-70300000D02*
X98800000Y-70800000D01*
X34986728Y-56901165D02*
X35103625Y-56916613D01*
X35417501Y-63271402D02*
X35436728Y-63141165D01*
X36518072Y-62145108D02*
X36566728Y-62146165D01*
X33157989Y-62145845D02*
X33182986Y-62144719D01*
X30086406Y-28809284D02*
X30447177Y-28251288D01*
X33581421Y-57196165D02*
X33781728Y-57196165D01*
X34486728Y-59631165D02*
X34499571Y-59631165D01*
X34486728Y-63131165D02*
X34499228Y-63131165D01*
X33213790Y-59638941D02*
X33236743Y-59625882D01*
X32814520Y-57596165D02*
X32668530Y-57596165D01*
X116913594Y-73190716D02*
X116552823Y-73748712D01*
X106500000Y-59300000D02*
X106800000Y-59800000D01*
X35136728Y-62861165D02*
X35173884Y-62861165D01*
X35300000Y-54225000D02*
X35300000Y-54000000D01*
X36094723Y-61028945D02*
X36104434Y-61012154D01*
X34499228Y-59631165D02*
X34536728Y-59631165D01*
X34986728Y-56979498D02*
X34986728Y-56948343D01*
X33556728Y-60996375D02*
X33569224Y-61013089D01*
X36007995Y-56775213D02*
X35884990Y-56552434D01*
X35769545Y-56418347D01*
X110671573Y-45300000D02*
G75*
G02*
X111520094Y-45651479I27J-1199900D01*
G01*
X110132472Y-78180360D02*
X109482805Y-78319819D01*
X33850236Y-63640580D02*
X33793763Y-63395462D01*
X33781728Y-63296165D01*
X36416728Y-57106164D02*
X36415138Y-57041165D01*
X41274000Y-28885000D02*
X100474000Y-28885000D01*
X36496369Y-59644695D02*
X36529001Y-59645996D01*
X33249101Y-62105360D02*
X33254771Y-62075820D01*
X36116729Y-58201165D02*
X36091728Y-58201165D01*
X34536728Y-63506165D02*
X34761728Y-63506165D01*
X37102066Y-60846165D02*
X37136728Y-60846165D01*
X94500000Y-75200000D02*
G75*
G02*
X94200000Y-75500000I-300000J0D01*
G01*
X36485736Y-62142227D02*
X36518072Y-62145108D01*
X114794349Y-26266382D02*
X115278175Y-26721825D01*
X36492106Y-58347472D02*
X36525848Y-58346309D01*
X32882518Y-53517482D02*
X32317482Y-53517482D01*
X36423801Y-57596165D02*
X36427753Y-57596165D01*
X34911728Y-63591165D02*
X34986728Y-63591165D01*
X108328427Y-64500000D02*
X110671573Y-64500000D01*
X106085786Y-63085786D02*
X106914214Y-63914214D01*
X34504600Y-56946309D02*
X34470096Y-56956740D01*
X34499228Y-63131165D02*
X34536728Y-63131165D01*
X118500000Y-67500000D02*
X118479931Y-68164163D01*
X35173884Y-62361165D02*
X35186728Y-62361165D01*
X34486728Y-61631165D02*
X34499571Y-61631165D01*
X35815048Y-64114484D02*
X35972259Y-63915220D01*
X36038324Y-63780328D01*
X33236791Y-59625853D02*
X33249101Y-59605360D01*
X36431358Y-60875581D02*
X36444478Y-60861530D01*
X36104231Y-60900080D02*
X36104231Y-60951470D01*
X36423477Y-62095947D02*
X36418613Y-62067371D01*
X35136728Y-61631165D02*
X35173884Y-61631165D01*
X28520069Y-68164163D02*
X28500000Y-67500000D01*
X34536728Y-62361165D02*
X34499571Y-62361165D01*
X35086728Y-64566165D02*
X34586728Y-64566165D01*
X34470096Y-56956740D02*
X34382759Y-57020283D01*
X35136728Y-60861165D02*
X35174228Y-60861165D01*
X111752447Y-37781193D02*
X111750000Y-37781579D01*
X104500000Y-69500000D02*
X98500000Y-69500000D01*
X37004926Y-62146165D02*
X37102473Y-62146165D01*
X34499228Y-60131165D02*
X34536728Y-60131165D01*
X118500000Y-68500000D02*
G75*
G02*
X108500000Y-78500000I-10000000J0D01*
G01*
X106300000Y-56500000D02*
X106300000Y-52500000D01*
X35538294Y-56015987D02*
X35765491Y-56139409D01*
X35921114Y-56271779D01*
X33831728Y-58101165D02*
X33831728Y-59101165D01*
X36091728Y-60975048D02*
X36091728Y-60916903D01*
X97774000Y-55341000D02*
X97774000Y-31629000D01*
X34486728Y-58131165D02*
X34499571Y-58131165D01*
X36416729Y-58346165D02*
X36416728Y-57596165D01*
X35900000Y-54000000D02*
X35900000Y-54225000D01*
X35174228Y-62631165D02*
X35186728Y-62631165D01*
X35168856Y-56946309D02*
X35152495Y-56947971D01*
X36104231Y-60781382D02*
X36104231Y-60846163D01*
D11*
X116552823Y-28251288D02*
X116159018Y-27716092D01*
D10*
X35136728Y-62361165D02*
X35173884Y-62361165D01*
X35136728Y-60361165D02*
X35173884Y-60361165D01*
X94500000Y-75200000D02*
X94500000Y-60800000D01*
X34256029Y-63271544D02*
X34236728Y-63141165D01*
X34486992Y-57487277D02*
X34486728Y-57631165D01*
X35173884Y-61861165D02*
X35136728Y-61861165D01*
X33256305Y-62046337D02*
X33256728Y-61996166D01*
X33556728Y-57106163D02*
X33556728Y-63386165D01*
X34499571Y-58131165D02*
X34536728Y-58131165D01*
X36416728Y-62896165D02*
X36428191Y-62896165D01*
X35200000Y-54270000D02*
X36000000Y-54270000D01*
X112700000Y-56500000D02*
G75*
G02*
X112500000Y-56700000I-200000J0D01*
G01*
X34486728Y-60361165D02*
X34499228Y-60361165D01*
X37102473Y-59646165D02*
X37136728Y-59646165D01*
X33581421Y-61391165D02*
X33581421Y-59101165D01*
X114283908Y-76159018D02*
X113748712Y-76552823D01*
X36421103Y-58400421D02*
X36429186Y-58376632D01*
X31266382Y-74794349D02*
X30840982Y-74283908D01*
X35136728Y-58861165D02*
X35173884Y-58861165D01*
X34308490Y-63384912D02*
X34382702Y-63472979D01*
X36092034Y-59840947D02*
X36092102Y-59840216D01*
D11*
X65418986Y-60436535D02*
X65479643Y-60715370D01*
D10*
X113500000Y-52500000D02*
X113500000Y-56500000D01*
X115278175Y-26721825D02*
X115733618Y-27205651D01*
X34586727Y-55776165D02*
X34327042Y-55811311D01*
X34077759Y-55877405D01*
X36095164Y-60775399D02*
X36091741Y-60768545D01*
X35186728Y-60861165D02*
X35186728Y-61131165D01*
D11*
X117530898Y-29985459D02*
X117240016Y-29388045D01*
D10*
X35136728Y-63131165D02*
X35173884Y-63131165D01*
X111000000Y-51300000D02*
X108000000Y-51300000D01*
X94750000Y-75750000D02*
X79250000Y-75750000D01*
X34486728Y-59631165D02*
X34499228Y-59631165D01*
X34499571Y-59861165D02*
X34486728Y-59861165D01*
X34486728Y-58361165D02*
X34499228Y-58361165D01*
X35136728Y-63509093D02*
X35136728Y-63515745D01*
X36038324Y-63780328D02*
X35915566Y-63999129D01*
X35815048Y-64114484D01*
X34146447Y-51353553D02*
X34250000Y-51433013D01*
X34686728Y-63569160D02*
X34686728Y-63543139D01*
X114247553Y-37281193D02*
X114250000Y-37281579D01*
X33578497Y-61028301D02*
X33581728Y-61045330D01*
X34986739Y-63569160D02*
X34986745Y-63543986D01*
X35203359Y-56956740D02*
X35103625Y-56916613D01*
X36750000Y-51433013D02*
X36853553Y-51353553D01*
X36416730Y-61023270D02*
X36416728Y-61068851D01*
X34486728Y-61861165D02*
X34499228Y-61861165D01*
X36104259Y-60681404D02*
X36104252Y-60688104D01*
X34066987Y-51250000D02*
X34146447Y-51353553D01*
X34486728Y-58861165D02*
X34499228Y-58861165D01*
X36080752Y-63451165D02*
X36091728Y-63296165D01*
X36686728Y-62146165D02*
X36858935Y-62146165D01*
X36529043Y-62145996D02*
X36496440Y-62144704D01*
D11*
X30086406Y-28809284D02*
X29759984Y-29388045D01*
D10*
X35823219Y-63640580D02*
X35695401Y-63858046D01*
X35628124Y-63932561D01*
X106800000Y-59800000D02*
X106800000Y-61671573D01*
X35521079Y-64483315D02*
X35266851Y-64544482D01*
X35086728Y-64566165D01*
D11*
X28680181Y-32517195D02*
X28580202Y-33174097D01*
D10*
X33248777Y-59605841D02*
X33255319Y-59571658D01*
X113950000Y-37450000D02*
X113950000Y-37550000D01*
X34686728Y-63543986D02*
X34686728Y-63569160D01*
X34586727Y-56076165D02*
X34586727Y-55926165D01*
X32986728Y-59646165D02*
X33107586Y-59646165D01*
X108164163Y-23520069D02*
X108825903Y-23580202D01*
X36443692Y-58360595D02*
X36429186Y-58376632D01*
X105500000Y-47328427D02*
G75*
G02*
X106085793Y-45914221I1999900J27D01*
G01*
X86947723Y-68000000D02*
X86400000Y-68000000D01*
X34686728Y-63569160D02*
X34686728Y-63585503D01*
X34986728Y-63591165D02*
X34986733Y-63585503D01*
X37004926Y-62146165D02*
X36858935Y-62146165D01*
X35200000Y-54000000D02*
X36000000Y-54000000D01*
X36104283Y-59794106D02*
X36104278Y-59806668D01*
X36422531Y-58396425D02*
X36430963Y-58374583D01*
X34135161Y-64476342D02*
X33907963Y-64352919D01*
X33752342Y-64220551D01*
D11*
X38174097Y-23580202D02*
X37517195Y-23680181D01*
D10*
X35187274Y-64396165D02*
X34486180Y-64396165D01*
X33858408Y-56377844D02*
X33701196Y-56577107D01*
X33635132Y-56712000D01*
X32536728Y-62896165D02*
X32570982Y-62896165D01*
X33248519Y-58386574D02*
X33236782Y-58366333D01*
X35136728Y-57861165D02*
X35173884Y-57861165D01*
X35436728Y-57351165D02*
X35417611Y-57220559D01*
X33256728Y-57106163D02*
X33256728Y-63386165D01*
X33357968Y-56597195D02*
X33478393Y-56367998D01*
X33646276Y-56165712D01*
D11*
X35599346Y-24214821D02*
X34985459Y-24469102D01*
D10*
X35436728Y-57351165D02*
X35417611Y-57220559D01*
X34077759Y-55877405D02*
X34327042Y-55811311D01*
X34586727Y-55776165D01*
D11*
X112014541Y-77530898D02*
X112611955Y-77240016D01*
D10*
X35200000Y-52730000D02*
X36000000Y-52730000D01*
X34486728Y-59861165D02*
X34499571Y-59861165D01*
X34486728Y-60861165D02*
X34486728Y-61131165D01*
X32668530Y-62146165D02*
X32814689Y-62146165D01*
D11*
X118001930Y-31227466D02*
X117785179Y-30599346D01*
D10*
X33147578Y-58346333D02*
X33107084Y-58346165D01*
X34499228Y-61361165D02*
X34536728Y-61361165D01*
D11*
X32716092Y-76159018D02*
X33251288Y-76552823D01*
D10*
X34486728Y-61131165D02*
X34499571Y-61131165D01*
X33236743Y-62125882D02*
X33248777Y-62105841D01*
X36923336Y-36112740D02*
X37000000Y-36064525D01*
X33646276Y-56165712D02*
X33848562Y-55997830D01*
X34077759Y-55877405D01*
X37102066Y-58346165D02*
X37136728Y-58346165D01*
X36586728Y-57041165D02*
X36586728Y-56096165D01*
X33569224Y-59540859D02*
X33569224Y-59502133D01*
X35174228Y-60361165D02*
X35186728Y-60361165D01*
X34911728Y-56886165D02*
X34761728Y-56886165D01*
X34499571Y-60361165D02*
X34486728Y-60361165D01*
X32986728Y-62896165D02*
X33106728Y-62896165D01*
X33406728Y-57106164D02*
X33439748Y-56857679D01*
X33489577Y-56671813D01*
X33107084Y-58346165D02*
X33106728Y-57596165D01*
X33635132Y-63780329D02*
X33575830Y-63537437D01*
X33556728Y-63386165D01*
X35152495Y-56947971D02*
X35136728Y-56954218D01*
D11*
X33251288Y-76552823D02*
X33809284Y-76913594D01*
D10*
X36629410Y-51482963D02*
X36750000Y-51433013D01*
X36417587Y-58431484D02*
X36421103Y-58400421D01*
X35203359Y-56956740D02*
X35168856Y-56946309D01*
X35186728Y-61361165D02*
X35186728Y-61631165D01*
X35921114Y-64220551D02*
X35735596Y-64372046D01*
X35173884Y-59361165D02*
X35136728Y-59361165D01*
X35200000Y-54225000D02*
X35300000Y-54225000D01*
X33496550Y-63837731D02*
X33433073Y-63588077D01*
X33406728Y-63386165D01*
X36867528Y-23819640D02*
X37517195Y-23680181D01*
X112348528Y-62520101D02*
X111520101Y-63348528D01*
X34536728Y-63331165D02*
X34636728Y-63291165D01*
X35300000Y-54030000D02*
X35900000Y-54030000D01*
X102300000Y-27470000D02*
X101700000Y-27470000D01*
X34569830Y-63575716D02*
X34470096Y-63535589D01*
D11*
X115733618Y-74794349D02*
X116159018Y-74283908D01*
D10*
X35480892Y-56154569D02*
X35238001Y-56095267D01*
X35086729Y-56076165D01*
D11*
X31721825Y-26721825D02*
X31266382Y-27205651D01*
D10*
X34499571Y-59131165D02*
X34536728Y-59131165D01*
X36923336Y-36112740D02*
X36552080Y-36363917D01*
X34045331Y-63932561D02*
X34248074Y-64086345D01*
X34337312Y-64127656D01*
X34489468Y-57423880D02*
X34486992Y-57487277D01*
X36566728Y-62146165D02*
X36686728Y-62146165D01*
X37004926Y-58346164D02*
X37102473Y-58346165D01*
X35823219Y-56851749D02*
X35695401Y-56634282D01*
X35628124Y-56559768D01*
X38500000Y-23500000D02*
X108500000Y-23500000D01*
X34771104Y-56939563D02*
X34794997Y-56963871D01*
X34260776Y-56179897D02*
X34681728Y-56096165D01*
X34586727Y-64716165D02*
X34327041Y-64681018D01*
X34077758Y-64614924D01*
X110671573Y-44500000D02*
G75*
G02*
X112085779Y-45085793I27J-1999900D01*
G01*
X33212794Y-60646165D02*
X33164130Y-60646165D01*
X106085786Y-45914214D02*
X106914214Y-45085786D01*
X36858766Y-60846165D02*
X37004926Y-60846165D01*
X36858935Y-62896165D02*
X37004926Y-62896165D01*
D11*
X32716092Y-25840982D02*
X32205651Y-26266382D01*
D10*
X34500356Y-63543559D02*
X34577773Y-63572443D01*
X34586727Y-56076165D02*
X34336284Y-56112996D01*
X34192563Y-56154569D01*
X37004926Y-57596165D02*
X37102066Y-57596165D01*
X102400000Y-28800000D02*
X101600000Y-28800000D01*
X35136728Y-63538111D02*
X35152495Y-63544358D01*
X36428187Y-57596165D02*
X36460713Y-57596165D01*
X31721825Y-26721825D02*
X32205651Y-26266382D01*
X36091728Y-61651165D02*
X36116728Y-61651165D01*
X36858766Y-58346165D02*
X37004926Y-58346165D01*
X35136728Y-60631165D02*
X35173884Y-60631165D01*
X34499571Y-57861165D02*
X34536728Y-57861165D01*
X33107084Y-58346165D02*
X33147578Y-58346333D01*
X114050000Y-37450000D02*
X114050000Y-37550000D01*
X34045331Y-56559768D02*
X33929925Y-56701056D01*
X35203359Y-63535589D02*
X35290690Y-63472037D01*
X37105132Y-62146165D02*
X37136728Y-62146165D01*
X103100000Y-69300000D02*
X103600000Y-69300000D01*
X105500000Y-52500000D02*
X105500000Y-56500000D01*
X106300000Y-52500000D02*
G75*
G02*
X106500000Y-52300000I200000J0D01*
G01*
X36867528Y-78180360D02*
X36227466Y-78001930D01*
X36104231Y-59790197D02*
X36104231Y-59810113D01*
X99400000Y-69500000D02*
X99400000Y-69300000D01*
X35136728Y-62361165D02*
X35174228Y-62361165D01*
X36460713Y-57596165D02*
X36483274Y-57596165D01*
X32814689Y-62146165D02*
X32898106Y-62146165D01*
X106651472Y-62520101D02*
X107005025Y-62166548D01*
X36460718Y-62896165D02*
X36428191Y-62896165D01*
X33256728Y-63386165D02*
X33291874Y-63645849D01*
X33357968Y-63895133D01*
X31721825Y-75278175D02*
X31266382Y-74794349D01*
X36416750Y-60966480D02*
X36416731Y-60846183D01*
X34077759Y-55877405D02*
X34327042Y-55811311D01*
X34586727Y-55776165D01*
X34486728Y-60361165D02*
X34499571Y-60361165D01*
X32205651Y-26266382D02*
X32716092Y-25840982D01*
X35186728Y-58361165D02*
X35186728Y-58631165D01*
X34470096Y-63535589D02*
X34376709Y-63467337D01*
X36686727Y-60846164D02*
X36858935Y-60846164D01*
X65479643Y-60715370D02*
X65418986Y-60436535D01*
X32570982Y-57596165D02*
X32668530Y-57596165D01*
X37102473Y-62896165D02*
X37136728Y-62896165D01*
D11*
X36400000Y-72000000D02*
G75*
G02*
X33600000Y-72000000I-1400000J0D01*
G01*
X33600000Y-72000000D02*
G75*
G02*
X36400000Y-72000000I1400000J0D01*
G01*
D10*
X34000000Y-51000000D02*
X34017037Y-51129410D01*
X36104263Y-61006738D02*
X36104259Y-61012056D01*
X34486728Y-58861165D02*
X34499571Y-58861165D01*
X36565947Y-58346165D02*
X36520351Y-58346384D01*
X35136728Y-58131165D02*
X35174228Y-58131165D01*
X35186728Y-61361165D02*
X35173884Y-61361165D01*
X36420567Y-59585229D02*
X36428068Y-59607959D01*
D11*
X116159018Y-27716092D02*
X115733618Y-27205651D01*
D10*
X79250000Y-60250000D02*
X94750000Y-60250000D01*
X110671573Y-63200000D02*
X110671573Y-63700000D01*
X106500000Y-49700000D02*
X106800000Y-49200000D01*
X106581846Y-63600000D02*
X106581846Y-63581846D01*
X33556728Y-59646166D02*
X33569224Y-59646166D01*
X34499571Y-58361165D02*
X34486728Y-58361165D01*
X36116728Y-61501165D02*
X36091728Y-61501165D01*
X32668530Y-62896165D02*
X32814520Y-62896165D01*
D11*
X114794349Y-75733618D02*
X115278175Y-75278175D01*
D10*
X34436728Y-56987641D02*
X34503354Y-56943360D01*
X36104435Y-60680153D02*
X36095142Y-60664508D01*
X32814520Y-62146165D02*
X32986728Y-62146165D01*
X112348528Y-46479899D02*
G75*
G02*
X112700022Y-47328427I-848628J-848601D01*
G01*
X34986728Y-56906542D02*
X34986728Y-56923169D01*
X35152495Y-63544358D02*
X35136728Y-63538111D01*
X34135161Y-56015987D02*
X34384814Y-55952510D01*
X34586727Y-55926165D01*
X33665460Y-56775213D02*
X33602623Y-57019718D01*
X33581728Y-57196165D01*
X34499571Y-62131165D02*
X34536728Y-62131165D01*
X35179279Y-56949460D02*
X35304926Y-57032966D01*
X35095682Y-56919886D02*
X34986728Y-56906529D01*
D11*
X34985459Y-24469102D02*
X34388045Y-24759984D01*
X41081014Y-60436535D02*
X41180736Y-60169170D01*
D10*
X35203359Y-63535589D02*
X35103607Y-63575721D01*
X33107586Y-59646165D02*
X33151134Y-59646019D01*
X34986751Y-63512832D02*
X34986747Y-63543139D01*
X33256728Y-62896165D02*
X33245310Y-62896165D01*
X34499228Y-59861165D02*
X34536728Y-59861165D01*
X34536728Y-57371165D02*
X34497960Y-57371165D01*
X33256776Y-63388164D02*
X33258317Y-63451165D01*
X36038324Y-56712001D02*
X36097624Y-56954891D01*
X36116728Y-57106165D01*
D11*
X28998070Y-70772534D02*
X29214821Y-71400654D01*
X42436535Y-59081014D02*
X42715370Y-59020357D01*
D10*
X33556728Y-62291165D02*
X33581728Y-62291165D01*
X33086728Y-64396165D02*
X33721395Y-64396165D01*
X33569224Y-59811800D02*
X33569224Y-59795784D01*
X111750000Y-38050000D02*
X112250000Y-38050000D01*
X118319819Y-69482805D02*
X118180360Y-70132472D01*
X116159018Y-27716092D02*
X116552823Y-28251288D01*
X111000000Y-58300000D02*
G75*
G02*
X111200000Y-58500000I0J-200000D01*
G01*
X32900000Y-53500000D02*
X32300000Y-53500000D01*
X35200000Y-52700000D02*
X36000000Y-52700000D01*
X35173884Y-62131165D02*
X35186728Y-62131165D01*
X111400654Y-77785179D02*
X110772534Y-78001930D01*
X35136728Y-60631165D02*
X35173884Y-60631165D01*
X34300000Y-54000000D02*
X34300000Y-54225000D01*
X37517195Y-78319819D02*
X36867528Y-78180360D01*
X34486728Y-61131165D02*
X34499228Y-61131165D01*
X36418593Y-59567045D02*
X36423432Y-59595714D01*
X32570982Y-62896165D02*
X32668530Y-62896165D01*
X35186728Y-59861165D02*
X35186728Y-60131165D01*
X32668530Y-59646165D02*
X32814520Y-59646165D01*
X35186728Y-62361165D02*
X35173884Y-62361165D01*
X35036728Y-57201165D02*
X35036728Y-63291165D01*
X106500000Y-49700000D02*
G75*
G02*
X106300000Y-49500000I0J200000D01*
G01*
X35136728Y-63509093D02*
X35136728Y-63515745D01*
X35900000Y-54225000D02*
X36000000Y-54225000D01*
X34255995Y-57220942D02*
X34236728Y-57351165D01*
X33245744Y-60646165D02*
X33256728Y-60646165D01*
X37004926Y-57596165D02*
X36858935Y-57596165D01*
X35173884Y-60361165D02*
X35186728Y-60361165D01*
X35186728Y-60861165D02*
X35173884Y-60861165D01*
X33569224Y-60740859D02*
X33569224Y-60702133D01*
X36104231Y-59813089D02*
X36116728Y-59796793D01*
X34504599Y-63546021D02*
X34520960Y-63544358D01*
X36315487Y-56597196D02*
X36381581Y-56846479D01*
X36416728Y-57106165D01*
X33569224Y-59646166D02*
X33569224Y-59592249D01*
X36858935Y-60846164D02*
X37004926Y-60846164D01*
X33236743Y-62125882D02*
X33213790Y-62138941D01*
D11*
X33809284Y-76913594D02*
X34388045Y-77240016D01*
D10*
X36104434Y-59480175D02*
X36095129Y-59464499D01*
X41918718Y-59317493D02*
X41690279Y-59488501D01*
X35086729Y-55776165D02*
X34586727Y-55776165D01*
X112700000Y-61671573D02*
G75*
G02*
X112348521Y-62520094I-1199900J-27D01*
G01*
X35412679Y-64312432D02*
X35638184Y-64190343D01*
X35769545Y-64073982D01*
X30447177Y-28251288D02*
X30840982Y-27716092D01*
X97774000Y-31629000D02*
X49226000Y-31629000D01*
X102400000Y-27200000D02*
X101600000Y-27200000D01*
X33556728Y-59796375D02*
X33569224Y-59813089D01*
X32986728Y-57596165D02*
X32814520Y-57596165D01*
X111520101Y-45651472D02*
X111166548Y-46005025D01*
X117785179Y-71400654D02*
X117530898Y-72014541D01*
X32936728Y-56246165D02*
X33086728Y-56096165D01*
X36183878Y-56671813D02*
X36245045Y-56926040D01*
X36266728Y-57106164D01*
X36417906Y-62061342D02*
X36420609Y-62085507D01*
D11*
X42715370Y-59020357D02*
X43000000Y-59000000D01*
D10*
X35290753Y-57019350D02*
X35203359Y-56956740D01*
X36686727Y-59646165D02*
X36858935Y-59646165D01*
X34499571Y-63131165D02*
X34536728Y-63131165D01*
X79500000Y-60800000D02*
X94500000Y-60800000D01*
X33215727Y-58353867D02*
X33185028Y-58348064D01*
X112500000Y-56700000D02*
X106500000Y-56700000D01*
X34536728Y-63489729D02*
X34536587Y-63515769D01*
X35628124Y-56559768D02*
X35425380Y-56405984D01*
X35336143Y-56364673D01*
X34986735Y-63585828D02*
X34986728Y-63591165D01*
X36266728Y-63386165D02*
X36230279Y-63644902D01*
X36176905Y-63837731D01*
X36483274Y-57596165D02*
X36508463Y-57596165D01*
X34337312Y-64127656D02*
X34582430Y-64184128D01*
X34681728Y-64196165D01*
X36091728Y-57196165D02*
X36055131Y-56941814D01*
X36007995Y-56775213D01*
X35910181Y-50552951D02*
X41274000Y-50552951D01*
X36104304Y-59697727D02*
X36104293Y-59751569D01*
X35086729Y-56076165D02*
X35337171Y-56112996D01*
X35480892Y-56154569D01*
X34499228Y-59131165D02*
X34536728Y-59131165D01*
X110671573Y-63700000D02*
X108328427Y-63700000D01*
X34382759Y-57020283D02*
X34308091Y-57107821D01*
X36095158Y-60775398D02*
X36091740Y-60768545D01*
X107005025Y-62166548D02*
X107833452Y-62994975D01*
X34486728Y-62861165D02*
X34499571Y-62861165D01*
X36496369Y-59644695D02*
X36468830Y-59640413D01*
X35174228Y-57861165D02*
X35186728Y-57861165D01*
X35168856Y-63546020D02*
X35152495Y-63544358D01*
X34000000Y-34500000D02*
X34000000Y-51000000D01*
X36504776Y-60846790D02*
X36518735Y-60846482D01*
X106500000Y-57500000D02*
X112500000Y-57500000D01*
X33569224Y-60960558D02*
X33569224Y-60910945D01*
X34911728Y-56979498D02*
X34986728Y-56979498D01*
X34486728Y-61361165D02*
X34486728Y-61631165D01*
X34686716Y-56923169D02*
X34686710Y-56948343D01*
X104700000Y-70500000D02*
X104700000Y-74500000D01*
X36566728Y-57596165D02*
X36565947Y-58346165D01*
X36038324Y-56712001D02*
X35915566Y-56493199D01*
X35815048Y-56377845D01*
X35136728Y-61131165D02*
X35173884Y-61131165D01*
X107833452Y-46005025D02*
X107479899Y-45651472D01*
X33578497Y-59716920D02*
X33581728Y-59723782D01*
X33185028Y-58348064D02*
X33147578Y-58346333D01*
X37004926Y-62896165D02*
X37102066Y-62896165D01*
D11*
X29214821Y-71400654D02*
X29469102Y-72014541D01*
D10*
X33581728Y-60923782D02*
X33578497Y-60916920D01*
X94750000Y-60250000D02*
X94750000Y-75750000D01*
D11*
X30840982Y-27716092D02*
X30447177Y-28251288D01*
D10*
X36091728Y-57196165D02*
X36055131Y-56941814D01*
X36007995Y-56775213D01*
X35480892Y-64337760D02*
X35238000Y-64397061D01*
X35086728Y-64416165D01*
D11*
X34388045Y-77240016D02*
X34985459Y-77530898D01*
D10*
X34625969Y-56096165D02*
X34644201Y-56076165D01*
X35183152Y-56948512D02*
X35203359Y-56956740D01*
X34308091Y-57107821D02*
X34255995Y-57220942D01*
X34017037Y-34370590D02*
X34000000Y-34500000D01*
X35823219Y-63640580D02*
X35879691Y-63395462D01*
X35891728Y-63296165D01*
X35173884Y-60631165D02*
X35186728Y-60631165D01*
X34499571Y-57361165D02*
X34489468Y-57423880D01*
X41274000Y-36363917D02*
X35823336Y-36363917D01*
X36091728Y-59716494D02*
X36091744Y-59646165D01*
X33581728Y-63296165D02*
X33618323Y-63550514D01*
X33665460Y-63717116D01*
X33581421Y-58101165D02*
X33581421Y-57196165D01*
X116552823Y-73748712D02*
X116159018Y-74283908D01*
X37060609Y-62146165D02*
X37105132Y-62146165D01*
D11*
X64330830Y-59180736D02*
X64581282Y-59317493D01*
D10*
X36428191Y-62896165D02*
X36460718Y-62896165D01*
X35173884Y-62131165D02*
X35186728Y-62131165D01*
X34490304Y-63543817D02*
X34470096Y-63535589D01*
X98800000Y-70800000D02*
X98800000Y-74200000D01*
X35136728Y-60861165D02*
X35173884Y-60861165D01*
X36566728Y-62146165D02*
X36529043Y-62145996D01*
X34470096Y-63535589D02*
X34504599Y-63546021D01*
X33569224Y-59479240D02*
X33556728Y-59495965D01*
X112200000Y-59800000D02*
X112700000Y-59500000D01*
X36446384Y-59630527D02*
X36468830Y-59640413D01*
X33569224Y-59710945D02*
X33578497Y-59716920D01*
X112200000Y-59800000D02*
X112500000Y-59300000D01*
X33182708Y-62144742D02*
X33213790Y-62138941D01*
X36444478Y-60861530D02*
X36466569Y-60851650D01*
D11*
X118001930Y-70772534D02*
X118180360Y-70132472D01*
D10*
X95000000Y-60000000D02*
X95000000Y-76000000D01*
X36686727Y-59646165D02*
X36686727Y-60846164D01*
X33635132Y-56712000D02*
X33757889Y-56493198D01*
X33858408Y-56377844D01*
X32367482Y-53982518D02*
X32832518Y-53982518D01*
X34486728Y-58131165D02*
X34499571Y-58131165D01*
X35136728Y-61131165D02*
X35173884Y-61131165D01*
X35365356Y-63384483D02*
X35417501Y-63271402D01*
X37004926Y-60846165D02*
X37102066Y-60846165D01*
X34504599Y-63546021D02*
X34520960Y-63544358D01*
X108500000Y-78500000D02*
X38500000Y-78500000D01*
X35086729Y-55776165D02*
X35346413Y-55811311D01*
X35595697Y-55877405D01*
X36104231Y-59531770D02*
X36104231Y-59581382D01*
X34486728Y-62631165D02*
X34499571Y-62631165D01*
X35173884Y-59631165D02*
X35186728Y-59631165D01*
X37004926Y-58346165D02*
X37102066Y-58346165D01*
X112200000Y-49200000D02*
X112200000Y-47328427D01*
X35136728Y-56986165D02*
X34836728Y-56985916D01*
X35173884Y-61631165D02*
X35186728Y-61631165D01*
X33245310Y-57596165D02*
X33256728Y-57596165D01*
X33213790Y-62138941D02*
X33182708Y-62144742D01*
X36315487Y-56597196D02*
X36381581Y-56846479D01*
X36416728Y-57106165D01*
X32814689Y-62896165D02*
X32986728Y-62896165D01*
X34382702Y-63472979D02*
X34470096Y-63535589D01*
X32668530Y-60646165D02*
X32814689Y-60646165D01*
X32570982Y-60646165D02*
X32668530Y-60646165D01*
X34536728Y-63516195D02*
X34536728Y-63538111D01*
D11*
X41020357Y-60715370D02*
X41081014Y-60436535D01*
D10*
X36432686Y-62116659D02*
X36446473Y-62130616D01*
X34911728Y-63506337D02*
X34911728Y-63606165D01*
X112700000Y-63300000D02*
X112700000Y-63600000D01*
D11*
X28998070Y-31227466D02*
X28819640Y-31867528D01*
D10*
X108328427Y-44500000D02*
X110671573Y-44500000D01*
X37004926Y-59646165D02*
X37102473Y-59646165D01*
X34536728Y-63509036D02*
X34536728Y-63516195D01*
X35136866Y-63515961D02*
X35136728Y-63490164D01*
X34499228Y-62361165D02*
X34536728Y-62361165D01*
X34520960Y-63544358D02*
X34536728Y-63538111D01*
X34536728Y-56954218D02*
X34520961Y-56947971D01*
X108328427Y-45300000D02*
X110671573Y-45300000D01*
X35173884Y-63131165D02*
X35186728Y-63131165D01*
X33844918Y-56864879D02*
X33791214Y-57111409D01*
X33781728Y-57196165D01*
X36104231Y-60681249D02*
X36104231Y-60680528D01*
X35891728Y-57196165D02*
X35852188Y-56945355D01*
X35823219Y-56851749D01*
X32986728Y-58346165D02*
X32986728Y-57596165D01*
X36566728Y-59646165D02*
X36529001Y-59645996D01*
X118001930Y-31227466D02*
X118180360Y-31867528D01*
X104500000Y-74700000D02*
X98500000Y-74700000D01*
X41081014Y-60436535D02*
X41020357Y-60715370D01*
D11*
X116159018Y-74283908D02*
X116552823Y-73748712D01*
D10*
X35296746Y-57024992D02*
X35364989Y-57107406D01*
X37136728Y-59646165D02*
X37102473Y-59646165D01*
X36686728Y-62896165D02*
X36858766Y-62896165D01*
X35173884Y-60861165D02*
X35186728Y-60861165D01*
D11*
X29469102Y-29985459D02*
X29214821Y-30599346D01*
D10*
X34486728Y-60631165D02*
X34499228Y-60631165D01*
X36982963Y-51129410D02*
X37000000Y-51000000D01*
X33151134Y-59646019D02*
X33182708Y-59644742D01*
X34986745Y-63543986D02*
X34986751Y-63512832D01*
X35364965Y-57107417D02*
X35290753Y-57019350D01*
X35769545Y-56418347D02*
X35568240Y-56257472D01*
X35412679Y-56179897D01*
X33256728Y-57106163D02*
X33291874Y-56846478D01*
X33357968Y-56597195D01*
X34536587Y-63515769D02*
X34536728Y-63538111D01*
X104700000Y-74500000D02*
G75*
G02*
X104500000Y-74700000I-200000J0D01*
G01*
X35412679Y-64312432D02*
X35165858Y-64373465D01*
X34991728Y-64396165D01*
X36094722Y-59828902D02*
X36104461Y-59812083D01*
X36092720Y-61036361D02*
X36094723Y-61028945D01*
X36104231Y-59751470D02*
X36104231Y-59790197D01*
X35173884Y-58361165D02*
X35186728Y-58361165D01*
X36857220Y-59646165D02*
X37004926Y-59646165D01*
X33809284Y-76913594D02*
X33251288Y-76552823D01*
X33157989Y-59645845D02*
X33182986Y-59644719D01*
X106300000Y-61671573D02*
X106800000Y-61671573D01*
D11*
X113400000Y-72000000D02*
G75*
G02*
X110600000Y-72000000I-1400000J0D01*
G01*
X110600000Y-72000000D02*
G75*
G02*
X113400000Y-72000000I1400000J0D01*
G01*
D10*
X34066987Y-34250000D02*
X34017037Y-34370590D01*
X32500000Y-53500000D02*
X32500000Y-53400000D01*
X33164130Y-62896165D02*
X33212794Y-62896165D01*
X35136728Y-60361165D02*
X35174228Y-60361165D01*
X32700000Y-53400000D02*
X32500000Y-53400000D01*
X33236743Y-59625882D02*
X33248777Y-59605841D01*
X32814689Y-57596165D02*
X32898106Y-57596165D01*
X36104231Y-59700080D02*
X36104231Y-59751470D01*
X35174228Y-63131165D02*
X35186728Y-63131165D01*
X35086728Y-55926165D02*
X35335212Y-55959185D01*
X35521079Y-56009014D01*
X36485648Y-59642200D02*
X36518022Y-59645101D01*
X33232015Y-57596165D02*
X33245744Y-57596165D01*
X34499228Y-57861165D02*
X34536728Y-57861165D01*
X34337312Y-64127656D02*
X34119845Y-63999838D01*
X34045331Y-63932561D01*
X36000000Y-52775000D02*
X35900000Y-52775000D01*
X33251288Y-76552823D02*
X32716092Y-76159018D01*
X33581421Y-58101165D02*
X33831728Y-58101165D01*
X36686727Y-58346164D02*
X36858935Y-58346164D01*
X34516807Y-57423889D02*
X34499571Y-57361165D01*
X35086728Y-55926165D02*
X35345465Y-55962612D01*
X35538294Y-56015987D01*
X102300000Y-28500000D02*
X102300000Y-28725000D01*
X37102473Y-62146165D02*
X37004926Y-62146165D01*
X33569224Y-60702133D02*
X33569224Y-60682216D01*
X32536728Y-60646165D02*
X32571390Y-60646165D01*
D11*
X113190716Y-76913594D02*
X113748712Y-76552823D01*
D10*
X33182670Y-58347702D02*
X33157705Y-58346535D01*
X34486728Y-60361165D02*
X34486728Y-60631165D01*
X32300000Y-53500000D02*
X32300000Y-54300000D01*
D11*
X28819640Y-31867528D02*
X28680181Y-32517195D01*
X117530898Y-72014541D02*
X117785179Y-71400654D01*
D10*
X34499228Y-58861165D02*
X34536728Y-58861165D01*
X36091740Y-59568547D02*
X36095159Y-59575400D01*
X35173884Y-60131165D02*
X35186728Y-60131165D01*
X35086729Y-55776165D02*
X35346413Y-55811311D01*
X35595697Y-55877405D01*
X34486728Y-62631165D02*
X34499228Y-62631165D01*
X33245310Y-62896165D02*
X33256728Y-62896165D01*
D11*
X39500000Y-23500000D02*
X38835837Y-23520069D01*
D10*
X35136728Y-62861165D02*
X35174228Y-62861165D01*
X34536728Y-56954218D02*
X34520961Y-56947971D01*
X36686728Y-62146165D02*
X36686728Y-62896165D01*
X34686728Y-63512831D02*
X34686728Y-63543986D01*
D11*
X118500000Y-34500000D02*
X118479931Y-33835837D01*
D10*
X111750000Y-37779508D02*
G75*
G02*
X112250000Y-37779508I250000J279508D01*
G01*
X33700000Y-54030000D02*
X34300000Y-54030000D01*
X36416728Y-63386165D02*
X36381581Y-63645849D01*
X36315487Y-63895133D01*
X34045331Y-56559768D02*
X34248074Y-56405984D01*
X34337312Y-56364673D01*
X107800000Y-51500000D02*
G75*
G02*
X108000000Y-51300000I200000J0D01*
G01*
X35136728Y-57631165D02*
X35173884Y-57631165D01*
X34986728Y-56906826D02*
X34986728Y-56923169D01*
X118180360Y-70132472D02*
X118001930Y-70772534D01*
X33569224Y-60682216D02*
X33569224Y-60681199D01*
X34586728Y-64566165D02*
X34327990Y-64529716D01*
X34135161Y-64476342D01*
X35174228Y-58131165D02*
X35186728Y-58131165D01*
X112348528Y-46479899D02*
X111994975Y-46833452D01*
X111950000Y-37550000D02*
X111752447Y-37781193D01*
D11*
X65500000Y-78500000D02*
X107500000Y-78500000D01*
D10*
X37004926Y-62896165D02*
X37102473Y-62896165D01*
X35538294Y-56015987D02*
X35765491Y-56139409D01*
X35921114Y-56271779D01*
X36104231Y-60781382D02*
X36095164Y-60775399D01*
X34586727Y-56076165D02*
X35086729Y-56076165D01*
X36520351Y-58346384D02*
X36496652Y-58347174D01*
X33569224Y-60682216D02*
X33569224Y-60681158D01*
X36104245Y-59513991D02*
X36104238Y-59547484D01*
D11*
X110772534Y-23998070D02*
X110132472Y-23819640D01*
D10*
X36027180Y-64326617D02*
X35824893Y-64494498D01*
X35595697Y-64614924D01*
X36092102Y-59840216D02*
X36092250Y-59839091D01*
X33489577Y-56671813D02*
X33599716Y-56459022D01*
X33106728Y-57596165D02*
X33163569Y-57596165D01*
X32986728Y-57596165D02*
X33106728Y-57596165D01*
X32814689Y-59646165D02*
X32898106Y-59646165D01*
X35136728Y-63515745D02*
X35136728Y-63538111D01*
X33752342Y-64220551D02*
X33587472Y-64016854D01*
X33496550Y-63837731D01*
X34486728Y-62861165D02*
X34499228Y-62861165D01*
X34486728Y-61631165D02*
X34499228Y-61631165D01*
X36095142Y-60664508D02*
X36093016Y-60657320D01*
X33646275Y-64326616D02*
X33848561Y-64494498D01*
X34077758Y-64614924D01*
X109482805Y-78319819D02*
X108825903Y-78419798D01*
X112500000Y-50500000D02*
X106500000Y-50500000D01*
X106800000Y-47328427D02*
X106300000Y-47328427D01*
X36421040Y-60898837D02*
X36417646Y-60929377D01*
D12*
X30637603Y-89270473D02*
X29622543Y-89270473D01*
X29622543Y-91802369D02*
X29622543Y-86968749D01*
X29622543Y-86968749D02*
X31072629Y-86968749D01*
X32667723Y-91802369D02*
X32377706Y-91572197D01*
X32377706Y-91572197D02*
X32232697Y-91342024D01*
X32232697Y-91342024D02*
X32087689Y-90881679D01*
X32087689Y-90881679D02*
X32087689Y-89500645D01*
X32087689Y-89500645D02*
X32232697Y-89040300D01*
X32232697Y-89040300D02*
X32377706Y-88810128D01*
X32377706Y-88810128D02*
X32667723Y-88579956D01*
X32667723Y-88579956D02*
X33102749Y-88579956D01*
X33102749Y-88579956D02*
X33392766Y-88810128D01*
X33392766Y-88810128D02*
X33537775Y-89040300D01*
X33537775Y-89040300D02*
X33682783Y-89500645D01*
X33682783Y-89500645D02*
X33682783Y-90881679D01*
X33682783Y-90881679D02*
X33537775Y-91342024D01*
X33537775Y-91342024D02*
X33392766Y-91572197D01*
X33392766Y-91572197D02*
X33102749Y-91802369D01*
X33102749Y-91802369D02*
X32667723Y-91802369D01*
X34987860Y-91802369D02*
X34987860Y-88579956D01*
X34987860Y-89500645D02*
X35132869Y-89040300D01*
X35132869Y-89040300D02*
X35277878Y-88810128D01*
X35277878Y-88810128D02*
X35567895Y-88579956D01*
X35567895Y-88579956D02*
X35857912Y-88579956D01*
X39193108Y-91802369D02*
X39193108Y-86968749D01*
X39193108Y-86968749D02*
X40353177Y-86968749D01*
X40353177Y-86968749D02*
X40643194Y-87198921D01*
X40643194Y-87198921D02*
X40788203Y-87429094D01*
X40788203Y-87429094D02*
X40933211Y-87889438D01*
X40933211Y-87889438D02*
X40933211Y-88579956D01*
X40933211Y-88579956D02*
X40788203Y-89040300D01*
X40788203Y-89040300D02*
X40643194Y-89270473D01*
X40643194Y-89270473D02*
X40353177Y-89500645D01*
X40353177Y-89500645D02*
X39193108Y-89500645D01*
X43398357Y-91572197D02*
X43108340Y-91802369D01*
X43108340Y-91802369D02*
X42528306Y-91802369D01*
X42528306Y-91802369D02*
X42238288Y-91572197D01*
X42238288Y-91572197D02*
X42093280Y-91111852D01*
X42093280Y-91111852D02*
X42093280Y-89270473D01*
X42093280Y-89270473D02*
X42238288Y-88810128D01*
X42238288Y-88810128D02*
X42528306Y-88579956D01*
X42528306Y-88579956D02*
X43108340Y-88579956D01*
X43108340Y-88579956D02*
X43398357Y-88810128D01*
X43398357Y-88810128D02*
X43543366Y-89270473D01*
X43543366Y-89270473D02*
X43543366Y-89730817D01*
X43543366Y-89730817D02*
X42093280Y-90191162D01*
X44848442Y-91802369D02*
X44848442Y-88579956D01*
X44848442Y-89500645D02*
X44993451Y-89040300D01*
X44993451Y-89040300D02*
X45138460Y-88810128D01*
X45138460Y-88810128D02*
X45428477Y-88579956D01*
X45428477Y-88579956D02*
X45718494Y-88579956D01*
X46588545Y-91572197D02*
X46878562Y-91802369D01*
X46878562Y-91802369D02*
X47458596Y-91802369D01*
X47458596Y-91802369D02*
X47748613Y-91572197D01*
X47748613Y-91572197D02*
X47893622Y-91111852D01*
X47893622Y-91111852D02*
X47893622Y-90881679D01*
X47893622Y-90881679D02*
X47748613Y-90421335D01*
X47748613Y-90421335D02*
X47458596Y-90191162D01*
X47458596Y-90191162D02*
X47023571Y-90191162D01*
X47023571Y-90191162D02*
X46733553Y-89960990D01*
X46733553Y-89960990D02*
X46588545Y-89500645D01*
X46588545Y-89500645D02*
X46588545Y-89270473D01*
X46588545Y-89270473D02*
X46733553Y-88810128D01*
X46733553Y-88810128D02*
X47023571Y-88579956D01*
X47023571Y-88579956D02*
X47458596Y-88579956D01*
X47458596Y-88579956D02*
X47748613Y-88810128D01*
X49633725Y-91802369D02*
X49343708Y-91572197D01*
X49343708Y-91572197D02*
X49198699Y-91342024D01*
X49198699Y-91342024D02*
X49053691Y-90881679D01*
X49053691Y-90881679D02*
X49053691Y-89500645D01*
X49053691Y-89500645D02*
X49198699Y-89040300D01*
X49198699Y-89040300D02*
X49343708Y-88810128D01*
X49343708Y-88810128D02*
X49633725Y-88579956D01*
X49633725Y-88579956D02*
X50068751Y-88579956D01*
X50068751Y-88579956D02*
X50358768Y-88810128D01*
X50358768Y-88810128D02*
X50503777Y-89040300D01*
X50503777Y-89040300D02*
X50648785Y-89500645D01*
X50648785Y-89500645D02*
X50648785Y-90881679D01*
X50648785Y-90881679D02*
X50503777Y-91342024D01*
X50503777Y-91342024D02*
X50358768Y-91572197D01*
X50358768Y-91572197D02*
X50068751Y-91802369D01*
X50068751Y-91802369D02*
X49633725Y-91802369D01*
X51953862Y-88579956D02*
X51953862Y-91802369D01*
X51953862Y-89040300D02*
X52098871Y-88810128D01*
X52098871Y-88810128D02*
X52388888Y-88579956D01*
X52388888Y-88579956D02*
X52823914Y-88579956D01*
X52823914Y-88579956D02*
X53113931Y-88810128D01*
X53113931Y-88810128D02*
X53258940Y-89270473D01*
X53258940Y-89270473D02*
X53258940Y-91802369D01*
X56014103Y-91802369D02*
X56014103Y-89270473D01*
X56014103Y-89270473D02*
X55869094Y-88810128D01*
X55869094Y-88810128D02*
X55579077Y-88579956D01*
X55579077Y-88579956D02*
X54999043Y-88579956D01*
X54999043Y-88579956D02*
X54709025Y-88810128D01*
X56014103Y-91572197D02*
X55724085Y-91802369D01*
X55724085Y-91802369D02*
X54999043Y-91802369D01*
X54999043Y-91802369D02*
X54709025Y-91572197D01*
X54709025Y-91572197D02*
X54564017Y-91111852D01*
X54564017Y-91111852D02*
X54564017Y-90651507D01*
X54564017Y-90651507D02*
X54709025Y-90191162D01*
X54709025Y-90191162D02*
X54999043Y-89960990D01*
X54999043Y-89960990D02*
X55724085Y-89960990D01*
X55724085Y-89960990D02*
X56014103Y-89730817D01*
X57899214Y-91802369D02*
X57609197Y-91572197D01*
X57609197Y-91572197D02*
X57464188Y-91111852D01*
X57464188Y-91111852D02*
X57464188Y-86968749D01*
X61379419Y-86968749D02*
X61379419Y-90881679D01*
X61379419Y-90881679D02*
X61524428Y-91342024D01*
X61524428Y-91342024D02*
X61669437Y-91572197D01*
X61669437Y-91572197D02*
X61959454Y-91802369D01*
X61959454Y-91802369D02*
X62539488Y-91802369D01*
X62539488Y-91802369D02*
X62829505Y-91572197D01*
X62829505Y-91572197D02*
X62974514Y-91342024D01*
X62974514Y-91342024D02*
X63119522Y-90881679D01*
X63119522Y-90881679D02*
X63119522Y-86968749D01*
X64424600Y-91572197D02*
X64714617Y-91802369D01*
X64714617Y-91802369D02*
X65294651Y-91802369D01*
X65294651Y-91802369D02*
X65584668Y-91572197D01*
X65584668Y-91572197D02*
X65729677Y-91111852D01*
X65729677Y-91111852D02*
X65729677Y-90881679D01*
X65729677Y-90881679D02*
X65584668Y-90421335D01*
X65584668Y-90421335D02*
X65294651Y-90191162D01*
X65294651Y-90191162D02*
X64859626Y-90191162D01*
X64859626Y-90191162D02*
X64569608Y-89960990D01*
X64569608Y-89960990D02*
X64424600Y-89500645D01*
X64424600Y-89500645D02*
X64424600Y-89270473D01*
X64424600Y-89270473D02*
X64569608Y-88810128D01*
X64569608Y-88810128D02*
X64859626Y-88579956D01*
X64859626Y-88579956D02*
X65294651Y-88579956D01*
X65294651Y-88579956D02*
X65584668Y-88810128D01*
X68194823Y-91572197D02*
X67904806Y-91802369D01*
X67904806Y-91802369D02*
X67324772Y-91802369D01*
X67324772Y-91802369D02*
X67034754Y-91572197D01*
X67034754Y-91572197D02*
X66889746Y-91111852D01*
X66889746Y-91111852D02*
X66889746Y-89270473D01*
X66889746Y-89270473D02*
X67034754Y-88810128D01*
X67034754Y-88810128D02*
X67324772Y-88579956D01*
X67324772Y-88579956D02*
X67904806Y-88579956D01*
X67904806Y-88579956D02*
X68194823Y-88810128D01*
X68194823Y-88810128D02*
X68339832Y-89270473D01*
X68339832Y-89270473D02*
X68339832Y-89730817D01*
X68339832Y-89730817D02*
X66889746Y-90191162D01*
X72545080Y-86968749D02*
X73125114Y-86968749D01*
X73125114Y-86968749D02*
X73415131Y-87198921D01*
X73415131Y-87198921D02*
X73705148Y-87659266D01*
X73705148Y-87659266D02*
X73850157Y-88579956D01*
X73850157Y-88579956D02*
X73850157Y-90191162D01*
X73850157Y-90191162D02*
X73705148Y-91111852D01*
X73705148Y-91111852D02*
X73415131Y-91572197D01*
X73415131Y-91572197D02*
X73125114Y-91802369D01*
X73125114Y-91802369D02*
X72545080Y-91802369D01*
X72545080Y-91802369D02*
X72255063Y-91572197D01*
X72255063Y-91572197D02*
X71965045Y-91111852D01*
X71965045Y-91111852D02*
X71820037Y-90191162D01*
X71820037Y-90191162D02*
X71820037Y-88579956D01*
X71820037Y-88579956D02*
X71965045Y-87659266D01*
X71965045Y-87659266D02*
X72255063Y-87198921D01*
X72255063Y-87198921D02*
X72545080Y-86968749D01*
X75155234Y-88579956D02*
X75155234Y-91802369D01*
X75155234Y-89040300D02*
X75300243Y-88810128D01*
X75300243Y-88810128D02*
X75590260Y-88579956D01*
X75590260Y-88579956D02*
X76025286Y-88579956D01*
X76025286Y-88579956D02*
X76315303Y-88810128D01*
X76315303Y-88810128D02*
X76460312Y-89270473D01*
X76460312Y-89270473D02*
X76460312Y-91802369D01*
X78345423Y-91802369D02*
X78055406Y-91572197D01*
X78055406Y-91572197D02*
X77910397Y-91111852D01*
X77910397Y-91111852D02*
X77910397Y-86968749D01*
X79215474Y-88579956D02*
X79940517Y-91802369D01*
X80665560Y-88579956D02*
X79940517Y-91802369D01*
X79940517Y-91802369D02*
X79650500Y-92953231D01*
X79650500Y-92953231D02*
X79505491Y-93183403D01*
X79505491Y-93183403D02*
X79215474Y-93413576D01*
X81825628Y-91342024D02*
X81970637Y-91572197D01*
X81970637Y-91572197D02*
X81825628Y-91802369D01*
X81825628Y-91802369D02*
X81680620Y-91572197D01*
X81680620Y-91572197D02*
X81825628Y-91342024D01*
X81825628Y-91342024D02*
X81825628Y-91802369D01*
X29477535Y-84321767D02*
X29912561Y-84551939D01*
X29912561Y-84551939D02*
X30637603Y-84551939D01*
X30637603Y-84551939D02*
X30927621Y-84321767D01*
X30927621Y-84321767D02*
X31072629Y-84091594D01*
X31072629Y-84091594D02*
X31217638Y-83631249D01*
X31217638Y-83631249D02*
X31217638Y-83170905D01*
X31217638Y-83170905D02*
X31072629Y-82710560D01*
X31072629Y-82710560D02*
X30927621Y-82480387D01*
X30927621Y-82480387D02*
X30637603Y-82250215D01*
X30637603Y-82250215D02*
X30057569Y-82020043D01*
X30057569Y-82020043D02*
X29767552Y-81789870D01*
X29767552Y-81789870D02*
X29622543Y-81559698D01*
X29622543Y-81559698D02*
X29477535Y-81099353D01*
X29477535Y-81099353D02*
X29477535Y-80639008D01*
X29477535Y-80639008D02*
X29622543Y-80178664D01*
X29622543Y-80178664D02*
X29767552Y-79948491D01*
X29767552Y-79948491D02*
X30057569Y-79718319D01*
X30057569Y-79718319D02*
X30782612Y-79718319D01*
X30782612Y-79718319D02*
X31217638Y-79948491D01*
X33102749Y-79718319D02*
X33682783Y-79718319D01*
X33682783Y-79718319D02*
X33972800Y-79948491D01*
X33972800Y-79948491D02*
X34262817Y-80408836D01*
X34262817Y-80408836D02*
X34407826Y-81329526D01*
X34407826Y-81329526D02*
X34407826Y-82940732D01*
X34407826Y-82940732D02*
X34262817Y-83861422D01*
X34262817Y-83861422D02*
X33972800Y-84321767D01*
X33972800Y-84321767D02*
X33682783Y-84551939D01*
X33682783Y-84551939D02*
X33102749Y-84551939D01*
X33102749Y-84551939D02*
X32812732Y-84321767D01*
X32812732Y-84321767D02*
X32522714Y-83861422D01*
X32522714Y-83861422D02*
X32377706Y-82940732D01*
X32377706Y-82940732D02*
X32377706Y-81329526D01*
X32377706Y-81329526D02*
X32522714Y-80408836D01*
X32522714Y-80408836D02*
X32812732Y-79948491D01*
X32812732Y-79948491D02*
X33102749Y-79718319D01*
X37162989Y-84551939D02*
X35712903Y-84551939D01*
X35712903Y-84551939D02*
X35712903Y-79718319D01*
X38178049Y-84551939D02*
X38178049Y-79718319D01*
X39628135Y-84551939D02*
X39628135Y-79718319D01*
X39628135Y-79718319D02*
X40353178Y-79718319D01*
X40353178Y-79718319D02*
X40788204Y-79948491D01*
X40788204Y-79948491D02*
X41078221Y-80408836D01*
X41078221Y-80408836D02*
X41223230Y-80869181D01*
X41223230Y-80869181D02*
X41368238Y-81789870D01*
X41368238Y-81789870D02*
X41368238Y-82480387D01*
X41368238Y-82480387D02*
X41223230Y-83401077D01*
X41223230Y-83401077D02*
X41078221Y-83861422D01*
X41078221Y-83861422D02*
X40788204Y-84321767D01*
X40788204Y-84321767D02*
X40353178Y-84551939D01*
X40353178Y-84551939D02*
X39628135Y-84551939D01*
X42383298Y-79718319D02*
X43108341Y-84551939D01*
X43108341Y-84551939D02*
X43688375Y-81099353D01*
X43688375Y-81099353D02*
X44268410Y-84551939D01*
X44268410Y-84551939D02*
X44993453Y-79718319D01*
X46733556Y-79718319D02*
X47313590Y-79718319D01*
X47313590Y-79718319D02*
X47603607Y-79948491D01*
X47603607Y-79948491D02*
X47893624Y-80408836D01*
X47893624Y-80408836D02*
X48038633Y-81329526D01*
X48038633Y-81329526D02*
X48038633Y-82940732D01*
X48038633Y-82940732D02*
X47893624Y-83861422D01*
X47893624Y-83861422D02*
X47603607Y-84321767D01*
X47603607Y-84321767D02*
X47313590Y-84551939D01*
X47313590Y-84551939D02*
X46733556Y-84551939D01*
X46733556Y-84551939D02*
X46443539Y-84321767D01*
X46443539Y-84321767D02*
X46153521Y-83861422D01*
X46153521Y-83861422D02*
X46008513Y-82940732D01*
X46008513Y-82940732D02*
X46008513Y-81329526D01*
X46008513Y-81329526D02*
X46153521Y-80408836D01*
X46153521Y-80408836D02*
X46443539Y-79948491D01*
X46443539Y-79948491D02*
X46733556Y-79718319D01*
X51083813Y-84551939D02*
X50068753Y-82250215D01*
X49343710Y-84551939D02*
X49343710Y-79718319D01*
X49343710Y-79718319D02*
X50503779Y-79718319D01*
X50503779Y-79718319D02*
X50793796Y-79948491D01*
X50793796Y-79948491D02*
X50938805Y-80178664D01*
X50938805Y-80178664D02*
X51083813Y-80639008D01*
X51083813Y-80639008D02*
X51083813Y-81329526D01*
X51083813Y-81329526D02*
X50938805Y-81789870D01*
X50938805Y-81789870D02*
X50793796Y-82020043D01*
X50793796Y-82020043D02*
X50503779Y-82250215D01*
X50503779Y-82250215D02*
X49343710Y-82250215D01*
X52388890Y-84551939D02*
X52388890Y-79718319D01*
X54128993Y-84551939D02*
X52823916Y-81789870D01*
X54128993Y-79718319D02*
X52388890Y-82480387D01*
X55289062Y-84321767D02*
X55724088Y-84551939D01*
X55724088Y-84551939D02*
X56449130Y-84551939D01*
X56449130Y-84551939D02*
X56739148Y-84321767D01*
X56739148Y-84321767D02*
X56884156Y-84091594D01*
X56884156Y-84091594D02*
X57029165Y-83631249D01*
X57029165Y-83631249D02*
X57029165Y-83170905D01*
X57029165Y-83170905D02*
X56884156Y-82710560D01*
X56884156Y-82710560D02*
X56739148Y-82480387D01*
X56739148Y-82480387D02*
X56449130Y-82250215D01*
X56449130Y-82250215D02*
X55869096Y-82020043D01*
X55869096Y-82020043D02*
X55579079Y-81789870D01*
X55579079Y-81789870D02*
X55434070Y-81559698D01*
X55434070Y-81559698D02*
X55289062Y-81099353D01*
X55289062Y-81099353D02*
X55289062Y-80639008D01*
X55289062Y-80639008D02*
X55434070Y-80178664D01*
X55434070Y-80178664D02*
X55579079Y-79948491D01*
X55579079Y-79948491D02*
X55869096Y-79718319D01*
X55869096Y-79718319D02*
X56594139Y-79718319D01*
X56594139Y-79718319D02*
X57029165Y-79948491D01*
X60654378Y-84551939D02*
X60654378Y-79718319D01*
X60654378Y-79718319D02*
X61669438Y-83170905D01*
X61669438Y-83170905D02*
X62684498Y-79718319D01*
X62684498Y-79718319D02*
X62684498Y-84551939D01*
X65439662Y-84551939D02*
X65439662Y-82020043D01*
X65439662Y-82020043D02*
X65294653Y-81559698D01*
X65294653Y-81559698D02*
X65004636Y-81329526D01*
X65004636Y-81329526D02*
X64424602Y-81329526D01*
X64424602Y-81329526D02*
X64134584Y-81559698D01*
X65439662Y-84321767D02*
X65149644Y-84551939D01*
X65149644Y-84551939D02*
X64424602Y-84551939D01*
X64424602Y-84551939D02*
X64134584Y-84321767D01*
X64134584Y-84321767D02*
X63989576Y-83861422D01*
X63989576Y-83861422D02*
X63989576Y-83401077D01*
X63989576Y-83401077D02*
X64134584Y-82940732D01*
X64134584Y-82940732D02*
X64424602Y-82710560D01*
X64424602Y-82710560D02*
X65149644Y-82710560D01*
X65149644Y-82710560D02*
X65439662Y-82480387D01*
X66889747Y-84551939D02*
X66889747Y-79718319D01*
X67179765Y-82710560D02*
X68049816Y-84551939D01*
X68049816Y-81329526D02*
X66889747Y-83170905D01*
X70514962Y-84321767D02*
X70224945Y-84551939D01*
X70224945Y-84551939D02*
X69644911Y-84551939D01*
X69644911Y-84551939D02*
X69354893Y-84321767D01*
X69354893Y-84321767D02*
X69209885Y-83861422D01*
X69209885Y-83861422D02*
X69209885Y-82020043D01*
X69209885Y-82020043D02*
X69354893Y-81559698D01*
X69354893Y-81559698D02*
X69644911Y-81329526D01*
X69644911Y-81329526D02*
X70224945Y-81329526D01*
X70224945Y-81329526D02*
X70514962Y-81559698D01*
X70514962Y-81559698D02*
X70659971Y-82020043D01*
X70659971Y-82020043D02*
X70659971Y-82480387D01*
X70659971Y-82480387D02*
X69209885Y-82940732D01*
X71965047Y-84551939D02*
X71965047Y-81329526D01*
X71965047Y-82250215D02*
X72110056Y-81789870D01*
X72110056Y-81789870D02*
X72255065Y-81559698D01*
X72255065Y-81559698D02*
X72545082Y-81329526D01*
X72545082Y-81329526D02*
X72835099Y-81329526D01*
X76170295Y-84551939D02*
X76170295Y-79718319D01*
X76170295Y-79718319D02*
X77330364Y-79718319D01*
X77330364Y-79718319D02*
X77620381Y-79948491D01*
X77620381Y-79948491D02*
X77765390Y-80178664D01*
X77765390Y-80178664D02*
X77910398Y-80639008D01*
X77910398Y-80639008D02*
X77910398Y-81329526D01*
X77910398Y-81329526D02*
X77765390Y-81789870D01*
X77765390Y-81789870D02*
X77620381Y-82020043D01*
X77620381Y-82020043D02*
X77330364Y-82250215D01*
X77330364Y-82250215D02*
X76170295Y-82250215D01*
X79215475Y-84551939D02*
X79215475Y-81329526D01*
X79215475Y-82250215D02*
X79360484Y-81789870D01*
X79360484Y-81789870D02*
X79505493Y-81559698D01*
X79505493Y-81559698D02*
X79795510Y-81329526D01*
X79795510Y-81329526D02*
X80085527Y-81329526D01*
X81535612Y-84551939D02*
X81245595Y-84321767D01*
X81245595Y-84321767D02*
X81100586Y-84091594D01*
X81100586Y-84091594D02*
X80955578Y-83631249D01*
X80955578Y-83631249D02*
X80955578Y-82250215D01*
X80955578Y-82250215D02*
X81100586Y-81789870D01*
X81100586Y-81789870D02*
X81245595Y-81559698D01*
X81245595Y-81559698D02*
X81535612Y-81329526D01*
X81535612Y-81329526D02*
X81970638Y-81329526D01*
X81970638Y-81329526D02*
X82260655Y-81559698D01*
X82260655Y-81559698D02*
X82405664Y-81789870D01*
X82405664Y-81789870D02*
X82550672Y-82250215D01*
X82550672Y-82250215D02*
X82550672Y-83631249D01*
X82550672Y-83631249D02*
X82405664Y-84091594D01*
X82405664Y-84091594D02*
X82260655Y-84321767D01*
X82260655Y-84321767D02*
X81970638Y-84551939D01*
X81970638Y-84551939D02*
X81535612Y-84551939D01*
X85160827Y-84551939D02*
X85160827Y-79718319D01*
X85160827Y-84321767D02*
X84870809Y-84551939D01*
X84870809Y-84551939D02*
X84290775Y-84551939D01*
X84290775Y-84551939D02*
X84000758Y-84321767D01*
X84000758Y-84321767D02*
X83855749Y-84091594D01*
X83855749Y-84091594D02*
X83710741Y-83631249D01*
X83710741Y-83631249D02*
X83710741Y-82250215D01*
X83710741Y-82250215D02*
X83855749Y-81789870D01*
X83855749Y-81789870D02*
X84000758Y-81559698D01*
X84000758Y-81559698D02*
X84290775Y-81329526D01*
X84290775Y-81329526D02*
X84870809Y-81329526D01*
X84870809Y-81329526D02*
X85160827Y-81559698D01*
X87915990Y-81329526D02*
X87915990Y-84551939D01*
X86610912Y-81329526D02*
X86610912Y-83861422D01*
X86610912Y-83861422D02*
X86755921Y-84321767D01*
X86755921Y-84321767D02*
X87045938Y-84551939D01*
X87045938Y-84551939D02*
X87480964Y-84551939D01*
X87480964Y-84551939D02*
X87770981Y-84321767D01*
X87770981Y-84321767D02*
X87915990Y-84091594D01*
X90671153Y-84321767D02*
X90381135Y-84551939D01*
X90381135Y-84551939D02*
X89801101Y-84551939D01*
X89801101Y-84551939D02*
X89511084Y-84321767D01*
X89511084Y-84321767D02*
X89366075Y-84091594D01*
X89366075Y-84091594D02*
X89221067Y-83631249D01*
X89221067Y-83631249D02*
X89221067Y-82250215D01*
X89221067Y-82250215D02*
X89366075Y-81789870D01*
X89366075Y-81789870D02*
X89511084Y-81559698D01*
X89511084Y-81559698D02*
X89801101Y-81329526D01*
X89801101Y-81329526D02*
X90381135Y-81329526D01*
X90381135Y-81329526D02*
X90671153Y-81559698D01*
X91541204Y-81329526D02*
X92701272Y-81329526D01*
X91976229Y-79718319D02*
X91976229Y-83861422D01*
X91976229Y-83861422D02*
X92121238Y-84321767D01*
X92121238Y-84321767D02*
X92411255Y-84551939D01*
X92411255Y-84551939D02*
X92701272Y-84551939D01*
X93716332Y-84091594D02*
X93861341Y-84321767D01*
X93861341Y-84321767D02*
X93716332Y-84551939D01*
X93716332Y-84551939D02*
X93571324Y-84321767D01*
X93571324Y-84321767D02*
X93716332Y-84091594D01*
X93716332Y-84091594D02*
X93716332Y-84551939D01*
M02*
