%TF.GenerationSoftware,KiCad,Pcbnew,8.0.6+1*%
%TF.CreationDate,2025-01-07T07:54:39+00:00*%
%TF.ProjectId,gshps,67736870-732e-46b6-9963-61645f706362,B*%
%TF.SameCoordinates,Original*%
%TF.FileFunction,Drillmap*%
%TF.FilePolarity,Positive*%
%FSLAX45Y45*%
G04 Gerber Fmt 4.5, Leading zero omitted, Abs format (unit mm)*
G04 Created by KiCad (PCBNEW 8.0.6+1) date 2025-01-07 07:54:39*
%MOMM*%
%LPD*%
G01*
G04 APERTURE LIST*
%ADD10C,0.100000*%
%ADD11C,0.200000*%
%ADD12C,0.270000*%
G04 APERTURE END LIST*
D10*
X4300000Y-5900000D02*
X6350000Y-5900000D01*
X10750000Y-2350000D02*
G75*
G02*
X11850000Y-3450000I0J-1100000D01*
G01*
X11850000Y-6750000D02*
G75*
G02*
X10750000Y-7850000I-1100000J0D01*
G01*
X3950000Y-7850000D02*
G75*
G02*
X2850000Y-6750000I0J1100000D01*
G01*
X4100000Y-7850000D02*
X4100000Y-6100000D01*
X4100000Y-6100000D02*
G75*
G02*
X4300000Y-5900000I200000J0D01*
G01*
X10750000Y-7850000D02*
X6550000Y-7850000D01*
X3950000Y-2350000D02*
X10750000Y-2350000D01*
X4100000Y-7850000D02*
X3950000Y-7850000D01*
X2850000Y-6750000D02*
X2850000Y-3450000D01*
X6550000Y-7850000D02*
X6550000Y-6100000D01*
X2850000Y-3450000D02*
G75*
G02*
X3950000Y-2350000I1100000J0D01*
G01*
X6350000Y-5900000D02*
G75*
G02*
X6550000Y-6100000I0J-200000D01*
G01*
X11850000Y-3450000D02*
X11850000Y-6750000D01*
D11*
D10*
X3454500Y-5621000D02*
X3512500Y-5679000D01*
X3512500Y-5621000D02*
X3454500Y-5679000D01*
X3512500Y-5671000D02*
X3512500Y-5629000D01*
X3454500Y-5629000D02*
G75*
G02*
X3512500Y-5629000I29000J0D01*
G01*
X3454500Y-5629000D02*
X3454500Y-5671000D01*
X3454500Y-5671000D02*
G75*
G03*
X3512500Y-5671000I29000J0D01*
G01*
X3516500Y-6400000D02*
G75*
G02*
X3450500Y-6400000I-33000J0D01*
G01*
X3450500Y-6400000D02*
G75*
G02*
X3516500Y-6400000I33000J0D01*
G01*
D12*
X3500000Y-2865000D02*
X3500000Y-3135000D01*
X3365000Y-3000000D02*
X3635000Y-3000000D01*
X3500000Y-7065000D02*
X3500000Y-7335000D01*
X3365000Y-7200000D02*
X3635000Y-7200000D01*
X11200000Y-2865000D02*
X11200000Y-3135000D01*
X11065000Y-3000000D02*
X11335000Y-3000000D01*
X11200000Y-7065000D02*
X11200000Y-7335000D01*
X11065000Y-7200000D02*
X11335000Y-7200000D01*
D11*
X3105777Y-8166484D02*
X3105777Y-7966484D01*
X3105777Y-7966484D02*
X3153396Y-7966484D01*
X3153396Y-7966484D02*
X3181967Y-7976008D01*
X3181967Y-7976008D02*
X3201015Y-7995055D01*
X3201015Y-7995055D02*
X3210539Y-8014103D01*
X3210539Y-8014103D02*
X3220062Y-8052198D01*
X3220062Y-8052198D02*
X3220062Y-8080769D01*
X3220062Y-8080769D02*
X3210539Y-8118865D01*
X3210539Y-8118865D02*
X3201015Y-8137912D01*
X3201015Y-8137912D02*
X3181967Y-8156960D01*
X3181967Y-8156960D02*
X3153396Y-8166484D01*
X3153396Y-8166484D02*
X3105777Y-8166484D01*
X3305777Y-8166484D02*
X3305777Y-8033150D01*
X3305777Y-8071246D02*
X3315301Y-8052198D01*
X3315301Y-8052198D02*
X3324824Y-8042674D01*
X3324824Y-8042674D02*
X3343872Y-8033150D01*
X3343872Y-8033150D02*
X3362920Y-8033150D01*
X3429586Y-8166484D02*
X3429586Y-8033150D01*
X3429586Y-7966484D02*
X3420062Y-7976008D01*
X3420062Y-7976008D02*
X3429586Y-7985531D01*
X3429586Y-7985531D02*
X3439110Y-7976008D01*
X3439110Y-7976008D02*
X3429586Y-7966484D01*
X3429586Y-7966484D02*
X3429586Y-7985531D01*
X3553396Y-8166484D02*
X3534348Y-8156960D01*
X3534348Y-8156960D02*
X3524824Y-8137912D01*
X3524824Y-8137912D02*
X3524824Y-7966484D01*
X3658158Y-8166484D02*
X3639110Y-8156960D01*
X3639110Y-8156960D02*
X3629586Y-8137912D01*
X3629586Y-8137912D02*
X3629586Y-7966484D01*
X3886729Y-8166484D02*
X3886729Y-7966484D01*
X3886729Y-7966484D02*
X3953396Y-8109341D01*
X3953396Y-8109341D02*
X4020062Y-7966484D01*
X4020062Y-7966484D02*
X4020062Y-8166484D01*
X4201015Y-8166484D02*
X4201015Y-8061722D01*
X4201015Y-8061722D02*
X4191491Y-8042674D01*
X4191491Y-8042674D02*
X4172443Y-8033150D01*
X4172443Y-8033150D02*
X4134348Y-8033150D01*
X4134348Y-8033150D02*
X4115301Y-8042674D01*
X4201015Y-8156960D02*
X4181967Y-8166484D01*
X4181967Y-8166484D02*
X4134348Y-8166484D01*
X4134348Y-8166484D02*
X4115301Y-8156960D01*
X4115301Y-8156960D02*
X4105777Y-8137912D01*
X4105777Y-8137912D02*
X4105777Y-8118865D01*
X4105777Y-8118865D02*
X4115301Y-8099817D01*
X4115301Y-8099817D02*
X4134348Y-8090293D01*
X4134348Y-8090293D02*
X4181967Y-8090293D01*
X4181967Y-8090293D02*
X4201015Y-8080769D01*
X4296253Y-8033150D02*
X4296253Y-8233150D01*
X4296253Y-8042674D02*
X4315301Y-8033150D01*
X4315301Y-8033150D02*
X4353396Y-8033150D01*
X4353396Y-8033150D02*
X4372444Y-8042674D01*
X4372444Y-8042674D02*
X4381967Y-8052198D01*
X4381967Y-8052198D02*
X4391491Y-8071246D01*
X4391491Y-8071246D02*
X4391491Y-8128388D01*
X4391491Y-8128388D02*
X4381967Y-8147436D01*
X4381967Y-8147436D02*
X4372444Y-8156960D01*
X4372444Y-8156960D02*
X4353396Y-8166484D01*
X4353396Y-8166484D02*
X4315301Y-8166484D01*
X4315301Y-8166484D02*
X4296253Y-8156960D01*
X4477205Y-8147436D02*
X4486729Y-8156960D01*
X4486729Y-8156960D02*
X4477205Y-8166484D01*
X4477205Y-8166484D02*
X4467682Y-8156960D01*
X4467682Y-8156960D02*
X4477205Y-8147436D01*
X4477205Y-8147436D02*
X4477205Y-8166484D01*
X4477205Y-8042674D02*
X4486729Y-8052198D01*
X4486729Y-8052198D02*
X4477205Y-8061722D01*
X4477205Y-8061722D02*
X4467682Y-8052198D01*
X4467682Y-8052198D02*
X4477205Y-8042674D01*
X4477205Y-8042674D02*
X4477205Y-8061722D01*
D10*
X2787000Y-8466000D02*
X2845000Y-8524000D01*
X2845000Y-8466000D02*
X2787000Y-8524000D01*
D11*
X3143872Y-8386484D02*
X3162920Y-8386484D01*
X3162920Y-8386484D02*
X3181967Y-8396008D01*
X3181967Y-8396008D02*
X3191491Y-8405531D01*
X3191491Y-8405531D02*
X3201015Y-8424579D01*
X3201015Y-8424579D02*
X3210539Y-8462674D01*
X3210539Y-8462674D02*
X3210539Y-8510293D01*
X3210539Y-8510293D02*
X3201015Y-8548389D01*
X3201015Y-8548389D02*
X3191491Y-8567436D01*
X3191491Y-8567436D02*
X3181967Y-8576960D01*
X3181967Y-8576960D02*
X3162920Y-8586484D01*
X3162920Y-8586484D02*
X3143872Y-8586484D01*
X3143872Y-8586484D02*
X3124824Y-8576960D01*
X3124824Y-8576960D02*
X3115301Y-8567436D01*
X3115301Y-8567436D02*
X3105777Y-8548389D01*
X3105777Y-8548389D02*
X3096253Y-8510293D01*
X3096253Y-8510293D02*
X3096253Y-8462674D01*
X3096253Y-8462674D02*
X3105777Y-8424579D01*
X3105777Y-8424579D02*
X3115301Y-8405531D01*
X3115301Y-8405531D02*
X3124824Y-8396008D01*
X3124824Y-8396008D02*
X3143872Y-8386484D01*
X3296253Y-8567436D02*
X3305777Y-8576960D01*
X3305777Y-8576960D02*
X3296253Y-8586484D01*
X3296253Y-8586484D02*
X3286729Y-8576960D01*
X3286729Y-8576960D02*
X3296253Y-8567436D01*
X3296253Y-8567436D02*
X3296253Y-8586484D01*
X3486729Y-8386484D02*
X3391491Y-8386484D01*
X3391491Y-8386484D02*
X3381967Y-8481722D01*
X3381967Y-8481722D02*
X3391491Y-8472198D01*
X3391491Y-8472198D02*
X3410539Y-8462674D01*
X3410539Y-8462674D02*
X3458158Y-8462674D01*
X3458158Y-8462674D02*
X3477205Y-8472198D01*
X3477205Y-8472198D02*
X3486729Y-8481722D01*
X3486729Y-8481722D02*
X3496253Y-8500770D01*
X3496253Y-8500770D02*
X3496253Y-8548389D01*
X3496253Y-8548389D02*
X3486729Y-8567436D01*
X3486729Y-8567436D02*
X3477205Y-8576960D01*
X3477205Y-8576960D02*
X3458158Y-8586484D01*
X3458158Y-8586484D02*
X3410539Y-8586484D01*
X3410539Y-8586484D02*
X3391491Y-8576960D01*
X3391491Y-8576960D02*
X3381967Y-8567436D01*
X3610539Y-8472198D02*
X3591491Y-8462674D01*
X3591491Y-8462674D02*
X3581967Y-8453150D01*
X3581967Y-8453150D02*
X3572443Y-8434103D01*
X3572443Y-8434103D02*
X3572443Y-8424579D01*
X3572443Y-8424579D02*
X3581967Y-8405531D01*
X3581967Y-8405531D02*
X3591491Y-8396008D01*
X3591491Y-8396008D02*
X3610539Y-8386484D01*
X3610539Y-8386484D02*
X3648634Y-8386484D01*
X3648634Y-8386484D02*
X3667682Y-8396008D01*
X3667682Y-8396008D02*
X3677205Y-8405531D01*
X3677205Y-8405531D02*
X3686729Y-8424579D01*
X3686729Y-8424579D02*
X3686729Y-8434103D01*
X3686729Y-8434103D02*
X3677205Y-8453150D01*
X3677205Y-8453150D02*
X3667682Y-8462674D01*
X3667682Y-8462674D02*
X3648634Y-8472198D01*
X3648634Y-8472198D02*
X3610539Y-8472198D01*
X3610539Y-8472198D02*
X3591491Y-8481722D01*
X3591491Y-8481722D02*
X3581967Y-8491246D01*
X3581967Y-8491246D02*
X3572443Y-8510293D01*
X3572443Y-8510293D02*
X3572443Y-8548389D01*
X3572443Y-8548389D02*
X3581967Y-8567436D01*
X3581967Y-8567436D02*
X3591491Y-8576960D01*
X3591491Y-8576960D02*
X3610539Y-8586484D01*
X3610539Y-8586484D02*
X3648634Y-8586484D01*
X3648634Y-8586484D02*
X3667682Y-8576960D01*
X3667682Y-8576960D02*
X3677205Y-8567436D01*
X3677205Y-8567436D02*
X3686729Y-8548389D01*
X3686729Y-8548389D02*
X3686729Y-8510293D01*
X3686729Y-8510293D02*
X3677205Y-8491246D01*
X3677205Y-8491246D02*
X3667682Y-8481722D01*
X3667682Y-8481722D02*
X3648634Y-8472198D01*
X3810539Y-8386484D02*
X3829586Y-8386484D01*
X3829586Y-8386484D02*
X3848634Y-8396008D01*
X3848634Y-8396008D02*
X3858158Y-8405531D01*
X3858158Y-8405531D02*
X3867682Y-8424579D01*
X3867682Y-8424579D02*
X3877205Y-8462674D01*
X3877205Y-8462674D02*
X3877205Y-8510293D01*
X3877205Y-8510293D02*
X3867682Y-8548389D01*
X3867682Y-8548389D02*
X3858158Y-8567436D01*
X3858158Y-8567436D02*
X3848634Y-8576960D01*
X3848634Y-8576960D02*
X3829586Y-8586484D01*
X3829586Y-8586484D02*
X3810539Y-8586484D01*
X3810539Y-8586484D02*
X3791491Y-8576960D01*
X3791491Y-8576960D02*
X3781967Y-8567436D01*
X3781967Y-8567436D02*
X3772443Y-8548389D01*
X3772443Y-8548389D02*
X3762920Y-8510293D01*
X3762920Y-8510293D02*
X3762920Y-8462674D01*
X3762920Y-8462674D02*
X3772443Y-8424579D01*
X3772443Y-8424579D02*
X3781967Y-8405531D01*
X3781967Y-8405531D02*
X3791491Y-8396008D01*
X3791491Y-8396008D02*
X3810539Y-8386484D01*
X3962920Y-8586484D02*
X3962920Y-8453150D01*
X3962920Y-8472198D02*
X3972443Y-8462674D01*
X3972443Y-8462674D02*
X3991491Y-8453150D01*
X3991491Y-8453150D02*
X4020063Y-8453150D01*
X4020063Y-8453150D02*
X4039110Y-8462674D01*
X4039110Y-8462674D02*
X4048634Y-8481722D01*
X4048634Y-8481722D02*
X4048634Y-8586484D01*
X4048634Y-8481722D02*
X4058158Y-8462674D01*
X4058158Y-8462674D02*
X4077205Y-8453150D01*
X4077205Y-8453150D02*
X4105777Y-8453150D01*
X4105777Y-8453150D02*
X4124824Y-8462674D01*
X4124824Y-8462674D02*
X4134348Y-8481722D01*
X4134348Y-8481722D02*
X4134348Y-8586484D01*
X4229586Y-8586484D02*
X4229586Y-8453150D01*
X4229586Y-8472198D02*
X4239110Y-8462674D01*
X4239110Y-8462674D02*
X4258158Y-8453150D01*
X4258158Y-8453150D02*
X4286729Y-8453150D01*
X4286729Y-8453150D02*
X4305777Y-8462674D01*
X4305777Y-8462674D02*
X4315301Y-8481722D01*
X4315301Y-8481722D02*
X4315301Y-8586484D01*
X4315301Y-8481722D02*
X4324825Y-8462674D01*
X4324825Y-8462674D02*
X4343872Y-8453150D01*
X4343872Y-8453150D02*
X4372444Y-8453150D01*
X4372444Y-8453150D02*
X4391491Y-8462674D01*
X4391491Y-8462674D02*
X4401015Y-8481722D01*
X4401015Y-8481722D02*
X4401015Y-8586484D01*
X4791491Y-8376960D02*
X4620063Y-8634103D01*
X5048634Y-8386484D02*
X5067682Y-8386484D01*
X5067682Y-8386484D02*
X5086729Y-8396008D01*
X5086729Y-8396008D02*
X5096253Y-8405531D01*
X5096253Y-8405531D02*
X5105777Y-8424579D01*
X5105777Y-8424579D02*
X5115301Y-8462674D01*
X5115301Y-8462674D02*
X5115301Y-8510293D01*
X5115301Y-8510293D02*
X5105777Y-8548389D01*
X5105777Y-8548389D02*
X5096253Y-8567436D01*
X5096253Y-8567436D02*
X5086729Y-8576960D01*
X5086729Y-8576960D02*
X5067682Y-8586484D01*
X5067682Y-8586484D02*
X5048634Y-8586484D01*
X5048634Y-8586484D02*
X5029587Y-8576960D01*
X5029587Y-8576960D02*
X5020063Y-8567436D01*
X5020063Y-8567436D02*
X5010539Y-8548389D01*
X5010539Y-8548389D02*
X5001015Y-8510293D01*
X5001015Y-8510293D02*
X5001015Y-8462674D01*
X5001015Y-8462674D02*
X5010539Y-8424579D01*
X5010539Y-8424579D02*
X5020063Y-8405531D01*
X5020063Y-8405531D02*
X5029587Y-8396008D01*
X5029587Y-8396008D02*
X5048634Y-8386484D01*
X5201015Y-8567436D02*
X5210539Y-8576960D01*
X5210539Y-8576960D02*
X5201015Y-8586484D01*
X5201015Y-8586484D02*
X5191491Y-8576960D01*
X5191491Y-8576960D02*
X5201015Y-8567436D01*
X5201015Y-8567436D02*
X5201015Y-8586484D01*
X5334348Y-8386484D02*
X5353396Y-8386484D01*
X5353396Y-8386484D02*
X5372444Y-8396008D01*
X5372444Y-8396008D02*
X5381968Y-8405531D01*
X5381968Y-8405531D02*
X5391491Y-8424579D01*
X5391491Y-8424579D02*
X5401015Y-8462674D01*
X5401015Y-8462674D02*
X5401015Y-8510293D01*
X5401015Y-8510293D02*
X5391491Y-8548389D01*
X5391491Y-8548389D02*
X5381968Y-8567436D01*
X5381968Y-8567436D02*
X5372444Y-8576960D01*
X5372444Y-8576960D02*
X5353396Y-8586484D01*
X5353396Y-8586484D02*
X5334348Y-8586484D01*
X5334348Y-8586484D02*
X5315301Y-8576960D01*
X5315301Y-8576960D02*
X5305777Y-8567436D01*
X5305777Y-8567436D02*
X5296253Y-8548389D01*
X5296253Y-8548389D02*
X5286729Y-8510293D01*
X5286729Y-8510293D02*
X5286729Y-8462674D01*
X5286729Y-8462674D02*
X5296253Y-8424579D01*
X5296253Y-8424579D02*
X5305777Y-8405531D01*
X5305777Y-8405531D02*
X5315301Y-8396008D01*
X5315301Y-8396008D02*
X5334348Y-8386484D01*
X5477206Y-8405531D02*
X5486729Y-8396008D01*
X5486729Y-8396008D02*
X5505777Y-8386484D01*
X5505777Y-8386484D02*
X5553396Y-8386484D01*
X5553396Y-8386484D02*
X5572444Y-8396008D01*
X5572444Y-8396008D02*
X5581968Y-8405531D01*
X5581968Y-8405531D02*
X5591491Y-8424579D01*
X5591491Y-8424579D02*
X5591491Y-8443627D01*
X5591491Y-8443627D02*
X5581968Y-8472198D01*
X5581968Y-8472198D02*
X5467682Y-8586484D01*
X5467682Y-8586484D02*
X5591491Y-8586484D01*
X5667682Y-8405531D02*
X5677206Y-8396008D01*
X5677206Y-8396008D02*
X5696253Y-8386484D01*
X5696253Y-8386484D02*
X5743872Y-8386484D01*
X5743872Y-8386484D02*
X5762920Y-8396008D01*
X5762920Y-8396008D02*
X5772444Y-8405531D01*
X5772444Y-8405531D02*
X5781967Y-8424579D01*
X5781967Y-8424579D02*
X5781967Y-8443627D01*
X5781967Y-8443627D02*
X5772444Y-8472198D01*
X5772444Y-8472198D02*
X5658158Y-8586484D01*
X5658158Y-8586484D02*
X5781967Y-8586484D01*
X5896253Y-8472198D02*
X5877206Y-8462674D01*
X5877206Y-8462674D02*
X5867682Y-8453150D01*
X5867682Y-8453150D02*
X5858158Y-8434103D01*
X5858158Y-8434103D02*
X5858158Y-8424579D01*
X5858158Y-8424579D02*
X5867682Y-8405531D01*
X5867682Y-8405531D02*
X5877206Y-8396008D01*
X5877206Y-8396008D02*
X5896253Y-8386484D01*
X5896253Y-8386484D02*
X5934348Y-8386484D01*
X5934348Y-8386484D02*
X5953396Y-8396008D01*
X5953396Y-8396008D02*
X5962920Y-8405531D01*
X5962920Y-8405531D02*
X5972444Y-8424579D01*
X5972444Y-8424579D02*
X5972444Y-8434103D01*
X5972444Y-8434103D02*
X5962920Y-8453150D01*
X5962920Y-8453150D02*
X5953396Y-8462674D01*
X5953396Y-8462674D02*
X5934348Y-8472198D01*
X5934348Y-8472198D02*
X5896253Y-8472198D01*
X5896253Y-8472198D02*
X5877206Y-8481722D01*
X5877206Y-8481722D02*
X5867682Y-8491246D01*
X5867682Y-8491246D02*
X5858158Y-8510293D01*
X5858158Y-8510293D02*
X5858158Y-8548389D01*
X5858158Y-8548389D02*
X5867682Y-8567436D01*
X5867682Y-8567436D02*
X5877206Y-8576960D01*
X5877206Y-8576960D02*
X5896253Y-8586484D01*
X5896253Y-8586484D02*
X5934348Y-8586484D01*
X5934348Y-8586484D02*
X5953396Y-8576960D01*
X5953396Y-8576960D02*
X5962920Y-8567436D01*
X5962920Y-8567436D02*
X5972444Y-8548389D01*
X5972444Y-8548389D02*
X5972444Y-8510293D01*
X5972444Y-8510293D02*
X5962920Y-8491246D01*
X5962920Y-8491246D02*
X5953396Y-8481722D01*
X5953396Y-8481722D02*
X5934348Y-8472198D01*
X6048634Y-8386484D02*
X6048634Y-8424579D01*
X6124825Y-8386484D02*
X6124825Y-8424579D01*
X6420063Y-8662674D02*
X6410539Y-8653150D01*
X6410539Y-8653150D02*
X6391491Y-8624579D01*
X6391491Y-8624579D02*
X6381968Y-8605531D01*
X6381968Y-8605531D02*
X6372444Y-8576960D01*
X6372444Y-8576960D02*
X6362920Y-8529341D01*
X6362920Y-8529341D02*
X6362920Y-8491246D01*
X6362920Y-8491246D02*
X6372444Y-8443627D01*
X6372444Y-8443627D02*
X6381968Y-8415055D01*
X6381968Y-8415055D02*
X6391491Y-8396008D01*
X6391491Y-8396008D02*
X6410539Y-8367436D01*
X6410539Y-8367436D02*
X6420063Y-8357912D01*
X6601015Y-8586484D02*
X6486729Y-8586484D01*
X6543872Y-8586484D02*
X6543872Y-8386484D01*
X6543872Y-8386484D02*
X6524825Y-8415055D01*
X6524825Y-8415055D02*
X6505777Y-8434103D01*
X6505777Y-8434103D02*
X6486729Y-8443627D01*
X6829587Y-8576960D02*
X6848634Y-8586484D01*
X6848634Y-8586484D02*
X6886729Y-8586484D01*
X6886729Y-8586484D02*
X6905777Y-8576960D01*
X6905777Y-8576960D02*
X6915301Y-8557912D01*
X6915301Y-8557912D02*
X6915301Y-8548389D01*
X6915301Y-8548389D02*
X6905777Y-8529341D01*
X6905777Y-8529341D02*
X6886729Y-8519817D01*
X6886729Y-8519817D02*
X6858158Y-8519817D01*
X6858158Y-8519817D02*
X6839110Y-8510293D01*
X6839110Y-8510293D02*
X6829587Y-8491246D01*
X6829587Y-8491246D02*
X6829587Y-8481722D01*
X6829587Y-8481722D02*
X6839110Y-8462674D01*
X6839110Y-8462674D02*
X6858158Y-8453150D01*
X6858158Y-8453150D02*
X6886729Y-8453150D01*
X6886729Y-8453150D02*
X6905777Y-8462674D01*
X7029587Y-8586484D02*
X7010539Y-8576960D01*
X7010539Y-8576960D02*
X7001015Y-8557912D01*
X7001015Y-8557912D02*
X7001015Y-8386484D01*
X7134349Y-8586484D02*
X7115301Y-8576960D01*
X7115301Y-8576960D02*
X7105777Y-8567436D01*
X7105777Y-8567436D02*
X7096253Y-8548389D01*
X7096253Y-8548389D02*
X7096253Y-8491246D01*
X7096253Y-8491246D02*
X7105777Y-8472198D01*
X7105777Y-8472198D02*
X7115301Y-8462674D01*
X7115301Y-8462674D02*
X7134349Y-8453150D01*
X7134349Y-8453150D02*
X7162920Y-8453150D01*
X7162920Y-8453150D02*
X7181968Y-8462674D01*
X7181968Y-8462674D02*
X7191491Y-8472198D01*
X7191491Y-8472198D02*
X7201015Y-8491246D01*
X7201015Y-8491246D02*
X7201015Y-8548389D01*
X7201015Y-8548389D02*
X7191491Y-8567436D01*
X7191491Y-8567436D02*
X7181968Y-8576960D01*
X7181968Y-8576960D02*
X7162920Y-8586484D01*
X7162920Y-8586484D02*
X7134349Y-8586484D01*
X7258158Y-8453150D02*
X7334349Y-8453150D01*
X7286730Y-8386484D02*
X7286730Y-8557912D01*
X7286730Y-8557912D02*
X7296253Y-8576960D01*
X7296253Y-8576960D02*
X7315301Y-8586484D01*
X7315301Y-8586484D02*
X7334349Y-8586484D01*
X7381968Y-8662674D02*
X7391491Y-8653150D01*
X7391491Y-8653150D02*
X7410539Y-8624579D01*
X7410539Y-8624579D02*
X7420063Y-8605531D01*
X7420063Y-8605531D02*
X7429587Y-8576960D01*
X7429587Y-8576960D02*
X7439110Y-8529341D01*
X7439110Y-8529341D02*
X7439110Y-8491246D01*
X7439110Y-8491246D02*
X7429587Y-8443627D01*
X7429587Y-8443627D02*
X7420063Y-8415055D01*
X7420063Y-8415055D02*
X7410539Y-8396008D01*
X7410539Y-8396008D02*
X7391491Y-8367436D01*
X7391491Y-8367436D02*
X7381968Y-8357912D01*
X7743872Y-8662674D02*
X7734349Y-8653150D01*
X7734349Y-8653150D02*
X7715301Y-8624579D01*
X7715301Y-8624579D02*
X7705777Y-8605531D01*
X7705777Y-8605531D02*
X7696253Y-8576960D01*
X7696253Y-8576960D02*
X7686730Y-8529341D01*
X7686730Y-8529341D02*
X7686730Y-8491246D01*
X7686730Y-8491246D02*
X7696253Y-8443627D01*
X7696253Y-8443627D02*
X7705777Y-8415055D01*
X7705777Y-8415055D02*
X7715301Y-8396008D01*
X7715301Y-8396008D02*
X7734349Y-8367436D01*
X7734349Y-8367436D02*
X7743872Y-8357912D01*
X7820063Y-8453150D02*
X7820063Y-8586484D01*
X7820063Y-8472198D02*
X7829587Y-8462674D01*
X7829587Y-8462674D02*
X7848634Y-8453150D01*
X7848634Y-8453150D02*
X7877206Y-8453150D01*
X7877206Y-8453150D02*
X7896253Y-8462674D01*
X7896253Y-8462674D02*
X7905777Y-8481722D01*
X7905777Y-8481722D02*
X7905777Y-8586484D01*
X8029587Y-8586484D02*
X8010539Y-8576960D01*
X8010539Y-8576960D02*
X8001015Y-8567436D01*
X8001015Y-8567436D02*
X7991491Y-8548389D01*
X7991491Y-8548389D02*
X7991491Y-8491246D01*
X7991491Y-8491246D02*
X8001015Y-8472198D01*
X8001015Y-8472198D02*
X8010539Y-8462674D01*
X8010539Y-8462674D02*
X8029587Y-8453150D01*
X8029587Y-8453150D02*
X8058158Y-8453150D01*
X8058158Y-8453150D02*
X8077206Y-8462674D01*
X8077206Y-8462674D02*
X8086730Y-8472198D01*
X8086730Y-8472198D02*
X8096253Y-8491246D01*
X8096253Y-8491246D02*
X8096253Y-8548389D01*
X8096253Y-8548389D02*
X8086730Y-8567436D01*
X8086730Y-8567436D02*
X8077206Y-8576960D01*
X8077206Y-8576960D02*
X8058158Y-8586484D01*
X8058158Y-8586484D02*
X8029587Y-8586484D01*
X8153396Y-8453150D02*
X8229587Y-8453150D01*
X8181968Y-8386484D02*
X8181968Y-8557912D01*
X8181968Y-8557912D02*
X8191491Y-8576960D01*
X8191491Y-8576960D02*
X8210539Y-8586484D01*
X8210539Y-8586484D02*
X8229587Y-8586484D01*
X8448634Y-8453150D02*
X8448634Y-8653150D01*
X8448634Y-8462674D02*
X8467682Y-8453150D01*
X8467682Y-8453150D02*
X8505777Y-8453150D01*
X8505777Y-8453150D02*
X8524825Y-8462674D01*
X8524825Y-8462674D02*
X8534349Y-8472198D01*
X8534349Y-8472198D02*
X8543873Y-8491246D01*
X8543873Y-8491246D02*
X8543873Y-8548389D01*
X8543873Y-8548389D02*
X8534349Y-8567436D01*
X8534349Y-8567436D02*
X8524825Y-8576960D01*
X8524825Y-8576960D02*
X8505777Y-8586484D01*
X8505777Y-8586484D02*
X8467682Y-8586484D01*
X8467682Y-8586484D02*
X8448634Y-8576960D01*
X8658158Y-8586484D02*
X8639111Y-8576960D01*
X8639111Y-8576960D02*
X8629587Y-8557912D01*
X8629587Y-8557912D02*
X8629587Y-8386484D01*
X8820063Y-8586484D02*
X8820063Y-8481722D01*
X8820063Y-8481722D02*
X8810539Y-8462674D01*
X8810539Y-8462674D02*
X8791492Y-8453150D01*
X8791492Y-8453150D02*
X8753396Y-8453150D01*
X8753396Y-8453150D02*
X8734349Y-8462674D01*
X8820063Y-8576960D02*
X8801015Y-8586484D01*
X8801015Y-8586484D02*
X8753396Y-8586484D01*
X8753396Y-8586484D02*
X8734349Y-8576960D01*
X8734349Y-8576960D02*
X8724825Y-8557912D01*
X8724825Y-8557912D02*
X8724825Y-8538865D01*
X8724825Y-8538865D02*
X8734349Y-8519817D01*
X8734349Y-8519817D02*
X8753396Y-8510293D01*
X8753396Y-8510293D02*
X8801015Y-8510293D01*
X8801015Y-8510293D02*
X8820063Y-8500770D01*
X8886730Y-8453150D02*
X8962920Y-8453150D01*
X8915301Y-8386484D02*
X8915301Y-8557912D01*
X8915301Y-8557912D02*
X8924825Y-8576960D01*
X8924825Y-8576960D02*
X8943873Y-8586484D01*
X8943873Y-8586484D02*
X8962920Y-8586484D01*
X9105777Y-8576960D02*
X9086730Y-8586484D01*
X9086730Y-8586484D02*
X9048634Y-8586484D01*
X9048634Y-8586484D02*
X9029587Y-8576960D01*
X9029587Y-8576960D02*
X9020063Y-8557912D01*
X9020063Y-8557912D02*
X9020063Y-8481722D01*
X9020063Y-8481722D02*
X9029587Y-8462674D01*
X9029587Y-8462674D02*
X9048634Y-8453150D01*
X9048634Y-8453150D02*
X9086730Y-8453150D01*
X9086730Y-8453150D02*
X9105777Y-8462674D01*
X9105777Y-8462674D02*
X9115301Y-8481722D01*
X9115301Y-8481722D02*
X9115301Y-8500770D01*
X9115301Y-8500770D02*
X9020063Y-8519817D01*
X9286730Y-8586484D02*
X9286730Y-8386484D01*
X9286730Y-8576960D02*
X9267682Y-8586484D01*
X9267682Y-8586484D02*
X9229587Y-8586484D01*
X9229587Y-8586484D02*
X9210539Y-8576960D01*
X9210539Y-8576960D02*
X9201015Y-8567436D01*
X9201015Y-8567436D02*
X9191492Y-8548389D01*
X9191492Y-8548389D02*
X9191492Y-8491246D01*
X9191492Y-8491246D02*
X9201015Y-8472198D01*
X9201015Y-8472198D02*
X9210539Y-8462674D01*
X9210539Y-8462674D02*
X9229587Y-8453150D01*
X9229587Y-8453150D02*
X9267682Y-8453150D01*
X9267682Y-8453150D02*
X9286730Y-8462674D01*
X9362920Y-8662674D02*
X9372444Y-8653150D01*
X9372444Y-8653150D02*
X9391492Y-8624579D01*
X9391492Y-8624579D02*
X9401015Y-8605531D01*
X9401015Y-8605531D02*
X9410539Y-8576960D01*
X9410539Y-8576960D02*
X9420063Y-8529341D01*
X9420063Y-8529341D02*
X9420063Y-8491246D01*
X9420063Y-8491246D02*
X9410539Y-8443627D01*
X9410539Y-8443627D02*
X9401015Y-8415055D01*
X9401015Y-8415055D02*
X9391492Y-8396008D01*
X9391492Y-8396008D02*
X9372444Y-8367436D01*
X9372444Y-8367436D02*
X9362920Y-8357912D01*
D10*
X2845000Y-8759000D02*
G75*
G02*
X2779000Y-8759000I-33000J0D01*
G01*
X2779000Y-8759000D02*
G75*
G02*
X2845000Y-8759000I33000J0D01*
G01*
D11*
X3143872Y-8650484D02*
X3162920Y-8650484D01*
X3162920Y-8650484D02*
X3181967Y-8660008D01*
X3181967Y-8660008D02*
X3191491Y-8669531D01*
X3191491Y-8669531D02*
X3201015Y-8688579D01*
X3201015Y-8688579D02*
X3210539Y-8726674D01*
X3210539Y-8726674D02*
X3210539Y-8774293D01*
X3210539Y-8774293D02*
X3201015Y-8812389D01*
X3201015Y-8812389D02*
X3191491Y-8831436D01*
X3191491Y-8831436D02*
X3181967Y-8840960D01*
X3181967Y-8840960D02*
X3162920Y-8850484D01*
X3162920Y-8850484D02*
X3143872Y-8850484D01*
X3143872Y-8850484D02*
X3124824Y-8840960D01*
X3124824Y-8840960D02*
X3115301Y-8831436D01*
X3115301Y-8831436D02*
X3105777Y-8812389D01*
X3105777Y-8812389D02*
X3096253Y-8774293D01*
X3096253Y-8774293D02*
X3096253Y-8726674D01*
X3096253Y-8726674D02*
X3105777Y-8688579D01*
X3105777Y-8688579D02*
X3115301Y-8669531D01*
X3115301Y-8669531D02*
X3124824Y-8660008D01*
X3124824Y-8660008D02*
X3143872Y-8650484D01*
X3296253Y-8831436D02*
X3305777Y-8840960D01*
X3305777Y-8840960D02*
X3296253Y-8850484D01*
X3296253Y-8850484D02*
X3286729Y-8840960D01*
X3286729Y-8840960D02*
X3296253Y-8831436D01*
X3296253Y-8831436D02*
X3296253Y-8850484D01*
X3477205Y-8650484D02*
X3439110Y-8650484D01*
X3439110Y-8650484D02*
X3420062Y-8660008D01*
X3420062Y-8660008D02*
X3410539Y-8669531D01*
X3410539Y-8669531D02*
X3391491Y-8698103D01*
X3391491Y-8698103D02*
X3381967Y-8736198D01*
X3381967Y-8736198D02*
X3381967Y-8812389D01*
X3381967Y-8812389D02*
X3391491Y-8831436D01*
X3391491Y-8831436D02*
X3401015Y-8840960D01*
X3401015Y-8840960D02*
X3420062Y-8850484D01*
X3420062Y-8850484D02*
X3458158Y-8850484D01*
X3458158Y-8850484D02*
X3477205Y-8840960D01*
X3477205Y-8840960D02*
X3486729Y-8831436D01*
X3486729Y-8831436D02*
X3496253Y-8812389D01*
X3496253Y-8812389D02*
X3496253Y-8764770D01*
X3496253Y-8764770D02*
X3486729Y-8745722D01*
X3486729Y-8745722D02*
X3477205Y-8736198D01*
X3477205Y-8736198D02*
X3458158Y-8726674D01*
X3458158Y-8726674D02*
X3420062Y-8726674D01*
X3420062Y-8726674D02*
X3401015Y-8736198D01*
X3401015Y-8736198D02*
X3391491Y-8745722D01*
X3391491Y-8745722D02*
X3381967Y-8764770D01*
X3667682Y-8650484D02*
X3629586Y-8650484D01*
X3629586Y-8650484D02*
X3610539Y-8660008D01*
X3610539Y-8660008D02*
X3601015Y-8669531D01*
X3601015Y-8669531D02*
X3581967Y-8698103D01*
X3581967Y-8698103D02*
X3572443Y-8736198D01*
X3572443Y-8736198D02*
X3572443Y-8812389D01*
X3572443Y-8812389D02*
X3581967Y-8831436D01*
X3581967Y-8831436D02*
X3591491Y-8840960D01*
X3591491Y-8840960D02*
X3610539Y-8850484D01*
X3610539Y-8850484D02*
X3648634Y-8850484D01*
X3648634Y-8850484D02*
X3667682Y-8840960D01*
X3667682Y-8840960D02*
X3677205Y-8831436D01*
X3677205Y-8831436D02*
X3686729Y-8812389D01*
X3686729Y-8812389D02*
X3686729Y-8764770D01*
X3686729Y-8764770D02*
X3677205Y-8745722D01*
X3677205Y-8745722D02*
X3667682Y-8736198D01*
X3667682Y-8736198D02*
X3648634Y-8726674D01*
X3648634Y-8726674D02*
X3610539Y-8726674D01*
X3610539Y-8726674D02*
X3591491Y-8736198D01*
X3591491Y-8736198D02*
X3581967Y-8745722D01*
X3581967Y-8745722D02*
X3572443Y-8764770D01*
X3810539Y-8650484D02*
X3829586Y-8650484D01*
X3829586Y-8650484D02*
X3848634Y-8660008D01*
X3848634Y-8660008D02*
X3858158Y-8669531D01*
X3858158Y-8669531D02*
X3867682Y-8688579D01*
X3867682Y-8688579D02*
X3877205Y-8726674D01*
X3877205Y-8726674D02*
X3877205Y-8774293D01*
X3877205Y-8774293D02*
X3867682Y-8812389D01*
X3867682Y-8812389D02*
X3858158Y-8831436D01*
X3858158Y-8831436D02*
X3848634Y-8840960D01*
X3848634Y-8840960D02*
X3829586Y-8850484D01*
X3829586Y-8850484D02*
X3810539Y-8850484D01*
X3810539Y-8850484D02*
X3791491Y-8840960D01*
X3791491Y-8840960D02*
X3781967Y-8831436D01*
X3781967Y-8831436D02*
X3772443Y-8812389D01*
X3772443Y-8812389D02*
X3762920Y-8774293D01*
X3762920Y-8774293D02*
X3762920Y-8726674D01*
X3762920Y-8726674D02*
X3772443Y-8688579D01*
X3772443Y-8688579D02*
X3781967Y-8669531D01*
X3781967Y-8669531D02*
X3791491Y-8660008D01*
X3791491Y-8660008D02*
X3810539Y-8650484D01*
X3962920Y-8850484D02*
X3962920Y-8717150D01*
X3962920Y-8736198D02*
X3972443Y-8726674D01*
X3972443Y-8726674D02*
X3991491Y-8717150D01*
X3991491Y-8717150D02*
X4020063Y-8717150D01*
X4020063Y-8717150D02*
X4039110Y-8726674D01*
X4039110Y-8726674D02*
X4048634Y-8745722D01*
X4048634Y-8745722D02*
X4048634Y-8850484D01*
X4048634Y-8745722D02*
X4058158Y-8726674D01*
X4058158Y-8726674D02*
X4077205Y-8717150D01*
X4077205Y-8717150D02*
X4105777Y-8717150D01*
X4105777Y-8717150D02*
X4124824Y-8726674D01*
X4124824Y-8726674D02*
X4134348Y-8745722D01*
X4134348Y-8745722D02*
X4134348Y-8850484D01*
X4229586Y-8850484D02*
X4229586Y-8717150D01*
X4229586Y-8736198D02*
X4239110Y-8726674D01*
X4239110Y-8726674D02*
X4258158Y-8717150D01*
X4258158Y-8717150D02*
X4286729Y-8717150D01*
X4286729Y-8717150D02*
X4305777Y-8726674D01*
X4305777Y-8726674D02*
X4315301Y-8745722D01*
X4315301Y-8745722D02*
X4315301Y-8850484D01*
X4315301Y-8745722D02*
X4324825Y-8726674D01*
X4324825Y-8726674D02*
X4343872Y-8717150D01*
X4343872Y-8717150D02*
X4372444Y-8717150D01*
X4372444Y-8717150D02*
X4391491Y-8726674D01*
X4391491Y-8726674D02*
X4401015Y-8745722D01*
X4401015Y-8745722D02*
X4401015Y-8850484D01*
X4791491Y-8640960D02*
X4620063Y-8898103D01*
X5048634Y-8650484D02*
X5067682Y-8650484D01*
X5067682Y-8650484D02*
X5086729Y-8660008D01*
X5086729Y-8660008D02*
X5096253Y-8669531D01*
X5096253Y-8669531D02*
X5105777Y-8688579D01*
X5105777Y-8688579D02*
X5115301Y-8726674D01*
X5115301Y-8726674D02*
X5115301Y-8774293D01*
X5115301Y-8774293D02*
X5105777Y-8812389D01*
X5105777Y-8812389D02*
X5096253Y-8831436D01*
X5096253Y-8831436D02*
X5086729Y-8840960D01*
X5086729Y-8840960D02*
X5067682Y-8850484D01*
X5067682Y-8850484D02*
X5048634Y-8850484D01*
X5048634Y-8850484D02*
X5029587Y-8840960D01*
X5029587Y-8840960D02*
X5020063Y-8831436D01*
X5020063Y-8831436D02*
X5010539Y-8812389D01*
X5010539Y-8812389D02*
X5001015Y-8774293D01*
X5001015Y-8774293D02*
X5001015Y-8726674D01*
X5001015Y-8726674D02*
X5010539Y-8688579D01*
X5010539Y-8688579D02*
X5020063Y-8669531D01*
X5020063Y-8669531D02*
X5029587Y-8660008D01*
X5029587Y-8660008D02*
X5048634Y-8650484D01*
X5201015Y-8831436D02*
X5210539Y-8840960D01*
X5210539Y-8840960D02*
X5201015Y-8850484D01*
X5201015Y-8850484D02*
X5191491Y-8840960D01*
X5191491Y-8840960D02*
X5201015Y-8831436D01*
X5201015Y-8831436D02*
X5201015Y-8850484D01*
X5334348Y-8650484D02*
X5353396Y-8650484D01*
X5353396Y-8650484D02*
X5372444Y-8660008D01*
X5372444Y-8660008D02*
X5381968Y-8669531D01*
X5381968Y-8669531D02*
X5391491Y-8688579D01*
X5391491Y-8688579D02*
X5401015Y-8726674D01*
X5401015Y-8726674D02*
X5401015Y-8774293D01*
X5401015Y-8774293D02*
X5391491Y-8812389D01*
X5391491Y-8812389D02*
X5381968Y-8831436D01*
X5381968Y-8831436D02*
X5372444Y-8840960D01*
X5372444Y-8840960D02*
X5353396Y-8850484D01*
X5353396Y-8850484D02*
X5334348Y-8850484D01*
X5334348Y-8850484D02*
X5315301Y-8840960D01*
X5315301Y-8840960D02*
X5305777Y-8831436D01*
X5305777Y-8831436D02*
X5296253Y-8812389D01*
X5296253Y-8812389D02*
X5286729Y-8774293D01*
X5286729Y-8774293D02*
X5286729Y-8726674D01*
X5286729Y-8726674D02*
X5296253Y-8688579D01*
X5296253Y-8688579D02*
X5305777Y-8669531D01*
X5305777Y-8669531D02*
X5315301Y-8660008D01*
X5315301Y-8660008D02*
X5334348Y-8650484D01*
X5477206Y-8669531D02*
X5486729Y-8660008D01*
X5486729Y-8660008D02*
X5505777Y-8650484D01*
X5505777Y-8650484D02*
X5553396Y-8650484D01*
X5553396Y-8650484D02*
X5572444Y-8660008D01*
X5572444Y-8660008D02*
X5581968Y-8669531D01*
X5581968Y-8669531D02*
X5591491Y-8688579D01*
X5591491Y-8688579D02*
X5591491Y-8707627D01*
X5591491Y-8707627D02*
X5581968Y-8736198D01*
X5581968Y-8736198D02*
X5467682Y-8850484D01*
X5467682Y-8850484D02*
X5591491Y-8850484D01*
X5762920Y-8650484D02*
X5724825Y-8650484D01*
X5724825Y-8650484D02*
X5705777Y-8660008D01*
X5705777Y-8660008D02*
X5696253Y-8669531D01*
X5696253Y-8669531D02*
X5677206Y-8698103D01*
X5677206Y-8698103D02*
X5667682Y-8736198D01*
X5667682Y-8736198D02*
X5667682Y-8812389D01*
X5667682Y-8812389D02*
X5677206Y-8831436D01*
X5677206Y-8831436D02*
X5686729Y-8840960D01*
X5686729Y-8840960D02*
X5705777Y-8850484D01*
X5705777Y-8850484D02*
X5743872Y-8850484D01*
X5743872Y-8850484D02*
X5762920Y-8840960D01*
X5762920Y-8840960D02*
X5772444Y-8831436D01*
X5772444Y-8831436D02*
X5781967Y-8812389D01*
X5781967Y-8812389D02*
X5781967Y-8764770D01*
X5781967Y-8764770D02*
X5772444Y-8745722D01*
X5772444Y-8745722D02*
X5762920Y-8736198D01*
X5762920Y-8736198D02*
X5743872Y-8726674D01*
X5743872Y-8726674D02*
X5705777Y-8726674D01*
X5705777Y-8726674D02*
X5686729Y-8736198D01*
X5686729Y-8736198D02*
X5677206Y-8745722D01*
X5677206Y-8745722D02*
X5667682Y-8764770D01*
X5905777Y-8650484D02*
X5924825Y-8650484D01*
X5924825Y-8650484D02*
X5943872Y-8660008D01*
X5943872Y-8660008D02*
X5953396Y-8669531D01*
X5953396Y-8669531D02*
X5962920Y-8688579D01*
X5962920Y-8688579D02*
X5972444Y-8726674D01*
X5972444Y-8726674D02*
X5972444Y-8774293D01*
X5972444Y-8774293D02*
X5962920Y-8812389D01*
X5962920Y-8812389D02*
X5953396Y-8831436D01*
X5953396Y-8831436D02*
X5943872Y-8840960D01*
X5943872Y-8840960D02*
X5924825Y-8850484D01*
X5924825Y-8850484D02*
X5905777Y-8850484D01*
X5905777Y-8850484D02*
X5886729Y-8840960D01*
X5886729Y-8840960D02*
X5877206Y-8831436D01*
X5877206Y-8831436D02*
X5867682Y-8812389D01*
X5867682Y-8812389D02*
X5858158Y-8774293D01*
X5858158Y-8774293D02*
X5858158Y-8726674D01*
X5858158Y-8726674D02*
X5867682Y-8688579D01*
X5867682Y-8688579D02*
X5877206Y-8669531D01*
X5877206Y-8669531D02*
X5886729Y-8660008D01*
X5886729Y-8660008D02*
X5905777Y-8650484D01*
X6048634Y-8650484D02*
X6048634Y-8688579D01*
X6124825Y-8650484D02*
X6124825Y-8688579D01*
X6420063Y-8926674D02*
X6410539Y-8917150D01*
X6410539Y-8917150D02*
X6391491Y-8888579D01*
X6391491Y-8888579D02*
X6381968Y-8869531D01*
X6381968Y-8869531D02*
X6372444Y-8840960D01*
X6372444Y-8840960D02*
X6362920Y-8793341D01*
X6362920Y-8793341D02*
X6362920Y-8755246D01*
X6362920Y-8755246D02*
X6372444Y-8707627D01*
X6372444Y-8707627D02*
X6381968Y-8679055D01*
X6381968Y-8679055D02*
X6391491Y-8660008D01*
X6391491Y-8660008D02*
X6410539Y-8631436D01*
X6410539Y-8631436D02*
X6420063Y-8621912D01*
X6601015Y-8850484D02*
X6486729Y-8850484D01*
X6543872Y-8850484D02*
X6543872Y-8650484D01*
X6543872Y-8650484D02*
X6524825Y-8679055D01*
X6524825Y-8679055D02*
X6505777Y-8698103D01*
X6505777Y-8698103D02*
X6486729Y-8707627D01*
X6839110Y-8850484D02*
X6839110Y-8650484D01*
X6924825Y-8850484D02*
X6924825Y-8745722D01*
X6924825Y-8745722D02*
X6915301Y-8726674D01*
X6915301Y-8726674D02*
X6896253Y-8717150D01*
X6896253Y-8717150D02*
X6867682Y-8717150D01*
X6867682Y-8717150D02*
X6848634Y-8726674D01*
X6848634Y-8726674D02*
X6839110Y-8736198D01*
X7048634Y-8850484D02*
X7029587Y-8840960D01*
X7029587Y-8840960D02*
X7020063Y-8831436D01*
X7020063Y-8831436D02*
X7010539Y-8812389D01*
X7010539Y-8812389D02*
X7010539Y-8755246D01*
X7010539Y-8755246D02*
X7020063Y-8736198D01*
X7020063Y-8736198D02*
X7029587Y-8726674D01*
X7029587Y-8726674D02*
X7048634Y-8717150D01*
X7048634Y-8717150D02*
X7077206Y-8717150D01*
X7077206Y-8717150D02*
X7096253Y-8726674D01*
X7096253Y-8726674D02*
X7105777Y-8736198D01*
X7105777Y-8736198D02*
X7115301Y-8755246D01*
X7115301Y-8755246D02*
X7115301Y-8812389D01*
X7115301Y-8812389D02*
X7105777Y-8831436D01*
X7105777Y-8831436D02*
X7096253Y-8840960D01*
X7096253Y-8840960D02*
X7077206Y-8850484D01*
X7077206Y-8850484D02*
X7048634Y-8850484D01*
X7229587Y-8850484D02*
X7210539Y-8840960D01*
X7210539Y-8840960D02*
X7201015Y-8821912D01*
X7201015Y-8821912D02*
X7201015Y-8650484D01*
X7381968Y-8840960D02*
X7362920Y-8850484D01*
X7362920Y-8850484D02*
X7324825Y-8850484D01*
X7324825Y-8850484D02*
X7305777Y-8840960D01*
X7305777Y-8840960D02*
X7296253Y-8821912D01*
X7296253Y-8821912D02*
X7296253Y-8745722D01*
X7296253Y-8745722D02*
X7305777Y-8726674D01*
X7305777Y-8726674D02*
X7324825Y-8717150D01*
X7324825Y-8717150D02*
X7362920Y-8717150D01*
X7362920Y-8717150D02*
X7381968Y-8726674D01*
X7381968Y-8726674D02*
X7391491Y-8745722D01*
X7391491Y-8745722D02*
X7391491Y-8764770D01*
X7391491Y-8764770D02*
X7296253Y-8783817D01*
X7458158Y-8926674D02*
X7467682Y-8917150D01*
X7467682Y-8917150D02*
X7486730Y-8888579D01*
X7486730Y-8888579D02*
X7496253Y-8869531D01*
X7496253Y-8869531D02*
X7505777Y-8840960D01*
X7505777Y-8840960D02*
X7515301Y-8793341D01*
X7515301Y-8793341D02*
X7515301Y-8755246D01*
X7515301Y-8755246D02*
X7505777Y-8707627D01*
X7505777Y-8707627D02*
X7496253Y-8679055D01*
X7496253Y-8679055D02*
X7486730Y-8660008D01*
X7486730Y-8660008D02*
X7467682Y-8631436D01*
X7467682Y-8631436D02*
X7458158Y-8621912D01*
X7820063Y-8926674D02*
X7810539Y-8917150D01*
X7810539Y-8917150D02*
X7791491Y-8888579D01*
X7791491Y-8888579D02*
X7781968Y-8869531D01*
X7781968Y-8869531D02*
X7772444Y-8840960D01*
X7772444Y-8840960D02*
X7762920Y-8793341D01*
X7762920Y-8793341D02*
X7762920Y-8755246D01*
X7762920Y-8755246D02*
X7772444Y-8707627D01*
X7772444Y-8707627D02*
X7781968Y-8679055D01*
X7781968Y-8679055D02*
X7791491Y-8660008D01*
X7791491Y-8660008D02*
X7810539Y-8631436D01*
X7810539Y-8631436D02*
X7820063Y-8621912D01*
X7896253Y-8717150D02*
X7896253Y-8850484D01*
X7896253Y-8736198D02*
X7905777Y-8726674D01*
X7905777Y-8726674D02*
X7924825Y-8717150D01*
X7924825Y-8717150D02*
X7953396Y-8717150D01*
X7953396Y-8717150D02*
X7972444Y-8726674D01*
X7972444Y-8726674D02*
X7981968Y-8745722D01*
X7981968Y-8745722D02*
X7981968Y-8850484D01*
X8105777Y-8850484D02*
X8086730Y-8840960D01*
X8086730Y-8840960D02*
X8077206Y-8831436D01*
X8077206Y-8831436D02*
X8067682Y-8812389D01*
X8067682Y-8812389D02*
X8067682Y-8755246D01*
X8067682Y-8755246D02*
X8077206Y-8736198D01*
X8077206Y-8736198D02*
X8086730Y-8726674D01*
X8086730Y-8726674D02*
X8105777Y-8717150D01*
X8105777Y-8717150D02*
X8134349Y-8717150D01*
X8134349Y-8717150D02*
X8153396Y-8726674D01*
X8153396Y-8726674D02*
X8162920Y-8736198D01*
X8162920Y-8736198D02*
X8172444Y-8755246D01*
X8172444Y-8755246D02*
X8172444Y-8812389D01*
X8172444Y-8812389D02*
X8162920Y-8831436D01*
X8162920Y-8831436D02*
X8153396Y-8840960D01*
X8153396Y-8840960D02*
X8134349Y-8850484D01*
X8134349Y-8850484D02*
X8105777Y-8850484D01*
X8229587Y-8717150D02*
X8305777Y-8717150D01*
X8258158Y-8650484D02*
X8258158Y-8821912D01*
X8258158Y-8821912D02*
X8267682Y-8840960D01*
X8267682Y-8840960D02*
X8286730Y-8850484D01*
X8286730Y-8850484D02*
X8305777Y-8850484D01*
X8524825Y-8717150D02*
X8524825Y-8917150D01*
X8524825Y-8726674D02*
X8543873Y-8717150D01*
X8543873Y-8717150D02*
X8581968Y-8717150D01*
X8581968Y-8717150D02*
X8601015Y-8726674D01*
X8601015Y-8726674D02*
X8610539Y-8736198D01*
X8610539Y-8736198D02*
X8620063Y-8755246D01*
X8620063Y-8755246D02*
X8620063Y-8812389D01*
X8620063Y-8812389D02*
X8610539Y-8831436D01*
X8610539Y-8831436D02*
X8601015Y-8840960D01*
X8601015Y-8840960D02*
X8581968Y-8850484D01*
X8581968Y-8850484D02*
X8543873Y-8850484D01*
X8543873Y-8850484D02*
X8524825Y-8840960D01*
X8734349Y-8850484D02*
X8715301Y-8840960D01*
X8715301Y-8840960D02*
X8705777Y-8821912D01*
X8705777Y-8821912D02*
X8705777Y-8650484D01*
X8896254Y-8850484D02*
X8896254Y-8745722D01*
X8896254Y-8745722D02*
X8886730Y-8726674D01*
X8886730Y-8726674D02*
X8867682Y-8717150D01*
X8867682Y-8717150D02*
X8829587Y-8717150D01*
X8829587Y-8717150D02*
X8810539Y-8726674D01*
X8896254Y-8840960D02*
X8877206Y-8850484D01*
X8877206Y-8850484D02*
X8829587Y-8850484D01*
X8829587Y-8850484D02*
X8810539Y-8840960D01*
X8810539Y-8840960D02*
X8801015Y-8821912D01*
X8801015Y-8821912D02*
X8801015Y-8802865D01*
X8801015Y-8802865D02*
X8810539Y-8783817D01*
X8810539Y-8783817D02*
X8829587Y-8774293D01*
X8829587Y-8774293D02*
X8877206Y-8774293D01*
X8877206Y-8774293D02*
X8896254Y-8764770D01*
X8962920Y-8717150D02*
X9039111Y-8717150D01*
X8991492Y-8650484D02*
X8991492Y-8821912D01*
X8991492Y-8821912D02*
X9001015Y-8840960D01*
X9001015Y-8840960D02*
X9020063Y-8850484D01*
X9020063Y-8850484D02*
X9039111Y-8850484D01*
X9181968Y-8840960D02*
X9162920Y-8850484D01*
X9162920Y-8850484D02*
X9124825Y-8850484D01*
X9124825Y-8850484D02*
X9105777Y-8840960D01*
X9105777Y-8840960D02*
X9096254Y-8821912D01*
X9096254Y-8821912D02*
X9096254Y-8745722D01*
X9096254Y-8745722D02*
X9105777Y-8726674D01*
X9105777Y-8726674D02*
X9124825Y-8717150D01*
X9124825Y-8717150D02*
X9162920Y-8717150D01*
X9162920Y-8717150D02*
X9181968Y-8726674D01*
X9181968Y-8726674D02*
X9191492Y-8745722D01*
X9191492Y-8745722D02*
X9191492Y-8764770D01*
X9191492Y-8764770D02*
X9096254Y-8783817D01*
X9362920Y-8850484D02*
X9362920Y-8650484D01*
X9362920Y-8840960D02*
X9343873Y-8850484D01*
X9343873Y-8850484D02*
X9305777Y-8850484D01*
X9305777Y-8850484D02*
X9286730Y-8840960D01*
X9286730Y-8840960D02*
X9277206Y-8831436D01*
X9277206Y-8831436D02*
X9267682Y-8812389D01*
X9267682Y-8812389D02*
X9267682Y-8755246D01*
X9267682Y-8755246D02*
X9277206Y-8736198D01*
X9277206Y-8736198D02*
X9286730Y-8726674D01*
X9286730Y-8726674D02*
X9305777Y-8717150D01*
X9305777Y-8717150D02*
X9343873Y-8717150D01*
X9343873Y-8717150D02*
X9362920Y-8726674D01*
X9439111Y-8926674D02*
X9448635Y-8917150D01*
X9448635Y-8917150D02*
X9467682Y-8888579D01*
X9467682Y-8888579D02*
X9477206Y-8869531D01*
X9477206Y-8869531D02*
X9486730Y-8840960D01*
X9486730Y-8840960D02*
X9496254Y-8793341D01*
X9496254Y-8793341D02*
X9496254Y-8755246D01*
X9496254Y-8755246D02*
X9486730Y-8707627D01*
X9486730Y-8707627D02*
X9477206Y-8679055D01*
X9477206Y-8679055D02*
X9467682Y-8660008D01*
X9467682Y-8660008D02*
X9448635Y-8631436D01*
X9448635Y-8631436D02*
X9439111Y-8621912D01*
X2745000Y-8923000D02*
X2745000Y-9123000D01*
X2645000Y-9023000D02*
X2845000Y-9023000D01*
X3096253Y-8933531D02*
X3105777Y-8924008D01*
X3105777Y-8924008D02*
X3124824Y-8914484D01*
X3124824Y-8914484D02*
X3172443Y-8914484D01*
X3172443Y-8914484D02*
X3191491Y-8924008D01*
X3191491Y-8924008D02*
X3201015Y-8933531D01*
X3201015Y-8933531D02*
X3210539Y-8952579D01*
X3210539Y-8952579D02*
X3210539Y-8971627D01*
X3210539Y-8971627D02*
X3201015Y-9000198D01*
X3201015Y-9000198D02*
X3086729Y-9114484D01*
X3086729Y-9114484D02*
X3210539Y-9114484D01*
X3296253Y-9095436D02*
X3305777Y-9104960D01*
X3305777Y-9104960D02*
X3296253Y-9114484D01*
X3296253Y-9114484D02*
X3286729Y-9104960D01*
X3286729Y-9104960D02*
X3296253Y-9095436D01*
X3296253Y-9095436D02*
X3296253Y-9114484D01*
X3372443Y-8914484D02*
X3505777Y-8914484D01*
X3505777Y-8914484D02*
X3420062Y-9114484D01*
X3620062Y-8914484D02*
X3639110Y-8914484D01*
X3639110Y-8914484D02*
X3658158Y-8924008D01*
X3658158Y-8924008D02*
X3667682Y-8933531D01*
X3667682Y-8933531D02*
X3677205Y-8952579D01*
X3677205Y-8952579D02*
X3686729Y-8990674D01*
X3686729Y-8990674D02*
X3686729Y-9038293D01*
X3686729Y-9038293D02*
X3677205Y-9076389D01*
X3677205Y-9076389D02*
X3667682Y-9095436D01*
X3667682Y-9095436D02*
X3658158Y-9104960D01*
X3658158Y-9104960D02*
X3639110Y-9114484D01*
X3639110Y-9114484D02*
X3620062Y-9114484D01*
X3620062Y-9114484D02*
X3601015Y-9104960D01*
X3601015Y-9104960D02*
X3591491Y-9095436D01*
X3591491Y-9095436D02*
X3581967Y-9076389D01*
X3581967Y-9076389D02*
X3572443Y-9038293D01*
X3572443Y-9038293D02*
X3572443Y-8990674D01*
X3572443Y-8990674D02*
X3581967Y-8952579D01*
X3581967Y-8952579D02*
X3591491Y-8933531D01*
X3591491Y-8933531D02*
X3601015Y-8924008D01*
X3601015Y-8924008D02*
X3620062Y-8914484D01*
X3810539Y-8914484D02*
X3829586Y-8914484D01*
X3829586Y-8914484D02*
X3848634Y-8924008D01*
X3848634Y-8924008D02*
X3858158Y-8933531D01*
X3858158Y-8933531D02*
X3867682Y-8952579D01*
X3867682Y-8952579D02*
X3877205Y-8990674D01*
X3877205Y-8990674D02*
X3877205Y-9038293D01*
X3877205Y-9038293D02*
X3867682Y-9076389D01*
X3867682Y-9076389D02*
X3858158Y-9095436D01*
X3858158Y-9095436D02*
X3848634Y-9104960D01*
X3848634Y-9104960D02*
X3829586Y-9114484D01*
X3829586Y-9114484D02*
X3810539Y-9114484D01*
X3810539Y-9114484D02*
X3791491Y-9104960D01*
X3791491Y-9104960D02*
X3781967Y-9095436D01*
X3781967Y-9095436D02*
X3772443Y-9076389D01*
X3772443Y-9076389D02*
X3762920Y-9038293D01*
X3762920Y-9038293D02*
X3762920Y-8990674D01*
X3762920Y-8990674D02*
X3772443Y-8952579D01*
X3772443Y-8952579D02*
X3781967Y-8933531D01*
X3781967Y-8933531D02*
X3791491Y-8924008D01*
X3791491Y-8924008D02*
X3810539Y-8914484D01*
X3962920Y-9114484D02*
X3962920Y-8981150D01*
X3962920Y-9000198D02*
X3972443Y-8990674D01*
X3972443Y-8990674D02*
X3991491Y-8981150D01*
X3991491Y-8981150D02*
X4020063Y-8981150D01*
X4020063Y-8981150D02*
X4039110Y-8990674D01*
X4039110Y-8990674D02*
X4048634Y-9009722D01*
X4048634Y-9009722D02*
X4048634Y-9114484D01*
X4048634Y-9009722D02*
X4058158Y-8990674D01*
X4058158Y-8990674D02*
X4077205Y-8981150D01*
X4077205Y-8981150D02*
X4105777Y-8981150D01*
X4105777Y-8981150D02*
X4124824Y-8990674D01*
X4124824Y-8990674D02*
X4134348Y-9009722D01*
X4134348Y-9009722D02*
X4134348Y-9114484D01*
X4229586Y-9114484D02*
X4229586Y-8981150D01*
X4229586Y-9000198D02*
X4239110Y-8990674D01*
X4239110Y-8990674D02*
X4258158Y-8981150D01*
X4258158Y-8981150D02*
X4286729Y-8981150D01*
X4286729Y-8981150D02*
X4305777Y-8990674D01*
X4305777Y-8990674D02*
X4315301Y-9009722D01*
X4315301Y-9009722D02*
X4315301Y-9114484D01*
X4315301Y-9009722D02*
X4324825Y-8990674D01*
X4324825Y-8990674D02*
X4343872Y-8981150D01*
X4343872Y-8981150D02*
X4372444Y-8981150D01*
X4372444Y-8981150D02*
X4391491Y-8990674D01*
X4391491Y-8990674D02*
X4401015Y-9009722D01*
X4401015Y-9009722D02*
X4401015Y-9114484D01*
X4791491Y-8904960D02*
X4620063Y-9162103D01*
X5048634Y-8914484D02*
X5067682Y-8914484D01*
X5067682Y-8914484D02*
X5086729Y-8924008D01*
X5086729Y-8924008D02*
X5096253Y-8933531D01*
X5096253Y-8933531D02*
X5105777Y-8952579D01*
X5105777Y-8952579D02*
X5115301Y-8990674D01*
X5115301Y-8990674D02*
X5115301Y-9038293D01*
X5115301Y-9038293D02*
X5105777Y-9076389D01*
X5105777Y-9076389D02*
X5096253Y-9095436D01*
X5096253Y-9095436D02*
X5086729Y-9104960D01*
X5086729Y-9104960D02*
X5067682Y-9114484D01*
X5067682Y-9114484D02*
X5048634Y-9114484D01*
X5048634Y-9114484D02*
X5029587Y-9104960D01*
X5029587Y-9104960D02*
X5020063Y-9095436D01*
X5020063Y-9095436D02*
X5010539Y-9076389D01*
X5010539Y-9076389D02*
X5001015Y-9038293D01*
X5001015Y-9038293D02*
X5001015Y-8990674D01*
X5001015Y-8990674D02*
X5010539Y-8952579D01*
X5010539Y-8952579D02*
X5020063Y-8933531D01*
X5020063Y-8933531D02*
X5029587Y-8924008D01*
X5029587Y-8924008D02*
X5048634Y-8914484D01*
X5201015Y-9095436D02*
X5210539Y-9104960D01*
X5210539Y-9104960D02*
X5201015Y-9114484D01*
X5201015Y-9114484D02*
X5191491Y-9104960D01*
X5191491Y-9104960D02*
X5201015Y-9095436D01*
X5201015Y-9095436D02*
X5201015Y-9114484D01*
X5401015Y-9114484D02*
X5286729Y-9114484D01*
X5343872Y-9114484D02*
X5343872Y-8914484D01*
X5343872Y-8914484D02*
X5324825Y-8943055D01*
X5324825Y-8943055D02*
X5305777Y-8962103D01*
X5305777Y-8962103D02*
X5286729Y-8971627D01*
X5524825Y-8914484D02*
X5543872Y-8914484D01*
X5543872Y-8914484D02*
X5562920Y-8924008D01*
X5562920Y-8924008D02*
X5572444Y-8933531D01*
X5572444Y-8933531D02*
X5581968Y-8952579D01*
X5581968Y-8952579D02*
X5591491Y-8990674D01*
X5591491Y-8990674D02*
X5591491Y-9038293D01*
X5591491Y-9038293D02*
X5581968Y-9076389D01*
X5581968Y-9076389D02*
X5572444Y-9095436D01*
X5572444Y-9095436D02*
X5562920Y-9104960D01*
X5562920Y-9104960D02*
X5543872Y-9114484D01*
X5543872Y-9114484D02*
X5524825Y-9114484D01*
X5524825Y-9114484D02*
X5505777Y-9104960D01*
X5505777Y-9104960D02*
X5496253Y-9095436D01*
X5496253Y-9095436D02*
X5486729Y-9076389D01*
X5486729Y-9076389D02*
X5477206Y-9038293D01*
X5477206Y-9038293D02*
X5477206Y-8990674D01*
X5477206Y-8990674D02*
X5486729Y-8952579D01*
X5486729Y-8952579D02*
X5496253Y-8933531D01*
X5496253Y-8933531D02*
X5505777Y-8924008D01*
X5505777Y-8924008D02*
X5524825Y-8914484D01*
X5762920Y-8914484D02*
X5724825Y-8914484D01*
X5724825Y-8914484D02*
X5705777Y-8924008D01*
X5705777Y-8924008D02*
X5696253Y-8933531D01*
X5696253Y-8933531D02*
X5677206Y-8962103D01*
X5677206Y-8962103D02*
X5667682Y-9000198D01*
X5667682Y-9000198D02*
X5667682Y-9076389D01*
X5667682Y-9076389D02*
X5677206Y-9095436D01*
X5677206Y-9095436D02*
X5686729Y-9104960D01*
X5686729Y-9104960D02*
X5705777Y-9114484D01*
X5705777Y-9114484D02*
X5743872Y-9114484D01*
X5743872Y-9114484D02*
X5762920Y-9104960D01*
X5762920Y-9104960D02*
X5772444Y-9095436D01*
X5772444Y-9095436D02*
X5781967Y-9076389D01*
X5781967Y-9076389D02*
X5781967Y-9028770D01*
X5781967Y-9028770D02*
X5772444Y-9009722D01*
X5772444Y-9009722D02*
X5762920Y-9000198D01*
X5762920Y-9000198D02*
X5743872Y-8990674D01*
X5743872Y-8990674D02*
X5705777Y-8990674D01*
X5705777Y-8990674D02*
X5686729Y-9000198D01*
X5686729Y-9000198D02*
X5677206Y-9009722D01*
X5677206Y-9009722D02*
X5667682Y-9028770D01*
X5848634Y-8914484D02*
X5972444Y-8914484D01*
X5972444Y-8914484D02*
X5905777Y-8990674D01*
X5905777Y-8990674D02*
X5934348Y-8990674D01*
X5934348Y-8990674D02*
X5953396Y-9000198D01*
X5953396Y-9000198D02*
X5962920Y-9009722D01*
X5962920Y-9009722D02*
X5972444Y-9028770D01*
X5972444Y-9028770D02*
X5972444Y-9076389D01*
X5972444Y-9076389D02*
X5962920Y-9095436D01*
X5962920Y-9095436D02*
X5953396Y-9104960D01*
X5953396Y-9104960D02*
X5934348Y-9114484D01*
X5934348Y-9114484D02*
X5877206Y-9114484D01*
X5877206Y-9114484D02*
X5858158Y-9104960D01*
X5858158Y-9104960D02*
X5848634Y-9095436D01*
X6048634Y-8914484D02*
X6048634Y-8952579D01*
X6124825Y-8914484D02*
X6124825Y-8952579D01*
X6420063Y-9190674D02*
X6410539Y-9181150D01*
X6410539Y-9181150D02*
X6391491Y-9152579D01*
X6391491Y-9152579D02*
X6381968Y-9133531D01*
X6381968Y-9133531D02*
X6372444Y-9104960D01*
X6372444Y-9104960D02*
X6362920Y-9057341D01*
X6362920Y-9057341D02*
X6362920Y-9019246D01*
X6362920Y-9019246D02*
X6372444Y-8971627D01*
X6372444Y-8971627D02*
X6381968Y-8943055D01*
X6381968Y-8943055D02*
X6391491Y-8924008D01*
X6391491Y-8924008D02*
X6410539Y-8895436D01*
X6410539Y-8895436D02*
X6420063Y-8885912D01*
X6581968Y-8981150D02*
X6581968Y-9114484D01*
X6534348Y-8904960D02*
X6486729Y-9047817D01*
X6486729Y-9047817D02*
X6610539Y-9047817D01*
X6839110Y-9114484D02*
X6839110Y-8914484D01*
X6924825Y-9114484D02*
X6924825Y-9009722D01*
X6924825Y-9009722D02*
X6915301Y-8990674D01*
X6915301Y-8990674D02*
X6896253Y-8981150D01*
X6896253Y-8981150D02*
X6867682Y-8981150D01*
X6867682Y-8981150D02*
X6848634Y-8990674D01*
X6848634Y-8990674D02*
X6839110Y-9000198D01*
X7048634Y-9114484D02*
X7029587Y-9104960D01*
X7029587Y-9104960D02*
X7020063Y-9095436D01*
X7020063Y-9095436D02*
X7010539Y-9076389D01*
X7010539Y-9076389D02*
X7010539Y-9019246D01*
X7010539Y-9019246D02*
X7020063Y-9000198D01*
X7020063Y-9000198D02*
X7029587Y-8990674D01*
X7029587Y-8990674D02*
X7048634Y-8981150D01*
X7048634Y-8981150D02*
X7077206Y-8981150D01*
X7077206Y-8981150D02*
X7096253Y-8990674D01*
X7096253Y-8990674D02*
X7105777Y-9000198D01*
X7105777Y-9000198D02*
X7115301Y-9019246D01*
X7115301Y-9019246D02*
X7115301Y-9076389D01*
X7115301Y-9076389D02*
X7105777Y-9095436D01*
X7105777Y-9095436D02*
X7096253Y-9104960D01*
X7096253Y-9104960D02*
X7077206Y-9114484D01*
X7077206Y-9114484D02*
X7048634Y-9114484D01*
X7229587Y-9114484D02*
X7210539Y-9104960D01*
X7210539Y-9104960D02*
X7201015Y-9085912D01*
X7201015Y-9085912D02*
X7201015Y-8914484D01*
X7381968Y-9104960D02*
X7362920Y-9114484D01*
X7362920Y-9114484D02*
X7324825Y-9114484D01*
X7324825Y-9114484D02*
X7305777Y-9104960D01*
X7305777Y-9104960D02*
X7296253Y-9085912D01*
X7296253Y-9085912D02*
X7296253Y-9009722D01*
X7296253Y-9009722D02*
X7305777Y-8990674D01*
X7305777Y-8990674D02*
X7324825Y-8981150D01*
X7324825Y-8981150D02*
X7362920Y-8981150D01*
X7362920Y-8981150D02*
X7381968Y-8990674D01*
X7381968Y-8990674D02*
X7391491Y-9009722D01*
X7391491Y-9009722D02*
X7391491Y-9028770D01*
X7391491Y-9028770D02*
X7296253Y-9047817D01*
X7467682Y-9104960D02*
X7486730Y-9114484D01*
X7486730Y-9114484D02*
X7524825Y-9114484D01*
X7524825Y-9114484D02*
X7543872Y-9104960D01*
X7543872Y-9104960D02*
X7553396Y-9085912D01*
X7553396Y-9085912D02*
X7553396Y-9076389D01*
X7553396Y-9076389D02*
X7543872Y-9057341D01*
X7543872Y-9057341D02*
X7524825Y-9047817D01*
X7524825Y-9047817D02*
X7496253Y-9047817D01*
X7496253Y-9047817D02*
X7477206Y-9038293D01*
X7477206Y-9038293D02*
X7467682Y-9019246D01*
X7467682Y-9019246D02*
X7467682Y-9009722D01*
X7467682Y-9009722D02*
X7477206Y-8990674D01*
X7477206Y-8990674D02*
X7496253Y-8981150D01*
X7496253Y-8981150D02*
X7524825Y-8981150D01*
X7524825Y-8981150D02*
X7543872Y-8990674D01*
X7620063Y-9190674D02*
X7629587Y-9181150D01*
X7629587Y-9181150D02*
X7648634Y-9152579D01*
X7648634Y-9152579D02*
X7658158Y-9133531D01*
X7658158Y-9133531D02*
X7667682Y-9104960D01*
X7667682Y-9104960D02*
X7677206Y-9057341D01*
X7677206Y-9057341D02*
X7677206Y-9019246D01*
X7677206Y-9019246D02*
X7667682Y-8971627D01*
X7667682Y-8971627D02*
X7658158Y-8943055D01*
X7658158Y-8943055D02*
X7648634Y-8924008D01*
X7648634Y-8924008D02*
X7629587Y-8895436D01*
X7629587Y-8895436D02*
X7620063Y-8885912D01*
X7981968Y-9190674D02*
X7972444Y-9181150D01*
X7972444Y-9181150D02*
X7953396Y-9152579D01*
X7953396Y-9152579D02*
X7943872Y-9133531D01*
X7943872Y-9133531D02*
X7934349Y-9104960D01*
X7934349Y-9104960D02*
X7924825Y-9057341D01*
X7924825Y-9057341D02*
X7924825Y-9019246D01*
X7924825Y-9019246D02*
X7934349Y-8971627D01*
X7934349Y-8971627D02*
X7943872Y-8943055D01*
X7943872Y-8943055D02*
X7953396Y-8924008D01*
X7953396Y-8924008D02*
X7972444Y-8895436D01*
X7972444Y-8895436D02*
X7981968Y-8885912D01*
X8058158Y-8981150D02*
X8058158Y-9114484D01*
X8058158Y-9000198D02*
X8067682Y-8990674D01*
X8067682Y-8990674D02*
X8086730Y-8981150D01*
X8086730Y-8981150D02*
X8115301Y-8981150D01*
X8115301Y-8981150D02*
X8134349Y-8990674D01*
X8134349Y-8990674D02*
X8143872Y-9009722D01*
X8143872Y-9009722D02*
X8143872Y-9114484D01*
X8267682Y-9114484D02*
X8248634Y-9104960D01*
X8248634Y-9104960D02*
X8239111Y-9095436D01*
X8239111Y-9095436D02*
X8229587Y-9076389D01*
X8229587Y-9076389D02*
X8229587Y-9019246D01*
X8229587Y-9019246D02*
X8239111Y-9000198D01*
X8239111Y-9000198D02*
X8248634Y-8990674D01*
X8248634Y-8990674D02*
X8267682Y-8981150D01*
X8267682Y-8981150D02*
X8296253Y-8981150D01*
X8296253Y-8981150D02*
X8315301Y-8990674D01*
X8315301Y-8990674D02*
X8324825Y-9000198D01*
X8324825Y-9000198D02*
X8334349Y-9019246D01*
X8334349Y-9019246D02*
X8334349Y-9076389D01*
X8334349Y-9076389D02*
X8324825Y-9095436D01*
X8324825Y-9095436D02*
X8315301Y-9104960D01*
X8315301Y-9104960D02*
X8296253Y-9114484D01*
X8296253Y-9114484D02*
X8267682Y-9114484D01*
X8391492Y-8981150D02*
X8467682Y-8981150D01*
X8420063Y-8914484D02*
X8420063Y-9085912D01*
X8420063Y-9085912D02*
X8429587Y-9104960D01*
X8429587Y-9104960D02*
X8448634Y-9114484D01*
X8448634Y-9114484D02*
X8467682Y-9114484D01*
X8686730Y-8981150D02*
X8686730Y-9181150D01*
X8686730Y-8990674D02*
X8705777Y-8981150D01*
X8705777Y-8981150D02*
X8743873Y-8981150D01*
X8743873Y-8981150D02*
X8762920Y-8990674D01*
X8762920Y-8990674D02*
X8772444Y-9000198D01*
X8772444Y-9000198D02*
X8781968Y-9019246D01*
X8781968Y-9019246D02*
X8781968Y-9076389D01*
X8781968Y-9076389D02*
X8772444Y-9095436D01*
X8772444Y-9095436D02*
X8762920Y-9104960D01*
X8762920Y-9104960D02*
X8743873Y-9114484D01*
X8743873Y-9114484D02*
X8705777Y-9114484D01*
X8705777Y-9114484D02*
X8686730Y-9104960D01*
X8896254Y-9114484D02*
X8877206Y-9104960D01*
X8877206Y-9104960D02*
X8867682Y-9085912D01*
X8867682Y-9085912D02*
X8867682Y-8914484D01*
X9058158Y-9114484D02*
X9058158Y-9009722D01*
X9058158Y-9009722D02*
X9048635Y-8990674D01*
X9048635Y-8990674D02*
X9029587Y-8981150D01*
X9029587Y-8981150D02*
X8991492Y-8981150D01*
X8991492Y-8981150D02*
X8972444Y-8990674D01*
X9058158Y-9104960D02*
X9039111Y-9114484D01*
X9039111Y-9114484D02*
X8991492Y-9114484D01*
X8991492Y-9114484D02*
X8972444Y-9104960D01*
X8972444Y-9104960D02*
X8962920Y-9085912D01*
X8962920Y-9085912D02*
X8962920Y-9066865D01*
X8962920Y-9066865D02*
X8972444Y-9047817D01*
X8972444Y-9047817D02*
X8991492Y-9038293D01*
X8991492Y-9038293D02*
X9039111Y-9038293D01*
X9039111Y-9038293D02*
X9058158Y-9028770D01*
X9124825Y-8981150D02*
X9201015Y-8981150D01*
X9153396Y-8914484D02*
X9153396Y-9085912D01*
X9153396Y-9085912D02*
X9162920Y-9104960D01*
X9162920Y-9104960D02*
X9181968Y-9114484D01*
X9181968Y-9114484D02*
X9201015Y-9114484D01*
X9343873Y-9104960D02*
X9324825Y-9114484D01*
X9324825Y-9114484D02*
X9286730Y-9114484D01*
X9286730Y-9114484D02*
X9267682Y-9104960D01*
X9267682Y-9104960D02*
X9258158Y-9085912D01*
X9258158Y-9085912D02*
X9258158Y-9009722D01*
X9258158Y-9009722D02*
X9267682Y-8990674D01*
X9267682Y-8990674D02*
X9286730Y-8981150D01*
X9286730Y-8981150D02*
X9324825Y-8981150D01*
X9324825Y-8981150D02*
X9343873Y-8990674D01*
X9343873Y-8990674D02*
X9353396Y-9009722D01*
X9353396Y-9009722D02*
X9353396Y-9028770D01*
X9353396Y-9028770D02*
X9258158Y-9047817D01*
X9524825Y-9114484D02*
X9524825Y-8914484D01*
X9524825Y-9104960D02*
X9505777Y-9114484D01*
X9505777Y-9114484D02*
X9467682Y-9114484D01*
X9467682Y-9114484D02*
X9448635Y-9104960D01*
X9448635Y-9104960D02*
X9439111Y-9095436D01*
X9439111Y-9095436D02*
X9429587Y-9076389D01*
X9429587Y-9076389D02*
X9429587Y-9019246D01*
X9429587Y-9019246D02*
X9439111Y-9000198D01*
X9439111Y-9000198D02*
X9448635Y-8990674D01*
X9448635Y-8990674D02*
X9467682Y-8981150D01*
X9467682Y-8981150D02*
X9505777Y-8981150D01*
X9505777Y-8981150D02*
X9524825Y-8990674D01*
X9601016Y-9190674D02*
X9610539Y-9181150D01*
X9610539Y-9181150D02*
X9629587Y-9152579D01*
X9629587Y-9152579D02*
X9639111Y-9133531D01*
X9639111Y-9133531D02*
X9648635Y-9104960D01*
X9648635Y-9104960D02*
X9658158Y-9057341D01*
X9658158Y-9057341D02*
X9658158Y-9019246D01*
X9658158Y-9019246D02*
X9648635Y-8971627D01*
X9648635Y-8971627D02*
X9639111Y-8943055D01*
X9639111Y-8943055D02*
X9629587Y-8924008D01*
X9629587Y-8924008D02*
X9610539Y-8895436D01*
X9610539Y-8895436D02*
X9601016Y-8885912D01*
M02*
