M48
; DRILL file {KiCad 8.0.6+1} date 2025-01-07T07:54:39+0000
; FORMAT={-:-/ absolute / metric / decimal}
; #@! TF.CreationDate,2025-01-07T07:54:39+00:00
; #@! TF.GenerationSoftware,Kicad,Pcbnew,8.0.6+1
; #@! TF.FileFunction,Plated,1,4,PTH
FMAT,2
METRIC
; #@! TA.AperFunction,Plated,PTH,ViaDrill
T1C0.200
; #@! TA.AperFunction,Plated,PTH,ComponentDrill
T2C0.200
; #@! TA.AperFunction,Plated,PTH,ViaDrill
T3C0.400
; #@! TA.AperFunction,Plated,PTH,ComponentDrill
T4C0.700
; #@! TA.AperFunction,Plated,PTH,ComponentDrill
T5C0.750
%
G90
G05
T1
X31.2Y-60.6
X32.7Y-59.85
X32.7Y-60.65
X32.9Y-52.5
X32.9Y-54.2
X36.0Y-52.5
X36.0Y-54.2
X36.785Y-61.248
X37.1Y-59.85
X37.1Y-60.65
X37.9Y-59.0
X44.25Y-46.75
X46.3Y-35.7
X46.4Y-38.3
X46.4Y-39.4
X46.5Y-36.5
X46.6Y-45.7
X46.7Y-37.225
X47.2Y-37.75
X49.35Y-47.25
X49.6Y-43.8
X50.4Y-47.3
X52.4Y-44.274
X55.9Y-52.3
X57.005Y-53.0
X57.5Y-30.9
X57.5Y-43.8
X59.1Y-53.4
X61.486Y-52.274
X64.751Y-44.3
X64.8Y-53.7
X65.225Y-43.557
X65.6Y-43.0
X65.7Y-47.4
X65.7Y-48.05
X66.3Y-38.8
X66.317Y-55.417
X66.883Y-55.983
X66.9Y-57.4
X67.517Y-38.717
X67.7Y-37.4
X68.083Y-39.283
X68.1Y-46.5
X68.3Y-56.0
X69.9Y-34.2
X70.16Y-55.94
X71.1Y-56.7
X71.7Y-45.8
X71.9Y-54.8
X73.6Y-52.1
X74.1Y-58.5
X74.1Y-69.0
X74.25Y-52.1
X74.4Y-44.4
X74.4Y-48.0
X74.575Y-69.5
X74.6Y-59.0
X74.899Y-52.098
X75.535Y-51.967
X75.71Y-46.54
X75.8Y-45.5
X75.8Y-47.2
X76.0Y-43.0
X76.4Y-50.2
X76.4Y-51.0
X76.4Y-51.8
X76.5Y-45.5
X76.664Y-48.064
X76.7Y-44.4
X76.7Y-47.1
X76.8Y-53.5
X77.3Y-42.999
X77.4Y-58.025
X77.75Y-54.45
X78.15Y-55.6
X78.4Y-56.6
X79.0Y-45.0
X79.0Y-46.0
X79.0Y-47.0
X79.0Y-48.0
X79.0Y-49.0
X79.017Y-39.083
X79.1Y-53.0
X79.4Y-37.3
X79.583Y-38.517
X80.0Y-45.0
X80.0Y-49.0
X80.1Y-53.9
X80.368Y-51.801
X80.8Y-38.7
X80.8Y-42.325
X81.0Y-39.8
X81.0Y-45.0
X81.0Y-49.0
X81.018Y-51.782
X81.483Y-42.308
X82.0Y-39.8
X82.0Y-45.0
X82.0Y-49.0
X83.0Y-45.0
X83.0Y-46.0
X83.0Y-47.0
X83.0Y-48.0
X83.0Y-49.0
X83.4Y-60.8
X84.571Y-50.941
X84.579Y-51.621
X84.586Y-52.298
X85.3Y-44.0
X85.336Y-48.055
X85.599Y-51.299
X85.624Y-50.65
X85.7Y-40.1
X85.874Y-50.05
X85.9Y-37.1
X85.9Y-38.3
X86.1Y-59.6
X86.2Y-46.9
X86.3Y-49.549
X87.0Y-49.075
X87.7Y-44.0
X87.7Y-48.0
X88.025Y-47.438
X88.2Y-58.974
X88.613Y-45.344
X88.7Y-58.5
X88.725Y-44.0
X88.725Y-44.705
X88.826Y-42.974
X89.2Y-67.25
X89.393Y-52.248
X89.4Y-37.1
X89.508Y-42.984
X89.611Y-47.39
X89.8Y-35.5
X89.9Y-51.274
X90.0Y-59.7
X90.001Y-60.5
X90.003Y-51.916
X90.157Y-42.994
X90.21Y-50.18
X90.6Y-50.7
X90.8Y-42.9
X91.16Y-46.8
X91.2Y-62.7
X92.3Y-52.3
X92.3Y-58.7
X92.3Y-71.7
X92.9Y-38.3
X92.9Y-40.1
X93.0Y-37.1
X94.2Y-37.6
X94.4Y-56.3
X95.4Y-48.6
X100.8Y-56.3
X103.08Y-46.091
X103.425Y-45.54
X103.9Y-45.0
X104.5Y-47.3
X104.5Y-49.7
X104.5Y-54.3
X104.5Y-56.7
X104.5Y-61.3
X104.5Y-63.7
X105.3Y-29.0
X107.6Y-35.7
T2
X100.545Y-32.7
X100.545Y-34.0
X100.545Y-35.3
X102.455Y-32.7
X102.455Y-34.0
X102.455Y-35.3
T3
X30.3Y-62.4
X37.7Y-61.5
X38.6Y-57.9
X39.3Y-55.6
X43.4Y-30.8
X43.5Y-57.8
X43.575Y-28.749
X43.7Y-54.0
X43.8Y-27.825
X44.2Y-39.7
X44.2Y-40.8
X44.4Y-57.8
X44.43Y-44.517
X44.7Y-54.0
X48.7Y-43.9
X50.4Y-36.5
X50.5Y-33.5
X50.5Y-41.0
X51.6Y-38.0
X53.5Y-36.7
X54.8Y-39.3
X58.0Y-54.8
X60.5Y-54.8
X61.0Y-36.5
X61.9Y-32.4
X61.9Y-33.5
X61.9Y-34.6
X62.4Y-36.1
X66.3Y-72.5
X66.3Y-73.8
X66.3Y-75.1
X69.0Y-48.7
X70.3Y-50.0
X70.6Y-43.9
X72.8Y-33.1
X72.9Y-31.5
X74.0Y-34.1
X74.8Y-40.2
X75.9Y-75.9
X76.2Y-61.2
X76.2Y-64.3
X76.9Y-32.5
X77.0Y-68.6
X77.1Y-61.2
X77.2Y-64.3
X80.8Y-64.3
X81.5Y-34.3
X81.5Y-56.4
X81.7Y-64.3
X82.2Y-75.9
X82.6Y-61.4
X82.6Y-62.3
X83.0Y-66.8
X83.7Y-35.5
X83.9Y-66.8
X86.1Y-29.5
X86.4Y-35.5
X86.6Y-62.0
X87.0Y-26.5
X87.0Y-27.5
X87.5Y-53.6
X88.063Y-43.211
X88.2Y-39.0
X88.5Y-26.5
X88.5Y-27.5
X88.5Y-62.0
X90.1Y-41.0
X90.3Y-65.7
X90.627Y-53.1
X93.1Y-41.0
X93.2Y-62.7
X93.2Y-73.2
X93.6Y-32.0
X94.5Y-60.0
X94.9Y-32.9
X94.9Y-44.1
X96.4Y-62.7
X96.462Y-42.65
X96.5Y-73.2
X96.7Y-36.4
X97.4Y-33.4
X97.4Y-34.6
X99.6Y-70.7
X99.6Y-74.3
X100.5Y-60.0
X100.862Y-42.25
X102.0Y-26.2
X102.9Y-43.0
X103.4Y-67.9
X103.4Y-70.7
X103.4Y-74.3
X103.4Y-77.0
X104.2Y-30.5
X104.3Y-37.1
X105.0Y-45.5
X105.0Y-52.5
X105.0Y-59.5
X106.1Y-35.7
X111.2Y-59.6
X114.0Y-45.5
X114.0Y-52.5
X115.1Y-39.2
X115.1Y-53.3
T4
X32.685Y-57.85
X32.685Y-62.65
X36.985Y-57.85
X36.985Y-62.65
T5
X112.0Y-37.5
X114.0Y-37.5
M30
