G04 #@! TF.GenerationSoftware,KiCad,Pcbnew,8.0.6+1*
G04 #@! TF.CreationDate,2025-02-16T06:01:58+00:00*
G04 #@! TF.ProjectId,gshps,67736870-732e-46b6-9963-61645f706362,C*
G04 #@! TF.SameCoordinates,Original*
G04 #@! TF.FileFunction,Soldermask,Bot*
G04 #@! TF.FilePolarity,Negative*
%FSLAX46Y46*%
G04 Gerber Fmt 4.6, Leading zero omitted, Abs format (unit mm)*
G04 Created by KiCad (PCBNEW 8.0.6+1) date 2025-02-16 06:01:58*
%MOMM*%
%LPD*%
G01*
G04 APERTURE LIST*
%ADD10C,0.300000*%
%ADD11C,5.000000*%
%ADD12C,0.660000*%
%ADD13O,0.580000X1.000000*%
%ADD14C,1.100000*%
%ADD15R,3.200000X3.200000*%
%ADD16R,0.700000X1.750000*%
%ADD17R,1.450000X1.000000*%
%ADD18R,1.000000X1.550000*%
%ADD19R,0.800000X1.500000*%
%ADD20R,1.300000X1.500000*%
%ADD21R,1.500000X1.500000*%
%ADD22R,0.800000X1.400000*%
%ADD23R,0.800000X0.300000*%
%ADD24R,0.800000X0.400000*%
%ADD25R,1.700000X1.000000*%
%ADD26R,2.410000X3.100000*%
%ADD27R,2.400000X0.740000*%
%ADD28R,1.400000X1.200000*%
%ADD29O,1.200000X1.750000*%
G04 APERTURE END LIST*
D10*
X114128328Y-55247368D02*
X115342614Y-55247368D01*
X115342614Y-55247368D02*
X115485471Y-55175939D01*
X115485471Y-55175939D02*
X115556900Y-55104510D01*
X115556900Y-55104510D02*
X115628328Y-54961653D01*
X115628328Y-54961653D02*
X115628328Y-54747368D01*
X115628328Y-54747368D02*
X115556900Y-54604510D01*
X115056900Y-55247368D02*
X115128328Y-55104510D01*
X115128328Y-55104510D02*
X115128328Y-54818796D01*
X115128328Y-54818796D02*
X115056900Y-54675939D01*
X115056900Y-54675939D02*
X114985471Y-54604510D01*
X114985471Y-54604510D02*
X114842614Y-54533082D01*
X114842614Y-54533082D02*
X114414042Y-54533082D01*
X114414042Y-54533082D02*
X114271185Y-54604510D01*
X114271185Y-54604510D02*
X114199757Y-54675939D01*
X114199757Y-54675939D02*
X114128328Y-54818796D01*
X114128328Y-54818796D02*
X114128328Y-55104510D01*
X114128328Y-55104510D02*
X114199757Y-55247368D01*
X115056900Y-55890225D02*
X115128328Y-56033082D01*
X115128328Y-56033082D02*
X115128328Y-56318796D01*
X115128328Y-56318796D02*
X115056900Y-56461653D01*
X115056900Y-56461653D02*
X114914042Y-56533082D01*
X114914042Y-56533082D02*
X114842614Y-56533082D01*
X114842614Y-56533082D02*
X114699757Y-56461653D01*
X114699757Y-56461653D02*
X114628328Y-56318796D01*
X114628328Y-56318796D02*
X114628328Y-56104511D01*
X114628328Y-56104511D02*
X114556900Y-55961653D01*
X114556900Y-55961653D02*
X114414042Y-55890225D01*
X114414042Y-55890225D02*
X114342614Y-55890225D01*
X114342614Y-55890225D02*
X114199757Y-55961653D01*
X114199757Y-55961653D02*
X114128328Y-56104511D01*
X114128328Y-56104511D02*
X114128328Y-56318796D01*
X114128328Y-56318796D02*
X114199757Y-56461653D01*
X115128328Y-57175939D02*
X113628328Y-57175939D01*
X115128328Y-57818797D02*
X114342614Y-57818797D01*
X114342614Y-57818797D02*
X114199757Y-57747368D01*
X114199757Y-57747368D02*
X114128328Y-57604511D01*
X114128328Y-57604511D02*
X114128328Y-57390225D01*
X114128328Y-57390225D02*
X114199757Y-57247368D01*
X114199757Y-57247368D02*
X114271185Y-57175939D01*
X114128328Y-58533082D02*
X115628328Y-58533082D01*
X114199757Y-58533082D02*
X114128328Y-58675940D01*
X114128328Y-58675940D02*
X114128328Y-58961654D01*
X114128328Y-58961654D02*
X114199757Y-59104511D01*
X114199757Y-59104511D02*
X114271185Y-59175940D01*
X114271185Y-59175940D02*
X114414042Y-59247368D01*
X114414042Y-59247368D02*
X114842614Y-59247368D01*
X114842614Y-59247368D02*
X114985471Y-59175940D01*
X114985471Y-59175940D02*
X115056900Y-59104511D01*
X115056900Y-59104511D02*
X115128328Y-58961654D01*
X115128328Y-58961654D02*
X115128328Y-58675940D01*
X115128328Y-58675940D02*
X115056900Y-58533082D01*
X115056900Y-59818797D02*
X115128328Y-59961654D01*
X115128328Y-59961654D02*
X115128328Y-60247368D01*
X115128328Y-60247368D02*
X115056900Y-60390225D01*
X115056900Y-60390225D02*
X114914042Y-60461654D01*
X114914042Y-60461654D02*
X114842614Y-60461654D01*
X114842614Y-60461654D02*
X114699757Y-60390225D01*
X114699757Y-60390225D02*
X114628328Y-60247368D01*
X114628328Y-60247368D02*
X114628328Y-60033083D01*
X114628328Y-60033083D02*
X114556900Y-59890225D01*
X114556900Y-59890225D02*
X114414042Y-59818797D01*
X114414042Y-59818797D02*
X114342614Y-59818797D01*
X114342614Y-59818797D02*
X114199757Y-59890225D01*
X114199757Y-59890225D02*
X114128328Y-60033083D01*
X114128328Y-60033083D02*
X114128328Y-60247368D01*
X114128328Y-60247368D02*
X114199757Y-60390225D01*
X117428328Y-55461653D02*
X116714042Y-54961653D01*
X117428328Y-54604510D02*
X115928328Y-54604510D01*
X115928328Y-54604510D02*
X115928328Y-55175939D01*
X115928328Y-55175939D02*
X115999757Y-55318796D01*
X115999757Y-55318796D02*
X116071185Y-55390225D01*
X116071185Y-55390225D02*
X116214042Y-55461653D01*
X116214042Y-55461653D02*
X116428328Y-55461653D01*
X116428328Y-55461653D02*
X116571185Y-55390225D01*
X116571185Y-55390225D02*
X116642614Y-55318796D01*
X116642614Y-55318796D02*
X116714042Y-55175939D01*
X116714042Y-55175939D02*
X116714042Y-54604510D01*
X116642614Y-56104510D02*
X116642614Y-56604510D01*
X117428328Y-56818796D02*
X117428328Y-56104510D01*
X117428328Y-56104510D02*
X115928328Y-56104510D01*
X115928328Y-56104510D02*
X115928328Y-56818796D01*
X115928328Y-57247368D02*
X117428328Y-57747368D01*
X117428328Y-57747368D02*
X115928328Y-58247368D01*
X117285471Y-60747367D02*
X117356900Y-60675939D01*
X117356900Y-60675939D02*
X117428328Y-60461653D01*
X117428328Y-60461653D02*
X117428328Y-60318796D01*
X117428328Y-60318796D02*
X117356900Y-60104510D01*
X117356900Y-60104510D02*
X117214042Y-59961653D01*
X117214042Y-59961653D02*
X117071185Y-59890224D01*
X117071185Y-59890224D02*
X116785471Y-59818796D01*
X116785471Y-59818796D02*
X116571185Y-59818796D01*
X116571185Y-59818796D02*
X116285471Y-59890224D01*
X116285471Y-59890224D02*
X116142614Y-59961653D01*
X116142614Y-59961653D02*
X115999757Y-60104510D01*
X115999757Y-60104510D02*
X115928328Y-60318796D01*
X115928328Y-60318796D02*
X115928328Y-60461653D01*
X115928328Y-60461653D02*
X115999757Y-60675939D01*
X115999757Y-60675939D02*
X116071185Y-60747367D01*
D11*
X112000000Y-72000000D03*
D12*
X34835000Y-64000000D03*
D13*
X34835000Y-56500000D03*
D14*
X32685000Y-62650000D03*
X36985000Y-62650000D03*
X32685000Y-57850000D03*
X36985000Y-57850000D03*
D11*
X35000000Y-72000000D03*
X35000000Y-30000000D03*
X112000000Y-30000000D03*
G36*
G01*
X84875000Y-44350000D02*
X84875000Y-44450000D01*
G75*
G02*
X84825000Y-44500000I-50000J0D01*
G01*
X84050000Y-44500000D01*
G75*
G02*
X84000000Y-44450000I0J50000D01*
G01*
X84000000Y-44350000D01*
G75*
G02*
X84050000Y-44300000I50000J0D01*
G01*
X84825000Y-44300000D01*
G75*
G02*
X84875000Y-44350000I0J-50000D01*
G01*
G37*
G36*
G01*
X84875000Y-44750000D02*
X84875000Y-44850000D01*
G75*
G02*
X84825000Y-44900000I-50000J0D01*
G01*
X84050000Y-44900000D01*
G75*
G02*
X84000000Y-44850000I0J50000D01*
G01*
X84000000Y-44750000D01*
G75*
G02*
X84050000Y-44700000I50000J0D01*
G01*
X84825000Y-44700000D01*
G75*
G02*
X84875000Y-44750000I0J-50000D01*
G01*
G37*
G36*
G01*
X84875000Y-45150000D02*
X84875000Y-45250000D01*
G75*
G02*
X84825000Y-45300000I-50000J0D01*
G01*
X84050000Y-45300000D01*
G75*
G02*
X84000000Y-45250000I0J50000D01*
G01*
X84000000Y-45150000D01*
G75*
G02*
X84050000Y-45100000I50000J0D01*
G01*
X84825000Y-45100000D01*
G75*
G02*
X84875000Y-45150000I0J-50000D01*
G01*
G37*
G36*
G01*
X84875000Y-45550000D02*
X84875000Y-45650000D01*
G75*
G02*
X84825000Y-45700000I-50000J0D01*
G01*
X84050000Y-45700000D01*
G75*
G02*
X84000000Y-45650000I0J50000D01*
G01*
X84000000Y-45550000D01*
G75*
G02*
X84050000Y-45500000I50000J0D01*
G01*
X84825000Y-45500000D01*
G75*
G02*
X84875000Y-45550000I0J-50000D01*
G01*
G37*
G36*
G01*
X84875000Y-45950000D02*
X84875000Y-46050000D01*
G75*
G02*
X84825000Y-46100000I-50000J0D01*
G01*
X84050000Y-46100000D01*
G75*
G02*
X84000000Y-46050000I0J50000D01*
G01*
X84000000Y-45950000D01*
G75*
G02*
X84050000Y-45900000I50000J0D01*
G01*
X84825000Y-45900000D01*
G75*
G02*
X84875000Y-45950000I0J-50000D01*
G01*
G37*
G36*
G01*
X84875000Y-46350000D02*
X84875000Y-46450000D01*
G75*
G02*
X84825000Y-46500000I-50000J0D01*
G01*
X84050000Y-46500000D01*
G75*
G02*
X84000000Y-46450000I0J50000D01*
G01*
X84000000Y-46350000D01*
G75*
G02*
X84050000Y-46300000I50000J0D01*
G01*
X84825000Y-46300000D01*
G75*
G02*
X84875000Y-46350000I0J-50000D01*
G01*
G37*
G36*
G01*
X84875000Y-46750000D02*
X84875000Y-46850000D01*
G75*
G02*
X84825000Y-46900000I-50000J0D01*
G01*
X84050000Y-46900000D01*
G75*
G02*
X84000000Y-46850000I0J50000D01*
G01*
X84000000Y-46750000D01*
G75*
G02*
X84050000Y-46700000I50000J0D01*
G01*
X84825000Y-46700000D01*
G75*
G02*
X84875000Y-46750000I0J-50000D01*
G01*
G37*
G36*
G01*
X84875000Y-47150000D02*
X84875000Y-47250000D01*
G75*
G02*
X84825000Y-47300000I-50000J0D01*
G01*
X84050000Y-47300000D01*
G75*
G02*
X84000000Y-47250000I0J50000D01*
G01*
X84000000Y-47150000D01*
G75*
G02*
X84050000Y-47100000I50000J0D01*
G01*
X84825000Y-47100000D01*
G75*
G02*
X84875000Y-47150000I0J-50000D01*
G01*
G37*
G36*
G01*
X84875000Y-47550000D02*
X84875000Y-47650000D01*
G75*
G02*
X84825000Y-47700000I-50000J0D01*
G01*
X84050000Y-47700000D01*
G75*
G02*
X84000000Y-47650000I0J50000D01*
G01*
X84000000Y-47550000D01*
G75*
G02*
X84050000Y-47500000I50000J0D01*
G01*
X84825000Y-47500000D01*
G75*
G02*
X84875000Y-47550000I0J-50000D01*
G01*
G37*
G36*
G01*
X84875000Y-47950000D02*
X84875000Y-48050000D01*
G75*
G02*
X84825000Y-48100000I-50000J0D01*
G01*
X84050000Y-48100000D01*
G75*
G02*
X84000000Y-48050000I0J50000D01*
G01*
X84000000Y-47950000D01*
G75*
G02*
X84050000Y-47900000I50000J0D01*
G01*
X84825000Y-47900000D01*
G75*
G02*
X84875000Y-47950000I0J-50000D01*
G01*
G37*
G36*
G01*
X84875000Y-48350000D02*
X84875000Y-48450000D01*
G75*
G02*
X84825000Y-48500000I-50000J0D01*
G01*
X84050000Y-48500000D01*
G75*
G02*
X84000000Y-48450000I0J50000D01*
G01*
X84000000Y-48350000D01*
G75*
G02*
X84050000Y-48300000I50000J0D01*
G01*
X84825000Y-48300000D01*
G75*
G02*
X84875000Y-48350000I0J-50000D01*
G01*
G37*
G36*
G01*
X84875000Y-48750000D02*
X84875000Y-48850000D01*
G75*
G02*
X84825000Y-48900000I-50000J0D01*
G01*
X84050000Y-48900000D01*
G75*
G02*
X84000000Y-48850000I0J50000D01*
G01*
X84000000Y-48750000D01*
G75*
G02*
X84050000Y-48700000I50000J0D01*
G01*
X84825000Y-48700000D01*
G75*
G02*
X84875000Y-48750000I0J-50000D01*
G01*
G37*
G36*
G01*
X84875000Y-49150000D02*
X84875000Y-49250000D01*
G75*
G02*
X84825000Y-49300000I-50000J0D01*
G01*
X84050000Y-49300000D01*
G75*
G02*
X84000000Y-49250000I0J50000D01*
G01*
X84000000Y-49150000D01*
G75*
G02*
X84050000Y-49100000I50000J0D01*
G01*
X84825000Y-49100000D01*
G75*
G02*
X84875000Y-49150000I0J-50000D01*
G01*
G37*
G36*
G01*
X84875000Y-49550000D02*
X84875000Y-49650000D01*
G75*
G02*
X84825000Y-49700000I-50000J0D01*
G01*
X84050000Y-49700000D01*
G75*
G02*
X84000000Y-49650000I0J50000D01*
G01*
X84000000Y-49550000D01*
G75*
G02*
X84050000Y-49500000I50000J0D01*
G01*
X84825000Y-49500000D01*
G75*
G02*
X84875000Y-49550000I0J-50000D01*
G01*
G37*
G36*
G01*
X83700000Y-50050000D02*
X83700000Y-50825000D01*
G75*
G02*
X83650000Y-50875000I-50000J0D01*
G01*
X83550000Y-50875000D01*
G75*
G02*
X83500000Y-50825000I0J50000D01*
G01*
X83500000Y-50050000D01*
G75*
G02*
X83550000Y-50000000I50000J0D01*
G01*
X83650000Y-50000000D01*
G75*
G02*
X83700000Y-50050000I0J-50000D01*
G01*
G37*
G36*
G01*
X83300000Y-50050000D02*
X83300000Y-50825000D01*
G75*
G02*
X83250000Y-50875000I-50000J0D01*
G01*
X83150000Y-50875000D01*
G75*
G02*
X83100000Y-50825000I0J50000D01*
G01*
X83100000Y-50050000D01*
G75*
G02*
X83150000Y-50000000I50000J0D01*
G01*
X83250000Y-50000000D01*
G75*
G02*
X83300000Y-50050000I0J-50000D01*
G01*
G37*
G36*
G01*
X82900000Y-50050000D02*
X82900000Y-50825000D01*
G75*
G02*
X82850000Y-50875000I-50000J0D01*
G01*
X82750000Y-50875000D01*
G75*
G02*
X82700000Y-50825000I0J50000D01*
G01*
X82700000Y-50050000D01*
G75*
G02*
X82750000Y-50000000I50000J0D01*
G01*
X82850000Y-50000000D01*
G75*
G02*
X82900000Y-50050000I0J-50000D01*
G01*
G37*
G36*
G01*
X82500000Y-50050000D02*
X82500000Y-50825000D01*
G75*
G02*
X82450000Y-50875000I-50000J0D01*
G01*
X82350000Y-50875000D01*
G75*
G02*
X82300000Y-50825000I0J50000D01*
G01*
X82300000Y-50050000D01*
G75*
G02*
X82350000Y-50000000I50000J0D01*
G01*
X82450000Y-50000000D01*
G75*
G02*
X82500000Y-50050000I0J-50000D01*
G01*
G37*
G36*
G01*
X82100000Y-50050000D02*
X82100000Y-50825000D01*
G75*
G02*
X82050000Y-50875000I-50000J0D01*
G01*
X81950000Y-50875000D01*
G75*
G02*
X81900000Y-50825000I0J50000D01*
G01*
X81900000Y-50050000D01*
G75*
G02*
X81950000Y-50000000I50000J0D01*
G01*
X82050000Y-50000000D01*
G75*
G02*
X82100000Y-50050000I0J-50000D01*
G01*
G37*
G36*
G01*
X81700000Y-50050000D02*
X81700000Y-50825000D01*
G75*
G02*
X81650000Y-50875000I-50000J0D01*
G01*
X81550000Y-50875000D01*
G75*
G02*
X81500000Y-50825000I0J50000D01*
G01*
X81500000Y-50050000D01*
G75*
G02*
X81550000Y-50000000I50000J0D01*
G01*
X81650000Y-50000000D01*
G75*
G02*
X81700000Y-50050000I0J-50000D01*
G01*
G37*
G36*
G01*
X81300000Y-50050000D02*
X81300000Y-50825000D01*
G75*
G02*
X81250000Y-50875000I-50000J0D01*
G01*
X81150000Y-50875000D01*
G75*
G02*
X81100000Y-50825000I0J50000D01*
G01*
X81100000Y-50050000D01*
G75*
G02*
X81150000Y-50000000I50000J0D01*
G01*
X81250000Y-50000000D01*
G75*
G02*
X81300000Y-50050000I0J-50000D01*
G01*
G37*
G36*
G01*
X80900000Y-50050000D02*
X80900000Y-50825000D01*
G75*
G02*
X80850000Y-50875000I-50000J0D01*
G01*
X80750000Y-50875000D01*
G75*
G02*
X80700000Y-50825000I0J50000D01*
G01*
X80700000Y-50050000D01*
G75*
G02*
X80750000Y-50000000I50000J0D01*
G01*
X80850000Y-50000000D01*
G75*
G02*
X80900000Y-50050000I0J-50000D01*
G01*
G37*
G36*
G01*
X80500000Y-50050000D02*
X80500000Y-50825000D01*
G75*
G02*
X80450000Y-50875000I-50000J0D01*
G01*
X80350000Y-50875000D01*
G75*
G02*
X80300000Y-50825000I0J50000D01*
G01*
X80300000Y-50050000D01*
G75*
G02*
X80350000Y-50000000I50000J0D01*
G01*
X80450000Y-50000000D01*
G75*
G02*
X80500000Y-50050000I0J-50000D01*
G01*
G37*
G36*
G01*
X80100000Y-50050000D02*
X80100000Y-50825000D01*
G75*
G02*
X80050000Y-50875000I-50000J0D01*
G01*
X79950000Y-50875000D01*
G75*
G02*
X79900000Y-50825000I0J50000D01*
G01*
X79900000Y-50050000D01*
G75*
G02*
X79950000Y-50000000I50000J0D01*
G01*
X80050000Y-50000000D01*
G75*
G02*
X80100000Y-50050000I0J-50000D01*
G01*
G37*
G36*
G01*
X79700000Y-50050000D02*
X79700000Y-50825000D01*
G75*
G02*
X79650000Y-50875000I-50000J0D01*
G01*
X79550000Y-50875000D01*
G75*
G02*
X79500000Y-50825000I0J50000D01*
G01*
X79500000Y-50050000D01*
G75*
G02*
X79550000Y-50000000I50000J0D01*
G01*
X79650000Y-50000000D01*
G75*
G02*
X79700000Y-50050000I0J-50000D01*
G01*
G37*
G36*
G01*
X79300000Y-50050000D02*
X79300000Y-50825000D01*
G75*
G02*
X79250000Y-50875000I-50000J0D01*
G01*
X79150000Y-50875000D01*
G75*
G02*
X79100000Y-50825000I0J50000D01*
G01*
X79100000Y-50050000D01*
G75*
G02*
X79150000Y-50000000I50000J0D01*
G01*
X79250000Y-50000000D01*
G75*
G02*
X79300000Y-50050000I0J-50000D01*
G01*
G37*
G36*
G01*
X78900000Y-50050000D02*
X78900000Y-50825000D01*
G75*
G02*
X78850000Y-50875000I-50000J0D01*
G01*
X78750000Y-50875000D01*
G75*
G02*
X78700000Y-50825000I0J50000D01*
G01*
X78700000Y-50050000D01*
G75*
G02*
X78750000Y-50000000I50000J0D01*
G01*
X78850000Y-50000000D01*
G75*
G02*
X78900000Y-50050000I0J-50000D01*
G01*
G37*
G36*
G01*
X78500000Y-50050000D02*
X78500000Y-50825000D01*
G75*
G02*
X78450000Y-50875000I-50000J0D01*
G01*
X78350000Y-50875000D01*
G75*
G02*
X78300000Y-50825000I0J50000D01*
G01*
X78300000Y-50050000D01*
G75*
G02*
X78350000Y-50000000I50000J0D01*
G01*
X78450000Y-50000000D01*
G75*
G02*
X78500000Y-50050000I0J-50000D01*
G01*
G37*
G36*
G01*
X78000000Y-49550000D02*
X78000000Y-49650000D01*
G75*
G02*
X77950000Y-49700000I-50000J0D01*
G01*
X77175000Y-49700000D01*
G75*
G02*
X77125000Y-49650000I0J50000D01*
G01*
X77125000Y-49550000D01*
G75*
G02*
X77175000Y-49500000I50000J0D01*
G01*
X77950000Y-49500000D01*
G75*
G02*
X78000000Y-49550000I0J-50000D01*
G01*
G37*
G36*
G01*
X78000000Y-49150000D02*
X78000000Y-49250000D01*
G75*
G02*
X77950000Y-49300000I-50000J0D01*
G01*
X77175000Y-49300000D01*
G75*
G02*
X77125000Y-49250000I0J50000D01*
G01*
X77125000Y-49150000D01*
G75*
G02*
X77175000Y-49100000I50000J0D01*
G01*
X77950000Y-49100000D01*
G75*
G02*
X78000000Y-49150000I0J-50000D01*
G01*
G37*
G36*
G01*
X78000000Y-48750000D02*
X78000000Y-48850000D01*
G75*
G02*
X77950000Y-48900000I-50000J0D01*
G01*
X77175000Y-48900000D01*
G75*
G02*
X77125000Y-48850000I0J50000D01*
G01*
X77125000Y-48750000D01*
G75*
G02*
X77175000Y-48700000I50000J0D01*
G01*
X77950000Y-48700000D01*
G75*
G02*
X78000000Y-48750000I0J-50000D01*
G01*
G37*
G36*
G01*
X78000000Y-48350000D02*
X78000000Y-48450000D01*
G75*
G02*
X77950000Y-48500000I-50000J0D01*
G01*
X77175000Y-48500000D01*
G75*
G02*
X77125000Y-48450000I0J50000D01*
G01*
X77125000Y-48350000D01*
G75*
G02*
X77175000Y-48300000I50000J0D01*
G01*
X77950000Y-48300000D01*
G75*
G02*
X78000000Y-48350000I0J-50000D01*
G01*
G37*
G36*
G01*
X78000000Y-47950000D02*
X78000000Y-48050000D01*
G75*
G02*
X77950000Y-48100000I-50000J0D01*
G01*
X77175000Y-48100000D01*
G75*
G02*
X77125000Y-48050000I0J50000D01*
G01*
X77125000Y-47950000D01*
G75*
G02*
X77175000Y-47900000I50000J0D01*
G01*
X77950000Y-47900000D01*
G75*
G02*
X78000000Y-47950000I0J-50000D01*
G01*
G37*
G36*
G01*
X78000000Y-47550000D02*
X78000000Y-47650000D01*
G75*
G02*
X77950000Y-47700000I-50000J0D01*
G01*
X77175000Y-47700000D01*
G75*
G02*
X77125000Y-47650000I0J50000D01*
G01*
X77125000Y-47550000D01*
G75*
G02*
X77175000Y-47500000I50000J0D01*
G01*
X77950000Y-47500000D01*
G75*
G02*
X78000000Y-47550000I0J-50000D01*
G01*
G37*
G36*
G01*
X78000000Y-47150000D02*
X78000000Y-47250000D01*
G75*
G02*
X77950000Y-47300000I-50000J0D01*
G01*
X77175000Y-47300000D01*
G75*
G02*
X77125000Y-47250000I0J50000D01*
G01*
X77125000Y-47150000D01*
G75*
G02*
X77175000Y-47100000I50000J0D01*
G01*
X77950000Y-47100000D01*
G75*
G02*
X78000000Y-47150000I0J-50000D01*
G01*
G37*
G36*
G01*
X78000000Y-46750000D02*
X78000000Y-46850000D01*
G75*
G02*
X77950000Y-46900000I-50000J0D01*
G01*
X77175000Y-46900000D01*
G75*
G02*
X77125000Y-46850000I0J50000D01*
G01*
X77125000Y-46750000D01*
G75*
G02*
X77175000Y-46700000I50000J0D01*
G01*
X77950000Y-46700000D01*
G75*
G02*
X78000000Y-46750000I0J-50000D01*
G01*
G37*
G36*
G01*
X78000000Y-46350000D02*
X78000000Y-46450000D01*
G75*
G02*
X77950000Y-46500000I-50000J0D01*
G01*
X77175000Y-46500000D01*
G75*
G02*
X77125000Y-46450000I0J50000D01*
G01*
X77125000Y-46350000D01*
G75*
G02*
X77175000Y-46300000I50000J0D01*
G01*
X77950000Y-46300000D01*
G75*
G02*
X78000000Y-46350000I0J-50000D01*
G01*
G37*
G36*
G01*
X78000000Y-45950000D02*
X78000000Y-46050000D01*
G75*
G02*
X77950000Y-46100000I-50000J0D01*
G01*
X77175000Y-46100000D01*
G75*
G02*
X77125000Y-46050000I0J50000D01*
G01*
X77125000Y-45950000D01*
G75*
G02*
X77175000Y-45900000I50000J0D01*
G01*
X77950000Y-45900000D01*
G75*
G02*
X78000000Y-45950000I0J-50000D01*
G01*
G37*
G36*
G01*
X78000000Y-45550000D02*
X78000000Y-45650000D01*
G75*
G02*
X77950000Y-45700000I-50000J0D01*
G01*
X77175000Y-45700000D01*
G75*
G02*
X77125000Y-45650000I0J50000D01*
G01*
X77125000Y-45550000D01*
G75*
G02*
X77175000Y-45500000I50000J0D01*
G01*
X77950000Y-45500000D01*
G75*
G02*
X78000000Y-45550000I0J-50000D01*
G01*
G37*
G36*
G01*
X78000000Y-45150000D02*
X78000000Y-45250000D01*
G75*
G02*
X77950000Y-45300000I-50000J0D01*
G01*
X77175000Y-45300000D01*
G75*
G02*
X77125000Y-45250000I0J50000D01*
G01*
X77125000Y-45150000D01*
G75*
G02*
X77175000Y-45100000I50000J0D01*
G01*
X77950000Y-45100000D01*
G75*
G02*
X78000000Y-45150000I0J-50000D01*
G01*
G37*
G36*
G01*
X78000000Y-44750000D02*
X78000000Y-44850000D01*
G75*
G02*
X77950000Y-44900000I-50000J0D01*
G01*
X77175000Y-44900000D01*
G75*
G02*
X77125000Y-44850000I0J50000D01*
G01*
X77125000Y-44750000D01*
G75*
G02*
X77175000Y-44700000I50000J0D01*
G01*
X77950000Y-44700000D01*
G75*
G02*
X78000000Y-44750000I0J-50000D01*
G01*
G37*
G36*
G01*
X78000000Y-44350000D02*
X78000000Y-44450000D01*
G75*
G02*
X77950000Y-44500000I-50000J0D01*
G01*
X77175000Y-44500000D01*
G75*
G02*
X77125000Y-44450000I0J50000D01*
G01*
X77125000Y-44350000D01*
G75*
G02*
X77175000Y-44300000I50000J0D01*
G01*
X77950000Y-44300000D01*
G75*
G02*
X78000000Y-44350000I0J-50000D01*
G01*
G37*
G36*
G01*
X78500000Y-43175000D02*
X78500000Y-43950000D01*
G75*
G02*
X78450000Y-44000000I-50000J0D01*
G01*
X78350000Y-44000000D01*
G75*
G02*
X78300000Y-43950000I0J50000D01*
G01*
X78300000Y-43175000D01*
G75*
G02*
X78350000Y-43125000I50000J0D01*
G01*
X78450000Y-43125000D01*
G75*
G02*
X78500000Y-43175000I0J-50000D01*
G01*
G37*
G36*
G01*
X78900000Y-43175000D02*
X78900000Y-43950000D01*
G75*
G02*
X78850000Y-44000000I-50000J0D01*
G01*
X78750000Y-44000000D01*
G75*
G02*
X78700000Y-43950000I0J50000D01*
G01*
X78700000Y-43175000D01*
G75*
G02*
X78750000Y-43125000I50000J0D01*
G01*
X78850000Y-43125000D01*
G75*
G02*
X78900000Y-43175000I0J-50000D01*
G01*
G37*
G36*
G01*
X79300000Y-43175000D02*
X79300000Y-43950000D01*
G75*
G02*
X79250000Y-44000000I-50000J0D01*
G01*
X79150000Y-44000000D01*
G75*
G02*
X79100000Y-43950000I0J50000D01*
G01*
X79100000Y-43175000D01*
G75*
G02*
X79150000Y-43125000I50000J0D01*
G01*
X79250000Y-43125000D01*
G75*
G02*
X79300000Y-43175000I0J-50000D01*
G01*
G37*
G36*
G01*
X79700000Y-43175000D02*
X79700000Y-43950000D01*
G75*
G02*
X79650000Y-44000000I-50000J0D01*
G01*
X79550000Y-44000000D01*
G75*
G02*
X79500000Y-43950000I0J50000D01*
G01*
X79500000Y-43175000D01*
G75*
G02*
X79550000Y-43125000I50000J0D01*
G01*
X79650000Y-43125000D01*
G75*
G02*
X79700000Y-43175000I0J-50000D01*
G01*
G37*
G36*
G01*
X80100000Y-43175000D02*
X80100000Y-43950000D01*
G75*
G02*
X80050000Y-44000000I-50000J0D01*
G01*
X79950000Y-44000000D01*
G75*
G02*
X79900000Y-43950000I0J50000D01*
G01*
X79900000Y-43175000D01*
G75*
G02*
X79950000Y-43125000I50000J0D01*
G01*
X80050000Y-43125000D01*
G75*
G02*
X80100000Y-43175000I0J-50000D01*
G01*
G37*
G36*
G01*
X80500000Y-43175000D02*
X80500000Y-43950000D01*
G75*
G02*
X80450000Y-44000000I-50000J0D01*
G01*
X80350000Y-44000000D01*
G75*
G02*
X80300000Y-43950000I0J50000D01*
G01*
X80300000Y-43175000D01*
G75*
G02*
X80350000Y-43125000I50000J0D01*
G01*
X80450000Y-43125000D01*
G75*
G02*
X80500000Y-43175000I0J-50000D01*
G01*
G37*
G36*
G01*
X80900000Y-43175000D02*
X80900000Y-43950000D01*
G75*
G02*
X80850000Y-44000000I-50000J0D01*
G01*
X80750000Y-44000000D01*
G75*
G02*
X80700000Y-43950000I0J50000D01*
G01*
X80700000Y-43175000D01*
G75*
G02*
X80750000Y-43125000I50000J0D01*
G01*
X80850000Y-43125000D01*
G75*
G02*
X80900000Y-43175000I0J-50000D01*
G01*
G37*
G36*
G01*
X81300000Y-43175000D02*
X81300000Y-43950000D01*
G75*
G02*
X81250000Y-44000000I-50000J0D01*
G01*
X81150000Y-44000000D01*
G75*
G02*
X81100000Y-43950000I0J50000D01*
G01*
X81100000Y-43175000D01*
G75*
G02*
X81150000Y-43125000I50000J0D01*
G01*
X81250000Y-43125000D01*
G75*
G02*
X81300000Y-43175000I0J-50000D01*
G01*
G37*
G36*
G01*
X81700000Y-43175000D02*
X81700000Y-43950000D01*
G75*
G02*
X81650000Y-44000000I-50000J0D01*
G01*
X81550000Y-44000000D01*
G75*
G02*
X81500000Y-43950000I0J50000D01*
G01*
X81500000Y-43175000D01*
G75*
G02*
X81550000Y-43125000I50000J0D01*
G01*
X81650000Y-43125000D01*
G75*
G02*
X81700000Y-43175000I0J-50000D01*
G01*
G37*
G36*
G01*
X82100000Y-43175000D02*
X82100000Y-43950000D01*
G75*
G02*
X82050000Y-44000000I-50000J0D01*
G01*
X81950000Y-44000000D01*
G75*
G02*
X81900000Y-43950000I0J50000D01*
G01*
X81900000Y-43175000D01*
G75*
G02*
X81950000Y-43125000I50000J0D01*
G01*
X82050000Y-43125000D01*
G75*
G02*
X82100000Y-43175000I0J-50000D01*
G01*
G37*
G36*
G01*
X82500000Y-43175000D02*
X82500000Y-43950000D01*
G75*
G02*
X82450000Y-44000000I-50000J0D01*
G01*
X82350000Y-44000000D01*
G75*
G02*
X82300000Y-43950000I0J50000D01*
G01*
X82300000Y-43175000D01*
G75*
G02*
X82350000Y-43125000I50000J0D01*
G01*
X82450000Y-43125000D01*
G75*
G02*
X82500000Y-43175000I0J-50000D01*
G01*
G37*
G36*
G01*
X82900000Y-43175000D02*
X82900000Y-43950000D01*
G75*
G02*
X82850000Y-44000000I-50000J0D01*
G01*
X82750000Y-44000000D01*
G75*
G02*
X82700000Y-43950000I0J50000D01*
G01*
X82700000Y-43175000D01*
G75*
G02*
X82750000Y-43125000I50000J0D01*
G01*
X82850000Y-43125000D01*
G75*
G02*
X82900000Y-43175000I0J-50000D01*
G01*
G37*
G36*
G01*
X83300000Y-43175000D02*
X83300000Y-43950000D01*
G75*
G02*
X83250000Y-44000000I-50000J0D01*
G01*
X83150000Y-44000000D01*
G75*
G02*
X83100000Y-43950000I0J50000D01*
G01*
X83100000Y-43175000D01*
G75*
G02*
X83150000Y-43125000I50000J0D01*
G01*
X83250000Y-43125000D01*
G75*
G02*
X83300000Y-43175000I0J-50000D01*
G01*
G37*
G36*
G01*
X83700000Y-43175000D02*
X83700000Y-43950000D01*
G75*
G02*
X83650000Y-44000000I-50000J0D01*
G01*
X83550000Y-44000000D01*
G75*
G02*
X83500000Y-43950000I0J50000D01*
G01*
X83500000Y-43175000D01*
G75*
G02*
X83550000Y-43125000I50000J0D01*
G01*
X83650000Y-43125000D01*
G75*
G02*
X83700000Y-43175000I0J-50000D01*
G01*
G37*
D15*
X81000000Y-47000000D03*
G36*
G01*
X102315000Y-38720000D02*
X102685000Y-38720000D01*
G75*
G02*
X102820000Y-38855000I0J-135000D01*
G01*
X102820000Y-39125000D01*
G75*
G02*
X102685000Y-39260000I-135000J0D01*
G01*
X102315000Y-39260000D01*
G75*
G02*
X102180000Y-39125000I0J135000D01*
G01*
X102180000Y-38855000D01*
G75*
G02*
X102315000Y-38720000I135000J0D01*
G01*
G37*
G36*
G01*
X102315000Y-39740000D02*
X102685000Y-39740000D01*
G75*
G02*
X102820000Y-39875000I0J-135000D01*
G01*
X102820000Y-40145000D01*
G75*
G02*
X102685000Y-40280000I-135000J0D01*
G01*
X102315000Y-40280000D01*
G75*
G02*
X102180000Y-40145000I0J135000D01*
G01*
X102180000Y-39875000D01*
G75*
G02*
X102315000Y-39740000I135000J0D01*
G01*
G37*
G36*
G01*
X102275000Y-41750000D02*
X102275000Y-41250000D01*
G75*
G02*
X102500000Y-41025000I225000J0D01*
G01*
X102950000Y-41025000D01*
G75*
G02*
X103175000Y-41250000I0J-225000D01*
G01*
X103175000Y-41750000D01*
G75*
G02*
X102950000Y-41975000I-225000J0D01*
G01*
X102500000Y-41975000D01*
G75*
G02*
X102275000Y-41750000I0J225000D01*
G01*
G37*
G36*
G01*
X103825000Y-41750000D02*
X103825000Y-41250000D01*
G75*
G02*
X104050000Y-41025000I225000J0D01*
G01*
X104500000Y-41025000D01*
G75*
G02*
X104725000Y-41250000I0J-225000D01*
G01*
X104725000Y-41750000D01*
G75*
G02*
X104500000Y-41975000I-225000J0D01*
G01*
X104050000Y-41975000D01*
G75*
G02*
X103825000Y-41750000I0J225000D01*
G01*
G37*
G36*
G01*
X94779999Y-47315000D02*
X94779999Y-47685000D01*
G75*
G02*
X94644999Y-47820000I-135000J0D01*
G01*
X94374999Y-47820000D01*
G75*
G02*
X94239999Y-47685000I0J135000D01*
G01*
X94239999Y-47315000D01*
G75*
G02*
X94374999Y-47180000I135000J0D01*
G01*
X94644999Y-47180000D01*
G75*
G02*
X94779999Y-47315000I0J-135000D01*
G01*
G37*
G36*
G01*
X93760001Y-47315000D02*
X93760001Y-47685000D01*
G75*
G02*
X93625001Y-47820000I-135000J0D01*
G01*
X93355001Y-47820000D01*
G75*
G02*
X93220001Y-47685000I0J135000D01*
G01*
X93220001Y-47315000D01*
G75*
G02*
X93355001Y-47180000I135000J0D01*
G01*
X93625001Y-47180000D01*
G75*
G02*
X93760001Y-47315000I0J-135000D01*
G01*
G37*
G36*
G01*
X74840000Y-48170000D02*
X74840000Y-47830000D01*
G75*
G02*
X74980000Y-47690000I140000J0D01*
G01*
X75260000Y-47690000D01*
G75*
G02*
X75400000Y-47830000I0J-140000D01*
G01*
X75400000Y-48170000D01*
G75*
G02*
X75260000Y-48310000I-140000J0D01*
G01*
X74980000Y-48310000D01*
G75*
G02*
X74840000Y-48170000I0J140000D01*
G01*
G37*
G36*
G01*
X75800000Y-48170000D02*
X75800000Y-47830000D01*
G75*
G02*
X75940000Y-47690000I140000J0D01*
G01*
X76220000Y-47690000D01*
G75*
G02*
X76360000Y-47830000I0J-140000D01*
G01*
X76360000Y-48170000D01*
G75*
G02*
X76220000Y-48310000I-140000J0D01*
G01*
X75940000Y-48310000D01*
G75*
G02*
X75800000Y-48170000I0J140000D01*
G01*
G37*
G36*
G01*
X47575000Y-43250000D02*
X47575000Y-42750000D01*
G75*
G02*
X47800000Y-42525000I225000J0D01*
G01*
X48250000Y-42525000D01*
G75*
G02*
X48475000Y-42750000I0J-225000D01*
G01*
X48475000Y-43250000D01*
G75*
G02*
X48250000Y-43475000I-225000J0D01*
G01*
X47800000Y-43475000D01*
G75*
G02*
X47575000Y-43250000I0J225000D01*
G01*
G37*
G36*
G01*
X49125000Y-43250000D02*
X49125000Y-42750000D01*
G75*
G02*
X49350000Y-42525000I225000J0D01*
G01*
X49800000Y-42525000D01*
G75*
G02*
X50025000Y-42750000I0J-225000D01*
G01*
X50025000Y-43250000D01*
G75*
G02*
X49800000Y-43475000I-225000J0D01*
G01*
X49350000Y-43475000D01*
G75*
G02*
X49125000Y-43250000I0J225000D01*
G01*
G37*
G36*
G01*
X30115000Y-60320000D02*
X30485000Y-60320000D01*
G75*
G02*
X30620000Y-60455000I0J-135000D01*
G01*
X30620000Y-60725000D01*
G75*
G02*
X30485000Y-60860000I-135000J0D01*
G01*
X30115000Y-60860000D01*
G75*
G02*
X29980000Y-60725000I0J135000D01*
G01*
X29980000Y-60455000D01*
G75*
G02*
X30115000Y-60320000I135000J0D01*
G01*
G37*
G36*
G01*
X30115000Y-61340000D02*
X30485000Y-61340000D01*
G75*
G02*
X30620000Y-61475000I0J-135000D01*
G01*
X30620000Y-61745000D01*
G75*
G02*
X30485000Y-61880000I-135000J0D01*
G01*
X30115000Y-61880000D01*
G75*
G02*
X29980000Y-61745000I0J135000D01*
G01*
X29980000Y-61475000D01*
G75*
G02*
X30115000Y-61340000I135000J0D01*
G01*
G37*
G36*
G01*
X80830000Y-40240000D02*
X81170000Y-40240000D01*
G75*
G02*
X81310000Y-40380000I0J-140000D01*
G01*
X81310000Y-40660000D01*
G75*
G02*
X81170000Y-40800000I-140000J0D01*
G01*
X80830000Y-40800000D01*
G75*
G02*
X80690000Y-40660000I0J140000D01*
G01*
X80690000Y-40380000D01*
G75*
G02*
X80830000Y-40240000I140000J0D01*
G01*
G37*
G36*
G01*
X80830000Y-41200000D02*
X81170000Y-41200000D01*
G75*
G02*
X81310000Y-41340000I0J-140000D01*
G01*
X81310000Y-41620000D01*
G75*
G02*
X81170000Y-41760000I-140000J0D01*
G01*
X80830000Y-41760000D01*
G75*
G02*
X80690000Y-41620000I0J140000D01*
G01*
X80690000Y-41340000D01*
G75*
G02*
X80830000Y-41200000I140000J0D01*
G01*
G37*
G36*
G01*
X94600000Y-46675000D02*
X94300000Y-46675000D01*
G75*
G02*
X94150000Y-46525000I0J150000D01*
G01*
X94150000Y-45350000D01*
G75*
G02*
X94300000Y-45200000I150000J0D01*
G01*
X94600000Y-45200000D01*
G75*
G02*
X94750000Y-45350000I0J-150000D01*
G01*
X94750000Y-46525000D01*
G75*
G02*
X94600000Y-46675000I-150000J0D01*
G01*
G37*
G36*
G01*
X92700000Y-46675000D02*
X92400000Y-46675000D01*
G75*
G02*
X92250000Y-46525000I0J150000D01*
G01*
X92250000Y-45350000D01*
G75*
G02*
X92400000Y-45200000I150000J0D01*
G01*
X92700000Y-45200000D01*
G75*
G02*
X92850000Y-45350000I0J-150000D01*
G01*
X92850000Y-46525000D01*
G75*
G02*
X92700000Y-46675000I-150000J0D01*
G01*
G37*
G36*
G01*
X93650000Y-44800000D02*
X93350000Y-44800000D01*
G75*
G02*
X93200000Y-44650000I0J150000D01*
G01*
X93200000Y-43475000D01*
G75*
G02*
X93350000Y-43325000I150000J0D01*
G01*
X93650000Y-43325000D01*
G75*
G02*
X93800000Y-43475000I0J-150000D01*
G01*
X93800000Y-44650000D01*
G75*
G02*
X93650000Y-44800000I-150000J0D01*
G01*
G37*
G36*
G01*
X47575000Y-44750000D02*
X47575000Y-44250000D01*
G75*
G02*
X47800000Y-44025000I225000J0D01*
G01*
X48250000Y-44025000D01*
G75*
G02*
X48475000Y-44250000I0J-225000D01*
G01*
X48475000Y-44750000D01*
G75*
G02*
X48250000Y-44975000I-225000J0D01*
G01*
X47800000Y-44975000D01*
G75*
G02*
X47575000Y-44750000I0J225000D01*
G01*
G37*
G36*
G01*
X49125000Y-44750000D02*
X49125000Y-44250000D01*
G75*
G02*
X49350000Y-44025000I225000J0D01*
G01*
X49800000Y-44025000D01*
G75*
G02*
X50025000Y-44250000I0J-225000D01*
G01*
X50025000Y-44750000D01*
G75*
G02*
X49800000Y-44975000I-225000J0D01*
G01*
X49350000Y-44975000D01*
G75*
G02*
X49125000Y-44750000I0J225000D01*
G01*
G37*
G36*
G01*
X47775000Y-38550000D02*
X47775000Y-38050000D01*
G75*
G02*
X48000000Y-37825000I225000J0D01*
G01*
X48450000Y-37825000D01*
G75*
G02*
X48675000Y-38050000I0J-225000D01*
G01*
X48675000Y-38550000D01*
G75*
G02*
X48450000Y-38775000I-225000J0D01*
G01*
X48000000Y-38775000D01*
G75*
G02*
X47775000Y-38550000I0J225000D01*
G01*
G37*
G36*
G01*
X49325000Y-38550000D02*
X49325000Y-38050000D01*
G75*
G02*
X49550000Y-37825000I225000J0D01*
G01*
X50000000Y-37825000D01*
G75*
G02*
X50225000Y-38050000I0J-225000D01*
G01*
X50225000Y-38550000D01*
G75*
G02*
X50000000Y-38775000I-225000J0D01*
G01*
X49550000Y-38775000D01*
G75*
G02*
X49325000Y-38550000I0J225000D01*
G01*
G37*
D16*
X54825000Y-56350000D03*
X55925000Y-56350000D03*
X57025000Y-56350000D03*
X58125000Y-56350000D03*
X59225000Y-56350000D03*
X60325000Y-56350000D03*
X61425000Y-56350000D03*
X62525000Y-56350000D03*
D17*
X63650000Y-47125000D03*
D18*
X52425000Y-45550000D03*
D19*
X63975000Y-48625000D03*
D20*
X63725000Y-56225000D03*
D21*
X52375000Y-56225000D03*
D22*
X52025000Y-47975000D03*
G36*
G01*
X57050000Y-37800000D02*
X57050000Y-37200000D01*
G75*
G02*
X57300000Y-36950000I250000J0D01*
G01*
X57900000Y-36950000D01*
G75*
G02*
X58150000Y-37200000I0J-250000D01*
G01*
X58150000Y-37800000D01*
G75*
G02*
X57900000Y-38050000I-250000J0D01*
G01*
X57300000Y-38050000D01*
G75*
G02*
X57050000Y-37800000I0J250000D01*
G01*
G37*
G36*
G01*
X59850000Y-37800000D02*
X59850000Y-37200000D01*
G75*
G02*
X60100000Y-36950000I250000J0D01*
G01*
X60700000Y-36950000D01*
G75*
G02*
X60950000Y-37200000I0J-250000D01*
G01*
X60950000Y-37800000D01*
G75*
G02*
X60700000Y-38050000I-250000J0D01*
G01*
X60100000Y-38050000D01*
G75*
G02*
X59850000Y-37800000I0J250000D01*
G01*
G37*
G36*
G01*
X90220000Y-35685000D02*
X90220000Y-35315000D01*
G75*
G02*
X90355000Y-35180000I135000J0D01*
G01*
X90625000Y-35180000D01*
G75*
G02*
X90760000Y-35315000I0J-135000D01*
G01*
X90760000Y-35685000D01*
G75*
G02*
X90625000Y-35820000I-135000J0D01*
G01*
X90355000Y-35820000D01*
G75*
G02*
X90220000Y-35685000I0J135000D01*
G01*
G37*
G36*
G01*
X91240000Y-35685000D02*
X91240000Y-35315000D01*
G75*
G02*
X91375000Y-35180000I135000J0D01*
G01*
X91645000Y-35180000D01*
G75*
G02*
X91780000Y-35315000I0J-135000D01*
G01*
X91780000Y-35685000D01*
G75*
G02*
X91645000Y-35820000I-135000J0D01*
G01*
X91375000Y-35820000D01*
G75*
G02*
X91240000Y-35685000I0J135000D01*
G01*
G37*
G36*
G01*
X79442391Y-37582807D02*
X79682807Y-37342391D01*
G75*
G02*
X79880797Y-37342391I98995J-98995D01*
G01*
X80078787Y-37540381D01*
G75*
G02*
X80078787Y-37738371I-98995J-98995D01*
G01*
X79838371Y-37978787D01*
G75*
G02*
X79640381Y-37978787I-98995J98995D01*
G01*
X79442391Y-37780797D01*
G75*
G02*
X79442391Y-37582807I98995J98995D01*
G01*
G37*
G36*
G01*
X80121213Y-38261629D02*
X80361629Y-38021213D01*
G75*
G02*
X80559619Y-38021213I98995J-98995D01*
G01*
X80757609Y-38219203D01*
G75*
G02*
X80757609Y-38417193I-98995J-98995D01*
G01*
X80517193Y-38657609D01*
G75*
G02*
X80319203Y-38657609I-98995J98995D01*
G01*
X80121213Y-38459619D01*
G75*
G02*
X80121213Y-38261629I98995J98995D01*
G01*
G37*
G36*
G01*
X97050000Y-31525000D02*
X97050000Y-32475000D01*
G75*
G02*
X96800000Y-32725000I-250000J0D01*
G01*
X96300000Y-32725000D01*
G75*
G02*
X96050000Y-32475000I0J250000D01*
G01*
X96050000Y-31525000D01*
G75*
G02*
X96300000Y-31275000I250000J0D01*
G01*
X96800000Y-31275000D01*
G75*
G02*
X97050000Y-31525000I0J-250000D01*
G01*
G37*
G36*
G01*
X95150000Y-31525000D02*
X95150000Y-32475000D01*
G75*
G02*
X94900000Y-32725000I-250000J0D01*
G01*
X94400000Y-32725000D01*
G75*
G02*
X94150000Y-32475000I0J250000D01*
G01*
X94150000Y-31525000D01*
G75*
G02*
X94400000Y-31275000I250000J0D01*
G01*
X94900000Y-31275000D01*
G75*
G02*
X95150000Y-31525000I0J-250000D01*
G01*
G37*
G36*
G01*
X105420001Y-34585000D02*
X105420001Y-34215000D01*
G75*
G02*
X105555001Y-34080000I135000J0D01*
G01*
X105825001Y-34080000D01*
G75*
G02*
X105960001Y-34215000I0J-135000D01*
G01*
X105960001Y-34585000D01*
G75*
G02*
X105825001Y-34720000I-135000J0D01*
G01*
X105555001Y-34720000D01*
G75*
G02*
X105420001Y-34585000I0J135000D01*
G01*
G37*
G36*
G01*
X106439999Y-34585000D02*
X106439999Y-34215000D01*
G75*
G02*
X106574999Y-34080000I135000J0D01*
G01*
X106844999Y-34080000D01*
G75*
G02*
X106979999Y-34215000I0J-135000D01*
G01*
X106979999Y-34585000D01*
G75*
G02*
X106844999Y-34720000I-135000J0D01*
G01*
X106574999Y-34720000D01*
G75*
G02*
X106439999Y-34585000I0J135000D01*
G01*
G37*
G36*
G01*
X67075000Y-32000000D02*
X67075000Y-32300000D01*
G75*
G02*
X66925000Y-32450000I-150000J0D01*
G01*
X65750000Y-32450000D01*
G75*
G02*
X65600000Y-32300000I0J150000D01*
G01*
X65600000Y-32000000D01*
G75*
G02*
X65750000Y-31850000I150000J0D01*
G01*
X66925000Y-31850000D01*
G75*
G02*
X67075000Y-32000000I0J-150000D01*
G01*
G37*
G36*
G01*
X67075000Y-33900000D02*
X67075000Y-34200000D01*
G75*
G02*
X66925000Y-34350000I-150000J0D01*
G01*
X65750000Y-34350000D01*
G75*
G02*
X65600000Y-34200000I0J150000D01*
G01*
X65600000Y-33900000D01*
G75*
G02*
X65750000Y-33750000I150000J0D01*
G01*
X66925000Y-33750000D01*
G75*
G02*
X67075000Y-33900000I0J-150000D01*
G01*
G37*
G36*
G01*
X65200000Y-32950000D02*
X65200000Y-33250000D01*
G75*
G02*
X65050000Y-33400000I-150000J0D01*
G01*
X63875000Y-33400000D01*
G75*
G02*
X63725000Y-33250000I0J150000D01*
G01*
X63725000Y-32950000D01*
G75*
G02*
X63875000Y-32800000I150000J0D01*
G01*
X65050000Y-32800000D01*
G75*
G02*
X65200000Y-32950000I0J-150000D01*
G01*
G37*
D23*
X45600000Y-36300000D03*
X45600000Y-36800000D03*
X45600000Y-37300000D03*
X45600000Y-37800000D03*
X45600000Y-38300000D03*
X45600000Y-38800000D03*
X45600000Y-39300000D03*
X45600000Y-39800000D03*
X45600000Y-40300000D03*
X45600000Y-40800000D03*
X45600000Y-41300000D03*
X45600000Y-41800000D03*
X45600000Y-42300000D03*
X45600000Y-42800000D03*
X45600000Y-43300000D03*
X45600000Y-43800000D03*
X45600000Y-44300000D03*
X45600000Y-44800000D03*
X45600000Y-45300000D03*
X45600000Y-45800000D03*
X45600000Y-46300000D03*
X45600000Y-46800000D03*
X45600000Y-47300000D03*
X45600000Y-47800000D03*
D24*
X42950000Y-48800000D03*
X42950000Y-35300000D03*
D25*
X94489642Y-61070000D03*
X100789642Y-61070000D03*
X94489642Y-57270000D03*
X100789642Y-57270000D03*
G36*
G01*
X95215000Y-38920000D02*
X95585000Y-38920000D01*
G75*
G02*
X95720000Y-39055000I0J-135000D01*
G01*
X95720000Y-39325000D01*
G75*
G02*
X95585000Y-39460000I-135000J0D01*
G01*
X95215000Y-39460000D01*
G75*
G02*
X95080000Y-39325000I0J135000D01*
G01*
X95080000Y-39055000D01*
G75*
G02*
X95215000Y-38920000I135000J0D01*
G01*
G37*
G36*
G01*
X95215000Y-39940000D02*
X95585000Y-39940000D01*
G75*
G02*
X95720000Y-40075000I0J-135000D01*
G01*
X95720000Y-40345000D01*
G75*
G02*
X95585000Y-40480000I-135000J0D01*
G01*
X95215000Y-40480000D01*
G75*
G02*
X95080000Y-40345000I0J135000D01*
G01*
X95080000Y-40075000D01*
G75*
G02*
X95215000Y-39940000I135000J0D01*
G01*
G37*
G36*
G01*
X47575000Y-47250000D02*
X47575000Y-46750000D01*
G75*
G02*
X47800000Y-46525000I225000J0D01*
G01*
X48250000Y-46525000D01*
G75*
G02*
X48475000Y-46750000I0J-225000D01*
G01*
X48475000Y-47250000D01*
G75*
G02*
X48250000Y-47475000I-225000J0D01*
G01*
X47800000Y-47475000D01*
G75*
G02*
X47575000Y-47250000I0J225000D01*
G01*
G37*
G36*
G01*
X49125000Y-47250000D02*
X49125000Y-46750000D01*
G75*
G02*
X49350000Y-46525000I225000J0D01*
G01*
X49800000Y-46525000D01*
G75*
G02*
X50025000Y-46750000I0J-225000D01*
G01*
X50025000Y-47250000D01*
G75*
G02*
X49800000Y-47475000I-225000J0D01*
G01*
X49350000Y-47475000D01*
G75*
G02*
X49125000Y-47250000I0J225000D01*
G01*
G37*
G36*
G01*
X87330000Y-54240000D02*
X87670000Y-54240000D01*
G75*
G02*
X87810000Y-54380000I0J-140000D01*
G01*
X87810000Y-54660000D01*
G75*
G02*
X87670000Y-54800000I-140000J0D01*
G01*
X87330000Y-54800000D01*
G75*
G02*
X87190000Y-54660000I0J140000D01*
G01*
X87190000Y-54380000D01*
G75*
G02*
X87330000Y-54240000I140000J0D01*
G01*
G37*
G36*
G01*
X87330000Y-55200000D02*
X87670000Y-55200000D01*
G75*
G02*
X87810000Y-55340000I0J-140000D01*
G01*
X87810000Y-55620000D01*
G75*
G02*
X87670000Y-55760000I-140000J0D01*
G01*
X87330000Y-55760000D01*
G75*
G02*
X87190000Y-55620000I0J140000D01*
G01*
X87190000Y-55340000D01*
G75*
G02*
X87330000Y-55200000I140000J0D01*
G01*
G37*
G36*
G01*
X104950000Y-31945000D02*
X104950000Y-32245000D01*
G75*
G02*
X104800000Y-32395000I-150000J0D01*
G01*
X103500000Y-32395000D01*
G75*
G02*
X103350000Y-32245000I0J150000D01*
G01*
X103350000Y-31945000D01*
G75*
G02*
X103500000Y-31795000I150000J0D01*
G01*
X104800000Y-31795000D01*
G75*
G02*
X104950000Y-31945000I0J-150000D01*
G01*
G37*
G36*
G01*
X104950000Y-33215000D02*
X104950000Y-33515000D01*
G75*
G02*
X104800000Y-33665000I-150000J0D01*
G01*
X103500000Y-33665000D01*
G75*
G02*
X103350000Y-33515000I0J150000D01*
G01*
X103350000Y-33215000D01*
G75*
G02*
X103500000Y-33065000I150000J0D01*
G01*
X104800000Y-33065000D01*
G75*
G02*
X104950000Y-33215000I0J-150000D01*
G01*
G37*
G36*
G01*
X104950000Y-34485000D02*
X104950000Y-34785000D01*
G75*
G02*
X104800000Y-34935000I-150000J0D01*
G01*
X103500000Y-34935000D01*
G75*
G02*
X103350000Y-34785000I0J150000D01*
G01*
X103350000Y-34485000D01*
G75*
G02*
X103500000Y-34335000I150000J0D01*
G01*
X104800000Y-34335000D01*
G75*
G02*
X104950000Y-34485000I0J-150000D01*
G01*
G37*
G36*
G01*
X104950000Y-35755000D02*
X104950000Y-36055000D01*
G75*
G02*
X104800000Y-36205000I-150000J0D01*
G01*
X103500000Y-36205000D01*
G75*
G02*
X103350000Y-36055000I0J150000D01*
G01*
X103350000Y-35755000D01*
G75*
G02*
X103500000Y-35605000I150000J0D01*
G01*
X104800000Y-35605000D01*
G75*
G02*
X104950000Y-35755000I0J-150000D01*
G01*
G37*
G36*
G01*
X99650000Y-35755000D02*
X99650000Y-36055000D01*
G75*
G02*
X99500000Y-36205000I-150000J0D01*
G01*
X98200000Y-36205000D01*
G75*
G02*
X98050000Y-36055000I0J150000D01*
G01*
X98050000Y-35755000D01*
G75*
G02*
X98200000Y-35605000I150000J0D01*
G01*
X99500000Y-35605000D01*
G75*
G02*
X99650000Y-35755000I0J-150000D01*
G01*
G37*
G36*
G01*
X99650000Y-34485000D02*
X99650000Y-34785000D01*
G75*
G02*
X99500000Y-34935000I-150000J0D01*
G01*
X98200000Y-34935000D01*
G75*
G02*
X98050000Y-34785000I0J150000D01*
G01*
X98050000Y-34485000D01*
G75*
G02*
X98200000Y-34335000I150000J0D01*
G01*
X99500000Y-34335000D01*
G75*
G02*
X99650000Y-34485000I0J-150000D01*
G01*
G37*
G36*
G01*
X99650000Y-33215000D02*
X99650000Y-33515000D01*
G75*
G02*
X99500000Y-33665000I-150000J0D01*
G01*
X98200000Y-33665000D01*
G75*
G02*
X98050000Y-33515000I0J150000D01*
G01*
X98050000Y-33215000D01*
G75*
G02*
X98200000Y-33065000I150000J0D01*
G01*
X99500000Y-33065000D01*
G75*
G02*
X99650000Y-33215000I0J-150000D01*
G01*
G37*
G36*
G01*
X99650000Y-31945000D02*
X99650000Y-32245000D01*
G75*
G02*
X99500000Y-32395000I-150000J0D01*
G01*
X98200000Y-32395000D01*
G75*
G02*
X98050000Y-32245000I0J150000D01*
G01*
X98050000Y-31945000D01*
G75*
G02*
X98200000Y-31795000I150000J0D01*
G01*
X99500000Y-31795000D01*
G75*
G02*
X99650000Y-31945000I0J-150000D01*
G01*
G37*
D26*
X101500000Y-34000000D03*
G36*
G01*
X103315000Y-38720000D02*
X103685000Y-38720000D01*
G75*
G02*
X103820000Y-38855000I0J-135000D01*
G01*
X103820000Y-39125000D01*
G75*
G02*
X103685000Y-39260000I-135000J0D01*
G01*
X103315000Y-39260000D01*
G75*
G02*
X103180000Y-39125000I0J135000D01*
G01*
X103180000Y-38855000D01*
G75*
G02*
X103315000Y-38720000I135000J0D01*
G01*
G37*
G36*
G01*
X103315000Y-39740000D02*
X103685000Y-39740000D01*
G75*
G02*
X103820000Y-39875000I0J-135000D01*
G01*
X103820000Y-40145000D01*
G75*
G02*
X103685000Y-40280000I-135000J0D01*
G01*
X103315000Y-40280000D01*
G75*
G02*
X103180000Y-40145000I0J135000D01*
G01*
X103180000Y-39875000D01*
G75*
G02*
X103315000Y-39740000I135000J0D01*
G01*
G37*
G36*
G01*
X81270000Y-53760000D02*
X80930000Y-53760000D01*
G75*
G02*
X80790000Y-53620000I0J140000D01*
G01*
X80790000Y-53340000D01*
G75*
G02*
X80930000Y-53200000I140000J0D01*
G01*
X81270000Y-53200000D01*
G75*
G02*
X81410000Y-53340000I0J-140000D01*
G01*
X81410000Y-53620000D01*
G75*
G02*
X81270000Y-53760000I-140000J0D01*
G01*
G37*
G36*
G01*
X81270000Y-52800000D02*
X80930000Y-52800000D01*
G75*
G02*
X80790000Y-52660000I0J140000D01*
G01*
X80790000Y-52380000D01*
G75*
G02*
X80930000Y-52240000I140000J0D01*
G01*
X81270000Y-52240000D01*
G75*
G02*
X81410000Y-52380000I0J-140000D01*
G01*
X81410000Y-52660000D01*
G75*
G02*
X81270000Y-52800000I-140000J0D01*
G01*
G37*
G36*
G01*
X104315000Y-47720000D02*
X104685000Y-47720000D01*
G75*
G02*
X104820000Y-47855000I0J-135000D01*
G01*
X104820000Y-48125000D01*
G75*
G02*
X104685000Y-48260000I-135000J0D01*
G01*
X104315000Y-48260000D01*
G75*
G02*
X104180000Y-48125000I0J135000D01*
G01*
X104180000Y-47855000D01*
G75*
G02*
X104315000Y-47720000I135000J0D01*
G01*
G37*
G36*
G01*
X104315000Y-48740000D02*
X104685000Y-48740000D01*
G75*
G02*
X104820000Y-48875000I0J-135000D01*
G01*
X104820000Y-49145000D01*
G75*
G02*
X104685000Y-49280000I-135000J0D01*
G01*
X104315000Y-49280000D01*
G75*
G02*
X104180000Y-49145000I0J135000D01*
G01*
X104180000Y-48875000D01*
G75*
G02*
X104315000Y-48740000I135000J0D01*
G01*
G37*
G36*
G01*
X84240000Y-35670000D02*
X84240000Y-35330000D01*
G75*
G02*
X84380000Y-35190000I140000J0D01*
G01*
X84660000Y-35190000D01*
G75*
G02*
X84800000Y-35330000I0J-140000D01*
G01*
X84800000Y-35670000D01*
G75*
G02*
X84660000Y-35810000I-140000J0D01*
G01*
X84380000Y-35810000D01*
G75*
G02*
X84240000Y-35670000I0J140000D01*
G01*
G37*
G36*
G01*
X85200000Y-35670000D02*
X85200000Y-35330000D01*
G75*
G02*
X85340000Y-35190000I140000J0D01*
G01*
X85620000Y-35190000D01*
G75*
G02*
X85760000Y-35330000I0J-140000D01*
G01*
X85760000Y-35670000D01*
G75*
G02*
X85620000Y-35810000I-140000J0D01*
G01*
X85340000Y-35810000D01*
G75*
G02*
X85200000Y-35670000I0J140000D01*
G01*
G37*
G36*
G01*
X78815000Y-40710001D02*
X79185000Y-40710001D01*
G75*
G02*
X79320000Y-40845001I0J-135000D01*
G01*
X79320000Y-41115001D01*
G75*
G02*
X79185000Y-41250001I-135000J0D01*
G01*
X78815000Y-41250001D01*
G75*
G02*
X78680000Y-41115001I0J135000D01*
G01*
X78680000Y-40845001D01*
G75*
G02*
X78815000Y-40710001I135000J0D01*
G01*
G37*
G36*
G01*
X78815000Y-41730001D02*
X79185000Y-41730001D01*
G75*
G02*
X79320000Y-41865001I0J-135000D01*
G01*
X79320000Y-42135001D01*
G75*
G02*
X79185000Y-42270001I-135000J0D01*
G01*
X78815000Y-42270001D01*
G75*
G02*
X78680000Y-42135001I0J135000D01*
G01*
X78680000Y-41865001D01*
G75*
G02*
X78815000Y-41730001I135000J0D01*
G01*
G37*
G36*
G01*
X69825000Y-51100000D02*
X69825000Y-50800000D01*
G75*
G02*
X69975000Y-50650000I150000J0D01*
G01*
X71150000Y-50650000D01*
G75*
G02*
X71300000Y-50800000I0J-150000D01*
G01*
X71300000Y-51100000D01*
G75*
G02*
X71150000Y-51250000I-150000J0D01*
G01*
X69975000Y-51250000D01*
G75*
G02*
X69825000Y-51100000I0J150000D01*
G01*
G37*
G36*
G01*
X69825000Y-49200000D02*
X69825000Y-48900000D01*
G75*
G02*
X69975000Y-48750000I150000J0D01*
G01*
X71150000Y-48750000D01*
G75*
G02*
X71300000Y-48900000I0J-150000D01*
G01*
X71300000Y-49200000D01*
G75*
G02*
X71150000Y-49350000I-150000J0D01*
G01*
X69975000Y-49350000D01*
G75*
G02*
X69825000Y-49200000I0J150000D01*
G01*
G37*
G36*
G01*
X71700000Y-50150000D02*
X71700000Y-49850000D01*
G75*
G02*
X71850000Y-49700000I150000J0D01*
G01*
X73025000Y-49700000D01*
G75*
G02*
X73175000Y-49850000I0J-150000D01*
G01*
X73175000Y-50150000D01*
G75*
G02*
X73025000Y-50300000I-150000J0D01*
G01*
X71850000Y-50300000D01*
G75*
G02*
X71700000Y-50150000I0J150000D01*
G01*
G37*
G36*
G01*
X92400000Y-36945000D02*
X92400000Y-37245000D01*
G75*
G02*
X92250000Y-37395000I-150000J0D01*
G01*
X90950000Y-37395000D01*
G75*
G02*
X90800000Y-37245000I0J150000D01*
G01*
X90800000Y-36945000D01*
G75*
G02*
X90950000Y-36795000I150000J0D01*
G01*
X92250000Y-36795000D01*
G75*
G02*
X92400000Y-36945000I0J-150000D01*
G01*
G37*
G36*
G01*
X92400000Y-38215000D02*
X92400000Y-38515000D01*
G75*
G02*
X92250000Y-38665000I-150000J0D01*
G01*
X90950000Y-38665000D01*
G75*
G02*
X90800000Y-38515000I0J150000D01*
G01*
X90800000Y-38215000D01*
G75*
G02*
X90950000Y-38065000I150000J0D01*
G01*
X92250000Y-38065000D01*
G75*
G02*
X92400000Y-38215000I0J-150000D01*
G01*
G37*
G36*
G01*
X92400000Y-39485000D02*
X92400000Y-39785000D01*
G75*
G02*
X92250000Y-39935000I-150000J0D01*
G01*
X90950000Y-39935000D01*
G75*
G02*
X90800000Y-39785000I0J150000D01*
G01*
X90800000Y-39485000D01*
G75*
G02*
X90950000Y-39335000I150000J0D01*
G01*
X92250000Y-39335000D01*
G75*
G02*
X92400000Y-39485000I0J-150000D01*
G01*
G37*
G36*
G01*
X92400000Y-40755000D02*
X92400000Y-41055000D01*
G75*
G02*
X92250000Y-41205000I-150000J0D01*
G01*
X90950000Y-41205000D01*
G75*
G02*
X90800000Y-41055000I0J150000D01*
G01*
X90800000Y-40755000D01*
G75*
G02*
X90950000Y-40605000I150000J0D01*
G01*
X92250000Y-40605000D01*
G75*
G02*
X92400000Y-40755000I0J-150000D01*
G01*
G37*
G36*
G01*
X85200000Y-40755000D02*
X85200000Y-41055000D01*
G75*
G02*
X85050000Y-41205000I-150000J0D01*
G01*
X83750000Y-41205000D01*
G75*
G02*
X83600000Y-41055000I0J150000D01*
G01*
X83600000Y-40755000D01*
G75*
G02*
X83750000Y-40605000I150000J0D01*
G01*
X85050000Y-40605000D01*
G75*
G02*
X85200000Y-40755000I0J-150000D01*
G01*
G37*
G36*
G01*
X85200000Y-39485000D02*
X85200000Y-39785000D01*
G75*
G02*
X85050000Y-39935000I-150000J0D01*
G01*
X83750000Y-39935000D01*
G75*
G02*
X83600000Y-39785000I0J150000D01*
G01*
X83600000Y-39485000D01*
G75*
G02*
X83750000Y-39335000I150000J0D01*
G01*
X85050000Y-39335000D01*
G75*
G02*
X85200000Y-39485000I0J-150000D01*
G01*
G37*
G36*
G01*
X85200000Y-38215000D02*
X85200000Y-38515000D01*
G75*
G02*
X85050000Y-38665000I-150000J0D01*
G01*
X83750000Y-38665000D01*
G75*
G02*
X83600000Y-38515000I0J150000D01*
G01*
X83600000Y-38215000D01*
G75*
G02*
X83750000Y-38065000I150000J0D01*
G01*
X85050000Y-38065000D01*
G75*
G02*
X85200000Y-38215000I0J-150000D01*
G01*
G37*
G36*
G01*
X85200000Y-36945000D02*
X85200000Y-37245000D01*
G75*
G02*
X85050000Y-37395000I-150000J0D01*
G01*
X83750000Y-37395000D01*
G75*
G02*
X83600000Y-37245000I0J150000D01*
G01*
X83600000Y-36945000D01*
G75*
G02*
X83750000Y-36795000I150000J0D01*
G01*
X85050000Y-36795000D01*
G75*
G02*
X85200000Y-36945000I0J-150000D01*
G01*
G37*
G36*
G01*
X87280000Y-47830000D02*
X87280000Y-48170000D01*
G75*
G02*
X87140000Y-48310000I-140000J0D01*
G01*
X86860000Y-48310000D01*
G75*
G02*
X86720000Y-48170000I0J140000D01*
G01*
X86720000Y-47830000D01*
G75*
G02*
X86860000Y-47690000I140000J0D01*
G01*
X87140000Y-47690000D01*
G75*
G02*
X87280000Y-47830000I0J-140000D01*
G01*
G37*
G36*
G01*
X86320000Y-47830000D02*
X86320000Y-48170000D01*
G75*
G02*
X86180000Y-48310000I-140000J0D01*
G01*
X85900000Y-48310000D01*
G75*
G02*
X85760000Y-48170000I0J140000D01*
G01*
X85760000Y-47830000D01*
G75*
G02*
X85900000Y-47690000I140000J0D01*
G01*
X86180000Y-47690000D01*
G75*
G02*
X86320000Y-47830000I0J-140000D01*
G01*
G37*
G36*
G01*
X87330000Y-60252500D02*
X87330000Y-60622500D01*
G75*
G02*
X87195000Y-60757500I-135000J0D01*
G01*
X86925000Y-60757500D01*
G75*
G02*
X86790000Y-60622500I0J135000D01*
G01*
X86790000Y-60252500D01*
G75*
G02*
X86925000Y-60117500I135000J0D01*
G01*
X87195000Y-60117500D01*
G75*
G02*
X87330000Y-60252500I0J-135000D01*
G01*
G37*
G36*
G01*
X86310000Y-60252500D02*
X86310000Y-60622500D01*
G75*
G02*
X86175000Y-60757500I-135000J0D01*
G01*
X85905000Y-60757500D01*
G75*
G02*
X85770000Y-60622500I0J135000D01*
G01*
X85770000Y-60252500D01*
G75*
G02*
X85905000Y-60117500I135000J0D01*
G01*
X86175000Y-60117500D01*
G75*
G02*
X86310000Y-60252500I0J-135000D01*
G01*
G37*
G36*
G01*
X53680000Y-43515000D02*
X53680000Y-43885000D01*
G75*
G02*
X53545000Y-44020000I-135000J0D01*
G01*
X53275000Y-44020000D01*
G75*
G02*
X53140000Y-43885000I0J135000D01*
G01*
X53140000Y-43515000D01*
G75*
G02*
X53275000Y-43380000I135000J0D01*
G01*
X53545000Y-43380000D01*
G75*
G02*
X53680000Y-43515000I0J-135000D01*
G01*
G37*
G36*
G01*
X52660000Y-43515000D02*
X52660000Y-43885000D01*
G75*
G02*
X52525000Y-44020000I-135000J0D01*
G01*
X52255000Y-44020000D01*
G75*
G02*
X52120000Y-43885000I0J135000D01*
G01*
X52120000Y-43515000D01*
G75*
G02*
X52255000Y-43380000I135000J0D01*
G01*
X52525000Y-43380000D01*
G75*
G02*
X52660000Y-43515000I0J-135000D01*
G01*
G37*
G36*
G01*
X105420001Y-33585000D02*
X105420001Y-33215000D01*
G75*
G02*
X105555001Y-33080000I135000J0D01*
G01*
X105825001Y-33080000D01*
G75*
G02*
X105960001Y-33215000I0J-135000D01*
G01*
X105960001Y-33585000D01*
G75*
G02*
X105825001Y-33720000I-135000J0D01*
G01*
X105555001Y-33720000D01*
G75*
G02*
X105420001Y-33585000I0J135000D01*
G01*
G37*
G36*
G01*
X106439999Y-33585000D02*
X106439999Y-33215000D01*
G75*
G02*
X106574999Y-33080000I135000J0D01*
G01*
X106844999Y-33080000D01*
G75*
G02*
X106979999Y-33215000I0J-135000D01*
G01*
X106979999Y-33585000D01*
G75*
G02*
X106844999Y-33720000I-135000J0D01*
G01*
X106574999Y-33720000D01*
G75*
G02*
X106439999Y-33585000I0J135000D01*
G01*
G37*
G36*
G01*
X85450000Y-61262500D02*
X85750000Y-61262500D01*
G75*
G02*
X85900000Y-61412500I0J-150000D01*
G01*
X85900000Y-62587500D01*
G75*
G02*
X85750000Y-62737500I-150000J0D01*
G01*
X85450000Y-62737500D01*
G75*
G02*
X85300000Y-62587500I0J150000D01*
G01*
X85300000Y-61412500D01*
G75*
G02*
X85450000Y-61262500I150000J0D01*
G01*
G37*
G36*
G01*
X87350000Y-61262500D02*
X87650000Y-61262500D01*
G75*
G02*
X87800000Y-61412500I0J-150000D01*
G01*
X87800000Y-62587500D01*
G75*
G02*
X87650000Y-62737500I-150000J0D01*
G01*
X87350000Y-62737500D01*
G75*
G02*
X87200000Y-62587500I0J150000D01*
G01*
X87200000Y-61412500D01*
G75*
G02*
X87350000Y-61262500I150000J0D01*
G01*
G37*
G36*
G01*
X86400000Y-63137500D02*
X86700000Y-63137500D01*
G75*
G02*
X86850000Y-63287500I0J-150000D01*
G01*
X86850000Y-64462500D01*
G75*
G02*
X86700000Y-64612500I-150000J0D01*
G01*
X86400000Y-64612500D01*
G75*
G02*
X86250000Y-64462500I0J150000D01*
G01*
X86250000Y-63287500D01*
G75*
G02*
X86400000Y-63137500I150000J0D01*
G01*
G37*
G36*
G01*
X81830000Y-40240000D02*
X82170000Y-40240000D01*
G75*
G02*
X82310000Y-40380000I0J-140000D01*
G01*
X82310000Y-40660000D01*
G75*
G02*
X82170000Y-40800000I-140000J0D01*
G01*
X81830000Y-40800000D01*
G75*
G02*
X81690000Y-40660000I0J140000D01*
G01*
X81690000Y-40380000D01*
G75*
G02*
X81830000Y-40240000I140000J0D01*
G01*
G37*
G36*
G01*
X81830000Y-41200000D02*
X82170000Y-41200000D01*
G75*
G02*
X82310000Y-41340000I0J-140000D01*
G01*
X82310000Y-41620000D01*
G75*
G02*
X82170000Y-41760000I-140000J0D01*
G01*
X81830000Y-41760000D01*
G75*
G02*
X81690000Y-41620000I0J140000D01*
G01*
X81690000Y-41340000D01*
G75*
G02*
X81830000Y-41200000I140000J0D01*
G01*
G37*
G36*
G01*
X81250000Y-31275000D02*
X81750000Y-31275000D01*
G75*
G02*
X81975000Y-31500000I0J-225000D01*
G01*
X81975000Y-31950000D01*
G75*
G02*
X81750000Y-32175000I-225000J0D01*
G01*
X81250000Y-32175000D01*
G75*
G02*
X81025000Y-31950000I0J225000D01*
G01*
X81025000Y-31500000D01*
G75*
G02*
X81250000Y-31275000I225000J0D01*
G01*
G37*
G36*
G01*
X81250000Y-32825000D02*
X81750000Y-32825000D01*
G75*
G02*
X81975000Y-33050000I0J-225000D01*
G01*
X81975000Y-33500000D01*
G75*
G02*
X81750000Y-33725000I-225000J0D01*
G01*
X81250000Y-33725000D01*
G75*
G02*
X81025000Y-33500000I0J225000D01*
G01*
X81025000Y-33050000D01*
G75*
G02*
X81250000Y-32825000I225000J0D01*
G01*
G37*
G36*
G01*
X62870000Y-32260000D02*
X62530000Y-32260000D01*
G75*
G02*
X62390000Y-32120000I0J140000D01*
G01*
X62390000Y-31840000D01*
G75*
G02*
X62530000Y-31700000I140000J0D01*
G01*
X62870000Y-31700000D01*
G75*
G02*
X63010000Y-31840000I0J-140000D01*
G01*
X63010000Y-32120000D01*
G75*
G02*
X62870000Y-32260000I-140000J0D01*
G01*
G37*
G36*
G01*
X62870000Y-31300000D02*
X62530000Y-31300000D01*
G75*
G02*
X62390000Y-31160000I0J140000D01*
G01*
X62390000Y-30880000D01*
G75*
G02*
X62530000Y-30740000I140000J0D01*
G01*
X62870000Y-30740000D01*
G75*
G02*
X63010000Y-30880000I0J-140000D01*
G01*
X63010000Y-31160000D01*
G75*
G02*
X62870000Y-31300000I-140000J0D01*
G01*
G37*
G36*
G01*
X87280000Y-43830000D02*
X87280000Y-44170000D01*
G75*
G02*
X87140000Y-44310000I-140000J0D01*
G01*
X86860000Y-44310000D01*
G75*
G02*
X86720000Y-44170000I0J140000D01*
G01*
X86720000Y-43830000D01*
G75*
G02*
X86860000Y-43690000I140000J0D01*
G01*
X87140000Y-43690000D01*
G75*
G02*
X87280000Y-43830000I0J-140000D01*
G01*
G37*
G36*
G01*
X86320000Y-43830000D02*
X86320000Y-44170000D01*
G75*
G02*
X86180000Y-44310000I-140000J0D01*
G01*
X85900000Y-44310000D01*
G75*
G02*
X85760000Y-44170000I0J140000D01*
G01*
X85760000Y-43830000D01*
G75*
G02*
X85900000Y-43690000I140000J0D01*
G01*
X86180000Y-43690000D01*
G75*
G02*
X86320000Y-43830000I0J-140000D01*
G01*
G37*
G36*
G01*
X104315000Y-54720000D02*
X104685000Y-54720000D01*
G75*
G02*
X104820000Y-54855000I0J-135000D01*
G01*
X104820000Y-55125000D01*
G75*
G02*
X104685000Y-55260000I-135000J0D01*
G01*
X104315000Y-55260000D01*
G75*
G02*
X104180000Y-55125000I0J135000D01*
G01*
X104180000Y-54855000D01*
G75*
G02*
X104315000Y-54720000I135000J0D01*
G01*
G37*
G36*
G01*
X104315000Y-55740000D02*
X104685000Y-55740000D01*
G75*
G02*
X104820000Y-55875000I0J-135000D01*
G01*
X104820000Y-56145000D01*
G75*
G02*
X104685000Y-56280000I-135000J0D01*
G01*
X104315000Y-56280000D01*
G75*
G02*
X104180000Y-56145000I0J135000D01*
G01*
X104180000Y-55875000D01*
G75*
G02*
X104315000Y-55740000I135000J0D01*
G01*
G37*
D27*
X68050000Y-75040000D03*
X71950000Y-75040000D03*
X68050000Y-73770000D03*
X71950000Y-73770000D03*
X68050000Y-72500000D03*
X71950000Y-72500000D03*
X68050000Y-71230000D03*
X71950000Y-71230000D03*
X68050000Y-69960000D03*
X71950000Y-69960000D03*
G36*
G01*
X84000000Y-66150000D02*
X82800000Y-66150000D01*
G75*
G02*
X82600000Y-65950000I0J200000D01*
G01*
X82600000Y-65550000D01*
G75*
G02*
X82800000Y-65350000I200000J0D01*
G01*
X84000000Y-65350000D01*
G75*
G02*
X84200000Y-65550000I0J-200000D01*
G01*
X84200000Y-65950000D01*
G75*
G02*
X84000000Y-66150000I-200000J0D01*
G01*
G37*
G36*
G01*
X84000000Y-64900000D02*
X82800000Y-64900000D01*
G75*
G02*
X82600000Y-64700000I0J200000D01*
G01*
X82600000Y-64300000D01*
G75*
G02*
X82800000Y-64100000I200000J0D01*
G01*
X84000000Y-64100000D01*
G75*
G02*
X84200000Y-64300000I0J-200000D01*
G01*
X84200000Y-64700000D01*
G75*
G02*
X84000000Y-64900000I-200000J0D01*
G01*
G37*
G36*
G01*
X84000000Y-63650000D02*
X82800000Y-63650000D01*
G75*
G02*
X82600000Y-63450000I0J200000D01*
G01*
X82600000Y-63050000D01*
G75*
G02*
X82800000Y-62850000I200000J0D01*
G01*
X84000000Y-62850000D01*
G75*
G02*
X84200000Y-63050000I0J-200000D01*
G01*
X84200000Y-63450000D01*
G75*
G02*
X84000000Y-63650000I-200000J0D01*
G01*
G37*
G36*
G01*
X81749999Y-69350000D02*
X79250001Y-69350000D01*
G75*
G02*
X79000000Y-69099999I0J250001D01*
G01*
X79000000Y-67500001D01*
G75*
G02*
X79250001Y-67250000I250001J0D01*
G01*
X81749999Y-67250000D01*
G75*
G02*
X82000000Y-67500001I0J-250001D01*
G01*
X82000000Y-69099999D01*
G75*
G02*
X81749999Y-69350000I-250001J0D01*
G01*
G37*
G36*
G01*
X81749999Y-61750000D02*
X79250001Y-61750000D01*
G75*
G02*
X79000000Y-61499999I0J250001D01*
G01*
X79000000Y-59900001D01*
G75*
G02*
X79250001Y-59650000I250001J0D01*
G01*
X81749999Y-59650000D01*
G75*
G02*
X82000000Y-59900001I0J-250001D01*
G01*
X82000000Y-61499999D01*
G75*
G02*
X81749999Y-61750000I-250001J0D01*
G01*
G37*
G36*
G01*
X55750000Y-40775000D02*
X56250000Y-40775000D01*
G75*
G02*
X56475000Y-41000000I0J-225000D01*
G01*
X56475000Y-41450000D01*
G75*
G02*
X56250000Y-41675000I-225000J0D01*
G01*
X55750000Y-41675000D01*
G75*
G02*
X55525000Y-41450000I0J225000D01*
G01*
X55525000Y-41000000D01*
G75*
G02*
X55750000Y-40775000I225000J0D01*
G01*
G37*
G36*
G01*
X55750000Y-42325000D02*
X56250000Y-42325000D01*
G75*
G02*
X56475000Y-42550000I0J-225000D01*
G01*
X56475000Y-43000000D01*
G75*
G02*
X56250000Y-43225000I-225000J0D01*
G01*
X55750000Y-43225000D01*
G75*
G02*
X55525000Y-43000000I0J225000D01*
G01*
X55525000Y-42550000D01*
G75*
G02*
X55750000Y-42325000I225000J0D01*
G01*
G37*
G36*
G01*
X35870000Y-62460000D02*
X35530000Y-62460000D01*
G75*
G02*
X35390000Y-62320000I0J140000D01*
G01*
X35390000Y-62040000D01*
G75*
G02*
X35530000Y-61900000I140000J0D01*
G01*
X35870000Y-61900000D01*
G75*
G02*
X36010000Y-62040000I0J-140000D01*
G01*
X36010000Y-62320000D01*
G75*
G02*
X35870000Y-62460000I-140000J0D01*
G01*
G37*
G36*
G01*
X35870000Y-61500000D02*
X35530000Y-61500000D01*
G75*
G02*
X35390000Y-61360000I0J140000D01*
G01*
X35390000Y-61080000D01*
G75*
G02*
X35530000Y-60940000I140000J0D01*
G01*
X35870000Y-60940000D01*
G75*
G02*
X36010000Y-61080000I0J-140000D01*
G01*
X36010000Y-61360000D01*
G75*
G02*
X35870000Y-61500000I-140000J0D01*
G01*
G37*
D25*
X75850000Y-74900000D03*
X82150000Y-74900000D03*
X75850000Y-71100000D03*
X82150000Y-71100000D03*
G36*
G01*
X75750000Y-39775000D02*
X76250000Y-39775000D01*
G75*
G02*
X76475000Y-40000000I0J-225000D01*
G01*
X76475000Y-40450000D01*
G75*
G02*
X76250000Y-40675000I-225000J0D01*
G01*
X75750000Y-40675000D01*
G75*
G02*
X75525000Y-40450000I0J225000D01*
G01*
X75525000Y-40000000D01*
G75*
G02*
X75750000Y-39775000I225000J0D01*
G01*
G37*
G36*
G01*
X75750000Y-41325000D02*
X76250000Y-41325000D01*
G75*
G02*
X76475000Y-41550000I0J-225000D01*
G01*
X76475000Y-42000000D01*
G75*
G02*
X76250000Y-42225000I-225000J0D01*
G01*
X75750000Y-42225000D01*
G75*
G02*
X75525000Y-42000000I0J225000D01*
G01*
X75525000Y-41550000D01*
G75*
G02*
X75750000Y-41325000I225000J0D01*
G01*
G37*
G36*
G01*
X98225000Y-41800000D02*
X98225000Y-41500000D01*
G75*
G02*
X98375000Y-41350000I150000J0D01*
G01*
X99550000Y-41350000D01*
G75*
G02*
X99700000Y-41500000I0J-150000D01*
G01*
X99700000Y-41800000D01*
G75*
G02*
X99550000Y-41950000I-150000J0D01*
G01*
X98375000Y-41950000D01*
G75*
G02*
X98225000Y-41800000I0J150000D01*
G01*
G37*
G36*
G01*
X98225000Y-39900000D02*
X98225000Y-39600000D01*
G75*
G02*
X98375000Y-39450000I150000J0D01*
G01*
X99550000Y-39450000D01*
G75*
G02*
X99700000Y-39600000I0J-150000D01*
G01*
X99700000Y-39900000D01*
G75*
G02*
X99550000Y-40050000I-150000J0D01*
G01*
X98375000Y-40050000D01*
G75*
G02*
X98225000Y-39900000I0J150000D01*
G01*
G37*
G36*
G01*
X100100000Y-40850000D02*
X100100000Y-40550000D01*
G75*
G02*
X100250000Y-40400000I150000J0D01*
G01*
X101425000Y-40400000D01*
G75*
G02*
X101575000Y-40550000I0J-150000D01*
G01*
X101575000Y-40850000D01*
G75*
G02*
X101425000Y-41000000I-150000J0D01*
G01*
X100250000Y-41000000D01*
G75*
G02*
X100100000Y-40850000I0J150000D01*
G01*
G37*
G36*
G01*
X91925000Y-30425000D02*
X91925000Y-27575000D01*
G75*
G02*
X92175000Y-27325000I250000J0D01*
G01*
X92900000Y-27325000D01*
G75*
G02*
X93150000Y-27575000I0J-250000D01*
G01*
X93150000Y-30425000D01*
G75*
G02*
X92900000Y-30675000I-250000J0D01*
G01*
X92175000Y-30675000D01*
G75*
G02*
X91925000Y-30425000I0J250000D01*
G01*
G37*
G36*
G01*
X97850000Y-30425000D02*
X97850000Y-27575000D01*
G75*
G02*
X98100000Y-27325000I250000J0D01*
G01*
X98825000Y-27325000D01*
G75*
G02*
X99075000Y-27575000I0J-250000D01*
G01*
X99075000Y-30425000D01*
G75*
G02*
X98825000Y-30675000I-250000J0D01*
G01*
X98100000Y-30675000D01*
G75*
G02*
X97850000Y-30425000I0J250000D01*
G01*
G37*
G36*
G01*
X93080000Y-57315000D02*
X93080000Y-57685000D01*
G75*
G02*
X92945000Y-57820000I-135000J0D01*
G01*
X92675000Y-57820000D01*
G75*
G02*
X92540000Y-57685000I0J135000D01*
G01*
X92540000Y-57315000D01*
G75*
G02*
X92675000Y-57180000I135000J0D01*
G01*
X92945000Y-57180000D01*
G75*
G02*
X93080000Y-57315000I0J-135000D01*
G01*
G37*
G36*
G01*
X92060000Y-57315000D02*
X92060000Y-57685000D01*
G75*
G02*
X91925000Y-57820000I-135000J0D01*
G01*
X91655000Y-57820000D01*
G75*
G02*
X91520000Y-57685000I0J135000D01*
G01*
X91520000Y-57315000D01*
G75*
G02*
X91655000Y-57180000I135000J0D01*
G01*
X91925000Y-57180000D01*
G75*
G02*
X92060000Y-57315000I0J-135000D01*
G01*
G37*
G36*
G01*
X68085000Y-33480000D02*
X67715000Y-33480000D01*
G75*
G02*
X67580000Y-33345000I0J135000D01*
G01*
X67580000Y-33075000D01*
G75*
G02*
X67715000Y-32940000I135000J0D01*
G01*
X68085000Y-32940000D01*
G75*
G02*
X68220000Y-33075000I0J-135000D01*
G01*
X68220000Y-33345000D01*
G75*
G02*
X68085000Y-33480000I-135000J0D01*
G01*
G37*
G36*
G01*
X68085000Y-32460000D02*
X67715000Y-32460000D01*
G75*
G02*
X67580000Y-32325000I0J135000D01*
G01*
X67580000Y-32055000D01*
G75*
G02*
X67715000Y-31920000I135000J0D01*
G01*
X68085000Y-31920000D01*
G75*
G02*
X68220000Y-32055000I0J-135000D01*
G01*
X68220000Y-32325000D01*
G75*
G02*
X68085000Y-32460000I-135000J0D01*
G01*
G37*
G36*
G01*
X62387500Y-32775000D02*
X62887500Y-32775000D01*
G75*
G02*
X63112500Y-33000000I0J-225000D01*
G01*
X63112500Y-33450000D01*
G75*
G02*
X62887500Y-33675000I-225000J0D01*
G01*
X62387500Y-33675000D01*
G75*
G02*
X62162500Y-33450000I0J225000D01*
G01*
X62162500Y-33000000D01*
G75*
G02*
X62387500Y-32775000I225000J0D01*
G01*
G37*
G36*
G01*
X62387500Y-34325000D02*
X62887500Y-34325000D01*
G75*
G02*
X63112500Y-34550000I0J-225000D01*
G01*
X63112500Y-35000000D01*
G75*
G02*
X62887500Y-35225000I-225000J0D01*
G01*
X62387500Y-35225000D01*
G75*
G02*
X62162500Y-35000000I0J225000D01*
G01*
X62162500Y-34550000D01*
G75*
G02*
X62387500Y-34325000I225000J0D01*
G01*
G37*
G36*
G01*
X101637500Y-43050000D02*
X101637500Y-43350000D01*
G75*
G02*
X101487500Y-43500000I-150000J0D01*
G01*
X100312500Y-43500000D01*
G75*
G02*
X100162500Y-43350000I0J150000D01*
G01*
X100162500Y-43050000D01*
G75*
G02*
X100312500Y-42900000I150000J0D01*
G01*
X101487500Y-42900000D01*
G75*
G02*
X101637500Y-43050000I0J-150000D01*
G01*
G37*
G36*
G01*
X101637500Y-44950000D02*
X101637500Y-45250000D01*
G75*
G02*
X101487500Y-45400000I-150000J0D01*
G01*
X100312500Y-45400000D01*
G75*
G02*
X100162500Y-45250000I0J150000D01*
G01*
X100162500Y-44950000D01*
G75*
G02*
X100312500Y-44800000I150000J0D01*
G01*
X101487500Y-44800000D01*
G75*
G02*
X101637500Y-44950000I0J-150000D01*
G01*
G37*
G36*
G01*
X99762500Y-44000000D02*
X99762500Y-44300000D01*
G75*
G02*
X99612500Y-44450000I-150000J0D01*
G01*
X98437500Y-44450000D01*
G75*
G02*
X98287500Y-44300000I0J150000D01*
G01*
X98287500Y-44000000D01*
G75*
G02*
X98437500Y-43850000I150000J0D01*
G01*
X99612500Y-43850000D01*
G75*
G02*
X99762500Y-44000000I0J-150000D01*
G01*
G37*
G36*
G01*
X77250000Y-39775000D02*
X77750000Y-39775000D01*
G75*
G02*
X77975000Y-40000000I0J-225000D01*
G01*
X77975000Y-40450000D01*
G75*
G02*
X77750000Y-40675000I-225000J0D01*
G01*
X77250000Y-40675000D01*
G75*
G02*
X77025000Y-40450000I0J225000D01*
G01*
X77025000Y-40000000D01*
G75*
G02*
X77250000Y-39775000I225000J0D01*
G01*
G37*
G36*
G01*
X77250000Y-41325000D02*
X77750000Y-41325000D01*
G75*
G02*
X77975000Y-41550000I0J-225000D01*
G01*
X77975000Y-42000000D01*
G75*
G02*
X77750000Y-42225000I-225000J0D01*
G01*
X77250000Y-42225000D01*
G75*
G02*
X77025000Y-42000000I0J225000D01*
G01*
X77025000Y-41550000D01*
G75*
G02*
X77250000Y-41325000I225000J0D01*
G01*
G37*
G36*
G01*
X67417193Y-37442391D02*
X67657609Y-37682807D01*
G75*
G02*
X67657609Y-37880797I-98995J-98995D01*
G01*
X67459619Y-38078787D01*
G75*
G02*
X67261629Y-38078787I-98995J98995D01*
G01*
X67021213Y-37838371D01*
G75*
G02*
X67021213Y-37640381I98995J98995D01*
G01*
X67219203Y-37442391D01*
G75*
G02*
X67417193Y-37442391I98995J-98995D01*
G01*
G37*
G36*
G01*
X66738371Y-38121213D02*
X66978787Y-38361629D01*
G75*
G02*
X66978787Y-38559619I-98995J-98995D01*
G01*
X66780797Y-38757609D01*
G75*
G02*
X66582807Y-38757609I-98995J98995D01*
G01*
X66342391Y-38517193D01*
G75*
G02*
X66342391Y-38319203I98995J98995D01*
G01*
X66540381Y-38121213D01*
G75*
G02*
X66738371Y-38121213I98995J-98995D01*
G01*
G37*
D28*
X83400000Y-54200000D03*
X85600000Y-54200000D03*
X85600000Y-55800000D03*
X83400000Y-55800000D03*
G36*
G01*
X73750000Y-31050000D02*
X74250000Y-31050000D01*
G75*
G02*
X74475000Y-31275000I0J-225000D01*
G01*
X74475000Y-31725000D01*
G75*
G02*
X74250000Y-31950000I-225000J0D01*
G01*
X73750000Y-31950000D01*
G75*
G02*
X73525000Y-31725000I0J225000D01*
G01*
X73525000Y-31275000D01*
G75*
G02*
X73750000Y-31050000I225000J0D01*
G01*
G37*
G36*
G01*
X73750000Y-32600000D02*
X74250000Y-32600000D01*
G75*
G02*
X74475000Y-32825000I0J-225000D01*
G01*
X74475000Y-33275000D01*
G75*
G02*
X74250000Y-33500000I-225000J0D01*
G01*
X73750000Y-33500000D01*
G75*
G02*
X73525000Y-33275000I0J225000D01*
G01*
X73525000Y-32825000D01*
G75*
G02*
X73750000Y-32600000I225000J0D01*
G01*
G37*
G36*
G01*
X62025000Y-37050000D02*
X62975000Y-37050000D01*
G75*
G02*
X63225000Y-37300000I0J-250000D01*
G01*
X63225000Y-37800000D01*
G75*
G02*
X62975000Y-38050000I-250000J0D01*
G01*
X62025000Y-38050000D01*
G75*
G02*
X61775000Y-37800000I0J250000D01*
G01*
X61775000Y-37300000D01*
G75*
G02*
X62025000Y-37050000I250000J0D01*
G01*
G37*
G36*
G01*
X62025000Y-38950000D02*
X62975000Y-38950000D01*
G75*
G02*
X63225000Y-39200000I0J-250000D01*
G01*
X63225000Y-39700000D01*
G75*
G02*
X62975000Y-39950000I-250000J0D01*
G01*
X62025000Y-39950000D01*
G75*
G02*
X61775000Y-39700000I0J250000D01*
G01*
X61775000Y-39200000D01*
G75*
G02*
X62025000Y-38950000I250000J0D01*
G01*
G37*
G36*
G01*
X74285000Y-46779999D02*
X73915000Y-46779999D01*
G75*
G02*
X73780000Y-46644999I0J135000D01*
G01*
X73780000Y-46374999D01*
G75*
G02*
X73915000Y-46239999I135000J0D01*
G01*
X74285000Y-46239999D01*
G75*
G02*
X74420000Y-46374999I0J-135000D01*
G01*
X74420000Y-46644999D01*
G75*
G02*
X74285000Y-46779999I-135000J0D01*
G01*
G37*
G36*
G01*
X74285000Y-45760001D02*
X73915000Y-45760001D01*
G75*
G02*
X73780000Y-45625001I0J135000D01*
G01*
X73780000Y-45355001D01*
G75*
G02*
X73915000Y-45220001I135000J0D01*
G01*
X74285000Y-45220001D01*
G75*
G02*
X74420000Y-45355001I0J-135000D01*
G01*
X74420000Y-45625001D01*
G75*
G02*
X74285000Y-45760001I-135000J0D01*
G01*
G37*
G36*
G01*
X74840000Y-44570000D02*
X74840000Y-44230000D01*
G75*
G02*
X74980000Y-44090000I140000J0D01*
G01*
X75260000Y-44090000D01*
G75*
G02*
X75400000Y-44230000I0J-140000D01*
G01*
X75400000Y-44570000D01*
G75*
G02*
X75260000Y-44710000I-140000J0D01*
G01*
X74980000Y-44710000D01*
G75*
G02*
X74840000Y-44570000I0J140000D01*
G01*
G37*
G36*
G01*
X75800000Y-44570000D02*
X75800000Y-44230000D01*
G75*
G02*
X75940000Y-44090000I140000J0D01*
G01*
X76220000Y-44090000D01*
G75*
G02*
X76360000Y-44230000I0J-140000D01*
G01*
X76360000Y-44570000D01*
G75*
G02*
X76220000Y-44710000I-140000J0D01*
G01*
X75940000Y-44710000D01*
G75*
G02*
X75800000Y-44570000I0J140000D01*
G01*
G37*
G36*
G01*
X60950000Y-42200000D02*
X60950000Y-42800000D01*
G75*
G02*
X60700000Y-43050000I-250000J0D01*
G01*
X60100000Y-43050000D01*
G75*
G02*
X59850000Y-42800000I0J250000D01*
G01*
X59850000Y-42200000D01*
G75*
G02*
X60100000Y-41950000I250000J0D01*
G01*
X60700000Y-41950000D01*
G75*
G02*
X60950000Y-42200000I0J-250000D01*
G01*
G37*
G36*
G01*
X58150000Y-42200000D02*
X58150000Y-42800000D01*
G75*
G02*
X57900000Y-43050000I-250000J0D01*
G01*
X57300000Y-43050000D01*
G75*
G02*
X57050000Y-42800000I0J250000D01*
G01*
X57050000Y-42200000D01*
G75*
G02*
X57300000Y-41950000I250000J0D01*
G01*
X57900000Y-41950000D01*
G75*
G02*
X58150000Y-42200000I0J-250000D01*
G01*
G37*
G36*
G01*
X38020000Y-56685000D02*
X38020000Y-56315000D01*
G75*
G02*
X38155000Y-56180000I135000J0D01*
G01*
X38425000Y-56180000D01*
G75*
G02*
X38560000Y-56315000I0J-135000D01*
G01*
X38560000Y-56685000D01*
G75*
G02*
X38425000Y-56820000I-135000J0D01*
G01*
X38155000Y-56820000D01*
G75*
G02*
X38020000Y-56685000I0J135000D01*
G01*
G37*
G36*
G01*
X39040000Y-56685000D02*
X39040000Y-56315000D01*
G75*
G02*
X39175000Y-56180000I135000J0D01*
G01*
X39445000Y-56180000D01*
G75*
G02*
X39580000Y-56315000I0J-135000D01*
G01*
X39580000Y-56685000D01*
G75*
G02*
X39445000Y-56820000I-135000J0D01*
G01*
X39175000Y-56820000D01*
G75*
G02*
X39040000Y-56685000I0J135000D01*
G01*
G37*
G36*
G01*
X47575000Y-49750000D02*
X47575000Y-49250000D01*
G75*
G02*
X47800000Y-49025000I225000J0D01*
G01*
X48250000Y-49025000D01*
G75*
G02*
X48475000Y-49250000I0J-225000D01*
G01*
X48475000Y-49750000D01*
G75*
G02*
X48250000Y-49975000I-225000J0D01*
G01*
X47800000Y-49975000D01*
G75*
G02*
X47575000Y-49750000I0J225000D01*
G01*
G37*
G36*
G01*
X49125000Y-49750000D02*
X49125000Y-49250000D01*
G75*
G02*
X49350000Y-49025000I225000J0D01*
G01*
X49800000Y-49025000D01*
G75*
G02*
X50025000Y-49250000I0J-225000D01*
G01*
X50025000Y-49750000D01*
G75*
G02*
X49800000Y-49975000I-225000J0D01*
G01*
X49350000Y-49975000D01*
G75*
G02*
X49125000Y-49750000I0J225000D01*
G01*
G37*
G36*
G01*
X73915000Y-47120001D02*
X74285000Y-47120001D01*
G75*
G02*
X74420000Y-47255001I0J-135000D01*
G01*
X74420000Y-47525001D01*
G75*
G02*
X74285000Y-47660001I-135000J0D01*
G01*
X73915000Y-47660001D01*
G75*
G02*
X73780000Y-47525001I0J135000D01*
G01*
X73780000Y-47255001D01*
G75*
G02*
X73915000Y-47120001I135000J0D01*
G01*
G37*
G36*
G01*
X73915000Y-48139999D02*
X74285000Y-48139999D01*
G75*
G02*
X74420000Y-48274999I0J-135000D01*
G01*
X74420000Y-48544999D01*
G75*
G02*
X74285000Y-48679999I-135000J0D01*
G01*
X73915000Y-48679999D01*
G75*
G02*
X73780000Y-48544999I0J135000D01*
G01*
X73780000Y-48274999D01*
G75*
G02*
X73915000Y-48139999I135000J0D01*
G01*
G37*
G36*
G01*
X96425000Y-39250000D02*
X97375000Y-39250000D01*
G75*
G02*
X97625000Y-39500000I0J-250000D01*
G01*
X97625000Y-40000000D01*
G75*
G02*
X97375000Y-40250000I-250000J0D01*
G01*
X96425000Y-40250000D01*
G75*
G02*
X96175000Y-40000000I0J250000D01*
G01*
X96175000Y-39500000D01*
G75*
G02*
X96425000Y-39250000I250000J0D01*
G01*
G37*
G36*
G01*
X96425000Y-41150000D02*
X97375000Y-41150000D01*
G75*
G02*
X97625000Y-41400000I0J-250000D01*
G01*
X97625000Y-41900000D01*
G75*
G02*
X97375000Y-42150000I-250000J0D01*
G01*
X96425000Y-42150000D01*
G75*
G02*
X96175000Y-41900000I0J250000D01*
G01*
X96175000Y-41400000D01*
G75*
G02*
X96425000Y-41150000I250000J0D01*
G01*
G37*
G36*
G01*
X83380000Y-52515000D02*
X83380000Y-52885000D01*
G75*
G02*
X83245000Y-53020000I-135000J0D01*
G01*
X82975000Y-53020000D01*
G75*
G02*
X82840000Y-52885000I0J135000D01*
G01*
X82840000Y-52515000D01*
G75*
G02*
X82975000Y-52380000I135000J0D01*
G01*
X83245000Y-52380000D01*
G75*
G02*
X83380000Y-52515000I0J-135000D01*
G01*
G37*
G36*
G01*
X82360000Y-52515000D02*
X82360000Y-52885000D01*
G75*
G02*
X82225000Y-53020000I-135000J0D01*
G01*
X81955000Y-53020000D01*
G75*
G02*
X81820000Y-52885000I0J135000D01*
G01*
X81820000Y-52515000D01*
G75*
G02*
X81955000Y-52380000I135000J0D01*
G01*
X82225000Y-52380000D01*
G75*
G02*
X82360000Y-52515000I0J-135000D01*
G01*
G37*
G36*
G01*
X105915000Y-28720000D02*
X106285000Y-28720000D01*
G75*
G02*
X106420000Y-28855000I0J-135000D01*
G01*
X106420000Y-29125000D01*
G75*
G02*
X106285000Y-29260000I-135000J0D01*
G01*
X105915000Y-29260000D01*
G75*
G02*
X105780000Y-29125000I0J135000D01*
G01*
X105780000Y-28855000D01*
G75*
G02*
X105915000Y-28720000I135000J0D01*
G01*
G37*
G36*
G01*
X105915000Y-29740000D02*
X106285000Y-29740000D01*
G75*
G02*
X106420000Y-29875000I0J-135000D01*
G01*
X106420000Y-30145000D01*
G75*
G02*
X106285000Y-30280000I-135000J0D01*
G01*
X105915000Y-30280000D01*
G75*
G02*
X105780000Y-30145000I0J135000D01*
G01*
X105780000Y-29875000D01*
G75*
G02*
X105915000Y-29740000I135000J0D01*
G01*
G37*
G36*
G01*
X88237500Y-30950000D02*
X88237500Y-31250000D01*
G75*
G02*
X88087500Y-31400000I-150000J0D01*
G01*
X86912500Y-31400000D01*
G75*
G02*
X86762500Y-31250000I0J150000D01*
G01*
X86762500Y-30950000D01*
G75*
G02*
X86912500Y-30800000I150000J0D01*
G01*
X88087500Y-30800000D01*
G75*
G02*
X88237500Y-30950000I0J-150000D01*
G01*
G37*
G36*
G01*
X88237500Y-32850000D02*
X88237500Y-33150000D01*
G75*
G02*
X88087500Y-33300000I-150000J0D01*
G01*
X86912500Y-33300000D01*
G75*
G02*
X86762500Y-33150000I0J150000D01*
G01*
X86762500Y-32850000D01*
G75*
G02*
X86912500Y-32700000I150000J0D01*
G01*
X88087500Y-32700000D01*
G75*
G02*
X88237500Y-32850000I0J-150000D01*
G01*
G37*
G36*
G01*
X86362500Y-31900000D02*
X86362500Y-32200000D01*
G75*
G02*
X86212500Y-32350000I-150000J0D01*
G01*
X85037500Y-32350000D01*
G75*
G02*
X84887500Y-32200000I0J150000D01*
G01*
X84887500Y-31900000D01*
G75*
G02*
X85037500Y-31750000I150000J0D01*
G01*
X86212500Y-31750000D01*
G75*
G02*
X86362500Y-31900000I0J-150000D01*
G01*
G37*
G36*
G01*
X78800000Y-31400000D02*
X78800000Y-31700000D01*
G75*
G02*
X78650000Y-31850000I-150000J0D01*
G01*
X77625000Y-31850000D01*
G75*
G02*
X77475000Y-31700000I0J150000D01*
G01*
X77475000Y-31400000D01*
G75*
G02*
X77625000Y-31250000I150000J0D01*
G01*
X78650000Y-31250000D01*
G75*
G02*
X78800000Y-31400000I0J-150000D01*
G01*
G37*
G36*
G01*
X78800000Y-32350000D02*
X78800000Y-32650000D01*
G75*
G02*
X78650000Y-32800000I-150000J0D01*
G01*
X77625000Y-32800000D01*
G75*
G02*
X77475000Y-32650000I0J150000D01*
G01*
X77475000Y-32350000D01*
G75*
G02*
X77625000Y-32200000I150000J0D01*
G01*
X78650000Y-32200000D01*
G75*
G02*
X78800000Y-32350000I0J-150000D01*
G01*
G37*
G36*
G01*
X78800000Y-33300000D02*
X78800000Y-33600000D01*
G75*
G02*
X78650000Y-33750000I-150000J0D01*
G01*
X77625000Y-33750000D01*
G75*
G02*
X77475000Y-33600000I0J150000D01*
G01*
X77475000Y-33300000D01*
G75*
G02*
X77625000Y-33150000I150000J0D01*
G01*
X78650000Y-33150000D01*
G75*
G02*
X78800000Y-33300000I0J-150000D01*
G01*
G37*
G36*
G01*
X76525000Y-33300000D02*
X76525000Y-33600000D01*
G75*
G02*
X76375000Y-33750000I-150000J0D01*
G01*
X75350000Y-33750000D01*
G75*
G02*
X75200000Y-33600000I0J150000D01*
G01*
X75200000Y-33300000D01*
G75*
G02*
X75350000Y-33150000I150000J0D01*
G01*
X76375000Y-33150000D01*
G75*
G02*
X76525000Y-33300000I0J-150000D01*
G01*
G37*
G36*
G01*
X76525000Y-31400000D02*
X76525000Y-31700000D01*
G75*
G02*
X76375000Y-31850000I-150000J0D01*
G01*
X75350000Y-31850000D01*
G75*
G02*
X75200000Y-31700000I0J150000D01*
G01*
X75200000Y-31400000D01*
G75*
G02*
X75350000Y-31250000I150000J0D01*
G01*
X76375000Y-31250000D01*
G75*
G02*
X76525000Y-31400000I0J-150000D01*
G01*
G37*
G36*
G01*
X51575000Y-33425000D02*
X54425000Y-33425000D01*
G75*
G02*
X54675000Y-33675000I0J-250000D01*
G01*
X54675000Y-34400000D01*
G75*
G02*
X54425000Y-34650000I-250000J0D01*
G01*
X51575000Y-34650000D01*
G75*
G02*
X51325000Y-34400000I0J250000D01*
G01*
X51325000Y-33675000D01*
G75*
G02*
X51575000Y-33425000I250000J0D01*
G01*
G37*
G36*
G01*
X51575000Y-39350000D02*
X54425000Y-39350000D01*
G75*
G02*
X54675000Y-39600000I0J-250000D01*
G01*
X54675000Y-40325000D01*
G75*
G02*
X54425000Y-40575000I-250000J0D01*
G01*
X51575000Y-40575000D01*
G75*
G02*
X51325000Y-40325000I0J250000D01*
G01*
X51325000Y-39600000D01*
G75*
G02*
X51575000Y-39350000I250000J0D01*
G01*
G37*
G36*
G01*
X79815000Y-31220000D02*
X80185000Y-31220000D01*
G75*
G02*
X80320000Y-31355000I0J-135000D01*
G01*
X80320000Y-31625000D01*
G75*
G02*
X80185000Y-31760000I-135000J0D01*
G01*
X79815000Y-31760000D01*
G75*
G02*
X79680000Y-31625000I0J135000D01*
G01*
X79680000Y-31355000D01*
G75*
G02*
X79815000Y-31220000I135000J0D01*
G01*
G37*
G36*
G01*
X79815000Y-32240000D02*
X80185000Y-32240000D01*
G75*
G02*
X80320000Y-32375000I0J-135000D01*
G01*
X80320000Y-32645000D01*
G75*
G02*
X80185000Y-32780000I-135000J0D01*
G01*
X79815000Y-32780000D01*
G75*
G02*
X79680000Y-32645000I0J135000D01*
G01*
X79680000Y-32375000D01*
G75*
G02*
X79815000Y-32240000I135000J0D01*
G01*
G37*
G36*
G01*
X99150000Y-37325000D02*
X99150000Y-38275000D01*
G75*
G02*
X98900000Y-38525000I-250000J0D01*
G01*
X98400000Y-38525000D01*
G75*
G02*
X98150000Y-38275000I0J250000D01*
G01*
X98150000Y-37325000D01*
G75*
G02*
X98400000Y-37075000I250000J0D01*
G01*
X98900000Y-37075000D01*
G75*
G02*
X99150000Y-37325000I0J-250000D01*
G01*
G37*
G36*
G01*
X97250000Y-37325000D02*
X97250000Y-38275000D01*
G75*
G02*
X97000000Y-38525000I-250000J0D01*
G01*
X96500000Y-38525000D01*
G75*
G02*
X96250000Y-38275000I0J250000D01*
G01*
X96250000Y-37325000D01*
G75*
G02*
X96500000Y-37075000I250000J0D01*
G01*
X97000000Y-37075000D01*
G75*
G02*
X97250000Y-37325000I0J-250000D01*
G01*
G37*
G36*
G01*
X104315000Y-61720000D02*
X104685000Y-61720000D01*
G75*
G02*
X104820000Y-61855000I0J-135000D01*
G01*
X104820000Y-62125000D01*
G75*
G02*
X104685000Y-62260000I-135000J0D01*
G01*
X104315000Y-62260000D01*
G75*
G02*
X104180000Y-62125000I0J135000D01*
G01*
X104180000Y-61855000D01*
G75*
G02*
X104315000Y-61720000I135000J0D01*
G01*
G37*
G36*
G01*
X104315000Y-62740000D02*
X104685000Y-62740000D01*
G75*
G02*
X104820000Y-62875000I0J-135000D01*
G01*
X104820000Y-63145000D01*
G75*
G02*
X104685000Y-63280000I-135000J0D01*
G01*
X104315000Y-63280000D01*
G75*
G02*
X104180000Y-63145000I0J135000D01*
G01*
X104180000Y-62875000D01*
G75*
G02*
X104315000Y-62740000I135000J0D01*
G01*
G37*
G36*
G01*
X95585000Y-42480000D02*
X95215000Y-42480000D01*
G75*
G02*
X95080000Y-42345000I0J135000D01*
G01*
X95080000Y-42075000D01*
G75*
G02*
X95215000Y-41940000I135000J0D01*
G01*
X95585000Y-41940000D01*
G75*
G02*
X95720000Y-42075000I0J-135000D01*
G01*
X95720000Y-42345000D01*
G75*
G02*
X95585000Y-42480000I-135000J0D01*
G01*
G37*
G36*
G01*
X95585000Y-41460000D02*
X95215000Y-41460000D01*
G75*
G02*
X95080000Y-41325000I0J135000D01*
G01*
X95080000Y-41055000D01*
G75*
G02*
X95215000Y-40920000I135000J0D01*
G01*
X95585000Y-40920000D01*
G75*
G02*
X95720000Y-41055000I0J-135000D01*
G01*
X95720000Y-41325000D01*
G75*
G02*
X95585000Y-41460000I-135000J0D01*
G01*
G37*
G36*
G01*
X90300000Y-33950000D02*
X89700000Y-33950000D01*
G75*
G02*
X89450000Y-33700000I0J250000D01*
G01*
X89450000Y-33100000D01*
G75*
G02*
X89700000Y-32850000I250000J0D01*
G01*
X90300000Y-32850000D01*
G75*
G02*
X90550000Y-33100000I0J-250000D01*
G01*
X90550000Y-33700000D01*
G75*
G02*
X90300000Y-33950000I-250000J0D01*
G01*
G37*
G36*
G01*
X90300000Y-31150000D02*
X89700000Y-31150000D01*
G75*
G02*
X89450000Y-30900000I0J250000D01*
G01*
X89450000Y-30300000D01*
G75*
G02*
X89700000Y-30050000I250000J0D01*
G01*
X90300000Y-30050000D01*
G75*
G02*
X90550000Y-30300000I0J-250000D01*
G01*
X90550000Y-30900000D01*
G75*
G02*
X90300000Y-31150000I-250000J0D01*
G01*
G37*
G36*
G01*
X57050000Y-40300000D02*
X57050000Y-39700000D01*
G75*
G02*
X57300000Y-39450000I250000J0D01*
G01*
X57900000Y-39450000D01*
G75*
G02*
X58150000Y-39700000I0J-250000D01*
G01*
X58150000Y-40300000D01*
G75*
G02*
X57900000Y-40550000I-250000J0D01*
G01*
X57300000Y-40550000D01*
G75*
G02*
X57050000Y-40300000I0J250000D01*
G01*
G37*
G36*
G01*
X59850000Y-40300000D02*
X59850000Y-39700000D01*
G75*
G02*
X60100000Y-39450000I250000J0D01*
G01*
X60700000Y-39450000D01*
G75*
G02*
X60950000Y-39700000I0J-250000D01*
G01*
X60950000Y-40300000D01*
G75*
G02*
X60700000Y-40550000I-250000J0D01*
G01*
X60100000Y-40550000D01*
G75*
G02*
X59850000Y-40300000I0J250000D01*
G01*
G37*
G36*
G01*
X67182807Y-57357609D02*
X66942391Y-57117193D01*
G75*
G02*
X66942391Y-56919203I98995J98995D01*
G01*
X67140381Y-56721213D01*
G75*
G02*
X67338371Y-56721213I98995J-98995D01*
G01*
X67578787Y-56961629D01*
G75*
G02*
X67578787Y-57159619I-98995J-98995D01*
G01*
X67380797Y-57357609D01*
G75*
G02*
X67182807Y-57357609I-98995J98995D01*
G01*
G37*
G36*
G01*
X67861629Y-56678787D02*
X67621213Y-56438371D01*
G75*
G02*
X67621213Y-56240381I98995J98995D01*
G01*
X67819203Y-56042391D01*
G75*
G02*
X68017193Y-56042391I98995J-98995D01*
G01*
X68257609Y-56282807D01*
G75*
G02*
X68257609Y-56480797I-98995J-98995D01*
G01*
X68059619Y-56678787D01*
G75*
G02*
X67861629Y-56678787I-98995J98995D01*
G01*
G37*
G36*
G01*
X69825000Y-47600000D02*
X69825000Y-47300000D01*
G75*
G02*
X69975000Y-47150000I150000J0D01*
G01*
X71150000Y-47150000D01*
G75*
G02*
X71300000Y-47300000I0J-150000D01*
G01*
X71300000Y-47600000D01*
G75*
G02*
X71150000Y-47750000I-150000J0D01*
G01*
X69975000Y-47750000D01*
G75*
G02*
X69825000Y-47600000I0J150000D01*
G01*
G37*
G36*
G01*
X69825000Y-45700000D02*
X69825000Y-45400000D01*
G75*
G02*
X69975000Y-45250000I150000J0D01*
G01*
X71150000Y-45250000D01*
G75*
G02*
X71300000Y-45400000I0J-150000D01*
G01*
X71300000Y-45700000D01*
G75*
G02*
X71150000Y-45850000I-150000J0D01*
G01*
X69975000Y-45850000D01*
G75*
G02*
X69825000Y-45700000I0J150000D01*
G01*
G37*
G36*
G01*
X71700000Y-46650000D02*
X71700000Y-46350000D01*
G75*
G02*
X71850000Y-46200000I150000J0D01*
G01*
X73025000Y-46200000D01*
G75*
G02*
X73175000Y-46350000I0J-150000D01*
G01*
X73175000Y-46650000D01*
G75*
G02*
X73025000Y-46800000I-150000J0D01*
G01*
X71850000Y-46800000D01*
G75*
G02*
X71700000Y-46650000I0J150000D01*
G01*
G37*
G36*
G01*
X69185000Y-50780000D02*
X68815000Y-50780000D01*
G75*
G02*
X68680000Y-50645000I0J135000D01*
G01*
X68680000Y-50375000D01*
G75*
G02*
X68815000Y-50240000I135000J0D01*
G01*
X69185000Y-50240000D01*
G75*
G02*
X69320000Y-50375000I0J-135000D01*
G01*
X69320000Y-50645000D01*
G75*
G02*
X69185000Y-50780000I-135000J0D01*
G01*
G37*
G36*
G01*
X69185000Y-49760000D02*
X68815000Y-49760000D01*
G75*
G02*
X68680000Y-49625000I0J135000D01*
G01*
X68680000Y-49355000D01*
G75*
G02*
X68815000Y-49220000I135000J0D01*
G01*
X69185000Y-49220000D01*
G75*
G02*
X69320000Y-49355000I0J-135000D01*
G01*
X69320000Y-49625000D01*
G75*
G02*
X69185000Y-49760000I-135000J0D01*
G01*
G37*
G36*
G01*
X80270000Y-53760000D02*
X79930000Y-53760000D01*
G75*
G02*
X79790000Y-53620000I0J140000D01*
G01*
X79790000Y-53340000D01*
G75*
G02*
X79930000Y-53200000I140000J0D01*
G01*
X80270000Y-53200000D01*
G75*
G02*
X80410000Y-53340000I0J-140000D01*
G01*
X80410000Y-53620000D01*
G75*
G02*
X80270000Y-53760000I-140000J0D01*
G01*
G37*
G36*
G01*
X80270000Y-52800000D02*
X79930000Y-52800000D01*
G75*
G02*
X79790000Y-52660000I0J140000D01*
G01*
X79790000Y-52380000D01*
G75*
G02*
X79930000Y-52240000I140000J0D01*
G01*
X80270000Y-52240000D01*
G75*
G02*
X80410000Y-52380000I0J-140000D01*
G01*
X80410000Y-52660000D01*
G75*
G02*
X80270000Y-52800000I-140000J0D01*
G01*
G37*
G36*
G01*
X59550000Y-32500000D02*
X61250000Y-32500000D01*
G75*
G02*
X61500000Y-32750000I0J-250000D01*
G01*
X61500000Y-33500000D01*
G75*
G02*
X61250000Y-33750000I-250000J0D01*
G01*
X59550000Y-33750000D01*
G75*
G02*
X59300000Y-33500000I0J250000D01*
G01*
X59300000Y-32750000D01*
G75*
G02*
X59550000Y-32500000I250000J0D01*
G01*
G37*
G36*
G01*
X59550000Y-34650000D02*
X61250000Y-34650000D01*
G75*
G02*
X61500000Y-34900000I0J-250000D01*
G01*
X61500000Y-35650000D01*
G75*
G02*
X61250000Y-35900000I-250000J0D01*
G01*
X59550000Y-35900000D01*
G75*
G02*
X59300000Y-35650000I0J250000D01*
G01*
X59300000Y-34900000D01*
G75*
G02*
X59550000Y-34650000I250000J0D01*
G01*
G37*
G36*
G01*
X88280000Y-29315000D02*
X88280000Y-29685000D01*
G75*
G02*
X88145000Y-29820000I-135000J0D01*
G01*
X87875000Y-29820000D01*
G75*
G02*
X87740000Y-29685000I0J135000D01*
G01*
X87740000Y-29315000D01*
G75*
G02*
X87875000Y-29180000I135000J0D01*
G01*
X88145000Y-29180000D01*
G75*
G02*
X88280000Y-29315000I0J-135000D01*
G01*
G37*
G36*
G01*
X87260000Y-29315000D02*
X87260000Y-29685000D01*
G75*
G02*
X87125000Y-29820000I-135000J0D01*
G01*
X86855000Y-29820000D01*
G75*
G02*
X86720000Y-29685000I0J135000D01*
G01*
X86720000Y-29315000D01*
G75*
G02*
X86855000Y-29180000I135000J0D01*
G01*
X87125000Y-29180000D01*
G75*
G02*
X87260000Y-29315000I0J-135000D01*
G01*
G37*
G36*
G01*
X81670000Y-55760000D02*
X81330000Y-55760000D01*
G75*
G02*
X81190000Y-55620000I0J140000D01*
G01*
X81190000Y-55340000D01*
G75*
G02*
X81330000Y-55200000I140000J0D01*
G01*
X81670000Y-55200000D01*
G75*
G02*
X81810000Y-55340000I0J-140000D01*
G01*
X81810000Y-55620000D01*
G75*
G02*
X81670000Y-55760000I-140000J0D01*
G01*
G37*
G36*
G01*
X81670000Y-54800000D02*
X81330000Y-54800000D01*
G75*
G02*
X81190000Y-54660000I0J140000D01*
G01*
X81190000Y-54380000D01*
G75*
G02*
X81330000Y-54240000I140000J0D01*
G01*
X81670000Y-54240000D01*
G75*
G02*
X81810000Y-54380000I0J-140000D01*
G01*
X81810000Y-54660000D01*
G75*
G02*
X81670000Y-54800000I-140000J0D01*
G01*
G37*
G36*
G01*
X55325000Y-35600000D02*
X55325000Y-35300000D01*
G75*
G02*
X55475000Y-35150000I150000J0D01*
G01*
X56650000Y-35150000D01*
G75*
G02*
X56800000Y-35300000I0J-150000D01*
G01*
X56800000Y-35600000D01*
G75*
G02*
X56650000Y-35750000I-150000J0D01*
G01*
X55475000Y-35750000D01*
G75*
G02*
X55325000Y-35600000I0J150000D01*
G01*
G37*
G36*
G01*
X55325000Y-33700000D02*
X55325000Y-33400000D01*
G75*
G02*
X55475000Y-33250000I150000J0D01*
G01*
X56650000Y-33250000D01*
G75*
G02*
X56800000Y-33400000I0J-150000D01*
G01*
X56800000Y-33700000D01*
G75*
G02*
X56650000Y-33850000I-150000J0D01*
G01*
X55475000Y-33850000D01*
G75*
G02*
X55325000Y-33700000I0J150000D01*
G01*
G37*
G36*
G01*
X57200000Y-34650000D02*
X57200000Y-34350000D01*
G75*
G02*
X57350000Y-34200000I150000J0D01*
G01*
X58525000Y-34200000D01*
G75*
G02*
X58675000Y-34350000I0J-150000D01*
G01*
X58675000Y-34650000D01*
G75*
G02*
X58525000Y-34800000I-150000J0D01*
G01*
X57350000Y-34800000D01*
G75*
G02*
X57200000Y-34650000I0J150000D01*
G01*
G37*
G36*
G01*
X77280000Y-69315000D02*
X77280000Y-69685000D01*
G75*
G02*
X77145000Y-69820000I-135000J0D01*
G01*
X76875000Y-69820000D01*
G75*
G02*
X76740000Y-69685000I0J135000D01*
G01*
X76740000Y-69315000D01*
G75*
G02*
X76875000Y-69180000I135000J0D01*
G01*
X77145000Y-69180000D01*
G75*
G02*
X77280000Y-69315000I0J-135000D01*
G01*
G37*
G36*
G01*
X76260000Y-69315000D02*
X76260000Y-69685000D01*
G75*
G02*
X76125000Y-69820000I-135000J0D01*
G01*
X75855000Y-69820000D01*
G75*
G02*
X75720000Y-69685000I0J135000D01*
G01*
X75720000Y-69315000D01*
G75*
G02*
X75855000Y-69180000I135000J0D01*
G01*
X76125000Y-69180000D01*
G75*
G02*
X76260000Y-69315000I0J-135000D01*
G01*
G37*
G36*
G01*
X68815000Y-45720000D02*
X69185000Y-45720000D01*
G75*
G02*
X69320000Y-45855000I0J-135000D01*
G01*
X69320000Y-46125000D01*
G75*
G02*
X69185000Y-46260000I-135000J0D01*
G01*
X68815000Y-46260000D01*
G75*
G02*
X68680000Y-46125000I0J135000D01*
G01*
X68680000Y-45855000D01*
G75*
G02*
X68815000Y-45720000I135000J0D01*
G01*
G37*
G36*
G01*
X68815000Y-46740000D02*
X69185000Y-46740000D01*
G75*
G02*
X69320000Y-46875000I0J-135000D01*
G01*
X69320000Y-47145000D01*
G75*
G02*
X69185000Y-47280000I-135000J0D01*
G01*
X68815000Y-47280000D01*
G75*
G02*
X68680000Y-47145000I0J135000D01*
G01*
X68680000Y-46875000D01*
G75*
G02*
X68815000Y-46740000I135000J0D01*
G01*
G37*
G36*
G01*
X79815000Y-40720000D02*
X80185000Y-40720000D01*
G75*
G02*
X80320000Y-40855000I0J-135000D01*
G01*
X80320000Y-41125000D01*
G75*
G02*
X80185000Y-41260000I-135000J0D01*
G01*
X79815000Y-41260000D01*
G75*
G02*
X79680000Y-41125000I0J135000D01*
G01*
X79680000Y-40855000D01*
G75*
G02*
X79815000Y-40720000I135000J0D01*
G01*
G37*
G36*
G01*
X79815000Y-41740000D02*
X80185000Y-41740000D01*
G75*
G02*
X80320000Y-41875000I0J-135000D01*
G01*
X80320000Y-42145000D01*
G75*
G02*
X80185000Y-42280000I-135000J0D01*
G01*
X79815000Y-42280000D01*
G75*
G02*
X79680000Y-42145000I0J135000D01*
G01*
X79680000Y-41875000D01*
G75*
G02*
X79815000Y-41740000I135000J0D01*
G01*
G37*
G36*
G01*
X96875000Y-47600000D02*
X96125000Y-47600000D01*
G75*
G02*
X95900000Y-47375000I0J225000D01*
G01*
X95900000Y-46925000D01*
G75*
G02*
X96125000Y-46700000I225000J0D01*
G01*
X96875000Y-46700000D01*
G75*
G02*
X97100000Y-46925000I0J-225000D01*
G01*
X97100000Y-47375000D01*
G75*
G02*
X96875000Y-47600000I-225000J0D01*
G01*
G37*
G36*
G01*
X96875000Y-44300000D02*
X96125000Y-44300000D01*
G75*
G02*
X95900000Y-44075000I0J225000D01*
G01*
X95900000Y-43625000D01*
G75*
G02*
X96125000Y-43400000I225000J0D01*
G01*
X96875000Y-43400000D01*
G75*
G02*
X97100000Y-43625000I0J-225000D01*
G01*
X97100000Y-44075000D01*
G75*
G02*
X96875000Y-44300000I-225000J0D01*
G01*
G37*
G36*
G01*
X36220000Y-54385000D02*
X36220000Y-54015000D01*
G75*
G02*
X36355000Y-53880000I135000J0D01*
G01*
X36625000Y-53880000D01*
G75*
G02*
X36760000Y-54015000I0J-135000D01*
G01*
X36760000Y-54385000D01*
G75*
G02*
X36625000Y-54520000I-135000J0D01*
G01*
X36355000Y-54520000D01*
G75*
G02*
X36220000Y-54385000I0J135000D01*
G01*
G37*
G36*
G01*
X37240000Y-54385000D02*
X37240000Y-54015000D01*
G75*
G02*
X37375000Y-53880000I135000J0D01*
G01*
X37645000Y-53880000D01*
G75*
G02*
X37780000Y-54015000I0J-135000D01*
G01*
X37780000Y-54385000D01*
G75*
G02*
X37645000Y-54520000I-135000J0D01*
G01*
X37375000Y-54520000D01*
G75*
G02*
X37240000Y-54385000I0J135000D01*
G01*
G37*
G36*
G01*
X55750000Y-36775000D02*
X56250000Y-36775000D01*
G75*
G02*
X56475000Y-37000000I0J-225000D01*
G01*
X56475000Y-37450000D01*
G75*
G02*
X56250000Y-37675000I-225000J0D01*
G01*
X55750000Y-37675000D01*
G75*
G02*
X55525000Y-37450000I0J225000D01*
G01*
X55525000Y-37000000D01*
G75*
G02*
X55750000Y-36775000I225000J0D01*
G01*
G37*
G36*
G01*
X55750000Y-38325000D02*
X56250000Y-38325000D01*
G75*
G02*
X56475000Y-38550000I0J-225000D01*
G01*
X56475000Y-39000000D01*
G75*
G02*
X56250000Y-39225000I-225000J0D01*
G01*
X55750000Y-39225000D01*
G75*
G02*
X55525000Y-39000000I0J225000D01*
G01*
X55525000Y-38550000D01*
G75*
G02*
X55750000Y-38325000I225000J0D01*
G01*
G37*
G36*
G01*
X36220000Y-52685000D02*
X36220000Y-52315000D01*
G75*
G02*
X36355000Y-52180000I135000J0D01*
G01*
X36625000Y-52180000D01*
G75*
G02*
X36760000Y-52315000I0J-135000D01*
G01*
X36760000Y-52685000D01*
G75*
G02*
X36625000Y-52820000I-135000J0D01*
G01*
X36355000Y-52820000D01*
G75*
G02*
X36220000Y-52685000I0J135000D01*
G01*
G37*
G36*
G01*
X37240000Y-52685000D02*
X37240000Y-52315000D01*
G75*
G02*
X37375000Y-52180000I135000J0D01*
G01*
X37645000Y-52180000D01*
G75*
G02*
X37780000Y-52315000I0J-135000D01*
G01*
X37780000Y-52685000D01*
G75*
G02*
X37645000Y-52820000I-135000J0D01*
G01*
X37375000Y-52820000D01*
G75*
G02*
X37240000Y-52685000I0J135000D01*
G01*
G37*
G36*
G01*
X114600000Y-36875000D02*
X114600000Y-38125000D01*
G75*
G02*
X114350000Y-38375000I-250000J0D01*
G01*
X113650000Y-38375000D01*
G75*
G02*
X113400000Y-38125000I0J250000D01*
G01*
X113400000Y-36875000D01*
G75*
G02*
X113650000Y-36625000I250000J0D01*
G01*
X114350000Y-36625000D01*
G75*
G02*
X114600000Y-36875000I0J-250000D01*
G01*
G37*
D29*
X112000000Y-37500000D03*
M02*
