G04 #@! TF.GenerationSoftware,KiCad,Pcbnew,8.0.6+1*
G04 #@! TF.CreationDate,2025-02-24T18:19:52+00:00*
G04 #@! TF.ProjectId,gshps,67736870-732e-46b6-9963-61645f706362,C*
G04 #@! TF.SameCoordinates,Original*
G04 #@! TF.FileFunction,Copper,L2,Inr*
G04 #@! TF.FilePolarity,Positive*
%FSLAX46Y46*%
G04 Gerber Fmt 4.6, Leading zero omitted, Abs format (unit mm)*
G04 Created by KiCad (PCBNEW 8.0.6+1) date 2025-02-24 18:19:52*
%MOMM*%
%LPD*%
G01*
G04 APERTURE LIST*
G04 #@! TA.AperFunction,ComponentPad*
%ADD10C,1.100000*%
G04 #@! TD*
G04 #@! TA.AperFunction,HeatsinkPad*
%ADD11C,0.500000*%
G04 #@! TD*
G04 #@! TA.AperFunction,ComponentPad*
%ADD12O,1.200000X1.750000*%
G04 #@! TD*
G04 #@! TA.AperFunction,ViaPad*
%ADD13C,0.500000*%
G04 #@! TD*
G04 #@! TA.AperFunction,ViaPad*
%ADD14C,0.800000*%
G04 #@! TD*
G04 #@! TA.AperFunction,Conductor*
%ADD15C,0.250000*%
G04 #@! TD*
G04 APERTURE END LIST*
D10*
X32685000Y-62650000D03*
X36985000Y-62650000D03*
X32685000Y-57850000D03*
X36985000Y-57850000D03*
D11*
X102455000Y-35300000D03*
X102455000Y-34000000D03*
X102455000Y-32700000D03*
X100545000Y-35300000D03*
X100545000Y-34000000D03*
X100545000Y-32700000D03*
G04 #@! TA.AperFunction,ComponentPad*
G36*
G01*
X114600000Y-36875000D02*
X114600000Y-38125000D01*
G75*
G02*
X114350000Y-38375000I-250000J0D01*
G01*
X113650000Y-38375000D01*
G75*
G02*
X113400000Y-38125000I0J250000D01*
G01*
X113400000Y-36875000D01*
G75*
G02*
X113650000Y-36625000I250000J0D01*
G01*
X114350000Y-36625000D01*
G75*
G02*
X114600000Y-36875000I0J-250000D01*
G01*
G37*
G04 #@! TD.AperFunction*
D12*
X112000000Y-37500000D03*
D13*
X83000000Y-48000000D03*
D14*
X74800000Y-40200000D03*
D13*
X62700000Y-47100000D03*
D14*
X105000000Y-45500000D03*
D13*
X50300000Y-44500000D03*
X83000000Y-46000000D03*
D14*
X62019990Y-31020000D03*
D13*
X90500000Y-44000000D03*
X99500000Y-43200000D03*
X79000000Y-49000000D03*
D14*
X77200000Y-64300000D03*
D13*
X83000000Y-45000000D03*
X52000000Y-48900000D03*
D14*
X103400000Y-67900000D03*
X76200000Y-64300000D03*
D13*
X100900000Y-39900000D03*
D14*
X114000000Y-52500000D03*
X49800000Y-39300000D03*
D13*
X79000000Y-46000000D03*
D14*
X93100000Y-41000000D03*
X103400000Y-77000000D03*
X93200000Y-73200000D03*
X96700000Y-36400000D03*
X39300000Y-55600000D03*
X100500000Y-60000000D03*
X105000000Y-52500000D03*
D13*
X44600000Y-44400000D03*
D14*
X81500000Y-34300000D03*
D13*
X92500000Y-47500000D03*
D14*
X76900000Y-32500000D03*
X87500000Y-53600000D03*
D13*
X81000000Y-39800000D03*
X79000000Y-45000000D03*
X79400000Y-37300000D03*
D14*
X54000000Y-38800000D03*
X93600000Y-32000000D03*
D13*
X56000000Y-38075000D03*
D14*
X86100000Y-29500000D03*
X66300000Y-72500000D03*
D13*
X63300000Y-48600000D03*
X74400000Y-44400000D03*
X87773571Y-48115534D03*
D14*
X83900000Y-66800000D03*
D13*
X80100000Y-53900000D03*
D14*
X72800000Y-33100000D03*
D13*
X63700000Y-54600000D03*
D14*
X86400000Y-35500000D03*
X94500000Y-60000000D03*
X105000000Y-59500000D03*
D13*
X81000000Y-49000000D03*
X103500000Y-43200000D03*
D14*
X81700000Y-64300000D03*
X44700000Y-54000000D03*
D13*
X50300000Y-47000000D03*
D14*
X30300000Y-62400000D03*
D13*
X79000000Y-48000000D03*
X44800000Y-39800000D03*
D14*
X96400000Y-62700000D03*
D13*
X87700000Y-44000000D03*
X52400000Y-54500000D03*
X81000000Y-45000000D03*
X90500000Y-49500000D03*
X67700000Y-37400000D03*
X76500000Y-45500000D03*
X83000000Y-49000000D03*
X74100000Y-49000000D03*
X66900000Y-57400000D03*
D14*
X58500000Y-40000000D03*
X66300000Y-73800000D03*
X68820000Y-49525000D03*
D13*
X79100000Y-53000000D03*
D14*
X103400000Y-74300000D03*
D13*
X82000000Y-49000000D03*
X79000000Y-47000000D03*
X80000000Y-49000000D03*
D14*
X62600000Y-35799992D03*
X82200000Y-75900000D03*
X70300000Y-49575000D03*
D13*
X82000000Y-39800000D03*
X50300000Y-49500000D03*
X46400000Y-39800000D03*
D14*
X96500000Y-73200000D03*
D13*
X82000000Y-45000000D03*
X75820950Y-45355989D03*
D14*
X90100000Y-41000000D03*
X93200000Y-62700000D03*
D13*
X56000000Y-41900000D03*
D14*
X60500000Y-54800000D03*
X53000000Y-38800000D03*
X94900000Y-32900000D03*
D13*
X83000000Y-47000000D03*
D14*
X114000000Y-45500000D03*
D13*
X46500000Y-44300000D03*
D14*
X81500000Y-56400000D03*
X56000000Y-40000000D03*
X80800000Y-64300000D03*
X52000000Y-38800000D03*
X74000000Y-34100000D03*
D13*
X80000000Y-45000000D03*
D14*
X75900000Y-75900000D03*
X106100000Y-35700000D03*
D13*
X94200000Y-42800000D03*
D14*
X103400000Y-70700000D03*
X111200000Y-59600000D03*
D13*
X75100000Y-48600000D03*
D14*
X83000000Y-66800000D03*
D13*
X50300000Y-43000000D03*
D14*
X43700000Y-54000000D03*
X104300000Y-37100000D03*
X104200000Y-30500000D03*
X99600000Y-70700000D03*
X102699994Y-42600000D03*
X99600000Y-74300000D03*
X94900000Y-44100000D03*
X66300000Y-75100000D03*
X72900000Y-31500000D03*
D13*
X85336027Y-48054585D03*
X85300000Y-44000000D03*
D14*
X83700000Y-35500000D03*
D13*
X68300000Y-56000000D03*
D14*
X86600000Y-62000000D03*
X88500000Y-62000000D03*
D13*
X76664124Y-48064124D03*
X104500000Y-47300000D03*
X81017571Y-51782429D03*
X54200000Y-43700000D03*
X76000000Y-43000000D03*
D14*
X82600000Y-61400000D03*
D13*
X32900000Y-52500000D03*
D14*
X58000000Y-54800000D03*
D13*
X66300000Y-38800000D03*
X104500000Y-61300000D03*
X76700000Y-44400000D03*
X104500000Y-54300000D03*
X46500000Y-43300000D03*
X80800000Y-38700000D03*
D14*
X82600000Y-62300000D03*
X102000000Y-26200000D03*
D13*
X32900000Y-54200000D03*
X44661237Y-43680535D03*
X80800000Y-42325500D03*
X67900000Y-34100000D03*
D14*
X77100000Y-61200000D03*
X76200000Y-61200000D03*
D13*
X67900000Y-34800000D03*
D14*
X77000000Y-68600000D03*
D13*
X89800000Y-35500000D03*
X36784901Y-61248144D03*
D14*
X115100000Y-39200000D03*
X115100000Y-53300000D03*
X88063209Y-43211470D03*
X70600000Y-43900000D03*
X90627035Y-53100000D03*
X88200000Y-39000000D03*
X90500005Y-65500012D03*
D13*
X81482592Y-42308092D03*
X80368331Y-51800901D03*
X77300000Y-42999500D03*
D14*
X96462500Y-42650000D03*
X100862500Y-42250000D03*
D13*
X36000000Y-52500000D03*
D14*
X88500000Y-26500000D03*
X87000000Y-26500000D03*
X43500000Y-57800000D03*
X44400000Y-57800000D03*
X87000000Y-27500000D03*
X37700000Y-61500000D03*
X88500000Y-27500000D03*
X38600000Y-57900000D03*
D13*
X36000000Y-54200000D03*
X44600000Y-36200000D03*
X53000000Y-36200000D03*
X105300000Y-29000000D03*
X31200000Y-60600000D03*
X47200000Y-40875000D03*
X86609274Y-49213676D03*
X87275915Y-49053676D03*
X46364839Y-40878013D03*
X88000000Y-49900000D03*
X43400000Y-50200000D03*
X43416026Y-50875000D03*
X86500000Y-50500000D03*
X85700000Y-50500000D03*
X43776366Y-51532768D03*
X44522048Y-51613158D03*
X85276624Y-51051624D03*
X37900000Y-59000000D03*
X67517157Y-38717157D03*
X32700000Y-60650000D03*
X66317157Y-55417157D03*
X37100000Y-59850000D03*
X79582843Y-38517157D03*
X79017157Y-39082843D03*
X66882843Y-55982843D03*
X68082843Y-39282843D03*
X37100000Y-60650000D03*
X32700000Y-59850000D03*
X78150500Y-55600000D03*
X70159581Y-55939721D03*
X70499990Y-56600000D03*
X78400000Y-56300000D03*
X77750000Y-54450000D03*
X71900000Y-54800000D03*
X73600000Y-52100000D03*
X55900000Y-52300000D03*
X74899003Y-52098415D03*
X57005000Y-53000000D03*
X59100000Y-53125000D03*
X75534998Y-51966644D03*
X61485523Y-52274500D03*
X74249503Y-52100000D03*
X104500000Y-49700000D03*
X88725500Y-44000000D03*
X103900000Y-45000000D03*
X104500000Y-56700000D03*
X103425500Y-45540419D03*
X88725500Y-44704588D03*
X104500000Y-63700000D03*
X103080426Y-46090671D03*
X88612741Y-45344228D03*
X85900000Y-37100000D03*
X89400000Y-37100000D03*
X94400000Y-56300000D03*
X100800000Y-56300000D03*
X91159798Y-46800000D03*
X86290486Y-46922687D03*
X91199500Y-62700000D03*
X89200000Y-67250000D03*
X74600000Y-59000000D03*
X88200000Y-58974500D03*
X74574500Y-69500000D03*
X74100000Y-69000000D03*
X88700000Y-58500000D03*
X74100000Y-58500000D03*
D14*
X97400000Y-34600000D03*
X43575232Y-28748530D03*
X97400000Y-33400000D03*
X43800000Y-27825500D03*
D13*
X90299990Y-38300000D03*
X85900000Y-38300000D03*
X90300000Y-39700000D03*
X85700000Y-40100000D03*
X52900000Y-53700004D03*
X76800000Y-53500000D03*
X71100000Y-46600000D03*
X71600000Y-41800000D03*
X92600000Y-43800000D03*
X75800000Y-47300000D03*
X89392685Y-52475000D03*
X85267139Y-52459432D03*
X89800000Y-60500000D03*
X83400000Y-60800000D03*
X90002535Y-51915858D03*
X86100000Y-59600000D03*
X86099994Y-52300000D03*
X90000000Y-59700000D03*
X74893413Y-47206587D03*
X69000000Y-47700008D03*
X92300000Y-58700000D03*
X77400000Y-58025000D03*
X92300000Y-71700000D03*
X92300000Y-52300000D03*
X107600000Y-35700000D03*
X85100000Y-53100000D03*
X94200000Y-37600000D03*
X76700000Y-47375000D03*
X72175000Y-45297328D03*
D15*
X81482592Y-42385371D02*
X80868463Y-42999500D01*
X81482592Y-42308092D02*
X81482592Y-42385371D01*
X80868463Y-42999500D02*
X77300000Y-42999500D01*
G04 #@! TA.AperFunction,Conductor*
G36*
X107500397Y-23500003D02*
G01*
X107829703Y-23502489D01*
X107834915Y-23502666D01*
X108492732Y-23542457D01*
X108498676Y-23542997D01*
X109152544Y-23622391D01*
X109158409Y-23623284D01*
X109806283Y-23742011D01*
X109812112Y-23743262D01*
X110409444Y-23890491D01*
X110451620Y-23900887D01*
X110457382Y-23902493D01*
X111086201Y-24098441D01*
X111091818Y-24100379D01*
X111707701Y-24333953D01*
X111713198Y-24336230D01*
X112313836Y-24606555D01*
X112319171Y-24609153D01*
X112902404Y-24915257D01*
X112907591Y-24918183D01*
X113471252Y-25258927D01*
X113476254Y-25262162D01*
X113834948Y-25509750D01*
X114018305Y-25636312D01*
X114023119Y-25639854D01*
X114191437Y-25771723D01*
X114541587Y-26046048D01*
X114546175Y-26049871D01*
X114892588Y-26356766D01*
X115039177Y-26486633D01*
X115043532Y-26490732D01*
X115509267Y-26956467D01*
X115513366Y-26960822D01*
X115950123Y-27453818D01*
X115953951Y-27458412D01*
X116360143Y-27976877D01*
X116363687Y-27981694D01*
X116737831Y-28523735D01*
X116741078Y-28528757D01*
X117081810Y-29092397D01*
X117084748Y-29097605D01*
X117338186Y-29580492D01*
X117390836Y-29680807D01*
X117393454Y-29686184D01*
X117663763Y-30286787D01*
X117666052Y-30292312D01*
X117899614Y-30908163D01*
X117901564Y-30913816D01*
X118097506Y-31542618D01*
X118099112Y-31548379D01*
X118256735Y-32187878D01*
X118257990Y-32193725D01*
X118376711Y-32841567D01*
X118377611Y-32847479D01*
X118457001Y-33501318D01*
X118457542Y-33507273D01*
X118497332Y-34165074D01*
X118497510Y-34170304D01*
X118499997Y-34499601D01*
X118500000Y-34500349D01*
X118500000Y-67499650D01*
X118499997Y-67500398D01*
X118497510Y-67829695D01*
X118497332Y-67834925D01*
X118457542Y-68492726D01*
X118457001Y-68498681D01*
X118377611Y-69152520D01*
X118376711Y-69158432D01*
X118257990Y-69806274D01*
X118256735Y-69812121D01*
X118099112Y-70451620D01*
X118097506Y-70457381D01*
X117901564Y-71086183D01*
X117899614Y-71091836D01*
X117666052Y-71707687D01*
X117663763Y-71713212D01*
X117393454Y-72313815D01*
X117390836Y-72319192D01*
X117084748Y-72902394D01*
X117081810Y-72907602D01*
X116741078Y-73471242D01*
X116737831Y-73476264D01*
X116363687Y-74018305D01*
X116360143Y-74023122D01*
X115953951Y-74541587D01*
X115950123Y-74546181D01*
X115513366Y-75039177D01*
X115509267Y-75043532D01*
X115043532Y-75509267D01*
X115039177Y-75513366D01*
X114546181Y-75950123D01*
X114541587Y-75953951D01*
X114023122Y-76360143D01*
X114018305Y-76363687D01*
X113476264Y-76737831D01*
X113471242Y-76741078D01*
X112907602Y-77081810D01*
X112902394Y-77084748D01*
X112319192Y-77390836D01*
X112313815Y-77393454D01*
X111713212Y-77663763D01*
X111707687Y-77666052D01*
X111091836Y-77899614D01*
X111086183Y-77901564D01*
X110457381Y-78097506D01*
X110451620Y-78099112D01*
X109812121Y-78256735D01*
X109806274Y-78257990D01*
X109158432Y-78376711D01*
X109152520Y-78377611D01*
X108498681Y-78457001D01*
X108492726Y-78457542D01*
X107834925Y-78497332D01*
X107829695Y-78497510D01*
X107502610Y-78499980D01*
X107500396Y-78499997D01*
X107499650Y-78500000D01*
X65599000Y-78500000D01*
X65540809Y-78481093D01*
X65504845Y-78431593D01*
X65500000Y-78401000D01*
X65500000Y-75134456D01*
X65509823Y-75104222D01*
X65508263Y-75098081D01*
X65687796Y-75098081D01*
X65697153Y-75121534D01*
X65714955Y-75256758D01*
X65714957Y-75256766D01*
X65775462Y-75402838D01*
X65775462Y-75402839D01*
X65871713Y-75528276D01*
X65871718Y-75528282D01*
X65997159Y-75624536D01*
X66143238Y-75685044D01*
X66260809Y-75700522D01*
X66299999Y-75705682D01*
X66300000Y-75705682D01*
X66300001Y-75705682D01*
X66331352Y-75701554D01*
X66456762Y-75685044D01*
X66602841Y-75624536D01*
X66728282Y-75528282D01*
X66824536Y-75402841D01*
X66885044Y-75256762D01*
X66905682Y-75100000D01*
X66885044Y-74943238D01*
X66860938Y-74885042D01*
X66824537Y-74797161D01*
X66824537Y-74797160D01*
X66728286Y-74671723D01*
X66728285Y-74671722D01*
X66728282Y-74671718D01*
X66728277Y-74671714D01*
X66728276Y-74671713D01*
X66638517Y-74602839D01*
X66602841Y-74575464D01*
X66602840Y-74575463D01*
X66602838Y-74575462D01*
X66456766Y-74514957D01*
X66456758Y-74514955D01*
X66300001Y-74494318D01*
X66299999Y-74494318D01*
X66143241Y-74514955D01*
X66143233Y-74514957D01*
X65997161Y-74575462D01*
X65997160Y-74575462D01*
X65871723Y-74671713D01*
X65871713Y-74671723D01*
X65775462Y-74797160D01*
X65775462Y-74797161D01*
X65714957Y-74943233D01*
X65714955Y-74943241D01*
X65697153Y-75078465D01*
X65687796Y-75098081D01*
X65508263Y-75098081D01*
X65500000Y-75065543D01*
X65500000Y-74299999D01*
X98994318Y-74299999D01*
X98994318Y-74300000D01*
X99014955Y-74456758D01*
X99014957Y-74456766D01*
X99075462Y-74602838D01*
X99075462Y-74602839D01*
X99171713Y-74728276D01*
X99171718Y-74728282D01*
X99297159Y-74824536D01*
X99443238Y-74885044D01*
X99560809Y-74900522D01*
X99599999Y-74905682D01*
X99600000Y-74905682D01*
X99600001Y-74905682D01*
X99631352Y-74901554D01*
X99756762Y-74885044D01*
X99902841Y-74824536D01*
X100028282Y-74728282D01*
X100124536Y-74602841D01*
X100185044Y-74456762D01*
X100205682Y-74300000D01*
X100185044Y-74143238D01*
X100185042Y-74143233D01*
X100124537Y-73997161D01*
X100124537Y-73997160D01*
X100028286Y-73871723D01*
X100028285Y-73871722D01*
X100028282Y-73871718D01*
X100028277Y-73871714D01*
X100028276Y-73871713D01*
X99902838Y-73775462D01*
X99756766Y-73714957D01*
X99756758Y-73714955D01*
X99600001Y-73694318D01*
X99599999Y-73694318D01*
X99443241Y-73714955D01*
X99443233Y-73714957D01*
X99297161Y-73775462D01*
X99297160Y-73775462D01*
X99171723Y-73871713D01*
X99171713Y-73871723D01*
X99075462Y-73997160D01*
X99075462Y-73997161D01*
X99014957Y-74143233D01*
X99014955Y-74143241D01*
X98994318Y-74299999D01*
X65500000Y-74299999D01*
X65500000Y-71699997D01*
X91844867Y-71699997D01*
X91844867Y-71700002D01*
X91863302Y-71828225D01*
X91917117Y-71946061D01*
X91917118Y-71946063D01*
X92001951Y-72043967D01*
X92001952Y-72043968D01*
X92110926Y-72114001D01*
X92110931Y-72114004D01*
X92235228Y-72150500D01*
X92235230Y-72150500D01*
X92364770Y-72150500D01*
X92364772Y-72150500D01*
X92489069Y-72114004D01*
X92598049Y-72043967D01*
X92682882Y-71946063D01*
X92722381Y-71859573D01*
X109499500Y-71859573D01*
X109499500Y-72140426D01*
X109530944Y-72419507D01*
X109593440Y-72693319D01*
X109686198Y-72958406D01*
X109686199Y-72958409D01*
X109808047Y-73211430D01*
X109808051Y-73211437D01*
X109808055Y-73211445D01*
X109957477Y-73449248D01*
X110132584Y-73668825D01*
X110331175Y-73867416D01*
X110550752Y-74042523D01*
X110788555Y-74191945D01*
X110788566Y-74191950D01*
X110788569Y-74191952D01*
X111009962Y-74298569D01*
X111041592Y-74313801D01*
X111306682Y-74406560D01*
X111580491Y-74469055D01*
X111859575Y-74500500D01*
X111859576Y-74500500D01*
X112140424Y-74500500D01*
X112140425Y-74500500D01*
X112419509Y-74469055D01*
X112693318Y-74406560D01*
X112958408Y-74313801D01*
X113211445Y-74191945D01*
X113449248Y-74042523D01*
X113668825Y-73867416D01*
X113867416Y-73668825D01*
X114042523Y-73449248D01*
X114191945Y-73211445D01*
X114313801Y-72958408D01*
X114406560Y-72693318D01*
X114469055Y-72419509D01*
X114500500Y-72140425D01*
X114500500Y-71859575D01*
X114469055Y-71580491D01*
X114406560Y-71306682D01*
X114313801Y-71041592D01*
X114191945Y-70788555D01*
X114042523Y-70550752D01*
X113867416Y-70331175D01*
X113668825Y-70132584D01*
X113449248Y-69957477D01*
X113211445Y-69808055D01*
X113211437Y-69808051D01*
X113211430Y-69808047D01*
X112958409Y-69686199D01*
X112958406Y-69686198D01*
X112693319Y-69593440D01*
X112419507Y-69530944D01*
X112140426Y-69499500D01*
X112140425Y-69499500D01*
X111859575Y-69499500D01*
X111859573Y-69499500D01*
X111580492Y-69530944D01*
X111306680Y-69593440D01*
X111041593Y-69686198D01*
X111041590Y-69686199D01*
X110788569Y-69808047D01*
X110788556Y-69808054D01*
X110788555Y-69808055D01*
X110782084Y-69812121D01*
X110550751Y-69957477D01*
X110331176Y-70132583D01*
X110132583Y-70331176D01*
X109957477Y-70550751D01*
X109808054Y-70788557D01*
X109808047Y-70788569D01*
X109686199Y-71041590D01*
X109686198Y-71041593D01*
X109593440Y-71306680D01*
X109530944Y-71580492D01*
X109499500Y-71859573D01*
X92722381Y-71859573D01*
X92736697Y-71828226D01*
X92742842Y-71785484D01*
X92755133Y-71700002D01*
X92755133Y-71699997D01*
X92736697Y-71571774D01*
X92682882Y-71453938D01*
X92682882Y-71453937D01*
X92598049Y-71356033D01*
X92598048Y-71356032D01*
X92598047Y-71356031D01*
X92489073Y-71285998D01*
X92489070Y-71285996D01*
X92489069Y-71285996D01*
X92485820Y-71285042D01*
X92364774Y-71249500D01*
X92364772Y-71249500D01*
X92235228Y-71249500D01*
X92235225Y-71249500D01*
X92110933Y-71285995D01*
X92110926Y-71285998D01*
X92001952Y-71356031D01*
X91917117Y-71453938D01*
X91863302Y-71571774D01*
X91844867Y-71699997D01*
X65500000Y-71699997D01*
X65500000Y-70699999D01*
X98994318Y-70699999D01*
X98994318Y-70700000D01*
X99014955Y-70856758D01*
X99014957Y-70856766D01*
X99075462Y-71002838D01*
X99075462Y-71002839D01*
X99105199Y-71041593D01*
X99171718Y-71128282D01*
X99297159Y-71224536D01*
X99443238Y-71285044D01*
X99560809Y-71300522D01*
X99599999Y-71305682D01*
X99600000Y-71305682D01*
X99600001Y-71305682D01*
X99631352Y-71301554D01*
X99756762Y-71285044D01*
X99902841Y-71224536D01*
X100028282Y-71128282D01*
X100124536Y-71002841D01*
X100185044Y-70856762D01*
X100205682Y-70700000D01*
X100185044Y-70543238D01*
X100124537Y-70397161D01*
X100124537Y-70397160D01*
X100028286Y-70271723D01*
X100028285Y-70271722D01*
X100028282Y-70271718D01*
X100028277Y-70271714D01*
X100028276Y-70271713D01*
X99902838Y-70175462D01*
X99756766Y-70114957D01*
X99756758Y-70114955D01*
X99600001Y-70094318D01*
X99599999Y-70094318D01*
X99443241Y-70114955D01*
X99443233Y-70114957D01*
X99297161Y-70175462D01*
X99297160Y-70175462D01*
X99171723Y-70271713D01*
X99171713Y-70271723D01*
X99075462Y-70397160D01*
X99075462Y-70397161D01*
X99014957Y-70543233D01*
X99014955Y-70543241D01*
X98994318Y-70699999D01*
X65500000Y-70699999D01*
X65500000Y-68999997D01*
X73644867Y-68999997D01*
X73644867Y-69000002D01*
X73663302Y-69128225D01*
X73689250Y-69185042D01*
X73717118Y-69246063D01*
X73723941Y-69253937D01*
X73801952Y-69343968D01*
X73910926Y-69414001D01*
X73910931Y-69414004D01*
X74035228Y-69450500D01*
X74035232Y-69450500D01*
X74040517Y-69451260D01*
X74095425Y-69478255D01*
X74123980Y-69532369D01*
X74124422Y-69535164D01*
X74137802Y-69628225D01*
X74191617Y-69746061D01*
X74191618Y-69746063D01*
X74245327Y-69808047D01*
X74276452Y-69843968D01*
X74385426Y-69914001D01*
X74385431Y-69914004D01*
X74509728Y-69950500D01*
X74509730Y-69950500D01*
X74639270Y-69950500D01*
X74639272Y-69950500D01*
X74763569Y-69914004D01*
X74872549Y-69843967D01*
X74957382Y-69746063D01*
X75011197Y-69628226D01*
X75029633Y-69500000D01*
X75029561Y-69499500D01*
X75011197Y-69371774D01*
X74957382Y-69253938D01*
X74957382Y-69253937D01*
X74872549Y-69156033D01*
X74872548Y-69156032D01*
X74872547Y-69156031D01*
X74763573Y-69085998D01*
X74763570Y-69085996D01*
X74763569Y-69085996D01*
X74763566Y-69085995D01*
X74639270Y-69049499D01*
X74633976Y-69048738D01*
X74579069Y-69021739D01*
X74550518Y-68967624D01*
X74550077Y-68964834D01*
X74536697Y-68871775D01*
X74482882Y-68753938D01*
X74482882Y-68753937D01*
X74398049Y-68656033D01*
X74398048Y-68656032D01*
X74398047Y-68656031D01*
X74310859Y-68599999D01*
X76394318Y-68599999D01*
X76394318Y-68600000D01*
X76414955Y-68756758D01*
X76414957Y-68756766D01*
X76475462Y-68902838D01*
X76475462Y-68902839D01*
X76550018Y-69000002D01*
X76571718Y-69028282D01*
X76697159Y-69124536D01*
X76697160Y-69124536D01*
X76697161Y-69124537D01*
X76778991Y-69158432D01*
X76843238Y-69185044D01*
X76960809Y-69200522D01*
X76999999Y-69205682D01*
X77000000Y-69205682D01*
X77000001Y-69205682D01*
X77031352Y-69201554D01*
X77156762Y-69185044D01*
X77302841Y-69124536D01*
X77428282Y-69028282D01*
X77524536Y-68902841D01*
X77585044Y-68756762D01*
X77605682Y-68600000D01*
X77585044Y-68443238D01*
X77524537Y-68297161D01*
X77524537Y-68297160D01*
X77428286Y-68171723D01*
X77428285Y-68171722D01*
X77428282Y-68171718D01*
X77428277Y-68171714D01*
X77428276Y-68171713D01*
X77302838Y-68075462D01*
X77156766Y-68014957D01*
X77156758Y-68014955D01*
X77000001Y-67994318D01*
X76999999Y-67994318D01*
X76843241Y-68014955D01*
X76843233Y-68014957D01*
X76697161Y-68075462D01*
X76697160Y-68075462D01*
X76571723Y-68171713D01*
X76571713Y-68171723D01*
X76475462Y-68297160D01*
X76475462Y-68297161D01*
X76414957Y-68443233D01*
X76414955Y-68443241D01*
X76394318Y-68599999D01*
X74310859Y-68599999D01*
X74289073Y-68585998D01*
X74289070Y-68585996D01*
X74289069Y-68585996D01*
X74289066Y-68585995D01*
X74164774Y-68549500D01*
X74164772Y-68549500D01*
X74035228Y-68549500D01*
X74035225Y-68549500D01*
X73910933Y-68585995D01*
X73910926Y-68585998D01*
X73801952Y-68656031D01*
X73717117Y-68753938D01*
X73663302Y-68871774D01*
X73644867Y-68999997D01*
X65500000Y-68999997D01*
X65500000Y-67249997D01*
X88744867Y-67249997D01*
X88744867Y-67250002D01*
X88763302Y-67378225D01*
X88817117Y-67496061D01*
X88817118Y-67496063D01*
X88901951Y-67593967D01*
X88901952Y-67593968D01*
X89010926Y-67664001D01*
X89010931Y-67664004D01*
X89135228Y-67700500D01*
X89135230Y-67700500D01*
X89264770Y-67700500D01*
X89264772Y-67700500D01*
X89389069Y-67664004D01*
X89498049Y-67593967D01*
X89582882Y-67496063D01*
X89636697Y-67378226D01*
X89655133Y-67250000D01*
X89636697Y-67121774D01*
X89582882Y-67003937D01*
X89498049Y-66906033D01*
X89498048Y-66906032D01*
X89498047Y-66906031D01*
X89389073Y-66835998D01*
X89389070Y-66835996D01*
X89389069Y-66835996D01*
X89389066Y-66835995D01*
X89264774Y-66799500D01*
X89264772Y-66799500D01*
X89135228Y-66799500D01*
X89135225Y-66799500D01*
X89010933Y-66835995D01*
X89010926Y-66835998D01*
X88901952Y-66906031D01*
X88817117Y-67003938D01*
X88763302Y-67121774D01*
X88744867Y-67249997D01*
X65500000Y-67249997D01*
X65500000Y-65500011D01*
X89894323Y-65500011D01*
X89894323Y-65500012D01*
X89914960Y-65656770D01*
X89914962Y-65656778D01*
X89975467Y-65802850D01*
X89975467Y-65802851D01*
X89975469Y-65802853D01*
X90071723Y-65928294D01*
X90197164Y-66024548D01*
X90343243Y-66085056D01*
X90460814Y-66100534D01*
X90500004Y-66105694D01*
X90500005Y-66105694D01*
X90500006Y-66105694D01*
X90531357Y-66101566D01*
X90656767Y-66085056D01*
X90802846Y-66024548D01*
X90928287Y-65928294D01*
X91024541Y-65802853D01*
X91085049Y-65656774D01*
X91105687Y-65500012D01*
X91085049Y-65343250D01*
X91024542Y-65197173D01*
X91024542Y-65197172D01*
X90928291Y-65071735D01*
X90928290Y-65071734D01*
X90928287Y-65071730D01*
X90928282Y-65071726D01*
X90928281Y-65071725D01*
X90802843Y-64975474D01*
X90656771Y-64914969D01*
X90656763Y-64914967D01*
X90500006Y-64894330D01*
X90500004Y-64894330D01*
X90343246Y-64914967D01*
X90343238Y-64914969D01*
X90197166Y-64975474D01*
X90197165Y-64975474D01*
X90071728Y-65071725D01*
X90071718Y-65071735D01*
X89975467Y-65197172D01*
X89975467Y-65197173D01*
X89914962Y-65343245D01*
X89914960Y-65343253D01*
X89894323Y-65500011D01*
X65500000Y-65500011D01*
X65500000Y-63699997D01*
X104044867Y-63699997D01*
X104044867Y-63700002D01*
X104063302Y-63828225D01*
X104106848Y-63923576D01*
X104117118Y-63946063D01*
X104201951Y-64043967D01*
X104201952Y-64043968D01*
X104252452Y-64076422D01*
X104310931Y-64114004D01*
X104435228Y-64150500D01*
X104435230Y-64150500D01*
X104564770Y-64150500D01*
X104564772Y-64150500D01*
X104689069Y-64114004D01*
X104798049Y-64043967D01*
X104882882Y-63946063D01*
X104936697Y-63828226D01*
X104955133Y-63700000D01*
X104947019Y-63643569D01*
X104936697Y-63571774D01*
X104885222Y-63459061D01*
X104882882Y-63453937D01*
X104798049Y-63356033D01*
X104798048Y-63356032D01*
X104798047Y-63356031D01*
X104689073Y-63285998D01*
X104689070Y-63285996D01*
X104689069Y-63285996D01*
X104689066Y-63285995D01*
X104564774Y-63249500D01*
X104564772Y-63249500D01*
X104435228Y-63249500D01*
X104435225Y-63249500D01*
X104310933Y-63285995D01*
X104310926Y-63285998D01*
X104201952Y-63356031D01*
X104117117Y-63453938D01*
X104063302Y-63571774D01*
X104044867Y-63699997D01*
X65500000Y-63699997D01*
X65500000Y-61199999D01*
X75594318Y-61199999D01*
X75594318Y-61200000D01*
X75614955Y-61356758D01*
X75614957Y-61356766D01*
X75675462Y-61502838D01*
X75675462Y-61502839D01*
X75771713Y-61628276D01*
X75771718Y-61628282D01*
X75897159Y-61724536D01*
X75897160Y-61724536D01*
X75897161Y-61724537D01*
X76000241Y-61767234D01*
X76043238Y-61785044D01*
X76160809Y-61800522D01*
X76199999Y-61805682D01*
X76200000Y-61805682D01*
X76200001Y-61805682D01*
X76231352Y-61801554D01*
X76356762Y-61785044D01*
X76502841Y-61724536D01*
X76589735Y-61657859D01*
X76647408Y-61637437D01*
X76706074Y-61654814D01*
X76710234Y-61657836D01*
X76797159Y-61724536D01*
X76797162Y-61724537D01*
X76797163Y-61724538D01*
X76900241Y-61767234D01*
X76943238Y-61785044D01*
X77060809Y-61800522D01*
X77099999Y-61805682D01*
X77100000Y-61805682D01*
X77100001Y-61805682D01*
X77131352Y-61801554D01*
X77256762Y-61785044D01*
X77402841Y-61724536D01*
X77528282Y-61628282D01*
X77624536Y-61502841D01*
X77667135Y-61399999D01*
X81994318Y-61399999D01*
X81994318Y-61400000D01*
X82014955Y-61556758D01*
X82014957Y-61556766D01*
X82075462Y-61702838D01*
X82075462Y-61702839D01*
X82142138Y-61789733D01*
X82162562Y-61847409D01*
X82145184Y-61906075D01*
X82142138Y-61910267D01*
X82075462Y-61997160D01*
X82075462Y-61997161D01*
X82014957Y-62143233D01*
X82014955Y-62143241D01*
X81994318Y-62299999D01*
X81994318Y-62300000D01*
X82014955Y-62456758D01*
X82014957Y-62456766D01*
X82075462Y-62602838D01*
X82075462Y-62602839D01*
X82150018Y-62700002D01*
X82171718Y-62728282D01*
X82297159Y-62824536D01*
X82443238Y-62885044D01*
X82560809Y-62900522D01*
X82599999Y-62905682D01*
X82600000Y-62905682D01*
X82600001Y-62905682D01*
X82631352Y-62901554D01*
X82756762Y-62885044D01*
X82902841Y-62824536D01*
X83028282Y-62728282D01*
X83049986Y-62699997D01*
X90744367Y-62699997D01*
X90744367Y-62700002D01*
X90762802Y-62828225D01*
X90816617Y-62946061D01*
X90816618Y-62946063D01*
X90863354Y-63000000D01*
X90901452Y-63043968D01*
X91010426Y-63114001D01*
X91010431Y-63114004D01*
X91134728Y-63150500D01*
X91134730Y-63150500D01*
X91264270Y-63150500D01*
X91264272Y-63150500D01*
X91388569Y-63114004D01*
X91497549Y-63043967D01*
X91582382Y-62946063D01*
X91636197Y-62828226D01*
X91654633Y-62700000D01*
X91654069Y-62696078D01*
X91636197Y-62571774D01*
X91582382Y-62453938D01*
X91582382Y-62453937D01*
X91497549Y-62356033D01*
X91497548Y-62356032D01*
X91497547Y-62356031D01*
X91388573Y-62285998D01*
X91388570Y-62285996D01*
X91388569Y-62285996D01*
X91388566Y-62285995D01*
X91264274Y-62249500D01*
X91264272Y-62249500D01*
X91134728Y-62249500D01*
X91134725Y-62249500D01*
X91010433Y-62285995D01*
X91010426Y-62285998D01*
X90901452Y-62356031D01*
X90816617Y-62453938D01*
X90762802Y-62571774D01*
X90744367Y-62699997D01*
X83049986Y-62699997D01*
X83124536Y-62602841D01*
X83185044Y-62456762D01*
X83205682Y-62300000D01*
X83185044Y-62143238D01*
X83160939Y-62085044D01*
X83125713Y-61999999D01*
X85994318Y-61999999D01*
X85994318Y-62000000D01*
X86014955Y-62156758D01*
X86014957Y-62156766D01*
X86075462Y-62302838D01*
X86075462Y-62302839D01*
X86124814Y-62367156D01*
X86171718Y-62428282D01*
X86297159Y-62524536D01*
X86443238Y-62585044D01*
X86560809Y-62600522D01*
X86599999Y-62605682D01*
X86600000Y-62605682D01*
X86600001Y-62605682D01*
X86631352Y-62601554D01*
X86756762Y-62585044D01*
X86902841Y-62524536D01*
X87028282Y-62428282D01*
X87124536Y-62302841D01*
X87185044Y-62156762D01*
X87205682Y-62000000D01*
X87205682Y-61999999D01*
X87894318Y-61999999D01*
X87894318Y-62000000D01*
X87914955Y-62156758D01*
X87914957Y-62156766D01*
X87975462Y-62302838D01*
X87975462Y-62302839D01*
X88024814Y-62367156D01*
X88071718Y-62428282D01*
X88197159Y-62524536D01*
X88343238Y-62585044D01*
X88460809Y-62600522D01*
X88499999Y-62605682D01*
X88500000Y-62605682D01*
X88500001Y-62605682D01*
X88531352Y-62601554D01*
X88656762Y-62585044D01*
X88802841Y-62524536D01*
X88928282Y-62428282D01*
X89024536Y-62302841D01*
X89085044Y-62156762D01*
X89105682Y-62000000D01*
X89085044Y-61843238D01*
X89064618Y-61793926D01*
X89024537Y-61697161D01*
X89024537Y-61697160D01*
X88928286Y-61571723D01*
X88928285Y-61571722D01*
X88928282Y-61571718D01*
X88928277Y-61571714D01*
X88928276Y-61571713D01*
X88838517Y-61502839D01*
X88802841Y-61475464D01*
X88802840Y-61475463D01*
X88802838Y-61475462D01*
X88656766Y-61414957D01*
X88656758Y-61414955D01*
X88500001Y-61394318D01*
X88499999Y-61394318D01*
X88343241Y-61414955D01*
X88343233Y-61414957D01*
X88197161Y-61475462D01*
X88197160Y-61475462D01*
X88071723Y-61571713D01*
X88071713Y-61571723D01*
X87975462Y-61697160D01*
X87975462Y-61697161D01*
X87914957Y-61843233D01*
X87914955Y-61843241D01*
X87894318Y-61999999D01*
X87205682Y-61999999D01*
X87185044Y-61843238D01*
X87164618Y-61793926D01*
X87124537Y-61697161D01*
X87124537Y-61697160D01*
X87028286Y-61571723D01*
X87028285Y-61571722D01*
X87028282Y-61571718D01*
X87028277Y-61571714D01*
X87028276Y-61571713D01*
X86938517Y-61502839D01*
X86902841Y-61475464D01*
X86902840Y-61475463D01*
X86902838Y-61475462D01*
X86756766Y-61414957D01*
X86756758Y-61414955D01*
X86600001Y-61394318D01*
X86599999Y-61394318D01*
X86443241Y-61414955D01*
X86443233Y-61414957D01*
X86297161Y-61475462D01*
X86297160Y-61475462D01*
X86171723Y-61571713D01*
X86171713Y-61571723D01*
X86075462Y-61697160D01*
X86075462Y-61697161D01*
X86014957Y-61843233D01*
X86014955Y-61843241D01*
X85994318Y-61999999D01*
X83125713Y-61999999D01*
X83124538Y-61997163D01*
X83124537Y-61997162D01*
X83124536Y-61997159D01*
X83057859Y-61910264D01*
X83037437Y-61852592D01*
X83054814Y-61793926D01*
X83057836Y-61789765D01*
X83124536Y-61702841D01*
X83185044Y-61556762D01*
X83205682Y-61400000D01*
X83199845Y-61355668D01*
X83210163Y-61299997D01*
X104044867Y-61299997D01*
X104044867Y-61300002D01*
X104063302Y-61428225D01*
X104097378Y-61502839D01*
X104117118Y-61546063D01*
X104163835Y-61599978D01*
X104201952Y-61643968D01*
X104293553Y-61702836D01*
X104310931Y-61714004D01*
X104435228Y-61750500D01*
X104435230Y-61750500D01*
X104564770Y-61750500D01*
X104564772Y-61750500D01*
X104689069Y-61714004D01*
X104798049Y-61643967D01*
X104882882Y-61546063D01*
X104936697Y-61428226D01*
X104946972Y-61356762D01*
X104955133Y-61300002D01*
X104955133Y-61299997D01*
X104936697Y-61171774D01*
X104923998Y-61143967D01*
X104882882Y-61053937D01*
X104798049Y-60956033D01*
X104798048Y-60956032D01*
X104798047Y-60956031D01*
X104689073Y-60885998D01*
X104689070Y-60885996D01*
X104689069Y-60885996D01*
X104689066Y-60885995D01*
X104564774Y-60849500D01*
X104564772Y-60849500D01*
X104435228Y-60849500D01*
X104435225Y-60849500D01*
X104310933Y-60885995D01*
X104310926Y-60885998D01*
X104201952Y-60956031D01*
X104117117Y-61053938D01*
X104063302Y-61171774D01*
X104044867Y-61299997D01*
X83210163Y-61299997D01*
X83210994Y-61295511D01*
X83255376Y-61253393D01*
X83316038Y-61245405D01*
X83325891Y-61247758D01*
X83335228Y-61250500D01*
X83335230Y-61250500D01*
X83464770Y-61250500D01*
X83464772Y-61250500D01*
X83589069Y-61214004D01*
X83698049Y-61143967D01*
X83782882Y-61046063D01*
X83836697Y-60928226D01*
X83844283Y-60875462D01*
X83855133Y-60800002D01*
X83855133Y-60799997D01*
X83836697Y-60671774D01*
X83816809Y-60628226D01*
X83782882Y-60553937D01*
X83736143Y-60499997D01*
X89344867Y-60499997D01*
X89344867Y-60500002D01*
X89363302Y-60628225D01*
X89417117Y-60746061D01*
X89417118Y-60746063D01*
X89493434Y-60834138D01*
X89501952Y-60843968D01*
X89610926Y-60914001D01*
X89610931Y-60914004D01*
X89735228Y-60950500D01*
X89735230Y-60950500D01*
X89864770Y-60950500D01*
X89864772Y-60950500D01*
X89989069Y-60914004D01*
X90098049Y-60843967D01*
X90182882Y-60746063D01*
X90236697Y-60628226D01*
X90247378Y-60553937D01*
X90255133Y-60500002D01*
X90255133Y-60499997D01*
X90236697Y-60371774D01*
X90226525Y-60349500D01*
X90182882Y-60253937D01*
X90182032Y-60252956D01*
X90181610Y-60251957D01*
X90179054Y-60247980D01*
X90179742Y-60247537D01*
X90158213Y-60196600D01*
X90172069Y-60137004D01*
X90203321Y-60104844D01*
X90298049Y-60043967D01*
X90382882Y-59946063D01*
X90436697Y-59828226D01*
X90451075Y-59728225D01*
X90455133Y-59700002D01*
X90455133Y-59699997D01*
X90436697Y-59571774D01*
X90382882Y-59453937D01*
X90298049Y-59356033D01*
X90298048Y-59356032D01*
X90298047Y-59356031D01*
X90189073Y-59285998D01*
X90189070Y-59285996D01*
X90189069Y-59285996D01*
X90189066Y-59285995D01*
X90064774Y-59249500D01*
X90064772Y-59249500D01*
X89935228Y-59249500D01*
X89935225Y-59249500D01*
X89810933Y-59285995D01*
X89810926Y-59285998D01*
X89701952Y-59356031D01*
X89617117Y-59453938D01*
X89563302Y-59571774D01*
X89544867Y-59699997D01*
X89544867Y-59700002D01*
X89563302Y-59828225D01*
X89617118Y-59946064D01*
X89617120Y-59946067D01*
X89617971Y-59947049D01*
X89618392Y-59948046D01*
X89620946Y-59952020D01*
X89620258Y-59952462D01*
X89641785Y-60003409D01*
X89627923Y-60063004D01*
X89596672Y-60095159D01*
X89501951Y-60156032D01*
X89417117Y-60253938D01*
X89363302Y-60371774D01*
X89344867Y-60499997D01*
X83736143Y-60499997D01*
X83698049Y-60456033D01*
X83698048Y-60456032D01*
X83698047Y-60456031D01*
X83589073Y-60385998D01*
X83589070Y-60385996D01*
X83589069Y-60385996D01*
X83589066Y-60385995D01*
X83464774Y-60349500D01*
X83464772Y-60349500D01*
X83335228Y-60349500D01*
X83335225Y-60349500D01*
X83210933Y-60385995D01*
X83210926Y-60385998D01*
X83101952Y-60456031D01*
X83017117Y-60553938D01*
X82963302Y-60671774D01*
X82950400Y-60761507D01*
X82923404Y-60816414D01*
X82869289Y-60844967D01*
X82814523Y-60838881D01*
X82756766Y-60814957D01*
X82756758Y-60814955D01*
X82600001Y-60794318D01*
X82599999Y-60794318D01*
X82443241Y-60814955D01*
X82443233Y-60814957D01*
X82297161Y-60875462D01*
X82297160Y-60875462D01*
X82171723Y-60971713D01*
X82171713Y-60971723D01*
X82075462Y-61097160D01*
X82075462Y-61097161D01*
X82014957Y-61243233D01*
X82014955Y-61243241D01*
X81994318Y-61399999D01*
X77667135Y-61399999D01*
X77685044Y-61356762D01*
X77705682Y-61200000D01*
X77685044Y-61043238D01*
X77656970Y-60975462D01*
X77624537Y-60897161D01*
X77624537Y-60897160D01*
X77528286Y-60771723D01*
X77528285Y-60771722D01*
X77528282Y-60771718D01*
X77528277Y-60771714D01*
X77528276Y-60771713D01*
X77402838Y-60675462D01*
X77256766Y-60614957D01*
X77256758Y-60614955D01*
X77100001Y-60594318D01*
X77099999Y-60594318D01*
X76943241Y-60614955D01*
X76943233Y-60614957D01*
X76797161Y-60675462D01*
X76797160Y-60675462D01*
X76710267Y-60742138D01*
X76652591Y-60762562D01*
X76593925Y-60745184D01*
X76589733Y-60742138D01*
X76502838Y-60675462D01*
X76356766Y-60614957D01*
X76356758Y-60614955D01*
X76200001Y-60594318D01*
X76199999Y-60594318D01*
X76043241Y-60614955D01*
X76043233Y-60614957D01*
X75897161Y-60675462D01*
X75897160Y-60675462D01*
X75771723Y-60771713D01*
X75771713Y-60771723D01*
X75675462Y-60897160D01*
X75675462Y-60897161D01*
X75614957Y-61043233D01*
X75614955Y-61043241D01*
X75594318Y-61199999D01*
X65500000Y-61199999D01*
X65500000Y-60999984D01*
X65497452Y-60857134D01*
X65462632Y-60614957D01*
X65456790Y-60574326D01*
X65421617Y-60454538D01*
X65376295Y-60300184D01*
X65355175Y-60253938D01*
X65257600Y-60040278D01*
X65103127Y-59799914D01*
X65041008Y-59728225D01*
X64929899Y-59599997D01*
X85644867Y-59599997D01*
X85644867Y-59600002D01*
X85663302Y-59728225D01*
X85708972Y-59828226D01*
X85717118Y-59846063D01*
X85801951Y-59943967D01*
X85801952Y-59943968D01*
X85910926Y-60014001D01*
X85910931Y-60014004D01*
X86035228Y-60050500D01*
X86035230Y-60050500D01*
X86164770Y-60050500D01*
X86164772Y-60050500D01*
X86289069Y-60014004D01*
X86398049Y-59943967D01*
X86482882Y-59846063D01*
X86536697Y-59728226D01*
X86555133Y-59600000D01*
X86552828Y-59583971D01*
X86536697Y-59471774D01*
X86520358Y-59435998D01*
X86482882Y-59353937D01*
X86398049Y-59256033D01*
X86398048Y-59256032D01*
X86398047Y-59256031D01*
X86289073Y-59185998D01*
X86289070Y-59185996D01*
X86289069Y-59185996D01*
X86289066Y-59185995D01*
X86164774Y-59149500D01*
X86164772Y-59149500D01*
X86035228Y-59149500D01*
X86035225Y-59149500D01*
X85910933Y-59185995D01*
X85910926Y-59185998D01*
X85801952Y-59256031D01*
X85717117Y-59353938D01*
X85663302Y-59471774D01*
X85644867Y-59599997D01*
X64929899Y-59599997D01*
X64916028Y-59583989D01*
X64916026Y-59583987D01*
X64916020Y-59583980D01*
X64916010Y-59583971D01*
X64700097Y-59396882D01*
X64700093Y-59396879D01*
X64700086Y-59396873D01*
X64459722Y-59242400D01*
X64336219Y-59185998D01*
X64199815Y-59123704D01*
X63925675Y-59043210D01*
X63925670Y-59043209D01*
X63642862Y-59002547D01*
X63642868Y-59002547D01*
X63500015Y-59000000D01*
X63500000Y-59000000D01*
X43000000Y-59000000D01*
X42999985Y-59000000D01*
X42857134Y-59002547D01*
X42574329Y-59043209D01*
X42574324Y-59043210D01*
X42300184Y-59123704D01*
X42088099Y-59220561D01*
X42040278Y-59242400D01*
X42040276Y-59242401D01*
X42040275Y-59242401D01*
X41866736Y-59353928D01*
X41799914Y-59396873D01*
X41799913Y-59396874D01*
X41799902Y-59396882D01*
X41583989Y-59583971D01*
X41583971Y-59583989D01*
X41396882Y-59799902D01*
X41396874Y-59799913D01*
X41242401Y-60040275D01*
X41242401Y-60040276D01*
X41123704Y-60300184D01*
X41043210Y-60574324D01*
X41043209Y-60574329D01*
X41002547Y-60857134D01*
X41000000Y-60999984D01*
X41000000Y-78401000D01*
X40981093Y-78459191D01*
X40931593Y-78495155D01*
X40901000Y-78500000D01*
X39500350Y-78500000D01*
X39499603Y-78499997D01*
X39497366Y-78499980D01*
X39170304Y-78497510D01*
X39165074Y-78497332D01*
X38507273Y-78457542D01*
X38501318Y-78457001D01*
X37847479Y-78377611D01*
X37841567Y-78376711D01*
X37193725Y-78257990D01*
X37187878Y-78256735D01*
X36548379Y-78099112D01*
X36542618Y-78097506D01*
X35913816Y-77901564D01*
X35908163Y-77899614D01*
X35292312Y-77666052D01*
X35286787Y-77663763D01*
X35134722Y-77595324D01*
X34686177Y-77393450D01*
X34680814Y-77390839D01*
X34097605Y-77084748D01*
X34092397Y-77081810D01*
X33528757Y-76741078D01*
X33523735Y-76737831D01*
X32981694Y-76363687D01*
X32976877Y-76360143D01*
X32458412Y-75953951D01*
X32453818Y-75950123D01*
X31960822Y-75513366D01*
X31956467Y-75509267D01*
X31490732Y-75043532D01*
X31486633Y-75039177D01*
X31272225Y-74797161D01*
X31049871Y-74546175D01*
X31046048Y-74541587D01*
X31013858Y-74500500D01*
X30639854Y-74023119D01*
X30636312Y-74018305D01*
X30262162Y-73476254D01*
X30258921Y-73471242D01*
X30245625Y-73449248D01*
X29918183Y-72907591D01*
X29915251Y-72902394D01*
X29609153Y-72319171D01*
X29606555Y-72313836D01*
X29402108Y-71859573D01*
X32499500Y-71859573D01*
X32499500Y-72140426D01*
X32530944Y-72419507D01*
X32593440Y-72693319D01*
X32686198Y-72958406D01*
X32686199Y-72958409D01*
X32808047Y-73211430D01*
X32808051Y-73211437D01*
X32808055Y-73211445D01*
X32957477Y-73449248D01*
X33132584Y-73668825D01*
X33331175Y-73867416D01*
X33550752Y-74042523D01*
X33788555Y-74191945D01*
X33788566Y-74191950D01*
X33788569Y-74191952D01*
X34009962Y-74298569D01*
X34041592Y-74313801D01*
X34306682Y-74406560D01*
X34580491Y-74469055D01*
X34859575Y-74500500D01*
X34859576Y-74500500D01*
X35140424Y-74500500D01*
X35140425Y-74500500D01*
X35419509Y-74469055D01*
X35693318Y-74406560D01*
X35958408Y-74313801D01*
X36211445Y-74191945D01*
X36449248Y-74042523D01*
X36668825Y-73867416D01*
X36867416Y-73668825D01*
X37042523Y-73449248D01*
X37191945Y-73211445D01*
X37313801Y-72958408D01*
X37406560Y-72693318D01*
X37469055Y-72419509D01*
X37500500Y-72140425D01*
X37500500Y-71859575D01*
X37469055Y-71580491D01*
X37406560Y-71306682D01*
X37313801Y-71041592D01*
X37191945Y-70788555D01*
X37042523Y-70550752D01*
X36867416Y-70331175D01*
X36668825Y-70132584D01*
X36449248Y-69957477D01*
X36211445Y-69808055D01*
X36211437Y-69808051D01*
X36211430Y-69808047D01*
X35958409Y-69686199D01*
X35958406Y-69686198D01*
X35693319Y-69593440D01*
X35419507Y-69530944D01*
X35140426Y-69499500D01*
X35140425Y-69499500D01*
X34859575Y-69499500D01*
X34859573Y-69499500D01*
X34580492Y-69530944D01*
X34306680Y-69593440D01*
X34041593Y-69686198D01*
X34041590Y-69686199D01*
X33788569Y-69808047D01*
X33788556Y-69808054D01*
X33788555Y-69808055D01*
X33782084Y-69812121D01*
X33550751Y-69957477D01*
X33331176Y-70132583D01*
X33132583Y-70331176D01*
X32957477Y-70550751D01*
X32808054Y-70788557D01*
X32808047Y-70788569D01*
X32686199Y-71041590D01*
X32686198Y-71041593D01*
X32593440Y-71306680D01*
X32530944Y-71580492D01*
X32499500Y-71859573D01*
X29402108Y-71859573D01*
X29336230Y-71713198D01*
X29333953Y-71707701D01*
X29100379Y-71091818D01*
X29098441Y-71086201D01*
X28902493Y-70457381D01*
X28900887Y-70451620D01*
X28768376Y-69914004D01*
X28743262Y-69812112D01*
X28742009Y-69806274D01*
X28720005Y-69686199D01*
X28623284Y-69158409D01*
X28622391Y-69152544D01*
X28542997Y-68498676D01*
X28542457Y-68492726D01*
X28539463Y-68443233D01*
X28502666Y-67834915D01*
X28502489Y-67829694D01*
X28500003Y-67500397D01*
X28500000Y-67499650D01*
X28500000Y-63923576D01*
X34254500Y-63923576D01*
X34254500Y-64076424D01*
X34289387Y-64206626D01*
X34294061Y-64224069D01*
X34370480Y-64356430D01*
X34370482Y-64356432D01*
X34370484Y-64356435D01*
X34478565Y-64464516D01*
X34478567Y-64464517D01*
X34478569Y-64464519D01*
X34610931Y-64540938D01*
X34610929Y-64540938D01*
X34610933Y-64540939D01*
X34610935Y-64540940D01*
X34758576Y-64580500D01*
X34758578Y-64580500D01*
X34911422Y-64580500D01*
X34911424Y-64580500D01*
X35059065Y-64540940D01*
X35059067Y-64540938D01*
X35059069Y-64540938D01*
X35191430Y-64464519D01*
X35191430Y-64464518D01*
X35191435Y-64464516D01*
X35299516Y-64356435D01*
X35375940Y-64224065D01*
X35415500Y-64076424D01*
X35415500Y-63923576D01*
X35375940Y-63775935D01*
X35375938Y-63775932D01*
X35375938Y-63775930D01*
X35299519Y-63643569D01*
X35299517Y-63643567D01*
X35299516Y-63643565D01*
X35191435Y-63535484D01*
X35191432Y-63535482D01*
X35191430Y-63535480D01*
X35059068Y-63459061D01*
X35059070Y-63459061D01*
X35001784Y-63443711D01*
X34911424Y-63419500D01*
X34758576Y-63419500D01*
X34668215Y-63443711D01*
X34610930Y-63459061D01*
X34478569Y-63535480D01*
X34370480Y-63643569D01*
X34294061Y-63775930D01*
X34294060Y-63775935D01*
X34254500Y-63923576D01*
X28500000Y-63923576D01*
X28500000Y-62650000D01*
X31930254Y-62650000D01*
X31949177Y-62817949D01*
X31949178Y-62817953D01*
X32004994Y-62977466D01*
X32004998Y-62977472D01*
X32031888Y-63020267D01*
X32339454Y-62712701D01*
X32358852Y-62785095D01*
X32404930Y-62864905D01*
X32470095Y-62930070D01*
X32549905Y-62976148D01*
X32622296Y-62995545D01*
X32314731Y-63303110D01*
X32357528Y-63330003D01*
X32357532Y-63330004D01*
X32517046Y-63385821D01*
X32517050Y-63385822D01*
X32685000Y-63404745D01*
X32852949Y-63385822D01*
X32852953Y-63385821D01*
X33012467Y-63330004D01*
X33012477Y-63329999D01*
X33055267Y-63303112D01*
X33055267Y-63303111D01*
X32747701Y-62995545D01*
X32820095Y-62976148D01*
X32899905Y-62930070D01*
X32965070Y-62864905D01*
X33011148Y-62785095D01*
X33030545Y-62712701D01*
X33338111Y-63020267D01*
X33338112Y-63020267D01*
X33364999Y-62977477D01*
X33365004Y-62977467D01*
X33420821Y-62817953D01*
X33420822Y-62817949D01*
X33439745Y-62650000D01*
X36230254Y-62650000D01*
X36249177Y-62817949D01*
X36249178Y-62817953D01*
X36304994Y-62977466D01*
X36304998Y-62977472D01*
X36331888Y-63020267D01*
X36639454Y-62712700D01*
X36658852Y-62785095D01*
X36704930Y-62864905D01*
X36770095Y-62930070D01*
X36849905Y-62976148D01*
X36922296Y-62995545D01*
X36614731Y-63303110D01*
X36657528Y-63330003D01*
X36657532Y-63330004D01*
X36817046Y-63385821D01*
X36817050Y-63385822D01*
X36985000Y-63404745D01*
X37152949Y-63385822D01*
X37152953Y-63385821D01*
X37312467Y-63330004D01*
X37312477Y-63329999D01*
X37355267Y-63303112D01*
X37355267Y-63303111D01*
X37047701Y-62995545D01*
X37120095Y-62976148D01*
X37199905Y-62930070D01*
X37265070Y-62864905D01*
X37311148Y-62785095D01*
X37330545Y-62712702D01*
X37638111Y-63020267D01*
X37638112Y-63020267D01*
X37664999Y-62977477D01*
X37665004Y-62977467D01*
X37720821Y-62817953D01*
X37720822Y-62817949D01*
X37739745Y-62650000D01*
X37720822Y-62482050D01*
X37720821Y-62482046D01*
X37665002Y-62322527D01*
X37665001Y-62322524D01*
X37623945Y-62257185D01*
X37608994Y-62197854D01*
X37631772Y-62141067D01*
X37683579Y-62108514D01*
X37694848Y-62106360D01*
X37699998Y-62105681D01*
X37700000Y-62105682D01*
X37856762Y-62085044D01*
X38002841Y-62024536D01*
X38128282Y-61928282D01*
X38224536Y-61802841D01*
X38285044Y-61656762D01*
X38305682Y-61500000D01*
X38285044Y-61343238D01*
X38245655Y-61248144D01*
X38224537Y-61197161D01*
X38224537Y-61197160D01*
X38128286Y-61071723D01*
X38128285Y-61071722D01*
X38128282Y-61071718D01*
X38128277Y-61071714D01*
X38128276Y-61071713D01*
X38026956Y-60993968D01*
X38002841Y-60975464D01*
X38002840Y-60975463D01*
X38002838Y-60975462D01*
X37856766Y-60914957D01*
X37856758Y-60914955D01*
X37700001Y-60894318D01*
X37699998Y-60894318D01*
X37645420Y-60901503D01*
X37585260Y-60890353D01*
X37543143Y-60845970D01*
X37535157Y-60785308D01*
X37536468Y-60779818D01*
X37555133Y-60650002D01*
X37555133Y-60649997D01*
X37536697Y-60521774D01*
X37513862Y-60471774D01*
X37482882Y-60403937D01*
X37405671Y-60314830D01*
X37381854Y-60258472D01*
X37395713Y-60198876D01*
X37405672Y-60185169D01*
X37436579Y-60149500D01*
X37482882Y-60096063D01*
X37536697Y-59978226D01*
X37555133Y-59850000D01*
X37552002Y-59828226D01*
X37536697Y-59721774D01*
X37482882Y-59603938D01*
X37482882Y-59603937D01*
X37398049Y-59506033D01*
X37398048Y-59506032D01*
X37398047Y-59506031D01*
X37289073Y-59435998D01*
X37289070Y-59435996D01*
X37289069Y-59435996D01*
X37289066Y-59435995D01*
X37164774Y-59399500D01*
X37164772Y-59399500D01*
X37035228Y-59399500D01*
X37035225Y-59399500D01*
X36910933Y-59435995D01*
X36910926Y-59435998D01*
X36801952Y-59506031D01*
X36717117Y-59603938D01*
X36663302Y-59721774D01*
X36644867Y-59849997D01*
X36644867Y-59850002D01*
X36663302Y-59978225D01*
X36716705Y-60095159D01*
X36717118Y-60096063D01*
X36763421Y-60149500D01*
X36794328Y-60185169D01*
X36818145Y-60241529D01*
X36804286Y-60301124D01*
X36794328Y-60314831D01*
X36717117Y-60403938D01*
X36663302Y-60521774D01*
X36644867Y-60649997D01*
X36644867Y-60650002D01*
X36656142Y-60728424D01*
X36645709Y-60788713D01*
X36601831Y-60831356D01*
X36599281Y-60832564D01*
X36595833Y-60834138D01*
X36486853Y-60904175D01*
X36402018Y-61002082D01*
X36348203Y-61119918D01*
X36329768Y-61248141D01*
X36329768Y-61248146D01*
X36348203Y-61376369D01*
X36371886Y-61428226D01*
X36402019Y-61494207D01*
X36469182Y-61571718D01*
X36486853Y-61592112D01*
X36567543Y-61643968D01*
X36595832Y-61662148D01*
X36720129Y-61698644D01*
X36720131Y-61698644D01*
X36849671Y-61698644D01*
X36849673Y-61698644D01*
X36973970Y-61662148D01*
X36987422Y-61653502D01*
X37046596Y-61637947D01*
X37103613Y-61660145D01*
X37132410Y-61698900D01*
X37160715Y-61767234D01*
X37165516Y-61828231D01*
X37133546Y-61880400D01*
X37077019Y-61903815D01*
X37058167Y-61903498D01*
X36985000Y-61895254D01*
X36817050Y-61914177D01*
X36817046Y-61914178D01*
X36657528Y-61969996D01*
X36614731Y-61996888D01*
X36922297Y-62304454D01*
X36849905Y-62323852D01*
X36770095Y-62369930D01*
X36704930Y-62435095D01*
X36658852Y-62514905D01*
X36639454Y-62587297D01*
X36331888Y-62279730D01*
X36304996Y-62322528D01*
X36249178Y-62482046D01*
X36249177Y-62482050D01*
X36230254Y-62650000D01*
X33439745Y-62650000D01*
X33420822Y-62482050D01*
X33420821Y-62482046D01*
X33365004Y-62322532D01*
X33365003Y-62322528D01*
X33338110Y-62279731D01*
X33030545Y-62587296D01*
X33011148Y-62514905D01*
X32965070Y-62435095D01*
X32899905Y-62369930D01*
X32820095Y-62323852D01*
X32747700Y-62304454D01*
X33055267Y-61996888D01*
X33012472Y-61969998D01*
X33012466Y-61969994D01*
X32852953Y-61914178D01*
X32852949Y-61914177D01*
X32685000Y-61895254D01*
X32517050Y-61914177D01*
X32517046Y-61914178D01*
X32357528Y-61969996D01*
X32314730Y-61996888D01*
X32622297Y-62304454D01*
X32549905Y-62323852D01*
X32470095Y-62369930D01*
X32404930Y-62435095D01*
X32358852Y-62514905D01*
X32339454Y-62587296D01*
X32031888Y-62279730D01*
X32004996Y-62322528D01*
X31949178Y-62482046D01*
X31949177Y-62482050D01*
X31930254Y-62650000D01*
X28500000Y-62650000D01*
X28500000Y-60599997D01*
X30744867Y-60599997D01*
X30744867Y-60600002D01*
X30763302Y-60728225D01*
X30817117Y-60846061D01*
X30817118Y-60846063D01*
X30876814Y-60914957D01*
X30901952Y-60943968D01*
X30979754Y-60993968D01*
X31010931Y-61014004D01*
X31135228Y-61050500D01*
X31135230Y-61050500D01*
X31264770Y-61050500D01*
X31264772Y-61050500D01*
X31389069Y-61014004D01*
X31498049Y-60943967D01*
X31582882Y-60846063D01*
X31636697Y-60728226D01*
X31655133Y-60600000D01*
X31651441Y-60574324D01*
X31636697Y-60471774D01*
X31605717Y-60403938D01*
X31582882Y-60353937D01*
X31498049Y-60256033D01*
X31498048Y-60256032D01*
X31498047Y-60256031D01*
X31389073Y-60185998D01*
X31389070Y-60185996D01*
X31389069Y-60185996D01*
X31389066Y-60185995D01*
X31264774Y-60149500D01*
X31264772Y-60149500D01*
X31135228Y-60149500D01*
X31135225Y-60149500D01*
X31010933Y-60185995D01*
X31010926Y-60185998D01*
X30901952Y-60256031D01*
X30817117Y-60353938D01*
X30763302Y-60471774D01*
X30744867Y-60599997D01*
X28500000Y-60599997D01*
X28500000Y-59849997D01*
X32244867Y-59849997D01*
X32244867Y-59850002D01*
X32263302Y-59978225D01*
X32316705Y-60095159D01*
X32317118Y-60096063D01*
X32363421Y-60149500D01*
X32394328Y-60185169D01*
X32418145Y-60241529D01*
X32404286Y-60301124D01*
X32394328Y-60314831D01*
X32317117Y-60403938D01*
X32263302Y-60521774D01*
X32244867Y-60649997D01*
X32244867Y-60650002D01*
X32263302Y-60778225D01*
X32312521Y-60885998D01*
X32317118Y-60896063D01*
X32401951Y-60993967D01*
X32401952Y-60993968D01*
X32489918Y-61050500D01*
X32510931Y-61064004D01*
X32635228Y-61100500D01*
X32635230Y-61100500D01*
X32764770Y-61100500D01*
X32764772Y-61100500D01*
X32889069Y-61064004D01*
X32998049Y-60993967D01*
X33082882Y-60896063D01*
X33136697Y-60778226D01*
X33151472Y-60675462D01*
X33155133Y-60650002D01*
X33155133Y-60649997D01*
X33136697Y-60521774D01*
X33113862Y-60471774D01*
X33082882Y-60403937D01*
X33005671Y-60314830D01*
X32981854Y-60258472D01*
X32995713Y-60198876D01*
X33005672Y-60185169D01*
X33036579Y-60149500D01*
X33082882Y-60096063D01*
X33136697Y-59978226D01*
X33155133Y-59850000D01*
X33152002Y-59828226D01*
X33136697Y-59721774D01*
X33082882Y-59603938D01*
X33082882Y-59603937D01*
X32998049Y-59506033D01*
X32998048Y-59506032D01*
X32998047Y-59506031D01*
X32889073Y-59435998D01*
X32889070Y-59435996D01*
X32889069Y-59435996D01*
X32889066Y-59435995D01*
X32764774Y-59399500D01*
X32764772Y-59399500D01*
X32635228Y-59399500D01*
X32635225Y-59399500D01*
X32510933Y-59435995D01*
X32510926Y-59435998D01*
X32401952Y-59506031D01*
X32317117Y-59603938D01*
X32263302Y-59721774D01*
X32244867Y-59849997D01*
X28500000Y-59849997D01*
X28500000Y-58999997D01*
X37444867Y-58999997D01*
X37444867Y-59000000D01*
X37463302Y-59128225D01*
X37517117Y-59246061D01*
X37517118Y-59246063D01*
X37601951Y-59343967D01*
X37601952Y-59343968D01*
X37688362Y-59399500D01*
X37710931Y-59414004D01*
X37835228Y-59450500D01*
X37835230Y-59450500D01*
X37964770Y-59450500D01*
X37964772Y-59450500D01*
X38089069Y-59414004D01*
X38198049Y-59343967D01*
X38282882Y-59246063D01*
X38336697Y-59128226D01*
X38355133Y-59000000D01*
X38351466Y-58974497D01*
X38336697Y-58871774D01*
X38316809Y-58828226D01*
X38282882Y-58753937D01*
X38198049Y-58656033D01*
X38198048Y-58656032D01*
X38198047Y-58656031D01*
X38089073Y-58585998D01*
X38089070Y-58585996D01*
X38089069Y-58585996D01*
X38089066Y-58585995D01*
X37964774Y-58549500D01*
X37964772Y-58549500D01*
X37835228Y-58549500D01*
X37835225Y-58549500D01*
X37710933Y-58585995D01*
X37710926Y-58585998D01*
X37601952Y-58656031D01*
X37517117Y-58753938D01*
X37463302Y-58871774D01*
X37444867Y-58999997D01*
X28500000Y-58999997D01*
X28500000Y-57850000D01*
X31930254Y-57850000D01*
X31949177Y-58017949D01*
X31949178Y-58017953D01*
X32004994Y-58177466D01*
X32004998Y-58177472D01*
X32031888Y-58220267D01*
X32339454Y-57912701D01*
X32358852Y-57985095D01*
X32404930Y-58064905D01*
X32470095Y-58130070D01*
X32549905Y-58176148D01*
X32622296Y-58195545D01*
X32314731Y-58503110D01*
X32357528Y-58530003D01*
X32357532Y-58530004D01*
X32517046Y-58585821D01*
X32517050Y-58585822D01*
X32685000Y-58604745D01*
X32852949Y-58585822D01*
X32852953Y-58585821D01*
X33012467Y-58530004D01*
X33012477Y-58529999D01*
X33055267Y-58503112D01*
X33055267Y-58503111D01*
X32747701Y-58195545D01*
X32820095Y-58176148D01*
X32899905Y-58130070D01*
X32965070Y-58064905D01*
X33011148Y-57985095D01*
X33030545Y-57912701D01*
X33338111Y-58220267D01*
X33338112Y-58220267D01*
X33364999Y-58177477D01*
X33365004Y-58177467D01*
X33420821Y-58017953D01*
X33420822Y-58017949D01*
X33439745Y-57850000D01*
X36230254Y-57850000D01*
X36249177Y-58017949D01*
X36249178Y-58017953D01*
X36304994Y-58177466D01*
X36304998Y-58177472D01*
X36331888Y-58220267D01*
X36639454Y-57912700D01*
X36658852Y-57985095D01*
X36704930Y-58064905D01*
X36770095Y-58130070D01*
X36849905Y-58176148D01*
X36922296Y-58195545D01*
X36614731Y-58503110D01*
X36657528Y-58530003D01*
X36657532Y-58530004D01*
X36817046Y-58585821D01*
X36817050Y-58585822D01*
X36985000Y-58604745D01*
X37152949Y-58585822D01*
X37152953Y-58585821D01*
X37312467Y-58530004D01*
X37312477Y-58529999D01*
X37355267Y-58503112D01*
X37355267Y-58503111D01*
X37047701Y-58195545D01*
X37120095Y-58176148D01*
X37199905Y-58130070D01*
X37265070Y-58064905D01*
X37311148Y-57985095D01*
X37330545Y-57912701D01*
X37638111Y-58220267D01*
X37638112Y-58220267D01*
X37664999Y-58177477D01*
X37665004Y-58177467D01*
X37720821Y-58017953D01*
X37720822Y-58017949D01*
X37734112Y-57899999D01*
X37994318Y-57899999D01*
X37994318Y-57900000D01*
X38014955Y-58056758D01*
X38014957Y-58056766D01*
X38075462Y-58202838D01*
X38075462Y-58202839D01*
X38139272Y-58285998D01*
X38171718Y-58328282D01*
X38297159Y-58424536D01*
X38297160Y-58424536D01*
X38297161Y-58424537D01*
X38393855Y-58464589D01*
X38443238Y-58485044D01*
X38556818Y-58499997D01*
X38599999Y-58505682D01*
X38600000Y-58505682D01*
X38600001Y-58505682D01*
X38643182Y-58499997D01*
X38756762Y-58485044D01*
X38902841Y-58424536D01*
X39028282Y-58328282D01*
X39124536Y-58202841D01*
X39185044Y-58056762D01*
X39197347Y-57963311D01*
X39223688Y-57908086D01*
X39239482Y-57899510D01*
X39351433Y-57899510D01*
X39382503Y-57928994D01*
X39394500Y-57976233D01*
X39394500Y-58076000D01*
X39395575Y-58085995D01*
X39403768Y-58162201D01*
X39403770Y-58162211D01*
X39412609Y-58202839D01*
X39414974Y-58213710D01*
X39433157Y-58271063D01*
X39437690Y-58285359D01*
X39437689Y-58285359D01*
X39491589Y-58371921D01*
X39504750Y-58393057D01*
X39550505Y-58445861D01*
X39628077Y-58515042D01*
X39660880Y-58530593D01*
X39742712Y-58569388D01*
X39742714Y-58569388D01*
X39742715Y-58569389D01*
X39809754Y-58589074D01*
X39873224Y-58598199D01*
X39923996Y-58605500D01*
X39924000Y-58605500D01*
X44675996Y-58605500D01*
X44676000Y-58605500D01*
X44762199Y-58596232D01*
X44813710Y-58585026D01*
X44885360Y-58562310D01*
X44985433Y-58499997D01*
X73644867Y-58499997D01*
X73644867Y-58500002D01*
X73663302Y-58628225D01*
X73676001Y-58656031D01*
X73717118Y-58746063D01*
X73723941Y-58753937D01*
X73801952Y-58843968D01*
X73910926Y-58914001D01*
X73910931Y-58914004D01*
X74035228Y-58950500D01*
X74051966Y-58950500D01*
X74110157Y-58969407D01*
X74146121Y-59018907D01*
X74149958Y-59035411D01*
X74163302Y-59128225D01*
X74217117Y-59246061D01*
X74217118Y-59246063D01*
X74301951Y-59343967D01*
X74301952Y-59343968D01*
X74388362Y-59399500D01*
X74410931Y-59414004D01*
X74535228Y-59450500D01*
X74535230Y-59450500D01*
X74664770Y-59450500D01*
X74664772Y-59450500D01*
X74789069Y-59414004D01*
X74898049Y-59343967D01*
X74982882Y-59246063D01*
X75036697Y-59128226D01*
X75055133Y-59000000D01*
X75051466Y-58974497D01*
X87744867Y-58974497D01*
X87744867Y-58974502D01*
X87763302Y-59102725D01*
X87817117Y-59220561D01*
X87817118Y-59220563D01*
X87873815Y-59285996D01*
X87901952Y-59318468D01*
X87960405Y-59356033D01*
X88010931Y-59388504D01*
X88135228Y-59425000D01*
X88135230Y-59425000D01*
X88264770Y-59425000D01*
X88264772Y-59425000D01*
X88389069Y-59388504D01*
X88498049Y-59318467D01*
X88582882Y-59220563D01*
X88636697Y-59102726D01*
X88638507Y-59090132D01*
X88646376Y-59035411D01*
X88673372Y-58980503D01*
X88727486Y-58951950D01*
X88744368Y-58950500D01*
X88764770Y-58950500D01*
X88764772Y-58950500D01*
X88889069Y-58914004D01*
X88998049Y-58843967D01*
X89082882Y-58746063D01*
X89103920Y-58699997D01*
X91844867Y-58699997D01*
X91844867Y-58700002D01*
X91863302Y-58828225D01*
X91902477Y-58914004D01*
X91917118Y-58946063D01*
X91963854Y-59000000D01*
X92001952Y-59043968D01*
X92093380Y-59102725D01*
X92110931Y-59114004D01*
X92235228Y-59150500D01*
X92235230Y-59150500D01*
X92364770Y-59150500D01*
X92364772Y-59150500D01*
X92489069Y-59114004D01*
X92598049Y-59043967D01*
X92682882Y-58946063D01*
X92736697Y-58828226D01*
X92748510Y-58746063D01*
X92755133Y-58700002D01*
X92755133Y-58699997D01*
X92736697Y-58571774D01*
X92717621Y-58530004D01*
X92682882Y-58453937D01*
X92598049Y-58356033D01*
X92598048Y-58356032D01*
X92598047Y-58356031D01*
X92489073Y-58285998D01*
X92489070Y-58285996D01*
X92489069Y-58285996D01*
X92486900Y-58285359D01*
X92364774Y-58249500D01*
X92364772Y-58249500D01*
X92235228Y-58249500D01*
X92235225Y-58249500D01*
X92110933Y-58285995D01*
X92110926Y-58285998D01*
X92001952Y-58356031D01*
X91917117Y-58453938D01*
X91863302Y-58571774D01*
X91844867Y-58699997D01*
X89103920Y-58699997D01*
X89136697Y-58628226D01*
X89148016Y-58549500D01*
X89155133Y-58500002D01*
X89155133Y-58499997D01*
X89136697Y-58371774D01*
X89116836Y-58328286D01*
X89082882Y-58253937D01*
X88998049Y-58156033D01*
X88998048Y-58156032D01*
X88998047Y-58156031D01*
X88889073Y-58085998D01*
X88889070Y-58085996D01*
X88889069Y-58085996D01*
X88855039Y-58076004D01*
X88764774Y-58049500D01*
X88764772Y-58049500D01*
X88635228Y-58049500D01*
X88635225Y-58049500D01*
X88510933Y-58085995D01*
X88510926Y-58085998D01*
X88401952Y-58156031D01*
X88317117Y-58253938D01*
X88263302Y-58371774D01*
X88253624Y-58439089D01*
X88226628Y-58493997D01*
X88172514Y-58522550D01*
X88155632Y-58524000D01*
X88135225Y-58524000D01*
X88010933Y-58560495D01*
X88010926Y-58560498D01*
X87901952Y-58630531D01*
X87817117Y-58728438D01*
X87763302Y-58846274D01*
X87744867Y-58974497D01*
X75051466Y-58974497D01*
X75036697Y-58871774D01*
X75016809Y-58828226D01*
X74982882Y-58753937D01*
X74898049Y-58656033D01*
X74898048Y-58656032D01*
X74898047Y-58656031D01*
X74789073Y-58585998D01*
X74789070Y-58585996D01*
X74789069Y-58585996D01*
X74789066Y-58585995D01*
X74664774Y-58549500D01*
X74664772Y-58549500D01*
X74648034Y-58549500D01*
X74589843Y-58530593D01*
X74553879Y-58481093D01*
X74550042Y-58464589D01*
X74536697Y-58371774D01*
X74516836Y-58328286D01*
X74482882Y-58253937D01*
X74398049Y-58156033D01*
X74398048Y-58156032D01*
X74398047Y-58156031D01*
X74289073Y-58085998D01*
X74289070Y-58085996D01*
X74289069Y-58085996D01*
X74255039Y-58076004D01*
X74164774Y-58049500D01*
X74164772Y-58049500D01*
X74035228Y-58049500D01*
X74035225Y-58049500D01*
X73910933Y-58085995D01*
X73910926Y-58085998D01*
X73801952Y-58156031D01*
X73717117Y-58253938D01*
X73663302Y-58371774D01*
X73644867Y-58499997D01*
X44985433Y-58499997D01*
X44993057Y-58495250D01*
X45045861Y-58449495D01*
X45115042Y-58371923D01*
X45169389Y-58257285D01*
X45189074Y-58190246D01*
X45204063Y-58085995D01*
X45205500Y-58076004D01*
X45205500Y-58024997D01*
X76944867Y-58024997D01*
X76944867Y-58025002D01*
X76963302Y-58153225D01*
X77017117Y-58271061D01*
X77017118Y-58271063D01*
X77090742Y-58356031D01*
X77101952Y-58368968D01*
X77210926Y-58439001D01*
X77210931Y-58439004D01*
X77335228Y-58475500D01*
X77335230Y-58475500D01*
X77464770Y-58475500D01*
X77464772Y-58475500D01*
X77589069Y-58439004D01*
X77698049Y-58368967D01*
X77782882Y-58271063D01*
X77836697Y-58153226D01*
X77850566Y-58056766D01*
X77855133Y-58025002D01*
X77855133Y-58024997D01*
X77836697Y-57896774D01*
X77782882Y-57778938D01*
X77782882Y-57778937D01*
X77698049Y-57681033D01*
X77698048Y-57681032D01*
X77698047Y-57681031D01*
X77589073Y-57610998D01*
X77589070Y-57610996D01*
X77589069Y-57610996D01*
X77589066Y-57610995D01*
X77464774Y-57574500D01*
X77464772Y-57574500D01*
X77335228Y-57574500D01*
X77335225Y-57574500D01*
X77210933Y-57610995D01*
X77210926Y-57610998D01*
X77101952Y-57681031D01*
X77017117Y-57778938D01*
X76963302Y-57896774D01*
X76944867Y-58024997D01*
X45205500Y-58024997D01*
X45205500Y-57324003D01*
X45205500Y-57324000D01*
X45196232Y-57237801D01*
X45185026Y-57186290D01*
X45162310Y-57114640D01*
X45095250Y-57006943D01*
X45049495Y-56954139D01*
X44971923Y-56884958D01*
X44971921Y-56884957D01*
X44857287Y-56830611D01*
X44790249Y-56810927D01*
X44790250Y-56810927D01*
X44790246Y-56810926D01*
X44790241Y-56810925D01*
X44790240Y-56810925D01*
X44676004Y-56794500D01*
X44676000Y-56794500D01*
X42804500Y-56794500D01*
X42746309Y-56775593D01*
X42710345Y-56726093D01*
X42705500Y-56695500D01*
X42705500Y-55417154D01*
X65862024Y-55417154D01*
X65862024Y-55417159D01*
X65880459Y-55545382D01*
X65905403Y-55600000D01*
X65934275Y-55663220D01*
X66019108Y-55761124D01*
X66019109Y-55761125D01*
X66059675Y-55787195D01*
X66128088Y-55831161D01*
X66252385Y-55867657D01*
X66252387Y-55867657D01*
X66330019Y-55867657D01*
X66388210Y-55886564D01*
X66424174Y-55936064D01*
X66427583Y-55975762D01*
X66427710Y-55975762D01*
X66427710Y-55977239D01*
X66428011Y-55980745D01*
X66427710Y-55982838D01*
X66427710Y-55982845D01*
X66446145Y-56111068D01*
X66480364Y-56185995D01*
X66499961Y-56228906D01*
X66561565Y-56300002D01*
X66584795Y-56326811D01*
X66690917Y-56395011D01*
X66693774Y-56396847D01*
X66818071Y-56433343D01*
X66818073Y-56433343D01*
X66947613Y-56433343D01*
X66947615Y-56433343D01*
X67071912Y-56396847D01*
X67180892Y-56326810D01*
X67265725Y-56228906D01*
X67319540Y-56111069D01*
X67333496Y-56014004D01*
X67335510Y-55999997D01*
X67844867Y-55999997D01*
X67844867Y-56000002D01*
X67863302Y-56128225D01*
X67917117Y-56246061D01*
X67917118Y-56246063D01*
X68001951Y-56343967D01*
X68001952Y-56343968D01*
X68081377Y-56395011D01*
X68110931Y-56414004D01*
X68235228Y-56450500D01*
X68235230Y-56450500D01*
X68364770Y-56450500D01*
X68364772Y-56450500D01*
X68489069Y-56414004D01*
X68598049Y-56343967D01*
X68682882Y-56246063D01*
X68736697Y-56128226D01*
X68755133Y-56000000D01*
X68753338Y-55987517D01*
X68746466Y-55939718D01*
X69704448Y-55939718D01*
X69704448Y-55939723D01*
X69722883Y-56067946D01*
X69769125Y-56169199D01*
X69776699Y-56185784D01*
X69837569Y-56256033D01*
X69861533Y-56283689D01*
X69970507Y-56353722D01*
X69970512Y-56353725D01*
X69993508Y-56360477D01*
X70044016Y-56395011D01*
X70064579Y-56452638D01*
X70063611Y-56469556D01*
X70044857Y-56599996D01*
X70044857Y-56600002D01*
X70063292Y-56728225D01*
X70108962Y-56828226D01*
X70117108Y-56846063D01*
X70201941Y-56943967D01*
X70201942Y-56943968D01*
X70299937Y-57006945D01*
X70310921Y-57014004D01*
X70435218Y-57050500D01*
X70435220Y-57050500D01*
X70564760Y-57050500D01*
X70564762Y-57050500D01*
X70689059Y-57014004D01*
X70798039Y-56943967D01*
X70882872Y-56846063D01*
X70936687Y-56728226D01*
X70942832Y-56685484D01*
X70955123Y-56600002D01*
X70955123Y-56599997D01*
X70936687Y-56471774D01*
X70916799Y-56428226D01*
X70882872Y-56353937D01*
X70798039Y-56256033D01*
X70798038Y-56256032D01*
X70798037Y-56256031D01*
X70689063Y-56185998D01*
X70689060Y-56185996D01*
X70689059Y-56185996D01*
X70688330Y-56185782D01*
X70666060Y-56179243D01*
X70615553Y-56144707D01*
X70594991Y-56087080D01*
X70595959Y-56070163D01*
X70614714Y-55939722D01*
X70614714Y-55939718D01*
X70596278Y-55811495D01*
X70573646Y-55761939D01*
X70542463Y-55693658D01*
X70461307Y-55599997D01*
X77695367Y-55599997D01*
X77695367Y-55600002D01*
X77713802Y-55728225D01*
X77751831Y-55811495D01*
X77767618Y-55846063D01*
X77852451Y-55943967D01*
X77852452Y-55943968D01*
X77880458Y-55961966D01*
X77939643Y-56000002D01*
X77946414Y-56004353D01*
X77985145Y-56051719D01*
X77988639Y-56112804D01*
X77982945Y-56128762D01*
X77963302Y-56171774D01*
X77944867Y-56299997D01*
X77944867Y-56300002D01*
X77963302Y-56428225D01*
X77975045Y-56453937D01*
X78017118Y-56546063D01*
X78063854Y-56600000D01*
X78101952Y-56643968D01*
X78189140Y-56700000D01*
X78210931Y-56714004D01*
X78335228Y-56750500D01*
X78335230Y-56750500D01*
X78464770Y-56750500D01*
X78464772Y-56750500D01*
X78589069Y-56714004D01*
X78698049Y-56643967D01*
X78782882Y-56546063D01*
X78836697Y-56428226D01*
X78847378Y-56353937D01*
X78855133Y-56300002D01*
X78855133Y-56299997D01*
X93944867Y-56299997D01*
X93944867Y-56300002D01*
X93963302Y-56428225D01*
X93975045Y-56453937D01*
X94017118Y-56546063D01*
X94063854Y-56600000D01*
X94101952Y-56643968D01*
X94189140Y-56700000D01*
X94210931Y-56714004D01*
X94335228Y-56750500D01*
X94335230Y-56750500D01*
X94464770Y-56750500D01*
X94464772Y-56750500D01*
X94589069Y-56714004D01*
X94698049Y-56643967D01*
X94782882Y-56546063D01*
X94836697Y-56428226D01*
X94847378Y-56353937D01*
X94855133Y-56300002D01*
X94855133Y-56299997D01*
X100344867Y-56299997D01*
X100344867Y-56300002D01*
X100363302Y-56428225D01*
X100375045Y-56453937D01*
X100417118Y-56546063D01*
X100463854Y-56600000D01*
X100501952Y-56643968D01*
X100589140Y-56700000D01*
X100610931Y-56714004D01*
X100735228Y-56750500D01*
X100735230Y-56750500D01*
X100864770Y-56750500D01*
X100864772Y-56750500D01*
X100989069Y-56714004D01*
X101010864Y-56699997D01*
X104044867Y-56699997D01*
X104044867Y-56700002D01*
X104063302Y-56828225D01*
X104064392Y-56830611D01*
X104117118Y-56946063D01*
X104200138Y-57041875D01*
X104201952Y-57043968D01*
X104281755Y-57095254D01*
X104310931Y-57114004D01*
X104435228Y-57150500D01*
X104435230Y-57150500D01*
X104564770Y-57150500D01*
X104564772Y-57150500D01*
X104689069Y-57114004D01*
X104798049Y-57043967D01*
X104882882Y-56946063D01*
X104936697Y-56828226D01*
X104947872Y-56750500D01*
X104955133Y-56700002D01*
X104955133Y-56699997D01*
X104936697Y-56571774D01*
X104882882Y-56453938D01*
X104882882Y-56453937D01*
X104798049Y-56356033D01*
X104798048Y-56356032D01*
X104798047Y-56356031D01*
X104689073Y-56285998D01*
X104689070Y-56285996D01*
X104689069Y-56285996D01*
X104681212Y-56283689D01*
X104564774Y-56249500D01*
X104564772Y-56249500D01*
X104435228Y-56249500D01*
X104435225Y-56249500D01*
X104310933Y-56285995D01*
X104310926Y-56285998D01*
X104201952Y-56356031D01*
X104117117Y-56453938D01*
X104063302Y-56571774D01*
X104044867Y-56699997D01*
X101010864Y-56699997D01*
X101098049Y-56643967D01*
X101182882Y-56546063D01*
X101236697Y-56428226D01*
X101247378Y-56353937D01*
X101255133Y-56300002D01*
X101255133Y-56299997D01*
X101236697Y-56171774D01*
X101216809Y-56128226D01*
X101182882Y-56053937D01*
X101098049Y-55956033D01*
X101098048Y-55956032D01*
X101098047Y-55956031D01*
X100989073Y-55885998D01*
X100989070Y-55885996D01*
X100989069Y-55885996D01*
X100989066Y-55885995D01*
X100864774Y-55849500D01*
X100864772Y-55849500D01*
X100735228Y-55849500D01*
X100735225Y-55849500D01*
X100610933Y-55885995D01*
X100610926Y-55885998D01*
X100501952Y-55956031D01*
X100417117Y-56053938D01*
X100363302Y-56171774D01*
X100344867Y-56299997D01*
X94855133Y-56299997D01*
X94836697Y-56171774D01*
X94816809Y-56128226D01*
X94782882Y-56053937D01*
X94698049Y-55956033D01*
X94698048Y-55956032D01*
X94698047Y-55956031D01*
X94589073Y-55885998D01*
X94589070Y-55885996D01*
X94589069Y-55885996D01*
X94589066Y-55885995D01*
X94464774Y-55849500D01*
X94464772Y-55849500D01*
X94335228Y-55849500D01*
X94335225Y-55849500D01*
X94210933Y-55885995D01*
X94210926Y-55885998D01*
X94101952Y-55956031D01*
X94017117Y-56053938D01*
X93963302Y-56171774D01*
X93944867Y-56299997D01*
X78855133Y-56299997D01*
X78836697Y-56171774D01*
X78816809Y-56128226D01*
X78782882Y-56053937D01*
X78698049Y-55956033D01*
X78698048Y-55956032D01*
X78698047Y-55956031D01*
X78604085Y-55895646D01*
X78565354Y-55848280D01*
X78561860Y-55787195D01*
X78567552Y-55771240D01*
X78587197Y-55728226D01*
X78587197Y-55728224D01*
X78587198Y-55728223D01*
X78605633Y-55600002D01*
X78605633Y-55599997D01*
X78587197Y-55471774D01*
X78571800Y-55438059D01*
X78533382Y-55353937D01*
X78448549Y-55256033D01*
X78448548Y-55256032D01*
X78448547Y-55256031D01*
X78339573Y-55185998D01*
X78339570Y-55185996D01*
X78339569Y-55185996D01*
X78339566Y-55185995D01*
X78215274Y-55149500D01*
X78215272Y-55149500D01*
X78085728Y-55149500D01*
X78085725Y-55149500D01*
X77961433Y-55185995D01*
X77961426Y-55185998D01*
X77852452Y-55256031D01*
X77767617Y-55353938D01*
X77713802Y-55471774D01*
X77695367Y-55599997D01*
X70461307Y-55599997D01*
X70457630Y-55595754D01*
X70457629Y-55595753D01*
X70457628Y-55595752D01*
X70348654Y-55525719D01*
X70348651Y-55525717D01*
X70348650Y-55525717D01*
X70348647Y-55525716D01*
X70224355Y-55489221D01*
X70224353Y-55489221D01*
X70094809Y-55489221D01*
X70094806Y-55489221D01*
X69970514Y-55525716D01*
X69970507Y-55525719D01*
X69861533Y-55595752D01*
X69776698Y-55693659D01*
X69722883Y-55811495D01*
X69704448Y-55939718D01*
X68746466Y-55939718D01*
X68736697Y-55871774D01*
X68733540Y-55864862D01*
X68682882Y-55753937D01*
X68598049Y-55656033D01*
X68598048Y-55656032D01*
X68598047Y-55656031D01*
X68489073Y-55585998D01*
X68489070Y-55585996D01*
X68489069Y-55585996D01*
X68489066Y-55585995D01*
X68364774Y-55549500D01*
X68364772Y-55549500D01*
X68235228Y-55549500D01*
X68235225Y-55549500D01*
X68110933Y-55585995D01*
X68110926Y-55585998D01*
X68001952Y-55656031D01*
X67917117Y-55753938D01*
X67863302Y-55871774D01*
X67844867Y-55999997D01*
X67335510Y-55999997D01*
X67337976Y-55982845D01*
X67337976Y-55982840D01*
X67319540Y-55854617D01*
X67308828Y-55831161D01*
X67265725Y-55736780D01*
X67180892Y-55638876D01*
X67180891Y-55638875D01*
X67180890Y-55638874D01*
X67071916Y-55568841D01*
X67071913Y-55568839D01*
X67071912Y-55568839D01*
X67071909Y-55568838D01*
X66947617Y-55532343D01*
X66947615Y-55532343D01*
X66869981Y-55532343D01*
X66811790Y-55513436D01*
X66775826Y-55463936D01*
X66772417Y-55424238D01*
X66772290Y-55424238D01*
X66772290Y-55422760D01*
X66771989Y-55419255D01*
X66772290Y-55417161D01*
X66772290Y-55417154D01*
X66753854Y-55288931D01*
X66726153Y-55228276D01*
X66700039Y-55171094D01*
X66615206Y-55073190D01*
X66615205Y-55073189D01*
X66615204Y-55073188D01*
X66506230Y-55003155D01*
X66506227Y-55003153D01*
X66506226Y-55003153D01*
X66506223Y-55003152D01*
X66381931Y-54966657D01*
X66381929Y-54966657D01*
X66252385Y-54966657D01*
X66252382Y-54966657D01*
X66128090Y-55003152D01*
X66128083Y-55003155D01*
X66019109Y-55073188D01*
X65934274Y-55171095D01*
X65880459Y-55288931D01*
X65862024Y-55417154D01*
X42705500Y-55417154D01*
X42705500Y-54799999D01*
X57394318Y-54799999D01*
X57394318Y-54800000D01*
X57414955Y-54956758D01*
X57414957Y-54956766D01*
X57475462Y-55102838D01*
X57475462Y-55102839D01*
X57560762Y-55214004D01*
X57571718Y-55228282D01*
X57697159Y-55324536D01*
X57697160Y-55324536D01*
X57697161Y-55324537D01*
X57843233Y-55385042D01*
X57843238Y-55385044D01*
X57960809Y-55400522D01*
X57999999Y-55405682D01*
X58000000Y-55405682D01*
X58000001Y-55405682D01*
X58031352Y-55401554D01*
X58156762Y-55385044D01*
X58302841Y-55324536D01*
X58428282Y-55228282D01*
X58524536Y-55102841D01*
X58585044Y-54956762D01*
X58605682Y-54800000D01*
X58605682Y-54799997D01*
X71444867Y-54799997D01*
X71444867Y-54800002D01*
X71463302Y-54928225D01*
X71497521Y-55003152D01*
X71517118Y-55046063D01*
X71566313Y-55102838D01*
X71601952Y-55143968D01*
X71686915Y-55198570D01*
X71710931Y-55214004D01*
X71835228Y-55250500D01*
X71835230Y-55250500D01*
X71964770Y-55250500D01*
X71964772Y-55250500D01*
X72089069Y-55214004D01*
X72198049Y-55143967D01*
X72282882Y-55046063D01*
X72336697Y-54928226D01*
X72355133Y-54800000D01*
X72336697Y-54671774D01*
X72282882Y-54553937D01*
X72198049Y-54456033D01*
X72198048Y-54456032D01*
X72198047Y-54456031D01*
X72188658Y-54449997D01*
X77294867Y-54449997D01*
X77294867Y-54450002D01*
X77313302Y-54578225D01*
X77346309Y-54650499D01*
X77367118Y-54696063D01*
X77451951Y-54793967D01*
X77451952Y-54793968D01*
X77560926Y-54864001D01*
X77560931Y-54864004D01*
X77685228Y-54900500D01*
X77685230Y-54900500D01*
X77814770Y-54900500D01*
X77814772Y-54900500D01*
X77939069Y-54864004D01*
X78048049Y-54793967D01*
X78132882Y-54696063D01*
X78186697Y-54578226D01*
X78198352Y-54497161D01*
X78205133Y-54450002D01*
X78205133Y-54449997D01*
X78186697Y-54321774D01*
X78176752Y-54299997D01*
X104044867Y-54299997D01*
X104044867Y-54300002D01*
X104063302Y-54428225D01*
X104076001Y-54456031D01*
X104117118Y-54546063D01*
X104201315Y-54643233D01*
X104201952Y-54643968D01*
X104283011Y-54696061D01*
X104310931Y-54714004D01*
X104435228Y-54750500D01*
X104435230Y-54750500D01*
X104564770Y-54750500D01*
X104564772Y-54750500D01*
X104689069Y-54714004D01*
X104798049Y-54643967D01*
X104882882Y-54546063D01*
X104936697Y-54428226D01*
X104951075Y-54328225D01*
X104955133Y-54300002D01*
X104955133Y-54299997D01*
X104936697Y-54171774D01*
X104910314Y-54114005D01*
X104882882Y-54053937D01*
X104798049Y-53956033D01*
X104798048Y-53956032D01*
X104798047Y-53956031D01*
X104689073Y-53885998D01*
X104689070Y-53885996D01*
X104689069Y-53885996D01*
X104685820Y-53885042D01*
X104564774Y-53849500D01*
X104564772Y-53849500D01*
X104435228Y-53849500D01*
X104435225Y-53849500D01*
X104310933Y-53885995D01*
X104310926Y-53885998D01*
X104201952Y-53956031D01*
X104117117Y-54053938D01*
X104063302Y-54171774D01*
X104044867Y-54299997D01*
X78176752Y-54299997D01*
X78132882Y-54203937D01*
X78048049Y-54106033D01*
X78048048Y-54106032D01*
X78048047Y-54106031D01*
X77939073Y-54035998D01*
X77939070Y-54035996D01*
X77939069Y-54035996D01*
X77939066Y-54035995D01*
X77814774Y-53999500D01*
X77814772Y-53999500D01*
X77685228Y-53999500D01*
X77685225Y-53999500D01*
X77560933Y-54035995D01*
X77560926Y-54035998D01*
X77451952Y-54106031D01*
X77367117Y-54203938D01*
X77313302Y-54321774D01*
X77294867Y-54449997D01*
X72188658Y-54449997D01*
X72089073Y-54385998D01*
X72089070Y-54385996D01*
X72089069Y-54385996D01*
X72089066Y-54385995D01*
X71964774Y-54349500D01*
X71964772Y-54349500D01*
X71835228Y-54349500D01*
X71835225Y-54349500D01*
X71710933Y-54385995D01*
X71710926Y-54385998D01*
X71601952Y-54456031D01*
X71517117Y-54553938D01*
X71463302Y-54671774D01*
X71444867Y-54799997D01*
X58605682Y-54799997D01*
X58585044Y-54643238D01*
X58524537Y-54497161D01*
X58524537Y-54497160D01*
X58428286Y-54371723D01*
X58428285Y-54371722D01*
X58428282Y-54371718D01*
X58428277Y-54371714D01*
X58428276Y-54371713D01*
X58357104Y-54317101D01*
X58302841Y-54275464D01*
X58302840Y-54275463D01*
X58302838Y-54275462D01*
X58156766Y-54214957D01*
X58156758Y-54214955D01*
X58000001Y-54194318D01*
X57999999Y-54194318D01*
X57843241Y-54214955D01*
X57843233Y-54214957D01*
X57697161Y-54275462D01*
X57697160Y-54275462D01*
X57571723Y-54371713D01*
X57571713Y-54371723D01*
X57475462Y-54497160D01*
X57475462Y-54497161D01*
X57414957Y-54643233D01*
X57414955Y-54643241D01*
X57394318Y-54799999D01*
X42705500Y-54799999D01*
X42705500Y-53700001D01*
X52444867Y-53700001D01*
X52444867Y-53700006D01*
X52463302Y-53828229D01*
X52502474Y-53914001D01*
X52517118Y-53946067D01*
X52601951Y-54043971D01*
X52601952Y-54043972D01*
X52710926Y-54114005D01*
X52710931Y-54114008D01*
X52835228Y-54150504D01*
X52835230Y-54150504D01*
X52964770Y-54150504D01*
X52964772Y-54150504D01*
X53089069Y-54114008D01*
X53198049Y-54043971D01*
X53282882Y-53946067D01*
X53336697Y-53828230D01*
X53355133Y-53700004D01*
X53344282Y-53624536D01*
X53336697Y-53571778D01*
X53282882Y-53453941D01*
X53198049Y-53356037D01*
X53198048Y-53356036D01*
X53198047Y-53356035D01*
X53089073Y-53286002D01*
X53089070Y-53286000D01*
X53089069Y-53286000D01*
X53089066Y-53285999D01*
X52964774Y-53249504D01*
X52964772Y-53249504D01*
X52835228Y-53249504D01*
X52835225Y-53249504D01*
X52710933Y-53285999D01*
X52710926Y-53286002D01*
X52601952Y-53356035D01*
X52517117Y-53453942D01*
X52463302Y-53571778D01*
X52444867Y-53700001D01*
X42705500Y-53700001D01*
X42705500Y-52999997D01*
X56549867Y-52999997D01*
X56549867Y-53000002D01*
X56568302Y-53128225D01*
X56613972Y-53228226D01*
X56622118Y-53246063D01*
X56656725Y-53286002D01*
X56706952Y-53343968D01*
X56798556Y-53402838D01*
X56815931Y-53414004D01*
X56940228Y-53450500D01*
X56940230Y-53450500D01*
X57069770Y-53450500D01*
X57069772Y-53450500D01*
X57194069Y-53414004D01*
X57303049Y-53343967D01*
X57387882Y-53246063D01*
X57441697Y-53128226D01*
X57442161Y-53124997D01*
X58644867Y-53124997D01*
X58644867Y-53125002D01*
X58663302Y-53253225D01*
X58704744Y-53343968D01*
X58717118Y-53371063D01*
X58791379Y-53456766D01*
X58801952Y-53468968D01*
X58894247Y-53528282D01*
X58910931Y-53539004D01*
X59035228Y-53575500D01*
X59035230Y-53575500D01*
X59164770Y-53575500D01*
X59164772Y-53575500D01*
X59289069Y-53539004D01*
X59349765Y-53499997D01*
X76344867Y-53499997D01*
X76344867Y-53500002D01*
X76363302Y-53628225D01*
X76408999Y-53728286D01*
X76417118Y-53746063D01*
X76485114Y-53824536D01*
X76501952Y-53843968D01*
X76610926Y-53914001D01*
X76610931Y-53914004D01*
X76735228Y-53950500D01*
X76735230Y-53950500D01*
X76864770Y-53950500D01*
X76864772Y-53950500D01*
X76989069Y-53914004D01*
X77098049Y-53843967D01*
X77182882Y-53746063D01*
X77236697Y-53628226D01*
X77247872Y-53550500D01*
X77255133Y-53500002D01*
X77255133Y-53499997D01*
X77236697Y-53371774D01*
X77223998Y-53343967D01*
X77182882Y-53253937D01*
X77098049Y-53156033D01*
X77098048Y-53156032D01*
X77098047Y-53156031D01*
X77010856Y-53099997D01*
X84644867Y-53099997D01*
X84644867Y-53100002D01*
X84663302Y-53228225D01*
X84696081Y-53299999D01*
X84717118Y-53346063D01*
X84801951Y-53443967D01*
X84801952Y-53443968D01*
X84889140Y-53500000D01*
X84910931Y-53514004D01*
X85035228Y-53550500D01*
X85035230Y-53550500D01*
X85164770Y-53550500D01*
X85164772Y-53550500D01*
X85289069Y-53514004D01*
X85398049Y-53443967D01*
X85482882Y-53346063D01*
X85536697Y-53228226D01*
X85555133Y-53100000D01*
X85555133Y-53099999D01*
X90021353Y-53099999D01*
X90021353Y-53100000D01*
X90041990Y-53256758D01*
X90041992Y-53256766D01*
X90102497Y-53402838D01*
X90102497Y-53402839D01*
X90187797Y-53514004D01*
X90198753Y-53528282D01*
X90324194Y-53624536D01*
X90470273Y-53685044D01*
X90583883Y-53700001D01*
X90627034Y-53705682D01*
X90627035Y-53705682D01*
X90627036Y-53705682D01*
X90658387Y-53701554D01*
X90783797Y-53685044D01*
X90929876Y-53624536D01*
X91055317Y-53528282D01*
X91151571Y-53402841D01*
X91194170Y-53299999D01*
X114494318Y-53299999D01*
X114494318Y-53300000D01*
X114514955Y-53456758D01*
X114514957Y-53456766D01*
X114575462Y-53602838D01*
X114575462Y-53602839D01*
X114650021Y-53700006D01*
X114671718Y-53728282D01*
X114797159Y-53824536D01*
X114797160Y-53824536D01*
X114797161Y-53824537D01*
X114873199Y-53856033D01*
X114943238Y-53885044D01*
X115060809Y-53900522D01*
X115099999Y-53905682D01*
X115100000Y-53905682D01*
X115100001Y-53905682D01*
X115131352Y-53901554D01*
X115256762Y-53885044D01*
X115402841Y-53824536D01*
X115528282Y-53728282D01*
X115624536Y-53602841D01*
X115685044Y-53456762D01*
X115705682Y-53300000D01*
X115685044Y-53143238D01*
X115661333Y-53085995D01*
X115624537Y-52997161D01*
X115624537Y-52997160D01*
X115528286Y-52871723D01*
X115528285Y-52871722D01*
X115528282Y-52871718D01*
X115528277Y-52871714D01*
X115528276Y-52871713D01*
X115431116Y-52797160D01*
X115402841Y-52775464D01*
X115402840Y-52775463D01*
X115402838Y-52775462D01*
X115256766Y-52714957D01*
X115256758Y-52714955D01*
X115100001Y-52694318D01*
X115099999Y-52694318D01*
X114943241Y-52714955D01*
X114943233Y-52714957D01*
X114797161Y-52775462D01*
X114797160Y-52775462D01*
X114671723Y-52871713D01*
X114671713Y-52871723D01*
X114575462Y-52997160D01*
X114575462Y-52997161D01*
X114514957Y-53143233D01*
X114514955Y-53143241D01*
X114494318Y-53299999D01*
X91194170Y-53299999D01*
X91212079Y-53256762D01*
X91232717Y-53100000D01*
X91212079Y-52943238D01*
X91185445Y-52878937D01*
X91151572Y-52797161D01*
X91151572Y-52797160D01*
X91055321Y-52671723D01*
X91055320Y-52671722D01*
X91055317Y-52671718D01*
X91055312Y-52671714D01*
X91055311Y-52671713D01*
X90966055Y-52603225D01*
X90929876Y-52575464D01*
X90929875Y-52575463D01*
X90929873Y-52575462D01*
X90783801Y-52514957D01*
X90783793Y-52514955D01*
X90627036Y-52494318D01*
X90627034Y-52494318D01*
X90470276Y-52514955D01*
X90470268Y-52514957D01*
X90324196Y-52575462D01*
X90324195Y-52575462D01*
X90198758Y-52671713D01*
X90198748Y-52671723D01*
X90102497Y-52797160D01*
X90102497Y-52797161D01*
X90041992Y-52943233D01*
X90041990Y-52943241D01*
X90021353Y-53099999D01*
X85555133Y-53099999D01*
X85553119Y-53085995D01*
X85536698Y-52971778D01*
X85536697Y-52971774D01*
X85523666Y-52943241D01*
X85519349Y-52933789D01*
X85512375Y-52873005D01*
X85542461Y-52819728D01*
X85555874Y-52809384D01*
X85565188Y-52803399D01*
X85650021Y-52705495D01*
X85658753Y-52686373D01*
X85700124Y-52641295D01*
X85760090Y-52629143D01*
X85802327Y-52644212D01*
X85910925Y-52714004D01*
X86035222Y-52750500D01*
X86035224Y-52750500D01*
X86164764Y-52750500D01*
X86164766Y-52750500D01*
X86289063Y-52714004D01*
X86398043Y-52643967D01*
X86482876Y-52546063D01*
X86515331Y-52474997D01*
X88937552Y-52474997D01*
X88937552Y-52475002D01*
X88955987Y-52603225D01*
X89007014Y-52714956D01*
X89009803Y-52721063D01*
X89094636Y-52818967D01*
X89094637Y-52818968D01*
X89178721Y-52873005D01*
X89203616Y-52889004D01*
X89327913Y-52925500D01*
X89327915Y-52925500D01*
X89457455Y-52925500D01*
X89457457Y-52925500D01*
X89581754Y-52889004D01*
X89690734Y-52818967D01*
X89775567Y-52721063D01*
X89829382Y-52603226D01*
X89842073Y-52514956D01*
X89847818Y-52475002D01*
X89847818Y-52467919D01*
X89850452Y-52467919D01*
X89858895Y-52419151D01*
X89902776Y-52376512D01*
X89946450Y-52366358D01*
X90067305Y-52366358D01*
X90067307Y-52366358D01*
X90191604Y-52329862D01*
X90238075Y-52299997D01*
X91844867Y-52299997D01*
X91844867Y-52300002D01*
X91863302Y-52428225D01*
X91902477Y-52514004D01*
X91917118Y-52546063D01*
X91986073Y-52625642D01*
X92001952Y-52643968D01*
X92110926Y-52714001D01*
X92110931Y-52714004D01*
X92235228Y-52750500D01*
X92235230Y-52750500D01*
X92364770Y-52750500D01*
X92364772Y-52750500D01*
X92489069Y-52714004D01*
X92598049Y-52643967D01*
X92682882Y-52546063D01*
X92736697Y-52428226D01*
X92748510Y-52346063D01*
X92755133Y-52300002D01*
X92755133Y-52299997D01*
X92736697Y-52171774D01*
X92710980Y-52115463D01*
X92682882Y-52053937D01*
X92598049Y-51956033D01*
X92598048Y-51956032D01*
X92598047Y-51956031D01*
X92489073Y-51885998D01*
X92489070Y-51885996D01*
X92489069Y-51885996D01*
X92457532Y-51876736D01*
X92364774Y-51849500D01*
X92364772Y-51849500D01*
X92235228Y-51849500D01*
X92235225Y-51849500D01*
X92110933Y-51885995D01*
X92110926Y-51885998D01*
X92001952Y-51956031D01*
X91917117Y-52053938D01*
X91863302Y-52171774D01*
X91844867Y-52299997D01*
X90238075Y-52299997D01*
X90300584Y-52259825D01*
X90385417Y-52161921D01*
X90439232Y-52044084D01*
X90453223Y-51946772D01*
X90457668Y-51915860D01*
X90457668Y-51915855D01*
X90439232Y-51787632D01*
X90418111Y-51741384D01*
X90385417Y-51669795D01*
X90300584Y-51571891D01*
X90300583Y-51571890D01*
X90300582Y-51571889D01*
X90191608Y-51501856D01*
X90191605Y-51501854D01*
X90191604Y-51501854D01*
X90191601Y-51501853D01*
X90067309Y-51465358D01*
X90067307Y-51465358D01*
X89937763Y-51465358D01*
X89937760Y-51465358D01*
X89813468Y-51501853D01*
X89813461Y-51501856D01*
X89704487Y-51571889D01*
X89619652Y-51669796D01*
X89565837Y-51787632D01*
X89547402Y-51915855D01*
X89547402Y-51922939D01*
X89544768Y-51922939D01*
X89536325Y-51971707D01*
X89492444Y-52014346D01*
X89448770Y-52024500D01*
X89327910Y-52024500D01*
X89203618Y-52060995D01*
X89203611Y-52060998D01*
X89094637Y-52131031D01*
X89009802Y-52228938D01*
X88955987Y-52346774D01*
X88937552Y-52474997D01*
X86515331Y-52474997D01*
X86536691Y-52428226D01*
X86548504Y-52346063D01*
X86555127Y-52300002D01*
X86555127Y-52299997D01*
X86536691Y-52171774D01*
X86510974Y-52115463D01*
X86482876Y-52053937D01*
X86398043Y-51956033D01*
X86398042Y-51956032D01*
X86398041Y-51956031D01*
X86289067Y-51885998D01*
X86289064Y-51885996D01*
X86289063Y-51885996D01*
X86257526Y-51876736D01*
X86164768Y-51849500D01*
X86164766Y-51849500D01*
X86035222Y-51849500D01*
X86035219Y-51849500D01*
X85910927Y-51885995D01*
X85910920Y-51885998D01*
X85801946Y-51956031D01*
X85717111Y-52053938D01*
X85708377Y-52073062D01*
X85667003Y-52118138D01*
X85607036Y-52130286D01*
X85564802Y-52115216D01*
X85456212Y-52045430D01*
X85456209Y-52045428D01*
X85456208Y-52045428D01*
X85451631Y-52044084D01*
X85331913Y-52008932D01*
X85331911Y-52008932D01*
X85202367Y-52008932D01*
X85202364Y-52008932D01*
X85078072Y-52045427D01*
X85078065Y-52045430D01*
X84969091Y-52115463D01*
X84884256Y-52213370D01*
X84830441Y-52331206D01*
X84812006Y-52459429D01*
X84812006Y-52459434D01*
X84830440Y-52587653D01*
X84830442Y-52587658D01*
X84847788Y-52625642D01*
X84854762Y-52686429D01*
X84824674Y-52739705D01*
X84811262Y-52750048D01*
X84801952Y-52756031D01*
X84717117Y-52853938D01*
X84663302Y-52971774D01*
X84644867Y-53099997D01*
X77010856Y-53099997D01*
X76989073Y-53085998D01*
X76989070Y-53085996D01*
X76989069Y-53085996D01*
X76989066Y-53085995D01*
X76864774Y-53049500D01*
X76864772Y-53049500D01*
X76735228Y-53049500D01*
X76735225Y-53049500D01*
X76610933Y-53085995D01*
X76610926Y-53085998D01*
X76501952Y-53156031D01*
X76417117Y-53253938D01*
X76363302Y-53371774D01*
X76344867Y-53499997D01*
X59349765Y-53499997D01*
X59398049Y-53468967D01*
X59482882Y-53371063D01*
X59536697Y-53253226D01*
X59550671Y-53156033D01*
X59555133Y-53125002D01*
X59555133Y-53124997D01*
X59536697Y-52996774D01*
X59482882Y-52878937D01*
X59398049Y-52781033D01*
X59398048Y-52781032D01*
X59398047Y-52781031D01*
X59289073Y-52710998D01*
X59289070Y-52710996D01*
X59289069Y-52710996D01*
X59289066Y-52710995D01*
X59164774Y-52674500D01*
X59164772Y-52674500D01*
X59035228Y-52674500D01*
X59035225Y-52674500D01*
X58910933Y-52710995D01*
X58910926Y-52710998D01*
X58801952Y-52781031D01*
X58717117Y-52878938D01*
X58663302Y-52996774D01*
X58644867Y-53124997D01*
X57442161Y-53124997D01*
X57460133Y-53000000D01*
X57459669Y-52996774D01*
X57441697Y-52871774D01*
X57417581Y-52818968D01*
X57387882Y-52753937D01*
X57303049Y-52656033D01*
X57303048Y-52656032D01*
X57303047Y-52656031D01*
X57194073Y-52585998D01*
X57194070Y-52585996D01*
X57194069Y-52585996D01*
X57194066Y-52585995D01*
X57069774Y-52549500D01*
X57069772Y-52549500D01*
X56940228Y-52549500D01*
X56940225Y-52549500D01*
X56815933Y-52585995D01*
X56815926Y-52585998D01*
X56706952Y-52656031D01*
X56622117Y-52753938D01*
X56568302Y-52871774D01*
X56549867Y-52999997D01*
X42705500Y-52999997D01*
X42705500Y-52299997D01*
X55444867Y-52299997D01*
X55444867Y-52300002D01*
X55463302Y-52428225D01*
X55502477Y-52514004D01*
X55517118Y-52546063D01*
X55586073Y-52625642D01*
X55601952Y-52643968D01*
X55710926Y-52714001D01*
X55710931Y-52714004D01*
X55835228Y-52750500D01*
X55835230Y-52750500D01*
X55964770Y-52750500D01*
X55964772Y-52750500D01*
X56089069Y-52714004D01*
X56198049Y-52643967D01*
X56282882Y-52546063D01*
X56336697Y-52428226D01*
X56348510Y-52346063D01*
X56355133Y-52300002D01*
X56355133Y-52299997D01*
X56351467Y-52274497D01*
X61030390Y-52274497D01*
X61030390Y-52274502D01*
X61048825Y-52402725D01*
X61100080Y-52514955D01*
X61102641Y-52520563D01*
X61174267Y-52603225D01*
X61187475Y-52618468D01*
X61293225Y-52686429D01*
X61296454Y-52688504D01*
X61420751Y-52725000D01*
X61420753Y-52725000D01*
X61550293Y-52725000D01*
X61550295Y-52725000D01*
X61674592Y-52688504D01*
X61783572Y-52618467D01*
X61868405Y-52520563D01*
X61922220Y-52402726D01*
X61935464Y-52310611D01*
X61940656Y-52274502D01*
X61940656Y-52274497D01*
X61922220Y-52146274D01*
X61913142Y-52126396D01*
X61901086Y-52099997D01*
X73144867Y-52099997D01*
X73144867Y-52100002D01*
X73163302Y-52228225D01*
X73196080Y-52299997D01*
X73217118Y-52346063D01*
X73278709Y-52417144D01*
X73301952Y-52443968D01*
X73410926Y-52514001D01*
X73410931Y-52514004D01*
X73535228Y-52550500D01*
X73535230Y-52550500D01*
X73664770Y-52550500D01*
X73664772Y-52550500D01*
X73789069Y-52514004D01*
X73871230Y-52461202D01*
X73930402Y-52445648D01*
X73978272Y-52461202D01*
X74060434Y-52514004D01*
X74184731Y-52550500D01*
X74184733Y-52550500D01*
X74314273Y-52550500D01*
X74314275Y-52550500D01*
X74438572Y-52514004D01*
X74521963Y-52460411D01*
X74581138Y-52444857D01*
X74629009Y-52460412D01*
X74690612Y-52500002D01*
X74709934Y-52512419D01*
X74834231Y-52548915D01*
X74834233Y-52548915D01*
X74963773Y-52548915D01*
X74963775Y-52548915D01*
X75088072Y-52512419D01*
X75197052Y-52442382D01*
X75229056Y-52405446D01*
X75281449Y-52373850D01*
X75339091Y-52378800D01*
X75339135Y-52378653D01*
X75339860Y-52378866D01*
X75342410Y-52379085D01*
X75345008Y-52380227D01*
X75345926Y-52380646D01*
X75345929Y-52380648D01*
X75470226Y-52417144D01*
X75470228Y-52417144D01*
X75599768Y-52417144D01*
X75599770Y-52417144D01*
X75724067Y-52380648D01*
X75833047Y-52310611D01*
X75917880Y-52212707D01*
X75971695Y-52094870D01*
X75987741Y-51983267D01*
X75990131Y-51966646D01*
X75990131Y-51966641D01*
X75971695Y-51838418D01*
X75954560Y-51800898D01*
X79913198Y-51800898D01*
X79913198Y-51800903D01*
X79931633Y-51929126D01*
X79984748Y-52045430D01*
X79985449Y-52046964D01*
X80058294Y-52131033D01*
X80070283Y-52144869D01*
X80176872Y-52213369D01*
X80179262Y-52214905D01*
X80303559Y-52251401D01*
X80303561Y-52251401D01*
X80433101Y-52251401D01*
X80433103Y-52251401D01*
X80557400Y-52214905D01*
X80653800Y-52152952D01*
X80712973Y-52137398D01*
X80760845Y-52152953D01*
X80828497Y-52196430D01*
X80828502Y-52196433D01*
X80952799Y-52232929D01*
X80952801Y-52232929D01*
X81082341Y-52232929D01*
X81082343Y-52232929D01*
X81206640Y-52196433D01*
X81315620Y-52126396D01*
X81400453Y-52028492D01*
X81454268Y-51910655D01*
X81472704Y-51782429D01*
X81472186Y-51778829D01*
X81454268Y-51654203D01*
X81407885Y-51552640D01*
X81400453Y-51536366D01*
X81315620Y-51438462D01*
X81315619Y-51438461D01*
X81315618Y-51438460D01*
X81206644Y-51368427D01*
X81206641Y-51368425D01*
X81206640Y-51368425D01*
X81202114Y-51367096D01*
X81082345Y-51331929D01*
X81082343Y-51331929D01*
X80952799Y-51331929D01*
X80952796Y-51331929D01*
X80828504Y-51368424D01*
X80828502Y-51368425D01*
X80732102Y-51430377D01*
X80672926Y-51445930D01*
X80625056Y-51430376D01*
X80557404Y-51386899D01*
X80557401Y-51386897D01*
X80557400Y-51386897D01*
X80557397Y-51386896D01*
X80433105Y-51350401D01*
X80433103Y-51350401D01*
X80303559Y-51350401D01*
X80303556Y-51350401D01*
X80179264Y-51386896D01*
X80179257Y-51386899D01*
X80070283Y-51456932D01*
X79985448Y-51554839D01*
X79931633Y-51672675D01*
X79913198Y-51800898D01*
X75954560Y-51800898D01*
X75917880Y-51720581D01*
X75833047Y-51622677D01*
X75833046Y-51622676D01*
X75833045Y-51622675D01*
X75724071Y-51552642D01*
X75724068Y-51552640D01*
X75724067Y-51552640D01*
X75724064Y-51552639D01*
X75599772Y-51516144D01*
X75599770Y-51516144D01*
X75470226Y-51516144D01*
X75470223Y-51516144D01*
X75345931Y-51552639D01*
X75345924Y-51552642D01*
X75236949Y-51622676D01*
X75236947Y-51622678D01*
X75204944Y-51659612D01*
X75152548Y-51691208D01*
X75094909Y-51686257D01*
X75094866Y-51686406D01*
X75094132Y-51686190D01*
X75091587Y-51685972D01*
X75088997Y-51684834D01*
X75088073Y-51684412D01*
X75088072Y-51684411D01*
X75088069Y-51684410D01*
X74963777Y-51647915D01*
X74963775Y-51647915D01*
X74834231Y-51647915D01*
X74834228Y-51647915D01*
X74709936Y-51684410D01*
X74709931Y-51684412D01*
X74626541Y-51738003D01*
X74567366Y-51753556D01*
X74519496Y-51738002D01*
X74438576Y-51685998D01*
X74438573Y-51685996D01*
X74438572Y-51685996D01*
X74438569Y-51685995D01*
X74314277Y-51649500D01*
X74314275Y-51649500D01*
X74184731Y-51649500D01*
X74184728Y-51649500D01*
X74060436Y-51685995D01*
X74060429Y-51685998D01*
X73978274Y-51738796D01*
X73919099Y-51754351D01*
X73871228Y-51738796D01*
X73789073Y-51685998D01*
X73789070Y-51685996D01*
X73789069Y-51685996D01*
X73789066Y-51685995D01*
X73664774Y-51649500D01*
X73664772Y-51649500D01*
X73535228Y-51649500D01*
X73535225Y-51649500D01*
X73410933Y-51685995D01*
X73410926Y-51685998D01*
X73301952Y-51756031D01*
X73217117Y-51853938D01*
X73163302Y-51971774D01*
X73144867Y-52099997D01*
X61901086Y-52099997D01*
X61868405Y-52028437D01*
X61783572Y-51930533D01*
X61783571Y-51930532D01*
X61783570Y-51930531D01*
X61674596Y-51860498D01*
X61674593Y-51860496D01*
X61674592Y-51860496D01*
X61670243Y-51859219D01*
X61550297Y-51824000D01*
X61550295Y-51824000D01*
X61420751Y-51824000D01*
X61420748Y-51824000D01*
X61296456Y-51860495D01*
X61296449Y-51860498D01*
X61187475Y-51930531D01*
X61102640Y-52028438D01*
X61048825Y-52146274D01*
X61030390Y-52274497D01*
X56351467Y-52274497D01*
X56336697Y-52171774D01*
X56310980Y-52115463D01*
X56282882Y-52053937D01*
X56198049Y-51956033D01*
X56198048Y-51956032D01*
X56198047Y-51956031D01*
X56089073Y-51885998D01*
X56089070Y-51885996D01*
X56089069Y-51885996D01*
X56057532Y-51876736D01*
X55964774Y-51849500D01*
X55964772Y-51849500D01*
X55835228Y-51849500D01*
X55835225Y-51849500D01*
X55710933Y-51885995D01*
X55710926Y-51885998D01*
X55601952Y-51956031D01*
X55517117Y-52053938D01*
X55463302Y-52171774D01*
X55444867Y-52299997D01*
X42705500Y-52299997D01*
X42705500Y-50199997D01*
X42944867Y-50199997D01*
X42944867Y-50200002D01*
X42963302Y-50328225D01*
X42973475Y-50350500D01*
X43017118Y-50446063D01*
X43048185Y-50481917D01*
X43072002Y-50538276D01*
X43058143Y-50597871D01*
X43048186Y-50611576D01*
X43033144Y-50628936D01*
X42979328Y-50746774D01*
X42960893Y-50874997D01*
X42960893Y-50875002D01*
X42979328Y-51003225D01*
X43026492Y-51106497D01*
X43033144Y-51121063D01*
X43100809Y-51199154D01*
X43117978Y-51218968D01*
X43226952Y-51289001D01*
X43226957Y-51289004D01*
X43265267Y-51300252D01*
X43268732Y-51301270D01*
X43319239Y-51335806D01*
X43339801Y-51393433D01*
X43338833Y-51410349D01*
X43321233Y-51532764D01*
X43321233Y-51532770D01*
X43339668Y-51660993D01*
X43383071Y-51756031D01*
X43393484Y-51778831D01*
X43464245Y-51860495D01*
X43478318Y-51876736D01*
X43587292Y-51946769D01*
X43587297Y-51946772D01*
X43711594Y-51983268D01*
X43711596Y-51983268D01*
X43841136Y-51983268D01*
X43841138Y-51983268D01*
X43965435Y-51946772D01*
X44053588Y-51890119D01*
X44112761Y-51874565D01*
X44169778Y-51896764D01*
X44181930Y-51908574D01*
X44200955Y-51930531D01*
X44223999Y-51957125D01*
X44332979Y-52027162D01*
X44457276Y-52063658D01*
X44457278Y-52063658D01*
X44586818Y-52063658D01*
X44586820Y-52063658D01*
X44711117Y-52027162D01*
X44820097Y-51957125D01*
X44904930Y-51859221D01*
X44958745Y-51741384D01*
X44970303Y-51660994D01*
X44977181Y-51613160D01*
X44977181Y-51613155D01*
X44958745Y-51484932D01*
X44949806Y-51465358D01*
X44904930Y-51367095D01*
X44820097Y-51269191D01*
X44820096Y-51269190D01*
X44820095Y-51269189D01*
X44711121Y-51199156D01*
X44711118Y-51199154D01*
X44711117Y-51199154D01*
X44687328Y-51192169D01*
X44586822Y-51162658D01*
X44586820Y-51162658D01*
X44457276Y-51162658D01*
X44457273Y-51162658D01*
X44332981Y-51199153D01*
X44332979Y-51199154D01*
X44244826Y-51255806D01*
X44185650Y-51271359D01*
X44128634Y-51249160D01*
X44116483Y-51237351D01*
X44100553Y-51218967D01*
X44074415Y-51188801D01*
X44074414Y-51188800D01*
X43965439Y-51118766D01*
X43965435Y-51118764D01*
X43923657Y-51106497D01*
X43873151Y-51071960D01*
X43865894Y-51051621D01*
X84821491Y-51051621D01*
X84821491Y-51051626D01*
X84839926Y-51179849D01*
X84893741Y-51297685D01*
X84893742Y-51297687D01*
X84976705Y-51393433D01*
X84978576Y-51395592D01*
X85084913Y-51463930D01*
X85087555Y-51465628D01*
X85211852Y-51502124D01*
X85211854Y-51502124D01*
X85341394Y-51502124D01*
X85341396Y-51502124D01*
X85465693Y-51465628D01*
X85574673Y-51395591D01*
X85659506Y-51297687D01*
X85713321Y-51179850D01*
X85731757Y-51051624D01*
X85731352Y-51048809D01*
X85731757Y-51046471D01*
X85731757Y-51044544D01*
X85732090Y-51044544D01*
X85741783Y-50988522D01*
X85785660Y-50945878D01*
X85801449Y-50939730D01*
X85889069Y-50914004D01*
X85998049Y-50843967D01*
X86025180Y-50812656D01*
X86077576Y-50781059D01*
X86138537Y-50786294D01*
X86174820Y-50812656D01*
X86201950Y-50843966D01*
X86201951Y-50843967D01*
X86250242Y-50875002D01*
X86310931Y-50914004D01*
X86435228Y-50950500D01*
X86435230Y-50950500D01*
X86564770Y-50950500D01*
X86564772Y-50950500D01*
X86689069Y-50914004D01*
X86798049Y-50843967D01*
X86882882Y-50746063D01*
X86936697Y-50628226D01*
X86942842Y-50585484D01*
X86955133Y-50500002D01*
X86955133Y-50499997D01*
X86936697Y-50371774D01*
X86916809Y-50328226D01*
X86882882Y-50253937D01*
X86798049Y-50156033D01*
X86798048Y-50156032D01*
X86798047Y-50156031D01*
X86689073Y-50085998D01*
X86689070Y-50085996D01*
X86689069Y-50085996D01*
X86689066Y-50085995D01*
X86564774Y-50049500D01*
X86564772Y-50049500D01*
X86435228Y-50049500D01*
X86435225Y-50049500D01*
X86310933Y-50085995D01*
X86310926Y-50085998D01*
X86201951Y-50156032D01*
X86201949Y-50156034D01*
X86174819Y-50187344D01*
X86122423Y-50218940D01*
X86061462Y-50213704D01*
X86025181Y-50187344D01*
X85998050Y-50156034D01*
X85998048Y-50156032D01*
X85889073Y-50085998D01*
X85889070Y-50085996D01*
X85889069Y-50085996D01*
X85889066Y-50085995D01*
X85764774Y-50049500D01*
X85764772Y-50049500D01*
X85635228Y-50049500D01*
X85635225Y-50049500D01*
X85510933Y-50085995D01*
X85510926Y-50085998D01*
X85401952Y-50156031D01*
X85317117Y-50253938D01*
X85263302Y-50371774D01*
X85244867Y-50499997D01*
X85244867Y-50500002D01*
X85245272Y-50502820D01*
X85244867Y-50505159D01*
X85244867Y-50507080D01*
X85244535Y-50507080D01*
X85234836Y-50563108D01*
X85190956Y-50605749D01*
X85175171Y-50611894D01*
X85087555Y-50637620D01*
X85087550Y-50637622D01*
X84978576Y-50707655D01*
X84893741Y-50805562D01*
X84839926Y-50923398D01*
X84821491Y-51051621D01*
X43865894Y-51051621D01*
X43852590Y-51014333D01*
X43853558Y-50997418D01*
X43871159Y-50875002D01*
X43871159Y-50874997D01*
X43852723Y-50746774D01*
X43835280Y-50708580D01*
X43798908Y-50628937D01*
X43767839Y-50593081D01*
X43744023Y-50536723D01*
X43757882Y-50477128D01*
X43767842Y-50463420D01*
X43768051Y-50463178D01*
X43782882Y-50446063D01*
X43836697Y-50328226D01*
X43847378Y-50253937D01*
X43855133Y-50200002D01*
X43855133Y-50199997D01*
X43836697Y-50071774D01*
X43816809Y-50028226D01*
X43782882Y-49953937D01*
X43736143Y-49899997D01*
X87544867Y-49899997D01*
X87544867Y-49900002D01*
X87563302Y-50028225D01*
X87602477Y-50114004D01*
X87617118Y-50146063D01*
X87701951Y-50243967D01*
X87701952Y-50243968D01*
X87717466Y-50253938D01*
X87810931Y-50314004D01*
X87935228Y-50350500D01*
X87935230Y-50350500D01*
X88064770Y-50350500D01*
X88064772Y-50350500D01*
X88189069Y-50314004D01*
X88298049Y-50243967D01*
X88382882Y-50146063D01*
X88436697Y-50028226D01*
X88448510Y-49946063D01*
X88455133Y-49900002D01*
X88455133Y-49899997D01*
X88436697Y-49771774D01*
X88403919Y-49700002D01*
X88403917Y-49699997D01*
X104044867Y-49699997D01*
X104044867Y-49700002D01*
X104063302Y-49828225D01*
X104076001Y-49856031D01*
X104117118Y-49946063D01*
X104123941Y-49953937D01*
X104201952Y-50043968D01*
X104310926Y-50114001D01*
X104310931Y-50114004D01*
X104435228Y-50150500D01*
X104435230Y-50150500D01*
X104564770Y-50150500D01*
X104564772Y-50150500D01*
X104689069Y-50114004D01*
X104798049Y-50043967D01*
X104882882Y-49946063D01*
X104936697Y-49828226D01*
X104955133Y-49700000D01*
X104949982Y-49664176D01*
X104936697Y-49571774D01*
X104930244Y-49557644D01*
X104882882Y-49453937D01*
X104798049Y-49356033D01*
X104798048Y-49356032D01*
X104798047Y-49356031D01*
X104689073Y-49285998D01*
X104689070Y-49285996D01*
X104689069Y-49285996D01*
X104689066Y-49285995D01*
X104564774Y-49249500D01*
X104564772Y-49249500D01*
X104435228Y-49249500D01*
X104435225Y-49249500D01*
X104310933Y-49285995D01*
X104310926Y-49285998D01*
X104201952Y-49356031D01*
X104117117Y-49453938D01*
X104063302Y-49571774D01*
X104044867Y-49699997D01*
X88403917Y-49699997D01*
X88382882Y-49653937D01*
X88298049Y-49556033D01*
X88298048Y-49556032D01*
X88298047Y-49556031D01*
X88189073Y-49485998D01*
X88189070Y-49485996D01*
X88189069Y-49485996D01*
X88189066Y-49485995D01*
X88064774Y-49449500D01*
X88064772Y-49449500D01*
X87935228Y-49449500D01*
X87935225Y-49449500D01*
X87810933Y-49485995D01*
X87810926Y-49485998D01*
X87701952Y-49556031D01*
X87617117Y-49653938D01*
X87563302Y-49771774D01*
X87544867Y-49899997D01*
X43736143Y-49899997D01*
X43698049Y-49856033D01*
X43698048Y-49856032D01*
X43698047Y-49856031D01*
X43589073Y-49785998D01*
X43589070Y-49785996D01*
X43589069Y-49785996D01*
X43589066Y-49785995D01*
X43464774Y-49749500D01*
X43464772Y-49749500D01*
X43335228Y-49749500D01*
X43335225Y-49749500D01*
X43210933Y-49785995D01*
X43210926Y-49785998D01*
X43101952Y-49856031D01*
X43017117Y-49953938D01*
X42963302Y-50071774D01*
X42944867Y-50199997D01*
X42705500Y-50199997D01*
X42705500Y-49213673D01*
X86154141Y-49213673D01*
X86154141Y-49213678D01*
X86172576Y-49341901D01*
X86207710Y-49418832D01*
X86226392Y-49459739D01*
X86309828Y-49556031D01*
X86311226Y-49557644D01*
X86333213Y-49571774D01*
X86420205Y-49627680D01*
X86544502Y-49664176D01*
X86544504Y-49664176D01*
X86674044Y-49664176D01*
X86674046Y-49664176D01*
X86798343Y-49627680D01*
X86907323Y-49557643D01*
X86965541Y-49490453D01*
X87017935Y-49458858D01*
X87078896Y-49464093D01*
X87081490Y-49465233D01*
X87086838Y-49467675D01*
X87086846Y-49467680D01*
X87211143Y-49504176D01*
X87211145Y-49504176D01*
X87340685Y-49504176D01*
X87340687Y-49504176D01*
X87464984Y-49467680D01*
X87573964Y-49397643D01*
X87658797Y-49299739D01*
X87712612Y-49181902D01*
X87731048Y-49053676D01*
X87712612Y-48925450D01*
X87658797Y-48807613D01*
X87573964Y-48709709D01*
X87573963Y-48709708D01*
X87573962Y-48709707D01*
X87464988Y-48639674D01*
X87464985Y-48639672D01*
X87464984Y-48639672D01*
X87464981Y-48639671D01*
X87340689Y-48603176D01*
X87340687Y-48603176D01*
X87211143Y-48603176D01*
X87211140Y-48603176D01*
X87086848Y-48639671D01*
X87086841Y-48639674D01*
X86977866Y-48709708D01*
X86977864Y-48709710D01*
X86919647Y-48776897D01*
X86867251Y-48808493D01*
X86806291Y-48803257D01*
X86803701Y-48802119D01*
X86798343Y-48799672D01*
X86674048Y-48763176D01*
X86674046Y-48763176D01*
X86544502Y-48763176D01*
X86544499Y-48763176D01*
X86420207Y-48799671D01*
X86420200Y-48799674D01*
X86311226Y-48869707D01*
X86226391Y-48967614D01*
X86172576Y-49085450D01*
X86154141Y-49213673D01*
X42705500Y-49213673D01*
X42705500Y-47700005D01*
X68544867Y-47700005D01*
X68544867Y-47700010D01*
X68563302Y-47828233D01*
X68608116Y-47926359D01*
X68617118Y-47946071D01*
X68701951Y-48043975D01*
X68701952Y-48043976D01*
X68810926Y-48114009D01*
X68810931Y-48114012D01*
X68935228Y-48150508D01*
X68935230Y-48150508D01*
X69064770Y-48150508D01*
X69064772Y-48150508D01*
X69189069Y-48114012D01*
X69298049Y-48043975D01*
X69382882Y-47946071D01*
X69436697Y-47828234D01*
X69445977Y-47763690D01*
X69455133Y-47700010D01*
X69455133Y-47700005D01*
X69436697Y-47571782D01*
X69405388Y-47503226D01*
X69382882Y-47453945D01*
X69298049Y-47356041D01*
X69298048Y-47356040D01*
X69298047Y-47356039D01*
X69189073Y-47286006D01*
X69189070Y-47286004D01*
X69189069Y-47286004D01*
X69189066Y-47286003D01*
X69064774Y-47249508D01*
X69064772Y-47249508D01*
X68935228Y-47249508D01*
X68935225Y-47249508D01*
X68810933Y-47286003D01*
X68810926Y-47286006D01*
X68701952Y-47356039D01*
X68617117Y-47453946D01*
X68563302Y-47571782D01*
X68544867Y-47700005D01*
X42705500Y-47700005D01*
X42705500Y-47206584D01*
X74438280Y-47206584D01*
X74438280Y-47206589D01*
X74456715Y-47334812D01*
X74475069Y-47375000D01*
X74510531Y-47452650D01*
X74567666Y-47518588D01*
X74595365Y-47550555D01*
X74678660Y-47604085D01*
X74704344Y-47620591D01*
X74828641Y-47657087D01*
X74828643Y-47657087D01*
X74958183Y-47657087D01*
X74958185Y-47657087D01*
X75082482Y-47620591D01*
X75191462Y-47550554D01*
X75239699Y-47494883D01*
X75292092Y-47463289D01*
X75353053Y-47468524D01*
X75399295Y-47508591D01*
X75404570Y-47518588D01*
X75417117Y-47546062D01*
X75501952Y-47643968D01*
X75596799Y-47704922D01*
X75610931Y-47714004D01*
X75735228Y-47750500D01*
X75735230Y-47750500D01*
X75864770Y-47750500D01*
X75864772Y-47750500D01*
X75989069Y-47714004D01*
X76098049Y-47643967D01*
X76147478Y-47586921D01*
X76199874Y-47555325D01*
X76260835Y-47560560D01*
X76307076Y-47600628D01*
X76312351Y-47610626D01*
X76317116Y-47621061D01*
X76317117Y-47621062D01*
X76328354Y-47634031D01*
X76352170Y-47690390D01*
X76338310Y-47749985D01*
X76328353Y-47763690D01*
X76281242Y-47818060D01*
X76227426Y-47935898D01*
X76208991Y-48064121D01*
X76208991Y-48064126D01*
X76227426Y-48192349D01*
X76276885Y-48300646D01*
X76281242Y-48310187D01*
X76366075Y-48408091D01*
X76366076Y-48408092D01*
X76460207Y-48468586D01*
X76475055Y-48478128D01*
X76599352Y-48514624D01*
X76599354Y-48514624D01*
X76728894Y-48514624D01*
X76728896Y-48514624D01*
X76853193Y-48478128D01*
X76962173Y-48408091D01*
X77047006Y-48310187D01*
X77100821Y-48192350D01*
X77119257Y-48064124D01*
X77117885Y-48054582D01*
X84880894Y-48054582D01*
X84880894Y-48054587D01*
X84899329Y-48182810D01*
X84903686Y-48192350D01*
X84953145Y-48300648D01*
X85037978Y-48398552D01*
X85037979Y-48398553D01*
X85146953Y-48468586D01*
X85146958Y-48468589D01*
X85271255Y-48505085D01*
X85271257Y-48505085D01*
X85400797Y-48505085D01*
X85400799Y-48505085D01*
X85525096Y-48468589D01*
X85634076Y-48398552D01*
X85718909Y-48300648D01*
X85772724Y-48182811D01*
X85791160Y-48054585D01*
X85774095Y-47935898D01*
X85772724Y-47926359D01*
X85727911Y-47828234D01*
X85718909Y-47808522D01*
X85634076Y-47710618D01*
X85634075Y-47710617D01*
X85634074Y-47710616D01*
X85525100Y-47640583D01*
X85525097Y-47640581D01*
X85525096Y-47640581D01*
X85525093Y-47640580D01*
X85400801Y-47604085D01*
X85400799Y-47604085D01*
X85271255Y-47604085D01*
X85271252Y-47604085D01*
X85146960Y-47640580D01*
X85146953Y-47640583D01*
X85037979Y-47710616D01*
X84953144Y-47808523D01*
X84899329Y-47926359D01*
X84880894Y-48054582D01*
X77117885Y-48054582D01*
X77116360Y-48043976D01*
X77100821Y-47935898D01*
X77096465Y-47926359D01*
X77047006Y-47818061D01*
X77045127Y-47815892D01*
X77035770Y-47805093D01*
X77011953Y-47748733D01*
X77025812Y-47689138D01*
X77035767Y-47675437D01*
X77082882Y-47621063D01*
X77136697Y-47503226D01*
X77143782Y-47453946D01*
X77155133Y-47375002D01*
X77155133Y-47374997D01*
X77136697Y-47246774D01*
X77118344Y-47206587D01*
X77082882Y-47128937D01*
X76998049Y-47031033D01*
X76998048Y-47031032D01*
X76998047Y-47031031D01*
X76889073Y-46960998D01*
X76889070Y-46960996D01*
X76889069Y-46960996D01*
X76887465Y-46960525D01*
X76764774Y-46924500D01*
X76764772Y-46924500D01*
X76635228Y-46924500D01*
X76635225Y-46924500D01*
X76510933Y-46960995D01*
X76510926Y-46960998D01*
X76401951Y-47031032D01*
X76352520Y-47088079D01*
X76300124Y-47119674D01*
X76239163Y-47114438D01*
X76192922Y-47074370D01*
X76187654Y-47064386D01*
X76182882Y-47053937D01*
X76098049Y-46956033D01*
X76098048Y-46956032D01*
X76098047Y-46956031D01*
X76046158Y-46922684D01*
X85835353Y-46922684D01*
X85835353Y-46922689D01*
X85853788Y-47050912D01*
X85866324Y-47078361D01*
X85907604Y-47168750D01*
X85975211Y-47246774D01*
X85992438Y-47266655D01*
X86101412Y-47336688D01*
X86101417Y-47336691D01*
X86225714Y-47373187D01*
X86225716Y-47373187D01*
X86355256Y-47373187D01*
X86355258Y-47373187D01*
X86479555Y-47336691D01*
X86536652Y-47299997D01*
X104044867Y-47299997D01*
X104044867Y-47300002D01*
X104063302Y-47428225D01*
X104093746Y-47494886D01*
X104117118Y-47546063D01*
X104181696Y-47620591D01*
X104201952Y-47643968D01*
X104296799Y-47704922D01*
X104310931Y-47714004D01*
X104435228Y-47750500D01*
X104435230Y-47750500D01*
X104564770Y-47750500D01*
X104564772Y-47750500D01*
X104689069Y-47714004D01*
X104798049Y-47643967D01*
X104882882Y-47546063D01*
X104936697Y-47428226D01*
X104955133Y-47300000D01*
X104947873Y-47249508D01*
X104936697Y-47171774D01*
X104894036Y-47078361D01*
X104882882Y-47053937D01*
X104798049Y-46956033D01*
X104798048Y-46956032D01*
X104798047Y-46956031D01*
X104689073Y-46885998D01*
X104689070Y-46885996D01*
X104689069Y-46885996D01*
X104689066Y-46885995D01*
X104564774Y-46849500D01*
X104564772Y-46849500D01*
X104435228Y-46849500D01*
X104435225Y-46849500D01*
X104310933Y-46885995D01*
X104310926Y-46885998D01*
X104201952Y-46956031D01*
X104117117Y-47053938D01*
X104063302Y-47171774D01*
X104044867Y-47299997D01*
X86536652Y-47299997D01*
X86588535Y-47266654D01*
X86673368Y-47168750D01*
X86727183Y-47050913D01*
X86740179Y-46960524D01*
X86745619Y-46922689D01*
X86745619Y-46922684D01*
X86727979Y-46799997D01*
X90704665Y-46799997D01*
X90704665Y-46800002D01*
X90723100Y-46928225D01*
X90775653Y-47043297D01*
X90776916Y-47046063D01*
X90861749Y-47143967D01*
X90861750Y-47143968D01*
X90959183Y-47206584D01*
X90970729Y-47214004D01*
X91095026Y-47250500D01*
X91095028Y-47250500D01*
X91224568Y-47250500D01*
X91224570Y-47250500D01*
X91348867Y-47214004D01*
X91457847Y-47143967D01*
X91542680Y-47046063D01*
X91596495Y-46928226D01*
X91608308Y-46846063D01*
X91614931Y-46800002D01*
X91614931Y-46799997D01*
X91596495Y-46671774D01*
X91563717Y-46600002D01*
X91542680Y-46553937D01*
X91457847Y-46456033D01*
X91457846Y-46456032D01*
X91457845Y-46456031D01*
X91348871Y-46385998D01*
X91348868Y-46385996D01*
X91348867Y-46385996D01*
X91348864Y-46385995D01*
X91224572Y-46349500D01*
X91224570Y-46349500D01*
X91095026Y-46349500D01*
X91095023Y-46349500D01*
X90970731Y-46385995D01*
X90970724Y-46385998D01*
X90861750Y-46456031D01*
X90776915Y-46553938D01*
X90723100Y-46671774D01*
X90704665Y-46799997D01*
X86727979Y-46799997D01*
X86727183Y-46794461D01*
X86696934Y-46728226D01*
X86673368Y-46676624D01*
X86588535Y-46578720D01*
X86588534Y-46578719D01*
X86588533Y-46578718D01*
X86479559Y-46508685D01*
X86479556Y-46508683D01*
X86479555Y-46508683D01*
X86465905Y-46504675D01*
X86355260Y-46472187D01*
X86355258Y-46472187D01*
X86225714Y-46472187D01*
X86225711Y-46472187D01*
X86101419Y-46508682D01*
X86101412Y-46508685D01*
X85992438Y-46578718D01*
X85907603Y-46676625D01*
X85853788Y-46794461D01*
X85835353Y-46922684D01*
X76046158Y-46922684D01*
X75989073Y-46885998D01*
X75989070Y-46885996D01*
X75989069Y-46885996D01*
X75989066Y-46885995D01*
X75864774Y-46849500D01*
X75864772Y-46849500D01*
X75735228Y-46849500D01*
X75735225Y-46849500D01*
X75610933Y-46885995D01*
X75610926Y-46885998D01*
X75501951Y-46956032D01*
X75501949Y-46956034D01*
X75453714Y-47011701D01*
X75401318Y-47043297D01*
X75340357Y-47038061D01*
X75294117Y-46997994D01*
X75288842Y-46987997D01*
X75276511Y-46960998D01*
X75276295Y-46960524D01*
X75191462Y-46862620D01*
X75191461Y-46862619D01*
X75191460Y-46862618D01*
X75082486Y-46792585D01*
X75082483Y-46792583D01*
X75082482Y-46792583D01*
X75082479Y-46792582D01*
X74958187Y-46756087D01*
X74958185Y-46756087D01*
X74828641Y-46756087D01*
X74828638Y-46756087D01*
X74704346Y-46792582D01*
X74704339Y-46792585D01*
X74595365Y-46862618D01*
X74510530Y-46960525D01*
X74456715Y-47078361D01*
X74438280Y-47206584D01*
X42705500Y-47206584D01*
X42705500Y-46599997D01*
X70644867Y-46599997D01*
X70644867Y-46600002D01*
X70663302Y-46728225D01*
X70692694Y-46792583D01*
X70717118Y-46846063D01*
X70783512Y-46922687D01*
X70801952Y-46943968D01*
X70870463Y-46987997D01*
X70910931Y-47014004D01*
X71035228Y-47050500D01*
X71035230Y-47050500D01*
X71164770Y-47050500D01*
X71164772Y-47050500D01*
X71289069Y-47014004D01*
X71398049Y-46943967D01*
X71482882Y-46846063D01*
X71536697Y-46728226D01*
X71555133Y-46600000D01*
X71552073Y-46578720D01*
X71536697Y-46471774D01*
X71497523Y-46385996D01*
X71482882Y-46353937D01*
X71398049Y-46256033D01*
X71398048Y-46256032D01*
X71398047Y-46256031D01*
X71289073Y-46185998D01*
X71289070Y-46185996D01*
X71289069Y-46185996D01*
X71289066Y-46185995D01*
X71164774Y-46149500D01*
X71164772Y-46149500D01*
X71035228Y-46149500D01*
X71035225Y-46149500D01*
X70910933Y-46185995D01*
X70910926Y-46185998D01*
X70801952Y-46256031D01*
X70717117Y-46353938D01*
X70663302Y-46471774D01*
X70644867Y-46599997D01*
X42705500Y-46599997D01*
X42705500Y-46090668D01*
X102625293Y-46090668D01*
X102625293Y-46090673D01*
X102643728Y-46218896D01*
X102697543Y-46336732D01*
X102697544Y-46336734D01*
X102740231Y-46385998D01*
X102782378Y-46434639D01*
X102891352Y-46504672D01*
X102891357Y-46504675D01*
X103015654Y-46541171D01*
X103015656Y-46541171D01*
X103145196Y-46541171D01*
X103145198Y-46541171D01*
X103269495Y-46504675D01*
X103378475Y-46434638D01*
X103463308Y-46336734D01*
X103517123Y-46218897D01*
X103535559Y-46090671D01*
X103532171Y-46067112D01*
X103542602Y-46006826D01*
X103586479Y-45964182D01*
X103602263Y-45958036D01*
X103614569Y-45954423D01*
X103723549Y-45884386D01*
X103808382Y-45786482D01*
X103862197Y-45668645D01*
X103862196Y-45668645D01*
X103862198Y-45668643D01*
X103881511Y-45534312D01*
X103908506Y-45479404D01*
X103958182Y-45453191D01*
X103957978Y-45452495D01*
X103961417Y-45451485D01*
X103962621Y-45450850D01*
X103964704Y-45450520D01*
X103964772Y-45450500D01*
X104089069Y-45414004D01*
X104198049Y-45343967D01*
X104282882Y-45246063D01*
X104336697Y-45128226D01*
X104343943Y-45077827D01*
X104355133Y-45000002D01*
X104355133Y-44999997D01*
X104336697Y-44871774D01*
X104310314Y-44814004D01*
X104282882Y-44753937D01*
X104198049Y-44656033D01*
X104198048Y-44656032D01*
X104198047Y-44656031D01*
X104089073Y-44585998D01*
X104089070Y-44585996D01*
X104089069Y-44585996D01*
X104089066Y-44585995D01*
X103964774Y-44549500D01*
X103964772Y-44549500D01*
X103835228Y-44549500D01*
X103835225Y-44549500D01*
X103710933Y-44585995D01*
X103710926Y-44585998D01*
X103601952Y-44656031D01*
X103517117Y-44753938D01*
X103463302Y-44871774D01*
X103443988Y-45006107D01*
X103416992Y-45061015D01*
X103367316Y-45087225D01*
X103367522Y-45087924D01*
X103364076Y-45088935D01*
X103362878Y-45089568D01*
X103360806Y-45089895D01*
X103236433Y-45126414D01*
X103236426Y-45126417D01*
X103127452Y-45196450D01*
X103042617Y-45294357D01*
X102988802Y-45412193D01*
X102970367Y-45540416D01*
X102970367Y-45540418D01*
X102973754Y-45563980D01*
X102963319Y-45624269D01*
X102919439Y-45666910D01*
X102903656Y-45673055D01*
X102891356Y-45676666D01*
X102782378Y-45746702D01*
X102697543Y-45844609D01*
X102643728Y-45962445D01*
X102625293Y-46090668D01*
X42705500Y-46090668D01*
X42705500Y-45297325D01*
X71719867Y-45297325D01*
X71719867Y-45297330D01*
X71738302Y-45425553D01*
X71787972Y-45534312D01*
X71792118Y-45543391D01*
X71862198Y-45624269D01*
X71876952Y-45641296D01*
X71985926Y-45711329D01*
X71985931Y-45711332D01*
X72110228Y-45747828D01*
X72110230Y-45747828D01*
X72239770Y-45747828D01*
X72239772Y-45747828D01*
X72364069Y-45711332D01*
X72473049Y-45641295D01*
X72557882Y-45543391D01*
X72611697Y-45425554D01*
X72630133Y-45297328D01*
X72622762Y-45246063D01*
X72611697Y-45169102D01*
X72592202Y-45126414D01*
X72557882Y-45051265D01*
X72473049Y-44953361D01*
X72473048Y-44953360D01*
X72473047Y-44953359D01*
X72364073Y-44883326D01*
X72364070Y-44883324D01*
X72364069Y-44883324D01*
X72364066Y-44883323D01*
X72239774Y-44846828D01*
X72239772Y-44846828D01*
X72110228Y-44846828D01*
X72110225Y-44846828D01*
X71985933Y-44883323D01*
X71985926Y-44883326D01*
X71876952Y-44953359D01*
X71792117Y-45051266D01*
X71738302Y-45169102D01*
X71719867Y-45297325D01*
X42705500Y-45297325D01*
X42705500Y-43680532D01*
X44206104Y-43680532D01*
X44206104Y-43680537D01*
X44224539Y-43808760D01*
X44228372Y-43817152D01*
X44278355Y-43926598D01*
X44341959Y-44000002D01*
X44363189Y-44024503D01*
X44472163Y-44094536D01*
X44472168Y-44094539D01*
X44596465Y-44131035D01*
X44596467Y-44131035D01*
X44726007Y-44131035D01*
X44726009Y-44131035D01*
X44850306Y-44094539D01*
X44959286Y-44024502D01*
X45044119Y-43926598D01*
X45097934Y-43808761D01*
X45107355Y-43743238D01*
X45116370Y-43680537D01*
X45116370Y-43680532D01*
X45097934Y-43552309D01*
X45096651Y-43549500D01*
X45044119Y-43434472D01*
X44959286Y-43336568D01*
X44959285Y-43336567D01*
X44959284Y-43336566D01*
X44902381Y-43299997D01*
X46044867Y-43299997D01*
X46044867Y-43300002D01*
X46063302Y-43428225D01*
X46102616Y-43514308D01*
X46117118Y-43546063D01*
X46161394Y-43597161D01*
X46201952Y-43643968D01*
X46289140Y-43700000D01*
X46310931Y-43714004D01*
X46435228Y-43750500D01*
X46435230Y-43750500D01*
X46564770Y-43750500D01*
X46564772Y-43750500D01*
X46689069Y-43714004D01*
X46710864Y-43699997D01*
X53744867Y-43699997D01*
X53744867Y-43700002D01*
X53763302Y-43828225D01*
X53815828Y-43943238D01*
X53817118Y-43946063D01*
X53863854Y-44000000D01*
X53901952Y-44043968D01*
X53989140Y-44100000D01*
X54010931Y-44114004D01*
X54135228Y-44150500D01*
X54135230Y-44150500D01*
X54264770Y-44150500D01*
X54264772Y-44150500D01*
X54389069Y-44114004D01*
X54498049Y-44043967D01*
X54582882Y-43946063D01*
X54603919Y-43899999D01*
X69994318Y-43899999D01*
X69994318Y-43900000D01*
X70014955Y-44056758D01*
X70014957Y-44056766D01*
X70075462Y-44202838D01*
X70075462Y-44202839D01*
X70140397Y-44287464D01*
X70171718Y-44328282D01*
X70297159Y-44424536D01*
X70297160Y-44424536D01*
X70297161Y-44424537D01*
X70443233Y-44485042D01*
X70443238Y-44485044D01*
X70560809Y-44500522D01*
X70599999Y-44505682D01*
X70600000Y-44505682D01*
X70600001Y-44505682D01*
X70631352Y-44501554D01*
X70756762Y-44485044D01*
X70902841Y-44424536D01*
X70934821Y-44399997D01*
X76244867Y-44399997D01*
X76244867Y-44400002D01*
X76263302Y-44528225D01*
X76289686Y-44585996D01*
X76317118Y-44646063D01*
X76401951Y-44743967D01*
X76401952Y-44743968D01*
X76417466Y-44753938D01*
X76510931Y-44814004D01*
X76635228Y-44850500D01*
X76635230Y-44850500D01*
X76764770Y-44850500D01*
X76764772Y-44850500D01*
X76889069Y-44814004D01*
X76998049Y-44743967D01*
X77082882Y-44646063D01*
X77136697Y-44528226D01*
X77142906Y-44485042D01*
X77155133Y-44400002D01*
X77155133Y-44399997D01*
X77136697Y-44271774D01*
X77110314Y-44214004D01*
X77082882Y-44153937D01*
X76998049Y-44056033D01*
X76998048Y-44056032D01*
X76998047Y-44056031D01*
X76910856Y-43999997D01*
X84844867Y-43999997D01*
X84844867Y-44000002D01*
X84863302Y-44128225D01*
X84902477Y-44214004D01*
X84917118Y-44246063D01*
X84952991Y-44287463D01*
X85001952Y-44343968D01*
X85110926Y-44414001D01*
X85110931Y-44414004D01*
X85235228Y-44450500D01*
X85235230Y-44450500D01*
X85364770Y-44450500D01*
X85364772Y-44450500D01*
X85489069Y-44414004D01*
X85598049Y-44343967D01*
X85682882Y-44246063D01*
X85736697Y-44128226D01*
X85746972Y-44056762D01*
X85755133Y-44000002D01*
X85755133Y-43999997D01*
X85736697Y-43871774D01*
X85716809Y-43828226D01*
X85682882Y-43753937D01*
X85598049Y-43656033D01*
X85598048Y-43656032D01*
X85598047Y-43656031D01*
X85489073Y-43585998D01*
X85489070Y-43585996D01*
X85489069Y-43585996D01*
X85489066Y-43585995D01*
X85364774Y-43549500D01*
X85364772Y-43549500D01*
X85235228Y-43549500D01*
X85235225Y-43549500D01*
X85110933Y-43585995D01*
X85110926Y-43585998D01*
X85001952Y-43656031D01*
X84917117Y-43753938D01*
X84863302Y-43871774D01*
X84844867Y-43999997D01*
X76910856Y-43999997D01*
X76889073Y-43985998D01*
X76889070Y-43985996D01*
X76889069Y-43985996D01*
X76889066Y-43985995D01*
X76764774Y-43949500D01*
X76764772Y-43949500D01*
X76635228Y-43949500D01*
X76635225Y-43949500D01*
X76510933Y-43985995D01*
X76510926Y-43985998D01*
X76401952Y-44056031D01*
X76317117Y-44153938D01*
X76263302Y-44271774D01*
X76244867Y-44399997D01*
X70934821Y-44399997D01*
X71028282Y-44328282D01*
X71124536Y-44202841D01*
X71185044Y-44056762D01*
X71205682Y-43900000D01*
X71185044Y-43743238D01*
X71155443Y-43671774D01*
X71124537Y-43597161D01*
X71124537Y-43597160D01*
X71028286Y-43471723D01*
X71028285Y-43471722D01*
X71028282Y-43471718D01*
X71028277Y-43471714D01*
X71028276Y-43471713D01*
X70916569Y-43385998D01*
X70902841Y-43375464D01*
X70902840Y-43375463D01*
X70902838Y-43375462D01*
X70756766Y-43314957D01*
X70756758Y-43314955D01*
X70600001Y-43294318D01*
X70599999Y-43294318D01*
X70443241Y-43314955D01*
X70443233Y-43314957D01*
X70297161Y-43375462D01*
X70297160Y-43375462D01*
X70171723Y-43471713D01*
X70171713Y-43471723D01*
X70075462Y-43597160D01*
X70075462Y-43597161D01*
X70014957Y-43743233D01*
X70014955Y-43743241D01*
X69994318Y-43899999D01*
X54603919Y-43899999D01*
X54636697Y-43828226D01*
X54647872Y-43750500D01*
X54655133Y-43700002D01*
X54655133Y-43699997D01*
X54636697Y-43571774D01*
X54628551Y-43553937D01*
X54582882Y-43453937D01*
X54498049Y-43356033D01*
X54498048Y-43356032D01*
X54498047Y-43356031D01*
X54389073Y-43285998D01*
X54389070Y-43285996D01*
X54389069Y-43285996D01*
X54389066Y-43285995D01*
X54264774Y-43249500D01*
X54264772Y-43249500D01*
X54135228Y-43249500D01*
X54135225Y-43249500D01*
X54010933Y-43285995D01*
X54010926Y-43285998D01*
X53901952Y-43356031D01*
X53817117Y-43453938D01*
X53763302Y-43571774D01*
X53744867Y-43699997D01*
X46710864Y-43699997D01*
X46798049Y-43643967D01*
X46882882Y-43546063D01*
X46936697Y-43428226D01*
X46948016Y-43349500D01*
X46955133Y-43300002D01*
X46955133Y-43299997D01*
X46936697Y-43171774D01*
X46916809Y-43128226D01*
X46882882Y-43053937D01*
X46836143Y-42999997D01*
X75544867Y-42999997D01*
X75544867Y-43000002D01*
X75563302Y-43128225D01*
X75609798Y-43230035D01*
X75617118Y-43246063D01*
X75695538Y-43336566D01*
X75701952Y-43343968D01*
X75808768Y-43412614D01*
X75810931Y-43414004D01*
X75935228Y-43450500D01*
X75935230Y-43450500D01*
X76064770Y-43450500D01*
X76064772Y-43450500D01*
X76189069Y-43414004D01*
X76298049Y-43343967D01*
X76382882Y-43246063D01*
X76436697Y-43128226D01*
X76455133Y-43000000D01*
X76455061Y-42999502D01*
X76455060Y-42999497D01*
X76844867Y-42999497D01*
X76844867Y-42999502D01*
X76863302Y-43127725D01*
X76912313Y-43235042D01*
X76917118Y-43245563D01*
X76995973Y-43336568D01*
X77001952Y-43343468D01*
X77109546Y-43412614D01*
X77110931Y-43413504D01*
X77235228Y-43450000D01*
X77235230Y-43450000D01*
X77364770Y-43450000D01*
X77364772Y-43450000D01*
X77489069Y-43413504D01*
X77578499Y-43356031D01*
X77602330Y-43340716D01*
X77655853Y-43325000D01*
X80911314Y-43325000D01*
X80911316Y-43325000D01*
X80994102Y-43302818D01*
X80994104Y-43302816D01*
X80994106Y-43302816D01*
X81068320Y-43259968D01*
X81068320Y-43259967D01*
X81068325Y-43259965D01*
X81116821Y-43211469D01*
X87457527Y-43211469D01*
X87457527Y-43211470D01*
X87478164Y-43368228D01*
X87478166Y-43368236D01*
X87538671Y-43514308D01*
X87538671Y-43514309D01*
X87634922Y-43639746D01*
X87634927Y-43639752D01*
X87760368Y-43736006D01*
X87760369Y-43736006D01*
X87760370Y-43736007D01*
X87906442Y-43796512D01*
X87906447Y-43796514D01*
X88063209Y-43817152D01*
X88171657Y-43802874D01*
X88231816Y-43814024D01*
X88273934Y-43858406D01*
X88282570Y-43915115D01*
X88270367Y-43999995D01*
X88270367Y-44000002D01*
X88288802Y-44128225D01*
X88342618Y-44246063D01*
X88378491Y-44287464D01*
X88402308Y-44343823D01*
X88388449Y-44403418D01*
X88378491Y-44417124D01*
X88342618Y-44458524D01*
X88288802Y-44576362D01*
X88270367Y-44704585D01*
X88270367Y-44704590D01*
X88288802Y-44832813D01*
X88321385Y-44904158D01*
X88328360Y-44964945D01*
X88306152Y-45010115D01*
X88229859Y-45098164D01*
X88176043Y-45216002D01*
X88157608Y-45344225D01*
X88157608Y-45344230D01*
X88176043Y-45472453D01*
X88207082Y-45540418D01*
X88229859Y-45590291D01*
X88304702Y-45676666D01*
X88314693Y-45688196D01*
X88405731Y-45746702D01*
X88423672Y-45758232D01*
X88547969Y-45794728D01*
X88547971Y-45794728D01*
X88677511Y-45794728D01*
X88677513Y-45794728D01*
X88801810Y-45758232D01*
X88910790Y-45688195D01*
X88995623Y-45590291D01*
X89049438Y-45472454D01*
X89067874Y-45344228D01*
X89067836Y-45343967D01*
X89049438Y-45216003D01*
X89040509Y-45196452D01*
X89016854Y-45144655D01*
X89009880Y-45083871D01*
X89032089Y-45038699D01*
X89056857Y-45010115D01*
X89108382Y-44950651D01*
X89162197Y-44832814D01*
X89180633Y-44704588D01*
X89172218Y-44646063D01*
X89162197Y-44576362D01*
X89140239Y-44528282D01*
X89108382Y-44458525D01*
X89072508Y-44417124D01*
X89048691Y-44360766D01*
X89062549Y-44301171D01*
X89072509Y-44287463D01*
X89108382Y-44246063D01*
X89162197Y-44128226D01*
X89172472Y-44056762D01*
X89180633Y-44000002D01*
X89180633Y-43999997D01*
X89162197Y-43871774D01*
X89142309Y-43828226D01*
X89129417Y-43799997D01*
X92144867Y-43799997D01*
X92144867Y-43800002D01*
X92163302Y-43928225D01*
X92189686Y-43985996D01*
X92217118Y-44046063D01*
X92288311Y-44128225D01*
X92301952Y-44143968D01*
X92317466Y-44153938D01*
X92410931Y-44214004D01*
X92535228Y-44250500D01*
X92535230Y-44250500D01*
X92664770Y-44250500D01*
X92664772Y-44250500D01*
X92789069Y-44214004D01*
X92898049Y-44143967D01*
X92936147Y-44099999D01*
X94294318Y-44099999D01*
X94294318Y-44100000D01*
X94314955Y-44256758D01*
X94314957Y-44256766D01*
X94375462Y-44402838D01*
X94375462Y-44402839D01*
X94438540Y-44485044D01*
X94471718Y-44528282D01*
X94597159Y-44624536D01*
X94597160Y-44624536D01*
X94597161Y-44624537D01*
X94673199Y-44656033D01*
X94743238Y-44685044D01*
X94860809Y-44700522D01*
X94899999Y-44705682D01*
X94900000Y-44705682D01*
X94900001Y-44705682D01*
X94931352Y-44701554D01*
X95056762Y-44685044D01*
X95202841Y-44624536D01*
X95328282Y-44528282D01*
X95424536Y-44402841D01*
X95485044Y-44256762D01*
X95505682Y-44100000D01*
X95485044Y-43943238D01*
X95478825Y-43928225D01*
X95424537Y-43797161D01*
X95424537Y-43797160D01*
X95328286Y-43671723D01*
X95328285Y-43671722D01*
X95328282Y-43671718D01*
X95328277Y-43671714D01*
X95328276Y-43671713D01*
X95231116Y-43597160D01*
X95202841Y-43575464D01*
X95202840Y-43575463D01*
X95202838Y-43575462D01*
X95056766Y-43514957D01*
X95056758Y-43514955D01*
X94900001Y-43494318D01*
X94899999Y-43494318D01*
X94743241Y-43514955D01*
X94743233Y-43514957D01*
X94597161Y-43575462D01*
X94597160Y-43575462D01*
X94471723Y-43671713D01*
X94471713Y-43671723D01*
X94375462Y-43797160D01*
X94375462Y-43797161D01*
X94314957Y-43943233D01*
X94314955Y-43943241D01*
X94294318Y-44099999D01*
X92936147Y-44099999D01*
X92982882Y-44046063D01*
X93036697Y-43928226D01*
X93053117Y-43814024D01*
X93055133Y-43800002D01*
X93055133Y-43799997D01*
X93036697Y-43671774D01*
X93002622Y-43597161D01*
X92982882Y-43553937D01*
X92898049Y-43456033D01*
X92898048Y-43456032D01*
X92898047Y-43456031D01*
X92789073Y-43385998D01*
X92789070Y-43385996D01*
X92789069Y-43385996D01*
X92789066Y-43385995D01*
X92664774Y-43349500D01*
X92664772Y-43349500D01*
X92535228Y-43349500D01*
X92535225Y-43349500D01*
X92410933Y-43385995D01*
X92410926Y-43385998D01*
X92301952Y-43456031D01*
X92217117Y-43553938D01*
X92163302Y-43671774D01*
X92144867Y-43799997D01*
X89129417Y-43799997D01*
X89108382Y-43753937D01*
X89023549Y-43656033D01*
X89023548Y-43656032D01*
X89023547Y-43656031D01*
X88914573Y-43585998D01*
X88914570Y-43585996D01*
X88914569Y-43585996D01*
X88914566Y-43585995D01*
X88790274Y-43549500D01*
X88790272Y-43549500D01*
X88721333Y-43549500D01*
X88663142Y-43530593D01*
X88627178Y-43481093D01*
X88627178Y-43419907D01*
X88629869Y-43412614D01*
X88640894Y-43385998D01*
X88648253Y-43368232D01*
X88668891Y-43211470D01*
X88648253Y-43054708D01*
X88637307Y-43028282D01*
X88587746Y-42908631D01*
X88587746Y-42908630D01*
X88491495Y-42783193D01*
X88491494Y-42783192D01*
X88491491Y-42783188D01*
X88491486Y-42783184D01*
X88491485Y-42783183D01*
X88366047Y-42686932D01*
X88276883Y-42649999D01*
X95856818Y-42649999D01*
X95856818Y-42650000D01*
X95877455Y-42806758D01*
X95877457Y-42806766D01*
X95937962Y-42952838D01*
X95937962Y-42952839D01*
X96015537Y-43053937D01*
X96034218Y-43078282D01*
X96159659Y-43174536D01*
X96159660Y-43174536D01*
X96159661Y-43174537D01*
X96234852Y-43205682D01*
X96305738Y-43235044D01*
X96415543Y-43249500D01*
X96462499Y-43255682D01*
X96462500Y-43255682D01*
X96462501Y-43255682D01*
X96509457Y-43249500D01*
X96619262Y-43235044D01*
X96765341Y-43174536D01*
X96890782Y-43078282D01*
X96987036Y-42952841D01*
X97047544Y-42806762D01*
X97068182Y-42650000D01*
X97067910Y-42647937D01*
X97059690Y-42585495D01*
X97047544Y-42493238D01*
X97011726Y-42406766D01*
X96987037Y-42347161D01*
X96987037Y-42347160D01*
X96912483Y-42249999D01*
X100256818Y-42249999D01*
X100256818Y-42250000D01*
X100277455Y-42406758D01*
X100277457Y-42406766D01*
X100337962Y-42552838D01*
X100337962Y-42552839D01*
X100418873Y-42658284D01*
X100434218Y-42678282D01*
X100434222Y-42678285D01*
X100434223Y-42678286D01*
X100463582Y-42700813D01*
X100559659Y-42774536D01*
X100559660Y-42774536D01*
X100559661Y-42774537D01*
X100637459Y-42806762D01*
X100705738Y-42835044D01*
X100815543Y-42849500D01*
X100862499Y-42855682D01*
X100862500Y-42855682D01*
X100862501Y-42855682D01*
X100909457Y-42849500D01*
X101019262Y-42835044D01*
X101165341Y-42774536D01*
X101290782Y-42678282D01*
X101350850Y-42599999D01*
X102094312Y-42599999D01*
X102094312Y-42600000D01*
X102114949Y-42756758D01*
X102114951Y-42756766D01*
X102175456Y-42902838D01*
X102175456Y-42902839D01*
X102250012Y-43000002D01*
X102271712Y-43028282D01*
X102397153Y-43124536D01*
X102543232Y-43185044D01*
X102660803Y-43200522D01*
X102699993Y-43205682D01*
X102699994Y-43205682D01*
X102699995Y-43205682D01*
X102731346Y-43201554D01*
X102856756Y-43185044D01*
X103002835Y-43124536D01*
X103128276Y-43028282D01*
X103224530Y-42902841D01*
X103285038Y-42756762D01*
X103305676Y-42600000D01*
X103285038Y-42443238D01*
X103269929Y-42406762D01*
X103224531Y-42297161D01*
X103224531Y-42297160D01*
X103128280Y-42171723D01*
X103128279Y-42171722D01*
X103128276Y-42171718D01*
X103128271Y-42171714D01*
X103128270Y-42171713D01*
X103057098Y-42117101D01*
X103002835Y-42075464D01*
X103002834Y-42075463D01*
X103002832Y-42075462D01*
X102856760Y-42014957D01*
X102856752Y-42014955D01*
X102699995Y-41994318D01*
X102699993Y-41994318D01*
X102543235Y-42014955D01*
X102543227Y-42014957D01*
X102397155Y-42075462D01*
X102397154Y-42075462D01*
X102271717Y-42171713D01*
X102271707Y-42171723D01*
X102175456Y-42297160D01*
X102175456Y-42297161D01*
X102114951Y-42443233D01*
X102114949Y-42443241D01*
X102094312Y-42599999D01*
X101350850Y-42599999D01*
X101387036Y-42552841D01*
X101447544Y-42406762D01*
X101468182Y-42250000D01*
X101447544Y-42093238D01*
X101441828Y-42079438D01*
X101387037Y-41947161D01*
X101387037Y-41947160D01*
X101290786Y-41821723D01*
X101290785Y-41821722D01*
X101290782Y-41821718D01*
X101290777Y-41821714D01*
X101290776Y-41821713D01*
X101165338Y-41725462D01*
X101019266Y-41664957D01*
X101019258Y-41664955D01*
X100862501Y-41644318D01*
X100862499Y-41644318D01*
X100705741Y-41664955D01*
X100705733Y-41664957D01*
X100559661Y-41725462D01*
X100559660Y-41725462D01*
X100434223Y-41821713D01*
X100434213Y-41821723D01*
X100337962Y-41947160D01*
X100337962Y-41947161D01*
X100277457Y-42093233D01*
X100277455Y-42093241D01*
X100256818Y-42249999D01*
X96912483Y-42249999D01*
X96890786Y-42221723D01*
X96890785Y-42221722D01*
X96890782Y-42221718D01*
X96890777Y-42221714D01*
X96890776Y-42221713D01*
X96789456Y-42143968D01*
X96765341Y-42125464D01*
X96765340Y-42125463D01*
X96765338Y-42125462D01*
X96619266Y-42064957D01*
X96619258Y-42064955D01*
X96462501Y-42044318D01*
X96462499Y-42044318D01*
X96305741Y-42064955D01*
X96305733Y-42064957D01*
X96159661Y-42125462D01*
X96159660Y-42125462D01*
X96034223Y-42221713D01*
X96034213Y-42221723D01*
X95937962Y-42347160D01*
X95937962Y-42347161D01*
X95877457Y-42493233D01*
X95877455Y-42493241D01*
X95856818Y-42649999D01*
X88276883Y-42649999D01*
X88219975Y-42626427D01*
X88219967Y-42626425D01*
X88063210Y-42605788D01*
X88063208Y-42605788D01*
X87906450Y-42626425D01*
X87906442Y-42626427D01*
X87760370Y-42686932D01*
X87760369Y-42686932D01*
X87634932Y-42783183D01*
X87634922Y-42783193D01*
X87538671Y-42908630D01*
X87538671Y-42908631D01*
X87478166Y-43054703D01*
X87478164Y-43054711D01*
X87457527Y-43211469D01*
X81116821Y-43211469D01*
X81561113Y-42767174D01*
X81603223Y-42742189D01*
X81671661Y-42722096D01*
X81780641Y-42652059D01*
X81865474Y-42554155D01*
X81919289Y-42436318D01*
X81937725Y-42308092D01*
X81936153Y-42297161D01*
X81919289Y-42179866D01*
X81879727Y-42093238D01*
X81865474Y-42062029D01*
X81780641Y-41964125D01*
X81780640Y-41964124D01*
X81780639Y-41964123D01*
X81671665Y-41894090D01*
X81671662Y-41894088D01*
X81671661Y-41894088D01*
X81671658Y-41894087D01*
X81547366Y-41857592D01*
X81547364Y-41857592D01*
X81417820Y-41857592D01*
X81417817Y-41857592D01*
X81293525Y-41894087D01*
X81293518Y-41894090D01*
X81181275Y-41966224D01*
X81122100Y-41981779D01*
X81074229Y-41966224D01*
X80989073Y-41911498D01*
X80989070Y-41911496D01*
X80989069Y-41911496D01*
X80989066Y-41911495D01*
X80864774Y-41875000D01*
X80864772Y-41875000D01*
X80735228Y-41875000D01*
X80735225Y-41875000D01*
X80610933Y-41911495D01*
X80610926Y-41911498D01*
X80501952Y-41981531D01*
X80417117Y-42079438D01*
X80363302Y-42197274D01*
X80344867Y-42325497D01*
X80344867Y-42325502D01*
X80363302Y-42453725D01*
X80399905Y-42533873D01*
X80406880Y-42594660D01*
X80376794Y-42647937D01*
X80321138Y-42673355D01*
X80309852Y-42674000D01*
X77655853Y-42674000D01*
X77602330Y-42658284D01*
X77489073Y-42585498D01*
X77489070Y-42585496D01*
X77489069Y-42585496D01*
X77489066Y-42585495D01*
X77364774Y-42549000D01*
X77364772Y-42549000D01*
X77235228Y-42549000D01*
X77235225Y-42549000D01*
X77110933Y-42585495D01*
X77110926Y-42585498D01*
X77001952Y-42655531D01*
X76917117Y-42753438D01*
X76863302Y-42871274D01*
X76844867Y-42999497D01*
X76455060Y-42999497D01*
X76436697Y-42871774D01*
X76407008Y-42806766D01*
X76382882Y-42753937D01*
X76298049Y-42656033D01*
X76298048Y-42656032D01*
X76298047Y-42656031D01*
X76189073Y-42585998D01*
X76189070Y-42585996D01*
X76189069Y-42585996D01*
X76187373Y-42585498D01*
X76064774Y-42549500D01*
X76064772Y-42549500D01*
X75935228Y-42549500D01*
X75935225Y-42549500D01*
X75810933Y-42585995D01*
X75810926Y-42585998D01*
X75701952Y-42656031D01*
X75617117Y-42753938D01*
X75563302Y-42871774D01*
X75544867Y-42999997D01*
X46836143Y-42999997D01*
X46798049Y-42956033D01*
X46798048Y-42956032D01*
X46798047Y-42956031D01*
X46689073Y-42885998D01*
X46689070Y-42885996D01*
X46689069Y-42885996D01*
X46689066Y-42885995D01*
X46564774Y-42849500D01*
X46564772Y-42849500D01*
X46435228Y-42849500D01*
X46435225Y-42849500D01*
X46310933Y-42885995D01*
X46310926Y-42885998D01*
X46201952Y-42956031D01*
X46117117Y-43053938D01*
X46063302Y-43171774D01*
X46044867Y-43299997D01*
X44902381Y-43299997D01*
X44850310Y-43266533D01*
X44850307Y-43266531D01*
X44850306Y-43266531D01*
X44850303Y-43266530D01*
X44726011Y-43230035D01*
X44726009Y-43230035D01*
X44596465Y-43230035D01*
X44596462Y-43230035D01*
X44472170Y-43266530D01*
X44472163Y-43266533D01*
X44363189Y-43336566D01*
X44278354Y-43434473D01*
X44224539Y-43552309D01*
X44206104Y-43680532D01*
X42705500Y-43680532D01*
X42705500Y-41799997D01*
X71144867Y-41799997D01*
X71144867Y-41800002D01*
X71163302Y-41928225D01*
X71202911Y-42014955D01*
X71217118Y-42046063D01*
X71301951Y-42143967D01*
X71301952Y-42143968D01*
X71410926Y-42214001D01*
X71410931Y-42214004D01*
X71535228Y-42250500D01*
X71535230Y-42250500D01*
X71664770Y-42250500D01*
X71664772Y-42250500D01*
X71789069Y-42214004D01*
X71898049Y-42143967D01*
X71982882Y-42046063D01*
X72036697Y-41928226D01*
X72052010Y-41821723D01*
X72055133Y-41800002D01*
X72055133Y-41799997D01*
X72036697Y-41671774D01*
X71982882Y-41553938D01*
X71982882Y-41553937D01*
X71898049Y-41456033D01*
X71898048Y-41456032D01*
X71898047Y-41456031D01*
X71789073Y-41385998D01*
X71789070Y-41385996D01*
X71789069Y-41385996D01*
X71789066Y-41385995D01*
X71664774Y-41349500D01*
X71664772Y-41349500D01*
X71535228Y-41349500D01*
X71535225Y-41349500D01*
X71410933Y-41385995D01*
X71410926Y-41385998D01*
X71301952Y-41456031D01*
X71217117Y-41553938D01*
X71163302Y-41671774D01*
X71144867Y-41799997D01*
X42705500Y-41799997D01*
X42705500Y-40878010D01*
X45909706Y-40878010D01*
X45909706Y-40878015D01*
X45928141Y-41006238D01*
X45946570Y-41046591D01*
X45981957Y-41124076D01*
X46064178Y-41218965D01*
X46066791Y-41221981D01*
X46175765Y-41292014D01*
X46175770Y-41292017D01*
X46300067Y-41328513D01*
X46300069Y-41328513D01*
X46429609Y-41328513D01*
X46429611Y-41328513D01*
X46553908Y-41292017D01*
X46662888Y-41221980D01*
X46708905Y-41168872D01*
X46761299Y-41137276D01*
X46822260Y-41142511D01*
X46858543Y-41168872D01*
X46901949Y-41218965D01*
X46901951Y-41218967D01*
X47010931Y-41289004D01*
X47135228Y-41325500D01*
X47135230Y-41325500D01*
X47264770Y-41325500D01*
X47264772Y-41325500D01*
X47389069Y-41289004D01*
X47498049Y-41218967D01*
X47582882Y-41121063D01*
X47636697Y-41003226D01*
X47654700Y-40878013D01*
X47655133Y-40875002D01*
X47655133Y-40874997D01*
X47636697Y-40746774D01*
X47582882Y-40628938D01*
X47582882Y-40628937D01*
X47498049Y-40531033D01*
X47498048Y-40531032D01*
X47498047Y-40531031D01*
X47389073Y-40460998D01*
X47389070Y-40460996D01*
X47389069Y-40460996D01*
X47389066Y-40460995D01*
X47264774Y-40424500D01*
X47264772Y-40424500D01*
X47135228Y-40424500D01*
X47135225Y-40424500D01*
X47010933Y-40460995D01*
X47010926Y-40460998D01*
X46901951Y-40531032D01*
X46901949Y-40531034D01*
X46855933Y-40584140D01*
X46803537Y-40615736D01*
X46742576Y-40610500D01*
X46706295Y-40584140D01*
X46662889Y-40534046D01*
X46662887Y-40534045D01*
X46553912Y-40464011D01*
X46553909Y-40464009D01*
X46553908Y-40464009D01*
X46553905Y-40464008D01*
X46429613Y-40427513D01*
X46429611Y-40427513D01*
X46300067Y-40427513D01*
X46300064Y-40427513D01*
X46175772Y-40464008D01*
X46175765Y-40464011D01*
X46066791Y-40534044D01*
X45981956Y-40631951D01*
X45928141Y-40749787D01*
X45909706Y-40878010D01*
X42705500Y-40878010D01*
X42705500Y-40099997D01*
X85244867Y-40099997D01*
X85244867Y-40100002D01*
X85263302Y-40228225D01*
X85317117Y-40346061D01*
X85317118Y-40346063D01*
X85385083Y-40424500D01*
X85401952Y-40443968D01*
X85433135Y-40464008D01*
X85510931Y-40514004D01*
X85635228Y-40550500D01*
X85635230Y-40550500D01*
X85764770Y-40550500D01*
X85764772Y-40550500D01*
X85889069Y-40514004D01*
X85998049Y-40443967D01*
X86082882Y-40346063D01*
X86136697Y-40228226D01*
X86147872Y-40150500D01*
X86155133Y-40100002D01*
X86155133Y-40099997D01*
X86136697Y-39971774D01*
X86082882Y-39853938D01*
X86082882Y-39853937D01*
X85998049Y-39756033D01*
X85998048Y-39756032D01*
X85998047Y-39756031D01*
X85910856Y-39699997D01*
X89844867Y-39699997D01*
X89844867Y-39700002D01*
X89863302Y-39828225D01*
X89875045Y-39853937D01*
X89917118Y-39946063D01*
X90001951Y-40043967D01*
X90001952Y-40043968D01*
X90089140Y-40100000D01*
X90110931Y-40114004D01*
X90235228Y-40150500D01*
X90235230Y-40150500D01*
X90364770Y-40150500D01*
X90364772Y-40150500D01*
X90489069Y-40114004D01*
X90598049Y-40043967D01*
X90682882Y-39946063D01*
X90736697Y-39828226D01*
X90755133Y-39700000D01*
X90754679Y-39696844D01*
X90736697Y-39571774D01*
X90719145Y-39533342D01*
X90682882Y-39453937D01*
X90598049Y-39356033D01*
X90598048Y-39356032D01*
X90598047Y-39356031D01*
X90489073Y-39285998D01*
X90489070Y-39285996D01*
X90489069Y-39285996D01*
X90489066Y-39285995D01*
X90364774Y-39249500D01*
X90364772Y-39249500D01*
X90235228Y-39249500D01*
X90235225Y-39249500D01*
X90110933Y-39285995D01*
X90110926Y-39285998D01*
X90001952Y-39356031D01*
X89917117Y-39453938D01*
X89863302Y-39571774D01*
X89844867Y-39699997D01*
X85910856Y-39699997D01*
X85889073Y-39685998D01*
X85889070Y-39685996D01*
X85889069Y-39685996D01*
X85889066Y-39685995D01*
X85764774Y-39649500D01*
X85764772Y-39649500D01*
X85635228Y-39649500D01*
X85635225Y-39649500D01*
X85510933Y-39685995D01*
X85510926Y-39685998D01*
X85401952Y-39756031D01*
X85317117Y-39853938D01*
X85263302Y-39971774D01*
X85244867Y-40099997D01*
X42705500Y-40099997D01*
X42705500Y-38799997D01*
X65844867Y-38799997D01*
X65844867Y-38800002D01*
X65863302Y-38928225D01*
X65915828Y-39043238D01*
X65917118Y-39046063D01*
X65990852Y-39131158D01*
X66001952Y-39143968D01*
X66089140Y-39200000D01*
X66110931Y-39214004D01*
X66235228Y-39250500D01*
X66235230Y-39250500D01*
X66364770Y-39250500D01*
X66364772Y-39250500D01*
X66489069Y-39214004D01*
X66598049Y-39143967D01*
X66682882Y-39046063D01*
X66736697Y-38928226D01*
X66746345Y-38861124D01*
X66755133Y-38800002D01*
X66755133Y-38799997D01*
X66743222Y-38717154D01*
X67062024Y-38717154D01*
X67062024Y-38717159D01*
X67080459Y-38845382D01*
X67127279Y-38947901D01*
X67134275Y-38963220D01*
X67206056Y-39046061D01*
X67219109Y-39061125D01*
X67301386Y-39114001D01*
X67328088Y-39131161D01*
X67452385Y-39167657D01*
X67452387Y-39167657D01*
X67530019Y-39167657D01*
X67588210Y-39186564D01*
X67624174Y-39236064D01*
X67627583Y-39275762D01*
X67627710Y-39275762D01*
X67627710Y-39277239D01*
X67628011Y-39280745D01*
X67627710Y-39282838D01*
X67627710Y-39282845D01*
X67646145Y-39411068D01*
X67685320Y-39496847D01*
X67699961Y-39528906D01*
X67748604Y-39585044D01*
X67784795Y-39626811D01*
X67893769Y-39696844D01*
X67893774Y-39696847D01*
X68018071Y-39733343D01*
X68018073Y-39733343D01*
X68147613Y-39733343D01*
X68147615Y-39733343D01*
X68271912Y-39696847D01*
X68380892Y-39626810D01*
X68465725Y-39528906D01*
X68519540Y-39411069D01*
X68531353Y-39328906D01*
X68537976Y-39282845D01*
X68537976Y-39282840D01*
X68519540Y-39154617D01*
X68508828Y-39131161D01*
X68486760Y-39082840D01*
X78562024Y-39082840D01*
X78562024Y-39082845D01*
X78580459Y-39211068D01*
X78610679Y-39277239D01*
X78634275Y-39328906D01*
X78705468Y-39411068D01*
X78719109Y-39426811D01*
X78761320Y-39453938D01*
X78828088Y-39496847D01*
X78952385Y-39533343D01*
X78952387Y-39533343D01*
X79081927Y-39533343D01*
X79081929Y-39533343D01*
X79206226Y-39496847D01*
X79315206Y-39426810D01*
X79400039Y-39328906D01*
X79453854Y-39211069D01*
X79461971Y-39154617D01*
X79472290Y-39082845D01*
X79472290Y-39082838D01*
X79471989Y-39080745D01*
X79472290Y-39079005D01*
X79472290Y-39075762D01*
X79472851Y-39075762D01*
X79482423Y-39020456D01*
X79526301Y-38977814D01*
X79569981Y-38967657D01*
X79647613Y-38967657D01*
X79647615Y-38967657D01*
X79771912Y-38931161D01*
X79880892Y-38861124D01*
X79965725Y-38763220D01*
X79994598Y-38699997D01*
X80344867Y-38699997D01*
X80344867Y-38700002D01*
X80363302Y-38828225D01*
X80408972Y-38928226D01*
X80417118Y-38946063D01*
X80501315Y-39043233D01*
X80501952Y-39043968D01*
X80610926Y-39114001D01*
X80610931Y-39114004D01*
X80735228Y-39150500D01*
X80735230Y-39150500D01*
X80864770Y-39150500D01*
X80864772Y-39150500D01*
X80989069Y-39114004D01*
X81098049Y-39043967D01*
X81136147Y-38999999D01*
X87594318Y-38999999D01*
X87594318Y-39000000D01*
X87614955Y-39156758D01*
X87614957Y-39156766D01*
X87675462Y-39302838D01*
X87675462Y-39302839D01*
X87716842Y-39356766D01*
X87771718Y-39428282D01*
X87897159Y-39524536D01*
X87897160Y-39524536D01*
X87897161Y-39524537D01*
X87918421Y-39533343D01*
X88043238Y-39585044D01*
X88160809Y-39600522D01*
X88199999Y-39605682D01*
X88200000Y-39605682D01*
X88200001Y-39605682D01*
X88231352Y-39601554D01*
X88356762Y-39585044D01*
X88502841Y-39524536D01*
X88628282Y-39428282D01*
X88724536Y-39302841D01*
X88767135Y-39199999D01*
X114494318Y-39199999D01*
X114494318Y-39200000D01*
X114514955Y-39356758D01*
X114514957Y-39356766D01*
X114575462Y-39502838D01*
X114575462Y-39502839D01*
X114638540Y-39585044D01*
X114671718Y-39628282D01*
X114797159Y-39724536D01*
X114797160Y-39724536D01*
X114797161Y-39724537D01*
X114873199Y-39756033D01*
X114943238Y-39785044D01*
X115060809Y-39800522D01*
X115099999Y-39805682D01*
X115100000Y-39805682D01*
X115100001Y-39805682D01*
X115131352Y-39801554D01*
X115256762Y-39785044D01*
X115402841Y-39724536D01*
X115528282Y-39628282D01*
X115624536Y-39502841D01*
X115685044Y-39356762D01*
X115705682Y-39200000D01*
X115685044Y-39043238D01*
X115667134Y-38999999D01*
X115624537Y-38897161D01*
X115624537Y-38897160D01*
X115528286Y-38771723D01*
X115528285Y-38771722D01*
X115528282Y-38771718D01*
X115528277Y-38771714D01*
X115528276Y-38771713D01*
X115453064Y-38714001D01*
X115402841Y-38675464D01*
X115402840Y-38675463D01*
X115402838Y-38675462D01*
X115256766Y-38614957D01*
X115256758Y-38614955D01*
X115100001Y-38594318D01*
X115099999Y-38594318D01*
X114943241Y-38614955D01*
X114943233Y-38614957D01*
X114797161Y-38675462D01*
X114797160Y-38675462D01*
X114671723Y-38771713D01*
X114671713Y-38771723D01*
X114575462Y-38897160D01*
X114575462Y-38897161D01*
X114514957Y-39043233D01*
X114514955Y-39043241D01*
X114494318Y-39199999D01*
X88767135Y-39199999D01*
X88785044Y-39156762D01*
X88805682Y-39000000D01*
X88785044Y-38843238D01*
X88767133Y-38799997D01*
X88724537Y-38697161D01*
X88724537Y-38697160D01*
X88628286Y-38571723D01*
X88628285Y-38571722D01*
X88628282Y-38571718D01*
X88628277Y-38571714D01*
X88628276Y-38571713D01*
X88514479Y-38484394D01*
X88502841Y-38475464D01*
X88502840Y-38475463D01*
X88502838Y-38475462D01*
X88356766Y-38414957D01*
X88356758Y-38414955D01*
X88200001Y-38394318D01*
X88199999Y-38394318D01*
X88043241Y-38414955D01*
X88043233Y-38414957D01*
X87897161Y-38475462D01*
X87897160Y-38475462D01*
X87771723Y-38571713D01*
X87771713Y-38571723D01*
X87675462Y-38697160D01*
X87675462Y-38697161D01*
X87614957Y-38843233D01*
X87614955Y-38843241D01*
X87594318Y-38999999D01*
X81136147Y-38999999D01*
X81182882Y-38946063D01*
X81236697Y-38828226D01*
X81244822Y-38771713D01*
X81255133Y-38700002D01*
X81255133Y-38699997D01*
X81236697Y-38571774D01*
X81211754Y-38517157D01*
X81182882Y-38453937D01*
X81098049Y-38356033D01*
X81098048Y-38356032D01*
X81098047Y-38356031D01*
X81010856Y-38299997D01*
X85444867Y-38299997D01*
X85444867Y-38300002D01*
X85463302Y-38428225D01*
X85503917Y-38517157D01*
X85517118Y-38546063D01*
X85576814Y-38614957D01*
X85601952Y-38643968D01*
X85689140Y-38700000D01*
X85710931Y-38714004D01*
X85835228Y-38750500D01*
X85835230Y-38750500D01*
X85964770Y-38750500D01*
X85964772Y-38750500D01*
X86089069Y-38714004D01*
X86198049Y-38643967D01*
X86282882Y-38546063D01*
X86336697Y-38428226D01*
X86349720Y-38337647D01*
X86355133Y-38300002D01*
X86355133Y-38299997D01*
X89844857Y-38299997D01*
X89844857Y-38300002D01*
X89863292Y-38428225D01*
X89903907Y-38517157D01*
X89917108Y-38546063D01*
X89976804Y-38614957D01*
X90001942Y-38643968D01*
X90089130Y-38700000D01*
X90110921Y-38714004D01*
X90235218Y-38750500D01*
X90235220Y-38750500D01*
X90364760Y-38750500D01*
X90364762Y-38750500D01*
X90489059Y-38714004D01*
X90598039Y-38643967D01*
X90682872Y-38546063D01*
X90736687Y-38428226D01*
X90749710Y-38337647D01*
X90755123Y-38300002D01*
X90755123Y-38299997D01*
X90736687Y-38171774D01*
X90728654Y-38154185D01*
X90682872Y-38053937D01*
X90598039Y-37956033D01*
X90598038Y-37956032D01*
X90598037Y-37956031D01*
X90489063Y-37885998D01*
X90489060Y-37885996D01*
X90489059Y-37885996D01*
X90489056Y-37885995D01*
X90364764Y-37849500D01*
X90364762Y-37849500D01*
X90235218Y-37849500D01*
X90235215Y-37849500D01*
X90110923Y-37885995D01*
X90110916Y-37885998D01*
X90001942Y-37956031D01*
X89917107Y-38053938D01*
X89863292Y-38171774D01*
X89844857Y-38299997D01*
X86355133Y-38299997D01*
X86336697Y-38171774D01*
X86328664Y-38154185D01*
X86282882Y-38053937D01*
X86198049Y-37956033D01*
X86198048Y-37956032D01*
X86198047Y-37956031D01*
X86089073Y-37885998D01*
X86089070Y-37885996D01*
X86089069Y-37885996D01*
X86089066Y-37885995D01*
X85964774Y-37849500D01*
X85964772Y-37849500D01*
X85835228Y-37849500D01*
X85835225Y-37849500D01*
X85710933Y-37885995D01*
X85710926Y-37885998D01*
X85601952Y-37956031D01*
X85517117Y-38053938D01*
X85463302Y-38171774D01*
X85444867Y-38299997D01*
X81010856Y-38299997D01*
X80989073Y-38285998D01*
X80989070Y-38285996D01*
X80989069Y-38285996D01*
X80989066Y-38285995D01*
X80864774Y-38249500D01*
X80864772Y-38249500D01*
X80735228Y-38249500D01*
X80735225Y-38249500D01*
X80610933Y-38285995D01*
X80610926Y-38285998D01*
X80501952Y-38356031D01*
X80417117Y-38453938D01*
X80363302Y-38571774D01*
X80344867Y-38699997D01*
X79994598Y-38699997D01*
X80019540Y-38645383D01*
X80036958Y-38524238D01*
X80037976Y-38517159D01*
X80037976Y-38517154D01*
X80019540Y-38388931D01*
X79980366Y-38303153D01*
X79965725Y-38271094D01*
X79880892Y-38173190D01*
X79880891Y-38173189D01*
X79880890Y-38173188D01*
X79771916Y-38103155D01*
X79771913Y-38103153D01*
X79771912Y-38103153D01*
X79771909Y-38103152D01*
X79647617Y-38066657D01*
X79647615Y-38066657D01*
X79518071Y-38066657D01*
X79518068Y-38066657D01*
X79393776Y-38103152D01*
X79393769Y-38103155D01*
X79284795Y-38173188D01*
X79199960Y-38271095D01*
X79146145Y-38388931D01*
X79127710Y-38517154D01*
X79127710Y-38517161D01*
X79128011Y-38519255D01*
X79127710Y-38520994D01*
X79127710Y-38524238D01*
X79127149Y-38524238D01*
X79117577Y-38579544D01*
X79073699Y-38622186D01*
X79030019Y-38632343D01*
X78952382Y-38632343D01*
X78828090Y-38668838D01*
X78828083Y-38668841D01*
X78719109Y-38738874D01*
X78634274Y-38836781D01*
X78580459Y-38954617D01*
X78562024Y-39082840D01*
X68486760Y-39082840D01*
X68465725Y-39036780D01*
X68380892Y-38938876D01*
X68380891Y-38938875D01*
X68380890Y-38938874D01*
X68271916Y-38868841D01*
X68271913Y-38868839D01*
X68271912Y-38868839D01*
X68271909Y-38868838D01*
X68147617Y-38832343D01*
X68147615Y-38832343D01*
X68069981Y-38832343D01*
X68011790Y-38813436D01*
X67975826Y-38763936D01*
X67972417Y-38724238D01*
X67972290Y-38724238D01*
X67972290Y-38722760D01*
X67971989Y-38719255D01*
X67972290Y-38717161D01*
X67972290Y-38717154D01*
X67953854Y-38588931D01*
X67937873Y-38553938D01*
X67900039Y-38471094D01*
X67815206Y-38373190D01*
X67815205Y-38373189D01*
X67815204Y-38373188D01*
X67706230Y-38303155D01*
X67706227Y-38303153D01*
X67706226Y-38303153D01*
X67706223Y-38303152D01*
X67581931Y-38266657D01*
X67581929Y-38266657D01*
X67452385Y-38266657D01*
X67452382Y-38266657D01*
X67328090Y-38303152D01*
X67328083Y-38303155D01*
X67219109Y-38373188D01*
X67134274Y-38471095D01*
X67080459Y-38588931D01*
X67062024Y-38717154D01*
X66743222Y-38717154D01*
X66736697Y-38671774D01*
X66718689Y-38632343D01*
X66682882Y-38553937D01*
X66598049Y-38456033D01*
X66598048Y-38456032D01*
X66598047Y-38456031D01*
X66489073Y-38385998D01*
X66489070Y-38385996D01*
X66489069Y-38385996D01*
X66489066Y-38385995D01*
X66364774Y-38349500D01*
X66364772Y-38349500D01*
X66235228Y-38349500D01*
X66235225Y-38349500D01*
X66110933Y-38385995D01*
X66110926Y-38385998D01*
X66001952Y-38456031D01*
X65917117Y-38553938D01*
X65863302Y-38671774D01*
X65844867Y-38799997D01*
X42705500Y-38799997D01*
X42705500Y-37599997D01*
X93744867Y-37599997D01*
X93744867Y-37600002D01*
X93763302Y-37728225D01*
X93817117Y-37846061D01*
X93817118Y-37846063D01*
X93901951Y-37943967D01*
X93901952Y-37943968D01*
X93920726Y-37956033D01*
X94010931Y-38014004D01*
X94135228Y-38050500D01*
X94135230Y-38050500D01*
X94264770Y-38050500D01*
X94264772Y-38050500D01*
X94389069Y-38014004D01*
X94498049Y-37943967D01*
X94582882Y-37846063D01*
X94636697Y-37728226D01*
X94655133Y-37600000D01*
X94636697Y-37471774D01*
X94582882Y-37353937D01*
X94498049Y-37256033D01*
X94498048Y-37256032D01*
X94498047Y-37256031D01*
X94389073Y-37185998D01*
X94389070Y-37185996D01*
X94389069Y-37185996D01*
X94389066Y-37185995D01*
X94264774Y-37149500D01*
X94264772Y-37149500D01*
X94135228Y-37149500D01*
X94135225Y-37149500D01*
X94010933Y-37185995D01*
X94010926Y-37185998D01*
X93901952Y-37256031D01*
X93817117Y-37353938D01*
X93763302Y-37471774D01*
X93744867Y-37599997D01*
X42705500Y-37599997D01*
X42705500Y-37099997D01*
X85444867Y-37099997D01*
X85444867Y-37100002D01*
X85463302Y-37228225D01*
X85476001Y-37256031D01*
X85517118Y-37346063D01*
X85523941Y-37353937D01*
X85601952Y-37443968D01*
X85710926Y-37514001D01*
X85710931Y-37514004D01*
X85835228Y-37550500D01*
X85835230Y-37550500D01*
X85964770Y-37550500D01*
X85964772Y-37550500D01*
X86089069Y-37514004D01*
X86198049Y-37443967D01*
X86282882Y-37346063D01*
X86336697Y-37228226D01*
X86348016Y-37149500D01*
X86355133Y-37100002D01*
X86355133Y-37099997D01*
X88944867Y-37099997D01*
X88944867Y-37100002D01*
X88963302Y-37228225D01*
X88976001Y-37256031D01*
X89017118Y-37346063D01*
X89023941Y-37353937D01*
X89101952Y-37443968D01*
X89210926Y-37514001D01*
X89210931Y-37514004D01*
X89335228Y-37550500D01*
X89335230Y-37550500D01*
X89464770Y-37550500D01*
X89464772Y-37550500D01*
X89589069Y-37514004D01*
X89698049Y-37443967D01*
X89782882Y-37346063D01*
X89836697Y-37228226D01*
X89848016Y-37149500D01*
X89855133Y-37100002D01*
X89855133Y-37099999D01*
X103694318Y-37099999D01*
X103694318Y-37100000D01*
X103714955Y-37256758D01*
X103714957Y-37256766D01*
X103775462Y-37402838D01*
X103775462Y-37402839D01*
X103860762Y-37514004D01*
X103871718Y-37528282D01*
X103997159Y-37624536D01*
X103997160Y-37624536D01*
X103997161Y-37624537D01*
X104143233Y-37685042D01*
X104143238Y-37685044D01*
X104256841Y-37700000D01*
X104299999Y-37705682D01*
X104300000Y-37705682D01*
X104300001Y-37705682D01*
X104331352Y-37701554D01*
X104456762Y-37685044D01*
X104602841Y-37624536D01*
X104728282Y-37528282D01*
X104824536Y-37402841D01*
X104885044Y-37256762D01*
X104899606Y-37146155D01*
X111199500Y-37146155D01*
X111199500Y-37853844D01*
X111230263Y-38008496D01*
X111230263Y-38008498D01*
X111290603Y-38154174D01*
X111290609Y-38154185D01*
X111343312Y-38233059D01*
X111378211Y-38285289D01*
X111489711Y-38396789D01*
X111536760Y-38428226D01*
X111620814Y-38484390D01*
X111620825Y-38484396D01*
X111674638Y-38506685D01*
X111766503Y-38544737D01*
X111921158Y-38575500D01*
X111921159Y-38575500D01*
X112078841Y-38575500D01*
X112078842Y-38575500D01*
X112233497Y-38544737D01*
X112379179Y-38484394D01*
X112510289Y-38396789D01*
X112621789Y-38285289D01*
X112709394Y-38154179D01*
X112769737Y-38008497D01*
X112800500Y-37853842D01*
X112800500Y-37146158D01*
X112769737Y-36991503D01*
X112709394Y-36845821D01*
X112709393Y-36845819D01*
X112709390Y-36845814D01*
X112692668Y-36820788D01*
X113200000Y-36820788D01*
X113200000Y-37299999D01*
X113200001Y-37300000D01*
X113682457Y-37300000D01*
X113650556Y-37355255D01*
X113625000Y-37450630D01*
X113625000Y-37549370D01*
X113650556Y-37644745D01*
X113682457Y-37700000D01*
X113200002Y-37700000D01*
X113200001Y-37700001D01*
X113200001Y-38179203D01*
X113202850Y-38209600D01*
X113202850Y-38209602D01*
X113247654Y-38337647D01*
X113328207Y-38446790D01*
X113328209Y-38446792D01*
X113437352Y-38527345D01*
X113565398Y-38572149D01*
X113595789Y-38574999D01*
X113799998Y-38574999D01*
X113800000Y-38574998D01*
X113800000Y-37817542D01*
X113855255Y-37849444D01*
X113950630Y-37875000D01*
X114049370Y-37875000D01*
X114144745Y-37849444D01*
X114200000Y-37817542D01*
X114200000Y-38574998D01*
X114200001Y-38574999D01*
X114404203Y-38574999D01*
X114434600Y-38572149D01*
X114434602Y-38572149D01*
X114562647Y-38527345D01*
X114671790Y-38446792D01*
X114671792Y-38446790D01*
X114752345Y-38337647D01*
X114797149Y-38209601D01*
X114799999Y-38179211D01*
X114800000Y-38179210D01*
X114800000Y-37700001D01*
X114799999Y-37700000D01*
X114317543Y-37700000D01*
X114349444Y-37644745D01*
X114375000Y-37549370D01*
X114375000Y-37450630D01*
X114349444Y-37355255D01*
X114317543Y-37300000D01*
X114799998Y-37300000D01*
X114799999Y-37299999D01*
X114799999Y-36820796D01*
X114797149Y-36790399D01*
X114797149Y-36790397D01*
X114752345Y-36662352D01*
X114671792Y-36553209D01*
X114671790Y-36553207D01*
X114562647Y-36472654D01*
X114434601Y-36427850D01*
X114404211Y-36425000D01*
X114200001Y-36425000D01*
X114200000Y-36425001D01*
X114200000Y-37182457D01*
X114144745Y-37150556D01*
X114049370Y-37125000D01*
X113950630Y-37125000D01*
X113855255Y-37150556D01*
X113800000Y-37182457D01*
X113800000Y-36425001D01*
X113799999Y-36425000D01*
X113595796Y-36425000D01*
X113565399Y-36427850D01*
X113565397Y-36427850D01*
X113437352Y-36472654D01*
X113328209Y-36553207D01*
X113328207Y-36553209D01*
X113247654Y-36662352D01*
X113202850Y-36790398D01*
X113200000Y-36820788D01*
X112692668Y-36820788D01*
X112672361Y-36790397D01*
X112621789Y-36714711D01*
X112510289Y-36603211D01*
X112421626Y-36543968D01*
X112379185Y-36515609D01*
X112379174Y-36515603D01*
X112233497Y-36455263D01*
X112078844Y-36424500D01*
X112078842Y-36424500D01*
X111921158Y-36424500D01*
X111921155Y-36424500D01*
X111766503Y-36455263D01*
X111766501Y-36455263D01*
X111620825Y-36515603D01*
X111620814Y-36515609D01*
X111489711Y-36603211D01*
X111489707Y-36603214D01*
X111378214Y-36714707D01*
X111378211Y-36714711D01*
X111290609Y-36845814D01*
X111290603Y-36845825D01*
X111230263Y-36991501D01*
X111230263Y-36991503D01*
X111199500Y-37146155D01*
X104899606Y-37146155D01*
X104905682Y-37100000D01*
X104885044Y-36943238D01*
X104844694Y-36845825D01*
X104824537Y-36797161D01*
X104824537Y-36797160D01*
X104728286Y-36671723D01*
X104728285Y-36671722D01*
X104728282Y-36671718D01*
X104728277Y-36671714D01*
X104728276Y-36671713D01*
X104653064Y-36614001D01*
X104602841Y-36575464D01*
X104602840Y-36575463D01*
X104602838Y-36575462D01*
X104456766Y-36514957D01*
X104456758Y-36514955D01*
X104300001Y-36494318D01*
X104299999Y-36494318D01*
X104143241Y-36514955D01*
X104143233Y-36514957D01*
X103997161Y-36575462D01*
X103997160Y-36575462D01*
X103871723Y-36671713D01*
X103871713Y-36671723D01*
X103775462Y-36797160D01*
X103775462Y-36797161D01*
X103714957Y-36943233D01*
X103714955Y-36943241D01*
X103694318Y-37099999D01*
X89855133Y-37099999D01*
X89855133Y-37099997D01*
X89836697Y-36971774D01*
X89823665Y-36943238D01*
X89782882Y-36853937D01*
X89698049Y-36756033D01*
X89698048Y-36756032D01*
X89698047Y-36756031D01*
X89589073Y-36685998D01*
X89589070Y-36685996D01*
X89589069Y-36685996D01*
X89589066Y-36685995D01*
X89464774Y-36649500D01*
X89464772Y-36649500D01*
X89335228Y-36649500D01*
X89335225Y-36649500D01*
X89210933Y-36685995D01*
X89210926Y-36685998D01*
X89101952Y-36756031D01*
X89017117Y-36853938D01*
X88963302Y-36971774D01*
X88944867Y-37099997D01*
X86355133Y-37099997D01*
X86336697Y-36971774D01*
X86323665Y-36943238D01*
X86282882Y-36853937D01*
X86198049Y-36756033D01*
X86198048Y-36756032D01*
X86198047Y-36756031D01*
X86089073Y-36685998D01*
X86089070Y-36685996D01*
X86089069Y-36685996D01*
X86089066Y-36685995D01*
X85964774Y-36649500D01*
X85964772Y-36649500D01*
X85835228Y-36649500D01*
X85835225Y-36649500D01*
X85710933Y-36685995D01*
X85710926Y-36685998D01*
X85601952Y-36756031D01*
X85517117Y-36853938D01*
X85463302Y-36971774D01*
X85444867Y-37099997D01*
X42705500Y-37099997D01*
X42705500Y-36199997D01*
X44144867Y-36199997D01*
X44144867Y-36200002D01*
X44163302Y-36328225D01*
X44207270Y-36424500D01*
X44217118Y-36446063D01*
X44277379Y-36515609D01*
X44301952Y-36543968D01*
X44394141Y-36603214D01*
X44410931Y-36614004D01*
X44535228Y-36650500D01*
X44535230Y-36650500D01*
X44664770Y-36650500D01*
X44664772Y-36650500D01*
X44789069Y-36614004D01*
X44898049Y-36543967D01*
X44982882Y-36446063D01*
X45036697Y-36328226D01*
X45055133Y-36200000D01*
X45055133Y-36199997D01*
X52544867Y-36199997D01*
X52544867Y-36200002D01*
X52563302Y-36328225D01*
X52607270Y-36424500D01*
X52617118Y-36446063D01*
X52677379Y-36515609D01*
X52701952Y-36543968D01*
X52794141Y-36603214D01*
X52810931Y-36614004D01*
X52935228Y-36650500D01*
X52935230Y-36650500D01*
X53064770Y-36650500D01*
X53064772Y-36650500D01*
X53189069Y-36614004D01*
X53298049Y-36543967D01*
X53382882Y-36446063D01*
X53436697Y-36328226D01*
X53455133Y-36200000D01*
X53436697Y-36071774D01*
X53382882Y-35953937D01*
X53298049Y-35856033D01*
X53298048Y-35856032D01*
X53298047Y-35856031D01*
X53189073Y-35785998D01*
X53189070Y-35785996D01*
X53189069Y-35785996D01*
X53189066Y-35785995D01*
X53064774Y-35749500D01*
X53064772Y-35749500D01*
X52935228Y-35749500D01*
X52935225Y-35749500D01*
X52810933Y-35785995D01*
X52810926Y-35785998D01*
X52701952Y-35856031D01*
X52617117Y-35953938D01*
X52563302Y-36071774D01*
X52544867Y-36199997D01*
X45055133Y-36199997D01*
X45036697Y-36071774D01*
X44982882Y-35953937D01*
X44898049Y-35856033D01*
X44898048Y-35856032D01*
X44898047Y-35856031D01*
X44789073Y-35785998D01*
X44789070Y-35785996D01*
X44789069Y-35785996D01*
X44789066Y-35785995D01*
X44664774Y-35749500D01*
X44664772Y-35749500D01*
X44535228Y-35749500D01*
X44535225Y-35749500D01*
X44410933Y-35785995D01*
X44410926Y-35785998D01*
X44301952Y-35856031D01*
X44217117Y-35953938D01*
X44163302Y-36071774D01*
X44144867Y-36199997D01*
X42705500Y-36199997D01*
X42705500Y-35499999D01*
X83094318Y-35499999D01*
X83094318Y-35500000D01*
X83114955Y-35656758D01*
X83114957Y-35656766D01*
X83175462Y-35802838D01*
X83175462Y-35802839D01*
X83260762Y-35914004D01*
X83271718Y-35928282D01*
X83397159Y-36024536D01*
X83397160Y-36024536D01*
X83397161Y-36024537D01*
X83444072Y-36043968D01*
X83543238Y-36085044D01*
X83660809Y-36100522D01*
X83699999Y-36105682D01*
X83700000Y-36105682D01*
X83700001Y-36105682D01*
X83731352Y-36101554D01*
X83856762Y-36085044D01*
X84002841Y-36024536D01*
X84128282Y-35928282D01*
X84224536Y-35802841D01*
X84285044Y-35656762D01*
X84305682Y-35500000D01*
X84305682Y-35499997D01*
X89344867Y-35499997D01*
X89344867Y-35500002D01*
X89363302Y-35628225D01*
X89376333Y-35656758D01*
X89417118Y-35746063D01*
X89466313Y-35802838D01*
X89501952Y-35843968D01*
X89520726Y-35856033D01*
X89610931Y-35914004D01*
X89735228Y-35950500D01*
X89735230Y-35950500D01*
X89864770Y-35950500D01*
X89864772Y-35950500D01*
X89989069Y-35914004D01*
X90098049Y-35843967D01*
X90182882Y-35746063D01*
X90191705Y-35726743D01*
X100401097Y-35726743D01*
X100480298Y-35749999D01*
X100480301Y-35750000D01*
X100609699Y-35750000D01*
X100609701Y-35749999D01*
X100688901Y-35726743D01*
X102311097Y-35726743D01*
X102390298Y-35749999D01*
X102390301Y-35750000D01*
X102519699Y-35750000D01*
X102519701Y-35749999D01*
X102598901Y-35726743D01*
X102572155Y-35699997D01*
X107144867Y-35699997D01*
X107144867Y-35700002D01*
X107163302Y-35828225D01*
X107208999Y-35928286D01*
X107217118Y-35946063D01*
X107220962Y-35950499D01*
X107301952Y-36043968D01*
X107410926Y-36114001D01*
X107410931Y-36114004D01*
X107535228Y-36150500D01*
X107535230Y-36150500D01*
X107664770Y-36150500D01*
X107664772Y-36150500D01*
X107789069Y-36114004D01*
X107898049Y-36043967D01*
X107982882Y-35946063D01*
X108036697Y-35828226D01*
X108048510Y-35746063D01*
X108055133Y-35700002D01*
X108055133Y-35699997D01*
X108036697Y-35571774D01*
X108003919Y-35500002D01*
X107982882Y-35453937D01*
X107898049Y-35356033D01*
X107898048Y-35356032D01*
X107898047Y-35356031D01*
X107789073Y-35285998D01*
X107789070Y-35285996D01*
X107789069Y-35285996D01*
X107789066Y-35285995D01*
X107664774Y-35249500D01*
X107664772Y-35249500D01*
X107535228Y-35249500D01*
X107535225Y-35249500D01*
X107410933Y-35285995D01*
X107410926Y-35285998D01*
X107301952Y-35356031D01*
X107217117Y-35453938D01*
X107163302Y-35571774D01*
X107144867Y-35699997D01*
X102572155Y-35699997D01*
X102455000Y-35582843D01*
X102311097Y-35726743D01*
X100688901Y-35726743D01*
X100545000Y-35582843D01*
X100401097Y-35726743D01*
X90191705Y-35726743D01*
X90236697Y-35628226D01*
X90255133Y-35500000D01*
X90248510Y-35453938D01*
X90236697Y-35371774D01*
X90223665Y-35343238D01*
X90203917Y-35299997D01*
X100090373Y-35299997D01*
X100090373Y-35300002D01*
X100108787Y-35428077D01*
X100108789Y-35428083D01*
X100116714Y-35445440D01*
X100116715Y-35445440D01*
X100262156Y-35300000D01*
X100242265Y-35280109D01*
X100445000Y-35280109D01*
X100445000Y-35319891D01*
X100460224Y-35356645D01*
X100488355Y-35384776D01*
X100525109Y-35400000D01*
X100564891Y-35400000D01*
X100601645Y-35384776D01*
X100629776Y-35356645D01*
X100645000Y-35319891D01*
X100645000Y-35299999D01*
X100827843Y-35299999D01*
X100973283Y-35445439D01*
X100981211Y-35428080D01*
X100981212Y-35428077D01*
X100999627Y-35300002D01*
X100999627Y-35299997D01*
X102000373Y-35299997D01*
X102000373Y-35300002D01*
X102018787Y-35428077D01*
X102018789Y-35428083D01*
X102026714Y-35445440D01*
X102026715Y-35445440D01*
X102172156Y-35300000D01*
X102152265Y-35280109D01*
X102355000Y-35280109D01*
X102355000Y-35319891D01*
X102370224Y-35356645D01*
X102398355Y-35384776D01*
X102435109Y-35400000D01*
X102474891Y-35400000D01*
X102511645Y-35384776D01*
X102539776Y-35356645D01*
X102555000Y-35319891D01*
X102555000Y-35299999D01*
X102737843Y-35299999D01*
X102883283Y-35445439D01*
X102891211Y-35428080D01*
X102891212Y-35428077D01*
X102909627Y-35300002D01*
X102909627Y-35299997D01*
X102891212Y-35171919D01*
X102883283Y-35154558D01*
X102737843Y-35299999D01*
X102555000Y-35299999D01*
X102555000Y-35280109D01*
X102539776Y-35243355D01*
X102511645Y-35215224D01*
X102474891Y-35200000D01*
X102435109Y-35200000D01*
X102398355Y-35215224D01*
X102370224Y-35243355D01*
X102355000Y-35280109D01*
X102152265Y-35280109D01*
X102026714Y-35154558D01*
X102018789Y-35171916D01*
X102018788Y-35171920D01*
X102000373Y-35299997D01*
X100999627Y-35299997D01*
X100981212Y-35171919D01*
X100973283Y-35154558D01*
X100827843Y-35299999D01*
X100645000Y-35299999D01*
X100645000Y-35280109D01*
X100629776Y-35243355D01*
X100601645Y-35215224D01*
X100564891Y-35200000D01*
X100525109Y-35200000D01*
X100488355Y-35215224D01*
X100460224Y-35243355D01*
X100445000Y-35280109D01*
X100242265Y-35280109D01*
X100116714Y-35154558D01*
X100108789Y-35171916D01*
X100108788Y-35171920D01*
X100090373Y-35299997D01*
X90203917Y-35299997D01*
X90182882Y-35253937D01*
X90098049Y-35156033D01*
X90098048Y-35156032D01*
X90098047Y-35156031D01*
X89989073Y-35085998D01*
X89989070Y-35085996D01*
X89989069Y-35085996D01*
X89989066Y-35085995D01*
X89864774Y-35049500D01*
X89864772Y-35049500D01*
X89735228Y-35049500D01*
X89735225Y-35049500D01*
X89610933Y-35085995D01*
X89610926Y-35085998D01*
X89501952Y-35156031D01*
X89417117Y-35253938D01*
X89363302Y-35371774D01*
X89344867Y-35499997D01*
X84305682Y-35499997D01*
X84285044Y-35343238D01*
X84246630Y-35250499D01*
X84224537Y-35197161D01*
X84224537Y-35197160D01*
X84128286Y-35071723D01*
X84128285Y-35071722D01*
X84128282Y-35071718D01*
X84128277Y-35071714D01*
X84128276Y-35071713D01*
X84002838Y-34975462D01*
X83856766Y-34914957D01*
X83856758Y-34914955D01*
X83700001Y-34894318D01*
X83699999Y-34894318D01*
X83543241Y-34914955D01*
X83543233Y-34914957D01*
X83397161Y-34975462D01*
X83397160Y-34975462D01*
X83271723Y-35071713D01*
X83271713Y-35071723D01*
X83175462Y-35197160D01*
X83175462Y-35197161D01*
X83114957Y-35343233D01*
X83114955Y-35343241D01*
X83094318Y-35499999D01*
X42705500Y-35499999D01*
X42705500Y-34099997D01*
X67444867Y-34099997D01*
X67444867Y-34100002D01*
X67463302Y-34228225D01*
X67517118Y-34346063D01*
X67551003Y-34385170D01*
X67574820Y-34441530D01*
X67560961Y-34501125D01*
X67551003Y-34514830D01*
X67517118Y-34553936D01*
X67463302Y-34671774D01*
X67444867Y-34799997D01*
X67444867Y-34800002D01*
X67463302Y-34928225D01*
X67508999Y-35028286D01*
X67517118Y-35046063D01*
X67585114Y-35124536D01*
X67601952Y-35143968D01*
X67710926Y-35214001D01*
X67710931Y-35214004D01*
X67835228Y-35250500D01*
X67835230Y-35250500D01*
X67964770Y-35250500D01*
X67964772Y-35250500D01*
X68089069Y-35214004D01*
X68198049Y-35143967D01*
X68282882Y-35046063D01*
X68336697Y-34928226D01*
X68355133Y-34800000D01*
X68348916Y-34756762D01*
X68336697Y-34671774D01*
X68282882Y-34553937D01*
X68248997Y-34514831D01*
X68225179Y-34458472D01*
X68239038Y-34398876D01*
X68248997Y-34385169D01*
X68249760Y-34384287D01*
X68282882Y-34346063D01*
X68336697Y-34228226D01*
X68354901Y-34101613D01*
X68355133Y-34100002D01*
X68355133Y-34099997D01*
X68336697Y-33971774D01*
X68310871Y-33915224D01*
X68282882Y-33853937D01*
X68198049Y-33756033D01*
X68198048Y-33756032D01*
X68198047Y-33756031D01*
X68089073Y-33685998D01*
X68089070Y-33685996D01*
X68089069Y-33685996D01*
X68089066Y-33685995D01*
X67964774Y-33649500D01*
X67964772Y-33649500D01*
X67835228Y-33649500D01*
X67835225Y-33649500D01*
X67710933Y-33685995D01*
X67710926Y-33685998D01*
X67601952Y-33756031D01*
X67517117Y-33853938D01*
X67463302Y-33971774D01*
X67444867Y-34099997D01*
X42705500Y-34099997D01*
X42705500Y-33399999D01*
X96794318Y-33399999D01*
X96794318Y-33400000D01*
X96814955Y-33556758D01*
X96814957Y-33556766D01*
X96875462Y-33702838D01*
X96875462Y-33702839D01*
X96971713Y-33828276D01*
X96971718Y-33828282D01*
X96971722Y-33828285D01*
X96971723Y-33828286D01*
X97093147Y-33921458D01*
X97127803Y-33971883D01*
X97126201Y-34033047D01*
X97093147Y-34078542D01*
X96971723Y-34171713D01*
X96971713Y-34171723D01*
X96875462Y-34297160D01*
X96875462Y-34297161D01*
X96814957Y-34443233D01*
X96814955Y-34443241D01*
X96794318Y-34599999D01*
X96794318Y-34600000D01*
X96814955Y-34756758D01*
X96814957Y-34756766D01*
X96875462Y-34902838D01*
X96875462Y-34902839D01*
X96971713Y-35028276D01*
X96971718Y-35028282D01*
X97097159Y-35124536D01*
X97097160Y-35124536D01*
X97097161Y-35124537D01*
X97173199Y-35156033D01*
X97243238Y-35185044D01*
X97356841Y-35200000D01*
X97399999Y-35205682D01*
X97400000Y-35205682D01*
X97400001Y-35205682D01*
X97443159Y-35200000D01*
X97556762Y-35185044D01*
X97702841Y-35124536D01*
X97828282Y-35028282D01*
X97924536Y-34902841D01*
X97936791Y-34873254D01*
X100401098Y-34873254D01*
X100545000Y-35017156D01*
X100688901Y-34873254D01*
X102311098Y-34873254D01*
X102455000Y-35017156D01*
X102598901Y-34873254D01*
X102519702Y-34850000D01*
X102390297Y-34850000D01*
X102311098Y-34873254D01*
X100688901Y-34873254D01*
X100609702Y-34850000D01*
X100480297Y-34850000D01*
X100401098Y-34873254D01*
X97936791Y-34873254D01*
X97985044Y-34756762D01*
X98005682Y-34600000D01*
X97985044Y-34443238D01*
X97978212Y-34426743D01*
X100401097Y-34426743D01*
X100480298Y-34449999D01*
X100480301Y-34450000D01*
X100609699Y-34450000D01*
X100609701Y-34449999D01*
X100688901Y-34426743D01*
X102311097Y-34426743D01*
X102390298Y-34449999D01*
X102390301Y-34450000D01*
X102519699Y-34450000D01*
X102519701Y-34449999D01*
X102598901Y-34426743D01*
X102455000Y-34282843D01*
X102311097Y-34426743D01*
X100688901Y-34426743D01*
X100545000Y-34282843D01*
X100401097Y-34426743D01*
X97978212Y-34426743D01*
X97966669Y-34398876D01*
X97924537Y-34297161D01*
X97924537Y-34297160D01*
X97828286Y-34171723D01*
X97828285Y-34171722D01*
X97828282Y-34171718D01*
X97828277Y-34171714D01*
X97828276Y-34171713D01*
X97736919Y-34101613D01*
X97706851Y-34078541D01*
X97672196Y-34028118D01*
X97672932Y-33999997D01*
X100090373Y-33999997D01*
X100090373Y-34000000D01*
X100108787Y-34128077D01*
X100108789Y-34128083D01*
X100116714Y-34145440D01*
X100116715Y-34145440D01*
X100262156Y-34000000D01*
X100242265Y-33980109D01*
X100445000Y-33980109D01*
X100445000Y-34019891D01*
X100460224Y-34056645D01*
X100488355Y-34084776D01*
X100525109Y-34100000D01*
X100564891Y-34100000D01*
X100601645Y-34084776D01*
X100629776Y-34056645D01*
X100645000Y-34019891D01*
X100645000Y-33999999D01*
X100827843Y-33999999D01*
X100973283Y-34145439D01*
X100981211Y-34128080D01*
X100981212Y-34128077D01*
X100999627Y-34000000D01*
X100999627Y-33999997D01*
X102000373Y-33999997D01*
X102000373Y-34000000D01*
X102018787Y-34128077D01*
X102018789Y-34128083D01*
X102026714Y-34145440D01*
X102026715Y-34145440D01*
X102172156Y-34000000D01*
X102152265Y-33980109D01*
X102355000Y-33980109D01*
X102355000Y-34019891D01*
X102370224Y-34056645D01*
X102398355Y-34084776D01*
X102435109Y-34100000D01*
X102474891Y-34100000D01*
X102511645Y-34084776D01*
X102539776Y-34056645D01*
X102555000Y-34019891D01*
X102555000Y-33999999D01*
X102737843Y-33999999D01*
X102883283Y-34145439D01*
X102891211Y-34128080D01*
X102891212Y-34128077D01*
X102909627Y-34000000D01*
X102909627Y-33999997D01*
X102891212Y-33871919D01*
X102883283Y-33854558D01*
X102737843Y-33999999D01*
X102555000Y-33999999D01*
X102555000Y-33980109D01*
X102539776Y-33943355D01*
X102511645Y-33915224D01*
X102474891Y-33900000D01*
X102435109Y-33900000D01*
X102398355Y-33915224D01*
X102370224Y-33943355D01*
X102355000Y-33980109D01*
X102152265Y-33980109D01*
X102026714Y-33854558D01*
X102018789Y-33871916D01*
X102018788Y-33871920D01*
X102000373Y-33999997D01*
X100999627Y-33999997D01*
X100981212Y-33871919D01*
X100973283Y-33854558D01*
X100827843Y-33999999D01*
X100645000Y-33999999D01*
X100645000Y-33980109D01*
X100629776Y-33943355D01*
X100601645Y-33915224D01*
X100564891Y-33900000D01*
X100525109Y-33900000D01*
X100488355Y-33915224D01*
X100460224Y-33943355D01*
X100445000Y-33980109D01*
X100242265Y-33980109D01*
X100116714Y-33854558D01*
X100108789Y-33871916D01*
X100108788Y-33871920D01*
X100090373Y-33999997D01*
X97672932Y-33999997D01*
X97673797Y-33966953D01*
X97706852Y-33921458D01*
X97828282Y-33828282D01*
X97924536Y-33702841D01*
X97978213Y-33573254D01*
X100401098Y-33573254D01*
X100545000Y-33717156D01*
X100688901Y-33573254D01*
X102311098Y-33573254D01*
X102455000Y-33717156D01*
X102598901Y-33573254D01*
X102519702Y-33550000D01*
X102390297Y-33550000D01*
X102311098Y-33573254D01*
X100688901Y-33573254D01*
X100609702Y-33550000D01*
X100480297Y-33550000D01*
X100401098Y-33573254D01*
X97978213Y-33573254D01*
X97985044Y-33556762D01*
X98005682Y-33400000D01*
X97985044Y-33243238D01*
X97985042Y-33243233D01*
X97936790Y-33126743D01*
X100401097Y-33126743D01*
X100480298Y-33149999D01*
X100480301Y-33150000D01*
X100609699Y-33150000D01*
X100609701Y-33149999D01*
X100688901Y-33126743D01*
X102311097Y-33126743D01*
X102390298Y-33149999D01*
X102390301Y-33150000D01*
X102519699Y-33150000D01*
X102519701Y-33149999D01*
X102598901Y-33126743D01*
X102455000Y-32982843D01*
X102311097Y-33126743D01*
X100688901Y-33126743D01*
X100545000Y-32982843D01*
X100401097Y-33126743D01*
X97936790Y-33126743D01*
X97924537Y-33097161D01*
X97924537Y-33097160D01*
X97828286Y-32971723D01*
X97828285Y-32971722D01*
X97828282Y-32971718D01*
X97828277Y-32971714D01*
X97828276Y-32971713D01*
X97702838Y-32875462D01*
X97556766Y-32814957D01*
X97556758Y-32814955D01*
X97400001Y-32794318D01*
X97399999Y-32794318D01*
X97243241Y-32814955D01*
X97243233Y-32814957D01*
X97097161Y-32875462D01*
X97097160Y-32875462D01*
X96971723Y-32971713D01*
X96971713Y-32971723D01*
X96875462Y-33097160D01*
X96875462Y-33097161D01*
X96814957Y-33243233D01*
X96814955Y-33243241D01*
X96794318Y-33399999D01*
X42705500Y-33399999D01*
X42705500Y-32699997D01*
X100090373Y-32699997D01*
X100090373Y-32700002D01*
X100108787Y-32828077D01*
X100108789Y-32828083D01*
X100116714Y-32845440D01*
X100116715Y-32845440D01*
X100262156Y-32700000D01*
X100242265Y-32680109D01*
X100445000Y-32680109D01*
X100445000Y-32719891D01*
X100460224Y-32756645D01*
X100488355Y-32784776D01*
X100525109Y-32800000D01*
X100564891Y-32800000D01*
X100601645Y-32784776D01*
X100629776Y-32756645D01*
X100645000Y-32719891D01*
X100645000Y-32699999D01*
X100827843Y-32699999D01*
X100973283Y-32845439D01*
X100981211Y-32828080D01*
X100981212Y-32828077D01*
X100999627Y-32700002D01*
X100999627Y-32699997D01*
X102000373Y-32699997D01*
X102000373Y-32700002D01*
X102018787Y-32828077D01*
X102018789Y-32828083D01*
X102026714Y-32845440D01*
X102026715Y-32845440D01*
X102172156Y-32700000D01*
X102152265Y-32680109D01*
X102355000Y-32680109D01*
X102355000Y-32719891D01*
X102370224Y-32756645D01*
X102398355Y-32784776D01*
X102435109Y-32800000D01*
X102474891Y-32800000D01*
X102511645Y-32784776D01*
X102539776Y-32756645D01*
X102555000Y-32719891D01*
X102555000Y-32699999D01*
X102737843Y-32699999D01*
X102883283Y-32845439D01*
X102891211Y-32828080D01*
X102891212Y-32828077D01*
X102909627Y-32700002D01*
X102909627Y-32699997D01*
X102891212Y-32571919D01*
X102883283Y-32554558D01*
X102737843Y-32699999D01*
X102555000Y-32699999D01*
X102555000Y-32680109D01*
X102539776Y-32643355D01*
X102511645Y-32615224D01*
X102474891Y-32600000D01*
X102435109Y-32600000D01*
X102398355Y-32615224D01*
X102370224Y-32643355D01*
X102355000Y-32680109D01*
X102152265Y-32680109D01*
X102026714Y-32554558D01*
X102018789Y-32571916D01*
X102018788Y-32571920D01*
X102000373Y-32699997D01*
X100999627Y-32699997D01*
X100981212Y-32571919D01*
X100973283Y-32554558D01*
X100827843Y-32699999D01*
X100645000Y-32699999D01*
X100645000Y-32680109D01*
X100629776Y-32643355D01*
X100601645Y-32615224D01*
X100564891Y-32600000D01*
X100525109Y-32600000D01*
X100488355Y-32615224D01*
X100460224Y-32643355D01*
X100445000Y-32680109D01*
X100242265Y-32680109D01*
X100116714Y-32554558D01*
X100108789Y-32571916D01*
X100108788Y-32571920D01*
X100090373Y-32699997D01*
X42705500Y-32699997D01*
X42705500Y-32273254D01*
X100401098Y-32273254D01*
X100545000Y-32417156D01*
X100688901Y-32273254D01*
X102311098Y-32273254D01*
X102455000Y-32417156D01*
X102598901Y-32273254D01*
X102519702Y-32250000D01*
X102390297Y-32250000D01*
X102311098Y-32273254D01*
X100688901Y-32273254D01*
X100609702Y-32250000D01*
X100480297Y-32250000D01*
X100401098Y-32273254D01*
X42705500Y-32273254D01*
X42705500Y-31499999D01*
X72294318Y-31499999D01*
X72294318Y-31500000D01*
X72314955Y-31656758D01*
X72314957Y-31656766D01*
X72375462Y-31802838D01*
X72375462Y-31802839D01*
X72375464Y-31802841D01*
X72471718Y-31928282D01*
X72597159Y-32024536D01*
X72743238Y-32085044D01*
X72860809Y-32100522D01*
X72899999Y-32105682D01*
X72900000Y-32105682D01*
X72900001Y-32105682D01*
X72931352Y-32101554D01*
X73056762Y-32085044D01*
X73202841Y-32024536D01*
X73328282Y-31928282D01*
X73424536Y-31802841D01*
X73485044Y-31656762D01*
X73505682Y-31500000D01*
X73485044Y-31343238D01*
X73485042Y-31343233D01*
X73424537Y-31197161D01*
X73424537Y-31197160D01*
X73328286Y-31071723D01*
X73328285Y-31071722D01*
X73328282Y-31071718D01*
X73328277Y-31071714D01*
X73328276Y-31071713D01*
X73202838Y-30975462D01*
X73056766Y-30914957D01*
X73056758Y-30914955D01*
X72900001Y-30894318D01*
X72899999Y-30894318D01*
X72743241Y-30914955D01*
X72743233Y-30914957D01*
X72597161Y-30975462D01*
X72597160Y-30975462D01*
X72471723Y-31071713D01*
X72471713Y-31071723D01*
X72375462Y-31197160D01*
X72375462Y-31197161D01*
X72314957Y-31343233D01*
X72314955Y-31343241D01*
X72294318Y-31499999D01*
X42705500Y-31499999D01*
X42705500Y-30499999D01*
X103594318Y-30499999D01*
X103594318Y-30500000D01*
X103614955Y-30656758D01*
X103614957Y-30656766D01*
X103675462Y-30802838D01*
X103675462Y-30802839D01*
X103761493Y-30914957D01*
X103771718Y-30928282D01*
X103897159Y-31024536D01*
X104043238Y-31085044D01*
X104160809Y-31100522D01*
X104199999Y-31105682D01*
X104200000Y-31105682D01*
X104200001Y-31105682D01*
X104231352Y-31101554D01*
X104356762Y-31085044D01*
X104502841Y-31024536D01*
X104628282Y-30928282D01*
X104724536Y-30802841D01*
X104785044Y-30656762D01*
X104805682Y-30500000D01*
X104785044Y-30343238D01*
X104724537Y-30197161D01*
X104724537Y-30197160D01*
X104628286Y-30071723D01*
X104628285Y-30071722D01*
X104628282Y-30071718D01*
X104628277Y-30071714D01*
X104628276Y-30071713D01*
X104502838Y-29975462D01*
X104356766Y-29914957D01*
X104356758Y-29914955D01*
X104200001Y-29894318D01*
X104199999Y-29894318D01*
X104043241Y-29914955D01*
X104043233Y-29914957D01*
X103897161Y-29975462D01*
X103897160Y-29975462D01*
X103771723Y-30071713D01*
X103771713Y-30071723D01*
X103675462Y-30197160D01*
X103675462Y-30197161D01*
X103614957Y-30343233D01*
X103614955Y-30343241D01*
X103594318Y-30499999D01*
X42705500Y-30499999D01*
X42705500Y-29859573D01*
X109499500Y-29859573D01*
X109499500Y-30140426D01*
X109530944Y-30419507D01*
X109593440Y-30693319D01*
X109686198Y-30958406D01*
X109686199Y-30958409D01*
X109808047Y-31211430D01*
X109808051Y-31211437D01*
X109808055Y-31211445D01*
X109957477Y-31449248D01*
X110132584Y-31668825D01*
X110331175Y-31867416D01*
X110550752Y-32042523D01*
X110788555Y-32191945D01*
X110788566Y-32191950D01*
X110788569Y-32191952D01*
X110957395Y-32273254D01*
X111041592Y-32313801D01*
X111306682Y-32406560D01*
X111580491Y-32469055D01*
X111859575Y-32500500D01*
X111859576Y-32500500D01*
X112140424Y-32500500D01*
X112140425Y-32500500D01*
X112419509Y-32469055D01*
X112693318Y-32406560D01*
X112958408Y-32313801D01*
X113211445Y-32191945D01*
X113449248Y-32042523D01*
X113668825Y-31867416D01*
X113867416Y-31668825D01*
X114042523Y-31449248D01*
X114191945Y-31211445D01*
X114313801Y-30958408D01*
X114406560Y-30693318D01*
X114469055Y-30419509D01*
X114500500Y-30140425D01*
X114500500Y-29859575D01*
X114469055Y-29580491D01*
X114406560Y-29306682D01*
X114313801Y-29041592D01*
X114293770Y-28999997D01*
X114191952Y-28788569D01*
X114191950Y-28788566D01*
X114191945Y-28788555D01*
X114042523Y-28550752D01*
X113867416Y-28331175D01*
X113668825Y-28132584D01*
X113449248Y-27957477D01*
X113211445Y-27808055D01*
X113211437Y-27808051D01*
X113211430Y-27808047D01*
X112958409Y-27686199D01*
X112958406Y-27686198D01*
X112693319Y-27593440D01*
X112419507Y-27530944D01*
X112140426Y-27499500D01*
X112140425Y-27499500D01*
X111859575Y-27499500D01*
X111859573Y-27499500D01*
X111580492Y-27530944D01*
X111306680Y-27593440D01*
X111041593Y-27686198D01*
X111041590Y-27686199D01*
X110788569Y-27808047D01*
X110788557Y-27808054D01*
X110550751Y-27957477D01*
X110331176Y-28132583D01*
X110132583Y-28331176D01*
X109957477Y-28550751D01*
X109891324Y-28656033D01*
X109833205Y-28748530D01*
X109808054Y-28788557D01*
X109808047Y-28788569D01*
X109686199Y-29041590D01*
X109686198Y-29041593D01*
X109593440Y-29306680D01*
X109530944Y-29580492D01*
X109499500Y-29859573D01*
X42705500Y-29859573D01*
X42705500Y-28704500D01*
X42724407Y-28646309D01*
X42773907Y-28610345D01*
X42804500Y-28605500D01*
X42875492Y-28605500D01*
X42933683Y-28624407D01*
X42969647Y-28673907D01*
X42973645Y-28717421D01*
X42969550Y-28748528D01*
X42969550Y-28748530D01*
X42990187Y-28905288D01*
X42990189Y-28905296D01*
X43050694Y-29051368D01*
X43050694Y-29051369D01*
X43146945Y-29176806D01*
X43146950Y-29176812D01*
X43272391Y-29273066D01*
X43418470Y-29333574D01*
X43536041Y-29349052D01*
X43575231Y-29354212D01*
X43575232Y-29354212D01*
X43575233Y-29354212D01*
X43606584Y-29350084D01*
X43731994Y-29333574D01*
X43878073Y-29273066D01*
X44003514Y-29176812D01*
X44099768Y-29051371D01*
X44121048Y-28999997D01*
X104844867Y-28999997D01*
X104844867Y-29000002D01*
X104863302Y-29128225D01*
X104917117Y-29246061D01*
X104917118Y-29246063D01*
X104940516Y-29273066D01*
X105001952Y-29343968D01*
X105110926Y-29414001D01*
X105110931Y-29414004D01*
X105235228Y-29450500D01*
X105235230Y-29450500D01*
X105364770Y-29450500D01*
X105364772Y-29450500D01*
X105489069Y-29414004D01*
X105598049Y-29343967D01*
X105682882Y-29246063D01*
X105736697Y-29128226D01*
X105747747Y-29051369D01*
X105755133Y-29000002D01*
X105755133Y-28999997D01*
X105736697Y-28871774D01*
X105698698Y-28788569D01*
X105682882Y-28753937D01*
X105598049Y-28656033D01*
X105598048Y-28656032D01*
X105598047Y-28656031D01*
X105489073Y-28585998D01*
X105489070Y-28585996D01*
X105489069Y-28585996D01*
X105489066Y-28585995D01*
X105364774Y-28549500D01*
X105364772Y-28549500D01*
X105235228Y-28549500D01*
X105235225Y-28549500D01*
X105110933Y-28585995D01*
X105110926Y-28585998D01*
X105001952Y-28656031D01*
X104917117Y-28753938D01*
X104863302Y-28871774D01*
X104844867Y-28999997D01*
X44121048Y-28999997D01*
X44160276Y-28905292D01*
X44180914Y-28748530D01*
X44160276Y-28591768D01*
X44157483Y-28585026D01*
X44133551Y-28527247D01*
X44128750Y-28466251D01*
X44160720Y-28414082D01*
X44217248Y-28390667D01*
X44276743Y-28404951D01*
X44299832Y-28424529D01*
X44318316Y-28445861D01*
X44395888Y-28515042D01*
X44456521Y-28543786D01*
X44510523Y-28569388D01*
X44510525Y-28569388D01*
X44510526Y-28569389D01*
X44577565Y-28589074D01*
X44641035Y-28598199D01*
X44691807Y-28605500D01*
X44691811Y-28605500D01*
X89175996Y-28605500D01*
X89176000Y-28605500D01*
X89262199Y-28596232D01*
X89313710Y-28585026D01*
X89385360Y-28562310D01*
X89493057Y-28495250D01*
X89545861Y-28449495D01*
X89615042Y-28371923D01*
X89669389Y-28257285D01*
X89689074Y-28190246D01*
X89698929Y-28121698D01*
X89705500Y-28076004D01*
X89705500Y-26199999D01*
X101394318Y-26199999D01*
X101394318Y-26200000D01*
X101414955Y-26356758D01*
X101414957Y-26356766D01*
X101475462Y-26502838D01*
X101475462Y-26502839D01*
X101475464Y-26502841D01*
X101571718Y-26628282D01*
X101697159Y-26724536D01*
X101843238Y-26785044D01*
X101960809Y-26800522D01*
X101999999Y-26805682D01*
X102000000Y-26805682D01*
X102000001Y-26805682D01*
X102031352Y-26801554D01*
X102156762Y-26785044D01*
X102302841Y-26724536D01*
X102428282Y-26628282D01*
X102524536Y-26502841D01*
X102585044Y-26356762D01*
X102605682Y-26200000D01*
X102585044Y-26043238D01*
X102524537Y-25897161D01*
X102524537Y-25897160D01*
X102428286Y-25771723D01*
X102428285Y-25771722D01*
X102428282Y-25771718D01*
X102428277Y-25771714D01*
X102428276Y-25771713D01*
X102302838Y-25675462D01*
X102156766Y-25614957D01*
X102156758Y-25614955D01*
X102000001Y-25594318D01*
X101999999Y-25594318D01*
X101843241Y-25614955D01*
X101843233Y-25614957D01*
X101697161Y-25675462D01*
X101697160Y-25675462D01*
X101571723Y-25771713D01*
X101571713Y-25771723D01*
X101475462Y-25897160D01*
X101475462Y-25897161D01*
X101414957Y-26043233D01*
X101414955Y-26043241D01*
X101394318Y-26199999D01*
X89705500Y-26199999D01*
X89705500Y-25624003D01*
X89705499Y-25623995D01*
X89696232Y-25537801D01*
X89685026Y-25486290D01*
X89662310Y-25414640D01*
X89595250Y-25306943D01*
X89549495Y-25254139D01*
X89471923Y-25184958D01*
X89471921Y-25184957D01*
X89357287Y-25130611D01*
X89290249Y-25110927D01*
X89290250Y-25110927D01*
X89290246Y-25110926D01*
X89290241Y-25110925D01*
X89290240Y-25110925D01*
X89176004Y-25094500D01*
X89176000Y-25094500D01*
X39924000Y-25094500D01*
X39874743Y-25099796D01*
X39837798Y-25103768D01*
X39837788Y-25103770D01*
X39786301Y-25114971D01*
X39786292Y-25114973D01*
X39714640Y-25137690D01*
X39606945Y-25204748D01*
X39606943Y-25204750D01*
X39554139Y-25250505D01*
X39554136Y-25250507D01*
X39554135Y-25250509D01*
X39484957Y-25328078D01*
X39430611Y-25442712D01*
X39410927Y-25509750D01*
X39410925Y-25509759D01*
X39394500Y-25623995D01*
X39394500Y-54916560D01*
X39396823Y-54959901D01*
X39397550Y-54966657D01*
X39399658Y-54986267D01*
X39404301Y-55017764D01*
X39404301Y-55017766D01*
X39404302Y-55017767D01*
X39404302Y-55017770D01*
X39446932Y-55137246D01*
X39446940Y-55137265D01*
X39480415Y-55198569D01*
X39480415Y-55198570D01*
X39480419Y-55198575D01*
X39480420Y-55198577D01*
X39502657Y-55228282D01*
X39549586Y-55290972D01*
X39602890Y-55344277D01*
X39616711Y-55361608D01*
X39652198Y-55418084D01*
X39661818Y-55438059D01*
X39683851Y-55501027D01*
X39688782Y-55522634D01*
X39695791Y-55584830D01*
X39696251Y-55588912D01*
X39696251Y-55611080D01*
X39690377Y-55663220D01*
X39688906Y-55676272D01*
X39688901Y-55676309D01*
X39688778Y-55677397D01*
X39683850Y-55698973D01*
X39661818Y-55761939D01*
X39652198Y-55781914D01*
X39616709Y-55838393D01*
X39602889Y-55855723D01*
X39549589Y-55909024D01*
X39520577Y-55941322D01*
X39520561Y-55941342D01*
X39503948Y-55961958D01*
X39484961Y-55987511D01*
X39484955Y-55987521D01*
X39430611Y-56102152D01*
X39410927Y-56169190D01*
X39410925Y-56169199D01*
X39394500Y-56283435D01*
X39394500Y-57823766D01*
X39375593Y-57881957D01*
X39351433Y-57899510D01*
X39239482Y-57899510D01*
X39239530Y-57899484D01*
X39215407Y-57881957D01*
X39197347Y-57836688D01*
X39185044Y-57743241D01*
X39185044Y-57743238D01*
X39159699Y-57682050D01*
X39124537Y-57597161D01*
X39124537Y-57597160D01*
X39028286Y-57471723D01*
X39028285Y-57471722D01*
X39028282Y-57471718D01*
X39028277Y-57471714D01*
X39028276Y-57471713D01*
X38902838Y-57375462D01*
X38756766Y-57314957D01*
X38756758Y-57314955D01*
X38600001Y-57294318D01*
X38599999Y-57294318D01*
X38443241Y-57314955D01*
X38443233Y-57314957D01*
X38297161Y-57375462D01*
X38297160Y-57375462D01*
X38171723Y-57471713D01*
X38171713Y-57471723D01*
X38075462Y-57597160D01*
X38075462Y-57597161D01*
X38014957Y-57743233D01*
X38014955Y-57743241D01*
X37994318Y-57899999D01*
X37734112Y-57899999D01*
X37739745Y-57850000D01*
X37720822Y-57682050D01*
X37720821Y-57682046D01*
X37665004Y-57522532D01*
X37665003Y-57522528D01*
X37638110Y-57479731D01*
X37330545Y-57787296D01*
X37311148Y-57714905D01*
X37265070Y-57635095D01*
X37199905Y-57569930D01*
X37120095Y-57523852D01*
X37047700Y-57504454D01*
X37355267Y-57196888D01*
X37312472Y-57169998D01*
X37312466Y-57169994D01*
X37152953Y-57114178D01*
X37152949Y-57114177D01*
X36985000Y-57095254D01*
X36817050Y-57114177D01*
X36817046Y-57114178D01*
X36657528Y-57169996D01*
X36614730Y-57196888D01*
X36922297Y-57504454D01*
X36849905Y-57523852D01*
X36770095Y-57569930D01*
X36704930Y-57635095D01*
X36658852Y-57714905D01*
X36639454Y-57787297D01*
X36331888Y-57479730D01*
X36304996Y-57522528D01*
X36249178Y-57682046D01*
X36249177Y-57682050D01*
X36230254Y-57850000D01*
X33439745Y-57850000D01*
X33420822Y-57682050D01*
X33420821Y-57682046D01*
X33365004Y-57522532D01*
X33365003Y-57522528D01*
X33338110Y-57479731D01*
X33030545Y-57787296D01*
X33011148Y-57714905D01*
X32965070Y-57635095D01*
X32899905Y-57569930D01*
X32820095Y-57523852D01*
X32747700Y-57504454D01*
X33055267Y-57196888D01*
X33012472Y-57169998D01*
X33012466Y-57169994D01*
X32852953Y-57114178D01*
X32852949Y-57114177D01*
X32685000Y-57095254D01*
X32517050Y-57114177D01*
X32517046Y-57114178D01*
X32357528Y-57169996D01*
X32314730Y-57196888D01*
X32622297Y-57504454D01*
X32549905Y-57523852D01*
X32470095Y-57569930D01*
X32404930Y-57635095D01*
X32358852Y-57714905D01*
X32339454Y-57787296D01*
X32031888Y-57479730D01*
X32004996Y-57522528D01*
X31949178Y-57682046D01*
X31949177Y-57682050D01*
X31930254Y-57850000D01*
X28500000Y-57850000D01*
X28500000Y-56218842D01*
X34294500Y-56218842D01*
X34294500Y-56781158D01*
X34331334Y-56918625D01*
X34402492Y-57041875D01*
X34503125Y-57142508D01*
X34626375Y-57213666D01*
X34763842Y-57250500D01*
X34763844Y-57250500D01*
X34906156Y-57250500D01*
X34906158Y-57250500D01*
X35043625Y-57213666D01*
X35166875Y-57142508D01*
X35267508Y-57041875D01*
X35338666Y-56918625D01*
X35375500Y-56781158D01*
X35375500Y-56218842D01*
X35338666Y-56081375D01*
X35267508Y-55958125D01*
X35166875Y-55857492D01*
X35043625Y-55786334D01*
X34906158Y-55749500D01*
X34763842Y-55749500D01*
X34626375Y-55786334D01*
X34503125Y-55857492D01*
X34402492Y-55958125D01*
X34331334Y-56081375D01*
X34294500Y-56218842D01*
X28500000Y-56218842D01*
X28500000Y-54199997D01*
X32444867Y-54199997D01*
X32444867Y-54200002D01*
X32463302Y-54328225D01*
X32508972Y-54428226D01*
X32517118Y-54446063D01*
X32561394Y-54497161D01*
X32601952Y-54543968D01*
X32655259Y-54578226D01*
X32710931Y-54614004D01*
X32835228Y-54650500D01*
X32835230Y-54650500D01*
X32964770Y-54650500D01*
X32964772Y-54650500D01*
X33089069Y-54614004D01*
X33198049Y-54543967D01*
X33282882Y-54446063D01*
X33336697Y-54328226D01*
X33355133Y-54200000D01*
X33355133Y-54199997D01*
X35544867Y-54199997D01*
X35544867Y-54200002D01*
X35563302Y-54328225D01*
X35608972Y-54428226D01*
X35617118Y-54446063D01*
X35661394Y-54497161D01*
X35701952Y-54543968D01*
X35755259Y-54578226D01*
X35810931Y-54614004D01*
X35935228Y-54650500D01*
X35935230Y-54650500D01*
X36064770Y-54650500D01*
X36064772Y-54650500D01*
X36189069Y-54614004D01*
X36298049Y-54543967D01*
X36382882Y-54446063D01*
X36436697Y-54328226D01*
X36455133Y-54200000D01*
X36448016Y-54150503D01*
X36436697Y-54071774D01*
X36420358Y-54035998D01*
X36382882Y-53953937D01*
X36298049Y-53856033D01*
X36298048Y-53856032D01*
X36298047Y-53856031D01*
X36189073Y-53785998D01*
X36189070Y-53785996D01*
X36189069Y-53785996D01*
X36189066Y-53785995D01*
X36064774Y-53749500D01*
X36064772Y-53749500D01*
X35935228Y-53749500D01*
X35935225Y-53749500D01*
X35810933Y-53785995D01*
X35810926Y-53785998D01*
X35701952Y-53856031D01*
X35617117Y-53953938D01*
X35563302Y-54071774D01*
X35544867Y-54199997D01*
X33355133Y-54199997D01*
X33348016Y-54150503D01*
X33336697Y-54071774D01*
X33320358Y-54035998D01*
X33282882Y-53953937D01*
X33198049Y-53856033D01*
X33198048Y-53856032D01*
X33198047Y-53856031D01*
X33089073Y-53785998D01*
X33089070Y-53785996D01*
X33089069Y-53785996D01*
X33089066Y-53785995D01*
X32964774Y-53749500D01*
X32964772Y-53749500D01*
X32835228Y-53749500D01*
X32835225Y-53749500D01*
X32710933Y-53785995D01*
X32710926Y-53785998D01*
X32601952Y-53856031D01*
X32517117Y-53953938D01*
X32463302Y-54071774D01*
X32444867Y-54199997D01*
X28500000Y-54199997D01*
X28500000Y-52499997D01*
X32444867Y-52499997D01*
X32444867Y-52500002D01*
X32463302Y-52628225D01*
X32502477Y-52714004D01*
X32517118Y-52746063D01*
X32571979Y-52809377D01*
X32601952Y-52843968D01*
X32656367Y-52878938D01*
X32710931Y-52914004D01*
X32835228Y-52950500D01*
X32835230Y-52950500D01*
X32964770Y-52950500D01*
X32964772Y-52950500D01*
X33089069Y-52914004D01*
X33198049Y-52843967D01*
X33282882Y-52746063D01*
X33336697Y-52628226D01*
X33347872Y-52550500D01*
X33355133Y-52500002D01*
X33355133Y-52499997D01*
X35544867Y-52499997D01*
X35544867Y-52500002D01*
X35563302Y-52628225D01*
X35602477Y-52714004D01*
X35617118Y-52746063D01*
X35671979Y-52809377D01*
X35701952Y-52843968D01*
X35756367Y-52878938D01*
X35810931Y-52914004D01*
X35935228Y-52950500D01*
X35935230Y-52950500D01*
X36064770Y-52950500D01*
X36064772Y-52950500D01*
X36189069Y-52914004D01*
X36298049Y-52843967D01*
X36382882Y-52746063D01*
X36436697Y-52628226D01*
X36447872Y-52550500D01*
X36455133Y-52500002D01*
X36455133Y-52499997D01*
X36436697Y-52371774D01*
X36403919Y-52300002D01*
X36382882Y-52253937D01*
X36298049Y-52156033D01*
X36298048Y-52156032D01*
X36298047Y-52156031D01*
X36189073Y-52085998D01*
X36189070Y-52085996D01*
X36189069Y-52085996D01*
X36189066Y-52085995D01*
X36064774Y-52049500D01*
X36064772Y-52049500D01*
X35935228Y-52049500D01*
X35935225Y-52049500D01*
X35810933Y-52085995D01*
X35810926Y-52085998D01*
X35701952Y-52156031D01*
X35617117Y-52253938D01*
X35563302Y-52371774D01*
X35544867Y-52499997D01*
X33355133Y-52499997D01*
X33336697Y-52371774D01*
X33303919Y-52300002D01*
X33282882Y-52253937D01*
X33198049Y-52156033D01*
X33198048Y-52156032D01*
X33198047Y-52156031D01*
X33089073Y-52085998D01*
X33089070Y-52085996D01*
X33089069Y-52085996D01*
X33089066Y-52085995D01*
X32964774Y-52049500D01*
X32964772Y-52049500D01*
X32835228Y-52049500D01*
X32835225Y-52049500D01*
X32710933Y-52085995D01*
X32710926Y-52085998D01*
X32601952Y-52156031D01*
X32517117Y-52253938D01*
X32463302Y-52371774D01*
X32444867Y-52499997D01*
X28500000Y-52499997D01*
X28500000Y-34500349D01*
X28500001Y-34499990D01*
X34000000Y-34499990D01*
X34000000Y-51000009D01*
X34002139Y-51065540D01*
X34002139Y-51065541D01*
X34036069Y-51192171D01*
X34101609Y-51305688D01*
X34101611Y-51305690D01*
X34101613Y-51305693D01*
X34194307Y-51398387D01*
X34194309Y-51398388D01*
X34194311Y-51398390D01*
X34307829Y-51463930D01*
X34307827Y-51463930D01*
X34307831Y-51463931D01*
X34307833Y-51463932D01*
X34434455Y-51497860D01*
X34449580Y-51498353D01*
X34499990Y-51499999D01*
X36500000Y-51499999D01*
X36500010Y-51499999D01*
X36543696Y-51498573D01*
X36565545Y-51497860D01*
X36692167Y-51463932D01*
X36692169Y-51463930D01*
X36692171Y-51463930D01*
X36805688Y-51398390D01*
X36805688Y-51398389D01*
X36805693Y-51398387D01*
X36898387Y-51305693D01*
X36900941Y-51301270D01*
X36963930Y-51192171D01*
X36963930Y-51192169D01*
X36963932Y-51192167D01*
X36997860Y-51065545D01*
X36999999Y-51000000D01*
X36999999Y-34500000D01*
X36997860Y-34434455D01*
X36963932Y-34307833D01*
X36963930Y-34307830D01*
X36963930Y-34307828D01*
X36898390Y-34194311D01*
X36898388Y-34194309D01*
X36898387Y-34194307D01*
X36805693Y-34101613D01*
X36805690Y-34101611D01*
X36805688Y-34101609D01*
X36692170Y-34036069D01*
X36692172Y-34036069D01*
X36565541Y-34002139D01*
X36500009Y-34000000D01*
X34499989Y-34000000D01*
X34434459Y-34002138D01*
X34434458Y-34002138D01*
X34307828Y-34036068D01*
X34194310Y-34101608D01*
X34101608Y-34194310D01*
X34036068Y-34307828D01*
X34002138Y-34434458D01*
X34002138Y-34434459D01*
X34000000Y-34499990D01*
X28500001Y-34499990D01*
X28500003Y-34499602D01*
X28500314Y-34458472D01*
X28502489Y-34170295D01*
X28502667Y-34165074D01*
X28506604Y-34099997D01*
X28542457Y-33507264D01*
X28542998Y-33501318D01*
X28622392Y-32847451D01*
X28623283Y-32841595D01*
X28742012Y-32193709D01*
X28743260Y-32187894D01*
X28900888Y-31548371D01*
X28902493Y-31542618D01*
X29098444Y-30913788D01*
X29100375Y-30908191D01*
X29333957Y-30292286D01*
X29336225Y-30286812D01*
X29528510Y-29859573D01*
X32499500Y-29859573D01*
X32499500Y-30140426D01*
X32530944Y-30419507D01*
X32593440Y-30693319D01*
X32686198Y-30958406D01*
X32686199Y-30958409D01*
X32808047Y-31211430D01*
X32808051Y-31211437D01*
X32808055Y-31211445D01*
X32957477Y-31449248D01*
X33132584Y-31668825D01*
X33331175Y-31867416D01*
X33550752Y-32042523D01*
X33788555Y-32191945D01*
X33788566Y-32191950D01*
X33788569Y-32191952D01*
X33957395Y-32273254D01*
X34041592Y-32313801D01*
X34306682Y-32406560D01*
X34580491Y-32469055D01*
X34859575Y-32500500D01*
X34859576Y-32500500D01*
X35140424Y-32500500D01*
X35140425Y-32500500D01*
X35419509Y-32469055D01*
X35693318Y-32406560D01*
X35958408Y-32313801D01*
X36211445Y-32191945D01*
X36449248Y-32042523D01*
X36668825Y-31867416D01*
X36867416Y-31668825D01*
X37042523Y-31449248D01*
X37191945Y-31211445D01*
X37313801Y-30958408D01*
X37406560Y-30693318D01*
X37469055Y-30419509D01*
X37500500Y-30140425D01*
X37500500Y-29859575D01*
X37469055Y-29580491D01*
X37406560Y-29306682D01*
X37313801Y-29041592D01*
X37293770Y-28999997D01*
X37191952Y-28788569D01*
X37191950Y-28788566D01*
X37191945Y-28788555D01*
X37042523Y-28550752D01*
X36867416Y-28331175D01*
X36668825Y-28132584D01*
X36449248Y-27957477D01*
X36211445Y-27808055D01*
X36211437Y-27808051D01*
X36211430Y-27808047D01*
X35958409Y-27686199D01*
X35958406Y-27686198D01*
X35693319Y-27593440D01*
X35419507Y-27530944D01*
X35140426Y-27499500D01*
X35140425Y-27499500D01*
X34859575Y-27499500D01*
X34859573Y-27499500D01*
X34580492Y-27530944D01*
X34306680Y-27593440D01*
X34041593Y-27686198D01*
X34041590Y-27686199D01*
X33788569Y-27808047D01*
X33788557Y-27808054D01*
X33550751Y-27957477D01*
X33331176Y-28132583D01*
X33132583Y-28331176D01*
X32957477Y-28550751D01*
X32891324Y-28656033D01*
X32833205Y-28748530D01*
X32808054Y-28788557D01*
X32808047Y-28788569D01*
X32686199Y-29041590D01*
X32686198Y-29041593D01*
X32593440Y-29306680D01*
X32530944Y-29580492D01*
X32499500Y-29859573D01*
X29528510Y-29859573D01*
X29606561Y-29686150D01*
X29609146Y-29680841D01*
X29915264Y-29097580D01*
X29918174Y-29092422D01*
X30258936Y-28528732D01*
X30262151Y-28523759D01*
X30636325Y-27981675D01*
X30639842Y-27976895D01*
X31046065Y-27458390D01*
X31049857Y-27453839D01*
X31486649Y-26960804D01*
X31490715Y-26956484D01*
X31956484Y-26490715D01*
X31960804Y-26486649D01*
X32453839Y-26049857D01*
X32458390Y-26046065D01*
X32976895Y-25639842D01*
X32981675Y-25636325D01*
X33523759Y-25262151D01*
X33528732Y-25258936D01*
X34092422Y-24918174D01*
X34097580Y-24915264D01*
X34680841Y-24609146D01*
X34686150Y-24606561D01*
X35286812Y-24336225D01*
X35292286Y-24333957D01*
X35908191Y-24100375D01*
X35913788Y-24098444D01*
X36542626Y-23902490D01*
X36548371Y-23900888D01*
X37187894Y-23743260D01*
X37193709Y-23742012D01*
X37841595Y-23623283D01*
X37847451Y-23622392D01*
X38501326Y-23542997D01*
X38507264Y-23542457D01*
X39165085Y-23502666D01*
X39170295Y-23502489D01*
X39499603Y-23500003D01*
X39500350Y-23500000D01*
X107499650Y-23500000D01*
X107500397Y-23500003D01*
G37*
G04 #@! TD.AperFunction*
G04 #@! TA.AperFunction,Conductor*
G36*
X89243039Y-25519685D02*
G01*
X89288794Y-25572489D01*
X89300000Y-25624000D01*
X89300000Y-28076000D01*
X89280315Y-28143039D01*
X89227511Y-28188794D01*
X89176000Y-28200000D01*
X44691811Y-28200000D01*
X44624772Y-28180315D01*
X44579017Y-28127511D01*
X44569073Y-28058353D01*
X44574770Y-28035045D01*
X44585366Y-28004762D01*
X44585369Y-28004749D01*
X44605565Y-27825503D01*
X44605565Y-27825496D01*
X44585369Y-27646250D01*
X44585368Y-27646245D01*
X44525788Y-27475976D01*
X44429815Y-27323237D01*
X44302262Y-27195684D01*
X44149523Y-27099711D01*
X43979254Y-27040131D01*
X43979249Y-27040130D01*
X43800004Y-27019935D01*
X43799996Y-27019935D01*
X43620750Y-27040130D01*
X43620745Y-27040131D01*
X43450476Y-27099711D01*
X43297737Y-27195684D01*
X43170184Y-27323237D01*
X43074211Y-27475976D01*
X43014631Y-27646245D01*
X43014630Y-27646250D01*
X42994435Y-27825496D01*
X42994435Y-27825503D01*
X43014631Y-28004752D01*
X43025231Y-28035046D01*
X43028792Y-28104825D01*
X42994063Y-28165452D01*
X42932069Y-28197679D01*
X42908189Y-28200000D01*
X42300000Y-28200000D01*
X42300000Y-57200000D01*
X44676000Y-57200000D01*
X44743039Y-57219685D01*
X44788794Y-57272489D01*
X44800000Y-57324000D01*
X44800000Y-58076000D01*
X44780315Y-58143039D01*
X44727511Y-58188794D01*
X44676000Y-58200000D01*
X39924000Y-58200000D01*
X39856961Y-58180315D01*
X39811206Y-58127511D01*
X39800000Y-58076000D01*
X39800000Y-56283440D01*
X39819685Y-56216401D01*
X39836319Y-56195759D01*
X39875260Y-56156818D01*
X39929816Y-56102262D01*
X40025789Y-55949522D01*
X40085368Y-55779255D01*
X40091855Y-55721680D01*
X40105565Y-55600003D01*
X40105565Y-55599996D01*
X40085369Y-55420750D01*
X40085368Y-55420745D01*
X40025789Y-55250478D01*
X39929816Y-55097738D01*
X39836319Y-55004241D01*
X39802834Y-54942918D01*
X39800000Y-54916560D01*
X39800000Y-25624000D01*
X39819685Y-25556961D01*
X39872489Y-25511206D01*
X39924000Y-25500000D01*
X89176000Y-25500000D01*
X89243039Y-25519685D01*
G37*
G04 #@! TD.AperFunction*
M02*
