G04 #@! TF.GenerationSoftware,KiCad,Pcbnew,8.0.6+1*
G04 #@! TF.CreationDate,2025-01-07T07:54:38+00:00*
G04 #@! TF.ProjectId,gshps,67736870-732e-46b6-9963-61645f706362,B*
G04 #@! TF.SameCoordinates,Original*
G04 #@! TF.FileFunction,Legend,Bot*
G04 #@! TF.FilePolarity,Positive*
%FSLAX46Y46*%
G04 Gerber Fmt 4.6, Leading zero omitted, Abs format (unit mm)*
G04 Created by KiCad (PCBNEW 8.0.6+1) date 2025-01-07 07:54:38*
%MOMM*%
%LPD*%
G01*
G04 APERTURE LIST*
%ADD10C,0.150000*%
%ADD11C,0.200000*%
%ADD12C,0.120000*%
%ADD13C,0.300000*%
%ADD14C,5.000000*%
%ADD15C,0.660000*%
%ADD16O,0.580000X1.000000*%
%ADD17C,1.100000*%
%ADD18R,3.200000X3.200000*%
%ADD19R,0.700000X1.750000*%
%ADD20R,1.450000X1.000000*%
%ADD21R,1.000000X1.550000*%
%ADD22R,0.800000X1.500000*%
%ADD23R,1.300000X1.500000*%
%ADD24R,1.500000X1.500000*%
%ADD25R,0.800000X1.400000*%
%ADD26R,1.700000X1.000000*%
%ADD27R,2.410000X3.100000*%
%ADD28R,2.400000X0.740000*%
%ADD29R,1.400000X1.200000*%
%ADD30O,1.200000X1.750000*%
G04 APERTURE END LIST*
D10*
X84010839Y-62422200D02*
X83867982Y-62469819D01*
X83867982Y-62469819D02*
X83629887Y-62469819D01*
X83629887Y-62469819D02*
X83534649Y-62422200D01*
X83534649Y-62422200D02*
X83487030Y-62374580D01*
X83487030Y-62374580D02*
X83439411Y-62279342D01*
X83439411Y-62279342D02*
X83439411Y-62184104D01*
X83439411Y-62184104D02*
X83487030Y-62088866D01*
X83487030Y-62088866D02*
X83534649Y-62041247D01*
X83534649Y-62041247D02*
X83629887Y-61993628D01*
X83629887Y-61993628D02*
X83820363Y-61946009D01*
X83820363Y-61946009D02*
X83915601Y-61898390D01*
X83915601Y-61898390D02*
X83963220Y-61850771D01*
X83963220Y-61850771D02*
X84010839Y-61755533D01*
X84010839Y-61755533D02*
X84010839Y-61660295D01*
X84010839Y-61660295D02*
X83963220Y-61565057D01*
X83963220Y-61565057D02*
X83915601Y-61517438D01*
X83915601Y-61517438D02*
X83820363Y-61469819D01*
X83820363Y-61469819D02*
X83582268Y-61469819D01*
X83582268Y-61469819D02*
X83439411Y-61517438D01*
X112363220Y-35788866D02*
X111601316Y-35788866D01*
X111982268Y-36169819D02*
X111982268Y-35407914D01*
X88263220Y-65488866D02*
X87501316Y-65488866D01*
X87882268Y-65869819D02*
X87882268Y-65107914D01*
X87120363Y-64869819D02*
X86501316Y-64869819D01*
X86501316Y-64869819D02*
X86834649Y-65250771D01*
X86834649Y-65250771D02*
X86691792Y-65250771D01*
X86691792Y-65250771D02*
X86596554Y-65298390D01*
X86596554Y-65298390D02*
X86548935Y-65346009D01*
X86548935Y-65346009D02*
X86501316Y-65441247D01*
X86501316Y-65441247D02*
X86501316Y-65679342D01*
X86501316Y-65679342D02*
X86548935Y-65774580D01*
X86548935Y-65774580D02*
X86596554Y-65822200D01*
X86596554Y-65822200D02*
X86691792Y-65869819D01*
X86691792Y-65869819D02*
X86977506Y-65869819D01*
X86977506Y-65869819D02*
X87072744Y-65822200D01*
X87072744Y-65822200D02*
X87120363Y-65774580D01*
X86215601Y-64869819D02*
X85882268Y-65869819D01*
X85882268Y-65869819D02*
X85548935Y-64869819D01*
X85310839Y-64869819D02*
X84691792Y-64869819D01*
X84691792Y-64869819D02*
X85025125Y-65250771D01*
X85025125Y-65250771D02*
X84882268Y-65250771D01*
X84882268Y-65250771D02*
X84787030Y-65298390D01*
X84787030Y-65298390D02*
X84739411Y-65346009D01*
X84739411Y-65346009D02*
X84691792Y-65441247D01*
X84691792Y-65441247D02*
X84691792Y-65679342D01*
X84691792Y-65679342D02*
X84739411Y-65774580D01*
X84739411Y-65774580D02*
X84787030Y-65822200D01*
X84787030Y-65822200D02*
X84882268Y-65869819D01*
X84882268Y-65869819D02*
X85167982Y-65869819D01*
X85167982Y-65869819D02*
X85263220Y-65822200D01*
X85263220Y-65822200D02*
X85310839Y-65774580D01*
D11*
G36*
X108887895Y-40929116D02*
G01*
X108937311Y-40939319D01*
X108987633Y-40959309D01*
X109031391Y-40988183D01*
X109041304Y-40996789D01*
X109075285Y-41035365D01*
X109099556Y-41080015D01*
X109114119Y-41130741D01*
X109118898Y-41180111D01*
X109118974Y-41187543D01*
X109115234Y-41237101D01*
X109101800Y-41288186D01*
X109078597Y-41333348D01*
X109045625Y-41372587D01*
X109040816Y-41377076D01*
X108998455Y-41408171D01*
X108949774Y-41430382D01*
X108901995Y-41442528D01*
X108849376Y-41447873D01*
X108833454Y-41448150D01*
X108779119Y-41444749D01*
X108729810Y-41434546D01*
X108679610Y-41414556D01*
X108635975Y-41385682D01*
X108626092Y-41377076D01*
X108592111Y-41338577D01*
X108567840Y-41294155D01*
X108553277Y-41243811D01*
X108548498Y-41194900D01*
X108548422Y-41187543D01*
X108552104Y-41137509D01*
X108565327Y-41086024D01*
X108588168Y-41040614D01*
X108620625Y-41001279D01*
X108625359Y-40996789D01*
X108667124Y-40965694D01*
X108715729Y-40943483D01*
X108763867Y-40931337D01*
X108817242Y-40925992D01*
X108833454Y-40925715D01*
X108887895Y-40929116D01*
G37*
G36*
X108782896Y-40228157D02*
G01*
X108777534Y-40277443D01*
X108756217Y-40322499D01*
X108750411Y-40329030D01*
X108708055Y-40355138D01*
X108658087Y-40362491D01*
X108607945Y-40355138D01*
X108565519Y-40329030D01*
X108539982Y-40284017D01*
X108532823Y-40232352D01*
X108532791Y-40228157D01*
X108532791Y-40099197D01*
X108782896Y-40099197D01*
X108782896Y-40228157D01*
G37*
G36*
X109448926Y-41802771D02*
G01*
X108187207Y-41802771D01*
X108187207Y-41188276D01*
X108329581Y-41188276D01*
X108331848Y-41239567D01*
X108338648Y-41289209D01*
X108349983Y-41337203D01*
X108365851Y-41383548D01*
X108386253Y-41428244D01*
X108394061Y-41442777D01*
X108420018Y-41484457D01*
X108454795Y-41528698D01*
X108494410Y-41568218D01*
X108538864Y-41603017D01*
X108573579Y-41624982D01*
X108617749Y-41647642D01*
X108663980Y-41665614D01*
X108712271Y-41678898D01*
X108762623Y-41687493D01*
X108815036Y-41691400D01*
X108832965Y-41691660D01*
X108886091Y-41689290D01*
X108937207Y-41682181D01*
X108986315Y-41670331D01*
X109033412Y-41653742D01*
X109078501Y-41632412D01*
X109093084Y-41624249D01*
X109134695Y-41597379D01*
X109178683Y-41561776D01*
X109217762Y-41521591D01*
X109251933Y-41476825D01*
X109273335Y-41442044D01*
X109295248Y-41398146D01*
X109315084Y-41344783D01*
X109327174Y-41297202D01*
X109334730Y-41247920D01*
X109337752Y-41196938D01*
X109337815Y-41188276D01*
X109335548Y-41137059D01*
X109328748Y-41087457D01*
X109317413Y-41039469D01*
X109301545Y-40993095D01*
X109281143Y-40948336D01*
X109273335Y-40933775D01*
X109247352Y-40892118D01*
X109212480Y-40847729D01*
X109172699Y-40807875D01*
X109128010Y-40772556D01*
X109093084Y-40750104D01*
X109048665Y-40727029D01*
X109002237Y-40708728D01*
X108953800Y-40695201D01*
X108903353Y-40686448D01*
X108850897Y-40682470D01*
X108832965Y-40682205D01*
X108779865Y-40684592D01*
X108728826Y-40691753D01*
X108679848Y-40703688D01*
X108632930Y-40720398D01*
X108588074Y-40741882D01*
X108573579Y-40750104D01*
X108532217Y-40777324D01*
X108488455Y-40813291D01*
X108449531Y-40853793D01*
X108415445Y-40898829D01*
X108394061Y-40933775D01*
X108372148Y-40977996D01*
X108354768Y-41023832D01*
X108341923Y-41071282D01*
X108333611Y-41120346D01*
X108329833Y-41171024D01*
X108329592Y-41187543D01*
X108329581Y-41188276D01*
X108187207Y-41188276D01*
X108187207Y-40228157D01*
X108345212Y-40228157D01*
X108345212Y-40244277D01*
X108347141Y-40294041D01*
X108354067Y-40346648D01*
X108366031Y-40394707D01*
X108385512Y-40443335D01*
X108410596Y-40485858D01*
X108444132Y-40525538D01*
X108483631Y-40557252D01*
X108496643Y-40565212D01*
X108542963Y-40586722D01*
X108593386Y-40600265D01*
X108642274Y-40605642D01*
X108659309Y-40606001D01*
X108710848Y-40602185D01*
X108759525Y-40590736D01*
X108805339Y-40571654D01*
X108814159Y-40566922D01*
X108855346Y-40538548D01*
X108891286Y-40501969D01*
X108921978Y-40457184D01*
X108927487Y-40447243D01*
X108948267Y-40398696D01*
X108961029Y-40350386D01*
X108968417Y-40297221D01*
X108970474Y-40246720D01*
X108970474Y-40099197D01*
X109330000Y-40099197D01*
X109330000Y-39855687D01*
X108345212Y-39855687D01*
X108345212Y-40228157D01*
X108187207Y-40228157D01*
X108187207Y-39686915D01*
X108345212Y-39686915D01*
X109330000Y-39686915D01*
X109330000Y-39443405D01*
X108345212Y-39443405D01*
X108345212Y-39686915D01*
X108187207Y-39686915D01*
X108187207Y-39019644D01*
X108337397Y-39019644D01*
X109142421Y-39019644D01*
X109142421Y-39331053D01*
X109330000Y-39331053D01*
X109330000Y-38776133D01*
X108337397Y-38776133D01*
X108337397Y-39019644D01*
X108187207Y-39019644D01*
X108187207Y-37946441D01*
X108329581Y-37946441D01*
X108331459Y-37995653D01*
X108338672Y-38050630D01*
X108351294Y-38101160D01*
X108369326Y-38147242D01*
X108397201Y-38195382D01*
X108406517Y-38208025D01*
X108443075Y-38246663D01*
X108485431Y-38275812D01*
X108533583Y-38295470D01*
X108587532Y-38305638D01*
X108620963Y-38307187D01*
X108620963Y-38057083D01*
X108573126Y-38046572D01*
X108545003Y-38023866D01*
X108522489Y-37980391D01*
X108517159Y-37938136D01*
X108526223Y-37888944D01*
X108540362Y-37865840D01*
X108584316Y-37840424D01*
X108607285Y-37838241D01*
X108654692Y-37852383D01*
X108682267Y-37882937D01*
X108704624Y-37927517D01*
X108722808Y-37973055D01*
X108739909Y-38022400D01*
X108757969Y-38073023D01*
X108777537Y-38122654D01*
X108798456Y-38169203D01*
X108802191Y-38176762D01*
X108828134Y-38219008D01*
X108861633Y-38256721D01*
X108888164Y-38279344D01*
X108930681Y-38304096D01*
X108980991Y-38318573D01*
X109033489Y-38322819D01*
X109084804Y-38318669D01*
X109133113Y-38306218D01*
X109178417Y-38285467D01*
X109187117Y-38280321D01*
X109227551Y-38250014D01*
X109262451Y-38212219D01*
X109291817Y-38166934D01*
X109297027Y-38156978D01*
X109316744Y-38109322D01*
X109330008Y-38057029D01*
X109336381Y-38006654D01*
X109337815Y-37966468D01*
X109335648Y-37914353D01*
X109329145Y-37864986D01*
X109316647Y-37812731D01*
X109303133Y-37774494D01*
X109280996Y-37729506D01*
X109250237Y-37685819D01*
X109212990Y-37648763D01*
X109200551Y-37638939D01*
X109155242Y-37612148D01*
X109104495Y-37595280D01*
X109054173Y-37588583D01*
X109036420Y-37588136D01*
X109036420Y-37836775D01*
X109085329Y-37849415D01*
X109121172Y-37875610D01*
X109144674Y-37919041D01*
X109150237Y-37961584D01*
X109144070Y-38010310D01*
X109125568Y-38047557D01*
X109085091Y-38075557D01*
X109057424Y-38079309D01*
X109009385Y-38065433D01*
X108996608Y-38054640D01*
X108966616Y-38013375D01*
X108957285Y-37994068D01*
X108939505Y-37947494D01*
X108924326Y-37900158D01*
X108921870Y-37891974D01*
X108905246Y-37841019D01*
X108886775Y-37790882D01*
X108866457Y-37743611D01*
X108862763Y-37735903D01*
X108836499Y-37692993D01*
X108802404Y-37654754D01*
X108775324Y-37631856D01*
X108731343Y-37606965D01*
X108684097Y-37593302D01*
X108629934Y-37588179D01*
X108624138Y-37588136D01*
X108574492Y-37591622D01*
X108521891Y-37604502D01*
X108475016Y-37626872D01*
X108433868Y-37658732D01*
X108407983Y-37687299D01*
X108377434Y-37733676D01*
X108354388Y-37785827D01*
X108340606Y-37835123D01*
X108332337Y-37888661D01*
X108329581Y-37946441D01*
X108187207Y-37946441D01*
X108187207Y-37415457D01*
X108298318Y-37415457D01*
X109330000Y-37415457D01*
X109330000Y-37171946D01*
X108517159Y-37171946D01*
X108517159Y-37031263D01*
X108298318Y-37031263D01*
X108298318Y-37415457D01*
X108187207Y-37415457D01*
X108187207Y-36920152D01*
X109448926Y-36920152D01*
X109448926Y-41802771D01*
G37*
D10*
X86739411Y-66517438D02*
X86834649Y-66469819D01*
X86834649Y-66469819D02*
X86977506Y-66469819D01*
X86977506Y-66469819D02*
X87120363Y-66517438D01*
X87120363Y-66517438D02*
X87215601Y-66612676D01*
X87215601Y-66612676D02*
X87263220Y-66707914D01*
X87263220Y-66707914D02*
X87310839Y-66898390D01*
X87310839Y-66898390D02*
X87310839Y-67041247D01*
X87310839Y-67041247D02*
X87263220Y-67231723D01*
X87263220Y-67231723D02*
X87215601Y-67326961D01*
X87215601Y-67326961D02*
X87120363Y-67422200D01*
X87120363Y-67422200D02*
X86977506Y-67469819D01*
X86977506Y-67469819D02*
X86882268Y-67469819D01*
X86882268Y-67469819D02*
X86739411Y-67422200D01*
X86739411Y-67422200D02*
X86691792Y-67374580D01*
X86691792Y-67374580D02*
X86691792Y-67041247D01*
X86691792Y-67041247D02*
X86882268Y-67041247D01*
X86263220Y-67469819D02*
X86263220Y-66469819D01*
X86263220Y-66469819D02*
X85691792Y-67469819D01*
X85691792Y-67469819D02*
X85691792Y-66469819D01*
X85215601Y-67469819D02*
X85215601Y-66469819D01*
X85215601Y-66469819D02*
X84977506Y-66469819D01*
X84977506Y-66469819D02*
X84834649Y-66517438D01*
X84834649Y-66517438D02*
X84739411Y-66612676D01*
X84739411Y-66612676D02*
X84691792Y-66707914D01*
X84691792Y-66707914D02*
X84644173Y-66898390D01*
X84644173Y-66898390D02*
X84644173Y-67041247D01*
X84644173Y-67041247D02*
X84691792Y-67231723D01*
X84691792Y-67231723D02*
X84739411Y-67326961D01*
X84739411Y-67326961D02*
X84834649Y-67422200D01*
X84834649Y-67422200D02*
X84977506Y-67469819D01*
X84977506Y-67469819D02*
X85215601Y-67469819D01*
D11*
G36*
X83245532Y-68752104D02*
G01*
X83297018Y-68765327D01*
X83342428Y-68788168D01*
X83381762Y-68820625D01*
X83386252Y-68825359D01*
X83417347Y-68867124D01*
X83439558Y-68915729D01*
X83451705Y-68963867D01*
X83457049Y-69017242D01*
X83457327Y-69033454D01*
X83453926Y-69087895D01*
X83443723Y-69137311D01*
X83423733Y-69187633D01*
X83394859Y-69231391D01*
X83386252Y-69241304D01*
X83347677Y-69275285D01*
X83303026Y-69299556D01*
X83252300Y-69314119D01*
X83202931Y-69318898D01*
X83195498Y-69318974D01*
X83145941Y-69315234D01*
X83094856Y-69301800D01*
X83049694Y-69278597D01*
X83010454Y-69245625D01*
X83005966Y-69240816D01*
X82974871Y-69198455D01*
X82952660Y-69149774D01*
X82940513Y-69101995D01*
X82935169Y-69049376D01*
X82934891Y-69033454D01*
X82938292Y-68979119D01*
X82948495Y-68929810D01*
X82968485Y-68879610D01*
X82997359Y-68835975D01*
X83005966Y-68826092D01*
X83044465Y-68792111D01*
X83088886Y-68767840D01*
X83139231Y-68753277D01*
X83188141Y-68748498D01*
X83195498Y-68748422D01*
X83245532Y-68752104D01*
G37*
G36*
X85344836Y-68982896D02*
G01*
X85197069Y-68982896D01*
X85145891Y-68977005D01*
X85100716Y-68954014D01*
X85098639Y-68952121D01*
X85072175Y-68909033D01*
X85065910Y-68864193D01*
X85075147Y-68813512D01*
X85098639Y-68779441D01*
X85142719Y-68755238D01*
X85192994Y-68748453D01*
X85197069Y-68748422D01*
X85344836Y-68748422D01*
X85344836Y-68982896D01*
G37*
G36*
X87348584Y-69648926D02*
G01*
X82580270Y-69648926D01*
X82580270Y-69032965D01*
X82691381Y-69032965D01*
X82691403Y-69033454D01*
X82693751Y-69086091D01*
X82700861Y-69137207D01*
X82712710Y-69186315D01*
X82729300Y-69233412D01*
X82750629Y-69278501D01*
X82758792Y-69293084D01*
X82785663Y-69334695D01*
X82821266Y-69378683D01*
X82861451Y-69417762D01*
X82906217Y-69451933D01*
X82940997Y-69473335D01*
X82984895Y-69495248D01*
X83038258Y-69515084D01*
X83085840Y-69527174D01*
X83135122Y-69534730D01*
X83186103Y-69537752D01*
X83194766Y-69537815D01*
X83245982Y-69535548D01*
X83295585Y-69528748D01*
X83343573Y-69517413D01*
X83389946Y-69501545D01*
X83434706Y-69481143D01*
X83449267Y-69473335D01*
X83490924Y-69447352D01*
X83535312Y-69412480D01*
X83575166Y-69372699D01*
X83610486Y-69328010D01*
X83632937Y-69293084D01*
X83656013Y-69248665D01*
X83674314Y-69202237D01*
X83687841Y-69153800D01*
X83696593Y-69103353D01*
X83700572Y-69050897D01*
X83700837Y-69032965D01*
X83698450Y-68979865D01*
X83691289Y-68928826D01*
X83679353Y-68879848D01*
X83662643Y-68832930D01*
X83641160Y-68788074D01*
X83632937Y-68773579D01*
X83605718Y-68732217D01*
X83569751Y-68688455D01*
X83529249Y-68649531D01*
X83484212Y-68615445D01*
X83449267Y-68594061D01*
X83405045Y-68572148D01*
X83359210Y-68554768D01*
X83311760Y-68541923D01*
X83285044Y-68537397D01*
X83760188Y-68537397D01*
X84108722Y-69530000D01*
X84408408Y-69530000D01*
X84813852Y-69530000D01*
X85083984Y-69530000D01*
X85287683Y-69154842D01*
X85344836Y-69154842D01*
X85344836Y-69530000D01*
X85588346Y-69530000D01*
X85588346Y-68732791D01*
X85743684Y-68732791D01*
X86101988Y-68732791D01*
X86101988Y-68936001D01*
X85782763Y-68936001D01*
X85782763Y-69123579D01*
X86101988Y-69123579D01*
X86101988Y-69342421D01*
X85743684Y-69342421D01*
X85743684Y-69530000D01*
X86345498Y-69530000D01*
X86345498Y-69233489D01*
X86502791Y-69233489D01*
X86506941Y-69284804D01*
X86519392Y-69333113D01*
X86540143Y-69378417D01*
X86545289Y-69387117D01*
X86575595Y-69427551D01*
X86613391Y-69462451D01*
X86658676Y-69491817D01*
X86668632Y-69497027D01*
X86716288Y-69516744D01*
X86768580Y-69530008D01*
X86818956Y-69536381D01*
X86859141Y-69537815D01*
X86911256Y-69535648D01*
X86960624Y-69529145D01*
X87012878Y-69516647D01*
X87051116Y-69503133D01*
X87096104Y-69480996D01*
X87139791Y-69450237D01*
X87176847Y-69412990D01*
X87186671Y-69400551D01*
X87213461Y-69355242D01*
X87230329Y-69304495D01*
X87237027Y-69254173D01*
X87237473Y-69236420D01*
X86988834Y-69236420D01*
X86976195Y-69285329D01*
X86950000Y-69321172D01*
X86906568Y-69344674D01*
X86864026Y-69350237D01*
X86815300Y-69344070D01*
X86778053Y-69325568D01*
X86750053Y-69285091D01*
X86746301Y-69257424D01*
X86760177Y-69209385D01*
X86770969Y-69196608D01*
X86812235Y-69166616D01*
X86831542Y-69157285D01*
X86878115Y-69139505D01*
X86925451Y-69124326D01*
X86933635Y-69121870D01*
X86984591Y-69105246D01*
X87034727Y-69086775D01*
X87081998Y-69066457D01*
X87089706Y-69062763D01*
X87132617Y-69036499D01*
X87170856Y-69002404D01*
X87193754Y-68975324D01*
X87218645Y-68931343D01*
X87232307Y-68884097D01*
X87237431Y-68829934D01*
X87237473Y-68824138D01*
X87233987Y-68774492D01*
X87221108Y-68721891D01*
X87198738Y-68675016D01*
X87166878Y-68633868D01*
X87138311Y-68607983D01*
X87091933Y-68577434D01*
X87039783Y-68554388D01*
X86990487Y-68540606D01*
X86936949Y-68532337D01*
X86879169Y-68529581D01*
X86829957Y-68531459D01*
X86774979Y-68538672D01*
X86724450Y-68551294D01*
X86678368Y-68569326D01*
X86630227Y-68597201D01*
X86617585Y-68606517D01*
X86578946Y-68643075D01*
X86549798Y-68685431D01*
X86530140Y-68733583D01*
X86519972Y-68787532D01*
X86518422Y-68820963D01*
X86768527Y-68820963D01*
X86779037Y-68773126D01*
X86801744Y-68745003D01*
X86845218Y-68722489D01*
X86887473Y-68717159D01*
X86936665Y-68726223D01*
X86959769Y-68740362D01*
X86985185Y-68784316D01*
X86987369Y-68807285D01*
X86973226Y-68854692D01*
X86942672Y-68882267D01*
X86898093Y-68904624D01*
X86852555Y-68922808D01*
X86803210Y-68939909D01*
X86752587Y-68957969D01*
X86702956Y-68977537D01*
X86656406Y-68998456D01*
X86648848Y-69002191D01*
X86606602Y-69028134D01*
X86568889Y-69061633D01*
X86546266Y-69088164D01*
X86521514Y-69130681D01*
X86507036Y-69180991D01*
X86502791Y-69233489D01*
X86345498Y-69233489D01*
X86345498Y-68545212D01*
X85743684Y-68545212D01*
X85743684Y-68732791D01*
X85588346Y-68732791D01*
X85588346Y-68539839D01*
X85185101Y-68539839D01*
X85135671Y-68541791D01*
X85083216Y-68548801D01*
X85035066Y-68560910D01*
X84986043Y-68580628D01*
X84943047Y-68605967D01*
X84903024Y-68639741D01*
X84871158Y-68679430D01*
X84863189Y-68692491D01*
X84841679Y-68738382D01*
X84828136Y-68787517D01*
X84822559Y-68839895D01*
X84822400Y-68850760D01*
X84823497Y-68864193D01*
X84826786Y-68904465D01*
X84839943Y-68954848D01*
X84861871Y-69001907D01*
X84877843Y-69026615D01*
X84913046Y-69066494D01*
X84956557Y-69099301D01*
X85002208Y-69122527D01*
X85040753Y-69136280D01*
X84813852Y-69530000D01*
X84408408Y-69530000D01*
X84756943Y-68537397D01*
X84502198Y-68537397D01*
X84258688Y-69286734D01*
X84013712Y-68537397D01*
X83760188Y-68537397D01*
X83285044Y-68537397D01*
X83262696Y-68533611D01*
X83212017Y-68529833D01*
X83194766Y-68529581D01*
X83143475Y-68531848D01*
X83093832Y-68538648D01*
X83045839Y-68549983D01*
X82999494Y-68565851D01*
X82954797Y-68586253D01*
X82940265Y-68594061D01*
X82898585Y-68620018D01*
X82854343Y-68654795D01*
X82814823Y-68694410D01*
X82780025Y-68738864D01*
X82758060Y-68773579D01*
X82735399Y-68817749D01*
X82717427Y-68863980D01*
X82704144Y-68912271D01*
X82695549Y-68962623D01*
X82691642Y-69015036D01*
X82691381Y-69032965D01*
X82580270Y-69032965D01*
X82580270Y-68418470D01*
X87348584Y-68418470D01*
X87348584Y-69648926D01*
G37*
G36*
X86662700Y-72782896D02*
G01*
X86514933Y-72782896D01*
X86463756Y-72777005D01*
X86418581Y-72754014D01*
X86416503Y-72752121D01*
X86390039Y-72709033D01*
X86383775Y-72664193D01*
X86393012Y-72613512D01*
X86416503Y-72579441D01*
X86460583Y-72555238D01*
X86510859Y-72548453D01*
X86514933Y-72548422D01*
X86662700Y-72548422D01*
X86662700Y-72782896D01*
G37*
G36*
X87017321Y-73448926D02*
G01*
X82804171Y-73448926D01*
X82804171Y-72532791D01*
X82915282Y-72532791D01*
X83181018Y-72532791D01*
X83181018Y-73330000D01*
X83424528Y-73330000D01*
X83424528Y-72532791D01*
X83681228Y-72532791D01*
X83774040Y-72532791D01*
X84132344Y-72532791D01*
X84132344Y-72736001D01*
X83813119Y-72736001D01*
X83813119Y-72923579D01*
X84132344Y-72923579D01*
X84132344Y-73142421D01*
X83774040Y-73142421D01*
X83774040Y-73330000D01*
X84375854Y-73330000D01*
X84375854Y-73033489D01*
X84533147Y-73033489D01*
X84537297Y-73084804D01*
X84549748Y-73133113D01*
X84570499Y-73178417D01*
X84575645Y-73187117D01*
X84605951Y-73227551D01*
X84643747Y-73262451D01*
X84689032Y-73291817D01*
X84698988Y-73297027D01*
X84746644Y-73316744D01*
X84798936Y-73330008D01*
X84849311Y-73336381D01*
X84889497Y-73337815D01*
X84941612Y-73335648D01*
X84990980Y-73329145D01*
X85043234Y-73316647D01*
X85081472Y-73303133D01*
X85126460Y-73280996D01*
X85170147Y-73250237D01*
X85207203Y-73212990D01*
X85217027Y-73200551D01*
X85243817Y-73155242D01*
X85260685Y-73104495D01*
X85267383Y-73054173D01*
X85267829Y-73036420D01*
X85019190Y-73036420D01*
X85006550Y-73085329D01*
X84980355Y-73121172D01*
X84936924Y-73144674D01*
X84894382Y-73150237D01*
X84845655Y-73144070D01*
X84808408Y-73125568D01*
X84780409Y-73085091D01*
X84776657Y-73057424D01*
X84790533Y-73009385D01*
X84801325Y-72996608D01*
X84842591Y-72966616D01*
X84861898Y-72957285D01*
X84908471Y-72939505D01*
X84955807Y-72924326D01*
X84963991Y-72921870D01*
X85014947Y-72905246D01*
X85065083Y-72886775D01*
X85112354Y-72866457D01*
X85120062Y-72862763D01*
X85162973Y-72836499D01*
X85201212Y-72802404D01*
X85224110Y-72775324D01*
X85249001Y-72731343D01*
X85262663Y-72684097D01*
X85267787Y-72629934D01*
X85267829Y-72624138D01*
X85264343Y-72574492D01*
X85254133Y-72532791D01*
X85391905Y-72532791D01*
X85750209Y-72532791D01*
X85750209Y-72736001D01*
X85430983Y-72736001D01*
X85430983Y-72923579D01*
X85750209Y-72923579D01*
X85750209Y-73142421D01*
X85391905Y-73142421D01*
X85391905Y-73330000D01*
X85993719Y-73330000D01*
X86131716Y-73330000D01*
X86401849Y-73330000D01*
X86605547Y-72954842D01*
X86662700Y-72954842D01*
X86662700Y-73330000D01*
X86906210Y-73330000D01*
X86906210Y-72339839D01*
X86502965Y-72339839D01*
X86453536Y-72341791D01*
X86401081Y-72348801D01*
X86352931Y-72360910D01*
X86303907Y-72380628D01*
X86260912Y-72405967D01*
X86220888Y-72439741D01*
X86189022Y-72479430D01*
X86181053Y-72492491D01*
X86159544Y-72538382D01*
X86146001Y-72587517D01*
X86140424Y-72639895D01*
X86140265Y-72650760D01*
X86141362Y-72664193D01*
X86144650Y-72704465D01*
X86157807Y-72754848D01*
X86179735Y-72801907D01*
X86195708Y-72826615D01*
X86230911Y-72866494D01*
X86274422Y-72899301D01*
X86320072Y-72922527D01*
X86358618Y-72936280D01*
X86131716Y-73330000D01*
X85993719Y-73330000D01*
X85993719Y-72345212D01*
X85391905Y-72345212D01*
X85391905Y-72532791D01*
X85254133Y-72532791D01*
X85251464Y-72521891D01*
X85229094Y-72475016D01*
X85197234Y-72433868D01*
X85168667Y-72407983D01*
X85122289Y-72377434D01*
X85070138Y-72354388D01*
X85020842Y-72340606D01*
X84967305Y-72332337D01*
X84909525Y-72329581D01*
X84860313Y-72331459D01*
X84805335Y-72338672D01*
X84754805Y-72351294D01*
X84708724Y-72369326D01*
X84660583Y-72397201D01*
X84647941Y-72406517D01*
X84609302Y-72443075D01*
X84580154Y-72485431D01*
X84560496Y-72533583D01*
X84550328Y-72587532D01*
X84548778Y-72620963D01*
X84798883Y-72620963D01*
X84809393Y-72573126D01*
X84832100Y-72545003D01*
X84875574Y-72522489D01*
X84917829Y-72517159D01*
X84967021Y-72526223D01*
X84990125Y-72540362D01*
X85015541Y-72584316D01*
X85017725Y-72607285D01*
X85003582Y-72654692D01*
X84973028Y-72682267D01*
X84928449Y-72704624D01*
X84882911Y-72722808D01*
X84833565Y-72739909D01*
X84782943Y-72757969D01*
X84733312Y-72777537D01*
X84686762Y-72798456D01*
X84679204Y-72802191D01*
X84636958Y-72828134D01*
X84599245Y-72861633D01*
X84576622Y-72888164D01*
X84551870Y-72930681D01*
X84537392Y-72980991D01*
X84533147Y-73033489D01*
X84375854Y-73033489D01*
X84375854Y-72345212D01*
X83774040Y-72345212D01*
X83774040Y-72532791D01*
X83681228Y-72532791D01*
X83681228Y-72345212D01*
X82915282Y-72345212D01*
X82915282Y-72532791D01*
X82804171Y-72532791D01*
X82804171Y-72218470D01*
X87017321Y-72218470D01*
X87017321Y-73448926D01*
G37*
G36*
X98928232Y-62497023D02*
G01*
X98992411Y-62561202D01*
X99030326Y-62712861D01*
X99030326Y-63021575D01*
X98992410Y-63173235D01*
X98928234Y-63237413D01*
X98868624Y-63267219D01*
X98725362Y-63267219D01*
X98665752Y-63237414D01*
X98601575Y-63173236D01*
X98563660Y-63021575D01*
X98563660Y-62712862D01*
X98601575Y-62561202D01*
X98665754Y-62497023D01*
X98725362Y-62467219D01*
X98868624Y-62467219D01*
X98928232Y-62497023D01*
G37*
G36*
X99975851Y-62497023D02*
G01*
X100040030Y-62561202D01*
X100077945Y-62712861D01*
X100077945Y-63021575D01*
X100040029Y-63173235D01*
X99975853Y-63237413D01*
X99916243Y-63267219D01*
X99772981Y-63267219D01*
X99713371Y-63237414D01*
X99649194Y-63173236D01*
X99611279Y-63021575D01*
X99611279Y-62712862D01*
X99649194Y-62561202D01*
X99713373Y-62497023D01*
X99772981Y-62467219D01*
X99916243Y-62467219D01*
X99975851Y-62497023D01*
G37*
G36*
X101030326Y-63267219D02*
G01*
X100772981Y-63267219D01*
X100713371Y-63237414D01*
X100688704Y-63212746D01*
X100658898Y-63153134D01*
X100658898Y-63057492D01*
X100688703Y-62997882D01*
X100708154Y-62978430D01*
X100813219Y-62943409D01*
X101030326Y-62943409D01*
X101030326Y-63267219D01*
G37*
G36*
X101030326Y-62743409D02*
G01*
X100820600Y-62743409D01*
X100760990Y-62713604D01*
X100736322Y-62688935D01*
X100706517Y-62629325D01*
X100706517Y-62581302D01*
X100736322Y-62521692D01*
X100760990Y-62497023D01*
X100820600Y-62467219D01*
X101030326Y-62467219D01*
X101030326Y-62743409D01*
G37*
G36*
X101341437Y-63578330D02*
G01*
X97397327Y-63578330D01*
X97397327Y-62347710D01*
X97508438Y-62347710D01*
X97508438Y-62386728D01*
X97523370Y-62422776D01*
X97550960Y-62450366D01*
X97587008Y-62465298D01*
X97606517Y-62467219D01*
X97792231Y-62467219D01*
X97792231Y-63367219D01*
X97794152Y-63386728D01*
X97809084Y-63422776D01*
X97836674Y-63450366D01*
X97872722Y-63465298D01*
X97911740Y-63465298D01*
X97947788Y-63450366D01*
X97975378Y-63422776D01*
X97990310Y-63386728D01*
X97992231Y-63367219D01*
X97992231Y-62700552D01*
X98363660Y-62700552D01*
X98363660Y-63033885D01*
X98363995Y-63037287D01*
X98363778Y-63038746D01*
X98364857Y-63046043D01*
X98365581Y-63053394D01*
X98366145Y-63054757D01*
X98366646Y-63058139D01*
X98414265Y-63248614D01*
X98420860Y-63267075D01*
X98425285Y-63273047D01*
X98428131Y-63279918D01*
X98440568Y-63295071D01*
X98535806Y-63390311D01*
X98543474Y-63396604D01*
X98545205Y-63398600D01*
X98548212Y-63400493D01*
X98550959Y-63402747D01*
X98553399Y-63403757D01*
X98561796Y-63409043D01*
X98657033Y-63456662D01*
X98675342Y-63463668D01*
X98678925Y-63463922D01*
X98682246Y-63465298D01*
X98701755Y-63467219D01*
X98892231Y-63467219D01*
X98911740Y-63465298D01*
X98915060Y-63463922D01*
X98918644Y-63463668D01*
X98936952Y-63456662D01*
X99032190Y-63409043D01*
X99040585Y-63403758D01*
X99043027Y-63402747D01*
X99045774Y-63400491D01*
X99048780Y-63398600D01*
X99050510Y-63396605D01*
X99058180Y-63390310D01*
X99153418Y-63295071D01*
X99165855Y-63279918D01*
X99168700Y-63273047D01*
X99173126Y-63267075D01*
X99179721Y-63248615D01*
X99227340Y-63058139D01*
X99227840Y-63054757D01*
X99228405Y-63053394D01*
X99229128Y-63046043D01*
X99230208Y-63038746D01*
X99229990Y-63037287D01*
X99230326Y-63033885D01*
X99230326Y-62700552D01*
X99411279Y-62700552D01*
X99411279Y-63033885D01*
X99411614Y-63037287D01*
X99411397Y-63038746D01*
X99412476Y-63046043D01*
X99413200Y-63053394D01*
X99413764Y-63054757D01*
X99414265Y-63058139D01*
X99461884Y-63248614D01*
X99468479Y-63267075D01*
X99472904Y-63273047D01*
X99475750Y-63279918D01*
X99488187Y-63295071D01*
X99583425Y-63390311D01*
X99591093Y-63396604D01*
X99592824Y-63398600D01*
X99595831Y-63400493D01*
X99598578Y-63402747D01*
X99601018Y-63403757D01*
X99609415Y-63409043D01*
X99704652Y-63456662D01*
X99722961Y-63463668D01*
X99726544Y-63463922D01*
X99729865Y-63465298D01*
X99749374Y-63467219D01*
X99939850Y-63467219D01*
X99959359Y-63465298D01*
X99962679Y-63463922D01*
X99966263Y-63463668D01*
X99984571Y-63456662D01*
X100079809Y-63409043D01*
X100088204Y-63403758D01*
X100090646Y-63402747D01*
X100093393Y-63400491D01*
X100096399Y-63398600D01*
X100098129Y-63396605D01*
X100105799Y-63390310D01*
X100201037Y-63295071D01*
X100213474Y-63279918D01*
X100216319Y-63273047D01*
X100220745Y-63267075D01*
X100227340Y-63248615D01*
X100274959Y-63058139D01*
X100275459Y-63054757D01*
X100276024Y-63053394D01*
X100276747Y-63046043D01*
X100277827Y-63038746D01*
X100277609Y-63037287D01*
X100277945Y-63033885D01*
X100458898Y-63033885D01*
X100458898Y-63176742D01*
X100460819Y-63196251D01*
X100462194Y-63199571D01*
X100462449Y-63203155D01*
X100469455Y-63221463D01*
X100517074Y-63316701D01*
X100522357Y-63325093D01*
X100523369Y-63327537D01*
X100525625Y-63330286D01*
X100527517Y-63333291D01*
X100529511Y-63335020D01*
X100535806Y-63342690D01*
X100583424Y-63390310D01*
X100591092Y-63396603D01*
X100592824Y-63398600D01*
X100595832Y-63400493D01*
X100598578Y-63402747D01*
X100601018Y-63403757D01*
X100609415Y-63409043D01*
X100704652Y-63456662D01*
X100722961Y-63463668D01*
X100726544Y-63463922D01*
X100729865Y-63465298D01*
X100749374Y-63467219D01*
X101130326Y-63467219D01*
X101149835Y-63465298D01*
X101185883Y-63450366D01*
X101213473Y-63422776D01*
X101228405Y-63386728D01*
X101230326Y-63367219D01*
X101230326Y-62367219D01*
X101228405Y-62347710D01*
X101213473Y-62311662D01*
X101185883Y-62284072D01*
X101149835Y-62269140D01*
X101130326Y-62267219D01*
X100796993Y-62267219D01*
X100777484Y-62269140D01*
X100774163Y-62270515D01*
X100770580Y-62270770D01*
X100752271Y-62277776D01*
X100657034Y-62325395D01*
X100648637Y-62330680D01*
X100646197Y-62331691D01*
X100643451Y-62333944D01*
X100640443Y-62335838D01*
X100638710Y-62337835D01*
X100631044Y-62344128D01*
X100583425Y-62391746D01*
X100577130Y-62399416D01*
X100575136Y-62401146D01*
X100573242Y-62404153D01*
X100570989Y-62406900D01*
X100569978Y-62409339D01*
X100564693Y-62417736D01*
X100517074Y-62512974D01*
X100510068Y-62531282D01*
X100509813Y-62534865D01*
X100508438Y-62538186D01*
X100506517Y-62557695D01*
X100506517Y-62652933D01*
X100508438Y-62672442D01*
X100509813Y-62675762D01*
X100510068Y-62679346D01*
X100517074Y-62697654D01*
X100564693Y-62792892D01*
X100569978Y-62801288D01*
X100570989Y-62803728D01*
X100573242Y-62806474D01*
X100575136Y-62809482D01*
X100577130Y-62811211D01*
X100583425Y-62818882D01*
X100584213Y-62819670D01*
X100583425Y-62820318D01*
X100535806Y-62867936D01*
X100529511Y-62875606D01*
X100527517Y-62877336D01*
X100525623Y-62880343D01*
X100523370Y-62883090D01*
X100522359Y-62885529D01*
X100517074Y-62893926D01*
X100469455Y-62989164D01*
X100462449Y-63007472D01*
X100462194Y-63011055D01*
X100460819Y-63014376D01*
X100458898Y-63033885D01*
X100277945Y-63033885D01*
X100277945Y-62700552D01*
X100277609Y-62697149D01*
X100277827Y-62695691D01*
X100276747Y-62688393D01*
X100276024Y-62681043D01*
X100275459Y-62679679D01*
X100274959Y-62676298D01*
X100227340Y-62485822D01*
X100220745Y-62467362D01*
X100216318Y-62461387D01*
X100213473Y-62454519D01*
X100201037Y-62439365D01*
X100105799Y-62344127D01*
X100098128Y-62337832D01*
X100096399Y-62335838D01*
X100093391Y-62333944D01*
X100090645Y-62331691D01*
X100088205Y-62330680D01*
X100079809Y-62325395D01*
X99984571Y-62277776D01*
X99966263Y-62270770D01*
X99962679Y-62270515D01*
X99959359Y-62269140D01*
X99939850Y-62267219D01*
X99749374Y-62267219D01*
X99729865Y-62269140D01*
X99726544Y-62270515D01*
X99722961Y-62270770D01*
X99704652Y-62277776D01*
X99609415Y-62325395D01*
X99601016Y-62330681D01*
X99598579Y-62331691D01*
X99595835Y-62333942D01*
X99592824Y-62335838D01*
X99591091Y-62337835D01*
X99583425Y-62344127D01*
X99488187Y-62439365D01*
X99475751Y-62454519D01*
X99472905Y-62461387D01*
X99468479Y-62467362D01*
X99461884Y-62485823D01*
X99414265Y-62676298D01*
X99413764Y-62679679D01*
X99413200Y-62681043D01*
X99412476Y-62688393D01*
X99411397Y-62695691D01*
X99411614Y-62697149D01*
X99411279Y-62700552D01*
X99230326Y-62700552D01*
X99229990Y-62697149D01*
X99230208Y-62695691D01*
X99229128Y-62688393D01*
X99228405Y-62681043D01*
X99227840Y-62679679D01*
X99227340Y-62676298D01*
X99179721Y-62485822D01*
X99173126Y-62467362D01*
X99168699Y-62461387D01*
X99165854Y-62454519D01*
X99153418Y-62439365D01*
X99058180Y-62344127D01*
X99050509Y-62337832D01*
X99048780Y-62335838D01*
X99045772Y-62333944D01*
X99043026Y-62331691D01*
X99040586Y-62330680D01*
X99032190Y-62325395D01*
X98936952Y-62277776D01*
X98918644Y-62270770D01*
X98915060Y-62270515D01*
X98911740Y-62269140D01*
X98892231Y-62267219D01*
X98701755Y-62267219D01*
X98682246Y-62269140D01*
X98678925Y-62270515D01*
X98675342Y-62270770D01*
X98657033Y-62277776D01*
X98561796Y-62325395D01*
X98553397Y-62330681D01*
X98550960Y-62331691D01*
X98548216Y-62333942D01*
X98545205Y-62335838D01*
X98543472Y-62337835D01*
X98535806Y-62344127D01*
X98440568Y-62439365D01*
X98428132Y-62454519D01*
X98425286Y-62461387D01*
X98420860Y-62467362D01*
X98414265Y-62485823D01*
X98366646Y-62676298D01*
X98366145Y-62679679D01*
X98365581Y-62681043D01*
X98364857Y-62688393D01*
X98363778Y-62695691D01*
X98363995Y-62697149D01*
X98363660Y-62700552D01*
X97992231Y-62700552D01*
X97992231Y-62467219D01*
X98177945Y-62467219D01*
X98197454Y-62465298D01*
X98233502Y-62450366D01*
X98261092Y-62422776D01*
X98276024Y-62386728D01*
X98276024Y-62347710D01*
X98261092Y-62311662D01*
X98233502Y-62284072D01*
X98197454Y-62269140D01*
X98177945Y-62267219D01*
X97606517Y-62267219D01*
X97587008Y-62269140D01*
X97550960Y-62284072D01*
X97523370Y-62311662D01*
X97508438Y-62347710D01*
X97397327Y-62347710D01*
X97397327Y-62156108D01*
X101341437Y-62156108D01*
X101341437Y-63578330D01*
G37*
D12*
X77390000Y-43390000D02*
X78040000Y-43390000D01*
X77390000Y-44040000D02*
X77390000Y-43390000D01*
X77390000Y-49960000D02*
X77390000Y-50610000D01*
X77390000Y-50610000D02*
X78040000Y-50610000D01*
X84310000Y-43390000D02*
X83960000Y-43390000D01*
X84610000Y-43630000D02*
X84610000Y-44040000D01*
X84610000Y-49960000D02*
X84610000Y-50610000D01*
X84610000Y-50610000D02*
X83960000Y-50610000D01*
X84610000Y-43390000D02*
X84370000Y-43060000D01*
X84850000Y-43060000D01*
X84610000Y-43390000D01*
G36*
X84610000Y-43390000D02*
G01*
X84370000Y-43060000D01*
X84850000Y-43060000D01*
X84610000Y-43390000D01*
G37*
X102120000Y-39653641D02*
X102120000Y-39346359D01*
X102880000Y-39653641D02*
X102880000Y-39346359D01*
X103640580Y-40990000D02*
X103359420Y-40990000D01*
X103640580Y-42010000D02*
X103359420Y-42010000D01*
X93120000Y-48153641D02*
X93120000Y-47846359D01*
X93880000Y-48153641D02*
X93880000Y-47846359D01*
X75707836Y-47640000D02*
X75492164Y-47640000D01*
X75707836Y-48360000D02*
X75492164Y-48360000D01*
X48640580Y-40490000D02*
X48359420Y-40490000D01*
X48640580Y-41510000D02*
X48359420Y-41510000D01*
X29920000Y-61253641D02*
X29920000Y-60946359D01*
X30680000Y-61253641D02*
X30680000Y-60946359D01*
X80640000Y-41107836D02*
X80640000Y-40892164D01*
X81360000Y-41107836D02*
X81360000Y-40892164D01*
X91940000Y-44350000D02*
X91940000Y-45000000D01*
X91940000Y-45650000D02*
X91940000Y-45000000D01*
X95060000Y-44350000D02*
X95060000Y-45000000D01*
X95060000Y-45650000D02*
X95060000Y-45000000D01*
X95340000Y-46402500D02*
X95010000Y-46162500D01*
X95340000Y-45922500D01*
X95340000Y-46402500D01*
G36*
X95340000Y-46402500D02*
G01*
X95010000Y-46162500D01*
X95340000Y-45922500D01*
X95340000Y-46402500D01*
G37*
X73620000Y-46153641D02*
X73620000Y-45846359D01*
X74380000Y-46153641D02*
X74380000Y-45846359D01*
X48640580Y-38990000D02*
X48359420Y-38990000D01*
X48640580Y-40010000D02*
X48359420Y-40010000D01*
X46990000Y-44359420D02*
X46990000Y-44640580D01*
X48010000Y-44359420D02*
X48010000Y-44640580D01*
X51565000Y-45215000D02*
X51675000Y-45215000D01*
X51565000Y-47025000D02*
X51565000Y-45215000D01*
X51565000Y-55225000D02*
X51565000Y-48925000D01*
X53175000Y-45215000D02*
X64435000Y-45215000D01*
X64435000Y-45215000D02*
X64435000Y-46375000D01*
X64435000Y-55225000D02*
X64435000Y-49625000D01*
X54790000Y-40000000D02*
X54790000Y-42000000D01*
X58650000Y-40000000D02*
X54790000Y-40000000D01*
X58650000Y-42000000D02*
X54790000Y-42000000D01*
X91153641Y-35120000D02*
X90846359Y-35120000D01*
X91153641Y-35880000D02*
X90846359Y-35880000D01*
X105720000Y-34428641D02*
X105720000Y-34121359D01*
X106480000Y-34428641D02*
X106480000Y-34121359D01*
X79921693Y-38330810D02*
X79769190Y-38178307D01*
X80430810Y-37821693D02*
X80278307Y-37669190D01*
X95338748Y-31265000D02*
X95861252Y-31265000D01*
X95338748Y-32735000D02*
X95861252Y-32735000D01*
X65950000Y-32140000D02*
X66600000Y-32140000D01*
X65950000Y-35260000D02*
X66600000Y-35260000D01*
X67250000Y-32140000D02*
X66600000Y-32140000D01*
X67250000Y-35260000D02*
X66600000Y-35260000D01*
X67762500Y-32190000D02*
X67522500Y-31860000D01*
X68002500Y-31860000D01*
X67762500Y-32190000D01*
G36*
X67762500Y-32190000D02*
G01*
X67522500Y-31860000D01*
X68002500Y-31860000D01*
X67762500Y-32190000D01*
G37*
X94889642Y-58170000D02*
X94889642Y-60170000D01*
X96389642Y-56420000D02*
X95939642Y-56870000D01*
X96389642Y-61920000D02*
X95939642Y-61470000D01*
X98889642Y-56420000D02*
X96389642Y-56420000D01*
X98889642Y-56420000D02*
X99339642Y-56870000D01*
X98889642Y-61920000D02*
X96389642Y-61920000D01*
X98889642Y-61920000D02*
X99339642Y-61470000D01*
X100389642Y-58170000D02*
X100389642Y-60170000D01*
X95020000Y-39853641D02*
X95020000Y-39546359D01*
X95780000Y-39853641D02*
X95780000Y-39546359D01*
X48640580Y-35990000D02*
X48359420Y-35990000D01*
X48640580Y-37010000D02*
X48359420Y-37010000D01*
X87140000Y-55107836D02*
X87140000Y-54892164D01*
X87860000Y-55107836D02*
X87860000Y-54892164D01*
X99550000Y-31440000D02*
X101500000Y-31440000D01*
X99550000Y-36560000D02*
X101500000Y-36560000D01*
X103450000Y-31440000D02*
X101500000Y-31440000D01*
X103450000Y-36560000D02*
X101500000Y-36560000D01*
X104200000Y-31535000D02*
X103960000Y-31205000D01*
X104440000Y-31205000D01*
X104200000Y-31535000D01*
G36*
X104200000Y-31535000D02*
G01*
X103960000Y-31205000D01*
X104440000Y-31205000D01*
X104200000Y-31535000D01*
G37*
X103120000Y-39653641D02*
X103120000Y-39346359D01*
X103880000Y-39653641D02*
X103880000Y-39346359D01*
X80740000Y-52892164D02*
X80740000Y-53107836D01*
X81460000Y-52892164D02*
X81460000Y-53107836D01*
X104120000Y-48653641D02*
X104120000Y-48346359D01*
X104880000Y-48653641D02*
X104880000Y-48346359D01*
X85107836Y-35140000D02*
X84892164Y-35140000D01*
X85107836Y-35860000D02*
X84892164Y-35860000D01*
X78620000Y-41643642D02*
X78620000Y-41336360D01*
X79380000Y-41643642D02*
X79380000Y-41336360D01*
X70850000Y-48440000D02*
X71500000Y-48440000D01*
X70850000Y-51560000D02*
X71500000Y-51560000D01*
X72150000Y-48440000D02*
X71500000Y-48440000D01*
X72150000Y-51560000D02*
X71500000Y-51560000D01*
X70577500Y-51840000D02*
X70097500Y-51840000D01*
X70337500Y-51510000D01*
X70577500Y-51840000D01*
G36*
X70577500Y-51840000D02*
G01*
X70097500Y-51840000D01*
X70337500Y-51510000D01*
X70577500Y-51840000D01*
G37*
X85275000Y-36275000D02*
X88000000Y-36275000D01*
X85275000Y-36535000D02*
X85275000Y-36275000D01*
X85275000Y-41465000D02*
X85275000Y-41725000D01*
X85275000Y-41725000D02*
X88000000Y-41725000D01*
X90725000Y-36275000D02*
X88000000Y-36275000D01*
X90725000Y-36535000D02*
X90725000Y-36275000D01*
X90725000Y-41465000D02*
X90725000Y-41725000D01*
X90725000Y-41725000D02*
X88000000Y-41725000D01*
X92400000Y-36535000D02*
X90725000Y-36535000D01*
X86412164Y-47640000D02*
X86627836Y-47640000D01*
X86412164Y-48360000D02*
X86627836Y-48360000D01*
X86396359Y-60057500D02*
X86703641Y-60057500D01*
X86396359Y-60817500D02*
X86703641Y-60817500D01*
X50020000Y-45846359D02*
X50020000Y-46153641D01*
X50780000Y-45846359D02*
X50780000Y-46153641D01*
X84990000Y-62287500D02*
X84990000Y-62937500D01*
X84990000Y-63587500D02*
X84990000Y-62937500D01*
X88110000Y-62287500D02*
X88110000Y-62937500D01*
X88110000Y-63587500D02*
X88110000Y-62937500D01*
X85040000Y-61775000D02*
X84710000Y-62015000D01*
X84710000Y-61535000D01*
X85040000Y-61775000D01*
G36*
X85040000Y-61775000D02*
G01*
X84710000Y-62015000D01*
X84710000Y-61535000D01*
X85040000Y-61775000D01*
G37*
X81640000Y-41107836D02*
X81640000Y-40892164D01*
X82360000Y-41107836D02*
X82360000Y-40892164D01*
X80990000Y-32640580D02*
X80990000Y-32359420D01*
X82010000Y-32640580D02*
X82010000Y-32359420D01*
X60640000Y-37892164D02*
X60640000Y-38107836D01*
X61360000Y-37892164D02*
X61360000Y-38107836D01*
X86412164Y-43640000D02*
X86627836Y-43640000D01*
X86412164Y-44360000D02*
X86627836Y-44360000D01*
X104120000Y-55653641D02*
X104120000Y-55346359D01*
X104880000Y-55653641D02*
X104880000Y-55346359D01*
X68235000Y-69265000D02*
X68235000Y-69330000D01*
X68235000Y-75670000D02*
X66910000Y-75670000D01*
X68235000Y-75670000D02*
X68235000Y-75735000D01*
X71765000Y-69265000D02*
X68235000Y-69265000D01*
X71765000Y-69265000D02*
X71765000Y-69330000D01*
X71765000Y-75670000D02*
X71765000Y-75735000D01*
X71765000Y-75735000D02*
X68235000Y-75735000D01*
X78290000Y-61640000D02*
X78290000Y-67360000D01*
X78290000Y-67360000D02*
X78740000Y-67360000D01*
X78740000Y-61640000D02*
X78290000Y-61640000D01*
X82710000Y-61640000D02*
X82260000Y-61640000D01*
X82710000Y-62590000D02*
X82710000Y-61640000D01*
X82710000Y-66410000D02*
X82710000Y-67360000D01*
X82710000Y-67360000D02*
X82260000Y-67360000D01*
X84200000Y-66410000D02*
X82710000Y-66410000D01*
X50890000Y-35859420D02*
X50890000Y-36140580D01*
X51910000Y-35859420D02*
X51910000Y-36140580D01*
X35340000Y-61592164D02*
X35340000Y-61807836D01*
X36060000Y-61592164D02*
X36060000Y-61807836D01*
X76250000Y-72000000D02*
X76250000Y-74000000D01*
X77750000Y-70250000D02*
X77300000Y-70700000D01*
X77750000Y-75750000D02*
X77300000Y-75300000D01*
X80250000Y-70250000D02*
X77750000Y-70250000D01*
X80250000Y-70250000D02*
X80700000Y-70700000D01*
X80250000Y-75750000D02*
X77750000Y-75750000D01*
X80250000Y-75750000D02*
X80700000Y-75300000D01*
X81750000Y-72000000D02*
X81750000Y-74000000D01*
X75490000Y-41140580D02*
X75490000Y-40859420D01*
X76510000Y-41140580D02*
X76510000Y-40859420D01*
X99250000Y-39140000D02*
X99900000Y-39140000D01*
X99250000Y-42260000D02*
X99900000Y-42260000D01*
X100550000Y-39140000D02*
X99900000Y-39140000D01*
X100550000Y-42260000D02*
X99900000Y-42260000D01*
X98977500Y-42540000D02*
X98497500Y-42540000D01*
X98737500Y-42210000D01*
X98977500Y-42540000D01*
G36*
X98977500Y-42540000D02*
G01*
X98497500Y-42540000D01*
X98737500Y-42210000D01*
X98977500Y-42540000D01*
G37*
X97677064Y-27290000D02*
X93322936Y-27290000D01*
X97677064Y-30710000D02*
X93322936Y-30710000D01*
X92146359Y-57120000D02*
X92453641Y-57120000D01*
X92146359Y-57880000D02*
X92453641Y-57880000D01*
X68720000Y-33546359D02*
X68720000Y-33853641D01*
X69480000Y-33546359D02*
X69480000Y-33853641D01*
X74640000Y-45892164D02*
X74640000Y-46107836D01*
X75360000Y-45892164D02*
X75360000Y-46107836D01*
X61990000Y-37859420D02*
X61990000Y-38140580D01*
X63010000Y-37859420D02*
X63010000Y-38140580D01*
X99312500Y-42590000D02*
X99962500Y-42590000D01*
X99312500Y-45710000D02*
X99962500Y-45710000D01*
X100612500Y-42590000D02*
X99962500Y-42590000D01*
X100612500Y-45710000D02*
X99962500Y-45710000D01*
X101125000Y-42640000D02*
X100885000Y-42310000D01*
X101365000Y-42310000D01*
X101125000Y-42640000D01*
G36*
X101125000Y-42640000D02*
G01*
X100885000Y-42310000D01*
X101365000Y-42310000D01*
X101125000Y-42640000D01*
G37*
X76990000Y-41140580D02*
X76990000Y-40859420D01*
X78010000Y-41140580D02*
X78010000Y-40859420D01*
X66669190Y-37921693D02*
X66821693Y-37769190D01*
X67178307Y-38430810D02*
X67330810Y-38278307D01*
X82500000Y-53400000D02*
X82500000Y-56600000D01*
X86500000Y-53400000D02*
X82500000Y-53400000D01*
X73490000Y-32415580D02*
X73490000Y-32134420D01*
X74510000Y-32415580D02*
X74510000Y-32134420D01*
X54765000Y-36238748D02*
X54765000Y-36761252D01*
X56235000Y-36238748D02*
X56235000Y-36761252D01*
X75707836Y-44040000D02*
X75492164Y-44040000D01*
X75707836Y-44760000D02*
X75492164Y-44760000D01*
X94120000Y-47846359D02*
X94120000Y-48153641D01*
X94880000Y-47846359D02*
X94880000Y-48153641D01*
X52350000Y-32000000D02*
X56210000Y-32000000D01*
X52350000Y-34000000D02*
X56210000Y-34000000D01*
X56210000Y-34000000D02*
X56210000Y-32000000D01*
X38953641Y-56120000D02*
X38646359Y-56120000D01*
X38953641Y-56880000D02*
X38646359Y-56880000D01*
X48640580Y-32990000D02*
X48359420Y-32990000D01*
X48640580Y-34010000D02*
X48359420Y-34010000D01*
X96165000Y-40961252D02*
X96165000Y-40438748D01*
X97635000Y-40961252D02*
X97635000Y-40438748D01*
X82446359Y-52320000D02*
X82753641Y-52320000D01*
X82446359Y-53080000D02*
X82753641Y-53080000D01*
X105720000Y-29653641D02*
X105720000Y-29346359D01*
X106480000Y-29653641D02*
X106480000Y-29346359D01*
X85912500Y-30490000D02*
X86562500Y-30490000D01*
X85912500Y-33610000D02*
X86562500Y-33610000D01*
X87212500Y-30490000D02*
X86562500Y-30490000D01*
X87212500Y-33610000D02*
X86562500Y-33610000D01*
X87725000Y-30540000D02*
X87485000Y-30210000D01*
X87965000Y-30210000D01*
X87725000Y-30540000D01*
G36*
X87725000Y-30540000D02*
G01*
X87485000Y-30210000D01*
X87965000Y-30210000D01*
X87725000Y-30540000D01*
G37*
X76200000Y-30940000D02*
X77000000Y-30940000D01*
X76200000Y-34060000D02*
X77000000Y-34060000D01*
X77800000Y-30940000D02*
X77000000Y-30940000D01*
X77800000Y-34060000D02*
X77000000Y-34060000D01*
X78300000Y-30990000D02*
X78060000Y-30660000D01*
X78540000Y-30660000D01*
X78300000Y-30990000D01*
G36*
X78300000Y-30990000D02*
G01*
X78060000Y-30660000D01*
X78540000Y-30660000D01*
X78300000Y-30990000D01*
G37*
X62677064Y-31790000D02*
X58322936Y-31790000D01*
X62677064Y-35210000D02*
X58322936Y-35210000D01*
X79620000Y-32153641D02*
X79620000Y-31846359D01*
X80380000Y-32153641D02*
X80380000Y-31846359D01*
X97438748Y-37065000D02*
X97961252Y-37065000D01*
X97438748Y-38535000D02*
X97961252Y-38535000D01*
X104120000Y-62653641D02*
X104120000Y-62346359D01*
X104880000Y-62653641D02*
X104880000Y-62346359D01*
X95020000Y-41546359D02*
X95020000Y-41853641D01*
X95780000Y-41546359D02*
X95780000Y-41853641D01*
X89000000Y-30350000D02*
X89000000Y-34360000D01*
X89000000Y-34360000D02*
X91000000Y-34360000D01*
X91000000Y-30350000D02*
X91000000Y-34360000D01*
X52300000Y-34850000D02*
X52300000Y-38710000D01*
X52300000Y-38710000D02*
X54300000Y-38710000D01*
X54300000Y-34850000D02*
X54300000Y-38710000D01*
X67421693Y-56369190D02*
X67269190Y-56521693D01*
X67930810Y-56878307D02*
X67778307Y-57030810D01*
X70850000Y-44940000D02*
X71500000Y-44940000D01*
X70850000Y-48060000D02*
X71500000Y-48060000D01*
X72150000Y-44940000D02*
X71500000Y-44940000D01*
X72150000Y-48060000D02*
X71500000Y-48060000D01*
X70577500Y-48340000D02*
X70097500Y-48340000D01*
X70337500Y-48010000D01*
X70577500Y-48340000D01*
G36*
X70577500Y-48340000D02*
G01*
X70097500Y-48340000D01*
X70337500Y-48010000D01*
X70577500Y-48340000D01*
G37*
X68620000Y-49846359D02*
X68620000Y-50153641D01*
X69380000Y-49846359D02*
X69380000Y-50153641D01*
X79740000Y-52892164D02*
X79740000Y-53107836D01*
X80460000Y-52892164D02*
X80460000Y-53107836D01*
X61238748Y-39890000D02*
X61761252Y-39890000D01*
X61238748Y-42110000D02*
X61761252Y-42110000D01*
X87346359Y-29120000D02*
X87653641Y-29120000D01*
X87346359Y-29880000D02*
X87653641Y-29880000D01*
X81140000Y-54892164D02*
X81140000Y-55107836D01*
X81860000Y-54892164D02*
X81860000Y-55107836D01*
X57787500Y-35990000D02*
X58437500Y-35990000D01*
X57787500Y-39110000D02*
X58437500Y-39110000D01*
X59087500Y-35990000D02*
X58437500Y-35990000D01*
X59087500Y-39110000D02*
X58437500Y-39110000D01*
X57515000Y-39390000D02*
X57035000Y-39390000D01*
X57275000Y-39060000D01*
X57515000Y-39390000D01*
G36*
X57515000Y-39390000D02*
G01*
X57035000Y-39390000D01*
X57275000Y-39060000D01*
X57515000Y-39390000D01*
G37*
X76346359Y-69120000D02*
X76653641Y-69120000D01*
X76346359Y-69880000D02*
X76653641Y-69880000D01*
X68620000Y-46653641D02*
X68620000Y-46346359D01*
X69380000Y-46653641D02*
X69380000Y-46346359D01*
X79620000Y-41653641D02*
X79620000Y-41346359D01*
X80380000Y-41653641D02*
X80380000Y-41346359D01*
X95500000Y-43850000D02*
X95500000Y-47860000D01*
X95500000Y-47860000D02*
X97500000Y-47860000D01*
X97500000Y-43850000D02*
X97500000Y-47860000D01*
X37153641Y-53820000D02*
X36846359Y-53820000D01*
X37153641Y-54580000D02*
X36846359Y-54580000D01*
X52990000Y-40359420D02*
X52990000Y-40640580D01*
X54010000Y-40359420D02*
X54010000Y-40640580D01*
X37153641Y-52120000D02*
X36846359Y-52120000D01*
X37153641Y-52880000D02*
X36846359Y-52880000D01*
X109940000Y-36040000D02*
X109940000Y-43860000D01*
X109940000Y-43860000D02*
X116060000Y-43860000D01*
X110700000Y-40000000D02*
X111700000Y-40000000D01*
X110700000Y-41600000D02*
X110700000Y-40000000D01*
X110860000Y-36040000D02*
X109940000Y-36040000D01*
X110860000Y-37640000D02*
X109940000Y-37640000D01*
X110860000Y-37640000D02*
X110860000Y-36040000D01*
X111140000Y-37640000D02*
X110860000Y-37640000D01*
X111700000Y-40000000D02*
X111700000Y-41600000D01*
X111700000Y-41600000D02*
X110700000Y-41600000D01*
X112500000Y-39500000D02*
X113500000Y-39500000D01*
X112500000Y-43860000D02*
X112500000Y-39500000D01*
X113500000Y-39500000D02*
X113500000Y-43860000D01*
X114300000Y-40000000D02*
X114300000Y-41600000D01*
X114300000Y-41600000D02*
X115300000Y-41600000D01*
X114300000Y-43860000D02*
X114300000Y-41600000D01*
X114800000Y-43860000D02*
X114800000Y-41600000D01*
X114860000Y-36425000D02*
X114860000Y-37640000D01*
X115140000Y-36040000D02*
X115140000Y-37640000D01*
X115140000Y-37640000D02*
X114860000Y-37640000D01*
X115140000Y-37640000D02*
X116060000Y-37640000D01*
X115300000Y-40000000D02*
X114300000Y-40000000D01*
X115300000Y-41600000D02*
X115300000Y-40000000D01*
X116060000Y-36040000D02*
X115140000Y-36040000D01*
X116060000Y-43860000D02*
X116060000Y-36040000D01*
%LPC*%
D13*
X117428328Y-55461653D02*
X116714042Y-54961653D01*
X117428328Y-54604510D02*
X115928328Y-54604510D01*
X115928328Y-54604510D02*
X115928328Y-55175939D01*
X115928328Y-55175939D02*
X115999757Y-55318796D01*
X115999757Y-55318796D02*
X116071185Y-55390225D01*
X116071185Y-55390225D02*
X116214042Y-55461653D01*
X116214042Y-55461653D02*
X116428328Y-55461653D01*
X116428328Y-55461653D02*
X116571185Y-55390225D01*
X116571185Y-55390225D02*
X116642614Y-55318796D01*
X116642614Y-55318796D02*
X116714042Y-55175939D01*
X116714042Y-55175939D02*
X116714042Y-54604510D01*
X116642614Y-56104510D02*
X116642614Y-56604510D01*
X117428328Y-56818796D02*
X117428328Y-56104510D01*
X117428328Y-56104510D02*
X115928328Y-56104510D01*
X115928328Y-56104510D02*
X115928328Y-56818796D01*
X115928328Y-57247368D02*
X117428328Y-57747368D01*
X117428328Y-57747368D02*
X115928328Y-58247368D01*
X116642614Y-60390224D02*
X116714042Y-60604510D01*
X116714042Y-60604510D02*
X116785471Y-60675939D01*
X116785471Y-60675939D02*
X116928328Y-60747367D01*
X116928328Y-60747367D02*
X117142614Y-60747367D01*
X117142614Y-60747367D02*
X117285471Y-60675939D01*
X117285471Y-60675939D02*
X117356900Y-60604510D01*
X117356900Y-60604510D02*
X117428328Y-60461653D01*
X117428328Y-60461653D02*
X117428328Y-59890224D01*
X117428328Y-59890224D02*
X115928328Y-59890224D01*
X115928328Y-59890224D02*
X115928328Y-60390224D01*
X115928328Y-60390224D02*
X115999757Y-60533082D01*
X115999757Y-60533082D02*
X116071185Y-60604510D01*
X116071185Y-60604510D02*
X116214042Y-60675939D01*
X116214042Y-60675939D02*
X116356900Y-60675939D01*
X116356900Y-60675939D02*
X116499757Y-60604510D01*
X116499757Y-60604510D02*
X116571185Y-60533082D01*
X116571185Y-60533082D02*
X116642614Y-60390224D01*
X116642614Y-60390224D02*
X116642614Y-59890224D01*
X114128328Y-55247368D02*
X115342614Y-55247368D01*
X115342614Y-55247368D02*
X115485471Y-55175939D01*
X115485471Y-55175939D02*
X115556900Y-55104510D01*
X115556900Y-55104510D02*
X115628328Y-54961653D01*
X115628328Y-54961653D02*
X115628328Y-54747368D01*
X115628328Y-54747368D02*
X115556900Y-54604510D01*
X115056900Y-55247368D02*
X115128328Y-55104510D01*
X115128328Y-55104510D02*
X115128328Y-54818796D01*
X115128328Y-54818796D02*
X115056900Y-54675939D01*
X115056900Y-54675939D02*
X114985471Y-54604510D01*
X114985471Y-54604510D02*
X114842614Y-54533082D01*
X114842614Y-54533082D02*
X114414042Y-54533082D01*
X114414042Y-54533082D02*
X114271185Y-54604510D01*
X114271185Y-54604510D02*
X114199757Y-54675939D01*
X114199757Y-54675939D02*
X114128328Y-54818796D01*
X114128328Y-54818796D02*
X114128328Y-55104510D01*
X114128328Y-55104510D02*
X114199757Y-55247368D01*
X115056900Y-55890225D02*
X115128328Y-56033082D01*
X115128328Y-56033082D02*
X115128328Y-56318796D01*
X115128328Y-56318796D02*
X115056900Y-56461653D01*
X115056900Y-56461653D02*
X114914042Y-56533082D01*
X114914042Y-56533082D02*
X114842614Y-56533082D01*
X114842614Y-56533082D02*
X114699757Y-56461653D01*
X114699757Y-56461653D02*
X114628328Y-56318796D01*
X114628328Y-56318796D02*
X114628328Y-56104511D01*
X114628328Y-56104511D02*
X114556900Y-55961653D01*
X114556900Y-55961653D02*
X114414042Y-55890225D01*
X114414042Y-55890225D02*
X114342614Y-55890225D01*
X114342614Y-55890225D02*
X114199757Y-55961653D01*
X114199757Y-55961653D02*
X114128328Y-56104511D01*
X114128328Y-56104511D02*
X114128328Y-56318796D01*
X114128328Y-56318796D02*
X114199757Y-56461653D01*
X115128328Y-57175939D02*
X113628328Y-57175939D01*
X115128328Y-57818797D02*
X114342614Y-57818797D01*
X114342614Y-57818797D02*
X114199757Y-57747368D01*
X114199757Y-57747368D02*
X114128328Y-57604511D01*
X114128328Y-57604511D02*
X114128328Y-57390225D01*
X114128328Y-57390225D02*
X114199757Y-57247368D01*
X114199757Y-57247368D02*
X114271185Y-57175939D01*
X114128328Y-58533082D02*
X115628328Y-58533082D01*
X114199757Y-58533082D02*
X114128328Y-58675940D01*
X114128328Y-58675940D02*
X114128328Y-58961654D01*
X114128328Y-58961654D02*
X114199757Y-59104511D01*
X114199757Y-59104511D02*
X114271185Y-59175940D01*
X114271185Y-59175940D02*
X114414042Y-59247368D01*
X114414042Y-59247368D02*
X114842614Y-59247368D01*
X114842614Y-59247368D02*
X114985471Y-59175940D01*
X114985471Y-59175940D02*
X115056900Y-59104511D01*
X115056900Y-59104511D02*
X115128328Y-58961654D01*
X115128328Y-58961654D02*
X115128328Y-58675940D01*
X115128328Y-58675940D02*
X115056900Y-58533082D01*
X115056900Y-59818797D02*
X115128328Y-59961654D01*
X115128328Y-59961654D02*
X115128328Y-60247368D01*
X115128328Y-60247368D02*
X115056900Y-60390225D01*
X115056900Y-60390225D02*
X114914042Y-60461654D01*
X114914042Y-60461654D02*
X114842614Y-60461654D01*
X114842614Y-60461654D02*
X114699757Y-60390225D01*
X114699757Y-60390225D02*
X114628328Y-60247368D01*
X114628328Y-60247368D02*
X114628328Y-60033083D01*
X114628328Y-60033083D02*
X114556900Y-59890225D01*
X114556900Y-59890225D02*
X114414042Y-59818797D01*
X114414042Y-59818797D02*
X114342614Y-59818797D01*
X114342614Y-59818797D02*
X114199757Y-59890225D01*
X114199757Y-59890225D02*
X114128328Y-60033083D01*
X114128328Y-60033083D02*
X114128328Y-60247368D01*
X114128328Y-60247368D02*
X114199757Y-60390225D01*
D14*
X112000000Y-72000000D03*
D15*
X34835000Y-64000000D03*
D16*
X34835000Y-56500000D03*
D17*
X32685000Y-62650000D03*
X36985000Y-62650000D03*
X32685000Y-57850000D03*
X36985000Y-57850000D03*
D14*
X35000000Y-72000000D03*
X35000000Y-30000000D03*
X112000000Y-30000000D03*
G36*
G01*
X84875000Y-44350000D02*
X84875000Y-44450000D01*
G75*
G02*
X84825000Y-44500000I-50000J0D01*
G01*
X84050000Y-44500000D01*
G75*
G02*
X84000000Y-44450000I0J50000D01*
G01*
X84000000Y-44350000D01*
G75*
G02*
X84050000Y-44300000I50000J0D01*
G01*
X84825000Y-44300000D01*
G75*
G02*
X84875000Y-44350000I0J-50000D01*
G01*
G37*
G36*
G01*
X84875000Y-44750000D02*
X84875000Y-44850000D01*
G75*
G02*
X84825000Y-44900000I-50000J0D01*
G01*
X84050000Y-44900000D01*
G75*
G02*
X84000000Y-44850000I0J50000D01*
G01*
X84000000Y-44750000D01*
G75*
G02*
X84050000Y-44700000I50000J0D01*
G01*
X84825000Y-44700000D01*
G75*
G02*
X84875000Y-44750000I0J-50000D01*
G01*
G37*
G36*
G01*
X84875000Y-45150000D02*
X84875000Y-45250000D01*
G75*
G02*
X84825000Y-45300000I-50000J0D01*
G01*
X84050000Y-45300000D01*
G75*
G02*
X84000000Y-45250000I0J50000D01*
G01*
X84000000Y-45150000D01*
G75*
G02*
X84050000Y-45100000I50000J0D01*
G01*
X84825000Y-45100000D01*
G75*
G02*
X84875000Y-45150000I0J-50000D01*
G01*
G37*
G36*
G01*
X84875000Y-45550000D02*
X84875000Y-45650000D01*
G75*
G02*
X84825000Y-45700000I-50000J0D01*
G01*
X84050000Y-45700000D01*
G75*
G02*
X84000000Y-45650000I0J50000D01*
G01*
X84000000Y-45550000D01*
G75*
G02*
X84050000Y-45500000I50000J0D01*
G01*
X84825000Y-45500000D01*
G75*
G02*
X84875000Y-45550000I0J-50000D01*
G01*
G37*
G36*
G01*
X84875000Y-45950000D02*
X84875000Y-46050000D01*
G75*
G02*
X84825000Y-46100000I-50000J0D01*
G01*
X84050000Y-46100000D01*
G75*
G02*
X84000000Y-46050000I0J50000D01*
G01*
X84000000Y-45950000D01*
G75*
G02*
X84050000Y-45900000I50000J0D01*
G01*
X84825000Y-45900000D01*
G75*
G02*
X84875000Y-45950000I0J-50000D01*
G01*
G37*
G36*
G01*
X84875000Y-46350000D02*
X84875000Y-46450000D01*
G75*
G02*
X84825000Y-46500000I-50000J0D01*
G01*
X84050000Y-46500000D01*
G75*
G02*
X84000000Y-46450000I0J50000D01*
G01*
X84000000Y-46350000D01*
G75*
G02*
X84050000Y-46300000I50000J0D01*
G01*
X84825000Y-46300000D01*
G75*
G02*
X84875000Y-46350000I0J-50000D01*
G01*
G37*
G36*
G01*
X84875000Y-46750000D02*
X84875000Y-46850000D01*
G75*
G02*
X84825000Y-46900000I-50000J0D01*
G01*
X84050000Y-46900000D01*
G75*
G02*
X84000000Y-46850000I0J50000D01*
G01*
X84000000Y-46750000D01*
G75*
G02*
X84050000Y-46700000I50000J0D01*
G01*
X84825000Y-46700000D01*
G75*
G02*
X84875000Y-46750000I0J-50000D01*
G01*
G37*
G36*
G01*
X84875000Y-47150000D02*
X84875000Y-47250000D01*
G75*
G02*
X84825000Y-47300000I-50000J0D01*
G01*
X84050000Y-47300000D01*
G75*
G02*
X84000000Y-47250000I0J50000D01*
G01*
X84000000Y-47150000D01*
G75*
G02*
X84050000Y-47100000I50000J0D01*
G01*
X84825000Y-47100000D01*
G75*
G02*
X84875000Y-47150000I0J-50000D01*
G01*
G37*
G36*
G01*
X84875000Y-47550000D02*
X84875000Y-47650000D01*
G75*
G02*
X84825000Y-47700000I-50000J0D01*
G01*
X84050000Y-47700000D01*
G75*
G02*
X84000000Y-47650000I0J50000D01*
G01*
X84000000Y-47550000D01*
G75*
G02*
X84050000Y-47500000I50000J0D01*
G01*
X84825000Y-47500000D01*
G75*
G02*
X84875000Y-47550000I0J-50000D01*
G01*
G37*
G36*
G01*
X84875000Y-47950000D02*
X84875000Y-48050000D01*
G75*
G02*
X84825000Y-48100000I-50000J0D01*
G01*
X84050000Y-48100000D01*
G75*
G02*
X84000000Y-48050000I0J50000D01*
G01*
X84000000Y-47950000D01*
G75*
G02*
X84050000Y-47900000I50000J0D01*
G01*
X84825000Y-47900000D01*
G75*
G02*
X84875000Y-47950000I0J-50000D01*
G01*
G37*
G36*
G01*
X84875000Y-48350000D02*
X84875000Y-48450000D01*
G75*
G02*
X84825000Y-48500000I-50000J0D01*
G01*
X84050000Y-48500000D01*
G75*
G02*
X84000000Y-48450000I0J50000D01*
G01*
X84000000Y-48350000D01*
G75*
G02*
X84050000Y-48300000I50000J0D01*
G01*
X84825000Y-48300000D01*
G75*
G02*
X84875000Y-48350000I0J-50000D01*
G01*
G37*
G36*
G01*
X84875000Y-48750000D02*
X84875000Y-48850000D01*
G75*
G02*
X84825000Y-48900000I-50000J0D01*
G01*
X84050000Y-48900000D01*
G75*
G02*
X84000000Y-48850000I0J50000D01*
G01*
X84000000Y-48750000D01*
G75*
G02*
X84050000Y-48700000I50000J0D01*
G01*
X84825000Y-48700000D01*
G75*
G02*
X84875000Y-48750000I0J-50000D01*
G01*
G37*
G36*
G01*
X84875000Y-49150000D02*
X84875000Y-49250000D01*
G75*
G02*
X84825000Y-49300000I-50000J0D01*
G01*
X84050000Y-49300000D01*
G75*
G02*
X84000000Y-49250000I0J50000D01*
G01*
X84000000Y-49150000D01*
G75*
G02*
X84050000Y-49100000I50000J0D01*
G01*
X84825000Y-49100000D01*
G75*
G02*
X84875000Y-49150000I0J-50000D01*
G01*
G37*
G36*
G01*
X84875000Y-49550000D02*
X84875000Y-49650000D01*
G75*
G02*
X84825000Y-49700000I-50000J0D01*
G01*
X84050000Y-49700000D01*
G75*
G02*
X84000000Y-49650000I0J50000D01*
G01*
X84000000Y-49550000D01*
G75*
G02*
X84050000Y-49500000I50000J0D01*
G01*
X84825000Y-49500000D01*
G75*
G02*
X84875000Y-49550000I0J-50000D01*
G01*
G37*
G36*
G01*
X83700000Y-50050000D02*
X83700000Y-50825000D01*
G75*
G02*
X83650000Y-50875000I-50000J0D01*
G01*
X83550000Y-50875000D01*
G75*
G02*
X83500000Y-50825000I0J50000D01*
G01*
X83500000Y-50050000D01*
G75*
G02*
X83550000Y-50000000I50000J0D01*
G01*
X83650000Y-50000000D01*
G75*
G02*
X83700000Y-50050000I0J-50000D01*
G01*
G37*
G36*
G01*
X83300000Y-50050000D02*
X83300000Y-50825000D01*
G75*
G02*
X83250000Y-50875000I-50000J0D01*
G01*
X83150000Y-50875000D01*
G75*
G02*
X83100000Y-50825000I0J50000D01*
G01*
X83100000Y-50050000D01*
G75*
G02*
X83150000Y-50000000I50000J0D01*
G01*
X83250000Y-50000000D01*
G75*
G02*
X83300000Y-50050000I0J-50000D01*
G01*
G37*
G36*
G01*
X82900000Y-50050000D02*
X82900000Y-50825000D01*
G75*
G02*
X82850000Y-50875000I-50000J0D01*
G01*
X82750000Y-50875000D01*
G75*
G02*
X82700000Y-50825000I0J50000D01*
G01*
X82700000Y-50050000D01*
G75*
G02*
X82750000Y-50000000I50000J0D01*
G01*
X82850000Y-50000000D01*
G75*
G02*
X82900000Y-50050000I0J-50000D01*
G01*
G37*
G36*
G01*
X82500000Y-50050000D02*
X82500000Y-50825000D01*
G75*
G02*
X82450000Y-50875000I-50000J0D01*
G01*
X82350000Y-50875000D01*
G75*
G02*
X82300000Y-50825000I0J50000D01*
G01*
X82300000Y-50050000D01*
G75*
G02*
X82350000Y-50000000I50000J0D01*
G01*
X82450000Y-50000000D01*
G75*
G02*
X82500000Y-50050000I0J-50000D01*
G01*
G37*
G36*
G01*
X82100000Y-50050000D02*
X82100000Y-50825000D01*
G75*
G02*
X82050000Y-50875000I-50000J0D01*
G01*
X81950000Y-50875000D01*
G75*
G02*
X81900000Y-50825000I0J50000D01*
G01*
X81900000Y-50050000D01*
G75*
G02*
X81950000Y-50000000I50000J0D01*
G01*
X82050000Y-50000000D01*
G75*
G02*
X82100000Y-50050000I0J-50000D01*
G01*
G37*
G36*
G01*
X81700000Y-50050000D02*
X81700000Y-50825000D01*
G75*
G02*
X81650000Y-50875000I-50000J0D01*
G01*
X81550000Y-50875000D01*
G75*
G02*
X81500000Y-50825000I0J50000D01*
G01*
X81500000Y-50050000D01*
G75*
G02*
X81550000Y-50000000I50000J0D01*
G01*
X81650000Y-50000000D01*
G75*
G02*
X81700000Y-50050000I0J-50000D01*
G01*
G37*
G36*
G01*
X81300000Y-50050000D02*
X81300000Y-50825000D01*
G75*
G02*
X81250000Y-50875000I-50000J0D01*
G01*
X81150000Y-50875000D01*
G75*
G02*
X81100000Y-50825000I0J50000D01*
G01*
X81100000Y-50050000D01*
G75*
G02*
X81150000Y-50000000I50000J0D01*
G01*
X81250000Y-50000000D01*
G75*
G02*
X81300000Y-50050000I0J-50000D01*
G01*
G37*
G36*
G01*
X80900000Y-50050000D02*
X80900000Y-50825000D01*
G75*
G02*
X80850000Y-50875000I-50000J0D01*
G01*
X80750000Y-50875000D01*
G75*
G02*
X80700000Y-50825000I0J50000D01*
G01*
X80700000Y-50050000D01*
G75*
G02*
X80750000Y-50000000I50000J0D01*
G01*
X80850000Y-50000000D01*
G75*
G02*
X80900000Y-50050000I0J-50000D01*
G01*
G37*
G36*
G01*
X80500000Y-50050000D02*
X80500000Y-50825000D01*
G75*
G02*
X80450000Y-50875000I-50000J0D01*
G01*
X80350000Y-50875000D01*
G75*
G02*
X80300000Y-50825000I0J50000D01*
G01*
X80300000Y-50050000D01*
G75*
G02*
X80350000Y-50000000I50000J0D01*
G01*
X80450000Y-50000000D01*
G75*
G02*
X80500000Y-50050000I0J-50000D01*
G01*
G37*
G36*
G01*
X80100000Y-50050000D02*
X80100000Y-50825000D01*
G75*
G02*
X80050000Y-50875000I-50000J0D01*
G01*
X79950000Y-50875000D01*
G75*
G02*
X79900000Y-50825000I0J50000D01*
G01*
X79900000Y-50050000D01*
G75*
G02*
X79950000Y-50000000I50000J0D01*
G01*
X80050000Y-50000000D01*
G75*
G02*
X80100000Y-50050000I0J-50000D01*
G01*
G37*
G36*
G01*
X79700000Y-50050000D02*
X79700000Y-50825000D01*
G75*
G02*
X79650000Y-50875000I-50000J0D01*
G01*
X79550000Y-50875000D01*
G75*
G02*
X79500000Y-50825000I0J50000D01*
G01*
X79500000Y-50050000D01*
G75*
G02*
X79550000Y-50000000I50000J0D01*
G01*
X79650000Y-50000000D01*
G75*
G02*
X79700000Y-50050000I0J-50000D01*
G01*
G37*
G36*
G01*
X79300000Y-50050000D02*
X79300000Y-50825000D01*
G75*
G02*
X79250000Y-50875000I-50000J0D01*
G01*
X79150000Y-50875000D01*
G75*
G02*
X79100000Y-50825000I0J50000D01*
G01*
X79100000Y-50050000D01*
G75*
G02*
X79150000Y-50000000I50000J0D01*
G01*
X79250000Y-50000000D01*
G75*
G02*
X79300000Y-50050000I0J-50000D01*
G01*
G37*
G36*
G01*
X78900000Y-50050000D02*
X78900000Y-50825000D01*
G75*
G02*
X78850000Y-50875000I-50000J0D01*
G01*
X78750000Y-50875000D01*
G75*
G02*
X78700000Y-50825000I0J50000D01*
G01*
X78700000Y-50050000D01*
G75*
G02*
X78750000Y-50000000I50000J0D01*
G01*
X78850000Y-50000000D01*
G75*
G02*
X78900000Y-50050000I0J-50000D01*
G01*
G37*
G36*
G01*
X78500000Y-50050000D02*
X78500000Y-50825000D01*
G75*
G02*
X78450000Y-50875000I-50000J0D01*
G01*
X78350000Y-50875000D01*
G75*
G02*
X78300000Y-50825000I0J50000D01*
G01*
X78300000Y-50050000D01*
G75*
G02*
X78350000Y-50000000I50000J0D01*
G01*
X78450000Y-50000000D01*
G75*
G02*
X78500000Y-50050000I0J-50000D01*
G01*
G37*
G36*
G01*
X78000000Y-49550000D02*
X78000000Y-49650000D01*
G75*
G02*
X77950000Y-49700000I-50000J0D01*
G01*
X77175000Y-49700000D01*
G75*
G02*
X77125000Y-49650000I0J50000D01*
G01*
X77125000Y-49550000D01*
G75*
G02*
X77175000Y-49500000I50000J0D01*
G01*
X77950000Y-49500000D01*
G75*
G02*
X78000000Y-49550000I0J-50000D01*
G01*
G37*
G36*
G01*
X78000000Y-49150000D02*
X78000000Y-49250000D01*
G75*
G02*
X77950000Y-49300000I-50000J0D01*
G01*
X77175000Y-49300000D01*
G75*
G02*
X77125000Y-49250000I0J50000D01*
G01*
X77125000Y-49150000D01*
G75*
G02*
X77175000Y-49100000I50000J0D01*
G01*
X77950000Y-49100000D01*
G75*
G02*
X78000000Y-49150000I0J-50000D01*
G01*
G37*
G36*
G01*
X78000000Y-48750000D02*
X78000000Y-48850000D01*
G75*
G02*
X77950000Y-48900000I-50000J0D01*
G01*
X77175000Y-48900000D01*
G75*
G02*
X77125000Y-48850000I0J50000D01*
G01*
X77125000Y-48750000D01*
G75*
G02*
X77175000Y-48700000I50000J0D01*
G01*
X77950000Y-48700000D01*
G75*
G02*
X78000000Y-48750000I0J-50000D01*
G01*
G37*
G36*
G01*
X78000000Y-48350000D02*
X78000000Y-48450000D01*
G75*
G02*
X77950000Y-48500000I-50000J0D01*
G01*
X77175000Y-48500000D01*
G75*
G02*
X77125000Y-48450000I0J50000D01*
G01*
X77125000Y-48350000D01*
G75*
G02*
X77175000Y-48300000I50000J0D01*
G01*
X77950000Y-48300000D01*
G75*
G02*
X78000000Y-48350000I0J-50000D01*
G01*
G37*
G36*
G01*
X78000000Y-47950000D02*
X78000000Y-48050000D01*
G75*
G02*
X77950000Y-48100000I-50000J0D01*
G01*
X77175000Y-48100000D01*
G75*
G02*
X77125000Y-48050000I0J50000D01*
G01*
X77125000Y-47950000D01*
G75*
G02*
X77175000Y-47900000I50000J0D01*
G01*
X77950000Y-47900000D01*
G75*
G02*
X78000000Y-47950000I0J-50000D01*
G01*
G37*
G36*
G01*
X78000000Y-47550000D02*
X78000000Y-47650000D01*
G75*
G02*
X77950000Y-47700000I-50000J0D01*
G01*
X77175000Y-47700000D01*
G75*
G02*
X77125000Y-47650000I0J50000D01*
G01*
X77125000Y-47550000D01*
G75*
G02*
X77175000Y-47500000I50000J0D01*
G01*
X77950000Y-47500000D01*
G75*
G02*
X78000000Y-47550000I0J-50000D01*
G01*
G37*
G36*
G01*
X78000000Y-47150000D02*
X78000000Y-47250000D01*
G75*
G02*
X77950000Y-47300000I-50000J0D01*
G01*
X77175000Y-47300000D01*
G75*
G02*
X77125000Y-47250000I0J50000D01*
G01*
X77125000Y-47150000D01*
G75*
G02*
X77175000Y-47100000I50000J0D01*
G01*
X77950000Y-47100000D01*
G75*
G02*
X78000000Y-47150000I0J-50000D01*
G01*
G37*
G36*
G01*
X78000000Y-46750000D02*
X78000000Y-46850000D01*
G75*
G02*
X77950000Y-46900000I-50000J0D01*
G01*
X77175000Y-46900000D01*
G75*
G02*
X77125000Y-46850000I0J50000D01*
G01*
X77125000Y-46750000D01*
G75*
G02*
X77175000Y-46700000I50000J0D01*
G01*
X77950000Y-46700000D01*
G75*
G02*
X78000000Y-46750000I0J-50000D01*
G01*
G37*
G36*
G01*
X78000000Y-46350000D02*
X78000000Y-46450000D01*
G75*
G02*
X77950000Y-46500000I-50000J0D01*
G01*
X77175000Y-46500000D01*
G75*
G02*
X77125000Y-46450000I0J50000D01*
G01*
X77125000Y-46350000D01*
G75*
G02*
X77175000Y-46300000I50000J0D01*
G01*
X77950000Y-46300000D01*
G75*
G02*
X78000000Y-46350000I0J-50000D01*
G01*
G37*
G36*
G01*
X78000000Y-45950000D02*
X78000000Y-46050000D01*
G75*
G02*
X77950000Y-46100000I-50000J0D01*
G01*
X77175000Y-46100000D01*
G75*
G02*
X77125000Y-46050000I0J50000D01*
G01*
X77125000Y-45950000D01*
G75*
G02*
X77175000Y-45900000I50000J0D01*
G01*
X77950000Y-45900000D01*
G75*
G02*
X78000000Y-45950000I0J-50000D01*
G01*
G37*
G36*
G01*
X78000000Y-45550000D02*
X78000000Y-45650000D01*
G75*
G02*
X77950000Y-45700000I-50000J0D01*
G01*
X77175000Y-45700000D01*
G75*
G02*
X77125000Y-45650000I0J50000D01*
G01*
X77125000Y-45550000D01*
G75*
G02*
X77175000Y-45500000I50000J0D01*
G01*
X77950000Y-45500000D01*
G75*
G02*
X78000000Y-45550000I0J-50000D01*
G01*
G37*
G36*
G01*
X78000000Y-45150000D02*
X78000000Y-45250000D01*
G75*
G02*
X77950000Y-45300000I-50000J0D01*
G01*
X77175000Y-45300000D01*
G75*
G02*
X77125000Y-45250000I0J50000D01*
G01*
X77125000Y-45150000D01*
G75*
G02*
X77175000Y-45100000I50000J0D01*
G01*
X77950000Y-45100000D01*
G75*
G02*
X78000000Y-45150000I0J-50000D01*
G01*
G37*
G36*
G01*
X78000000Y-44750000D02*
X78000000Y-44850000D01*
G75*
G02*
X77950000Y-44900000I-50000J0D01*
G01*
X77175000Y-44900000D01*
G75*
G02*
X77125000Y-44850000I0J50000D01*
G01*
X77125000Y-44750000D01*
G75*
G02*
X77175000Y-44700000I50000J0D01*
G01*
X77950000Y-44700000D01*
G75*
G02*
X78000000Y-44750000I0J-50000D01*
G01*
G37*
G36*
G01*
X78000000Y-44350000D02*
X78000000Y-44450000D01*
G75*
G02*
X77950000Y-44500000I-50000J0D01*
G01*
X77175000Y-44500000D01*
G75*
G02*
X77125000Y-44450000I0J50000D01*
G01*
X77125000Y-44350000D01*
G75*
G02*
X77175000Y-44300000I50000J0D01*
G01*
X77950000Y-44300000D01*
G75*
G02*
X78000000Y-44350000I0J-50000D01*
G01*
G37*
G36*
G01*
X78500000Y-43175000D02*
X78500000Y-43950000D01*
G75*
G02*
X78450000Y-44000000I-50000J0D01*
G01*
X78350000Y-44000000D01*
G75*
G02*
X78300000Y-43950000I0J50000D01*
G01*
X78300000Y-43175000D01*
G75*
G02*
X78350000Y-43125000I50000J0D01*
G01*
X78450000Y-43125000D01*
G75*
G02*
X78500000Y-43175000I0J-50000D01*
G01*
G37*
G36*
G01*
X78900000Y-43175000D02*
X78900000Y-43950000D01*
G75*
G02*
X78850000Y-44000000I-50000J0D01*
G01*
X78750000Y-44000000D01*
G75*
G02*
X78700000Y-43950000I0J50000D01*
G01*
X78700000Y-43175000D01*
G75*
G02*
X78750000Y-43125000I50000J0D01*
G01*
X78850000Y-43125000D01*
G75*
G02*
X78900000Y-43175000I0J-50000D01*
G01*
G37*
G36*
G01*
X79300000Y-43175000D02*
X79300000Y-43950000D01*
G75*
G02*
X79250000Y-44000000I-50000J0D01*
G01*
X79150000Y-44000000D01*
G75*
G02*
X79100000Y-43950000I0J50000D01*
G01*
X79100000Y-43175000D01*
G75*
G02*
X79150000Y-43125000I50000J0D01*
G01*
X79250000Y-43125000D01*
G75*
G02*
X79300000Y-43175000I0J-50000D01*
G01*
G37*
G36*
G01*
X79700000Y-43175000D02*
X79700000Y-43950000D01*
G75*
G02*
X79650000Y-44000000I-50000J0D01*
G01*
X79550000Y-44000000D01*
G75*
G02*
X79500000Y-43950000I0J50000D01*
G01*
X79500000Y-43175000D01*
G75*
G02*
X79550000Y-43125000I50000J0D01*
G01*
X79650000Y-43125000D01*
G75*
G02*
X79700000Y-43175000I0J-50000D01*
G01*
G37*
G36*
G01*
X80100000Y-43175000D02*
X80100000Y-43950000D01*
G75*
G02*
X80050000Y-44000000I-50000J0D01*
G01*
X79950000Y-44000000D01*
G75*
G02*
X79900000Y-43950000I0J50000D01*
G01*
X79900000Y-43175000D01*
G75*
G02*
X79950000Y-43125000I50000J0D01*
G01*
X80050000Y-43125000D01*
G75*
G02*
X80100000Y-43175000I0J-50000D01*
G01*
G37*
G36*
G01*
X80500000Y-43175000D02*
X80500000Y-43950000D01*
G75*
G02*
X80450000Y-44000000I-50000J0D01*
G01*
X80350000Y-44000000D01*
G75*
G02*
X80300000Y-43950000I0J50000D01*
G01*
X80300000Y-43175000D01*
G75*
G02*
X80350000Y-43125000I50000J0D01*
G01*
X80450000Y-43125000D01*
G75*
G02*
X80500000Y-43175000I0J-50000D01*
G01*
G37*
G36*
G01*
X80900000Y-43175000D02*
X80900000Y-43950000D01*
G75*
G02*
X80850000Y-44000000I-50000J0D01*
G01*
X80750000Y-44000000D01*
G75*
G02*
X80700000Y-43950000I0J50000D01*
G01*
X80700000Y-43175000D01*
G75*
G02*
X80750000Y-43125000I50000J0D01*
G01*
X80850000Y-43125000D01*
G75*
G02*
X80900000Y-43175000I0J-50000D01*
G01*
G37*
G36*
G01*
X81300000Y-43175000D02*
X81300000Y-43950000D01*
G75*
G02*
X81250000Y-44000000I-50000J0D01*
G01*
X81150000Y-44000000D01*
G75*
G02*
X81100000Y-43950000I0J50000D01*
G01*
X81100000Y-43175000D01*
G75*
G02*
X81150000Y-43125000I50000J0D01*
G01*
X81250000Y-43125000D01*
G75*
G02*
X81300000Y-43175000I0J-50000D01*
G01*
G37*
G36*
G01*
X81700000Y-43175000D02*
X81700000Y-43950000D01*
G75*
G02*
X81650000Y-44000000I-50000J0D01*
G01*
X81550000Y-44000000D01*
G75*
G02*
X81500000Y-43950000I0J50000D01*
G01*
X81500000Y-43175000D01*
G75*
G02*
X81550000Y-43125000I50000J0D01*
G01*
X81650000Y-43125000D01*
G75*
G02*
X81700000Y-43175000I0J-50000D01*
G01*
G37*
G36*
G01*
X82100000Y-43175000D02*
X82100000Y-43950000D01*
G75*
G02*
X82050000Y-44000000I-50000J0D01*
G01*
X81950000Y-44000000D01*
G75*
G02*
X81900000Y-43950000I0J50000D01*
G01*
X81900000Y-43175000D01*
G75*
G02*
X81950000Y-43125000I50000J0D01*
G01*
X82050000Y-43125000D01*
G75*
G02*
X82100000Y-43175000I0J-50000D01*
G01*
G37*
G36*
G01*
X82500000Y-43175000D02*
X82500000Y-43950000D01*
G75*
G02*
X82450000Y-44000000I-50000J0D01*
G01*
X82350000Y-44000000D01*
G75*
G02*
X82300000Y-43950000I0J50000D01*
G01*
X82300000Y-43175000D01*
G75*
G02*
X82350000Y-43125000I50000J0D01*
G01*
X82450000Y-43125000D01*
G75*
G02*
X82500000Y-43175000I0J-50000D01*
G01*
G37*
G36*
G01*
X82900000Y-43175000D02*
X82900000Y-43950000D01*
G75*
G02*
X82850000Y-44000000I-50000J0D01*
G01*
X82750000Y-44000000D01*
G75*
G02*
X82700000Y-43950000I0J50000D01*
G01*
X82700000Y-43175000D01*
G75*
G02*
X82750000Y-43125000I50000J0D01*
G01*
X82850000Y-43125000D01*
G75*
G02*
X82900000Y-43175000I0J-50000D01*
G01*
G37*
G36*
G01*
X83300000Y-43175000D02*
X83300000Y-43950000D01*
G75*
G02*
X83250000Y-44000000I-50000J0D01*
G01*
X83150000Y-44000000D01*
G75*
G02*
X83100000Y-43950000I0J50000D01*
G01*
X83100000Y-43175000D01*
G75*
G02*
X83150000Y-43125000I50000J0D01*
G01*
X83250000Y-43125000D01*
G75*
G02*
X83300000Y-43175000I0J-50000D01*
G01*
G37*
G36*
G01*
X83700000Y-43175000D02*
X83700000Y-43950000D01*
G75*
G02*
X83650000Y-44000000I-50000J0D01*
G01*
X83550000Y-44000000D01*
G75*
G02*
X83500000Y-43950000I0J50000D01*
G01*
X83500000Y-43175000D01*
G75*
G02*
X83550000Y-43125000I50000J0D01*
G01*
X83650000Y-43125000D01*
G75*
G02*
X83700000Y-43175000I0J-50000D01*
G01*
G37*
D18*
X81000000Y-47000000D03*
G36*
G01*
X102315000Y-38720000D02*
X102685000Y-38720000D01*
G75*
G02*
X102820000Y-38855000I0J-135000D01*
G01*
X102820000Y-39125000D01*
G75*
G02*
X102685000Y-39260000I-135000J0D01*
G01*
X102315000Y-39260000D01*
G75*
G02*
X102180000Y-39125000I0J135000D01*
G01*
X102180000Y-38855000D01*
G75*
G02*
X102315000Y-38720000I135000J0D01*
G01*
G37*
G36*
G01*
X102315000Y-39740000D02*
X102685000Y-39740000D01*
G75*
G02*
X102820000Y-39875000I0J-135000D01*
G01*
X102820000Y-40145000D01*
G75*
G02*
X102685000Y-40280000I-135000J0D01*
G01*
X102315000Y-40280000D01*
G75*
G02*
X102180000Y-40145000I0J135000D01*
G01*
X102180000Y-39875000D01*
G75*
G02*
X102315000Y-39740000I135000J0D01*
G01*
G37*
G36*
G01*
X102275000Y-41750000D02*
X102275000Y-41250000D01*
G75*
G02*
X102500000Y-41025000I225000J0D01*
G01*
X102950000Y-41025000D01*
G75*
G02*
X103175000Y-41250000I0J-225000D01*
G01*
X103175000Y-41750000D01*
G75*
G02*
X102950000Y-41975000I-225000J0D01*
G01*
X102500000Y-41975000D01*
G75*
G02*
X102275000Y-41750000I0J225000D01*
G01*
G37*
G36*
G01*
X103825000Y-41750000D02*
X103825000Y-41250000D01*
G75*
G02*
X104050000Y-41025000I225000J0D01*
G01*
X104500000Y-41025000D01*
G75*
G02*
X104725000Y-41250000I0J-225000D01*
G01*
X104725000Y-41750000D01*
G75*
G02*
X104500000Y-41975000I-225000J0D01*
G01*
X104050000Y-41975000D01*
G75*
G02*
X103825000Y-41750000I0J225000D01*
G01*
G37*
G36*
G01*
X93315000Y-47220000D02*
X93685000Y-47220000D01*
G75*
G02*
X93820000Y-47355000I0J-135000D01*
G01*
X93820000Y-47625000D01*
G75*
G02*
X93685000Y-47760000I-135000J0D01*
G01*
X93315000Y-47760000D01*
G75*
G02*
X93180000Y-47625000I0J135000D01*
G01*
X93180000Y-47355000D01*
G75*
G02*
X93315000Y-47220000I135000J0D01*
G01*
G37*
G36*
G01*
X93315000Y-48240000D02*
X93685000Y-48240000D01*
G75*
G02*
X93820000Y-48375000I0J-135000D01*
G01*
X93820000Y-48645000D01*
G75*
G02*
X93685000Y-48780000I-135000J0D01*
G01*
X93315000Y-48780000D01*
G75*
G02*
X93180000Y-48645000I0J135000D01*
G01*
X93180000Y-48375000D01*
G75*
G02*
X93315000Y-48240000I135000J0D01*
G01*
G37*
G36*
G01*
X74840000Y-48170000D02*
X74840000Y-47830000D01*
G75*
G02*
X74980000Y-47690000I140000J0D01*
G01*
X75260000Y-47690000D01*
G75*
G02*
X75400000Y-47830000I0J-140000D01*
G01*
X75400000Y-48170000D01*
G75*
G02*
X75260000Y-48310000I-140000J0D01*
G01*
X74980000Y-48310000D01*
G75*
G02*
X74840000Y-48170000I0J140000D01*
G01*
G37*
G36*
G01*
X75800000Y-48170000D02*
X75800000Y-47830000D01*
G75*
G02*
X75940000Y-47690000I140000J0D01*
G01*
X76220000Y-47690000D01*
G75*
G02*
X76360000Y-47830000I0J-140000D01*
G01*
X76360000Y-48170000D01*
G75*
G02*
X76220000Y-48310000I-140000J0D01*
G01*
X75940000Y-48310000D01*
G75*
G02*
X75800000Y-48170000I0J140000D01*
G01*
G37*
G36*
G01*
X47275000Y-41250000D02*
X47275000Y-40750000D01*
G75*
G02*
X47500000Y-40525000I225000J0D01*
G01*
X47950000Y-40525000D01*
G75*
G02*
X48175000Y-40750000I0J-225000D01*
G01*
X48175000Y-41250000D01*
G75*
G02*
X47950000Y-41475000I-225000J0D01*
G01*
X47500000Y-41475000D01*
G75*
G02*
X47275000Y-41250000I0J225000D01*
G01*
G37*
G36*
G01*
X48825000Y-41250000D02*
X48825000Y-40750000D01*
G75*
G02*
X49050000Y-40525000I225000J0D01*
G01*
X49500000Y-40525000D01*
G75*
G02*
X49725000Y-40750000I0J-225000D01*
G01*
X49725000Y-41250000D01*
G75*
G02*
X49500000Y-41475000I-225000J0D01*
G01*
X49050000Y-41475000D01*
G75*
G02*
X48825000Y-41250000I0J225000D01*
G01*
G37*
G36*
G01*
X30115000Y-60320000D02*
X30485000Y-60320000D01*
G75*
G02*
X30620000Y-60455000I0J-135000D01*
G01*
X30620000Y-60725000D01*
G75*
G02*
X30485000Y-60860000I-135000J0D01*
G01*
X30115000Y-60860000D01*
G75*
G02*
X29980000Y-60725000I0J135000D01*
G01*
X29980000Y-60455000D01*
G75*
G02*
X30115000Y-60320000I135000J0D01*
G01*
G37*
G36*
G01*
X30115000Y-61340000D02*
X30485000Y-61340000D01*
G75*
G02*
X30620000Y-61475000I0J-135000D01*
G01*
X30620000Y-61745000D01*
G75*
G02*
X30485000Y-61880000I-135000J0D01*
G01*
X30115000Y-61880000D01*
G75*
G02*
X29980000Y-61745000I0J135000D01*
G01*
X29980000Y-61475000D01*
G75*
G02*
X30115000Y-61340000I135000J0D01*
G01*
G37*
G36*
G01*
X80830000Y-40240000D02*
X81170000Y-40240000D01*
G75*
G02*
X81310000Y-40380000I0J-140000D01*
G01*
X81310000Y-40660000D01*
G75*
G02*
X81170000Y-40800000I-140000J0D01*
G01*
X80830000Y-40800000D01*
G75*
G02*
X80690000Y-40660000I0J140000D01*
G01*
X80690000Y-40380000D01*
G75*
G02*
X80830000Y-40240000I140000J0D01*
G01*
G37*
G36*
G01*
X80830000Y-41200000D02*
X81170000Y-41200000D01*
G75*
G02*
X81310000Y-41340000I0J-140000D01*
G01*
X81310000Y-41620000D01*
G75*
G02*
X81170000Y-41760000I-140000J0D01*
G01*
X80830000Y-41760000D01*
G75*
G02*
X80690000Y-41620000I0J140000D01*
G01*
X80690000Y-41340000D01*
G75*
G02*
X80830000Y-41200000I140000J0D01*
G01*
G37*
G36*
G01*
X94600000Y-46675000D02*
X94300000Y-46675000D01*
G75*
G02*
X94150000Y-46525000I0J150000D01*
G01*
X94150000Y-45350000D01*
G75*
G02*
X94300000Y-45200000I150000J0D01*
G01*
X94600000Y-45200000D01*
G75*
G02*
X94750000Y-45350000I0J-150000D01*
G01*
X94750000Y-46525000D01*
G75*
G02*
X94600000Y-46675000I-150000J0D01*
G01*
G37*
G36*
G01*
X92700000Y-46675000D02*
X92400000Y-46675000D01*
G75*
G02*
X92250000Y-46525000I0J150000D01*
G01*
X92250000Y-45350000D01*
G75*
G02*
X92400000Y-45200000I150000J0D01*
G01*
X92700000Y-45200000D01*
G75*
G02*
X92850000Y-45350000I0J-150000D01*
G01*
X92850000Y-46525000D01*
G75*
G02*
X92700000Y-46675000I-150000J0D01*
G01*
G37*
G36*
G01*
X93650000Y-44800000D02*
X93350000Y-44800000D01*
G75*
G02*
X93200000Y-44650000I0J150000D01*
G01*
X93200000Y-43475000D01*
G75*
G02*
X93350000Y-43325000I150000J0D01*
G01*
X93650000Y-43325000D01*
G75*
G02*
X93800000Y-43475000I0J-150000D01*
G01*
X93800000Y-44650000D01*
G75*
G02*
X93650000Y-44800000I-150000J0D01*
G01*
G37*
G36*
G01*
X73815000Y-45220000D02*
X74185000Y-45220000D01*
G75*
G02*
X74320000Y-45355000I0J-135000D01*
G01*
X74320000Y-45625000D01*
G75*
G02*
X74185000Y-45760000I-135000J0D01*
G01*
X73815000Y-45760000D01*
G75*
G02*
X73680000Y-45625000I0J135000D01*
G01*
X73680000Y-45355000D01*
G75*
G02*
X73815000Y-45220000I135000J0D01*
G01*
G37*
G36*
G01*
X73815000Y-46240000D02*
X74185000Y-46240000D01*
G75*
G02*
X74320000Y-46375000I0J-135000D01*
G01*
X74320000Y-46645000D01*
G75*
G02*
X74185000Y-46780000I-135000J0D01*
G01*
X73815000Y-46780000D01*
G75*
G02*
X73680000Y-46645000I0J135000D01*
G01*
X73680000Y-46375000D01*
G75*
G02*
X73815000Y-46240000I135000J0D01*
G01*
G37*
G36*
G01*
X47275000Y-39750000D02*
X47275000Y-39250000D01*
G75*
G02*
X47500000Y-39025000I225000J0D01*
G01*
X47950000Y-39025000D01*
G75*
G02*
X48175000Y-39250000I0J-225000D01*
G01*
X48175000Y-39750000D01*
G75*
G02*
X47950000Y-39975000I-225000J0D01*
G01*
X47500000Y-39975000D01*
G75*
G02*
X47275000Y-39750000I0J225000D01*
G01*
G37*
G36*
G01*
X48825000Y-39750000D02*
X48825000Y-39250000D01*
G75*
G02*
X49050000Y-39025000I225000J0D01*
G01*
X49500000Y-39025000D01*
G75*
G02*
X49725000Y-39250000I0J-225000D01*
G01*
X49725000Y-39750000D01*
G75*
G02*
X49500000Y-39975000I-225000J0D01*
G01*
X49050000Y-39975000D01*
G75*
G02*
X48825000Y-39750000I0J225000D01*
G01*
G37*
G36*
G01*
X47750000Y-45725000D02*
X47250000Y-45725000D01*
G75*
G02*
X47025000Y-45500000I0J225000D01*
G01*
X47025000Y-45050000D01*
G75*
G02*
X47250000Y-44825000I225000J0D01*
G01*
X47750000Y-44825000D01*
G75*
G02*
X47975000Y-45050000I0J-225000D01*
G01*
X47975000Y-45500000D01*
G75*
G02*
X47750000Y-45725000I-225000J0D01*
G01*
G37*
G36*
G01*
X47750000Y-44175000D02*
X47250000Y-44175000D01*
G75*
G02*
X47025000Y-43950000I0J225000D01*
G01*
X47025000Y-43500000D01*
G75*
G02*
X47250000Y-43275000I225000J0D01*
G01*
X47750000Y-43275000D01*
G75*
G02*
X47975000Y-43500000I0J-225000D01*
G01*
X47975000Y-43950000D01*
G75*
G02*
X47750000Y-44175000I-225000J0D01*
G01*
G37*
D19*
X54825000Y-56350000D03*
X55925000Y-56350000D03*
X57025000Y-56350000D03*
X58125000Y-56350000D03*
X59225000Y-56350000D03*
X60325000Y-56350000D03*
X61425000Y-56350000D03*
X62525000Y-56350000D03*
D20*
X63650000Y-47125000D03*
D21*
X52425000Y-45550000D03*
D22*
X63975000Y-48625000D03*
D23*
X63725000Y-56225000D03*
D24*
X52375000Y-56225000D03*
D25*
X52025000Y-47975000D03*
G36*
G01*
X55050000Y-41300000D02*
X55050000Y-40700000D01*
G75*
G02*
X55300000Y-40450000I250000J0D01*
G01*
X55900000Y-40450000D01*
G75*
G02*
X56150000Y-40700000I0J-250000D01*
G01*
X56150000Y-41300000D01*
G75*
G02*
X55900000Y-41550000I-250000J0D01*
G01*
X55300000Y-41550000D01*
G75*
G02*
X55050000Y-41300000I0J250000D01*
G01*
G37*
G36*
G01*
X57850000Y-41300000D02*
X57850000Y-40700000D01*
G75*
G02*
X58100000Y-40450000I250000J0D01*
G01*
X58700000Y-40450000D01*
G75*
G02*
X58950000Y-40700000I0J-250000D01*
G01*
X58950000Y-41300000D01*
G75*
G02*
X58700000Y-41550000I-250000J0D01*
G01*
X58100000Y-41550000D01*
G75*
G02*
X57850000Y-41300000I0J250000D01*
G01*
G37*
G36*
G01*
X90220000Y-35685000D02*
X90220000Y-35315000D01*
G75*
G02*
X90355000Y-35180000I135000J0D01*
G01*
X90625000Y-35180000D01*
G75*
G02*
X90760000Y-35315000I0J-135000D01*
G01*
X90760000Y-35685000D01*
G75*
G02*
X90625000Y-35820000I-135000J0D01*
G01*
X90355000Y-35820000D01*
G75*
G02*
X90220000Y-35685000I0J135000D01*
G01*
G37*
G36*
G01*
X91240000Y-35685000D02*
X91240000Y-35315000D01*
G75*
G02*
X91375000Y-35180000I135000J0D01*
G01*
X91645000Y-35180000D01*
G75*
G02*
X91780000Y-35315000I0J-135000D01*
G01*
X91780000Y-35685000D01*
G75*
G02*
X91645000Y-35820000I-135000J0D01*
G01*
X91375000Y-35820000D01*
G75*
G02*
X91240000Y-35685000I0J135000D01*
G01*
G37*
G36*
G01*
X105915000Y-33495000D02*
X106285000Y-33495000D01*
G75*
G02*
X106420000Y-33630000I0J-135000D01*
G01*
X106420000Y-33900000D01*
G75*
G02*
X106285000Y-34035000I-135000J0D01*
G01*
X105915000Y-34035000D01*
G75*
G02*
X105780000Y-33900000I0J135000D01*
G01*
X105780000Y-33630000D01*
G75*
G02*
X105915000Y-33495000I135000J0D01*
G01*
G37*
G36*
G01*
X105915000Y-34515000D02*
X106285000Y-34515000D01*
G75*
G02*
X106420000Y-34650000I0J-135000D01*
G01*
X106420000Y-34920000D01*
G75*
G02*
X106285000Y-35055000I-135000J0D01*
G01*
X105915000Y-35055000D01*
G75*
G02*
X105780000Y-34920000I0J135000D01*
G01*
X105780000Y-34650000D01*
G75*
G02*
X105915000Y-34515000I135000J0D01*
G01*
G37*
G36*
G01*
X79442391Y-37582807D02*
X79682807Y-37342391D01*
G75*
G02*
X79880797Y-37342391I98995J-98995D01*
G01*
X80078787Y-37540381D01*
G75*
G02*
X80078787Y-37738371I-98995J-98995D01*
G01*
X79838371Y-37978787D01*
G75*
G02*
X79640381Y-37978787I-98995J98995D01*
G01*
X79442391Y-37780797D01*
G75*
G02*
X79442391Y-37582807I98995J98995D01*
G01*
G37*
G36*
G01*
X80121213Y-38261629D02*
X80361629Y-38021213D01*
G75*
G02*
X80559619Y-38021213I98995J-98995D01*
G01*
X80757609Y-38219203D01*
G75*
G02*
X80757609Y-38417193I-98995J-98995D01*
G01*
X80517193Y-38657609D01*
G75*
G02*
X80319203Y-38657609I-98995J98995D01*
G01*
X80121213Y-38459619D01*
G75*
G02*
X80121213Y-38261629I98995J98995D01*
G01*
G37*
G36*
G01*
X97050000Y-31525000D02*
X97050000Y-32475000D01*
G75*
G02*
X96800000Y-32725000I-250000J0D01*
G01*
X96300000Y-32725000D01*
G75*
G02*
X96050000Y-32475000I0J250000D01*
G01*
X96050000Y-31525000D01*
G75*
G02*
X96300000Y-31275000I250000J0D01*
G01*
X96800000Y-31275000D01*
G75*
G02*
X97050000Y-31525000I0J-250000D01*
G01*
G37*
G36*
G01*
X95150000Y-31525000D02*
X95150000Y-32475000D01*
G75*
G02*
X94900000Y-32725000I-250000J0D01*
G01*
X94400000Y-32725000D01*
G75*
G02*
X94150000Y-32475000I0J250000D01*
G01*
X94150000Y-31525000D01*
G75*
G02*
X94400000Y-31275000I250000J0D01*
G01*
X94900000Y-31275000D01*
G75*
G02*
X95150000Y-31525000I0J-250000D01*
G01*
G37*
G36*
G01*
X68275000Y-32600000D02*
X68275000Y-32900000D01*
G75*
G02*
X68125000Y-33050000I-150000J0D01*
G01*
X66950000Y-33050000D01*
G75*
G02*
X66800000Y-32900000I0J150000D01*
G01*
X66800000Y-32600000D01*
G75*
G02*
X66950000Y-32450000I150000J0D01*
G01*
X68125000Y-32450000D01*
G75*
G02*
X68275000Y-32600000I0J-150000D01*
G01*
G37*
G36*
G01*
X68275000Y-34500000D02*
X68275000Y-34800000D01*
G75*
G02*
X68125000Y-34950000I-150000J0D01*
G01*
X66950000Y-34950000D01*
G75*
G02*
X66800000Y-34800000I0J150000D01*
G01*
X66800000Y-34500000D01*
G75*
G02*
X66950000Y-34350000I150000J0D01*
G01*
X68125000Y-34350000D01*
G75*
G02*
X68275000Y-34500000I0J-150000D01*
G01*
G37*
G36*
G01*
X66400000Y-33550000D02*
X66400000Y-33850000D01*
G75*
G02*
X66250000Y-34000000I-150000J0D01*
G01*
X65075000Y-34000000D01*
G75*
G02*
X64925000Y-33850000I0J150000D01*
G01*
X64925000Y-33550000D01*
G75*
G02*
X65075000Y-33400000I150000J0D01*
G01*
X66250000Y-33400000D01*
G75*
G02*
X66400000Y-33550000I0J-150000D01*
G01*
G37*
D26*
X94489642Y-61070000D03*
X100789642Y-61070000D03*
X94489642Y-57270000D03*
X100789642Y-57270000D03*
G36*
G01*
X95215000Y-38920000D02*
X95585000Y-38920000D01*
G75*
G02*
X95720000Y-39055000I0J-135000D01*
G01*
X95720000Y-39325000D01*
G75*
G02*
X95585000Y-39460000I-135000J0D01*
G01*
X95215000Y-39460000D01*
G75*
G02*
X95080000Y-39325000I0J135000D01*
G01*
X95080000Y-39055000D01*
G75*
G02*
X95215000Y-38920000I135000J0D01*
G01*
G37*
G36*
G01*
X95215000Y-39940000D02*
X95585000Y-39940000D01*
G75*
G02*
X95720000Y-40075000I0J-135000D01*
G01*
X95720000Y-40345000D01*
G75*
G02*
X95585000Y-40480000I-135000J0D01*
G01*
X95215000Y-40480000D01*
G75*
G02*
X95080000Y-40345000I0J135000D01*
G01*
X95080000Y-40075000D01*
G75*
G02*
X95215000Y-39940000I135000J0D01*
G01*
G37*
G36*
G01*
X47275000Y-36750000D02*
X47275000Y-36250000D01*
G75*
G02*
X47500000Y-36025000I225000J0D01*
G01*
X47950000Y-36025000D01*
G75*
G02*
X48175000Y-36250000I0J-225000D01*
G01*
X48175000Y-36750000D01*
G75*
G02*
X47950000Y-36975000I-225000J0D01*
G01*
X47500000Y-36975000D01*
G75*
G02*
X47275000Y-36750000I0J225000D01*
G01*
G37*
G36*
G01*
X48825000Y-36750000D02*
X48825000Y-36250000D01*
G75*
G02*
X49050000Y-36025000I225000J0D01*
G01*
X49500000Y-36025000D01*
G75*
G02*
X49725000Y-36250000I0J-225000D01*
G01*
X49725000Y-36750000D01*
G75*
G02*
X49500000Y-36975000I-225000J0D01*
G01*
X49050000Y-36975000D01*
G75*
G02*
X48825000Y-36750000I0J225000D01*
G01*
G37*
G36*
G01*
X87330000Y-54240000D02*
X87670000Y-54240000D01*
G75*
G02*
X87810000Y-54380000I0J-140000D01*
G01*
X87810000Y-54660000D01*
G75*
G02*
X87670000Y-54800000I-140000J0D01*
G01*
X87330000Y-54800000D01*
G75*
G02*
X87190000Y-54660000I0J140000D01*
G01*
X87190000Y-54380000D01*
G75*
G02*
X87330000Y-54240000I140000J0D01*
G01*
G37*
G36*
G01*
X87330000Y-55200000D02*
X87670000Y-55200000D01*
G75*
G02*
X87810000Y-55340000I0J-140000D01*
G01*
X87810000Y-55620000D01*
G75*
G02*
X87670000Y-55760000I-140000J0D01*
G01*
X87330000Y-55760000D01*
G75*
G02*
X87190000Y-55620000I0J140000D01*
G01*
X87190000Y-55340000D01*
G75*
G02*
X87330000Y-55200000I140000J0D01*
G01*
G37*
G36*
G01*
X104950000Y-31945000D02*
X104950000Y-32245000D01*
G75*
G02*
X104800000Y-32395000I-150000J0D01*
G01*
X103500000Y-32395000D01*
G75*
G02*
X103350000Y-32245000I0J150000D01*
G01*
X103350000Y-31945000D01*
G75*
G02*
X103500000Y-31795000I150000J0D01*
G01*
X104800000Y-31795000D01*
G75*
G02*
X104950000Y-31945000I0J-150000D01*
G01*
G37*
G36*
G01*
X104950000Y-33215000D02*
X104950000Y-33515000D01*
G75*
G02*
X104800000Y-33665000I-150000J0D01*
G01*
X103500000Y-33665000D01*
G75*
G02*
X103350000Y-33515000I0J150000D01*
G01*
X103350000Y-33215000D01*
G75*
G02*
X103500000Y-33065000I150000J0D01*
G01*
X104800000Y-33065000D01*
G75*
G02*
X104950000Y-33215000I0J-150000D01*
G01*
G37*
G36*
G01*
X104950000Y-34485000D02*
X104950000Y-34785000D01*
G75*
G02*
X104800000Y-34935000I-150000J0D01*
G01*
X103500000Y-34935000D01*
G75*
G02*
X103350000Y-34785000I0J150000D01*
G01*
X103350000Y-34485000D01*
G75*
G02*
X103500000Y-34335000I150000J0D01*
G01*
X104800000Y-34335000D01*
G75*
G02*
X104950000Y-34485000I0J-150000D01*
G01*
G37*
G36*
G01*
X104950000Y-35755000D02*
X104950000Y-36055000D01*
G75*
G02*
X104800000Y-36205000I-150000J0D01*
G01*
X103500000Y-36205000D01*
G75*
G02*
X103350000Y-36055000I0J150000D01*
G01*
X103350000Y-35755000D01*
G75*
G02*
X103500000Y-35605000I150000J0D01*
G01*
X104800000Y-35605000D01*
G75*
G02*
X104950000Y-35755000I0J-150000D01*
G01*
G37*
G36*
G01*
X99650000Y-35755000D02*
X99650000Y-36055000D01*
G75*
G02*
X99500000Y-36205000I-150000J0D01*
G01*
X98200000Y-36205000D01*
G75*
G02*
X98050000Y-36055000I0J150000D01*
G01*
X98050000Y-35755000D01*
G75*
G02*
X98200000Y-35605000I150000J0D01*
G01*
X99500000Y-35605000D01*
G75*
G02*
X99650000Y-35755000I0J-150000D01*
G01*
G37*
G36*
G01*
X99650000Y-34485000D02*
X99650000Y-34785000D01*
G75*
G02*
X99500000Y-34935000I-150000J0D01*
G01*
X98200000Y-34935000D01*
G75*
G02*
X98050000Y-34785000I0J150000D01*
G01*
X98050000Y-34485000D01*
G75*
G02*
X98200000Y-34335000I150000J0D01*
G01*
X99500000Y-34335000D01*
G75*
G02*
X99650000Y-34485000I0J-150000D01*
G01*
G37*
G36*
G01*
X99650000Y-33215000D02*
X99650000Y-33515000D01*
G75*
G02*
X99500000Y-33665000I-150000J0D01*
G01*
X98200000Y-33665000D01*
G75*
G02*
X98050000Y-33515000I0J150000D01*
G01*
X98050000Y-33215000D01*
G75*
G02*
X98200000Y-33065000I150000J0D01*
G01*
X99500000Y-33065000D01*
G75*
G02*
X99650000Y-33215000I0J-150000D01*
G01*
G37*
G36*
G01*
X99650000Y-31945000D02*
X99650000Y-32245000D01*
G75*
G02*
X99500000Y-32395000I-150000J0D01*
G01*
X98200000Y-32395000D01*
G75*
G02*
X98050000Y-32245000I0J150000D01*
G01*
X98050000Y-31945000D01*
G75*
G02*
X98200000Y-31795000I150000J0D01*
G01*
X99500000Y-31795000D01*
G75*
G02*
X99650000Y-31945000I0J-150000D01*
G01*
G37*
D27*
X101500000Y-34000000D03*
G36*
G01*
X103315000Y-38720000D02*
X103685000Y-38720000D01*
G75*
G02*
X103820000Y-38855000I0J-135000D01*
G01*
X103820000Y-39125000D01*
G75*
G02*
X103685000Y-39260000I-135000J0D01*
G01*
X103315000Y-39260000D01*
G75*
G02*
X103180000Y-39125000I0J135000D01*
G01*
X103180000Y-38855000D01*
G75*
G02*
X103315000Y-38720000I135000J0D01*
G01*
G37*
G36*
G01*
X103315000Y-39740000D02*
X103685000Y-39740000D01*
G75*
G02*
X103820000Y-39875000I0J-135000D01*
G01*
X103820000Y-40145000D01*
G75*
G02*
X103685000Y-40280000I-135000J0D01*
G01*
X103315000Y-40280000D01*
G75*
G02*
X103180000Y-40145000I0J135000D01*
G01*
X103180000Y-39875000D01*
G75*
G02*
X103315000Y-39740000I135000J0D01*
G01*
G37*
G36*
G01*
X81270000Y-53760000D02*
X80930000Y-53760000D01*
G75*
G02*
X80790000Y-53620000I0J140000D01*
G01*
X80790000Y-53340000D01*
G75*
G02*
X80930000Y-53200000I140000J0D01*
G01*
X81270000Y-53200000D01*
G75*
G02*
X81410000Y-53340000I0J-140000D01*
G01*
X81410000Y-53620000D01*
G75*
G02*
X81270000Y-53760000I-140000J0D01*
G01*
G37*
G36*
G01*
X81270000Y-52800000D02*
X80930000Y-52800000D01*
G75*
G02*
X80790000Y-52660000I0J140000D01*
G01*
X80790000Y-52380000D01*
G75*
G02*
X80930000Y-52240000I140000J0D01*
G01*
X81270000Y-52240000D01*
G75*
G02*
X81410000Y-52380000I0J-140000D01*
G01*
X81410000Y-52660000D01*
G75*
G02*
X81270000Y-52800000I-140000J0D01*
G01*
G37*
G36*
G01*
X104315000Y-47720000D02*
X104685000Y-47720000D01*
G75*
G02*
X104820000Y-47855000I0J-135000D01*
G01*
X104820000Y-48125000D01*
G75*
G02*
X104685000Y-48260000I-135000J0D01*
G01*
X104315000Y-48260000D01*
G75*
G02*
X104180000Y-48125000I0J135000D01*
G01*
X104180000Y-47855000D01*
G75*
G02*
X104315000Y-47720000I135000J0D01*
G01*
G37*
G36*
G01*
X104315000Y-48740000D02*
X104685000Y-48740000D01*
G75*
G02*
X104820000Y-48875000I0J-135000D01*
G01*
X104820000Y-49145000D01*
G75*
G02*
X104685000Y-49280000I-135000J0D01*
G01*
X104315000Y-49280000D01*
G75*
G02*
X104180000Y-49145000I0J135000D01*
G01*
X104180000Y-48875000D01*
G75*
G02*
X104315000Y-48740000I135000J0D01*
G01*
G37*
G36*
G01*
X84240000Y-35670000D02*
X84240000Y-35330000D01*
G75*
G02*
X84380000Y-35190000I140000J0D01*
G01*
X84660000Y-35190000D01*
G75*
G02*
X84800000Y-35330000I0J-140000D01*
G01*
X84800000Y-35670000D01*
G75*
G02*
X84660000Y-35810000I-140000J0D01*
G01*
X84380000Y-35810000D01*
G75*
G02*
X84240000Y-35670000I0J140000D01*
G01*
G37*
G36*
G01*
X85200000Y-35670000D02*
X85200000Y-35330000D01*
G75*
G02*
X85340000Y-35190000I140000J0D01*
G01*
X85620000Y-35190000D01*
G75*
G02*
X85760000Y-35330000I0J-140000D01*
G01*
X85760000Y-35670000D01*
G75*
G02*
X85620000Y-35810000I-140000J0D01*
G01*
X85340000Y-35810000D01*
G75*
G02*
X85200000Y-35670000I0J140000D01*
G01*
G37*
G36*
G01*
X78815000Y-40710001D02*
X79185000Y-40710001D01*
G75*
G02*
X79320000Y-40845001I0J-135000D01*
G01*
X79320000Y-41115001D01*
G75*
G02*
X79185000Y-41250001I-135000J0D01*
G01*
X78815000Y-41250001D01*
G75*
G02*
X78680000Y-41115001I0J135000D01*
G01*
X78680000Y-40845001D01*
G75*
G02*
X78815000Y-40710001I135000J0D01*
G01*
G37*
G36*
G01*
X78815000Y-41730001D02*
X79185000Y-41730001D01*
G75*
G02*
X79320000Y-41865001I0J-135000D01*
G01*
X79320000Y-42135001D01*
G75*
G02*
X79185000Y-42270001I-135000J0D01*
G01*
X78815000Y-42270001D01*
G75*
G02*
X78680000Y-42135001I0J135000D01*
G01*
X78680000Y-41865001D01*
G75*
G02*
X78815000Y-41730001I135000J0D01*
G01*
G37*
G36*
G01*
X69825000Y-51100000D02*
X69825000Y-50800000D01*
G75*
G02*
X69975000Y-50650000I150000J0D01*
G01*
X71150000Y-50650000D01*
G75*
G02*
X71300000Y-50800000I0J-150000D01*
G01*
X71300000Y-51100000D01*
G75*
G02*
X71150000Y-51250000I-150000J0D01*
G01*
X69975000Y-51250000D01*
G75*
G02*
X69825000Y-51100000I0J150000D01*
G01*
G37*
G36*
G01*
X69825000Y-49200000D02*
X69825000Y-48900000D01*
G75*
G02*
X69975000Y-48750000I150000J0D01*
G01*
X71150000Y-48750000D01*
G75*
G02*
X71300000Y-48900000I0J-150000D01*
G01*
X71300000Y-49200000D01*
G75*
G02*
X71150000Y-49350000I-150000J0D01*
G01*
X69975000Y-49350000D01*
G75*
G02*
X69825000Y-49200000I0J150000D01*
G01*
G37*
G36*
G01*
X71700000Y-50150000D02*
X71700000Y-49850000D01*
G75*
G02*
X71850000Y-49700000I150000J0D01*
G01*
X73025000Y-49700000D01*
G75*
G02*
X73175000Y-49850000I0J-150000D01*
G01*
X73175000Y-50150000D01*
G75*
G02*
X73025000Y-50300000I-150000J0D01*
G01*
X71850000Y-50300000D01*
G75*
G02*
X71700000Y-50150000I0J150000D01*
G01*
G37*
G36*
G01*
X92400000Y-36945000D02*
X92400000Y-37245000D01*
G75*
G02*
X92250000Y-37395000I-150000J0D01*
G01*
X90950000Y-37395000D01*
G75*
G02*
X90800000Y-37245000I0J150000D01*
G01*
X90800000Y-36945000D01*
G75*
G02*
X90950000Y-36795000I150000J0D01*
G01*
X92250000Y-36795000D01*
G75*
G02*
X92400000Y-36945000I0J-150000D01*
G01*
G37*
G36*
G01*
X92400000Y-38215000D02*
X92400000Y-38515000D01*
G75*
G02*
X92250000Y-38665000I-150000J0D01*
G01*
X90950000Y-38665000D01*
G75*
G02*
X90800000Y-38515000I0J150000D01*
G01*
X90800000Y-38215000D01*
G75*
G02*
X90950000Y-38065000I150000J0D01*
G01*
X92250000Y-38065000D01*
G75*
G02*
X92400000Y-38215000I0J-150000D01*
G01*
G37*
G36*
G01*
X92400000Y-39485000D02*
X92400000Y-39785000D01*
G75*
G02*
X92250000Y-39935000I-150000J0D01*
G01*
X90950000Y-39935000D01*
G75*
G02*
X90800000Y-39785000I0J150000D01*
G01*
X90800000Y-39485000D01*
G75*
G02*
X90950000Y-39335000I150000J0D01*
G01*
X92250000Y-39335000D01*
G75*
G02*
X92400000Y-39485000I0J-150000D01*
G01*
G37*
G36*
G01*
X92400000Y-40755000D02*
X92400000Y-41055000D01*
G75*
G02*
X92250000Y-41205000I-150000J0D01*
G01*
X90950000Y-41205000D01*
G75*
G02*
X90800000Y-41055000I0J150000D01*
G01*
X90800000Y-40755000D01*
G75*
G02*
X90950000Y-40605000I150000J0D01*
G01*
X92250000Y-40605000D01*
G75*
G02*
X92400000Y-40755000I0J-150000D01*
G01*
G37*
G36*
G01*
X85200000Y-40755000D02*
X85200000Y-41055000D01*
G75*
G02*
X85050000Y-41205000I-150000J0D01*
G01*
X83750000Y-41205000D01*
G75*
G02*
X83600000Y-41055000I0J150000D01*
G01*
X83600000Y-40755000D01*
G75*
G02*
X83750000Y-40605000I150000J0D01*
G01*
X85050000Y-40605000D01*
G75*
G02*
X85200000Y-40755000I0J-150000D01*
G01*
G37*
G36*
G01*
X85200000Y-39485000D02*
X85200000Y-39785000D01*
G75*
G02*
X85050000Y-39935000I-150000J0D01*
G01*
X83750000Y-39935000D01*
G75*
G02*
X83600000Y-39785000I0J150000D01*
G01*
X83600000Y-39485000D01*
G75*
G02*
X83750000Y-39335000I150000J0D01*
G01*
X85050000Y-39335000D01*
G75*
G02*
X85200000Y-39485000I0J-150000D01*
G01*
G37*
G36*
G01*
X85200000Y-38215000D02*
X85200000Y-38515000D01*
G75*
G02*
X85050000Y-38665000I-150000J0D01*
G01*
X83750000Y-38665000D01*
G75*
G02*
X83600000Y-38515000I0J150000D01*
G01*
X83600000Y-38215000D01*
G75*
G02*
X83750000Y-38065000I150000J0D01*
G01*
X85050000Y-38065000D01*
G75*
G02*
X85200000Y-38215000I0J-150000D01*
G01*
G37*
G36*
G01*
X85200000Y-36945000D02*
X85200000Y-37245000D01*
G75*
G02*
X85050000Y-37395000I-150000J0D01*
G01*
X83750000Y-37395000D01*
G75*
G02*
X83600000Y-37245000I0J150000D01*
G01*
X83600000Y-36945000D01*
G75*
G02*
X83750000Y-36795000I150000J0D01*
G01*
X85050000Y-36795000D01*
G75*
G02*
X85200000Y-36945000I0J-150000D01*
G01*
G37*
G36*
G01*
X87280000Y-47830000D02*
X87280000Y-48170000D01*
G75*
G02*
X87140000Y-48310000I-140000J0D01*
G01*
X86860000Y-48310000D01*
G75*
G02*
X86720000Y-48170000I0J140000D01*
G01*
X86720000Y-47830000D01*
G75*
G02*
X86860000Y-47690000I140000J0D01*
G01*
X87140000Y-47690000D01*
G75*
G02*
X87280000Y-47830000I0J-140000D01*
G01*
G37*
G36*
G01*
X86320000Y-47830000D02*
X86320000Y-48170000D01*
G75*
G02*
X86180000Y-48310000I-140000J0D01*
G01*
X85900000Y-48310000D01*
G75*
G02*
X85760000Y-48170000I0J140000D01*
G01*
X85760000Y-47830000D01*
G75*
G02*
X85900000Y-47690000I140000J0D01*
G01*
X86180000Y-47690000D01*
G75*
G02*
X86320000Y-47830000I0J-140000D01*
G01*
G37*
G36*
G01*
X87330000Y-60252500D02*
X87330000Y-60622500D01*
G75*
G02*
X87195000Y-60757500I-135000J0D01*
G01*
X86925000Y-60757500D01*
G75*
G02*
X86790000Y-60622500I0J135000D01*
G01*
X86790000Y-60252500D01*
G75*
G02*
X86925000Y-60117500I135000J0D01*
G01*
X87195000Y-60117500D01*
G75*
G02*
X87330000Y-60252500I0J-135000D01*
G01*
G37*
G36*
G01*
X86310000Y-60252500D02*
X86310000Y-60622500D01*
G75*
G02*
X86175000Y-60757500I-135000J0D01*
G01*
X85905000Y-60757500D01*
G75*
G02*
X85770000Y-60622500I0J135000D01*
G01*
X85770000Y-60252500D01*
G75*
G02*
X85905000Y-60117500I135000J0D01*
G01*
X86175000Y-60117500D01*
G75*
G02*
X86310000Y-60252500I0J-135000D01*
G01*
G37*
G36*
G01*
X50585000Y-46780000D02*
X50215000Y-46780000D01*
G75*
G02*
X50080000Y-46645000I0J135000D01*
G01*
X50080000Y-46375000D01*
G75*
G02*
X50215000Y-46240000I135000J0D01*
G01*
X50585000Y-46240000D01*
G75*
G02*
X50720000Y-46375000I0J-135000D01*
G01*
X50720000Y-46645000D01*
G75*
G02*
X50585000Y-46780000I-135000J0D01*
G01*
G37*
G36*
G01*
X50585000Y-45760000D02*
X50215000Y-45760000D01*
G75*
G02*
X50080000Y-45625000I0J135000D01*
G01*
X50080000Y-45355000D01*
G75*
G02*
X50215000Y-45220000I135000J0D01*
G01*
X50585000Y-45220000D01*
G75*
G02*
X50720000Y-45355000I0J-135000D01*
G01*
X50720000Y-45625000D01*
G75*
G02*
X50585000Y-45760000I-135000J0D01*
G01*
G37*
G36*
G01*
X85450000Y-61262500D02*
X85750000Y-61262500D01*
G75*
G02*
X85900000Y-61412500I0J-150000D01*
G01*
X85900000Y-62587500D01*
G75*
G02*
X85750000Y-62737500I-150000J0D01*
G01*
X85450000Y-62737500D01*
G75*
G02*
X85300000Y-62587500I0J150000D01*
G01*
X85300000Y-61412500D01*
G75*
G02*
X85450000Y-61262500I150000J0D01*
G01*
G37*
G36*
G01*
X87350000Y-61262500D02*
X87650000Y-61262500D01*
G75*
G02*
X87800000Y-61412500I0J-150000D01*
G01*
X87800000Y-62587500D01*
G75*
G02*
X87650000Y-62737500I-150000J0D01*
G01*
X87350000Y-62737500D01*
G75*
G02*
X87200000Y-62587500I0J150000D01*
G01*
X87200000Y-61412500D01*
G75*
G02*
X87350000Y-61262500I150000J0D01*
G01*
G37*
G36*
G01*
X86400000Y-63137500D02*
X86700000Y-63137500D01*
G75*
G02*
X86850000Y-63287500I0J-150000D01*
G01*
X86850000Y-64462500D01*
G75*
G02*
X86700000Y-64612500I-150000J0D01*
G01*
X86400000Y-64612500D01*
G75*
G02*
X86250000Y-64462500I0J150000D01*
G01*
X86250000Y-63287500D01*
G75*
G02*
X86400000Y-63137500I150000J0D01*
G01*
G37*
G36*
G01*
X81830000Y-40240000D02*
X82170000Y-40240000D01*
G75*
G02*
X82310000Y-40380000I0J-140000D01*
G01*
X82310000Y-40660000D01*
G75*
G02*
X82170000Y-40800000I-140000J0D01*
G01*
X81830000Y-40800000D01*
G75*
G02*
X81690000Y-40660000I0J140000D01*
G01*
X81690000Y-40380000D01*
G75*
G02*
X81830000Y-40240000I140000J0D01*
G01*
G37*
G36*
G01*
X81830000Y-41200000D02*
X82170000Y-41200000D01*
G75*
G02*
X82310000Y-41340000I0J-140000D01*
G01*
X82310000Y-41620000D01*
G75*
G02*
X82170000Y-41760000I-140000J0D01*
G01*
X81830000Y-41760000D01*
G75*
G02*
X81690000Y-41620000I0J140000D01*
G01*
X81690000Y-41340000D01*
G75*
G02*
X81830000Y-41200000I140000J0D01*
G01*
G37*
G36*
G01*
X81250000Y-31275000D02*
X81750000Y-31275000D01*
G75*
G02*
X81975000Y-31500000I0J-225000D01*
G01*
X81975000Y-31950000D01*
G75*
G02*
X81750000Y-32175000I-225000J0D01*
G01*
X81250000Y-32175000D01*
G75*
G02*
X81025000Y-31950000I0J225000D01*
G01*
X81025000Y-31500000D01*
G75*
G02*
X81250000Y-31275000I225000J0D01*
G01*
G37*
G36*
G01*
X81250000Y-32825000D02*
X81750000Y-32825000D01*
G75*
G02*
X81975000Y-33050000I0J-225000D01*
G01*
X81975000Y-33500000D01*
G75*
G02*
X81750000Y-33725000I-225000J0D01*
G01*
X81250000Y-33725000D01*
G75*
G02*
X81025000Y-33500000I0J225000D01*
G01*
X81025000Y-33050000D01*
G75*
G02*
X81250000Y-32825000I225000J0D01*
G01*
G37*
G36*
G01*
X61170000Y-38760000D02*
X60830000Y-38760000D01*
G75*
G02*
X60690000Y-38620000I0J140000D01*
G01*
X60690000Y-38340000D01*
G75*
G02*
X60830000Y-38200000I140000J0D01*
G01*
X61170000Y-38200000D01*
G75*
G02*
X61310000Y-38340000I0J-140000D01*
G01*
X61310000Y-38620000D01*
G75*
G02*
X61170000Y-38760000I-140000J0D01*
G01*
G37*
G36*
G01*
X61170000Y-37800000D02*
X60830000Y-37800000D01*
G75*
G02*
X60690000Y-37660000I0J140000D01*
G01*
X60690000Y-37380000D01*
G75*
G02*
X60830000Y-37240000I140000J0D01*
G01*
X61170000Y-37240000D01*
G75*
G02*
X61310000Y-37380000I0J-140000D01*
G01*
X61310000Y-37660000D01*
G75*
G02*
X61170000Y-37800000I-140000J0D01*
G01*
G37*
G36*
G01*
X87280000Y-43830000D02*
X87280000Y-44170000D01*
G75*
G02*
X87140000Y-44310000I-140000J0D01*
G01*
X86860000Y-44310000D01*
G75*
G02*
X86720000Y-44170000I0J140000D01*
G01*
X86720000Y-43830000D01*
G75*
G02*
X86860000Y-43690000I140000J0D01*
G01*
X87140000Y-43690000D01*
G75*
G02*
X87280000Y-43830000I0J-140000D01*
G01*
G37*
G36*
G01*
X86320000Y-43830000D02*
X86320000Y-44170000D01*
G75*
G02*
X86180000Y-44310000I-140000J0D01*
G01*
X85900000Y-44310000D01*
G75*
G02*
X85760000Y-44170000I0J140000D01*
G01*
X85760000Y-43830000D01*
G75*
G02*
X85900000Y-43690000I140000J0D01*
G01*
X86180000Y-43690000D01*
G75*
G02*
X86320000Y-43830000I0J-140000D01*
G01*
G37*
G36*
G01*
X104315000Y-54720000D02*
X104685000Y-54720000D01*
G75*
G02*
X104820000Y-54855000I0J-135000D01*
G01*
X104820000Y-55125000D01*
G75*
G02*
X104685000Y-55260000I-135000J0D01*
G01*
X104315000Y-55260000D01*
G75*
G02*
X104180000Y-55125000I0J135000D01*
G01*
X104180000Y-54855000D01*
G75*
G02*
X104315000Y-54720000I135000J0D01*
G01*
G37*
G36*
G01*
X104315000Y-55740000D02*
X104685000Y-55740000D01*
G75*
G02*
X104820000Y-55875000I0J-135000D01*
G01*
X104820000Y-56145000D01*
G75*
G02*
X104685000Y-56280000I-135000J0D01*
G01*
X104315000Y-56280000D01*
G75*
G02*
X104180000Y-56145000I0J135000D01*
G01*
X104180000Y-55875000D01*
G75*
G02*
X104315000Y-55740000I135000J0D01*
G01*
G37*
D28*
X68050000Y-75040000D03*
X71950000Y-75040000D03*
X68050000Y-73770000D03*
X71950000Y-73770000D03*
X68050000Y-72500000D03*
X71950000Y-72500000D03*
X68050000Y-71230000D03*
X71950000Y-71230000D03*
X68050000Y-69960000D03*
X71950000Y-69960000D03*
G36*
G01*
X84000000Y-66150000D02*
X82800000Y-66150000D01*
G75*
G02*
X82600000Y-65950000I0J200000D01*
G01*
X82600000Y-65550000D01*
G75*
G02*
X82800000Y-65350000I200000J0D01*
G01*
X84000000Y-65350000D01*
G75*
G02*
X84200000Y-65550000I0J-200000D01*
G01*
X84200000Y-65950000D01*
G75*
G02*
X84000000Y-66150000I-200000J0D01*
G01*
G37*
G36*
G01*
X84000000Y-64900000D02*
X82800000Y-64900000D01*
G75*
G02*
X82600000Y-64700000I0J200000D01*
G01*
X82600000Y-64300000D01*
G75*
G02*
X82800000Y-64100000I200000J0D01*
G01*
X84000000Y-64100000D01*
G75*
G02*
X84200000Y-64300000I0J-200000D01*
G01*
X84200000Y-64700000D01*
G75*
G02*
X84000000Y-64900000I-200000J0D01*
G01*
G37*
G36*
G01*
X84000000Y-63650000D02*
X82800000Y-63650000D01*
G75*
G02*
X82600000Y-63450000I0J200000D01*
G01*
X82600000Y-63050000D01*
G75*
G02*
X82800000Y-62850000I200000J0D01*
G01*
X84000000Y-62850000D01*
G75*
G02*
X84200000Y-63050000I0J-200000D01*
G01*
X84200000Y-63450000D01*
G75*
G02*
X84000000Y-63650000I-200000J0D01*
G01*
G37*
G36*
G01*
X81749999Y-69350000D02*
X79250001Y-69350000D01*
G75*
G02*
X79000000Y-69099999I0J250001D01*
G01*
X79000000Y-67500001D01*
G75*
G02*
X79250001Y-67250000I250001J0D01*
G01*
X81749999Y-67250000D01*
G75*
G02*
X82000000Y-67500001I0J-250001D01*
G01*
X82000000Y-69099999D01*
G75*
G02*
X81749999Y-69350000I-250001J0D01*
G01*
G37*
G36*
G01*
X81749999Y-61750000D02*
X79250001Y-61750000D01*
G75*
G02*
X79000000Y-61499999I0J250001D01*
G01*
X79000000Y-59900001D01*
G75*
G02*
X79250001Y-59650000I250001J0D01*
G01*
X81749999Y-59650000D01*
G75*
G02*
X82000000Y-59900001I0J-250001D01*
G01*
X82000000Y-61499999D01*
G75*
G02*
X81749999Y-61750000I-250001J0D01*
G01*
G37*
G36*
G01*
X51650000Y-37225000D02*
X51150000Y-37225000D01*
G75*
G02*
X50925000Y-37000000I0J225000D01*
G01*
X50925000Y-36550000D01*
G75*
G02*
X51150000Y-36325000I225000J0D01*
G01*
X51650000Y-36325000D01*
G75*
G02*
X51875000Y-36550000I0J-225000D01*
G01*
X51875000Y-37000000D01*
G75*
G02*
X51650000Y-37225000I-225000J0D01*
G01*
G37*
G36*
G01*
X51650000Y-35675000D02*
X51150000Y-35675000D01*
G75*
G02*
X50925000Y-35450000I0J225000D01*
G01*
X50925000Y-35000000D01*
G75*
G02*
X51150000Y-34775000I225000J0D01*
G01*
X51650000Y-34775000D01*
G75*
G02*
X51875000Y-35000000I0J-225000D01*
G01*
X51875000Y-35450000D01*
G75*
G02*
X51650000Y-35675000I-225000J0D01*
G01*
G37*
G36*
G01*
X35870000Y-62460000D02*
X35530000Y-62460000D01*
G75*
G02*
X35390000Y-62320000I0J140000D01*
G01*
X35390000Y-62040000D01*
G75*
G02*
X35530000Y-61900000I140000J0D01*
G01*
X35870000Y-61900000D01*
G75*
G02*
X36010000Y-62040000I0J-140000D01*
G01*
X36010000Y-62320000D01*
G75*
G02*
X35870000Y-62460000I-140000J0D01*
G01*
G37*
G36*
G01*
X35870000Y-61500000D02*
X35530000Y-61500000D01*
G75*
G02*
X35390000Y-61360000I0J140000D01*
G01*
X35390000Y-61080000D01*
G75*
G02*
X35530000Y-60940000I140000J0D01*
G01*
X35870000Y-60940000D01*
G75*
G02*
X36010000Y-61080000I0J-140000D01*
G01*
X36010000Y-61360000D01*
G75*
G02*
X35870000Y-61500000I-140000J0D01*
G01*
G37*
D26*
X75850000Y-74900000D03*
X82150000Y-74900000D03*
X75850000Y-71100000D03*
X82150000Y-71100000D03*
G36*
G01*
X75750000Y-39775000D02*
X76250000Y-39775000D01*
G75*
G02*
X76475000Y-40000000I0J-225000D01*
G01*
X76475000Y-40450000D01*
G75*
G02*
X76250000Y-40675000I-225000J0D01*
G01*
X75750000Y-40675000D01*
G75*
G02*
X75525000Y-40450000I0J225000D01*
G01*
X75525000Y-40000000D01*
G75*
G02*
X75750000Y-39775000I225000J0D01*
G01*
G37*
G36*
G01*
X75750000Y-41325000D02*
X76250000Y-41325000D01*
G75*
G02*
X76475000Y-41550000I0J-225000D01*
G01*
X76475000Y-42000000D01*
G75*
G02*
X76250000Y-42225000I-225000J0D01*
G01*
X75750000Y-42225000D01*
G75*
G02*
X75525000Y-42000000I0J225000D01*
G01*
X75525000Y-41550000D01*
G75*
G02*
X75750000Y-41325000I225000J0D01*
G01*
G37*
G36*
G01*
X98225000Y-41800000D02*
X98225000Y-41500000D01*
G75*
G02*
X98375000Y-41350000I150000J0D01*
G01*
X99550000Y-41350000D01*
G75*
G02*
X99700000Y-41500000I0J-150000D01*
G01*
X99700000Y-41800000D01*
G75*
G02*
X99550000Y-41950000I-150000J0D01*
G01*
X98375000Y-41950000D01*
G75*
G02*
X98225000Y-41800000I0J150000D01*
G01*
G37*
G36*
G01*
X98225000Y-39900000D02*
X98225000Y-39600000D01*
G75*
G02*
X98375000Y-39450000I150000J0D01*
G01*
X99550000Y-39450000D01*
G75*
G02*
X99700000Y-39600000I0J-150000D01*
G01*
X99700000Y-39900000D01*
G75*
G02*
X99550000Y-40050000I-150000J0D01*
G01*
X98375000Y-40050000D01*
G75*
G02*
X98225000Y-39900000I0J150000D01*
G01*
G37*
G36*
G01*
X100100000Y-40850000D02*
X100100000Y-40550000D01*
G75*
G02*
X100250000Y-40400000I150000J0D01*
G01*
X101425000Y-40400000D01*
G75*
G02*
X101575000Y-40550000I0J-150000D01*
G01*
X101575000Y-40850000D01*
G75*
G02*
X101425000Y-41000000I-150000J0D01*
G01*
X100250000Y-41000000D01*
G75*
G02*
X100100000Y-40850000I0J150000D01*
G01*
G37*
G36*
G01*
X91925000Y-30425000D02*
X91925000Y-27575000D01*
G75*
G02*
X92175000Y-27325000I250000J0D01*
G01*
X92900000Y-27325000D01*
G75*
G02*
X93150000Y-27575000I0J-250000D01*
G01*
X93150000Y-30425000D01*
G75*
G02*
X92900000Y-30675000I-250000J0D01*
G01*
X92175000Y-30675000D01*
G75*
G02*
X91925000Y-30425000I0J250000D01*
G01*
G37*
G36*
G01*
X97850000Y-30425000D02*
X97850000Y-27575000D01*
G75*
G02*
X98100000Y-27325000I250000J0D01*
G01*
X98825000Y-27325000D01*
G75*
G02*
X99075000Y-27575000I0J-250000D01*
G01*
X99075000Y-30425000D01*
G75*
G02*
X98825000Y-30675000I-250000J0D01*
G01*
X98100000Y-30675000D01*
G75*
G02*
X97850000Y-30425000I0J250000D01*
G01*
G37*
G36*
G01*
X93080000Y-57315000D02*
X93080000Y-57685000D01*
G75*
G02*
X92945000Y-57820000I-135000J0D01*
G01*
X92675000Y-57820000D01*
G75*
G02*
X92540000Y-57685000I0J135000D01*
G01*
X92540000Y-57315000D01*
G75*
G02*
X92675000Y-57180000I135000J0D01*
G01*
X92945000Y-57180000D01*
G75*
G02*
X93080000Y-57315000I0J-135000D01*
G01*
G37*
G36*
G01*
X92060000Y-57315000D02*
X92060000Y-57685000D01*
G75*
G02*
X91925000Y-57820000I-135000J0D01*
G01*
X91655000Y-57820000D01*
G75*
G02*
X91520000Y-57685000I0J135000D01*
G01*
X91520000Y-57315000D01*
G75*
G02*
X91655000Y-57180000I135000J0D01*
G01*
X91925000Y-57180000D01*
G75*
G02*
X92060000Y-57315000I0J-135000D01*
G01*
G37*
G36*
G01*
X69285000Y-34480000D02*
X68915000Y-34480000D01*
G75*
G02*
X68780000Y-34345000I0J135000D01*
G01*
X68780000Y-34075000D01*
G75*
G02*
X68915000Y-33940000I135000J0D01*
G01*
X69285000Y-33940000D01*
G75*
G02*
X69420000Y-34075000I0J-135000D01*
G01*
X69420000Y-34345000D01*
G75*
G02*
X69285000Y-34480000I-135000J0D01*
G01*
G37*
G36*
G01*
X69285000Y-33460000D02*
X68915000Y-33460000D01*
G75*
G02*
X68780000Y-33325000I0J135000D01*
G01*
X68780000Y-33055000D01*
G75*
G02*
X68915000Y-32920000I135000J0D01*
G01*
X69285000Y-32920000D01*
G75*
G02*
X69420000Y-33055000I0J-135000D01*
G01*
X69420000Y-33325000D01*
G75*
G02*
X69285000Y-33460000I-135000J0D01*
G01*
G37*
G36*
G01*
X75170000Y-46760000D02*
X74830000Y-46760000D01*
G75*
G02*
X74690000Y-46620000I0J140000D01*
G01*
X74690000Y-46340000D01*
G75*
G02*
X74830000Y-46200000I140000J0D01*
G01*
X75170000Y-46200000D01*
G75*
G02*
X75310000Y-46340000I0J-140000D01*
G01*
X75310000Y-46620000D01*
G75*
G02*
X75170000Y-46760000I-140000J0D01*
G01*
G37*
G36*
G01*
X75170000Y-45800000D02*
X74830000Y-45800000D01*
G75*
G02*
X74690000Y-45660000I0J140000D01*
G01*
X74690000Y-45380000D01*
G75*
G02*
X74830000Y-45240000I140000J0D01*
G01*
X75170000Y-45240000D01*
G75*
G02*
X75310000Y-45380000I0J-140000D01*
G01*
X75310000Y-45660000D01*
G75*
G02*
X75170000Y-45800000I-140000J0D01*
G01*
G37*
G36*
G01*
X62750000Y-39225000D02*
X62250000Y-39225000D01*
G75*
G02*
X62025000Y-39000000I0J225000D01*
G01*
X62025000Y-38550000D01*
G75*
G02*
X62250000Y-38325000I225000J0D01*
G01*
X62750000Y-38325000D01*
G75*
G02*
X62975000Y-38550000I0J-225000D01*
G01*
X62975000Y-39000000D01*
G75*
G02*
X62750000Y-39225000I-225000J0D01*
G01*
G37*
G36*
G01*
X62750000Y-37675000D02*
X62250000Y-37675000D01*
G75*
G02*
X62025000Y-37450000I0J225000D01*
G01*
X62025000Y-37000000D01*
G75*
G02*
X62250000Y-36775000I225000J0D01*
G01*
X62750000Y-36775000D01*
G75*
G02*
X62975000Y-37000000I0J-225000D01*
G01*
X62975000Y-37450000D01*
G75*
G02*
X62750000Y-37675000I-225000J0D01*
G01*
G37*
G36*
G01*
X101637500Y-43050000D02*
X101637500Y-43350000D01*
G75*
G02*
X101487500Y-43500000I-150000J0D01*
G01*
X100312500Y-43500000D01*
G75*
G02*
X100162500Y-43350000I0J150000D01*
G01*
X100162500Y-43050000D01*
G75*
G02*
X100312500Y-42900000I150000J0D01*
G01*
X101487500Y-42900000D01*
G75*
G02*
X101637500Y-43050000I0J-150000D01*
G01*
G37*
G36*
G01*
X101637500Y-44950000D02*
X101637500Y-45250000D01*
G75*
G02*
X101487500Y-45400000I-150000J0D01*
G01*
X100312500Y-45400000D01*
G75*
G02*
X100162500Y-45250000I0J150000D01*
G01*
X100162500Y-44950000D01*
G75*
G02*
X100312500Y-44800000I150000J0D01*
G01*
X101487500Y-44800000D01*
G75*
G02*
X101637500Y-44950000I0J-150000D01*
G01*
G37*
G36*
G01*
X99762500Y-44000000D02*
X99762500Y-44300000D01*
G75*
G02*
X99612500Y-44450000I-150000J0D01*
G01*
X98437500Y-44450000D01*
G75*
G02*
X98287500Y-44300000I0J150000D01*
G01*
X98287500Y-44000000D01*
G75*
G02*
X98437500Y-43850000I150000J0D01*
G01*
X99612500Y-43850000D01*
G75*
G02*
X99762500Y-44000000I0J-150000D01*
G01*
G37*
G36*
G01*
X77250000Y-39775000D02*
X77750000Y-39775000D01*
G75*
G02*
X77975000Y-40000000I0J-225000D01*
G01*
X77975000Y-40450000D01*
G75*
G02*
X77750000Y-40675000I-225000J0D01*
G01*
X77250000Y-40675000D01*
G75*
G02*
X77025000Y-40450000I0J225000D01*
G01*
X77025000Y-40000000D01*
G75*
G02*
X77250000Y-39775000I225000J0D01*
G01*
G37*
G36*
G01*
X77250000Y-41325000D02*
X77750000Y-41325000D01*
G75*
G02*
X77975000Y-41550000I0J-225000D01*
G01*
X77975000Y-42000000D01*
G75*
G02*
X77750000Y-42225000I-225000J0D01*
G01*
X77250000Y-42225000D01*
G75*
G02*
X77025000Y-42000000I0J225000D01*
G01*
X77025000Y-41550000D01*
G75*
G02*
X77250000Y-41325000I225000J0D01*
G01*
G37*
G36*
G01*
X67417193Y-37442391D02*
X67657609Y-37682807D01*
G75*
G02*
X67657609Y-37880797I-98995J-98995D01*
G01*
X67459619Y-38078787D01*
G75*
G02*
X67261629Y-38078787I-98995J98995D01*
G01*
X67021213Y-37838371D01*
G75*
G02*
X67021213Y-37640381I98995J98995D01*
G01*
X67219203Y-37442391D01*
G75*
G02*
X67417193Y-37442391I98995J-98995D01*
G01*
G37*
G36*
G01*
X66738371Y-38121213D02*
X66978787Y-38361629D01*
G75*
G02*
X66978787Y-38559619I-98995J-98995D01*
G01*
X66780797Y-38757609D01*
G75*
G02*
X66582807Y-38757609I-98995J98995D01*
G01*
X66342391Y-38517193D01*
G75*
G02*
X66342391Y-38319203I98995J98995D01*
G01*
X66540381Y-38121213D01*
G75*
G02*
X66738371Y-38121213I98995J-98995D01*
G01*
G37*
D29*
X83400000Y-54200000D03*
X85600000Y-54200000D03*
X85600000Y-55800000D03*
X83400000Y-55800000D03*
G36*
G01*
X73750000Y-31050000D02*
X74250000Y-31050000D01*
G75*
G02*
X74475000Y-31275000I0J-225000D01*
G01*
X74475000Y-31725000D01*
G75*
G02*
X74250000Y-31950000I-225000J0D01*
G01*
X73750000Y-31950000D01*
G75*
G02*
X73525000Y-31725000I0J225000D01*
G01*
X73525000Y-31275000D01*
G75*
G02*
X73750000Y-31050000I225000J0D01*
G01*
G37*
G36*
G01*
X73750000Y-32600000D02*
X74250000Y-32600000D01*
G75*
G02*
X74475000Y-32825000I0J-225000D01*
G01*
X74475000Y-33275000D01*
G75*
G02*
X74250000Y-33500000I-225000J0D01*
G01*
X73750000Y-33500000D01*
G75*
G02*
X73525000Y-33275000I0J225000D01*
G01*
X73525000Y-32825000D01*
G75*
G02*
X73750000Y-32600000I225000J0D01*
G01*
G37*
G36*
G01*
X55975000Y-37950000D02*
X55025000Y-37950000D01*
G75*
G02*
X54775000Y-37700000I0J250000D01*
G01*
X54775000Y-37200000D01*
G75*
G02*
X55025000Y-36950000I250000J0D01*
G01*
X55975000Y-36950000D01*
G75*
G02*
X56225000Y-37200000I0J-250000D01*
G01*
X56225000Y-37700000D01*
G75*
G02*
X55975000Y-37950000I-250000J0D01*
G01*
G37*
G36*
G01*
X55975000Y-36050000D02*
X55025000Y-36050000D01*
G75*
G02*
X54775000Y-35800000I0J250000D01*
G01*
X54775000Y-35300000D01*
G75*
G02*
X55025000Y-35050000I250000J0D01*
G01*
X55975000Y-35050000D01*
G75*
G02*
X56225000Y-35300000I0J-250000D01*
G01*
X56225000Y-35800000D01*
G75*
G02*
X55975000Y-36050000I-250000J0D01*
G01*
G37*
G36*
G01*
X74840000Y-44570000D02*
X74840000Y-44230000D01*
G75*
G02*
X74980000Y-44090000I140000J0D01*
G01*
X75260000Y-44090000D01*
G75*
G02*
X75400000Y-44230000I0J-140000D01*
G01*
X75400000Y-44570000D01*
G75*
G02*
X75260000Y-44710000I-140000J0D01*
G01*
X74980000Y-44710000D01*
G75*
G02*
X74840000Y-44570000I0J140000D01*
G01*
G37*
G36*
G01*
X75800000Y-44570000D02*
X75800000Y-44230000D01*
G75*
G02*
X75940000Y-44090000I140000J0D01*
G01*
X76220000Y-44090000D01*
G75*
G02*
X76360000Y-44230000I0J-140000D01*
G01*
X76360000Y-44570000D01*
G75*
G02*
X76220000Y-44710000I-140000J0D01*
G01*
X75940000Y-44710000D01*
G75*
G02*
X75800000Y-44570000I0J140000D01*
G01*
G37*
G36*
G01*
X94685000Y-48780000D02*
X94315000Y-48780000D01*
G75*
G02*
X94180000Y-48645000I0J135000D01*
G01*
X94180000Y-48375000D01*
G75*
G02*
X94315000Y-48240000I135000J0D01*
G01*
X94685000Y-48240000D01*
G75*
G02*
X94820000Y-48375000I0J-135000D01*
G01*
X94820000Y-48645000D01*
G75*
G02*
X94685000Y-48780000I-135000J0D01*
G01*
G37*
G36*
G01*
X94685000Y-47760000D02*
X94315000Y-47760000D01*
G75*
G02*
X94180000Y-47625000I0J135000D01*
G01*
X94180000Y-47355000D01*
G75*
G02*
X94315000Y-47220000I135000J0D01*
G01*
X94685000Y-47220000D01*
G75*
G02*
X94820000Y-47355000I0J-135000D01*
G01*
X94820000Y-47625000D01*
G75*
G02*
X94685000Y-47760000I-135000J0D01*
G01*
G37*
G36*
G01*
X55950000Y-32700000D02*
X55950000Y-33300000D01*
G75*
G02*
X55700000Y-33550000I-250000J0D01*
G01*
X55100000Y-33550000D01*
G75*
G02*
X54850000Y-33300000I0J250000D01*
G01*
X54850000Y-32700000D01*
G75*
G02*
X55100000Y-32450000I250000J0D01*
G01*
X55700000Y-32450000D01*
G75*
G02*
X55950000Y-32700000I0J-250000D01*
G01*
G37*
G36*
G01*
X53150000Y-32700000D02*
X53150000Y-33300000D01*
G75*
G02*
X52900000Y-33550000I-250000J0D01*
G01*
X52300000Y-33550000D01*
G75*
G02*
X52050000Y-33300000I0J250000D01*
G01*
X52050000Y-32700000D01*
G75*
G02*
X52300000Y-32450000I250000J0D01*
G01*
X52900000Y-32450000D01*
G75*
G02*
X53150000Y-32700000I0J-250000D01*
G01*
G37*
G36*
G01*
X38020000Y-56685000D02*
X38020000Y-56315000D01*
G75*
G02*
X38155000Y-56180000I135000J0D01*
G01*
X38425000Y-56180000D01*
G75*
G02*
X38560000Y-56315000I0J-135000D01*
G01*
X38560000Y-56685000D01*
G75*
G02*
X38425000Y-56820000I-135000J0D01*
G01*
X38155000Y-56820000D01*
G75*
G02*
X38020000Y-56685000I0J135000D01*
G01*
G37*
G36*
G01*
X39040000Y-56685000D02*
X39040000Y-56315000D01*
G75*
G02*
X39175000Y-56180000I135000J0D01*
G01*
X39445000Y-56180000D01*
G75*
G02*
X39580000Y-56315000I0J-135000D01*
G01*
X39580000Y-56685000D01*
G75*
G02*
X39445000Y-56820000I-135000J0D01*
G01*
X39175000Y-56820000D01*
G75*
G02*
X39040000Y-56685000I0J135000D01*
G01*
G37*
G36*
G01*
X47275000Y-33750000D02*
X47275000Y-33250000D01*
G75*
G02*
X47500000Y-33025000I225000J0D01*
G01*
X47950000Y-33025000D01*
G75*
G02*
X48175000Y-33250000I0J-225000D01*
G01*
X48175000Y-33750000D01*
G75*
G02*
X47950000Y-33975000I-225000J0D01*
G01*
X47500000Y-33975000D01*
G75*
G02*
X47275000Y-33750000I0J225000D01*
G01*
G37*
G36*
G01*
X48825000Y-33750000D02*
X48825000Y-33250000D01*
G75*
G02*
X49050000Y-33025000I225000J0D01*
G01*
X49500000Y-33025000D01*
G75*
G02*
X49725000Y-33250000I0J-225000D01*
G01*
X49725000Y-33750000D01*
G75*
G02*
X49500000Y-33975000I-225000J0D01*
G01*
X49050000Y-33975000D01*
G75*
G02*
X48825000Y-33750000I0J225000D01*
G01*
G37*
G36*
G01*
X96425000Y-39250000D02*
X97375000Y-39250000D01*
G75*
G02*
X97625000Y-39500000I0J-250000D01*
G01*
X97625000Y-40000000D01*
G75*
G02*
X97375000Y-40250000I-250000J0D01*
G01*
X96425000Y-40250000D01*
G75*
G02*
X96175000Y-40000000I0J250000D01*
G01*
X96175000Y-39500000D01*
G75*
G02*
X96425000Y-39250000I250000J0D01*
G01*
G37*
G36*
G01*
X96425000Y-41150000D02*
X97375000Y-41150000D01*
G75*
G02*
X97625000Y-41400000I0J-250000D01*
G01*
X97625000Y-41900000D01*
G75*
G02*
X97375000Y-42150000I-250000J0D01*
G01*
X96425000Y-42150000D01*
G75*
G02*
X96175000Y-41900000I0J250000D01*
G01*
X96175000Y-41400000D01*
G75*
G02*
X96425000Y-41150000I250000J0D01*
G01*
G37*
G36*
G01*
X83380000Y-52515000D02*
X83380000Y-52885000D01*
G75*
G02*
X83245000Y-53020000I-135000J0D01*
G01*
X82975000Y-53020000D01*
G75*
G02*
X82840000Y-52885000I0J135000D01*
G01*
X82840000Y-52515000D01*
G75*
G02*
X82975000Y-52380000I135000J0D01*
G01*
X83245000Y-52380000D01*
G75*
G02*
X83380000Y-52515000I0J-135000D01*
G01*
G37*
G36*
G01*
X82360000Y-52515000D02*
X82360000Y-52885000D01*
G75*
G02*
X82225000Y-53020000I-135000J0D01*
G01*
X81955000Y-53020000D01*
G75*
G02*
X81820000Y-52885000I0J135000D01*
G01*
X81820000Y-52515000D01*
G75*
G02*
X81955000Y-52380000I135000J0D01*
G01*
X82225000Y-52380000D01*
G75*
G02*
X82360000Y-52515000I0J-135000D01*
G01*
G37*
G36*
G01*
X105915000Y-28720000D02*
X106285000Y-28720000D01*
G75*
G02*
X106420000Y-28855000I0J-135000D01*
G01*
X106420000Y-29125000D01*
G75*
G02*
X106285000Y-29260000I-135000J0D01*
G01*
X105915000Y-29260000D01*
G75*
G02*
X105780000Y-29125000I0J135000D01*
G01*
X105780000Y-28855000D01*
G75*
G02*
X105915000Y-28720000I135000J0D01*
G01*
G37*
G36*
G01*
X105915000Y-29740000D02*
X106285000Y-29740000D01*
G75*
G02*
X106420000Y-29875000I0J-135000D01*
G01*
X106420000Y-30145000D01*
G75*
G02*
X106285000Y-30280000I-135000J0D01*
G01*
X105915000Y-30280000D01*
G75*
G02*
X105780000Y-30145000I0J135000D01*
G01*
X105780000Y-29875000D01*
G75*
G02*
X105915000Y-29740000I135000J0D01*
G01*
G37*
G36*
G01*
X88237500Y-30950000D02*
X88237500Y-31250000D01*
G75*
G02*
X88087500Y-31400000I-150000J0D01*
G01*
X86912500Y-31400000D01*
G75*
G02*
X86762500Y-31250000I0J150000D01*
G01*
X86762500Y-30950000D01*
G75*
G02*
X86912500Y-30800000I150000J0D01*
G01*
X88087500Y-30800000D01*
G75*
G02*
X88237500Y-30950000I0J-150000D01*
G01*
G37*
G36*
G01*
X88237500Y-32850000D02*
X88237500Y-33150000D01*
G75*
G02*
X88087500Y-33300000I-150000J0D01*
G01*
X86912500Y-33300000D01*
G75*
G02*
X86762500Y-33150000I0J150000D01*
G01*
X86762500Y-32850000D01*
G75*
G02*
X86912500Y-32700000I150000J0D01*
G01*
X88087500Y-32700000D01*
G75*
G02*
X88237500Y-32850000I0J-150000D01*
G01*
G37*
G36*
G01*
X86362500Y-31900000D02*
X86362500Y-32200000D01*
G75*
G02*
X86212500Y-32350000I-150000J0D01*
G01*
X85037500Y-32350000D01*
G75*
G02*
X84887500Y-32200000I0J150000D01*
G01*
X84887500Y-31900000D01*
G75*
G02*
X85037500Y-31750000I150000J0D01*
G01*
X86212500Y-31750000D01*
G75*
G02*
X86362500Y-31900000I0J-150000D01*
G01*
G37*
G36*
G01*
X78800000Y-31400000D02*
X78800000Y-31700000D01*
G75*
G02*
X78650000Y-31850000I-150000J0D01*
G01*
X77625000Y-31850000D01*
G75*
G02*
X77475000Y-31700000I0J150000D01*
G01*
X77475000Y-31400000D01*
G75*
G02*
X77625000Y-31250000I150000J0D01*
G01*
X78650000Y-31250000D01*
G75*
G02*
X78800000Y-31400000I0J-150000D01*
G01*
G37*
G36*
G01*
X78800000Y-32350000D02*
X78800000Y-32650000D01*
G75*
G02*
X78650000Y-32800000I-150000J0D01*
G01*
X77625000Y-32800000D01*
G75*
G02*
X77475000Y-32650000I0J150000D01*
G01*
X77475000Y-32350000D01*
G75*
G02*
X77625000Y-32200000I150000J0D01*
G01*
X78650000Y-32200000D01*
G75*
G02*
X78800000Y-32350000I0J-150000D01*
G01*
G37*
G36*
G01*
X78800000Y-33300000D02*
X78800000Y-33600000D01*
G75*
G02*
X78650000Y-33750000I-150000J0D01*
G01*
X77625000Y-33750000D01*
G75*
G02*
X77475000Y-33600000I0J150000D01*
G01*
X77475000Y-33300000D01*
G75*
G02*
X77625000Y-33150000I150000J0D01*
G01*
X78650000Y-33150000D01*
G75*
G02*
X78800000Y-33300000I0J-150000D01*
G01*
G37*
G36*
G01*
X76525000Y-33300000D02*
X76525000Y-33600000D01*
G75*
G02*
X76375000Y-33750000I-150000J0D01*
G01*
X75350000Y-33750000D01*
G75*
G02*
X75200000Y-33600000I0J150000D01*
G01*
X75200000Y-33300000D01*
G75*
G02*
X75350000Y-33150000I150000J0D01*
G01*
X76375000Y-33150000D01*
G75*
G02*
X76525000Y-33300000I0J-150000D01*
G01*
G37*
G36*
G01*
X76525000Y-31400000D02*
X76525000Y-31700000D01*
G75*
G02*
X76375000Y-31850000I-150000J0D01*
G01*
X75350000Y-31850000D01*
G75*
G02*
X75200000Y-31700000I0J150000D01*
G01*
X75200000Y-31400000D01*
G75*
G02*
X75350000Y-31250000I150000J0D01*
G01*
X76375000Y-31250000D01*
G75*
G02*
X76525000Y-31400000I0J-150000D01*
G01*
G37*
G36*
G01*
X56925000Y-34925000D02*
X56925000Y-32075000D01*
G75*
G02*
X57175000Y-31825000I250000J0D01*
G01*
X57900000Y-31825000D01*
G75*
G02*
X58150000Y-32075000I0J-250000D01*
G01*
X58150000Y-34925000D01*
G75*
G02*
X57900000Y-35175000I-250000J0D01*
G01*
X57175000Y-35175000D01*
G75*
G02*
X56925000Y-34925000I0J250000D01*
G01*
G37*
G36*
G01*
X62850000Y-34925000D02*
X62850000Y-32075000D01*
G75*
G02*
X63100000Y-31825000I250000J0D01*
G01*
X63825000Y-31825000D01*
G75*
G02*
X64075000Y-32075000I0J-250000D01*
G01*
X64075000Y-34925000D01*
G75*
G02*
X63825000Y-35175000I-250000J0D01*
G01*
X63100000Y-35175000D01*
G75*
G02*
X62850000Y-34925000I0J250000D01*
G01*
G37*
G36*
G01*
X79815000Y-31220000D02*
X80185000Y-31220000D01*
G75*
G02*
X80320000Y-31355000I0J-135000D01*
G01*
X80320000Y-31625000D01*
G75*
G02*
X80185000Y-31760000I-135000J0D01*
G01*
X79815000Y-31760000D01*
G75*
G02*
X79680000Y-31625000I0J135000D01*
G01*
X79680000Y-31355000D01*
G75*
G02*
X79815000Y-31220000I135000J0D01*
G01*
G37*
G36*
G01*
X79815000Y-32240000D02*
X80185000Y-32240000D01*
G75*
G02*
X80320000Y-32375000I0J-135000D01*
G01*
X80320000Y-32645000D01*
G75*
G02*
X80185000Y-32780000I-135000J0D01*
G01*
X79815000Y-32780000D01*
G75*
G02*
X79680000Y-32645000I0J135000D01*
G01*
X79680000Y-32375000D01*
G75*
G02*
X79815000Y-32240000I135000J0D01*
G01*
G37*
G36*
G01*
X99150000Y-37325000D02*
X99150000Y-38275000D01*
G75*
G02*
X98900000Y-38525000I-250000J0D01*
G01*
X98400000Y-38525000D01*
G75*
G02*
X98150000Y-38275000I0J250000D01*
G01*
X98150000Y-37325000D01*
G75*
G02*
X98400000Y-37075000I250000J0D01*
G01*
X98900000Y-37075000D01*
G75*
G02*
X99150000Y-37325000I0J-250000D01*
G01*
G37*
G36*
G01*
X97250000Y-37325000D02*
X97250000Y-38275000D01*
G75*
G02*
X97000000Y-38525000I-250000J0D01*
G01*
X96500000Y-38525000D01*
G75*
G02*
X96250000Y-38275000I0J250000D01*
G01*
X96250000Y-37325000D01*
G75*
G02*
X96500000Y-37075000I250000J0D01*
G01*
X97000000Y-37075000D01*
G75*
G02*
X97250000Y-37325000I0J-250000D01*
G01*
G37*
G36*
G01*
X104315000Y-61720000D02*
X104685000Y-61720000D01*
G75*
G02*
X104820000Y-61855000I0J-135000D01*
G01*
X104820000Y-62125000D01*
G75*
G02*
X104685000Y-62260000I-135000J0D01*
G01*
X104315000Y-62260000D01*
G75*
G02*
X104180000Y-62125000I0J135000D01*
G01*
X104180000Y-61855000D01*
G75*
G02*
X104315000Y-61720000I135000J0D01*
G01*
G37*
G36*
G01*
X104315000Y-62740000D02*
X104685000Y-62740000D01*
G75*
G02*
X104820000Y-62875000I0J-135000D01*
G01*
X104820000Y-63145000D01*
G75*
G02*
X104685000Y-63280000I-135000J0D01*
G01*
X104315000Y-63280000D01*
G75*
G02*
X104180000Y-63145000I0J135000D01*
G01*
X104180000Y-62875000D01*
G75*
G02*
X104315000Y-62740000I135000J0D01*
G01*
G37*
G36*
G01*
X95585000Y-42480000D02*
X95215000Y-42480000D01*
G75*
G02*
X95080000Y-42345000I0J135000D01*
G01*
X95080000Y-42075000D01*
G75*
G02*
X95215000Y-41940000I135000J0D01*
G01*
X95585000Y-41940000D01*
G75*
G02*
X95720000Y-42075000I0J-135000D01*
G01*
X95720000Y-42345000D01*
G75*
G02*
X95585000Y-42480000I-135000J0D01*
G01*
G37*
G36*
G01*
X95585000Y-41460000D02*
X95215000Y-41460000D01*
G75*
G02*
X95080000Y-41325000I0J135000D01*
G01*
X95080000Y-41055000D01*
G75*
G02*
X95215000Y-40920000I135000J0D01*
G01*
X95585000Y-40920000D01*
G75*
G02*
X95720000Y-41055000I0J-135000D01*
G01*
X95720000Y-41325000D01*
G75*
G02*
X95585000Y-41460000I-135000J0D01*
G01*
G37*
G36*
G01*
X90375000Y-34100000D02*
X89625000Y-34100000D01*
G75*
G02*
X89400000Y-33875000I0J225000D01*
G01*
X89400000Y-33425000D01*
G75*
G02*
X89625000Y-33200000I225000J0D01*
G01*
X90375000Y-33200000D01*
G75*
G02*
X90600000Y-33425000I0J-225000D01*
G01*
X90600000Y-33875000D01*
G75*
G02*
X90375000Y-34100000I-225000J0D01*
G01*
G37*
G36*
G01*
X90375000Y-30800000D02*
X89625000Y-30800000D01*
G75*
G02*
X89400000Y-30575000I0J225000D01*
G01*
X89400000Y-30125000D01*
G75*
G02*
X89625000Y-29900000I225000J0D01*
G01*
X90375000Y-29900000D01*
G75*
G02*
X90600000Y-30125000I0J-225000D01*
G01*
X90600000Y-30575000D01*
G75*
G02*
X90375000Y-30800000I-225000J0D01*
G01*
G37*
G36*
G01*
X53600000Y-38450000D02*
X53000000Y-38450000D01*
G75*
G02*
X52750000Y-38200000I0J250000D01*
G01*
X52750000Y-37600000D01*
G75*
G02*
X53000000Y-37350000I250000J0D01*
G01*
X53600000Y-37350000D01*
G75*
G02*
X53850000Y-37600000I0J-250000D01*
G01*
X53850000Y-38200000D01*
G75*
G02*
X53600000Y-38450000I-250000J0D01*
G01*
G37*
G36*
G01*
X53600000Y-35650000D02*
X53000000Y-35650000D01*
G75*
G02*
X52750000Y-35400000I0J250000D01*
G01*
X52750000Y-34800000D01*
G75*
G02*
X53000000Y-34550000I250000J0D01*
G01*
X53600000Y-34550000D01*
G75*
G02*
X53850000Y-34800000I0J-250000D01*
G01*
X53850000Y-35400000D01*
G75*
G02*
X53600000Y-35650000I-250000J0D01*
G01*
G37*
G36*
G01*
X67182807Y-57357609D02*
X66942391Y-57117193D01*
G75*
G02*
X66942391Y-56919203I98995J98995D01*
G01*
X67140381Y-56721213D01*
G75*
G02*
X67338371Y-56721213I98995J-98995D01*
G01*
X67578787Y-56961629D01*
G75*
G02*
X67578787Y-57159619I-98995J-98995D01*
G01*
X67380797Y-57357609D01*
G75*
G02*
X67182807Y-57357609I-98995J98995D01*
G01*
G37*
G36*
G01*
X67861629Y-56678787D02*
X67621213Y-56438371D01*
G75*
G02*
X67621213Y-56240381I98995J98995D01*
G01*
X67819203Y-56042391D01*
G75*
G02*
X68017193Y-56042391I98995J-98995D01*
G01*
X68257609Y-56282807D01*
G75*
G02*
X68257609Y-56480797I-98995J-98995D01*
G01*
X68059619Y-56678787D01*
G75*
G02*
X67861629Y-56678787I-98995J98995D01*
G01*
G37*
G36*
G01*
X69825000Y-47600000D02*
X69825000Y-47300000D01*
G75*
G02*
X69975000Y-47150000I150000J0D01*
G01*
X71150000Y-47150000D01*
G75*
G02*
X71300000Y-47300000I0J-150000D01*
G01*
X71300000Y-47600000D01*
G75*
G02*
X71150000Y-47750000I-150000J0D01*
G01*
X69975000Y-47750000D01*
G75*
G02*
X69825000Y-47600000I0J150000D01*
G01*
G37*
G36*
G01*
X69825000Y-45700000D02*
X69825000Y-45400000D01*
G75*
G02*
X69975000Y-45250000I150000J0D01*
G01*
X71150000Y-45250000D01*
G75*
G02*
X71300000Y-45400000I0J-150000D01*
G01*
X71300000Y-45700000D01*
G75*
G02*
X71150000Y-45850000I-150000J0D01*
G01*
X69975000Y-45850000D01*
G75*
G02*
X69825000Y-45700000I0J150000D01*
G01*
G37*
G36*
G01*
X71700000Y-46650000D02*
X71700000Y-46350000D01*
G75*
G02*
X71850000Y-46200000I150000J0D01*
G01*
X73025000Y-46200000D01*
G75*
G02*
X73175000Y-46350000I0J-150000D01*
G01*
X73175000Y-46650000D01*
G75*
G02*
X73025000Y-46800000I-150000J0D01*
G01*
X71850000Y-46800000D01*
G75*
G02*
X71700000Y-46650000I0J150000D01*
G01*
G37*
G36*
G01*
X69185000Y-50780000D02*
X68815000Y-50780000D01*
G75*
G02*
X68680000Y-50645000I0J135000D01*
G01*
X68680000Y-50375000D01*
G75*
G02*
X68815000Y-50240000I135000J0D01*
G01*
X69185000Y-50240000D01*
G75*
G02*
X69320000Y-50375000I0J-135000D01*
G01*
X69320000Y-50645000D01*
G75*
G02*
X69185000Y-50780000I-135000J0D01*
G01*
G37*
G36*
G01*
X69185000Y-49760000D02*
X68815000Y-49760000D01*
G75*
G02*
X68680000Y-49625000I0J135000D01*
G01*
X68680000Y-49355000D01*
G75*
G02*
X68815000Y-49220000I135000J0D01*
G01*
X69185000Y-49220000D01*
G75*
G02*
X69320000Y-49355000I0J-135000D01*
G01*
X69320000Y-49625000D01*
G75*
G02*
X69185000Y-49760000I-135000J0D01*
G01*
G37*
G36*
G01*
X80270000Y-53760000D02*
X79930000Y-53760000D01*
G75*
G02*
X79790000Y-53620000I0J140000D01*
G01*
X79790000Y-53340000D01*
G75*
G02*
X79930000Y-53200000I140000J0D01*
G01*
X80270000Y-53200000D01*
G75*
G02*
X80410000Y-53340000I0J-140000D01*
G01*
X80410000Y-53620000D01*
G75*
G02*
X80270000Y-53760000I-140000J0D01*
G01*
G37*
G36*
G01*
X80270000Y-52800000D02*
X79930000Y-52800000D01*
G75*
G02*
X79790000Y-52660000I0J140000D01*
G01*
X79790000Y-52380000D01*
G75*
G02*
X79930000Y-52240000I140000J0D01*
G01*
X80270000Y-52240000D01*
G75*
G02*
X80410000Y-52380000I0J-140000D01*
G01*
X80410000Y-52660000D01*
G75*
G02*
X80270000Y-52800000I-140000J0D01*
G01*
G37*
G36*
G01*
X63200000Y-40150000D02*
X63200000Y-41850000D01*
G75*
G02*
X62950000Y-42100000I-250000J0D01*
G01*
X62200000Y-42100000D01*
G75*
G02*
X61950000Y-41850000I0J250000D01*
G01*
X61950000Y-40150000D01*
G75*
G02*
X62200000Y-39900000I250000J0D01*
G01*
X62950000Y-39900000D01*
G75*
G02*
X63200000Y-40150000I0J-250000D01*
G01*
G37*
G36*
G01*
X61050000Y-40150000D02*
X61050000Y-41850000D01*
G75*
G02*
X60800000Y-42100000I-250000J0D01*
G01*
X60050000Y-42100000D01*
G75*
G02*
X59800000Y-41850000I0J250000D01*
G01*
X59800000Y-40150000D01*
G75*
G02*
X60050000Y-39900000I250000J0D01*
G01*
X60800000Y-39900000D01*
G75*
G02*
X61050000Y-40150000I0J-250000D01*
G01*
G37*
G36*
G01*
X88280000Y-29315000D02*
X88280000Y-29685000D01*
G75*
G02*
X88145000Y-29820000I-135000J0D01*
G01*
X87875000Y-29820000D01*
G75*
G02*
X87740000Y-29685000I0J135000D01*
G01*
X87740000Y-29315000D01*
G75*
G02*
X87875000Y-29180000I135000J0D01*
G01*
X88145000Y-29180000D01*
G75*
G02*
X88280000Y-29315000I0J-135000D01*
G01*
G37*
G36*
G01*
X87260000Y-29315000D02*
X87260000Y-29685000D01*
G75*
G02*
X87125000Y-29820000I-135000J0D01*
G01*
X86855000Y-29820000D01*
G75*
G02*
X86720000Y-29685000I0J135000D01*
G01*
X86720000Y-29315000D01*
G75*
G02*
X86855000Y-29180000I135000J0D01*
G01*
X87125000Y-29180000D01*
G75*
G02*
X87260000Y-29315000I0J-135000D01*
G01*
G37*
G36*
G01*
X81670000Y-55760000D02*
X81330000Y-55760000D01*
G75*
G02*
X81190000Y-55620000I0J140000D01*
G01*
X81190000Y-55340000D01*
G75*
G02*
X81330000Y-55200000I140000J0D01*
G01*
X81670000Y-55200000D01*
G75*
G02*
X81810000Y-55340000I0J-140000D01*
G01*
X81810000Y-55620000D01*
G75*
G02*
X81670000Y-55760000I-140000J0D01*
G01*
G37*
G36*
G01*
X81670000Y-54800000D02*
X81330000Y-54800000D01*
G75*
G02*
X81190000Y-54660000I0J140000D01*
G01*
X81190000Y-54380000D01*
G75*
G02*
X81330000Y-54240000I140000J0D01*
G01*
X81670000Y-54240000D01*
G75*
G02*
X81810000Y-54380000I0J-140000D01*
G01*
X81810000Y-54660000D01*
G75*
G02*
X81670000Y-54800000I-140000J0D01*
G01*
G37*
G36*
G01*
X56762500Y-38650000D02*
X56762500Y-38350000D01*
G75*
G02*
X56912500Y-38200000I150000J0D01*
G01*
X58087500Y-38200000D01*
G75*
G02*
X58237500Y-38350000I0J-150000D01*
G01*
X58237500Y-38650000D01*
G75*
G02*
X58087500Y-38800000I-150000J0D01*
G01*
X56912500Y-38800000D01*
G75*
G02*
X56762500Y-38650000I0J150000D01*
G01*
G37*
G36*
G01*
X56762500Y-36750000D02*
X56762500Y-36450000D01*
G75*
G02*
X56912500Y-36300000I150000J0D01*
G01*
X58087500Y-36300000D01*
G75*
G02*
X58237500Y-36450000I0J-150000D01*
G01*
X58237500Y-36750000D01*
G75*
G02*
X58087500Y-36900000I-150000J0D01*
G01*
X56912500Y-36900000D01*
G75*
G02*
X56762500Y-36750000I0J150000D01*
G01*
G37*
G36*
G01*
X58637500Y-37700000D02*
X58637500Y-37400000D01*
G75*
G02*
X58787500Y-37250000I150000J0D01*
G01*
X59962500Y-37250000D01*
G75*
G02*
X60112500Y-37400000I0J-150000D01*
G01*
X60112500Y-37700000D01*
G75*
G02*
X59962500Y-37850000I-150000J0D01*
G01*
X58787500Y-37850000D01*
G75*
G02*
X58637500Y-37700000I0J150000D01*
G01*
G37*
G36*
G01*
X77280000Y-69315000D02*
X77280000Y-69685000D01*
G75*
G02*
X77145000Y-69820000I-135000J0D01*
G01*
X76875000Y-69820000D01*
G75*
G02*
X76740000Y-69685000I0J135000D01*
G01*
X76740000Y-69315000D01*
G75*
G02*
X76875000Y-69180000I135000J0D01*
G01*
X77145000Y-69180000D01*
G75*
G02*
X77280000Y-69315000I0J-135000D01*
G01*
G37*
G36*
G01*
X76260000Y-69315000D02*
X76260000Y-69685000D01*
G75*
G02*
X76125000Y-69820000I-135000J0D01*
G01*
X75855000Y-69820000D01*
G75*
G02*
X75720000Y-69685000I0J135000D01*
G01*
X75720000Y-69315000D01*
G75*
G02*
X75855000Y-69180000I135000J0D01*
G01*
X76125000Y-69180000D01*
G75*
G02*
X76260000Y-69315000I0J-135000D01*
G01*
G37*
G36*
G01*
X68815000Y-45720000D02*
X69185000Y-45720000D01*
G75*
G02*
X69320000Y-45855000I0J-135000D01*
G01*
X69320000Y-46125000D01*
G75*
G02*
X69185000Y-46260000I-135000J0D01*
G01*
X68815000Y-46260000D01*
G75*
G02*
X68680000Y-46125000I0J135000D01*
G01*
X68680000Y-45855000D01*
G75*
G02*
X68815000Y-45720000I135000J0D01*
G01*
G37*
G36*
G01*
X68815000Y-46740000D02*
X69185000Y-46740000D01*
G75*
G02*
X69320000Y-46875000I0J-135000D01*
G01*
X69320000Y-47145000D01*
G75*
G02*
X69185000Y-47280000I-135000J0D01*
G01*
X68815000Y-47280000D01*
G75*
G02*
X68680000Y-47145000I0J135000D01*
G01*
X68680000Y-46875000D01*
G75*
G02*
X68815000Y-46740000I135000J0D01*
G01*
G37*
G36*
G01*
X79815000Y-40720000D02*
X80185000Y-40720000D01*
G75*
G02*
X80320000Y-40855000I0J-135000D01*
G01*
X80320000Y-41125000D01*
G75*
G02*
X80185000Y-41260000I-135000J0D01*
G01*
X79815000Y-41260000D01*
G75*
G02*
X79680000Y-41125000I0J135000D01*
G01*
X79680000Y-40855000D01*
G75*
G02*
X79815000Y-40720000I135000J0D01*
G01*
G37*
G36*
G01*
X79815000Y-41740000D02*
X80185000Y-41740000D01*
G75*
G02*
X80320000Y-41875000I0J-135000D01*
G01*
X80320000Y-42145000D01*
G75*
G02*
X80185000Y-42280000I-135000J0D01*
G01*
X79815000Y-42280000D01*
G75*
G02*
X79680000Y-42145000I0J135000D01*
G01*
X79680000Y-41875000D01*
G75*
G02*
X79815000Y-41740000I135000J0D01*
G01*
G37*
G36*
G01*
X96875000Y-47600000D02*
X96125000Y-47600000D01*
G75*
G02*
X95900000Y-47375000I0J225000D01*
G01*
X95900000Y-46925000D01*
G75*
G02*
X96125000Y-46700000I225000J0D01*
G01*
X96875000Y-46700000D01*
G75*
G02*
X97100000Y-46925000I0J-225000D01*
G01*
X97100000Y-47375000D01*
G75*
G02*
X96875000Y-47600000I-225000J0D01*
G01*
G37*
G36*
G01*
X96875000Y-44300000D02*
X96125000Y-44300000D01*
G75*
G02*
X95900000Y-44075000I0J225000D01*
G01*
X95900000Y-43625000D01*
G75*
G02*
X96125000Y-43400000I225000J0D01*
G01*
X96875000Y-43400000D01*
G75*
G02*
X97100000Y-43625000I0J-225000D01*
G01*
X97100000Y-44075000D01*
G75*
G02*
X96875000Y-44300000I-225000J0D01*
G01*
G37*
G36*
G01*
X36220000Y-54385000D02*
X36220000Y-54015000D01*
G75*
G02*
X36355000Y-53880000I135000J0D01*
G01*
X36625000Y-53880000D01*
G75*
G02*
X36760000Y-54015000I0J-135000D01*
G01*
X36760000Y-54385000D01*
G75*
G02*
X36625000Y-54520000I-135000J0D01*
G01*
X36355000Y-54520000D01*
G75*
G02*
X36220000Y-54385000I0J135000D01*
G01*
G37*
G36*
G01*
X37240000Y-54385000D02*
X37240000Y-54015000D01*
G75*
G02*
X37375000Y-53880000I135000J0D01*
G01*
X37645000Y-53880000D01*
G75*
G02*
X37780000Y-54015000I0J-135000D01*
G01*
X37780000Y-54385000D01*
G75*
G02*
X37645000Y-54520000I-135000J0D01*
G01*
X37375000Y-54520000D01*
G75*
G02*
X37240000Y-54385000I0J135000D01*
G01*
G37*
G36*
G01*
X53750000Y-41725000D02*
X53250000Y-41725000D01*
G75*
G02*
X53025000Y-41500000I0J225000D01*
G01*
X53025000Y-41050000D01*
G75*
G02*
X53250000Y-40825000I225000J0D01*
G01*
X53750000Y-40825000D01*
G75*
G02*
X53975000Y-41050000I0J-225000D01*
G01*
X53975000Y-41500000D01*
G75*
G02*
X53750000Y-41725000I-225000J0D01*
G01*
G37*
G36*
G01*
X53750000Y-40175000D02*
X53250000Y-40175000D01*
G75*
G02*
X53025000Y-39950000I0J225000D01*
G01*
X53025000Y-39500000D01*
G75*
G02*
X53250000Y-39275000I225000J0D01*
G01*
X53750000Y-39275000D01*
G75*
G02*
X53975000Y-39500000I0J-225000D01*
G01*
X53975000Y-39950000D01*
G75*
G02*
X53750000Y-40175000I-225000J0D01*
G01*
G37*
G36*
G01*
X36220000Y-52685000D02*
X36220000Y-52315000D01*
G75*
G02*
X36355000Y-52180000I135000J0D01*
G01*
X36625000Y-52180000D01*
G75*
G02*
X36760000Y-52315000I0J-135000D01*
G01*
X36760000Y-52685000D01*
G75*
G02*
X36625000Y-52820000I-135000J0D01*
G01*
X36355000Y-52820000D01*
G75*
G02*
X36220000Y-52685000I0J135000D01*
G01*
G37*
G36*
G01*
X37240000Y-52685000D02*
X37240000Y-52315000D01*
G75*
G02*
X37375000Y-52180000I135000J0D01*
G01*
X37645000Y-52180000D01*
G75*
G02*
X37780000Y-52315000I0J-135000D01*
G01*
X37780000Y-52685000D01*
G75*
G02*
X37645000Y-52820000I-135000J0D01*
G01*
X37375000Y-52820000D01*
G75*
G02*
X37240000Y-52685000I0J135000D01*
G01*
G37*
G36*
G01*
X114600000Y-36875000D02*
X114600000Y-38125000D01*
G75*
G02*
X114350000Y-38375000I-250000J0D01*
G01*
X113650000Y-38375000D01*
G75*
G02*
X113400000Y-38125000I0J250000D01*
G01*
X113400000Y-36875000D01*
G75*
G02*
X113650000Y-36625000I250000J0D01*
G01*
X114350000Y-36625000D01*
G75*
G02*
X114600000Y-36875000I0J-250000D01*
G01*
G37*
D30*
X112000000Y-37500000D03*
%LPD*%
M02*
