  0
SECTION
  2
HEADER
  9
$ACADVER
  1
AC1014
  9
$HANDSEED
  5
FFFF
  9
$INSUNITS
 70
     0
  9
$MEASUREMENT
 70
     1
  0
ENDSEC
  0
SECTION
  2
TABLES
  0
TABLE
  2
VPORT
  5
8
330
0
100
AcDbSymbolTable
 70
     4
  0
VPORT
  5
2E
330
8
100
AcDbSymbolTableRecord
100
AcDbViewportTableRecord
  2
*ACTIVE
 70
     0
 10
0.0
 20
0.0
 11
1.0
 21
1.0
 12
210.0
 22
148.5
 13
0.0
 23
0.0
 14
10.0
 24
10.0
 15
10.0
 25
10.0
 16
0.0
 26
0.0
 36
1.0
 17
0.0
 27
0.0
 37
0.0
 40
341.0
 41
1.24
 42
50.0
 43
0.0
 44
0.0
 50
0.0
 51
0.0
 71
     0
 72
   100
 73
     1
 74
     3
 75
     0
 76
     0
 77
     0
 78
     0
  0
ENDTAB
  0
TABLE
  2
LTYPE
  5
5
330
0
100
AcDbSymbolTable
 70
     1
  0
LTYPE
  5
14
330
5
100
AcDbSymbolTableRecord
100
AcDbLinetypeTableRecord
  2
BYBLOCK
 70
     0
  3

 72
    65
 73
     0
 40
0.0
  0
LTYPE
  5
15
330
5
100
AcDbSymbolTableRecord
100
AcDbLinetypeTableRecord
  2
BYLAYER
 70
     0
  3

 72
    65
 73
     0
 40
0.0
  0
LTYPE
  5
16
330
5
100
AcDbSymbolTableRecord
100
AcDbLinetypeTableRecord
  2
CONTINUOUS
 70
     0
  3
Solid line
 72
    65
 73
     0
 40
0.0
  0
ENDTAB
  0
TABLE
  2
LAYER
  5
2
100
AcDbSymbolTable
 70
1
  0
LAYER
  5
50
100
AcDbSymbolTableRecord
100
AcDbLayerTableRecord
  2
0
 70
0
  6
CONTINUOUS
  0
ENDTAB
  0
TABLE
  2
STYLE
  5
3
330
0
100
AcDbSymbolTable
 70
     1
  0
STYLE
  5
11
330
3
100
AcDbSymbolTableRecord
100
AcDbTextStyleTableRecord
  2
STANDARD
 70
     0
 40
0.0
 41
1.0
 50
0.0
 71
     0
 42
2.5
  3
txt
  4

  0
ENDTAB
  0
TABLE
  2
VIEW
  5
6
330
0
100
AcDbSymbolTable
 70
     0
  0
ENDTAB
  0
TABLE
  2
UCS
  5
7
330
0
100
AcDbSymbolTable
 70
     0
  0
ENDTAB
  0
TABLE
  2
APPID
  5
9
330
0
100
AcDbSymbolTable
 70
     2
  0
APPID
  5
12
330
9
100
AcDbSymbolTableRecord
100
AcDbRegAppTableRecord
  2
ACAD
 70
     0
  0
ENDTAB
  0
TABLE
  2
DIMSTYLE
  5
A
330
0
100
AcDbSymbolTable
 70
     1
  0
DIMSTYLE
105
27
330
A
100
AcDbSymbolTableRecord
100
AcDbDimStyleTableRecord
  2
ISO-25
 70
     0
  3

  4

  5

  6

  7

 40
1.0
 41
2.5
 42
0.625
 43
3.75
 44
1.25
 45
0.0
 46
0.0
 47
0.0
 48
0.0
140
2.5
141
2.5
142
0.0
143
0.03937007874016
144
1.0
145
0.0
146
1.0
147
0.625
 71
     0
 72
     0
 73
     0
 74
     0
 75
     0
 76
     0
 77
     1
 78
     8
170
     0
171
     3
172
     1
173
     0
174
     0
175
     0
176
     0
177
     0
178
     0
270
     2
271
     2
272
     2
273
     2
274
     3
340
11
275
     0
280
     0
281
     0
282
     0
283
     0
284
     8
285
     0
286
     0
287
     3
288
     0
  0
ENDTAB
  0
TABLE
  2
BLOCK_RECORD
  5
1
330
0
100
AcDbSymbolTable
 70
     1
  0
BLOCK_RECORD
  5
1F
330
1
100
AcDbSymbolTableRecord
100
AcDbBlockTableRecord
  2
*MODEL_SPACE
  0
BLOCK_RECORD
  5
1B
330
1
100
AcDbSymbolTableRecord
100
AcDbBlockTableRecord
  2
*PAPER_SPACE
  0
ENDTAB
  0
ENDSEC
  0
SECTION
  2
BLOCKS
  0
BLOCK
  5
20
330
1F
100
AcDbEntity
  8
0
100
AcDbBlockBegin
  2
*MODEL_SPACE
 70
     0
 10
0.0
 20
0.0
 30
0.0
  3
*MODEL_SPACE
  1

  0
ENDBLK
  5
21
330
1F
100
AcDbEntity
  8
0
100
AcDbBlockEnd
  0
BLOCK
  5
1C
330
1B
100
AcDbEntity
 67
     1
  8
0
100
AcDbBlockBegin
  2
*PAPER_SPACE
  1

  0
ENDBLK
  5
1D
330
1B
100
AcDbEntity
 67
     1
  8
0
100
AcDbBlockEnd
  0
ENDSEC
  0
SECTION
  2
ENTITIES
  0
SPLINE
  5
100
100
AcDbEntity
  8
0
 62
7
100
AcDbSpline
 70
8
 71
3
 72
8
 73
4
 74
0
 40
0
 40
0
 40
0
 40
0
 40
1
 40
1
 40
1
 40
1
 10
570.765599
 20
214.051942
 30
0.0
 10
570.765599
 20
214.051942
 30
0.0
 10
533.220691
 20
160.345166
 30
0.0
 10
524.998712
 20
144.978230
 30
0.0
  0
SPLINE
  5
101
100
AcDbEntity
  8
0
 62
7
100
AcDbSpline
 70
8
 71
3
 72
8
 73
4
 74
0
 40
0
 40
0
 40
0
 40
0
 40
1
 40
1
 40
1
 40
1
 10
524.998712
 20
144.978230
 30
0.0
 10
522.434718
 20
140.185250
 30
0.0
 10
518.596727
 20
127.165304
 30
0.0
 10
518.596727
 20
127.165304
 30
0.0
  0
LWPOLYLINE
  5
102
100
AcDbEntity
  8
0
 62
7
100
AcDbPolyline
 90
4
 70
1
 10
0.000000
 20
751.999700
 30
0.0
 10
1111.293600
 20
751.999700
 30
0.0
 10
1111.293600
 20
0.531200
 30
0.0
 10
0.000000
 20
0.531200
 30
0.0
  0
SPLINE
  5
103
100
AcDbEntity
  8
0
 62
7
100
AcDbSpline
 70
8
 71
3
 72
8
 73
4
 74
0
 40
0
 40
0
 40
0
 40
0
 40
1
 40
1
 40
1
 40
1
 10
588.535556
 20
208.251966
 30
0.0
 10
588.535556
 20
208.251966
 30
0.0
 10
594.066542
 20
220.541915
 30
0.0
 10
589.776553
 20
222.394907
 30
0.0
  0
SPLINE
  5
104
100
AcDbEntity
  8
0
 62
7
100
AcDbSpline
 70
8
 71
3
 72
8
 73
4
 74
0
 40
0
 40
0
 40
0
 40
0
 40
1
 40
1
 40
1
 40
1
 10
589.776553
 20
222.394907
 30
0.0
 10
585.485563
 20
224.246900
 30
0.0
 10
570.765599
 20
214.051942
 30
0.0
 10
570.765599
 20
214.051942
 30
0.0
  0
LWPOLYLINE
  5
105
100
AcDbEntity
  8
0
 62
7
100
AcDbPolyline
 90
3
 70
0
 10
518.596727
 20
127.165304
 30
0.0
 10
543.748666
 20
126.938305
 30
0.0
 10
588.535556
 20
208.251966
 30
0.0
  0
SPLINE
  5
106
100
AcDbEntity
  8
0
 62
7
100
AcDbSpline
 70
8
 71
3
 72
8
 73
4
 74
0
 40
0
 40
0
 40
0
 40
0
 40
1
 40
1
 40
1
 40
1
 10
599.998528
 20
589.561377
 30
0.0
 10
603.317519
 20
595.811351
 30
0.0
 10
544.912663
 20
602.000325
 30
0.0
 10
544.912663
 20
602.000325
 30
0.0
  0
SPLINE
  5
107
100
AcDbEntity
  8
0
 62
7
100
AcDbSpline
 70
8
 71
3
 72
8
 73
4
 74
0
 40
0
 40
0
 40
0
 40
0
 40
1
 40
1
 40
1
 40
1
 10
544.912663
 20
602.000325
 30
0.0
 10
544.912663
 20
602.000325
 30
0.0
 10
515.281735
 20
634.615189
 30
0.0
 10
495.073785
 20
639.500169
 30
0.0
  0
SPLINE
  5
108
100
AcDbEntity
  8
0
 62
7
100
AcDbSpline
 70
8
 71
3
 72
8
 73
4
 74
0
 40
0
 40
0
 40
0
 40
0
 40
1
 40
1
 40
1
 40
1
 10
495.073785
 20
639.500169
 30
0.0
 10
474.537835
 20
644.464148
 30
0.0
 10
441.711916
 20
641.897159
 30
0.0
 10
421.699965
 20
631.785201
 30
0.0
  0
SPLINE
  5
109
100
AcDbEntity
  8
0
 62
7
100
AcDbSpline
 70
8
 71
3
 72
8
 73
4
 74
0
 40
0
 40
0
 40
0
 40
0
 40
1
 40
1
 40
1
 40
1
 10
421.699965
 20
631.785201
 30
0.0
 10
401.687014
 20
621.674243
 30
0.0
 10
385.440054
 20
595.041354
 30
0.0
 10
374.999080
 20
578.832422
 30
0.0
  0
SPLINE
  5
10a
100
AcDbEntity
  8
0
 62
7
100
AcDbSpline
 70
8
 71
3
 72
8
 73
4
 74
0
 40
0
 40
0
 40
0
 40
0
 40
1
 40
1
 40
1
 40
1
 10
374.999080
 20
578.832422
 30
0.0
 10
366.500101
 20
565.637477
 30
0.0
 10
360.465115
 20
550.161541
 30
0.0
 10
359.055119
 20
534.530606
 30
0.0
  0
SPLINE
  5
10b
100
AcDbEntity
  8
0
 62
7
100
AcDbSpline
 70
8
 71
3
 72
8
 73
4
 74
0
 40
0
 40
0
 40
0
 40
0
 40
1
 40
1
 40
1
 40
1
 10
359.055119
 20
534.530606
 30
0.0
 10
357.148124
 20
513.392694
 30
0.0
 10
361.012114
 20
479.433836
 30
0.0
 10
363.554108
 20
452.000950
 30
0.0
  0
SPLINE
  5
10c
100
AcDbEntity
  8
0
 62
7
100
AcDbSpline
 70
8
 71
3
 72
8
 73
4
 74
0
 40
0
 40
0
 40
0
 40
0
 40
1
 40
1
 40
1
 40
1
 10
363.554108
 20
452.000950
 30
0.0
 10
366.212101
 20
423.332070
 30
0.0
 10
366.842100
 20
386.546223
 30
0.0
 10
374.999080
 20
362.518323
 30
0.0
  0
SPLINE
  5
10d
100
AcDbEntity
  8
0
 62
7
100
AcDbSpline
 70
8
 71
3
 72
8
 73
4
 74
0
 40
0
 40
0
 40
0
 40
0
 40
1
 40
1
 40
1
 40
1
 10
374.999080
 20
362.518323
 30
0.0
 10
382.104062
 20
341.589410
 30
0.0
 10
398.238023
 20
324.720481
 30
0.0
 10
412.498988
 20
307.834551
 30
0.0
  0
SPLINE
  5
10e
100
AcDbEntity
  8
0
 62
7
100
AcDbSpline
 70
8
 71
3
 72
8
 73
4
 74
0
 40
0
 40
0
 40
0
 40
0
 40
1
 40
1
 40
1
 40
1
 10
412.498988
 20
307.834551
 30
0.0
 10
428.184949
 20
289.259629
 30
0.0
 10
446.245905
 20
264.897730
 30
0.0
 10
469.115849
 20
251.073788
 30
0.0
  0
SPLINE
  5
10f
100
AcDbEntity
  8
0
 62
7
100
AcDbSpline
 70
8
 71
3
 72
8
 73
4
 74
0
 40
0
 40
0
 40
0
 40
0
 40
1
 40
1
 40
1
 40
1
 10
469.115849
 20
251.073788
 30
0.0
 10
492.973790
 20
236.652848
 30
0.0
 10
548.723653
 20
220.477915
 30
0.0
 10
548.723653
 20
220.477915
 30
0.0
  0
SPLINE
  5
110
100
AcDbEntity
  8
0
 62
7
100
AcDbSpline
 70
8
 71
3
 72
8
 73
4
 74
0
 40
0
 40
0
 40
0
 40
0
 40
1
 40
1
 40
1
 40
1
 10
548.723653
 20
220.477915
 30
0.0
 10
548.723653
 20
220.477915
 30
0.0
 10
505.106760
 20
146.700223
 30
0.0
 10
487.498804
 20
128.899297
 30
0.0
  0
SPLINE
  5
111
100
AcDbEntity
  8
0
 62
7
100
AcDbSpline
 70
8
 71
3
 72
8
 73
4
 74
0
 40
0
 40
0
 40
0
 40
0
 40
1
 40
1
 40
1
 40
1
 10
487.498804
 20
128.899297
 30
0.0
 10
478.082827
 20
119.380337
 30
0.0
 10
459.522872
 20
119.982334
 30
0.0
 10
449.998896
 20
114.502357
 30
0.0
  0
SPLINE
  5
112
100
AcDbEntity
  8
0
 62
7
100
AcDbSpline
 70
8
 71
3
 72
8
 73
4
 74
0
 40
0
 40
0
 40
0
 40
0
 40
1
 40
1
 40
1
 40
1
 10
449.998896
 20
114.502357
 30
0.0
 10
442.205915
 20
110.018376
 30
0.0
 10
426.269954
 20
90.122459
 30
0.0
 10
426.269954
 20
90.122459
 30
0.0
  0
LWPOLYLINE
  5
113
100
AcDbEntity
  8
0
 62
7
100
AcDbPolyline
 90
1
 70
1
 10
570.765599
 20
214.051942
 30
0.0
  0
SPLINE
  5
114
100
AcDbEntity
  8
0
 62
7
100
AcDbSpline
 70
8
 71
3
 72
8
 73
4
 74
0
 40
0
 40
0
 40
0
 40
0
 40
1
 40
1
 40
1
 40
1
 10
437.966925
 20
77.002513
 30
0.0
 10
437.966925
 20
77.002513
 30
0.0
 10
446.476904
 20
75.083521
 30
0.0
 10
449.998896
 20
77.002513
 30
0.0
  0
SPLINE
  5
115
100
AcDbEntity
  8
0
 62
7
100
AcDbSpline
 70
8
 71
3
 72
8
 73
4
 74
0
 40
0
 40
0
 40
0
 40
0
 40
1
 40
1
 40
1
 40
1
 10
449.998896
 20
77.002513
 30
0.0
 10
456.343880
 20
80.460499
 30
0.0
 10
465.237858
 20
95.197437
 30
0.0
 10
476.037832
 20
97.750427
 30
0.0
  0
SPLINE
  5
116
100
AcDbEntity
  8
0
 62
7
100
AcDbSpline
 70
8
 71
3
 72
8
 73
4
 74
0
 40
0
 40
0
 40
0
 40
0
 40
1
 40
1
 40
1
 40
1
 10
476.037832
 20
97.750427
 30
0.0
 10
492.375792
 20
101.612411
 30
0.0
 10
527.366706
 20
98.961422
 30
0.0
 10
548.026655
 20
100.172417
 30
0.0
  0
SPLINE
  5
117
100
AcDbEntity
  8
0
 62
7
100
AcDbSpline
 70
8
 71
3
 72
8
 73
4
 74
0
 40
0
 40
0
 40
0
 40
0
 40
1
 40
1
 40
1
 40
1
 10
548.026655
 20
100.172417
 30
0.0
 10
565.396612
 20
101.191412
 30
0.0
 10
588.692555
 20
105.883393
 30
0.0
 10
599.998528
 20
105.018396
 30
0.0
  0
SPLINE
  5
118
100
AcDbEntity
  8
0
 62
7
100
AcDbSpline
 70
8
 71
3
 72
8
 73
4
 74
0
 40
0
 40
0
 40
0
 40
0
 40
1
 40
1
 40
1
 40
1
 10
599.998528
 20
105.018396
 30
0.0
 10
606.237512
 20
104.540398
 30
0.0
 10
615.863489
 20
94.981438
 30
0.0
 10
615.863489
 20
94.981438
 30
0.0
  0
SPLINE
  5
119
100
AcDbEntity
  8
0
 62
7
100
AcDbSpline
 70
8
 71
3
 72
8
 73
4
 74
0
 40
0
 40
0
 40
0
 40
0
 40
1
 40
1
 40
1
 40
1
 10
615.863489
 20
94.981438
 30
0.0
 10
615.863489
 20
94.981438
 30
0.0
 10
615.444490
 20
110.462374
 30
0.0
 10
609.979503
 20
114.502357
 30
0.0
  0
SPLINE
  5
11a
100
AcDbEntity
  8
0
 62
7
100
AcDbSpline
 70
8
 71
3
 72
8
 73
4
 74
0
 40
0
 40
0
 40
0
 40
0
 40
1
 40
1
 40
1
 40
1
 10
609.979503
 20
114.502357
 30
0.0
 10
603.345519
 20
119.405337
 30
0.0
 10
576.061586
 20
124.400316
 30
0.0
 10
576.061586
 20
124.400316
 30
0.0
  0
SPLINE
  5
11b
100
AcDbEntity
  8
0
 62
7
100
AcDbSpline
 70
8
 71
3
 72
8
 73
4
 74
0
 40
0
 40
0
 40
0
 40
0
 40
1
 40
1
 40
1
 40
1
 10
576.061586
 20
124.400316
 30
0.0
 10
576.061586
 20
124.400316
 30
0.0
 10
603.288520
 20
195.005021
 30
0.0
 10
617.593484
 20
215.770935
 30
0.0
  0
SPLINE
  5
11c
100
AcDbEntity
  8
0
 62
7
100
AcDbSpline
 70
8
 71
3
 72
8
 73
4
 74
0
 40
0
 40
0
 40
0
 40
0
 40
1
 40
1
 40
1
 40
1
 10
617.593484
 20
215.770935
 30
0.0
 10
628.065459
 20
230.971872
 30
0.0
 10
644.339419
 20
243.292820
 30
0.0
 10
661.895376
 20
248.996796
 30
0.0
  0
SPLINE
  5
11d
100
AcDbEntity
  8
0
 62
7
100
AcDbSpline
 70
8
 71
3
 72
8
 73
4
 74
0
 40
0
 40
0
 40
0
 40
0
 40
1
 40
1
 40
1
 40
1
 10
661.895376
 20
248.996796
 30
0.0
 10
682.488325
 20
255.687769
 30
0.0
 10
711.874253
 20
256.890763
 30
0.0
 10
736.332193
 20
253.225779
 30
0.0
  0
SPLINE
  5
11e
100
AcDbEntity
  8
0
 62
7
100
AcDbSpline
 70
8
 71
3
 72
8
 73
4
 74
0
 40
0
 40
0
 40
0
 40
0
 40
1
 40
1
 40
1
 40
1
 10
736.332193
 20
253.225779
 30
0.0
 10
760.537134
 20
249.597794
 30
0.0
 10
787.233068
 20
238.861839
 30
0.0
 10
808.642016
 20
227.001888
 30
0.0
  0
SPLINE
  5
11f
100
AcDbEntity
  8
0
 62
7
100
AcDbSpline
 70
8
 71
3
 72
8
 73
4
 74
0
 40
0
 40
0
 40
0
 40
0
 40
1
 40
1
 40
1
 40
1
 10
808.642016
 20
227.001888
 30
0.0
 10
836.964946
 20
211.311953
 30
0.0
 10
886.976823
 20
177.437095
 30
0.0
 10
911.088764
 20
161.779160
 30
0.0
  0
SPLINE
  5
120
100
AcDbEntity
  8
0
 62
7
100
AcDbSpline
 70
8
 71
3
 72
8
 73
4
 74
0
 40
0
 40
0
 40
0
 40
0
 40
1
 40
1
 40
1
 40
1
 10
911.088764
 20
161.779160
 30
0.0
 10
925.365729
 20
152.507199
 30
0.0
 10
941.314690
 20
137.609261
 30
0.0
 10
953.313661
 20
133.052280
 30
0.0
  0
SPLINE
  5
121
100
AcDbEntity
  8
0
 62
7
100
AcDbSpline
 70
8
 71
3
 72
8
 73
4
 74
0
 40
0
 40
0
 40
0
 40
0
 40
1
 40
1
 40
1
 40
1
 10
953.313661
 20
133.052280
 30
0.0
 10
962.598638
 20
129.526294
 30
0.0
 10
977.367601
 20
131.278287
 30
0.0
 10
983.078587
 20
134.437274
 30
0.0
  0
SPLINE
  5
122
100
AcDbEntity
  8
0
 62
7
100
AcDbSpline
 70
8
 71
3
 72
8
 73
4
 74
0
 40
0
 40
0
 40
0
 40
0
 40
1
 40
1
 40
1
 40
1
 10
983.078587
 20
134.437274
 30
0.0
 10
988.367575
 20
137.362262
 30
0.0
 10
991.614567
 20
147.504219
 30
0.0
 10
987.577576
 20
152.002201
 30
0.0
  0
SPLINE
  5
123
100
AcDbEntity
  8
0
 62
7
100
AcDbSpline
 70
8
 71
3
 72
8
 73
4
 74
0
 40
0
 40
0
 40
0
 40
0
 40
1
 40
1
 40
1
 40
1
 10
987.577576
 20
152.002201
 30
0.0
 10
973.730610
 20
167.430136
 30
0.0
 10
932.159712
 20
198.648006
 30
0.0
 10
899.997791
 20
219.691919
 30
0.0
  0
SPLINE
  5
124
100
AcDbEntity
  8
0
 62
7
100
AcDbSpline
 70
8
 71
3
 72
8
 73
4
 74
0
 40
0
 40
0
 40
0
 40
0
 40
1
 40
1
 40
1
 40
1
 10
899.997791
 20
219.691919
 30
0.0
 10
866.650873
 20
241.510828
 30
0.0
 10
816.163997
 20
267.885718
 30
0.0
 10
787.498067
 20
282.914655
 30
0.0
  0
SPLINE
  5
125
100
AcDbEntity
  8
0
 62
7
100
AcDbSpline
 70
8
 71
3
 72
8
 73
4
 74
0
 40
0
 40
0
 40
0
 40
0
 40
1
 40
1
 40
1
 40
1
 10
787.498067
 20
282.914655
 30
0.0
 10
767.229117
 20
293.541611
 30
0.0
 10
744.818172
 20
301.656577
 30
0.0
 10
728.000213
 20
317.178512
 30
0.0
  0
SPLINE
  5
126
100
AcDbEntity
  8
0
 62
7
100
AcDbSpline
 70
8
 71
3
 72
8
 73
4
 74
0
 40
0
 40
0
 40
0
 40
0
 40
1
 40
1
 40
1
 40
1
 10
728.000213
 20
317.178512
 30
0.0
 10
704.240272
 20
339.109421
 30
0.0
 10
671.009353
 20
384.448232
 30
0.0
 10
644.935417
 20
414.501107
 30
0.0
  0
SPLINE
  5
127
100
AcDbEntity
  8
0
 62
7
100
AcDbSpline
 70
8
 71
3
 72
8
 73
4
 74
0
 40
0
 40
0
 40
0
 40
0
 40
1
 40
1
 40
1
 40
1
 10
644.935417
 20
414.501107
 30
0.0
 10
620.737477
 20
442.393990
 30
0.0
 10
591.551548
 20
477.146846
 30
0.0
 10
571.562597
 20
497.497761
 30
0.0
  0
SPLINE
  5
128
100
AcDbEntity
  8
0
 62
7
100
AcDbSpline
 70
8
 71
3
 72
8
 73
4
 74
0
 40
0
 40
0
 40
0
 40
0
 40
1
 40
1
 40
1
 40
1
 10
571.562597
 20
497.497761
 30
0.0
 10
557.358632
 20
511.958700
 30
0.0
 10
532.759693
 20
525.440644
 30
0.0
 10
524.998712
 20
536.607598
 30
0.0
  0
SPLINE
  5
129
100
AcDbEntity
  8
0
 62
7
100
AcDbSpline
 70
8
 71
3
 72
8
 73
4
 74
0
 40
0
 40
0
 40
0
 40
0
 40
1
 40
1
 40
1
 40
1
 10
524.998712
 20
536.607598
 30
0.0
 10
519.692725
 20
544.242566
 30
0.0
 10
524.998712
 20
564.500481
 30
0.0
 10
524.998712
 20
564.500481
 30
0.0
  0
SPLINE
  5
12a
100
AcDbEntity
  8
0
 62
7
100
AcDbSpline
 70
8
 71
3
 72
8
 73
4
 74
0
 40
0
 40
0
 40
0
 40
0
 40
1
 40
1
 40
1
 40
1
 10
524.998712
 20
564.500481
 30
0.0
 10
524.998712
 20
564.500481
 30
0.0
 10
596.679536
 20
583.311403
 30
0.0
 10
599.998528
 20
589.561377
 30
0.0
  0
LWPOLYLINE
  5
12b
100
AcDbEntity
  8
0
 62
7
100
AcDbPolyline
 90
3
 70
0
 10
426.269954
 20
90.122459
 30
0.0
 10
452.039891
 20
95.752435
 30
0.0
 10
437.966925
 20
77.002513
 30
0.0
  0
LWPOLYLINE
  5
12c
100
AcDbEntity
  8
0
 62
7
100
AcDbPolyline
 90
1
 70
1
 10
599.998528
 20
589.561377
 30
0.0
  0
ENDSEC
  0
SECTION
  2
OBJECTS
  0
DICTIONARY
  5
C
330
0
100
AcDbDictionary
  3
ACAD_GROUP
350
D
  3
ACAD_MLINESTYLE
350
17
  0
DICTIONARY
  5
D
330
C
100
AcDbDictionary
  0
DICTIONARY
  5
1A
330
C
100
AcDbDictionary
  0
DICTIONARY
  5
17
330
C
100
AcDbDictionary
  3
STANDARD
350
18
  0
DICTIONARY
  5
19
330
C
100
AcDbDictionary
  0
ENDSEC
  0
EOF
